<?xml version="1.0" encoding="utf-8" standalone="no"?>
<!DOCTYPE svg PUBLIC "-//W3C//DTD SVG 1.1//EN"
  "http://www.w3.org/Graphics/SVG/1.1/DTD/svg11.dtd">
<svg xmlns:xlink="http://www.w3.org/1999/xlink" width="225.985625pt" height="164.903516pt" viewBox="0 0 225.985625 164.903516" xmlns="http://www.w3.org/2000/svg" version="1.1">
 <metadata>
  <rdf:RDF xmlns:dc="http://purl.org/dc/elements/1.1/" xmlns:cc="http://creativecommons.org/ns#" xmlns:rdf="http://www.w3.org/1999/02/22-rdf-syntax-ns#">
   <cc:Work>
    <dc:type rdf:resource="http://purl.org/dc/dcmitype/StillImage"/>
    <dc:date>2026-05-24T13:54:13.525785</dc:date>
    <dc:format>image/svg+xml</dc:format>
    <dc:creator>
     <cc:Agent>
      <dc:title>Matplotlib v3.10.9, https://matplotlib.org/</dc:title>
     </cc:Agent>
    </dc:creator>
   </cc:Work>
  </rdf:RDF>
 </metadata>
 <defs>
  <style type="text/css">*{stroke-linejoin: round; stroke-linecap: butt}</style>
 </defs>
 <g id="figure_1">
  <g id="patch_1">
   <path d="M 0 164.903516 
L 225.985625 164.903516 
L 225.985625 0 
L 0 0 
z
" style="fill: #ffffff"/>
  </g>
  <g id="axes_1">
   <g id="patch_2">
    <path d="M 42.625625 131.718516 
L 218.785625 131.718516 
L 218.785625 20.418516 
L 42.625625 20.418516 
z
" style="fill: #ffffff"/>
   </g>
   <g id="patch_3">
    <path d="M 130.705625 131.718516 
L 210.778352 131.718516 
L 210.778352 20.418516 
L 130.705625 20.418516 
z
" clip-path="url(#p3414ef86c1)" style="fill: #bdbdbd; opacity: 0.18"/>
   </g>
   <g id="matplotlib.axis_1">
    <g id="xtick_1">
     <g id="line2d_1">
      <defs>
       <path id="ma52cec670e" d="M 0 0 
L 0 3 
" style="stroke: #000000; stroke-width: 0.7"/>
      </defs>
      <g>
       <use xlink:href="#ma52cec670e" x="50.632898" y="131.718516" style="stroke: #000000; stroke-width: 0.7"/>
      </g>
     </g>
     <g id="text_1">
      <!-- 0 -->
      <g transform="translate(48.24696 143.917344) scale(0.075 -0.075)">
       <defs>
        <path id="DejaVuSans-30" d="M 2034 4250 
Q 1547 4250 1301 3770 
Q 1056 3291 1056 2328 
Q 1056 1369 1301 889 
Q 1547 409 2034 409 
Q 2525 409 2770 889 
Q 3016 1369 3016 2328 
Q 3016 3291 2770 3770 
Q 2525 4250 2034 4250 
z
M 2034 4750 
Q 2819 4750 3233 4129 
Q 3647 3509 3647 2328 
Q 3647 1150 3233 529 
Q 2819 -91 2034 -91 
Q 1250 -91 836 529 
Q 422 1150 422 2328 
Q 422 3509 836 4129 
Q 1250 4750 2034 4750 
z
" transform="scale(0.015625)"/>
       </defs>
       <use xlink:href="#DejaVuSans-30"/>
      </g>
     </g>
    </g>
    <g id="xtick_2">
     <g id="line2d_2">
      <g>
       <use xlink:href="#ma52cec670e" x="82.661989" y="131.718516" style="stroke: #000000; stroke-width: 0.7"/>
      </g>
     </g>
     <g id="text_2">
      <!-- 20 -->
      <g transform="translate(77.890114 143.917344) scale(0.075 -0.075)">
       <defs>
        <path id="DejaVuSans-32" d="M 1228 531 
L 3431 531 
L 3431 0 
L 469 0 
L 469 531 
Q 828 903 1448 1529 
Q 2069 2156 2228 2338 
Q 2531 2678 2651 2914 
Q 2772 3150 2772 3378 
Q 2772 3750 2511 3984 
Q 2250 4219 1831 4219 
Q 1534 4219 1204 4116 
Q 875 4013 500 3803 
L 500 4441 
Q 881 4594 1212 4672 
Q 1544 4750 1819 4750 
Q 2544 4750 2975 4387 
Q 3406 4025 3406 3419 
Q 3406 3131 3298 2873 
Q 3191 2616 2906 2266 
Q 2828 2175 2409 1742 
Q 1991 1309 1228 531 
z
" transform="scale(0.015625)"/>
       </defs>
       <use xlink:href="#DejaVuSans-32"/>
       <use xlink:href="#DejaVuSans-30" transform="translate(63.623047 0)"/>
      </g>
     </g>
    </g>
    <g id="xtick_3">
     <g id="line2d_3">
      <g>
       <use xlink:href="#ma52cec670e" x="114.69108" y="131.718516" style="stroke: #000000; stroke-width: 0.7"/>
      </g>
     </g>
     <g id="text_3">
      <!-- 40 -->
      <g transform="translate(109.919205 143.917344) scale(0.075 -0.075)">
       <defs>
        <path id="DejaVuSans-34" d="M 2419 4116 
L 825 1625 
L 2419 1625 
L 2419 4116 
z
M 2253 4666 
L 3047 4666 
L 3047 1625 
L 3713 1625 
L 3713 1100 
L 3047 1100 
L 3047 0 
L 2419 0 
L 2419 1100 
L 313 1100 
L 313 1709 
L 2253 4666 
z
" transform="scale(0.015625)"/>
       </defs>
       <use xlink:href="#DejaVuSans-34"/>
       <use xlink:href="#DejaVuSans-30" transform="translate(63.623047 0)"/>
      </g>
     </g>
    </g>
    <g id="xtick_4">
     <g id="line2d_4">
      <g>
       <use xlink:href="#ma52cec670e" x="146.72017" y="131.718516" style="stroke: #000000; stroke-width: 0.7"/>
      </g>
     </g>
     <g id="text_4">
      <!-- 60 -->
      <g transform="translate(141.948295 143.917344) scale(0.075 -0.075)">
       <defs>
        <path id="DejaVuSans-36" d="M 2113 2584 
Q 1688 2584 1439 2293 
Q 1191 2003 1191 1497 
Q 1191 994 1439 701 
Q 1688 409 2113 409 
Q 2538 409 2786 701 
Q 3034 994 3034 1497 
Q 3034 2003 2786 2293 
Q 2538 2584 2113 2584 
z
M 3366 4563 
L 3366 3988 
Q 3128 4100 2886 4159 
Q 2644 4219 2406 4219 
Q 1781 4219 1451 3797 
Q 1122 3375 1075 2522 
Q 1259 2794 1537 2939 
Q 1816 3084 2150 3084 
Q 2853 3084 3261 2657 
Q 3669 2231 3669 1497 
Q 3669 778 3244 343 
Q 2819 -91 2113 -91 
Q 1303 -91 875 529 
Q 447 1150 447 2328 
Q 447 3434 972 4092 
Q 1497 4750 2381 4750 
Q 2619 4750 2861 4703 
Q 3103 4656 3366 4563 
z
" transform="scale(0.015625)"/>
       </defs>
       <use xlink:href="#DejaVuSans-36"/>
       <use xlink:href="#DejaVuSans-30" transform="translate(63.623047 0)"/>
      </g>
     </g>
    </g>
    <g id="xtick_5">
     <g id="line2d_5">
      <g>
       <use xlink:href="#ma52cec670e" x="178.749261" y="131.718516" style="stroke: #000000; stroke-width: 0.7"/>
      </g>
     </g>
     <g id="text_5">
      <!-- 80 -->
      <g transform="translate(173.977386 143.917344) scale(0.075 -0.075)">
       <defs>
        <path id="DejaVuSans-38" d="M 2034 2216 
Q 1584 2216 1326 1975 
Q 1069 1734 1069 1313 
Q 1069 891 1326 650 
Q 1584 409 2034 409 
Q 2484 409 2743 651 
Q 3003 894 3003 1313 
Q 3003 1734 2745 1975 
Q 2488 2216 2034 2216 
z
M 1403 2484 
Q 997 2584 770 2862 
Q 544 3141 544 3541 
Q 544 4100 942 4425 
Q 1341 4750 2034 4750 
Q 2731 4750 3128 4425 
Q 3525 4100 3525 3541 
Q 3525 3141 3298 2862 
Q 3072 2584 2669 2484 
Q 3125 2378 3379 2068 
Q 3634 1759 3634 1313 
Q 3634 634 3220 271 
Q 2806 -91 2034 -91 
Q 1263 -91 848 271 
Q 434 634 434 1313 
Q 434 1759 690 2068 
Q 947 2378 1403 2484 
z
M 1172 3481 
Q 1172 3119 1398 2916 
Q 1625 2713 2034 2713 
Q 2441 2713 2670 2916 
Q 2900 3119 2900 3481 
Q 2900 3844 2670 4047 
Q 2441 4250 2034 4250 
Q 1625 4250 1398 4047 
Q 1172 3844 1172 3481 
z
" transform="scale(0.015625)"/>
       </defs>
       <use xlink:href="#DejaVuSans-38"/>
       <use xlink:href="#DejaVuSans-30" transform="translate(63.623047 0)"/>
      </g>
     </g>
    </g>
    <g id="xtick_6">
     <g id="line2d_6">
      <g>
       <use xlink:href="#ma52cec670e" x="210.778352" y="131.718516" style="stroke: #000000; stroke-width: 0.7"/>
      </g>
     </g>
     <g id="text_6">
      <!-- 100 -->
      <g transform="translate(203.62054 143.917344) scale(0.075 -0.075)">
       <defs>
        <path id="DejaVuSans-31" d="M 794 531 
L 1825 531 
L 1825 4091 
L 703 3866 
L 703 4441 
L 1819 4666 
L 2450 4666 
L 2450 531 
L 3481 531 
L 3481 0 
L 794 0 
L 794 531 
z
" transform="scale(0.015625)"/>
       </defs>
       <use xlink:href="#DejaVuSans-31"/>
       <use xlink:href="#DejaVuSans-30" transform="translate(63.623047 0)"/>
       <use xlink:href="#DejaVuSans-30" transform="translate(127.246094 0)"/>
      </g>
     </g>
    </g>
    <g id="text_7">
     <!-- Time (ns) -->
     <g transform="translate(110.732617 155.935781) scale(0.085 -0.085)">
      <defs>
       <path id="DejaVuSans-54" d="M -19 4666 
L 3928 4666 
L 3928 4134 
L 2272 4134 
L 2272 0 
L 1638 0 
L 1638 4134 
L -19 4134 
L -19 4666 
z
" transform="scale(0.015625)"/>
       <path id="DejaVuSans-69" d="M 603 3500 
L 1178 3500 
L 1178 0 
L 603 0 
L 603 3500 
z
M 603 4863 
L 1178 4863 
L 1178 4134 
L 603 4134 
L 603 4863 
z
" transform="scale(0.015625)"/>
       <path id="DejaVuSans-6d" d="M 3328 2828 
Q 3544 3216 3844 3400 
Q 4144 3584 4550 3584 
Q 5097 3584 5394 3201 
Q 5691 2819 5691 2113 
L 5691 0 
L 5113 0 
L 5113 2094 
Q 5113 2597 4934 2840 
Q 4756 3084 4391 3084 
Q 3944 3084 3684 2787 
Q 3425 2491 3425 1978 
L 3425 0 
L 2847 0 
L 2847 2094 
Q 2847 2600 2669 2842 
Q 2491 3084 2119 3084 
Q 1678 3084 1418 2786 
Q 1159 2488 1159 1978 
L 1159 0 
L 581 0 
L 581 3500 
L 1159 3500 
L 1159 2956 
Q 1356 3278 1631 3431 
Q 1906 3584 2284 3584 
Q 2666 3584 2933 3390 
Q 3200 3197 3328 2828 
z
" transform="scale(0.015625)"/>
       <path id="DejaVuSans-65" d="M 3597 1894 
L 3597 1613 
L 953 1613 
Q 991 1019 1311 708 
Q 1631 397 2203 397 
Q 2534 397 2845 478 
Q 3156 559 3463 722 
L 3463 178 
Q 3153 47 2828 -22 
Q 2503 -91 2169 -91 
Q 1331 -91 842 396 
Q 353 884 353 1716 
Q 353 2575 817 3079 
Q 1281 3584 2069 3584 
Q 2775 3584 3186 3129 
Q 3597 2675 3597 1894 
z
M 3022 2063 
Q 3016 2534 2758 2815 
Q 2500 3097 2075 3097 
Q 1594 3097 1305 2825 
Q 1016 2553 972 2059 
L 3022 2063 
z
" transform="scale(0.015625)"/>
       <path id="DejaVuSans-20" transform="scale(0.015625)"/>
       <path id="DejaVuSans-28" d="M 1984 4856 
Q 1566 4138 1362 3434 
Q 1159 2731 1159 2009 
Q 1159 1288 1364 580 
Q 1569 -128 1984 -844 
L 1484 -844 
Q 1016 -109 783 600 
Q 550 1309 550 2009 
Q 550 2706 781 3412 
Q 1013 4119 1484 4856 
L 1984 4856 
z
" transform="scale(0.015625)"/>
       <path id="DejaVuSans-6e" d="M 3513 2113 
L 3513 0 
L 2938 0 
L 2938 2094 
Q 2938 2591 2744 2837 
Q 2550 3084 2163 3084 
Q 1697 3084 1428 2787 
Q 1159 2491 1159 1978 
L 1159 0 
L 581 0 
L 581 3500 
L 1159 3500 
L 1159 2956 
Q 1366 3272 1645 3428 
Q 1925 3584 2291 3584 
Q 2894 3584 3203 3211 
Q 3513 2838 3513 2113 
z
" transform="scale(0.015625)"/>
       <path id="DejaVuSans-73" d="M 2834 3397 
L 2834 2853 
Q 2591 2978 2328 3040 
Q 2066 3103 1784 3103 
Q 1356 3103 1142 2972 
Q 928 2841 928 2578 
Q 928 2378 1081 2264 
Q 1234 2150 1697 2047 
L 1894 2003 
Q 2506 1872 2764 1633 
Q 3022 1394 3022 966 
Q 3022 478 2636 193 
Q 2250 -91 1575 -91 
Q 1294 -91 989 -36 
Q 684 19 347 128 
L 347 722 
Q 666 556 975 473 
Q 1284 391 1588 391 
Q 1994 391 2212 530 
Q 2431 669 2431 922 
Q 2431 1156 2273 1281 
Q 2116 1406 1581 1522 
L 1381 1569 
Q 847 1681 609 1914 
Q 372 2147 372 2553 
Q 372 3047 722 3315 
Q 1072 3584 1716 3584 
Q 2034 3584 2315 3537 
Q 2597 3491 2834 3397 
z
" transform="scale(0.015625)"/>
       <path id="DejaVuSans-29" d="M 513 4856 
L 1013 4856 
Q 1481 4119 1714 3412 
Q 1947 2706 1947 2009 
Q 1947 1309 1714 600 
Q 1481 -109 1013 -844 
L 513 -844 
Q 928 -128 1133 580 
Q 1338 1288 1338 2009 
Q 1338 2731 1133 3434 
Q 928 4138 513 4856 
z
" transform="scale(0.015625)"/>
      </defs>
      <use xlink:href="#DejaVuSans-54"/>
      <use xlink:href="#DejaVuSans-69" transform="translate(57.958984 0)"/>
      <use xlink:href="#DejaVuSans-6d" transform="translate(85.742188 0)"/>
      <use xlink:href="#DejaVuSans-65" transform="translate(183.154297 0)"/>
      <use xlink:href="#DejaVuSans-20" transform="translate(244.677734 0)"/>
      <use xlink:href="#DejaVuSans-28" transform="translate(276.464844 0)"/>
      <use xlink:href="#DejaVuSans-6e" transform="translate(315.478516 0)"/>
      <use xlink:href="#DejaVuSans-73" transform="translate(378.857422 0)"/>
      <use xlink:href="#DejaVuSans-29" transform="translate(430.957031 0)"/>
     </g>
    </g>
   </g>
   <g id="matplotlib.axis_2">
    <g id="ytick_1">
     <g id="line2d_7">
      <defs>
       <path id="mfa6fabf505" d="M 0 0 
L -3 0 
" style="stroke: #000000; stroke-width: 0.7"/>
      </defs>
      <g>
       <use xlink:href="#mfa6fabf505" x="42.625625" y="116.498387" style="stroke: #000000; stroke-width: 0.7"/>
      </g>
     </g>
     <g id="text_8">
      <!-- 2.25 -->
      <g transform="translate(19.426406 119.347801) scale(0.075 -0.075)">
       <defs>
        <path id="DejaVuSans-2e" d="M 684 794 
L 1344 794 
L 1344 0 
L 684 0 
L 684 794 
z
" transform="scale(0.015625)"/>
        <path id="DejaVuSans-35" d="M 691 4666 
L 3169 4666 
L 3169 4134 
L 1269 4134 
L 1269 2991 
Q 1406 3038 1543 3061 
Q 1681 3084 1819 3084 
Q 2600 3084 3056 2656 
Q 3513 2228 3513 1497 
Q 3513 744 3044 326 
Q 2575 -91 1722 -91 
Q 1428 -91 1123 -41 
Q 819 9 494 109 
L 494 744 
Q 775 591 1075 516 
Q 1375 441 1709 441 
Q 2250 441 2565 725 
Q 2881 1009 2881 1497 
Q 2881 1984 2565 2268 
Q 2250 2553 1709 2553 
Q 1456 2553 1204 2497 
Q 953 2441 691 2322 
L 691 4666 
z
" transform="scale(0.015625)"/>
       </defs>
       <use xlink:href="#DejaVuSans-32"/>
       <use xlink:href="#DejaVuSans-2e" transform="translate(63.623047 0)"/>
       <use xlink:href="#DejaVuSans-32" transform="translate(95.410156 0)"/>
       <use xlink:href="#DejaVuSans-35" transform="translate(159.033203 0)"/>
      </g>
     </g>
    </g>
    <g id="ytick_2">
     <g id="line2d_8">
      <g>
       <use xlink:href="#mfa6fabf505" x="42.625625" y="100.555003" style="stroke: #000000; stroke-width: 0.7"/>
      </g>
     </g>
     <g id="text_9">
      <!-- 2.50 -->
      <g transform="translate(19.426406 103.404417) scale(0.075 -0.075)">
       <use xlink:href="#DejaVuSans-32"/>
       <use xlink:href="#DejaVuSans-2e" transform="translate(63.623047 0)"/>
       <use xlink:href="#DejaVuSans-35" transform="translate(95.410156 0)"/>
       <use xlink:href="#DejaVuSans-30" transform="translate(159.033203 0)"/>
      </g>
     </g>
    </g>
    <g id="ytick_3">
     <g id="line2d_9">
      <g>
       <use xlink:href="#mfa6fabf505" x="42.625625" y="84.611619" style="stroke: #000000; stroke-width: 0.7"/>
      </g>
     </g>
     <g id="text_10">
      <!-- 2.75 -->
      <g transform="translate(19.426406 87.461033) scale(0.075 -0.075)">
       <defs>
        <path id="DejaVuSans-37" d="M 525 4666 
L 3525 4666 
L 3525 4397 
L 1831 0 
L 1172 0 
L 2766 4134 
L 525 4134 
L 525 4666 
z
" transform="scale(0.015625)"/>
       </defs>
       <use xlink:href="#DejaVuSans-32"/>
       <use xlink:href="#DejaVuSans-2e" transform="translate(63.623047 0)"/>
       <use xlink:href="#DejaVuSans-37" transform="translate(95.410156 0)"/>
       <use xlink:href="#DejaVuSans-35" transform="translate(159.033203 0)"/>
      </g>
     </g>
    </g>
    <g id="ytick_4">
     <g id="line2d_10">
      <g>
       <use xlink:href="#mfa6fabf505" x="42.625625" y="68.668234" style="stroke: #000000; stroke-width: 0.7"/>
      </g>
     </g>
     <g id="text_11">
      <!-- 3.00 -->
      <g transform="translate(19.426406 71.517648) scale(0.075 -0.075)">
       <defs>
        <path id="DejaVuSans-33" d="M 2597 2516 
Q 3050 2419 3304 2112 
Q 3559 1806 3559 1356 
Q 3559 666 3084 287 
Q 2609 -91 1734 -91 
Q 1441 -91 1130 -33 
Q 819 25 488 141 
L 488 750 
Q 750 597 1062 519 
Q 1375 441 1716 441 
Q 2309 441 2620 675 
Q 2931 909 2931 1356 
Q 2931 1769 2642 2001 
Q 2353 2234 1838 2234 
L 1294 2234 
L 1294 2753 
L 1863 2753 
Q 2328 2753 2575 2939 
Q 2822 3125 2822 3475 
Q 2822 3834 2567 4026 
Q 2313 4219 1838 4219 
Q 1578 4219 1281 4162 
Q 984 4106 628 3988 
L 628 4550 
Q 988 4650 1302 4700 
Q 1616 4750 1894 4750 
Q 2613 4750 3031 4423 
Q 3450 4097 3450 3541 
Q 3450 3153 3228 2886 
Q 3006 2619 2597 2516 
z
" transform="scale(0.015625)"/>
       </defs>
       <use xlink:href="#DejaVuSans-33"/>
       <use xlink:href="#DejaVuSans-2e" transform="translate(63.623047 0)"/>
       <use xlink:href="#DejaVuSans-30" transform="translate(95.410156 0)"/>
       <use xlink:href="#DejaVuSans-30" transform="translate(159.033203 0)"/>
      </g>
     </g>
    </g>
    <g id="ytick_5">
     <g id="line2d_11">
      <g>
       <use xlink:href="#mfa6fabf505" x="42.625625" y="52.72485" style="stroke: #000000; stroke-width: 0.7"/>
      </g>
     </g>
     <g id="text_12">
      <!-- 3.25 -->
      <g transform="translate(19.426406 55.574264) scale(0.075 -0.075)">
       <use xlink:href="#DejaVuSans-33"/>
       <use xlink:href="#DejaVuSans-2e" transform="translate(63.623047 0)"/>
       <use xlink:href="#DejaVuSans-32" transform="translate(95.410156 0)"/>
       <use xlink:href="#DejaVuSans-35" transform="translate(159.033203 0)"/>
      </g>
     </g>
    </g>
    <g id="ytick_6">
     <g id="line2d_12">
      <g>
       <use xlink:href="#mfa6fabf505" x="42.625625" y="36.781466" style="stroke: #000000; stroke-width: 0.7"/>
      </g>
     </g>
     <g id="text_13">
      <!-- 3.50 -->
      <g transform="translate(19.426406 39.63088) scale(0.075 -0.075)">
       <use xlink:href="#DejaVuSans-33"/>
       <use xlink:href="#DejaVuSans-2e" transform="translate(63.623047 0)"/>
       <use xlink:href="#DejaVuSans-35" transform="translate(95.410156 0)"/>
       <use xlink:href="#DejaVuSans-30" transform="translate(159.033203 0)"/>
      </g>
     </g>
    </g>
    <g id="ytick_7">
     <g id="line2d_13">
      <g>
       <use xlink:href="#mfa6fabf505" x="42.625625" y="20.838082" style="stroke: #000000; stroke-width: 0.7"/>
      </g>
     </g>
     <g id="text_14">
      <!-- 3.75 -->
      <g transform="translate(19.426406 23.687496) scale(0.075 -0.075)">
       <use xlink:href="#DejaVuSans-33"/>
       <use xlink:href="#DejaVuSans-2e" transform="translate(63.623047 0)"/>
       <use xlink:href="#DejaVuSans-37" transform="translate(95.410156 0)"/>
       <use xlink:href="#DejaVuSans-35" transform="translate(159.033203 0)"/>
      </g>
     </g>
    </g>
    <g id="text_15">
     <!-- Rg (nm) -->
     <g transform="translate(13.658672 93.219922) rotate(-90) scale(0.085 -0.085)">
      <defs>
       <path id="DejaVuSans-52" d="M 2841 2188 
Q 3044 2119 3236 1894 
Q 3428 1669 3622 1275 
L 4263 0 
L 3584 0 
L 2988 1197 
Q 2756 1666 2539 1819 
Q 2322 1972 1947 1972 
L 1259 1972 
L 1259 0 
L 628 0 
L 628 4666 
L 2053 4666 
Q 2853 4666 3247 4331 
Q 3641 3997 3641 3322 
Q 3641 2881 3436 2590 
Q 3231 2300 2841 2188 
z
M 1259 4147 
L 1259 2491 
L 2053 2491 
Q 2509 2491 2742 2702 
Q 2975 2913 2975 3322 
Q 2975 3731 2742 3939 
Q 2509 4147 2053 4147 
L 1259 4147 
z
" transform="scale(0.015625)"/>
       <path id="DejaVuSans-67" d="M 2906 1791 
Q 2906 2416 2648 2759 
Q 2391 3103 1925 3103 
Q 1463 3103 1205 2759 
Q 947 2416 947 1791 
Q 947 1169 1205 825 
Q 1463 481 1925 481 
Q 2391 481 2648 825 
Q 2906 1169 2906 1791 
z
M 3481 434 
Q 3481 -459 3084 -895 
Q 2688 -1331 1869 -1331 
Q 1566 -1331 1297 -1286 
Q 1028 -1241 775 -1147 
L 775 -588 
Q 1028 -725 1275 -790 
Q 1522 -856 1778 -856 
Q 2344 -856 2625 -561 
Q 2906 -266 2906 331 
L 2906 616 
Q 2728 306 2450 153 
Q 2172 0 1784 0 
Q 1141 0 747 490 
Q 353 981 353 1791 
Q 353 2603 747 3093 
Q 1141 3584 1784 3584 
Q 2172 3584 2450 3431 
Q 2728 3278 2906 2969 
L 2906 3500 
L 3481 3500 
L 3481 434 
z
" transform="scale(0.015625)"/>
      </defs>
      <use xlink:href="#DejaVuSans-52"/>
      <use xlink:href="#DejaVuSans-67" transform="translate(69.482422 0)"/>
      <use xlink:href="#DejaVuSans-20" transform="translate(132.958984 0)"/>
      <use xlink:href="#DejaVuSans-28" transform="translate(164.746094 0)"/>
      <use xlink:href="#DejaVuSans-6e" transform="translate(203.759766 0)"/>
      <use xlink:href="#DejaVuSans-6d" transform="translate(267.138672 0)"/>
      <use xlink:href="#DejaVuSans-29" transform="translate(364.550781 0)"/>
     </g>
    </g>
   </g>
   <g id="line2d_14">
    <path d="M 50.632898 42.572741 
L 50.728985 47.393382 
L 50.761014 47.367235 
L 50.777029 47.329609 
L 50.841087 49.313604 
L 50.857101 47.524118 
L 50.88913 47.726918 
L 50.985218 42.528737 
L 51.001232 42.798499 
L 51.017247 41.616776 
L 51.049276 38.354121 
L 51.09732 43.448351 
L 51.129349 45.498033 
L 51.161378 41.409512 
L 51.27348 35.302558 
L 51.321523 35.733029 
L 51.465654 30.543776 
L 51.481669 33.272008 
L 51.529712 34.966471 
L 51.561741 32.687843 
L 51.577756 30.738923 
L 51.641814 33.957574 
L 51.657829 33.509884 
L 51.673843 33.89954 
L 51.785945 25.477607 
L 51.817974 26.117893 
L 51.850003 30.212154 
L 51.898047 27.485835 
L 52.010149 37.306322 
L 52.026163 35.604844 
L 52.090221 39.811984 
L 52.106236 43.029359 
L 52.170294 36.632874 
L 52.186309 37.0423 
L 52.202323 37.606058 
L 52.250367 36.646266 
L 52.282396 30.489569 
L 52.33044 38.542253 
L 52.442541 34.905886 
L 52.394498 39.637883 
L 52.458556 37.062707 
L 52.538629 40.34258 
L 52.5066 36.952379 
L 52.554643 37.702994 
L 52.570658 35.469644 
L 52.634716 40.932485 
L 52.65073 40.889119 
L 52.666745 40.974576 
L 52.746818 43.776785 
L 52.762832 40.414007 
L 52.778847 40.167841 
L 52.938992 50.774018 
L 53.019065 40.213758 
L 53.083123 45.417041 
L 53.099138 44.705328 
L 53.131167 46.913805 
L 53.17921 50.406044 
L 53.291312 49.019608 
L 53.35537 44.987845 
L 53.419429 46.886383 
L 53.435443 46.364715 
L 53.483487 47.763907 
L 53.499501 50.19049 
L 53.547545 43.883925 
L 53.56356 44.033793 
L 53.611603 43.371186 
L 53.771749 52.712095 
L 53.787763 48.642706 
L 53.851821 56.496417 
L 53.88385 59.479105 
L 53.931894 53.708876 
L 53.995952 55.144418 
L 54.011967 53.698034 
L 54.06001 55.238803 
L 54.140083 50.00172 
L 54.156098 52.912982 
L 54.204141 46.87873 
L 54.220156 47.318767 
L 54.348272 40.240543 
L 54.252185 48.763238 
L 54.364287 42.545956 
L 54.572476 66.738447 
L 54.652549 61.67164 
L 54.716607 57.643065 
L 54.780665 59.340717 
L 54.79668 61.264765 
L 54.828709 57.704288 
L 54.860738 59.273755 
L 55.020883 49.890754 
L 55.036898 50.885621 
L 55.213058 43.731506 
L 55.245087 44.563113 
L 55.261101 48.066831 
L 55.32516 40.58492 
L 55.341174 40.472678 
L 55.389218 44.363502 
L 55.421247 40.071543 
L 55.437261 42.54213 
L 55.46929 36.060825 
L 55.565378 38.156423 
L 55.709509 44.53569 
L 55.725523 43.376287 
L 55.741538 43.602046 
L 55.757552 42.669039 
L 55.789581 40.260312 
L 55.82161 44.96106 
L 55.837625 44.821396 
L 55.885669 47.474375 
L 55.917698 44.899199 
L 56.013785 40.638489 
L 56.0298 44.158151 
L 56.093858 48.807242 
L 56.189945 47.479477 
L 56.221974 48.906091 
L 56.237989 46.640217 
L 56.254003 44.411332 
L 56.302047 49.568698 
L 56.318061 48.781732 
L 56.52625 58.675559 
L 56.55828 57.129051 
L 56.606323 55.04812 
L 56.654367 57.014258 
L 56.686396 58.153891 
L 56.718425 54.869554 
L 56.750454 56.417338 
L 56.846541 52.673831 
L 56.87857 55.525784 
L 56.894585 55.553207 
L 56.9106 57.800586 
L 56.990672 55.471576 
L 57.102774 44.419622 
L 57.118789 47.232035 
L 57.182847 54.865728 
L 57.23089 49.010679 
L 57.375021 41.178651 
L 57.535167 50.482573 
L 57.551181 50.569942 
L 57.567196 52.307134 
L 57.631254 51.180893 
L 57.647269 48.43608 
L 57.711327 52.743345 
L 57.743356 55.178218 
L 57.807414 52.229968 
L 57.823429 51.778451 
L 57.855458 53.937185 
L 57.871472 54.838943 
L 57.903501 52.720386 
L 57.93553 49.841011 
L 58.015603 52.497179 
L 58.031618 51.980613 
L 58.047632 53.717166 
L 58.095676 52.121553 
L 58.191763 55.28472 
L 58.223792 53.426997 
L 58.239807 51.420044 
L 58.271836 55.463286 
L 58.31988 52.353688 
L 58.383938 51.999745 
L 58.480025 58.154529 
L 58.49604 56.889262 
L 58.512054 60.032022 
L 58.608141 66.885126 
L 58.64017 66.299048 
L 58.688214 61.88847 
L 58.752272 64.056132 
L 58.928432 75.324916 
L 58.960461 72.497835 
L 58.976476 75.853599 
L 59.056549 74.364487 
L 59.104592 76.921806 
L 59.152636 75.088316 
L 59.184665 72.361998 
L 59.248723 72.717854 
L 59.328796 77.946646 
L 59.360825 75.590852 
L 59.37684 75.74901 
L 59.408869 77.348451 
L 59.472927 75.234995 
L 59.601043 67.490337 
L 59.633072 68.09491 
L 59.665101 71.954485 
L 59.761189 69.221789 
L 59.841261 72.782903 
L 59.90532 76.437764 
L 59.953363 72.908537 
L 59.969378 72.52462 
L 59.985392 74.168702 
L 60.001407 74.013732 
L 60.129523 77.05573 
L 60.065465 73.657876 
L 60.145538 76.387383 
L 60.161552 76.789794 
L 60.25764 73.206997 
L 60.273654 74.004804 
L 60.289669 74.36066 
L 60.321698 73.317963 
L 60.449814 70.645852 
L 60.465829 71.327591 
L 60.513872 74.863834 
L 60.57793 72.242103 
L 60.658003 68.792593 
L 60.690032 71.437919 
L 60.75409 74.667411 
L 60.78612 72.0291 
L 60.802134 69.776618 
L 60.866192 75.616361 
L 60.882207 73.178937 
L 60.93025 73.16108 
L 61.010323 75.950535 
L 61.026338 74.538588 
L 61.074381 77.069122 
L 61.122425 74.812815 
L 61.250541 77.984273 
L 61.266556 77.954299 
L 61.362643 78.796748 
L 61.394672 76.185859 
L 61.426701 78.507853 
L 61.49076 76.909051 
L 61.618876 72.91045 
L 61.63489 73.571144 
L 61.795036 78.812053 
L 61.827065 77.875858 
L 61.907138 71.370957 
L 61.98721 74.104928 
L 62.051269 78.146257 
L 62.115327 76.586994 
L 62.179385 76.488145 
L 62.259458 79.614962 
L 62.307501 78.604789 
L 62.291487 81.473323 
L 62.33953 80.705489 
L 62.355545 80.69401 
L 62.403589 83.814449 
L 62.467647 83.662031 
L 62.51569 80.245682 
L 62.579749 82.765375 
L 62.739894 84.955358 
L 62.771923 80.678067 
L 62.884025 81.989251 
L 63.04417 87.096236 
L 63.0762 83.563182 
L 63.108229 88.087914 
L 63.156272 84.597588 
L 63.172287 85.530595 
L 63.188301 83.188193 
L 63.236345 83.973883 
L 63.444534 78.610529 
L 63.476563 79.1424 
L 63.492578 82.125726 
L 63.588665 80.17043 
L 63.620694 79.927452 
L 63.636709 80.806889 
L 63.652723 77.971518 
L 63.700767 82.276869 
L 63.74881 79.972094 
L 63.764825 79.562668 
L 63.892941 86.697013 
L 63.908956 86.260802 
L 63.957 80.469527 
L 64.037072 80.65192 
L 64.085116 82.816394 
L 64.13316 79.835618 
L 64.27729 82.754533 
L 64.181203 79.519939 
L 64.293305 82.005832 
L 64.30932 81.031372 
L 64.357363 83.653102 
L 64.533523 88.335355 
L 64.565552 87.895318 
L 64.677654 82.176745 
L 64.757727 82.545356 
L 64.8378 85.927904 
L 64.869829 84.787634 
L 64.933887 82.262839 
L 64.965916 82.978378 
L 64.997945 86.799689 
L 65.078018 83.797231 
L 65.222149 87.931031 
L 65.302221 90.919459 
L 65.254178 86.906828 
L 65.350265 90.89395 
L 65.478381 85.350116 
L 65.51041 86.310546 
L 65.54244 88.505631 
L 65.622512 87.362809 
L 65.68657 88.968627 
L 65.702585 86.374319 
L 65.846716 81.653164 
L 65.750629 87.857054 
L 65.878745 82.612956 
L 65.89476 83.243039 
L 65.910774 81.794104 
L 65.958818 81.944609 
L 65.974832 81.739259 
L 66.134978 88.492238 
L 66.183021 83.346352 
L 66.279109 83.956664 
L 66.359181 85.454705 
L 66.42324 80.041607 
L 66.471283 82.348934 
L 66.535341 81.219504 
L 66.56737 78.947891 
L 66.5994 81.236085 
L 66.631429 80.207418 
L 66.663458 82.595737 
L 66.74353 80.861735 
L 66.77556 81.425493 
L 66.855632 79.273136 
L 66.903676 76.22221 
L 66.887661 79.765468 
L 66.91969 77.508522 
L 66.935705 81.092595 
L 67.015778 78.250208 
L 67.047807 75.705006 
L 67.09585 79.206811 
L 67.12788 76.701149 
L 67.143894 76.319146 
L 67.159909 78.368189 
L 67.207952 79.363694 
L 67.239981 77.834405 
L 67.255996 78.644329 
L 67.320054 75.868267 
L 67.336069 79.009113 
L 67.368098 78.361812 
L 67.400127 80.022475 
L 67.44817 76.334451 
L 67.528243 73.701242 
L 67.496214 76.457534 
L 67.576287 74.781566 
L 67.704403 82.57533 
L 67.720418 81.447176 
L 67.736432 80.692735 
L 67.784476 82.506454 
L 67.816505 83.662031 
L 67.83252 81.096421 
L 67.864549 82.054938 
L 67.928607 77.611835 
L 67.97665 78.815242 
L 68.056723 85.313765 
L 68.088752 81.036474 
L 68.104767 80.919769 
L 68.18484 77.671782 
L 68.232883 78.17942 
L 68.280927 81.056244 
L 68.361 80.25206 
L 68.489116 76.863134 
L 68.50513 76.711353 
L 68.521145 77.674971 
L 68.585203 75.898878 
L 68.601218 77.009175 
L 68.617232 75.937142 
L 68.665276 79.190868 
L 68.68129 78.441529 
L 68.777378 75.819799 
L 68.809407 78.011058 
L 68.841436 82.054938 
L 68.921509 80.856633 
L 68.937523 76.792345 
L 69.001581 85.39412 
L 69.017596 84.035744 
L 69.225785 89.992192 
L 69.2418 89.436087 
L 69.337887 81.296032 
L 69.38593 85.454705 
L 69.401945 86.501229 
L 69.449989 84.799113 
L 69.498032 82.037081 
L 69.546076 85.508912 
L 69.578105 85.823954 
L 69.59412 84.970026 
L 69.658178 90.704542 
L 69.722236 90.196267 
L 69.73825 90.420112 
L 69.754265 90.047037 
L 69.802309 90.50238 
L 69.866367 88.29454 
L 69.882381 91.007467 
L 69.94644 85.701508 
L 69.962454 85.209814 
L 69.994483 86.547145 
L 70.026512 88.95651 
L 70.074556 84.493638 
L 70.186658 80.911478 
L 70.202672 82.59765 
L 70.282745 84.315709 
L 70.26673 81.885938 
L 70.29876 83.276839 
L 70.314774 81.617451 
L 70.362818 84.37183 
L 70.410861 81.806858 
L 70.47492 82.937563 
L 70.490934 81.070274 
L 70.506949 81.001399 
L 70.61905 84.003219 
L 70.635065 82.415896 
L 70.65108 81.922289 
L 70.667094 83.264722 
L 70.763181 88.393389 
L 70.731152 83.173525 
L 70.811225 87.992892 
L 70.843254 84.955358 
L 70.907312 88.04391 
L 70.939341 85.213641 
L 70.955356 88.094929 
L 71.035429 84.90689 
L 71.067458 85.275501 
L 71.083472 84.305506 
L 71.14753 86.217436 
L 71.163545 86.251874 
L 71.195574 87.756929 
L 71.227603 84.903064 
L 71.371734 81.587478 
L 71.403763 84.005132 
L 71.483836 81.810685 
L 71.49985 82.155062 
L 71.515865 81.132772 
L 71.643981 76.704976 
L 71.836156 84.044034 
L 72.012316 79.810747 
L 72.02833 81.84576 
L 72.092389 78.05251 
L 72.108403 79.600294 
L 72.252534 75.83064 
L 72.140432 79.657053 
L 72.316592 75.879108 
L 72.348621 78.489359 
L 72.38065 75.852323 
L 72.396665 76.111882 
L 72.41268 73.224216 
L 72.460723 76.411617 
L 72.508767 75.844033 
L 72.604854 73.309672 
L 72.55681 76.129738 
L 72.636883 73.538619 
L 72.668912 75.70692 
L 72.73297 73.596016 
L 72.748985 73.265031 
L 72.765 74.243317 
L 72.877101 78.412831 
L 72.893116 77.178813 
L 72.973189 72.615179 
L 72.989203 74.995207 
L 73.021232 79.794803 
L 73.101305 78.114371 
L 73.133334 77.020655 
L 73.149349 75.026456 
L 73.197392 77.597805 
L 73.245436 75.124667 
L 73.341523 79.083091 
L 73.389567 80.967599 
L 73.453625 79.918524 
L 73.6458 70.664984 
L 73.677829 71.245323 
L 73.693843 71.002984 
L 73.82196 77.713873 
L 73.853989 79.681286 
L 73.950076 74.311555 
L 74.030149 72.595409 
L 74.110221 80.989919 
L 74.206309 78.521246 
L 74.222323 78.938325 
L 74.238338 82.121262 
L 74.334425 80.854082 
L 74.398483 81.982873 
L 74.446527 81.153817 
L 74.5266 78.271254 
L 74.558629 80.164052 
L 74.574643 81.903157 
L 74.654716 79.864954 
L 74.70276 77.417326 
L 74.750803 80.63215 
L 74.766818 79.532056 
L 74.814861 82.54153 
L 74.862905 78.278269 
L 74.910949 80.666588 
L 74.942978 78.717668 
L 75.05508 75.342135 
L 75.135152 78.299952 
L 75.087109 74.556445 
L 75.167181 76.824232 
L 75.215225 74.755419 
L 75.23124 76.836349 
L 75.279283 75.663554 
L 75.343341 75.037935 
L 75.359356 77.119504 
L 75.37537 75.01689 
L 75.471458 76.494523 
L 75.487472 77.608009 
L 75.55153 75.115101 
L 75.567545 75.780259 
L 75.58356 75.939693 
L 75.599574 75.188441 
L 75.647618 73.280337 
L 75.631603 75.844671 
L 75.663632 74.291785 
L 75.743705 77.741933 
L 75.775734 77.691552 
L 75.871821 72.728695 
L 75.90385 74.247781 
L 75.983923 77.141824 
L 75.999938 74.918679 
L 76.015952 74.263725 
L 76.047981 77.213888 
L 76.063996 75.121479 
L 76.08001 76.79936 
L 76.128054 74.506702 
L 76.160083 75.12403 
L 76.176098 74.240128 
L 76.224141 75.449275 
L 76.25617 74.925694 
L 76.336243 74.180819 
L 76.384287 78.430687 
L 76.512403 75.065358 
L 76.624505 79.1424 
L 76.560447 73.578159 
L 76.64052 77.729179 
L 76.736607 74.830671 
L 76.672549 77.730454 
L 76.752621 76.521308 
L 76.768636 78.401352 
L 76.81668 75.424403 
L 76.848709 75.775795 
L 76.912767 75.866354 
L 76.944796 74.863196 
L 77.024869 76.954968 
L 77.040883 73.589638 
L 77.056898 75.558327 
L 77.13697 77.97662 
L 77.169 76.375904 
L 77.185014 75.629754 
L 77.201029 76.533425 
L 77.265087 81.956089 
L 77.31313 77.046164 
L 77.329145 77.796141 
L 77.393203 76.231776 
L 77.409218 76.067878 
L 77.425232 76.379093 
L 77.457261 77.832492 
L 77.505305 75.897603 
L 77.729509 67.434216 
L 77.809581 71.508708 
L 77.84161 69.098068 
L 77.857625 68.376152 
L 77.889654 70.831433 
L 78.001756 73.472933 
L 77.953712 69.678407 
L 78.01777 73.45125 
L 78.065814 71.492127 
L 78.113858 74.909113 
L 78.209945 71.145836 
L 78.241974 71.708319 
L 78.418134 80.654471 
L 78.450163 79.640471 
L 78.498207 76.745791 
L 78.530236 79.754626 
L 78.57828 77.716424 
L 78.594294 78.431963 
L 78.626323 77.484288 
L 78.674367 78.363087 
L 78.690381 77.072311 
L 78.75444 80.82921 
L 78.786469 79.174287 
L 78.818498 81.067723 
L 78.850527 80.262901 
L 78.962629 88.056027 
L 78.994658 85.228309 
L 79.058716 80.658297 
L 79.10676 83.310001 
L 79.234876 87.850039 
L 79.25089 86.440006 
L 79.298934 89.474351 
L 79.346978 94.490777 
L 79.411036 92.296968 
L 79.475094 92.649635 
L 79.619225 86.057365 
L 79.827414 93.872812 
L 79.843429 93.388771 
L 79.859443 95.37978 
L 79.875458 95.37149 
L 79.891472 96.115727 
L 79.923501 94.373434 
L 79.971545 95.166139 
L 79.98756 94.789237 
L 80.003574 96.641859 
L 80.019589 96.792364 
L 80.035603 96.580636 
L 80.147705 105.278071 
L 80.179734 103.484759 
L 80.243792 107.390251 
L 80.323865 105.97958 
L 80.33988 106.221282 
L 80.419952 102.808122 
L 80.451981 104.859079 
L 80.500025 107.135156 
L 80.580098 106.749326 
L 80.756258 96.785349 
L 80.788287 98.467057 
L 80.820316 100.584976 
L 80.852345 98.370121 
L 80.884374 98.996378 
L 81.028505 94.000359 
L 81.04452 94.303283 
L 81.076549 93.580091 
L 81.18865 83.499408 
L 81.252709 85.821403 
L 81.300752 89.317468 
L 81.36481 88.043273 
L 81.460898 85.457893 
L 81.412854 88.779219 
L 81.476912 85.526769 
L 81.492927 87.082205 
L 81.573 84.554222 
L 81.589014 84.406268 
L 81.621043 82.281334 
L 81.685101 86.057365 
L 81.71713 87.795831 
L 81.765174 85.426007 
L 81.877276 82.418447 
L 81.813218 85.499346 
L 81.89329 82.820858 
L 82.133509 75.736893 
L 82.149523 77.344624 
L 82.24561 81.206749 
L 82.261625 80.157675 
L 82.325683 77.599081 
L 82.357712 81.738621 
L 82.373727 78.71448 
L 82.4538 81.695893 
L 82.469814 79.298645 
L 82.485829 78.61308 
L 82.501843 80.009082 
L 82.533872 79.49443 
L 82.62996 84.323362 
L 82.645974 82.612956 
L 82.661989 79.942758 
L 82.726047 84.470041 
L 82.742061 82.794711 
L 82.902207 85.896018 
L 82.77409 81.098334 
L 82.918221 85.353943 
L 82.934236 84.304868 
L 82.966265 86.159402 
L 82.998294 85.647939 
L 83.014309 87.482066 
L 83.030323 84.16903 
L 83.110396 86.487836 
L 83.12641 84.464939 
L 83.190469 86.843055 
L 83.222498 84.671566 
L 83.254527 84.313796 
L 83.318585 85.482127 
L 83.51076 76.036629 
L 83.526774 77.28659 
L 83.542789 74.640626 
L 83.574818 74.979901 
L 83.65489 72.264424 
L 83.670905 75.080026 
L 83.702934 74.143193 
L 83.718949 75.775157 
L 83.86308 69.405456 
L 83.879094 69.473694 
L 83.895109 68.828944 
L 83.911123 70.992142 
L 83.959167 69.425226 
L 84.00721 71.749772 
L 84.055254 71.624138 
L 84.071269 68.474363 
L 84.135327 73.211461 
L 84.151341 72.871548 
L 84.18337 70.24089 
L 84.231414 73.184039 
L 84.295472 71.155402 
L 84.343516 75.798116 
L 84.375545 76.052572 
L 84.487647 72.336488 
L 84.583734 74.8058 
L 84.53569 72.045681 
L 84.599749 73.770755 
L 84.71185 72.087771 
L 84.775909 70.812938 
L 84.839967 75.286652 
L 84.855981 72.559058 
L 84.92004 76.687119 
L 84.952069 73.946132 
L 84.968083 73.912332 
L 85.112214 79.673634 
L 85.128229 78.546755 
L 85.144243 81.223331 
L 85.224316 78.668563 
L 85.24033 78.96511 
L 85.27236 74.027762 
L 85.336418 77.692828 
L 85.352432 79.531419 
L 85.41649 76.644391 
L 85.432505 77.792314 
L 85.512578 76.213919 
L 85.528592 76.328712 
L 85.608665 80.726535 
L 85.656709 79.89429 
L 85.672723 77.736194 
L 85.736781 81.047316 
L 85.752796 82.866137 
L 85.816854 79.966354 
L 85.832869 80.704852 
L 86.057072 86.10647 
L 85.880912 79.996328 
L 86.073087 84.007045 
L 86.217218 76.576791 
L 86.233232 77.124605 
L 86.249247 77.30636 
L 86.345334 82.825322 
L 86.377363 81.708009 
L 86.47345 78.283371 
L 86.50548 80.322211 
L 86.521494 80.222724 
L 86.585552 80.317746 
L 86.64961 77.162232 
L 86.713669 78.246382 
L 86.761712 75.525165 
L 86.905843 81.516051 
L 87.03396 78.245744 
L 87.082003 82.253273 
L 87.130047 77.34016 
L 87.17809 75.320452 
L 87.162076 78.447906 
L 87.194105 76.550006 
L 87.322221 85.146679 
L 87.35425 83.780649 
L 87.466352 79.892377 
L 87.38628 85.540799 
L 87.53041 81.813236 
L 87.610483 88.982019 
L 87.674541 87.802846 
L 87.690556 90.001758 
L 87.7386 86.354549 
L 87.786643 88.593001 
L 87.850701 84.420936 
L 87.91476 85.49552 
L 88.026861 90.349324 
L 88.042876 89.697558 
L 88.187007 81.331108 
L 88.251065 83.262171 
L 88.395196 91.737674 
L 88.41121 87.933582 
L 88.427225 87.055421 
L 88.491283 88.722461 
L 88.523312 87.845575 
L 88.555341 87.196998 
L 88.58737 88.203344 
L 88.6194 87.554767 
L 88.683458 89.855079 
L 88.699472 87.130036 
L 88.715487 87.490356 
L 88.747516 87.60196 
L 88.875632 83.277476 
L 88.891647 86.729538 
L 88.955705 82.341918 
L 88.987734 83.642261 
L 89.003749 83.85654 
L 89.14788 76.65587 
L 89.163894 76.867598 
L 89.243967 81.442074 
L 89.275996 80.120048 
L 89.372083 76.393123 
L 89.404112 77.317839 
L 89.436141 81.226519 
L 89.532229 78.944064 
L 89.67636 75.423765 
L 89.692374 76.176293 
L 89.772447 80.695286 
L 89.756432 75.709471 
L 89.82049 78.892408 
L 89.868534 79.373898 
L 89.85252 78.36245 
L 89.884549 79.100947 
L 89.948607 76.511742 
L 89.980636 79.226581 
L 90.02868 80.87704 
L 90.012665 78.520608 
L 90.044694 80.135354 
L 90.092738 86.704028 
L 90.156796 81.575998 
L 90.20484 80.236754 
L 90.236869 80.329863 
L 90.381 86.962949 
L 90.493101 80.956119 
L 90.605203 88.023503 
L 90.621218 84.996173 
L 90.685276 82.53005 
L 90.717305 84.392875 
L 90.749334 87.235262 
L 90.845421 86.456587 
L 90.861436 86.513983 
L 90.989552 80.572841 
L 91.005567 82.836163 
L 91.05361 76.975375 
L 91.08564 78.900698 
L 91.101654 76.608677 
L 91.181727 80.338154 
L 91.197741 82.880167 
L 91.22977 79.413438 
L 91.277814 79.413438 
L 91.293829 79.442773 
L 91.309843 80.320935 
L 91.341872 78.324823 
L 91.373901 79.811385 
L 91.389916 78.607978 
L 91.40593 83.455404 
L 91.453974 82.116798 
L 91.486003 80.093901 
L 91.534047 83.119318 
L 91.566076 81.931217 
L 91.598105 84.568253 
L 91.646149 80.965048 
L 91.662163 80.963135 
L 91.726221 85.853289 
L 91.806294 85.747425 
L 91.950425 79.864954 
L 91.982454 82.135292 
L 92.014483 78.57354 
L 92.062527 81.130221 
L 92.1426 78.537827 
L 92.190643 78.957457 
L 92.28673 82.749431 
L 92.31876 80.581769 
L 92.46289 75.029645 
L 92.49492 75.727327 
L 92.510934 76.391847 
L 92.526949 74.679528 
L 92.558978 74.781566 
L 92.623036 71.038059 
L 92.67108 73.617699 
L 92.735138 72.634948 
L 92.767167 74.350457 
L 92.863254 70.633097 
L 92.895283 72.464035 
L 93.087458 76.171191 
L 93.151516 72.440439 
L 93.19956 76.066602 
L 93.247603 74.015645 
L 93.279632 77.091443 
L 93.311661 75.455652 
L 93.327676 76.949228 
L 93.37572 71.478096 
L 93.51985 75.535369 
L 93.55188 75.33512 
L 93.567894 77.836956 
L 93.615938 74.130438 
L 93.647967 75.282188 
L 93.712025 76.079995 
L 93.72804 75.270071 
L 93.808112 74.127249 
L 93.792098 75.634218 
L 93.824127 74.764347 
L 93.888185 79.817124 
L 93.936229 75.365094 
L 93.952243 76.27578 
L 93.984272 73.478672 
L 94.000287 71.023391 
L 94.032316 74.371502 
L 94.096374 72.124122 
L 94.112389 71.994662 
L 94.128403 69.906716 
L 94.176447 72.685329 
L 94.208476 72.634311 
L 94.22449 72.82882 
L 94.240505 72.738899 
L 94.25652 71.442383 
L 94.288549 75.083214 
L 94.336592 73.087103 
L 94.512752 68.396559 
L 94.528767 69.257502 
L 94.60884 71.654749 
L 94.640869 70.479403 
L 94.75297 69.349336 
L 94.688912 70.971735 
L 94.768985 69.92266 
L 94.785 70.051482 
L 94.817029 69.619098 
L 94.913116 65.496776 
L 94.92913 68.205876 
L 94.945145 67.239069 
L 94.993189 70.07189 
L 95.009203 71.327591 
L 95.073261 69.698177 
L 95.10529 70.508739 
L 95.121305 67.797726 
L 95.169349 71.856274 
L 95.217392 69.00751 
L 95.297465 74.238853 
L 95.361523 73.131107 
L 95.377538 73.11899 
L 95.393552 73.156616 
L 95.425581 75.138697 
L 95.45761 72.745914 
L 95.473625 74.146381 
L 95.601741 71.298893 
L 95.697829 73.968453 
L 95.63377 71.146474 
L 95.745872 72.596047 
L 95.761887 72.678952 
L 95.777901 72.454469 
L 95.793916 72.596684 
L 95.80993 69.713483 
L 95.906018 72.034202 
L 95.922032 70.636286 
L 95.98609 74.206966 
L 96.002105 73.766929 
L 96.034134 75.569169 
L 96.050149 75.960101 
L 96.066163 73.49908 
L 96.16225 74.033502 
L 96.19428 74.993294 
L 96.226309 72.182156 
L 96.258338 73.961438 
L 96.290367 72.576277 
L 96.33841 75.40846 
L 96.354425 75.49009 
L 96.418483 71.265731 
L 96.482541 73.321152 
L 96.498556 75.550037 
L 96.5466 70.830795 
L 96.562614 73.995238 
L 96.626672 69.788098 
L 96.69073 69.993448 
L 96.850876 74.797509 
L 96.914934 75.383588 
L 96.962978 72.89642 
L 96.995007 76.190961 
L 97.04305 71.738292 
L 97.07508 73.728027 
L 97.123123 72.784178 
L 97.107109 74.528385 
L 97.187181 73.398955 
L 97.203196 74.00034 
L 97.21921 72.02336 
L 97.267254 72.407277 
L 97.283269 72.2657 
L 97.299283 72.91045 
L 97.315298 73.143223 
L 97.331312 72.766322 
L 97.347327 75.457565 
L 97.379356 70.532335 
L 97.4274 71.268282 
L 97.523487 73.641933 
L 97.587545 76.573602 
L 97.635589 74.354283 
L 97.683632 75.427592 
L 97.699647 71.973617 
L 97.795734 74.131076 
L 97.875807 80.656384 
L 97.92385 76.810202 
L 98.003923 77.148202 
L 98.035952 74.143193 
L 98.067981 75.983697 
L 98.148054 74.836411 
L 98.228127 69.314898 
L 98.3082 71.42644 
L 98.324214 71.481923 
L 98.468345 75.209486 
L 98.48436 74.912301 
L 98.500374 73.393216 
L 98.580447 75.615086 
L 98.596461 73.949321 
L 98.644505 74.368313 
L 98.676534 73.294367 
L 98.692549 70.93347 
L 98.756607 75.574271 
L 98.788636 76.808289 
L 98.80465 75.176324 
L 98.820665 72.573726 
L 98.884723 76.586357 
L 98.900738 75.76878 
L 98.916752 76.030252 
L 99.028854 72.501662 
L 99.140956 75.831916 
L 99.285087 71.089078 
L 99.317116 73.339646 
L 99.36516 70.317418 
L 99.381174 70.705799 
L 99.413203 70.226222 
L 99.445232 72.298224 
L 99.477261 69.458389 
L 99.525305 70.432848 
L 99.605378 74.598536 
L 99.68545 73.340284 
L 99.765523 69.454562 
L 99.813567 72.431511 
L 99.845596 71.158591 
L 99.925669 73.678283 
L 99.957698 69.503668 
L 100.03777 72.509952 
L 100.101829 71.02658 
L 100.149872 74.845339 
L 100.165887 72.859431 
L 100.24596 74.940362 
L 100.261974 76.374629 
L 100.294003 73.082001 
L 100.358061 75.418663 
L 100.374076 75.413561 
L 100.39009 75.046226 
L 100.42212 76.125912 
L 100.454149 78.903249 
L 100.534221 77.553164 
L 100.59828 78.412831 
L 100.630309 75.811508 
L 100.646323 78.639865 
L 100.710381 74.456321 
L 100.74241 76.235602 
L 100.854512 72.585843 
L 100.870527 73.602393 
L 100.902556 74.787943 
L 100.91857 73.87917 
L 100.934585 69.915007 
L 101.030672 71.881145 
L 101.12676 70.965995 
L 101.158789 73.807744 
L 101.318934 69.885033 
L 101.350963 70.925818 
L 101.366978 72.377941 
L 101.415021 69.80723 
L 101.431036 70.415629 
L 101.44705 69.323826 
L 101.47908 70.793806 
L 101.511109 70.032988 
L 101.591181 69.172683 
L 101.639225 73.462729 
L 101.767341 69.268981 
L 101.783356 71.307183 
L 101.847414 68.675887 
L 101.879443 65.975716 
L 101.927487 71.556538 
L 101.943501 71.872855 
L 101.959516 70.391395 
L 101.97553 71.004897 
L 102.00756 68.503699 
L 102.071618 71.85436 
L 102.087632 71.169433 
L 102.103647 72.391333 
L 102.215749 77.386715 
L 102.231763 75.386139 
L 102.247778 77.06147 
L 102.295821 74.933347 
L 102.343865 76.435213 
L 102.375894 75.159105 
L 102.391909 76.15461 
L 102.53604 79.852837 
L 102.552054 76.377817 
L 102.648141 77.085066 
L 102.664156 77.13162 
L 102.68017 75.198645 
L 102.728214 78.546118 
L 102.760243 76.979839 
L 102.840316 80.721433 
L 102.904374 79.403872 
L 102.920389 79.50017 
L 103.016476 80.25206 
L 103.03249 78.259774 
L 103.048505 79.785237 
L 103.112563 76.437764 
L 103.128578 76.239429 
L 103.20865 79.796079 
L 103.24068 78.45237 
L 103.336767 74.500324 
L 103.352781 75.474784 
L 103.400825 78.454921 
L 103.448869 75.58001 
L 103.480898 76.752806 
L 103.576985 71.373508 
L 103.705101 80.19849 
L 103.73713 78.91983 
L 103.753145 78.13414 
L 103.76916 79.775034 
L 103.801189 79.655139 
L 103.833218 82.188224 
L 103.91329 79.836894 
L 103.977349 77.659665 
L 104.025392 79.144313 
L 104.073436 77.599081 
L 104.217567 83.375687 
L 104.29764 85.057396 
L 104.329669 81.139787 
L 104.361698 82.060039 
L 104.377712 80.727172 
L 104.393727 79.288442 
L 104.44177 82.348934 
L 104.457785 81.790915 
L 104.4738 83.119956 
L 104.537858 81.623828 
L 104.64996 75.685237 
L 104.681989 81.617451 
L 104.778076 81.123206 
L 104.79409 79.361143 
L 104.858149 83.475174 
L 104.874163 84.493 
L 104.922207 80.840052 
L 104.938221 81.916549 
L 104.97025 83.160771 
L 104.986265 80.364939 
L 105.00228 82.097028 
L 105.034309 78.633487 
L 105.114381 79.555015 
L 105.162425 80.780105 
L 105.17844 79.8522 
L 105.194454 77.363118 
L 105.226483 81.958002 
L 105.290541 78.567801 
L 105.306556 78.678129 
L 105.32257 78.027639 
L 105.338585 77.939631 
L 105.3546 78.153273 
L 105.370614 80.430626 
L 105.434672 76.150783 
L 105.450687 76.603576 
L 105.626847 82.868688 
L 105.67489 79.230408 
L 105.722934 82.018587 
L 105.803007 89.055359 
L 105.867065 85.707248 
L 105.915109 89.097449 
L 105.931123 88.904853 
L 106.011196 94.048189 
L 106.043225 90.954535 
L 106.091269 88.77348 
L 106.123298 90.913082 
L 106.2354 100.047366 
L 106.283443 95.440365 
L 106.315472 95.991369 
L 106.363516 93.088397 
L 106.41156 99.127751 
L 106.459603 95.631686 
L 106.475618 92.265081 
L 106.539676 97.933273 
L 106.571705 94.217189 
L 106.603734 92.252326 
L 106.635763 97.372066 
L 106.683807 93.802661 
L 106.699821 93.150895 
L 106.715836 95.395086 
L 106.827938 101.088787 
L 106.875981 99.028902 
L 106.891996 99.114359 
L 106.90801 98.775721 
L 106.94004 98.148827 
L 107.08417 90.754923 
L 107.1162 92.964039 
L 107.164243 90.093592 
L 107.228301 84.569528 
L 107.276345 85.924716 
L 107.29236 87.997993 
L 107.340403 84.644143 
L 107.372432 86.340519 
L 107.628665 80.321573 
L 107.420476 87.460383 
L 107.676709 82.3585 
L 107.692723 83.510887 
L 107.708738 79.88855 
L 107.756781 80.698474 
L 107.772796 80.686995 
L 107.884898 77.164783 
L 108.013014 85.282516 
L 108.045043 82.701601 
L 108.109101 79.988037 
L 108.14113 83.414589 
L 108.157145 83.549152 
L 108.237218 80.815818 
L 108.301276 81.06007 
L 108.381349 85.333535 
L 108.413378 81.170399 
L 108.461421 79.572871 
L 108.49345 81.410825 
L 108.509465 81.627655 
L 108.541494 80.917855 
L 108.589538 81.428681 
L 108.733669 77.822926 
L 108.797727 80.270554 
L 108.84577 80.10283 
L 108.861785 80.118773 
L 108.941858 74.788581 
L 108.989901 75.970942 
L 109.02193 77.111851 
L 109.069974 75.099158 
L 109.102003 72.601786 
L 109.134032 76.617606 
L 109.150047 74.449943 
L 109.166061 77.23876 
L 109.262149 75.109999 
L 109.278163 74.830034 
L 109.310192 74.847252 
L 109.326207 77.220266 
L 109.390265 72.669386 
L 109.40628 72.566073 
L 109.438309 75.856787 
L 109.518381 73.758 
L 109.534396 73.021416 
L 109.58244 74.444204 
L 109.694541 77.425616 
L 109.614469 74.037966 
L 109.710556 77.142462 
L 109.742585 76.297463 
L 109.7586 76.719643 
L 109.774614 78.585019 
L 109.822658 75.879746 
L 109.838672 76.375266 
L 109.854687 74.141279 
L 109.93476 77.800605 
L 109.966789 77.347175 
L 110.07889 80.803063 
L 110.158963 78.126488 
L 110.126934 81.017342 
L 110.190992 79.62963 
L 110.271065 79.292906 
L 110.28708 80.547331 
L 110.351138 76.748979 
L 110.319109 80.90255 
L 110.399181 79.830517 
L 110.43121 81.137874 
L 110.543312 75.916735 
L 110.559327 75.978595 
L 110.831574 82.303017 
L 110.623385 75.199282 
L 110.847589 81.928028 
L 111.007734 76.521945 
L 111.087807 81.263508 
L 111.119836 78.436427 
L 111.199909 77.283402 
L 111.151865 80.276931 
L 111.231938 78.37074 
L 111.31201 83.879498 
L 111.360054 79.789702 
L 111.392083 81.611074 
L 111.408098 80.785206 
L 111.440127 76.425647 
L 111.5202 78.853506 
L 111.536214 79.585626 
L 111.584258 77.564005 
L 111.616287 78.467038 
L 111.632301 78.361812 
L 111.69636 79.077989 
L 111.760418 75.245199 
L 111.776432 75.37466 
L 111.87252 71.948745 
L 111.904549 72.098613 
L 112.032665 77.652013 
L 112.160781 71.204508 
L 112.176796 71.244048 
L 112.288898 75.200558 
L 112.240854 70.896482 
L 112.304912 74.856818 
L 112.336941 72.638775 
L 112.401 75.847859 
L 112.417014 76.815941 
L 112.449043 72.038666 
L 112.481072 73.996513 
L 112.54513 72.046956 
L 112.513101 74.668049 
L 112.593174 73.717823 
L 112.72129 78.432601 
L 112.833392 78.26105 
L 112.849407 76.998334 
L 112.913465 80.164052 
L 112.945494 82.572141 
L 112.977523 80.133441 
L 113.057596 76.322334 
L 113.089625 77.983635 
L 113.217741 83.837408 
L 113.329843 81.472047 
L 113.2818 85.814388 
L 113.345858 81.727779 
L 113.361872 81.660179 
L 113.393901 78.741902 
L 113.45796 82.546632 
L 113.522018 83.06511 
L 113.60209 79.697868 
L 113.682163 83.959215 
L 113.730207 82.344469 
L 113.746221 82.398039 
L 113.858323 86.557987 
L 113.906367 86.017187 
L 113.938396 85.967444 
L 114.082527 90.749184 
L 114.146585 84.788271 
L 114.210643 85.775486 
L 114.242672 85.497433 
L 114.30673 89.372951 
L 114.370789 82.190137 
L 114.434847 82.90185 
L 114.48289 84.413283 
L 114.498905 79.936381 
L 114.578978 82.346383 
L 114.611007 85.955327 
L 114.69108 84.835464 
L 114.723109 84.075283 
L 114.739123 82.368703 
L 114.803181 86.224451 
L 114.819196 87.709099 
L 114.86724 83.554891 
L 114.883254 85.649852 
L 115.059414 79.67172 
L 115.18753 83.211789 
L 115.21956 84.679856 
L 115.347676 81.474598 
L 115.379705 80.686995 
L 115.491807 84.984694 
L 115.507821 85.04783 
L 115.523836 84.761486 
L 115.667967 79.118166 
L 115.683981 80.070943 
L 115.699996 82.440767 
L 115.71601 79.843909 
L 115.796083 81.83747 
L 115.876156 79.439585 
L 115.9242 79.956788 
L 115.940214 80.426161 
L 115.972243 78.133503 
L 115.988258 78.627748 
L 116.06833 74.964596 
L 116.084345 77.99639 
L 116.228476 82.056213 
L 116.27652 79.873245 
L 116.340578 81.027546 
L 116.356592 81.066448 
L 116.372607 80.852806 
L 116.484709 83.231559 
L 116.500723 80.445931 
L 116.564781 83.362295 
L 116.59681 82.938839 
L 116.612825 83.331684 
L 116.62884 81.825991 
L 116.692898 79.125181 
L 116.724927 82.084273 
L 116.740941 81.506485 
L 116.756956 82.781318 
L 116.805 79.83243 
L 116.853043 77.040424 
L 116.917101 79.276325 
L 117.045218 82.336817 
L 117.221378 76.038542 
L 117.30145 79.016766 
L 117.285436 74.770086 
L 117.349494 77.545511 
L 117.381523 76.65587 
L 117.397538 78.511042 
L 117.413552 80.661486 
L 117.493625 77.316564 
L 117.541669 75.18589 
L 117.589712 78.426223 
L 117.637756 77.606733 
L 117.65377 78.190899 
L 117.749858 80.576667 
L 117.765872 78.96511 
L 117.877974 85.477663 
L 117.893989 83.418416 
L 117.910003 79.331808 
L 118.00609 81.304961 
L 118.102178 78.322272 
L 118.03812 82.625711 
L 118.134207 79.29163 
L 118.166236 78.512318 
L 118.18225 80.406392 
L 118.230294 78.792921 
L 118.278338 81.290293 
L 118.342396 80.195301 
L 118.374425 78.940876 
L 118.422469 81.607885 
L 118.550585 86.134531 
L 118.5666 83.897355 
L 118.582614 82.73859 
L 118.614643 85.360958 
L 118.678701 83.13271 
L 118.790803 86.019101 
L 118.806818 85.819489 
L 118.838847 83.656291 
L 118.88689 87.406175 
L 118.902905 86.310546 
L 118.950949 90.464754 
L 119.015007 88.513921 
L 119.255225 80.159588 
L 119.047036 88.914419 
L 119.303269 80.845791 
L 119.4474 85.14923 
L 119.527472 82.789609 
L 119.495443 85.646663 
L 119.543487 82.813205 
L 119.559501 85.387743 
L 119.62356 81.833006 
L 119.639574 82.842541 
L 119.703632 80.770539 
L 119.719647 83.966868 
L 119.735661 84.600139 
L 119.783705 82.215009 
L 119.79972 83.077865 
L 119.911821 79.892377 
L 119.879792 83.49048 
L 119.927836 80.710591 
L 120.007909 83.885876 
L 120.055952 81.89933 
L 120.087981 80.451033 
L 120.12001 82.657597 
L 120.168054 81.574085 
L 120.200083 81.134048 
L 120.216098 82.747518 
L 120.248127 78.908989 
L 120.280156 78.982329 
L 120.344214 78.470227 
L 120.312185 79.4466 
L 120.392258 78.855419 
L 120.47233 78.729785 
L 120.536389 82.141032 
L 120.616461 79.342011 
L 120.664505 80.648093 
L 120.728563 82.635914 
L 120.760592 80.509705 
L 120.776607 80.496312 
L 120.872694 75.081301 
L 120.904723 76.351032 
L 121.00081 78.676216 
L 121.016825 77.620126 
L 121.03284 75.012426 
L 121.112912 77.701118 
L 121.128927 77.327405 
L 121.144941 76.854206 
L 121.160956 78.149446 
L 121.17697 77.755326 
L 121.337116 84.621185 
L 121.273058 77.636707 
L 121.35313 82.892284 
L 121.433203 79.919162 
L 121.465232 81.737983 
L 121.593349 85.014667 
L 121.625378 83.160133 
L 121.673421 85.89538 
L 121.689436 85.702784 
L 121.73748 84.240457 
L 121.769509 87.068813 
L 121.91364 81.708647 
L 121.993712 82.594462 
L 122.025741 79.495068 
L 122.169872 85.346928 
L 122.297989 80.183822 
L 122.330018 83.031948 
L 122.394076 78.116922 
L 122.41009 81.195908 
L 122.458134 75.661003 
L 122.538207 77.582499 
L 122.554221 79.210638 
L 122.61828 76.994507 
L 122.650309 78.812691 
L 122.698352 81.232259 
L 122.682338 78.140518 
L 122.730381 80.807527 
L 122.746396 77.744484 
L 122.79444 81.11938 
L 122.842483 78.984242 
L 122.986614 84.143521 
L 123.018643 82.661424 
L 123.034658 82.855933 
L 123.050672 81.971394 
L 123.066687 80.220811 
L 123.082701 82.026877 
L 123.162774 80.627686 
L 123.178789 80.934436 
L 123.194803 80.338154 
L 123.242847 77.597167 
L 123.29089 81.045402 
L 123.306905 81.915273 
L 123.386978 80.287773 
L 123.402992 81.7163 
L 123.419007 78.485533 
L 123.515094 79.986124 
L 123.531109 81.846398 
L 123.611181 79.201709 
L 123.64321 76.807013 
L 123.67524 79.52823 
L 123.707269 77.98491 
L 123.723283 80.790308 
L 123.803356 75.533456 
L 123.81937 75.754112 
L 123.8514 75.000947 
L 123.883429 73.18914 
L 123.947487 75.550675 
L 123.963501 74.369589 
L 123.979516 74.677615 
L 124.091618 78.26105 
L 124.155676 75.895689 
L 124.20372 77.2107 
L 124.219734 77.115677 
L 124.315821 72.397073 
L 124.34785 73.516299 
L 124.363865 73.334544 
L 124.37988 73.988223 
L 124.395894 73.484412 
L 124.411909 74.140642 
L 124.427923 72.884941 
L 124.459952 72.90216 
L 124.475967 72.00359 
L 124.491981 75.979233 
L 124.507996 75.131682 
L 124.636112 77.40202 
L 124.652127 75.916097 
L 124.684156 78.152635 
L 124.748214 76.294912 
L 124.812272 76.479217 
L 124.828287 75.273897 
L 124.940389 80.943365 
L 124.956403 80.157037 
L 124.988432 78.749555 
L 125.036476 81.345138 
L 125.05249 79.518026 
L 125.100534 81.6487 
L 125.148578 79.313951 
L 125.196621 78.843302 
L 125.244665 82.273681 
L 125.308723 80.025664 
L 125.452854 74.666773 
L 125.468869 76.801911 
L 125.484883 77.96259 
L 125.548941 75.98561 
L 125.58097 77.152028 
L 125.613 75.41101 
L 125.629014 77.420515 
L 125.677058 76.855481 
L 125.741116 79.027608 
L 125.773145 76.180757 
L 125.78916 76.204353 
L 125.805174 76.482406 
L 125.837203 75.120203 
L 125.853218 76.396949 
L 125.901261 75.135509 
L 125.885247 76.976013 
L 125.93329 75.847859 
L 126.029378 78.801212 
L 126.045392 76.387383 
L 126.077421 75.603607 
L 126.157494 81.605334 
L 126.221552 81.216953 
L 126.253581 78.088861 
L 126.333654 80.806889 
L 126.365683 83.406937 
L 126.46177 82.97519 
L 126.4938 82.936926 
L 126.509814 83.444563 
L 126.541843 86.469979 
L 126.621916 84.264691 
L 126.66996 82.918431 
L 126.734018 81.140425 
L 126.750032 82.944578 
L 126.766047 82.843816 
L 126.782061 82.940752 
L 126.798076 83.832306 
L 126.830105 81.039663 
L 126.878149 82.450971 
L 126.926192 79.420453 
L 126.974236 82.517296 
L 127.070323 84.561875 
L 127.102352 81.758391 
L 127.150396 86.567553 
L 127.16641 85.656867 
L 127.502716 104.950913 
L 127.51873 104.565721 
L 127.582789 99.4632 
L 127.630832 103.131454 
L 127.90308 92.187915 
L 127.935109 93.248469 
L 127.967138 94.700592 
L 128.031196 92.711496 
L 128.07924 95.532837 
L 128.159312 95.056449 
L 128.271414 89.883777 
L 128.303443 90.495365 
L 128.367501 91.864583 
L 128.335472 89.571924 
L 128.383516 91.738949 
L 128.39953 88.494789 
L 128.463589 95.199301 
L 128.591705 103.82531 
L 128.623734 102.459918 
L 128.639749 103.158876 
L 128.671778 100.898104 
L 128.703807 95.631048 
L 128.799894 98.065922 
L 128.815909 98.421778 
L 128.831923 96.560866 
L 128.992069 88.914419 
L 129.008083 90.529165 
L 129.088156 89.603173 
L 129.168229 98.644985 
L 129.184243 96.350414 
L 129.216272 99.51677 
L 129.28033 97.695397 
L 129.296345 99.703626 
L 129.376418 98.537846 
L 129.440476 93.486344 
L 129.504534 95.322384 
L 129.536563 94.981833 
L 129.552578 95.825557 
L 129.584607 91.4711 
L 129.66468 95.164864 
L 129.712723 89.332774 
L 129.776781 93.594759 
L 129.792796 95.687169 
L 129.856854 91.863308 
L 130.017 87.344952 
L 130.049029 91.463447 
L 130.129101 89.684803 
L 130.19316 86.427251 
L 130.241203 87.578364 
L 130.257218 89.591056 
L 130.289247 86.410032 
L 130.321276 86.658749 
L 130.385334 83.167148 
L 130.433378 85.60521 
L 130.577509 80.491848 
L 130.481421 85.834795 
L 130.593523 81.91336 
L 130.625552 85.515927 
L 130.705625 84.179234 
L 130.817727 78.578004 
L 130.849756 80.399377 
L 131.105989 86.489749 
L 131.154032 89.846151 
L 131.202076 86.781194 
L 131.25012 84.146072 
L 131.298163 86.271644 
L 131.442294 88.362778 
L 131.506352 90.496641 
L 131.522367 87.803484 
L 131.618454 83.619302 
L 131.554396 88.270306 
L 131.634469 85.772935 
L 131.698527 88.412521 
L 131.74657 86.834764 
L 131.794614 87.564971 
L 131.826643 86.409395 
L 131.874687 84.311245 
L 131.938745 88.034982 
L 132.034832 83.912661 
L 132.178963 78.744453 
L 132.210992 79.555015 
L 132.323094 83.147378 
L 132.339109 83.098273 
L 132.387152 80.958033 
L 132.435196 84.571441 
L 132.48324 83.167148 
L 132.499254 85.142214 
L 132.515269 84.623098 
L 132.579327 88.398491 
L 132.62737 85.91515 
L 132.755487 81.599594 
L 132.675414 87.783077 
L 132.771501 82.353398 
L 132.787516 82.50199 
L 132.851574 85.730206 
L 132.883603 81.757115 
L 132.899618 81.151904 
L 132.915632 82.161439 
L 132.931647 82.085549 
L 132.963676 85.984025 
L 133.043749 84.515321 
L 133.075778 84.159464 
L 133.091792 85.797169 
L 133.15585 82.388473 
L 133.18788 81.616176 
L 133.203894 83.790853 
L 133.283967 81.355342 
L 133.299981 83.030035 
L 133.315996 83.561906 
L 133.33201 82.070881 
L 133.396069 77.78785 
L 133.428098 81.678674 
L 133.476141 84.871177 
L 133.50817 83.346352 
L 133.5402 79.613687 
L 133.620272 82.561299 
L 133.764403 78.128401 
L 133.780418 80.118773 
L 133.796432 79.33946 
L 133.812447 81.492455 
L 133.844476 81.114278 
L 133.89252 84.137144 
L 133.940563 80.826659 
L 133.956578 81.487353 
L 133.972592 80.589422 
L 134.004621 82.294726 
L 134.052665 81.564519 
L 134.132738 83.208601 
L 134.148752 82.811929 
L 134.21281 77.705582 
L 134.260854 80.430626 
L 134.340927 79.039087 
L 134.292883 80.676154 
L 134.356941 79.484864 
L 134.501072 83.439461 
L 134.517087 80.549244 
L 134.613174 82.635914 
L 134.629189 82.490511 
L 134.645203 82.994322 
L 134.693247 87.009504 
L 134.757305 83.366759 
L 134.805349 79.827328 
L 134.885421 80.215709 
L 135.157669 87.457832 
L 134.91745 80.104743 
L 135.189698 85.789516 
L 135.26977 84.017887 
L 135.221727 86.505693 
L 135.285785 84.559962 
L 135.3018 86.120501 
L 135.333829 83.339974 
L 135.381872 83.598895 
L 135.397887 82.690122 
L 135.44593 86.130067 
L 135.493974 84.661362 
L 135.47796 87.061798 
L 135.509989 86.131342 
L 135.574047 89.564909 
L 135.62209 87.193171 
L 135.670134 88.688023 
L 135.750207 81.856602 
L 135.766221 84.707917 
L 135.814265 81.193357 
L 135.846294 81.529444 
L 135.862309 81.520515 
L 135.958396 89.12551 
L 136.070498 87.187432 
L 136.15057 87.31179 
L 136.214629 83.939446 
L 136.230643 83.47645 
L 136.246658 84.58037 
L 136.262672 84.183698 
L 136.32673 90.132494 
L 136.374774 85.93492 
L 136.438832 82.980292 
L 136.486876 85.862855 
L 136.518905 86.552885 
L 136.53492 86.267817 
L 136.550934 83.347627 
L 136.631007 87.051594 
L 136.647021 87.578364 
L 136.663036 85.747425 
L 136.759123 83.404386 
L 136.775138 84.308694 
L 136.807167 84.190713 
L 136.88724 85.671535 
L 136.983327 84.337392 
L 136.919269 85.733395 
L 136.999341 85.498071 
L 137.159487 89.332136 
L 137.223545 84.310608 
L 137.271589 87.512039 
L 137.287603 88.176559 
L 137.303618 86.41067 
L 137.319632 88.157427 
L 137.367676 84.307419 
L 137.41572 89.492845 
L 137.479778 90.529165 
L 137.495792 88.30028 
L 137.511807 88.971815 
L 137.527821 88.949495 
L 137.543836 90.246648 
L 137.607894 87.883839 
L 137.655938 86.246134 
L 137.703981 87.265235 
L 137.719996 88.120439 
L 137.73601 84.473868 
L 137.800069 86.512708 
L 137.864127 82.841265 
L 137.91217 83.342525 
L 137.960214 87.411915 
L 138.024272 84.00003 
L 138.040287 82.790246 
L 138.056301 85.299735 
L 138.104345 84.504479 
L 138.216447 86.793949 
L 138.184418 83.372499 
L 138.232461 86.235293 
L 138.47268 95.868286 
L 138.584781 92.743382 
L 138.61681 93.882378 
L 138.632825 92.034221 
L 138.760941 87.670835 
L 138.841014 86.006346 
L 138.857029 86.603904 
L 138.937101 87.960367 
L 138.985145 83.64545 
L 139.017174 81.646149 
L 139.225363 91.078893 
L 139.289421 90.110811 
L 139.305436 92.444284 
L 139.32145 92.455764 
L 139.369494 89.526645 
L 139.433552 91.179017 
L 139.465581 94.284151 
L 139.513625 90.515773 
L 139.52964 91.379266 
L 139.721814 84.086762 
L 139.84993 86.308632 
L 139.865945 85.882625 
L 139.88196 85.969357 
L 139.897974 87.67785 
L 139.962032 84.210483 
L 139.994061 86.087976 
L 140.186236 91.001727 
L 140.218265 89.654192 
L 140.394425 84.259589 
L 140.522541 88.426552 
L 140.538556 87.901695 
L 140.698701 82.135292 
L 140.76276 86.884507 
L 140.826818 85.341188 
L 140.842832 85.581614 
L 140.874861 84.569528 
L 140.890876 83.68754 
L 140.922905 86.674693 
L 140.954934 85.818852 
L 141.002978 85.508275 
L 141.08305 90.875455 
L 141.099065 94.412336 
L 141.179138 90.212211 
L 141.29124 87.299035 
L 141.339283 88.299005 
L 141.355298 90.166931 
L 141.419356 84.702815 
L 141.43537 83.376325 
L 141.4674 85.570135 
L 141.483414 85.376263 
L 141.499429 88.214186 
L 141.595516 87.971846 
L 141.627545 88.148499 
L 141.755661 81.667194 
L 141.867763 85.656867 
L 141.883778 85.168999 
L 141.931821 83.221356 
L 141.96385 84.966199 
L 142.107981 92.609458 
L 142.011894 83.962404 
L 142.14001 91.212817 
L 142.252112 85.359044 
L 142.268127 86.589874 
L 142.284141 87.204651 
L 142.332185 85.397946 
L 142.3482 83.211152 
L 142.412258 88.228216 
L 142.540374 91.636911 
L 142.556389 91.13055 
L 142.588418 88.269031 
L 142.636461 91.456432 
L 142.652476 91.448142 
L 142.716534 95.328124 
L 142.764578 94.91232 
L 142.828636 91.356308 
L 142.892694 91.95259 
L 142.908709 91.976824 
L 142.924723 91.813564 
L 142.956752 87.09496 
L 142.972767 92.351813 
L 143.02081 91.495972 
L 143.036825 92.870292 
L 143.100883 89.585955 
L 143.116898 88.601291 
L 143.132912 91.689206 
L 143.180956 90.626101 
L 143.229 92.063556 
L 143.261029 89.42397 
L 143.40516 86.054176 
L 143.421174 87.696345 
L 143.501247 85.775486 
L 143.517261 85.241701 
L 143.533276 86.702753 
L 143.54929 85.831606 
L 143.597334 89.448204 
L 143.661392 89.379328 
L 143.773494 84.070819 
L 143.805523 86.577757 
L 143.853567 88.547721 
L 143.869581 86.099455 
L 143.90161 87.116005 
L 143.917625 84.074008 
L 143.997698 87.936133 
L 144.029727 89.538762 
L 144.07777 87.723767 
L 144.1098 89.054721 
L 144.221901 84.712381 
L 144.350018 92.796314 
L 144.366032 92.145187 
L 144.382047 91.435387 
L 144.398061 92.775907 
L 144.46212 91.923255 
L 144.478134 92.109473 
L 144.494149 91.51064 
L 144.654294 88.6606 
L 144.686323 89.145917 
L 144.78241 93.988242 
L 144.830454 93.266325 
L 144.95857 85.502535 
L 145.038643 87.430409 
L 145.070672 90.409271 
L 145.118716 86.617934 
L 145.13473 87.092409 
L 145.214803 89.21543 
L 145.230818 91.210904 
L 145.294876 87.673386 
L 145.31089 88.578333 
L 145.326905 88.720548 
L 145.551109 80.847704 
L 145.647196 83.578487 
L 145.66321 81.655077 
L 145.69524 80.07732 
L 145.711254 82.296002 
L 145.727269 82.67928 
L 145.743283 82.394213 
L 145.759298 78.299314 
L 145.807341 84.22834 
L 145.83937 81.535183 
L 145.887414 82.634639 
L 145.903429 81.094508 
L 145.919443 81.287104 
L 146.04756 76.39121 
L 146.143647 73.882997 
L 146.095603 77.130345 
L 146.159661 75.433331 
L 146.319807 78.673665 
L 146.19169 74.249057 
L 146.335821 78.580555 
L 146.431909 75.934591 
L 146.36785 79.482951 
L 146.447923 76.481768 
L 146.57604 80.278207 
L 146.592054 80.542867 
L 146.608069 80.092626 
L 146.624083 80.281395 
L 146.672127 77.563367 
L 146.736185 79.871332 
L 146.816258 77.647548 
L 146.784229 80.028852 
L 146.848287 78.110544 
L 146.880316 79.544173 
L 146.92836 77.716424 
L 147.024447 73.231231 
L 146.960389 78.374567 
L 147.07249 74.018834 
L 147.216621 79.915973 
L 147.232636 79.005287 
L 147.24865 78.868174 
L 147.392781 72.965295 
L 147.408796 73.478035 
L 147.42481 72.191722 
L 147.440825 69.621011 
L 147.520898 74.21717 
L 147.665029 71.44047 
L 147.937276 85.133924 
L 148.065392 80.507792 
L 148.12945 84.119287 
L 148.177494 81.957364 
L 148.321625 74.923143 
L 148.369669 77.293605 
L 148.401698 73.759276 
L 148.417712 75.013701 
L 148.433727 73.071159 
L 148.529814 73.803917 
L 148.545829 73.472295 
L 148.577858 74.763071 
L 148.593872 74.707588 
L 148.68996 76.628447 
L 148.786047 71.680896 
L 148.802061 73.360054 
L 148.898149 80.047347 
L 148.930178 78.175593 
L 148.962207 75.217777 
L 149.026265 78.611167 
L 149.04228 77.040424 
L 149.074309 77.768718 
L 149.090323 75.824901 
L 149.170396 83.452853 
L 149.21844 82.582345 
L 149.282498 81.077289 
L 149.266483 82.776854 
L 149.330541 81.894866 
L 149.378585 83.219442 
L 149.3946 81.271799 
L 149.410614 81.718213 
L 149.458658 77.581224 
L 149.490687 82.132104 
L 149.506701 80.514807 
L 149.53873 82.31322 
L 149.554745 79.089468 
L 149.602789 79.879622 
L 149.650832 77.572933 
L 149.698876 80.370041 
L 149.730905 76.521945 
L 149.875036 78.333752 
L 149.92308 83.06511 
L 150.019167 80.99821 
L 150.163298 75.797478 
L 150.211341 76.483681 
L 150.259385 77.448575 
L 150.24337 75.556414 
L 150.2754 76.571689 
L 150.291414 79.709347 
L 150.387501 76.967085 
L 150.41953 76.356134 
L 150.515618 78.892408 
L 150.547647 74.664222 
L 150.659749 75.780259 
L 150.675763 75.905893 
L 150.691778 75.731154 
L 150.707792 74.654656 
L 150.739821 77.795503 
L 150.755836 77.254703 
L 150.851923 82.89611 
L 150.883952 79.600294 
L 150.94801 80.549882 
L 150.931996 79.117528 
L 150.964025 80.046709 
L 150.996054 77.817824 
L 151.060112 80.454859 
L 151.076127 79.700419 
L 151.108156 81.519878 
L 151.140185 77.155217 
L 151.1562 78.026363 
L 151.268301 74.583868 
L 151.284316 75.166758 
L 151.396418 79.221479 
L 151.412432 77.544873 
L 151.460476 80.070305 
L 151.524534 78.129039 
L 151.540549 78.273167 
L 151.556563 77.82165 
L 151.588592 75.818523 
L 151.636636 78.810778 
L 151.65265 78.148171 
L 151.668665 78.039756 
L 151.700694 81.482251 
L 151.764752 78.9734 
L 151.780767 76.527685 
L 151.876854 77.03596 
L 151.892869 76.537251 
L 151.924898 78.366276 
L 151.956927 77.528292 
L 152.085043 80.988644 
L 152.101058 79.54226 
L 152.149101 83.680525 
L 152.261203 88.427189 
L 152.325261 86.695738 
L 152.341276 86.854534 
L 152.437363 81.255855 
L 152.469392 82.737952 
L 152.549465 85.161347 
L 152.517436 82.551096 
L 152.597509 84.231528 
L 152.613523 84.384585 
L 152.661567 88.529865 
L 152.725625 85.147316 
L 152.74164 86.10647 
L 152.789683 82.639103 
L 152.805698 82.661424 
L 152.869756 83.864193 
L 152.933814 79.830517 
L 153.09396 84.455373 
L 153.109974 83.730268 
L 153.142003 86.950194 
L 153.174032 83.826566 
L 153.254105 88.763914 
L 153.302149 86.773542 
L 153.318163 86.554798 
L 153.366207 86.950194 
L 153.382221 83.669046 
L 153.41425 88.682283 
L 153.478309 85.904308 
L 153.494323 85.933644 
L 153.542367 82.755809 
L 153.59041 83.861004 
L 153.670483 89.952652 
L 153.718527 87.083481 
L 153.734541 86.887058 
L 153.750556 87.628107 
L 153.76657 88.665702 
L 153.7986 85.536335 
L 153.846643 83.200948 
L 153.878672 86.560538 
L 153.958745 91.457708 
L 153.990774 89.965407 
L 154.134905 80.935712 
L 154.182949 82.963073 
L 154.198963 85.871784 
L 154.214978 82.533877 
L 154.279036 82.690122 
L 154.311065 83.250691 
L 154.375123 81.936956 
L 154.423167 84.461113 
L 154.47121 84.235355 
L 154.487225 81.954813 
L 154.567298 85.674723 
L 154.615341 87.71739 
L 154.663385 86.872391 
L 154.6794 85.038901 
L 154.695414 87.051594 
L 154.775487 86.723798 
L 154.791501 86.546508 
L 154.807516 88.755623 
L 154.903603 87.439337 
L 154.951647 87.989703 
L 155.03172 85.322056 
L 155.20788 92.048889 
L 155.079763 82.094477 
L 155.239909 90.652248 
L 155.271938 91.658594 
L 155.319981 89.922041 
L 155.335996 90.537456 
L 155.35201 88.507544 
L 155.38404 91.37544 
L 155.416069 90.62355 
L 155.544185 97.28342 
L 155.5602 96.711372 
L 155.608243 93.721031 
L 155.624258 93.780978 
L 155.656287 89.6408 
L 155.688316 94.66169 
L 155.73636 93.140691 
L 155.944549 102.996254 
L 156.120709 98.999566 
L 156.136723 100.366871 
L 156.216796 98.127782 
L 156.23281 99.980403 
L 156.328898 98.924951 
L 156.296869 101.047972 
L 156.344912 99.122011 
L 156.392956 104.187544 
L 156.473029 102.072813 
L 156.505058 101.570915 
L 156.521072 102.828529 
L 156.537087 102.46502 
L 156.569116 103.741129 
L 156.58513 103.14931 
L 156.601145 98.847148 
L 156.697232 100.148128 
L 156.841363 93.709551 
L 156.857378 94.862577 
L 156.985494 102.985412 
L 157.017523 102.074726 
L 157.033538 98.250227 
L 157.11361 100.802444 
L 157.28977 107.284386 
L 157.401872 104.223257 
L 157.337814 109.028593 
L 157.417887 104.870558 
L 157.433901 104.941347 
L 157.529989 109.988384 
L 157.562018 108.280529 
L 157.690134 105.927286 
L 157.738178 111.712821 
L 157.834265 110.55852 
L 157.914338 104.291494 
L 157.946367 107.622386 
L 158.010425 111.511296 
L 158.058469 108.963544 
L 158.250643 98.784012 
L 158.314701 101.023101 
L 158.362745 104.364196 
L 158.37876 100.060758 
L 158.410789 100.910859 
L 158.506876 97.96771 
L 158.538905 99.638577 
L 158.667021 103.358488 
L 158.683036 102.739884 
L 158.763109 96.835092 
L 158.811152 100.130909 
L 159.035356 112.702586 
L 159.067385 109.930988 
L 159.115429 105.732139 
L 159.179487 107.598152 
L 159.243545 110.010705 
L 159.291589 109.128717 
L 159.323618 110.237739 
L 159.339632 111.918172 
L 159.387676 108.481416 
L 159.419705 109.209072 
L 159.483763 108.259484 
L 159.467749 109.681634 
L 159.499778 109.038159 
L 159.563836 106.079704 
L 159.627894 107.021002 
L 159.675938 110.191184 
L 159.723981 107.67213 
L 159.852098 102.372549 
L 159.868112 102.517315 
L 159.884127 101.539666 
L 159.93217 103.719446 
L 160.092316 114.852392 
L 160.124345 113.37731 
L 160.14036 115.709508 
L 160.220432 113.712759 
L 160.236447 115.516912 
L 160.268476 110.23455 
L 160.300505 110.336588 
L 160.66884 95.713954 
L 160.716883 98.213239 
L 160.764927 105.388399 
L 160.828985 99.932573 
L 161.005145 88.550272 
L 161.02116 89.231374 
L 161.037174 88.056027 
L 161.069203 83.400559 
L 161.133261 86.755685 
L 161.229349 94.033521 
L 161.277392 89.776 
L 161.325436 84.345045 
L 161.389494 88.696314 
L 161.469567 86.676606 
L 161.51761 92.939167 
L 161.597683 91.112055 
L 161.677756 94.365143 
L 161.629712 90.50238 
L 161.709785 92.002334 
L 161.7258 90.039384 
L 161.821887 91.690481 
L 161.837901 91.480029 
L 161.853916 92.325666 
L 161.86993 91.893281 
L 161.917974 94.34346 
L 161.998047 93.99143 
L 162.126163 88.277322 
L 162.062105 95.183996 
L 162.158192 91.689206 
L 162.270294 100.162796 
L 162.318338 98.260431 
L 162.334352 98.165408 
L 162.350367 98.567819 
L 162.494498 92.772718 
L 162.510512 97.167353 
L 162.590585 93.049495 
L 162.6066 92.971692 
L 162.638629 95.617656 
L 162.718701 93.620268 
L 162.78276 88.990947 
L 162.846818 91.553368 
L 162.862832 92.520175 
L 162.92689 91.348017 
L 162.974934 92.091617 
L 163.13508 79.493155 
L 163.247181 84.237268 
L 163.295225 83.497495 
L 163.375298 80.732912 
L 163.327254 83.913936 
L 163.407327 82.143583 
L 163.423341 83.674148 
L 163.471385 82.026877 
L 163.503414 83.63397 
L 163.567472 84.506392 
L 163.63153 81.466946 
L 163.695589 79.401958 
L 163.727618 81.436972 
L 163.743632 82.785782 
L 163.80769 80.647456 
L 163.823705 81.066448 
L 163.855734 78.014246 
L 163.951821 78.518057 
L 163.98385 81.458655 
L 164.063923 79.671083 
L 164.127981 76.363149 
L 164.143996 79.359868 
L 164.208054 75.847221 
L 164.272112 81.655715 
L 164.288127 82.146771 
L 164.384214 74.158498 
L 164.400229 75.180788 
L 164.54436 82.334266 
L 164.656461 86.28121 
L 164.576389 80.489297 
L 164.68849 86.027391 
L 164.848636 75.609984 
L 164.89668 79.129008 
L 164.944723 76.854206 
L 165.04081 68.644 
L 165.07284 70.828882 
L 165.088854 72.284832 
L 165.104869 68.012642 
L 165.168927 69.502392 
L 165.313058 77.155217 
L 165.361101 77.026394 
L 165.473203 71.937904 
L 165.505232 74.085159 
L 165.585305 83.179903 
L 165.665378 81.304961 
L 165.92161 73.495891 
L 165.95364 74.984365 
L 165.969654 75.994538 
L 166.001683 72.360084 
L 166.145814 66.686153 
L 166.257916 72.83456 
L 166.177843 66.431059 
L 166.30596 70.558482 
L 166.337989 68.659306 
L 166.402047 70.839086 
L 166.418061 72.074379 
L 166.45009 69.062993 
L 166.48212 70.270863 
L 166.530163 68.665046 
L 166.546178 72.168126 
L 166.610236 74.218445 
L 166.62625 70.99278 
L 166.642265 71.028493 
L 166.706323 74.931433 
L 166.770381 74.071128 
L 166.898498 65.366041 
L 166.914512 66.934232 
L 166.930527 66.983975 
L 167.026614 62.710511 
L 166.97857 67.184862 
L 167.042629 64.979573 
L 167.090672 69.878018 
L 167.18676 67.03627 
L 167.266832 60.863629 
L 167.314876 63.454748 
L 167.33089 63.32465 
L 167.442992 58.815861 
L 167.475021 59.584332 
L 167.53908 62.652477 
L 167.571109 61.364251 
L 167.603138 57.542303 
L 167.667196 63.341869 
L 167.763283 60.227169 
L 167.811327 60.411475 
L 167.827341 62.255805 
L 167.875385 59.684456 
L 167.8914 62.142288 
L 167.955458 53.625333 
L 168.019516 56.798704 
L 168.03553 57.481081 
L 168.051545 53.483755 
L 168.06756 53.386182 
L 168.21169 57.013621 
L 168.227705 56.528304 
L 168.24372 58.497631 
L 168.323792 61.461187 
L 168.339807 58.53717 
L 168.467923 51.666847 
L 168.483938 51.724243 
L 168.580025 48.659287 
L 168.531981 52.183413 
L 168.59604 50.038709 
L 168.676112 54.756037 
L 168.724156 52.736967 
L 168.756185 57.015534 
L 168.804229 52.615797 
L 168.91633 50.788686 
L 168.932345 52.91362 
L 168.980389 48.5936 
L 169.028432 51.144542 
L 169.044447 49.961543 
L 169.060461 51.472976 
L 169.108505 50.312935 
L 169.12452 54.53283 
L 169.188578 49.704535 
L 169.220607 50.677082 
L 169.26865 48.446284 
L 169.30068 51.724243 
L 169.316694 53.135552 
L 169.380752 49.743437 
L 169.396767 51.072478 
L 169.412781 51.184719 
L 169.508869 43.389042 
L 169.44481 51.427059 
L 169.540898 47.040715 
L 169.62097 51.713402 
L 169.669014 48.501129 
L 169.717058 43.685589 
L 169.781116 45.732082 
L 169.989305 60.137248 
L 170.00532 58.959351 
L 170.021334 60.651263 
L 170.101407 58.653876 
L 170.117421 55.342116 
L 170.18148 61.588734 
L 170.197494 61.031991 
L 170.245538 56.87587 
L 170.309596 59.962509 
L 170.453727 68.992204 
L 170.549814 61.963722 
L 170.597858 63.496201 
L 170.613872 64.397321 
L 170.661916 62.331696 
L 170.693945 62.700307 
L 170.822061 55.835723 
L 170.918149 61.614243 
L 170.950178 61.056863 
L 170.982207 54.374672 
L 171.078294 55.064064 
L 171.158367 52.442333 
L 171.20641 53.415518 
L 171.334527 50.80144 
L 171.254454 54.4174 
L 171.366556 51.108191 
L 171.4146 55.440965 
L 171.478658 55.166739 
L 171.542716 52.295017 
L 171.59076 53.507351 
L 171.76692 66.999919 
L 171.814963 62.251341 
L 171.879021 64.305487 
L 172.007138 68.073865 
L 172.039167 70.241528 
L 172.103225 67.237794 
L 172.11924 69.020264 
L 172.135254 69.080849 
L 172.231341 63.673491 
L 172.26337 66.874285 
L 172.279385 66.503123 
L 172.311414 67.834077 
L 172.327429 66.721866 
L 172.487574 73.969091 
L 172.503589 72.866446 
L 172.519603 71.376059 
L 172.567647 75.629116 
L 172.631705 75.37721 
L 172.727792 79.993777 
L 172.82388 77.687726 
L 172.839894 78.913453 
L 173.064098 87.419567 
L 172.871923 77.190292 
L 173.096127 85.922803 
L 173.1762 82.042821 
L 173.208229 85.656229 
L 173.240258 86.268455 
L 173.368374 82.09639 
L 173.49649 85.765282 
L 173.52852 83.892891 
L 173.640621 79.1762 
L 173.656636 80.37578 
L 173.688665 83.234748 
L 173.70468 80.334328 
L 173.736709 77.964503 
L 173.800767 78.829272 
L 173.88084 80.89107 
L 173.84881 77.532118 
L 173.912869 79.621977 
L 173.992941 75.921836 
L 174.02497 77.025119 
L 174.089029 79.26357 
L 174.105043 76.426285 
L 174.153087 77.893714 
L 174.169101 76.581255 
L 174.20113 79.530781 
L 174.217145 82.093839 
L 174.297218 77.164145 
L 174.329247 79.791615 
L 174.40932 77.951748 
L 174.441349 72.989529 
L 174.521421 77.538496 
L 174.58548 76.175017 
L 174.617509 79.503996 
L 174.745625 75.367007 
L 174.857727 84.115461 
L 174.889756 81.145527 
L 174.90577 80.263539 
L 174.9378 84.258313 
L 174.953814 85.470648 
L 175.001858 81.902519 
L 175.033887 83.910747 
L 175.08193 84.514045 
L 175.178018 85.686203 
L 175.210047 81.613625 
L 175.514323 92.132432 
L 175.242076 80.603452 
L 175.546352 90.886297 
L 175.562367 90.866527 
L 175.626425 91.39521 
L 175.706498 84.806128 
L 175.722512 84.794649 
L 175.770556 88.473106 
L 175.882658 86.64727 
L 175.898672 86.543957 
L 175.946716 88.044548 
L 176.042803 83.102099 
L 176.13889 81.530081 
L 176.122876 83.426069 
L 176.154905 82.889733 
L 176.331065 92.700016 
L 176.379109 88.31431 
L 176.427152 94.106861 
L 176.459181 95.041781 
L 176.587298 87.216768 
L 176.603312 88.44122 
L 176.651356 84.489173 
L 176.683385 87.834733 
L 176.6994 85.950225 
L 176.747443 90.77852 
L 176.795487 86.669591 
L 176.907589 92.464692 
L 176.939618 89.298336 
L 176.955632 87.299673 
L 177.003676 92.96085 
L 177.01969 92.817997 
L 177.035705 92.940443 
L 177.083749 90.190528 
L 177.147807 94.472283 
L 177.307952 88.092378 
L 177.37201 89.661845 
L 177.40404 86.127516 
L 177.500127 92.582035 
L 177.532156 92.252964 
L 177.54817 90.58401 
L 177.564185 93.122835 
L 177.612229 92.79185 
L 177.628243 93.891944 
L 177.692301 91.089735 
L 177.72433 89.673962 
L 177.75636 93.611978 
L 177.772374 94.046276 
L 177.788389 91.740862 
L 177.868461 87.561145 
L 177.836432 92.455126 
L 177.916505 89.293872 
L 178.220781 100.06586 
L 178.236796 99.421109 
L 178.268825 97.344643 
L 178.332883 98.920487 
L 178.493029 107.392164 
L 178.509043 107.221251 
L 178.60513 103.20288 
L 178.621145 104.137162 
L 178.685203 108.707812 
L 178.733247 106.668334 
L 178.749261 107.049062 
L 178.765276 105.787622 
L 178.78129 106.077153 
L 178.797305 105.454086 
L 178.829334 107.363466 
L 178.98948 111.881183 
L 179.005494 111.471119 
L 179.085567 105.446433 
L 179.13361 107.133881 
L 179.181654 107.608356 
L 179.261727 104.654366 
L 179.30977 101.852794 
L 179.357814 104.304249 
L 179.373829 107.006972 
L 179.453901 104.773622 
L 179.501945 105.482784 
L 179.566003 102.119368 
L 179.69412 109.111498 
L 179.726149 109.108947 
L 179.822236 104.95155 
L 179.854265 107.478896 
L 179.982381 110.667573 
L 179.918323 105.623086 
L 179.998396 109.540056 
L 180.01441 109.548347 
L 180.142527 111.679021 
L 180.158541 111.629278 
L 180.254629 107.637692 
L 180.286658 109.009461 
L 180.302672 108.111529 
L 180.350716 110.598697 
L 180.36673 109.869766 
L 180.446803 113.411748 
L 180.414774 109.017751 
L 180.494847 110.975599 
L 180.54289 111.182863 
L 180.590934 107.514609 
L 180.622963 104.921577 
L 180.654992 109.379347 
L 180.687021 107.663201 
L 180.703036 107.739092 
L 180.831152 104.538936 
L 180.75108 108.61534 
L 180.847167 104.862905 
L 180.863181 104.192008 
L 180.911225 105.750633 
L 180.92724 105.060603 
L 180.959269 104.825917 
L 181.07137 108.292646 
L 181.087385 109.451411 
L 181.135429 107.404918 
L 181.167458 108.596846 
L 181.295574 101.654459 
L 181.311589 104.111015 
L 181.327603 104.019181 
L 181.42369 106.121795 
L 181.375647 103.619959 
L 181.439705 104.745562 
L 181.551807 107.975054 
L 181.63188 106.526119 
L 181.743981 100.562656 
L 181.80804 102.357243 
L 181.856083 108.45208 
L 181.936156 106.036338 
L 181.95217 106.040165 
L 181.968185 106.32587 
L 182.048258 103.099567 
L 182.096301 104.186268 
L 182.112316 105.225777 
L 182.176374 103.217548 
L 182.208403 101.158301 
L 182.224418 105.667727 
L 182.240432 104.313177 
L 182.256447 107.767152 
L 182.352534 106.728281 
L 182.496665 102.376375 
L 182.624781 105.285724 
L 182.640796 104.663294 
L 182.672825 100.977184 
L 182.752898 103.207344 
L 182.768912 103.266654 
L 182.784927 104.750664 
L 182.848985 101.4287 
L 182.865 102.137862 
L 182.897029 104.004513 
L 182.929058 101.378319 
L 182.945072 100.033973 
L 182.993116 104.023646 
L 183.00913 104.040227 
L 183.04116 105.463014 
L 183.105218 103.669702 
L 183.201305 98.696004 
L 183.249349 98.945359 
L 183.265363 99.035279 
L 183.377465 96.692877 
L 183.39348 98.96194 
L 183.473552 95.167414 
L 183.489567 98.822914 
L 183.521596 96.322353 
L 183.585654 98.926864 
L 183.601669 98.041688 
L 183.681741 99.118823 
L 183.649712 96.382938 
L 183.697756 98.639884 
L 183.729785 95.946727 
L 183.809858 97.667975 
L 183.825872 97.960695 
L 183.92196 94.664879 
L 183.937974 95.250958 
L 184.050076 97.395024 
L 184.018047 94.398943 
L 184.06609 96.726677 
L 184.082105 94.893188 
L 184.146163 99.262313 
L 184.162178 98.249589 
L 184.210221 99.637302 
L 184.24225 97.527035 
L 184.306309 99.033366 
L 184.370367 94.63937 
L 184.402396 95.856806 
L 184.434425 95.000328 
L 184.530512 97.956869 
L 184.546527 99.100966 
L 184.610585 95.926957 
L 184.722687 99.294838 
L 184.674643 95.516256 
L 184.834789 99.215121 
L 184.962905 91.895194 
L 184.97892 92.022104 
L 185.010949 91.052746 
L 185.042978 88.913781 
L 185.075007 92.570556 
L 185.091021 95.164226 
L 185.15508 89.803422 
L 185.187109 93.802023 
L 185.251167 89.05217 
L 185.315225 90.838467 
L 185.347254 92.870929 
L 185.395298 90.677757 
L 185.411312 90.811682 
L 185.427327 89.387619 
L 185.47537 93.217857 
L 185.523414 92.372858 
L 185.699574 101.255874 
L 185.763632 95.939712 
L 185.811676 97.986205 
L 185.875734 99.920456 
L 185.891749 97.40459 
L 185.923778 98.328669 
L 186.051894 94.572407 
L 186.067909 93.078831 
L 186.083923 96.731779 
L 186.131967 95.598524 
L 186.244069 98.350352 
L 186.163996 94.776483 
L 186.260083 98.32548 
L 186.276098 97.333802 
L 186.324141 100.546712 
L 186.340156 100.171724 
L 186.35617 100.352203 
L 186.500301 92.990824 
L 186.516316 93.099876 
L 186.580374 92.421326 
L 186.596389 93.133039 
L 186.628418 94.948671 
L 186.660447 93.818604 
L 186.676461 90.104433 
L 186.756534 96.837006 
L 186.772549 98.529555 
L 186.836607 94.999052 
L 186.868636 96.972843 
L 187.09284 109.337257 
L 187.317043 100.715712 
L 187.333058 100.731656 
L 187.349072 102.747537 
L 187.429145 99.9364 
L 187.44516 99.399426 
L 187.461174 101.275644 
L 187.605305 110.235188 
L 187.653349 109.783034 
L 187.845523 97.900111 
L 187.861538 97.903299 
L 187.957625 103.267291 
L 187.989654 102.463107 
L 188.005669 100.918512 
L 188.037698 103.714982 
L 188.085741 103.161427 
L 188.357989 117.722839 
L 188.390018 116.958194 
L 188.422047 116.049421 
L 188.47009 117.757277 
L 188.486105 116.758583 
L 188.630236 120.560124 
L 188.64625 118.932623 
L 188.790381 114.673826 
L 188.806396 115.800067 
L 188.82241 116.803862 
L 188.870454 114.2982 
L 188.902483 114.995883 
L 189.0306 111.385663 
L 188.966541 116.244568 
L 189.046614 112.212168 
L 189.238789 106.742949 
L 189.318861 105.698976 
L 189.38292 110.617192 
L 189.511036 107.70019 
L 189.55908 109.131268 
L 189.575094 109.364679 
L 189.591109 106.265923 
L 189.623138 111.173297 
L 189.671181 110.210954 
L 189.73524 109.017113 
L 189.783283 109.531766 
L 189.831327 112.673888 
L 189.895385 111.222402 
L 189.927414 110.608901 
L 189.991472 111.355051 
L 190.119589 114.523958 
L 190.151618 114.391309 
L 190.26372 111.433493 
L 190.279734 112.113319 
L 190.311763 114.146419 
L 190.391836 112.525296 
L 190.43988 110.008154 
L 190.471909 112.846077 
L 190.487923 114.349219 
L 190.519952 112.135002 
L 190.58401 113.24211 
L 190.61604 112.83396 
L 190.632054 113.614548 
L 190.664083 117.722839 
L 190.712127 113.520801 
L 190.840243 103.945204 
L 190.872272 105.169018 
L 191.080461 113.749748 
L 191.096476 112.621594 
L 191.208578 110.066188 
L 191.224592 110.378041 
L 191.384738 117.481775 
L 191.400752 117.704982 
L 191.432781 116.170591 
L 191.49684 116.594685 
L 191.544883 118.666687 
L 191.576912 115.808357 
L 191.592927 116.169316 
L 191.656985 112.170077 
L 191.705029 114.986317 
L 191.753072 115.955674 
L 191.801116 115.577497 
L 191.84916 114.489521 
L 191.881189 116.722232 
L 191.897203 117.220304 
L 191.913218 114.948052 
L 191.945247 115.30072 
L 192.009305 113.212137 
L 192.041334 115.076237 
L 192.057349 115.317939 
L 192.137421 119.138612 
L 192.185465 117.438409 
L 192.217494 119.969581 
L 192.249523 115.488214 
L 192.265538 117.651413 
L 192.361625 111.56104 
L 192.393654 113.685336 
L 192.441698 113.98571 
L 192.569814 110.036852 
L 192.585829 111.123553 
L 192.665901 111.288089 
L 192.69793 107.516522 
L 192.713945 106.247429 
L 192.794018 108.619167 
L 192.87409 111.133757 
L 192.922134 110.342965 
L 192.938149 108.529246 
L 192.970178 111.364617 
L 193.018221 109.714158 
L 193.146338 114.562223 
L 193.162352 114.501638 
L 193.274454 109.575132 
L 193.306483 109.86849 
L 193.322498 110.48518 
L 193.338512 107.999288 
L 193.354527 109.178461 
L 193.40257 106.637723 
L 193.466629 107.466779 
L 193.482643 107.759499 
L 193.562716 113.14645 
L 193.594745 110.015807 
L 193.61076 108.87171 
L 193.642789 112.607564 
L 193.674818 111.110799 
L 193.722861 112.682816 
L 193.78692 111.470481 
L 193.818949 111.792538 
L 193.834963 109.411872 
L 193.883007 111.930289 
L 193.93105 111.303395 
L 193.947065 112.180281 
L 193.995109 108.885102 
L 194.10721 106.850089 
L 194.059167 109.467992 
L 194.123225 107.126228 
L 194.251341 114.877902 
L 194.267356 113.062269 
L 194.3154 111.61461 
L 194.363443 113.285476 
L 194.379458 113.205759 
L 194.443516 114.161725 
L 194.587647 104.231547 
L 194.731778 111.335282 
L 194.795836 111.095493 
L 194.827865 109.505619 
L 194.859894 111.888836 
L 194.875909 111.636293 
L 194.891923 112.09036 
L 194.907938 110.525358 
L 194.939967 110.614641 
L 194.955981 109.323226 
L 195.004025 111.875443 
L 195.02004 111.646496 
L 195.052069 112.136277 
L 195.180185 106.239776 
L 195.260258 106.903658 
L 195.212214 104.816351 
L 195.276272 105.694512 
L 195.324316 107.397266 
L 195.308301 104.72643 
L 195.37236 105.980218 
L 195.404389 103.302367 
L 195.452432 107.72825 
L 195.468447 107.061817 
L 195.484461 107.408745 
L 195.500476 105.943229 
L 195.532505 106.24424 
L 195.644607 99.461924 
L 195.660621 98.089518 
L 195.72468 100.081803 
L 195.740694 99.042932 
L 195.804752 101.115572 
L 195.772723 98.255967 
L 195.820767 100.900018 
L 195.86881 96.09787 
L 195.932869 98.208137 
L 195.964898 100.19532 
L 196.028956 98.46897 
L 196.093014 98.968955 
L 196.141058 96.460104 
L 196.189101 100.538422 
L 196.269174 98.947272 
L 196.285189 97.865673 
L 196.333232 101.229727 
L 196.365261 102.196534 
L 196.445334 99.345857 
L 196.477363 100.621327 
L 196.493378 101.371942 
L 196.509392 100.007188 
L 196.621494 96.495179 
L 196.685552 101.245033 
L 196.717581 99.932573 
L 196.733596 96.016878 
L 196.813669 100.26292 
L 196.829683 100.177464 
L 196.973814 110.549592 
L 197.037872 107.430428 
L 197.165989 111.503006 
L 197.13396 107.167681 
L 197.198018 110.89652 
L 197.214032 110.087871 
L 197.262076 112.916228 
L 197.326134 112.088447 
L 197.342149 113.46468 
L 197.358163 116.224161 
L 197.422221 112.066764 
L 197.438236 113.295042 
L 197.45425 113.314812 
L 197.518309 115.943557 
L 197.63041 115.803893 
L 197.694469 115.039886 
L 197.66244 117.38739 
L 197.726498 116.386146 
L 197.774541 117.289817 
L 197.790556 116.145719 
L 197.918672 111.916896 
L 197.934687 112.11013 
L 198.062803 108.530521 
L 198.174905 112.186658 
L 198.19092 110.73581 
L 198.222949 107.065643 
L 198.287007 110.034939 
L 198.319036 112.410503 
L 198.415123 111.754274 
L 198.479181 111.140135 
L 198.54324 112.233213 
L 198.655341 106.45278 
L 198.68737 107.439994 
L 198.703385 106.3737 
L 198.735414 111.02024 
L 198.751429 110.580841 
L 198.783458 112.598635 
L 198.86353 116.18781 
L 198.943603 114.71209 
L 198.975632 111.847383 
L 199.007661 114.823056 
L 199.055705 114.096676 
L 199.07172 116.200565 
L 199.151792 112.386269 
L 199.24788 114.338377 
L 199.199836 111.497266 
L 199.263894 113.213412 
L 199.343967 109.511358 
L 199.375996 110.177792 
L 199.39201 112.430911 
L 199.440054 108.246091 
L 199.488098 110.584667 
L 199.552156 112.535499 
L 199.6002 111.024067 
L 199.616214 111.488338 
L 199.632229 110.168226 
L 199.728316 107.80988 
L 199.696287 110.390158 
L 199.74433 108.91954 
L 199.760345 108.334099 
L 199.824403 109.47437 
L 199.840418 109.29134 
L 199.888461 112.430273 
L 199.95252 110.100626 
L 200.000563 108.470574 
L 200.016578 110.170777 
L 200.048607 110.097437 
L 200.12868 112.918778 
L 200.09665 109.447585 
L 200.192738 112.450681 
L 200.336869 108.774774 
L 200.352883 109.58406 
L 200.432956 112.439201 
L 200.464985 111.04575 
L 200.497014 112.196224 
L 200.513029 110.260697 
L 200.529043 110.438626 
L 200.545058 108.79008 
L 200.577087 112.39456 
L 200.593101 112.149032 
L 200.609116 114.148332 
L 200.62513 110.504312 
L 200.705203 113.620287 
L 200.83332 108.247367 
L 200.961436 112.141379 
L 201.121581 107.633865 
L 200.993465 112.356296 
L 201.137596 109.281136 
L 201.18564 111.402244 
L 201.201654 108.054133 
L 201.217669 109.3532 
L 201.345785 105.335467 
L 201.409843 111.526602 
L 201.473901 107.506318 
L 201.618032 110.775988 
L 201.762163 105.487248 
L 201.778178 105.487886 
L 201.842236 104.366109 
L 201.85825 105.856497 
L 201.89028 105.057415 
L 202.018396 110.362097 
L 202.050425 108.189971 
L 202.114483 108.922091 
L 202.194556 102.123194 
L 202.226585 101.933787 
L 202.38673 108.427846 
L 202.41876 108.286269 
L 202.450789 109.652298 
L 202.498832 111.745983 
L 202.546876 109.568755 
L 202.56289 108.517129 
L 202.59492 111.781696 
L 202.610934 110.949452 
L 202.626949 113.472333 
L 202.674992 108.855129 
L 202.707021 110.923304 
L 202.819123 107.622386 
L 202.867167 107.98462 
L 202.883181 108.240352 
L 202.91521 106.63581 
L 202.94724 109.615947 
L 202.995283 108.008216 
L 203.155429 113.437257 
L 203.26753 110.680965 
L 203.283545 111.515123 
L 203.29956 114.156623 
L 203.379632 110.369112 
L 203.555792 114.905324 
L 203.65188 115.082615 
L 203.699923 112.471726 
L 203.747967 114.403426 
L 203.79601 112.256809 
L 203.82804 113.557789 
L 203.860069 112.146481 
L 203.876083 112.362035 
L 203.908112 112.365224 
L 203.924127 111.545096 
L 203.97217 111.517036 
L 204.068258 117.660979 
L 204.164345 112.358847 
L 204.196374 113.690438 
L 204.212389 114.187234 
L 204.244418 111.918809 
L 204.260432 112.738937 
L 204.276447 112.083345 
L 204.308476 113.419401 
L 204.32449 112.421345 
L 204.340505 114.330725 
L 204.420578 111.459002 
L 204.436592 111.620349 
L 204.452607 109.417611 
L 204.50065 113.317363 
L 204.53268 113.305246 
L 204.564709 111.665628 
L 204.612752 114.00548 
L 204.628767 112.935997 
L 204.740869 117.002836 
L 204.756883 115.727365 
L 204.820941 117.756001 
L 204.788912 115.54561 
L 204.868985 117.655239 
L 204.933043 115.522014 
L 204.949058 118.327412 
L 204.981087 117.54236 
L 205.077174 114.298838 
L 205.093189 116.870825 
L 205.109203 116.863809 
L 205.157247 115.323041 
L 205.141232 117.534069 
L 205.221305 115.921237 
L 205.301378 118.32231 
L 205.253334 115.673158 
L 205.349421 117.639933 
L 205.365436 117.09467 
L 205.38145 118.258537 
L 205.397465 117.755363 
L 205.41348 119.297408 
L 205.477538 116.990081 
L 205.509567 115.176362 
L 205.55761 118.595261 
L 205.573625 119.614362 
L 205.605654 116.699911 
L 205.637683 117.82679 
L 205.701741 115.803256 
L 205.717756 116.946077 
L 205.813843 119.467045 
L 205.781814 115.844071 
L 205.829858 119.422404 
L 206.006018 116.222248 
L 206.022032 113.435982 
L 206.08609 118.826121 
L 206.102105 118.18711 
L 206.11812 118.201141 
L 206.214207 117.180126 
L 206.182178 119.083766 
L 206.246236 117.348488 
L 206.326309 113.277186 
L 206.374352 116.569176 
L 206.406381 116.587032 
L 206.422396 115.98501 
L 206.534498 119.170498 
L 206.550512 118.859921 
L 206.61457 117.168009 
L 206.630585 118.827397 
L 206.758701 122.224613 
L 206.774716 122.060715 
L 206.79073 122.845767 
L 206.838774 121.222731 
L 206.870803 122.320273 
L 206.950876 120.80884 
L 206.982905 121.569021 
L 206.99892 122.203568 
L 207.046963 120.651958 
L 207.078992 121.408312 
L 207.14305 120.081822 
L 207.159065 122.105994 
L 207.17508 120.778867 
L 207.223123 122.432515 
L 207.287181 121.245051 
L 207.335225 120.792897 
L 207.367254 121.590066 
L 207.383269 120.850931 
L 207.49537 123.92928 
L 207.5274 122.696537 
L 207.623487 121.711874 
L 207.591458 123.426744 
L 207.655516 121.982274 
L 207.751603 123.067699 
L 207.863705 120.427475 
L 207.87972 121.519915 
L 207.895734 121.533308 
L 207.991821 123.800457 
L 208.007836 122.293488 
L 208.02385 121.609836 
L 208.071894 122.843854 
L 208.103923 122.820258 
L 208.183996 124.283223 
L 208.23204 121.24824 
L 208.296098 123.365522 
L 208.312112 122.368103 
L 208.360156 123.764744 
L 208.4082 122.679318 
L 208.456243 122.248209 
L 208.440229 122.993084 
L 208.488272 122.598964 
L 208.58436 125.125033 
L 208.600374 123.634008 
L 208.632403 124.035144 
L 208.648418 123.057495 
L 208.680447 122.415296 
L 208.696461 124.218174 
L 208.72849 123.760917 
L 208.744505 125.227071 
L 208.824578 123.063873 
L 208.984723 126.650496 
L 209.048781 126.228953 
L 209.064796 126.320787 
L 209.08081 125.86098 
L 209.11284 123.878261 
L 209.176898 125.709199 
L 209.208927 125.273626 
L 209.224941 126.108421 
L 209.240956 123.945861 
L 209.337043 125.147992 
L 209.353058 125.038939 
L 209.401101 126.659425 
L 209.46516 125.602059 
L 209.561247 124.808717 
L 209.577261 125.674124 
L 209.625305 123.306212 
L 209.657334 124.8304 
L 209.705378 123.486054 
L 209.753421 124.322125 
L 209.78545 125.39926 
L 209.833494 124.047898 
L 209.865523 124.593162 
L 209.913567 123.762831 
L 209.977625 125.225158 
L 210.025669 123.017956 
L 210.041683 125.481527 
L 210.105741 123.53197 
L 210.121756 124.949018 
L 210.201829 123.346389 
L 210.217843 123.920351 
L 210.233858 123.540899 
L 210.297916 124.225827 
L 210.31393 124.011547 
L 210.394003 124.77109 
L 210.410018 124.110396 
L 210.474076 124.320211 
L 210.49009 123.440774 
L 210.506105 124.807441 
L 210.586178 123.366797 
L 210.602192 124.153762 
L 210.650236 123.479676 
L 210.634221 124.692011 
L 210.66625 123.798544 
L 210.730309 125.374388 
L 210.778352 124.737928 
" clip-path="url(#p3414ef86c1)" style="fill: none; stroke: #009e73; stroke-width: 1.25; stroke-linecap: square"/>
   </g>
   <g id="patch_4">
    <path d="M 42.625625 131.718516 
L 42.625625 20.418516 
" style="fill: none; stroke: #000000; stroke-width: 0.8; stroke-linejoin: miter; stroke-linecap: square"/>
   </g>
   <g id="patch_5">
    <path d="M 42.625625 131.718516 
L 218.785625 131.718516 
" style="fill: none; stroke: #000000; stroke-width: 0.8; stroke-linejoin: miter; stroke-linecap: square"/>
   </g>
   <g id="text_16">
    <!-- drugs3523 rep1 -->
    <g transform="translate(92.832539 14.418516) scale(0.095 -0.095)">
     <defs>
      <path id="DejaVuSans-64" d="M 2906 2969 
L 2906 4863 
L 3481 4863 
L 3481 0 
L 2906 0 
L 2906 525 
Q 2725 213 2448 61 
Q 2172 -91 1784 -91 
Q 1150 -91 751 415 
Q 353 922 353 1747 
Q 353 2572 751 3078 
Q 1150 3584 1784 3584 
Q 2172 3584 2448 3432 
Q 2725 3281 2906 2969 
z
M 947 1747 
Q 947 1113 1208 752 
Q 1469 391 1925 391 
Q 2381 391 2643 752 
Q 2906 1113 2906 1747 
Q 2906 2381 2643 2742 
Q 2381 3103 1925 3103 
Q 1469 3103 1208 2742 
Q 947 2381 947 1747 
z
" transform="scale(0.015625)"/>
      <path id="DejaVuSans-72" d="M 2631 2963 
Q 2534 3019 2420 3045 
Q 2306 3072 2169 3072 
Q 1681 3072 1420 2755 
Q 1159 2438 1159 1844 
L 1159 0 
L 581 0 
L 581 3500 
L 1159 3500 
L 1159 2956 
Q 1341 3275 1631 3429 
Q 1922 3584 2338 3584 
Q 2397 3584 2469 3576 
Q 2541 3569 2628 3553 
L 2631 2963 
z
" transform="scale(0.015625)"/>
      <path id="DejaVuSans-75" d="M 544 1381 
L 544 3500 
L 1119 3500 
L 1119 1403 
Q 1119 906 1312 657 
Q 1506 409 1894 409 
Q 2359 409 2629 706 
Q 2900 1003 2900 1516 
L 2900 3500 
L 3475 3500 
L 3475 0 
L 2900 0 
L 2900 538 
Q 2691 219 2414 64 
Q 2138 -91 1772 -91 
Q 1169 -91 856 284 
Q 544 659 544 1381 
z
M 1991 3584 
L 1991 3584 
z
" transform="scale(0.015625)"/>
      <path id="DejaVuSans-70" d="M 1159 525 
L 1159 -1331 
L 581 -1331 
L 581 3500 
L 1159 3500 
L 1159 2969 
Q 1341 3281 1617 3432 
Q 1894 3584 2278 3584 
Q 2916 3584 3314 3078 
Q 3713 2572 3713 1747 
Q 3713 922 3314 415 
Q 2916 -91 2278 -91 
Q 1894 -91 1617 61 
Q 1341 213 1159 525 
z
M 3116 1747 
Q 3116 2381 2855 2742 
Q 2594 3103 2138 3103 
Q 1681 3103 1420 2742 
Q 1159 2381 1159 1747 
Q 1159 1113 1420 752 
Q 1681 391 2138 391 
Q 2594 391 2855 752 
Q 3116 1113 3116 1747 
z
" transform="scale(0.015625)"/>
     </defs>
     <use xlink:href="#DejaVuSans-64"/>
     <use xlink:href="#DejaVuSans-72" transform="translate(63.476562 0)"/>
     <use xlink:href="#DejaVuSans-75" transform="translate(104.589844 0)"/>
     <use xlink:href="#DejaVuSans-67" transform="translate(167.96875 0)"/>
     <use xlink:href="#DejaVuSans-73" transform="translate(231.445312 0)"/>
     <use xlink:href="#DejaVuSans-33" transform="translate(283.544922 0)"/>
     <use xlink:href="#DejaVuSans-35" transform="translate(347.167969 0)"/>
     <use xlink:href="#DejaVuSans-32" transform="translate(410.791016 0)"/>
     <use xlink:href="#DejaVuSans-33" transform="translate(474.414062 0)"/>
     <use xlink:href="#DejaVuSans-20" transform="translate(538.037109 0)"/>
     <use xlink:href="#DejaVuSans-72" transform="translate(569.824219 0)"/>
     <use xlink:href="#DejaVuSans-65" transform="translate(608.6875 0)"/>
     <use xlink:href="#DejaVuSans-70" transform="translate(670.210938 0)"/>
     <use xlink:href="#DejaVuSans-31" transform="translate(733.6875 0)"/>
    </g>
   </g>
  </g>
 </g>
 <defs>
  <clipPath id="p3414ef86c1">
   <rect x="42.625625" y="20.418516" width="176.16" height="111.3"/>
  </clipPath>
 </defs>
</svg>
