<?xml version="1.0" encoding="utf-8" standalone="no"?>
<!DOCTYPE svg PUBLIC "-//W3C//DTD SVG 1.1//EN"
  "http://www.w3.org/Graphics/SVG/1.1/DTD/svg11.dtd">
<svg xmlns:xlink="http://www.w3.org/1999/xlink" width="226.01375pt" height="164.903516pt" viewBox="0 0 226.01375 164.903516" xmlns="http://www.w3.org/2000/svg" version="1.1">
 <metadata>
  <rdf:RDF xmlns:dc="http://purl.org/dc/elements/1.1/" xmlns:cc="http://creativecommons.org/ns#" xmlns:rdf="http://www.w3.org/1999/02/22-rdf-syntax-ns#">
   <cc:Work>
    <dc:type rdf:resource="http://purl.org/dc/dcmitype/StillImage"/>
    <dc:date>2026-05-24T13:54:19.377380</dc:date>
    <dc:format>image/svg+xml</dc:format>
    <dc:creator>
     <cc:Agent>
      <dc:title>Matplotlib v3.10.9, https://matplotlib.org/</dc:title>
     </cc:Agent>
    </dc:creator>
   </cc:Work>
  </rdf:RDF>
 </metadata>
 <defs>
  <style type="text/css">*{stroke-linejoin: round; stroke-linecap: butt}</style>
 </defs>
 <g id="figure_1">
  <g id="patch_1">
   <path d="M 0 164.903516 
L 226.01375 164.903516 
L 226.01375 0 
L 0 0 
z
" style="fill: #ffffff"/>
  </g>
  <g id="axes_1">
   <g id="patch_2">
    <path d="M 37.85375 131.718516 
L 218.81375 131.718516 
L 218.81375 20.418516 
L 37.85375 20.418516 
z
" style="fill: #ffffff"/>
   </g>
   <g id="patch_3">
    <path d="M 128.33375 131.718516 
L 210.588295 131.718516 
L 210.588295 20.418516 
L 128.33375 20.418516 
z
" clip-path="url(#p6b83b286a8)" style="fill: #bdbdbd; opacity: 0.18"/>
   </g>
   <g id="matplotlib.axis_1">
    <g id="xtick_1">
     <g id="line2d_1">
      <defs>
       <path id="m5822a2a888" d="M 0 0 
L 0 3 
" style="stroke: #000000; stroke-width: 0.7"/>
      </defs>
      <g>
       <use xlink:href="#m5822a2a888" x="46.079205" y="131.718516" style="stroke: #000000; stroke-width: 0.7"/>
      </g>
     </g>
     <g id="text_1">
      <!-- 0 -->
      <g transform="translate(43.693267 143.917344) scale(0.075 -0.075)">
       <defs>
        <path id="DejaVuSans-30" d="M 2034 4250 
Q 1547 4250 1301 3770 
Q 1056 3291 1056 2328 
Q 1056 1369 1301 889 
Q 1547 409 2034 409 
Q 2525 409 2770 889 
Q 3016 1369 3016 2328 
Q 3016 3291 2770 3770 
Q 2525 4250 2034 4250 
z
M 2034 4750 
Q 2819 4750 3233 4129 
Q 3647 3509 3647 2328 
Q 3647 1150 3233 529 
Q 2819 -91 2034 -91 
Q 1250 -91 836 529 
Q 422 1150 422 2328 
Q 422 3509 836 4129 
Q 1250 4750 2034 4750 
z
" transform="scale(0.015625)"/>
       </defs>
       <use xlink:href="#DejaVuSans-30"/>
      </g>
     </g>
    </g>
    <g id="xtick_2">
     <g id="line2d_2">
      <g>
       <use xlink:href="#m5822a2a888" x="78.981023" y="131.718516" style="stroke: #000000; stroke-width: 0.7"/>
      </g>
     </g>
     <g id="text_2">
      <!-- 20 -->
      <g transform="translate(74.209148 143.917344) scale(0.075 -0.075)">
       <defs>
        <path id="DejaVuSans-32" d="M 1228 531 
L 3431 531 
L 3431 0 
L 469 0 
L 469 531 
Q 828 903 1448 1529 
Q 2069 2156 2228 2338 
Q 2531 2678 2651 2914 
Q 2772 3150 2772 3378 
Q 2772 3750 2511 3984 
Q 2250 4219 1831 4219 
Q 1534 4219 1204 4116 
Q 875 4013 500 3803 
L 500 4441 
Q 881 4594 1212 4672 
Q 1544 4750 1819 4750 
Q 2544 4750 2975 4387 
Q 3406 4025 3406 3419 
Q 3406 3131 3298 2873 
Q 3191 2616 2906 2266 
Q 2828 2175 2409 1742 
Q 1991 1309 1228 531 
z
" transform="scale(0.015625)"/>
       </defs>
       <use xlink:href="#DejaVuSans-32"/>
       <use xlink:href="#DejaVuSans-30" transform="translate(63.623047 0)"/>
      </g>
     </g>
    </g>
    <g id="xtick_3">
     <g id="line2d_3">
      <g>
       <use xlink:href="#m5822a2a888" x="111.882841" y="131.718516" style="stroke: #000000; stroke-width: 0.7"/>
      </g>
     </g>
     <g id="text_3">
      <!-- 40 -->
      <g transform="translate(107.110966 143.917344) scale(0.075 -0.075)">
       <defs>
        <path id="DejaVuSans-34" d="M 2419 4116 
L 825 1625 
L 2419 1625 
L 2419 4116 
z
M 2253 4666 
L 3047 4666 
L 3047 1625 
L 3713 1625 
L 3713 1100 
L 3047 1100 
L 3047 0 
L 2419 0 
L 2419 1100 
L 313 1100 
L 313 1709 
L 2253 4666 
z
" transform="scale(0.015625)"/>
       </defs>
       <use xlink:href="#DejaVuSans-34"/>
       <use xlink:href="#DejaVuSans-30" transform="translate(63.623047 0)"/>
      </g>
     </g>
    </g>
    <g id="xtick_4">
     <g id="line2d_4">
      <g>
       <use xlink:href="#m5822a2a888" x="144.784659" y="131.718516" style="stroke: #000000; stroke-width: 0.7"/>
      </g>
     </g>
     <g id="text_4">
      <!-- 60 -->
      <g transform="translate(140.012784 143.917344) scale(0.075 -0.075)">
       <defs>
        <path id="DejaVuSans-36" d="M 2113 2584 
Q 1688 2584 1439 2293 
Q 1191 2003 1191 1497 
Q 1191 994 1439 701 
Q 1688 409 2113 409 
Q 2538 409 2786 701 
Q 3034 994 3034 1497 
Q 3034 2003 2786 2293 
Q 2538 2584 2113 2584 
z
M 3366 4563 
L 3366 3988 
Q 3128 4100 2886 4159 
Q 2644 4219 2406 4219 
Q 1781 4219 1451 3797 
Q 1122 3375 1075 2522 
Q 1259 2794 1537 2939 
Q 1816 3084 2150 3084 
Q 2853 3084 3261 2657 
Q 3669 2231 3669 1497 
Q 3669 778 3244 343 
Q 2819 -91 2113 -91 
Q 1303 -91 875 529 
Q 447 1150 447 2328 
Q 447 3434 972 4092 
Q 1497 4750 2381 4750 
Q 2619 4750 2861 4703 
Q 3103 4656 3366 4563 
z
" transform="scale(0.015625)"/>
       </defs>
       <use xlink:href="#DejaVuSans-36"/>
       <use xlink:href="#DejaVuSans-30" transform="translate(63.623047 0)"/>
      </g>
     </g>
    </g>
    <g id="xtick_5">
     <g id="line2d_5">
      <g>
       <use xlink:href="#m5822a2a888" x="177.686477" y="131.718516" style="stroke: #000000; stroke-width: 0.7"/>
      </g>
     </g>
     <g id="text_5">
      <!-- 80 -->
      <g transform="translate(172.914602 143.917344) scale(0.075 -0.075)">
       <defs>
        <path id="DejaVuSans-38" d="M 2034 2216 
Q 1584 2216 1326 1975 
Q 1069 1734 1069 1313 
Q 1069 891 1326 650 
Q 1584 409 2034 409 
Q 2484 409 2743 651 
Q 3003 894 3003 1313 
Q 3003 1734 2745 1975 
Q 2488 2216 2034 2216 
z
M 1403 2484 
Q 997 2584 770 2862 
Q 544 3141 544 3541 
Q 544 4100 942 4425 
Q 1341 4750 2034 4750 
Q 2731 4750 3128 4425 
Q 3525 4100 3525 3541 
Q 3525 3141 3298 2862 
Q 3072 2584 2669 2484 
Q 3125 2378 3379 2068 
Q 3634 1759 3634 1313 
Q 3634 634 3220 271 
Q 2806 -91 2034 -91 
Q 1263 -91 848 271 
Q 434 634 434 1313 
Q 434 1759 690 2068 
Q 947 2378 1403 2484 
z
M 1172 3481 
Q 1172 3119 1398 2916 
Q 1625 2713 2034 2713 
Q 2441 2713 2670 2916 
Q 2900 3119 2900 3481 
Q 2900 3844 2670 4047 
Q 2441 4250 2034 4250 
Q 1625 4250 1398 4047 
Q 1172 3844 1172 3481 
z
" transform="scale(0.015625)"/>
       </defs>
       <use xlink:href="#DejaVuSans-38"/>
       <use xlink:href="#DejaVuSans-30" transform="translate(63.623047 0)"/>
      </g>
     </g>
    </g>
    <g id="xtick_6">
     <g id="line2d_6">
      <g>
       <use xlink:href="#m5822a2a888" x="210.588295" y="131.718516" style="stroke: #000000; stroke-width: 0.7"/>
      </g>
     </g>
     <g id="text_6">
      <!-- 100 -->
      <g transform="translate(203.430483 143.917344) scale(0.075 -0.075)">
       <defs>
        <path id="DejaVuSans-31" d="M 794 531 
L 1825 531 
L 1825 4091 
L 703 3866 
L 703 4441 
L 1819 4666 
L 2450 4666 
L 2450 531 
L 3481 531 
L 3481 0 
L 794 0 
L 794 531 
z
" transform="scale(0.015625)"/>
       </defs>
       <use xlink:href="#DejaVuSans-31"/>
       <use xlink:href="#DejaVuSans-30" transform="translate(63.623047 0)"/>
       <use xlink:href="#DejaVuSans-30" transform="translate(127.246094 0)"/>
      </g>
     </g>
    </g>
    <g id="text_7">
     <!-- Time (ns) -->
     <g transform="translate(108.360742 155.935781) scale(0.085 -0.085)">
      <defs>
       <path id="DejaVuSans-54" d="M -19 4666 
L 3928 4666 
L 3928 4134 
L 2272 4134 
L 2272 0 
L 1638 0 
L 1638 4134 
L -19 4134 
L -19 4666 
z
" transform="scale(0.015625)"/>
       <path id="DejaVuSans-69" d="M 603 3500 
L 1178 3500 
L 1178 0 
L 603 0 
L 603 3500 
z
M 603 4863 
L 1178 4863 
L 1178 4134 
L 603 4134 
L 603 4863 
z
" transform="scale(0.015625)"/>
       <path id="DejaVuSans-6d" d="M 3328 2828 
Q 3544 3216 3844 3400 
Q 4144 3584 4550 3584 
Q 5097 3584 5394 3201 
Q 5691 2819 5691 2113 
L 5691 0 
L 5113 0 
L 5113 2094 
Q 5113 2597 4934 2840 
Q 4756 3084 4391 3084 
Q 3944 3084 3684 2787 
Q 3425 2491 3425 1978 
L 3425 0 
L 2847 0 
L 2847 2094 
Q 2847 2600 2669 2842 
Q 2491 3084 2119 3084 
Q 1678 3084 1418 2786 
Q 1159 2488 1159 1978 
L 1159 0 
L 581 0 
L 581 3500 
L 1159 3500 
L 1159 2956 
Q 1356 3278 1631 3431 
Q 1906 3584 2284 3584 
Q 2666 3584 2933 3390 
Q 3200 3197 3328 2828 
z
" transform="scale(0.015625)"/>
       <path id="DejaVuSans-65" d="M 3597 1894 
L 3597 1613 
L 953 1613 
Q 991 1019 1311 708 
Q 1631 397 2203 397 
Q 2534 397 2845 478 
Q 3156 559 3463 722 
L 3463 178 
Q 3153 47 2828 -22 
Q 2503 -91 2169 -91 
Q 1331 -91 842 396 
Q 353 884 353 1716 
Q 353 2575 817 3079 
Q 1281 3584 2069 3584 
Q 2775 3584 3186 3129 
Q 3597 2675 3597 1894 
z
M 3022 2063 
Q 3016 2534 2758 2815 
Q 2500 3097 2075 3097 
Q 1594 3097 1305 2825 
Q 1016 2553 972 2059 
L 3022 2063 
z
" transform="scale(0.015625)"/>
       <path id="DejaVuSans-20" transform="scale(0.015625)"/>
       <path id="DejaVuSans-28" d="M 1984 4856 
Q 1566 4138 1362 3434 
Q 1159 2731 1159 2009 
Q 1159 1288 1364 580 
Q 1569 -128 1984 -844 
L 1484 -844 
Q 1016 -109 783 600 
Q 550 1309 550 2009 
Q 550 2706 781 3412 
Q 1013 4119 1484 4856 
L 1984 4856 
z
" transform="scale(0.015625)"/>
       <path id="DejaVuSans-6e" d="M 3513 2113 
L 3513 0 
L 2938 0 
L 2938 2094 
Q 2938 2591 2744 2837 
Q 2550 3084 2163 3084 
Q 1697 3084 1428 2787 
Q 1159 2491 1159 1978 
L 1159 0 
L 581 0 
L 581 3500 
L 1159 3500 
L 1159 2956 
Q 1366 3272 1645 3428 
Q 1925 3584 2291 3584 
Q 2894 3584 3203 3211 
Q 3513 2838 3513 2113 
z
" transform="scale(0.015625)"/>
       <path id="DejaVuSans-73" d="M 2834 3397 
L 2834 2853 
Q 2591 2978 2328 3040 
Q 2066 3103 1784 3103 
Q 1356 3103 1142 2972 
Q 928 2841 928 2578 
Q 928 2378 1081 2264 
Q 1234 2150 1697 2047 
L 1894 2003 
Q 2506 1872 2764 1633 
Q 3022 1394 3022 966 
Q 3022 478 2636 193 
Q 2250 -91 1575 -91 
Q 1294 -91 989 -36 
Q 684 19 347 128 
L 347 722 
Q 666 556 975 473 
Q 1284 391 1588 391 
Q 1994 391 2212 530 
Q 2431 669 2431 922 
Q 2431 1156 2273 1281 
Q 2116 1406 1581 1522 
L 1381 1569 
Q 847 1681 609 1914 
Q 372 2147 372 2553 
Q 372 3047 722 3315 
Q 1072 3584 1716 3584 
Q 2034 3584 2315 3537 
Q 2597 3491 2834 3397 
z
" transform="scale(0.015625)"/>
       <path id="DejaVuSans-29" d="M 513 4856 
L 1013 4856 
Q 1481 4119 1714 3412 
Q 1947 2706 1947 2009 
Q 1947 1309 1714 600 
Q 1481 -109 1013 -844 
L 513 -844 
Q 928 -128 1133 580 
Q 1338 1288 1338 2009 
Q 1338 2731 1133 3434 
Q 928 4138 513 4856 
z
" transform="scale(0.015625)"/>
      </defs>
      <use xlink:href="#DejaVuSans-54"/>
      <use xlink:href="#DejaVuSans-69" transform="translate(57.958984 0)"/>
      <use xlink:href="#DejaVuSans-6d" transform="translate(85.742188 0)"/>
      <use xlink:href="#DejaVuSans-65" transform="translate(183.154297 0)"/>
      <use xlink:href="#DejaVuSans-20" transform="translate(244.677734 0)"/>
      <use xlink:href="#DejaVuSans-28" transform="translate(276.464844 0)"/>
      <use xlink:href="#DejaVuSans-6e" transform="translate(315.478516 0)"/>
      <use xlink:href="#DejaVuSans-73" transform="translate(378.857422 0)"/>
      <use xlink:href="#DejaVuSans-29" transform="translate(430.957031 0)"/>
     </g>
    </g>
   </g>
   <g id="matplotlib.axis_2">
    <g id="ytick_1">
     <g id="line2d_7">
      <defs>
       <path id="m5a19385955" d="M 0 0 
L -3 0 
" style="stroke: #000000; stroke-width: 0.7"/>
      </defs>
      <g>
       <use xlink:href="#m5a19385955" x="37.85375" y="126.659425" style="stroke: #000000; stroke-width: 0.7"/>
      </g>
     </g>
     <g id="text_8">
      <!-- 0.0 -->
      <g transform="translate(19.426406 129.508839) scale(0.075 -0.075)">
       <defs>
        <path id="DejaVuSans-2e" d="M 684 794 
L 1344 794 
L 1344 0 
L 684 0 
L 684 794 
z
" transform="scale(0.015625)"/>
       </defs>
       <use xlink:href="#DejaVuSans-30"/>
       <use xlink:href="#DejaVuSans-2e" transform="translate(63.623047 0)"/>
       <use xlink:href="#DejaVuSans-30" transform="translate(95.410156 0)"/>
      </g>
     </g>
    </g>
    <g id="ytick_2">
     <g id="line2d_8">
      <g>
       <use xlink:href="#m5a19385955" x="37.85375" y="109.795788" style="stroke: #000000; stroke-width: 0.7"/>
      </g>
     </g>
     <g id="text_9">
      <!-- 0.5 -->
      <g transform="translate(19.426406 112.645202) scale(0.075 -0.075)">
       <defs>
        <path id="DejaVuSans-35" d="M 691 4666 
L 3169 4666 
L 3169 4134 
L 1269 4134 
L 1269 2991 
Q 1406 3038 1543 3061 
Q 1681 3084 1819 3084 
Q 2600 3084 3056 2656 
Q 3513 2228 3513 1497 
Q 3513 744 3044 326 
Q 2575 -91 1722 -91 
Q 1428 -91 1123 -41 
Q 819 9 494 109 
L 494 744 
Q 775 591 1075 516 
Q 1375 441 1709 441 
Q 2250 441 2565 725 
Q 2881 1009 2881 1497 
Q 2881 1984 2565 2268 
Q 2250 2553 1709 2553 
Q 1456 2553 1204 2497 
Q 953 2441 691 2322 
L 691 4666 
z
" transform="scale(0.015625)"/>
       </defs>
       <use xlink:href="#DejaVuSans-30"/>
       <use xlink:href="#DejaVuSans-2e" transform="translate(63.623047 0)"/>
       <use xlink:href="#DejaVuSans-35" transform="translate(95.410156 0)"/>
      </g>
     </g>
    </g>
    <g id="ytick_3">
     <g id="line2d_9">
      <g>
       <use xlink:href="#m5a19385955" x="37.85375" y="92.932152" style="stroke: #000000; stroke-width: 0.7"/>
      </g>
     </g>
     <g id="text_10">
      <!-- 1.0 -->
      <g transform="translate(19.426406 95.781566) scale(0.075 -0.075)">
       <use xlink:href="#DejaVuSans-31"/>
       <use xlink:href="#DejaVuSans-2e" transform="translate(63.623047 0)"/>
       <use xlink:href="#DejaVuSans-30" transform="translate(95.410156 0)"/>
      </g>
     </g>
    </g>
    <g id="ytick_4">
     <g id="line2d_10">
      <g>
       <use xlink:href="#m5a19385955" x="37.85375" y="76.068516" style="stroke: #000000; stroke-width: 0.7"/>
      </g>
     </g>
     <g id="text_11">
      <!-- 1.5 -->
      <g transform="translate(19.426406 78.91793) scale(0.075 -0.075)">
       <use xlink:href="#DejaVuSans-31"/>
       <use xlink:href="#DejaVuSans-2e" transform="translate(63.623047 0)"/>
       <use xlink:href="#DejaVuSans-35" transform="translate(95.410156 0)"/>
      </g>
     </g>
    </g>
    <g id="ytick_5">
     <g id="line2d_11">
      <g>
       <use xlink:href="#m5a19385955" x="37.85375" y="59.204879" style="stroke: #000000; stroke-width: 0.7"/>
      </g>
     </g>
     <g id="text_12">
      <!-- 2.0 -->
      <g transform="translate(19.426406 62.054293) scale(0.075 -0.075)">
       <use xlink:href="#DejaVuSans-32"/>
       <use xlink:href="#DejaVuSans-2e" transform="translate(63.623047 0)"/>
       <use xlink:href="#DejaVuSans-30" transform="translate(95.410156 0)"/>
      </g>
     </g>
    </g>
    <g id="ytick_6">
     <g id="line2d_12">
      <g>
       <use xlink:href="#m5a19385955" x="37.85375" y="42.341243" style="stroke: #000000; stroke-width: 0.7"/>
      </g>
     </g>
     <g id="text_13">
      <!-- 2.5 -->
      <g transform="translate(19.426406 45.190657) scale(0.075 -0.075)">
       <use xlink:href="#DejaVuSans-32"/>
       <use xlink:href="#DejaVuSans-2e" transform="translate(63.623047 0)"/>
       <use xlink:href="#DejaVuSans-35" transform="translate(95.410156 0)"/>
      </g>
     </g>
    </g>
    <g id="ytick_7">
     <g id="line2d_13">
      <g>
       <use xlink:href="#m5a19385955" x="37.85375" y="25.477607" style="stroke: #000000; stroke-width: 0.7"/>
      </g>
     </g>
     <g id="text_14">
      <!-- 3.0 -->
      <g transform="translate(19.426406 28.327021) scale(0.075 -0.075)">
       <defs>
        <path id="DejaVuSans-33" d="M 2597 2516 
Q 3050 2419 3304 2112 
Q 3559 1806 3559 1356 
Q 3559 666 3084 287 
Q 2609 -91 1734 -91 
Q 1441 -91 1130 -33 
Q 819 25 488 141 
L 488 750 
Q 750 597 1062 519 
Q 1375 441 1716 441 
Q 2309 441 2620 675 
Q 2931 909 2931 1356 
Q 2931 1769 2642 2001 
Q 2353 2234 1838 2234 
L 1294 2234 
L 1294 2753 
L 1863 2753 
Q 2328 2753 2575 2939 
Q 2822 3125 2822 3475 
Q 2822 3834 2567 4026 
Q 2313 4219 1838 4219 
Q 1578 4219 1281 4162 
Q 984 4106 628 3988 
L 628 4550 
Q 988 4650 1302 4700 
Q 1616 4750 1894 4750 
Q 2613 4750 3031 4423 
Q 3450 4097 3450 3541 
Q 3450 3153 3228 2886 
Q 3006 2619 2597 2516 
z
" transform="scale(0.015625)"/>
       </defs>
       <use xlink:href="#DejaVuSans-33"/>
       <use xlink:href="#DejaVuSans-2e" transform="translate(63.623047 0)"/>
       <use xlink:href="#DejaVuSans-30" transform="translate(95.410156 0)"/>
      </g>
     </g>
    </g>
    <g id="text_15">
     <!-- Number of H-bonds -->
     <g transform="translate(13.658672 117.573086) rotate(-90) scale(0.085 -0.085)">
      <defs>
       <path id="DejaVuSans-4e" d="M 628 4666 
L 1478 4666 
L 3547 763 
L 3547 4666 
L 4159 4666 
L 4159 0 
L 3309 0 
L 1241 3903 
L 1241 0 
L 628 0 
L 628 4666 
z
" transform="scale(0.015625)"/>
       <path id="DejaVuSans-75" d="M 544 1381 
L 544 3500 
L 1119 3500 
L 1119 1403 
Q 1119 906 1312 657 
Q 1506 409 1894 409 
Q 2359 409 2629 706 
Q 2900 1003 2900 1516 
L 2900 3500 
L 3475 3500 
L 3475 0 
L 2900 0 
L 2900 538 
Q 2691 219 2414 64 
Q 2138 -91 1772 -91 
Q 1169 -91 856 284 
Q 544 659 544 1381 
z
M 1991 3584 
L 1991 3584 
z
" transform="scale(0.015625)"/>
       <path id="DejaVuSans-62" d="M 3116 1747 
Q 3116 2381 2855 2742 
Q 2594 3103 2138 3103 
Q 1681 3103 1420 2742 
Q 1159 2381 1159 1747 
Q 1159 1113 1420 752 
Q 1681 391 2138 391 
Q 2594 391 2855 752 
Q 3116 1113 3116 1747 
z
M 1159 2969 
Q 1341 3281 1617 3432 
Q 1894 3584 2278 3584 
Q 2916 3584 3314 3078 
Q 3713 2572 3713 1747 
Q 3713 922 3314 415 
Q 2916 -91 2278 -91 
Q 1894 -91 1617 61 
Q 1341 213 1159 525 
L 1159 0 
L 581 0 
L 581 4863 
L 1159 4863 
L 1159 2969 
z
" transform="scale(0.015625)"/>
       <path id="DejaVuSans-72" d="M 2631 2963 
Q 2534 3019 2420 3045 
Q 2306 3072 2169 3072 
Q 1681 3072 1420 2755 
Q 1159 2438 1159 1844 
L 1159 0 
L 581 0 
L 581 3500 
L 1159 3500 
L 1159 2956 
Q 1341 3275 1631 3429 
Q 1922 3584 2338 3584 
Q 2397 3584 2469 3576 
Q 2541 3569 2628 3553 
L 2631 2963 
z
" transform="scale(0.015625)"/>
       <path id="DejaVuSans-6f" d="M 1959 3097 
Q 1497 3097 1228 2736 
Q 959 2375 959 1747 
Q 959 1119 1226 758 
Q 1494 397 1959 397 
Q 2419 397 2687 759 
Q 2956 1122 2956 1747 
Q 2956 2369 2687 2733 
Q 2419 3097 1959 3097 
z
M 1959 3584 
Q 2709 3584 3137 3096 
Q 3566 2609 3566 1747 
Q 3566 888 3137 398 
Q 2709 -91 1959 -91 
Q 1206 -91 779 398 
Q 353 888 353 1747 
Q 353 2609 779 3096 
Q 1206 3584 1959 3584 
z
" transform="scale(0.015625)"/>
       <path id="DejaVuSans-66" d="M 2375 4863 
L 2375 4384 
L 1825 4384 
Q 1516 4384 1395 4259 
Q 1275 4134 1275 3809 
L 1275 3500 
L 2222 3500 
L 2222 3053 
L 1275 3053 
L 1275 0 
L 697 0 
L 697 3053 
L 147 3053 
L 147 3500 
L 697 3500 
L 697 3744 
Q 697 4328 969 4595 
Q 1241 4863 1831 4863 
L 2375 4863 
z
" transform="scale(0.015625)"/>
       <path id="DejaVuSans-48" d="M 628 4666 
L 1259 4666 
L 1259 2753 
L 3553 2753 
L 3553 4666 
L 4184 4666 
L 4184 0 
L 3553 0 
L 3553 2222 
L 1259 2222 
L 1259 0 
L 628 0 
L 628 4666 
z
" transform="scale(0.015625)"/>
       <path id="DejaVuSans-2d" d="M 313 2009 
L 1997 2009 
L 1997 1497 
L 313 1497 
L 313 2009 
z
" transform="scale(0.015625)"/>
       <path id="DejaVuSans-64" d="M 2906 2969 
L 2906 4863 
L 3481 4863 
L 3481 0 
L 2906 0 
L 2906 525 
Q 2725 213 2448 61 
Q 2172 -91 1784 -91 
Q 1150 -91 751 415 
Q 353 922 353 1747 
Q 353 2572 751 3078 
Q 1150 3584 1784 3584 
Q 2172 3584 2448 3432 
Q 2725 3281 2906 2969 
z
M 947 1747 
Q 947 1113 1208 752 
Q 1469 391 1925 391 
Q 2381 391 2643 752 
Q 2906 1113 2906 1747 
Q 2906 2381 2643 2742 
Q 2381 3103 1925 3103 
Q 1469 3103 1208 2742 
Q 947 2381 947 1747 
z
" transform="scale(0.015625)"/>
      </defs>
      <use xlink:href="#DejaVuSans-4e"/>
      <use xlink:href="#DejaVuSans-75" transform="translate(74.804688 0)"/>
      <use xlink:href="#DejaVuSans-6d" transform="translate(138.183594 0)"/>
      <use xlink:href="#DejaVuSans-62" transform="translate(235.595703 0)"/>
      <use xlink:href="#DejaVuSans-65" transform="translate(299.072266 0)"/>
      <use xlink:href="#DejaVuSans-72" transform="translate(360.595703 0)"/>
      <use xlink:href="#DejaVuSans-20" transform="translate(401.708984 0)"/>
      <use xlink:href="#DejaVuSans-6f" transform="translate(433.496094 0)"/>
      <use xlink:href="#DejaVuSans-66" transform="translate(494.677734 0)"/>
      <use xlink:href="#DejaVuSans-20" transform="translate(529.882812 0)"/>
      <use xlink:href="#DejaVuSans-48" transform="translate(561.669922 0)"/>
      <use xlink:href="#DejaVuSans-2d" transform="translate(636.865234 0)"/>
      <use xlink:href="#DejaVuSans-62" transform="translate(672.949219 0)"/>
      <use xlink:href="#DejaVuSans-6f" transform="translate(736.425781 0)"/>
      <use xlink:href="#DejaVuSans-6e" transform="translate(797.607422 0)"/>
      <use xlink:href="#DejaVuSans-64" transform="translate(860.986328 0)"/>
      <use xlink:href="#DejaVuSans-73" transform="translate(924.462891 0)"/>
     </g>
    </g>
   </g>
   <g id="line2d_14">
    <path d="M 46.079205 126.659425 
L 46.112106 126.659425 
L 46.128557 92.932152 
L 46.210812 126.659425 
L 46.293066 126.659425 
L 46.309517 92.932152 
L 46.391772 126.659425 
L 46.424674 126.659425 
L 46.490477 92.932152 
L 46.523379 126.659425 
L 46.556281 126.659425 
L 46.605634 92.932152 
L 46.654986 126.659425 
L 46.671437 126.659425 
L 46.737241 92.932152 
L 46.770143 126.659425 
L 46.852397 126.659425 
L 46.90175 92.932152 
L 46.951103 126.659425 
L 46.967554 126.659425 
L 47.033357 92.932152 
L 47.066259 126.659425 
L 47.411728 126.659425 
L 47.526885 92.932152 
L 47.642041 126.659425 
L 47.971059 126.659425 
L 48.053314 92.932152 
L 48.069765 126.659425 
L 48.102666 126.659425 
L 48.119117 92.932152 
L 48.201372 126.659425 
L 48.250725 126.659425 
L 48.267175 92.932152 
L 48.34943 126.659425 
L 48.612645 126.659425 
L 48.694899 92.932152 
L 48.71135 126.659425 
L 48.793605 126.659425 
L 48.908761 92.932152 
L 48.941663 92.932152 
L 48.958114 59.204879 
L 48.974565 126.659425 
L 49.023917 126.659425 
L 49.040368 126.659425 
L 49.155525 92.932152 
L 49.188426 92.932152 
L 49.237779 126.659425 
L 49.303583 59.204879 
L 49.320034 59.204879 
L 49.451641 126.659425 
L 49.550346 92.932152 
L 49.649052 126.659425 
L 49.731306 92.932152 
L 49.747757 126.659425 
L 49.780659 126.659425 
L 49.879365 92.932152 
L 49.994521 126.659425 
L 50.685459 126.659425 
L 50.718361 92.932152 
L 50.784165 126.659425 
L 50.866419 126.659425 
L 50.981575 92.932152 
L 51.014477 92.932152 
L 51.096732 126.659425 
L 51.113183 92.932152 
L 51.178986 92.932152 
L 51.294143 126.659425 
L 51.392848 92.932152 
L 51.458652 126.659425 
L 51.491554 92.932152 
L 51.540906 92.932152 
L 51.656063 126.659425 
L 51.754768 126.659425 
L 51.771219 92.932152 
L 51.853474 126.659425 
L 52.379903 126.659425 
L 52.495059 92.932152 
L 52.51151 92.932152 
L 52.626666 126.659425 
L 52.774725 126.659425 
L 52.889881 92.932152 
L 53.005037 126.659425 
L 53.136645 126.659425 
L 53.202448 59.204879 
L 53.23535 126.659425 
L 53.301154 126.659425 
L 53.317605 92.932152 
L 53.399859 126.659425 
L 53.679525 126.659425 
L 53.712426 92.932152 
L 53.77823 126.659425 
L 54.222405 126.659425 
L 54.288208 92.932152 
L 54.32111 126.659425 
L 54.518521 126.659425 
L 54.633677 92.932152 
L 54.650128 92.932152 
L 54.765285 126.659425 
L 54.929794 126.659425 
L 54.995597 92.932152 
L 55.028499 126.659425 
L 55.324615 126.659425 
L 55.341066 92.932152 
L 55.423321 126.659425 
L 55.456223 126.659425 
L 55.489125 92.932152 
L 55.554928 126.659425 
L 55.58783 126.659425 
L 55.653634 92.932152 
L 55.686535 126.659425 
L 55.752339 126.659425 
L 55.818143 92.932152 
L 55.851045 126.659425 
L 55.94975 126.659425 
L 55.999103 92.932152 
L 56.048455 126.659425 
L 56.196514 126.659425 
L 56.212965 92.932152 
L 56.295219 126.659425 
L 56.541983 126.659425 
L 56.558434 92.932152 
L 56.640688 126.659425 
L 56.871001 126.659425 
L 56.887452 92.932152 
L 56.969706 126.659425 
L 57.463234 126.659425 
L 57.57839 92.932152 
L 57.594841 92.932152 
L 57.709997 126.659425 
L 57.726448 92.932152 
L 57.808703 126.659425 
L 58.532543 126.659425 
L 58.548994 92.932152 
L 58.631248 126.659425 
L 58.927365 126.659425 
L 58.943815 92.932152 
L 59.02607 126.659425 
L 59.20703 126.659425 
L 59.289285 92.932152 
L 59.305735 126.659425 
L 59.371539 126.659425 
L 59.486695 92.932152 
L 59.601852 126.659425 
L 59.618303 126.659425 
L 59.651205 92.932152 
L 59.717008 126.659425 
L 59.848615 126.659425 
L 59.963772 92.932152 
L 60.078928 126.659425 
L 60.194085 126.659425 
L 60.210535 92.932152 
L 60.29279 126.659425 
L 60.506652 126.659425 
L 60.605357 92.932152 
L 60.720514 126.659425 
L 60.819219 92.932152 
L 60.901474 126.659425 
L 60.917925 92.932152 
L 60.967277 92.932152 
L 61.049532 126.659425 
L 61.065983 92.932152 
L 61.148237 92.932152 
L 61.263394 126.659425 
L 61.37855 92.932152 
L 61.460805 92.932152 
L 61.477255 126.659425 
L 61.55951 92.932152 
L 61.625314 92.932152 
L 61.74047 126.659425 
L 61.839175 92.932152 
L 61.937881 126.659425 
L 62.053037 92.932152 
L 62.085939 92.932152 
L 62.168194 126.659425 
L 62.184645 92.932152 
L 62.414957 92.932152 
L 62.530114 126.659425 
L 62.612368 92.932152 
L 62.628819 126.659425 
L 62.64527 126.659425 
L 62.743975 92.932152 
L 62.82623 126.659425 
L 62.842681 92.932152 
L 62.875583 92.932152 
L 62.990739 126.659425 
L 63.089445 92.932152 
L 63.105895 126.659425 
L 63.18815 92.932152 
L 63.237503 92.932152 
L 63.286855 126.659425 
L 63.336208 92.932152 
L 63.352659 92.932152 
L 63.467815 126.659425 
L 63.55007 92.932152 
L 63.566521 126.659425 
L 64.899045 126.659425 
L 65.014201 92.932152 
L 65.145808 92.932152 
L 65.17871 126.659425 
L 65.244514 92.932152 
L 65.310317 92.932152 
L 65.35967 126.659425 
L 65.409023 92.932152 
L 65.425474 92.932152 
L 65.441925 59.204879 
L 65.524179 92.932152 
L 65.968354 92.932152 
L 66.050608 126.659425 
L 66.067059 92.932152 
L 66.215117 92.932152 
L 66.231568 126.659425 
L 66.313823 92.932152 
L 66.363175 92.932152 
L 66.478332 126.659425 
L 66.593488 92.932152 
L 66.725095 92.932152 
L 66.823801 126.659425 
L 66.938957 92.932152 
L 66.971859 92.932152 
L 67.021212 126.659425 
L 67.070565 92.932152 
L 67.119917 92.932152 
L 67.16927 126.659425 
L 67.218623 92.932152 
L 67.251525 92.932152 
L 67.267975 126.659425 
L 67.35023 92.932152 
L 67.366681 92.932152 
L 67.448935 126.659425 
L 67.465386 92.932152 
L 67.481837 92.932152 
L 67.498288 126.659425 
L 67.580543 92.932152 
L 67.613445 92.932152 
L 67.695699 126.659425 
L 67.71215 92.932152 
L 67.777954 92.932152 
L 67.843757 126.659425 
L 67.876659 92.932152 
L 68.106972 92.932152 
L 68.123423 126.659425 
L 68.205677 92.932152 
L 68.238579 92.932152 
L 68.25503 126.659425 
L 68.337285 92.932152 
L 68.386637 92.932152 
L 68.485343 126.659425 
L 68.584048 92.932152 
L 68.600499 126.659425 
L 68.682754 92.932152 
L 69.176281 92.932152 
L 69.192732 126.659425 
L 69.274986 92.932152 
L 69.686259 92.932152 
L 69.735612 126.659425 
L 69.784965 92.932152 
L 69.982375 92.932152 
L 69.998826 126.659425 
L 70.081081 92.932152 
L 70.146885 92.932152 
L 70.262041 126.659425 
L 70.377197 92.932152 
L 70.475903 92.932152 
L 70.591059 126.659425 
L 70.706215 92.932152 
L 70.755568 92.932152 
L 70.854274 126.659425 
L 70.96943 92.932152 
L 71.232645 92.932152 
L 71.298448 126.659425 
L 71.33135 92.932152 
L 71.347801 92.932152 
L 71.397154 126.659425 
L 71.446506 92.932152 
L 71.643917 92.932152 
L 71.709721 126.659425 
L 71.742623 92.932152 
L 71.791975 92.932152 
L 71.808426 126.659425 
L 71.890681 92.932152 
L 72.137445 92.932152 
L 72.186797 126.659425 
L 72.23615 92.932152 
L 72.499365 92.932152 
L 72.515815 126.659425 
L 72.59807 92.932152 
L 72.762579 92.932152 
L 72.828383 126.659425 
L 72.861285 92.932152 
L 72.95999 92.932152 
L 73.058695 126.659425 
L 73.173852 92.932152 
L 73.190303 92.932152 
L 73.272557 126.659425 
L 73.289008 92.932152 
L 73.700281 92.932152 
L 73.798986 126.659425 
L 73.914143 92.932152 
L 73.996397 126.659425 
L 74.012848 92.932152 
L 74.193808 92.932152 
L 74.308965 126.659425 
L 74.424121 92.932152 
L 74.489925 92.932152 
L 74.506375 126.659425 
L 74.58863 92.932152 
L 74.703786 92.932152 
L 74.786041 126.659425 
L 74.802492 92.932152 
L 74.868295 92.932152 
L 74.95055 126.659425 
L 74.967001 92.932152 
L 74.983452 92.932152 
L 74.999903 126.659425 
L 75.082157 92.932152 
L 75.164412 92.932152 
L 75.180863 126.659425 
L 75.263117 92.932152 
L 75.279568 92.932152 
L 75.394725 126.659425 
L 75.411175 126.659425 
L 75.526332 92.932152 
L 75.608586 92.932152 
L 75.657939 59.204879 
L 75.707292 92.932152 
L 75.805997 126.659425 
L 75.921154 92.932152 
L 75.986957 92.932152 
L 76.102114 126.659425 
L 76.21727 92.932152 
L 76.562739 92.932152 
L 76.595641 126.659425 
L 76.661445 92.932152 
L 76.76015 92.932152 
L 76.875306 126.659425 
L 76.891757 126.659425 
L 77.006914 92.932152 
L 77.105619 92.932152 
L 77.204325 126.659425 
L 77.319481 92.932152 
L 77.352383 92.932152 
L 77.451088 126.659425 
L 77.566245 92.932152 
L 77.681401 92.932152 
L 77.697852 126.659425 
L 77.780106 92.932152 
L 77.862361 92.932152 
L 77.928165 126.659425 
L 77.961066 92.932152 
L 77.977517 92.932152 
L 78.059772 126.659425 
L 78.076223 92.932152 
L 78.20783 92.932152 
L 78.290085 126.659425 
L 78.306535 92.932152 
L 78.38879 92.932152 
L 78.405241 126.659425 
L 78.487495 92.932152 
L 78.503946 92.932152 
L 78.520397 126.659425 
L 78.586201 59.204879 
L 78.602652 92.932152 
L 78.635554 92.932152 
L 78.701357 126.659425 
L 78.734259 92.932152 
L 78.915219 92.932152 
L 79.013925 126.659425 
L 79.11263 92.932152 
L 79.129081 126.659425 
L 79.211335 92.932152 
L 79.29359 92.932152 
L 79.375845 126.659425 
L 79.392295 92.932152 
L 79.639059 92.932152 
L 79.65551 126.659425 
L 79.737765 92.932152 
L 79.770666 92.932152 
L 79.787117 126.659425 
L 79.869372 92.932152 
L 79.918725 92.932152 
L 80.01743 126.659425 
L 80.132586 92.932152 
L 80.757721 92.932152 
L 80.774172 126.659425 
L 80.856426 92.932152 
L 80.938681 92.932152 
L 80.955132 126.659425 
L 81.037386 92.932152 
L 81.185445 92.932152 
L 81.234797 126.659425 
L 81.28415 92.932152 
L 81.317052 92.932152 
L 81.333503 126.659425 
L 81.349954 59.204879 
L 81.415757 92.932152 
L 81.46511 92.932152 
L 81.530914 126.659425 
L 81.563815 92.932152 
L 81.613168 92.932152 
L 81.695423 126.659425 
L 81.711874 92.932152 
L 81.794128 92.932152 
L 81.909285 126.659425 
L 82.024441 92.932152 
L 82.090245 126.659425 
L 82.123146 92.932152 
L 82.172499 92.932152 
L 82.221852 126.659425 
L 82.271205 92.932152 
L 82.485066 92.932152 
L 82.567321 126.659425 
L 82.583772 92.932152 
L 82.649575 92.932152 
L 82.666026 126.659425 
L 82.748281 92.932152 
L 82.764732 92.932152 
L 82.781183 126.659425 
L 82.863437 92.932152 
L 83.143103 92.932152 
L 83.241808 126.659425 
L 83.356965 92.932152 
L 83.406317 92.932152 
L 83.521474 126.659425 
L 83.554375 126.659425 
L 83.653081 92.932152 
L 83.669532 126.659425 
L 83.751786 92.932152 
L 83.81759 92.932152 
L 83.866943 126.659425 
L 83.916295 92.932152 
L 83.949197 92.932152 
L 83.982099 126.659425 
L 84.047903 92.932152 
L 84.080805 92.932152 
L 84.097255 126.659425 
L 84.17951 92.932152 
L 84.344019 92.932152 
L 84.459175 126.659425 
L 84.574332 92.932152 
L 84.590783 126.659425 
L 84.673037 92.932152 
L 84.821095 92.932152 
L 84.837546 126.659425 
L 84.919801 92.932152 
L 85.166565 92.932152 
L 85.232368 126.659425 
L 85.26527 92.932152 
L 85.281721 92.932152 
L 85.298172 126.659425 
L 85.380426 92.932152 
L 85.495583 92.932152 
L 85.610739 126.659425 
L 85.62719 126.659425 
L 85.725895 92.932152 
L 85.841052 126.659425 
L 85.956208 92.932152 
L 85.98911 92.932152 
L 86.071365 126.659425 
L 86.087815 92.932152 
L 86.137168 92.932152 
L 86.202972 126.659425 
L 86.235874 92.932152 
L 86.482637 92.932152 
L 86.53199 126.659425 
L 86.564892 92.932152 
L 86.581343 59.204879 
L 86.647146 92.932152 
L 86.729401 126.659425 
L 86.745852 92.932152 
L 86.811655 92.932152 
L 86.910361 126.659425 
L 87.009066 92.932152 
L 87.025517 126.659425 
L 87.107772 92.932152 
L 87.140674 92.932152 
L 87.157125 126.659425 
L 87.239379 92.932152 
L 87.288732 92.932152 
L 87.338085 126.659425 
L 87.387437 92.932152 
L 87.403888 92.932152 
L 87.469692 126.659425 
L 87.502594 92.932152 
L 87.568397 92.932152 
L 87.634201 126.659425 
L 87.667103 92.932152 
L 87.765808 92.932152 
L 87.782259 126.659425 
L 87.864514 92.932152 
L 87.880965 92.932152 
L 87.996121 126.659425 
L 88.111277 92.932152 
L 88.539001 92.932152 
L 88.555452 126.659425 
L 88.637706 92.932152 
L 88.983175 92.932152 
L 89.06543 126.659425 
L 89.081881 92.932152 
L 89.312194 92.932152 
L 89.328645 126.659425 
L 89.410899 92.932152 
L 89.42735 92.932152 
L 89.460252 126.659425 
L 89.526055 92.932152 
L 89.591859 92.932152 
L 89.657663 126.659425 
L 89.690565 92.932152 
L 89.756368 92.932152 
L 89.838623 126.659425 
L 89.855074 92.932152 
L 89.953779 92.932152 
L 90.068935 126.659425 
L 90.184092 92.932152 
L 90.216994 92.932152 
L 90.315699 126.659425 
L 90.430855 92.932152 
L 90.529561 92.932152 
L 90.628266 126.659425 
L 90.743423 92.932152 
L 90.924383 92.932152 
L 90.940834 126.659425 
L 91.023088 92.932152 
L 91.039539 92.932152 
L 91.154695 126.659425 
L 91.269852 92.932152 
L 91.302754 92.932152 
L 91.41791 126.659425 
L 91.467263 126.659425 
L 91.582419 92.932152 
L 91.631772 92.932152 
L 91.648223 126.659425 
L 91.730477 92.932152 
L 91.746928 92.932152 
L 91.862085 126.659425 
L 91.977241 92.932152 
L 92.010143 92.932152 
L 92.059495 126.659425 
L 92.108848 92.932152 
L 92.191103 92.932152 
L 92.273357 126.659425 
L 92.289808 92.932152 
L 92.388514 92.932152 
L 92.421415 126.659425 
L 92.487219 92.932152 
L 92.50367 92.932152 
L 92.520121 126.659425 
L 92.602375 92.932152 
L 92.701081 92.932152 
L 92.717532 126.659425 
L 92.799786 92.932152 
L 92.849139 92.932152 
L 92.964295 126.659425 
L 93.145255 126.659425 
L 93.260412 92.932152 
L 93.276863 92.932152 
L 93.392019 126.659425 
L 93.901997 126.659425 
L 94.017154 92.932152 
L 94.050055 92.932152 
L 94.13231 126.659425 
L 94.148761 92.932152 
L 94.214565 92.932152 
L 94.296819 126.659425 
L 94.31327 92.932152 
L 94.461328 92.932152 
L 94.560034 126.659425 
L 94.67519 92.932152 
L 94.839699 92.932152 
L 94.872601 126.659425 
L 94.938405 92.932152 
L 95.020659 92.932152 
L 95.03711 126.659425 
L 95.119365 92.932152 
L 95.547088 92.932152 
L 95.563539 126.659425 
L 95.645794 92.932152 
L 95.876106 92.932152 
L 95.974812 126.659425 
L 96.089968 92.932152 
L 96.155772 92.932152 
L 96.254477 126.659425 
L 96.369634 92.932152 
L 96.451888 92.932152 
L 96.517692 126.659425 
L 96.550594 92.932152 
L 96.715103 92.932152 
L 96.780906 126.659425 
L 96.813808 92.932152 
L 96.896063 92.932152 
L 96.961866 126.659425 
L 96.994768 92.932152 
L 97.011219 92.932152 
L 97.02767 126.659425 
L 97.109925 92.932152 
L 97.257983 92.932152 
L 97.373139 126.659425 
L 97.488295 92.932152 
L 97.504746 126.659425 
L 97.587001 92.932152 
L 97.652805 92.932152 
L 97.685706 126.659425 
L 97.75151 92.932152 
L 97.833765 92.932152 
L 97.93247 126.659425 
L 98.047626 92.932152 
L 98.129881 92.932152 
L 98.162783 126.659425 
L 98.228586 92.932152 
L 98.261488 92.932152 
L 98.343743 126.659425 
L 98.360194 92.932152 
L 98.442448 92.932152 
L 98.458899 126.659425 
L 98.541154 92.932152 
L 98.557605 92.932152 
L 98.672761 126.659425 
L 98.787917 92.932152 
L 98.804368 92.932152 
L 98.903074 126.659425 
L 99.01823 92.932152 
L 99.051132 92.932152 
L 99.166288 126.659425 
L 99.182739 126.659425 
L 99.297895 92.932152 
L 99.396601 126.659425 
L 99.495306 92.932152 
L 99.528208 126.659425 
L 99.594012 92.932152 
L 99.610463 92.932152 
L 99.725619 126.659425 
L 99.758521 126.659425 
L 99.890128 59.204879 
L 100.021735 126.659425 
L 100.367205 126.659425 
L 100.383655 92.932152 
L 100.46591 126.659425 
L 100.515263 126.659425 
L 100.531714 92.932152 
L 100.613968 126.659425 
L 100.910085 126.659425 
L 101.00879 92.932152 
L 101.123946 126.659425 
L 101.156848 126.659425 
L 101.222652 92.932152 
L 101.255554 126.659425 
L 101.272005 126.659425 
L 101.387161 92.932152 
L 101.502317 126.659425 
L 101.518768 126.659425 
L 101.584572 92.932152 
L 101.617474 126.659425 
L 101.633925 126.659425 
L 101.716179 92.932152 
L 101.73263 126.659425 
L 101.765532 126.659425 
L 101.847786 92.932152 
L 101.864237 126.659425 
L 101.91359 126.659425 
L 101.995845 92.932152 
L 102.012295 126.659425 
L 102.045197 126.659425 
L 102.143903 92.932152 
L 102.259059 126.659425 
L 102.423568 126.659425 
L 102.45647 92.932152 
L 102.522274 126.659425 
L 102.555175 126.659425 
L 102.571626 92.932152 
L 102.653881 126.659425 
L 102.686783 126.659425 
L 102.703234 92.932152 
L 102.785488 126.659425 
L 102.933546 126.659425 
L 103.048703 92.932152 
L 103.065154 92.932152 
L 103.114506 126.659425 
L 103.163859 92.932152 
L 103.213212 92.932152 
L 103.279015 126.659425 
L 103.311917 92.932152 
L 103.328368 59.204879 
L 103.344819 126.659425 
L 103.410623 92.932152 
L 103.427074 92.932152 
L 103.54223 126.659425 
L 103.558681 126.659425 
L 103.690288 59.204879 
L 103.72319 59.204879 
L 103.739641 126.659425 
L 103.821895 59.204879 
L 103.854797 59.204879 
L 103.871248 92.932152 
L 103.953503 59.204879 
L 104.002855 59.204879 
L 104.118012 126.659425 
L 104.233168 59.204879 
L 104.249619 92.932152 
L 104.315423 59.204879 
L 104.331874 25.477607 
L 104.348325 126.659425 
L 104.397677 92.932152 
L 104.414128 92.932152 
L 104.430579 126.659425 
L 104.44703 59.204879 
L 104.512834 92.932152 
L 104.545735 92.932152 
L 104.660892 59.204879 
L 104.726695 59.204879 
L 104.80895 92.932152 
L 104.825401 59.204879 
L 104.841852 59.204879 
L 104.858303 126.659425 
L 104.957008 92.932152 
L 105.072165 59.204879 
L 105.088615 126.659425 
L 105.187321 92.932152 
L 105.236674 92.932152 
L 105.35183 59.204879 
L 105.368281 59.204879 
L 105.417634 126.659425 
L 105.466986 92.932152 
L 105.499888 59.204879 
L 105.516339 126.659425 
L 105.565692 92.932152 
L 105.582143 92.932152 
L 105.598594 59.204879 
L 105.647946 126.659425 
L 105.680848 92.932152 
L 105.730201 92.932152 
L 105.812455 126.659425 
L 105.779554 59.204879 
L 105.828906 92.932152 
L 105.861808 92.932152 
L 105.960514 59.204879 
L 106.042768 126.659425 
L 106.059219 92.932152 
L 106.174375 59.204879 
L 106.240179 92.932152 
L 106.273081 59.204879 
L 106.289532 59.204879 
L 106.404688 126.659425 
L 106.470492 59.204879 
L 106.519845 92.932152 
L 106.536295 92.932152 
L 106.585648 126.659425 
L 106.635001 92.932152 
L 106.651452 59.204879 
L 106.667903 126.659425 
L 106.733706 92.932152 
L 106.79951 59.204879 
L 106.832412 126.659425 
L 106.914666 59.204879 
L 106.947568 92.932152 
L 106.964019 92.932152 
L 106.996921 59.204879 
L 107.046274 126.659425 
L 107.062725 92.932152 
L 107.079175 92.932152 
L 107.177881 126.659425 
L 107.293037 92.932152 
L 107.309488 92.932152 
L 107.391743 126.659425 
L 107.408194 92.932152 
L 107.424645 92.932152 
L 107.457546 59.204879 
L 107.539801 126.659425 
L 107.622055 92.932152 
L 107.638506 126.659425 
L 107.654957 126.659425 
L 107.753663 92.932152 
L 107.835917 126.659425 
L 107.852368 59.204879 
L 107.934623 126.659425 
L 108.016877 126.659425 
L 108.099132 92.932152 
L 108.115583 126.659425 
L 108.148485 126.659425 
L 108.164935 92.932152 
L 108.24719 126.659425 
L 108.296543 126.659425 
L 108.345895 92.932152 
L 108.395248 126.659425 
L 108.411699 126.659425 
L 108.526855 92.932152 
L 108.576208 126.659425 
L 108.625561 92.932152 
L 108.642012 92.932152 
L 108.691365 126.659425 
L 108.740717 92.932152 
L 108.773619 92.932152 
L 108.79007 126.659425 
L 108.872325 92.932152 
L 108.921677 92.932152 
L 109.020383 126.659425 
L 109.119088 92.932152 
L 109.234245 126.659425 
L 109.481008 126.659425 
L 109.497459 92.932152 
L 109.579714 126.659425 
L 109.744223 126.659425 
L 109.859379 92.932152 
L 109.925183 92.932152 
L 109.941634 126.659425 
L 110.023888 92.932152 
L 110.040339 92.932152 
L 110.155495 126.659425 
L 110.171946 126.659425 
L 110.287103 92.932152 
L 110.320005 92.932152 
L 110.336455 126.659425 
L 110.41871 92.932152 
L 110.451612 92.932152 
L 110.517415 126.659425 
L 110.550317 92.932152 
L 110.566768 92.932152 
L 110.681925 126.659425 
L 110.698375 126.659425 
L 110.813532 92.932152 
L 110.895786 92.932152 
L 110.912237 126.659425 
L 110.994492 92.932152 
L 111.010943 92.932152 
L 111.126099 126.659425 
L 111.14255 126.659425 
L 111.257706 92.932152 
L 111.290608 92.932152 
L 111.372863 126.659425 
L 111.389314 92.932152 
L 111.422215 92.932152 
L 111.471568 126.659425 
L 111.520921 92.932152 
L 111.537372 92.932152 
L 111.636077 126.659425 
L 111.734783 92.932152 
L 111.817037 126.659425 
L 111.833488 92.932152 
L 111.849939 92.932152 
L 111.932194 126.659425 
L 111.948645 92.932152 
L 111.965095 92.932152 
L 112.04735 126.659425 
L 112.129605 59.204879 
L 112.162506 92.932152 
L 112.178957 92.932152 
L 112.294114 126.659425 
L 112.327015 126.659425 
L 112.392819 59.204879 
L 112.442172 92.932152 
L 112.656034 92.932152 
L 112.721837 126.659425 
L 112.754739 92.932152 
L 112.968601 92.932152 
L 112.985052 126.659425 
L 113.067306 92.932152 
L 113.264717 92.932152 
L 113.281168 126.659425 
L 113.363423 92.932152 
L 113.412775 92.932152 
L 113.462128 126.659425 
L 113.511481 92.932152 
L 113.527932 92.932152 
L 113.643088 126.659425 
L 113.741794 92.932152 
L 113.758245 126.659425 
L 113.840499 92.932152 
L 113.889852 92.932152 
L 113.906303 126.659425 
L 113.988557 92.932152 
L 114.021459 92.932152 
L 114.120165 126.659425 
L 114.21887 92.932152 
L 114.317575 126.659425 
L 114.416281 92.932152 
L 114.498535 126.659425 
L 114.514986 92.932152 
L 114.531437 92.932152 
L 114.547888 126.659425 
L 114.630143 92.932152 
L 114.663045 92.932152 
L 114.695946 126.659425 
L 114.76175 92.932152 
L 115.057866 92.932152 
L 115.074317 126.659425 
L 115.156572 92.932152 
L 115.173023 92.932152 
L 115.238826 126.659425 
L 115.271728 92.932152 
L 115.288179 92.932152 
L 115.30463 126.659425 
L 115.386885 92.932152 
L 115.436237 92.932152 
L 115.48559 126.659425 
L 115.534943 92.932152 
L 115.584295 92.932152 
L 115.683001 126.659425 
L 115.781706 92.932152 
L 115.798157 126.659425 
L 115.880412 92.932152 
L 115.946215 92.932152 
L 116.061372 126.659425 
L 116.077823 126.659425 
L 116.160077 92.932152 
L 116.176528 126.659425 
L 116.192979 126.659425 
L 116.291685 92.932152 
L 116.324586 126.659425 
L 116.39039 92.932152 
L 116.439743 92.932152 
L 116.521997 126.659425 
L 116.538448 92.932152 
L 116.620703 92.932152 
L 116.702957 126.659425 
L 116.719408 92.932152 
L 117.015525 92.932152 
L 117.048426 126.659425 
L 117.11423 92.932152 
L 117.196485 92.932152 
L 117.229386 126.659425 
L 117.29519 92.932152 
L 117.311641 59.204879 
L 117.377445 126.659425 
L 117.393895 92.932152 
L 117.426797 92.932152 
L 117.443248 126.659425 
L 117.525503 92.932152 
L 117.558405 92.932152 
L 117.607757 126.659425 
L 117.65711 92.932152 
L 117.706463 92.932152 
L 117.722914 126.659425 
L 117.805168 92.932152 
L 117.821619 92.932152 
L 117.936775 126.659425 
L 117.953226 126.659425 
L 118.068383 92.932152 
L 118.150637 92.932152 
L 118.216441 126.659425 
L 118.249343 92.932152 
L 118.315146 92.932152 
L 118.430303 126.659425 
L 118.545459 92.932152 
L 118.611263 92.932152 
L 118.726419 126.659425 
L 118.759321 126.659425 
L 118.874477 92.932152 
L 119.154143 92.932152 
L 119.170594 126.659425 
L 119.252848 92.932152 
L 119.28575 92.932152 
L 119.384455 126.659425 
L 119.499612 92.932152 
L 119.581866 126.659425 
L 119.598317 92.932152 
L 119.713474 92.932152 
L 119.812179 126.659425 
L 119.927335 92.932152 
L 120.091845 92.932152 
L 120.108295 126.659425 
L 120.19055 92.932152 
L 120.322157 92.932152 
L 120.387961 126.659425 
L 120.420863 92.932152 
L 120.684077 92.932152 
L 120.73343 126.659425 
L 120.782783 92.932152 
L 120.799234 92.932152 
L 120.848586 126.659425 
L 120.897939 92.932152 
L 120.947292 92.932152 
L 121.013095 126.659425 
L 121.045997 92.932152 
L 121.062448 92.932152 
L 121.111801 126.659425 
L 121.161154 92.932152 
L 121.358565 92.932152 
L 121.424368 126.659425 
L 121.45727 92.932152 
L 121.539525 92.932152 
L 121.654681 126.659425 
L 121.769837 92.932152 
L 121.835641 126.659425 
L 121.868543 92.932152 
L 122.00015 92.932152 
L 122.033052 59.204879 
L 122.082405 92.932152 
L 122.197561 126.659425 
L 122.296266 92.932152 
L 122.394972 126.659425 
L 122.510128 92.932152 
L 122.592383 126.659425 
L 122.608834 92.932152 
L 122.740441 92.932152 
L 122.839146 126.659425 
L 122.855597 92.932152 
L 122.937852 126.659425 
L 123.118812 126.659425 
L 123.135263 92.932152 
L 123.217517 126.659425 
L 123.349125 126.659425 
L 123.464281 92.932152 
L 123.579437 126.659425 
L 123.694594 126.659425 
L 123.776848 59.204879 
L 123.80975 92.932152 
L 123.826201 92.932152 
L 123.842652 59.204879 
L 123.875554 126.659425 
L 123.924906 92.932152 
L 123.941357 126.659425 
L 124.023612 92.932152 
L 124.040063 92.932152 
L 124.072965 59.204879 
L 124.138768 92.932152 
L 124.155219 92.932152 
L 124.270375 126.659425 
L 124.418434 126.659425 
L 124.434885 92.932152 
L 124.517139 126.659425 
L 124.698099 126.659425 
L 124.813255 92.932152 
L 124.928412 126.659425 
L 124.977765 126.659425 
L 125.060019 92.932152 
L 125.07647 126.659425 
L 125.109372 126.659425 
L 125.224528 92.932152 
L 125.240979 92.932152 
L 125.323234 126.659425 
L 125.339685 92.932152 
L 125.372586 92.932152 
L 125.487743 126.659425 
L 125.520645 59.204879 
L 125.586448 126.659425 
L 125.767408 126.659425 
L 125.783859 92.932152 
L 125.866114 126.659425 
L 126.145779 126.659425 
L 126.260935 92.932152 
L 126.376092 126.659425 
L 126.408994 126.659425 
L 126.425445 92.932152 
L 126.507699 126.659425 
L 127.017677 126.659425 
L 127.132834 92.932152 
L 127.24799 126.659425 
L 127.379597 126.659425 
L 127.511205 59.204879 
L 127.527655 59.204879 
L 127.659263 126.659425 
L 127.79087 59.204879 
L 127.807321 126.659425 
L 127.873125 25.477607 
L 127.889575 59.204879 
L 127.955379 25.477607 
L 127.988281 59.204879 
L 128.021183 59.204879 
L 128.136339 92.932152 
L 128.267946 25.477607 
L 128.317299 126.659425 
L 128.383103 59.204879 
L 128.432455 59.204879 
L 128.465357 25.477607 
L 128.547612 92.932152 
L 128.564063 92.932152 
L 128.679219 59.204879 
L 128.761474 92.932152 
L 128.777925 59.204879 
L 128.843728 59.204879 
L 128.958885 92.932152 
L 129.041139 25.477607 
L 129.074041 59.204879 
L 129.156295 92.932152 
L 129.172746 59.204879 
L 129.304354 59.204879 
L 129.403059 126.659425 
L 129.518215 59.204879 
L 129.616921 92.932152 
L 129.732077 59.204879 
L 129.797881 59.204879 
L 129.880135 126.659425 
L 129.896586 92.932152 
L 129.995292 59.204879 
L 130.077546 25.477607 
L 130.110448 92.932152 
L 130.126899 92.932152 
L 130.242055 59.204879 
L 130.307859 59.204879 
L 130.357212 92.932152 
L 130.406565 59.204879 
L 130.439466 59.204879 
L 130.50527 126.659425 
L 130.554623 92.932152 
L 130.620426 126.659425 
L 130.653328 59.204879 
L 130.752034 92.932152 
L 130.850739 59.204879 
L 130.86719 126.659425 
L 130.949445 59.204879 
L 131.04815 59.204879 
L 131.146855 92.932152 
L 131.245561 59.204879 
L 131.278463 92.932152 
L 131.344266 59.204879 
L 131.393619 59.204879 
L 131.492325 92.932152 
L 131.607481 59.204879 
L 131.739088 126.659425 
L 131.854245 92.932152 
L 131.887146 92.932152 
L 131.985852 59.204879 
L 132.101008 92.932152 
L 132.216165 59.204879 
L 132.281968 59.204879 
L 132.380674 92.932152 
L 132.49583 59.204879 
L 132.512281 59.204879 
L 132.545183 126.659425 
L 132.627437 92.932152 
L 132.643888 92.932152 
L 132.67679 59.204879 
L 132.726143 126.659425 
L 132.742594 92.932152 
L 132.808397 92.932152 
L 132.874201 59.204879 
L 132.890652 92.932152 
L 133.005808 126.659425 
L 133.088063 126.659425 
L 133.137415 92.932152 
L 133.186768 126.659425 
L 133.433532 126.659425 
L 133.565139 59.204879 
L 133.680295 126.659425 
L 134.338332 126.659425 
L 134.420586 92.932152 
L 134.437037 126.659425 
L 135.21023 126.659425 
L 135.325386 92.932152 
L 135.407641 126.659425 
L 135.424092 92.932152 
L 135.456994 92.932152 
L 135.57215 126.659425 
L 135.621503 126.659425 
L 135.736659 92.932152 
L 135.769561 92.932152 
L 135.884717 126.659425 
L 135.901168 126.659425 
L 136.016325 92.932152 
L 136.032775 92.932152 
L 136.147932 126.659425 
L 136.213735 126.659425 
L 136.230186 92.932152 
L 136.312441 126.659425 
L 136.411146 126.659425 
L 136.47695 92.932152 
L 136.509852 126.659425 
L 136.575655 126.659425 
L 136.674361 92.932152 
L 136.789517 126.659425 
L 136.937575 126.659425 
L 136.954026 92.932152 
L 137.036281 126.659425 
L 137.908179 126.659425 
L 137.92463 92.932152 
L 138.006885 126.659425 
L 138.056237 126.659425 
L 138.072688 92.932152 
L 138.154943 126.659425 
L 138.615568 126.659425 
L 138.730725 92.932152 
L 138.82943 126.659425 
L 138.895234 92.932152 
L 138.928135 126.659425 
L 139.01039 126.659425 
L 139.125546 92.932152 
L 139.158448 92.932152 
L 139.19135 59.204879 
L 139.224252 126.659425 
L 139.257154 92.932152 
L 139.273605 92.932152 
L 139.355859 126.659425 
L 139.37231 92.932152 
L 139.388761 92.932152 
L 139.471015 126.659425 
L 139.487466 92.932152 
L 139.503917 92.932152 
L 139.569721 126.659425 
L 139.586172 92.932152 
L 139.602623 59.204879 
L 139.635525 126.659425 
L 139.668426 92.932152 
L 139.783583 126.659425 
L 139.865837 126.659425 
L 139.964543 92.932152 
L 140.079699 126.659425 
L 140.194855 126.659425 
L 140.211306 92.932152 
L 140.293561 126.659425 
L 140.392266 126.659425 
L 140.408717 92.932152 
L 140.490972 126.659425 
L 140.507423 126.659425 
L 140.523874 92.932152 
L 140.606128 126.659425 
L 141.165459 126.659425 
L 141.264165 92.932152 
L 141.379321 126.659425 
L 141.708339 126.659425 
L 141.823495 92.932152 
L 141.938652 126.659425 
L 142.136063 126.659425 
L 142.152514 92.932152 
L 142.234768 126.659425 
L 143.567292 126.659425 
L 143.682448 92.932152 
L 143.698899 92.932152 
L 143.814055 126.659425 
L 144.307583 126.659425 
L 144.422739 92.932152 
L 144.537895 126.659425 
L 144.669503 126.659425 
L 144.784659 92.932152 
L 144.80111 92.932152 
L 144.817561 126.659425 
L 144.850463 59.204879 
L 144.899815 92.932152 
L 144.916266 92.932152 
L 144.932717 126.659425 
L 145.014972 92.932152 
L 145.080775 92.932152 
L 145.179481 126.659425 
L 145.294637 92.932152 
L 145.393343 126.659425 
L 145.508499 92.932152 
L 145.607205 126.659425 
L 145.722361 92.932152 
L 145.738812 92.932152 
L 145.837517 126.659425 
L 145.952674 92.932152 
L 146.06783 126.659425 
L 146.298143 126.659425 
L 146.314594 92.932152 
L 146.396848 126.659425 
L 146.676514 126.659425 
L 146.79167 92.932152 
L 146.857474 92.932152 
L 146.97263 126.659425 
L 147.235845 126.659425 
L 147.252295 92.932152 
L 147.33455 126.659425 
L 148.255801 126.659425 
L 148.272252 92.932152 
L 148.354506 126.659425 
L 151.167612 126.659425 
L 151.184063 92.932152 
L 151.266317 126.659425 
L 151.49663 126.659425 
L 151.513081 92.932152 
L 151.595335 126.659425 
L 154.737459 126.659425 
L 154.75391 92.932152 
L 154.836165 126.659425 
L 154.967772 126.659425 
L 155.050026 92.932152 
L 155.066477 126.659425 
L 155.198085 126.659425 
L 155.214535 59.204879 
L 155.29679 92.932152 
L 155.411946 126.659425 
L 155.47775 126.659425 
L 155.527103 59.204879 
L 155.576455 92.932152 
L 155.691612 126.659425 
L 155.806768 92.932152 
L 155.872572 126.659425 
L 155.889023 59.204879 
L 155.905474 59.204879 
L 156.02063 126.659425 
L 157.057037 126.659425 
L 157.073488 92.932152 
L 157.155743 126.659425 
L 157.83023 126.659425 
L 157.846681 92.932152 
L 157.928935 126.659425 
L 158.225052 126.659425 
L 158.241503 92.932152 
L 158.323757 126.659425 
L 160.034652 126.659425 
L 160.133357 92.932152 
L 160.149808 126.659425 
L 160.215612 92.932152 
L 160.232063 59.204879 
L 160.297866 92.932152 
L 160.413023 126.659425 
L 160.758492 126.659425 
L 160.774943 92.932152 
L 160.857197 126.659425 
L 160.90655 126.659425 
L 160.923001 92.932152 
L 161.005255 126.659425 
L 161.054608 126.659425 
L 161.071059 92.932152 
L 161.153314 126.659425 
L 161.235568 126.659425 
L 161.252019 92.932152 
L 161.334274 126.659425 
L 161.367175 126.659425 
L 161.482332 92.932152 
L 161.597488 126.659425 
L 161.646841 126.659425 
L 161.663292 92.932152 
L 161.745546 126.659425 
L 161.778448 126.659425 
L 161.794899 92.932152 
L 161.877154 126.659425 
L 161.893605 126.659425 
L 161.959408 92.932152 
L 161.99231 126.659425 
L 162.370681 126.659425 
L 162.436485 92.932152 
L 162.469386 126.659425 
L 162.485837 126.659425 
L 162.502288 92.932152 
L 162.584543 126.659425 
L 162.847757 126.659425 
L 162.864208 92.932152 
L 162.946463 126.659425 
L 163.785459 126.659425 
L 163.851263 92.932152 
L 163.884165 126.659425 
L 163.966419 126.659425 
L 164.015772 92.932152 
L 164.065125 126.659425 
L 165.545706 126.659425 
L 165.562157 92.932152 
L 165.644412 126.659425 
L 167.141445 126.659425 
L 167.24015 92.932152 
L 167.355306 126.659425 
L 167.486914 59.204879 
L 167.503365 59.204879 
L 167.618521 126.659425 
L 167.700775 92.932152 
L 167.717226 126.659425 
L 167.750128 126.659425 
L 167.865285 92.932152 
L 167.980441 126.659425 
L 168.013343 59.204879 
L 168.095597 92.932152 
L 168.112048 92.932152 
L 168.128499 59.204879 
L 168.161401 126.659425 
L 168.210754 92.932152 
L 168.260106 92.932152 
L 168.32591 59.204879 
L 168.375263 126.659425 
L 168.391714 126.659425 
L 168.457517 92.932152 
L 168.490419 126.659425 
L 168.622026 126.659425 
L 168.737183 92.932152 
L 168.86879 92.932152 
L 168.885241 126.659425 
L 168.967495 92.932152 
L 168.983946 92.932152 
L 169.066201 126.659425 
L 169.082652 92.932152 
L 169.115554 92.932152 
L 169.132005 126.659425 
L 169.197808 59.204879 
L 169.214259 92.932152 
L 169.23071 92.932152 
L 169.312965 126.659425 
L 169.280063 59.204879 
L 169.329415 92.932152 
L 169.345866 92.932152 
L 169.428121 126.659425 
L 169.444572 92.932152 
L 169.493925 92.932152 
L 169.59263 126.659425 
L 169.707786 92.932152 
L 169.806492 92.932152 
L 169.822943 126.659425 
L 169.888746 59.204879 
L 169.905197 59.204879 
L 170.036805 126.659425 
L 170.151961 92.932152 
L 170.234215 92.932152 
L 170.250666 59.204879 
L 170.300019 126.659425 
L 170.31647 92.932152 
L 170.415175 126.659425 
L 170.431626 92.932152 
L 170.513881 126.659425 
L 170.546783 126.659425 
L 170.629037 92.932152 
L 170.645488 126.659425 
L 170.661939 126.659425 
L 170.711292 59.204879 
L 170.760645 126.659425 
L 170.908703 126.659425 
L 170.974506 92.932152 
L 171.007408 126.659425 
L 171.089663 126.659425 
L 171.204819 59.204879 
L 171.303525 126.659425 
L 171.319975 92.932152 
L 171.352877 92.932152 
L 171.369328 59.204879 
L 171.451583 92.932152 
L 171.517386 92.932152 
L 171.533837 59.204879 
L 171.616092 92.932152 
L 171.698346 92.932152 
L 171.747699 59.204879 
L 171.813503 126.659425 
L 171.895757 92.932152 
L 171.912208 126.659425 
L 171.928659 126.659425 
L 172.043815 92.932152 
L 172.060266 92.932152 
L 172.076717 59.204879 
L 172.093168 126.659425 
L 172.142521 92.932152 
L 172.224775 126.659425 
L 172.241226 59.204879 
L 172.339932 92.932152 
L 172.372834 92.932152 
L 172.455088 59.204879 
L 172.48799 126.659425 
L 172.520892 126.659425 
L 172.636048 92.932152 
L 172.685401 92.932152 
L 172.701852 126.659425 
L 172.784106 92.932152 
L 172.866361 92.932152 
L 172.882812 59.204879 
L 172.899263 126.659425 
L 172.948615 126.659425 
L 174.017925 126.659425 
L 174.100179 92.932152 
L 174.11663 126.659425 
L 174.198885 126.659425 
L 174.215335 92.932152 
L 174.29759 126.659425 
L 174.922725 126.659425 
L 175.037881 59.204879 
L 175.153037 126.659425 
L 175.56431 126.659425 
L 175.646565 92.932152 
L 175.663015 126.659425 
L 175.679466 126.659425 
L 175.728819 92.932152 
L 175.778172 126.659425 
L 175.811074 126.659425 
L 175.909779 92.932152 
L 175.975583 126.659425 
L 176.008485 92.932152 
L 176.024935 92.932152 
L 176.140092 126.659425 
L 176.156543 126.659425 
L 176.271699 92.932152 
L 176.386855 126.659425 
L 176.502012 92.932152 
L 176.518463 92.932152 
L 176.600717 126.659425 
L 176.617168 92.932152 
L 176.633619 92.932152 
L 176.732325 126.659425 
L 176.765226 92.932152 
L 176.83103 126.659425 
L 177.357459 126.659425 
L 177.37391 92.932152 
L 177.456165 126.659425 
L 178.755786 126.659425 
L 178.772237 92.932152 
L 178.854492 126.659425 
L 178.936746 126.659425 
L 179.051903 92.932152 
L 179.068354 92.932152 
L 179.117706 59.204879 
L 179.150608 92.932152 
L 179.199961 126.659425 
L 179.249314 92.932152 
L 179.282215 92.932152 
L 179.397372 126.659425 
L 179.446725 126.659425 
L 179.479626 92.932152 
L 179.54543 126.659425 
L 179.611234 126.659425 
L 179.693488 92.932152 
L 179.709939 126.659425 
L 180.038957 126.659425 
L 180.137663 92.932152 
L 180.252819 126.659425 
L 180.26927 126.659425 
L 180.285721 92.932152 
L 180.367975 126.659425 
L 180.499583 126.659425 
L 180.598288 92.932152 
L 180.713445 126.659425 
L 180.762797 126.659425 
L 180.81215 92.932152 
L 180.861503 126.659425 
L 181.042463 126.659425 
L 181.058914 92.932152 
L 181.141168 126.659425 
L 181.667597 126.659425 
L 181.684048 92.932152 
L 181.766303 126.659425 
L 183.065925 126.659425 
L 183.115277 92.932152 
L 183.16463 126.659425 
L 184.61231 126.659425 
L 184.727466 92.932152 
L 184.842623 126.659425 
L 185.237445 126.659425 
L 185.270346 92.932152 
L 185.33615 126.659425 
L 186.24095 126.659425 
L 186.273852 59.204879 
L 186.339655 126.659425 
L 186.42191 126.659425 
L 186.438361 92.932152 
L 186.520615 126.659425 
L 188.099903 126.659425 
L 188.132805 92.932152 
L 188.198608 126.659425 
L 188.363117 126.659425 
L 188.445372 92.932152 
L 188.461823 126.659425 
L 189.152761 126.659425 
L 189.169212 92.932152 
L 189.251466 126.659425 
L 189.876601 126.659425 
L 189.958855 92.932152 
L 189.975306 126.659425 
L 190.106914 126.659425 
L 190.22207 92.932152 
L 190.337226 126.659425 
L 190.386579 126.659425 
L 190.518186 59.204879 
L 190.534637 59.204879 
L 190.649794 126.659425 
L 190.76495 92.932152 
L 190.814303 92.932152 
L 190.880106 59.204879 
L 190.913008 126.659425 
L 191.011714 92.932152 
L 191.12687 126.659425 
L 191.242026 92.932152 
L 191.30783 92.932152 
L 191.406535 126.659425 
L 191.48879 59.204879 
L 191.505241 92.932152 
L 191.603946 126.659425 
L 191.719103 92.932152 
L 191.752005 92.932152 
L 191.867161 126.659425 
L 192.57455 126.659425 
L 192.591001 92.932152 
L 192.673255 126.659425 
L 193.084528 126.659425 
L 193.133881 92.932152 
L 193.183234 126.659425 
L 193.29839 126.659425 
L 193.314841 92.932152 
L 193.397095 126.659425 
L 195.058637 126.659425 
L 195.075088 92.932152 
L 195.157343 126.659425 
L 195.190245 126.659425 
L 195.305401 92.932152 
L 195.420557 126.659425 
L 195.519263 92.932152 
L 195.634419 126.659425 
L 195.749575 126.659425 
L 195.766026 92.932152 
L 195.848281 126.659425 
L 196.029241 126.659425 
L 196.127946 92.932152 
L 196.243103 126.659425 
L 196.259554 126.659425 
L 196.276005 59.204879 
L 196.358259 92.932152 
L 196.456965 126.659425 
L 196.572121 92.932152 
L 196.687277 126.659425 
L 196.818885 126.659425 
L 196.835335 92.932152 
L 196.91759 126.659425 
L 197.09855 126.659425 
L 197.147903 92.932152 
L 197.197255 126.659425 
L 197.230157 126.659425 
L 197.345314 92.932152 
L 197.46047 126.659425 
L 197.493372 126.659425 
L 197.608528 92.932152 
L 197.723685 126.659425 
L 197.838841 92.932152 
L 197.953997 126.659425 
L 197.970448 92.932152 
L 198.052703 126.659425 
L 198.118506 126.659425 
L 198.233663 92.932152 
L 198.250114 92.932152 
L 198.36527 126.659425 
L 198.447525 126.659425 
L 198.529779 92.932152 
L 198.54623 126.659425 
L 198.562681 126.659425 
L 198.677837 92.932152 
L 198.792994 126.659425 
L 198.809445 126.659425 
L 198.90815 92.932152 
L 199.023306 126.659425 
L 199.105561 92.932152 
L 199.122012 126.659425 
L 199.138463 126.659425 
L 199.187815 92.932152 
L 199.237168 126.659425 
L 199.253619 126.659425 
L 199.352325 92.932152 
L 199.45103 126.659425 
L 199.566186 92.932152 
L 199.582637 92.932152 
L 199.615539 59.204879 
L 199.697794 126.659425 
L 199.730695 59.204879 
L 199.796499 92.932152 
L 199.878754 59.204879 
L 199.911655 126.659425 
L 200.059714 126.659425 
L 200.158419 92.932152 
L 200.273575 126.659425 
L 200.290026 126.659425 
L 200.405183 92.932152 
L 200.520339 126.659425 
L 201.737706 126.659425 
L 201.836412 92.932152 
L 201.951568 126.659425 
L 204.205343 126.659425 
L 204.254695 92.932152 
L 204.304048 126.659425 
L 208.614186 126.659425 
L 208.647088 92.932152 
L 208.712892 126.659425 
L 208.795146 126.659425 
L 208.910303 59.204879 
L 208.976106 126.659425 
L 209.025459 92.932152 
L 209.04191 126.659425 
L 209.124165 92.932152 
L 209.173517 92.932152 
L 209.255772 126.659425 
L 209.272223 92.932152 
L 209.370928 92.932152 
L 209.453183 59.204879 
L 209.469634 92.932152 
L 209.518986 92.932152 
L 209.551888 126.659425 
L 209.617692 92.932152 
L 209.650594 92.932152 
L 209.76575 126.659425 
L 209.880906 92.932152 
L 210.028965 92.932152 
L 210.045415 59.204879 
L 210.061866 126.659425 
L 210.12767 92.932152 
L 210.242826 126.659425 
L 210.275728 126.659425 
L 210.374434 92.932152 
L 210.48959 126.659425 
L 210.555394 126.659425 
L 210.588295 59.204879 
L 210.588295 59.204879 
" clip-path="url(#p6b83b286a8)" style="fill: none; stroke: #009e73; stroke-width: 1.25; stroke-linecap: square"/>
   </g>
   <g id="patch_4">
    <path d="M 37.85375 131.718516 
L 37.85375 20.418516 
" style="fill: none; stroke: #000000; stroke-width: 0.8; stroke-linejoin: miter; stroke-linecap: square"/>
   </g>
   <g id="patch_5">
    <path d="M 37.85375 131.718516 
L 218.81375 131.718516 
" style="fill: none; stroke: #000000; stroke-width: 0.8; stroke-linejoin: miter; stroke-linecap: square"/>
   </g>
   <g id="text_16">
    <!-- drugs3523 rep1 -->
    <g transform="translate(90.460664 14.418516) scale(0.095 -0.095)">
     <defs>
      <path id="DejaVuSans-67" d="M 2906 1791 
Q 2906 2416 2648 2759 
Q 2391 3103 1925 3103 
Q 1463 3103 1205 2759 
Q 947 2416 947 1791 
Q 947 1169 1205 825 
Q 1463 481 1925 481 
Q 2391 481 2648 825 
Q 2906 1169 2906 1791 
z
M 3481 434 
Q 3481 -459 3084 -895 
Q 2688 -1331 1869 -1331 
Q 1566 -1331 1297 -1286 
Q 1028 -1241 775 -1147 
L 775 -588 
Q 1028 -725 1275 -790 
Q 1522 -856 1778 -856 
Q 2344 -856 2625 -561 
Q 2906 -266 2906 331 
L 2906 616 
Q 2728 306 2450 153 
Q 2172 0 1784 0 
Q 1141 0 747 490 
Q 353 981 353 1791 
Q 353 2603 747 3093 
Q 1141 3584 1784 3584 
Q 2172 3584 2450 3431 
Q 2728 3278 2906 2969 
L 2906 3500 
L 3481 3500 
L 3481 434 
z
" transform="scale(0.015625)"/>
      <path id="DejaVuSans-70" d="M 1159 525 
L 1159 -1331 
L 581 -1331 
L 581 3500 
L 1159 3500 
L 1159 2969 
Q 1341 3281 1617 3432 
Q 1894 3584 2278 3584 
Q 2916 3584 3314 3078 
Q 3713 2572 3713 1747 
Q 3713 922 3314 415 
Q 2916 -91 2278 -91 
Q 1894 -91 1617 61 
Q 1341 213 1159 525 
z
M 3116 1747 
Q 3116 2381 2855 2742 
Q 2594 3103 2138 3103 
Q 1681 3103 1420 2742 
Q 1159 2381 1159 1747 
Q 1159 1113 1420 752 
Q 1681 391 2138 391 
Q 2594 391 2855 752 
Q 3116 1113 3116 1747 
z
" transform="scale(0.015625)"/>
     </defs>
     <use xlink:href="#DejaVuSans-64"/>
     <use xlink:href="#DejaVuSans-72" transform="translate(63.476562 0)"/>
     <use xlink:href="#DejaVuSans-75" transform="translate(104.589844 0)"/>
     <use xlink:href="#DejaVuSans-67" transform="translate(167.96875 0)"/>
     <use xlink:href="#DejaVuSans-73" transform="translate(231.445312 0)"/>
     <use xlink:href="#DejaVuSans-33" transform="translate(283.544922 0)"/>
     <use xlink:href="#DejaVuSans-35" transform="translate(347.167969 0)"/>
     <use xlink:href="#DejaVuSans-32" transform="translate(410.791016 0)"/>
     <use xlink:href="#DejaVuSans-33" transform="translate(474.414062 0)"/>
     <use xlink:href="#DejaVuSans-20" transform="translate(538.037109 0)"/>
     <use xlink:href="#DejaVuSans-72" transform="translate(569.824219 0)"/>
     <use xlink:href="#DejaVuSans-65" transform="translate(608.6875 0)"/>
     <use xlink:href="#DejaVuSans-70" transform="translate(670.210938 0)"/>
     <use xlink:href="#DejaVuSans-31" transform="translate(733.6875 0)"/>
    </g>
   </g>
  </g>
 </g>
 <defs>
  <clipPath id="p6b83b286a8">
   <rect x="37.85375" y="20.418516" width="180.96" height="111.3"/>
  </clipPath>
 </defs>
</svg>
