<?xml version="1.0" encoding="utf-8" standalone="no"?>
<!DOCTYPE svg PUBLIC "-//W3C//DTD SVG 1.1//EN"
  "http://www.w3.org/Graphics/SVG/1.1/DTD/svg11.dtd">
<svg xmlns:xlink="http://www.w3.org/1999/xlink" width="226.01375pt" height="164.903516pt" viewBox="0 0 226.01375 164.903516" xmlns="http://www.w3.org/2000/svg" version="1.1">
 <metadata>
  <rdf:RDF xmlns:dc="http://purl.org/dc/elements/1.1/" xmlns:cc="http://creativecommons.org/ns#" xmlns:rdf="http://www.w3.org/1999/02/22-rdf-syntax-ns#">
   <cc:Work>
    <dc:type rdf:resource="http://purl.org/dc/dcmitype/StillImage"/>
    <dc:date>2026-05-24T13:53:58.338845</dc:date>
    <dc:format>image/svg+xml</dc:format>
    <dc:creator>
     <cc:Agent>
      <dc:title>Matplotlib v3.10.9, https://matplotlib.org/</dc:title>
     </cc:Agent>
    </dc:creator>
   </cc:Work>
  </rdf:RDF>
 </metadata>
 <defs>
  <style type="text/css">*{stroke-linejoin: round; stroke-linecap: butt}</style>
 </defs>
 <g id="figure_1">
  <g id="patch_1">
   <path d="M 0 164.903516 
L 226.01375 164.903516 
L 226.01375 0 
L 0 0 
z
" style="fill: #ffffff"/>
  </g>
  <g id="axes_1">
   <g id="patch_2">
    <path d="M 37.85375 131.718516 
L 218.81375 131.718516 
L 218.81375 20.418516 
L 37.85375 20.418516 
z
" style="fill: #ffffff"/>
   </g>
   <g id="patch_3">
    <path d="M 128.333744 131.718516 
L 210.588283 131.718516 
L 210.588283 20.418516 
L 128.333744 20.418516 
z
" clip-path="url(#p4b3b9145eb)" style="fill: #bdbdbd; opacity: 0.18"/>
   </g>
   <g id="matplotlib.axis_1">
    <g id="xtick_1">
     <g id="line2d_1">
      <defs>
       <path id="mff7f96595f" d="M 0 0 
L 0 3 
" style="stroke: #000000; stroke-width: 0.7"/>
      </defs>
      <g>
       <use xlink:href="#mff7f96595f" x="46.079205" y="131.718516" style="stroke: #000000; stroke-width: 0.7"/>
      </g>
     </g>
     <g id="text_1">
      <!-- 0 -->
      <g transform="translate(43.693267 143.917344) scale(0.075 -0.075)">
       <defs>
        <path id="DejaVuSans-30" d="M 2034 4250 
Q 1547 4250 1301 3770 
Q 1056 3291 1056 2328 
Q 1056 1369 1301 889 
Q 1547 409 2034 409 
Q 2525 409 2770 889 
Q 3016 1369 3016 2328 
Q 3016 3291 2770 3770 
Q 2525 4250 2034 4250 
z
M 2034 4750 
Q 2819 4750 3233 4129 
Q 3647 3509 3647 2328 
Q 3647 1150 3233 529 
Q 2819 -91 2034 -91 
Q 1250 -91 836 529 
Q 422 1150 422 2328 
Q 422 3509 836 4129 
Q 1250 4750 2034 4750 
z
" transform="scale(0.015625)"/>
       </defs>
       <use xlink:href="#DejaVuSans-30"/>
      </g>
     </g>
    </g>
    <g id="xtick_2">
     <g id="line2d_2">
      <g>
       <use xlink:href="#mff7f96595f" x="78.98102" y="131.718516" style="stroke: #000000; stroke-width: 0.7"/>
      </g>
     </g>
     <g id="text_2">
      <!-- 20 -->
      <g transform="translate(74.209145 143.917344) scale(0.075 -0.075)">
       <defs>
        <path id="DejaVuSans-32" d="M 1228 531 
L 3431 531 
L 3431 0 
L 469 0 
L 469 531 
Q 828 903 1448 1529 
Q 2069 2156 2228 2338 
Q 2531 2678 2651 2914 
Q 2772 3150 2772 3378 
Q 2772 3750 2511 3984 
Q 2250 4219 1831 4219 
Q 1534 4219 1204 4116 
Q 875 4013 500 3803 
L 500 4441 
Q 881 4594 1212 4672 
Q 1544 4750 1819 4750 
Q 2544 4750 2975 4387 
Q 3406 4025 3406 3419 
Q 3406 3131 3298 2873 
Q 3191 2616 2906 2266 
Q 2828 2175 2409 1742 
Q 1991 1309 1228 531 
z
" transform="scale(0.015625)"/>
       </defs>
       <use xlink:href="#DejaVuSans-32"/>
       <use xlink:href="#DejaVuSans-30" transform="translate(63.623047 0)"/>
      </g>
     </g>
    </g>
    <g id="xtick_3">
     <g id="line2d_3">
      <g>
       <use xlink:href="#mff7f96595f" x="111.882836" y="131.718516" style="stroke: #000000; stroke-width: 0.7"/>
      </g>
     </g>
     <g id="text_3">
      <!-- 40 -->
      <g transform="translate(107.110961 143.917344) scale(0.075 -0.075)">
       <defs>
        <path id="DejaVuSans-34" d="M 2419 4116 
L 825 1625 
L 2419 1625 
L 2419 4116 
z
M 2253 4666 
L 3047 4666 
L 3047 1625 
L 3713 1625 
L 3713 1100 
L 3047 1100 
L 3047 0 
L 2419 0 
L 2419 1100 
L 313 1100 
L 313 1709 
L 2253 4666 
z
" transform="scale(0.015625)"/>
       </defs>
       <use xlink:href="#DejaVuSans-34"/>
       <use xlink:href="#DejaVuSans-30" transform="translate(63.623047 0)"/>
      </g>
     </g>
    </g>
    <g id="xtick_4">
     <g id="line2d_4">
      <g>
       <use xlink:href="#mff7f96595f" x="144.784652" y="131.718516" style="stroke: #000000; stroke-width: 0.7"/>
      </g>
     </g>
     <g id="text_4">
      <!-- 60 -->
      <g transform="translate(140.012777 143.917344) scale(0.075 -0.075)">
       <defs>
        <path id="DejaVuSans-36" d="M 2113 2584 
Q 1688 2584 1439 2293 
Q 1191 2003 1191 1497 
Q 1191 994 1439 701 
Q 1688 409 2113 409 
Q 2538 409 2786 701 
Q 3034 994 3034 1497 
Q 3034 2003 2786 2293 
Q 2538 2584 2113 2584 
z
M 3366 4563 
L 3366 3988 
Q 3128 4100 2886 4159 
Q 2644 4219 2406 4219 
Q 1781 4219 1451 3797 
Q 1122 3375 1075 2522 
Q 1259 2794 1537 2939 
Q 1816 3084 2150 3084 
Q 2853 3084 3261 2657 
Q 3669 2231 3669 1497 
Q 3669 778 3244 343 
Q 2819 -91 2113 -91 
Q 1303 -91 875 529 
Q 447 1150 447 2328 
Q 447 3434 972 4092 
Q 1497 4750 2381 4750 
Q 2619 4750 2861 4703 
Q 3103 4656 3366 4563 
z
" transform="scale(0.015625)"/>
       </defs>
       <use xlink:href="#DejaVuSans-36"/>
       <use xlink:href="#DejaVuSans-30" transform="translate(63.623047 0)"/>
      </g>
     </g>
    </g>
    <g id="xtick_5">
     <g id="line2d_5">
      <g>
       <use xlink:href="#mff7f96595f" x="177.686467" y="131.718516" style="stroke: #000000; stroke-width: 0.7"/>
      </g>
     </g>
     <g id="text_5">
      <!-- 80 -->
      <g transform="translate(172.914592 143.917344) scale(0.075 -0.075)">
       <defs>
        <path id="DejaVuSans-38" d="M 2034 2216 
Q 1584 2216 1326 1975 
Q 1069 1734 1069 1313 
Q 1069 891 1326 650 
Q 1584 409 2034 409 
Q 2484 409 2743 651 
Q 3003 894 3003 1313 
Q 3003 1734 2745 1975 
Q 2488 2216 2034 2216 
z
M 1403 2484 
Q 997 2584 770 2862 
Q 544 3141 544 3541 
Q 544 4100 942 4425 
Q 1341 4750 2034 4750 
Q 2731 4750 3128 4425 
Q 3525 4100 3525 3541 
Q 3525 3141 3298 2862 
Q 3072 2584 2669 2484 
Q 3125 2378 3379 2068 
Q 3634 1759 3634 1313 
Q 3634 634 3220 271 
Q 2806 -91 2034 -91 
Q 1263 -91 848 271 
Q 434 634 434 1313 
Q 434 1759 690 2068 
Q 947 2378 1403 2484 
z
M 1172 3481 
Q 1172 3119 1398 2916 
Q 1625 2713 2034 2713 
Q 2441 2713 2670 2916 
Q 2900 3119 2900 3481 
Q 2900 3844 2670 4047 
Q 2441 4250 2034 4250 
Q 1625 4250 1398 4047 
Q 1172 3844 1172 3481 
z
" transform="scale(0.015625)"/>
       </defs>
       <use xlink:href="#DejaVuSans-38"/>
       <use xlink:href="#DejaVuSans-30" transform="translate(63.623047 0)"/>
      </g>
     </g>
    </g>
    <g id="xtick_6">
     <g id="line2d_6">
      <g>
       <use xlink:href="#mff7f96595f" x="210.588283" y="131.718516" style="stroke: #000000; stroke-width: 0.7"/>
      </g>
     </g>
     <g id="text_6">
      <!-- 100 -->
      <g transform="translate(203.43047 143.917344) scale(0.075 -0.075)">
       <defs>
        <path id="DejaVuSans-31" d="M 794 531 
L 1825 531 
L 1825 4091 
L 703 3866 
L 703 4441 
L 1819 4666 
L 2450 4666 
L 2450 531 
L 3481 531 
L 3481 0 
L 794 0 
L 794 531 
z
" transform="scale(0.015625)"/>
       </defs>
       <use xlink:href="#DejaVuSans-31"/>
       <use xlink:href="#DejaVuSans-30" transform="translate(63.623047 0)"/>
       <use xlink:href="#DejaVuSans-30" transform="translate(127.246094 0)"/>
      </g>
     </g>
    </g>
    <g id="text_7">
     <!-- Time (ns) -->
     <g transform="translate(108.360742 155.935781) scale(0.085 -0.085)">
      <defs>
       <path id="DejaVuSans-54" d="M -19 4666 
L 3928 4666 
L 3928 4134 
L 2272 4134 
L 2272 0 
L 1638 0 
L 1638 4134 
L -19 4134 
L -19 4666 
z
" transform="scale(0.015625)"/>
       <path id="DejaVuSans-69" d="M 603 3500 
L 1178 3500 
L 1178 0 
L 603 0 
L 603 3500 
z
M 603 4863 
L 1178 4863 
L 1178 4134 
L 603 4134 
L 603 4863 
z
" transform="scale(0.015625)"/>
       <path id="DejaVuSans-6d" d="M 3328 2828 
Q 3544 3216 3844 3400 
Q 4144 3584 4550 3584 
Q 5097 3584 5394 3201 
Q 5691 2819 5691 2113 
L 5691 0 
L 5113 0 
L 5113 2094 
Q 5113 2597 4934 2840 
Q 4756 3084 4391 3084 
Q 3944 3084 3684 2787 
Q 3425 2491 3425 1978 
L 3425 0 
L 2847 0 
L 2847 2094 
Q 2847 2600 2669 2842 
Q 2491 3084 2119 3084 
Q 1678 3084 1418 2786 
Q 1159 2488 1159 1978 
L 1159 0 
L 581 0 
L 581 3500 
L 1159 3500 
L 1159 2956 
Q 1356 3278 1631 3431 
Q 1906 3584 2284 3584 
Q 2666 3584 2933 3390 
Q 3200 3197 3328 2828 
z
" transform="scale(0.015625)"/>
       <path id="DejaVuSans-65" d="M 3597 1894 
L 3597 1613 
L 953 1613 
Q 991 1019 1311 708 
Q 1631 397 2203 397 
Q 2534 397 2845 478 
Q 3156 559 3463 722 
L 3463 178 
Q 3153 47 2828 -22 
Q 2503 -91 2169 -91 
Q 1331 -91 842 396 
Q 353 884 353 1716 
Q 353 2575 817 3079 
Q 1281 3584 2069 3584 
Q 2775 3584 3186 3129 
Q 3597 2675 3597 1894 
z
M 3022 2063 
Q 3016 2534 2758 2815 
Q 2500 3097 2075 3097 
Q 1594 3097 1305 2825 
Q 1016 2553 972 2059 
L 3022 2063 
z
" transform="scale(0.015625)"/>
       <path id="DejaVuSans-20" transform="scale(0.015625)"/>
       <path id="DejaVuSans-28" d="M 1984 4856 
Q 1566 4138 1362 3434 
Q 1159 2731 1159 2009 
Q 1159 1288 1364 580 
Q 1569 -128 1984 -844 
L 1484 -844 
Q 1016 -109 783 600 
Q 550 1309 550 2009 
Q 550 2706 781 3412 
Q 1013 4119 1484 4856 
L 1984 4856 
z
" transform="scale(0.015625)"/>
       <path id="DejaVuSans-6e" d="M 3513 2113 
L 3513 0 
L 2938 0 
L 2938 2094 
Q 2938 2591 2744 2837 
Q 2550 3084 2163 3084 
Q 1697 3084 1428 2787 
Q 1159 2491 1159 1978 
L 1159 0 
L 581 0 
L 581 3500 
L 1159 3500 
L 1159 2956 
Q 1366 3272 1645 3428 
Q 1925 3584 2291 3584 
Q 2894 3584 3203 3211 
Q 3513 2838 3513 2113 
z
" transform="scale(0.015625)"/>
       <path id="DejaVuSans-73" d="M 2834 3397 
L 2834 2853 
Q 2591 2978 2328 3040 
Q 2066 3103 1784 3103 
Q 1356 3103 1142 2972 
Q 928 2841 928 2578 
Q 928 2378 1081 2264 
Q 1234 2150 1697 2047 
L 1894 2003 
Q 2506 1872 2764 1633 
Q 3022 1394 3022 966 
Q 3022 478 2636 193 
Q 2250 -91 1575 -91 
Q 1294 -91 989 -36 
Q 684 19 347 128 
L 347 722 
Q 666 556 975 473 
Q 1284 391 1588 391 
Q 1994 391 2212 530 
Q 2431 669 2431 922 
Q 2431 1156 2273 1281 
Q 2116 1406 1581 1522 
L 1381 1569 
Q 847 1681 609 1914 
Q 372 2147 372 2553 
Q 372 3047 722 3315 
Q 1072 3584 1716 3584 
Q 2034 3584 2315 3537 
Q 2597 3491 2834 3397 
z
" transform="scale(0.015625)"/>
       <path id="DejaVuSans-29" d="M 513 4856 
L 1013 4856 
Q 1481 4119 1714 3412 
Q 1947 2706 1947 2009 
Q 1947 1309 1714 600 
Q 1481 -109 1013 -844 
L 513 -844 
Q 928 -128 1133 580 
Q 1338 1288 1338 2009 
Q 1338 2731 1133 3434 
Q 928 4138 513 4856 
z
" transform="scale(0.015625)"/>
      </defs>
      <use xlink:href="#DejaVuSans-54"/>
      <use xlink:href="#DejaVuSans-69" transform="translate(57.958984 0)"/>
      <use xlink:href="#DejaVuSans-6d" transform="translate(85.742188 0)"/>
      <use xlink:href="#DejaVuSans-65" transform="translate(183.154297 0)"/>
      <use xlink:href="#DejaVuSans-20" transform="translate(244.677734 0)"/>
      <use xlink:href="#DejaVuSans-28" transform="translate(276.464844 0)"/>
      <use xlink:href="#DejaVuSans-6e" transform="translate(315.478516 0)"/>
      <use xlink:href="#DejaVuSans-73" transform="translate(378.857422 0)"/>
      <use xlink:href="#DejaVuSans-29" transform="translate(430.957031 0)"/>
     </g>
    </g>
   </g>
   <g id="matplotlib.axis_2">
    <g id="ytick_1">
     <g id="line2d_7">
      <defs>
       <path id="mb40a6b3cde" d="M 0 0 
L -3 0 
" style="stroke: #000000; stroke-width: 0.7"/>
      </defs>
      <g>
       <use xlink:href="#mb40a6b3cde" x="37.85375" y="126.680606" style="stroke: #000000; stroke-width: 0.7"/>
      </g>
     </g>
     <g id="text_8">
      <!-- 0.0 -->
      <g transform="translate(19.426406 129.53002) scale(0.075 -0.075)">
       <defs>
        <path id="DejaVuSans-2e" d="M 684 794 
L 1344 794 
L 1344 0 
L 684 0 
L 684 794 
z
" transform="scale(0.015625)"/>
       </defs>
       <use xlink:href="#DejaVuSans-30"/>
       <use xlink:href="#DejaVuSans-2e" transform="translate(63.623047 0)"/>
       <use xlink:href="#DejaVuSans-30" transform="translate(95.410156 0)"/>
      </g>
     </g>
    </g>
    <g id="ytick_2">
     <g id="line2d_8">
      <g>
       <use xlink:href="#mb40a6b3cde" x="37.85375" y="105.15965" style="stroke: #000000; stroke-width: 0.7"/>
      </g>
     </g>
     <g id="text_9">
      <!-- 0.5 -->
      <g transform="translate(19.426406 108.009064) scale(0.075 -0.075)">
       <defs>
        <path id="DejaVuSans-35" d="M 691 4666 
L 3169 4666 
L 3169 4134 
L 1269 4134 
L 1269 2991 
Q 1406 3038 1543 3061 
Q 1681 3084 1819 3084 
Q 2600 3084 3056 2656 
Q 3513 2228 3513 1497 
Q 3513 744 3044 326 
Q 2575 -91 1722 -91 
Q 1428 -91 1123 -41 
Q 819 9 494 109 
L 494 744 
Q 775 591 1075 516 
Q 1375 441 1709 441 
Q 2250 441 2565 725 
Q 2881 1009 2881 1497 
Q 2881 1984 2565 2268 
Q 2250 2553 1709 2553 
Q 1456 2553 1204 2497 
Q 953 2441 691 2322 
L 691 4666 
z
" transform="scale(0.015625)"/>
       </defs>
       <use xlink:href="#DejaVuSans-30"/>
       <use xlink:href="#DejaVuSans-2e" transform="translate(63.623047 0)"/>
       <use xlink:href="#DejaVuSans-35" transform="translate(95.410156 0)"/>
      </g>
     </g>
    </g>
    <g id="ytick_3">
     <g id="line2d_9">
      <g>
       <use xlink:href="#mb40a6b3cde" x="37.85375" y="83.638695" style="stroke: #000000; stroke-width: 0.7"/>
      </g>
     </g>
     <g id="text_10">
      <!-- 1.0 -->
      <g transform="translate(19.426406 86.488109) scale(0.075 -0.075)">
       <use xlink:href="#DejaVuSans-31"/>
       <use xlink:href="#DejaVuSans-2e" transform="translate(63.623047 0)"/>
       <use xlink:href="#DejaVuSans-30" transform="translate(95.410156 0)"/>
      </g>
     </g>
    </g>
    <g id="ytick_4">
     <g id="line2d_10">
      <g>
       <use xlink:href="#mb40a6b3cde" x="37.85375" y="62.117739" style="stroke: #000000; stroke-width: 0.7"/>
      </g>
     </g>
     <g id="text_11">
      <!-- 1.5 -->
      <g transform="translate(19.426406 64.967153) scale(0.075 -0.075)">
       <use xlink:href="#DejaVuSans-31"/>
       <use xlink:href="#DejaVuSans-2e" transform="translate(63.623047 0)"/>
       <use xlink:href="#DejaVuSans-35" transform="translate(95.410156 0)"/>
      </g>
     </g>
    </g>
    <g id="ytick_5">
     <g id="line2d_11">
      <g>
       <use xlink:href="#mb40a6b3cde" x="37.85375" y="40.596784" style="stroke: #000000; stroke-width: 0.7"/>
      </g>
     </g>
     <g id="text_12">
      <!-- 2.0 -->
      <g transform="translate(19.426406 43.446198) scale(0.075 -0.075)">
       <use xlink:href="#DejaVuSans-32"/>
       <use xlink:href="#DejaVuSans-2e" transform="translate(63.623047 0)"/>
       <use xlink:href="#DejaVuSans-30" transform="translate(95.410156 0)"/>
      </g>
     </g>
    </g>
    <g id="text_13">
     <!-- Backbone RMSD (nm) -->
     <g transform="translate(13.658672 122.435352) rotate(-90) scale(0.085 -0.085)">
      <defs>
       <path id="DejaVuSans-42" d="M 1259 2228 
L 1259 519 
L 2272 519 
Q 2781 519 3026 730 
Q 3272 941 3272 1375 
Q 3272 1813 3026 2020 
Q 2781 2228 2272 2228 
L 1259 2228 
z
M 1259 4147 
L 1259 2741 
L 2194 2741 
Q 2656 2741 2882 2914 
Q 3109 3088 3109 3444 
Q 3109 3797 2882 3972 
Q 2656 4147 2194 4147 
L 1259 4147 
z
M 628 4666 
L 2241 4666 
Q 2963 4666 3353 4366 
Q 3744 4066 3744 3513 
Q 3744 3084 3544 2831 
Q 3344 2578 2956 2516 
Q 3422 2416 3680 2098 
Q 3938 1781 3938 1306 
Q 3938 681 3513 340 
Q 3088 0 2303 0 
L 628 0 
L 628 4666 
z
" transform="scale(0.015625)"/>
       <path id="DejaVuSans-61" d="M 2194 1759 
Q 1497 1759 1228 1600 
Q 959 1441 959 1056 
Q 959 750 1161 570 
Q 1363 391 1709 391 
Q 2188 391 2477 730 
Q 2766 1069 2766 1631 
L 2766 1759 
L 2194 1759 
z
M 3341 1997 
L 3341 0 
L 2766 0 
L 2766 531 
Q 2569 213 2275 61 
Q 1981 -91 1556 -91 
Q 1019 -91 701 211 
Q 384 513 384 1019 
Q 384 1609 779 1909 
Q 1175 2209 1959 2209 
L 2766 2209 
L 2766 2266 
Q 2766 2663 2505 2880 
Q 2244 3097 1772 3097 
Q 1472 3097 1187 3025 
Q 903 2953 641 2809 
L 641 3341 
Q 956 3463 1253 3523 
Q 1550 3584 1831 3584 
Q 2591 3584 2966 3190 
Q 3341 2797 3341 1997 
z
" transform="scale(0.015625)"/>
       <path id="DejaVuSans-63" d="M 3122 3366 
L 3122 2828 
Q 2878 2963 2633 3030 
Q 2388 3097 2138 3097 
Q 1578 3097 1268 2742 
Q 959 2388 959 1747 
Q 959 1106 1268 751 
Q 1578 397 2138 397 
Q 2388 397 2633 464 
Q 2878 531 3122 666 
L 3122 134 
Q 2881 22 2623 -34 
Q 2366 -91 2075 -91 
Q 1284 -91 818 406 
Q 353 903 353 1747 
Q 353 2603 823 3093 
Q 1294 3584 2113 3584 
Q 2378 3584 2631 3529 
Q 2884 3475 3122 3366 
z
" transform="scale(0.015625)"/>
       <path id="DejaVuSans-6b" d="M 581 4863 
L 1159 4863 
L 1159 1991 
L 2875 3500 
L 3609 3500 
L 1753 1863 
L 3688 0 
L 2938 0 
L 1159 1709 
L 1159 0 
L 581 0 
L 581 4863 
z
" transform="scale(0.015625)"/>
       <path id="DejaVuSans-62" d="M 3116 1747 
Q 3116 2381 2855 2742 
Q 2594 3103 2138 3103 
Q 1681 3103 1420 2742 
Q 1159 2381 1159 1747 
Q 1159 1113 1420 752 
Q 1681 391 2138 391 
Q 2594 391 2855 752 
Q 3116 1113 3116 1747 
z
M 1159 2969 
Q 1341 3281 1617 3432 
Q 1894 3584 2278 3584 
Q 2916 3584 3314 3078 
Q 3713 2572 3713 1747 
Q 3713 922 3314 415 
Q 2916 -91 2278 -91 
Q 1894 -91 1617 61 
Q 1341 213 1159 525 
L 1159 0 
L 581 0 
L 581 4863 
L 1159 4863 
L 1159 2969 
z
" transform="scale(0.015625)"/>
       <path id="DejaVuSans-6f" d="M 1959 3097 
Q 1497 3097 1228 2736 
Q 959 2375 959 1747 
Q 959 1119 1226 758 
Q 1494 397 1959 397 
Q 2419 397 2687 759 
Q 2956 1122 2956 1747 
Q 2956 2369 2687 2733 
Q 2419 3097 1959 3097 
z
M 1959 3584 
Q 2709 3584 3137 3096 
Q 3566 2609 3566 1747 
Q 3566 888 3137 398 
Q 2709 -91 1959 -91 
Q 1206 -91 779 398 
Q 353 888 353 1747 
Q 353 2609 779 3096 
Q 1206 3584 1959 3584 
z
" transform="scale(0.015625)"/>
       <path id="DejaVuSans-52" d="M 2841 2188 
Q 3044 2119 3236 1894 
Q 3428 1669 3622 1275 
L 4263 0 
L 3584 0 
L 2988 1197 
Q 2756 1666 2539 1819 
Q 2322 1972 1947 1972 
L 1259 1972 
L 1259 0 
L 628 0 
L 628 4666 
L 2053 4666 
Q 2853 4666 3247 4331 
Q 3641 3997 3641 3322 
Q 3641 2881 3436 2590 
Q 3231 2300 2841 2188 
z
M 1259 4147 
L 1259 2491 
L 2053 2491 
Q 2509 2491 2742 2702 
Q 2975 2913 2975 3322 
Q 2975 3731 2742 3939 
Q 2509 4147 2053 4147 
L 1259 4147 
z
" transform="scale(0.015625)"/>
       <path id="DejaVuSans-4d" d="M 628 4666 
L 1569 4666 
L 2759 1491 
L 3956 4666 
L 4897 4666 
L 4897 0 
L 4281 0 
L 4281 4097 
L 3078 897 
L 2444 897 
L 1241 4097 
L 1241 0 
L 628 0 
L 628 4666 
z
" transform="scale(0.015625)"/>
       <path id="DejaVuSans-53" d="M 3425 4513 
L 3425 3897 
Q 3066 4069 2747 4153 
Q 2428 4238 2131 4238 
Q 1616 4238 1336 4038 
Q 1056 3838 1056 3469 
Q 1056 3159 1242 3001 
Q 1428 2844 1947 2747 
L 2328 2669 
Q 3034 2534 3370 2195 
Q 3706 1856 3706 1288 
Q 3706 609 3251 259 
Q 2797 -91 1919 -91 
Q 1588 -91 1214 -16 
Q 841 59 441 206 
L 441 856 
Q 825 641 1194 531 
Q 1563 422 1919 422 
Q 2459 422 2753 634 
Q 3047 847 3047 1241 
Q 3047 1584 2836 1778 
Q 2625 1972 2144 2069 
L 1759 2144 
Q 1053 2284 737 2584 
Q 422 2884 422 3419 
Q 422 4038 858 4394 
Q 1294 4750 2059 4750 
Q 2388 4750 2728 4690 
Q 3069 4631 3425 4513 
z
" transform="scale(0.015625)"/>
       <path id="DejaVuSans-44" d="M 1259 4147 
L 1259 519 
L 2022 519 
Q 2988 519 3436 956 
Q 3884 1394 3884 2338 
Q 3884 3275 3436 3711 
Q 2988 4147 2022 4147 
L 1259 4147 
z
M 628 4666 
L 1925 4666 
Q 3281 4666 3915 4102 
Q 4550 3538 4550 2338 
Q 4550 1131 3912 565 
Q 3275 0 1925 0 
L 628 0 
L 628 4666 
z
" transform="scale(0.015625)"/>
      </defs>
      <use xlink:href="#DejaVuSans-42"/>
      <use xlink:href="#DejaVuSans-61" transform="translate(68.603516 0)"/>
      <use xlink:href="#DejaVuSans-63" transform="translate(129.882812 0)"/>
      <use xlink:href="#DejaVuSans-6b" transform="translate(184.863281 0)"/>
      <use xlink:href="#DejaVuSans-62" transform="translate(242.773438 0)"/>
      <use xlink:href="#DejaVuSans-6f" transform="translate(306.25 0)"/>
      <use xlink:href="#DejaVuSans-6e" transform="translate(367.431641 0)"/>
      <use xlink:href="#DejaVuSans-65" transform="translate(430.810547 0)"/>
      <use xlink:href="#DejaVuSans-20" transform="translate(492.333984 0)"/>
      <use xlink:href="#DejaVuSans-52" transform="translate(524.121094 0)"/>
      <use xlink:href="#DejaVuSans-4d" transform="translate(593.603516 0)"/>
      <use xlink:href="#DejaVuSans-53" transform="translate(679.882812 0)"/>
      <use xlink:href="#DejaVuSans-44" transform="translate(743.359375 0)"/>
      <use xlink:href="#DejaVuSans-20" transform="translate(820.361328 0)"/>
      <use xlink:href="#DejaVuSans-28" transform="translate(852.148438 0)"/>
      <use xlink:href="#DejaVuSans-6e" transform="translate(891.162109 0)"/>
      <use xlink:href="#DejaVuSans-6d" transform="translate(954.541016 0)"/>
      <use xlink:href="#DejaVuSans-29" transform="translate(1051.953125 0)"/>
     </g>
    </g>
   </g>
   <g id="line2d_12">
    <path d="M 46.079205 126.659425 
L 46.227263 115.137161 
L 46.391772 109.478643 
L 46.441125 112.783845 
L 46.506928 109.873574 
L 46.589183 103.643994 
L 46.687888 104.936448 
L 46.72079 103.701984 
L 46.770143 105.943745 
L 46.803044 104.372822 
L 46.819495 104.168688 
L 46.835946 104.337278 
L 46.852397 102.000172 
L 46.951103 103.221451 
L 46.967554 103.362904 
L 47.066259 96.878899 
L 47.099161 99.658408 
L 47.115612 99.60705 
L 47.313023 90.321231 
L 47.329474 90.660642 
L 47.362375 93.420343 
L 47.411728 90.088387 
L 47.44463 87.652116 
L 47.510434 90.495503 
L 47.691394 95.639709 
L 47.592688 90.344594 
L 47.757197 95.144094 
L 47.905255 88.277455 
L 48.020412 90.789041 
L 48.036863 89.179368 
L 48.119117 91.820527 
L 48.201372 87.028103 
L 48.300077 88.015476 
L 48.316528 89.287636 
L 48.365881 85.991589 
L 48.481037 83.147337 
L 48.596194 85.781209 
L 48.629095 85.667927 
L 48.793605 79.379603 
L 48.826506 80.731102 
L 48.908761 79.794772 
L 48.941663 80.232177 
L 49.237779 73.390373 
L 49.352935 76.291587 
L 49.43519 73.841955 
L 49.451641 74.728068 
L 49.468092 76.144228 
L 49.517445 74.022568 
L 49.649052 68.806792 
L 49.731306 70.951028 
L 49.79711 70.634997 
L 49.813561 69.737582 
L 49.846463 72.192043 
L 49.862914 71.548218 
L 49.879365 72.525613 
L 49.928717 69.677375 
L 50.027423 67.667171 
L 50.076775 68.02021 
L 50.126128 66.569895 
L 50.15903 67.388828 
L 50.323539 75.865614 
L 50.372892 77.169241 
L 50.422244 75.098577 
L 50.553851 82.201168 
L 50.586754 82.05263 
L 50.636106 80.273325 
L 50.669008 82.26131 
L 50.685459 81.728744 
L 50.70191 82.254097 
L 50.767713 81.424627 
L 50.784164 81.809977 
L 50.849968 81.05123 
L 50.817066 82.358331 
L 50.866419 81.15571 
L 50.915772 84.699355 
L 50.998026 83.239038 
L 51.228339 72.53742 
L 51.277692 73.983271 
L 51.343495 73.136438 
L 51.442201 67.722502 
L 51.475103 68.750532 
L 51.557357 70.360041 
L 51.590259 72.834508 
L 51.672513 72.139747 
L 51.738317 75.811183 
L 51.804121 78.140276 
L 51.820572 75.226114 
L 51.837023 75.595108 
L 51.869924 77.740739 
L 51.935728 75.30637 
L 52.083786 70.2994 
L 52.100237 70.750126 
L 52.379903 76.510468 
L 52.412804 73.490884 
L 52.495059 75.801546 
L 52.51151 75.982339 
L 52.527961 75.242587 
L 52.593765 71.569893 
L 52.626666 74.355256 
L 52.659568 75.450785 
L 52.708921 74.134924 
L 52.807626 69.826782 
L 52.840528 70.162419 
L 52.939233 72.735697 
L 52.955685 72.699184 
L 53.005037 71.58399 
L 53.037939 73.359645 
L 53.05439 73.359512 
L 53.07084 74.233908 
L 53.103742 71.479544 
L 53.153095 68.786588 
L 53.202448 71.769888 
L 53.218899 71.363572 
L 53.251801 72.249607 
L 53.268252 71.898221 
L 53.301154 73.196822 
L 53.350506 72.359885 
L 53.482113 67.041041 
L 53.498564 67.834721 
L 53.547917 67.725338 
L 53.630172 70.637528 
L 53.646623 69.866876 
L 53.695975 72.663855 
L 53.728877 73.152183 
L 53.745328 72.969121 
L 53.844034 68.134099 
L 53.876935 68.899341 
L 53.893386 72.329751 
L 53.992092 69.770785 
L 54.090797 68.25543 
L 54.057896 71.403343 
L 54.123699 68.34333 
L 54.14015 69.380003 
L 54.189503 66.111116 
L 54.222404 64.976944 
L 54.255306 65.309168 
L 54.304658 63.987493 
L 54.337561 66.017013 
L 54.370463 62.110719 
L 54.419815 65.120343 
L 54.551422 59.782522 
L 54.567873 60.85965 
L 54.600775 56.733893 
L 54.617226 57.139585 
L 54.650128 56.436246 
L 54.732382 57.952203 
L 54.781735 56.289933 
L 54.814637 58.427046 
L 54.847539 57.106589 
L 54.880441 57.8668 
L 54.929793 56.039279 
L 55.04495 52.516285 
L 55.077852 54.261105 
L 55.324615 62.681524 
L 55.423321 56.858633 
L 55.456223 59.351569 
L 55.78524 52.123679 
L 55.834593 52.463895 
L 56.064906 62.45548 
L 56.163611 60.35148 
L 56.262317 56.98791 
L 56.31167 57.592941 
L 56.344571 61.661542 
L 56.426826 59.154149 
L 56.459728 59.609201 
L 56.476179 59.055643 
L 56.541982 61.265901 
L 56.591335 60.872562 
L 56.607786 60.770196 
L 56.739394 55.349911 
L 56.755844 57.503031 
L 56.788746 58.437126 
L 56.821648 59.743272 
L 56.85455 57.133245 
L 56.871001 57.642745 
L 56.920353 57.239149 
L 56.936804 57.649632 
L 57.03551 54.518143 
L 57.051961 55.855072 
L 57.068411 55.882447 
L 57.101313 54.246002 
L 57.150666 55.963447 
L 57.282273 61.992677 
L 57.315175 61.598593 
L 57.331626 60.445488 
L 57.380979 62.521778 
L 57.397429 62.444677 
L 57.413881 63.184098 
L 57.430331 61.917934 
L 57.561939 58.674352 
L 57.627743 58.215882 
L 57.709997 60.833704 
L 57.808702 56.818647 
L 57.841605 57.413258 
L 57.874506 59.147912 
L 57.923859 56.036408 
L 57.94031 56.834147 
L 58.006114 57.643954 
L 57.973212 56.3979 
L 58.022564 57.020527 
L 58.170622 51.186415 
L 58.219975 50.749548 
L 58.285779 52.037388 
L 58.384484 47.394044 
L 58.433837 48.61773 
L 58.450288 48.622912 
L 58.466738 47.355039 
L 58.516092 49.776026 
L 58.614797 54.700783 
L 58.66415 52.666411 
L 58.6806 53.549059 
L 58.713502 50.967629 
L 58.746404 51.589016 
L 58.779306 47.893352 
L 58.828659 49.371768 
L 58.861561 54.171664 
L 58.943815 53.091403 
L 59.075423 57.823667 
L 59.108325 56.465518 
L 59.124775 55.718406 
L 59.157677 59.046144 
L 59.20703 60.116114 
L 59.190579 58.877906 
L 59.256382 59.816878 
L 59.289285 57.46632 
L 59.355088 58.899693 
L 59.420892 61.499756 
L 59.470244 60.513602 
L 59.536048 60.536771 
L 59.717007 53.284842 
L 59.848616 57.175262 
L 59.897968 55.518721 
L 59.963772 56.491378 
L 59.996673 57.854881 
L 60.078927 57.408356 
L 60.226986 53.993312 
L 60.243437 54.780027 
L 60.309241 52.943894 
L 60.342142 54.256874 
L 60.358593 54.160426 
L 60.4902 57.635294 
L 60.407945 53.597309 
L 60.506652 57.58416 
L 60.523103 55.22255 
L 60.588906 57.701837 
L 60.621807 55.866457 
L 60.769866 62.090408 
L 60.852121 56.991095 
L 60.901473 57.652033 
L 60.917924 59.065177 
L 60.967276 57.447885 
L 61.000179 58.034775 
L 61.049531 54.976514 
L 61.148237 51.013619 
L 61.181138 52.45749 
L 61.362099 58.528715 
L 61.378549 56.098844 
L 61.411452 56.660864 
L 61.444353 56.157902 
L 61.510156 51.689734 
L 61.55951 55.617149 
L 61.608862 54.477128 
L 61.658215 59.486802 
L 61.724018 56.0899 
L 61.74047 56.10119 
L 61.756921 57.157086 
L 61.839176 57.119256 
L 61.904979 57.156302 
L 61.970783 55.888843 
L 61.987233 55.818487 
L 62.003684 55.073849 
L 62.053036 57.27091 
L 62.085939 55.580293 
L 62.11884 56.304585 
L 62.135291 55.49949 
L 62.168194 56.024929 
L 62.184645 54.603801 
L 62.250448 57.938572 
L 62.283349 58.470716 
L 62.299801 60.510782 
L 62.365604 57.551866 
L 62.382056 55.713241 
L 62.414957 60.037343 
L 62.464309 58.583193 
L 62.513663 54.403901 
L 62.595917 55.687734 
L 62.628818 58.360094 
L 62.694622 55.584498 
L 62.711073 58.09886 
L 62.727525 56.489686 
L 62.809778 57.157955 
L 63.056542 63.169563 
L 63.072994 63.015658 
L 63.138797 60.866055 
L 63.204601 62.107314 
L 63.221051 62.092534 
L 63.303306 59.342582 
L 63.336208 59.917678 
L 63.418463 62.567153 
L 63.451364 60.487036 
L 63.55007 58.486947 
L 63.632323 53.380007 
L 63.698127 54.051087 
L 63.813284 60.616876 
L 63.895539 60.553273 
L 63.977792 56.837951 
L 64.010695 58.805578 
L 64.109401 63.898568 
L 64.158753 61.845267 
L 64.175205 61.624698 
L 64.208106 58.277148 
L 64.273909 61.723759 
L 64.290361 61.318201 
L 64.306812 62.631638 
L 64.339713 61.513594 
L 64.487771 66.007682 
L 64.520674 64.915872 
L 64.553575 66.044065 
L 64.685182 69.433461 
L 64.734534 74.083278 
L 64.83324 71.449776 
L 64.882593 70.618809 
L 65.080003 59.728306 
L 65.096455 59.655845 
L 65.112906 60.23039 
L 65.162258 59.328391 
L 65.195161 57.615568 
L 65.228062 61.26693 
L 65.244513 61.086339 
L 65.277416 63.42404 
L 65.326768 59.85228 
L 65.359669 59.569223 
L 65.37612 60.007764 
L 65.392572 59.636924 
L 65.409023 60.270118 
L 65.425472 59.109028 
L 65.491276 59.731663 
L 65.672237 50.673829 
L 65.721589 53.181511 
L 65.738041 54.476057 
L 65.787393 50.272683 
L 65.803844 50.201027 
L 65.935451 55.966551 
L 65.951903 54.363356 
L 66.001255 50.315552 
L 66.067059 53.549334 
L 66.165765 58.925661 
L 66.198666 57.109576 
L 66.215117 56.071087 
L 66.248018 57.450158 
L 66.313822 56.665177 
L 66.330273 56.610053 
L 66.396076 59.522557 
L 66.494782 59.228559 
L 66.609938 56.136562 
L 66.62639 56.766037 
L 66.642841 57.17305 
L 66.659291 56.767087 
L 66.790898 52.49677 
L 66.938956 55.50249 
L 67.087015 53.186857 
L 67.136367 54.188283 
L 67.152818 53.490393 
L 67.169269 51.67204 
L 67.235073 55.045101 
L 67.383132 58.238157 
L 67.481836 54.446719 
L 67.514739 56.23849 
L 67.646346 60.566595 
L 67.662797 63.21557 
L 67.745052 59.857277 
L 67.860208 54.448062 
L 67.893109 55.402801 
L 67.958912 55.269362 
L 68.041167 60.527612 
L 68.057618 59.886623 
L 68.090521 62.910369 
L 68.123422 66.525334 
L 68.172774 63.353851 
L 68.189226 62.404674 
L 68.222128 64.603151 
L 68.238578 64.501663 
L 68.287932 69.248316 
L 68.353735 66.864883 
L 68.370185 65.862282 
L 68.403087 69.560434 
L 68.43599 67.915213 
L 68.584047 70.326624 
L 68.485342 66.894487 
L 68.600498 70.194321 
L 68.715654 66.536392 
L 68.633401 70.347241 
L 68.748557 68.554579 
L 68.781458 69.824071 
L 68.81436 66.609296 
L 68.945967 62.603235 
L 69.028222 67.230825 
L 69.061123 63.347778 
L 69.176281 60.139933 
L 69.258536 60.065234 
L 69.307888 63.807418 
L 69.439495 58.436911 
L 69.455946 58.661896 
L 69.752061 68.943024 
L 69.488847 58.112965 
L 69.784964 68.235673 
L 69.834316 67.185541 
L 69.850768 68.322209 
L 69.867219 69.797402 
L 69.933023 67.216066 
L 69.949472 67.454282 
L 70.06463 69.86527 
L 70.081081 69.785445 
L 70.196237 66.470421 
L 70.113982 70.699242 
L 70.229138 67.50415 
L 70.278492 68.636858 
L 70.327844 66.932244 
L 70.360745 68.269719 
L 70.377196 67.188636 
L 70.393647 64.685985 
L 70.443 67.373329 
L 70.492354 65.75899 
L 70.64041 69.047672 
L 70.689764 69.747374 
L 70.706214 68.352928 
L 70.722665 69.224716 
L 70.837823 66.650298 
L 70.788469 69.925925 
L 70.854272 67.364798 
L 70.870724 67.40335 
L 70.936527 62.503472 
L 71.002331 64.059919 
L 71.018782 63.119695 
L 71.068134 65.706772 
L 71.298448 71.605954 
L 71.3478 70.521672 
L 71.380703 72.400383 
L 71.446506 72.997861 
L 71.413604 71.312068 
L 71.462956 72.348741 
L 71.545211 70.729371 
L 71.561662 70.903988 
L 71.594565 72.10923 
L 71.660368 71.742849 
L 71.841328 64.9985 
L 71.972935 68.748397 
L 72.005837 70.49929 
L 72.038738 67.380112 
L 72.05519 65.018476 
L 72.120993 67.413573 
L 72.137444 67.183152 
L 72.2526 62.485846 
L 72.334855 65.307321 
L 72.367756 65.688789 
L 72.384207 65.309142 
L 72.466462 65.789386 
L 72.515816 63.077901 
L 72.614521 68.57143 
L 72.663871 67.999042 
L 72.77903 62.911643 
L 72.713225 68.103285 
L 72.828381 65.241502 
L 73.091595 71.279464 
L 73.108047 71.097711 
L 73.124498 68.620855 
L 73.223202 69.742601 
L 73.239654 71.130096 
L 73.289008 66.651903 
L 73.305459 67.986921 
L 73.32191 68.095189 
L 73.338361 68.028982 
L 73.453517 64.167748 
L 73.469969 65.826755 
L 73.552222 68.941957 
L 73.601576 68.422389 
L 73.650926 66.037786 
L 73.70028 67.65308 
L 73.86479 71.637684 
L 73.914141 73.584285 
L 73.996397 73.353408 
L 74.078651 70.678836 
L 74.0293 73.77277 
L 74.128004 72.049505 
L 74.144456 73.163649 
L 74.177355 69.580264 
L 74.308965 63.745498 
L 74.341865 66.285728 
L 74.358316 67.618401 
L 74.40767 63.84808 
L 74.555728 56.72513 
L 74.57218 57.437939 
L 74.588628 59.716612 
L 74.654433 55.144076 
L 74.670884 56.403125 
L 74.78604 60.26154 
L 74.720238 55.976894 
L 74.835394 58.263551 
L 74.851845 57.550299 
L 74.901196 59.516958 
L 74.934098 61.587984 
L 74.9999 59.753959 
L 75.180861 52.20059 
L 75.246666 54.459481 
L 75.279566 60.305873 
L 75.345371 56.332063 
L 75.460527 52.364903 
L 75.476978 53.423837 
L 75.49343 53.291918 
L 75.625037 45.476023 
L 75.641488 46.503774 
L 75.805998 56.796377 
L 75.855348 55.263117 
L 75.986955 48.594487 
L 76.003407 48.760112 
L 76.135014 44.028515 
L 76.167916 46.314953 
L 76.21727 47.884029 
L 76.283072 47.043196 
L 76.381777 36.808424 
L 76.431131 38.432796 
L 76.447582 38.262879 
L 76.464033 38.919759 
L 76.480485 38.504744 
L 76.496936 36.450828 
L 76.529835 41.355053 
L 76.562738 40.667424 
L 76.677894 45.935711 
L 76.694345 44.844753 
L 76.76015 45.040491 
L 76.809501 43.238985 
L 77.006913 53.874598 
L 77.023364 53.769059 
L 77.154972 48.074326 
L 77.187874 50.834526 
L 77.220774 48.690776 
L 77.253676 50.728062 
L 77.46754 61.289307 
L 77.483988 60.9495 
L 77.582696 58.468624 
L 77.599147 59.473162 
L 77.615595 60.798117 
L 77.697851 59.459079 
L 77.714303 60.657293 
L 77.780105 62.984293 
L 77.829458 60.837277 
L 77.84591 60.104669 
L 77.878812 62.137099 
L 77.895261 62.080762 
L 77.911712 63.61045 
L 77.977517 61.306898 
L 78.026868 54.898505 
L 78.092673 59.637165 
L 78.109124 58.546164 
L 78.142027 61.79752 
L 78.174926 64.610684 
L 78.257183 64.255446 
L 78.273634 63.086225 
L 78.322985 65.684355 
L 78.339436 67.31106 
L 78.38879 65.008408 
L 78.421692 65.539055 
L 78.569748 58.759381 
L 78.586199 59.236492 
L 78.684907 63.112808 
L 78.701358 60.994939 
L 78.717806 60.777616 
L 78.800062 63.840664 
L 78.816514 61.884693 
L 78.915218 57.997436 
L 78.964572 60.37115 
L 78.997471 63.538574 
L 79.046825 59.807004 
L 79.063277 60.600955 
L 79.178432 58.364519 
L 79.096179 62.556155 
L 79.211335 59.126696 
L 79.227786 59.606166 
L 79.244238 58.107696 
L 79.392296 53.950739 
L 79.573254 57.316306 
L 79.589705 57.248287 
L 79.65551 54.194933 
L 79.704861 56.529375 
L 79.852919 62.363749 
L 79.869371 61.666251 
L 79.918725 64.140494 
L 80.000978 64.934621 
L 79.951624 62.827629 
L 80.017429 64.39624 
L 80.083231 64.855859 
L 80.099682 63.320179 
L 80.23129 68.200775 
L 80.280643 66.475022 
L 80.395799 67.506974 
L 80.461604 69.336225 
L 80.494504 67.326581 
L 80.510955 67.080192 
L 80.527406 68.248478 
L 80.543858 68.130354 
L 80.560309 68.067913 
L 80.708367 63.208021 
L 80.74127 65.484654 
L 80.823523 64.586257 
L 80.905777 63.841133 
L 80.856426 64.728838 
L 80.922228 64.166009 
L 80.988033 66.692625 
L 81.037387 65.272255 
L 81.070286 63.321608 
L 81.152543 64.215778 
L 81.168994 63.543033 
L 81.218345 65.457482 
L 81.234796 66.274142 
L 81.300601 64.762613 
L 81.317049 65.122327 
L 81.333501 65.620193 
L 81.366403 63.648043 
L 81.530913 54.082348 
L 81.580267 56.586234 
L 81.613166 55.802359 
L 81.629617 56.657929 
L 81.66252 59.562268 
L 81.711874 56.604475 
L 81.744773 57.607575 
L 81.761224 56.115704 
L 81.794127 60.107686 
L 81.82703 59.515051 
L 81.843481 59.556096 
L 81.87638 61.748496 
L 81.942185 59.97012 
L 81.991539 55.119581 
L 82.057341 57.241728 
L 82.073793 58.931747 
L 82.156046 57.059372 
L 82.172497 57.69062 
L 82.221851 60.614737 
L 82.304104 59.523091 
L 82.36991 55.208346 
L 82.435712 55.211187 
L 82.600221 61.636182 
L 82.616673 64.091443 
L 82.698926 61.436226 
L 82.74828 58.102915 
L 82.814085 60.760236 
L 82.846984 62.036188 
L 82.912789 60.989619 
L 82.929241 59.829089 
L 82.962143 62.981181 
L 83.011494 60.704131 
L 83.12665 65.693132 
L 83.159552 64.037611 
L 83.176004 64.228067 
L 83.291159 61.884129 
L 83.307611 61.990834 
L 83.356965 61.72536 
L 83.406315 63.045947 
L 83.521471 60.776984 
L 83.63663 65.024519 
L 83.685981 64.91224 
L 83.702432 65.044641 
L 83.834039 58.035791 
L 83.883393 60.074402 
L 83.949195 61.962655 
L 83.982098 60.851618 
L 84.064351 53.628239 
L 84.113705 55.690355 
L 84.130156 56.916563 
L 84.17951 54.219071 
L 84.195961 55.309322 
L 84.212409 53.639778 
L 84.294666 56.356915 
L 84.311117 56.317997 
L 84.344017 53.375307 
L 84.442724 54.154189 
L 84.475627 55.385089 
L 84.492075 54.982109 
L 84.673036 62.269303 
L 84.72239 62.737418 
L 84.788192 58.296935 
L 84.837546 53.628652 
L 84.8869 56.800341 
L 84.903348 59.272639 
L 84.985604 55.209555 
L 85.10076 59.590396 
L 85.133663 58.670073 
L 85.215916 57.14172 
L 85.183013 59.069623 
L 85.232367 57.354157 
L 85.26527 60.330273 
L 85.347523 59.932734 
L 85.380426 57.25724 
L 85.429779 60.952741 
L 85.528484 63.842153 
L 85.561386 62.893535 
L 85.660091 65.598147 
L 85.594286 61.904914 
L 85.676542 64.327868 
L 85.725893 62.438668 
L 85.775247 63.823073 
L 85.890403 65.667948 
L 85.824601 63.518577 
L 85.906854 65.46346 
L 86.02201 62.056899 
L 86.054912 62.879693 
L 86.18652 66.904697 
L 86.334578 62.964249 
L 86.351029 63.15217 
L 86.367481 62.70762 
L 86.416831 64.273265 
L 86.433283 65.139367 
L 86.515539 63.708805 
L 86.614244 60.42166 
L 86.696497 61.883225 
L 86.762302 63.43316 
L 86.795205 61.86244 
L 86.91036 57.44254 
L 87.025516 61.606694 
L 87.041968 60.243277 
L 87.091318 63.161282 
L 87.140672 60.886017 
L 87.239377 62.269625 
L 87.255828 60.835529 
L 87.338084 62.755349 
L 87.502591 58.971991 
L 87.519042 59.091996 
L 87.650649 63.806618 
L 87.667101 63.139507 
L 87.749357 60.762801 
L 87.798708 61.673637 
L 87.880964 64.110765 
L 87.913864 62.386751 
L 87.930315 62.47435 
L 87.99612 59.605783 
L 88.045474 61.828377 
L 88.061922 62.724191 
L 88.094825 60.992964 
L 88.127727 61.710106 
L 88.16063 59.667531 
L 88.193529 63.733993 
L 88.226432 65.970898 
L 88.275786 62.308794 
L 88.325136 60.759349 
L 88.440295 55.610413 
L 88.473195 56.982835 
L 88.571902 62.011198 
L 88.588354 59.047439 
L 88.604802 57.376221 
L 88.687058 60.106317 
L 88.719961 60.820886 
L 88.736409 60.145378 
L 88.818665 58.373411 
L 88.785763 60.532488 
L 88.851568 58.997902 
L 88.868019 58.930098 
L 89.065429 65.597054 
L 89.08188 65.318095 
L 89.131234 64.694534 
L 89.114782 65.395187 
L 89.180584 65.325859 
L 89.197036 65.495905 
L 89.262841 67.774501 
L 89.29574 66.389614 
L 89.312192 65.517964 
L 89.328643 67.017135 
L 89.377997 66.911863 
L 89.394448 68.40862 
L 89.476701 66.284213 
L 89.575406 64.261967 
L 89.608308 65.349894 
L 89.756367 67.830296 
L 89.772818 66.616187 
L 89.855071 68.638029 
L 89.871523 68.439731 
L 89.887974 68.503863 
L 90.00313 71.375525 
L 90.019581 70.619705 
L 90.036032 69.831964 
L 90.052484 72.016488 
L 90.101837 71.837872 
L 90.315698 67.966205 
L 90.381503 68.230564 
L 90.397951 68.241407 
L 90.51311 60.71184 
L 90.595363 61.560807 
L 90.726971 67.176761 
L 90.743422 66.267091 
L 90.759873 69.109545 
L 90.809224 67.506518 
L 90.89148 69.386786 
L 90.924383 67.893081 
L 91.105341 70.945855 
L 90.973734 67.705771 
L 91.138243 70.466122 
L 91.171146 70.984786 
L 91.335655 66.069787 
L 91.565967 72.77106 
L 91.59887 71.455807 
L 91.763376 66.359291 
L 91.779828 67.684849 
L 91.796279 68.326987 
L 91.862084 67.16594 
L 91.878535 67.318993 
L 92.075945 61.749925 
L 92.092396 63.254876 
L 92.174649 72.233682 
L 92.256905 70.155601 
L 92.306256 71.565985 
L 92.35561 71.040904 
L 92.437866 71.684906 
L 92.470766 69.535083 
L 92.503668 71.240223 
L 92.553022 68.898407 
L 92.569474 66.808614 
L 92.635276 71.439653 
L 92.651727 69.872923 
L 92.73398 63.932877 
L 92.799785 65.768528 
L 92.816237 65.841665 
L 92.849139 65.666054 
L 92.865587 63.500435 
L 92.964295 64.601826 
L 93.013646 67.893753 
L 93.079451 66.686474 
L 93.194607 63.26565 
L 93.211058 63.729831 
L 93.392019 69.844115 
L 93.556526 64.021806 
L 93.589428 65.366487 
L 93.605879 66.609223 
L 93.655233 64.606698 
L 93.671685 64.666419 
L 93.704584 62.334825 
L 93.753938 65.398871 
L 93.770389 65.278673 
L 93.869094 69.438484 
L 93.934899 67.66709 
L 93.984249 68.91252 
L 94.033603 68.371983 
L 94.115857 66.369277 
L 94.099405 68.749878 
L 94.132308 68.204804 
L 94.231013 70.473061 
L 94.181662 68.035481 
L 94.247464 69.6243 
L 94.296818 66.733881 
L 94.362623 69.108671 
L 94.461327 67.720591 
L 94.395522 69.141581 
L 94.477779 68.47317 
L 94.510678 69.073639 
L 94.560032 68.518205 
L 94.609386 64.654216 
L 94.691639 66.21619 
L 94.70809 66.905954 
L 94.740993 65.046182 
L 94.773896 66.147392 
L 94.790344 65.574392 
L 94.806795 66.565781 
L 94.921951 72.368411 
L 94.938402 71.975783 
L 95.102912 68.87547 
L 94.971305 72.462673 
L 95.119363 69.21127 
L 95.25097 71.501629 
L 95.366126 69.40396 
L 95.382577 69.896841 
L 95.399029 69.905127 
L 95.431931 69.971067 
L 95.547087 67.712167 
L 95.57999 71.482617 
L 95.645792 67.793771 
L 95.711597 69.267057 
L 95.728048 67.889797 
L 95.760948 67.356056 
L 95.777399 68.270025 
L 95.79385 69.250907 
L 95.843204 66.6398 
L 95.876107 67.719153 
L 95.925457 65.487176 
L 95.991262 67.053755 
L 96.139321 71.304807 
L 96.17222 70.708543 
L 96.188671 72.277266 
L 96.238025 73.530465 
L 96.254477 72.052096 
L 96.287379 72.503757 
L 96.369632 69.981268 
L 96.402535 68.193738 
L 96.468337 69.869002 
L 96.583493 74.705329 
L 96.665749 74.64207 
L 96.7151 73.18712 
L 96.748003 76.219999 
L 96.764454 75.563072 
L 96.863158 73.577588 
L 97.011217 69.033434 
L 97.060571 68.904971 
L 97.142824 71.11615 
L 97.22508 68.124772 
L 97.274431 68.459151 
L 97.323785 68.744876 
L 97.340236 68.490103 
L 97.373139 70.505157 
L 97.406038 66.792297 
L 97.438941 68.720816 
L 97.455392 67.552762 
L 97.504746 69.333957 
L 97.537645 68.490559 
L 97.586999 71.12283 
L 97.603451 70.658188 
L 97.619902 72.401399 
L 97.702155 71.548489 
L 97.718606 69.647315 
L 97.76796 72.6745 
L 97.784412 72.421934 
L 97.833762 72.005413 
L 97.850213 73.631894 
L 97.965369 69.128599 
L 97.981821 69.84585 
L 97.998272 69.31173 
L 98.047626 70.470289 
L 98.064077 70.264988 
L 98.228584 72.958946 
L 98.245035 72.309698 
L 98.277937 74.464397 
L 98.294389 75.604681 
L 98.343743 72.892188 
L 98.47535 69.956993 
L 98.557603 72.893871 
L 98.574054 73.255187 
L 98.590506 72.024683 
L 98.606957 71.248078 
L 98.672759 72.883847 
L 98.738564 74.818266 
L 98.771467 73.386469 
L 98.870168 68.696304 
L 99.001778 65.514749 
L 99.133382 68.702768 
L 99.149837 69.143401 
L 99.199187 67.530724 
L 99.215642 67.495753 
L 99.264993 65.186343 
L 99.330798 65.636217 
L 99.413051 68.037203 
L 99.396597 65.533085 
L 99.429499 66.250512 
L 99.528207 66.270845 
L 99.561109 63.613058 
L 99.626915 65.394244 
L 99.659811 65.227943 
L 99.692714 61.390675 
L 99.774973 62.661742 
L 99.840772 61.352299 
L 99.873675 62.630235 
L 99.890129 62.681029 
L 99.955928 64.026829 
L 99.93948 62.345031 
L 100.005285 63.719948 
L 100.021733 63.31934 
L 100.087538 63.902752 
L 100.252045 68.105308 
L 100.268499 65.838032 
L 100.284947 65.702334 
L 100.416557 71.982687 
L 100.465908 71.200473 
L 100.630415 63.472673 
L 100.663317 64.467449 
L 100.712674 62.775575 
L 100.729122 63.48936 
L 100.778473 62.477759 
L 100.794927 63.600391 
L 100.811376 65.022057 
L 100.893629 64.690729 
L 100.942986 61.525082 
L 101.008791 63.623474 
L 101.07459 60.885247 
L 101.091044 58.475567 
L 101.15685 63.191768 
L 101.239103 65.844217 
L 101.2062 62.00577 
L 101.255551 63.963845 
L 101.403609 55.560915 
L 101.436512 56.244064 
L 101.502317 62.666575 
L 101.568122 58.516758 
L 101.58457 55.447564 
L 101.683278 57.144539 
L 101.798434 53.897113 
L 101.716181 58.586327 
L 101.831336 55.275237 
L 101.995843 63.084658 
L 101.864233 54.118081 
L 102.012291 61.677029 
L 102.16035 55.839982 
L 102.29196 59.380967 
L 102.324862 57.971258 
L 102.555174 51.615986 
L 102.374213 58.504069 
L 102.588077 52.479364 
L 102.620979 55.483986 
L 102.686778 51.774759 
L 102.719681 50.465937 
L 102.769038 48.135617 
L 102.834837 49.461747 
L 102.966447 42.115307 
L 102.982895 43.583681 
L 103.015798 47.113988 
L 103.098051 45.672996 
L 103.196759 40.119384 
L 103.130953 45.977819 
L 103.246109 43.474686 
L 103.311914 42.319424 
L 103.328369 44.478286 
L 103.37772 38.786927 
L 103.459973 41.905847 
L 103.509323 41.383344 
L 103.575129 45.158589 
L 103.608031 42.462255 
L 103.690285 44.601945 
L 103.821895 37.767295 
L 103.871246 39.205691 
L 103.937051 42.928532 
L 104.002856 47.989167 
L 104.068655 47.89686 
L 104.101557 46.645154 
L 104.150914 47.41074 
L 104.298973 55.221513 
L 104.348323 54.060711 
L 104.331869 55.863293 
L 104.414129 55.075054 
L 104.430577 55.099218 
L 104.595089 60.223499 
L 104.611538 60.162956 
L 104.710245 64.525258 
L 104.64444 59.823433 
L 104.743142 62.960332 
L 104.792499 63.094558 
L 104.858304 60.975127 
L 104.874752 60.558761 
L 104.8912 61.638446 
L 104.957005 61.27175 
L 104.97346 61.741144 
L 104.989908 60.920132 
L 105.02281 58.330572 
L 105.088615 60.882036 
L 105.121518 62.17684 
L 105.154414 60.152299 
L 105.22022 55.609768 
L 105.269577 58.055005 
L 105.335375 58.985011 
L 105.401181 54.228686 
L 105.450531 58.261304 
L 105.516336 56.165181 
L 105.59859 57.391363 
L 105.763102 64.934759 
L 105.828908 62.409434 
L 105.845356 62.027114 
L 105.861804 62.851526 
L 105.894706 62.570432 
L 106.059219 69.719608 
L 106.24018 64.926943 
L 106.141473 70.124529 
L 106.256628 65.150291 
L 106.388232 69.094566 
L 106.421135 68.922868 
L 106.717252 61.580004 
L 106.733706 61.760035 
L 106.750154 60.470969 
L 106.81596 62.332527 
L 106.832408 61.700431 
L 106.86531 65.590313 
L 106.980466 64.779589 
L 107.013369 60.86655 
L 107.112076 61.969236 
L 107.128525 61.940635 
L 107.177882 62.054726 
L 107.276583 59.062392 
L 107.32594 63.013364 
L 107.441096 62.446119 
L 107.457544 61.158598 
L 107.506895 62.691337 
L 107.523349 65.269109 
L 107.622057 64.354571 
L 107.638505 63.666292 
L 107.671407 65.103604 
L 107.687856 66.47637 
L 107.737213 62.521855 
L 107.852369 57.486524 
L 107.95107 58.819037 
L 107.983973 61.348085 
L 108.066226 60.490794 
L 108.164934 55.863366 
L 108.247187 56.410446 
L 108.312992 59.026951 
L 108.345895 56.726357 
L 108.378797 55.585079 
L 108.4117 53.587168 
L 108.493953 53.597352 
L 108.642011 60.9182 
L 108.691362 60.393812 
L 108.905226 65.30535 
L 108.971031 63.935959 
L 108.987479 66.551443 
L 109.003927 65.242638 
L 109.020381 65.296582 
L 109.03683 63.793503 
L 109.102635 65.896918 
L 109.119089 64.935215 
L 109.365849 71.348215 
L 109.481005 67.787775 
L 109.497459 68.333142 
L 109.513907 70.589881 
L 109.54681 67.483124 
L 109.596161 67.984386 
L 109.67842 69.01518 
L 109.727771 66.348785 
L 109.760674 65.201877 
L 109.777122 65.47633 
L 109.941635 60.190624 
L 110.073239 57.960863 
L 109.990985 62.101228 
L 110.089693 58.040616 
L 110.221297 63.324243 
L 110.237745 62.915594 
L 110.270648 60.237789 
L 110.369355 60.340487 
L 110.385804 60.621219 
L 110.402258 60.014746 
L 110.418706 58.700564 
L 110.468063 60.768612 
L 110.484511 60.57306 
L 110.550316 64.920839 
L 110.599667 63.423635 
L 110.68192 59.781717 
L 110.714823 61.040689 
L 110.76418 62.295631 
L 110.813531 61.172621 
L 110.829979 59.284432 
L 110.928687 60.604618 
L 110.945135 61.352794 
L 110.961589 59.398308 
L 111.01094 59.464606 
L 111.043842 57.871259 
L 111.060291 58.907015 
L 111.093193 61.295303 
L 111.158998 59.337421 
L 111.241251 56.347485 
L 111.274154 57.855923 
L 111.290608 57.900742 
L 111.372862 55.520628 
L 111.323511 58.685237 
L 111.38931 57.381102 
L 111.734784 66.734303 
L 111.488018 57.173691 
L 111.784134 65.626313 
L 111.89929 62.235945 
L 111.915739 62.436619 
L 111.948641 61.02812 
L 111.997998 59.831947 
L 111.981544 61.310884 
L 112.030894 60.972497 
L 112.063797 63.906905 
L 112.129602 61.6267 
L 112.146057 61.396645 
L 112.162505 64.145164 
L 112.244758 60.279032 
L 112.294115 60.235861 
L 112.343466 61.874617 
L 112.442167 58.011382 
L 112.47507 60.179192 
L 112.524427 58.664947 
L 112.573777 59.930539 
L 112.688933 63.901263 
L 112.705388 62.23112 
L 112.787641 60.282096 
L 112.804089 62.32462 
L 112.820543 62.875367 
L 112.869894 61.157418 
L 112.886342 61.360873 
L 112.952147 59.255469 
L 112.968602 58.149572 
L 113.034401 60.578603 
L 113.050855 60.210281 
L 113.083758 61.466648 
L 113.100206 61.894171 
L 113.133108 59.930345 
L 113.166011 60.71979 
L 113.198914 60.09325 
L 113.297615 63.326941 
L 113.445673 57.979259 
L 113.560829 59.447376 
L 113.708888 55.952756 
L 113.610186 60.486339 
L 113.758245 57.256659 
L 113.873401 59.437227 
L 113.824044 56.749815 
L 113.889849 58.871828 
L 113.906303 58.845499 
L 113.955654 61.723647 
L 113.988556 58.339197 
L 114.005005 58.62695 
L 114.021459 58.399697 
L 114.12016 62.874868 
L 114.153063 62.735068 
L 114.20242 57.864256 
L 114.284673 59.957547 
L 114.301121 58.756614 
L 114.383375 60.323003 
L 114.465634 64.151521 
L 114.514985 63.327906 
L 114.630141 61.109125 
L 114.646589 63.296868 
L 114.728849 59.964146 
L 114.745297 62.016057 
L 114.82755 60.307155 
L 114.860453 60.497655 
L 115.041414 63.481173 
L 115.057862 62.784579 
L 115.156569 58.445421 
L 115.173024 60.50767 
L 115.189472 61.561117 
L 115.238823 58.120695 
L 115.255277 57.90892 
L 115.304628 60.894987 
L 115.370433 59.903745 
L 115.403335 60.434439 
L 115.419784 59.701431 
L 115.436238 60.311373 
L 115.452686 59.372703 
L 115.502037 62.688143 
L 115.534939 59.976994 
L 115.551394 60.128867 
L 115.732349 53.142778 
L 115.896861 50.026634 
L 115.929764 50.264896 
L 115.962667 52.632985 
L 115.995569 49.987689 
L 116.04492 50.843789 
L 116.127173 51.0327 
L 116.192978 47.704372 
L 116.258783 46.801675 
L 116.29168 48.900072 
L 116.308134 46.550879 
L 116.373939 50.797949 
L 116.390387 49.836091 
L 116.604251 57.855415 
L 116.670056 53.894483 
L 116.735855 54.963115 
L 116.80166 56.25559 
L 116.834563 54.522835 
L 116.851011 56.064867 
L 116.883913 55.132523 
L 116.916816 58.058818 
L 116.93327 57.433006 
L 116.949718 57.526187 
L 117.015524 62.692392 
L 117.048426 58.003832 
L 117.064874 57.732789 
L 117.196485 64.425672 
L 117.229387 63.060133 
L 117.311641 65.981693 
L 117.344543 63.607351 
L 117.360991 63.05279 
L 117.377439 64.504667 
L 117.410342 66.715033 
L 117.492602 65.693855 
L 117.541952 63.843401 
L 117.591303 66.030219 
L 117.607757 64.666513 
L 117.706459 65.78834 
L 117.64066 64.313544 
L 117.722913 65.464459 
L 117.88742 60.199215 
L 117.903874 60.53647 
L 117.953225 62.293251 
L 117.986127 60.450472 
L 118.051933 57.927962 
L 118.101283 58.876571 
L 118.26579 65.728422 
L 118.315147 67.279639 
L 118.331595 65.327689 
L 118.348043 64.187298 
L 118.3974 67.634623 
L 118.413848 67.266512 
L 118.446751 65.042037 
L 118.545459 61.55157 
L 118.578361 62.068082 
L 118.627712 64.061172 
L 118.660614 62.870968 
L 118.792219 56.835094 
L 118.808673 57.566096 
L 118.858024 56.446292 
L 118.890926 57.444726 
L 118.923829 54.823009 
L 119.006082 55.846998 
L 119.022536 56.122677 
L 119.038985 54.929977 
L 119.137692 52.646061 
L 119.15414 52.846154 
L 119.318647 59.805321 
L 119.335101 58.943669 
L 119.35155 61.289875 
L 119.384452 61.107162 
L 119.417355 61.60984 
L 119.433809 59.662676 
L 119.466705 61.393675 
L 119.565413 55.664151 
L 119.581861 58.923771 
L 119.614764 58.132962 
L 119.680569 60.033658 
L 119.697023 57.740837 
L 119.713471 56.506451 
L 119.779277 59.54425 
L 119.812179 57.632419 
L 119.86153 59.792805 
L 119.894432 59.286528 
L 119.910881 59.021326 
L 119.927335 59.782431 
L 119.960238 59.362179 
L 119.993134 60.384863 
L 120.042491 59.646402 
L 120.075394 57.398379 
L 120.124744 60.043924 
L 120.141192 59.46637 
L 120.157647 61.81252 
L 120.206998 56.127553 
L 120.2399 57.860662 
L 120.272803 59.58582 
L 120.322153 57.514768 
L 120.420861 55.315718 
L 120.453764 56.130575 
L 120.486666 58.299018 
L 120.536017 56.079669 
L 120.56892 56.516712 
L 120.651173 58.650588 
L 120.667627 59.575787 
L 120.733426 57.112649 
L 120.782783 56.046604 
L 120.815679 57.385488 
L 120.832134 56.864564 
L 120.865036 57.762612 
L 120.897939 56.437812 
L 120.914387 54.607162 
L 120.94729 56.871821 
L 120.980192 55.770366 
L 121.0789 62.687132 
L 121.128251 61.250798 
L 121.32566 66.527013 
L 121.177601 60.414653 
L 121.375011 64.396352 
L 121.391465 63.030017 
L 121.473718 64.544791 
L 121.490173 63.556919 
L 121.523069 63.457208 
L 121.621777 65.647899 
L 121.753387 63.945634 
L 121.819186 65.716516 
L 121.83564 63.381303 
L 121.950796 60.661192 
L 121.967244 61.196823 
L 122.016601 58.614291 
L 122.0824 59.124308 
L 122.115303 60.620561 
L 122.148205 58.248672 
L 122.230458 57.141453 
L 122.246913 58.441456 
L 122.263361 59.509412 
L 122.312718 58.052921 
L 122.345614 58.618694 
L 122.378517 57.954661 
L 122.411419 55.196858 
L 122.444322 58.168179 
L 122.510127 55.680869 
L 122.54303 57.317425 
L 122.575932 54.501271 
L 122.608829 56.242678 
L 122.691088 55.120308 
L 122.658186 57.612275 
L 122.723991 55.608403 
L 122.773341 56.882913 
L 122.78979 56.627554 
L 122.806244 59.562694 
L 122.904945 58.830947 
L 122.954302 59.678356 
L 122.970751 59.64023 
L 123.085906 61.649658 
L 123.102361 61.580654 
L 123.184614 59.942082 
L 123.233965 58.148169 
L 123.316218 63.806966 
L 123.414926 63.841684 
L 123.447828 62.296707 
L 123.562984 67.163805 
L 123.579432 66.810461 
L 123.711043 60.245382 
L 123.727491 61.294158 
L 123.760393 62.185745 
L 123.80975 60.689269 
L 123.974257 55.504242 
L 123.990705 57.006796 
L 124.040062 52.681992 
L 124.122315 50.427763 
L 124.138764 51.980866 
L 124.253919 55.882593 
L 124.319725 53.390514 
L 124.336179 53.338166 
L 124.451335 57.179696 
L 124.467783 56.3485 
L 124.484237 56.501321 
L 124.51714 55.896535 
L 124.533588 58.214406 
L 124.632296 57.602539 
L 124.648744 58.687699 
L 124.698095 54.881477 
L 124.780354 55.45789 
L 124.747452 54.828325 
L 124.796802 55.118035 
L 124.879056 51.900394 
L 125.027114 41.291928 
L 125.092919 45.784333 
L 125.14227 42.270981 
L 125.158724 41.462778 
L 125.191627 43.06454 
L 125.306783 52.087356 
L 125.372582 51.735544 
L 125.421939 53.969966 
L 125.537095 46.95091 
L 125.569997 48.187573 
L 125.6029 47.475992 
L 125.685153 43.498566 
L 125.718055 44.138053 
L 125.816757 53.56634 
L 125.89901 52.08931 
L 125.915465 51.661357 
L 125.931913 53.803501 
L 125.964815 55.700328 
L 125.98127 52.894908 
L 126.112874 43.738757 
L 126.129328 45.174859 
L 126.178679 46.382357 
L 126.211581 44.522606 
L 126.22803 44.810156 
L 126.244484 44.851098 
L 126.35964 41.907892 
L 126.376088 42.909499 
L 126.573503 49.664686 
L 126.721556 44.654822 
L 126.754458 44.266718 
L 126.787361 47.938503 
L 126.836718 43.490457 
L 126.886068 46.350174 
L 126.918971 45.588518 
L 126.968322 46.67536 
L 127.132828 51.518324 
L 127.149283 50.863287 
L 127.182185 53.354428 
L 127.198633 53.548452 
L 127.215088 52.892157 
L 127.264439 51.27732 
L 127.297341 52.259106 
L 127.313789 53.656698 
L 127.346692 49.231473 
L 127.363146 49.390255 
L 127.379594 48.599781 
L 127.428945 50.127623 
L 127.511205 54.824154 
L 127.593458 53.999165 
L 127.659263 52.052229 
L 127.62636 54.97208 
L 127.692159 54.321536 
L 127.708614 53.982039 
L 127.725062 54.378653 
L 127.741516 54.15975 
L 127.757964 56.56436 
L 127.856672 56.32753 
L 127.87312 54.389633 
L 127.906023 57.175955 
L 127.955374 56.699998 
L 128.004731 58.033867 
L 128.037633 56.474075 
L 128.086984 57.450076 
L 128.103432 55.677137 
L 128.169237 59.137027 
L 128.185692 59.122474 
L 128.235042 54.919832 
L 128.251491 52.645854 
L 128.33375 53.056276 
L 128.383101 55.750399 
L 128.448906 54.881408 
L 128.465354 54.451975 
L 128.514705 54.998297 
L 128.531159 55.7095 
L 128.58051 53.548052 
L 128.71212 49.20836 
L 128.728568 50.306346 
L 128.761471 45.855597 
L 128.777925 45.767094 
L 128.794373 44.676309 
L 128.860179 46.385951 
L 128.893081 48.229001 
L 128.942432 46.375819 
L 129.024685 44.122885 
L 129.057588 44.875507 
L 129.074036 45.737516 
L 129.123393 42.918727 
L 129.156295 42.669712 
L 129.172744 45.420013 
L 129.287899 50.686337 
L 129.304354 48.717764 
L 129.320802 48.231829 
L 129.353704 50.306742 
L 129.386607 52.014546 
L 129.435958 49.663162 
L 129.452412 50.239149 
L 129.485309 48.125171 
L 129.534666 50.363884 
L 129.649821 53.605474 
L 129.616919 49.840477 
L 129.699172 53.175128 
L 129.814328 52.15797 
L 129.830782 52.158939 
L 129.863685 54.422904 
L 129.913036 50.974064 
L 129.929484 51.243338 
L 130.028192 56.717684 
L 129.978841 51.096027 
L 130.093997 56.392898 
L 130.258503 45.919166 
L 130.274958 44.966351 
L 130.307854 48.009474 
L 130.406562 52.742359 
L 130.340756 47.510632 
L 130.455912 51.074399 
L 130.505269 48.032467 
L 130.603971 49.515455 
L 130.620425 50.375342 
L 130.636873 47.91681 
L 130.669776 49.268829 
L 130.702678 45.651565 
L 130.784932 48.175194 
L 130.93299 54.685507 
L 130.965893 52.258766 
L 130.982341 52.630872 
L 131.015244 49.627588 
L 131.097503 51.742827 
L 131.179756 45.926616 
L 131.212659 48.510345 
L 131.245562 51.443345 
L 131.31136 49.3073 
L 131.327815 47.420962 
L 131.393614 48.889703 
L 131.410068 50.970616 
L 131.426516 48.101438 
L 131.508776 49.726705 
L 131.607477 46.029943 
L 131.558126 49.851535 
L 131.673282 47.622842 
L 131.722633 49.231107 
L 131.755536 47.164562 
L 131.837789 42.05432 
L 131.887146 45.876593 
L 131.969399 50.942208 
L 132.01875 50.09161 
L 132.035204 48.990701 
L 132.068107 51.964884 
L 132.117458 49.274756 
L 132.133906 49.971686 
L 132.166808 48.417013 
L 132.216159 49.053181 
L 132.413574 45.521286 
L 132.430023 45.46036 
L 132.610984 52.188637 
L 132.627432 51.84246 
L 132.643886 52.952864 
L 132.660334 53.812157 
L 132.709691 51.145994 
L 132.9071 42.356281 
L 132.940003 43.530142 
L 133.005808 46.682566 
L 133.022256 48.508016 
L 133.055159 42.668111 
L 133.104509 47.924867 
L 133.186763 48.772005 
L 133.219665 46.145506 
L 133.28547 47.037287 
L 133.318373 46.827307 
L 133.433529 44.609766 
L 133.581587 54.112146 
L 133.598036 52.923643 
L 133.663841 47.172159 
L 133.713198 41.874883 
L 133.778997 44.069878 
L 133.877704 46.236793 
L 133.894152 45.391145 
L 133.927055 42.478103 
L 133.976412 45.771648 
L 133.99286 45.61362 
L 134.042211 47.592054 
L 134.091568 46.64406 
L 134.12447 43.840698 
L 134.173821 48.78026 
L 134.190269 48.817892 
L 134.206724 48.639139 
L 134.223172 48.442584 
L 134.272529 44.58438 
L 134.338328 45.936481 
L 134.354782 47.222927 
L 134.420581 44.212601 
L 134.453483 42.532417 
L 134.486386 44.216527 
L 134.535743 43.660571 
L 134.683801 47.873019 
L 134.733152 48.005975 
L 134.831854 43.980084 
L 134.864756 45.381551 
L 134.881211 43.923807 
L 134.930561 42.11207 
L 134.979912 42.889816 
L 135.012815 45.291132 
L 135.095074 43.403521 
L 135.12797 43.20799 
L 135.177327 44.048172 
L 135.292483 40.713066 
L 135.308931 42.527596 
L 135.325386 43.226072 
L 135.374737 40.76305 
L 135.391185 39.215754 
L 135.424087 44.848946 
L 135.489892 46.350252 
L 135.522795 45.89186 
L 135.539243 44.126995 
L 135.572146 46.771938 
L 135.621503 45.962668 
L 135.637951 45.714958 
L 135.654399 46.326613 
L 135.703756 46.093985 
L 135.736659 47.494319 
L 135.786009 45.583331 
L 135.802457 45.449755 
L 135.818912 46.939771 
L 135.901165 44.58067 
L 135.91762 46.427512 
L 135.999873 47.937422 
L 135.950516 45.094074 
L 136.016321 47.46827 
L 136.082126 43.878553 
L 136.131477 45.248362 
L 136.147931 46.354801 
L 136.180834 43.022355 
L 136.197282 43.36332 
L 136.29599 40.959601 
L 136.263087 43.432324 
L 136.328892 41.959013 
L 136.378243 40.93344 
L 136.411146 42.028022 
L 136.509847 46.576076 
L 136.444048 41.877281 
L 136.54275 44.980378 
L 136.592107 43.854815 
L 136.625003 45.13709 
L 136.740165 49.063623 
L 136.756613 48.80139 
L 136.871769 52.009566 
L 136.789516 47.82303 
L 136.904672 51.875662 
L 137.05273 44.447791 
L 137.069178 44.912325 
L 137.184334 41.72681 
L 137.217236 43.795887 
L 137.365295 48.69041 
L 137.398197 46.418637 
L 137.464003 49.187984 
L 137.595607 52.072149 
L 137.743665 49.215152 
L 137.875275 53.093279 
L 137.891724 50.992808 
L 137.941081 46.972595 
L 138.056236 47.509426 
L 138.204295 55.120571 
L 138.220743 55.118763 
L 138.253645 57.308258 
L 138.319451 55.355162 
L 138.418152 47.833967 
L 138.451055 50.245101 
L 138.533308 56.175506 
L 138.582665 53.279199 
L 138.64847 52.863276 
L 138.730723 57.483666 
L 138.862327 51.675875 
L 138.89523 52.721802 
L 138.911684 53.470284 
L 138.928132 51.198458 
L 138.977483 51.769302 
L 138.993938 51.802995 
L 139.010386 51.623923 
L 139.092639 53.199972 
L 139.076191 51.560815 
L 139.125542 52.16917 
L 139.158444 49.922554 
L 139.224249 52.607943 
L 139.240697 52.954852 
L 139.257152 51.920405 
L 139.2736 51.031869 
L 139.306503 53.797574 
L 139.372308 57.824976 
L 139.40521 55.295351 
L 139.487464 53.670088 
L 139.438113 55.641042 
L 139.503912 55.427744 
L 139.520366 55.978314 
L 139.553269 54.272537 
L 139.586171 52.765597 
L 139.619074 54.645991 
L 139.65197 54.607335 
L 139.73423 57.995693 
L 139.767132 55.492758 
L 139.865834 59.771847 
L 139.898736 57.729035 
L 139.997444 52.702455 
L 140.046795 50.18056 
L 140.096145 52.090338 
L 140.145502 55.623817 
L 140.227756 55.546797 
L 140.392262 49.482399 
L 140.425165 50.052687 
L 140.540321 52.808045 
L 140.556775 52.484525 
L 140.688379 46.328387 
L 140.721282 47.66776 
L 140.918691 53.213379 
L 140.951593 51.985088 
L 141.00095 49.392639 
L 141.066749 51.264812 
L 141.132554 52.722869 
L 141.099652 50.473585 
L 141.165457 51.340355 
L 141.198359 50.589605 
L 141.231262 52.19756 
L 141.346418 55.437101 
L 141.37932 55.026937 
L 141.461574 53.671487 
L 141.478022 55.282826 
L 141.560275 57.899838 
L 141.593178 57.31755 
L 141.62608 54.344241 
L 141.642535 52.62361 
L 141.708334 56.156439 
L 141.724788 55.890879 
L 141.741236 56.721377 
L 141.790593 57.686058 
L 141.807041 55.327624 
L 141.823496 55.53633 
L 141.839944 54.950689 
L 141.856392 56.43987 
L 141.889295 59.537983 
L 141.938652 56.839135 
L 142.00445 53.432596 
L 142.037353 56.523616 
L 142.103158 55.96442 
L 142.136061 58.022065 
L 142.152509 56.588054 
L 142.201866 59.626615 
L 142.218314 61.205909 
L 142.267665 58.807209 
L 142.300567 59.007823 
L 142.317022 58.773985 
L 142.33347 59.618102 
L 142.366372 59.473649 
L 142.563781 65.390099 
L 142.399275 58.798248 
L 142.580236 64.741591 
L 142.596684 64.800085 
L 142.728294 61.63044 
L 142.744742 62.239944 
L 142.826996 63.444575 
L 142.777645 62.222305 
L 142.859898 62.632245 
L 142.892801 63.517776 
L 142.909255 62.258366 
L 142.975054 62.826764 
L 143.09021 57.94935 
L 143.123113 58.816222 
L 143.22182 61.386087 
L 143.238269 60.033663 
L 143.369879 56.118045 
L 143.485035 57.976767 
L 143.501483 56.91358 
L 143.534385 60.405239 
L 143.616639 58.509824 
L 143.633093 59.335024 
L 143.682444 56.63803 
L 144.340483 67.81137 
L 144.422736 66.660727 
L 144.455639 64.778607 
L 144.488541 67.195798 
L 144.521444 65.926866 
L 144.570794 67.765195 
L 144.587243 65.535331 
L 144.6366 66.230295 
L 144.653048 65.745247 
L 144.68595 67.353663 
L 144.784658 69.709385 
L 144.81756 68.824185 
L 144.965619 63.605857 
L 144.998515 66.188239 
L 145.031418 66.032268 
L 145.047872 67.620178 
L 145.163028 69.420604 
L 145.195931 68.614614 
L 145.228833 70.287602 
L 145.245281 70.979909 
L 145.261736 68.255722 
L 145.294632 66.37393 
L 145.343989 69.384019 
L 145.376892 69.305157 
L 145.475593 71.530833 
L 145.492047 70.425013 
L 145.52495 73.502045 
L 145.574301 72.212419 
L 145.705905 74.340325 
L 145.722359 74.594677 
L 145.738807 73.839304 
L 145.788164 73.945566 
L 145.919768 68.407802 
L 145.936223 69.647736 
L 146.002022 67.56496 
L 146.034924 65.807993 
L 146.084281 67.655636 
L 146.133632 69.525506 
L 146.182983 67.741402 
L 146.199437 67.631141 
L 146.232333 67.625386 
L 146.380392 70.832 
L 146.462651 68.278285 
L 146.495554 69.739635 
L 146.512002 69.989575 
L 146.544904 68.884177 
L 146.561353 69.525898 
L 146.627158 70.286483 
L 146.692963 67.640016 
L 146.725865 66.877985 
L 146.742314 68.498552 
L 146.890372 72.825426 
L 146.906826 71.964282 
L 146.939723 72.522962 
L 146.956177 71.439029 
L 146.972625 70.163886 
L 147.021982 72.496698 
L 147.054879 72.08656 
L 147.104236 75.255658 
L 147.153586 71.850449 
L 147.219392 72.606119 
L 147.23584 71.686709 
L 147.285197 68.245405 
L 147.350996 69.591502 
L 147.416801 70.853844 
L 147.449703 69.139188 
L 147.680015 64.797933 
L 147.696469 68.49182 
L 147.795171 66.745657 
L 147.811625 66.915763 
L 147.877424 69.964654 
L 147.910327 67.041239 
L 147.943229 65.746099 
L 148.009034 66.069606 
L 148.025482 67.376415 
L 148.091288 64.554273 
L 148.107742 65.088965 
L 148.173541 65.746585 
L 148.140645 64.3809 
L 148.206443 64.809171 
L 148.239346 65.424899 
L 148.321599 69.132779 
L 148.370956 67.812791 
L 148.50256 63.268985 
L 148.519015 64.867175 
L 148.551917 66.10617 
L 148.568365 65.477199 
L 148.584814 67.571115 
L 148.617716 65.443846 
L 148.667073 65.678312 
L 148.683521 65.210292 
L 148.699969 67.310789 
L 148.716424 68.411358 
L 148.765775 66.245291 
L 148.815132 68.090364 
L 148.848028 69.33997 
L 148.897385 68.269702 
L 148.930287 69.087688 
L 149.028989 65.546897 
L 149.045443 68.885688 
L 149.144145 67.448247 
L 149.177047 68.7498 
L 149.20995 66.459269 
L 149.226404 65.88834 
L 149.2593 68.374143 
L 149.275755 68.275836 
L 149.292203 68.515958 
L 149.325106 71.130677 
L 149.390911 69.182019 
L 149.456716 69.356119 
L 149.538969 66.668306 
L 149.571872 65.58613 
L 149.604774 65.9832 
L 149.654125 64.676301 
L 149.687028 66.640902 
L 149.752833 64.703925 
L 149.802184 64.501788 
L 149.818632 65.44141 
L 149.917339 63.091145 
L 149.933794 63.548762 
L 150.065398 67.426214 
L 150.081846 66.767406 
L 150.197008 61.223277 
L 150.279261 62.019371 
L 150.295709 63.324746 
L 150.345067 61.291834 
L 150.394417 56.906306 
L 150.47667 57.431672 
L 150.641177 62.994688 
L 150.772787 60.312299 
L 150.80569 60.539706 
L 150.822138 61.18824 
L 150.855041 58.612006 
L 150.871495 58.482256 
L 150.887943 57.226818 
L 150.953748 59.202665 
L 151.167612 63.154597 
L 151.249865 59.831912 
L 151.282768 61.319032 
L 151.299216 62.26174 
L 151.381469 61.205754 
L 151.397924 61.193164 
L 151.414378 63.090267 
L 151.496625 61.017274 
L 151.513079 62.216774 
L 151.545976 61.180209 
L 151.578885 62.563128 
L 151.628235 65.359191 
L 151.661132 61.119558 
L 151.69404 63.603021 
L 151.759846 62.246185 
L 151.726937 64.117574 
L 151.776287 63.062552 
L 151.809196 65.571629 
L 151.891443 63.537343 
L 151.907898 63.704182 
L 151.940807 61.650601 
L 152.023054 61.785223 
L 152.088859 66.188424 
L 152.138209 63.166563 
L 152.18756 59.467421 
L 152.26982 60.525666 
L 152.286274 60.304599 
L 152.302716 61.536906 
L 152.40143 66.386193 
L 152.434326 64.604356 
L 152.467235 61.723557 
L 152.549482 64.294829 
L 152.598833 62.11325 
L 152.631742 64.633117 
L 152.648196 65.016474 
L 152.664638 64.55834 
L 152.697547 64.823474 
L 152.713989 63.128105 
L 152.763352 64.943772 
L 152.812703 63.786211 
L 152.829145 64.359091 
L 152.862053 62.090102 
L 152.977209 57.33249 
L 153.010106 58.932991 
L 153.02656 58.733018 
L 153.075911 58.316824 
L 153.141716 60.137032 
L 153.240417 57.942024 
L 153.191066 60.444747 
L 153.273326 58.979355 
L 153.28978 58.930774 
L 153.322677 58.21423 
L 153.355586 60.054805 
L 153.372027 60.867389 
L 153.421378 58.946424 
L 153.717495 45.862169 
L 153.750404 46.651713 
L 153.766858 45.009742 
L 153.7833 43.225939 
L 153.816209 46.275841 
L 153.882014 44.405476 
L 153.980716 46.813774 
L 153.99717 44.009706 
L 154.095872 45.420663 
L 154.260378 38.422379 
L 154.276832 39.098874 
L 154.391988 41.587157 
L 154.309729 38.502351 
L 154.408443 40.916619 
L 154.424885 41.174811 
L 154.441339 40.92169 
L 154.523599 42.239345 
L 154.605846 35.549401 
L 154.786807 40.936707 
L 154.836157 42.86192 
L 154.901962 41.069694 
L 154.918417 41.119928 
L 154.984222 40.88448 
L 155.033573 43.412159 
L 155.132274 48.904251 
L 155.148729 50.238193 
L 155.214534 47.662681 
L 155.24743 46.693567 
L 155.346144 41.367953 
L 155.362586 42.738683 
L 155.428391 44.94474 
L 155.4613 42.600987 
L 155.691612 37.077466 
L 155.740962 37.460832 
L 155.757417 39.192072 
L 155.823222 36.358683 
L 155.839664 36.552213 
L 155.905469 32.598908 
L 155.954819 35.548346 
L 155.971274 35.613499 
L 155.987728 35.256965 
L 156.053533 37.530202 
L 156.08643 36.363375 
L 156.102884 34.698488 
L 156.13578 37.534903 
L 156.185131 36.722469 
L 156.201586 36.117997 
L 156.21804 38.00557 
L 156.283845 41.340535 
L 156.316741 39.376868 
L 156.382547 36.015657 
L 156.448352 37.291901 
L 156.629313 45.575859 
L 156.678664 44.651284 
L 156.744469 40.791122 
L 156.826716 41.330158 
L 156.908975 42.941642 
L 156.92543 41.887593 
L 157.073482 38.518527 
L 157.155741 42.191185 
L 157.221546 41.399739 
L 157.237988 41.526997 
L 157.435404 30.042817 
L 157.484754 34.645856 
L 157.517663 37.132951 
L 157.583468 35.676835 
L 157.731521 30.538513 
L 157.747975 30.62807 
L 157.928936 35.0769 
L 157.945378 34.920046 
L 157.978287 37.607187 
L 158.060534 36.063674 
L 158.126339 34.641905 
L 158.142793 35.874953 
L 158.3073 41.110015 
L 158.175702 35.218167 
L 158.356651 40.434214 
L 158.52117 31.615491 
L 158.537612 31.934616 
L 158.554066 32.593498 
L 158.57052 30.774641 
L 158.636326 32.194942 
L 158.652767 31.508527 
L 158.685676 33.927917 
L 158.702131 36.165851 
L 158.800832 35.77445 
L 158.850183 33.988955 
L 158.899533 34.631919 
L 159.080494 41.672517 
L 159.113403 44.076701 
L 159.162754 41.71617 
L 159.212105 36.780124 
L 159.27791 40.329149 
L 159.524676 53.118089 
L 159.689183 46.173995 
L 159.787884 51.555478 
L 159.820793 50.599388 
L 159.985299 44.877999 
L 160.001741 45.906051 
L 160.018196 45.923793 
L 160.051105 45.322488 
L 160.084001 46.304688 
L 160.199157 49.532362 
L 160.215611 47.712404 
L 160.232066 47.721485 
L 160.478819 42.846038 
L 160.495274 43.350713 
L 160.610429 50.839317 
L 160.643338 48.445894 
L 160.807845 42.045794 
L 160.972351 46.040703 
L 160.988806 45.537608 
L 161.120404 42.860276 
L 161.038157 46.016509 
L 161.136858 42.86981 
L 161.153312 43.644865 
L 161.219118 41.644712 
L 161.252014 43.542671 
L 161.36717 47.097898 
L 161.383624 45.486672 
L 161.400079 45.622 
L 161.41652 43.89827 
L 161.449429 46.007505 
L 161.49878 45.231528 
L 161.613936 54.881357 
L 161.646832 52.649001 
L 161.663286 52.659395 
L 161.712637 54.791847 
L 161.761988 52.573531 
L 161.794897 53.837582 
L 161.811351 53.533392 
L 161.827793 55.079487 
L 161.844247 54.999072 
L 161.910053 57.976113 
L 161.959403 55.90423 
L 161.975858 55.530162 
L 161.992312 57.423222 
L 162.008754 58.04019 
L 162.025209 55.701671 
L 162.074559 56.834082 
L 162.091014 56.475298 
L 162.12391 57.779325 
L 162.140364 57.861682 
L 162.189715 61.437001 
L 162.25552 60.376496 
L 162.370676 56.872837 
L 162.403585 60.516438 
L 162.485832 57.616562 
L 162.568092 54.498895 
L 162.600988 56.341687 
L 162.749052 58.96467 
L 162.798403 54.477882 
L 162.864208 58.082909 
L 162.88065 57.9444 
L 162.946455 61.93386 
L 162.995806 60.697825 
L 163.143871 54.508734 
L 163.160325 55.446536 
L 163.275481 58.633286 
L 163.209676 54.79161 
L 163.291923 56.664105 
L 163.341286 55.581769 
L 163.357728 55.599752 
L 163.489338 60.229077 
L 163.71965 68.132424 
L 163.785455 66.068457 
L 163.867715 63.669736 
L 163.900611 60.069228 
L 163.982871 61.57121 
L 163.999312 62.62949 
L 164.065118 61.376803 
L 164.180273 54.726079 
L 164.229624 56.438665 
L 164.328338 54.798609 
L 164.295429 56.6843 
L 164.361234 55.565572 
L 164.657351 62.236014 
L 164.69026 62.18012 
L 164.854767 58.092993 
L 164.723156 63.21158 
L 164.887663 59.86966 
L 164.937014 63.213582 
L 165.002819 60.71496 
L 165.216689 55.194895 
L 165.068624 61.467514 
L 165.249585 56.064088 
L 165.266039 57.53285 
L 165.31539 54.907096 
L 165.331845 55.086869 
L 165.381195 53.388358 
L 165.39765 55.255718 
L 165.447 54.258213 
L 165.627961 59.018222 
L 165.677312 57.935305 
L 165.759559 55.781251 
L 165.776013 57.168642 
L 165.891169 65.090381 
L 165.989883 64.195884 
L 166.006325 61.114122 
L 166.105039 62.304317 
L 166.253091 66.731255 
L 166.302442 65.046096 
L 166.335351 64.355884 
L 166.368247 65.835841 
L 166.401156 67.297028 
L 166.483403 66.341984 
L 166.565663 64.912881 
L 166.598559 67.38971 
L 166.64791 65.047787 
L 166.664364 63.508927 
L 166.763065 64.458995 
L 166.828871 67.833541 
L 166.91113 66.877451 
L 166.976935 63.73933 
L 167.009832 66.353786 
L 167.223701 71.327499 
L 167.305948 65.500816 
L 167.371754 65.886119 
L 167.552715 69.248536 
L 167.454013 65.321736 
L 167.569169 68.757126 
L 167.602065 66.825237 
L 167.684325 67.093892 
L 167.832377 70.426201 
L 167.898182 69.372371 
L 167.931091 67.340707 
L 167.996884 69.463711 
L 168.013338 70.274564 
L 168.046247 68.453534 
L 168.095598 68.928239 
L 168.161403 69.241051 
L 168.210753 67.712684 
L 168.260104 70.643068 
L 168.342364 70.416362 
L 168.424611 67.552684 
L 168.441065 68.256411 
L 168.589117 76.434572 
L 168.605572 76.040454 
L 168.720728 73.688231 
L 168.737182 74.14278 
L 168.951039 72.43795 
L 168.967494 72.46424 
L 169.148455 67.007089 
L 169.263611 72.547801 
L 169.280065 71.375564 
L 169.296507 71.308543 
L 169.329416 68.106453 
L 169.411663 68.977268 
L 169.428117 69.1594 
L 169.444571 71.168205 
L 169.543273 69.943477 
L 169.625532 65.660398 
L 169.674883 67.182451 
L 169.724234 68.968294 
L 169.75713 66.044849 
L 169.773585 65.987706 
L 169.806493 63.841538 
L 169.872286 65.891977 
L 169.921649 66.749238 
L 169.954546 65.500975 
L 169.971 66.581327 
L 169.987454 66.002216 
L 170.036805 68.025878 
L 170.053247 69.766816 
L 170.119052 67.628602 
L 170.135507 68.317543 
L 170.151961 68.325829 
L 170.201312 66.146294 
L 170.267117 66.197845 
L 170.283559 68.19505 
L 170.349364 65.157342 
L 170.645481 55.631315 
L 170.67839 56.956153 
L 170.694831 57.839334 
L 170.760637 56.085105 
L 170.842896 52.688655 
L 170.875792 55.002442 
L 170.990948 57.602535 
L 171.040312 56.572469 
L 171.056753 56.438471 
L 171.073208 57.172538 
L 171.089662 57.870815 
L 171.171909 56.755604 
L 171.237714 55.520929 
L 171.270623 56.429096 
L 171.319974 58.385627 
L 171.402221 58.287164 
L 171.517377 54.192049 
L 171.468026 59.247476 
L 171.550286 55.313833 
L 171.583182 54.828152 
L 171.681896 58.176977 
L 171.813494 53.966707 
L 171.846403 53.281123 
L 171.994455 57.652877 
L 172.027364 57.185661 
L 172.06026 58.934484 
L 172.126065 61.580443 
L 172.158974 59.545512 
L 172.241221 56.696309 
L 172.257675 57.297144 
L 172.290571 59.381698 
L 172.372831 58.454244 
L 172.487987 53.951531 
L 172.422182 58.663247 
L 172.504441 56.239045 
L 172.636039 60.388672 
L 172.668948 59.600334 
L 172.685402 58.600083 
L 172.734753 62.287406 
L 172.767649 63.261621 
L 172.833455 65.648876 
L 172.882805 64.572406 
L 172.89926 62.820088 
L 172.981519 65.055315 
L 172.997961 63.140497 
L 173.080221 65.401243 
L 173.146026 64.157637 
L 173.162468 63.807814 
L 173.178922 65.250652 
L 173.211831 64.712284 
L 173.326987 66.703175 
L 173.52439 62.376404 
L 173.623104 65.864314 
L 173.656 64.641385 
L 173.78761 60.24041 
L 173.738259 64.843738 
L 173.820506 62.068405 
L 173.836961 62.029671 
L 173.968571 58.572149 
L 174.001467 59.141864 
L 174.034376 60.128669 
L 174.297584 52.209749 
L 174.330493 52.837443 
L 174.41274 51.394454 
L 174.478545 50.584991 
L 174.560805 56.642997 
L 174.577247 56.952641 
L 174.610156 55.577822 
L 174.62661 55.612703 
L 174.758208 53.034187 
L 174.774662 53.333118 
L 174.807558 50.465536 
L 174.856922 55.492285 
L 174.906272 57.020509 
L 174.939169 60.090904 
L 175.004974 56.519842 
L 175.021428 54.516051 
L 175.103675 55.349562 
L 175.136584 54.446104 
L 175.235285 56.942526 
L 175.25174 58.006694 
L 175.301091 56.179376 
L 175.317545 56.348961 
L 175.333999 56.013664 
L 175.366896 58.517998 
L 175.449155 57.863279 
L 175.531402 58.616327 
L 175.564311 56.422769 
L 175.679467 61.996344 
L 175.712363 61.060961 
L 175.778169 59.474118 
L 175.761714 61.222007 
L 175.827519 60.066654 
L 175.843974 60.959808 
L 175.87687 59.026848 
L 175.893324 57.362968 
L 175.992026 57.4023 
L 176.024935 56.752328 
L 176.041376 57.419672 
L 176.057831 59.431295 
L 176.14009 56.031204 
L 176.205896 56.538698 
L 176.222337 56.126223 
L 176.370402 53.375897 
L 176.403298 52.545158 
L 176.419753 54.474667 
L 176.502012 51.262961 
L 176.600714 54.046016 
L 176.617168 52.895863 
L 176.666519 51.442093 
L 176.71587 53.14063 
L 176.732324 52.473506 
L 176.748766 52.266853 
L 176.863922 56.74576 
L 176.880376 56.081481 
L 176.896831 56.441411 
L 176.929727 55.038877 
L 176.946182 55.311156 
L 176.962636 55.287978 
L 177.160039 50.256688 
L 177.192948 53.309952 
L 177.275195 50.97959 
L 177.423259 42.415795 
L 177.489064 45.14556 
L 177.521961 47.595614 
L 177.571311 43.317471 
L 177.587766 43.201607 
L 177.702922 39.356191 
L 177.719376 39.368432 
L 177.735831 39.45721 
L 177.818077 37.316198 
L 177.834532 39.578804 
L 177.867428 37.71496 
L 177.982584 41.924011 
L 178.031947 41.570353 
L 178.048389 39.169165 
L 178.114194 41.997772 
L 178.130649 41.473143 
L 178.262259 46.079049 
L 178.328064 40.640488 
L 178.393857 42.553615 
L 178.558376 48.712375 
L 178.591272 47.356778 
L 178.640623 46.031539 
L 178.722883 44.531163 
L 178.739337 44.88956 
L 178.755779 46.183482 
L 178.838038 44.887283 
L 178.854493 44.69684 
L 178.870935 45.75125 
L 178.887389 45.929741 
L 179.002545 43.385073 
L 179.018999 44.430845 
L 179.06835 42.330852 
L 179.084804 42.515054 
L 179.101246 42.429327 
L 179.134155 42.795425 
L 179.19996 46.214033 
L 179.282207 45.23606 
L 179.413818 42.542257 
L 179.446726 41.776201 
L 179.463168 43.958951 
L 179.479623 43.825375 
L 179.611233 48.677709 
L 179.627675 45.838337 
L 179.709935 47.465803 
L 179.82509 49.306207 
L 179.792194 47.267669 
L 179.841545 49.054265 
L 179.973155 43.245264 
L 180.006051 44.874947 
L 180.022506 46.416683 
L 180.071856 41.895173 
L 180.088311 41.492735 
L 180.203467 44.134183 
L 180.219909 43.434218 
L 180.269272 44.816372 
L 180.302168 47.708538 
L 180.351519 43.644513 
L 180.367973 42.912735 
L 180.40087 44.552038 
L 180.433778 43.942505 
L 180.466675 45.084759 
L 180.499584 42.663191 
L 180.53248 43.960905 
L 180.565389 41.989891 
L 180.631181 44.384468 
L 180.647636 43.392278 
L 180.762791 49.465651 
L 180.7957 47.330079 
L 180.877947 40.867117 
L 180.943753 41.900984 
L 180.993103 41.516985 
L 181.075363 46.5565 
L 181.124714 45.384176 
L 181.28922 41.323671 
L 181.190519 45.755624 
L 181.305675 42.997115 
L 181.322129 43.395046 
L 181.338571 41.731205 
L 181.355025 42.057975 
L 181.453727 39.752478 
L 181.404376 43.250098 
L 181.486636 40.775713 
L 181.535986 44.829598 
L 181.601791 41.382509 
L 181.667597 40.183112 
L 181.733402 42.879275 
L 181.799207 42.15438 
L 181.782752 43.013458 
L 181.832103 42.264352 
L 181.99661 45.563136 
L 182.013064 44.896907 
L 182.12822 41.059785 
L 182.161116 41.409725 
L 182.226921 44.836485 
L 182.424337 49.148927 
L 182.638194 45.151001 
L 182.523038 49.254884 
L 182.654649 45.707223 
L 182.819155 50.658614 
L 182.835609 50.322194 
L 182.852064 49.942616 
L 182.868506 50.756612 
L 182.917856 53.922 
L 182.950765 51.427407 
L 182.96722 49.164663 
L 183.033025 52.721613 
L 183.065921 54.977671 
L 183.131726 51.447189 
L 183.213973 49.235769 
L 183.164623 52.847837 
L 183.263337 50.573955 
L 183.312687 51.830283 
L 183.345584 52.685948 
L 183.362038 51.849222 
L 183.427843 50.198121 
L 183.444298 52.520456 
L 183.559453 55.273903 
L 183.575895 54.891299 
L 183.608804 52.921568 
L 183.691051 53.315746 
L 183.806207 55.077326 
L 183.921363 50.944984 
L 183.937817 52.917135 
L 184.069428 56.419382 
L 184.118778 57.468877 
L 184.135233 55.664805 
L 184.151675 55.576169 
L 184.21748 50.768607 
L 184.250389 53.193834 
L 184.34909 55.498767 
L 184.299739 53.056986 
L 184.365544 54.99587 
L 184.381999 55.466447 
L 184.398441 53.393686 
L 184.414895 52.835415 
L 184.447791 54.828122 
L 184.464246 54.08401 
L 184.546505 56.469401 
L 184.579402 55.050671 
L 184.760363 47.307327 
L 184.776817 48.101171 
L 184.957778 43.683108 
L 185.007129 45.156015 
L 185.155181 49.637281 
L 185.171635 49.220175 
L 185.204544 50.835111 
L 185.237441 49.533507 
L 185.286791 48.551936 
L 185.3197 50.718838 
L 185.401947 46.998101 
L 185.451298 47.114754 
L 185.484207 45.794224 
L 185.517103 47.300733 
L 185.648713 53.140539 
L 185.780323 49.254742 
L 185.796765 49.541289 
L 185.846129 52.180808 
L 185.879025 49.145351 
L 185.928376 47.005535 
L 185.977726 48.943893 
L 185.994181 50.073282 
L 186.043531 47.09798 
L 186.142245 42.067922 
L 186.240947 37.049058 
L 186.290298 38.465594 
L 186.323206 37.815157 
L 186.454804 43.605719 
L 186.471259 41.520028 
L 186.537064 44.764058 
L 186.56996 42.503863 
L 186.602869 41.939898 
L 186.635765 42.84921 
L 186.78383 33.330379 
L 186.833181 34.757115 
L 186.915428 42.756803 
L 186.997687 41.783445 
L 187.030583 45.257723 
L 187.096389 41.925931 
L 187.145752 41.165372 
L 187.195103 44.105892 
L 187.3267 36.588643 
L 187.343155 36.870336 
L 187.359609 37.278588 
L 187.392505 35.992332 
L 187.573466 28.322079 
L 187.606375 29.555324 
L 187.639272 29.550409 
L 187.655726 30.869381 
L 187.705077 29.30105 
L 187.721531 29.327546 
L 187.770882 28.008071 
L 187.820233 29.606643 
L 187.836687 29.178849 
L 187.853129 30.50977 
L 187.984739 34.388156 
L 188.03409 31.730404 
L 188.083453 35.065192 
L 188.182155 31.369162 
L 188.29731 31.964027 
L 188.396012 37.42821 
L 188.445362 36.193394 
L 188.461817 35.310514 
L 188.511168 38.472192 
L 188.642778 35.425302 
L 188.560518 39.437105 
L 188.675674 36.466396 
L 188.823739 40.20453 
L 188.708583 36.066855 
L 188.840193 39.296909 
L 189.0047 36.120317 
L 189.021154 36.088466 
L 189.070505 32.882249 
L 189.13631 34.365753 
L 189.152752 33.993612 
L 189.185661 35.015083 
L 189.202115 35.785899 
L 189.251466 33.034208 
L 189.267908 33.019974 
L 189.333713 34.159048 
L 189.350168 32.657432 
L 189.399518 30.796007 
L 189.448869 32.679228 
L 189.465323 32.407079 
L 189.498232 32.92028 
L 189.580479 35.77655 
L 189.613388 34.892964 
L 189.695635 35.77259 
L 189.744986 33.347631 
L 189.76144 33.384233 
L 189.794336 32.671007 
L 189.827245 33.992239 
L 189.925947 28.647949 
L 189.958856 30.594666 
L 190.123362 38.484691 
L 190.139817 38.205319 
L 190.205609 36.001052 
L 190.238518 38.663208 
L 190.254972 38.82823 
L 190.353674 35.625206 
L 190.370128 37.253232 
L 190.435933 36.574401 
L 190.419479 37.716139 
L 190.452375 36.993448 
L 190.46883 38.29779 
L 190.51818 36.348422 
L 190.534635 36.512851 
L 190.649791 29.673633 
L 190.715596 31.265861 
L 190.847206 33.837262 
L 190.880102 32.750002 
L 190.896557 33.048872 
L 190.945908 37.365989 
L 190.995258 33.782565 
L 191.011713 32.204209 
L 191.077518 35.517855 
L 191.143323 35.912175 
L 191.126869 34.781529 
L 191.176219 35.816256 
L 191.192674 34.867595 
L 191.242024 36.989497 
L 191.258479 36.044697 
L 191.307829 38.24413 
L 191.340726 35.755382 
L 191.472336 31.263326 
L 191.48879 32.686554 
L 191.505232 32.661422 
L 191.521687 31.423773 
L 191.587492 33.371725 
L 191.603946 32.970183 
L 191.636843 32.654066 
L 191.751999 35.998866 
L 191.801349 33.419381 
L 191.834258 35.451463 
L 191.900063 36.74192 
L 191.93296 36.64053 
L 191.965868 34.118748 
L 192.031661 37.057206 
L 192.048115 38.248163 
L 192.113921 36.472112 
L 192.130375 37.156319 
L 192.146817 36.955636 
L 192.179726 34.967457 
L 192.229076 37.726629 
L 192.245531 36.968135 
L 192.294881 36.550883 
L 192.344232 37.922211 
L 192.492297 33.98568 
L 192.607453 38.099608 
L 192.623895 37.780973 
L 192.640349 37.116122 
L 192.673245 39.380828 
L 192.6897 38.030926 
L 192.82131 41.450511 
L 192.887115 37.673829 
L 192.95292 39.81791 
L 193.133881 33.290368 
L 193.166778 35.582496 
L 193.265479 37.49292 
L 193.232583 35.420503 
L 193.281933 37.432243 
L 193.314842 36.31899 
L 193.347739 38.271776 
L 193.364193 40.157705 
L 193.44644 38.42086 
L 193.462894 38.358501 
L 193.479349 38.888368 
L 193.495791 36.889661 
L 193.5287 33.408698 
L 193.610959 33.53018 
L 193.66031 37.268387 
L 193.726115 35.970032 
L 193.791908 35.208242 
L 193.759011 36.391438 
L 193.824816 35.968379 
L 193.956427 39.691285 
L 193.972869 38.889444 
L 194.137388 33.968962 
L 194.20318 36.630093 
L 194.268985 36.389174 
L 194.28544 35.990064 
L 194.318336 37.422094 
L 194.33479 38.927937 
L 194.400596 36.47806 
L 194.41705 35.661486 
L 194.466401 36.717812 
L 194.614453 42.59308 
L 194.647362 39.454081 
L 194.762518 40.782307 
L 194.795414 43.857419 
L 194.828323 40.425572 
L 194.861219 40.930651 
L 194.877674 40.933832 
L 195.04218 46.443059 
L 195.075089 45.098653 
L 195.091531 43.956256 
L 195.157336 46.045739 
L 195.25605 48.996305 
L 195.223141 44.99481 
L 195.272492 48.743434 
L 195.305401 45.600896 
L 195.387648 46.592466 
L 195.404102 46.961839 
L 195.453453 46.208683 
L 195.469907 46.69457 
L 195.502803 46.226192 
L 195.535712 47.343582 
L 195.617959 48.11921 
L 195.601517 46.199786 
L 195.634414 47.323709 
L 195.650868 47.238568 
L 195.74957 43.936517 
L 195.700219 47.639598 
L 195.79892 44.702496 
L 195.831829 44.595192 
L 196.01279 49.094402 
L 196.029232 49.071314 
L 196.144388 44.88532 
L 196.177297 45.580718 
L 196.193751 48.129949 
L 196.259544 43.427379 
L 196.275998 43.475547 
L 196.358258 37.092496 
L 196.424063 38.41062 
L 196.456959 40.537674 
L 196.50631 38.003814 
L 196.522764 37.366157 
L 196.555661 39.359527 
L 196.572115 40.48147 
L 196.605024 36.281522 
L 196.621466 36.166652 
L 196.63792 36.497119 
L 196.654375 36.955163 
L 196.687271 35.01819 
L 196.703725 35.662717 
L 196.818881 32.388433 
L 196.835336 33.834633 
L 196.851777 33.713573 
L 196.868232 34.270574 
L 196.884686 34.888256 
L 196.966933 33.891035 
L 197.032738 31.840122 
L 197.114998 31.980878 
L 197.147894 33.12349 
L 197.197245 32.184014 
L 197.213699 31.073339 
L 197.26305 33.486088 
L 197.279505 33.125427 
L 197.39466 36.29156 
L 197.526271 39.748557 
L 197.444011 35.534297 
L 197.542725 38.445398 
L 197.641427 34.196495 
L 197.657881 36.439271 
L 197.690777 39.857151 
L 197.756582 37.191239 
L 197.888193 33.679957 
L 197.838842 37.334375 
L 197.904634 34.631549 
L 197.97044 36.624222 
L 198.036245 36.478925 
L 198.10205 35.398375 
L 198.118504 37.372239 
L 198.151401 38.260077 
L 198.200751 37.105232 
L 198.332362 33.82865 
L 198.348816 33.732856 
L 198.36527 34.209609 
L 198.381712 35.620898 
L 198.414621 31.970018 
L 198.463972 33.743612 
L 198.562673 30.322972 
L 198.579128 30.728423 
L 198.677829 37.301288 
L 198.710738 35.655051 
L 198.72718 33.342121 
L 198.825894 34.606675 
L 198.94105 39.285013 
L 198.957504 37.514277 
L 199.122011 35.073052 
L 199.270063 39.229075 
L 199.385219 34.152243 
L 199.418128 35.916596 
L 199.500375 38.651776 
L 199.549725 38.231816 
L 199.648439 34.37155 
L 199.681335 35.361764 
L 199.69779 35.357597 
L 199.763595 37.259409 
L 199.8294 37.11487 
L 199.862297 37.779407 
L 199.878751 36.210654 
L 199.960998 33.509761 
L 199.977452 34.246191 
L 199.993907 36.125327 
L 200.092608 34.824209 
L 200.109063 35.516926 
L 200.141959 32.815043 
L 200.191322 34.467572 
L 200.240673 33.463745 
L 200.224219 35.246037 
L 200.290024 34.457393 
L 200.40518 36.652505 
L 200.45453 34.968666 
L 200.503881 35.946441 
L 200.668387 38.872658 
L 200.684842 38.888472 
L 200.717751 37.410907 
L 200.767101 40.840956 
L 200.898712 42.843954 
L 200.964504 39.908922 
L 201.030309 40.944222 
L 201.046764 41.083261 
L 201.178374 37.822547 
L 201.326426 41.420662 
L 201.392232 44.206089 
L 201.458037 42.784832 
L 201.540296 40.271193 
L 201.589647 41.118417 
L 201.606089 40.993208 
L 201.622543 41.805973 
L 201.655452 39.531341 
L 201.671894 39.637052 
L 201.704803 37.927824 
L 201.754154 41.84765 
L 201.770608 43.095547 
L 201.819959 39.357517 
L 201.836413 38.7416 
L 201.869309 40.322706 
L 201.885764 39.597381 
L 201.902206 41.190297 
L 201.951569 38.140515 
L 201.968011 38.640839 
L 202.033816 37.466311 
L 202.066725 37.483984 
L 202.280582 45.070487 
L 202.346387 44.427118 
L 202.477997 47.081663 
L 202.494439 47.056208 
L 202.75766 40.137712 
L 202.774114 41.343161 
L 202.872816 42.976511 
L 202.823465 40.883641 
L 202.88927 41.521724 
L 202.938621 39.174576 
L 202.987972 41.33964 
L 203.004426 42.043457 
L 203.037322 40.867001 
L 203.086673 41.191175 
L 203.103127 41.47805 
L 203.136024 40.840913 
L 203.185387 39.485265 
L 203.234738 41.284938 
L 203.432141 44.447343 
L 203.448595 43.899785 
L 203.563751 40.863209 
L 203.580205 41.004524 
L 203.59666 42.411362 
L 203.662452 39.888817 
L 203.678907 40.06272 
L 203.810517 37.579606 
L 203.761166 41.402808 
L 203.826971 37.713544 
L 203.843413 37.680552 
L 203.909218 40.8135 
L 203.975024 38.474869 
L 204.007932 37.589282 
L 204.057283 42.066962 
L 204.123088 40.087215 
L 204.254686 35.711294 
L 204.3534 38.394785 
L 204.369842 36.685178 
L 204.452101 39.14891 
L 204.501452 37.893541 
L 204.517907 36.963637 
L 204.567257 38.311611 
L 204.616608 37.645314 
L 204.665959 38.975985 
L 204.698867 37.717852 
L 204.715322 36.223114 
L 204.814023 37.133003 
L 204.84692 35.452006 
L 204.879828 37.567412 
L 204.962075 35.634465 
L 204.97853 36.943688 
L 205.060789 35.517735 
L 205.11014 33.797371 
L 205.143036 34.31192 
L 205.175945 36.764711 
L 205.258192 35.74089 
L 205.340452 37.76819 
L 205.373348 37.473107 
L 205.504959 33.979133 
L 205.620114 37.90261 
L 205.636569 36.091298 
L 205.653023 35.322992 
L 205.702374 37.569702 
L 205.718816 37.124003 
L 205.73527 36.940623 
L 205.883335 32.83878 
L 205.916231 34.177147 
L 205.94914 32.510939 
L 205.982036 32.618712 
L 205.998491 32.730014 
L 206.130088 35.543483 
L 206.162997 34.662152 
L 206.228802 35.440234 
L 206.245257 36.35898 
L 206.327504 34.889999 
L 206.49201 29.762493 
L 206.541361 32.898127 
L 206.623621 31.013171 
L 206.821036 28.718848 
L 206.672971 31.405089 
L 206.837478 29.088289 
L 206.886841 31.135608 
L 206.952634 30.043647 
L 207.034893 31.394074 
L 206.985543 29.640857 
L 207.067802 31.289022 
L 207.150049 30.191617 
L 207.100699 31.569104 
L 207.215854 30.308192 
L 207.232309 30.443847 
L 207.265205 30.020353 
L 207.28166 29.876675 
L 207.298114 28.748482 
L 207.33101 31.62109 
L 207.363906 31.079507 
L 207.429712 32.450435 
L 207.446166 30.549842 
L 207.46262 30.789869 
L 207.528426 29.97945 
L 207.544867 31.181529 
L 207.577776 31.991479 
L 207.594231 30.624971 
L 207.709387 29.223376 
L 207.758737 29.984839 
L 207.791634 28.913014 
L 207.906789 27.165521 
L 208.054854 30.477148 
L 208.087751 27.70169 
L 208.17001 29.528044 
L 208.186452 29.381917 
L 208.202906 30.036722 
L 208.219361 30.754046 
L 208.252257 28.4366 
L 208.268712 29.056167 
L 208.383867 27.724123 
L 208.416776 29.77148 
L 208.499023 28.083618 
L 208.548374 29.28657 
L 208.581283 31.077157 
L 208.647088 28.490958 
L 208.79514 25.477607 
L 208.893841 28.571158 
L 208.910296 27.778593 
L 208.959647 26.088358 
L 209.008997 28.471942 
L 209.140608 26.250829 
L 209.157062 26.395144 
L 209.206413 28.810445 
L 209.288672 28.645341 
L 209.305114 27.826249 
L 209.370919 28.768905 
L 209.403828 27.866527 
L 209.436725 27.180973 
L 209.535438 29.962212 
L 209.55188 29.853023 
L 209.667036 27.489256 
L 209.683491 27.81096 
L 209.699945 28.038673 
L 209.716387 27.326704 
L 209.732841 27.862649 
L 209.749296 27.035418 
L 209.815101 27.911063 
L 209.831543 27.580126 
L 209.963153 30.665969 
L 210.012504 29.368062 
L 210.078309 30.073531 
L 210.094763 30.697346 
L 210.111218 28.437147 
L 210.177023 29.841118 
L 210.193465 28.88591 
L 210.275724 29.731624 
L 210.292179 30.191277 
L 210.30862 29.482708 
L 210.407334 26.285236 
L 210.423776 27.517453 
L 210.456685 29.138605 
L 210.52249 27.731406 
L 210.571841 26.002886 
L 210.588295 26.764091 
" clip-path="url(#p4b3b9145eb)" style="fill: none; stroke: #009e73; stroke-width: 1.25; stroke-linecap: square"/>
   </g>
   <g id="patch_4">
    <path d="M 37.85375 131.718516 
L 37.85375 20.418516 
" style="fill: none; stroke: #000000; stroke-width: 0.8; stroke-linejoin: miter; stroke-linecap: square"/>
   </g>
   <g id="patch_5">
    <path d="M 37.85375 131.718516 
L 218.81375 131.718516 
" style="fill: none; stroke: #000000; stroke-width: 0.8; stroke-linejoin: miter; stroke-linecap: square"/>
   </g>
   <g id="text_14">
    <!-- drugs3523 rep1 -->
    <g transform="translate(90.460664 14.418516) scale(0.095 -0.095)">
     <defs>
      <path id="DejaVuSans-64" d="M 2906 2969 
L 2906 4863 
L 3481 4863 
L 3481 0 
L 2906 0 
L 2906 525 
Q 2725 213 2448 61 
Q 2172 -91 1784 -91 
Q 1150 -91 751 415 
Q 353 922 353 1747 
Q 353 2572 751 3078 
Q 1150 3584 1784 3584 
Q 2172 3584 2448 3432 
Q 2725 3281 2906 2969 
z
M 947 1747 
Q 947 1113 1208 752 
Q 1469 391 1925 391 
Q 2381 391 2643 752 
Q 2906 1113 2906 1747 
Q 2906 2381 2643 2742 
Q 2381 3103 1925 3103 
Q 1469 3103 1208 2742 
Q 947 2381 947 1747 
z
" transform="scale(0.015625)"/>
      <path id="DejaVuSans-72" d="M 2631 2963 
Q 2534 3019 2420 3045 
Q 2306 3072 2169 3072 
Q 1681 3072 1420 2755 
Q 1159 2438 1159 1844 
L 1159 0 
L 581 0 
L 581 3500 
L 1159 3500 
L 1159 2956 
Q 1341 3275 1631 3429 
Q 1922 3584 2338 3584 
Q 2397 3584 2469 3576 
Q 2541 3569 2628 3553 
L 2631 2963 
z
" transform="scale(0.015625)"/>
      <path id="DejaVuSans-75" d="M 544 1381 
L 544 3500 
L 1119 3500 
L 1119 1403 
Q 1119 906 1312 657 
Q 1506 409 1894 409 
Q 2359 409 2629 706 
Q 2900 1003 2900 1516 
L 2900 3500 
L 3475 3500 
L 3475 0 
L 2900 0 
L 2900 538 
Q 2691 219 2414 64 
Q 2138 -91 1772 -91 
Q 1169 -91 856 284 
Q 544 659 544 1381 
z
M 1991 3584 
L 1991 3584 
z
" transform="scale(0.015625)"/>
      <path id="DejaVuSans-67" d="M 2906 1791 
Q 2906 2416 2648 2759 
Q 2391 3103 1925 3103 
Q 1463 3103 1205 2759 
Q 947 2416 947 1791 
Q 947 1169 1205 825 
Q 1463 481 1925 481 
Q 2391 481 2648 825 
Q 2906 1169 2906 1791 
z
M 3481 434 
Q 3481 -459 3084 -895 
Q 2688 -1331 1869 -1331 
Q 1566 -1331 1297 -1286 
Q 1028 -1241 775 -1147 
L 775 -588 
Q 1028 -725 1275 -790 
Q 1522 -856 1778 -856 
Q 2344 -856 2625 -561 
Q 2906 -266 2906 331 
L 2906 616 
Q 2728 306 2450 153 
Q 2172 0 1784 0 
Q 1141 0 747 490 
Q 353 981 353 1791 
Q 353 2603 747 3093 
Q 1141 3584 1784 3584 
Q 2172 3584 2450 3431 
Q 2728 3278 2906 2969 
L 2906 3500 
L 3481 3500 
L 3481 434 
z
" transform="scale(0.015625)"/>
      <path id="DejaVuSans-33" d="M 2597 2516 
Q 3050 2419 3304 2112 
Q 3559 1806 3559 1356 
Q 3559 666 3084 287 
Q 2609 -91 1734 -91 
Q 1441 -91 1130 -33 
Q 819 25 488 141 
L 488 750 
Q 750 597 1062 519 
Q 1375 441 1716 441 
Q 2309 441 2620 675 
Q 2931 909 2931 1356 
Q 2931 1769 2642 2001 
Q 2353 2234 1838 2234 
L 1294 2234 
L 1294 2753 
L 1863 2753 
Q 2328 2753 2575 2939 
Q 2822 3125 2822 3475 
Q 2822 3834 2567 4026 
Q 2313 4219 1838 4219 
Q 1578 4219 1281 4162 
Q 984 4106 628 3988 
L 628 4550 
Q 988 4650 1302 4700 
Q 1616 4750 1894 4750 
Q 2613 4750 3031 4423 
Q 3450 4097 3450 3541 
Q 3450 3153 3228 2886 
Q 3006 2619 2597 2516 
z
" transform="scale(0.015625)"/>
      <path id="DejaVuSans-70" d="M 1159 525 
L 1159 -1331 
L 581 -1331 
L 581 3500 
L 1159 3500 
L 1159 2969 
Q 1341 3281 1617 3432 
Q 1894 3584 2278 3584 
Q 2916 3584 3314 3078 
Q 3713 2572 3713 1747 
Q 3713 922 3314 415 
Q 2916 -91 2278 -91 
Q 1894 -91 1617 61 
Q 1341 213 1159 525 
z
M 3116 1747 
Q 3116 2381 2855 2742 
Q 2594 3103 2138 3103 
Q 1681 3103 1420 2742 
Q 1159 2381 1159 1747 
Q 1159 1113 1420 752 
Q 1681 391 2138 391 
Q 2594 391 2855 752 
Q 3116 1113 3116 1747 
z
" transform="scale(0.015625)"/>
     </defs>
     <use xlink:href="#DejaVuSans-64"/>
     <use xlink:href="#DejaVuSans-72" transform="translate(63.476562 0)"/>
     <use xlink:href="#DejaVuSans-75" transform="translate(104.589844 0)"/>
     <use xlink:href="#DejaVuSans-67" transform="translate(167.96875 0)"/>
     <use xlink:href="#DejaVuSans-73" transform="translate(231.445312 0)"/>
     <use xlink:href="#DejaVuSans-33" transform="translate(283.544922 0)"/>
     <use xlink:href="#DejaVuSans-35" transform="translate(347.167969 0)"/>
     <use xlink:href="#DejaVuSans-32" transform="translate(410.791016 0)"/>
     <use xlink:href="#DejaVuSans-33" transform="translate(474.414062 0)"/>
     <use xlink:href="#DejaVuSans-20" transform="translate(538.037109 0)"/>
     <use xlink:href="#DejaVuSans-72" transform="translate(569.824219 0)"/>
     <use xlink:href="#DejaVuSans-65" transform="translate(608.6875 0)"/>
     <use xlink:href="#DejaVuSans-70" transform="translate(670.210938 0)"/>
     <use xlink:href="#DejaVuSans-31" transform="translate(733.6875 0)"/>
    </g>
   </g>
  </g>
 </g>
 <defs>
  <clipPath id="p4b3b9145eb">
   <rect x="37.85375" y="20.418516" width="180.96" height="111.3"/>
  </clipPath>
 </defs>
</svg>
