<?xml version="1.0" encoding="utf-8" standalone="no"?>
<!DOCTYPE svg PUBLIC "-//W3C//DTD SVG 1.1//EN"
  "http://www.w3.org/Graphics/SVG/1.1/DTD/svg11.dtd">
<svg xmlns:xlink="http://www.w3.org/1999/xlink" width="226.01375pt" height="164.903516pt" viewBox="0 0 226.01375 164.903516" xmlns="http://www.w3.org/2000/svg" version="1.1">
 <metadata>
  <rdf:RDF xmlns:dc="http://purl.org/dc/elements/1.1/" xmlns:cc="http://creativecommons.org/ns#" xmlns:rdf="http://www.w3.org/1999/02/22-rdf-syntax-ns#">
   <cc:Work>
    <dc:type rdf:resource="http://purl.org/dc/dcmitype/StillImage"/>
    <dc:date>2026-05-24T13:54:12.478790</dc:date>
    <dc:format>image/svg+xml</dc:format>
    <dc:creator>
     <cc:Agent>
      <dc:title>Matplotlib v3.10.9, https://matplotlib.org/</dc:title>
     </cc:Agent>
    </dc:creator>
   </cc:Work>
  </rdf:RDF>
 </metadata>
 <defs>
  <style type="text/css">*{stroke-linejoin: round; stroke-linecap: butt}</style>
 </defs>
 <g id="figure_1">
  <g id="patch_1">
   <path d="M 0 164.903516 
L 226.01375 164.903516 
L 226.01375 0 
L 0 0 
z
" style="fill: #ffffff"/>
  </g>
  <g id="axes_1">
   <g id="patch_2">
    <path d="M 37.85375 131.718516 
L 218.81375 131.718516 
L 218.81375 20.418516 
L 37.85375 20.418516 
z
" style="fill: #ffffff"/>
   </g>
   <g id="patch_3">
    <path d="M 128.33375 131.718516 
L 210.588295 131.718516 
L 210.588295 20.418516 
L 128.33375 20.418516 
z
" clip-path="url(#p51add69868)" style="fill: #bdbdbd; opacity: 0.18"/>
   </g>
   <g id="matplotlib.axis_1">
    <g id="xtick_1">
     <g id="line2d_1">
      <defs>
       <path id="m11144597bd" d="M 0 0 
L 0 3 
" style="stroke: #000000; stroke-width: 0.7"/>
      </defs>
      <g>
       <use xlink:href="#m11144597bd" x="46.079205" y="131.718516" style="stroke: #000000; stroke-width: 0.7"/>
      </g>
     </g>
     <g id="text_1">
      <!-- 0 -->
      <g transform="translate(43.693267 143.917344) scale(0.075 -0.075)">
       <defs>
        <path id="DejaVuSans-30" d="M 2034 4250 
Q 1547 4250 1301 3770 
Q 1056 3291 1056 2328 
Q 1056 1369 1301 889 
Q 1547 409 2034 409 
Q 2525 409 2770 889 
Q 3016 1369 3016 2328 
Q 3016 3291 2770 3770 
Q 2525 4250 2034 4250 
z
M 2034 4750 
Q 2819 4750 3233 4129 
Q 3647 3509 3647 2328 
Q 3647 1150 3233 529 
Q 2819 -91 2034 -91 
Q 1250 -91 836 529 
Q 422 1150 422 2328 
Q 422 3509 836 4129 
Q 1250 4750 2034 4750 
z
" transform="scale(0.015625)"/>
       </defs>
       <use xlink:href="#DejaVuSans-30"/>
      </g>
     </g>
    </g>
    <g id="xtick_2">
     <g id="line2d_2">
      <g>
       <use xlink:href="#m11144597bd" x="78.981023" y="131.718516" style="stroke: #000000; stroke-width: 0.7"/>
      </g>
     </g>
     <g id="text_2">
      <!-- 20 -->
      <g transform="translate(74.209148 143.917344) scale(0.075 -0.075)">
       <defs>
        <path id="DejaVuSans-32" d="M 1228 531 
L 3431 531 
L 3431 0 
L 469 0 
L 469 531 
Q 828 903 1448 1529 
Q 2069 2156 2228 2338 
Q 2531 2678 2651 2914 
Q 2772 3150 2772 3378 
Q 2772 3750 2511 3984 
Q 2250 4219 1831 4219 
Q 1534 4219 1204 4116 
Q 875 4013 500 3803 
L 500 4441 
Q 881 4594 1212 4672 
Q 1544 4750 1819 4750 
Q 2544 4750 2975 4387 
Q 3406 4025 3406 3419 
Q 3406 3131 3298 2873 
Q 3191 2616 2906 2266 
Q 2828 2175 2409 1742 
Q 1991 1309 1228 531 
z
" transform="scale(0.015625)"/>
       </defs>
       <use xlink:href="#DejaVuSans-32"/>
       <use xlink:href="#DejaVuSans-30" transform="translate(63.623047 0)"/>
      </g>
     </g>
    </g>
    <g id="xtick_3">
     <g id="line2d_3">
      <g>
       <use xlink:href="#m11144597bd" x="111.882841" y="131.718516" style="stroke: #000000; stroke-width: 0.7"/>
      </g>
     </g>
     <g id="text_3">
      <!-- 40 -->
      <g transform="translate(107.110966 143.917344) scale(0.075 -0.075)">
       <defs>
        <path id="DejaVuSans-34" d="M 2419 4116 
L 825 1625 
L 2419 1625 
L 2419 4116 
z
M 2253 4666 
L 3047 4666 
L 3047 1625 
L 3713 1625 
L 3713 1100 
L 3047 1100 
L 3047 0 
L 2419 0 
L 2419 1100 
L 313 1100 
L 313 1709 
L 2253 4666 
z
" transform="scale(0.015625)"/>
       </defs>
       <use xlink:href="#DejaVuSans-34"/>
       <use xlink:href="#DejaVuSans-30" transform="translate(63.623047 0)"/>
      </g>
     </g>
    </g>
    <g id="xtick_4">
     <g id="line2d_4">
      <g>
       <use xlink:href="#m11144597bd" x="144.784659" y="131.718516" style="stroke: #000000; stroke-width: 0.7"/>
      </g>
     </g>
     <g id="text_4">
      <!-- 60 -->
      <g transform="translate(140.012784 143.917344) scale(0.075 -0.075)">
       <defs>
        <path id="DejaVuSans-36" d="M 2113 2584 
Q 1688 2584 1439 2293 
Q 1191 2003 1191 1497 
Q 1191 994 1439 701 
Q 1688 409 2113 409 
Q 2538 409 2786 701 
Q 3034 994 3034 1497 
Q 3034 2003 2786 2293 
Q 2538 2584 2113 2584 
z
M 3366 4563 
L 3366 3988 
Q 3128 4100 2886 4159 
Q 2644 4219 2406 4219 
Q 1781 4219 1451 3797 
Q 1122 3375 1075 2522 
Q 1259 2794 1537 2939 
Q 1816 3084 2150 3084 
Q 2853 3084 3261 2657 
Q 3669 2231 3669 1497 
Q 3669 778 3244 343 
Q 2819 -91 2113 -91 
Q 1303 -91 875 529 
Q 447 1150 447 2328 
Q 447 3434 972 4092 
Q 1497 4750 2381 4750 
Q 2619 4750 2861 4703 
Q 3103 4656 3366 4563 
z
" transform="scale(0.015625)"/>
       </defs>
       <use xlink:href="#DejaVuSans-36"/>
       <use xlink:href="#DejaVuSans-30" transform="translate(63.623047 0)"/>
      </g>
     </g>
    </g>
    <g id="xtick_5">
     <g id="line2d_5">
      <g>
       <use xlink:href="#m11144597bd" x="177.686477" y="131.718516" style="stroke: #000000; stroke-width: 0.7"/>
      </g>
     </g>
     <g id="text_5">
      <!-- 80 -->
      <g transform="translate(172.914602 143.917344) scale(0.075 -0.075)">
       <defs>
        <path id="DejaVuSans-38" d="M 2034 2216 
Q 1584 2216 1326 1975 
Q 1069 1734 1069 1313 
Q 1069 891 1326 650 
Q 1584 409 2034 409 
Q 2484 409 2743 651 
Q 3003 894 3003 1313 
Q 3003 1734 2745 1975 
Q 2488 2216 2034 2216 
z
M 1403 2484 
Q 997 2584 770 2862 
Q 544 3141 544 3541 
Q 544 4100 942 4425 
Q 1341 4750 2034 4750 
Q 2731 4750 3128 4425 
Q 3525 4100 3525 3541 
Q 3525 3141 3298 2862 
Q 3072 2584 2669 2484 
Q 3125 2378 3379 2068 
Q 3634 1759 3634 1313 
Q 3634 634 3220 271 
Q 2806 -91 2034 -91 
Q 1263 -91 848 271 
Q 434 634 434 1313 
Q 434 1759 690 2068 
Q 947 2378 1403 2484 
z
M 1172 3481 
Q 1172 3119 1398 2916 
Q 1625 2713 2034 2713 
Q 2441 2713 2670 2916 
Q 2900 3119 2900 3481 
Q 2900 3844 2670 4047 
Q 2441 4250 2034 4250 
Q 1625 4250 1398 4047 
Q 1172 3844 1172 3481 
z
" transform="scale(0.015625)"/>
       </defs>
       <use xlink:href="#DejaVuSans-38"/>
       <use xlink:href="#DejaVuSans-30" transform="translate(63.623047 0)"/>
      </g>
     </g>
    </g>
    <g id="xtick_6">
     <g id="line2d_6">
      <g>
       <use xlink:href="#m11144597bd" x="210.588295" y="131.718516" style="stroke: #000000; stroke-width: 0.7"/>
      </g>
     </g>
     <g id="text_6">
      <!-- 100 -->
      <g transform="translate(203.430483 143.917344) scale(0.075 -0.075)">
       <defs>
        <path id="DejaVuSans-31" d="M 794 531 
L 1825 531 
L 1825 4091 
L 703 3866 
L 703 4441 
L 1819 4666 
L 2450 4666 
L 2450 531 
L 3481 531 
L 3481 0 
L 794 0 
L 794 531 
z
" transform="scale(0.015625)"/>
       </defs>
       <use xlink:href="#DejaVuSans-31"/>
       <use xlink:href="#DejaVuSans-30" transform="translate(63.623047 0)"/>
       <use xlink:href="#DejaVuSans-30" transform="translate(127.246094 0)"/>
      </g>
     </g>
    </g>
    <g id="text_7">
     <!-- Time (ns) -->
     <g transform="translate(108.360742 155.935781) scale(0.085 -0.085)">
      <defs>
       <path id="DejaVuSans-54" d="M -19 4666 
L 3928 4666 
L 3928 4134 
L 2272 4134 
L 2272 0 
L 1638 0 
L 1638 4134 
L -19 4134 
L -19 4666 
z
" transform="scale(0.015625)"/>
       <path id="DejaVuSans-69" d="M 603 3500 
L 1178 3500 
L 1178 0 
L 603 0 
L 603 3500 
z
M 603 4863 
L 1178 4863 
L 1178 4134 
L 603 4134 
L 603 4863 
z
" transform="scale(0.015625)"/>
       <path id="DejaVuSans-6d" d="M 3328 2828 
Q 3544 3216 3844 3400 
Q 4144 3584 4550 3584 
Q 5097 3584 5394 3201 
Q 5691 2819 5691 2113 
L 5691 0 
L 5113 0 
L 5113 2094 
Q 5113 2597 4934 2840 
Q 4756 3084 4391 3084 
Q 3944 3084 3684 2787 
Q 3425 2491 3425 1978 
L 3425 0 
L 2847 0 
L 2847 2094 
Q 2847 2600 2669 2842 
Q 2491 3084 2119 3084 
Q 1678 3084 1418 2786 
Q 1159 2488 1159 1978 
L 1159 0 
L 581 0 
L 581 3500 
L 1159 3500 
L 1159 2956 
Q 1356 3278 1631 3431 
Q 1906 3584 2284 3584 
Q 2666 3584 2933 3390 
Q 3200 3197 3328 2828 
z
" transform="scale(0.015625)"/>
       <path id="DejaVuSans-65" d="M 3597 1894 
L 3597 1613 
L 953 1613 
Q 991 1019 1311 708 
Q 1631 397 2203 397 
Q 2534 397 2845 478 
Q 3156 559 3463 722 
L 3463 178 
Q 3153 47 2828 -22 
Q 2503 -91 2169 -91 
Q 1331 -91 842 396 
Q 353 884 353 1716 
Q 353 2575 817 3079 
Q 1281 3584 2069 3584 
Q 2775 3584 3186 3129 
Q 3597 2675 3597 1894 
z
M 3022 2063 
Q 3016 2534 2758 2815 
Q 2500 3097 2075 3097 
Q 1594 3097 1305 2825 
Q 1016 2553 972 2059 
L 3022 2063 
z
" transform="scale(0.015625)"/>
       <path id="DejaVuSans-20" transform="scale(0.015625)"/>
       <path id="DejaVuSans-28" d="M 1984 4856 
Q 1566 4138 1362 3434 
Q 1159 2731 1159 2009 
Q 1159 1288 1364 580 
Q 1569 -128 1984 -844 
L 1484 -844 
Q 1016 -109 783 600 
Q 550 1309 550 2009 
Q 550 2706 781 3412 
Q 1013 4119 1484 4856 
L 1984 4856 
z
" transform="scale(0.015625)"/>
       <path id="DejaVuSans-6e" d="M 3513 2113 
L 3513 0 
L 2938 0 
L 2938 2094 
Q 2938 2591 2744 2837 
Q 2550 3084 2163 3084 
Q 1697 3084 1428 2787 
Q 1159 2491 1159 1978 
L 1159 0 
L 581 0 
L 581 3500 
L 1159 3500 
L 1159 2956 
Q 1366 3272 1645 3428 
Q 1925 3584 2291 3584 
Q 2894 3584 3203 3211 
Q 3513 2838 3513 2113 
z
" transform="scale(0.015625)"/>
       <path id="DejaVuSans-73" d="M 2834 3397 
L 2834 2853 
Q 2591 2978 2328 3040 
Q 2066 3103 1784 3103 
Q 1356 3103 1142 2972 
Q 928 2841 928 2578 
Q 928 2378 1081 2264 
Q 1234 2150 1697 2047 
L 1894 2003 
Q 2506 1872 2764 1633 
Q 3022 1394 3022 966 
Q 3022 478 2636 193 
Q 2250 -91 1575 -91 
Q 1294 -91 989 -36 
Q 684 19 347 128 
L 347 722 
Q 666 556 975 473 
Q 1284 391 1588 391 
Q 1994 391 2212 530 
Q 2431 669 2431 922 
Q 2431 1156 2273 1281 
Q 2116 1406 1581 1522 
L 1381 1569 
Q 847 1681 609 1914 
Q 372 2147 372 2553 
Q 372 3047 722 3315 
Q 1072 3584 1716 3584 
Q 2034 3584 2315 3537 
Q 2597 3491 2834 3397 
z
" transform="scale(0.015625)"/>
       <path id="DejaVuSans-29" d="M 513 4856 
L 1013 4856 
Q 1481 4119 1714 3412 
Q 1947 2706 1947 2009 
Q 1947 1309 1714 600 
Q 1481 -109 1013 -844 
L 513 -844 
Q 928 -128 1133 580 
Q 1338 1288 1338 2009 
Q 1338 2731 1133 3434 
Q 928 4138 513 4856 
z
" transform="scale(0.015625)"/>
      </defs>
      <use xlink:href="#DejaVuSans-54"/>
      <use xlink:href="#DejaVuSans-69" transform="translate(57.958984 0)"/>
      <use xlink:href="#DejaVuSans-6d" transform="translate(85.742188 0)"/>
      <use xlink:href="#DejaVuSans-65" transform="translate(183.154297 0)"/>
      <use xlink:href="#DejaVuSans-20" transform="translate(244.677734 0)"/>
      <use xlink:href="#DejaVuSans-28" transform="translate(276.464844 0)"/>
      <use xlink:href="#DejaVuSans-6e" transform="translate(315.478516 0)"/>
      <use xlink:href="#DejaVuSans-73" transform="translate(378.857422 0)"/>
      <use xlink:href="#DejaVuSans-29" transform="translate(430.957031 0)"/>
     </g>
    </g>
   </g>
   <g id="matplotlib.axis_2">
    <g id="ytick_1">
     <g id="line2d_7">
      <defs>
       <path id="mbf5183a216" d="M 0 0 
L -3 0 
" style="stroke: #000000; stroke-width: 0.7"/>
      </defs>
      <g>
       <use xlink:href="#mbf5183a216" x="37.85375" y="108.822794" style="stroke: #000000; stroke-width: 0.7"/>
      </g>
     </g>
     <g id="text_8">
      <!-- 3.2 -->
      <g transform="translate(19.426406 111.672209) scale(0.075 -0.075)">
       <defs>
        <path id="DejaVuSans-33" d="M 2597 2516 
Q 3050 2419 3304 2112 
Q 3559 1806 3559 1356 
Q 3559 666 3084 287 
Q 2609 -91 1734 -91 
Q 1441 -91 1130 -33 
Q 819 25 488 141 
L 488 750 
Q 750 597 1062 519 
Q 1375 441 1716 441 
Q 2309 441 2620 675 
Q 2931 909 2931 1356 
Q 2931 1769 2642 2001 
Q 2353 2234 1838 2234 
L 1294 2234 
L 1294 2753 
L 1863 2753 
Q 2328 2753 2575 2939 
Q 2822 3125 2822 3475 
Q 2822 3834 2567 4026 
Q 2313 4219 1838 4219 
Q 1578 4219 1281 4162 
Q 984 4106 628 3988 
L 628 4550 
Q 988 4650 1302 4700 
Q 1616 4750 1894 4750 
Q 2613 4750 3031 4423 
Q 3450 4097 3450 3541 
Q 3450 3153 3228 2886 
Q 3006 2619 2597 2516 
z
" transform="scale(0.015625)"/>
        <path id="DejaVuSans-2e" d="M 684 794 
L 1344 794 
L 1344 0 
L 684 0 
L 684 794 
z
" transform="scale(0.015625)"/>
       </defs>
       <use xlink:href="#DejaVuSans-33"/>
       <use xlink:href="#DejaVuSans-2e" transform="translate(63.623047 0)"/>
       <use xlink:href="#DejaVuSans-32" transform="translate(95.410156 0)"/>
      </g>
     </g>
    </g>
    <g id="ytick_2">
     <g id="line2d_8">
      <g>
       <use xlink:href="#mbf5183a216" x="37.85375" y="82.795317" style="stroke: #000000; stroke-width: 0.7"/>
      </g>
     </g>
     <g id="text_9">
      <!-- 3.4 -->
      <g transform="translate(19.426406 85.644731) scale(0.075 -0.075)">
       <use xlink:href="#DejaVuSans-33"/>
       <use xlink:href="#DejaVuSans-2e" transform="translate(63.623047 0)"/>
       <use xlink:href="#DejaVuSans-34" transform="translate(95.410156 0)"/>
      </g>
     </g>
    </g>
    <g id="ytick_3">
     <g id="line2d_9">
      <g>
       <use xlink:href="#mbf5183a216" x="37.85375" y="56.76784" style="stroke: #000000; stroke-width: 0.7"/>
      </g>
     </g>
     <g id="text_10">
      <!-- 3.6 -->
      <g transform="translate(19.426406 59.617254) scale(0.075 -0.075)">
       <use xlink:href="#DejaVuSans-33"/>
       <use xlink:href="#DejaVuSans-2e" transform="translate(63.623047 0)"/>
       <use xlink:href="#DejaVuSans-36" transform="translate(95.410156 0)"/>
      </g>
     </g>
    </g>
    <g id="ytick_4">
     <g id="line2d_10">
      <g>
       <use xlink:href="#mbf5183a216" x="37.85375" y="30.740362" style="stroke: #000000; stroke-width: 0.7"/>
      </g>
     </g>
     <g id="text_11">
      <!-- 3.8 -->
      <g transform="translate(19.426406 33.589777) scale(0.075 -0.075)">
       <use xlink:href="#DejaVuSans-33"/>
       <use xlink:href="#DejaVuSans-2e" transform="translate(63.623047 0)"/>
       <use xlink:href="#DejaVuSans-38" transform="translate(95.410156 0)"/>
      </g>
     </g>
    </g>
    <g id="text_12">
     <!-- Rg (nm) -->
     <g transform="translate(13.658672 93.219922) rotate(-90) scale(0.085 -0.085)">
      <defs>
       <path id="DejaVuSans-52" d="M 2841 2188 
Q 3044 2119 3236 1894 
Q 3428 1669 3622 1275 
L 4263 0 
L 3584 0 
L 2988 1197 
Q 2756 1666 2539 1819 
Q 2322 1972 1947 1972 
L 1259 1972 
L 1259 0 
L 628 0 
L 628 4666 
L 2053 4666 
Q 2853 4666 3247 4331 
Q 3641 3997 3641 3322 
Q 3641 2881 3436 2590 
Q 3231 2300 2841 2188 
z
M 1259 4147 
L 1259 2491 
L 2053 2491 
Q 2509 2491 2742 2702 
Q 2975 2913 2975 3322 
Q 2975 3731 2742 3939 
Q 2509 4147 2053 4147 
L 1259 4147 
z
" transform="scale(0.015625)"/>
       <path id="DejaVuSans-67" d="M 2906 1791 
Q 2906 2416 2648 2759 
Q 2391 3103 1925 3103 
Q 1463 3103 1205 2759 
Q 947 2416 947 1791 
Q 947 1169 1205 825 
Q 1463 481 1925 481 
Q 2391 481 2648 825 
Q 2906 1169 2906 1791 
z
M 3481 434 
Q 3481 -459 3084 -895 
Q 2688 -1331 1869 -1331 
Q 1566 -1331 1297 -1286 
Q 1028 -1241 775 -1147 
L 775 -588 
Q 1028 -725 1275 -790 
Q 1522 -856 1778 -856 
Q 2344 -856 2625 -561 
Q 2906 -266 2906 331 
L 2906 616 
Q 2728 306 2450 153 
Q 2172 0 1784 0 
Q 1141 0 747 490 
Q 353 981 353 1791 
Q 353 2603 747 3093 
Q 1141 3584 1784 3584 
Q 2172 3584 2450 3431 
Q 2728 3278 2906 2969 
L 2906 3500 
L 3481 3500 
L 3481 434 
z
" transform="scale(0.015625)"/>
      </defs>
      <use xlink:href="#DejaVuSans-52"/>
      <use xlink:href="#DejaVuSans-67" transform="translate(69.482422 0)"/>
      <use xlink:href="#DejaVuSans-20" transform="translate(132.958984 0)"/>
      <use xlink:href="#DejaVuSans-28" transform="translate(164.746094 0)"/>
      <use xlink:href="#DejaVuSans-6e" transform="translate(203.759766 0)"/>
      <use xlink:href="#DejaVuSans-6d" transform="translate(267.138672 0)"/>
      <use xlink:href="#DejaVuSans-29" transform="translate(364.550781 0)"/>
     </g>
    </g>
   </g>
   <g id="line2d_11">
    <path d="M 46.079205 59.020518 
L 46.194361 50.311724 
L 46.210812 54.56071 
L 46.260165 52.129743 
L 46.35887 60.176138 
L 46.375321 60.226892 
L 46.391772 61.947308 
L 46.424674 54.105229 
L 46.441125 50.27919 
L 46.490477 64.484987 
L 46.506928 64.617727 
L 46.53983 69.615003 
L 46.572732 62.000664 
L 46.589183 56.723593 
L 46.638535 63.197928 
L 46.687888 59.533259 
L 46.786594 71.855968 
L 46.835946 62.255733 
L 46.934652 55.7827 
L 46.951103 59.153258 
L 46.967554 56.95784 
L 47.016906 61.58032 
L 47.049808 56.96695 
L 47.099161 62.33772 
L 47.132063 60.057713 
L 47.148514 54.809272 
L 47.214317 65.28403 
L 47.329474 70.442676 
L 47.345925 66.899035 
L 47.362375 66.560678 
L 47.477532 74.354606 
L 47.543335 57.512226 
L 47.592688 61.906965 
L 47.674943 71.747954 
L 47.724295 68.773014 
L 47.740746 62.91553 
L 47.823001 68.291505 
L 47.839452 73.719536 
L 47.921706 71.650351 
L 47.938157 66.274376 
L 47.954608 73.055835 
L 48.020412 70.576718 
L 48.152019 77.139546 
L 48.16847 77.035436 
L 48.497488 115.631583 
L 48.217823 76.620298 
L 48.546841 109.865195 
L 48.760703 81.12175 
L 48.777154 83.567032 
L 48.810055 80.844558 
L 48.826506 81.470519 
L 48.908761 72.034257 
L 48.941663 77.230642 
L 48.974565 85.515189 
L 49.040368 81.631889 
L 49.056819 78.073933 
L 49.139074 83.581347 
L 49.171975 88.60465 
L 49.221328 83.8208 
L 49.369386 72.647204 
L 49.385837 75.143239 
L 49.451641 70.33206 
L 49.566797 48.622541 
L 49.583248 51.708098 
L 49.599699 52.239059 
L 49.764208 35.04791 
L 49.780659 35.027088 
L 49.79711 35.157225 
L 49.879365 48.90624 
L 49.912266 38.886963 
L 50.027423 25.477607 
L 50.043874 26.214184 
L 50.109677 33.689276 
L 50.15903 29.70577 
L 50.191932 32.410025 
L 50.323539 53.716118 
L 50.422245 40.459022 
L 50.455146 41.557382 
L 50.570303 46.090067 
L 50.586754 46.496096 
L 50.751263 64.643754 
L 50.866419 53.615912 
L 50.932223 64.754371 
L 50.981575 57.125718 
L 50.998026 57.158252 
L 51.06383 55.672083 
L 51.096732 61.559498 
L 51.178986 48.958295 
L 51.211888 58.860449 
L 51.228339 51.881181 
L 51.277692 62.180254 
L 51.327045 53.46235 
L 51.343495 60.83203 
L 51.392848 51.628714 
L 51.442201 57.70613 
L 51.508005 61.99676 
L 51.540906 56.288934 
L 51.804121 64.846769 
L 51.820572 61.83539 
L 51.902826 59.025723 
L 51.869925 63.527176 
L 51.935728 60.349221 
L 52.017983 68.603835 
L 52.067335 64.740056 
L 52.083786 60.181343 
L 52.14959 70.499937 
L 52.166041 66.1078 
L 52.182492 66.383691 
L 52.264746 73.497001 
L 52.281197 69.439317 
L 52.297648 65.238482 
L 52.347001 74.087825 
L 52.445706 82.792714 
L 52.462157 77.652288 
L 52.478608 78.378454 
L 52.495059 76.439407 
L 52.51151 74.324675 
L 52.544412 80.910928 
L 52.577314 77.32304 
L 52.643117 74.250496 
L 52.69247 83.498059 
L 52.791175 75.131526 
L 52.807626 79.670718 
L 52.922783 91.445549 
L 52.972135 89.56116 
L 53.05439 96.122687 
L 53.087292 90.422669 
L 53.169546 85.290051 
L 53.185997 93.670899 
L 53.251801 84.790323 
L 53.268252 85.385051 
L 53.350506 71.328912 
L 53.432761 74.673443 
L 53.580819 82.739358 
L 53.59727 82.417919 
L 53.679525 84.328336 
L 53.712426 76.073721 
L 53.745328 83.552717 
L 53.794681 68.761301 
L 53.909837 54.973245 
L 53.95919 56.242085 
L 54.057895 63.580532 
L 54.074346 62.210185 
L 54.156601 52.297621 
L 54.173052 54.93941 
L 54.222405 65.982868 
L 54.288208 61.307032 
L 54.304659 61.577718 
L 54.370463 66.482596 
L 54.403365 63.35149 
L 54.436266 57.488801 
L 54.485619 68.055957 
L 54.50207 65.623689 
L 54.518521 70.248772 
L 54.551423 59.124628 
L 54.567874 51.257823 
L 54.633677 62.790598 
L 54.765285 70.61706 
L 54.798186 69.889593 
L 54.896892 68.135341 
L 54.913343 74.407963 
L 54.929794 70.981445 
L 54.979146 83.036071 
L 54.995597 86.120327 
L 55.028499 78.749346 
L 55.04495 72.843711 
L 55.077852 84.445459 
L 55.110754 81.756821 
L 55.127205 84.209911 
L 55.143655 77.174683 
L 55.193008 78.524208 
L 55.209459 79.770924 
L 55.22591 75.41002 
L 55.242361 71.172747 
L 55.308165 77.772014 
L 55.324615 73.103986 
L 55.357517 78.012768 
L 55.40687 74.938923 
L 55.439772 69.618907 
L 55.489125 78.327701 
L 55.505575 74.30125 
L 55.538477 73.655768 
L 55.670085 82.402302 
L 55.686535 82.605317 
L 55.719437 77.457082 
L 55.801692 79.168388 
L 55.834594 80.826338 
L 55.900397 70.276101 
L 55.94975 79.297224 
L 55.982652 69.615003 
L 56.097808 69.741236 
L 56.196514 79.863322 
L 56.212965 73.511316 
L 56.229415 73.381179 
L 56.278768 77.576808 
L 56.31167 76.30016 
L 56.328121 71.699804 
L 56.344572 78.48777 
L 56.410375 73.916043 
L 56.541983 85.690874 
L 56.558434 80.317501 
L 56.640688 82.313809 
L 56.722943 90.658218 
L 56.755845 83.881964 
L 56.871001 95.544877 
L 56.887452 93.84268 
L 56.903903 88.264992 
L 56.986157 96.908717 
L 57.002608 91.884112 
L 57.03551 95.524055 
L 57.051961 88.245471 
L 57.084863 92.965554 
L 57.134215 83.852033 
L 57.183568 90.089518 
L 57.21647 93.12302 
L 57.249372 87.10807 
L 57.298725 90.721985 
L 57.315175 92.122264 
L 57.364528 88.169991 
L 57.446783 80.43983 
L 57.496135 81.145175 
L 57.512586 81.534286 
L 57.529037 85.916012 
L 57.594841 78.210577 
L 57.627743 82.899427 
L 57.644194 83.805183 
L 57.742899 67.331091 
L 57.775801 70.300827 
L 57.825154 66.966707 
L 57.858055 72.152682 
L 57.874506 68.014313 
L 58.022565 78.54503 
L 58.039015 73.662275 
L 58.088368 83.768745 
L 58.12127 77.769411 
L 58.154172 83.125866 
L 58.170623 77.578109 
L 58.187074 71.272953 
L 58.219975 80.234213 
L 58.269328 72.985561 
L 58.285779 78.865168 
L 58.351583 71.266446 
L 58.400935 64.462863 
L 58.450288 72.138367 
L 58.581895 86.273889 
L 58.697052 75.026115 
L 58.631248 90.312053 
L 58.713503 77.529958 
L 58.729954 77.365985 
L 58.861561 89.679585 
L 58.878012 87.227797 
L 58.894463 89.22931 
L 58.927365 80.642845 
L 58.993168 75.08728 
L 59.02607 82.558467 
L 59.091874 76.544818 
L 59.108325 84.474089 
L 59.124775 80.080651 
L 59.190579 88.029443 
L 59.20703 81.665725 
L 59.338637 65.152592 
L 59.371539 77.101806 
L 59.437343 64.6867 
L 59.453794 71.477269 
L 59.56895 60.740934 
L 59.651205 70.088703 
L 59.667655 63.577929 
L 59.717008 55.945372 
L 59.766361 62.106075 
L 59.881517 77.149957 
L 59.914419 71.086856 
L 59.980223 73.455357 
L 60.062477 63.454299 
L 60.161183 54.237969 
L 60.194085 57.36517 
L 60.309241 67.564037 
L 60.325692 62.907722 
L 60.539554 53.203377 
L 60.391495 64.041218 
L 60.556005 57.840172 
L 60.621808 67.411777 
L 60.736965 65.152592 
L 60.753415 58.725106 
L 60.769866 66.568486 
L 60.83567 64.117999 
L 60.852121 63.856423 
L 60.868572 66.71424 
L 60.934375 60.576961 
L 60.983728 50.60193 
L 61.01663 60.596482 
L 61.033081 58.786271 
L 61.082434 56.338386 
L 61.230492 67.881573 
L 61.263394 54.977149 
L 61.37855 60.747441 
L 61.395001 69.022878 
L 61.493706 63.005325 
L 61.510157 70.035346 
L 61.608863 65.075811 
L 61.707568 55.426123 
L 61.641765 68.313629 
L 61.74047 58.178529 
L 61.789823 68.14445 
L 61.839175 73.283576 
L 61.888528 66.444856 
L 61.937881 70.917678 
L 62.036586 81.754218 
L 62.069488 80.795106 
L 62.118841 73.750769 
L 62.168194 76.503174 
L 62.316252 99.102833 
L 62.332703 99.916192 
L 62.349154 99.326669 
L 62.365605 94.024872 
L 62.431408 99.398245 
L 62.46431 96.126591 
L 62.480761 96.727826 
L 62.513663 93.872612 
L 62.530114 91.368768 
L 62.579466 97.671322 
L 62.595917 97.502143 
L 62.612368 99.18482 
L 62.628819 96.721319 
L 62.694623 89.942462 
L 62.727525 96.796799 
L 62.743975 93.034527 
L 62.776877 97.067484 
L 62.82623 92.321374 
L 62.859132 81.104832 
L 62.941386 87.026084 
L 63.122346 100.991127 
L 63.286855 80.383871 
L 63.303306 80.675379 
L 63.352659 89.096569 
L 63.402012 78.181947 
L 63.582972 62.516008 
L 63.615874 68.501027 
L 63.648775 70.675622 
L 63.681677 82.856482 
L 63.763932 80.179556 
L 63.879088 64.20389 
L 63.91199 65.267113 
L 64.125852 83.533196 
L 64.142303 83.473333 
L 64.175205 88.224649 
L 64.224557 79.517156 
L 64.241008 82.838262 
L 64.306812 89.267049 
L 64.323263 87.324098 
L 64.487772 66.073964 
L 64.619379 73.608919 
L 64.63583 70.25658 
L 64.685183 78.956264 
L 64.767437 88.808966 
L 64.882594 87.81862 
L 64.915495 84.259363 
L 64.981299 73.78981 
L 65.014201 83.330182 
L 65.030652 84.066759 
L 65.063554 82.761481 
L 65.112906 73.654467 
L 65.17871 77.268382 
L 65.228063 73.914742 
L 65.211612 79.043456 
L 65.244514 76.279338 
L 65.310317 84.709638 
L 65.343219 79.345375 
L 65.458375 72.904876 
L 65.54063 71.406994 
L 65.589983 80.538735 
L 65.606434 75.052143 
L 65.639335 84.802036 
L 65.688688 82.674289 
L 65.803845 73.584193 
L 65.820295 73.948578 
L 65.836746 68.726164 
L 65.886099 80.235515 
L 66.034157 91.885414 
L 66.050608 92.113154 
L 66.165765 75.188787 
L 66.215117 76.628106 
L 66.231568 79.932295 
L 66.280921 71.000966 
L 66.297372 78.64003 
L 66.412528 67.327187 
L 66.428979 67.718901 
L 66.44543 66.854789 
L 66.461881 72.039462 
L 66.494783 62.955873 
L 66.527685 64.220808 
L 66.560586 61.461895 
L 66.609939 65.436291 
L 66.62639 65.087523 
L 66.642841 67.371434 
L 66.675743 56.775648 
L 66.708645 61.668814 
L 66.725095 57.180375 
L 66.790899 66.037526 
L 66.80735 72.57693 
L 66.873154 62.201076 
L 66.889605 66.968008 
L 66.955408 57.445856 
L 67.037663 62.525118 
L 67.103466 58.807093 
L 67.202172 73.037616 
L 67.218623 73.54385 
L 67.235074 73.035013 
L 67.300877 69.188152 
L 67.267975 77.709548 
L 67.317328 77.070574 
L 67.366681 72.945218 
L 67.432485 76.050296 
L 67.448935 76.356119 
L 67.465386 74.673443 
L 67.481837 79.526266 
L 67.514739 72.684944 
L 67.564092 73.261452 
L 67.662797 68.581712 
L 67.695699 71.086856 
L 67.71215 64.54485 
L 67.761503 72.959533 
L 67.794405 69.644934 
L 67.843757 73.62844 
L 67.876659 69.685277 
L 67.89311 66.935474 
L 67.958914 73.550357 
L 68.07407 89.965887 
L 68.123423 88.759514 
L 68.139874 80.994216 
L 68.222128 92.936924 
L 68.320834 84.343952 
L 68.370186 86.207519 
L 68.386637 90.692054 
L 68.419539 83.257305 
L 68.468892 87.782182 
L 68.485343 82.640454 
L 68.551146 88.673623 
L 68.567597 84.880118 
L 68.649852 96.497483 
L 68.699205 91.470275 
L 68.781459 85.252311 
L 68.748557 92.585553 
L 68.79791 89.85527 
L 68.847263 99.266806 
L 68.913066 94.658641 
L 68.929517 96.338715 
L 68.97887 93.715145 
L 68.995321 94.779669 
L 69.110477 79.392224 
L 69.126928 83.422579 
L 69.15983 84.679707 
L 69.176281 78.835236 
L 69.242085 89.207186 
L 69.258535 88.164786 
L 69.357241 96.794196 
L 69.291437 87.527113 
L 69.390143 94.96056 
L 69.423045 97.882144 
L 69.439495 90.425272 
L 69.52175 100.752975 
L 69.538201 105.415798 
L 69.587554 99.093723 
L 69.620455 100.192083 
L 69.636906 101.330785 
L 69.653357 99.697561 
L 69.669808 100.150439 
L 69.801415 92.002537 
L 69.817866 93.156856 
L 69.850768 90.191025 
L 69.933023 86.958412 
L 69.88367 92.376032 
L 69.965925 88.77513 
L 69.998826 90.144175 
L 70.015277 84.592514 
L 70.06463 95.077684 
L 70.097532 91.643358 
L 70.146885 89.290474 
L 70.262041 109.697318 
L 70.443001 88.928692 
L 70.459452 89.1252 
L 70.508805 94.649532 
L 70.591059 93.254459 
L 70.60751 93.375487 
L 70.673314 95.250766 
L 70.656863 90.060887 
L 70.706215 93.706036 
L 70.722666 90.870342 
L 70.78847 97.028443 
L 70.821372 91.134521 
L 70.837823 91.769591 
L 70.870725 87.892799 
L 70.903626 96.933443 
L 70.920077 95.278095 
L 71.068135 108.580739 
L 71.101037 104.076684 
L 71.133939 107.458955 
L 71.232645 97.843103 
L 71.249095 97.935501 
L 71.281997 91.837263 
L 71.347801 95.790837 
L 71.364252 99.416464 
L 71.380703 94.674258 
L 71.430055 95.923577 
L 71.462957 83.652923 
L 71.561663 87.275947 
L 71.578114 87.111974 
L 71.594565 91.592604 
L 71.643917 82.799221 
L 71.676819 88.707459 
L 71.69327 79.849007 
L 71.775525 87.355331 
L 71.824877 84.614638 
L 71.907132 91.5887 
L 71.923583 85.075324 
L 72.005837 88.957322 
L 72.05519 95.038642 
L 72.088092 84.887926 
L 72.219699 92.373429 
L 72.120994 83.616484 
L 72.269052 92.028565 
L 72.301954 84.034225 
L 72.384208 90.37582 
L 72.400659 89.922942 
L 72.41711 91.32322 
L 72.499365 95.848097 
L 72.482914 89.66527 
L 72.515815 94.809601 
L 72.532266 91.426029 
L 72.548717 99.847219 
L 72.581619 95.935289 
L 72.630972 105.312989 
L 72.680325 98.760572 
L 72.696775 96.120084 
L 72.729677 102.002294 
L 72.746128 101.036675 
L 72.844834 110.912801 
L 72.877735 110.177525 
L 73.009343 88.039854 
L 73.042245 90.377121 
L 73.058695 88.733486 
L 73.091597 92.051989 
L 73.124499 89.123898 
L 73.14095 96.325701 
L 73.239655 95.521452 
L 73.32191 88.82198 
L 73.371263 91.087671 
L 73.387714 90.85863 
L 73.404165 88.171293 
L 73.453517 92.78206 
L 73.568674 105.126893 
L 73.601575 103.225585 
L 73.68383 88.910473 
L 73.716732 95.377 
L 73.914143 82.178466 
L 73.947045 84.916557 
L 74.012848 98.027898 
L 74.062201 91.471577 
L 74.078652 91.315412 
L 74.144455 85.344709 
L 74.210259 96.444126 
L 74.358317 82.774495 
L 74.374768 83.106345 
L 74.440572 80.035103 
L 74.40767 83.77395 
L 74.489925 80.730037 
L 74.605081 96.96858 
L 74.654434 93.652679 
L 74.703786 95.632069 
L 74.720237 91.055137 
L 74.753139 93.53035 
L 74.851845 82.204493 
L 74.868295 90.668629 
L 74.95055 79.838596 
L 74.967001 78.106467 
L 74.999903 84.126623 
L 75.016354 81.490039 
L 75.098608 96.164331 
L 75.115059 88.158279 
L 75.164412 77.817562 
L 75.246666 80.016884 
L 75.263117 80.605105 
L 75.296019 81.259696 
L 75.394725 71.891106 
L 75.460528 83.215661 
L 75.509881 76.250708 
L 75.542783 70.607951 
L 75.608586 75.075567 
L 75.625037 77.329547 
L 75.67439 72.722683 
L 75.690841 75.805638 
L 75.707292 73.270562 
L 75.756645 78.31729 
L 75.773095 75.840775 
L 75.822448 83.780457 
L 75.888252 82.69381 
L 75.986957 76.950847 
L 76.003408 78.863867 
L 76.052761 82.678193 
L 76.069212 73.47748 
L 76.151466 70.024935 
L 76.184368 80.20298 
L 76.266623 72.997273 
L 76.299525 61.261484 
L 76.381779 70.132949 
L 76.39823 69.398975 
L 76.414681 71.698502 
L 76.546288 77.977631 
L 76.628543 73.105287 
L 76.644994 77.500027 
L 76.661445 78.59188 
L 76.694346 73.666179 
L 76.727248 71.797407 
L 76.76015 77.060163 
L 76.776601 77.890439 
L 76.793052 77.859206 
L 76.809503 72.21775 
L 76.891757 81.221956 
L 77.023365 72.427272 
L 76.94111 83.455114 
L 77.039815 72.841108 
L 77.138521 81.741204 
L 77.171423 78.671263 
L 77.187874 75.218718 
L 77.220775 85.076626 
L 77.270128 78.875579 
L 77.319481 76.017762 
L 77.335932 77.864412 
L 77.418186 87.326701 
L 77.451088 83.870252 
L 77.516892 77.113519 
L 77.48399 85.585463 
L 77.549794 81.634492 
L 77.566245 83.017852 
L 77.582695 78.757154 
L 77.599146 79.06558 
L 77.714303 69.078837 
L 77.763655 69.257125 
L 77.993968 85.489161 
L 78.010419 83.468127 
L 78.191379 61.037647 
L 78.20783 62.582378 
L 78.487495 75.583103 
L 78.520397 70.715965 
L 78.56975 66.546363 
L 78.586201 72.712272 
L 78.619103 67.133283 
L 78.635554 72.055079 
L 78.652005 65.807183 
L 78.717808 67.748832 
L 78.800063 54.728587 
L 78.849415 57.665788 
L 79.030375 75.645569 
L 79.046826 71.20398 
L 79.079728 77.466191 
L 79.194885 85.882176 
L 79.375845 68.480205 
L 79.441648 67.729312 
L 79.507452 73.709125 
L 79.606157 80.127501 
L 79.671961 75.521939 
L 79.754215 68.143149 
L 79.803568 68.568698 
L 79.83647 79.215238 
L 79.918725 74.64221 
L 80.083234 55.647357 
L 80.099685 54.970642 
L 80.116135 58.199351 
L 80.132586 57.019005 
L 80.19839 74.958444 
L 80.280645 68.342259 
L 80.362899 61.919979 
L 80.313546 70.836993 
L 80.412252 62.929845 
L 80.510957 69.690482 
L 80.478055 60.979086 
L 80.527408 68.335752 
L 80.576761 62.97279 
L 80.626114 64.88581 
L 80.659015 71.581379 
L 80.74127 71.054322 
L 80.839975 60.59518 
L 80.856426 66.936775 
L 80.872877 66.906844 
L 80.905779 65.898279 
L 80.938681 72.13186 
L 80.971583 74.432689 
L 80.988034 72.124051 
L 81.037386 65.546908 
L 81.10319 69.048905 
L 81.136092 69.223289 
L 81.152543 68.024724 
L 81.218346 76.23379 
L 81.251248 69.055412 
L 81.300601 71.193569 
L 81.382855 62.056623 
L 81.415757 64.659371 
L 81.498012 58.466133 
L 81.547365 73.478782 
L 81.596717 60.457235 
L 81.662521 59.140244 
L 81.678972 61.327854 
L 81.728325 61.107922 
L 81.810579 67.489859 
L 81.859932 69.369043 
L 81.843481 65.395949 
L 81.892834 68.15356 
L 81.958637 60.436413 
L 82.00799 62.827037 
L 82.139597 86.216629 
L 82.221852 71.384871 
L 82.271205 74.502963 
L 82.287655 73.226315 
L 82.337008 76.020365 
L 82.36991 75.123718 
L 82.386361 80.381269 
L 82.419263 72.126654 
L 82.485066 79.276402 
L 82.501517 76.543517 
L 82.55087 84.192993 
L 82.567321 84.485802 
L 82.698928 72.858026 
L 82.715379 72.981657 
L 82.797634 74.025359 
L 82.814085 70.764116 
L 82.830535 73.746865 
L 82.896339 67.772257 
L 82.962143 63.356696 
L 82.978594 68.032532 
L 83.011495 76.016461 
L 83.110201 74.210154 
L 83.126652 70.982747 
L 83.159554 77.509136 
L 83.208906 75.170568 
L 83.225357 75.836871 
L 83.291161 70.268292 
L 83.324063 75.667692 
L 83.389866 79.936199 
L 83.406317 77.769411 
L 83.472121 80.825037 
L 83.537925 70.660006 
L 83.653081 82.661276 
L 83.669532 79.971336 
L 83.685983 82.48559 
L 83.735335 74.16851 
L 83.751786 74.325976 
L 83.834041 80.161336 
L 83.850492 79.951815 
L 83.866943 74.725498 
L 83.916295 81.344285 
L 83.949197 75.63646 
L 83.965648 80.59079 
L 84.031452 71.063432 
L 84.047903 69.726921 
L 84.080805 74.988375 
L 84.097255 73.210699 
L 84.195961 81.37682 
L 84.228863 79.683732 
L 84.327568 72.894465 
L 84.344019 76.136187 
L 84.36047 79.636883 
L 84.409823 71.563159 
L 84.442725 75.299404 
L 84.459175 69.445824 
L 84.508528 76.639819 
L 84.557881 71.33672 
L 84.574332 72.438984 
L 84.590783 66.617939 
L 84.607234 68.382602 
L 84.656586 58.930723 
L 84.738841 61.932993 
L 84.886899 72.940013 
L 84.90335 68.247259 
L 84.985605 74.237483 
L 85.002055 74.650018 
L 85.018506 72.354395 
L 85.067859 69.747743 
L 85.150114 84.166965 
L 85.215917 79.655102 
L 85.281721 76.893587 
L 85.331074 78.210577 
L 85.380426 71.637338 
L 85.44623 76.522695 
L 85.528485 81.780246 
L 85.479132 75.108102 
L 85.577837 78.002357 
L 85.594288 77.731671 
L 85.610739 78.893798 
L 85.62719 78.564551 
L 85.676543 82.955386 
L 85.709445 78.077837 
L 85.725895 81.108737 
L 85.857503 72.636793 
L 85.906855 72.38823 
L 85.923306 74.178921 
L 86.005561 79.319348 
L 86.038463 76.732216 
L 86.054914 75.089882 
L 86.071365 79.038251 
L 86.104266 78.67777 
L 86.202972 84.254157 
L 86.219423 81.817985 
L 86.235874 79.532773 
L 86.268775 84.25676 
L 86.285226 83.829909 
L 86.301677 86.401424 
L 86.35103 77.650986 
L 86.53199 86.310328 
L 86.548441 83.339291 
L 86.630695 88.169991 
L 86.745852 93.573296 
L 86.663597 86.044848 
L 86.762303 90.715479 
L 86.811655 84.198198 
L 86.877459 87.580469 
L 86.992615 92.433292 
L 87.124223 81.560313 
L 87.157125 85.517791 
L 87.239379 93.745077 
L 87.25583 87.412592 
L 87.338085 83.84032 
L 87.288732 88.305334 
L 87.354535 86.560192 
L 87.535495 103.643326 
L 87.551946 100.357357 
L 87.601299 100.726948 
L 87.716455 90.43308 
L 87.749357 93.565487 
L 87.815161 90.662122 
L 87.831612 89.860476 
L 87.848063 93.173774 
L 87.880965 91.791715 
L 87.913866 93.798433 
L 87.930317 92.629799 
L 87.946768 88.739993 
L 88.012572 97.370704 
L 88.242885 85.830121 
L 88.292237 86.471698 
L 88.34159 88.142662 
L 88.325139 84.808543 
L 88.358041 85.119571 
L 88.489648 77.509136 
L 88.506099 84.131828 
L 88.588354 77.912562 
L 88.670608 72.220353 
L 88.687059 76.458928 
L 88.736412 82.369768 
L 88.802215 77.774617 
L 88.851568 72.940013 
L 88.917372 67.951847 
L 88.950274 72.138367 
L 89.06543 81.070997 
L 89.081881 80.05072 
L 89.098332 79.81387 
L 89.114783 80.066336 
L 89.131234 83.930115 
L 89.213488 79.979144 
L 89.279292 80.979901 
L 89.262841 79.950514 
L 89.295743 79.963528 
L 89.410899 62.069637 
L 89.443801 64.959988 
L 89.493154 68.733973 
L 89.526055 63.797861 
L 89.542506 64.898824 
L 89.624761 60.286755 
L 89.575408 64.926153 
L 89.641212 62.24272 
L 89.723466 67.029173 
L 89.756368 66.96931 
L 89.772819 63.696354 
L 89.78927 67.394859 
L 89.871525 65.496154 
L 89.920877 63.907177 
L 90.052485 75.861597 
L 90.167641 66.815747 
L 90.315699 77.48441 
L 90.348601 72.064188 
L 90.381503 78.347221 
L 90.414405 76.764751 
L 90.430855 79.731883 
L 90.496659 72.835903 
L 90.661168 61.951212 
L 90.677619 62.081349 
L 90.726972 53.988105 
L 90.809226 55.569274 
L 90.940834 65.617182 
L 90.957285 65.207249 
L 91.023088 56.572634 
L 90.990186 65.66273 
L 91.121794 60.606893 
L 91.138245 64.27937 
L 91.204048 56.979964 
L 91.220499 56.861539 
L 91.23695 54.051873 
L 91.253401 61.033743 
L 91.319205 69.760756 
L 91.368557 64.719234 
L 91.385008 59.984836 
L 91.41791 69.350824 
L 91.467263 67.470338 
L 91.77983 94.264325 
L 91.796281 94.204462 
L 91.829183 89.110885 
L 91.862085 94.641723 
L 91.878535 90.059586 
L 91.96079 99.048175 
L 91.993692 95.384808 
L 92.191103 105.448332 
L 92.075946 95.228643 
L 92.207554 103.478052 
L 92.339161 93.449665 
L 92.273357 103.975177 
L 92.388514 93.968913 
L 92.437866 95.950906 
L 92.454317 94.141996 
L 92.585925 88.453691 
L 92.602375 90.325066 
L 92.766885 101.964554 
L 92.783335 101.225374 
L 92.898492 95.940495 
L 92.947845 98.126803 
L 92.964295 101.026264 
L 92.997197 94.718505 
L 93.063001 98.914134 
L 93.112354 103.307572 
L 93.095903 97.722075 
L 93.161706 101.277429 
L 93.178157 98.268652 
L 93.194608 101.632704 
L 93.260412 101.565032 
L 93.293314 104.552987 
L 93.326215 96.507894 
L 93.342666 99.754821 
L 93.507175 92.132675 
L 93.540077 91.521029 
L 93.572979 95.887138 
L 93.671685 87.071632 
L 93.704586 87.339715 
L 93.721037 87.403482 
L 93.836194 96.241112 
L 93.852645 93.149048 
L 93.984252 86.318136 
L 94.017154 83.032167 
L 94.050055 88.365197 
L 94.099408 85.054502 
L 94.181663 89.926846 
L 94.165212 84.563884 
L 94.198114 86.091697 
L 94.214565 81.208942 
L 94.263917 86.70985 
L 94.31327 82.943674 
L 94.461328 93.810146 
L 94.510681 92.287538 
L 94.527132 88.009922 
L 94.560034 94.067818 
L 94.592935 93.98453 
L 94.724543 105.814018 
L 94.740994 104.554288 
L 94.823248 95.973029 
L 94.921954 98.357146 
L 95.03711 108.463615 
L 94.954855 97.019334 
L 95.070012 103.239901 
L 95.086463 101.580649 
L 95.119365 103.869766 
L 95.152266 102.300309 
L 95.333226 121.854752 
L 95.464834 106.970939 
L 95.481285 109.050535 
L 95.530637 103.712299 
L 95.563539 107.030803 
L 95.629343 113.965824 
L 95.678695 113.050958 
L 95.728048 105.065728 
L 95.793852 106.719774 
L 95.810303 109.507317 
L 95.859655 100.924756 
L 95.876106 106.13806 
L 95.94191 111.210816 
L 96.007714 97.204129 
L 96.040615 95.867618 
L 96.139321 106.908474 
L 96.188674 96.982895 
L 96.270928 97.119539 
L 96.287379 99.541396 
L 96.30383 90.705068 
L 96.336732 90.753218 
L 96.353183 87.52451 
L 96.386085 95.296315 
L 96.418986 95.241657 
L 96.501241 103.535312 
L 96.534143 100.008589 
L 96.649299 89.669174 
L 96.66575 93.110006 
L 96.698652 91.661577 
L 96.715103 97.496938 
L 96.780906 93.156856 
L 96.797357 88.574718 
L 96.813808 96.057618 
L 96.879612 88.818075 
L 97.02767 96.843648 
L 97.175728 84.842378 
L 97.290885 94.151106 
L 97.38959 82.818742 
L 97.406041 86.925878 
L 97.537648 74.344195 
L 97.57055 75.316322 
L 97.636354 79.707157 
L 97.652805 74.414469 
L 97.669255 73.090972 
L 97.702157 77.717356 
L 97.718608 76.967765 
L 97.817314 81.198531 
L 97.767961 76.495366 
L 97.850215 80.389077 
L 97.899568 74.853032 
L 97.948921 82.069151 
L 97.965372 79.793048 
L 98.014725 84.605528 
L 98.031175 81.672231 
L 98.129881 91.603015 
L 98.146332 90.711574 
L 98.162783 85.550326 
L 98.195685 92.593361 
L 98.245037 90.224861 
L 98.261488 91.93877 
L 98.29439 88.504444 
L 98.327292 91.397398 
L 98.343743 85.883477 
L 98.409546 95.002204 
L 98.541154 104.633672 
L 98.606957 97.841802 
L 98.574055 105.371551 
L 98.639859 100.965099 
L 98.738565 116.549051 
L 98.771466 112.454929 
L 98.952426 99.576533 
L 98.968877 104.239356 
L 99.01823 92.189935 
L 99.067583 101.131675 
L 99.182739 87.862867 
L 99.264994 101.507772 
L 99.314346 99.393039 
L 99.363699 94.234393 
L 99.429503 96.028988 
L 99.511757 107.837654 
L 99.56111 105.542031 
L 99.659815 87.1367 
L 99.709168 90.729794 
L 99.74207 97.459198 
L 99.791423 90.492944 
L 99.807874 93.560282 
L 99.92303 85.679162 
L 99.939481 86.21793 
L 99.988834 93.834872 
L 100.038186 90.162395 
L 100.087539 83.4421 
L 100.136892 87.96047 
L 100.153343 89.896914 
L 100.202695 87.78999 
L 100.219146 88.743897 
L 100.235597 82.311206 
L 100.334303 85.411079 
L 100.498812 76.229886 
L 100.367205 87.736634 
L 100.515263 78.111673 
L 100.531714 83.599566 
L 100.630419 83.438196 
L 100.663321 77.162971 
L 100.745575 81.402847 
L 100.959437 67.683764 
L 101.025241 77.552082 
L 101.074594 69.935141 
L 101.272005 81.406751 
L 101.304906 77.990645 
L 101.321357 76.723107 
L 101.337808 80.186063 
L 101.37071 83.106345 
L 101.420063 77.883932 
L 101.535219 67.193146 
L 101.55167 67.312872 
L 101.683277 80.871887 
L 101.749081 75.770501 
L 101.781983 77.536465 
L 101.864237 82.052233 
L 101.880688 80.772982 
L 101.930041 77.168177 
L 101.995845 78.64914 
L 102.012295 82.359357 
L 102.078099 77.717356 
L 102.111001 82.174562 
L 102.127452 78.240509 
L 102.209706 79.051265 
L 102.226157 82.027507 
L 102.291961 76.507079 
L 102.324863 79.96613 
L 102.341314 77.255369 
L 102.374215 82.991825 
L 102.423568 80.573872 
L 102.588077 97.543787 
L 102.604528 96.36214 
L 102.620979 89.034103 
L 102.703234 95.923577 
L 102.736135 103.181339 
L 102.769037 94.939738 
L 102.785488 95.072478 
L 102.81839 88.926089 
L 102.867743 99.322765 
L 102.884194 97.491732 
L 102.933546 100.241535 
L 102.949997 95.845494 
L 102.966448 96.606798 
L 103.048703 92.382538 
L 103.015801 98.087761 
L 103.081605 93.832269 
L 103.163859 110.439101 
L 103.229663 109.16896 
L 103.459975 92.37473 
L 103.492877 94.143297 
L 103.54223 98.046117 
L 103.525779 92.416374 
L 103.558681 93.652679 
L 103.640935 86.430054 
L 103.673837 89.492187 
L 103.690288 94.475148 
L 103.756092 85.334298 
L 103.772543 86.195807 
L 103.90415 94.788779 
L 103.838346 84.138335 
L 103.920601 91.006986 
L 104.052208 79.483321 
L 104.068659 81.409354 
L 104.150914 96.408989 
L 104.200266 91.191781 
L 104.216717 90.973151 
L 104.26607 82.119904 
L 104.331874 85.366832 
L 104.463481 92.28884 
L 104.562186 87.571359 
L 104.496383 93.342952 
L 104.578637 89.178556 
L 104.611539 87.838141 
L 104.62799 90.636095 
L 104.743146 85.805395 
L 104.759597 88.90787 
L 104.792499 82.303398 
L 104.825401 85.312174 
L 104.940557 77.209821 
L 104.957008 82.773194 
L 105.039263 75.351459 
L 105.154419 58.075721 
L 105.203772 63.009229 
L 105.302477 77.168177 
L 105.335379 75.226527 
L 105.516339 57.746473 
L 105.53279 60.644633 
L 105.680848 82.986619 
L 105.697299 80.895311 
L 105.730201 85.105256 
L 105.828906 82.511618 
L 105.845357 80.985106 
L 105.878259 85.481353 
L 105.89471 88.033347 
L 105.944063 81.896068 
L 105.960514 76.274133 
L 106.042768 84.723953 
L 106.157925 70.483019 
L 106.223728 75.484199 
L 106.25663 74.637004 
L 106.355335 81.667026 
L 106.404688 68.815959 
L 106.470492 77.446671 
L 106.552746 79.003114 
L 106.585648 72.420765 
L 106.602099 72.120147 
L 106.651452 81.009832 
L 106.667903 70.745897 
L 106.717255 78.17544 
L 106.733706 77.935987 
L 106.750157 81.23497 
L 106.783059 72.668026 
L 106.848863 67.255612 
L 106.881765 74.750224 
L 106.996921 82.4947 
L 107.013372 79.968733 
L 107.029823 80.059829 
L 107.046274 79.194416 
L 107.062725 82.209699 
L 107.128528 96.097961 
L 107.177881 89.133008 
L 107.293037 82.149836 
L 107.227234 89.218899 
L 107.309488 84.904844 
L 107.408194 84.795529 
L 107.424645 90.496848 
L 107.52335 81.387231 
L 107.457546 91.5887 
L 107.556252 84.83457 
L 107.572703 84.066759 
L 107.605605 90.014038 
L 107.671408 83.980869 
L 107.687859 87.359235 
L 107.720761 75.723652 
L 107.819466 76.689271 
L 107.88527 79.587431 
L 107.901721 76.969066 
L 107.918172 75.92146 
L 107.934623 81.004627 
L 107.967525 86.583616 
L 108.016877 77.073176 
L 108.033328 84.394706 
L 108.099132 77.390711 
L 108.115583 82.477782 
L 108.164935 90.222258 
L 108.214288 83.695868 
L 108.230739 83.399155 
L 108.312994 85.191146 
L 108.362346 73.697412 
L 108.477503 88.112731 
L 108.543306 88.034648 
L 108.559757 88.270197 
L 108.592659 82.533741 
L 108.674914 84.894433 
L 108.691365 87.102865 
L 108.724266 83.911896 
L 108.773619 85.526901 
L 108.872325 81.562916 
L 108.855874 88.335266 
L 108.888775 83.760937 
L 108.921677 81.284422 
L 108.954579 85.266626 
L 108.987481 90.004928 
L 109.053285 85.081831 
L 109.184892 94.545422 
L 109.201343 89.716023 
L 109.250695 91.56918 
L 109.33295 83.651621 
L 109.349401 89.938558 
L 109.398754 77.747288 
L 109.415205 82.412713 
L 109.497459 74.882964 
L 109.448106 84.289294 
L 109.530361 76.399065 
L 109.612615 82.479083 
L 109.563263 72.299737 
L 109.645517 77.592424 
L 109.69487 81.725588 
L 109.744223 78.815716 
L 109.908732 67.910203 
L 110.023888 76.391256 
L 110.073241 70.177196 
L 110.122594 75.283787 
L 110.171946 84.725255 
L 110.254201 81.656615 
L 110.352906 73.568576 
L 110.369357 77.570301 
L 110.385808 77.388109 
L 110.402259 77.433657 
L 110.468063 72.462409 
L 110.550317 83.734909 
L 110.583219 76.786874 
L 110.665474 79.497636 
L 110.698375 77.549479 
L 110.813532 66.140334 
L 110.96159 77.809754 
L 110.978041 81.620177 
L 111.027394 72.746108 
L 111.060295 75.23954 
L 111.093197 76.630709 
L 111.109648 74.407963 
L 111.241255 68.92137 
L 111.307059 77.743384 
L 111.274157 67.911504 
L 111.356412 73.899125 
L 111.372863 71.446036 
L 111.389314 77.675712 
L 111.438666 75.059951 
L 111.553823 86.042245 
L 111.570274 84.854091 
L 111.619626 82.010589 
L 111.668979 89.981504 
L 111.734783 83.351004 
L 111.767685 91.401303 
L 111.800586 91.686303 
L 111.932194 82.812235 
L 111.981546 92.675348 
L 112.030899 84.36998 
L 112.04735 79.629075 
L 112.096703 86.465191 
L 112.113154 84.260664 
L 112.129605 88.872733 
L 112.211859 82.043123 
L 112.261212 79.126744 
L 112.277663 83.388744 
L 112.294114 81.428875 
L 112.343466 85.599778 
L 112.376368 77.569 
L 112.392819 74.752827 
L 112.458623 82.330727 
L 112.475074 79.617362 
L 112.557328 86.458685 
L 112.573779 79.727979 
L 112.836994 98.592695 
L 112.902797 106.51676 
L 112.919248 104.307027 
L 112.95215 91.94788 
L 113.034405 96.571661 
L 113.116659 105.027988 
L 113.149561 99.847219 
L 113.31407 86.685124 
L 113.346972 89.073145 
L 113.379874 84.558679 
L 113.412775 86.201013 
L 113.429226 86.135944 
L 113.445677 87.528414 
L 113.478579 85.047995 
L 113.49503 81.801068 
L 113.560834 89.576776 
L 113.659539 77.093998 
L 113.741794 79.571814 
L 113.774695 87.377455 
L 113.873401 85.360325 
L 114.021459 74.955841 
L 114.03791 73.772892 
L 114.054361 76.799888 
L 114.070812 82.299494 
L 114.120165 73.27837 
L 114.153066 75.519336 
L 114.21887 73.029808 
L 114.268223 74.033167 
L 114.317575 78.015371 
L 114.301125 72.907479 
L 114.366928 75.321527 
L 114.416281 69.352125 
L 114.449183 75.804337 
L 114.465634 75.167965 
L 114.482085 75.139335 
L 114.531437 80.585584 
L 114.58079 75.451664 
L 114.663045 68.283697 
L 114.695946 68.402122 
L 114.778201 80.446337 
L 114.860455 78.015371 
L 114.959161 74.073509 
L 114.926259 79.379211 
L 114.975612 74.950635 
L 114.992063 74.582347 
L 115.12367 81.259696 
L 115.140121 80.671475 
L 115.288179 95.283301 
L 115.321081 88.602047 
L 115.353983 95.686727 
L 115.419786 91.35185 
L 115.436237 94.105557 
L 115.502041 88.97424 
L 115.633648 82.291685 
L 115.650099 83.527991 
L 115.683001 89.160337 
L 115.715903 81.624081 
L 115.748805 84.280185 
L 115.863961 78.236604 
L 115.84751 84.651076 
L 115.929765 80.706612 
L 115.946215 81.034558 
L 116.061372 76.438106 
L 116.094274 86.932385 
L 116.176528 80.052021 
L 116.258783 72.69145 
L 116.308135 74.918101 
L 116.324586 72.199531 
L 116.357488 74.482141 
L 116.423292 86.161971 
L 116.472645 84.613336 
L 116.554899 74.076112 
L 116.587801 82.469974 
L 116.637154 81.281819 
L 116.670055 83.334086 
L 116.768761 67.289448 
L 116.801663 71.840352 
L 116.818114 83.70758 
L 116.916819 80.132706 
L 117.064877 94.658641 
L 117.11423 100.616331 
L 117.147132 96.800703 
L 117.163583 92.340894 
L 117.212935 97.875638 
L 117.229386 96.435017 
L 117.29519 92.106647 
L 117.360994 103.347915 
L 117.393895 100.579892 
L 117.426797 102.923667 
L 117.558405 126.659425 
L 117.607757 118.477687 
L 117.706463 105.36114 
L 117.887423 89.795407 
L 117.903874 89.216296 
L 118.035481 97.293923 
L 118.084834 92.257607 
L 118.134186 97.85872 
L 118.150637 95.478507 
L 118.167088 97.076594 
L 118.19999 93.286993 
L 118.298695 81.387231 
L 118.265794 95.872823 
L 118.331597 84.798132 
L 118.430303 89.434927 
L 118.463205 80.05072 
L 118.545459 85.824916 
L 118.56191 90.276916 
L 118.611263 81.37682 
L 118.644165 88.897459 
L 118.693517 88.98335 
L 118.775772 80.819832 
L 118.858026 76.253311 
L 118.890928 78.334208 
L 119.006085 83.390045 
L 118.940281 77.723863 
L 119.022535 83.159702 
L 119.170594 92.563429 
L 119.302201 87.28766 
L 119.335103 92.589457 
L 119.368005 83.321072 
L 119.384455 83.738813 
L 119.46671 73.79892 
L 119.499612 80.838051 
L 119.581866 80.447639 
L 119.598317 88.397732 
L 119.697023 70.576718 
L 119.713474 76.747833 
L 119.729925 80.589488 
L 119.779277 73.558165 
L 119.812179 74.650018 
L 119.960237 84.984228 
L 119.976688 82.836961 
L 119.993139 88.353485 
L 120.042492 87.359235 
L 120.108295 91.075959 
L 120.157648 90.781849 
L 120.19055 86.102108 
L 120.289255 87.262934 
L 120.404412 93.457473 
L 120.338608 86.070875 
L 120.420863 91.613426 
L 120.486666 86.659096 
L 120.519568 92.974664 
L 120.601823 98.856873 
L 120.618274 95.885837 
L 120.634725 101.924212 
L 120.684077 92.10014 
L 120.700528 94.122475 
L 120.716979 90.215751 
L 120.782783 97.96283 
L 120.799234 105.211482 
L 120.865037 90.495546 
L 120.881488 90.6413 
L 120.91439 94.717203 
L 120.947292 86.70985 
L 120.963743 89.872188 
L 120.980194 84.913954 
L 121.029546 94.263024 
L 121.078899 88.564307 
L 121.09535 87.231701 
L 121.111801 89.08746 
L 121.128252 87.270742 
L 121.243408 97.703856 
L 121.292761 87.246016 
L 121.358565 89.70301 
L 121.407917 100.935167 
L 121.473721 98.631736 
L 121.506623 96.559949 
L 121.555975 99.357902 
L 121.605328 104.165177 
L 121.654681 100.287083 
L 121.736935 98.001871 
L 121.704034 103.717505 
L 121.769837 99.581739 
L 121.786288 101.999691 
L 121.81919 98.810024 
L 121.901445 89.339926 
L 121.934346 91.46507 
L 121.950797 91.640755 
L 122.033052 77.585918 
L 122.082405 82.553262 
L 122.164659 81.78415 
L 122.18111 85.733819 
L 122.230463 88.317046 
L 122.329168 78.397975 
L 122.394972 83.85854 
L 122.444325 80.519214 
L 122.526579 83.971759 
L 122.510128 79.163183 
L 122.559481 83.147989 
L 122.575932 80.130103 
L 122.641735 86.201013 
L 122.658186 80.580379 
L 122.674637 83.33799 
L 122.707539 78.695989 
L 122.72399 78.792291 
L 122.756892 73.304398 
L 122.839146 74.981868 
L 122.921401 82.65607 
L 122.954303 77.552082 
L 122.970754 77.472698 
L 123.020106 79.223046 
L 123.08591 73.092274 
L 123.118812 81.924698 
L 123.217517 78.697291 
L 123.513634 64.055533 
L 123.530085 65.615881 
L 123.579437 61.795047 
L 123.595888 59.533259 
L 123.661692 65.553415 
L 123.711045 66.431842 
L 123.743946 63.933204 
L 123.760397 62.462652 
L 123.80975 66.892528 
L 123.826201 65.268414 
L 123.859103 67.198351 
L 123.875554 62.561556 
L 123.892005 66.79883 
L 124.007161 55.342835 
L 124.023612 65.218962 
L 124.122317 64.647659 
L 124.155219 62.460049 
L 124.17167 67.306365 
L 124.237474 71.689393 
L 124.253925 66.412322 
L 124.270375 68.294108 
L 124.369081 82.164151 
L 124.385532 72.233367 
L 124.434885 68.741781 
L 124.451335 69.564249 
L 124.550041 77.42715 
L 124.566492 77.2853 
L 124.599394 68.413835 
L 124.681648 74.355908 
L 124.829706 66.126019 
L 124.862608 75.07817 
L 124.944863 72.796862 
L 124.961314 72.282819 
L 125.109372 85.467038 
L 125.142274 79.962226 
L 125.191626 85.604983 
L 125.273881 91.12411 
L 125.240979 84.336144 
L 125.306783 88.600746 
L 125.421939 95.646384 
L 125.43839 92.96165 
L 125.504194 89.407598 
L 125.537095 92.817197 
L 125.668703 83.764841 
L 125.685154 83.737512 
L 125.718055 85.585463 
L 125.750957 84.0108 
L 125.767408 80.398186 
L 125.816761 86.601836 
L 125.833212 82.844769 
L 125.98127 94.851245 
L 126.112877 87.930538 
L 126.129328 87.907114 
L 126.145779 88.57602 
L 126.16223 88.553897 
L 126.178681 84.699227 
L 126.228034 96.867073 
L 126.260935 95.453781 
L 126.34319 104.961618 
L 126.507699 87.756154 
L 126.540601 91.770893 
L 126.589954 91.19048 
L 126.606405 84.600323 
L 126.70511 86.40663 
L 126.770914 78.888593 
L 126.836717 81.712574 
L 126.918972 88.734787 
L 126.935423 81.638396 
L 126.951874 84.148746 
L 127.06703 73.810632 
L 127.001226 85.538613 
L 127.099932 80.523118 
L 127.116383 83.379634 
L 127.149285 77.497424 
L 127.165735 78.586674 
L 127.182186 74.838717 
L 127.231539 85.442312 
L 127.24799 82.092575 
L 127.363146 91.643358 
L 127.313794 81.842711 
L 127.379597 90.729794 
L 127.396048 90.003627 
L 127.445401 83.380935 
L 127.494754 90.729794 
L 127.577008 86.005806 
L 127.60991 88.730883 
L 127.626361 90.071298 
L 127.642812 83.393949 
L 127.659263 84.622446 
L 127.741517 85.871765 
L 127.79087 79.945308 
L 127.823772 81.572026 
L 127.840223 80.118391 
L 127.938928 74.752827 
L 127.955379 75.246047 
L 127.97183 79.074689 
L 128.054085 76.370434 
L 128.086986 75.123718 
L 128.15279 77.053656 
L 128.169241 76.098447 
L 128.218594 80.907024 
L 128.267946 78.994004 
L 128.284397 75.5805 
L 128.366652 81.054079 
L 128.448906 74.859539 
L 128.465357 77.787631 
L 128.613415 86.086492 
L 128.629866 87.257728 
L 128.662768 83.901485 
L 128.69567 84.723953 
L 128.712121 81.742506 
L 128.761474 88.650198 
L 128.777925 85.673956 
L 128.827277 91.018699 
L 128.909532 90.28082 
L 128.958885 93.421035 
L 128.975335 88.790747 
L 129.008237 90.224861 
L 129.074041 84.674501 
L 129.139845 85.530805 
L 129.205648 89.339926 
L 129.23855 88.457595 
L 129.386608 77.410232 
L 129.435961 80.009076 
L 129.501765 79.423457 
L 129.518215 73.740358 
L 129.616921 77.035436 
L 129.633372 77.222834 
L 129.732077 72.068092 
L 129.764979 72.587341 
L 129.797881 75.829063 
L 129.847234 69.569455 
L 129.880135 66.843076 
L 129.913037 70.171991 
L 129.96239 74.975362 
L 130.028194 71.518913 
L 130.110448 76.844134 
L 130.061095 70.440074 
L 130.159801 73.212 
L 130.242055 65.898279 
L 130.192703 74.678648 
L 130.291408 67.859449 
L 130.307859 68.251163 
L 130.32431 67.541914 
L 130.340761 68.006505 
L 130.488819 81.160792 
L 130.50527 81.383326 
L 130.603975 78.001056 
L 130.620426 79.074689 
L 130.636877 79.224347 
L 130.784935 72.763026 
L 130.801386 73.265356 
L 130.850739 77.369889 
L 130.916543 76.753038 
L 130.998797 71.854667 
L 130.949445 77.241053 
L 131.015248 77.217629 
L 131.04815 76.760847 
L 131.146855 80.274556 
L 131.163306 80.222501 
L 131.22911 76.085433 
L 131.278463 78.580167 
L 131.294914 78.214481 
L 131.360717 68.700137 
L 131.426521 72.696656 
L 131.492325 75.933173 
L 131.525226 72.619875 
L 131.541677 73.075356 
L 131.558128 71.668571 
L 131.623932 74.777553 
L 131.689735 69.741236 
L 131.722637 69.363837 
L 131.739088 71.788297 
L 131.755539 67.933628 
L 131.854245 70.017127 
L 131.870695 70.171991 
L 132.018754 66.201499 
L 132.13391 70.16158 
L 132.150361 67.54712 
L 132.166812 66.987529 
L 132.183263 69.045001 
L 132.199714 70.171991 
L 132.232615 65.192934 
L 132.249066 66.159855 
L 132.281968 68.583013 
L 132.298419 66.398006 
L 132.364223 59.401821 
L 132.413575 62.974092 
L 132.479379 66.046635 
L 132.512281 64.524028 
L 132.528732 63.03916 
L 132.578085 65.287935 
L 132.610986 64.482384 
L 132.660339 69.056713 
L 132.742594 67.927121 
L 132.775495 67.202255 
L 132.791946 67.432599 
L 132.907103 72.180011 
L 133.055161 64.331425 
L 133.170317 72.051174 
L 133.203219 71.703708 
L 133.252572 74.989677 
L 133.285474 70.024935 
L 133.351277 74.476935 
L 133.466434 68.425547 
L 133.482885 70.352882 
L 133.515786 73.861386 
L 133.58159 68.735274 
L 133.598041 70.330758 
L 133.680295 67.584859 
L 133.696746 66.854789 
L 133.713197 68.247259 
L 133.746099 68.209519 
L 133.795452 66.65698 
L 133.877706 76.058105 
L 133.894157 72.507957 
L 133.992863 72.734396 
L 134.058666 77.907357 
L 134.108019 73.417617 
L 134.223175 67.623901 
L 134.173823 74.100838 
L 134.256077 69.19596 
L 134.321881 72.306244 
L 134.288979 69.128289 
L 134.371234 71.275556 
L 134.387685 69.422399 
L 134.437037 73.342137 
L 134.469939 72.385628 
L 134.502841 70.855212 
L 134.519292 76.075022 
L 134.552194 72.005626 
L 134.650899 77.289204 
L 134.617997 71.917133 
L 134.700252 76.673654 
L 134.749605 72.234668 
L 134.84831 73.365562 
L 134.864761 73.05063 
L 134.897663 73.901728 
L 134.914114 76.218174 
L 134.963466 70.244868 
L 135.012819 75.395705 
L 135.045721 67.794381 
L 135.127975 73.283576 
L 135.243132 77.827973 
L 135.160877 73.189877 
L 135.259583 74.987074 
L 135.292485 78.207974 
L 135.358288 75.2955 
L 135.39119 73.360357 
L 135.440543 76.806395 
L 135.506346 76.465435 
L 135.621503 82.171959 
L 135.637954 80.227707 
L 135.654405 85.48786 
L 135.703757 81.125654 
L 135.720208 83.993882 
L 135.802463 80.766475 
L 135.818914 82.614426 
L 135.884717 83.295045 
L 135.950521 76.460229 
L 135.966972 80.545242 
L 136.049226 77.509136 
L 136.065677 73.862687 
L 136.147932 77.631466 
L 136.180834 77.407629 
L 136.246637 80.86538 
L 136.312441 75.935775 
L 136.361794 77.846192 
L 136.378245 77.593726 
L 136.411146 83.150592 
L 136.509852 83.004838 
L 136.592106 78.585373 
L 136.625008 81.110038 
L 136.641459 83.710183 
L 136.690812 79.488526 
L 136.707263 79.750102 
L 136.756615 80.487981 
L 136.805968 77.462287 
L 136.888223 85.451421 
L 136.937575 82.606618 
L 136.986928 82.679495 
L 137.069183 78.840442 
L 137.118535 82.499905 
L 137.134986 78.384961 
L 137.184339 79.597842 
L 137.233692 79.932295 
L 137.365299 71.958777 
L 137.398201 75.834268 
L 137.464005 73.113096 
L 137.480455 69.859661 
L 137.546259 77.234547 
L 137.56271 77.762904 
L 137.612063 74.643511 
L 137.644965 79.878938 
L 137.661415 81.332573 
L 137.677866 74.915498 
L 137.710768 76.780367 
L 137.74367 76.920916 
L 137.825925 70.096511 
L 137.891728 82.311206 
L 138.006885 76.557832 
L 138.122041 68.134039 
L 138.138492 72.794259 
L 138.270099 65.881361 
L 138.352354 71.697201 
L 138.385255 68.200409 
L 138.418157 64.085465 
L 138.451059 67.660339 
L 138.516863 77.873521 
L 138.582666 77.044546 
L 138.747175 70.576718 
L 138.763626 70.689937 
L 138.780077 67.836025 
L 138.82943 72.925698 
L 138.878783 69.803702 
L 138.911685 71.066034 
L 138.928135 69.335207 
L 138.944586 70.788842 
L 139.026841 69.10096 
L 139.059743 66.489103 
L 139.092645 72.56782 
L 139.109095 72.893163 
L 139.158448 68.58952 
L 139.207801 73.85618 
L 139.257154 70.498635 
L 139.322957 72.121449 
L 139.37231 65.384236 
L 139.388761 68.933083 
L 139.454565 62.816626 
L 139.487466 66.632254 
L 139.503917 65.829306 
L 139.520368 69.238906 
L 139.55327 68.3813 
L 139.619074 69.785483 
L 139.586172 67.958354 
L 139.635525 68.222533 
L 139.717779 66.534651 
L 139.668426 69.231097 
L 139.750681 67.131981 
L 139.767132 67.452119 
L 139.783583 67.0552 
L 139.800034 65.904786 
L 139.849386 68.113217 
L 139.865837 70.689937 
L 139.91519 68.081984 
L 139.931641 68.804247 
L 139.948092 64.517521 
L 140.030346 68.649383 
L 140.063248 69.768565 
L 140.079699 67.828216 
L 140.145503 68.938288 
L 140.211306 65.0654 
L 140.227757 64.992523 
L 140.244208 65.890471 
L 140.293561 62.539433 
L 140.408717 67.207461 
L 140.425168 63.514162 
L 140.441619 62.315597 
L 140.474521 64.809029 
L 140.507423 64.067246 
L 140.523874 65.136975 
L 140.556775 60.513194 
L 140.589677 63.248682 
L 140.606128 60.975182 
L 140.63903 66.796227 
L 140.671932 66.405815 
L 140.754186 60.8034 
L 140.803539 63.106832 
L 140.869343 67.397462 
L 140.885794 62.880393 
L 140.918695 65.36862 
L 141.00095 58.727709 
L 141.083205 61.429361 
L 141.099655 64.46937 
L 141.132557 59.567095 
L 141.165459 63.19012 
L 141.231263 53.531323 
L 141.198361 63.278613 
L 141.280615 56.425578 
L 141.346419 60.498879 
L 141.395772 57.395102 
L 141.428674 55.556261 
L 141.461575 57.702226 
L 141.478026 56.584346 
L 141.642535 67.846436 
L 141.675437 64.23252 
L 141.72479 68.541369 
L 141.741241 65.273619 
L 141.839946 70.343772 
L 141.872848 69.214179 
L 142.020906 76.901395 
L 142.070259 73.472275 
L 142.152514 70.043155 
L 142.103161 75.074266 
L 142.185415 72.573025 
L 142.251219 71.292474 
L 142.234768 74.411867 
L 142.26767 71.811722 
L 142.349925 75.603925 
L 142.382826 75.093787 
L 142.465081 70.361991 
L 142.497983 71.086856 
L 142.530885 68.779521 
L 142.613139 72.181312 
L 142.695394 65.890471 
L 142.744746 67.109858 
L 142.81055 69.47055 
L 142.843452 64.82855 
L 142.876354 64.086766 
L 142.975059 69.846647 
L 143.007961 66.234033 
L 143.073765 69.607194 
L 143.090215 70.443978 
L 143.123117 67.514585 
L 143.139568 68.740479 
L 143.156019 66.538555 
L 143.17247 69.932538 
L 143.238274 69.544728 
L 143.320528 74.427483 
L 143.35343 70.948911 
L 143.402783 70.263087 
L 143.386332 73.076657 
L 143.419234 71.971791 
L 143.435685 71.969188 
L 143.517939 59.348464 
L 143.567292 65.76684 
L 143.633095 69.582468 
L 143.665997 66.746775 
L 143.682448 65.585949 
L 143.731801 69.400276 
L 143.764703 73.094876 
L 143.797605 69.03459 
L 143.830506 70.174593 
L 143.863408 68.875822 
L 143.912761 70.67302 
L 143.929212 71.038706 
L 143.945663 67.856847 
L 144.027917 71.216994 
L 144.044368 70.24747 
L 144.07727 71.909325 
L 144.110172 69.305276 
L 144.126623 69.495276 
L 144.143074 68.413835 
L 144.159525 70.244868 
L 144.225328 69.941647 
L 144.307583 71.425214 
L 144.274681 67.833422 
L 144.324034 69.495276 
L 144.356935 67.033077 
L 144.389837 71.663365 
L 144.406288 74.384538 
L 144.455641 70.1811 
L 144.488543 73.364261 
L 144.504994 69.199864 
L 144.603699 69.997607 
L 144.62015 72.194326 
L 144.636601 66.948488 
L 144.702405 69.771167 
L 144.735306 68.149656 
L 144.80111 70.199319 
L 144.817561 73.184671 
L 144.866914 69.847949 
L 144.899815 72.347888 
L 144.965619 65.074509 
L 145.031423 66.863898 
L 145.047874 67.284242 
L 145.064325 66.027115 
L 145.080775 63.76793 
L 145.113677 66.3915 
L 145.16303 65.121359 
L 145.212383 66.962803 
L 145.261735 65.860539 
L 145.278186 64.993824 
L 145.294637 65.341291 
L 145.311088 69.530413 
L 145.409794 67.829518 
L 145.475597 69.486167 
L 145.492048 67.133283 
L 145.557852 69.022878 
L 145.574303 71.667269 
L 145.640106 66.802734 
L 145.656557 69.292262 
L 145.70591 62.352035 
L 145.771714 67.189242 
L 145.870419 62.653954 
L 145.821066 67.239995 
L 145.88687 64.226013 
L 145.903321 64.257246 
L 145.919772 62.830941 
L 145.952674 66.498212 
L 145.985575 66.210609 
L 146.002026 66.224924 
L 146.018477 64.812933 
L 146.034928 70.378909 
L 146.06783 67.515887 
L 146.100732 72.023846 
L 146.182986 69.225892 
L 146.363946 62.673474 
L 146.380397 63.751012 
L 146.42975 67.167118 
L 146.479103 63.735395 
L 146.495554 61.04025 
L 146.528455 64.991221 
L 146.594259 62.578474 
L 146.643612 66.731158 
L 146.692965 64.304096 
L 146.709415 61.252374 
L 146.758768 67.640818 
L 146.79167 64.097177 
L 146.857474 69.140001 
L 146.906826 65.989375 
L 146.923277 64.62033 
L 146.989081 65.234578 
L 147.005532 68.601232 
L 147.087786 64.214301 
L 147.120688 62.323405 
L 147.15359 65.570333 
L 147.186492 64.167452 
L 147.268746 69.008562 
L 147.33455 68.847192 
L 147.367452 67.674654 
L 147.416805 70.592334 
L 147.433255 71.38357 
L 147.482608 70.377608 
L 147.51551 66.472185 
L 147.597765 67.485955 
L 147.663568 66.158554 
L 147.630666 68.746986 
L 147.680019 66.934172 
L 147.762274 66.119512 
L 147.778725 69.179042 
L 147.87743 59.418738 
L 147.943234 60.686277 
L 147.976135 62.312994 
L 148.124194 69.449728 
L 148.305154 59.094696 
L 148.338055 62.496488 
L 148.486114 75.692419 
L 148.387408 61.927787 
L 148.519015 72.964739 
L 148.551917 74.284332 
L 148.617721 69.585071 
L 148.699975 77.991946 
L 148.749328 75.28639 
L 148.765779 75.095088 
L 148.848034 80.356543 
L 148.913837 78.95236 
L 149.012543 70.557197 
L 149.045445 72.959533 
L 149.061895 75.834268 
L 149.127699 70.836993 
L 149.177052 73.71433 
L 149.242855 67.189242 
L 149.374463 75.097691 
L 149.390914 73.672686 
L 149.407365 73.03241 
L 149.456717 74.109948 
L 149.538972 72.798163 
L 149.637677 85.038886 
L 149.769285 72.366107 
L 149.802186 75.709336 
L 149.835088 70.24747 
L 149.884441 76.831121 
L 149.950245 67.845134 
L 149.999597 71.574872 
L 150.016048 70.5598 
L 150.032499 65.898279 
L 150.081852 74.66173 
L 150.114754 69.509591 
L 150.147655 68.486711 
L 150.180557 71.101172 
L 150.279263 61.524361 
L 150.312165 64.120602 
L 150.361517 61.425457 
L 150.394419 65.725196 
L 150.443772 66.214513 
L 150.542477 69.767263 
L 150.493125 66.072663 
L 150.558928 66.89383 
L 150.575379 63.823889 
L 150.608281 70.134251 
L 150.657634 69.051508 
L 150.674085 70.022333 
L 150.723437 68.221231 
L 150.739888 68.387807 
L 150.756339 68.206916 
L 150.822143 58.838326 
L 150.887946 59.213121 
L 151.036005 63.860327 
L 151.068906 60.996003 
L 151.085357 67.427393 
L 151.118259 65.176016 
L 151.13471 65.865745 
L 151.151161 62.659159 
L 151.184063 57.719144 
L 151.200514 63.904574 
L 151.233415 60.386961 
L 151.282768 68.757397 
L 151.332121 59.738876 
L 151.447277 69.428906 
L 151.49663 67.255612 
L 151.595335 62.266144 
L 151.529532 68.148354 
L 151.644688 63.954026 
L 151.661139 65.09403 
L 151.710492 60.813811 
L 151.792746 67.636914 
L 151.825648 66.715542 
L 151.924354 59.171477 
L 151.940805 61.957719 
L 152.006608 70.881239 
L 152.03951 67.290749 
L 152.171117 56.818593 
L 152.269823 62.36635 
L 152.22047 55.695508 
L 152.319175 61.991555 
L 152.417881 56.812087 
L 152.434332 58.066611 
L 152.500135 67.669449 
L 152.549488 59.762301 
L 152.565939 59.487711 
L 152.58239 60.249015 
L 152.631743 63.32286 
L 152.681095 62.929845 
L 152.746899 55.342835 
L 152.812703 56.206948 
L 152.845605 61.809362 
L 152.927859 57.798528 
L 153.026565 55.510713 
L 153.043015 57.03332 
L 153.059466 57.605925 
L 153.12527 49.986381 
L 153.092368 58.545517 
L 153.191074 52.3731 
L 153.240426 59.321135 
L 153.322681 58.175926 
L 153.339132 58.326886 
L 153.421386 54.362901 
L 153.372034 58.855243 
L 153.454288 56.838114 
L 153.48719 57.488801 
L 153.503641 56.870648 
L 153.520092 54.474819 
L 153.552994 62.396282 
L 153.585895 56.946128 
L 153.717503 65.562524 
L 153.84911 56.29414 
L 153.882012 58.274831 
L 153.947815 56.551812 
L 153.964266 55.843864 
L 153.980717 58.391954 
L 154.079423 61.72217 
L 154.03007 55.750165 
L 154.095874 59.705041 
L 154.178128 48.904939 
L 154.21103 58.451818 
L 154.293285 52.6568 
L 154.326186 56.157495 
L 154.375539 59.784424 
L 154.424892 55.487288 
L 154.441343 57.293595 
L 154.523597 54.934204 
L 154.490695 60.27244 
L 154.556499 56.905785 
L 154.605852 58.031474 
L 154.589401 55.474274 
L 154.638754 56.300647 
L 154.655205 55.547151 
L 154.75391 61.758609 
L 154.770361 60.76566 
L 154.836165 53.453241 
L 154.885517 58.269625 
L 154.901968 60.876277 
L 154.951321 55.752768 
L 154.967772 58.886476 
L 155.017125 52.85591 
L 155.082928 55.213999 
L 155.247437 65.55862 
L 155.11583 55.027903 
L 155.329692 60.908811 
L 155.411946 57.445856 
L 155.428397 61.53217 
L 155.444848 60.190453 
L 155.494201 64.651563 
L 155.510652 66.474787 
L 155.543554 64.297589 
L 155.592906 58.247502 
L 155.65871 59.425245 
L 155.757415 53.667967 
L 155.724514 61.033743 
L 155.790317 54.641395 
L 155.83967 59.386204 
L 155.872572 53.995913 
L 155.905474 55.329822 
L 155.921925 54.507353 
L 155.938375 58.363324 
L 155.954826 59.854699 
L 156.004179 55.899823 
L 156.02063 56.199139 
L 156.037081 54.126051 
L 156.069983 59.849493 
L 156.135786 54.545093 
L 156.250943 62.435323 
L 156.267394 60.7084 
L 156.333197 55.454754 
L 156.366099 58.753736 
L 156.38255 63.610464 
L 156.448354 58.36853 
L 156.464805 60.929633 
L 156.530608 56.761333 
L 156.579961 59.796137 
L 156.596412 59.777918 
L 156.645765 57.643664 
L 156.695117 61.027236 
L 156.777372 54.431874 
L 156.826725 57.518733 
L 156.843175 57.937775 
L 156.859626 52.108921 
L 156.941881 59.72326 
L 156.958332 59.366683 
L 156.974783 61.360388 
L 156.991234 60.876277 
L 157.10639 68.208217 
L 157.122841 66.576295 
L 157.155743 62.081349 
L 157.188645 66.961501 
L 157.237997 62.903818 
L 157.270899 67.324585 
L 157.353154 63.66382 
L 157.369605 62.621419 
L 157.418957 65.405058 
L 157.451859 70.091305 
L 157.534114 66.982323 
L 157.567015 61.327854 
L 157.665721 65.493552 
L 157.682172 67.397462 
L 157.731525 62.828338 
L 157.747975 64.587795 
L 157.764426 62.617515 
L 157.797328 66.485198 
L 157.846681 65.42588 
L 157.863132 65.746018 
L 157.978288 56.084619 
L 157.912485 65.846224 
L 157.994739 58.337297 
L 158.19215 65.433688 
L 158.241503 58.572845 
L 158.356659 59.509835 
L 158.471815 65.947731 
L 158.504717 65.600264 
L 158.521168 62.694296 
L 158.603423 65.040673 
L 158.619874 69.095754 
L 158.685677 63.652108 
L 158.73503 64.147931 
L 158.817285 55.404 
L 158.932441 59.597027 
L 158.850186 54.226257 
L 158.948892 59.494218 
L 159.031146 56.566127 
L 158.981794 59.585314 
L 159.047597 58.208461 
L 159.064048 62.189363 
L 159.146303 58.563736 
L 159.162754 56.978662 
L 159.212106 62.078747 
L 159.228557 65.3504 
L 159.294361 57.592911 
L 159.310812 57.343047 
L 159.376615 50.751588 
L 159.442419 53.785091 
L 159.475321 59.787027 
L 159.541125 52.507142 
L 159.557575 54.95893 
L 159.574026 54.375915 
L 159.590477 57.181677 
L 159.623379 58.516886 
L 159.656281 57.098389 
L 159.705634 51.553235 
L 159.787888 53.730433 
L 159.837241 57.43154 
L 159.952397 56.702771 
L 159.985299 54.783245 
L 160.018201 57.324828 
L 160.034652 57.026813 
L 160.100455 63.069092 
L 160.149808 59.378396 
L 160.166259 61.25758 
L 160.215612 55.60311 
L 160.281415 48.835966 
L 160.330768 51.227891 
L 160.380121 59.146751 
L 160.445925 56.316263 
L 160.462375 52.47721 
L 160.511728 60.025179 
L 160.54463 57.085375 
L 160.676237 53.040705 
L 160.692688 53.570364 
L 160.774943 61.385114 
L 160.824295 56.07681 
L 161.005255 65.674443 
L 160.873648 56.053386 
L 161.021706 63.147174 
L 161.038157 60.963469 
L 161.120412 64.769988 
L 161.136863 67.532804 
L 161.202666 62.853064 
L 161.219117 64.47848 
L 161.235568 64.296288 
L 161.252019 66.574993 
L 161.284921 62.604502 
L 161.334274 63.066489 
L 161.367175 69.530413 
L 161.482332 66.845679 
L 161.581037 62.569364 
L 161.613939 62.816626 
L 161.63039 65.19814 
L 161.646841 58.476544 
L 161.696194 64.032109 
L 161.778448 59.456478 
L 161.81135 61.448882 
L 161.844252 59.937987 
L 161.877154 61.981144 
L 161.893605 64.878002 
L 161.959408 58.656133 
L 161.975859 59.967918 
L 162.074565 57.294896 
L 162.206172 62.474364 
L 162.222623 62.428816 
L 162.288426 63.827793 
L 162.271975 62.4132 
L 162.304877 63.12375 
L 162.35423 57.283184 
L 162.387132 64.028205 
L 162.403583 62.048815 
L 162.452935 63.528477 
L 162.469386 61.499635 
L 162.502288 62.715118 
L 162.568092 57.749076 
L 162.600994 62.318199 
L 162.650346 67.562736 
L 162.732601 64.311904 
L 162.814855 65.838416 
L 162.781954 64.173958 
L 162.831306 64.621631 
L 162.946463 59.246957 
L 162.995815 60.273741 
L 163.012266 65.33088 
L 163.094521 61.353881 
L 163.127423 55.085163 
L 163.209677 59.557985 
L 163.25903 62.00587 
L 163.242579 58.010652 
L 163.291932 59.616547 
L 163.308383 58.615791 
L 163.324834 61.17299 
L 163.341285 60.238604 
L 163.423539 65.424579 
L 163.456441 62.784091 
L 163.505794 60.043398 
L 163.538695 63.641697 
L 163.571597 61.38121 
L 163.653852 68.818562 
L 163.703205 66.357664 
L 163.752557 60.19696 
L 163.834812 62.795804 
L 163.851263 63.087311 
L 163.867714 62.329912 
L 163.933517 58.021063 
L 163.966419 62.711214 
L 163.999321 61.620663 
L 164.032223 64.667179 
L 164.130928 60.120179 
L 164.147379 61.886143 
L 164.196732 60.250316 
L 164.213183 64.38348 
L 164.229634 64.261151 
L 164.262535 60.457235 
L 164.295437 66.640062 
L 164.328339 65.479236 
L 164.361241 65.195537 
L 164.476397 61.416347 
L 164.608005 68.506232 
L 164.509299 58.433598 
L 164.624455 66.029718 
L 164.70671 58.673051 
L 164.657357 66.142937 
L 164.788965 60.251618 
L 164.904121 66.279581 
L 164.920572 63.203134 
L 164.953474 66.360267 
L 165.019277 65.207249 
L 165.117983 70.9385 
L 165.134434 68.780822 
L 165.150885 65.981567 
L 165.216688 72.30234 
L 165.397648 66.34465 
L 165.414099 69.058015 
L 165.496354 70.230552 
L 165.512805 68.679315 
L 165.660863 63.528477 
L 165.710215 67.484654 
L 165.776019 64.443343 
L 165.79247 61.811965 
L 165.841823 67.884175 
L 165.858274 66.521637 
L 165.891175 68.439862 
L 165.924077 65.638004 
L 165.956979 67.816504 
L 165.989881 65.734306 
L 166.039234 68.947398 
L 166.055685 67.323283 
L 166.088586 70.015826 
L 166.105037 66.270472 
L 166.15439 66.711638 
L 166.170841 67.087735 
L 166.187292 64.632042 
L 166.269546 67.423489 
L 166.285997 67.733216 
L 166.302448 65.15129 
L 166.351801 74.143784 
L 166.401154 69.475756 
L 166.466957 65.730402 
L 166.51631 67.03568 
L 166.582114 65.281428 
L 166.615015 70.050963 
L 166.664368 66.24965 
L 166.69727 70.791445 
L 166.713721 72.886657 
L 166.779525 69.246714 
L 166.795975 68.326642 
L 166.812426 69.760756 
L 166.828877 75.126321 
L 166.927583 72.306244 
L 166.944034 70.580622 
L 167.009837 72.563916 
L 167.042739 69.775072 
L 167.124994 77.101806 
L 167.141445 70.752403 
L 167.24015 75.283787 
L 167.256601 76.386051 
L 167.289503 72.137065 
L 167.305954 72.878848 
L 167.322405 69.628016 
L 167.388208 78.552838 
L 167.404659 76.928724 
L 167.454012 80.659763 
L 167.486914 77.779822 
L 167.519815 86.280396 
L 167.60207 83.573539 
L 167.651423 78.145508 
L 167.717226 78.831332 
L 167.799481 85.451421 
L 167.766579 75.154951 
L 167.815932 77.990645 
L 167.848834 78.603592 
L 167.931088 73.418918 
L 168.062695 82.926756 
L 168.095597 82.519426 
L 168.161401 71.202679 
L 168.260106 75.743172 
L 168.309459 84.751282 
L 168.342361 74.745018 
L 168.375263 80.645448 
L 168.424615 72.641998 
L 168.490419 79.803459 
L 168.523321 77.075779 
L 168.589125 82.105589 
L 168.737183 67.156707 
L 168.753634 68.981234 
L 168.786535 67.950545 
L 168.802986 62.378063 
L 168.885241 68.969521 
L 168.934594 60.800797 
L 168.967495 69.473153 
L 168.983946 66.001087 
L 169.033299 72.183915 
L 169.066201 67.992189 
L 169.082652 61.199018 
L 169.164906 73.058438 
L 169.197808 74.359812 
L 169.263612 71.036103 
L 169.280063 68.406026 
L 169.345866 70.385416 
L 169.378768 76.415982 
L 169.428121 68.016916 
L 169.444572 71.341926 
L 169.461023 70.686033 
L 169.510375 62.71642 
L 169.576179 64.690604 
L 169.641983 66.603623 
L 169.658434 63.778341 
L 169.674885 68.157464 
L 169.757139 62.706009 
L 169.77359 64.157041 
L 169.806492 62.312994 
L 169.822943 58.572845 
L 169.872295 63.90978 
L 169.888746 59.466889 
L 170.020354 69.486167 
L 170.036805 67.449517 
L 170.053255 74.069605 
L 170.086157 73.403302 
L 170.168412 83.166209 
L 170.234215 79.466403 
L 170.250666 78.476057 
L 170.267117 88.587732 
L 170.332921 73.536042 
L 170.398725 55.258246 
L 170.448077 71.409597 
L 170.464528 69.080138 
L 170.480979 72.222956 
L 170.49743 70.869527 
L 170.513881 80.481474 
L 170.596135 69.949456 
L 170.612586 69.829729 
L 170.629037 67.133283 
L 170.711292 71.265145 
L 170.727743 68.567397 
L 170.760645 72.834602 
L 170.793546 66.491705 
L 170.925154 55.757974 
L 170.941605 60.386961 
L 170.958055 62.755461 
L 171.007408 60.122782 
L 171.056761 62.463953 
L 171.122565 55.759275 
L 171.155466 63.935807 
L 171.188368 59.958809 
L 171.22127 63.683341 
L 171.237721 65.998485 
L 171.287074 63.384025 
L 171.303525 64.492795 
L 171.336426 58.017159 
L 171.40223 66.033622 
L 171.451583 67.755339 
L 171.58319 58.948942 
L 171.599641 64.987317 
L 171.665445 57.341746 
L 171.698346 62.038404 
L 171.76415 55.081259 
L 171.813503 58.436201 
L 171.846405 62.406693 
L 171.912208 56.078112 
L 172.027365 65.407661 
L 172.043815 61.431964 
L 172.109619 53.584679 
L 172.142521 57.65798 
L 172.224775 73.56207 
L 172.290579 72.669327 
L 172.30703 71.646447 
L 172.323481 76.391256 
L 172.372834 72.688848 
L 172.438637 78.231399 
L 172.471539 73.422823 
L 172.603146 66.956296 
L 172.718303 57.595514 
L 172.636048 67.846436 
L 172.734754 61.529567 
L 172.784106 59.531958 
L 172.84991 63.102928 
L 172.899263 68.17308 
L 173.014419 55.059136 
L 173.03087 58.360721 
L 173.080223 46.808426 
L 173.096674 52.699745 
L 173.129575 50.523848 
L 173.178928 53.579474 
L 173.195379 52.507142 
L 173.21183 57.249348 
L 173.294085 53.726529 
L 173.39279 45.241571 
L 173.343437 56.31366 
L 173.425692 50.113915 
L 173.475045 48.049936 
L 173.656005 61.9395 
L 173.688906 54.802765 
L 173.75471 59.495519 
L 173.836965 68.512739 
L 173.804063 57.159553 
L 173.886317 65.081016 
L 173.902768 61.209429 
L 173.985023 67.049995 
L 174.050826 75.272075 
L 174.100179 72.796862 
L 174.11663 63.680738 
L 174.182434 75.145842 
L 174.281139 86.025327 
L 174.29759 85.454024 
L 174.396295 74.522483 
L 174.429197 76.115365 
L 174.445648 77.693932 
L 174.462099 71.455145 
L 174.527903 76.842833 
L 174.577255 70.440074 
L 174.626608 76.65023 
L 174.708863 81.795862 
L 174.65951 74.514675 
L 174.741765 78.694688 
L 174.791117 86.199711 
L 174.873372 73.784604 
L 174.972077 86.906357 
L 175.004979 86.392315 
L 175.02143 76.80249 
L 175.087234 92.00514 
L 175.120135 82.896824 
L 175.251743 89.934654 
L 175.153037 81.70867 
L 175.268194 88.762116 
L 175.366899 78.253522 
L 175.317546 89.291775 
L 175.416252 78.909415 
L 175.432703 81.754218 
L 175.482055 72.912684 
L 175.498506 74.726799 
L 175.56431 73.360357 
L 175.630114 50.569396 
L 175.695917 63.002722 
L 175.860426 45.151777 
L 175.92623 55.821741 
L 176.008485 54.319956 
L 176.024935 50.94289 
L 176.057837 57.38339 
L 176.10719 53.539131 
L 176.123641 53.817625 
L 176.140092 61.726074 
L 176.238797 59.067367 
L 176.304601 52.682827 
L 176.386855 55.918043 
L 176.403306 56.940923 
L 176.419757 53.125294 
L 176.436208 53.377761 
L 176.46911 40.931421 
L 176.551365 52.805156 
L 176.584266 56.894073 
L 176.65007 52.237757 
L 176.682972 52.501936 
L 176.699423 50.877822 
L 176.765226 46.280068 
L 176.814579 57.197293 
L 176.863932 58.341201 
L 176.929735 51.162823 
L 177.044892 59.157162 
L 177.077794 53.380364 
L 177.127146 61.974637 
L 177.143597 59.352368 
L 177.225852 55.169753 
L 177.209401 60.280248 
L 177.291655 57.12832 
L 177.390361 61.611553 
L 177.406812 57.643664 
L 177.456165 54.142969 
L 177.489066 57.750377 
L 177.505517 55.29078 
L 177.55487 64.379576 
L 177.604223 59.852096 
L 177.620674 53.324405 
L 177.719379 55.797015 
L 177.752281 54.469614 
L 177.768732 56.014344 
L 177.785183 59.172779 
L 177.834535 54.386326 
L 177.867437 55.929755 
L 177.91679 52.28721 
L 177.949692 54.640094 
L 178.09775 63.109435 
L 178.311612 46.554658 
L 178.360965 50.221929 
L 178.426768 48.960898 
L 178.492572 47.444797 
L 178.541925 52.44858 
L 178.558375 48.929665 
L 178.591277 55.332424 
L 178.657081 49.677955 
L 178.722885 58.061405 
L 178.788688 54.852217 
L 178.805139 52.210429 
L 178.838041 59.479903 
L 178.887394 54.913382 
L 178.903845 54.798861 
L 179.035452 58.628804 
L 179.00255 54.149476 
L 179.051903 56.921402 
L 179.084805 52.879335 
L 179.150608 58.135584 
L 179.167059 53.977694 
L 179.265765 55.765782 
L 179.216412 50.294806 
L 179.282215 54.737697 
L 179.331568 50.598026 
L 179.348019 54.961533 
L 179.380921 52.96002 
L 179.446725 56.434688 
L 179.463175 52.948307 
L 179.479626 53.686186 
L 179.496077 52.531868 
L 179.528979 57.746473 
L 179.594783 55.098177 
L 179.627685 57.162156 
L 179.644135 58.147296 
L 179.693488 56.383935 
L 179.742841 58.99449 
L 179.808645 54.720779 
L 179.90735 60.164426 
L 179.923801 57.034621 
L 179.973154 59.917165 
L 180.006055 55.125506 
L 180.038957 58.199351 
L 180.071859 61.808061 
L 180.121212 56.014344 
L 180.137663 56.819895 
L 180.154114 55.475576 
L 180.219917 57.741267 
L 180.236368 55.994824 
L 180.285721 62.535529 
L 180.351525 59.058258 
L 180.367975 60.427303 
L 180.400877 54.847012 
L 180.433779 58.106954 
L 180.499583 57.012498 
L 180.483132 58.887778 
L 180.516034 58.632709 
L 180.565386 62.674776 
L 180.614739 57.693117 
L 180.680543 64.419918 
L 180.746346 61.441073 
L 180.795699 55.276465 
L 180.828601 61.877034 
L 180.861503 57.564281 
L 180.910855 60.740934 
L 180.943757 53.778584 
L 181.026012 57.231129 
L 181.075365 60.154015 
L 181.091815 57.267567 
L 181.141168 53.453241 
L 181.190521 57.591609 
L 181.223423 62.276555 
L 181.305677 59.917165 
L 181.35503 58.847435 
L 181.338579 61.061072 
L 181.387932 59.401821 
L 181.404383 60.712304 
L 181.453735 57.660582 
L 181.470186 59.197505 
L 181.519539 59.904151 
L 181.53599 57.616336 
L 181.552441 61.261484 
L 181.601794 56.385236 
L 181.634695 58.727709 
L 181.651146 56.39825 
L 181.700499 63.011832 
L 181.71695 59.447369 
L 181.733401 62.436624 
L 181.799205 56.633798 
L 181.815655 59.239149 
L 181.89791 53.773379 
L 181.914361 61.053264 
L 181.930812 54.122147 
L 182.013066 59.250861 
L 182.045968 55.24263 
L 182.062419 58.380242 
L 182.111772 51.730222 
L 182.161125 57.863597 
L 182.226928 54.623176 
L 182.243379 58.362023 
L 182.25983 57.393801 
L 182.292732 56.396948 
L 182.325634 58.958052 
L 182.358535 54.098722 
L 182.424339 56.540099 
L 182.44079 60.419495 
L 182.506594 58.022364 
L 182.539495 50.924671 
L 182.605299 58.909901 
L 182.62175 60.298467 
L 182.671103 55.172355 
L 182.687554 56.320167 
L 182.736906 52.835088 
L 182.753357 49.987682 
L 182.80271 53.726529 
L 182.835612 52.24036 
L 182.852063 53.323103 
L 182.917866 51.365837 
L 182.950768 52.944403 
L 182.967219 52.757006 
L 182.98367 46.506507 
L 183.082375 50.949397 
L 183.213983 42.832728 
L 183.230434 42.903003 
L 183.312688 48.280279 
L 183.34559 48.122813 
L 183.460746 44.47246 
L 183.559452 50.777616 
L 183.575903 48.194389 
L 183.608805 47.180619 
L 183.625255 48.557472 
L 183.641706 51.561043 
L 183.70751 44.939653 
L 183.723961 47.362811 
L 183.855568 53.592488 
L 183.872019 52.024332 
L 183.937823 45.349585 
L 184.020077 45.652806 
L 184.036528 50.609739 
L 184.06943 44.152322 
L 184.118783 45.039859 
L 184.135234 40.891079 
L 184.201037 47.568428 
L 184.217488 41.170874 
L 184.332645 48.016101 
L 184.381997 42.370741 
L 184.414899 50.711246 
L 184.43135 52.781732 
L 184.480703 48.474184 
L 184.497154 49.447612 
L 184.546506 46.660069 
L 184.595859 50.085285 
L 184.628761 46.785001 
L 184.661663 52.914472 
L 184.79327 58.057501 
L 184.859074 50.577204 
L 184.891975 57.949487 
L 184.941328 64.77259 
L 185.023583 61.75991 
L 185.089386 57.477089 
L 185.138739 58.227981 
L 185.15519 64.084164 
L 185.237445 58.127775 
L 185.253895 60.647235 
L 185.270346 64.729645 
L 185.319699 57.725651 
L 185.352601 60.923127 
L 185.385503 53.384268 
L 185.484208 54.935505 
L 185.500659 56.167906 
L 185.533561 51.427001 
L 185.582914 46.524726 
L 185.599365 50.622752 
L 185.615815 53.606803 
L 185.69807 48.466376 
L 185.714521 52.982143 
L 185.846128 58.493462 
L 185.813226 52.900157 
L 185.862579 57.591609 
L 185.87903 51.464741 
L 185.928383 61.884842 
L 185.961285 58.192844 
L 185.977735 58.237091 
L 185.994186 57.870103 
L 186.109343 50.640972 
L 186.05999 58.162913 
L 186.125794 51.830427 
L 186.175146 60.381755 
L 186.257401 54.882149 
L 186.290303 49.288844 
L 186.323205 54.391531 
L 186.405459 68.432054 
L 186.454812 66.295198 
L 186.487714 68.171779 
L 186.504165 64.491494 
L 186.553517 57.03332 
L 186.619321 59.26908 
L 186.652223 66.88472 
L 186.718026 60.143604 
L 186.78383 53.6992 
L 186.816732 61.212032 
L 186.833183 58.103049 
L 186.866085 62.314295 
L 186.915437 57.764692 
L 186.997692 52.292415 
L 186.96479 59.224834 
L 187.014143 57.005991 
L 187.063495 55.941467 
L 187.096397 61.706554 
L 187.129299 51.881181 
L 187.195103 64.806426 
L 187.211554 63.4556 
L 187.228005 67.372735 
L 187.244455 65.230674 
L 187.376063 76.777764 
L 187.408965 77.990645 
L 187.441866 74.864745 
L 187.524121 72.061585 
L 187.540572 76.645024 
L 187.836688 56.504962 
L 187.86959 60.39607 
L 187.935394 68.119724 
L 187.902492 60.349221 
L 187.951845 65.349099 
L 188.083452 50.920767 
L 188.099903 51.406179 
L 188.132805 45.082804 
L 188.165706 52.239059 
L 188.198608 50.630561 
L 188.215059 58.686065 
L 188.247961 49.416379 
L 188.297314 49.620695 
L 188.313765 49.602475 
L 188.330215 46.837056 
L 188.379568 53.598994 
L 188.41247 51.626112 
L 188.560528 66.176773 
L 188.576979 61.563403 
L 188.59343 54.927697 
L 188.675685 60.786482 
L 188.692135 64.595604 
L 188.77439 58.190241 
L 188.905997 67.411777 
L 188.922448 64.348343 
L 188.95535 71.066034 
L 188.971801 70.974938 
L 188.988252 78.638729 
L 189.054055 70.479115 
L 189.086957 76.618997 
L 189.103408 76.946943 
L 189.202114 69.724318 
L 189.218565 74.944129 
L 189.235015 74.316866 
L 189.251466 78.148111 
L 189.31727 72.241175 
L 189.415975 67.527599 
L 189.432426 74.407963 
L 189.49823 66.322527 
L 189.514681 66.728555 
L 189.564034 67.182735 
L 189.662739 59.056956 
L 189.67919 56.368318 
L 189.728543 59.681616 
L 189.761445 56.749621 
L 189.893052 61.231552 
L 189.958855 53.277555 
L 190.04111 55.156739 
L 190.074012 57.095786 
L 190.090463 56.819895 
L 190.123365 59.50593 
L 190.156266 55.217904 
L 190.189168 56.07681 
L 190.22207 54.28612 
L 190.254972 56.734004 
L 190.320775 64.867591 
L 190.353677 55.934961 
L 190.370128 59.063463 
L 190.419481 54.364202 
L 190.452383 60.056412 
L 190.468834 61.677923 
L 190.485285 57.293595 
L 190.518186 57.396403 
L 190.649794 48.223019 
L 190.567539 58.710791 
L 190.699146 53.157829 
L 190.814303 59.611342 
L 190.830754 56.255098 
L 190.863655 54.992766 
L 190.94591 52.442073 
L 190.962361 55.854275 
L 190.978812 53.532624 
L 191.077517 66.797528 
L 191.159772 62.876489 
L 191.192674 58.917709 
L 191.274928 62.13861 
L 191.291379 63.731491 
L 191.340732 60.740934 
L 191.406535 56.536195 
L 191.455888 59.836479 
L 191.505241 57.794624 
L 191.571045 63.574025 
L 191.620397 63.277312 
L 191.636848 62.998818 
L 191.702652 63.325463 
L 191.784906 55.47037 
L 191.801357 57.082772 
L 191.817808 47.737607 
L 191.916514 54.401942 
L 191.949415 50.933781 
L 191.998768 57.119211 
L 192.015219 55.616124 
L 192.03167 57.209006 
L 192.064572 49.916106 
L 192.081023 54.545093 
L 192.113925 49.715695 
L 192.196179 53.001664 
L 192.229081 54.714272 
L 192.245532 49.741722 
L 192.278434 53.432419 
L 192.360688 46.648357 
L 192.327786 53.649748 
L 192.39359 51.875975 
L 192.459394 57.565582 
L 192.508746 54.38112 
L 192.607452 54.961533 
L 192.673255 49.901791 
L 192.706157 48.609527 
L 192.837765 54.321257 
L 192.854215 54.366805 
L 192.887117 57.892227 
L 192.93647 57.650171 
L 193.002274 50.393711 
L 193.035175 56.475031 
L 193.051626 56.675442 
L 193.068077 56.415167 
L 193.084528 54.861327 
L 193.11743 57.89483 
L 193.166783 55.858179 
L 193.183234 57.759487 
L 193.199685 53.864475 
L 193.265488 55.152835 
L 193.281939 55.843864 
L 193.314841 53.074541 
L 193.347743 55.781398 
L 193.397095 50.375491 
L 193.495801 51.413988 
L 193.578055 55.302493 
L 193.545154 49.743024 
L 193.610957 54.278312 
L 193.693212 49.857545 
L 193.726114 50.284395 
L 193.84127 55.112492 
L 193.791917 49.992887 
L 193.907074 52.496731 
L 193.923525 52.568306 
L 193.939975 50.87652 
L 194.005779 53.239815 
L 194.02223 52.939198 
L 194.038681 55.164547 
L 194.104485 51.58707 
L 194.120935 52.473306 
L 194.252543 46.546849 
L 194.38415 55.388383 
L 194.400601 54.58023 
L 194.499306 48.652472 
L 194.532208 52.00351 
L 194.548659 54.033653 
L 194.614463 49.795079 
L 194.647365 52.517553 
L 194.729619 50.704739 
L 194.713168 52.923581 
L 194.762521 51.485563 
L 194.844775 53.403788 
L 194.795423 50.75289 
L 194.861226 50.78152 
L 194.877677 50.499122 
L 194.894128 52.352278 
L 194.943481 49.831517 
L 194.992834 51.471248 
L 195.009285 51.667756 
L 195.025735 50.07097 
L 195.091539 51.617002 
L 195.10799 53.755159 
L 195.157343 49.223775 
L 195.173794 51.045699 
L 195.190245 49.392954 
L 195.239597 54.015434 
L 195.256048 56.41777 
L 195.28895 53.088856 
L 195.338303 53.67057 
L 195.371205 49.290146 
L 195.437008 53.738241 
L 195.453459 53.147418 
L 195.486361 53.541734 
L 195.502812 51.941044 
L 195.519263 49.170419 
L 195.552165 52.111524 
L 195.617968 49.239392 
L 195.83183 57.664486 
L 195.897634 53.976393 
L 195.930535 58.978874 
L 195.963437 54.261394 
L 195.979888 54.237969 
L 196.029241 58.117364 
L 196.095045 57.13743 
L 196.243103 49.930422 
L 196.144397 59.444766 
L 196.276005 52.004811 
L 196.341808 53.67057 
L 196.308906 49.908298 
L 196.37471 51.28385 
L 196.407612 50.352067 
L 196.440514 53.307487 
L 196.456965 53.796803 
L 196.489866 51.519399 
L 196.506317 50.962411 
L 196.522768 53.226802 
L 196.55567 51.836934 
L 196.621474 55.10078 
L 196.637925 52.472005 
L 196.654375 50.408026 
L 196.703728 56.3514 
L 196.753081 51.209672 
L 196.835335 56.321469 
L 196.868237 54.801464 
L 196.884688 55.51722 
L 196.91759 52.478512 
L 196.950492 48.824254 
L 197.049197 49.821106 
L 197.164354 53.999818 
L 197.246608 47.331578 
L 197.27951 49.819805 
L 197.295961 52.323648 
L 197.378215 48.483294 
L 197.411117 51.877277 
L 197.46047 48.277677 
L 197.509823 50.190696 
L 197.559175 50.860904 
L 197.575626 49.015556 
L 197.690783 57.521335 
L 197.707234 55.171054 
L 197.723685 50.958507 
L 197.82239 53.692693 
L 197.838841 56.113249 
L 197.904645 51.466043 
L 197.937546 55.401397 
L 198.00335 50.311724 
L 198.036252 54.04927 
L 198.069154 57.484897 
L 198.102055 52.749197 
L 198.118506 53.293172 
L 198.18431 54.387627 
L 198.217212 51.32159 
L 198.283015 53.921735 
L 198.315917 51.963167 
L 198.332368 50.163367 
L 198.381721 54.762423 
L 198.398172 56.301948 
L 198.463975 52.309333 
L 198.496877 51.069124 
L 198.529779 53.915228 
L 198.54623 55.275164 
L 198.579132 51.21748 
L 198.628485 53.428514 
L 198.661386 56.394345 
L 198.710739 53.044609 
L 198.72719 53.684885 
L 198.776543 54.279613 
L 198.792994 52.270292 
L 198.809445 55.472973 
L 198.858797 51.373645 
L 198.891699 54.506052 
L 198.990405 54.945916 
L 199.006855 50.585013 
L 199.08911 50.208916 
L 199.122012 53.978996 
L 199.171365 50.987137 
L 199.204266 54.801464 
L 199.220717 56.506264 
L 199.27007 53.303583 
L 199.302972 54.772834 
L 199.401677 50.113915 
L 199.434579 51.542824 
L 199.467481 54.879546 
L 199.533285 51.598783 
L 199.549735 51.308576 
L 199.599088 54.844409 
L 199.664892 53.506597 
L 199.697794 56.318866 
L 199.730695 50.935082 
L 199.747146 55.491192 
L 199.763597 49.633708 
L 199.845852 53.164336 
L 200.010361 47.554113 
L 200.059714 49.861449 
L 200.109066 49.184734 
L 200.125517 46.136917 
L 200.207772 50.716451 
L 200.290026 53.307487 
L 200.240674 50.463985 
L 200.306477 50.879123 
L 200.322928 48.638157 
L 200.35583 53.371254 
L 200.421634 50.037134 
L 200.438085 51.904606 
L 200.487437 47.718086 
L 200.503888 49.258913 
L 200.520339 47.429181 
L 200.569692 50.709944 
L 200.602594 49.580352 
L 200.635495 51.201864 
L 200.684848 48.151443 
L 200.750652 46.208492 
L 200.734201 48.777404 
L 200.767103 48.055142 
L 200.800005 51.639125 
L 200.816455 47.970552 
L 200.849357 48.15795 
L 200.865808 44.04691 
L 200.931612 51.82392 
L 200.948063 51.101658 
L 200.997415 53.32961 
L 200.980965 49.819805 
L 201.013866 51.273439 
L 201.07967 46.156437 
L 201.145474 46.350342 
L 201.161925 46.307397 
L 201.178375 46.438835 
L 201.309983 57.264965 
L 201.244179 46.190273 
L 201.342885 55.44174 
L 201.408688 48.776103 
L 201.458041 52.470703 
L 201.474492 55.0253 
L 201.490943 50.185491 
L 201.540295 53.925639 
L 201.589648 47.85473 
L 201.639001 54.308243 
L 201.655452 55.22441 
L 201.704805 51.909811 
L 201.737706 53.388172 
L 201.754157 56.300647 
L 201.819961 51.371042 
L 201.836412 49.278433 
L 201.902215 52.927486 
L 201.951568 51.886386 
L 202.017372 55.856878 
L 202.16543 47.116851 
L 202.198332 50.58241 
L 202.247685 45.318353 
L 202.280586 48.699322 
L 202.297037 48.694116 
L 202.34639 44.743145 
L 202.395743 49.200351 
L 202.445095 51.511591 
L 202.428645 47.845621 
L 202.477997 48.664185 
L 202.494448 48.718842 
L 202.510899 49.204255 
L 202.543801 43.842595 
L 202.626055 43.983143 
L 202.741212 49.864051 
L 202.757663 46.60411 
L 202.823466 51.680769 
L 202.856368 56.406058 
L 202.922172 51.265631 
L 203.020877 53.617214 
L 202.971525 48.32843 
L 203.053779 53.341322 
L 203.168935 50.393711 
L 203.185386 55.383178 
L 203.284092 54.824889 
L 203.333445 46.753768 
L 203.399248 49.749531 
L 203.563757 57.37428 
L 203.580208 55.150232 
L 203.662463 57.672295 
L 203.678914 56.363113 
L 203.695365 56.927909 
L 203.711815 54.30564 
L 203.728266 54.1729 
L 203.761168 52.189607 
L 203.810521 53.293172 
L 203.826972 55.580987 
L 203.859874 51.149809 
L 203.892775 51.773167 
L 203.942128 50.262272 
L 203.958579 52.482416 
L 203.97503 56.737908 
L 204.007932 50.733369 
L 204.073735 56.046879 
L 204.205343 48.795623 
L 204.287597 55.17626 
L 204.320499 54.209339 
L 204.353401 51.343714 
L 204.452106 51.5207 
L 204.468557 51.902003 
L 204.485008 50.227135 
L 204.501459 51.667756 
L 204.51791 49.677955 
L 204.583714 53.156527 
L 204.649517 58.549421 
L 204.69887 55.279068 
L 204.731772 53.955571 
L 204.748223 57.094485 
L 204.797575 52.007414 
L 204.830477 53.631529 
L 204.846928 53.678378 
L 204.962085 57.962501 
L 204.978535 56.441195 
L 205.011437 60.429906 
L 205.06079 55.423521 
L 205.077241 56.844621 
L 205.175946 50.646177 
L 205.225299 54.703861 
L 205.258201 59.077778 
L 205.340455 56.773045 
L 205.373357 55.16715 
L 205.389808 57.158252 
L 205.455612 53.617214 
L 205.521415 59.641273 
L 205.718826 52.522758 
L 205.735277 53.899612 
L 205.850434 59.31593 
L 205.866885 58.680859 
L 205.932688 50.905151 
L 205.998492 52.537073 
L 206.097197 57.604623 
L 206.064295 52.391319 
L 206.14655 55.007081 
L 206.228805 51.63392 
L 206.261706 58.329488 
L 206.311059 50.893438 
L 206.343961 57.147841 
L 206.376863 53.722625 
L 206.459117 54.88345 
L 206.557823 57.034621 
L 206.574274 55.884207 
L 206.607175 54.530778 
L 206.623626 58.45442 
L 206.672979 53.846255 
L 206.705881 56.542702 
L 206.755234 47.508565 
L 206.804586 54.060982 
L 206.821037 57.454965 
L 206.903292 53.669269 
L 206.969095 55.327219 
L 207.001997 52.624265 
L 207.034899 55.51722 
L 207.084252 51.11337 
L 207.100703 51.525906 
L 207.215859 47.77925 
L 207.331015 51.096452 
L 207.41327 44.898009 
L 207.429721 47.327674 
L 207.495525 56.144482 
L 207.561328 54.012831 
L 207.59423 49.363022 
L 207.676485 49.451516 
L 207.77519 54.629683 
L 207.808092 52.746595 
L 207.824543 52.591731 
L 207.840994 55.338931 
L 207.873895 51.731523 
L 207.939699 53.713515 
L 207.95615 54.714272 
L 208.005503 53.060226 
L 208.054855 53.978996 
L 208.071306 53.894406 
L 208.104208 48.06295 
L 208.202914 50.732068 
L 208.219365 52.038647 
L 208.235815 47.633497 
L 208.252266 48.206101 
L 208.268717 46.976303 
L 208.285168 52.008716 
L 208.31807 49.75864 
L 208.400325 53.867077 
L 208.449677 49.840627 
L 208.515481 53.134404 
L 208.548383 56.011742 
L 208.581285 55.134616 
L 208.712892 47.783155 
L 208.86095 53.174747 
L 208.976106 49.746928 
L 208.893852 53.680981 
L 208.992557 50.488711 
L 209.009008 52.88454 
L 209.058361 48.647267 
L 209.091263 51.511591 
L 209.189968 47.51377 
L 209.140615 54.850916 
L 209.239321 48.411718 
L 209.305125 44.628624 
L 209.272223 48.517129 
L 209.321575 46.928152 
L 209.370928 51.943647 
L 209.436732 49.495763 
L 209.535437 46.143424 
L 209.551888 46.842261 
L 209.601241 44.546638 
L 209.634143 45.259791 
L 209.650594 40.716695 
L 209.749299 43.488621 
L 209.782201 46.948974 
L 209.798652 41.596423 
L 209.848005 43.422251 
L 209.930259 39.213608 
L 209.880906 44.24602 
L 209.963161 43.195812 
L 210.028965 45.091913 
L 210.045415 43.554991 
L 210.078317 41.02512 
L 210.12767 44.516706 
L 210.177023 46.403698 
L 210.193474 50.785424 
L 210.275728 44.851159 
L 210.30863 47.48514 
L 210.341532 43.234853 
L 210.357983 45.203832 
L 210.374434 42.766358 
L 210.407335 49.265419 
L 210.440237 46.872193 
L 210.456688 51.063918 
L 210.538943 46.334726 
L 210.555394 49.146994 
L 210.571845 49.861449 
L 210.588295 45.081502 
L 210.588295 45.081502 
" clip-path="url(#p51add69868)" style="fill: none; stroke: #d55e00; stroke-width: 1.25; stroke-linecap: square"/>
   </g>
   <g id="patch_4">
    <path d="M 37.85375 131.718516 
L 37.85375 20.418516 
" style="fill: none; stroke: #000000; stroke-width: 0.8; stroke-linejoin: miter; stroke-linecap: square"/>
   </g>
   <g id="patch_5">
    <path d="M 37.85375 131.718516 
L 218.81375 131.718516 
" style="fill: none; stroke: #000000; stroke-width: 0.8; stroke-linejoin: miter; stroke-linecap: square"/>
   </g>
   <g id="text_13">
    <!-- drugs3003 rep3 -->
    <g transform="translate(90.460664 14.418516) scale(0.095 -0.095)">
     <defs>
      <path id="DejaVuSans-64" d="M 2906 2969 
L 2906 4863 
L 3481 4863 
L 3481 0 
L 2906 0 
L 2906 525 
Q 2725 213 2448 61 
Q 2172 -91 1784 -91 
Q 1150 -91 751 415 
Q 353 922 353 1747 
Q 353 2572 751 3078 
Q 1150 3584 1784 3584 
Q 2172 3584 2448 3432 
Q 2725 3281 2906 2969 
z
M 947 1747 
Q 947 1113 1208 752 
Q 1469 391 1925 391 
Q 2381 391 2643 752 
Q 2906 1113 2906 1747 
Q 2906 2381 2643 2742 
Q 2381 3103 1925 3103 
Q 1469 3103 1208 2742 
Q 947 2381 947 1747 
z
" transform="scale(0.015625)"/>
      <path id="DejaVuSans-72" d="M 2631 2963 
Q 2534 3019 2420 3045 
Q 2306 3072 2169 3072 
Q 1681 3072 1420 2755 
Q 1159 2438 1159 1844 
L 1159 0 
L 581 0 
L 581 3500 
L 1159 3500 
L 1159 2956 
Q 1341 3275 1631 3429 
Q 1922 3584 2338 3584 
Q 2397 3584 2469 3576 
Q 2541 3569 2628 3553 
L 2631 2963 
z
" transform="scale(0.015625)"/>
      <path id="DejaVuSans-75" d="M 544 1381 
L 544 3500 
L 1119 3500 
L 1119 1403 
Q 1119 906 1312 657 
Q 1506 409 1894 409 
Q 2359 409 2629 706 
Q 2900 1003 2900 1516 
L 2900 3500 
L 3475 3500 
L 3475 0 
L 2900 0 
L 2900 538 
Q 2691 219 2414 64 
Q 2138 -91 1772 -91 
Q 1169 -91 856 284 
Q 544 659 544 1381 
z
M 1991 3584 
L 1991 3584 
z
" transform="scale(0.015625)"/>
      <path id="DejaVuSans-70" d="M 1159 525 
L 1159 -1331 
L 581 -1331 
L 581 3500 
L 1159 3500 
L 1159 2969 
Q 1341 3281 1617 3432 
Q 1894 3584 2278 3584 
Q 2916 3584 3314 3078 
Q 3713 2572 3713 1747 
Q 3713 922 3314 415 
Q 2916 -91 2278 -91 
Q 1894 -91 1617 61 
Q 1341 213 1159 525 
z
M 3116 1747 
Q 3116 2381 2855 2742 
Q 2594 3103 2138 3103 
Q 1681 3103 1420 2742 
Q 1159 2381 1159 1747 
Q 1159 1113 1420 752 
Q 1681 391 2138 391 
Q 2594 391 2855 752 
Q 3116 1113 3116 1747 
z
" transform="scale(0.015625)"/>
     </defs>
     <use xlink:href="#DejaVuSans-64"/>
     <use xlink:href="#DejaVuSans-72" transform="translate(63.476562 0)"/>
     <use xlink:href="#DejaVuSans-75" transform="translate(104.589844 0)"/>
     <use xlink:href="#DejaVuSans-67" transform="translate(167.96875 0)"/>
     <use xlink:href="#DejaVuSans-73" transform="translate(231.445312 0)"/>
     <use xlink:href="#DejaVuSans-33" transform="translate(283.544922 0)"/>
     <use xlink:href="#DejaVuSans-30" transform="translate(347.167969 0)"/>
     <use xlink:href="#DejaVuSans-30" transform="translate(410.791016 0)"/>
     <use xlink:href="#DejaVuSans-33" transform="translate(474.414062 0)"/>
     <use xlink:href="#DejaVuSans-20" transform="translate(538.037109 0)"/>
     <use xlink:href="#DejaVuSans-72" transform="translate(569.824219 0)"/>
     <use xlink:href="#DejaVuSans-65" transform="translate(608.6875 0)"/>
     <use xlink:href="#DejaVuSans-70" transform="translate(670.210938 0)"/>
     <use xlink:href="#DejaVuSans-33" transform="translate(733.6875 0)"/>
    </g>
   </g>
  </g>
 </g>
 <defs>
  <clipPath id="p51add69868">
   <rect x="37.85375" y="20.418516" width="180.96" height="111.3"/>
  </clipPath>
 </defs>
</svg>
