<?xml version="1.0" encoding="utf-8" standalone="no"?>
<!DOCTYPE svg PUBLIC "-//W3C//DTD SVG 1.1//EN"
  "http://www.w3.org/Graphics/SVG/1.1/DTD/svg11.dtd">
<svg xmlns:xlink="http://www.w3.org/1999/xlink" width="226.01375pt" height="164.903516pt" viewBox="0 0 226.01375 164.903516" xmlns="http://www.w3.org/2000/svg" version="1.1">
 <metadata>
  <rdf:RDF xmlns:dc="http://purl.org/dc/elements/1.1/" xmlns:cc="http://creativecommons.org/ns#" xmlns:rdf="http://www.w3.org/1999/02/22-rdf-syntax-ns#">
   <cc:Work>
    <dc:type rdf:resource="http://purl.org/dc/dcmitype/StillImage"/>
    <dc:date>2026-05-24T13:54:18.161188</dc:date>
    <dc:format>image/svg+xml</dc:format>
    <dc:creator>
     <cc:Agent>
      <dc:title>Matplotlib v3.10.9, https://matplotlib.org/</dc:title>
     </cc:Agent>
    </dc:creator>
   </cc:Work>
  </rdf:RDF>
 </metadata>
 <defs>
  <style type="text/css">*{stroke-linejoin: round; stroke-linecap: butt}</style>
 </defs>
 <g id="figure_1">
  <g id="patch_1">
   <path d="M 0 164.903516 
L 226.01375 164.903516 
L 226.01375 0 
L 0 0 
z
" style="fill: #ffffff"/>
  </g>
  <g id="axes_1">
   <g id="patch_2">
    <path d="M 37.85375 131.718516 
L 218.81375 131.718516 
L 218.81375 20.418516 
L 37.85375 20.418516 
z
" style="fill: #ffffff"/>
   </g>
   <g id="patch_3">
    <path d="M 128.33375 131.718516 
L 210.588295 131.718516 
L 210.588295 20.418516 
L 128.33375 20.418516 
z
" clip-path="url(#p48a3c10051)" style="fill: #bdbdbd; opacity: 0.18"/>
   </g>
   <g id="matplotlib.axis_1">
    <g id="xtick_1">
     <g id="line2d_1">
      <defs>
       <path id="m99ac67a62b" d="M 0 0 
L 0 3 
" style="stroke: #000000; stroke-width: 0.7"/>
      </defs>
      <g>
       <use xlink:href="#m99ac67a62b" x="46.079205" y="131.718516" style="stroke: #000000; stroke-width: 0.7"/>
      </g>
     </g>
     <g id="text_1">
      <!-- 0 -->
      <g transform="translate(43.693267 143.917344) scale(0.075 -0.075)">
       <defs>
        <path id="DejaVuSans-30" d="M 2034 4250 
Q 1547 4250 1301 3770 
Q 1056 3291 1056 2328 
Q 1056 1369 1301 889 
Q 1547 409 2034 409 
Q 2525 409 2770 889 
Q 3016 1369 3016 2328 
Q 3016 3291 2770 3770 
Q 2525 4250 2034 4250 
z
M 2034 4750 
Q 2819 4750 3233 4129 
Q 3647 3509 3647 2328 
Q 3647 1150 3233 529 
Q 2819 -91 2034 -91 
Q 1250 -91 836 529 
Q 422 1150 422 2328 
Q 422 3509 836 4129 
Q 1250 4750 2034 4750 
z
" transform="scale(0.015625)"/>
       </defs>
       <use xlink:href="#DejaVuSans-30"/>
      </g>
     </g>
    </g>
    <g id="xtick_2">
     <g id="line2d_2">
      <g>
       <use xlink:href="#m99ac67a62b" x="78.981023" y="131.718516" style="stroke: #000000; stroke-width: 0.7"/>
      </g>
     </g>
     <g id="text_2">
      <!-- 20 -->
      <g transform="translate(74.209148 143.917344) scale(0.075 -0.075)">
       <defs>
        <path id="DejaVuSans-32" d="M 1228 531 
L 3431 531 
L 3431 0 
L 469 0 
L 469 531 
Q 828 903 1448 1529 
Q 2069 2156 2228 2338 
Q 2531 2678 2651 2914 
Q 2772 3150 2772 3378 
Q 2772 3750 2511 3984 
Q 2250 4219 1831 4219 
Q 1534 4219 1204 4116 
Q 875 4013 500 3803 
L 500 4441 
Q 881 4594 1212 4672 
Q 1544 4750 1819 4750 
Q 2544 4750 2975 4387 
Q 3406 4025 3406 3419 
Q 3406 3131 3298 2873 
Q 3191 2616 2906 2266 
Q 2828 2175 2409 1742 
Q 1991 1309 1228 531 
z
" transform="scale(0.015625)"/>
       </defs>
       <use xlink:href="#DejaVuSans-32"/>
       <use xlink:href="#DejaVuSans-30" transform="translate(63.623047 0)"/>
      </g>
     </g>
    </g>
    <g id="xtick_3">
     <g id="line2d_3">
      <g>
       <use xlink:href="#m99ac67a62b" x="111.882841" y="131.718516" style="stroke: #000000; stroke-width: 0.7"/>
      </g>
     </g>
     <g id="text_3">
      <!-- 40 -->
      <g transform="translate(107.110966 143.917344) scale(0.075 -0.075)">
       <defs>
        <path id="DejaVuSans-34" d="M 2419 4116 
L 825 1625 
L 2419 1625 
L 2419 4116 
z
M 2253 4666 
L 3047 4666 
L 3047 1625 
L 3713 1625 
L 3713 1100 
L 3047 1100 
L 3047 0 
L 2419 0 
L 2419 1100 
L 313 1100 
L 313 1709 
L 2253 4666 
z
" transform="scale(0.015625)"/>
       </defs>
       <use xlink:href="#DejaVuSans-34"/>
       <use xlink:href="#DejaVuSans-30" transform="translate(63.623047 0)"/>
      </g>
     </g>
    </g>
    <g id="xtick_4">
     <g id="line2d_4">
      <g>
       <use xlink:href="#m99ac67a62b" x="144.784659" y="131.718516" style="stroke: #000000; stroke-width: 0.7"/>
      </g>
     </g>
     <g id="text_4">
      <!-- 60 -->
      <g transform="translate(140.012784 143.917344) scale(0.075 -0.075)">
       <defs>
        <path id="DejaVuSans-36" d="M 2113 2584 
Q 1688 2584 1439 2293 
Q 1191 2003 1191 1497 
Q 1191 994 1439 701 
Q 1688 409 2113 409 
Q 2538 409 2786 701 
Q 3034 994 3034 1497 
Q 3034 2003 2786 2293 
Q 2538 2584 2113 2584 
z
M 3366 4563 
L 3366 3988 
Q 3128 4100 2886 4159 
Q 2644 4219 2406 4219 
Q 1781 4219 1451 3797 
Q 1122 3375 1075 2522 
Q 1259 2794 1537 2939 
Q 1816 3084 2150 3084 
Q 2853 3084 3261 2657 
Q 3669 2231 3669 1497 
Q 3669 778 3244 343 
Q 2819 -91 2113 -91 
Q 1303 -91 875 529 
Q 447 1150 447 2328 
Q 447 3434 972 4092 
Q 1497 4750 2381 4750 
Q 2619 4750 2861 4703 
Q 3103 4656 3366 4563 
z
" transform="scale(0.015625)"/>
       </defs>
       <use xlink:href="#DejaVuSans-36"/>
       <use xlink:href="#DejaVuSans-30" transform="translate(63.623047 0)"/>
      </g>
     </g>
    </g>
    <g id="xtick_5">
     <g id="line2d_5">
      <g>
       <use xlink:href="#m99ac67a62b" x="177.686477" y="131.718516" style="stroke: #000000; stroke-width: 0.7"/>
      </g>
     </g>
     <g id="text_5">
      <!-- 80 -->
      <g transform="translate(172.914602 143.917344) scale(0.075 -0.075)">
       <defs>
        <path id="DejaVuSans-38" d="M 2034 2216 
Q 1584 2216 1326 1975 
Q 1069 1734 1069 1313 
Q 1069 891 1326 650 
Q 1584 409 2034 409 
Q 2484 409 2743 651 
Q 3003 894 3003 1313 
Q 3003 1734 2745 1975 
Q 2488 2216 2034 2216 
z
M 1403 2484 
Q 997 2584 770 2862 
Q 544 3141 544 3541 
Q 544 4100 942 4425 
Q 1341 4750 2034 4750 
Q 2731 4750 3128 4425 
Q 3525 4100 3525 3541 
Q 3525 3141 3298 2862 
Q 3072 2584 2669 2484 
Q 3125 2378 3379 2068 
Q 3634 1759 3634 1313 
Q 3634 634 3220 271 
Q 2806 -91 2034 -91 
Q 1263 -91 848 271 
Q 434 634 434 1313 
Q 434 1759 690 2068 
Q 947 2378 1403 2484 
z
M 1172 3481 
Q 1172 3119 1398 2916 
Q 1625 2713 2034 2713 
Q 2441 2713 2670 2916 
Q 2900 3119 2900 3481 
Q 2900 3844 2670 4047 
Q 2441 4250 2034 4250 
Q 1625 4250 1398 4047 
Q 1172 3844 1172 3481 
z
" transform="scale(0.015625)"/>
       </defs>
       <use xlink:href="#DejaVuSans-38"/>
       <use xlink:href="#DejaVuSans-30" transform="translate(63.623047 0)"/>
      </g>
     </g>
    </g>
    <g id="xtick_6">
     <g id="line2d_6">
      <g>
       <use xlink:href="#m99ac67a62b" x="210.588295" y="131.718516" style="stroke: #000000; stroke-width: 0.7"/>
      </g>
     </g>
     <g id="text_6">
      <!-- 100 -->
      <g transform="translate(203.430483 143.917344) scale(0.075 -0.075)">
       <defs>
        <path id="DejaVuSans-31" d="M 794 531 
L 1825 531 
L 1825 4091 
L 703 3866 
L 703 4441 
L 1819 4666 
L 2450 4666 
L 2450 531 
L 3481 531 
L 3481 0 
L 794 0 
L 794 531 
z
" transform="scale(0.015625)"/>
       </defs>
       <use xlink:href="#DejaVuSans-31"/>
       <use xlink:href="#DejaVuSans-30" transform="translate(63.623047 0)"/>
       <use xlink:href="#DejaVuSans-30" transform="translate(127.246094 0)"/>
      </g>
     </g>
    </g>
    <g id="text_7">
     <!-- Time (ns) -->
     <g transform="translate(108.360742 155.935781) scale(0.085 -0.085)">
      <defs>
       <path id="DejaVuSans-54" d="M -19 4666 
L 3928 4666 
L 3928 4134 
L 2272 4134 
L 2272 0 
L 1638 0 
L 1638 4134 
L -19 4134 
L -19 4666 
z
" transform="scale(0.015625)"/>
       <path id="DejaVuSans-69" d="M 603 3500 
L 1178 3500 
L 1178 0 
L 603 0 
L 603 3500 
z
M 603 4863 
L 1178 4863 
L 1178 4134 
L 603 4134 
L 603 4863 
z
" transform="scale(0.015625)"/>
       <path id="DejaVuSans-6d" d="M 3328 2828 
Q 3544 3216 3844 3400 
Q 4144 3584 4550 3584 
Q 5097 3584 5394 3201 
Q 5691 2819 5691 2113 
L 5691 0 
L 5113 0 
L 5113 2094 
Q 5113 2597 4934 2840 
Q 4756 3084 4391 3084 
Q 3944 3084 3684 2787 
Q 3425 2491 3425 1978 
L 3425 0 
L 2847 0 
L 2847 2094 
Q 2847 2600 2669 2842 
Q 2491 3084 2119 3084 
Q 1678 3084 1418 2786 
Q 1159 2488 1159 1978 
L 1159 0 
L 581 0 
L 581 3500 
L 1159 3500 
L 1159 2956 
Q 1356 3278 1631 3431 
Q 1906 3584 2284 3584 
Q 2666 3584 2933 3390 
Q 3200 3197 3328 2828 
z
" transform="scale(0.015625)"/>
       <path id="DejaVuSans-65" d="M 3597 1894 
L 3597 1613 
L 953 1613 
Q 991 1019 1311 708 
Q 1631 397 2203 397 
Q 2534 397 2845 478 
Q 3156 559 3463 722 
L 3463 178 
Q 3153 47 2828 -22 
Q 2503 -91 2169 -91 
Q 1331 -91 842 396 
Q 353 884 353 1716 
Q 353 2575 817 3079 
Q 1281 3584 2069 3584 
Q 2775 3584 3186 3129 
Q 3597 2675 3597 1894 
z
M 3022 2063 
Q 3016 2534 2758 2815 
Q 2500 3097 2075 3097 
Q 1594 3097 1305 2825 
Q 1016 2553 972 2059 
L 3022 2063 
z
" transform="scale(0.015625)"/>
       <path id="DejaVuSans-20" transform="scale(0.015625)"/>
       <path id="DejaVuSans-28" d="M 1984 4856 
Q 1566 4138 1362 3434 
Q 1159 2731 1159 2009 
Q 1159 1288 1364 580 
Q 1569 -128 1984 -844 
L 1484 -844 
Q 1016 -109 783 600 
Q 550 1309 550 2009 
Q 550 2706 781 3412 
Q 1013 4119 1484 4856 
L 1984 4856 
z
" transform="scale(0.015625)"/>
       <path id="DejaVuSans-6e" d="M 3513 2113 
L 3513 0 
L 2938 0 
L 2938 2094 
Q 2938 2591 2744 2837 
Q 2550 3084 2163 3084 
Q 1697 3084 1428 2787 
Q 1159 2491 1159 1978 
L 1159 0 
L 581 0 
L 581 3500 
L 1159 3500 
L 1159 2956 
Q 1366 3272 1645 3428 
Q 1925 3584 2291 3584 
Q 2894 3584 3203 3211 
Q 3513 2838 3513 2113 
z
" transform="scale(0.015625)"/>
       <path id="DejaVuSans-73" d="M 2834 3397 
L 2834 2853 
Q 2591 2978 2328 3040 
Q 2066 3103 1784 3103 
Q 1356 3103 1142 2972 
Q 928 2841 928 2578 
Q 928 2378 1081 2264 
Q 1234 2150 1697 2047 
L 1894 2003 
Q 2506 1872 2764 1633 
Q 3022 1394 3022 966 
Q 3022 478 2636 193 
Q 2250 -91 1575 -91 
Q 1294 -91 989 -36 
Q 684 19 347 128 
L 347 722 
Q 666 556 975 473 
Q 1284 391 1588 391 
Q 1994 391 2212 530 
Q 2431 669 2431 922 
Q 2431 1156 2273 1281 
Q 2116 1406 1581 1522 
L 1381 1569 
Q 847 1681 609 1914 
Q 372 2147 372 2553 
Q 372 3047 722 3315 
Q 1072 3584 1716 3584 
Q 2034 3584 2315 3537 
Q 2597 3491 2834 3397 
z
" transform="scale(0.015625)"/>
       <path id="DejaVuSans-29" d="M 513 4856 
L 1013 4856 
Q 1481 4119 1714 3412 
Q 1947 2706 1947 2009 
Q 1947 1309 1714 600 
Q 1481 -109 1013 -844 
L 513 -844 
Q 928 -128 1133 580 
Q 1338 1288 1338 2009 
Q 1338 2731 1133 3434 
Q 928 4138 513 4856 
z
" transform="scale(0.015625)"/>
      </defs>
      <use xlink:href="#DejaVuSans-54"/>
      <use xlink:href="#DejaVuSans-69" transform="translate(57.958984 0)"/>
      <use xlink:href="#DejaVuSans-6d" transform="translate(85.742188 0)"/>
      <use xlink:href="#DejaVuSans-65" transform="translate(183.154297 0)"/>
      <use xlink:href="#DejaVuSans-20" transform="translate(244.677734 0)"/>
      <use xlink:href="#DejaVuSans-28" transform="translate(276.464844 0)"/>
      <use xlink:href="#DejaVuSans-6e" transform="translate(315.478516 0)"/>
      <use xlink:href="#DejaVuSans-73" transform="translate(378.857422 0)"/>
      <use xlink:href="#DejaVuSans-29" transform="translate(430.957031 0)"/>
     </g>
    </g>
   </g>
   <g id="matplotlib.axis_2">
    <g id="ytick_1">
     <g id="line2d_7">
      <defs>
       <path id="m2218a124dc" d="M 0 0 
L -3 0 
" style="stroke: #000000; stroke-width: 0.7"/>
      </defs>
      <g>
       <use xlink:href="#m2218a124dc" x="37.85375" y="126.659425" style="stroke: #000000; stroke-width: 0.7"/>
      </g>
     </g>
     <g id="text_8">
      <!-- 0.0 -->
      <g transform="translate(19.426406 129.508839) scale(0.075 -0.075)">
       <defs>
        <path id="DejaVuSans-2e" d="M 684 794 
L 1344 794 
L 1344 0 
L 684 0 
L 684 794 
z
" transform="scale(0.015625)"/>
       </defs>
       <use xlink:href="#DejaVuSans-30"/>
       <use xlink:href="#DejaVuSans-2e" transform="translate(63.623047 0)"/>
       <use xlink:href="#DejaVuSans-30" transform="translate(95.410156 0)"/>
      </g>
     </g>
    </g>
    <g id="ytick_2">
     <g id="line2d_8">
      <g>
       <use xlink:href="#m2218a124dc" x="37.85375" y="109.795788" style="stroke: #000000; stroke-width: 0.7"/>
      </g>
     </g>
     <g id="text_9">
      <!-- 0.5 -->
      <g transform="translate(19.426406 112.645202) scale(0.075 -0.075)">
       <defs>
        <path id="DejaVuSans-35" d="M 691 4666 
L 3169 4666 
L 3169 4134 
L 1269 4134 
L 1269 2991 
Q 1406 3038 1543 3061 
Q 1681 3084 1819 3084 
Q 2600 3084 3056 2656 
Q 3513 2228 3513 1497 
Q 3513 744 3044 326 
Q 2575 -91 1722 -91 
Q 1428 -91 1123 -41 
Q 819 9 494 109 
L 494 744 
Q 775 591 1075 516 
Q 1375 441 1709 441 
Q 2250 441 2565 725 
Q 2881 1009 2881 1497 
Q 2881 1984 2565 2268 
Q 2250 2553 1709 2553 
Q 1456 2553 1204 2497 
Q 953 2441 691 2322 
L 691 4666 
z
" transform="scale(0.015625)"/>
       </defs>
       <use xlink:href="#DejaVuSans-30"/>
       <use xlink:href="#DejaVuSans-2e" transform="translate(63.623047 0)"/>
       <use xlink:href="#DejaVuSans-35" transform="translate(95.410156 0)"/>
      </g>
     </g>
    </g>
    <g id="ytick_3">
     <g id="line2d_9">
      <g>
       <use xlink:href="#m2218a124dc" x="37.85375" y="92.932152" style="stroke: #000000; stroke-width: 0.7"/>
      </g>
     </g>
     <g id="text_10">
      <!-- 1.0 -->
      <g transform="translate(19.426406 95.781566) scale(0.075 -0.075)">
       <use xlink:href="#DejaVuSans-31"/>
       <use xlink:href="#DejaVuSans-2e" transform="translate(63.623047 0)"/>
       <use xlink:href="#DejaVuSans-30" transform="translate(95.410156 0)"/>
      </g>
     </g>
    </g>
    <g id="ytick_4">
     <g id="line2d_10">
      <g>
       <use xlink:href="#m2218a124dc" x="37.85375" y="76.068516" style="stroke: #000000; stroke-width: 0.7"/>
      </g>
     </g>
     <g id="text_11">
      <!-- 1.5 -->
      <g transform="translate(19.426406 78.91793) scale(0.075 -0.075)">
       <use xlink:href="#DejaVuSans-31"/>
       <use xlink:href="#DejaVuSans-2e" transform="translate(63.623047 0)"/>
       <use xlink:href="#DejaVuSans-35" transform="translate(95.410156 0)"/>
      </g>
     </g>
    </g>
    <g id="ytick_5">
     <g id="line2d_11">
      <g>
       <use xlink:href="#m2218a124dc" x="37.85375" y="59.204879" style="stroke: #000000; stroke-width: 0.7"/>
      </g>
     </g>
     <g id="text_12">
      <!-- 2.0 -->
      <g transform="translate(19.426406 62.054293) scale(0.075 -0.075)">
       <use xlink:href="#DejaVuSans-32"/>
       <use xlink:href="#DejaVuSans-2e" transform="translate(63.623047 0)"/>
       <use xlink:href="#DejaVuSans-30" transform="translate(95.410156 0)"/>
      </g>
     </g>
    </g>
    <g id="ytick_6">
     <g id="line2d_12">
      <g>
       <use xlink:href="#m2218a124dc" x="37.85375" y="42.341243" style="stroke: #000000; stroke-width: 0.7"/>
      </g>
     </g>
     <g id="text_13">
      <!-- 2.5 -->
      <g transform="translate(19.426406 45.190657) scale(0.075 -0.075)">
       <use xlink:href="#DejaVuSans-32"/>
       <use xlink:href="#DejaVuSans-2e" transform="translate(63.623047 0)"/>
       <use xlink:href="#DejaVuSans-35" transform="translate(95.410156 0)"/>
      </g>
     </g>
    </g>
    <g id="ytick_7">
     <g id="line2d_13">
      <g>
       <use xlink:href="#m2218a124dc" x="37.85375" y="25.477607" style="stroke: #000000; stroke-width: 0.7"/>
      </g>
     </g>
     <g id="text_14">
      <!-- 3.0 -->
      <g transform="translate(19.426406 28.327021) scale(0.075 -0.075)">
       <defs>
        <path id="DejaVuSans-33" d="M 2597 2516 
Q 3050 2419 3304 2112 
Q 3559 1806 3559 1356 
Q 3559 666 3084 287 
Q 2609 -91 1734 -91 
Q 1441 -91 1130 -33 
Q 819 25 488 141 
L 488 750 
Q 750 597 1062 519 
Q 1375 441 1716 441 
Q 2309 441 2620 675 
Q 2931 909 2931 1356 
Q 2931 1769 2642 2001 
Q 2353 2234 1838 2234 
L 1294 2234 
L 1294 2753 
L 1863 2753 
Q 2328 2753 2575 2939 
Q 2822 3125 2822 3475 
Q 2822 3834 2567 4026 
Q 2313 4219 1838 4219 
Q 1578 4219 1281 4162 
Q 984 4106 628 3988 
L 628 4550 
Q 988 4650 1302 4700 
Q 1616 4750 1894 4750 
Q 2613 4750 3031 4423 
Q 3450 4097 3450 3541 
Q 3450 3153 3228 2886 
Q 3006 2619 2597 2516 
z
" transform="scale(0.015625)"/>
       </defs>
       <use xlink:href="#DejaVuSans-33"/>
       <use xlink:href="#DejaVuSans-2e" transform="translate(63.623047 0)"/>
       <use xlink:href="#DejaVuSans-30" transform="translate(95.410156 0)"/>
      </g>
     </g>
    </g>
    <g id="text_15">
     <!-- Number of H-bonds -->
     <g transform="translate(13.658672 117.573086) rotate(-90) scale(0.085 -0.085)">
      <defs>
       <path id="DejaVuSans-4e" d="M 628 4666 
L 1478 4666 
L 3547 763 
L 3547 4666 
L 4159 4666 
L 4159 0 
L 3309 0 
L 1241 3903 
L 1241 0 
L 628 0 
L 628 4666 
z
" transform="scale(0.015625)"/>
       <path id="DejaVuSans-75" d="M 544 1381 
L 544 3500 
L 1119 3500 
L 1119 1403 
Q 1119 906 1312 657 
Q 1506 409 1894 409 
Q 2359 409 2629 706 
Q 2900 1003 2900 1516 
L 2900 3500 
L 3475 3500 
L 3475 0 
L 2900 0 
L 2900 538 
Q 2691 219 2414 64 
Q 2138 -91 1772 -91 
Q 1169 -91 856 284 
Q 544 659 544 1381 
z
M 1991 3584 
L 1991 3584 
z
" transform="scale(0.015625)"/>
       <path id="DejaVuSans-62" d="M 3116 1747 
Q 3116 2381 2855 2742 
Q 2594 3103 2138 3103 
Q 1681 3103 1420 2742 
Q 1159 2381 1159 1747 
Q 1159 1113 1420 752 
Q 1681 391 2138 391 
Q 2594 391 2855 752 
Q 3116 1113 3116 1747 
z
M 1159 2969 
Q 1341 3281 1617 3432 
Q 1894 3584 2278 3584 
Q 2916 3584 3314 3078 
Q 3713 2572 3713 1747 
Q 3713 922 3314 415 
Q 2916 -91 2278 -91 
Q 1894 -91 1617 61 
Q 1341 213 1159 525 
L 1159 0 
L 581 0 
L 581 4863 
L 1159 4863 
L 1159 2969 
z
" transform="scale(0.015625)"/>
       <path id="DejaVuSans-72" d="M 2631 2963 
Q 2534 3019 2420 3045 
Q 2306 3072 2169 3072 
Q 1681 3072 1420 2755 
Q 1159 2438 1159 1844 
L 1159 0 
L 581 0 
L 581 3500 
L 1159 3500 
L 1159 2956 
Q 1341 3275 1631 3429 
Q 1922 3584 2338 3584 
Q 2397 3584 2469 3576 
Q 2541 3569 2628 3553 
L 2631 2963 
z
" transform="scale(0.015625)"/>
       <path id="DejaVuSans-6f" d="M 1959 3097 
Q 1497 3097 1228 2736 
Q 959 2375 959 1747 
Q 959 1119 1226 758 
Q 1494 397 1959 397 
Q 2419 397 2687 759 
Q 2956 1122 2956 1747 
Q 2956 2369 2687 2733 
Q 2419 3097 1959 3097 
z
M 1959 3584 
Q 2709 3584 3137 3096 
Q 3566 2609 3566 1747 
Q 3566 888 3137 398 
Q 2709 -91 1959 -91 
Q 1206 -91 779 398 
Q 353 888 353 1747 
Q 353 2609 779 3096 
Q 1206 3584 1959 3584 
z
" transform="scale(0.015625)"/>
       <path id="DejaVuSans-66" d="M 2375 4863 
L 2375 4384 
L 1825 4384 
Q 1516 4384 1395 4259 
Q 1275 4134 1275 3809 
L 1275 3500 
L 2222 3500 
L 2222 3053 
L 1275 3053 
L 1275 0 
L 697 0 
L 697 3053 
L 147 3053 
L 147 3500 
L 697 3500 
L 697 3744 
Q 697 4328 969 4595 
Q 1241 4863 1831 4863 
L 2375 4863 
z
" transform="scale(0.015625)"/>
       <path id="DejaVuSans-48" d="M 628 4666 
L 1259 4666 
L 1259 2753 
L 3553 2753 
L 3553 4666 
L 4184 4666 
L 4184 0 
L 3553 0 
L 3553 2222 
L 1259 2222 
L 1259 0 
L 628 0 
L 628 4666 
z
" transform="scale(0.015625)"/>
       <path id="DejaVuSans-2d" d="M 313 2009 
L 1997 2009 
L 1997 1497 
L 313 1497 
L 313 2009 
z
" transform="scale(0.015625)"/>
       <path id="DejaVuSans-64" d="M 2906 2969 
L 2906 4863 
L 3481 4863 
L 3481 0 
L 2906 0 
L 2906 525 
Q 2725 213 2448 61 
Q 2172 -91 1784 -91 
Q 1150 -91 751 415 
Q 353 922 353 1747 
Q 353 2572 751 3078 
Q 1150 3584 1784 3584 
Q 2172 3584 2448 3432 
Q 2725 3281 2906 2969 
z
M 947 1747 
Q 947 1113 1208 752 
Q 1469 391 1925 391 
Q 2381 391 2643 752 
Q 2906 1113 2906 1747 
Q 2906 2381 2643 2742 
Q 2381 3103 1925 3103 
Q 1469 3103 1208 2742 
Q 947 2381 947 1747 
z
" transform="scale(0.015625)"/>
      </defs>
      <use xlink:href="#DejaVuSans-4e"/>
      <use xlink:href="#DejaVuSans-75" transform="translate(74.804688 0)"/>
      <use xlink:href="#DejaVuSans-6d" transform="translate(138.183594 0)"/>
      <use xlink:href="#DejaVuSans-62" transform="translate(235.595703 0)"/>
      <use xlink:href="#DejaVuSans-65" transform="translate(299.072266 0)"/>
      <use xlink:href="#DejaVuSans-72" transform="translate(360.595703 0)"/>
      <use xlink:href="#DejaVuSans-20" transform="translate(401.708984 0)"/>
      <use xlink:href="#DejaVuSans-6f" transform="translate(433.496094 0)"/>
      <use xlink:href="#DejaVuSans-66" transform="translate(494.677734 0)"/>
      <use xlink:href="#DejaVuSans-20" transform="translate(529.882812 0)"/>
      <use xlink:href="#DejaVuSans-48" transform="translate(561.669922 0)"/>
      <use xlink:href="#DejaVuSans-2d" transform="translate(636.865234 0)"/>
      <use xlink:href="#DejaVuSans-62" transform="translate(672.949219 0)"/>
      <use xlink:href="#DejaVuSans-6f" transform="translate(736.425781 0)"/>
      <use xlink:href="#DejaVuSans-6e" transform="translate(797.607422 0)"/>
      <use xlink:href="#DejaVuSans-64" transform="translate(860.986328 0)"/>
      <use xlink:href="#DejaVuSans-73" transform="translate(924.462891 0)"/>
     </g>
    </g>
   </g>
   <g id="line2d_14">
    <path d="M 46.079205 126.659425 
L 46.210812 126.659425 
L 46.243714 92.932152 
L 46.309517 126.659425 
L 46.441125 126.659425 
L 46.457575 92.932152 
L 46.53983 126.659425 
L 46.638535 126.659425 
L 46.654986 92.932152 
L 46.737241 126.659425 
L 47.510434 126.659425 
L 47.609139 92.932152 
L 47.724295 126.659425 
L 47.971059 126.659425 
L 47.98751 92.932152 
L 48.069765 126.659425 
L 48.135568 126.659425 
L 48.250725 59.204879 
L 48.382332 126.659425 
L 48.415234 59.204879 
L 48.481037 92.932152 
L 48.563292 126.659425 
L 48.546841 59.204879 
L 48.579743 92.932152 
L 48.826506 92.932152 
L 48.842957 59.204879 
L 48.925212 92.932152 
L 48.974565 92.932152 
L 49.023917 126.659425 
L 49.07327 92.932152 
L 49.237779 92.932152 
L 49.320034 126.659425 
L 49.336485 92.932152 
L 49.369386 92.932152 
L 49.385837 126.659425 
L 49.468092 92.932152 
L 49.533895 92.932152 
L 49.550346 126.659425 
L 49.61615 59.204879 
L 49.632601 92.932152 
L 49.698405 92.932152 
L 49.714855 126.659425 
L 49.79711 92.932152 
L 49.813561 92.932152 
L 49.862914 126.659425 
L 49.912266 92.932152 
L 49.961619 92.932152 
L 50.076775 126.659425 
L 50.323539 126.659425 
L 50.438695 92.932152 
L 50.537401 92.932152 
L 50.586754 126.659425 
L 50.636106 92.932152 
L 50.70191 92.932152 
L 50.817066 126.659425 
L 50.915772 126.659425 
L 50.965125 92.932152 
L 51.014477 126.659425 
L 51.080281 126.659425 
L 51.195437 92.932152 
L 51.294143 92.932152 
L 51.359946 59.204879 
L 51.376397 92.932152 
L 51.491554 126.659425 
L 51.60671 59.204879 
L 51.738317 126.659425 
L 51.853474 92.932152 
L 51.886375 92.932152 
L 51.902826 59.204879 
L 51.985081 92.932152 
L 52.001532 92.932152 
L 52.017983 59.204879 
L 52.100237 92.932152 
L 52.14959 92.932152 
L 52.166041 126.659425 
L 52.248295 92.932152 
L 52.314099 92.932152 
L 52.429255 126.659425 
L 52.527961 92.932152 
L 52.626666 126.659425 
L 52.659568 92.932152 
L 52.725372 126.659425 
L 54.452717 126.659425 
L 54.584325 59.204879 
L 54.600775 59.204879 
L 54.617226 92.932152 
L 54.68303 59.204879 
L 54.765285 25.477607 
L 54.748834 92.932152 
L 54.781735 59.204879 
L 54.798186 59.204879 
L 54.929794 126.659425 
L 54.995597 92.932152 
L 55.028499 126.659425 
L 55.061401 126.659425 
L 55.176557 92.932152 
L 55.258812 126.659425 
L 55.275263 59.204879 
L 55.357517 92.932152 
L 55.472674 126.659425 
L 55.834594 126.659425 
L 55.900397 92.932152 
L 55.933299 126.659425 
L 55.982652 126.659425 
L 56.097808 92.932152 
L 56.212965 126.659425 
L 56.229415 92.932152 
L 56.31167 126.659425 
L 56.344572 126.659425 
L 56.459728 92.932152 
L 56.509081 92.932152 
L 56.624237 126.659425 
L 56.755845 126.659425 
L 56.871001 92.932152 
L 56.986157 126.659425 
L 57.331626 126.659425 
L 57.348077 92.932152 
L 57.430332 126.659425 
L 57.496135 126.659425 
L 57.57839 92.932152 
L 57.594841 126.659425 
L 57.611292 126.659425 
L 57.693546 92.932152 
L 57.709997 126.659425 
L 57.726448 126.659425 
L 57.825154 92.932152 
L 57.841605 126.659425 
L 57.923859 92.932152 
L 57.989663 92.932152 
L 58.104819 126.659425 
L 58.12127 126.659425 
L 58.236426 92.932152 
L 58.285779 92.932152 
L 58.400935 126.659425 
L 58.499641 92.932152 
L 58.516092 126.659425 
L 58.598346 92.932152 
L 58.66415 92.932152 
L 58.746405 126.659425 
L 58.713503 59.204879 
L 58.762855 92.932152 
L 58.779306 92.932152 
L 58.894463 126.659425 
L 59.009619 92.932152 
L 59.108325 126.659425 
L 59.223481 92.932152 
L 59.338637 126.659425 
L 59.355088 126.659425 
L 59.371539 92.932152 
L 59.453794 126.659425 
L 60.078928 126.659425 
L 60.161183 92.932152 
L 60.177634 126.659425 
L 60.276339 126.659425 
L 60.375045 92.932152 
L 60.490201 126.659425 
L 60.539554 126.659425 
L 60.65471 92.932152 
L 60.736965 92.932152 
L 60.802768 126.659425 
L 60.83567 92.932152 
L 60.852121 92.932152 
L 60.868572 59.204879 
L 60.885023 126.659425 
L 60.950826 92.932152 
L 61.000179 92.932152 
L 61.01663 126.659425 
L 61.098885 92.932152 
L 61.181139 92.932152 
L 61.230492 59.204879 
L 61.296295 126.659425 
L 61.362099 126.659425 
L 61.460805 92.932152 
L 61.575961 126.659425 
L 61.658215 92.932152 
L 61.674666 126.659425 
L 61.724019 126.659425 
L 61.839175 92.932152 
L 61.937881 126.659425 
L 62.053037 59.204879 
L 62.069488 59.204879 
L 62.201095 126.659425 
L 62.233997 126.659425 
L 62.316252 92.932152 
L 62.332703 126.659425 
L 62.365605 126.659425 
L 62.382055 92.932152 
L 62.46431 126.659425 
L 62.694623 126.659425 
L 62.743975 92.932152 
L 62.793328 126.659425 
L 62.859132 126.659425 
L 62.875583 92.932152 
L 62.957837 126.659425 
L 63.023641 126.659425 
L 63.040092 92.932152 
L 63.122346 126.659425 
L 64.866143 126.659425 
L 64.899045 92.932152 
L 64.964848 126.659425 
L 65.211612 126.659425 
L 65.228063 92.932152 
L 65.310317 126.659425 
L 65.409023 126.659425 
L 65.425474 92.932152 
L 65.507728 126.659425 
L 65.984805 126.659425 
L 66.08351 59.204879 
L 66.099961 92.932152 
L 66.165765 126.659425 
L 66.132863 59.204879 
L 66.182215 92.932152 
L 66.26447 59.204879 
L 66.280921 92.932152 
L 66.396077 92.932152 
L 66.428979 126.659425 
L 66.44543 59.204879 
L 66.494783 92.932152 
L 66.527685 92.932152 
L 66.642841 126.659425 
L 66.659292 59.204879 
L 66.757997 92.932152 
L 66.856703 126.659425 
L 66.938957 92.932152 
L 66.955408 126.659425 
L 67.119917 126.659425 
L 67.218623 59.204879 
L 67.235074 92.932152 
L 67.267975 92.932152 
L 67.383132 126.659425 
L 67.432485 126.659425 
L 67.448935 59.204879 
L 67.53119 126.659425 
L 67.613445 126.659425 
L 67.646346 59.204879 
L 67.71215 126.659425 
L 67.777954 126.659425 
L 67.827306 59.204879 
L 67.876659 92.932152 
L 67.991815 126.659425 
L 68.041168 126.659425 
L 68.090521 92.932152 
L 68.139874 126.659425 
L 68.271481 126.659425 
L 68.386637 92.932152 
L 68.501794 126.659425 
L 68.830812 126.659425 
L 68.847263 92.932152 
L 68.929517 126.659425 
L 71.347801 126.659425 
L 71.364252 92.932152 
L 71.446506 126.659425 
L 72.186797 126.659425 
L 72.219699 59.204879 
L 72.301954 92.932152 
L 72.318405 92.932152 
L 72.351306 59.204879 
L 72.41711 126.659425 
L 72.532266 92.932152 
L 72.548717 92.932152 
L 72.630972 126.659425 
L 72.647423 92.932152 
L 72.746128 92.932152 
L 72.762579 126.659425 
L 72.844834 92.932152 
L 72.894186 92.932152 
L 73.009343 59.204879 
L 73.124499 126.659425 
L 73.239655 59.204879 
L 73.354812 92.932152 
L 73.404165 59.204879 
L 73.453517 92.932152 
L 73.469968 92.932152 
L 73.535772 126.659425 
L 73.585125 59.204879 
L 73.650928 59.204879 
L 73.766085 92.932152 
L 73.86479 59.204879 
L 73.897692 126.659425 
L 73.979946 92.932152 
L 74.029299 92.932152 
L 74.095103 59.204879 
L 74.128005 126.659425 
L 74.177357 59.204879 
L 74.243161 92.932152 
L 74.259612 92.932152 
L 74.308965 59.204879 
L 74.358317 92.932152 
L 74.424121 92.932152 
L 74.457023 126.659425 
L 74.522826 59.204879 
L 74.572179 126.659425 
L 74.637983 92.932152 
L 74.687335 92.932152 
L 74.720237 59.204879 
L 74.76959 126.659425 
L 74.786041 126.659425 
L 74.835394 59.204879 
L 74.901197 92.932152 
L 74.95055 92.932152 
L 74.967001 126.659425 
L 74.983452 59.204879 
L 75.049255 92.932152 
L 75.065706 92.932152 
L 75.164412 59.204879 
L 75.279568 126.659425 
L 75.328921 92.932152 
L 75.378274 126.659425 
L 75.394725 126.659425 
L 75.427626 59.204879 
L 75.49343 92.932152 
L 75.608586 126.659425 
L 75.723743 92.932152 
L 75.789546 92.932152 
L 75.904703 126.659425 
L 75.954055 59.204879 
L 76.019859 92.932152 
L 76.069212 92.932152 
L 76.085663 126.659425 
L 76.167917 92.932152 
L 76.184368 92.932152 
L 76.200819 126.659425 
L 76.266623 59.204879 
L 76.283074 92.932152 
L 76.315975 92.932152 
L 76.332426 59.204879 
L 76.381779 126.659425 
L 76.39823 126.659425 
L 76.447583 126.659425 
L 76.496935 92.932152 
L 76.546288 126.659425 
L 77.12207 126.659425 
L 77.138521 92.932152 
L 77.220775 126.659425 
L 77.681401 126.659425 
L 77.796557 59.204879 
L 77.911714 126.659425 
L 77.961066 92.932152 
L 78.010419 126.659425 
L 78.38879 126.659425 
L 78.405241 92.932152 
L 78.487495 126.659425 
L 81.711874 126.659425 
L 81.728325 92.932152 
L 81.810579 126.659425 
L 82.221852 126.659425 
L 82.337008 92.932152 
L 82.353459 92.932152 
L 82.36991 126.659425 
L 82.452165 92.932152 
L 82.55087 92.932152 
L 82.600223 126.659425 
L 82.649575 92.932152 
L 82.929241 92.932152 
L 82.945692 126.659425 
L 83.027946 92.932152 
L 83.620179 92.932152 
L 83.63663 126.659425 
L 83.718885 92.932152 
L 84.788194 92.932152 
L 84.804645 126.659425 
L 84.886899 92.932152 
L 84.919801 92.932152 
L 84.985605 126.659425 
L 85.018506 92.932152 
L 85.100761 92.932152 
L 85.117212 59.204879 
L 85.199466 92.932152 
L 85.363975 92.932152 
L 85.380426 59.204879 
L 85.462681 92.932152 
L 85.479132 92.932152 
L 85.495583 126.659425 
L 85.561386 92.932152 
L 85.577837 59.204879 
L 85.660092 92.932152 
L 85.676543 92.932152 
L 85.709445 126.659425 
L 85.775248 92.932152 
L 85.841052 92.932152 
L 85.857503 59.204879 
L 85.939757 92.932152 
L 86.334579 92.932152 
L 86.35103 59.204879 
L 86.433285 92.932152 
L 86.778754 92.932152 
L 86.795205 126.659425 
L 86.861008 92.932152 
L 86.877459 59.204879 
L 86.959714 92.932152 
L 87.321634 92.932152 
L 87.403888 126.659425 
L 87.420339 92.932152 
L 89.78927 92.932152 
L 89.838623 126.659425 
L 89.887975 92.932152 
L 90.068935 92.932152 
L 90.085386 126.659425 
L 90.167641 92.932152 
L 90.595365 92.932152 
L 90.611815 126.659425 
L 90.69407 92.932152 
L 92.075946 92.932152 
L 92.092397 126.659425 
L 92.174652 92.932152 
L 92.224005 92.932152 
L 92.240455 126.659425 
L 92.32271 92.932152 
L 92.569474 92.932152 
L 92.585925 126.659425 
L 92.668179 92.932152 
L 92.832688 92.932152 
L 92.849139 126.659425 
L 92.931394 92.932152 
L 93.688135 92.932152 
L 93.704586 126.659425 
L 93.786841 92.932152 
L 94.066506 92.932152 
L 94.099408 126.659425 
L 94.165212 92.932152 
L 94.247466 92.932152 
L 94.329721 59.204879 
L 94.346172 92.932152 
L 94.49423 92.932152 
L 94.510681 59.204879 
L 94.592935 92.932152 
L 94.889052 92.932152 
L 94.905503 126.659425 
L 94.987757 92.932152 
L 95.431932 92.932152 
L 95.448383 59.204879 
L 95.530637 92.932152 
L 96.106419 92.932152 
L 96.12287 126.659425 
L 96.205125 92.932152 
L 96.386085 92.932152 
L 96.402535 59.204879 
L 96.48479 92.932152 
L 96.616397 92.932152 
L 96.731554 59.204879 
L 96.748005 59.204879 
L 96.863161 92.932152 
L 96.879612 92.932152 
L 96.994768 126.659425 
L 97.109925 59.204879 
L 97.225081 92.932152 
L 97.488295 92.932152 
L 97.504746 126.659425 
L 97.587001 92.932152 
L 97.652805 92.932152 
L 97.669255 126.659425 
L 97.75151 92.932152 
L 98.11343 92.932152 
L 98.129881 126.659425 
L 98.212135 92.932152 
L 99.544659 92.932152 
L 99.56111 59.204879 
L 99.643365 92.932152 
L 99.791423 92.932152 
L 99.807874 126.659425 
L 99.890128 92.932152 
L 99.955932 92.932152 
L 99.972383 59.204879 
L 100.054637 92.932152 
L 100.613968 92.932152 
L 100.630419 59.204879 
L 100.712674 92.932152 
L 100.82783 92.932152 
L 100.844281 126.659425 
L 100.893634 59.204879 
L 100.926535 92.932152 
L 102.291961 92.932152 
L 102.308412 59.204879 
L 102.390666 92.932152 
L 102.407117 92.932152 
L 102.423568 59.204879 
L 102.505823 92.932152 
L 102.588077 92.932152 
L 102.63743 59.204879 
L 102.703234 126.659425 
L 102.81839 59.204879 
L 102.933546 92.932152 
L 103.229663 92.932152 
L 103.262565 59.204879 
L 103.328368 92.932152 
L 103.509328 92.932152 
L 103.525779 126.659425 
L 103.608034 92.932152 
L 103.854797 92.932152 
L 103.871248 126.659425 
L 103.953503 92.932152 
L 104.035757 92.932152 
L 104.052208 126.659425 
L 104.134463 92.932152 
L 104.479932 92.932152 
L 104.529285 126.659425 
L 104.578637 92.932152 
L 104.611539 92.932152 
L 104.726695 126.659425 
L 104.841852 92.932152 
L 104.858303 126.659425 
L 104.940557 92.932152 
L 105.302477 92.932152 
L 105.318928 126.659425 
L 105.401183 92.932152 
L 105.53279 92.932152 
L 105.549241 126.659425 
L 105.631495 92.932152 
L 105.664397 92.932152 
L 105.680848 126.659425 
L 105.746652 92.932152 
L 105.828906 59.204879 
L 105.845357 92.932152 
L 105.89471 92.932152 
L 105.911161 59.204879 
L 105.993415 92.932152 
L 106.157925 92.932152 
L 106.240179 126.659425 
L 106.25663 92.932152 
L 106.421139 92.932152 
L 106.43759 126.659425 
L 106.519845 92.932152 
L 106.585648 92.932152 
L 106.602099 126.659425 
L 106.684354 92.932152 
L 107.260135 92.932152 
L 107.375292 126.659425 
L 107.490448 92.932152 
L 107.539801 92.932152 
L 107.556252 126.659425 
L 107.638506 92.932152 
L 107.70431 92.932152 
L 107.753663 126.659425 
L 107.803015 92.932152 
L 108.082681 92.932152 
L 108.099132 126.659425 
L 108.181386 92.932152 
L 108.362346 92.932152 
L 108.378797 126.659425 
L 108.461052 92.932152 
L 108.477503 92.932152 
L 108.493954 59.204879 
L 108.576208 92.932152 
L 109.020383 92.932152 
L 109.086186 126.659425 
L 109.119088 92.932152 
L 109.316499 92.932152 
L 109.33295 59.204879 
L 109.415205 92.932152 
L 109.612615 92.932152 
L 109.661968 59.204879 
L 109.645517 126.659425 
L 109.711321 92.932152 
L 109.727772 92.932152 
L 109.842928 126.659425 
L 109.958085 126.659425 
L 110.073241 92.932152 
L 110.188397 92.932152 
L 110.204848 126.659425 
L 110.287103 92.932152 
L 110.385808 92.932152 
L 110.451612 126.659425 
L 110.484514 92.932152 
L 110.698375 92.932152 
L 110.714826 59.204879 
L 110.747728 126.659425 
L 110.797081 92.932152 
L 110.862885 92.932152 
L 110.945139 59.204879 
L 110.96159 92.932152 
L 110.978041 126.659425 
L 111.027394 59.204879 
L 111.060295 92.932152 
L 111.076746 92.932152 
L 111.093197 59.204879 
L 111.175452 92.932152 
L 111.307059 92.932152 
L 111.32351 59.204879 
L 111.405765 92.932152 
L 111.619626 92.932152 
L 111.636077 59.204879 
L 111.718332 92.932152 
L 112.030899 92.932152 
L 112.04735 126.659425 
L 112.080252 59.204879 
L 112.129605 92.932152 
L 112.146055 59.204879 
L 112.162506 126.659425 
L 112.22831 92.932152 
L 112.376368 92.932152 
L 112.392819 126.659425 
L 112.475074 92.932152 
L 112.836994 92.932152 
L 112.853445 126.659425 
L 112.935699 92.932152 
L 113.100208 92.932152 
L 113.116659 126.659425 
L 113.182463 92.932152 
L 113.198914 59.204879 
L 113.281168 92.932152 
L 113.544383 92.932152 
L 113.626637 126.659425 
L 113.643088 92.932152 
L 113.67599 92.932152 
L 113.791146 126.659425 
L 114.021459 126.659425 
L 114.136615 92.932152 
L 114.153066 126.659425 
L 114.235321 92.932152 
L 114.564339 92.932152 
L 114.58079 126.659425 
L 114.663045 92.932152 
L 114.926259 92.932152 
L 114.975612 126.659425 
L 115.024965 92.932152 
L 115.436237 92.932152 
L 115.452688 126.659425 
L 115.469139 59.204879 
L 115.534943 92.932152 
L 115.748805 92.932152 
L 115.765255 126.659425 
L 115.84751 92.932152 
L 116.242332 92.932152 
L 116.341037 126.659425 
L 116.456194 92.932152 
L 116.653605 92.932152 
L 116.670055 126.659425 
L 116.75231 92.932152 
L 116.867466 92.932152 
L 116.883917 59.204879 
L 116.966172 92.932152 
L 117.064877 92.932152 
L 117.081328 59.204879 
L 117.163583 92.932152 
L 117.262288 92.932152 
L 117.278739 126.659425 
L 117.360994 92.932152 
L 117.443248 92.932152 
L 117.459699 126.659425 
L 117.492601 59.204879 
L 117.541954 92.932152 
L 117.65711 92.932152 
L 117.673561 59.204879 
L 117.755815 92.932152 
L 118.282245 92.932152 
L 118.298695 59.204879 
L 118.38095 92.932152 
L 118.397401 92.932152 
L 118.413852 59.204879 
L 118.496106 92.932152 
L 118.726419 92.932152 
L 118.74287 126.659425 
L 118.825125 92.932152 
L 118.874477 92.932152 
L 118.890928 59.204879 
L 118.973183 92.932152 
L 119.154143 92.932152 
L 119.170594 126.659425 
L 119.252848 92.932152 
L 119.960237 92.932152 
L 119.976688 59.204879 
L 120.058943 92.932152 
L 120.124746 92.932152 
L 120.19055 126.659425 
L 120.174099 59.204879 
L 120.223452 92.932152 
L 120.404412 92.932152 
L 120.420863 126.659425 
L 120.503117 92.932152 
L 120.618274 92.932152 
L 120.634725 59.204879 
L 120.716979 92.932152 
L 120.947292 92.932152 
L 120.963743 126.659425 
L 121.045997 92.932152 
L 121.358565 92.932152 
L 121.375015 126.659425 
L 121.440819 92.932152 
L 121.45727 59.204879 
L 121.539525 92.932152 
L 121.555975 92.932152 
L 121.572426 59.204879 
L 121.654681 92.932152 
L 121.671132 92.932152 
L 121.704034 59.204879 
L 121.769837 92.932152 
L 121.983699 92.932152 
L 122.00015 59.204879 
L 122.082405 92.932152 
L 122.279815 92.932152 
L 122.296266 126.659425 
L 122.378521 92.932152 
L 122.460775 92.932152 
L 122.477226 126.659425 
L 122.559481 92.932152 
L 122.855597 92.932152 
L 122.872048 126.659425 
L 122.954303 92.932152 
L 123.069459 92.932152 
L 123.08591 126.659425 
L 123.168165 92.932152 
L 124.303277 92.932152 
L 124.418434 126.659425 
L 124.451335 126.659425 
L 124.467786 92.932152 
L 124.550041 126.659425 
L 124.566492 126.659425 
L 124.681648 92.932152 
L 124.89551 92.932152 
L 124.911961 126.659425 
L 124.994215 92.932152 
L 125.25743 92.932152 
L 125.372586 126.659425 
L 125.389037 126.659425 
L 125.504194 92.932152 
L 125.569997 92.932152 
L 125.668703 126.659425 
L 125.783859 92.932152 
L 126.112877 92.932152 
L 126.228034 126.659425 
L 126.293837 126.659425 
L 126.408994 92.932152 
L 126.425445 92.932152 
L 126.491248 126.659425 
L 126.52415 92.932152 
L 127.165735 92.932152 
L 127.280892 126.659425 
L 127.396048 92.932152 
L 127.412499 126.659425 
L 127.494754 92.932152 
L 127.79087 92.932152 
L 127.807321 126.659425 
L 127.889575 92.932152 
L 128.037634 92.932152 
L 128.15279 126.659425 
L 128.185692 126.659425 
L 128.300848 92.932152 
L 128.596965 92.932152 
L 128.679219 126.659425 
L 128.69567 92.932152 
L 128.777925 92.932152 
L 128.794375 126.659425 
L 128.87663 92.932152 
L 128.975335 92.932152 
L 128.991786 59.204879 
L 129.074041 92.932152 
L 129.106943 92.932152 
L 129.123394 126.659425 
L 129.205648 92.932152 
L 129.222099 92.932152 
L 129.23855 126.659425 
L 129.320805 92.932152 
L 129.797881 92.932152 
L 129.913037 126.659425 
L 130.225605 126.659425 
L 130.340761 92.932152 
L 131.41007 92.932152 
L 131.525226 126.659425 
L 132.035205 126.659425 
L 132.150361 92.932152 
L 132.479379 92.932152 
L 132.49583 126.659425 
L 132.578085 92.932152 
L 132.610986 92.932152 
L 132.726143 126.659425 
L 132.841299 126.659425 
L 132.890652 92.932152 
L 132.940005 126.659425 
L 133.252572 126.659425 
L 133.367728 92.932152 
L 133.515786 92.932152 
L 133.532237 126.659425 
L 133.614492 92.932152 
L 133.680295 92.932152 
L 133.76255 126.659425 
L 133.779001 92.932152 
L 134.30543 92.932152 
L 134.321881 126.659425 
L 134.404135 92.932152 
L 134.437037 92.932152 
L 134.453488 126.659425 
L 134.535743 92.932152 
L 134.634448 92.932152 
L 134.66735 126.659425 
L 134.733154 92.932152 
L 134.930565 92.932152 
L 134.996368 126.659425 
L 135.02927 92.932152 
L 135.127975 92.932152 
L 135.243132 126.659425 
L 135.259583 126.659425 
L 135.374739 92.932152 
L 135.407641 126.659425 
L 135.473445 92.932152 
L 135.983423 92.932152 
L 135.999874 126.659425 
L 136.082128 92.932152 
L 136.11503 92.932152 
L 136.131481 126.659425 
L 136.213735 92.932152 
L 136.345343 92.932152 
L 136.361794 126.659425 
L 136.444048 92.932152 
L 136.575655 92.932152 
L 136.592106 126.659425 
L 136.674361 92.932152 
L 137.727219 92.932152 
L 137.842375 126.659425 
L 137.957532 92.932152 
L 138.681372 92.932152 
L 138.730725 126.659425 
L 138.780077 92.932152 
L 139.043292 92.932152 
L 139.158448 126.659425 
L 139.273605 92.932152 
L 139.388761 92.932152 
L 139.405212 59.204879 
L 139.454565 126.659425 
L 139.487466 92.932152 
L 139.73423 92.932152 
L 139.750681 59.204879 
L 139.832935 92.932152 
L 139.980994 92.932152 
L 139.997445 59.204879 
L 140.046797 126.659425 
L 140.079699 92.932152 
L 140.129052 92.932152 
L 140.211306 126.659425 
L 140.227757 92.932152 
L 140.441619 92.932152 
L 140.523874 59.204879 
L 140.540325 92.932152 
L 140.968048 92.932152 
L 140.984499 59.204879 
L 141.066754 92.932152 
L 141.297066 92.932152 
L 141.313517 59.204879 
L 141.395772 92.932152 
L 141.642535 92.932152 
L 141.658986 126.659425 
L 141.741241 92.932152 
L 141.774143 92.932152 
L 141.889299 59.204879 
L 142.004455 92.932152 
L 142.481532 92.932152 
L 142.596688 126.659425 
L 142.711845 92.932152 
L 142.843452 92.932152 
L 142.859903 59.204879 
L 142.942157 92.932152 
L 143.007961 92.932152 
L 143.024412 126.659425 
L 143.090215 92.932152 
L 143.106666 59.204879 
L 143.188921 92.932152 
L 143.205372 92.932152 
L 143.221823 126.659425 
L 143.304077 92.932152 
L 143.35343 92.932152 
L 143.419234 59.204879 
L 143.435685 126.659425 
L 143.53439 59.204879 
L 143.550841 92.932152 
L 143.567292 92.932152 
L 143.583743 59.204879 
L 143.616645 126.659425 
L 143.649546 126.659425 
L 144.126623 126.659425 
L 144.159525 59.204879 
L 144.225328 126.659425 
L 144.307583 126.659425 
L 144.324034 92.932152 
L 144.406288 126.659425 
L 145.492048 126.659425 
L 145.508499 92.932152 
L 145.590754 126.659425 
L 145.673008 126.659425 
L 145.788165 92.932152 
L 145.837517 92.932152 
L 145.853968 126.659425 
L 145.936223 92.932152 
L 146.002026 92.932152 
L 146.117183 126.659425 
L 146.199437 126.659425 
L 146.314594 92.932152 
L 146.42975 126.659425 
L 146.544906 126.659425 
L 146.660063 92.932152 
L 146.79167 92.932152 
L 146.906826 126.659425 
L 147.499059 126.659425 
L 147.51551 92.932152 
L 147.597765 126.659425 
L 148.667074 126.659425 
L 148.683525 92.932152 
L 148.765779 126.659425 
L 149.703481 126.659425 
L 149.719932 92.932152 
L 149.802186 126.659425 
L 150.197008 126.659425 
L 150.213459 92.932152 
L 150.295714 126.659425 
L 150.345066 126.659425 
L 150.460223 92.932152 
L 150.542477 92.932152 
L 150.558928 59.204879 
L 150.641183 92.932152 
L 150.723437 92.932152 
L 150.838594 126.659425 
L 151.184063 126.659425 
L 151.200514 92.932152 
L 151.282768 126.659425 
L 151.545983 126.659425 
L 151.562434 92.932152 
L 151.644688 126.659425 
L 151.957255 126.659425 
L 151.973706 92.932152 
L 152.055961 126.659425 
L 152.894957 126.659425 
L 152.977212 59.204879 
L 153.010114 92.932152 
L 153.092368 92.932152 
L 153.108819 59.204879 
L 153.174623 126.659425 
L 153.191074 92.932152 
L 153.437837 92.932152 
L 153.454288 59.204879 
L 153.536543 92.932152 
L 153.750405 92.932152 
L 153.783306 126.659425 
L 153.84911 92.932152 
L 153.931365 92.932152 
L 153.947815 59.204879 
L 154.013619 126.659425 
L 154.03007 126.659425 
L 154.145226 92.932152 
L 154.309735 92.932152 
L 154.326186 126.659425 
L 154.408441 92.932152 
L 154.490695 92.932152 
L 154.507146 126.659425 
L 154.57295 59.204879 
L 154.589401 92.932152 
L 154.819714 92.932152 
L 154.93487 126.659425 
L 155.11583 126.659425 
L 155.230986 92.932152 
L 155.247437 92.932152 
L 155.263888 126.659425 
L 155.346143 92.932152 
L 155.362594 92.932152 
L 155.395495 126.659425 
L 155.461299 92.932152 
L 155.609357 92.932152 
L 155.675161 126.659425 
L 155.691612 92.932152 
L 155.708063 59.204879 
L 155.773866 92.932152 
L 155.790317 126.659425 
L 155.872572 92.932152 
L 156.053532 92.932152 
L 156.102885 126.659425 
L 156.152237 59.204879 
L 156.267394 92.932152 
L 156.399001 92.932152 
L 156.415452 59.204879 
L 156.497706 92.932152 
L 156.760921 92.932152 
L 156.777372 59.204879 
L 156.859626 92.932152 
L 156.876077 92.932152 
L 156.991234 126.659425 
L 157.10639 92.932152 
L 157.122841 126.659425 
L 157.205095 92.932152 
L 157.501212 92.932152 
L 157.517663 59.204879 
L 157.567015 126.659425 
L 157.599917 92.932152 
L 157.632819 92.932152 
L 157.64927 126.659425 
L 157.665721 59.204879 
L 157.731525 92.932152 
L 157.961837 92.932152 
L 157.978288 59.204879 
L 158.060543 92.932152 
L 158.076994 92.932152 
L 158.093445 59.204879 
L 158.175699 92.932152 
L 158.340208 92.932152 
L 158.422463 126.659425 
L 158.455365 59.204879 
L 158.570521 92.932152 
L 158.669226 92.932152 
L 158.751481 59.204879 
L 158.767932 92.932152 
L 158.784383 92.932152 
L 158.899539 126.659425 
L 158.91599 126.659425 
L 159.031146 92.932152 
L 159.722085 92.932152 
L 159.738535 126.659425 
L 159.82079 92.932152 
L 159.919495 92.932152 
L 159.935946 126.659425 
L 160.018201 92.932152 
L 160.116906 92.932152 
L 160.133357 126.659425 
L 160.215612 92.932152 
L 160.232063 92.932152 
L 160.248514 59.204879 
L 160.264965 126.659425 
L 160.314317 126.659425 
L 160.36367 126.659425 
L 160.478826 92.932152 
L 160.593983 126.659425 
L 160.791394 126.659425 
L 160.873648 92.932152 
L 160.890099 126.659425 
L 161.219117 126.659425 
L 161.334274 92.932152 
L 161.400077 92.932152 
L 161.465881 59.204879 
L 161.515234 126.659425 
L 161.844252 126.659425 
L 161.910055 92.932152 
L 161.942957 126.659425 
L 162.600994 126.659425 
L 162.617445 92.932152 
L 162.699699 126.659425 
L 162.71615 126.659425 
L 162.749052 59.204879 
L 162.814855 126.659425 
L 162.831306 126.659425 
L 162.946463 92.932152 
L 163.045168 92.932152 
L 163.110972 59.204879 
L 163.143874 126.659425 
L 163.25903 92.932152 
L 163.555146 92.932152 
L 163.670303 126.659425 
L 163.686754 126.659425 
L 163.818361 59.204879 
L 163.933517 92.932152 
L 164.114477 92.932152 
L 164.130928 126.659425 
L 164.180281 59.204879 
L 164.196732 92.932152 
L 164.213183 59.204879 
L 164.295437 92.932152 
L 164.624455 92.932152 
L 164.640906 126.659425 
L 164.723161 92.932152 
L 164.88767 92.932152 
L 164.904121 59.204879 
L 164.986375 92.932152 
L 165.397648 92.932152 
L 165.414099 126.659425 
L 165.447001 59.204879 
L 165.496354 92.932152 
L 165.545706 92.932152 
L 165.562157 126.659425 
L 165.644412 92.932152 
L 166.170841 92.932152 
L 166.236645 126.659425 
L 166.269546 92.932152 
L 166.680819 92.932152 
L 166.795975 126.659425 
L 166.911132 92.932152 
L 167.124994 92.932152 
L 167.174346 126.659425 
L 167.223699 92.932152 
L 167.388208 92.932152 
L 167.486914 126.659425 
L 167.60207 92.932152 
L 167.881735 92.932152 
L 167.96399 126.659425 
L 167.980441 92.932152 
L 168.605575 92.932152 
L 168.671379 126.659425 
L 168.704281 92.932152 
L 168.819437 92.932152 
L 168.835888 59.204879 
L 168.918143 92.932152 
L 169.033299 92.932152 
L 169.04975 126.659425 
L 169.082652 59.204879 
L 169.132005 92.932152 
L 169.164906 92.932152 
L 169.23071 59.204879 
L 169.263612 92.932152 
L 169.41167 92.932152 
L 169.461023 126.659425 
L 169.510375 92.932152 
L 169.790041 92.932152 
L 169.806492 126.659425 
L 169.888746 92.932152 
L 169.95455 92.932152 
L 169.987452 126.659425 
L 170.053255 92.932152 
L 171.007408 92.932152 
L 171.023859 59.204879 
L 171.106114 92.932152 
L 171.122565 92.932152 
L 171.155466 59.204879 
L 171.22127 92.932152 
L 171.336426 92.932152 
L 171.352877 126.659425 
L 171.435132 92.932152 
L 171.714797 92.932152 
L 171.780601 126.659425 
L 171.813503 92.932152 
L 171.829954 92.932152 
L 171.94511 126.659425 
L 172.142521 126.659425 
L 172.175423 92.932152 
L 172.241226 126.659425 
L 172.422186 126.659425 
L 172.537343 92.932152 
L 172.603146 92.932152 
L 172.619597 59.204879 
L 172.66895 126.659425 
L 172.685401 126.659425 
L 172.701852 126.659425 
L 172.718303 59.204879 
L 172.817008 92.932152 
L 172.948615 92.932152 
L 172.965066 126.659425 
L 173.047321 92.932152 
L 173.080223 92.932152 
L 173.096674 126.659425 
L 173.178928 92.932152 
L 173.359888 92.932152 
L 173.39279 59.204879 
L 173.458594 92.932152 
L 173.540848 92.932152 
L 173.557299 126.659425 
L 173.623103 59.204879 
L 173.639554 92.932152 
L 173.672455 92.932152 
L 173.738259 126.659425 
L 173.771161 92.932152 
L 174.11663 92.932152 
L 174.133081 126.659425 
L 174.215335 92.932152 
L 174.412746 92.932152 
L 174.429197 126.659425 
L 174.511452 92.932152 
L 174.906274 92.932152 
L 174.922725 59.204879 
L 175.004979 92.932152 
L 175.38335 92.932152 
L 175.465605 126.659425 
L 175.482055 92.932152 
L 175.498506 59.204879 
L 175.580761 92.932152 
L 175.695917 92.932152 
L 175.712368 126.659425 
L 175.794623 92.932152 
L 175.811074 92.932152 
L 175.827525 59.204879 
L 175.909779 92.932152 
L 176.271699 92.932152 
L 176.28815 126.659425 
L 176.370405 92.932152 
L 176.600717 92.932152 
L 176.617168 59.204879 
L 176.682972 126.659425 
L 176.699423 92.932152 
L 177.505517 92.932152 
L 177.620674 126.659425 
L 177.686477 126.659425 
L 177.801634 92.932152 
L 177.933241 92.932152 
L 177.949692 59.204879 
L 178.031946 92.932152 
L 178.048397 92.932152 
L 178.09775 126.659425 
L 178.147103 92.932152 
L 178.163554 92.932152 
L 178.27871 126.659425 
L 178.360965 92.932152 
L 178.377415 126.659425 
L 178.443219 126.659425 
L 178.558375 92.932152 
L 178.607728 92.932152 
L 178.673532 126.659425 
L 178.706434 92.932152 
L 179.068354 92.932152 
L 179.134157 59.204879 
L 179.167059 92.932152 
L 179.331568 92.932152 
L 179.36447 126.659425 
L 179.430274 92.932152 
L 179.578332 92.932152 
L 179.594783 59.204879 
L 179.677037 92.932152 
L 179.808645 92.932152 
L 179.825095 59.204879 
L 179.90735 92.932152 
L 179.973154 92.932152 
L 179.989605 59.204879 
L 180.071859 92.932152 
L 180.121212 92.932152 
L 180.137663 126.659425 
L 180.219917 92.932152 
L 180.795699 92.932152 
L 180.81215 126.659425 
L 180.894405 92.932152 
L 180.976659 92.932152 
L 181.058914 126.659425 
L 181.075365 92.932152 
L 181.091815 92.932152 
L 181.108266 59.204879 
L 181.190521 92.932152 
L 181.749852 92.932152 
L 181.766303 59.204879 
L 181.848557 92.932152 
L 182.457241 92.932152 
L 182.473692 126.659425 
L 182.555946 92.932152 
L 182.720455 92.932152 
L 182.786259 59.204879 
L 182.819161 126.659425 
L 182.934317 92.932152 
L 182.967219 92.932152 
L 183.016572 126.659425 
L 183.065925 59.204879 
L 183.148179 126.659425 
L 183.181081 92.932152 
L 183.279786 92.932152 
L 183.362041 126.659425 
L 183.444295 59.204879 
L 183.477197 92.932152 
L 183.625255 92.932152 
L 183.740412 126.659425 
L 185.138739 126.659425 
L 185.15519 92.932152 
L 185.237445 126.659425 
L 185.944834 126.659425 
L 186.05999 92.932152 
L 186.076441 92.932152 
L 186.092892 59.204879 
L 186.175146 92.932152 
L 186.224499 92.932152 
L 186.273852 59.204879 
L 186.306754 92.932152 
L 186.389008 126.659425 
L 186.405459 92.932152 
L 186.668674 92.932152 
L 186.701575 59.204879 
L 186.734477 126.659425 
L 186.767379 92.932152 
L 186.882535 92.932152 
L 186.898986 126.659425 
L 186.981241 92.932152 
L 187.178652 92.932152 
L 187.260906 126.659425 
L 187.277357 92.932152 
L 187.310259 92.932152 
L 187.343161 126.659425 
L 187.376063 59.204879 
L 187.408965 92.932152 
L 187.458317 92.932152 
L 187.573474 126.659425 
L 187.672179 126.659425 
L 187.68863 59.204879 
L 187.770885 126.659425 
L 187.853139 126.659425 
L 187.968295 92.932152 
L 188.083452 126.659425 
L 188.132805 126.659425 
L 188.247961 92.932152 
L 188.313765 92.932152 
L 188.41247 126.659425 
L 188.527626 92.932152 
L 188.576979 126.659425 
L 188.609881 59.204879 
L 188.626332 92.932152 
L 188.659234 92.932152 
L 188.675685 126.659425 
L 188.708586 59.204879 
L 188.757939 92.932152 
L 188.790841 92.932152 
L 188.873095 126.659425 
L 188.922448 25.477607 
L 189.054055 126.659425 
L 189.185663 59.204879 
L 189.202114 59.204879 
L 189.31727 126.659425 
L 189.432426 92.932152 
L 189.448877 92.932152 
L 189.547583 126.659425 
L 189.662739 92.932152 
L 189.695641 92.932152 
L 189.794346 126.659425 
L 189.909503 92.932152 
L 189.942405 92.932152 
L 190.04111 126.659425 
L 190.172717 59.204879 
L 190.287874 92.932152 
L 190.320775 92.932152 
L 190.386579 126.659425 
L 190.419481 59.204879 
L 190.485285 126.659425 
L 190.518186 92.932152 
L 190.534637 59.204879 
L 190.58399 126.659425 
L 190.616892 92.932152 
L 190.699146 126.659425 
L 190.715597 92.932152 
L 190.748499 126.659425 
L 190.830754 59.204879 
L 190.913008 126.659425 
L 190.929459 92.932152 
L 191.044615 59.204879 
L 191.159772 92.932152 
L 191.225575 92.932152 
L 191.242026 126.659425 
L 191.30783 92.932152 
L 191.373634 126.659425 
L 191.422986 59.204879 
L 191.439437 59.204879 
L 191.521692 126.659425 
L 191.538143 92.932152 
L 191.603946 59.204879 
L 191.636848 92.932152 
L 191.752005 92.932152 
L 191.85071 59.204879 
L 191.982317 126.659425 
L 192.064572 59.204879 
L 192.097474 92.932152 
L 192.179728 92.932152 
L 192.196179 126.659425 
L 192.21263 59.204879 
L 192.261983 59.204879 
L 192.278434 59.204879 
L 192.377139 92.932152 
L 192.459394 59.204879 
L 192.475845 92.932152 
L 192.541648 92.932152 
L 192.607452 126.659425 
L 192.640354 59.204879 
L 192.722608 126.659425 
L 192.75551 92.932152 
L 192.804863 92.932152 
L 192.821314 126.659425 
L 192.837765 59.204879 
L 192.887117 59.204879 
L 192.903568 59.204879 
L 193.018725 92.932152 
L 193.035175 92.932152 
L 193.150332 59.204879 
L 193.166783 59.204879 
L 193.265488 92.932152 
L 193.314841 59.204879 
L 193.364194 92.932152 
L 193.413546 59.204879 
L 193.462899 126.659425 
L 193.594506 59.204879 
L 193.627408 59.204879 
L 193.742565 92.932152 
L 193.775466 92.932152 
L 193.857721 59.204879 
L 193.824819 126.659425 
L 193.874172 92.932152 
L 193.890623 126.659425 
L 193.907074 59.204879 
L 193.956426 92.932152 
L 194.055132 59.204879 
L 194.170288 92.932152 
L 194.20319 92.932152 
L 194.301895 59.204879 
L 194.351248 126.659425 
L 194.38415 25.477607 
L 194.417052 92.932152 
L 194.433503 92.932152 
L 194.482855 59.204879 
L 194.532208 92.932152 
L 194.548659 92.932152 
L 194.581561 126.659425 
L 194.663815 59.204879 
L 194.713168 59.204879 
L 194.828325 92.932152 
L 194.861226 126.659425 
L 194.92703 59.204879 
L 195.042186 92.932152 
L 195.091539 59.204879 
L 195.124441 92.932152 
L 195.140892 126.659425 
L 195.157343 59.204879 
L 195.223146 92.932152 
L 195.256048 92.932152 
L 195.354754 59.204879 
L 195.453459 92.932152 
L 195.502812 59.204879 
L 195.535714 92.932152 
L 195.568615 126.659425 
L 195.617968 59.204879 
L 195.634419 59.204879 
L 195.65087 92.932152 
L 195.733125 59.204879 
L 195.749575 59.204879 
L 195.782477 126.659425 
L 195.864732 92.932152 
L 195.897634 92.932152 
L 195.946986 59.204879 
L 195.996339 92.932152 
L 196.01279 92.932152 
L 196.045692 126.659425 
L 196.111495 59.204879 
L 196.160848 126.659425 
L 196.226652 92.932152 
L 196.308906 92.932152 
L 196.358259 59.204879 
L 196.391161 126.659425 
L 196.407612 92.932152 
L 196.424063 92.932152 
L 196.539219 59.204879 
L 196.654375 92.932152 
L 196.687277 92.932152 
L 196.703728 126.659425 
L 196.720179 59.204879 
L 196.769532 92.932152 
L 196.884688 59.204879 
L 196.950492 126.659425 
L 196.983394 92.932152 
L 197.016295 59.204879 
L 197.032746 126.659425 
L 197.065648 92.932152 
L 197.147903 126.659425 
L 197.164354 92.932152 
L 197.197255 92.932152 
L 197.213706 59.204879 
L 197.230157 126.659425 
L 197.27951 126.659425 
L 197.361765 126.659425 
L 197.476921 59.204879 
L 197.526274 126.659425 
L 197.592077 92.932152 
L 197.64143 92.932152 
L 197.707234 126.659425 
L 197.740135 59.204879 
L 197.773037 126.659425 
L 197.838841 59.204879 
L 197.855292 59.204879 
L 197.888194 126.659425 
L 197.970448 92.932152 
L 198.036252 59.204879 
L 198.069154 92.932152 
L 198.085605 126.659425 
L 198.118506 59.204879 
L 198.151408 59.204879 
L 198.167859 59.204879 
L 198.283015 92.932152 
L 198.299466 92.932152 
L 198.381721 126.659425 
L 198.36527 59.204879 
L 198.398172 92.932152 
L 198.431074 59.204879 
L 198.496877 92.932152 
L 198.513328 92.932152 
L 198.54623 59.204879 
L 198.612034 126.659425 
L 198.710739 59.204879 
L 198.72719 92.932152 
L 198.842346 126.659425 
L 198.957503 92.932152 
L 199.006855 92.932152 
L 199.056208 59.204879 
L 199.105561 92.932152 
L 199.138463 92.932152 
L 199.154914 59.204879 
L 199.237168 92.932152 
L 199.302972 92.932152 
L 199.335874 59.204879 
L 199.385226 126.659425 
L 199.401677 59.204879 
L 199.500383 92.932152 
L 199.516834 126.659425 
L 199.549735 59.204879 
L 199.599088 92.932152 
L 199.697794 92.932152 
L 199.747146 25.477607 
L 199.81295 126.659425 
L 199.829401 126.659425 
L 199.878754 59.204879 
L 199.944557 92.932152 
L 199.977459 92.932152 
L 199.99391 59.204879 
L 200.076165 92.932152 
L 200.158419 92.932152 
L 200.257125 59.204879 
L 200.372281 92.932152 
L 200.388732 59.204879 
L 200.438085 126.659425 
L 200.470986 92.932152 
L 200.487437 92.932152 
L 200.503888 126.659425 
L 200.53679 59.204879 
L 200.586143 92.932152 
L 200.668397 92.932152 
L 200.684848 126.659425 
L 200.767103 92.932152 
L 200.800005 92.932152 
L 200.816455 126.659425 
L 200.832906 59.204879 
L 200.89871 92.932152 
L 201.013866 92.932152 
L 201.07967 126.659425 
L 201.096121 92.932152 
L 201.112572 59.204879 
L 201.161925 126.659425 
L 201.194826 92.932152 
L 201.227728 92.932152 
L 201.244179 59.204879 
L 201.26063 126.659425 
L 201.309983 126.659425 
L 201.326434 126.659425 
L 201.44159 59.204879 
L 201.458041 126.659425 
L 201.556746 92.932152 
L 201.606099 92.932152 
L 201.721255 126.659425 
L 201.737706 126.659425 
L 201.754157 92.932152 
L 201.836412 126.659425 
L 201.869314 126.659425 
L 201.935117 59.204879 
L 201.98447 92.932152 
L 202.099626 126.659425 
L 203.168935 126.659425 
L 203.218288 92.932152 
L 203.267641 126.659425 
L 204.994986 126.659425 
L 205.110143 92.932152 
L 205.126594 92.932152 
L 205.192397 126.659425 
L 205.225299 92.932152 
L 205.307554 92.932152 
L 205.406259 126.659425 
L 205.42271 92.932152 
L 205.504965 126.659425 
L 205.998492 126.659425 
L 206.113648 92.932152 
L 206.409765 92.932152 
L 206.442666 126.659425 
L 206.50847 92.932152 
L 206.557823 92.932152 
L 206.672979 126.659425 
L 210.588295 126.659425 
L 210.588295 126.659425 
" clip-path="url(#p48a3c10051)" style="fill: none; stroke: #d55e00; stroke-width: 1.25; stroke-linecap: square"/>
   </g>
   <g id="patch_4">
    <path d="M 37.85375 131.718516 
L 37.85375 20.418516 
" style="fill: none; stroke: #000000; stroke-width: 0.8; stroke-linejoin: miter; stroke-linecap: square"/>
   </g>
   <g id="patch_5">
    <path d="M 37.85375 131.718516 
L 218.81375 131.718516 
" style="fill: none; stroke: #000000; stroke-width: 0.8; stroke-linejoin: miter; stroke-linecap: square"/>
   </g>
   <g id="text_16">
    <!-- drugs3003 rep3 -->
    <g transform="translate(90.460664 14.418516) scale(0.095 -0.095)">
     <defs>
      <path id="DejaVuSans-67" d="M 2906 1791 
Q 2906 2416 2648 2759 
Q 2391 3103 1925 3103 
Q 1463 3103 1205 2759 
Q 947 2416 947 1791 
Q 947 1169 1205 825 
Q 1463 481 1925 481 
Q 2391 481 2648 825 
Q 2906 1169 2906 1791 
z
M 3481 434 
Q 3481 -459 3084 -895 
Q 2688 -1331 1869 -1331 
Q 1566 -1331 1297 -1286 
Q 1028 -1241 775 -1147 
L 775 -588 
Q 1028 -725 1275 -790 
Q 1522 -856 1778 -856 
Q 2344 -856 2625 -561 
Q 2906 -266 2906 331 
L 2906 616 
Q 2728 306 2450 153 
Q 2172 0 1784 0 
Q 1141 0 747 490 
Q 353 981 353 1791 
Q 353 2603 747 3093 
Q 1141 3584 1784 3584 
Q 2172 3584 2450 3431 
Q 2728 3278 2906 2969 
L 2906 3500 
L 3481 3500 
L 3481 434 
z
" transform="scale(0.015625)"/>
      <path id="DejaVuSans-70" d="M 1159 525 
L 1159 -1331 
L 581 -1331 
L 581 3500 
L 1159 3500 
L 1159 2969 
Q 1341 3281 1617 3432 
Q 1894 3584 2278 3584 
Q 2916 3584 3314 3078 
Q 3713 2572 3713 1747 
Q 3713 922 3314 415 
Q 2916 -91 2278 -91 
Q 1894 -91 1617 61 
Q 1341 213 1159 525 
z
M 3116 1747 
Q 3116 2381 2855 2742 
Q 2594 3103 2138 3103 
Q 1681 3103 1420 2742 
Q 1159 2381 1159 1747 
Q 1159 1113 1420 752 
Q 1681 391 2138 391 
Q 2594 391 2855 752 
Q 3116 1113 3116 1747 
z
" transform="scale(0.015625)"/>
     </defs>
     <use xlink:href="#DejaVuSans-64"/>
     <use xlink:href="#DejaVuSans-72" transform="translate(63.476562 0)"/>
     <use xlink:href="#DejaVuSans-75" transform="translate(104.589844 0)"/>
     <use xlink:href="#DejaVuSans-67" transform="translate(167.96875 0)"/>
     <use xlink:href="#DejaVuSans-73" transform="translate(231.445312 0)"/>
     <use xlink:href="#DejaVuSans-33" transform="translate(283.544922 0)"/>
     <use xlink:href="#DejaVuSans-30" transform="translate(347.167969 0)"/>
     <use xlink:href="#DejaVuSans-30" transform="translate(410.791016 0)"/>
     <use xlink:href="#DejaVuSans-33" transform="translate(474.414062 0)"/>
     <use xlink:href="#DejaVuSans-20" transform="translate(538.037109 0)"/>
     <use xlink:href="#DejaVuSans-72" transform="translate(569.824219 0)"/>
     <use xlink:href="#DejaVuSans-65" transform="translate(608.6875 0)"/>
     <use xlink:href="#DejaVuSans-70" transform="translate(670.210938 0)"/>
     <use xlink:href="#DejaVuSans-33" transform="translate(733.6875 0)"/>
    </g>
   </g>
  </g>
 </g>
 <defs>
  <clipPath id="p48a3c10051">
   <rect x="37.85375" y="20.418516" width="180.96" height="111.3"/>
  </clipPath>
 </defs>
</svg>
