<?xml version="1.0" encoding="utf-8" standalone="no"?>
<!DOCTYPE svg PUBLIC "-//W3C//DTD SVG 1.1//EN"
  "http://www.w3.org/Graphics/SVG/1.1/DTD/svg11.dtd">
<svg xmlns:xlink="http://www.w3.org/1999/xlink" width="226.01375pt" height="164.903516pt" viewBox="0 0 226.01375 164.903516" xmlns="http://www.w3.org/2000/svg" version="1.1">
 <metadata>
  <rdf:RDF xmlns:dc="http://purl.org/dc/elements/1.1/" xmlns:cc="http://creativecommons.org/ns#" xmlns:rdf="http://www.w3.org/1999/02/22-rdf-syntax-ns#">
   <cc:Work>
    <dc:type rdf:resource="http://purl.org/dc/dcmitype/StillImage"/>
    <dc:date>2026-05-24T13:54:02.562271</dc:date>
    <dc:format>image/svg+xml</dc:format>
    <dc:creator>
     <cc:Agent>
      <dc:title>Matplotlib v3.10.9, https://matplotlib.org/</dc:title>
     </cc:Agent>
    </dc:creator>
   </cc:Work>
  </rdf:RDF>
 </metadata>
 <defs>
  <style type="text/css">*{stroke-linejoin: round; stroke-linecap: butt}</style>
 </defs>
 <g id="figure_1">
  <g id="patch_1">
   <path d="M 0 164.903516 
L 226.01375 164.903516 
L 226.01375 0 
L 0 0 
z
" style="fill: #ffffff"/>
  </g>
  <g id="axes_1">
   <g id="patch_2">
    <path d="M 37.85375 131.718516 
L 218.81375 131.718516 
L 218.81375 20.418516 
L 37.85375 20.418516 
z
" style="fill: #ffffff"/>
   </g>
   <g id="patch_3">
    <path d="M 128.333744 131.718516 
L 210.588283 131.718516 
L 210.588283 20.418516 
L 128.333744 20.418516 
z
" clip-path="url(#pfeff1ec250)" style="fill: #bdbdbd; opacity: 0.18"/>
   </g>
   <g id="matplotlib.axis_1">
    <g id="xtick_1">
     <g id="line2d_1">
      <defs>
       <path id="mdf41702f15" d="M 0 0 
L 0 3 
" style="stroke: #000000; stroke-width: 0.7"/>
      </defs>
      <g>
       <use xlink:href="#mdf41702f15" x="46.079205" y="131.718516" style="stroke: #000000; stroke-width: 0.7"/>
      </g>
     </g>
     <g id="text_1">
      <!-- 0 -->
      <g transform="translate(43.693267 143.917344) scale(0.075 -0.075)">
       <defs>
        <path id="DejaVuSans-30" d="M 2034 4250 
Q 1547 4250 1301 3770 
Q 1056 3291 1056 2328 
Q 1056 1369 1301 889 
Q 1547 409 2034 409 
Q 2525 409 2770 889 
Q 3016 1369 3016 2328 
Q 3016 3291 2770 3770 
Q 2525 4250 2034 4250 
z
M 2034 4750 
Q 2819 4750 3233 4129 
Q 3647 3509 3647 2328 
Q 3647 1150 3233 529 
Q 2819 -91 2034 -91 
Q 1250 -91 836 529 
Q 422 1150 422 2328 
Q 422 3509 836 4129 
Q 1250 4750 2034 4750 
z
" transform="scale(0.015625)"/>
       </defs>
       <use xlink:href="#DejaVuSans-30"/>
      </g>
     </g>
    </g>
    <g id="xtick_2">
     <g id="line2d_2">
      <g>
       <use xlink:href="#mdf41702f15" x="78.98102" y="131.718516" style="stroke: #000000; stroke-width: 0.7"/>
      </g>
     </g>
     <g id="text_2">
      <!-- 20 -->
      <g transform="translate(74.209145 143.917344) scale(0.075 -0.075)">
       <defs>
        <path id="DejaVuSans-32" d="M 1228 531 
L 3431 531 
L 3431 0 
L 469 0 
L 469 531 
Q 828 903 1448 1529 
Q 2069 2156 2228 2338 
Q 2531 2678 2651 2914 
Q 2772 3150 2772 3378 
Q 2772 3750 2511 3984 
Q 2250 4219 1831 4219 
Q 1534 4219 1204 4116 
Q 875 4013 500 3803 
L 500 4441 
Q 881 4594 1212 4672 
Q 1544 4750 1819 4750 
Q 2544 4750 2975 4387 
Q 3406 4025 3406 3419 
Q 3406 3131 3298 2873 
Q 3191 2616 2906 2266 
Q 2828 2175 2409 1742 
Q 1991 1309 1228 531 
z
" transform="scale(0.015625)"/>
       </defs>
       <use xlink:href="#DejaVuSans-32"/>
       <use xlink:href="#DejaVuSans-30" transform="translate(63.623047 0)"/>
      </g>
     </g>
    </g>
    <g id="xtick_3">
     <g id="line2d_3">
      <g>
       <use xlink:href="#mdf41702f15" x="111.882836" y="131.718516" style="stroke: #000000; stroke-width: 0.7"/>
      </g>
     </g>
     <g id="text_3">
      <!-- 40 -->
      <g transform="translate(107.110961 143.917344) scale(0.075 -0.075)">
       <defs>
        <path id="DejaVuSans-34" d="M 2419 4116 
L 825 1625 
L 2419 1625 
L 2419 4116 
z
M 2253 4666 
L 3047 4666 
L 3047 1625 
L 3713 1625 
L 3713 1100 
L 3047 1100 
L 3047 0 
L 2419 0 
L 2419 1100 
L 313 1100 
L 313 1709 
L 2253 4666 
z
" transform="scale(0.015625)"/>
       </defs>
       <use xlink:href="#DejaVuSans-34"/>
       <use xlink:href="#DejaVuSans-30" transform="translate(63.623047 0)"/>
      </g>
     </g>
    </g>
    <g id="xtick_4">
     <g id="line2d_4">
      <g>
       <use xlink:href="#mdf41702f15" x="144.784652" y="131.718516" style="stroke: #000000; stroke-width: 0.7"/>
      </g>
     </g>
     <g id="text_4">
      <!-- 60 -->
      <g transform="translate(140.012777 143.917344) scale(0.075 -0.075)">
       <defs>
        <path id="DejaVuSans-36" d="M 2113 2584 
Q 1688 2584 1439 2293 
Q 1191 2003 1191 1497 
Q 1191 994 1439 701 
Q 1688 409 2113 409 
Q 2538 409 2786 701 
Q 3034 994 3034 1497 
Q 3034 2003 2786 2293 
Q 2538 2584 2113 2584 
z
M 3366 4563 
L 3366 3988 
Q 3128 4100 2886 4159 
Q 2644 4219 2406 4219 
Q 1781 4219 1451 3797 
Q 1122 3375 1075 2522 
Q 1259 2794 1537 2939 
Q 1816 3084 2150 3084 
Q 2853 3084 3261 2657 
Q 3669 2231 3669 1497 
Q 3669 778 3244 343 
Q 2819 -91 2113 -91 
Q 1303 -91 875 529 
Q 447 1150 447 2328 
Q 447 3434 972 4092 
Q 1497 4750 2381 4750 
Q 2619 4750 2861 4703 
Q 3103 4656 3366 4563 
z
" transform="scale(0.015625)"/>
       </defs>
       <use xlink:href="#DejaVuSans-36"/>
       <use xlink:href="#DejaVuSans-30" transform="translate(63.623047 0)"/>
      </g>
     </g>
    </g>
    <g id="xtick_5">
     <g id="line2d_5">
      <g>
       <use xlink:href="#mdf41702f15" x="177.686467" y="131.718516" style="stroke: #000000; stroke-width: 0.7"/>
      </g>
     </g>
     <g id="text_5">
      <!-- 80 -->
      <g transform="translate(172.914592 143.917344) scale(0.075 -0.075)">
       <defs>
        <path id="DejaVuSans-38" d="M 2034 2216 
Q 1584 2216 1326 1975 
Q 1069 1734 1069 1313 
Q 1069 891 1326 650 
Q 1584 409 2034 409 
Q 2484 409 2743 651 
Q 3003 894 3003 1313 
Q 3003 1734 2745 1975 
Q 2488 2216 2034 2216 
z
M 1403 2484 
Q 997 2584 770 2862 
Q 544 3141 544 3541 
Q 544 4100 942 4425 
Q 1341 4750 2034 4750 
Q 2731 4750 3128 4425 
Q 3525 4100 3525 3541 
Q 3525 3141 3298 2862 
Q 3072 2584 2669 2484 
Q 3125 2378 3379 2068 
Q 3634 1759 3634 1313 
Q 3634 634 3220 271 
Q 2806 -91 2034 -91 
Q 1263 -91 848 271 
Q 434 634 434 1313 
Q 434 1759 690 2068 
Q 947 2378 1403 2484 
z
M 1172 3481 
Q 1172 3119 1398 2916 
Q 1625 2713 2034 2713 
Q 2441 2713 2670 2916 
Q 2900 3119 2900 3481 
Q 2900 3844 2670 4047 
Q 2441 4250 2034 4250 
Q 1625 4250 1398 4047 
Q 1172 3844 1172 3481 
z
" transform="scale(0.015625)"/>
       </defs>
       <use xlink:href="#DejaVuSans-38"/>
       <use xlink:href="#DejaVuSans-30" transform="translate(63.623047 0)"/>
      </g>
     </g>
    </g>
    <g id="xtick_6">
     <g id="line2d_6">
      <g>
       <use xlink:href="#mdf41702f15" x="210.588283" y="131.718516" style="stroke: #000000; stroke-width: 0.7"/>
      </g>
     </g>
     <g id="text_6">
      <!-- 100 -->
      <g transform="translate(203.43047 143.917344) scale(0.075 -0.075)">
       <defs>
        <path id="DejaVuSans-31" d="M 794 531 
L 1825 531 
L 1825 4091 
L 703 3866 
L 703 4441 
L 1819 4666 
L 2450 4666 
L 2450 531 
L 3481 531 
L 3481 0 
L 794 0 
L 794 531 
z
" transform="scale(0.015625)"/>
       </defs>
       <use xlink:href="#DejaVuSans-31"/>
       <use xlink:href="#DejaVuSans-30" transform="translate(63.623047 0)"/>
       <use xlink:href="#DejaVuSans-30" transform="translate(127.246094 0)"/>
      </g>
     </g>
    </g>
    <g id="text_7">
     <!-- Time (ns) -->
     <g transform="translate(108.360742 155.935781) scale(0.085 -0.085)">
      <defs>
       <path id="DejaVuSans-54" d="M -19 4666 
L 3928 4666 
L 3928 4134 
L 2272 4134 
L 2272 0 
L 1638 0 
L 1638 4134 
L -19 4134 
L -19 4666 
z
" transform="scale(0.015625)"/>
       <path id="DejaVuSans-69" d="M 603 3500 
L 1178 3500 
L 1178 0 
L 603 0 
L 603 3500 
z
M 603 4863 
L 1178 4863 
L 1178 4134 
L 603 4134 
L 603 4863 
z
" transform="scale(0.015625)"/>
       <path id="DejaVuSans-6d" d="M 3328 2828 
Q 3544 3216 3844 3400 
Q 4144 3584 4550 3584 
Q 5097 3584 5394 3201 
Q 5691 2819 5691 2113 
L 5691 0 
L 5113 0 
L 5113 2094 
Q 5113 2597 4934 2840 
Q 4756 3084 4391 3084 
Q 3944 3084 3684 2787 
Q 3425 2491 3425 1978 
L 3425 0 
L 2847 0 
L 2847 2094 
Q 2847 2600 2669 2842 
Q 2491 3084 2119 3084 
Q 1678 3084 1418 2786 
Q 1159 2488 1159 1978 
L 1159 0 
L 581 0 
L 581 3500 
L 1159 3500 
L 1159 2956 
Q 1356 3278 1631 3431 
Q 1906 3584 2284 3584 
Q 2666 3584 2933 3390 
Q 3200 3197 3328 2828 
z
" transform="scale(0.015625)"/>
       <path id="DejaVuSans-65" d="M 3597 1894 
L 3597 1613 
L 953 1613 
Q 991 1019 1311 708 
Q 1631 397 2203 397 
Q 2534 397 2845 478 
Q 3156 559 3463 722 
L 3463 178 
Q 3153 47 2828 -22 
Q 2503 -91 2169 -91 
Q 1331 -91 842 396 
Q 353 884 353 1716 
Q 353 2575 817 3079 
Q 1281 3584 2069 3584 
Q 2775 3584 3186 3129 
Q 3597 2675 3597 1894 
z
M 3022 2063 
Q 3016 2534 2758 2815 
Q 2500 3097 2075 3097 
Q 1594 3097 1305 2825 
Q 1016 2553 972 2059 
L 3022 2063 
z
" transform="scale(0.015625)"/>
       <path id="DejaVuSans-20" transform="scale(0.015625)"/>
       <path id="DejaVuSans-28" d="M 1984 4856 
Q 1566 4138 1362 3434 
Q 1159 2731 1159 2009 
Q 1159 1288 1364 580 
Q 1569 -128 1984 -844 
L 1484 -844 
Q 1016 -109 783 600 
Q 550 1309 550 2009 
Q 550 2706 781 3412 
Q 1013 4119 1484 4856 
L 1984 4856 
z
" transform="scale(0.015625)"/>
       <path id="DejaVuSans-6e" d="M 3513 2113 
L 3513 0 
L 2938 0 
L 2938 2094 
Q 2938 2591 2744 2837 
Q 2550 3084 2163 3084 
Q 1697 3084 1428 2787 
Q 1159 2491 1159 1978 
L 1159 0 
L 581 0 
L 581 3500 
L 1159 3500 
L 1159 2956 
Q 1366 3272 1645 3428 
Q 1925 3584 2291 3584 
Q 2894 3584 3203 3211 
Q 3513 2838 3513 2113 
z
" transform="scale(0.015625)"/>
       <path id="DejaVuSans-73" d="M 2834 3397 
L 2834 2853 
Q 2591 2978 2328 3040 
Q 2066 3103 1784 3103 
Q 1356 3103 1142 2972 
Q 928 2841 928 2578 
Q 928 2378 1081 2264 
Q 1234 2150 1697 2047 
L 1894 2003 
Q 2506 1872 2764 1633 
Q 3022 1394 3022 966 
Q 3022 478 2636 193 
Q 2250 -91 1575 -91 
Q 1294 -91 989 -36 
Q 684 19 347 128 
L 347 722 
Q 666 556 975 473 
Q 1284 391 1588 391 
Q 1994 391 2212 530 
Q 2431 669 2431 922 
Q 2431 1156 2273 1281 
Q 2116 1406 1581 1522 
L 1381 1569 
Q 847 1681 609 1914 
Q 372 2147 372 2553 
Q 372 3047 722 3315 
Q 1072 3584 1716 3584 
Q 2034 3584 2315 3537 
Q 2597 3491 2834 3397 
z
" transform="scale(0.015625)"/>
       <path id="DejaVuSans-29" d="M 513 4856 
L 1013 4856 
Q 1481 4119 1714 3412 
Q 1947 2706 1947 2009 
Q 1947 1309 1714 600 
Q 1481 -109 1013 -844 
L 513 -844 
Q 928 -128 1133 580 
Q 1338 1288 1338 2009 
Q 1338 2731 1133 3434 
Q 928 4138 513 4856 
z
" transform="scale(0.015625)"/>
      </defs>
      <use xlink:href="#DejaVuSans-54"/>
      <use xlink:href="#DejaVuSans-69" transform="translate(57.958984 0)"/>
      <use xlink:href="#DejaVuSans-6d" transform="translate(85.742188 0)"/>
      <use xlink:href="#DejaVuSans-65" transform="translate(183.154297 0)"/>
      <use xlink:href="#DejaVuSans-20" transform="translate(244.677734 0)"/>
      <use xlink:href="#DejaVuSans-28" transform="translate(276.464844 0)"/>
      <use xlink:href="#DejaVuSans-6e" transform="translate(315.478516 0)"/>
      <use xlink:href="#DejaVuSans-73" transform="translate(378.857422 0)"/>
      <use xlink:href="#DejaVuSans-29" transform="translate(430.957031 0)"/>
     </g>
    </g>
   </g>
   <g id="matplotlib.axis_2">
    <g id="ytick_1">
     <g id="line2d_7">
      <defs>
       <path id="m139f4c0344" d="M 0 0 
L -3 0 
" style="stroke: #000000; stroke-width: 0.7"/>
      </defs>
      <g>
       <use xlink:href="#m139f4c0344" x="37.85375" y="126.684273" style="stroke: #000000; stroke-width: 0.7"/>
      </g>
     </g>
     <g id="text_8">
      <!-- 0.0 -->
      <g transform="translate(19.426406 129.533687) scale(0.075 -0.075)">
       <defs>
        <path id="DejaVuSans-2e" d="M 684 794 
L 1344 794 
L 1344 0 
L 684 0 
L 684 794 
z
" transform="scale(0.015625)"/>
       </defs>
       <use xlink:href="#DejaVuSans-30"/>
       <use xlink:href="#DejaVuSans-2e" transform="translate(63.623047 0)"/>
       <use xlink:href="#DejaVuSans-30" transform="translate(95.410156 0)"/>
      </g>
     </g>
    </g>
    <g id="ytick_2">
     <g id="line2d_8">
      <g>
       <use xlink:href="#m139f4c0344" x="37.85375" y="101.052083" style="stroke: #000000; stroke-width: 0.7"/>
      </g>
     </g>
     <g id="text_9">
      <!-- 0.5 -->
      <g transform="translate(19.426406 103.901497) scale(0.075 -0.075)">
       <defs>
        <path id="DejaVuSans-35" d="M 691 4666 
L 3169 4666 
L 3169 4134 
L 1269 4134 
L 1269 2991 
Q 1406 3038 1543 3061 
Q 1681 3084 1819 3084 
Q 2600 3084 3056 2656 
Q 3513 2228 3513 1497 
Q 3513 744 3044 326 
Q 2575 -91 1722 -91 
Q 1428 -91 1123 -41 
Q 819 9 494 109 
L 494 744 
Q 775 591 1075 516 
Q 1375 441 1709 441 
Q 2250 441 2565 725 
Q 2881 1009 2881 1497 
Q 2881 1984 2565 2268 
Q 2250 2553 1709 2553 
Q 1456 2553 1204 2497 
Q 953 2441 691 2322 
L 691 4666 
z
" transform="scale(0.015625)"/>
       </defs>
       <use xlink:href="#DejaVuSans-30"/>
       <use xlink:href="#DejaVuSans-2e" transform="translate(63.623047 0)"/>
       <use xlink:href="#DejaVuSans-35" transform="translate(95.410156 0)"/>
      </g>
     </g>
    </g>
    <g id="ytick_3">
     <g id="line2d_9">
      <g>
       <use xlink:href="#m139f4c0344" x="37.85375" y="75.419893" style="stroke: #000000; stroke-width: 0.7"/>
      </g>
     </g>
     <g id="text_10">
      <!-- 1.0 -->
      <g transform="translate(19.426406 78.269307) scale(0.075 -0.075)">
       <use xlink:href="#DejaVuSans-31"/>
       <use xlink:href="#DejaVuSans-2e" transform="translate(63.623047 0)"/>
       <use xlink:href="#DejaVuSans-30" transform="translate(95.410156 0)"/>
      </g>
     </g>
    </g>
    <g id="ytick_4">
     <g id="line2d_10">
      <g>
       <use xlink:href="#m139f4c0344" x="37.85375" y="49.787703" style="stroke: #000000; stroke-width: 0.7"/>
      </g>
     </g>
     <g id="text_11">
      <!-- 1.5 -->
      <g transform="translate(19.426406 52.637117) scale(0.075 -0.075)">
       <use xlink:href="#DejaVuSans-31"/>
       <use xlink:href="#DejaVuSans-2e" transform="translate(63.623047 0)"/>
       <use xlink:href="#DejaVuSans-35" transform="translate(95.410156 0)"/>
      </g>
     </g>
    </g>
    <g id="ytick_5">
     <g id="line2d_11">
      <g>
       <use xlink:href="#m139f4c0344" x="37.85375" y="24.155514" style="stroke: #000000; stroke-width: 0.7"/>
      </g>
     </g>
     <g id="text_12">
      <!-- 2.0 -->
      <g transform="translate(19.426406 27.004928) scale(0.075 -0.075)">
       <use xlink:href="#DejaVuSans-32"/>
       <use xlink:href="#DejaVuSans-2e" transform="translate(63.623047 0)"/>
       <use xlink:href="#DejaVuSans-30" transform="translate(95.410156 0)"/>
      </g>
     </g>
    </g>
    <g id="text_13">
     <!-- Ligand RMSD (nm) -->
     <g transform="translate(13.658672 115.752891) rotate(-90) scale(0.085 -0.085)">
      <defs>
       <path id="DejaVuSans-4c" d="M 628 4666 
L 1259 4666 
L 1259 531 
L 3531 531 
L 3531 0 
L 628 0 
L 628 4666 
z
" transform="scale(0.015625)"/>
       <path id="DejaVuSans-67" d="M 2906 1791 
Q 2906 2416 2648 2759 
Q 2391 3103 1925 3103 
Q 1463 3103 1205 2759 
Q 947 2416 947 1791 
Q 947 1169 1205 825 
Q 1463 481 1925 481 
Q 2391 481 2648 825 
Q 2906 1169 2906 1791 
z
M 3481 434 
Q 3481 -459 3084 -895 
Q 2688 -1331 1869 -1331 
Q 1566 -1331 1297 -1286 
Q 1028 -1241 775 -1147 
L 775 -588 
Q 1028 -725 1275 -790 
Q 1522 -856 1778 -856 
Q 2344 -856 2625 -561 
Q 2906 -266 2906 331 
L 2906 616 
Q 2728 306 2450 153 
Q 2172 0 1784 0 
Q 1141 0 747 490 
Q 353 981 353 1791 
Q 353 2603 747 3093 
Q 1141 3584 1784 3584 
Q 2172 3584 2450 3431 
Q 2728 3278 2906 2969 
L 2906 3500 
L 3481 3500 
L 3481 434 
z
" transform="scale(0.015625)"/>
       <path id="DejaVuSans-61" d="M 2194 1759 
Q 1497 1759 1228 1600 
Q 959 1441 959 1056 
Q 959 750 1161 570 
Q 1363 391 1709 391 
Q 2188 391 2477 730 
Q 2766 1069 2766 1631 
L 2766 1759 
L 2194 1759 
z
M 3341 1997 
L 3341 0 
L 2766 0 
L 2766 531 
Q 2569 213 2275 61 
Q 1981 -91 1556 -91 
Q 1019 -91 701 211 
Q 384 513 384 1019 
Q 384 1609 779 1909 
Q 1175 2209 1959 2209 
L 2766 2209 
L 2766 2266 
Q 2766 2663 2505 2880 
Q 2244 3097 1772 3097 
Q 1472 3097 1187 3025 
Q 903 2953 641 2809 
L 641 3341 
Q 956 3463 1253 3523 
Q 1550 3584 1831 3584 
Q 2591 3584 2966 3190 
Q 3341 2797 3341 1997 
z
" transform="scale(0.015625)"/>
       <path id="DejaVuSans-64" d="M 2906 2969 
L 2906 4863 
L 3481 4863 
L 3481 0 
L 2906 0 
L 2906 525 
Q 2725 213 2448 61 
Q 2172 -91 1784 -91 
Q 1150 -91 751 415 
Q 353 922 353 1747 
Q 353 2572 751 3078 
Q 1150 3584 1784 3584 
Q 2172 3584 2448 3432 
Q 2725 3281 2906 2969 
z
M 947 1747 
Q 947 1113 1208 752 
Q 1469 391 1925 391 
Q 2381 391 2643 752 
Q 2906 1113 2906 1747 
Q 2906 2381 2643 2742 
Q 2381 3103 1925 3103 
Q 1469 3103 1208 2742 
Q 947 2381 947 1747 
z
" transform="scale(0.015625)"/>
       <path id="DejaVuSans-52" d="M 2841 2188 
Q 3044 2119 3236 1894 
Q 3428 1669 3622 1275 
L 4263 0 
L 3584 0 
L 2988 1197 
Q 2756 1666 2539 1819 
Q 2322 1972 1947 1972 
L 1259 1972 
L 1259 0 
L 628 0 
L 628 4666 
L 2053 4666 
Q 2853 4666 3247 4331 
Q 3641 3997 3641 3322 
Q 3641 2881 3436 2590 
Q 3231 2300 2841 2188 
z
M 1259 4147 
L 1259 2491 
L 2053 2491 
Q 2509 2491 2742 2702 
Q 2975 2913 2975 3322 
Q 2975 3731 2742 3939 
Q 2509 4147 2053 4147 
L 1259 4147 
z
" transform="scale(0.015625)"/>
       <path id="DejaVuSans-4d" d="M 628 4666 
L 1569 4666 
L 2759 1491 
L 3956 4666 
L 4897 4666 
L 4897 0 
L 4281 0 
L 4281 4097 
L 3078 897 
L 2444 897 
L 1241 4097 
L 1241 0 
L 628 0 
L 628 4666 
z
" transform="scale(0.015625)"/>
       <path id="DejaVuSans-53" d="M 3425 4513 
L 3425 3897 
Q 3066 4069 2747 4153 
Q 2428 4238 2131 4238 
Q 1616 4238 1336 4038 
Q 1056 3838 1056 3469 
Q 1056 3159 1242 3001 
Q 1428 2844 1947 2747 
L 2328 2669 
Q 3034 2534 3370 2195 
Q 3706 1856 3706 1288 
Q 3706 609 3251 259 
Q 2797 -91 1919 -91 
Q 1588 -91 1214 -16 
Q 841 59 441 206 
L 441 856 
Q 825 641 1194 531 
Q 1563 422 1919 422 
Q 2459 422 2753 634 
Q 3047 847 3047 1241 
Q 3047 1584 2836 1778 
Q 2625 1972 2144 2069 
L 1759 2144 
Q 1053 2284 737 2584 
Q 422 2884 422 3419 
Q 422 4038 858 4394 
Q 1294 4750 2059 4750 
Q 2388 4750 2728 4690 
Q 3069 4631 3425 4513 
z
" transform="scale(0.015625)"/>
       <path id="DejaVuSans-44" d="M 1259 4147 
L 1259 519 
L 2022 519 
Q 2988 519 3436 956 
Q 3884 1394 3884 2338 
Q 3884 3275 3436 3711 
Q 2988 4147 2022 4147 
L 1259 4147 
z
M 628 4666 
L 1925 4666 
Q 3281 4666 3915 4102 
Q 4550 3538 4550 2338 
Q 4550 1131 3912 565 
Q 3275 0 1925 0 
L 628 0 
L 628 4666 
z
" transform="scale(0.015625)"/>
      </defs>
      <use xlink:href="#DejaVuSans-4c"/>
      <use xlink:href="#DejaVuSans-69" transform="translate(55.712891 0)"/>
      <use xlink:href="#DejaVuSans-67" transform="translate(83.496094 0)"/>
      <use xlink:href="#DejaVuSans-61" transform="translate(146.972656 0)"/>
      <use xlink:href="#DejaVuSans-6e" transform="translate(208.251953 0)"/>
      <use xlink:href="#DejaVuSans-64" transform="translate(271.630859 0)"/>
      <use xlink:href="#DejaVuSans-20" transform="translate(335.107422 0)"/>
      <use xlink:href="#DejaVuSans-52" transform="translate(366.894531 0)"/>
      <use xlink:href="#DejaVuSans-4d" transform="translate(436.376953 0)"/>
      <use xlink:href="#DejaVuSans-53" transform="translate(522.65625 0)"/>
      <use xlink:href="#DejaVuSans-44" transform="translate(586.132812 0)"/>
      <use xlink:href="#DejaVuSans-20" transform="translate(663.134766 0)"/>
      <use xlink:href="#DejaVuSans-28" transform="translate(694.921875 0)"/>
      <use xlink:href="#DejaVuSans-6e" transform="translate(733.935547 0)"/>
      <use xlink:href="#DejaVuSans-6d" transform="translate(797.314453 0)"/>
      <use xlink:href="#DejaVuSans-29" transform="translate(894.726562 0)"/>
     </g>
    </g>
   </g>
   <g id="line2d_12">
    <path d="M 46.079205 126.659425 
L 46.227263 118.920087 
L 46.293066 123.119178 
L 46.342419 121.06281 
L 46.408223 119.577102 
L 46.457575 119.966957 
L 46.490477 120.488465 
L 46.506928 119.162824 
L 46.523379 120.131716 
L 46.53983 118.753073 
L 46.589183 122.161006 
L 46.605634 120.703196 
L 46.737241 124.377176 
L 46.753692 124.22126 
L 46.770143 124.127861 
L 46.934652 121.056684 
L 46.951103 123.111699 
L 47.000455 120.624597 
L 47.033357 121.295448 
L 47.049808 118.158406 
L 47.132063 121.046877 
L 47.148514 121.145469 
L 47.164964 122.217684 
L 47.247219 120.92251 
L 47.26367 121.189751 
L 47.296572 117.730569 
L 47.378826 119.797042 
L 47.411728 120.00558 
L 47.510434 117.115269 
L 47.658492 120.244846 
L 47.674943 119.061808 
L 47.740746 120.467995 
L 47.80655 121.824456 
L 47.839452 121.05855 
L 47.921706 121.78469 
L 47.954608 119.138745 
L 48.053313 121.235474 
L 48.184921 110.991938 
L 48.201372 114.50647 
L 48.300077 112.921566 
L 48.316528 112.964807 
L 48.332979 112.180201 
L 48.382332 113.683682 
L 48.415234 112.774698 
L 48.481037 114.500739 
L 48.513939 112.529598 
L 48.53039 113.036136 
L 48.546841 113.387405 
L 48.579743 112.605444 
L 48.71135 109.480465 
L 48.727801 111.25473 
L 48.793605 112.950007 
L 48.810055 110.240741 
L 48.842957 111.889911 
L 48.859408 112.359529 
L 48.908761 110.847465 
L 48.925212 111.692789 
L 48.974564 109.760855 
L 48.991015 111.910688 
L 49.040368 110.676114 
L 49.056819 110.583125 
L 49.07327 111.255565 
L 49.139074 109.613096 
L 49.171975 111.149899 
L 49.25423 109.972346 
L 49.237779 111.202317 
L 49.270681 110.936552 
L 49.385837 113.031794 
L 49.451641 112.826568 
L 49.599699 109.812853 
L 49.632601 111.343089 
L 49.681954 110.371809 
L 49.714855 108.115181 
L 49.79711 109.455924 
L 49.97807 117.085197 
L 50.010972 117.022111 
L 50.093226 113.963032 
L 50.126128 116.359211 
L 50.142579 116.651634 
L 50.224834 114.544068 
L 50.257735 115.514974 
L 50.290637 113.655318 
L 50.389343 114.18067 
L 50.504499 117.837594 
L 50.52095 117.287404 
L 50.586754 114.420162 
L 50.553851 118.029036 
L 50.619655 115.608337 
L 50.669008 114.667046 
L 50.734812 117.804867 
L 50.800615 116.861971 
L 50.833517 117.358226 
L 50.849968 118.514853 
L 50.866419 115.313772 
L 50.899321 116.211201 
L 50.981576 116.956272 
L 51.014477 114.884802 
L 51.06383 117.312293 
L 51.146084 117.100074 
L 51.24479 114.222415 
L 51.261241 115.709256 
L 51.327044 117.19661 
L 51.359946 115.185652 
L 51.376397 116.07596 
L 51.458652 116.739065 
L 51.508004 113.56418 
L 51.524455 116.653238 
L 51.623161 115.107474 
L 51.639612 114.834742 
L 51.656062 115.585334 
L 51.672513 115.263066 
L 51.688964 116.022743 
L 51.705415 113.395371 
L 51.721866 112.024895 
L 51.754768 116.605403 
L 51.804121 113.649745 
L 51.869924 114.740559 
L 51.902826 113.712047 
L 51.935728 111.958205 
L 52.034433 115.883298 
L 52.050884 114.615274 
L 52.067335 113.539855 
L 52.133139 114.957479 
L 52.166041 114.022622 
L 52.198943 117.000841 
L 52.264746 114.514657 
L 52.314099 113.746502 
L 52.33055 114.869684 
L 52.379903 113.941891 
L 52.478608 117.504893 
L 52.412804 113.574115 
L 52.560863 116.482369 
L 52.610215 114.394509 
L 52.626666 117.056002 
L 52.676019 115.579921 
L 52.692469 115.469713 
L 52.708921 114.290694 
L 52.791176 115.839119 
L 52.856979 114.210337 
L 52.840528 116.22535 
L 52.906331 115.117132 
L 53.07084 118.240219 
L 53.103742 115.820623 
L 53.169546 119.210623 
L 53.251801 116.374139 
L 53.284702 117.027858 
L 53.350506 115.692933 
L 53.416309 121.361431 
L 53.531466 117.998677 
L 53.547917 118.440904 
L 53.630172 118.282487 
L 53.646623 119.851572 
L 53.761779 113.70468 
L 53.811132 114.982004 
L 53.860484 118.039529 
L 53.942739 116.943169 
L 53.95919 117.404835 
L 53.992092 116.308526 
L 54.008542 117.347348 
L 54.041444 113.261812 
L 54.123699 114.952214 
L 54.156601 114.549517 
L 54.189503 116.062216 
L 54.271757 111.715371 
L 54.32111 113.417292 
L 54.386913 112.416601 
L 54.370463 114.114939 
L 54.403365 113.767571 
L 54.419815 115.826154 
L 54.50207 112.353115 
L 54.51852 114.177856 
L 54.551422 110.528232 
L 54.600775 111.431074 
L 54.765284 114.103461 
L 54.781735 114.198536 
L 54.798186 113.352273 
L 54.847539 115.805812 
L 54.86399 117.751618 
L 54.880441 113.784407 
L 54.946244 115.659524 
L 54.962695 113.387523 
L 55.012048 117.325811 
L 55.04495 116.761068 
L 55.143655 109.535005 
L 55.094303 118.258926 
L 55.176557 114.180803 
L 55.193008 114.85455 
L 55.209459 111.660569 
L 55.22591 110.123305 
L 55.242361 115.370947 
L 55.275262 113.012437 
L 55.291714 115.272217 
L 55.357517 111.193413 
L 55.472673 107.65777 
L 55.489124 109.264872 
L 55.505576 109.728348 
L 55.670084 95.305197 
L 55.719437 102.62998 
L 55.78524 97.209167 
L 55.801692 96.395186 
L 55.818142 96.828995 
L 55.916848 66.763062 
L 55.933299 67.650366 
L 56.015554 76.628866 
L 55.9662 67.298559 
L 56.081357 70.381604 
L 56.114259 68.558053 
L 56.130709 71.06259 
L 56.147161 70.443532 
L 56.212964 76.047174 
L 56.262317 75.860075 
L 56.361023 58.993397 
L 56.377473 72.915126 
L 56.426826 61.102182 
L 56.476179 74.3731 
L 56.49263 70.827804 
L 56.50908 73.135316 
L 56.525532 72.863431 
L 56.541982 58.175033 
L 56.640688 67.09708 
L 56.706492 60.869606 
L 56.772295 65.071353 
L 56.838099 70.458203 
L 56.903903 66.96269 
L 56.936804 66.199164 
L 56.969706 68.086344 
L 56.986157 64.609332 
L 57.03551 71.564648 
L 57.068411 69.302971 
L 57.101313 66.248896 
L 57.150666 70.46516 
L 57.265822 79.752482 
L 57.282273 77.008407 
L 57.348077 76.445827 
L 57.380979 77.991806 
L 57.594841 71.48914 
L 57.611291 71.687354 
L 57.627743 69.065299 
L 57.677095 72.722054 
L 57.709997 70.359986 
L 57.75935 74.381451 
L 57.825153 71.240472 
L 57.973212 77.567148 
L 57.989662 74.948117 
L 58.022564 70.414777 
L 58.088368 74.250896 
L 58.104819 74.386803 
L 58.269328 65.708395 
L 58.30223 67.016457 
L 58.318681 68.531878 
L 58.433837 99.98238 
L 58.598346 89.106355 
L 58.6806 65.118711 
L 58.713502 80.273112 
L 58.729953 80.252417 
L 58.746404 82.166762 
L 58.795757 76.927707 
L 58.812208 77.809423 
L 58.828659 71.957312 
L 58.910913 77.273956 
L 58.927364 76.773006 
L 58.993168 86.904206 
L 58.960266 72.981964 
L 59.02607 74.752451 
L 59.058971 76.886941 
L 59.075423 73.249785 
L 59.190579 85.986281 
L 59.20703 82.213387 
L 59.289285 88.714797 
L 59.322186 85.379214 
L 59.371538 86.588305 
L 59.503147 95.469443 
L 59.519596 94.135688 
L 59.536048 91.776706 
L 59.5854 95.255132 
L 59.601851 99.223564 
L 59.618303 94.770412 
L 59.667655 94.793143 
L 59.700557 86.933457 
L 59.717007 51.673438 
L 59.766361 89.495021 
L 59.799262 87.358373 
L 59.815713 88.381153 
L 59.832164 86.398314 
L 59.848616 88.157384 
L 59.865065 61.466723 
L 59.963772 72.518883 
L 60.029575 73.855391 
L 60.013124 72.194692 
L 60.046026 73.162369 
L 60.095379 68.84558 
L 60.161182 72.041022 
L 60.177634 72.257773 
L 60.194085 71.155409 
L 60.210535 70.933004 
L 60.226986 71.782383 
L 60.325692 71.051138 
L 60.342142 75.678117 
L 60.407945 69.647268 
L 60.457299 73.973125 
L 60.506652 80.47959 
L 60.605358 77.117067 
L 60.671161 67.755863 
L 60.736965 72.278632 
L 60.819218 73.819798 
L 60.786317 70.431705 
L 60.835669 72.608062 
L 61.01663 63.773272 
L 61.082434 76.821625 
L 61.148237 68.255875 
L 61.164687 68.923476 
L 61.296294 60.079309 
L 61.312746 60.701946 
L 61.329197 58.540476 
L 61.345648 55.192122 
L 61.427903 59.929976 
L 61.477255 57.640576 
L 61.493707 58.197656 
L 61.641763 101.955453 
L 61.724018 96.853694 
L 61.756921 92.687387 
L 61.806273 100.79067 
L 61.822724 97.596289 
L 61.954332 88.571739 
L 61.970783 57.604378 
L 62.003684 88.801475 
L 62.069487 59.170315 
L 62.085939 60.149757 
L 62.11884 57.846976 
L 62.217546 87.845784 
L 62.233997 86.996656 
L 62.250448 87.172734 
L 62.266898 59.181234 
L 62.365604 63.759897 
L 62.398505 64.235502 
L 62.414957 60.796416 
L 62.497211 93.104853 
L 62.530112 88.099194 
L 62.546564 89.653515 
L 62.64527 59.010483 
L 62.595917 96.110048 
L 62.661721 60.495909 
L 62.694622 55.384671 
L 62.727525 58.663023 
L 62.743974 92.662267 
L 62.84268 91.52306 
L 62.859132 92.325081 
L 62.875581 87.578994 
L 62.941387 92.890773 
L 62.957836 92.155181 
L 62.974288 92.530959 
L 63.00719 91.192343 
L 63.105895 82.814749 
L 63.138797 87.848968 
L 63.155247 90.260254 
L 63.237502 86.17495 
L 63.402012 99.195461 
L 63.434913 97.483651 
L 63.533619 95.563462 
L 63.632323 104.130519 
L 63.681677 100.143668 
L 63.731029 100.578308 
L 63.796833 95.712503 
L 63.829736 101.617555 
L 63.895539 94.427982 
L 63.911989 97.436339 
L 63.92844 101.11706 
L 63.994244 95.981272 
L 64.027146 99.021901 
L 64.060047 95.149164 
L 64.076499 98.395204 
L 64.109401 101.740287 
L 64.175205 96.24736 
L 64.273909 91.211188 
L 64.290361 95.04967 
L 64.323262 96.923767 
L 64.356164 92.91154 
L 64.372615 93.048057 
L 64.537124 79.11667 
L 64.438419 94.293433 
L 64.553575 84.160162 
L 64.586478 87.826345 
L 64.652281 83.831634 
L 64.668731 79.791853 
L 64.718085 86.256496 
L 64.750986 85.804867 
L 64.767437 86.559996 
L 64.800338 83.796021 
L 64.83324 84.788612 
L 64.915495 78.086881 
L 64.931947 81.194569 
L 64.964848 85.005148 
L 65.0142 80.250413 
L 65.030651 78.565629 
L 65.063554 83.328587 
L 65.096455 79.510016 
L 65.195161 83.526278 
L 65.145807 77.983486 
L 65.211611 83.014742 
L 65.228062 82.870678 
L 65.425472 91.560257 
L 65.277416 80.173798 
L 65.441924 90.062994 
L 65.458375 86.89039 
L 65.507727 97.481416 
L 65.622883 105.359552 
L 65.639334 101.456431 
L 65.655786 102.581099 
L 65.672237 98.56411 
L 65.705138 100.036064 
L 65.721589 98.099014 
L 65.770942 104.656097 
L 65.886099 114.753678 
L 65.935451 113.453249 
L 66.050607 103.397433 
L 66.099961 106.626664 
L 66.182214 112.756212 
L 66.132862 106.596028 
L 66.231568 111.020175 
L 66.313822 107.620803 
L 66.330273 109.412934 
L 66.346724 110.855196 
L 66.412528 108.169496 
L 66.428979 108.505703 
L 66.544135 111.524345 
L 66.46188 107.97929 
L 66.577037 110.9843 
L 66.62639 106.050683 
L 66.708644 107.918849 
L 66.725094 108.105831 
L 66.741545 106.277615 
L 66.790898 109.28546 
L 66.8238 108.307387 
L 66.889604 114.244453 
L 66.955407 111.7723 
L 67.037662 106.145973 
L 67.087015 107.395829 
L 67.103466 107.616717 
L 67.169269 113.273249 
L 67.202171 108.653955 
L 67.333779 103.854107 
L 67.350229 105.977846 
L 67.416033 114.571781 
L 67.465386 108.401221 
L 67.481836 108.515172 
L 67.596993 103.496066 
L 67.54764 109.617699 
L 67.613443 104.87983 
L 67.662797 109.223794 
L 67.712149 105.539874 
L 67.728601 103.933336 
L 67.761502 106.845957 
L 67.810855 106.116834 
L 67.942463 110.069169 
L 67.843756 105.96866 
L 67.975364 108.864354 
L 68.024717 102.727459 
L 68.106971 103.644543 
L 68.123422 103.664731 
L 68.222128 97.033719 
L 68.238578 102.370551 
L 68.255029 102.312259 
L 68.27148 103.770382 
L 68.287932 101.700516 
L 68.403087 95.391501 
L 68.501794 99.346035 
L 68.468891 94.948018 
L 68.534695 97.502747 
L 68.551146 94.263438 
L 68.600498 102.037881 
L 68.61695 101.084123 
L 68.715654 104.50013 
L 68.666302 100.201802 
L 68.732105 103.644205 
L 68.748557 102.862818 
L 68.781458 104.656148 
L 68.797909 104.437834 
L 68.929516 111.565079 
L 68.97887 109.968425 
L 69.044674 105.606031 
L 69.110477 107.844813 
L 69.274985 116.755444 
L 69.35724 116.718539 
L 69.390143 117.811572 
L 69.488847 113.411509 
L 69.554651 110.263579 
L 69.587553 113.501222 
L 69.604005 111.885528 
L 69.735612 115.508997 
L 69.801415 113.162513 
L 69.850768 114.265764 
L 69.933023 115.999264 
L 69.949472 114.890518 
L 70.048178 109.953204 
L 70.113982 111.55883 
L 70.245589 115.646882 
L 70.344295 112.168625 
L 70.393647 112.956051 
L 70.443 111.619209 
L 70.459451 113.564867 
L 70.475902 113.684251 
L 70.492354 113.089851 
L 70.541706 115.073039 
L 70.607509 111.236024 
L 70.722665 114.219282 
L 70.755568 113.717163 
L 70.854272 112.561961 
L 70.821371 115.081262 
L 70.870724 112.747815 
L 70.903626 114.665554 
L 70.936527 111.633235 
L 70.952979 112.446094 
L 70.96943 111.512554 
L 71.051683 112.694997 
L 71.117487 112.580381 
L 71.166841 114.185084 
L 71.298448 108.491103 
L 71.314899 108.404774 
L 71.430055 111.252449 
L 71.479407 111.062729 
L 71.578113 108.023413 
L 71.545211 111.113932 
L 71.611014 109.069319 
L 71.627466 110.740133 
L 71.676818 107.637331 
L 71.693269 107.70338 
L 71.759073 108.347773 
L 71.775524 105.554818 
L 71.808425 110.208209 
L 71.907131 109.863307 
L 71.923582 109.415666 
L 71.956483 111.215846 
L 71.972935 110.915585 
L 71.989386 111.907833 
L 72.022287 110.880039 
L 72.071641 111.406155 
L 72.186797 106.818685 
L 72.285501 109.445 
L 72.301952 109.000261 
L 72.417108 107.00195 
L 72.43356 108.912327 
L 72.499365 104.40504 
L 72.515816 106.005073 
L 72.532264 104.970353 
L 72.581618 107.437312 
L 72.630972 105.520373 
L 72.746128 107.039214 
L 72.795482 106.109862 
L 72.844832 106.404463 
L 72.959988 109.084104 
L 72.97644 108.688702 
L 73.075144 104.781628 
L 73.091595 107.053947 
L 73.223202 109.20398 
L 73.32191 109.279898 
L 73.338361 107.350332 
L 73.371261 108.33426 
L 73.420615 106.500312 
L 73.469969 108.123414 
L 73.453517 106.194474 
L 73.519319 106.991266 
L 73.535771 103.582329 
L 73.568673 108.348542 
L 73.618027 107.059043 
L 73.683829 108.293628 
L 73.70028 106.960508 
L 73.716732 107.938996 
L 73.815436 106.816972 
L 73.782534 108.539686 
L 73.831887 107.452564 
L 73.848339 108.055176 
L 73.881241 107.134161 
L 73.897693 107.979085 
L 73.914141 106.287099 
L 73.996397 108.558464 
L 74.0293 108.753766 
L 74.128004 106.195346 
L 74.24316 108.393742 
L 74.325413 107.091211 
L 74.308965 108.80948 
L 74.358316 107.519136 
L 74.374767 107.66812 
L 74.473472 106.381425 
L 74.440572 107.882995 
L 74.489923 106.659006 
L 74.588628 107.870948 
L 74.703787 105.860451 
L 74.753137 107.449083 
L 74.818943 106.629048 
L 74.835394 105.393643 
L 74.901196 106.906429 
L 74.917647 106.696891 
L 74.95055 106.61292 
L 75.016352 107.668161 
L 75.032803 105.573124 
L 75.049254 107.992977 
L 75.131511 106.727244 
L 75.180861 105.356076 
L 75.263118 107.654791 
L 75.32892 108.690245 
L 75.394725 104.217889 
L 75.526332 107.992167 
L 75.542783 104.46446 
L 75.641488 106.176024 
L 75.657939 106.047997 
L 75.740193 105.49289 
L 75.773095 107.689451 
L 75.805998 105.211044 
L 75.8718 107.144916 
L 75.888251 107.550807 
L 76.052761 98.814875 
L 76.085663 96.688582 
L 76.102111 94.33527 
L 76.118563 53.363312 
L 76.200819 99.533335 
L 76.381777 111.125036 
L 76.529835 103.422727 
L 76.431131 113.122881 
L 76.546287 107.779354 
L 76.562738 107.608674 
L 76.579189 108.427545 
L 76.612092 108.159884 
L 76.727248 113.778926 
L 76.776602 107.595053 
L 76.842404 112.306506 
L 76.858855 112.426598 
L 76.941108 113.614901 
L 76.974011 110.464331 
L 77.006913 112.561664 
L 77.056267 109.052443 
L 77.072715 109.529027 
L 77.089166 109.768391 
L 77.105618 107.808451 
L 77.171423 111.274016 
L 77.187874 111.523278 
L 77.204322 110.737621 
L 77.220774 110.882304 
L 77.368832 101.108274 
L 77.46754 58.249443 
L 77.549793 102.905757 
L 77.51689 56.333103 
L 77.582696 99.744892 
L 77.599147 100.059794 
L 77.697851 106.262897 
L 77.730754 105.788296 
L 77.829458 68.423715 
L 77.862361 100.1703 
L 77.895261 98.703697 
L 77.911712 99.633382 
L 77.928163 68.017722 
L 78.01042 100.771938 
L 78.026868 97.13146 
L 78.076222 103.480984 
L 78.125575 109.763013 
L 78.174926 105.127442 
L 78.273634 99.882168 
L 78.372338 66.237602 
L 78.471043 101.221378 
L 78.487494 98.422302 
L 78.635553 103.542271 
L 78.652004 103.173767 
L 78.76716 94.838209 
L 78.783611 96.404326 
L 78.800062 98.673564 
L 78.816514 94.797752 
L 78.832965 54.688378 
L 78.931669 56.201995 
L 78.948121 56.760392 
L 79.030374 98.902244 
L 79.063277 97.732458 
L 79.079728 97.395477 
L 79.161981 54.570039 
L 79.194884 86.750603 
L 79.227786 88.951644 
L 79.326491 36.111274 
L 79.342942 49.066244 
L 79.458098 43.810477 
L 79.474549 45.116303 
L 79.491001 35.132883 
L 79.540351 47.966362 
L 79.556803 44.728058 
L 79.622608 85.632998 
L 79.65551 37.976031 
L 79.836468 56.680886 
L 79.852919 57.099957 
L 79.885822 61.215984 
L 79.968075 58.120918 
L 80.017429 54.870444 
L 80.050332 58.223277 
L 80.083231 56.270725 
L 80.132585 55.919666 
L 80.181939 58.804923 
L 80.19839 56.530215 
L 80.247741 65.026071 
L 80.264192 67.973168 
L 80.362897 66.107821 
L 80.379348 66.34292 
L 80.428702 68.900064 
L 80.461604 67.468788 
L 80.478056 63.926906 
L 80.560309 68.851157 
L 80.823523 81.151579 
L 80.872877 78.936999 
L 80.905777 75.376303 
L 80.988033 77.563047 
L 81.020936 76.064927 
L 81.053835 78.917487 
L 81.070286 78.112027 
L 81.136091 82.4428 
L 81.218345 82.362161 
L 81.349952 73.499032 
L 81.366403 74.443466 
L 81.415757 71.279889 
L 81.432208 71.187978 
L 81.547364 81.557941 
L 81.613166 77.862364 
L 81.646069 72.0233 
L 81.728322 76.226359 
L 81.810578 82.181542 
L 81.777676 74.809206 
L 81.843481 79.738005 
L 81.958637 68.017865 
L 82.057341 73.326604 
L 82.172497 81.403169 
L 82.188949 80.166934 
L 82.271205 80.14977 
L 82.287653 86.315024 
L 82.402812 96.707944 
L 82.485065 96.379401 
L 82.501517 91.27838 
L 82.600221 93.852795 
L 82.633124 91.30329 
L 82.731828 96.407274 
L 82.896338 86.103272 
L 82.962143 91.237748 
L 82.978591 87.387727 
L 83.027945 79.182411 
L 83.12665 80.562469 
L 83.176004 83.785568 
L 83.225357 79.980552 
L 83.241806 76.949914 
L 83.307611 80.795614 
L 83.324062 78.798185 
L 83.356965 83.494689 
L 83.439218 81.325529 
L 83.505023 89.169025 
L 83.570825 75.927969 
L 83.587276 77.128678 
L 83.603728 88.394451 
L 83.620179 74.615483 
L 83.653078 86.198137 
L 83.702432 88.20991 
L 83.768237 40.075364 
L 83.784689 40.908754 
L 83.801137 38.843209 
L 83.866942 37.536455 
L 83.932744 86.222441 
L 83.949195 85.315005 
L 83.965646 86.321171 
L 84.047903 94.579063 
L 84.097254 51.41645 
L 84.163059 55.696113 
L 84.278215 51.276739 
L 84.409822 57.833545 
L 84.442724 56.331509 
L 84.524977 48.536806 
L 84.574331 48.562039 
L 84.656585 54.674993 
L 84.607234 46.426903 
L 84.705938 50.256649 
L 84.755289 41.111725 
L 84.821094 44.867507 
L 84.903348 49.689168 
L 84.870448 43.209115 
L 84.952702 49.42469 
L 85.002055 41.42757 
L 85.034955 52.87062 
L 85.051406 53.220084 
L 85.067857 50.405249 
L 85.084309 94.839993 
L 85.117211 48.600195 
L 85.166562 52.751979 
L 85.183013 52.523068 
L 85.215916 47.626146 
L 85.281721 97.066939 
L 85.331072 97.019314 
L 85.413328 95.627578 
L 85.47913 50.144155 
L 85.528484 53.02347 
L 85.577835 57.184159 
L 85.610737 52.134433 
L 85.660091 48.459033 
L 85.692994 53.376769 
L 85.841052 63.304234 
L 85.725893 53.226287 
L 85.8575 59.802815 
L 85.956208 54.735593 
L 85.972659 57.121621 
L 86.071364 61.940637 
L 86.087815 60.12067 
L 86.18652 52.425379 
L 86.219422 52.910094 
L 86.235874 53.061488 
L 86.252325 52.469897 
L 86.40038 43.866257 
L 86.285224 54.019921 
L 86.433283 44.939764 
L 86.499088 42.070558 
L 86.581341 56.811128 
L 86.663597 56.470712 
L 86.729399 62.7906 
L 86.861007 45.511449 
L 86.943263 48.626406 
L 87.091318 54.723243 
L 87.173575 41.814554 
L 87.239377 89.292403 
L 87.272279 87.311179 
L 87.28873 46.70005 
L 87.338084 95.320515 
L 87.370984 92.557303 
L 87.387435 93.6689 
L 87.436789 90.469264 
L 87.486143 80.971492 
L 87.551945 87.797816 
L 87.568396 87.898899 
L 87.667101 94.570158 
L 87.61775 87.640301 
L 87.732906 92.909654 
L 87.749357 93.1185 
L 87.782257 96.885027 
L 87.83161 89.244128 
L 87.848062 86.010401 
L 87.880964 90.592053 
L 87.930315 89.8751 
L 87.979669 87.497386 
L 87.99612 87.960093 
L 88.012571 85.896589 
L 88.094825 89.092652 
L 88.111276 87.352641 
L 88.177081 82.691099 
L 88.209981 79.725937 
L 88.242883 84.603604 
L 88.259334 87.903456 
L 88.308688 80.450226 
L 88.325136 80.664567 
L 88.423844 76.625929 
L 88.407393 81.359799 
L 88.456747 79.3204 
L 88.473195 81.265657 
L 88.539 77.056267 
L 88.555451 80.646004 
L 88.571902 78.801348 
L 88.637704 81.123937 
L 88.654156 79.464791 
L 88.736409 90.199332 
L 88.818665 88.307548 
L 89.032526 76.467506 
L 89.065429 78.641593 
L 89.131234 75.546911 
L 89.164133 65.596485 
L 89.213487 77.518236 
L 89.24639 69.593117 
L 89.312192 63.431518 
L 89.377997 66.459556 
L 89.394448 67.467932 
L 89.427347 65.292133 
L 89.443799 65.538484 
L 89.46025 64.136849 
L 89.509604 68.081346 
L 89.608308 70.678758 
L 89.558954 66.961983 
L 89.62476 69.833337 
L 89.690565 67.255579 
L 89.772818 57.905397 
L 89.83862 61.959041 
L 89.920876 63.600234 
L 89.937328 58.625544 
L 89.97023 108.0679 
L 90.036032 54.087206 
L 90.052484 104.626743 
L 90.085386 108.525865 
L 90.134737 103.714586 
L 90.151188 103.470541 
L 90.167639 104.088549 
L 90.299247 110.967301 
L 90.348601 110.726661 
L 90.414402 106.425774 
L 90.480208 108.300599 
L 90.496659 111.390386 
L 90.51311 110.561154 
L 90.562461 54.783443 
L 90.628266 60.453447 
L 90.677617 53.917639 
L 90.694068 102.120755 
L 90.743422 48.213759 
L 90.776324 54.511398 
L 90.792776 54.68278 
L 90.809224 50.876302 
L 90.842126 52.045848 
L 90.924383 102.80778 
L 90.875029 51.763074 
L 90.957282 101.220661 
L 90.990185 50.494988 
L 91.05599 53.975921 
L 91.171146 109.421736 
L 91.187597 55.399969 
L 91.286302 60.057025 
L 91.302753 62.033759 
L 91.319204 59.203934 
L 91.401457 60.788004 
L 91.417909 59.643998 
L 91.450811 62.759621 
L 91.500162 60.525725 
L 91.582419 68.045845 
L 91.681123 67.751419 
L 91.746928 65.747602 
L 91.714026 68.02352 
L 91.763376 66.798342 
L 91.862084 70.435299 
L 91.894984 69.376689 
L 91.927886 66.5856 
L 91.993691 69.613264 
L 92.010143 69.506147 
L 92.092396 62.5309 
L 92.14175 65.277405 
L 92.240454 71.261573 
L 92.273357 70.656269 
L 92.421415 59.834737 
L 92.470766 61.237269 
L 92.503668 58.309079 
L 92.52012 58.962833 
L 92.585922 56.687658 
L 92.553022 60.989001 
L 92.618824 58.756227 
L 92.701081 70.354931 
L 92.750431 64.546769 
L 92.865587 60.046495 
L 92.964295 63.432215 
L 92.931392 59.484284 
L 92.980746 62.263803 
L 93.013646 59.614208 
L 93.128805 65.311475 
L 93.194607 72.068007 
L 93.243961 70.432715 
L 93.359116 77.687301 
L 93.375568 77.565897 
L 93.408467 79.827179 
L 93.474272 78.658597 
L 93.540077 73.556653 
L 93.572977 77.511895 
L 93.589428 78.186421 
L 93.622331 76.430458 
L 93.638782 76.882876 
L 93.78684 66.070188 
L 93.803292 69.283398 
L 93.81974 69.767554 
L 93.836191 69.408678 
L 93.852642 66.525052 
L 93.869094 76.455228 
L 93.901996 73.695334 
L 93.967798 82.575324 
L 94.033603 81.792527 
L 94.082957 87.920738 
L 94.428425 75.737235 
L 94.592935 85.491216 
L 94.609386 84.835324 
L 94.70809 72.029308 
L 94.757444 72.119503 
L 94.790344 84.406754 
L 94.8726 81.828074 
L 94.889051 81.623867 
L 94.938402 87.593297 
L 95.004207 83.547127 
L 95.020658 74.448515 
L 95.102912 89.129793 
L 95.234519 80.631368 
L 95.300324 81.145873 
L 95.316775 81.310893 
L 95.349675 79.830127 
L 95.366126 83.828 
L 95.399029 82.840837 
L 95.431931 88.119162 
L 95.481282 91.943782 
L 95.547087 89.983739 
L 95.728048 77.726154 
L 95.777399 80.222438 
L 95.79385 77.093352 
L 95.876107 58.05126 
L 95.909006 67.175099 
L 95.925457 67.067065 
L 95.974811 71.807528 
L 96.007714 66.333887 
L 96.057064 71.748461 
L 96.073516 67.70849 
L 96.122869 78.222711 
L 96.238025 86.927131 
L 96.303827 82.667179 
L 96.33673 80.312868 
L 96.353181 83.316699 
L 96.386084 82.498325 
L 96.402535 84.347539 
L 96.451886 81.30549 
L 96.484788 82.589488 
L 96.50124 82.927346 
L 96.567042 84.510969 
L 96.632847 79.385239 
L 96.7151 83.594265 
L 96.764454 79.924028 
L 96.780905 79.551971 
L 96.846707 64.849645 
L 96.87961 82.71181 
L 96.978314 61.938679 
L 97.044119 74.255484 
L 97.060571 74.78282 
L 97.077022 73.260145 
L 97.093473 71.476129 
L 97.126373 78.623953 
L 97.142824 76.394516 
L 97.159275 77.097217 
L 97.192178 73.787235 
L 97.340236 78.895044 
L 97.406038 81.060948 
L 97.373139 78.243684 
L 97.471843 80.682397 
L 97.521197 73.751038 
L 97.586999 77.686789 
L 97.603451 77.512756 
L 97.685704 82.814518 
L 97.718606 78.603042 
L 97.751509 79.626715 
L 97.784412 76.567667 
L 97.899567 66.243933 
L 97.817311 77.127991 
L 97.916019 66.575055 
L 97.93247 74.885862 
L 98.031174 70.546481 
L 98.162782 76.161222 
L 98.179233 73.651682 
L 98.261486 77.175103 
L 98.294389 78.505368 
L 98.327291 80.934853 
L 98.343743 78.418275 
L 98.393093 79.727388 
L 98.508249 76.504545 
L 98.524701 79.010625 
L 98.590506 72.442642 
L 98.623408 70.166104 
L 98.639856 75.570985 
L 98.820817 87.567705 
L 98.837265 87.353841 
L 98.85372 89.212621 
L 98.903071 84.734446 
L 98.919525 85.977689 
L 99.051129 82.772471 
L 98.968876 86.740447 
L 99.067583 84.239253 
L 99.084032 86.444149 
L 99.100486 82.159395 
L 99.166285 82.652461 
L 99.199187 87.393437 
L 99.281441 84.484163 
L 99.314343 85.264484 
L 99.396597 81.841464 
L 99.413051 85.514731 
L 99.429499 84.000986 
L 99.445954 85.047492 
L 99.462402 81.244014 
L 99.561109 73.228628 
L 99.511759 82.140156 
L 99.577558 77.674547 
L 99.626915 80.471029 
L 99.61046 73.52936 
L 99.659811 74.595162 
L 99.676265 72.744667 
L 99.692714 81.018819 
L 99.725616 76.750434 
L 99.807869 80.598995 
L 99.840772 78.342557 
L 99.857226 77.461538 
L 99.906577 79.862454 
L 99.923032 79.929539 
L 99.93948 77.743718 
L 100.005285 81.073375 
L 100.021733 80.600461 
L 100.071084 87.140904 
L 100.153343 85.646127 
L 100.383655 94.57224 
L 100.630415 84.289343 
L 100.646869 84.651213 
L 100.69622 86.549164 
L 100.729122 83.045828 
L 101.239103 45.791189 
L 100.762025 83.06535 
L 101.304902 49.167855 
L 101.337804 49.710684 
L 101.387161 45.139741 
L 101.45296 94.577007 
L 101.502317 93.646061 
L 101.53522 91.734941 
L 101.551668 93.751061 
L 101.601019 100.550774 
L 101.683278 98.267653 
L 101.699726 101.080581 
L 101.749077 97.20525 
L 101.765531 97.69972 
L 101.847785 75.630882 
L 101.91359 87.56566 
L 102.028746 92.167094 
L 102.045194 89.785126 
L 102.143901 95.472837 
L 102.16035 91.174739 
L 102.176804 89.402068 
L 102.226155 93.725726 
L 102.242609 93.47147 
L 102.259057 93.196914 
L 102.341311 92.146537 
L 102.407116 99.202997 
L 102.423564 98.177817 
L 102.456467 101.305298 
L 102.489369 100.16566 
L 102.620979 111.504064 
L 102.653882 109.96478 
L 102.719681 102.340541 
L 102.785486 107.099578 
L 102.867739 108.357159 
L 102.834837 106.954981 
L 102.884194 107.763815 
L 102.966447 99.86216 
L 103.015798 101.711045 
L 103.147408 112.499209 
L 103.163856 110.002305 
L 103.196759 116.092385 
L 103.246109 112.903141 
L 103.295466 110.297491 
L 103.37772 111.084896 
L 103.476427 116.253786 
L 103.591583 115.617011 
L 103.706739 112.491329 
L 103.640934 117.04316 
L 103.723187 113.428083 
L 103.739642 114.506891 
L 103.75609 111.613447 
L 103.838343 113.693233 
L 103.854797 113.620232 
L 103.969953 116.393179 
L 103.986401 115.600155 
L 104.019304 116.041582 
L 104.068655 115.399076 
L 104.085109 115.54806 
L 104.13446 115.777079 
L 104.183817 114.559109 
L 104.315421 117.279535 
L 104.26607 113.437131 
L 104.331869 117.088462 
L 104.348323 117.237314 
L 104.364772 117.025756 
L 104.414129 115.668501 
L 104.463479 116.499132 
L 104.479927 117.420876 
L 104.51283 115.617877 
L 104.562187 116.134504 
L 104.595089 117.67912 
L 104.677343 117.039197 
L 104.759596 116.34598 
L 104.710245 117.115325 
L 104.776044 116.661199 
L 104.8912 117.859592 
L 105.105064 110.905476 
L 105.170869 111.509698 
L 105.187317 113.533616 
L 105.236674 109.528627 
L 105.269577 110.260462 
L 105.35183 107.65715 
L 105.335375 110.422263 
L 105.368278 108.87616 
L 105.417635 110.685782 
L 105.466986 108.446401 
L 105.483434 107.727556 
L 105.516336 109.027985 
L 105.532791 108.935755 
L 105.549239 111.079385 
L 105.615044 110.169191 
L 105.631492 107.051866 
L 105.680849 111.682557 
L 105.697297 111.405145 
L 105.861804 117.413356 
L 105.878258 116.692199 
L 105.927609 117.026402 
L 106.009862 114.639655 
L 106.092122 111.990492 
L 106.141473 112.853763 
L 106.174375 113.784929 
L 106.207278 115.894079 
L 106.273077 113.952733 
L 106.289531 113.194487 
L 106.305979 115.813748 
L 106.338882 115.484995 
L 106.355336 115.717879 
L 106.371784 114.871196 
L 106.421135 111.663517 
L 106.519843 112.511322 
L 106.61855 114.5486 
L 106.634999 114.487738 
L 106.684349 115.015121 
L 106.750154 111.961389 
L 106.81596 115.872169 
L 106.86531 115.094047 
L 106.980466 111.38812 
L 107.095622 115.481047 
L 107.227232 109.752602 
L 107.24368 111.769839 
L 107.32594 115.890475 
L 107.408193 115.148987 
L 107.457544 114.109074 
L 107.473998 115.584894 
L 107.490446 115.357311 
L 107.506895 116.187963 
L 107.523349 114.677191 
L 107.589154 115.04488 
L 107.605602 112.604818 
L 107.671407 115.187918 
L 107.70431 113.142084 
L 107.737213 115.276169 
L 107.770109 112.481507 
L 107.819466 114.466623 
L 107.835914 114.721919 
L 107.852369 113.642743 
L 107.918167 111.536499 
L 107.967524 113.243203 
L 107.983973 113.36489 
L 108.049778 110.776136 
L 108.099128 112.167297 
L 108.230739 116.951961 
L 108.181382 111.732422 
L 108.263641 115.729075 
L 108.280089 115.727567 
L 108.46105 107.163033 
L 108.477498 107.970923 
L 108.510401 109.474292 
L 108.559758 109.233114 
L 108.592654 110.417336 
L 108.674914 110.588011 
L 108.724265 106.71084 
L 108.822972 110.754082 
L 108.83942 109.121793 
L 108.987479 100.873375 
L 109.053284 102.249398 
L 109.03683 100.742487 
L 109.069732 101.281168 
L 109.201342 95.652247 
L 109.135537 103.458843 
L 109.217791 97.583602 
L 109.300044 108.558136 
L 109.365849 105.433926 
L 109.431654 100.075891 
L 109.481005 104.01358 
L 109.612615 107.970211 
L 109.727771 104.191811 
L 109.777122 108.45165 
L 109.842927 108.084197 
L 109.875829 103.166841 
L 109.958083 106.027101 
L 109.974531 107.799111 
L 110.040336 103.715201 
L 110.073239 103.716159 
L 110.139044 106.4029 
L 110.106141 102.582048 
L 110.155492 104.8488 
L 110.204849 97.03677 
L 110.270648 100.117215 
L 110.402258 104.211655 
L 110.517414 98.136754 
L 110.451609 105.34997 
L 110.533862 99.669088 
L 110.550316 102.375801 
L 110.616122 95.701614 
L 110.649018 99.633054 
L 110.698375 95.162575 
L 110.731277 97.492741 
L 110.879336 88.694548 
L 111.01094 91.262201 
L 111.126096 97.281885 
L 111.14255 96.598792 
L 111.224803 91.452725 
L 111.257706 94.095481 
L 111.372862 100.856535 
L 111.422212 99.790882 
L 111.586725 85.054541 
L 111.685427 87.801174 
L 111.619622 84.768696 
L 111.701881 85.539712 
L 111.866388 68.03285 
L 111.882836 68.905662 
L 112.014446 87.736775 
L 112.063797 83.588334 
L 112.162505 75.756259 
L 112.244758 41.872416 
L 112.261212 43.827789 
L 112.343466 81.303675 
L 112.376368 79.413383 
L 112.425719 76.124983 
L 112.47507 79.329028 
L 112.491524 79.820371 
L 112.507972 76.821789 
L 112.557329 84.056352 
L 112.590225 80.489176 
L 112.688933 91.795048 
L 112.754738 87.303771 
L 112.85344 83.430101 
L 112.886342 89.722496 
L 112.952147 87.334694 
L 113.001498 81.800212 
L 113.034401 89.890392 
L 113.100206 87.073845 
L 113.198914 94.074739 
L 113.231816 92.586324 
L 113.396323 83.385327 
L 113.412771 82.715388 
L 113.462128 85.220238 
L 113.478576 86.018757 
L 113.511479 82.900704 
L 113.544381 84.681162 
L 113.593732 78.16425 
L 113.610186 42.60884 
L 113.643089 79.017761 
L 113.708888 43.189568 
L 113.791147 82.406521 
L 113.824044 77.844688 
L 113.873401 77.35071 
L 113.856946 78.074809 
L 113.889849 77.593585 
L 113.906303 79.852391 
L 113.955654 74.994414 
L 114.037907 42.880208 
L 114.005005 82.066981 
L 114.07081 47.41121 
L 114.087258 80.563018 
L 114.103712 46.481935 
L 114.185965 75.496016 
L 114.20242 73.682938 
L 114.251771 75.529732 
L 114.284673 75.42402 
L 114.301121 75.193515 
L 114.334024 78.382661 
L 114.399829 76.709459 
L 114.432732 71.964864 
L 114.514985 74.577143 
L 114.58079 83.111826 
L 114.646589 80.822948 
L 114.679492 75.213928 
L 114.728849 81.038587 
L 114.778199 76.487827 
L 114.811102 73.337934 
L 114.82755 84.663871 
L 114.844004 72.390327 
L 114.909803 74.19977 
L 114.926258 75.397183 
L 114.975608 92.224567 
L 115.057862 90.84779 
L 115.090764 95.592185 
L 115.173024 92.846619 
L 115.20592 92.994614 
L 115.271725 92.371603 
L 115.33753 95.774164 
L 115.370433 96.966014 
L 115.502037 99.095634 
L 115.518491 96.764361 
L 115.617193 98.427536 
L 115.633647 99.803616 
L 115.682998 98.425532 
L 115.732349 99.056309 
L 115.798154 96.07708 
L 115.847511 97.793903 
L 115.962667 100.130211 
L 116.012017 100.794541 
L 116.094271 98.260445 
L 116.110725 98.233685 
L 116.29168 103.580232 
L 116.42329 96.398138 
L 116.439738 97.225151 
L 116.456193 97.828732 
L 116.489095 96.189405 
L 116.505543 97.369824 
L 116.719407 82.685932 
L 116.735855 82.691402 
L 116.785212 84.527169 
L 116.818115 82.562031 
L 116.851011 84.333164 
L 116.883913 83.479776 
L 116.900368 84.102977 
L 116.916816 86.27937 
L 116.966167 82.977918 
L 116.982621 76.79303 
L 117.048426 86.297477 
L 117.064874 86.093224 
L 117.081329 82.172155 
L 117.147128 86.580912 
L 117.262284 94.753792 
L 117.278738 94.052393 
L 117.360991 90.616157 
L 117.311641 94.908616 
L 117.393894 93.619291 
L 117.443245 96.413554 
L 117.492602 93.096948 
L 117.50905 94.242456 
L 117.607757 98.368111 
L 117.657108 97.636558 
L 117.821615 91.309841 
L 117.854517 93.022302 
L 117.903874 89.41025 
L 117.986127 84.230625 
L 118.01903 85.859366 
L 118.068381 90.865287 
L 118.134186 88.407949 
L 118.282244 77.661874 
L 118.430303 90.461405 
L 118.446751 90.303198 
L 118.545459 83.274498 
L 118.578361 83.298936 
L 118.709965 89.693685 
L 118.808673 94.082578 
L 118.841576 91.247596 
L 118.989634 80.348922 
L 119.203491 72.933319 
L 119.219946 71.870727 
L 119.269296 73.459179 
L 119.302199 72.629563 
L 119.318647 72.823675 
L 119.335101 72.038956 
L 119.450257 68.718562 
L 119.417355 72.183855 
L 119.48316 69.9026 
L 119.548965 73.831682 
L 119.565413 70.88742 
L 119.581861 67.003958 
L 119.598316 84.237161 
L 119.614764 84.115157 
L 119.86153 55.6575 
L 119.960238 80.622669 
L 119.993134 77.434188 
L 120.009588 81.724228 
L 120.042491 79.926042 
L 120.108296 54.402687 
L 120.157647 68.722079 
L 120.174095 68.713943 
L 120.190549 72.316983 
L 120.223452 55.391505 
L 120.2399 69.67533 
L 120.256355 56.343982 
L 120.355056 65.581382 
L 120.37151 66.463093 
L 120.387959 64.882305 
L 120.486666 60.284336 
L 120.536017 76.111931 
L 120.56892 70.50085 
L 120.601822 53.399981 
L 120.684075 54.809495 
L 120.700523 56.3366 
L 120.766329 54.397683 
L 120.782783 55.546205 
L 120.815679 54.707818 
L 120.94729 61.177951 
L 120.963738 63.144535 
L 120.980192 59.676653 
L 121.029543 61.113727 
L 121.045997 55.069775 
L 121.111796 70.822263 
L 121.128251 61.0962 
L 121.144699 62.261439 
L 121.161153 73.254927 
L 121.210504 58.784402 
L 121.259855 71.768818 
L 121.292757 68.486642 
L 121.358562 71.181098 
L 121.407913 78.354866 
L 121.473718 72.579047 
L 121.490173 72.42675 
L 121.588874 81.472027 
L 121.654679 79.635399 
L 121.769835 66.679219 
L 121.786283 72.448979 
L 121.802738 72.135359 
L 121.819186 67.795614 
L 121.917893 68.510747 
L 122.000147 62.526066 
L 121.950796 68.786257 
L 122.115303 64.119522 
L 122.16466 71.043053 
L 122.246913 67.461657 
L 122.312718 60.152048 
L 122.329166 60.696492 
L 122.444322 80.721291 
L 122.46077 78.534317 
L 122.493673 82.417876 
L 122.54303 76.930142 
L 122.575932 81.824419 
L 122.723991 92.427358 
L 122.608829 80.147894 
L 122.773341 90.625231 
L 122.806244 84.566294 
L 122.872049 90.737751 
L 122.888497 47.075208 
L 122.970751 93.494509 
L 123.003653 93.244754 
L 123.036556 47.216426 
L 123.118809 49.210605 
L 123.135263 50.61832 
L 123.16816 47.351779 
L 123.283322 94.256241 
L 123.382023 98.180544 
L 123.431374 51.132506 
L 123.497179 55.057225 
L 123.513634 52.218553 
L 123.595887 56.651127 
L 123.628789 55.369128 
L 123.645237 53.437532 
L 123.694594 59.676361 
L 123.711043 55.045112 
L 123.727491 57.068563 
L 123.793296 52.531501 
L 123.842647 53.430514 
L 123.859101 51.424467 
L 123.875549 96.38099 
L 123.974257 87.881485 
L 124.05651 90.378834 
L 124.007159 87.774414 
L 124.072965 88.848408 
L 124.105867 43.224309 
L 124.122315 90.823886 
L 124.188121 48.449134 
L 124.253919 58.95541 
L 124.319725 56.135249 
L 124.336179 56.174256 
L 124.369082 60.537623 
L 124.43488 57.461079 
L 124.451335 54.274141 
L 124.51714 62.94405 
L 124.632296 47.708287 
L 124.681646 49.938795 
L 124.7639 61.996741 
L 124.796802 56.429706 
L 124.81325 57.049303 
L 124.829705 54.613619 
L 124.846153 56.039758 
L 124.944861 42.234025 
L 124.961309 43.416243 
L 124.994211 40.504232 
L 125.092919 88.854667 
L 125.125822 87.914688 
L 125.240978 101.682614 
L 125.257426 100.321263 
L 125.306783 103.117648 
L 125.339685 101.338482 
L 125.504192 107.077278 
L 125.553543 109.488564 
L 125.619348 103.490704 
L 125.701601 107.028238 
L 125.734504 105.894593 
L 125.767406 103.315251 
L 125.816757 104.843109 
L 125.833211 109.241368 
L 125.915465 105.859118 
L 125.948367 103.272733 
L 126.014172 104.72333 
L 126.047069 107.968688 
L 126.112874 107.782799 
L 126.22803 103.247695 
L 126.392542 110.702941 
L 126.474796 106.363754 
L 126.524146 108.419671 
L 126.540601 108.138481 
L 126.557049 110.701095 
L 126.589951 107.496697 
L 126.655757 109.18713 
L 126.73801 112.10234 
L 126.754458 110.626905 
L 126.853166 106.663923 
L 126.869614 108.180713 
L 126.886068 108.479553 
L 126.918971 107.282463 
L 126.968322 106.52314 
L 126.984776 108.465225 
L 127.083478 108.369232 
L 127.11638 105.112709 
L 127.182185 108.775708 
L 127.198633 108.792645 
L 127.264439 106.730756 
L 127.297341 108.515218 
L 127.346692 108.218361 
L 127.396049 109.315286 
L 127.511205 106.844799 
L 127.527653 106.900267 
L 127.544101 106.853273 
L 127.675711 104.080403 
L 127.708614 105.378448 
L 127.725062 105.181562 
L 127.774419 55.489476 
L 127.82377 102.589922 
L 127.938925 105.515078 
L 128.021179 102.748754 
L 128.054081 103.388595 
L 128.070536 104.078783 
L 128.086984 103.013335 
L 128.152789 55.975211 
L 128.20214 57.398249 
L 128.251491 58.477554 
L 128.300848 101.674863 
L 128.350198 57.55276 
L 128.366653 100.929761 
L 128.448906 98.732964 
L 128.465354 101.181105 
L 128.564062 103.710966 
L 128.629867 103.244204 
L 128.745023 97.982515 
L 128.794373 100.758133 
L 128.925977 104.574566 
L 128.942432 103.975952 
L 128.95888 103.713232 
L 128.991783 105.835111 
L 129.008237 102.998207 
L 129.074036 105.569951 
L 129.205646 98.602035 
L 129.222094 100.156192 
L 129.271451 102.273672 
L 129.304354 99.688209 
L 129.33725 100.527259 
L 129.353704 100.390998 
L 129.370153 56.75647 
L 129.46886 58.516315 
L 129.485309 58.805369 
L 129.633367 65.369419 
L 129.699172 66.271201 
L 129.764977 60.386521 
L 129.995289 67.944634 
L 130.126899 61.761094 
L 130.143347 66.399679 
L 130.242055 65.915067 
L 130.258503 65.148854 
L 130.291406 67.665961 
L 130.373659 75.078488 
L 130.406562 74.888994 
L 130.55462 62.74232 
L 130.571068 63.068397 
L 130.587523 62.08836 
L 130.636873 62.775606 
L 130.68623 59.048132 
L 130.735581 63.441197 
L 130.752029 63.048999 
L 130.801386 64.082365 
L 130.850737 67.559664 
L 130.88364 62.197728 
L 130.93299 63.775276 
L 131.081049 49.636735 
L 131.113951 47.903045 
L 131.146854 51.642828 
L 131.245562 55.810012 
L 131.26201 53.055966 
L 131.393614 47.897247 
L 131.410068 48.051051 
L 131.426516 46.993477 
L 131.459419 48.853102 
L 131.475873 48.089017 
L 131.623932 59.181563 
L 131.68973 54.858396 
L 131.739087 58.362214 
L 131.788438 56.800127 
L 131.870691 63.226348 
L 131.920048 54.481152 
L 131.985847 58.264002 
L 132.01875 56.038297 
L 132.117458 63.112889 
L 132.281964 50.312051 
L 132.39712 57.338521 
L 132.413574 52.226058 
L 132.512276 55.881731 
L 132.52873 55.262785 
L 132.545178 56.016008 
L 132.594535 64.084626 
L 132.676789 59.934436 
L 132.693237 57.500398 
L 132.742594 63.519811 
L 132.759042 63.383499 
L 132.972906 74.280604 
L 133.137412 62.956759 
L 133.170315 63.753069 
L 133.334821 53.203064 
L 133.384178 61.464206 
L 133.466431 57.832786 
L 133.48288 56.525678 
L 133.532237 60.301515 
L 133.548685 59.165988 
L 133.565139 59.537763 
L 133.581587 58.743001 
L 133.598036 59.105809 
L 133.61449 56.172005 
L 133.696743 57.711321 
L 133.811899 65.26483 
L 133.844802 64.233667 
L 133.894152 74.248133 
L 133.959958 69.408237 
L 134.272529 52.377734 
L 134.058665 69.923183 
L 134.288977 55.058292 
L 134.387685 60.19793 
L 134.404133 57.473731 
L 134.469938 49.04722 
L 134.535743 53.334716 
L 134.568639 58.132914 
L 134.617996 50.578461 
L 134.634444 49.318316 
L 134.650899 50.917637 
L 134.683801 50.145288 
L 134.7496 56.186267 
L 134.798957 53.542291 
L 134.848308 50.193322 
L 134.897659 49.772365 
L 134.963464 93.622916 
L 134.979912 94.080214 
L 134.996367 91.756723 
L 135.012815 92.190702 
L 135.111522 85.795265 
L 135.177327 88.767702 
L 135.193776 90.68782 
L 135.243126 87.354261 
L 135.276029 89.387376 
L 135.325386 92.283639 
L 135.424087 85.654462 
L 135.489892 90.51998 
L 135.522795 84.898364 
L 135.621503 81.622678 
L 135.654399 83.193439 
L 135.736659 86.444918 
L 135.703756 79.337681 
L 135.769561 85.425429 
L 135.802457 79.524519 
L 135.868263 88.136853 
L 135.884717 83.605743 
L 135.901165 83.804326 
L 135.999873 87.72238 
L 135.934068 83.482996 
L 136.016321 87.089281 
L 136.098574 84.99248 
L 136.180834 92.911463 
L 136.21373 87.446229 
L 136.230185 87.461158 
L 136.328892 83.77794 
L 136.29599 90.835195 
L 136.34534 86.144852 
L 136.361789 88.507012 
L 136.427594 84.071183 
L 136.444048 83.210367 
L 136.559204 94.700334 
L 136.575652 93.939801 
L 136.756613 86.446907 
L 136.773061 85.744585 
L 136.92112 98.415253 
L 136.954022 94.903771 
L 136.986925 97.250337 
L 137.019827 96.059394 
L 137.118535 102.179381 
L 137.184334 92.259181 
L 137.283042 94.160023 
L 137.315944 50.396083 
L 137.365295 95.644188 
L 137.381749 92.253003 
L 137.480451 86.928449 
L 137.546256 89.861679 
L 137.677866 99.728375 
L 137.694314 96.620487 
L 137.727217 102.303246 
L 137.76012 101.144015 
L 137.858821 51.049115 
L 137.891724 96.560067 
L 137.957529 60.262277 
L 137.973983 59.494526 
L 137.990431 60.787737 
L 138.023334 60.587637 
L 138.039782 62.322531 
L 138.089139 55.8829 
L 138.105587 54.406383 
L 138.154938 101.029403 
L 138.220743 91.140243 
L 138.253645 91.989192 
L 138.335899 89.021394 
L 138.385256 93.70237 
L 138.418152 88.961861 
L 138.434606 89.65496 
L 138.615567 78.274565 
L 138.664918 76.163339 
L 138.763626 87.873656 
L 138.780074 89.085434 
L 138.829425 86.423608 
L 138.862327 87.305288 
L 138.878782 86.953584 
L 138.928132 94.241005 
L 139.010386 92.485051 
L 139.141996 81.809342 
L 139.174899 82.141699 
L 139.2736 89.713038 
L 139.306503 86.198357 
L 139.388756 81.935755 
L 139.520366 92.347032 
L 139.635522 98.437374 
L 139.684873 96.203036 
L 139.73423 98.25374 
L 139.750678 97.865576 
L 139.865834 85.762113 
L 139.931639 86.049116 
L 139.948087 85.99333 
L 139.964541 85.334998 
L 139.980989 79.316299 
L 140.046795 88.160901 
L 140.063243 87.572447 
L 140.079697 87.879429 
L 140.096145 86.863143 
L 140.178405 80.792795 
L 140.211301 82.23722 
L 140.244204 84.057116 
L 140.260658 79.328202 
L 140.293561 81.011668 
L 140.35936 78.508393 
L 140.326457 81.16156 
L 140.408717 79.545522 
L 140.540321 91.228105 
L 140.441619 79.359376 
L 140.573223 90.922795 
L 140.655477 81.809147 
L 140.688379 83.489445 
L 140.721282 82.279626 
L 140.819989 88.572262 
L 140.836437 82.909029 
L 140.885788 90.513552 
L 140.918691 87.856555 
L 140.968048 93.68635 
L 141.066749 91.64165 
L 141.214808 82.955367 
L 141.24771 84.246476 
L 141.313515 87.834111 
L 141.412223 80.524718 
L 141.428671 83.412681 
L 141.445119 85.532797 
L 141.478022 81.300768 
L 141.527379 76.02289 
L 141.57673 80.798552 
L 141.675437 76.182046 
L 141.609632 82.341205 
L 141.790593 77.32419 
L 141.856392 84.05344 
L 141.971548 92.554053 
L 141.988002 90.214798 
L 142.168963 81.435009 
L 142.201866 82.491912 
L 142.33347 93.935116 
L 142.366372 92.893377 
L 142.514431 78.704458 
L 142.530879 79.394246 
L 142.580236 85.523262 
L 142.646041 83.397763 
L 142.678937 78.894798 
L 142.744742 83.403264 
L 142.761197 83.437827 
L 142.794093 84.699171 
L 142.925703 77.825187 
L 143.057314 83.904891 
L 143.139567 77.954086 
L 143.17247 80.899502 
L 143.205366 83.204994 
L 143.336976 73.533277 
L 143.369879 69.053144 
L 143.402781 74.082718 
L 143.41923 73.958499 
L 143.501483 82.330859 
L 143.55084 81.422414 
L 143.616639 74.06211 
L 143.665996 74.520475 
L 143.731801 71.303604 
L 143.814054 80.921668 
L 143.995015 64.565522 
L 144.027918 69.335744 
L 144.093716 77.166855 
L 144.143073 74.074131 
L 144.159522 65.63037 
L 144.258229 69.269567 
L 144.274677 67.948689 
L 144.30758 71.952088 
L 144.324028 68.189734 
L 144.340483 72.988044 
L 144.422736 66.345575 
L 144.472087 70.023266 
L 144.521444 64.954106 
L 144.554346 66.378856 
L 144.653048 75.771023 
L 144.669502 68.1105 
L 144.751755 76.366956 
L 144.768203 77.339621 
L 144.81756 76.535073 
L 144.834009 74.436309 
L 144.883359 79.251193 
L 144.899814 79.245159 
L 144.949164 76.372595 
L 144.998515 79.870523 
L 145.163028 74.532153 
L 145.195931 76.949217 
L 145.228833 80.220407 
L 145.261736 74.051385 
L 145.294632 77.436352 
L 145.376892 78.49026 
L 145.409788 75.624787 
L 145.557846 86.902745 
L 145.574301 86.038561 
L 145.673008 80.158613 
L 145.705905 82.215612 
L 145.788164 86.858576 
L 145.837515 89.005138 
L 145.853963 86.435716 
L 145.870418 82.940265 
L 145.886866 88.319631 
L 145.952671 87.042938 
L 145.985573 85.486797 
L 146.067827 83.254895 
L 146.034924 86.418097 
L 146.117177 83.387403 
L 146.133632 84.493627 
L 146.15008 80.538047 
L 146.182983 82.486744 
L 146.215885 77.669323 
L 146.232333 85.896077 
L 146.298138 77.790189 
L 146.396846 81.681837 
L 146.413294 78.907773 
L 146.61071 88.343105 
L 146.627158 85.63206 
L 146.676508 91.767119 
L 146.709411 96.249323 
L 146.775216 91.508219 
L 146.857469 86.552307 
L 146.873924 91.099201 
L 147.021982 104.100929 
L 147.120684 100.354026 
L 147.153586 101.732694 
L 147.219392 107.514009 
L 147.268742 103.011377 
L 147.301645 100.929094 
L 147.334547 103.760744 
L 147.36745 103.251648 
L 147.383898 104.814529 
L 147.433255 99.010161 
L 147.449703 101.420766 
L 147.581313 108.094496 
L 147.597762 109.990776 
L 147.647112 103.98664 
L 147.663567 102.634199 
L 147.712917 105.926228 
L 147.729372 105.597352 
L 147.795171 109.174027 
L 147.828073 105.71141 
L 147.844528 105.528053 
L 147.976132 107.92113 
L 148.025482 109.468956 
L 148.041937 106.772629 
L 148.091288 108.852127 
L 148.173541 104.384406 
L 148.206443 107.372391 
L 148.222898 107.326135 
L 148.272248 103.962454 
L 148.354502 105.168807 
L 148.420307 107.03438 
L 148.436755 104.765059 
L 148.486112 107.025511 
L 148.650619 103.997098 
L 148.683521 104.639569 
L 148.699969 104.171254 
L 148.716424 103.645363 
L 148.749326 105.510741 
L 148.765775 104.804984 
L 148.864482 106.745448 
L 148.88093 105.978933 
L 149.012541 100.462794 
L 149.045443 102.032227 
L 149.2593 109.72435 
L 149.292203 107.029674 
L 149.325106 107.575911 
L 149.390911 101.184114 
L 149.538969 95.145606 
L 149.571872 101.693821 
L 149.621222 93.777216 
L 149.703476 86.689388 
L 149.769281 88.318154 
L 149.851534 78.265727 
L 149.917339 81.896824 
L 149.950242 85.173556 
L 149.983145 79.074377 
L 150.016047 80.53474 
L 150.04895 80.200071 
L 150.081846 80.249213 
L 150.0983 80.901675 
L 150.114749 78.579399 
L 150.131203 77.499858 
L 150.147651 81.645101 
L 150.164106 81.281288 
L 150.394417 100.736848 
L 150.410865 97.307087 
L 150.42732 97.361191 
L 150.526021 89.384556 
L 150.591826 92.67517 
L 150.608281 93.784583 
L 150.641177 91.424709 
L 150.67408 92.811816 
L 150.690534 88.058306 
L 150.739885 93.080046 
L 150.789235 90.261756 
L 150.822138 90.872279 
L 150.904391 88.124739 
L 150.920846 90.460062 
L 150.986651 86.183285 
L 151.019553 89.613646 
L 151.068904 83.131691 
L 151.167612 85.065824 
L 151.18406 85.195 
L 151.249865 80.376369 
L 151.282768 85.295719 
L 151.299216 85.21222 
L 151.365015 95.73265 
L 151.43082 93.662297 
L 151.578885 82.616202 
L 151.595326 83.605707 
L 151.628235 80.33727 
L 151.776287 60.830732 
L 151.875001 74.290103 
L 151.891443 72.248889 
L 151.907898 69.567577 
L 151.957248 74.415214 
L 152.105313 83.922777 
L 152.121768 82.654589 
L 152.154664 86.729492 
L 152.171118 85.756386 
L 152.302716 91.223973 
L 152.204014 85.608309 
L 152.31917 89.141568 
L 152.335625 87.718848 
L 152.352079 90.622996 
L 152.417872 88.44429 
L 152.450781 91.024816 
L 152.483677 86.162046 
L 152.615287 71.764056 
L 152.516586 86.239199 
L 152.664638 72.705424 
L 152.730443 83.62811 
L 152.796248 79.385213 
L 152.812703 78.074886 
L 152.878508 80.812255 
L 152.960755 86.213244 
L 152.977209 84.886327 
L 153.059469 84.925785 
L 153.092365 78.48376 
L 153.125261 81.124357 
L 153.174625 79.675334 
L 153.322677 66.168221 
L 153.388482 70.51829 
L 153.437833 67.453824 
L 153.454287 69.2111 
L 153.487183 63.780726 
L 153.569443 53.787227 
L 153.602339 55.608692 
L 153.618794 59.848584 
L 153.701053 56.764975 
L 153.717495 53.418067 
L 153.766858 62.413997 
L 153.7833 60.229786 
L 153.947807 66.464103 
L 153.980716 74.45296 
L 154.046521 72.541983 
L 154.178131 55.427805 
L 154.194573 56.045695 
L 154.211027 56.072762 
L 154.276832 64.467376 
L 154.359079 61.33358 
L 154.391988 62.168615 
L 154.441339 58.256697 
L 154.507144 50.678668 
L 154.556495 56.392806 
L 154.589404 58.650838 
L 154.605846 53.631968 
L 154.737456 44.591571 
L 154.770352 45.381248 
L 154.869066 42.085184 
L 154.885508 42.650379 
L 154.951313 47.350943 
L 155.000676 45.03222 
L 155.017118 40.228527 
L 155.099378 40.485797 
L 155.24743 54.835389 
L 155.263884 54.76408 
L 155.4613 67.20086 
L 155.296781 54.39227 
L 155.576456 66.041834 
L 155.675157 58.706024 
L 155.724508 59.23842 
L 155.872573 68.818235 
L 155.889014 66.380158 
L 155.938378 62.071131 
L 155.971274 66.881913 
L 156.053533 74.559754 
L 156.00417 66.637977 
L 156.119326 70.08302 
L 156.185131 66.255114 
L 156.201586 70.335241 
L 156.21804 73.406741 
L 156.267391 68.788461 
L 156.300287 70.496144 
L 156.34965 66.881452 
L 156.399001 70.502342 
L 156.431897 68.230787 
L 156.514157 65.988129 
L 156.481248 69.557524 
L 156.547053 67.167676 
L 156.612858 74.601601 
L 156.662209 68.325231 
L 156.728014 61.841323 
L 156.760923 68.720874 
L 156.777365 69.303904 
L 156.810274 67.148949 
L 156.876079 65.442594 
L 156.84317 69.867315 
L 156.892521 67.409649 
L 156.97478 73.376151 
L 157.007677 69.656398 
L 157.040585 69.972868 
L 157.089936 76.450133 
L 157.155741 73.538577 
L 157.254443 66.243164 
L 157.287352 69.858538 
L 157.336702 69.413312 
L 157.567014 83.975349 
L 157.698624 78.361382 
L 157.715066 78.558929 
L 157.81378 85.145704 
L 157.830222 84.093734 
L 157.879585 73.137423 
L 157.945378 76.909057 
L 158.027638 82.986746 
L 158.044092 79.890624 
L 158.060534 76.046246 
L 158.126339 80.197492 
L 158.159248 76.991454 
L 158.175702 78.531277 
L 158.225053 73.164337 
L 158.241495 71.751937 
L 158.290858 75.992337 
L 158.3073 76.942204 
L 158.340209 73.514135 
L 158.373105 75.949116 
L 158.554066 61.811512 
L 158.619871 64.951266 
L 158.669222 70.534874 
L 158.718573 63.130422 
L 158.735027 57.659636 
L 158.800832 65.64558 
L 158.833728 61.774279 
L 158.850183 60.929919 
L 158.899533 62.61319 
L 159.014689 64.375987 
L 158.948884 60.981178 
L 159.031144 63.820512 
L 159.19565 49.503883 
L 159.261456 56.735313 
L 159.294352 54.917043 
L 159.393066 47.567305 
L 159.40952 48.559434 
L 159.442417 42.780232 
L 159.508222 48.671047 
L 159.524676 49.352376 
L 159.590469 47.641797 
L 159.623378 48.271134 
L 159.754988 68.577847 
L 159.837235 68.571187 
L 159.853689 66.588789 
L 159.90304 69.793997 
L 159.919494 68.862774 
L 160.084001 79.395379 
L 160.182702 76.071381 
L 160.116897 80.395183 
L 160.199157 76.947361 
L 160.248507 81.862185 
L 160.281416 80.216265 
L 160.297858 74.717545 
L 160.380118 81.277735 
L 160.413014 82.99744 
L 160.445923 81.386411 
L 160.544624 72.497136 
L 160.593975 74.565024 
L 160.65978 85.92279 
L 160.709131 80.761149 
L 160.774936 73.574627 
L 160.824287 78.333053 
L 160.890092 85.953508 
L 160.939443 82.098058 
L 161.087507 75.715217 
L 161.103962 76.79585 
L 161.120404 78.595896 
L 161.186209 76.942102 
L 161.268468 74.777166 
L 161.284923 76.154117 
L 161.350715 81.880825 
L 161.400079 80.828926 
L 161.41652 78.834711 
L 161.465884 84.776514 
L 161.49878 81.753756 
L 161.564585 88.42969 
L 161.63039 84.885871 
L 161.696195 72.190996 
L 161.778442 76.647034 
L 161.827793 84.124585 
L 161.877156 78.136172 
L 161.910053 73.700009 
L 161.926507 78.620092 
L 161.992312 74.929032 
L 162.091014 79.764293 
L 162.107468 78.180459 
L 162.173261 74.826974 
L 162.20617 76.811552 
L 162.387131 84.559143 
L 162.403585 82.951809 
L 162.452936 87.685362 
L 162.485832 85.565216 
L 162.600988 78.761813 
L 162.699702 79.967484 
L 162.732598 83.48762 
L 162.765494 79.876859 
L 162.814858 80.445422 
L 163.061611 91.999039 
L 163.09452 85.805298 
L 163.176767 88.697998 
L 163.242572 88.477869 
L 163.308377 90.87717 
L 163.472884 80.095005 
L 163.489338 81.708899 
L 163.522247 75.891525 
L 163.538689 77.378172 
L 163.555144 72.858643 
L 163.653845 74.701223 
L 163.670299 74.827892 
L 163.736104 76.95662 
L 163.71965 73.029322 
L 163.752559 74.299859 
L 163.884157 60.441344 
L 163.917065 65.40025 
L 163.966416 68.899669 
L 163.999312 65.499226 
L 164.098026 56.391591 
L 164.163832 59.330557 
L 164.213182 62.848452 
L 164.246079 61.712326 
L 164.311884 63.597312 
L 164.361234 55.385558 
L 164.427039 59.910547 
L 164.459948 54.943249 
L 164.47639 50.916314 
L 164.55865 56.962527 
L 164.69026 68.499663 
L 164.723156 64.243761 
L 164.756065 66.080149 
L 164.772507 65.193777 
L 164.887663 73.834163 
L 164.904117 71.844279 
L 164.920572 71.83192 
L 164.937014 71.041602 
L 164.953468 73.132682 
L 164.986377 72.399755 
L 165.002819 73.241213 
L 165.068624 71.877155 
L 165.167338 66.531239 
L 165.117975 72.178052 
L 165.216689 68.410658 
L 165.31539 75.410368 
L 165.249585 68.052525 
L 165.364741 72.499859 
L 165.381195 62.003569 
L 165.479897 69.674494 
L 165.627961 79.069696 
L 165.792468 85.734773 
L 165.808922 84.519649 
L 166.039234 64.70695 
L 166.236637 52.339449 
L 166.318897 59.946504 
L 166.368247 58.907083 
L 166.483403 50.962257 
L 166.401156 59.535656 
L 166.499858 51.495622 
L 166.516312 100.105389 
L 166.598559 49.268939 
L 166.631468 52.582781 
L 166.713715 97.824744 
L 166.746624 92.894874 
L 166.77952 93.110077 
L 166.812429 90.924743 
L 166.828871 50.931981 
L 166.927585 59.270757 
L 166.960481 53.453409 
L 167.026286 57.010393 
L 167.075637 55.388219 
L 167.141442 105.79475 
L 167.157896 56.485943 
L 167.240143 108.879661 
L 167.256598 110.96544 
L 167.273052 110.621399 
L 167.289494 58.556583 
L 167.388208 60.758696 
L 167.40465 57.905141 
L 167.454013 65.552315 
L 167.503364 70.904547 
L 167.552715 64.008781 
L 167.602065 60.877527 
L 167.634974 62.097368 
L 167.717221 69.240464 
L 167.75013 64.793643 
L 167.865286 56.086086 
L 167.914637 58.047415 
L 168.079143 69.346371 
L 168.128494 59.806475 
L 168.161403 60.442733 
L 168.194299 107.575634 
L 168.24365 59.352058 
L 168.260104 62.446027 
L 168.276559 62.501157 
L 168.408156 66.076683 
L 168.309455 61.690246 
L 168.473961 65.273058 
L 168.539766 59.084755 
L 168.589117 61.122611 
L 168.622026 99.969097 
L 168.704273 98.557891 
L 168.868792 92.080155 
L 168.885234 93.157076 
L 168.934585 90.379854 
L 169.08265 82.089471 
L 169.099104 83.598484 
L 169.148455 78.351826 
L 169.345857 87.185688 
L 169.362312 85.830433 
L 169.477468 75.583314 
L 169.543273 77.693919 
L 169.724234 84.198487 
L 169.921649 94.155891 
L 169.938091 90.068515 
L 169.954546 86.470786 
L 170.020351 90.582492 
L 170.036805 90.455689 
L 170.053247 90.496793 
L 170.151961 84.73235 
L 170.184857 85.640201 
L 170.283559 91.054785 
L 170.382273 90.880851 
L 170.398727 89.988686 
L 170.415169 56.020134 
L 170.497429 88.017299 
L 170.546779 87.324179 
L 170.530325 88.416679 
L 170.563234 88.059346 
L 170.612584 89.03523 
L 170.645481 88.63989 
L 170.661935 52.779144 
L 170.744195 87.848445 
L 170.760637 87.657316 
L 170.777091 89.836826 
L 170.793545 56.835043 
L 170.892247 64.83608 
L 170.941598 57.754526 
L 170.958052 58.2465 
L 171.056753 52.580464 
L 171.089662 53.11188 
L 171.270623 71.609648 
L 171.319974 70.110534 
L 171.336428 70.226724 
L 171.43513 66.605116 
L 171.385779 72.88325 
L 171.451584 68.241911 
L 171.550286 73.511387 
L 171.56674 68.459938 
L 171.632545 77.309139 
L 171.681896 83.00817 
L 171.731247 77.287777 
L 171.764143 72.868152 
L 171.780597 71.498881 
L 171.829948 76.107 
L 171.846403 75.77087 
L 171.978013 89.243092 
L 172.010909 86.49203 
L 172.06026 88.108729 
L 172.093169 85.370601 
L 172.10961 85.381731 
L 172.142519 82.623471 
L 172.175416 85.931664 
L 172.208325 85.683493 
L 172.224766 86.242316 
L 172.241221 84.052553 
L 172.339922 70.936028 
L 172.372831 72.176934 
L 172.389285 72.768628 
L 172.455091 66.325136 
L 172.504441 71.574193 
L 172.520883 72.353929 
L 172.619597 56.348262 
L 172.652493 60.234579 
L 172.685402 58.439054 
L 172.701844 61.665194 
L 172.784104 58.547776 
L 172.800558 61.436052 
L 172.866363 56.890255 
L 172.89926 60.129123 
L 173.326987 82.747208 
L 173.376337 81.509194 
L 173.409234 84.767348 
L 173.425688 85.667104 
L 173.458584 81.896963 
L 173.475039 79.787736 
L 173.540844 85.5816 
L 173.557298 84.688114 
L 173.606649 88.02079 
L 173.639545 85.155045 
L 173.672454 86.382171 
L 173.705351 83.545123 
L 173.721805 85.017544 
L 173.738259 81.585875 
L 173.836961 83.052585 
L 173.968571 87.98894 
L 173.886312 82.575683 
L 174.017922 85.486746 
L 174.182428 80.010111 
L 174.198883 80.408881 
L 174.215337 80.452276 
L 174.264688 77.63088 
L 174.314039 81.163534 
L 174.54435 90.077117 
L 174.643052 83.006216 
L 174.675961 83.126877 
L 174.758208 88.112287 
L 174.791117 86.743754 
L 174.972078 76.341258 
L 175.153038 91.281031 
L 175.317545 100.901606 
L 175.350441 100.517652 
L 175.416246 101.732961 
L 175.679467 84.796676 
L 175.728818 89.590839 
L 175.778169 87.826437 
L 175.909779 80.427654 
L 175.942675 81.568461 
L 175.95913 79.651045 
L 175.992026 74.412871 
L 176.09074 75.277424 
L 176.107182 76.022788 
L 176.123636 72.102293 
L 176.222337 65.159051 
L 176.238792 66.309777 
L 176.353948 76.121354 
L 176.386857 75.67499 
L 176.436207 73.691776 
L 176.469104 76.938949 
L 176.485558 75.07999 
L 176.534909 78.34449 
L 176.567818 75.261589 
L 176.71587 59.260525 
L 176.781675 64.747111 
L 176.814571 63.445713 
L 176.84748 66.460351 
L 176.863922 65.667086 
L 176.913285 67.222842 
L 176.946182 66.230425 
L 177.094246 52.556164 
L 177.011987 67.755381 
L 177.110688 55.206799 
L 177.209402 65.279496 
L 177.242298 64.630525 
L 177.373909 59.27978 
L 177.439714 65.463238 
L 177.406805 59.023417 
L 177.456156 62.638325 
L 177.505519 53.949869 
L 177.571311 59.937405 
L 177.653571 68.112832 
L 177.719376 68.056396 
L 177.785181 71.123256 
L 177.752272 66.779267 
L 177.801636 68.669805 
L 177.883883 69.398574 
L 177.949688 64.528996 
L 178.015493 71.175115 
L 178.048389 68.564472 
L 178.163545 57.545142 
L 178.18 58.279807 
L 178.196454 59.214013 
L 178.262259 71.688964 
L 178.31161 62.517556 
L 178.328064 63.387784 
L 178.344506 62.342001 
L 178.360961 63.328646 
L 178.377415 58.06973 
L 178.476116 60.883847 
L 178.492571 60.437037 
L 178.509025 60.890338 
L 178.525467 63.173094 
L 178.591272 59.071242 
L 178.640623 54.339139 
L 178.657077 61.167288 
L 178.821584 76.238908 
L 178.854493 69.440324 
L 178.903843 77.168306 
L 178.953194 76.787237 
L 179.018999 79.785768 
L 179.183506 66.547546 
L 179.249311 64.313224 
L 179.380921 80.228435 
L 179.430272 75.111692 
L 179.446726 78.134004 
L 179.479623 85.032866 
L 179.561882 83.687094 
L 179.594779 79.499312 
L 179.677038 80.627247 
L 179.82509 84.324916 
L 179.77574 80.460043 
L 179.841545 83.914975 
L 179.940246 78.748694 
L 179.874441 84.017724 
L 179.956701 79.342936 
L 180.088311 87.333427 
L 180.203467 82.332054 
L 180.236363 83.30377 
L 180.285714 84.474233 
L 180.302168 81.570158 
L 180.335064 77.049075 
L 180.40087 81.330799 
L 180.417324 84.113101 
L 180.45022 78.718935 
L 180.516025 66.556143 
L 180.565389 73.19587 
L 180.581831 76.97364 
L 180.647636 72.716287 
L 180.66409 73.713558 
L 180.762791 64.309846 
L 180.7957 69.525161 
L 180.845051 72.883516 
L 180.910856 71.458684 
L 180.960207 72.579672 
L 181.026012 67.872141 
L 181.091817 81.066547 
L 181.174064 81.028237 
L 181.28922 72.7288 
L 181.338571 74.116322 
L 181.37148 76.816207 
L 181.42083 72.28726 
L 181.437285 73.597193 
L 181.453727 70.971257 
L 181.50309 76.347066 
L 181.618246 81.456438 
L 181.782752 74.870831 
L 181.684038 82.586351 
L 181.799207 75.198457 
L 181.881454 79.068728 
L 181.930804 78.298475 
L 181.980155 75.582811 
L 182.013064 80.222171 
L 182.161116 87.711476 
L 182.309181 80.740362 
L 182.342077 83.94317 
L 182.374986 80.497292 
L 182.391428 80.768249 
L 182.539493 63.864 
L 182.687545 74.152263 
L 182.720454 74.917261 
L 182.786259 69.080437 
L 182.819155 71.926405 
L 182.835609 75.215702 
L 182.901415 71.553318 
L 183.033025 64.057005 
L 183.049467 64.323851 
L 183.082376 67.886085 
L 183.098817 63.614563 
L 183.148181 66.380747 
L 183.164623 62.907663 
L 183.213973 71.266622 
L 183.296233 79.189819 
L 183.329129 74.14887 
L 183.345584 74.403156 
L 183.362038 74.164936 
L 183.394934 71.331969 
L 183.444298 78.404136 
L 183.477194 78.313244 
L 183.526545 81.42531 
L 183.542999 82.801056 
L 183.575895 76.515977 
L 183.59235 76.354494 
L 183.608804 77.599916 
L 183.6417 73.738221 
L 183.674609 75.097927 
L 183.691051 74.951137 
L 183.740402 67.495502 
L 183.789765 74.873948 
L 183.839116 76.491503 
L 183.872012 64.533846 
L 183.970726 67.964366 
L 184.069428 63.299948 
L 184.003622 69.449156 
L 184.085882 65.220358 
L 184.102324 67.542424 
L 184.151675 62.928297 
L 184.184583 64.092372 
L 184.201038 59.779987 
L 184.233934 65.949148 
L 184.266843 65.41629 
L 184.398441 71.1019 
L 184.447791 71.56111 
L 184.497155 68.907138 
L 184.595856 75.387022 
L 184.546505 68.071278 
L 184.61231 72.883188 
L 184.694557 67.546253 
L 184.743908 67.920858 
L 184.809713 66.984222 
L 184.990674 74.651722 
L 185.040025 69.526222 
L 185.089388 73.297097 
L 185.122285 81.84697 
L 185.204544 75.99306 
L 185.270337 80.823692 
L 185.3197 80.542548 
L 185.352596 78.183669 
L 185.385493 81.479153 
L 185.500661 91.965969 
L 185.517103 89.452261 
L 185.533557 85.590254 
L 185.582908 91.18168 
L 185.615817 89.396608 
L 185.665168 97.53833 
L 185.747415 95.374573 
L 185.796765 91.651974 
L 185.829674 95.486868 
L 185.895479 91.684989 
L 185.977726 95.819358 
L 185.961284 90.784233 
L 185.994181 94.17208 
L 186.02709 74.74589 
L 186.142245 77.61162 
L 186.158687 77.311113 
L 186.191596 81.999015 
L 186.257401 77.77645 
L 186.339648 80.638699 
L 186.372557 67.531387 
L 186.388999 67.300343 
L 186.405454 67.874443 
L 186.537064 74.340378 
L 186.553518 79.60423 
L 186.65222 76.60775 
L 186.685116 72.791261 
L 186.816726 96.724041 
L 186.833181 96.803799 
L 186.948336 91.298286 
L 186.964791 93.116382 
L 187.178648 101.830061 
L 187.211544 106.148629 
L 187.27735 100.992057 
L 187.3267 102.773484 
L 187.310258 99.865912 
L 187.343155 100.952225 
L 187.45831 89.500244 
L 187.524116 95.076579 
L 187.54057 95.180697 
L 187.688622 85.130089 
L 187.705077 87.986464 
L 187.737973 91.08983 
L 187.787336 85.9027 
L 187.803778 86.143145 
L 187.853129 72.21347 
L 187.951843 79.8925 
L 187.968297 82.487764 
L 188.03409 78.992405 
L 188.066999 81.141485 
L 188.083453 82.184536 
L 188.149246 79.34556 
L 188.330207 91.594251 
L 188.182155 76.109276 
L 188.346661 87.312522 
L 188.461817 78.300613 
L 188.478271 81.610149 
L 188.544076 86.807583 
L 188.560518 89.88483 
L 188.642778 85.491349 
L 188.659232 85.416283 
L 188.675674 88.256453 
L 188.725037 77.712903 
L 188.741479 83.419725 
L 188.757934 82.789937 
L 188.774388 83.097585 
L 188.889544 73.653656 
L 189.021154 83.214642 
L 189.037596 83.422468 
L 189.054051 83.163075 
L 189.152752 74.148829 
L 189.169207 75.788971 
L 189.235012 78.191584 
L 189.284362 76.899634 
L 189.366622 71.94506 
L 189.383064 75.479139 
L 189.498232 79.702114 
L 189.514674 77.988597 
L 189.531128 77.634104 
L 189.547583 78.896382 
L 189.580479 79.970837 
L 189.596934 77.751976 
L 189.613388 78.571125 
L 189.744986 72.819579 
L 189.679181 80.718974 
L 189.76144 73.589909 
L 189.794336 79.497862 
L 189.876596 78.294466 
L 189.89305 78.598064 
L 189.958856 81.736387 
L 189.991752 78.734745 
L 190.057557 69.940023 
L 190.123362 71.314785 
L 190.172713 75.601605 
L 190.205609 70.732483 
L 190.320777 54.696652 
L 190.353674 57.716037 
L 190.370128 57.832889 
L 190.419479 49.003589 
L 190.452375 50.761957 
L 190.567531 96.719592 
L 190.583986 97.321107 
L 190.616882 95.265775 
L 190.633336 94.527742 
L 190.649791 98.524318 
L 190.764947 105.334648 
L 190.797843 103.895795 
L 191.011713 87.543468 
L 191.028155 91.395448 
L 191.061063 97.417895 
L 191.126869 89.639612 
L 191.22557 84.011229 
L 191.258479 88.534341 
L 191.390076 96.101943 
L 191.406531 95.903837 
L 191.505232 46.374193 
L 191.620388 51.817742 
L 191.653297 48.180083 
L 191.669751 52.302472 
L 191.751999 48.962111 
L 191.784907 52.560153 
L 191.8507 48.487531 
L 191.867154 48.572133 
L 191.998765 57.636331 
L 192.031661 55.619406 
L 192.048115 53.037347 
L 192.146817 53.333701 
L 192.245531 60.315367 
L 192.294881 55.933692 
L 192.344232 48.869979 
L 192.393583 55.497238 
L 192.410037 57.250346 
L 192.459388 53.94971 
L 192.508739 56.943462 
L 192.525193 57.588107 
L 192.541648 54.329379 
L 192.558089 55.994333 
L 192.574544 54.618874 
L 192.607453 59.046199 
L 192.722609 65.831327 
L 192.755505 62.171578 
L 192.771959 60.081545 
L 192.788414 63.296534 
L 192.82131 60.97374 
L 192.887115 70.368793 
L 192.95292 70.149817 
L 193.002271 65.347796 
L 193.018725 70.484979 
L 193.035167 70.092109 
L 193.084518 74.128743 
L 193.133881 69.272335 
L 193.216128 57.922412 
L 193.232583 65.481006 
L 193.281933 71.722916 
L 193.314842 61.917455 
L 193.331284 63.011145 
L 193.397089 57.778672 
L 193.380635 65.589328 
L 193.429998 63.261336 
L 193.545154 68.354975 
L 193.561596 67.790108 
L 193.594505 69.40329 
L 193.726115 55.235195 
L 193.759011 61.388017 
L 193.791908 52.148428 
L 193.874167 68.631546 
L 193.907063 66.08222 
L 194.005777 58.992961 
L 194.055128 59.766074 
L 194.071583 61.009081 
L 194.088024 51.512796 
L 194.186738 54.893641 
L 194.28544 62.825599 
L 194.301894 58.183983 
L 194.33479 60.418182 
L 194.351245 57.812532 
L 194.367699 58.975177 
L 194.384141 57.50004 
L 194.41705 62.09483 
L 194.433504 59.507758 
L 194.499297 67.643799 
L 194.466401 58.764388 
L 194.515752 65.011742 
L 194.614453 55.565547 
L 194.630907 59.801016 
L 194.647362 60.059527 
L 194.663816 56.550157 
L 194.680258 65.919199 
L 194.729609 65.324891 
L 194.746063 65.918379 
L 194.778972 63.7138 
L 194.811868 65.139734 
L 194.828323 63.08879 
L 194.91057 70.521412 
L 194.877674 58.844679 
L 194.959933 68.172186 
L 195.12444 59.391885 
L 195.190245 64.068375 
L 195.206687 63.774789 
L 195.25605 50.906943 
L 195.321842 52.708589 
L 195.453453 61.951192 
L 195.519258 52.845603 
L 195.552154 59.600639 
L 195.733115 70.824426 
L 195.585063 55.163204 
L 195.79892 70.059695 
L 195.815375 70.300899 
L 195.848271 73.978641 
L 195.897634 69.654506 
L 195.963427 55.941546 
L 196.029232 58.735721 
L 196.045687 59.669769 
L 196.095037 57.370858 
L 196.127946 59.118184 
L 196.144388 57.841886 
L 196.193751 61.228964 
L 196.358258 72.698682 
L 196.407608 70.966818 
L 196.456959 72.349895 
L 196.50631 82.930391 
L 196.588569 81.845268 
L 196.621466 70.107852 
L 196.687271 89.147751 
L 196.703725 89.228907 
L 196.753076 85.943399 
L 196.785972 90.056653 
L 196.950491 97.400229 
L 197.279505 79.995408 
L 197.34531 85.08287 
L 197.361764 85.679254 
L 197.39466 84.449145 
L 197.427569 84.8396 
L 197.460466 79.261656 
L 197.526271 82.232827 
L 197.559167 84.289138 
L 197.592076 80.332784 
L 197.608518 80.821226 
L 197.707232 74.51946 
L 197.723686 76.129023 
L 197.773037 82.61855 
L 197.855284 79.732668 
L 197.871738 78.182254 
L 197.904634 83.076664 
L 197.921089 82.83768 
L 198.184309 97.31088 
L 198.200751 95.183901 
L 198.250115 99.689481 
L 198.431063 106.450489 
L 198.463972 110.261723 
L 198.513323 105.206481 
L 198.579128 101.628961 
L 198.628479 103.81895 
L 198.743634 96.949933 
L 198.792985 100.373465 
L 198.908141 104.275992 
L 198.875245 97.253028 
L 198.924595 102.994572 
L 199.434569 78.339066 
L 199.006855 103.944963 
L 199.451024 79.73538 
L 199.483933 81.011581 
L 199.549725 72.00994 
L 199.599089 78.09209 
L 199.69779 86.282502 
L 199.730686 82.08114 
L 199.862297 75.707748 
L 199.878751 76.348132 
L 199.944556 81.593765 
L 199.993907 77.393915 
L 200.010361 78.042948 
L 200.076166 34.229046 
L 200.109063 38.355342 
L 200.125517 79.512959 
L 200.191322 25.477607 
L 200.207764 36.15327 
L 200.240673 34.203055 
L 200.257115 37.593589 
L 200.32292 43.774838 
L 200.339374 31.421265 
L 200.355829 45.071919 
L 200.438076 36.747588 
L 200.520335 51.811098 
L 200.602595 46.852008 
L 200.684842 44.160556 
L 200.635491 47.711962 
L 200.701296 45.021295 
L 200.717751 50.5255 
L 200.799998 44.388688 
L 200.816452 47.688996 
L 200.898712 38.284253 
L 200.948062 39.235797 
L 201.063218 50.210722 
L 201.07966 49.124727 
L 201.096115 47.3206 
L 201.112569 84.18218 
L 201.16192 43.854625 
L 201.194816 44.850672 
L 201.211271 44.951104 
L 201.277076 45.733629 
L 201.29353 39.974343 
L 201.392232 79.58152 
L 201.326426 37.572381 
L 201.408686 79.028998 
L 201.441582 77.991519 
L 201.458037 78.842416 
L 201.490933 40.254333 
L 201.573193 48.034826 
L 201.606089 45.549897 
L 201.622543 47.565654 
L 201.754154 53.412587 
L 201.885764 48.313294 
L 201.902206 48.455152 
L 201.91866 48.336819 
L 202.00092 52.545153 
L 202.05027 51.400942 
L 202.083167 49.078025 
L 202.148972 51.894198 
L 202.165426 49.674107 
L 202.181881 51.954833 
L 202.198322 93.913113 
L 202.280582 43.086716 
L 202.412192 81.651827 
L 202.428634 39.957456 
L 202.527348 44.270503 
L 202.560244 43.556067 
L 202.609595 51.321667 
L 202.75766 62.261111 
L 202.774114 61.003273 
L 202.807011 60.982265 
L 202.823465 58.105872 
L 202.872816 63.108096 
L 202.922166 59.487114 
L 203.037322 74.374187 
L 203.070231 72.995488 
L 203.234738 62.85992 
L 203.25118 63.70366 
L 203.267634 63.984312 
L 203.38279 71.794538 
L 203.399244 69.290719 
L 203.448595 77.110495 
L 203.563751 86.45715 
L 203.59666 80.764369 
L 203.613101 81.023105 
L 203.629556 79.055824 
L 203.662452 87.065761 
L 203.761166 93.101383 
L 203.794062 91.219011 
L 203.810517 90.354058 
L 203.826971 90.437706 
L 203.859868 96.965456 
L 203.942127 93.58802 
L 203.958569 93.354547 
L 203.975024 95.615741 
L 204.040829 91.547011 
L 204.106634 89.685273 
L 204.123088 91.747654 
L 204.155985 96.404331 
L 204.238244 95.238323 
L 204.320491 93.846951 
L 204.287595 97.137417 
L 204.336946 94.51467 
L 204.484998 103.405497 
L 204.550803 97.925745 
L 204.534361 103.919648 
L 204.600166 100.483233 
L 204.633062 106.419376 
L 204.715322 104.015907 
L 204.814023 109.710785 
L 204.748218 103.836784 
L 204.89627 106.614888 
L 204.912725 106.634538 
L 204.929179 107.816331 
L 204.97853 103.499142 
L 205.175945 88.250045 
L 205.192387 90.196584 
L 205.225296 96.809796 
L 205.307543 93.677005 
L 205.406257 90.100535 
L 205.373348 95.389794 
L 205.422711 92.220276 
L 205.439153 92.400701 
L 205.455608 94.57002 
L 205.504959 92.083631 
L 205.537867 93.66342 
L 205.685919 89.073761 
L 205.718816 93.43356 
L 205.784621 86.644547 
L 205.916231 73.840822 
L 205.94914 76.70059 
L 205.982036 72.117903 
L 205.998491 76.317522 
L 206.130088 84.681424 
L 206.146543 83.174369 
L 206.508465 57.178289 
L 206.524919 57.553867 
L 206.557816 56.675165 
L 206.607166 52.709214 
L 206.640075 54.306105 
L 206.689426 59.674562 
L 206.755231 57.248726 
L 206.853932 63.153065 
L 206.788127 56.158261 
L 206.870387 59.017906 
L 206.903283 60.325768 
L 206.969088 45.51392 
L 207.067802 64.974894 
L 207.100699 64.849168 
L 207.117153 64.576323 
L 207.363906 42.695651 
L 207.446166 51.654378 
L 207.46262 48.27909 
L 207.528426 37.174867 
L 207.561322 52.064298 
L 207.577776 52.960481 
L 207.627127 50.252856 
L 207.791634 32.951871 
L 207.676478 51.727137 
L 207.808088 33.313798 
L 207.840984 45.428924 
L 207.923244 42.119685 
L 208.021945 52.156605 
L 208.071296 50.912469 
L 208.202906 61.266475 
L 208.219361 65.040881 
L 208.30162 61.773438 
L 208.318062 61.343299 
L 208.334517 62.651038 
L 208.350971 64.044537 
L 208.383867 59.714784 
L 208.400322 62.750712 
L 208.449672 56.102465 
L 208.499023 64.239147 
L 208.515478 62.564996 
L 208.548374 68.798555 
L 208.647088 77.720346 
L 208.679984 77.678233 
L 208.762244 69.01992 
L 208.79514 74.169878 
L 208.828049 70.823831 
L 208.844491 67.452183 
L 208.910296 74.599048 
L 208.92675 74.610808 
L 208.976101 70.257314 
L 209.041906 70.918542 
L 209.140608 78.348232 
L 209.173516 75.08974 
L 209.189958 74.001274 
L 209.206413 77.815585 
L 209.239322 77.420209 
L 209.288672 86.618535 
L 209.387374 86.467674 
L 209.50253 72.720383 
L 209.55188 76.705604 
L 209.650594 69.387639 
L 209.667036 72.069392 
L 209.732841 83.976825 
L 209.716387 71.503776 
L 209.782192 80.183005 
L 209.798646 79.956601 
L 209.815101 80.273205 
L 209.963153 90.370908 
L 209.979607 87.820987 
L 210.028958 83.288575 
L 210.094763 84.933126 
L 210.209919 95.699846 
L 210.226374 94.463672 
L 210.25927 91.633222 
L 210.30862 95.223466 
L 210.325075 96.642449 
L 210.341529 94.02205 
L 210.489581 82.758353 
L 210.52249 80.651618 
L 210.588295 80.932772 
" clip-path="url(#pfeff1ec250)" style="fill: none; stroke: #d55e00; stroke-width: 1.25; stroke-linecap: square"/>
   </g>
   <g id="patch_4">
    <path d="M 37.85375 131.718516 
L 37.85375 20.418516 
" style="fill: none; stroke: #000000; stroke-width: 0.8; stroke-linejoin: miter; stroke-linecap: square"/>
   </g>
   <g id="patch_5">
    <path d="M 37.85375 131.718516 
L 218.81375 131.718516 
" style="fill: none; stroke: #000000; stroke-width: 0.8; stroke-linejoin: miter; stroke-linecap: square"/>
   </g>
   <g id="text_14">
    <!-- drugs3003 rep3 -->
    <g transform="translate(90.460664 14.418516) scale(0.095 -0.095)">
     <defs>
      <path id="DejaVuSans-72" d="M 2631 2963 
Q 2534 3019 2420 3045 
Q 2306 3072 2169 3072 
Q 1681 3072 1420 2755 
Q 1159 2438 1159 1844 
L 1159 0 
L 581 0 
L 581 3500 
L 1159 3500 
L 1159 2956 
Q 1341 3275 1631 3429 
Q 1922 3584 2338 3584 
Q 2397 3584 2469 3576 
Q 2541 3569 2628 3553 
L 2631 2963 
z
" transform="scale(0.015625)"/>
      <path id="DejaVuSans-75" d="M 544 1381 
L 544 3500 
L 1119 3500 
L 1119 1403 
Q 1119 906 1312 657 
Q 1506 409 1894 409 
Q 2359 409 2629 706 
Q 2900 1003 2900 1516 
L 2900 3500 
L 3475 3500 
L 3475 0 
L 2900 0 
L 2900 538 
Q 2691 219 2414 64 
Q 2138 -91 1772 -91 
Q 1169 -91 856 284 
Q 544 659 544 1381 
z
M 1991 3584 
L 1991 3584 
z
" transform="scale(0.015625)"/>
      <path id="DejaVuSans-33" d="M 2597 2516 
Q 3050 2419 3304 2112 
Q 3559 1806 3559 1356 
Q 3559 666 3084 287 
Q 2609 -91 1734 -91 
Q 1441 -91 1130 -33 
Q 819 25 488 141 
L 488 750 
Q 750 597 1062 519 
Q 1375 441 1716 441 
Q 2309 441 2620 675 
Q 2931 909 2931 1356 
Q 2931 1769 2642 2001 
Q 2353 2234 1838 2234 
L 1294 2234 
L 1294 2753 
L 1863 2753 
Q 2328 2753 2575 2939 
Q 2822 3125 2822 3475 
Q 2822 3834 2567 4026 
Q 2313 4219 1838 4219 
Q 1578 4219 1281 4162 
Q 984 4106 628 3988 
L 628 4550 
Q 988 4650 1302 4700 
Q 1616 4750 1894 4750 
Q 2613 4750 3031 4423 
Q 3450 4097 3450 3541 
Q 3450 3153 3228 2886 
Q 3006 2619 2597 2516 
z
" transform="scale(0.015625)"/>
      <path id="DejaVuSans-70" d="M 1159 525 
L 1159 -1331 
L 581 -1331 
L 581 3500 
L 1159 3500 
L 1159 2969 
Q 1341 3281 1617 3432 
Q 1894 3584 2278 3584 
Q 2916 3584 3314 3078 
Q 3713 2572 3713 1747 
Q 3713 922 3314 415 
Q 2916 -91 2278 -91 
Q 1894 -91 1617 61 
Q 1341 213 1159 525 
z
M 3116 1747 
Q 3116 2381 2855 2742 
Q 2594 3103 2138 3103 
Q 1681 3103 1420 2742 
Q 1159 2381 1159 1747 
Q 1159 1113 1420 752 
Q 1681 391 2138 391 
Q 2594 391 2855 752 
Q 3116 1113 3116 1747 
z
" transform="scale(0.015625)"/>
     </defs>
     <use xlink:href="#DejaVuSans-64"/>
     <use xlink:href="#DejaVuSans-72" transform="translate(63.476562 0)"/>
     <use xlink:href="#DejaVuSans-75" transform="translate(104.589844 0)"/>
     <use xlink:href="#DejaVuSans-67" transform="translate(167.96875 0)"/>
     <use xlink:href="#DejaVuSans-73" transform="translate(231.445312 0)"/>
     <use xlink:href="#DejaVuSans-33" transform="translate(283.544922 0)"/>
     <use xlink:href="#DejaVuSans-30" transform="translate(347.167969 0)"/>
     <use xlink:href="#DejaVuSans-30" transform="translate(410.791016 0)"/>
     <use xlink:href="#DejaVuSans-33" transform="translate(474.414062 0)"/>
     <use xlink:href="#DejaVuSans-20" transform="translate(538.037109 0)"/>
     <use xlink:href="#DejaVuSans-72" transform="translate(569.824219 0)"/>
     <use xlink:href="#DejaVuSans-65" transform="translate(608.6875 0)"/>
     <use xlink:href="#DejaVuSans-70" transform="translate(670.210938 0)"/>
     <use xlink:href="#DejaVuSans-33" transform="translate(733.6875 0)"/>
    </g>
   </g>
  </g>
 </g>
 <defs>
  <clipPath id="pfeff1ec250">
   <rect x="37.85375" y="20.418516" width="180.96" height="111.3"/>
  </clipPath>
 </defs>
</svg>
