<?xml version="1.0" encoding="utf-8" standalone="no"?>
<!DOCTYPE svg PUBLIC "-//W3C//DTD SVG 1.1//EN"
  "http://www.w3.org/Graphics/SVG/1.1/DTD/svg11.dtd">
<svg xmlns:xlink="http://www.w3.org/1999/xlink" width="221.21375pt" height="164.903516pt" viewBox="0 0 221.21375 164.903516" xmlns="http://www.w3.org/2000/svg" version="1.1">
 <metadata>
  <rdf:RDF xmlns:dc="http://purl.org/dc/elements/1.1/" xmlns:cc="http://creativecommons.org/ns#" xmlns:rdf="http://www.w3.org/1999/02/22-rdf-syntax-ns#">
   <cc:Work>
    <dc:type rdf:resource="http://purl.org/dc/dcmitype/StillImage"/>
    <dc:date>2026-05-24T13:53:57.290122</dc:date>
    <dc:format>image/svg+xml</dc:format>
    <dc:creator>
     <cc:Agent>
      <dc:title>Matplotlib v3.10.9, https://matplotlib.org/</dc:title>
     </cc:Agent>
    </dc:creator>
   </cc:Work>
  </rdf:RDF>
 </metadata>
 <defs>
  <style type="text/css">*{stroke-linejoin: round; stroke-linecap: butt}</style>
 </defs>
 <g id="figure_1">
  <g id="patch_1">
   <path d="M 0 164.903516 
L 221.21375 164.903516 
L 221.21375 0 
L 0 0 
z
" style="fill: #ffffff"/>
  </g>
  <g id="axes_1">
   <g id="patch_2">
    <path d="M 37.85375 131.718516 
L 214.01375 131.718516 
L 214.01375 20.418516 
L 37.85375 20.418516 
z
" style="fill: #ffffff"/>
   </g>
   <g id="patch_3">
    <path d="M 125.933744 131.718516 
L 206.006465 131.718516 
L 206.006465 20.418516 
L 125.933744 20.418516 
z
" clip-path="url(#p76958c3f0c)" style="fill: #bdbdbd; opacity: 0.18"/>
   </g>
   <g id="matplotlib.axis_1">
    <g id="xtick_1">
     <g id="line2d_1">
      <defs>
       <path id="m539569d650" d="M 0 0 
L 0 3 
" style="stroke: #000000; stroke-width: 0.7"/>
      </defs>
      <g>
       <use xlink:href="#m539569d650" x="45.861023" y="131.718516" style="stroke: #000000; stroke-width: 0.7"/>
      </g>
     </g>
     <g id="text_1">
      <!-- 0 -->
      <g transform="translate(43.475085 143.917344) scale(0.075 -0.075)">
       <defs>
        <path id="DejaVuSans-30" d="M 2034 4250 
Q 1547 4250 1301 3770 
Q 1056 3291 1056 2328 
Q 1056 1369 1301 889 
Q 1547 409 2034 409 
Q 2525 409 2770 889 
Q 3016 1369 3016 2328 
Q 3016 3291 2770 3770 
Q 2525 4250 2034 4250 
z
M 2034 4750 
Q 2819 4750 3233 4129 
Q 3647 3509 3647 2328 
Q 3647 1150 3233 529 
Q 2819 -91 2034 -91 
Q 1250 -91 836 529 
Q 422 1150 422 2328 
Q 422 3509 836 4129 
Q 1250 4750 2034 4750 
z
" transform="scale(0.015625)"/>
       </defs>
       <use xlink:href="#DejaVuSans-30"/>
      </g>
     </g>
    </g>
    <g id="xtick_2">
     <g id="line2d_2">
      <g>
       <use xlink:href="#m539569d650" x="77.890111" y="131.718516" style="stroke: #000000; stroke-width: 0.7"/>
      </g>
     </g>
     <g id="text_2">
      <!-- 20 -->
      <g transform="translate(73.118236 143.917344) scale(0.075 -0.075)">
       <defs>
        <path id="DejaVuSans-32" d="M 1228 531 
L 3431 531 
L 3431 0 
L 469 0 
L 469 531 
Q 828 903 1448 1529 
Q 2069 2156 2228 2338 
Q 2531 2678 2651 2914 
Q 2772 3150 2772 3378 
Q 2772 3750 2511 3984 
Q 2250 4219 1831 4219 
Q 1534 4219 1204 4116 
Q 875 4013 500 3803 
L 500 4441 
Q 881 4594 1212 4672 
Q 1544 4750 1819 4750 
Q 2544 4750 2975 4387 
Q 3406 4025 3406 3419 
Q 3406 3131 3298 2873 
Q 3191 2616 2906 2266 
Q 2828 2175 2409 1742 
Q 1991 1309 1228 531 
z
" transform="scale(0.015625)"/>
       </defs>
       <use xlink:href="#DejaVuSans-32"/>
       <use xlink:href="#DejaVuSans-30" transform="translate(63.623047 0)"/>
      </g>
     </g>
    </g>
    <g id="xtick_3">
     <g id="line2d_3">
      <g>
       <use xlink:href="#m539569d650" x="109.9192" y="131.718516" style="stroke: #000000; stroke-width: 0.7"/>
      </g>
     </g>
     <g id="text_3">
      <!-- 40 -->
      <g transform="translate(105.147325 143.917344) scale(0.075 -0.075)">
       <defs>
        <path id="DejaVuSans-34" d="M 2419 4116 
L 825 1625 
L 2419 1625 
L 2419 4116 
z
M 2253 4666 
L 3047 4666 
L 3047 1625 
L 3713 1625 
L 3713 1100 
L 3047 1100 
L 3047 0 
L 2419 0 
L 2419 1100 
L 313 1100 
L 313 1709 
L 2253 4666 
z
" transform="scale(0.015625)"/>
       </defs>
       <use xlink:href="#DejaVuSans-34"/>
       <use xlink:href="#DejaVuSans-30" transform="translate(63.623047 0)"/>
      </g>
     </g>
    </g>
    <g id="xtick_4">
     <g id="line2d_4">
      <g>
       <use xlink:href="#m539569d650" x="141.948288" y="131.718516" style="stroke: #000000; stroke-width: 0.7"/>
      </g>
     </g>
     <g id="text_4">
      <!-- 60 -->
      <g transform="translate(137.176413 143.917344) scale(0.075 -0.075)">
       <defs>
        <path id="DejaVuSans-36" d="M 2113 2584 
Q 1688 2584 1439 2293 
Q 1191 2003 1191 1497 
Q 1191 994 1439 701 
Q 1688 409 2113 409 
Q 2538 409 2786 701 
Q 3034 994 3034 1497 
Q 3034 2003 2786 2293 
Q 2538 2584 2113 2584 
z
M 3366 4563 
L 3366 3988 
Q 3128 4100 2886 4159 
Q 2644 4219 2406 4219 
Q 1781 4219 1451 3797 
Q 1122 3375 1075 2522 
Q 1259 2794 1537 2939 
Q 1816 3084 2150 3084 
Q 2853 3084 3261 2657 
Q 3669 2231 3669 1497 
Q 3669 778 3244 343 
Q 2819 -91 2113 -91 
Q 1303 -91 875 529 
Q 447 1150 447 2328 
Q 447 3434 972 4092 
Q 1497 4750 2381 4750 
Q 2619 4750 2861 4703 
Q 3103 4656 3366 4563 
z
" transform="scale(0.015625)"/>
       </defs>
       <use xlink:href="#DejaVuSans-36"/>
       <use xlink:href="#DejaVuSans-30" transform="translate(63.623047 0)"/>
      </g>
     </g>
    </g>
    <g id="xtick_5">
     <g id="line2d_5">
      <g>
       <use xlink:href="#m539569d650" x="173.977377" y="131.718516" style="stroke: #000000; stroke-width: 0.7"/>
      </g>
     </g>
     <g id="text_5">
      <!-- 80 -->
      <g transform="translate(169.205502 143.917344) scale(0.075 -0.075)">
       <defs>
        <path id="DejaVuSans-38" d="M 2034 2216 
Q 1584 2216 1326 1975 
Q 1069 1734 1069 1313 
Q 1069 891 1326 650 
Q 1584 409 2034 409 
Q 2484 409 2743 651 
Q 3003 894 3003 1313 
Q 3003 1734 2745 1975 
Q 2488 2216 2034 2216 
z
M 1403 2484 
Q 997 2584 770 2862 
Q 544 3141 544 3541 
Q 544 4100 942 4425 
Q 1341 4750 2034 4750 
Q 2731 4750 3128 4425 
Q 3525 4100 3525 3541 
Q 3525 3141 3298 2862 
Q 3072 2584 2669 2484 
Q 3125 2378 3379 2068 
Q 3634 1759 3634 1313 
Q 3634 634 3220 271 
Q 2806 -91 2034 -91 
Q 1263 -91 848 271 
Q 434 634 434 1313 
Q 434 1759 690 2068 
Q 947 2378 1403 2484 
z
M 1172 3481 
Q 1172 3119 1398 2916 
Q 1625 2713 2034 2713 
Q 2441 2713 2670 2916 
Q 2900 3119 2900 3481 
Q 2900 3844 2670 4047 
Q 2441 4250 2034 4250 
Q 1625 4250 1398 4047 
Q 1172 3844 1172 3481 
z
" transform="scale(0.015625)"/>
       </defs>
       <use xlink:href="#DejaVuSans-38"/>
       <use xlink:href="#DejaVuSans-30" transform="translate(63.623047 0)"/>
      </g>
     </g>
    </g>
    <g id="xtick_6">
     <g id="line2d_6">
      <g>
       <use xlink:href="#m539569d650" x="206.006465" y="131.718516" style="stroke: #000000; stroke-width: 0.7"/>
      </g>
     </g>
     <g id="text_6">
      <!-- 100 -->
      <g transform="translate(198.848653 143.917344) scale(0.075 -0.075)">
       <defs>
        <path id="DejaVuSans-31" d="M 794 531 
L 1825 531 
L 1825 4091 
L 703 3866 
L 703 4441 
L 1819 4666 
L 2450 4666 
L 2450 531 
L 3481 531 
L 3481 0 
L 794 0 
L 794 531 
z
" transform="scale(0.015625)"/>
       </defs>
       <use xlink:href="#DejaVuSans-31"/>
       <use xlink:href="#DejaVuSans-30" transform="translate(63.623047 0)"/>
       <use xlink:href="#DejaVuSans-30" transform="translate(127.246094 0)"/>
      </g>
     </g>
    </g>
    <g id="text_7">
     <!-- Time (ns) -->
     <g transform="translate(105.960742 155.935781) scale(0.085 -0.085)">
      <defs>
       <path id="DejaVuSans-54" d="M -19 4666 
L 3928 4666 
L 3928 4134 
L 2272 4134 
L 2272 0 
L 1638 0 
L 1638 4134 
L -19 4134 
L -19 4666 
z
" transform="scale(0.015625)"/>
       <path id="DejaVuSans-69" d="M 603 3500 
L 1178 3500 
L 1178 0 
L 603 0 
L 603 3500 
z
M 603 4863 
L 1178 4863 
L 1178 4134 
L 603 4134 
L 603 4863 
z
" transform="scale(0.015625)"/>
       <path id="DejaVuSans-6d" d="M 3328 2828 
Q 3544 3216 3844 3400 
Q 4144 3584 4550 3584 
Q 5097 3584 5394 3201 
Q 5691 2819 5691 2113 
L 5691 0 
L 5113 0 
L 5113 2094 
Q 5113 2597 4934 2840 
Q 4756 3084 4391 3084 
Q 3944 3084 3684 2787 
Q 3425 2491 3425 1978 
L 3425 0 
L 2847 0 
L 2847 2094 
Q 2847 2600 2669 2842 
Q 2491 3084 2119 3084 
Q 1678 3084 1418 2786 
Q 1159 2488 1159 1978 
L 1159 0 
L 581 0 
L 581 3500 
L 1159 3500 
L 1159 2956 
Q 1356 3278 1631 3431 
Q 1906 3584 2284 3584 
Q 2666 3584 2933 3390 
Q 3200 3197 3328 2828 
z
" transform="scale(0.015625)"/>
       <path id="DejaVuSans-65" d="M 3597 1894 
L 3597 1613 
L 953 1613 
Q 991 1019 1311 708 
Q 1631 397 2203 397 
Q 2534 397 2845 478 
Q 3156 559 3463 722 
L 3463 178 
Q 3153 47 2828 -22 
Q 2503 -91 2169 -91 
Q 1331 -91 842 396 
Q 353 884 353 1716 
Q 353 2575 817 3079 
Q 1281 3584 2069 3584 
Q 2775 3584 3186 3129 
Q 3597 2675 3597 1894 
z
M 3022 2063 
Q 3016 2534 2758 2815 
Q 2500 3097 2075 3097 
Q 1594 3097 1305 2825 
Q 1016 2553 972 2059 
L 3022 2063 
z
" transform="scale(0.015625)"/>
       <path id="DejaVuSans-20" transform="scale(0.015625)"/>
       <path id="DejaVuSans-28" d="M 1984 4856 
Q 1566 4138 1362 3434 
Q 1159 2731 1159 2009 
Q 1159 1288 1364 580 
Q 1569 -128 1984 -844 
L 1484 -844 
Q 1016 -109 783 600 
Q 550 1309 550 2009 
Q 550 2706 781 3412 
Q 1013 4119 1484 4856 
L 1984 4856 
z
" transform="scale(0.015625)"/>
       <path id="DejaVuSans-6e" d="M 3513 2113 
L 3513 0 
L 2938 0 
L 2938 2094 
Q 2938 2591 2744 2837 
Q 2550 3084 2163 3084 
Q 1697 3084 1428 2787 
Q 1159 2491 1159 1978 
L 1159 0 
L 581 0 
L 581 3500 
L 1159 3500 
L 1159 2956 
Q 1366 3272 1645 3428 
Q 1925 3584 2291 3584 
Q 2894 3584 3203 3211 
Q 3513 2838 3513 2113 
z
" transform="scale(0.015625)"/>
       <path id="DejaVuSans-73" d="M 2834 3397 
L 2834 2853 
Q 2591 2978 2328 3040 
Q 2066 3103 1784 3103 
Q 1356 3103 1142 2972 
Q 928 2841 928 2578 
Q 928 2378 1081 2264 
Q 1234 2150 1697 2047 
L 1894 2003 
Q 2506 1872 2764 1633 
Q 3022 1394 3022 966 
Q 3022 478 2636 193 
Q 2250 -91 1575 -91 
Q 1294 -91 989 -36 
Q 684 19 347 128 
L 347 722 
Q 666 556 975 473 
Q 1284 391 1588 391 
Q 1994 391 2212 530 
Q 2431 669 2431 922 
Q 2431 1156 2273 1281 
Q 2116 1406 1581 1522 
L 1381 1569 
Q 847 1681 609 1914 
Q 372 2147 372 2553 
Q 372 3047 722 3315 
Q 1072 3584 1716 3584 
Q 2034 3584 2315 3537 
Q 2597 3491 2834 3397 
z
" transform="scale(0.015625)"/>
       <path id="DejaVuSans-29" d="M 513 4856 
L 1013 4856 
Q 1481 4119 1714 3412 
Q 1947 2706 1947 2009 
Q 1947 1309 1714 600 
Q 1481 -109 1013 -844 
L 513 -844 
Q 928 -128 1133 580 
Q 1338 1288 1338 2009 
Q 1338 2731 1133 3434 
Q 928 4138 513 4856 
z
" transform="scale(0.015625)"/>
      </defs>
      <use xlink:href="#DejaVuSans-54"/>
      <use xlink:href="#DejaVuSans-69" transform="translate(57.958984 0)"/>
      <use xlink:href="#DejaVuSans-6d" transform="translate(85.742188 0)"/>
      <use xlink:href="#DejaVuSans-65" transform="translate(183.154297 0)"/>
      <use xlink:href="#DejaVuSans-20" transform="translate(244.677734 0)"/>
      <use xlink:href="#DejaVuSans-28" transform="translate(276.464844 0)"/>
      <use xlink:href="#DejaVuSans-6e" transform="translate(315.478516 0)"/>
      <use xlink:href="#DejaVuSans-73" transform="translate(378.857422 0)"/>
      <use xlink:href="#DejaVuSans-29" transform="translate(430.957031 0)"/>
     </g>
    </g>
   </g>
   <g id="matplotlib.axis_2">
    <g id="ytick_1">
     <g id="line2d_7">
      <defs>
       <path id="m7ae7303ca6" d="M 0 0 
L -3 0 
" style="stroke: #000000; stroke-width: 0.7"/>
      </defs>
      <g>
       <use xlink:href="#m7ae7303ca6" x="37.85375" y="126.689817" style="stroke: #000000; stroke-width: 0.7"/>
      </g>
     </g>
     <g id="text_8">
      <!-- 0.0 -->
      <g transform="translate(19.426406 129.539231) scale(0.075 -0.075)">
       <defs>
        <path id="DejaVuSans-2e" d="M 684 794 
L 1344 794 
L 1344 0 
L 684 0 
L 684 794 
z
" transform="scale(0.015625)"/>
       </defs>
       <use xlink:href="#DejaVuSans-30"/>
       <use xlink:href="#DejaVuSans-2e" transform="translate(63.623047 0)"/>
       <use xlink:href="#DejaVuSans-30" transform="translate(95.410156 0)"/>
      </g>
     </g>
    </g>
    <g id="ytick_2">
     <g id="line2d_8">
      <g>
       <use xlink:href="#m7ae7303ca6" x="37.85375" y="96.139127" style="stroke: #000000; stroke-width: 0.7"/>
      </g>
     </g>
     <g id="text_9">
      <!-- 0.5 -->
      <g transform="translate(19.426406 98.988541) scale(0.075 -0.075)">
       <defs>
        <path id="DejaVuSans-35" d="M 691 4666 
L 3169 4666 
L 3169 4134 
L 1269 4134 
L 1269 2991 
Q 1406 3038 1543 3061 
Q 1681 3084 1819 3084 
Q 2600 3084 3056 2656 
Q 3513 2228 3513 1497 
Q 3513 744 3044 326 
Q 2575 -91 1722 -91 
Q 1428 -91 1123 -41 
Q 819 9 494 109 
L 494 744 
Q 775 591 1075 516 
Q 1375 441 1709 441 
Q 2250 441 2565 725 
Q 2881 1009 2881 1497 
Q 2881 1984 2565 2268 
Q 2250 2553 1709 2553 
Q 1456 2553 1204 2497 
Q 953 2441 691 2322 
L 691 4666 
z
" transform="scale(0.015625)"/>
       </defs>
       <use xlink:href="#DejaVuSans-30"/>
       <use xlink:href="#DejaVuSans-2e" transform="translate(63.623047 0)"/>
       <use xlink:href="#DejaVuSans-35" transform="translate(95.410156 0)"/>
      </g>
     </g>
    </g>
    <g id="ytick_3">
     <g id="line2d_9">
      <g>
       <use xlink:href="#m7ae7303ca6" x="37.85375" y="65.588438" style="stroke: #000000; stroke-width: 0.7"/>
      </g>
     </g>
     <g id="text_10">
      <!-- 1.0 -->
      <g transform="translate(19.426406 68.437852) scale(0.075 -0.075)">
       <use xlink:href="#DejaVuSans-31"/>
       <use xlink:href="#DejaVuSans-2e" transform="translate(63.623047 0)"/>
       <use xlink:href="#DejaVuSans-30" transform="translate(95.410156 0)"/>
      </g>
     </g>
    </g>
    <g id="ytick_4">
     <g id="line2d_10">
      <g>
       <use xlink:href="#m7ae7303ca6" x="37.85375" y="35.037748" style="stroke: #000000; stroke-width: 0.7"/>
      </g>
     </g>
     <g id="text_11">
      <!-- 1.5 -->
      <g transform="translate(19.426406 37.887162) scale(0.075 -0.075)">
       <use xlink:href="#DejaVuSans-31"/>
       <use xlink:href="#DejaVuSans-2e" transform="translate(63.623047 0)"/>
       <use xlink:href="#DejaVuSans-35" transform="translate(95.410156 0)"/>
      </g>
     </g>
    </g>
    <g id="text_12">
     <!-- Backbone RMSD (nm) -->
     <g transform="translate(13.658672 122.435352) rotate(-90) scale(0.085 -0.085)">
      <defs>
       <path id="DejaVuSans-42" d="M 1259 2228 
L 1259 519 
L 2272 519 
Q 2781 519 3026 730 
Q 3272 941 3272 1375 
Q 3272 1813 3026 2020 
Q 2781 2228 2272 2228 
L 1259 2228 
z
M 1259 4147 
L 1259 2741 
L 2194 2741 
Q 2656 2741 2882 2914 
Q 3109 3088 3109 3444 
Q 3109 3797 2882 3972 
Q 2656 4147 2194 4147 
L 1259 4147 
z
M 628 4666 
L 2241 4666 
Q 2963 4666 3353 4366 
Q 3744 4066 3744 3513 
Q 3744 3084 3544 2831 
Q 3344 2578 2956 2516 
Q 3422 2416 3680 2098 
Q 3938 1781 3938 1306 
Q 3938 681 3513 340 
Q 3088 0 2303 0 
L 628 0 
L 628 4666 
z
" transform="scale(0.015625)"/>
       <path id="DejaVuSans-61" d="M 2194 1759 
Q 1497 1759 1228 1600 
Q 959 1441 959 1056 
Q 959 750 1161 570 
Q 1363 391 1709 391 
Q 2188 391 2477 730 
Q 2766 1069 2766 1631 
L 2766 1759 
L 2194 1759 
z
M 3341 1997 
L 3341 0 
L 2766 0 
L 2766 531 
Q 2569 213 2275 61 
Q 1981 -91 1556 -91 
Q 1019 -91 701 211 
Q 384 513 384 1019 
Q 384 1609 779 1909 
Q 1175 2209 1959 2209 
L 2766 2209 
L 2766 2266 
Q 2766 2663 2505 2880 
Q 2244 3097 1772 3097 
Q 1472 3097 1187 3025 
Q 903 2953 641 2809 
L 641 3341 
Q 956 3463 1253 3523 
Q 1550 3584 1831 3584 
Q 2591 3584 2966 3190 
Q 3341 2797 3341 1997 
z
" transform="scale(0.015625)"/>
       <path id="DejaVuSans-63" d="M 3122 3366 
L 3122 2828 
Q 2878 2963 2633 3030 
Q 2388 3097 2138 3097 
Q 1578 3097 1268 2742 
Q 959 2388 959 1747 
Q 959 1106 1268 751 
Q 1578 397 2138 397 
Q 2388 397 2633 464 
Q 2878 531 3122 666 
L 3122 134 
Q 2881 22 2623 -34 
Q 2366 -91 2075 -91 
Q 1284 -91 818 406 
Q 353 903 353 1747 
Q 353 2603 823 3093 
Q 1294 3584 2113 3584 
Q 2378 3584 2631 3529 
Q 2884 3475 3122 3366 
z
" transform="scale(0.015625)"/>
       <path id="DejaVuSans-6b" d="M 581 4863 
L 1159 4863 
L 1159 1991 
L 2875 3500 
L 3609 3500 
L 1753 1863 
L 3688 0 
L 2938 0 
L 1159 1709 
L 1159 0 
L 581 0 
L 581 4863 
z
" transform="scale(0.015625)"/>
       <path id="DejaVuSans-62" d="M 3116 1747 
Q 3116 2381 2855 2742 
Q 2594 3103 2138 3103 
Q 1681 3103 1420 2742 
Q 1159 2381 1159 1747 
Q 1159 1113 1420 752 
Q 1681 391 2138 391 
Q 2594 391 2855 752 
Q 3116 1113 3116 1747 
z
M 1159 2969 
Q 1341 3281 1617 3432 
Q 1894 3584 2278 3584 
Q 2916 3584 3314 3078 
Q 3713 2572 3713 1747 
Q 3713 922 3314 415 
Q 2916 -91 2278 -91 
Q 1894 -91 1617 61 
Q 1341 213 1159 525 
L 1159 0 
L 581 0 
L 581 4863 
L 1159 4863 
L 1159 2969 
z
" transform="scale(0.015625)"/>
       <path id="DejaVuSans-6f" d="M 1959 3097 
Q 1497 3097 1228 2736 
Q 959 2375 959 1747 
Q 959 1119 1226 758 
Q 1494 397 1959 397 
Q 2419 397 2687 759 
Q 2956 1122 2956 1747 
Q 2956 2369 2687 2733 
Q 2419 3097 1959 3097 
z
M 1959 3584 
Q 2709 3584 3137 3096 
Q 3566 2609 3566 1747 
Q 3566 888 3137 398 
Q 2709 -91 1959 -91 
Q 1206 -91 779 398 
Q 353 888 353 1747 
Q 353 2609 779 3096 
Q 1206 3584 1959 3584 
z
" transform="scale(0.015625)"/>
       <path id="DejaVuSans-52" d="M 2841 2188 
Q 3044 2119 3236 1894 
Q 3428 1669 3622 1275 
L 4263 0 
L 3584 0 
L 2988 1197 
Q 2756 1666 2539 1819 
Q 2322 1972 1947 1972 
L 1259 1972 
L 1259 0 
L 628 0 
L 628 4666 
L 2053 4666 
Q 2853 4666 3247 4331 
Q 3641 3997 3641 3322 
Q 3641 2881 3436 2590 
Q 3231 2300 2841 2188 
z
M 1259 4147 
L 1259 2491 
L 2053 2491 
Q 2509 2491 2742 2702 
Q 2975 2913 2975 3322 
Q 2975 3731 2742 3939 
Q 2509 4147 2053 4147 
L 1259 4147 
z
" transform="scale(0.015625)"/>
       <path id="DejaVuSans-4d" d="M 628 4666 
L 1569 4666 
L 2759 1491 
L 3956 4666 
L 4897 4666 
L 4897 0 
L 4281 0 
L 4281 4097 
L 3078 897 
L 2444 897 
L 1241 4097 
L 1241 0 
L 628 0 
L 628 4666 
z
" transform="scale(0.015625)"/>
       <path id="DejaVuSans-53" d="M 3425 4513 
L 3425 3897 
Q 3066 4069 2747 4153 
Q 2428 4238 2131 4238 
Q 1616 4238 1336 4038 
Q 1056 3838 1056 3469 
Q 1056 3159 1242 3001 
Q 1428 2844 1947 2747 
L 2328 2669 
Q 3034 2534 3370 2195 
Q 3706 1856 3706 1288 
Q 3706 609 3251 259 
Q 2797 -91 1919 -91 
Q 1588 -91 1214 -16 
Q 841 59 441 206 
L 441 856 
Q 825 641 1194 531 
Q 1563 422 1919 422 
Q 2459 422 2753 634 
Q 3047 847 3047 1241 
Q 3047 1584 2836 1778 
Q 2625 1972 2144 2069 
L 1759 2144 
Q 1053 2284 737 2584 
Q 422 2884 422 3419 
Q 422 4038 858 4394 
Q 1294 4750 2059 4750 
Q 2388 4750 2728 4690 
Q 3069 4631 3425 4513 
z
" transform="scale(0.015625)"/>
       <path id="DejaVuSans-44" d="M 1259 4147 
L 1259 519 
L 2022 519 
Q 2988 519 3436 956 
Q 3884 1394 3884 2338 
Q 3884 3275 3436 3711 
Q 2988 4147 2022 4147 
L 1259 4147 
z
M 628 4666 
L 1925 4666 
Q 3281 4666 3915 4102 
Q 4550 3538 4550 2338 
Q 4550 1131 3912 565 
Q 3275 0 1925 0 
L 628 0 
L 628 4666 
z
" transform="scale(0.015625)"/>
      </defs>
      <use xlink:href="#DejaVuSans-42"/>
      <use xlink:href="#DejaVuSans-61" transform="translate(68.603516 0)"/>
      <use xlink:href="#DejaVuSans-63" transform="translate(129.882812 0)"/>
      <use xlink:href="#DejaVuSans-6b" transform="translate(184.863281 0)"/>
      <use xlink:href="#DejaVuSans-62" transform="translate(242.773438 0)"/>
      <use xlink:href="#DejaVuSans-6f" transform="translate(306.25 0)"/>
      <use xlink:href="#DejaVuSans-6e" transform="translate(367.431641 0)"/>
      <use xlink:href="#DejaVuSans-65" transform="translate(430.810547 0)"/>
      <use xlink:href="#DejaVuSans-20" transform="translate(492.333984 0)"/>
      <use xlink:href="#DejaVuSans-52" transform="translate(524.121094 0)"/>
      <use xlink:href="#DejaVuSans-4d" transform="translate(593.603516 0)"/>
      <use xlink:href="#DejaVuSans-53" transform="translate(679.882812 0)"/>
      <use xlink:href="#DejaVuSans-44" transform="translate(743.359375 0)"/>
      <use xlink:href="#DejaVuSans-20" transform="translate(820.361328 0)"/>
      <use xlink:href="#DejaVuSans-28" transform="translate(852.148438 0)"/>
      <use xlink:href="#DejaVuSans-6e" transform="translate(891.162109 0)"/>
      <use xlink:href="#DejaVuSans-6d" transform="translate(954.541016 0)"/>
      <use xlink:href="#DejaVuSans-29" transform="translate(1051.953125 0)"/>
     </g>
    </g>
   </g>
   <g id="line2d_11">
    <path d="M 45.861023 126.659425 
L 46.005154 103.883348 
L 46.037183 102.131877 
L 46.069212 106.171668 
L 46.085226 105.997169 
L 46.117255 108.301198 
L 46.181314 104.910444 
L 46.30943 100.57114 
L 46.245372 105.422205 
L 46.325445 101.0709 
L 46.341459 102.31325 
L 46.357474 99.868022 
L 46.405517 102.229389 
L 46.565663 90.738779 
L 46.629721 90.193566 
L 46.725808 94.745069 
L 46.933997 83.046049 
L 46.966026 84.152809 
L 46.982041 84.459556 
L 46.998055 83.29167 
L 47.206244 73.706978 
L 47.254288 77.131832 
L 47.286317 79.632339 
L 47.334361 76.112105 
L 47.462477 72.315858 
L 47.558565 78.146445 
L 47.590594 77.695914 
L 47.702695 73.294519 
L 47.654652 77.754235 
L 47.750739 76.235695 
L 47.782768 77.824875 
L 47.830812 77.766401 
L 47.862841 75.372382 
L 47.926899 78.45194 
L 47.942914 80.334492 
L 48.006972 76.424535 
L 48.135088 61.885108 
L 48.183132 62.004628 
L 48.199146 60.914176 
L 48.24719 64.708126 
L 48.263205 63.622079 
L 48.375306 67.907241 
L 48.391321 67.893444 
L 48.455379 66.19779 
L 48.439365 68.338806 
L 48.471394 66.708951 
L 48.583495 69.611078 
L 48.679583 64.783128 
L 48.743641 65.375292 
L 48.839728 63.413235 
L 48.77567 65.521238 
L 48.903786 63.907252 
L 48.935815 63.573601 
L 49.047917 67.198563 
L 48.967844 63.310865 
L 49.063932 66.386287 
L 49.079946 64.479197 
L 49.144005 69.673768 
L 49.160019 69.060676 
L 49.192048 71.749601 
L 49.208063 71.196347 
L 49.224077 72.161736 
L 49.272121 69.599517 
L 49.320164 67.083332 
L 49.368208 67.928865 
L 49.48031 72.671401 
L 49.432266 66.938069 
L 49.496325 72.451088 
L 49.512339 72.224255 
L 49.528354 73.264647 
L 49.544368 73.170935 
L 49.560383 73.397524 
L 49.720528 63.185559 
L 49.736543 65.386223 
L 49.800601 62.255443 
L 49.816615 62.503997 
L 49.864659 62.018492 
L 49.880674 62.778129 
L 49.928717 67.895271 
L 50.040819 66.355266 
L 50.297052 77.813119 
L 50.36111 77.589885 
L 50.457197 73.019386 
L 50.489226 74.025976 
L 50.505241 75.081081 
L 50.553284 72.723655 
L 50.649372 70.569257 
L 50.665386 71.789452 
L 50.697415 72.048405 
L 50.745459 76.045517 
L 50.809517 73.22457 
L 50.873575 71.061337 
L 50.88959 71.558122 
L 50.985677 75.688196 
L 51.017706 75.673208 
L 51.081764 72.978753 
L 51.129808 73.644856 
L 51.161837 75.954812 
L 51.209881 73.244117 
L 51.289953 67.474075 
L 51.337997 69.384245 
L 51.354012 72.298011 
L 51.402056 68.380031 
L 51.450099 71.138251 
L 51.578215 75.394903 
L 51.482128 70.66141 
L 51.610244 74.975259 
L 51.642273 75.876511 
L 51.674302 76.829992 
L 51.706332 74.957986 
L 51.722346 75.754247 
L 51.738361 74.784195 
L 51.802419 77.505699 
L 51.882492 78.701038 
L 51.850463 76.749374 
L 51.898506 77.506946 
L 51.914521 77.42171 
L 52.026622 73.998609 
L 52.090681 76.176384 
L 52.138724 74.595899 
L 52.170754 77.002585 
L 52.250826 74.888269 
L 52.282855 75.248553 
L 52.314884 74.677763 
L 52.378943 79.077025 
L 52.426987 75.293096 
L 52.523074 71.895939 
L 52.539088 73.467069 
L 52.555103 74.257196 
L 52.603146 71.3491 
L 52.65119 71.283398 
L 52.699233 74.625411 
L 52.747277 76.539833 
L 52.779306 74.116302 
L 52.795321 73.240915 
L 52.82735 77.192659 
L 52.843364 76.533473 
L 52.859379 76.107657 
L 52.891408 77.38954 
L 52.939451 80.224222 
L 53.003509 79.432067 
L 53.099597 76.461294 
L 53.035539 79.669305 
L 53.131626 77.012666 
L 53.163656 78.407458 
L 53.195685 76.678527 
L 53.435902 69.298446 
L 53.451917 69.685542 
L 53.467931 69.607619 
L 53.483946 67.024461 
L 53.548004 70.774509 
L 53.580033 67.57774 
L 53.612062 66.682482 
L 53.740179 73.329652 
L 53.756194 72.261234 
L 53.820252 67.657385 
L 53.868295 70.313004 
L 53.996412 72.964486 
L 54.044455 72.959763 
L 54.124528 66.947589 
L 54.172571 69.102244 
L 54.316702 74.328764 
L 54.348731 73.100761 
L 54.364746 74.025347 
L 54.380761 75.331884 
L 54.396775 73.817303 
L 54.460834 73.93502 
L 54.540906 67.643888 
L 54.620979 69.433975 
L 54.636994 71.046343 
L 54.669023 68.797995 
L 54.733081 70.344209 
L 54.781124 67.671042 
L 54.829168 71.040935 
L 54.893226 71.819758 
L 54.925255 69.198466 
L 55.021343 76.323101 
L 55.053371 74.072132 
L 55.069386 70.947988 
L 55.11743 74.182292 
L 55.165474 71.93384 
L 55.197503 72.676521 
L 55.229532 71.643523 
L 55.357648 65.680762 
L 55.46975 66.124834 
L 55.597866 71.949898 
L 55.61388 71.198833 
L 55.709968 68.306258 
L 55.677939 72.154502 
L 55.741997 69.815859 
L 55.82207 72.328311 
L 55.838085 70.767391 
L 55.982215 66.913177 
L 55.886128 73.456035 
L 55.99823 68.122318 
L 56.094317 67.81488 
L 56.126346 69.93797 
L 56.190404 66.778473 
L 56.238448 67.819316 
L 56.286491 69.659482 
L 56.35055 69.307092 
L 56.510695 60.345334 
L 56.574754 63.795784 
L 56.606783 67.112984 
L 56.686855 64.109332 
L 56.750913 59.770163 
L 56.782942 63.80366 
L 56.879029 63.243452 
L 56.911058 65.802097 
L 57.055189 62.272399 
L 56.975117 66.403102 
L 57.071204 62.663001 
L 57.135263 65.758073 
L 57.151277 65.295059 
L 57.199321 61.612699 
L 57.247364 66.838053 
L 57.295408 65.218493 
L 57.311423 66.24799 
L 57.423524 70.710077 
L 57.455553 71.40067 
L 57.567655 68.43352 
L 57.583669 70.666457 
L 57.631713 67.610991 
L 57.663742 68.603913 
L 57.679757 66.286472 
L 57.775844 66.550076 
L 57.807874 68.264366 
L 57.823888 65.726753 
L 57.871932 66.257113 
L 57.887946 66.142487 
L 57.903961 66.898897 
L 57.952004 64.751764 
L 57.984033 65.82691 
L 58.016062 66.560713 
L 58.032077 65.237233 
L 58.048091 65.768815 
L 58.11215 61.83176 
L 58.192222 62.755252 
L 58.224251 62.73061 
L 58.288309 64.129819 
L 58.304324 62.724072 
L 58.368382 66.183082 
L 58.496499 72.207348 
L 58.512514 70.977072 
L 58.608601 63.96773 
L 58.688673 67.228295 
L 58.704688 67.178289 
L 58.752731 71.774396 
L 58.832804 68.655073 
L 58.864834 65.661057 
L 58.928892 68.08603 
L 58.944906 68.58265 
L 58.99295 67.066767 
L 59.040993 68.365049 
L 59.265198 63.14624 
L 59.297226 63.148507 
L 59.425342 68.901886 
L 59.569473 60.099151 
L 59.601503 62.790098 
L 59.681575 66.995101 
L 59.745633 66.473882 
L 59.841721 61.867437 
L 59.857736 64.440605 
L 59.937807 66.66172 
L 59.889764 63.45947 
L 59.985852 65.879769 
L 60.04991 67.863871 
L 60.097953 66.597319 
L 60.258099 59.674301 
L 60.274113 60.548747 
L 60.322157 58.355483 
L 60.530347 51.466449 
L 60.54636 51.604104 
L 60.562375 51.156408 
L 60.690491 59.23043 
L 60.706506 57.516023 
L 60.786579 51.655521 
L 60.834622 54.25855 
L 60.914695 53.270449 
L 61.026797 59.900688 
L 61.122885 56.786589 
L 61.058826 61.690665 
L 61.138899 57.397584 
L 61.251001 60.969497 
L 61.170928 57.006175 
L 61.283029 60.007371 
L 61.315059 58.141273 
L 61.347087 60.639073 
L 61.363102 62.604827 
L 61.411145 57.055184 
L 61.42716 58.503525 
L 61.539263 55.007164 
L 61.555276 56.866515 
L 61.571291 59.642565 
L 61.619335 54.80416 
L 61.651364 57.073606 
L 61.715422 55.729926 
L 61.747451 57.882485 
L 61.811509 61.811267 
L 61.843539 58.122503 
L 61.859554 57.316197 
L 61.907597 58.602045 
L 61.95564 57.37362 
L 61.98767 62.337301 
L 62.083756 61.141931 
L 62.195859 69.048896 
L 62.291945 66.818488 
L 62.468106 51.296617 
L 62.628251 59.254577 
L 62.644266 56.637538 
L 62.660281 56.74342 
L 62.820425 51.060821 
L 62.83644 49.915237 
L 62.884483 53.014978 
L 62.932528 58.775084 
L 62.996586 54.165895 
L 63.060644 49.507642 
L 63.108688 53.097477 
L 63.124703 54.655495 
L 63.188761 51.213697 
L 63.236804 48.143707 
L 63.412965 37.736865 
L 63.525066 40.741947 
L 63.573109 40.336173 
L 63.605139 39.277652 
L 63.765284 52.048201 
L 63.797314 50.903137 
L 63.909415 47.551262 
L 63.829342 50.951199 
L 63.941445 49.412141 
L 63.957458 49.695792 
L 64.053546 46.059154 
L 64.005503 49.776702 
L 64.085574 47.249788 
L 64.117604 48.708045 
L 64.149632 47.954085 
L 64.165647 45.805663 
L 64.229705 51.447611 
L 64.309778 47.655971 
L 64.261735 51.78175 
L 64.341808 49.976418 
L 64.45391 52.500559 
L 64.485938 50.385064 
L 64.517968 56.537484 
L 64.533983 55.534908 
L 64.566011 52.758376 
L 64.630069 55.987767 
L 64.694127 58.738338 
L 64.662099 55.981969 
L 64.726157 57.794089 
L 64.822243 54.037882 
L 64.838258 54.043198 
L 64.934346 57.663809 
L 64.966374 56.153328 
L 65.222607 43.262916 
L 65.030433 58.765815 
L 65.254637 43.96177 
L 65.30268 43.584811 
L 65.318695 45.665667 
L 65.366738 51.517481 
L 65.446811 49.594987 
L 65.462826 51.607074 
L 65.558912 50.049184 
L 65.574927 50.96367 
L 65.590942 49.513539 
L 65.622971 49.522148 
L 65.735073 43.296486 
L 65.783117 45.657217 
L 65.815146 45.809897 
L 65.83116 45.328901 
L 65.847175 44.733553 
L 65.879205 46.593045 
L 65.895218 47.899863 
L 65.943263 45.143238 
L 65.975291 46.234405 
L 65.991306 45.970758 
L 66.007321 43.743277 
L 66.071379 47.861657 
L 66.135437 51.740024 
L 66.18348 49.596893 
L 66.199495 48.743276 
L 66.263553 50.725087 
L 66.327611 54.216438 
L 66.391669 52.828826 
L 66.519786 58.677627 
L 66.439713 50.831337 
L 66.551815 55.758564 
L 66.583844 57.582489 
L 66.695945 52.434557 
L 66.760003 53.662848 
L 66.776018 53.102719 
L 66.888121 48.682755 
L 66.920149 49.35542 
L 66.936164 49.595207 
L 67.048266 44.326453 
L 67.080295 45.371959 
L 67.128339 48.093298 
L 67.192397 45.761676 
L 67.24044 42.70825 
L 67.27247 45.690303 
L 67.336528 49.146448 
L 67.384571 46.300614 
L 67.400586 44.57202 
L 67.480659 47.799205 
L 67.496672 47.743908 
L 67.56073 51.133012 
L 67.62479 50.142602 
L 67.656818 48.250524 
L 67.688848 51.476769 
L 67.704862 51.011555 
L 67.76892 49.394458 
L 67.816964 52.798935 
L 67.832978 50.307239 
L 67.897036 54.92318 
L 67.913051 54.026224 
L 67.929066 53.976451 
L 67.961094 55.1844 
L 67.993124 51.398614 
L 68.025154 47.52255 
L 68.12124 48.875005 
L 68.217328 50.41124 
L 68.15327 46.871576 
L 68.249356 49.863851 
L 68.345444 55.720889 
L 68.377473 58.555663 
L 68.425517 54.131776 
L 68.521604 52.353262 
L 68.457546 55.934188 
L 68.537619 53.682681 
L 68.713778 59.160927 
L 68.729793 57.940995 
L 68.809866 55.804543 
L 68.825881 56.169788 
L 68.953997 61.100798 
L 69.098127 66.661036 
L 69.21023 65.52678 
L 69.258273 63.27993 
L 69.290303 66.415805 
L 69.306316 66.235685 
L 69.514505 59.222572 
L 69.546535 60.849286 
L 69.722695 67.361447 
L 69.754724 66.392654 
L 69.786753 66.200667 
L 69.834796 64.472348 
L 69.866826 68.104886 
L 69.882841 67.612989 
L 69.946899 68.718179 
L 69.914869 66.778711 
L 69.978927 68.113403 
L 70.171101 57.572352 
L 70.251174 54.608269 
L 70.283204 56.310462 
L 70.315233 55.522395 
L 70.331247 56.793444 
L 70.395305 63.732214 
L 70.475379 62.204075 
L 70.491394 61.140373 
L 70.555452 62.93976 
L 70.58748 66.950326 
L 70.683568 64.928799 
L 70.715596 65.598862 
L 70.747626 69.213747 
L 70.811684 66.053401 
L 70.971829 60.047655 
L 71.019873 60.871093 
L 71.035888 61.47513 
L 71.083932 59.23778 
L 71.099946 60.12975 
L 71.14799 56.26595 
L 71.228063 56.852523 
L 71.244076 56.877776 
L 71.500308 65.579651 
L 71.564368 64.048671 
L 71.580383 62.269295 
L 71.64444 65.230103 
L 71.676469 63.865697 
L 71.708499 63.697106 
L 71.772556 67.217144 
L 71.868645 60.070965 
L 71.900672 62.234357 
L 71.916687 61.008156 
L 71.964732 63.056708 
L 72.044803 67.072389 
L 72.092848 65.785044 
L 72.124878 66.877225 
L 72.14089 65.394991 
L 72.317051 56.576571 
L 72.333065 56.540796 
L 72.34908 57.233924 
L 72.413137 55.207295 
L 72.429152 52.934428 
L 72.525241 54.52456 
L 72.701399 60.29825 
L 72.733429 59.401819 
L 72.765459 56.917675 
L 72.813501 60.367038 
L 72.973647 65.368662 
L 73.117778 58.324138 
L 73.133793 58.024374 
L 73.165822 58.488726 
L 73.181837 58.377962 
L 73.197852 59.670897 
L 73.229879 55.71209 
L 73.261909 56.497994 
L 73.277924 56.04541 
L 73.325968 56.647369 
L 73.341984 58.673026 
L 73.40604 56.130635 
L 73.422055 56.224792 
L 73.43807 56.238216 
L 73.518141 58.429434 
L 73.550171 57.783586 
L 73.614228 53.616924 
L 73.662272 56.387364 
L 73.678287 58.343268 
L 73.726332 55.499848 
L 73.758359 57.037422 
L 73.774374 56.196117 
L 73.790389 59.264036 
L 73.886475 63.41219 
L 73.918505 61.985729 
L 74.046621 57.286899 
L 74.062636 54.442966 
L 74.158723 56.247002 
L 74.174737 56.002334 
L 74.238797 52.388328 
L 74.286839 54.443186 
L 74.318869 53.429086 
L 74.334884 54.025533 
L 74.43097 49.860576 
L 74.398943 54.181574 
L 74.446985 51.077868 
L 74.575101 55.4785 
L 74.591116 55.408862 
L 74.607131 54.84475 
L 74.639161 56.796255 
L 74.655176 57.228736 
L 74.703217 55.627776 
L 74.735247 50.842952 
L 74.815319 52.518474 
L 74.95945 60.290734 
L 74.991479 61.101067 
L 75.007495 60.257098 
L 75.023509 60.430278 
L 75.087566 60.657758 
L 75.135611 56.945727 
L 75.16764 56.704664 
L 75.295757 65.108993 
L 75.471918 57.68286 
L 75.48793 59.032694 
L 75.551989 55.909765 
L 75.568004 57.446215 
L 75.584019 56.952418 
L 75.600034 58.15507 
L 75.632061 57.875268 
L 75.648076 58.433961 
L 75.69612 56.682411 
L 75.824237 50.896361 
L 75.840251 51.386388 
L 76.000398 56.545385 
L 76.016412 56.426708 
L 76.112499 58.474911 
L 76.128514 58.000484 
L 76.144529 57.81812 
L 76.176555 53.338852 
L 76.25663 56.943717 
L 76.272645 57.862682 
L 76.320687 54.249439 
L 76.368731 49.182137 
L 76.432788 50.326444 
L 76.68902 63.877727 
L 76.865181 53.529268 
L 76.961268 56.737842 
L 76.913226 52.5804 
L 76.993298 56.355121 
L 77.009313 55.289971 
L 77.057357 59.296609 
L 77.153444 56.767916 
L 77.393661 45.336581 
L 77.409676 42.403935 
L 77.473736 45.528586 
L 77.489748 44.502358 
L 77.633879 53.298677 
L 77.697938 52.639277 
L 77.761995 47.31304 
L 77.81004 50.321482 
L 77.826055 51.459391 
L 77.858084 46.608266 
L 77.874099 46.548619 
L 77.890111 47.99754 
L 77.954171 44.104857 
L 77.970186 44.804089 
L 77.986201 43.794706 
L 78.002216 44.402879 
L 78.082287 40.10645 
L 78.114317 41.08285 
L 78.130332 41.076184 
L 78.194388 44.359515 
L 78.242433 47.340645 
L 78.274463 44.344374 
L 78.418594 36.288982 
L 78.434606 38.541283 
L 78.514681 35.061003 
L 78.738883 44.347606 
L 78.770913 40.723604 
L 78.818958 45.29015 
L 78.850984 42.73453 
L 78.963086 47.898837 
L 79.011131 52.55566 
L 79.107217 49.777026 
L 79.219321 46.765718 
L 79.251348 47.090649 
L 79.363449 41.921839 
L 79.395479 44.340452 
L 79.53961 49.693782 
L 79.555625 48.512692 
L 79.60367 51.370477 
L 79.699756 58.726093 
L 79.763813 56.384254 
L 79.843888 48.305253 
L 79.907944 50.076826 
L 79.972004 53.407945 
L 80.004034 49.267123 
L 80.052075 47.151408 
L 80.10012 48.424223 
L 80.164177 47.467669 
L 80.260266 52.270176 
L 80.372367 47.680687 
L 80.388382 48.306444 
L 80.468454 56.29911 
L 80.516499 52.237945 
L 80.532513 50.624557 
L 80.612585 52.824806 
L 80.6286 54.704962 
L 80.692659 49.690879 
L 80.708671 51.366982 
L 80.724686 51.606591 
L 80.740701 51.072491 
L 80.852803 44.956408 
L 80.868817 45.060971 
L 80.980919 51.391373 
L 81.012949 48.786915 
L 81.028963 49.121042 
L 81.15708 57.377127 
L 81.173095 56.726501 
L 81.18911 56.80041 
L 81.205124 56.617087 
L 81.349256 63.720892 
L 81.381282 63.004466 
L 81.493387 56.239273 
L 81.525414 57.57135 
L 81.637515 63.153041 
L 81.65353 62.304324 
L 81.669545 63.245163 
L 81.701574 59.949526 
L 81.749619 57.768414 
L 81.797661 58.787176 
L 81.845706 58.300302 
L 81.925777 61.178317 
L 81.989837 64.868089 
L 82.053893 63.780038 
L 82.069908 63.100493 
L 82.117953 64.234969 
L 82.133968 66.715838 
L 82.18201 63.943925 
L 82.230054 64.606233 
L 82.294114 63.754449 
L 82.262084 64.647305 
L 82.326141 64.304667 
L 82.438242 67.242806 
L 82.3902 63.802909 
L 82.454257 66.612222 
L 82.518317 61.055357 
L 82.582373 63.467334 
L 82.646433 63.818856 
L 82.790564 60.13558 
L 82.806579 58.710225 
L 82.870635 61.073168 
L 82.91868 63.733125 
L 82.982737 62.672631 
L 82.998752 61.119379 
L 83.046796 63.569966 
L 83.094841 61.54927 
L 83.110853 62.580325 
L 83.126868 61.119409 
L 83.174913 61.316614 
L 83.254984 57.921767 
L 83.303029 58.449847 
L 83.319044 59.890844 
L 83.367089 57.165301 
L 83.3831 57.422556 
L 83.41513 51.01461 
L 83.495205 53.573175 
L 83.511217 53.811355 
L 83.543246 56.561369 
L 83.591291 52.880536 
L 83.607306 53.690136 
L 83.767452 51.022584 
L 83.639336 54.282385 
L 83.799479 52.38564 
L 83.815494 55.391259 
L 83.895568 55.258345 
L 83.91158 52.525189 
L 83.991655 53.229089 
L 84.087741 60.971233 
L 84.135786 59.662728 
L 84.151801 59.095145 
L 84.167816 60.933289 
L 84.215857 62.076447 
L 84.263902 61.263645 
L 84.279917 59.490477 
L 84.359989 61.406433 
L 84.376003 60.613948 
L 84.616221 69.417508 
L 84.648251 69.198313 
L 84.696296 62.937212 
L 84.760352 66.546018 
L 84.776367 66.529643 
L 84.792382 66.692344 
L 84.824412 64.651204 
L 84.904483 65.464396 
L 84.952528 67.311472 
L 84.968543 65.218909 
L 85.00057 66.064472 
L 85.0326 63.07601 
L 85.080644 66.193439 
L 85.128686 64.449551 
L 85.176731 64.807709 
L 85.20876 63.207079 
L 85.288832 67.719648 
L 85.320862 65.26493 
L 85.336877 65.247651 
L 85.448978 61.716694 
L 85.464993 62.487805 
L 85.481008 63.030887 
L 85.513035 61.236504 
L 85.73724 56.545513 
L 85.609124 61.70352 
L 85.753255 56.629344 
L 85.897386 61.831375 
L 85.929413 60.576499 
L 85.945428 60.821253 
L 86.009488 64.050809 
L 86.041518 61.305958 
L 86.169634 55.865901 
L 86.20166 56.776574 
L 86.329777 58.859813 
L 86.345792 58.569001 
L 86.361807 57.080566 
L 86.425866 59.19226 
L 86.441881 59.187011 
L 86.457893 60.203763 
L 86.489923 57.715708 
L 86.521953 58.159689 
L 86.537967 57.524235 
L 86.553983 59.75303 
L 86.586009 61.858724 
L 86.666084 61.271155 
L 86.682099 59.629269 
L 86.714128 63.216238 
L 86.76217 62.740692 
L 86.810215 64.583155 
L 86.890286 64.418059 
L 86.906301 65.264606 
L 86.954346 62.343038 
L 87.082462 60.15083 
L 87.098477 61.473272 
L 87.146519 56.899369 
L 87.162534 54.194955 
L 87.242608 58.926988 
L 87.25862 55.842908 
L 87.274635 55.717198 
L 87.29065 54.381559 
L 87.370725 56.214258 
L 87.386736 56.291258 
L 87.498841 53.499567 
L 87.578912 59.273525 
L 87.626957 56.103689 
L 87.642972 56.519472 
L 87.658984 55.665018 
L 87.691014 53.448669 
L 87.755073 56.069668 
L 87.771088 57.342128 
L 87.835145 54.816521 
L 87.85116 54.824739 
L 87.899204 54.360503 
L 87.947246 56.480721 
L 87.963261 54.794702 
L 88.043336 56.956701 
L 88.075362 55.98511 
L 88.091377 58.256871 
L 88.107392 58.946828 
L 88.139422 56.759362 
L 88.203478 51.157917 
L 88.235508 53.465863 
L 88.331595 57.930205 
L 88.34761 56.012385 
L 88.363625 54.422301 
L 88.427684 58.653016 
L 88.443699 57.671178 
L 88.491741 61.518059 
L 88.507756 60.358771 
L 88.58783 63.345901 
L 88.539786 59.7022 
L 88.635872 61.575232 
L 88.715946 58.50944 
L 88.747973 59.948078 
L 88.892104 63.701004 
L 88.780003 58.190674 
L 88.940149 63.015055 
L 88.988194 63.20018 
L 89.004206 61.811022 
L 89.196382 56.226943 
L 89.228411 59.675395 
L 89.276453 56.034076 
L 89.292468 56.301694 
L 89.308483 55.945027 
L 89.324498 57.426925 
L 89.404569 56.782311 
L 89.468629 61.061186 
L 89.548701 59.197435 
L 89.516674 61.763271 
L 89.596745 59.926869 
L 89.61276 60.725416 
L 89.660802 58.458493 
L 89.692832 54.58455 
L 89.772906 56.67481 
L 89.852978 66.985612 
L 89.917037 64.986522 
L 89.933049 64.92173 
L 90.013124 60.666593 
L 90.045154 61.827684 
L 90.157255 67.11621 
L 90.17327 66.348392 
L 90.205297 64.243071 
L 90.237326 66.986517 
L 90.253341 70.695957 
L 90.349428 69.145039 
L 90.525589 64.288255 
L 90.557619 65.27698 
L 90.573633 65.30852 
L 90.63769 67.67951 
L 90.717764 66.218827 
L 90.749791 66.573581 
L 90.829866 64.363703 
L 90.957982 70.021783 
L 90.973997 67.834683 
L 91.13414 71.953937 
L 91.022039 67.075914 
L 91.150155 71.565124 
L 91.262259 66.287114 
L 91.326316 68.25811 
L 91.374361 66.290431 
L 91.390376 68.864761 
L 91.438417 70.609425 
L 91.470447 67.072077 
L 91.486462 68.266523 
L 91.518492 67.418027 
L 91.550519 65.520603 
L 91.630593 70.755836 
L 91.72668 68.761964 
L 91.710665 71.104945 
L 91.742694 70.495214 
L 91.90284 79.989904 
L 91.966897 76.85973 
L 92.014942 78.927681 
L 92.062987 75.11479 
L 92.111028 78.986693 
L 92.127043 80.363765 
L 92.175088 76.525248 
L 92.207115 77.854252 
L 92.22313 77.664331 
L 92.351246 73.377678 
L 92.367261 75.862769 
L 92.43132 73.370138 
L 92.447335 74.301323 
L 92.591466 69.334484 
L 92.735595 72.891531 
L 92.767624 73.136517 
L 92.89574 69.978902 
L 93.039872 66.007636 
L 93.135958 70.548794 
L 93.184003 68.057349 
L 93.248062 67.742249 
L 93.376179 70.956854 
L 93.392194 71.652377 
L 93.42422 68.353287 
L 93.552337 64.302749 
L 93.664441 67.150837 
L 93.696468 63.946106 
L 93.776542 65.968494 
L 93.808569 61.729592 
L 93.872629 63.517333 
L 93.888644 66.559308 
L 93.936688 61.742033 
L 93.98473 65.516582 
L 94.128861 59.23896 
L 94.272992 63.507869 
L 94.289007 63.437681 
L 94.385094 67.405367 
L 94.417123 65.699019 
L 94.465168 70.980891 
L 94.54524 68.960922 
L 94.593284 66.904836 
L 94.657341 67.676516 
L 94.801472 70.91737 
L 94.929588 62.95063 
L 94.945603 63.215492 
L 95.04169 68.387516 
L 95.073719 66.88265 
L 95.105749 68.593837 
L 95.153791 64.904695 
L 95.217851 69.078756 
L 95.265895 65.383534 
L 95.297922 63.658612 
L 95.329952 64.441186 
L 95.345967 67.243301 
L 95.394012 63.549613 
L 95.442053 65.956299 
L 95.602199 70.4224 
L 95.618214 69.447436 
L 95.634229 68.460123 
L 95.682271 70.08443 
L 95.714301 69.118038 
L 95.730316 69.949652 
L 95.762345 66.135057 
L 95.826402 62.36867 
L 95.906477 62.528542 
L 95.954518 65.719855 
L 95.986548 63.043571 
L 96.018578 60.009051 
L 96.066623 63.415117 
L 96.082634 63.12637 
L 96.146694 65.447733 
L 96.178724 62.33215 
L 96.226766 59.424549 
L 96.258795 62.65204 
L 96.290825 67.447667 
L 96.370897 63.506946 
L 96.386912 63.318253 
L 96.418941 65.870366 
L 96.482998 62.892015 
L 96.499013 63.983317 
L 96.547058 62.942669 
L 96.563073 64.554181 
L 96.643144 58.869791 
L 96.691189 62.147037 
L 96.739234 65.822236 
L 96.77126 60.905805 
L 96.947421 49.586524 
L 96.963436 49.859403 
L 96.995466 53.557649 
L 97.107564 53.383547 
L 97.155612 51.081284 
L 97.219666 52.903602 
L 97.251696 52.479076 
L 97.267713 53.179236 
L 97.395827 56.955595 
L 97.427856 54.810301 
L 97.475904 57.908868 
L 97.491916 57.584768 
L 97.523946 59.889659 
L 97.555976 57.428972 
L 97.588006 59.194111 
L 97.620029 57.16348 
L 97.652059 59.688525 
L 97.700107 57.181145 
L 97.76416 59.229562 
L 97.812208 58.32641 
L 97.86025 54.890332 
L 97.924309 56.887528 
L 97.940321 56.934264 
L 98.052423 66.966084 
L 98.084452 66.368244 
L 98.10047 65.668022 
L 98.116482 67.532176 
L 98.212572 69.955683 
L 98.228584 69.715353 
L 98.244602 69.659702 
L 98.308655 75.681163 
L 98.372715 71.328961 
L 98.420756 71.03196 
L 98.548876 77.031718 
L 98.660977 70.744148 
L 98.725037 73.512523 
L 98.773078 71.123795 
L 98.789096 74.772757 
L 98.88518 76.94738 
L 98.91721 76.42357 
L 98.933227 77.134784 
L 98.981269 75.602685 
L 98.997281 76.020637 
L 99.1254 73.590977 
L 99.15743 74.317497 
L 99.173442 74.274237 
L 99.237502 73.580749 
L 99.301561 75.615871 
L 99.333591 73.357319 
L 99.445692 73.461271 
L 99.525764 70.387328 
L 99.589824 72.111792 
L 99.701925 74.614804 
L 99.717937 72.87702 
L 99.781996 69.714589 
L 99.830038 72.233671 
L 99.846056 72.835025 
L 99.878086 70.96506 
L 99.894098 69.384727 
L 99.958157 73.356885 
L 99.974169 73.202873 
L 99.990187 74.350968 
L 100.054241 72.128222 
L 100.08627 74.126622 
L 100.102288 74.121129 
L 100.134318 75.483091 
L 100.18236 73.129863 
L 100.230402 72.537779 
L 100.24642 74.139527 
L 100.262431 77.056745 
L 100.326491 71.887049 
L 100.342503 72.864463 
L 100.358521 71.439732 
L 100.390551 74.224763 
L 100.438592 73.666944 
L 100.454604 73.618619 
L 100.566706 79.234862 
L 100.598735 78.768812 
L 100.614753 79.143369 
L 100.678813 74.702637 
L 100.742867 75.99765 
L 100.758885 76.062937 
L 101.015117 66.321605 
L 101.047147 68.422423 
L 101.095189 71.407348 
L 101.1112 69.386567 
L 101.20729 64.183326 
L 101.23932 65.483301 
L 101.303379 64.260827 
L 101.271349 65.536685 
L 101.351421 64.910774 
L 101.367433 65.414207 
L 101.399463 63.819369 
L 101.44751 60.698696 
L 101.543594 61.882285 
L 101.751785 70.894628 
L 101.895916 66.757851 
L 101.911928 67.601673 
L 101.943957 64.860482 
L 101.975987 66.769118 
L 102.120118 60.657636 
L 102.024035 67.59219 
L 102.136136 60.945136 
L 102.312291 63.689529 
L 102.424399 67.185157 
L 102.44041 66.461222 
L 102.456422 64.130149 
L 102.520482 67.400472 
L 102.5365 66.034411 
L 102.616571 71.475507 
L 102.664613 70.894084 
L 102.744685 67.757506 
L 102.776714 70.133134 
L 102.792732 71.644831 
L 102.824762 68.080201 
L 102.856786 68.853115 
L 102.920846 70.321247 
L 102.968887 67.667388 
L 102.984905 67.71157 
L 103.000917 66.708597 
L 103.048965 70.22181 
L 103.064977 70.490149 
L 103.080995 69.496855 
L 103.129036 67.104516 
L 103.177078 69.307312 
L 103.193096 69.805325 
L 103.225126 67.730896 
L 103.241138 68.693787 
L 103.289179 65.380937 
L 103.369251 67.634741 
L 103.385269 67.80976 
L 103.481358 62.092431 
L 103.513382 65.577714 
L 103.577442 69.515332 
L 103.641501 67.803998 
L 103.689543 65.716335 
L 103.721573 69.082324 
L 103.753603 71.086022 
L 103.817662 68.174627 
L 103.961793 72.182034 
L 103.849692 67.760298 
L 103.977805 71.022525 
L 103.993823 71.101725 
L 104.041865 68.808884 
L 104.105924 70.884229 
L 104.153966 73.514264 
L 104.202008 70.508052 
L 104.266067 67.096884 
L 104.298097 68.960751 
L 104.314109 70.421942 
L 104.362157 67.269123 
L 104.378169 67.321132 
L 104.55433 65.141542 
L 104.426217 67.841472 
L 104.570342 65.250278 
L 104.634401 63.094322 
L 104.714473 64.07806 
L 104.730491 65.831389 
L 104.778532 63.297894 
L 104.810562 64.178597 
L 104.858604 60.393268 
L 104.922664 61.551463 
L 104.970705 66.019105 
L 105.050783 64.93329 
L 105.226944 69.269637 
L 105.290997 64.126086 
L 105.355057 67.356987 
L 105.371075 69.671366 
L 105.435129 64.581444 
L 105.451146 63.520773 
L 105.5152 66.157921 
L 105.531218 66.012054 
L 105.57926 62.705992 
L 105.627307 66.732604 
L 105.643319 66.619695 
L 105.659331 69.338626 
L 105.707379 65.731531 
L 105.723391 66.169713 
L 105.739409 63.027667 
L 105.835492 65.299721 
L 105.85151 66.167165 
L 105.88354 64.584634 
L 105.915564 65.336211 
L 106.107742 54.618944 
L 106.171802 58.540168 
L 106.235856 57.764107 
L 106.251874 58.14354 
L 106.283904 57.120324 
L 106.299915 55.680929 
L 106.347957 58.228337 
L 106.363975 57.334222 
L 106.476076 59.597643 
L 106.428035 57.041626 
L 106.492088 59.250599 
L 106.684267 52.804593 
L 106.700279 53.308985 
L 106.796369 58.226131 
L 106.828398 55.413567 
L 106.924482 51.369884 
L 106.972529 53.852739 
L 106.988541 56.402102 
L 107.052601 52.082668 
L 107.068613 52.386862 
L 107.276804 55.941025 
L 107.308833 58.848021 
L 107.356875 55.790923 
L 107.388905 56.730889 
L 107.468976 53.827528 
L 107.420935 58.148722 
L 107.484994 56.628354 
L 107.501006 59.033867 
L 107.581078 57.833518 
L 107.597096 56.318069 
L 107.661149 59.693975 
L 107.741227 61.988907 
L 107.789268 61.537911 
L 107.885358 57.336098 
L 107.917382 57.99155 
L 107.949412 62.294236 
L 108.029489 60.588023 
L 108.093543 59.42461 
L 108.109561 60.227354 
L 108.17362 65.220974 
L 108.221662 63.120076 
L 108.317745 56.52238 
L 108.365793 56.979443 
L 108.381805 57.122286 
L 108.461876 61.065035 
L 108.509924 59.768537 
L 108.606008 55.179958 
L 108.638037 57.888149 
L 108.702097 62.949347 
L 108.766157 62.004347 
L 108.86224 60.750589 
L 108.830216 62.288817 
L 108.878258 61.897743 
L 108.89427 61.787015 
L 109.038401 51.695634 
L 109.118472 57.350102 
L 109.150502 54.003372 
L 109.19855 53.291852 
L 109.214562 55.308186 
L 109.23058 53.296637 
L 109.310651 55.607448 
L 109.342681 54.55494 
L 109.390723 51.210801 
L 109.422753 53.04072 
L 109.550866 61.114442 
L 109.646955 57.645613 
L 109.614926 61.217013 
L 109.662967 58.081773 
L 109.678985 58.347301 
L 109.711015 57.337222 
L 109.743045 58.236897 
L 109.839128 54.409317 
L 109.967247 57.761748 
L 110.015289 54.587733 
L 110.079349 56.83872 
L 110.127391 58.459532 
L 110.175438 59.710827 
L 110.207462 57.918877 
L 110.367611 48.294077 
L 110.383623 50.042469 
L 110.511742 54.658043 
L 110.527754 53.574807 
L 110.559784 58.856019 
L 110.623843 57.320077 
L 110.607826 60.854718 
L 110.639855 58.190888 
L 110.671885 60.410695 
L 110.735945 58.790097 
L 110.864058 53.156048 
L 110.880076 52.695356 
L 110.912106 53.847759 
L 110.928118 53.80178 
L 110.976166 57.755449 
L 111.056237 56.426811 
L 111.200368 51.489961 
L 111.328481 58.759039 
L 111.344499 57.666088 
L 111.360511 56.605007 
L 111.376529 58.639335 
L 111.440583 58.428731 
L 111.680803 67.418253 
L 111.48863 57.405753 
L 111.712833 66.44891 
L 111.760875 62.022048 
L 111.840946 64.588923 
L 111.953048 71.119548 
L 111.969066 69.823979 
L 112.065149 65.682442 
L 112.097179 67.500868 
L 112.113197 69.715836 
L 112.20928 68.964985 
L 112.305369 65.657513 
L 112.24131 69.268616 
L 112.321387 68.34725 
L 112.369429 71.294903 
L 112.385441 67.794161 
L 112.433489 69.123653 
L 112.48153 67.25708 
L 112.54559 68.732299 
L 112.753775 76.163938 
L 112.833852 74.620156 
L 112.801823 77.338428 
L 112.881894 75.605331 
L 112.897906 75.501415 
L 113.042037 79.271652 
L 112.929936 74.886399 
L 113.058055 78.515265 
L 113.154138 76.450118 
L 113.170156 77.225146 
L 113.202186 79.607611 
L 113.250228 75.107666 
L 113.26624 76.999383 
L 113.346317 72.385086 
L 113.394359 74.725507 
L 113.50646 78.957261 
L 113.442401 74.601624 
L 113.522478 77.661312 
L 113.762693 67.794161 
L 113.778711 69.247347 
L 113.842764 67.701336 
L 113.874794 68.727503 
L 113.906824 69.566247 
L 113.954866 68.078154 
L 114.034943 68.483268 
L 114.163056 59.154432 
L 114.275158 66.450352 
L 114.307188 65.473763 
L 114.403277 67.281881 
L 114.483348 61.849223 
L 114.53139 64.117801 
L 114.547408 64.287693 
L 114.56342 63.808176 
L 114.579438 61.908784 
L 114.62748 66.628768 
L 114.643492 65.206823 
L 114.691539 68.14685 
L 114.739581 63.851295 
L 114.771611 67.487432 
L 114.819652 65.298585 
L 114.851682 67.53591 
L 114.931754 70.00154 
L 114.963784 69.977496 
L 115.027843 68.517736 
L 114.995813 70.460594 
L 115.043855 69.520935 
L 115.059873 70.886141 
L 115.107915 68.664214 
L 115.123933 69.03659 
L 115.204004 69.768517 
L 115.252046 66.810771 
L 115.284076 68.845129 
L 115.332117 65.464897 
L 115.492267 54.668424 
L 115.508278 55.464452 
L 115.748499 74.233323 
L 115.764511 74.195789 
L 115.89263 70.483709 
L 115.92466 70.124231 
L 115.972702 72.755257 
L 116.036761 68.186548 
L 116.084803 71.784368 
L 116.164874 75.711885 
L 116.116833 71.545138 
L 116.196904 73.180767 
L 116.244946 71.405631 
L 116.292994 73.123136 
L 116.309006 73.213065 
L 116.469155 68.549362 
L 116.533208 73.721942 
L 116.64531 72.516766 
L 116.741399 67.515496 
L 116.773429 70.591486 
L 116.869518 73.303733 
L 116.88553 70.919747 
L 117.029661 65.979444 
L 117.045673 67.625283 
L 117.109733 64.138746 
L 117.125751 64.212685 
L 117.173792 60.271096 
L 117.221834 65.703088 
L 117.237852 65.42322 
L 117.253864 66.171724 
L 117.269882 67.079647 
L 117.317923 64.842708 
L 117.381983 62.127704 
L 117.446037 63.34064 
L 117.462055 63.671467 
L 117.478066 60.659072 
L 117.526114 63.690311 
L 117.558138 63.687085 
L 117.606186 65.095545 
L 117.638216 62.316398 
L 117.766329 65.01926 
L 117.782347 64.873374 
L 117.81437 65.054448 
L 117.94249 61.32303 
L 118.086621 65.784567 
L 118.102633 66.211611 
L 118.118651 63.037828 
L 118.166692 68.813051 
L 118.18271 67.317643 
L 118.230752 71.502434 
L 118.310824 70.769816 
L 118.390895 69.29632 
L 118.438943 62.123501 
L 118.519014 65.113209 
L 118.695175 70.39034 
L 118.743217 68.633859 
L 118.759229 70.461163 
L 118.775247 73.245357 
L 118.807277 70.404314 
L 118.871336 72.607397 
L 118.887348 71.746766 
L 118.90336 73.444095 
L 118.96742 73.100088 
L 119.079521 76.372904 
L 119.095539 76.308467 
L 119.23967 70.336271 
L 119.255682 69.860066 
L 119.303724 71.62314 
L 119.319741 73.262826 
L 119.367783 70.779684 
L 119.415825 71.731314 
L 119.559956 67.658418 
L 119.447855 72.643576 
L 119.575974 68.247221 
L 119.672064 74.979995 
L 119.720105 73.811522 
L 119.736117 73.871402 
L 119.896266 68.282245 
L 119.928296 68.754467 
L 120.136481 76.165282 
L 120.20054 77.395717 
L 120.16851 75.602447 
L 120.23257 75.648645 
L 120.2646 73.858968 
L 120.29663 77.081833 
L 120.312642 77.812428 
L 120.344671 75.474708 
L 120.424743 73.52803 
L 120.472791 73.536548 
L 120.488803 75.210561 
L 120.536844 70.37724 
L 120.552862 71.400517 
L 120.568874 69.499995 
L 120.616922 71.71313 
L 120.648946 71.478513 
L 120.777065 73.394041 
L 120.809095 73.811339 
L 120.905178 76.690357 
L 120.921196 75.97621 
L 120.969238 74.02732 
L 121.001267 76.578804 
L 121.033297 75.508466 
L 121.22547 68.617196 
L 121.065327 75.936225 
L 121.241488 69.409058 
L 121.2575 70.347587 
L 121.273518 65.476867 
L 121.321559 67.913535 
L 121.433661 62.636153 
L 121.449673 63.986335 
L 121.497721 67.887719 
L 121.561774 65.429043 
L 121.609822 66.601132 
L 121.593804 64.867179 
L 121.673882 65.516246 
L 121.785983 70.840859 
L 121.850036 69.993652 
L 121.898084 66.61279 
L 121.962138 68.322193 
L 121.994167 71.514715 
L 122.058227 69.650072 
L 122.138299 67.078529 
L 122.170328 68.170026 
L 122.186346 68.736876 
L 122.234388 66.836898 
L 122.2504 65.835397 
L 122.31446 68.327832 
L 122.330478 68.463752 
L 122.346489 68.161924 
L 122.506632 61.754791 
L 122.52265 63.297558 
L 122.570692 65.240801 
L 122.58671 63.143888 
L 122.602722 63.264978 
L 122.61874 61.628738 
L 122.666782 63.791226 
L 122.714823 62.830816 
L 122.794895 67.907363 
L 122.826925 71.389018 
L 122.874972 67.65598 
L 122.890984 68.171352 
L 122.987074 65.001088 
L 123.019103 66.670592 
L 123.067145 68.334786 
L 123.195258 73.102392 
L 123.323378 66.807166 
L 123.33939 68.784522 
L 123.451491 71.444082 
L 123.419467 68.173888 
L 123.483521 70.036325 
L 123.54758 68.036898 
L 123.51555 70.410412 
L 123.563592 69.368279 
L 123.57961 71.952959 
L 123.61164 68.185533 
L 123.659682 69.779558 
L 123.707723 70.851454 
L 123.771783 68.055479 
L 123.835842 71.988269 
L 123.883884 70.445203 
L 124.044033 61.23549 
L 124.076063 61.197173 
L 124.124105 64.788003 
L 124.236206 71.096055 
L 124.252218 70.868086 
L 124.284248 68.478606 
L 124.348307 70.899956 
L 124.364319 71.316283 
L 124.396349 67.056282 
L 124.476427 70.769786 
L 124.524468 68.47736 
L 124.556498 69.490531 
L 124.6686 74.420996 
L 124.796713 70.88765 
L 124.87679 67.78414 
L 124.844761 70.942244 
L 124.908814 70.778798 
L 124.924832 70.798265 
L 124.956862 67.73199 
L 125.020921 70.239328 
L 125.165047 75.531465 
L 125.229106 72.405861 
L 125.293166 72.678825 
L 125.373237 75.931844 
L 125.405267 75.210121 
L 125.549398 71.719961 
L 125.59744 73.252408 
L 125.581428 70.892373 
L 125.62947 71.019953 
L 125.757589 67.850643 
L 125.773601 68.788305 
L 125.805631 66.208733 
L 125.83766 66.732298 
L 125.885702 65.495264 
L 125.90172 67.102493 
L 125.93375 66.605849 
L 125.949762 66.731596 
L 125.997804 62.000681 
L 126.077881 63.043596 
L 126.093893 64.319655 
L 126.157953 61.086274 
L 126.173964 62.624813 
L 126.189983 61.99644 
L 126.238024 62.202755 
L 126.350125 65.428645 
L 126.366143 65.344014 
L 126.382155 66.022844 
L 126.430197 63.436258 
L 126.446215 63.773201 
L 126.462227 63.254334 
L 126.574328 59.197832 
L 126.590346 59.510158 
L 126.638388 58.288118 
L 126.766507 63.852163 
L 126.814549 60.540089 
L 126.878608 60.809968 
L 126.910632 61.326177 
L 126.942662 60.811788 
L 126.95868 59.751466 
L 127.006722 61.884716 
L 127.038751 65.141952 
L 127.086793 61.167948 
L 127.118823 62.757195 
L 127.134841 63.22737 
L 127.150853 61.966641 
L 127.166871 62.142063 
L 127.310996 58.38805 
L 127.214912 63.089361 
L 127.327014 58.575118 
L 127.343026 58.723741 
L 127.359043 58.441996 
L 127.503175 55.311112 
L 127.599258 55.307801 
L 127.631288 58.325164 
L 127.647306 57.28239 
L 127.663318 59.463556 
L 127.727377 58.6556 
L 127.743389 59.755792 
L 127.775419 57.544062 
L 127.791437 57.605011 
L 127.807449 56.40831 
L 127.871508 56.898404 
L 127.95158 56.042814 
L 127.999622 60.155242 
L 128.047669 63.002206 
L 128.095711 59.291886 
L 128.127741 62.345506 
L 128.143753 62.896586 
L 128.191801 61.364114 
L 128.207812 61.385567 
L 128.255854 57.355174 
L 128.319914 60.078328 
L 128.351943 60.537999 
L 128.399985 58.052432 
L 128.480063 65.29652 
L 128.528104 62.103441 
L 128.544116 62.232084 
L 128.560134 61.875545 
L 128.640206 59.74681 
L 128.672236 61.381626 
L 128.704266 63.328432 
L 128.752307 59.920313 
L 128.768325 59.46234 
L 128.784337 60.930582 
L 128.816367 60.2338 
L 128.880426 63.396071 
L 128.928468 62.5238 
L 129.040569 58.093639 
L 129.056581 59.248595 
L 129.104629 61.177022 
L 129.120641 58.92455 
L 129.184701 60.866774 
L 129.264772 63.006073 
L 129.296802 62.271378 
L 129.376873 59.462481 
L 129.408903 60.463615 
L 129.488975 66.134653 
L 129.537022 64.544686 
L 129.601076 62.86777 
L 129.729195 58.625942 
L 129.745207 59.588661 
L 129.761225 59.278187 
L 129.777237 59.534794 
L 129.905356 66.583962 
L 129.937386 65.644969 
L 129.985428 66.909278 
L 130.017458 64.103295 
L 130.049487 65.040865 
L 130.081517 64.322692 
L 130.097529 63.837254 
L 130.129559 64.441357 
L 130.177601 64.358051 
L 130.20963 64.080431 
L 130.24166 65.209719 
L 130.36978 62.306322 
L 130.481881 66.06644 
L 130.513905 64.559753 
L 130.529922 65.008133 
L 130.545934 63.461865 
L 130.674054 59.855253 
L 130.770143 66.004929 
L 130.818185 64.832082 
L 130.850215 63.378719 
L 130.882244 65.571299 
L 130.914274 65.093193 
L 130.962316 67.476153 
L 130.994346 64.573623 
L 131.026376 66.071169 
L 131.138477 62.774017 
L 131.154489 62.881445 
L 131.29862 58.600218 
L 131.33065 58.971806 
L 131.442751 65.432886 
L 131.474781 62.540548 
L 131.506811 64.030414 
L 131.522823 61.832292 
L 131.57087 62.141623 
L 131.602894 61.485333 
L 131.618912 60.107076 
L 131.666954 63.564613 
L 131.682972 64.233906 
L 131.731013 62.790758 
L 131.827103 57.726432 
L 131.875144 58.69688 
L 131.923186 61.572452 
L 131.987246 59.375588 
L 132.019276 57.819568 
L 132.067317 61.044939 
L 132.083335 59.807917 
L 132.275508 64.554199 
L 132.35558 64.420363 
L 132.483699 59.366747 
L 132.499711 60.337642 
L 132.643842 64.912614 
L 132.659854 63.915054 
L 132.723913 66.349584 
L 132.755943 66.462157 
L 132.771961 66.65459 
L 132.787973 66.422154 
L 132.820003 67.000051 
L 132.900074 63.718051 
L 132.932104 65.900391 
L 132.996164 62.391284 
L 133.012176 62.379479 
L 133.060217 61.146398 
L 133.076235 64.113878 
L 133.172325 62.043727 
L 133.332468 63.992427 
L 133.34848 63.697057 
L 133.524641 58.343525 
L 133.540659 57.864014 
L 133.572688 59.546385 
L 133.5887 59.909816 
L 133.62073 58.640979 
L 133.636742 58.642671 
L 133.68479 57.791193 
L 133.668772 59.834521 
L 133.700802 58.981051 
L 133.764861 61.709056 
L 133.812903 60.709596 
L 133.892974 55.506276 
L 133.925004 58.561846 
L 134.069135 54.299304 
L 134.117183 59.301503 
L 134.197255 57.370932 
L 134.213266 53.773185 
L 134.261308 59.450633 
L 134.293338 57.670041 
L 134.421457 61.259289 
L 134.437469 59.273396 
L 134.533558 57.974803 
L 134.517547 60.247444 
L 134.54957 58.315431 
L 134.565588 59.989242 
L 134.61363 54.17734 
L 134.629648 55.627691 
L 134.773779 61.59809 
L 134.853851 66.197191 
L 134.885881 63.063026 
L 134.965952 66.736337 
L 135.030012 64.725454 
L 135.046023 64.223329 
L 135.062035 66.707418 
L 135.094065 66.197246 
L 135.126095 67.630996 
L 135.158125 67.557045 
L 135.334286 57.904848 
L 135.350298 60.209714 
L 135.414357 55.899586 
L 135.430375 57.149628 
L 135.478417 56.741563 
L 135.494429 57.867796 
L 135.526459 58.90867 
L 135.558488 57.207125 
L 135.574506 57.745611 
L 135.70262 50.620977 
L 135.718637 51.816926 
L 135.782691 53.863266 
L 135.798709 53.107424 
L 135.830739 48.381196 
L 135.894792 54.75845 
L 135.926822 53.244108 
L 135.97487 56.177102 
L 136.054941 53.208669 
L 136.006894 56.851057 
L 136.119001 54.693213 
L 136.247114 58.978692 
L 136.327186 53.28152 
L 136.423275 55.649779 
L 136.471317 57.258261 
L 136.519365 55.888875 
L 136.551389 54.754479 
L 136.567406 57.123165 
L 136.631466 61.579753 
L 136.679508 59.91413 
L 136.871681 53.987583 
L 136.887699 55.371713 
L 136.951752 55.354934 
L 136.96777 52.362855 
L 137.06386 52.697281 
L 137.079871 52.506266 
L 137.191973 54.537202 
L 137.127913 50.74368 
L 137.207984 53.985158 
L 137.288062 57.777525 
L 137.320092 55.150923 
L 137.384145 52.963176 
L 137.352116 56.184746 
L 137.432193 54.708793 
L 137.448205 54.549679 
L 137.464223 54.826658 
L 137.560306 59.19369 
L 137.592336 57.58566 
L 137.672408 52.934849 
L 137.704438 54.834998 
L 137.784509 58.062917 
L 137.848569 57.552256 
L 137.976688 55.180936 
L 138.05676 58.650144 
L 138.088789 56.237232 
L 138.26495 60.641572 
L 138.120819 55.572235 
L 138.296974 58.683401 
L 138.393063 55.089797 
L 138.441105 56.074537 
L 138.473135 57.137005 
L 138.521183 55.138538 
L 138.537195 55.646681 
L 138.649296 57.844926 
L 138.697338 54.867144 
L 138.745385 57.352827 
L 138.761397 57.857121 
L 138.777415 56.734396 
L 138.793427 57.154517 
L 138.873499 52.06702 
L 138.905528 55.530234 
L 138.921546 55.36501 
L 138.937558 55.457542 
L 139.001618 50.252212 
L 139.065678 51.331292 
L 139.113719 54.777679 
L 139.177779 52.561874 
L 139.193791 52.589749 
L 139.209803 52.48818 
L 139.273862 50.405154 
L 139.28988 51.164944 
L 139.369952 56.416106 
L 139.417993 54.664733 
L 139.450023 56.884907 
L 139.498065 54.199135 
L 139.514083 52.668967 
L 139.578142 56.62024 
L 139.594154 56.279997 
L 139.658214 60.720747 
L 139.690244 56.317018 
L 139.706256 56.306668 
L 139.754297 57.333788 
L 139.770315 59.574926 
L 139.850387 57.644843 
L 139.882417 56.241253 
L 139.930458 57.973996 
L 140.058578 62.738009 
L 140.170679 59.295057 
L 140.186691 62.005728 
L 140.25075 58.97034 
L 140.298792 55.803046 
L 140.362852 58.46739 
L 140.37887 58.807773 
L 140.410893 57.270524 
L 140.474953 51.55628 
L 140.555025 53.597097 
L 140.619084 55.942577 
L 140.763215 61.270092 
L 140.939376 55.502341 
L 140.955388 55.738682 
L 141.051478 59.936334 
L 141.083507 59.171577 
L 141.211627 55.9421 
L 141.259668 58.22885 
L 141.323728 56.833246 
L 141.387782 52.516641 
L 141.451841 53.838258 
L 141.483871 51.401669 
L 141.531913 55.272967 
L 141.595972 56.727112 
L 141.61199 55.84512 
L 141.628002 54.579313 
L 141.692062 55.582586 
L 141.788145 59.168314 
L 141.820175 58.810303 
L 141.868223 56.999014 
L 141.852205 59.290303 
L 141.916265 58.434713 
L 141.980324 60.203799 
L 142.028366 59.378552 
L 142.172497 55.224061 
L 142.092425 60.606433 
L 142.204527 55.644805 
L 142.220539 56.777753 
L 142.268586 53.386859 
L 142.284598 53.069584 
L 142.30061 53.416328 
L 142.348658 56.432091 
L 142.412717 54.349664 
L 142.444741 56.097878 
L 142.492789 54.606931 
L 142.60489 51.279925 
L 142.620902 51.661759 
L 142.63692 51.767 
L 142.797063 57.103106 
L 142.941194 53.568 
L 143.005254 55.292318 
L 142.973224 53.28617 
L 143.021266 54.664067 
L 143.037284 53.184864 
L 143.053296 55.329669 
L 143.101337 54.045141 
L 143.117355 56.249886 
L 143.213445 55.309224 
L 143.277498 52.733801 
L 143.325546 53.508286 
L 143.341558 54.180914 
L 143.35757 53.187644 
L 143.3896 49.42196 
L 143.453659 54.694074 
L 143.645832 61.699182 
L 143.66185 59.127297 
L 143.789963 57.191037 
L 143.805981 57.267108 
L 143.886053 55.596603 
L 143.854023 58.775231 
L 143.902064 56.651781 
L 143.918083 58.70343 
L 143.982142 53.553782 
L 144.030184 57.986797 
L 144.110255 54.972098 
L 144.126273 53.63944 
L 144.190327 57.108025 
L 144.206345 56.036459 
L 144.238375 55.140872 
L 144.254386 56.274993 
L 144.398518 61.733393 
L 144.430547 63.350789 
L 144.446559 61.684573 
L 144.462577 62.225192 
L 144.59069 58.743867 
L 144.606708 58.799726 
L 144.638738 60.115068 
L 144.670768 59.42037 
L 144.782869 54.271631 
L 144.798881 55.105158 
L 144.927 62.634907 
L 144.975042 59.018335 
L 144.991054 59.003114 
L 145.023084 60.264998 
L 145.071132 57.749241 
L 145.087143 57.736489 
L 145.119173 55.40376 
L 145.135185 58.945361 
L 145.151203 59.899166 
L 145.199245 56.658306 
L 145.215263 56.557446 
L 145.279316 61.524872 
L 145.327364 58.722189 
L 145.343376 58.353179 
L 145.423447 57.965045 
L 145.471495 61.439459 
L 145.503519 63.531283 
L 145.535549 65.878718 
L 145.615626 64.672742 
L 145.743739 59.108875 
L 145.759751 59.373957 
L 145.775769 63.584386 
L 145.871859 60.867861 
L 145.887871 61.10777 
L 145.903883 61.011223 
L 145.919901 57.896245 
L 145.999972 61.1209 
L 146.256204 69.025665 
L 146.272222 67.068234 
L 146.336276 68.195414 
L 146.400336 64.652261 
L 146.432366 66.149104 
L 146.560485 70.121903 
L 146.624538 72.393921 
L 146.640556 69.409651 
L 146.656568 70.707896 
L 146.720628 66.454495 
L 146.768669 70.274327 
L 146.800699 72.65948 
L 146.816717 71.369221 
L 146.912801 66.536927 
L 146.94483 68.191906 
L 146.960848 68.308781 
L 147.04092 71.613486 
L 147.056932 68.084551 
L 147.153021 62.454267 
L 147.185051 66.76668 
L 147.217081 65.830534 
L 147.249105 67.410029 
L 147.265122 65.645732 
L 147.313164 69.762065 
L 147.329182 68.027 
L 147.345194 69.455098 
L 147.393236 66.931538 
L 147.489325 63.345877 
L 147.441283 66.993837 
L 147.521355 64.447143 
L 147.617444 63.04117 
L 147.553385 64.776266 
L 147.633456 63.985547 
L 147.665486 65.618866 
L 147.713528 62.923648 
L 147.729546 64.974735 
L 147.889689 56.237941 
L 148.017808 62.84077 
L 148.06585 59.258194 
L 148.113891 64.05698 
L 148.129909 61.960507 
L 148.161939 61.288721 
L 148.258022 57.849563 
L 148.193963 62.070153 
L 148.290052 58.974879 
L 148.306064 59.666089 
L 148.322082 56.869992 
L 148.40216 51.725189 
L 148.482225 53.554093 
L 148.530267 58.084473 
L 148.578309 51.515507 
L 148.594326 51.11781 
L 148.610344 52.108557 
L 148.626362 54.373194 
L 148.706428 50.426161 
L 148.898607 56.691228 
L 148.914625 56.648004 
L 148.99469 57.395036 
L 148.962666 56.13636 
L 149.010708 56.400354 
L 149.05875 55.252571 
L 149.122809 56.896889 
L 149.186869 52.075691 
L 149.234911 52.080389 
L 149.282952 49.411493 
L 149.29897 52.145273 
L 149.395054 51.425621 
L 149.475131 47.931355 
L 149.42709 52.573868 
L 149.507155 50.099641 
L 149.539191 50.981078 
L 149.571215 48.221281 
L 149.603251 49.591235 
L 149.651292 49.096888 
L 149.763394 57.171539 
L 149.859477 59.577907 
L 149.795417 55.635885 
L 149.875495 58.955651 
L 149.891513 58.483887 
L 149.923537 59.997753 
L 149.95556 59.60503 
L 149.971578 60.970799 
L 150.003614 58.326905 
L 150.035638 59.133065 
L 150.08368 56.796866 
L 150.115715 59.57071 
L 150.131721 56.976119 
L 150.147739 59.86019 
L 150.211799 56.025583 
L 150.243823 57.91177 
L 150.275859 57.877004 
L 150.371942 50.92272 
L 150.38796 53.853374 
L 150.500061 61.358126 
L 150.516079 59.426889 
L 150.548103 61.508784 
L 150.580127 58.998385 
L 150.740282 53.220034 
L 150.612163 60.259921 
L 150.772305 56.646092 
L 150.788323 56.633365 
L 150.820347 53.209744 
L 150.884407 55.558151 
L 150.900425 60.602968 
L 150.932448 55.083608 
L 150.98049 57.22449 
L 150.996508 54.91908 
L 151.060568 59.660131 
L 151.140645 59.087043 
L 151.172669 61.254871 
L 151.188687 59.640292 
L 151.220711 62.333861 
L 151.268752 60.577935 
L 151.332812 67.876464 
L 151.380854 63.323758 
L 151.508973 54.348509 
L 151.524991 54.781663 
L 151.541009 54.625616 
L 151.557015 54.880623 
L 151.701152 59.308896 
L 151.637092 53.424626 
L 151.71717 58.892698 
L 151.797235 50.456706 
L 151.861295 54.941565 
L 151.877313 54.640439 
L 151.941373 59.05791 
L 151.989414 58.651268 
L 152.021438 57.066586 
L 152.06948 58.856746 
L 152.085498 61.268063 
L 152.133539 56.885255 
L 152.165575 57.411686 
L 152.197599 56.003953 
L 152.213617 58.65557 
L 152.245641 58.03192 
L 152.261658 58.331164 
L 152.277677 57.561617 
L 152.453837 53.044667 
L 152.581945 55.616332 
L 152.613981 55.376094 
L 152.629998 57.183143 
L 152.726082 61.200302 
L 152.758106 59.328375 
L 152.870207 55.380383 
L 152.790141 59.940336 
L 152.902243 56.950175 
L 152.918261 58.410559 
L 152.966302 53.710928 
L 152.982308 53.636476 
L 153.030362 56.527396 
L 153.062386 53.205956 
L 153.206523 47.31607 
L 153.238547 48.936998 
L 153.366666 54.443283 
L 153.414708 52.841193 
L 153.462749 50.257246 
L 153.510791 53.363983 
L 153.526809 50.720529 
L 153.622892 58.710873 
L 153.70297 57.526697 
L 153.751012 52.896722 
L 153.799053 57.814363 
L 153.879131 59.975243 
L 153.895149 57.397431 
L 153.927173 54.966611 
L 153.975214 58.098197 
L 154.00725 61.397598 
L 154.071298 58.685534 
L 154.263477 49.863081 
L 154.295512 51.801645 
L 154.439638 56.784548 
L 154.455656 56.536727 
L 154.679858 45.895213 
L 154.7279 46.840757 
L 154.775941 50.083627 
L 154.807977 47.501855 
L 154.904061 42.087192 
L 154.936084 43.310527 
L 155.016162 47.995285 
L 155.048186 47.693212 
L 155.064204 43.886413 
L 155.112245 48.321176 
L 155.144281 45.785872 
L 155.160287 47.564716 
L 155.208341 43.733165 
L 155.224347 43.946684 
L 155.240365 42.452034 
L 155.288406 47.248865 
L 155.304424 46.551521 
L 155.320442 46.252919 
L 155.416526 47.270195 
L 155.448549 41.11527 
L 155.464567 39.178393 
L 155.512609 42.605942 
L 155.528627 40.888053 
L 155.640728 44.732221 
L 155.656746 43.93629 
L 155.736812 40.823786 
L 155.704788 44.160276 
L 155.75283 43.410733 
L 155.864931 49.818642 
L 155.880949 49.255055 
L 155.928991 46.779209 
L 155.961014 50.381881 
L 155.99305 48.295868 
L 156.073116 52.844822 
L 156.137175 51.165115 
L 156.153193 51.283908 
L 156.169211 51.208191 
L 156.329354 57.980607 
L 156.345372 56.436447 
L 156.425438 48.258871 
L 156.505515 50.844259 
L 156.553557 49.924348 
L 156.633635 56.036948 
L 156.681676 54.637775 
L 156.697694 56.945483 
L 156.777759 56.192188 
L 156.889861 48.982244 
L 156.905879 49.665204 
L 157.01798 53.886894 
L 157.033998 51.985334 
L 157.050004 52.690273 
L 157.066022 49.495282 
L 157.130082 50.729413 
L 157.258201 44.19778 
L 157.338266 42.720764 
L 157.38632 49.655502 
L 157.418344 45.712825 
L 157.466385 51.59676 
L 157.482403 50.690864 
L 157.514427 48.449562 
L 157.578487 49.882896 
L 157.610523 52.589626 
L 157.642546 48.405563 
L 157.658564 49.638485 
L 157.67457 46.663984 
L 157.73863 51.815606 
L 157.802689 57.228413 
L 157.834725 54.431552 
L 157.850731 51.40561 
L 157.930809 54.38231 
L 158.010886 59.944784 
L 157.97885 54.303789 
L 158.090952 55.960547 
L 158.155011 56.727571 
L 158.219071 51.996222 
L 158.267113 55.547123 
L 158.331172 52.590848 
L 158.34719 51.91258 
L 158.363196 53.807695 
L 158.379214 52.58285 
L 158.41125 55.631907 
L 158.507333 55.532684 
L 158.635453 51.603126 
L 158.699512 52.543703 
L 158.859655 58.029928 
L 158.891679 57.431996 
L 158.955738 58.401266 
L 159.019798 54.306123 
L 159.083858 56.730479 
L 159.115881 54.977859 
L 159.147917 52.173104 
L 159.195959 55.545332 
L 159.211977 55.43161 
L 159.260019 57.517587 
L 159.308061 55.561573 
L 159.324078 53.309926 
L 159.37212 55.875176 
L 159.420162 54.295858 
L 159.484221 57.485967 
L 159.516245 60.599669 
L 159.564287 57.000914 
L 159.596323 55.364429 
L 159.644364 58.786577 
L 159.660382 58.472712 
L 159.692406 59.348838 
L 159.724442 61.204994 
L 159.756466 58.865386 
L 159.788502 59.619658 
L 159.820525 56.496314 
L 159.900603 58.707946 
L 160.09277 54.845208 
L 160.156829 57.492065 
L 160.124806 54.02224 
L 160.284949 56.553047 
L 160.316972 53.275459 
L 160.39705 55.236447 
L 160.557193 63.384926 
L 160.573211 60.636421 
L 160.813432 70.231666 
L 160.877479 68.745589 
L 161.021616 61.887808 
L 161.037634 61.894352 
L 161.213795 53.493395 
L 161.373938 64.512956 
L 161.42198 62.275661 
L 161.486039 63.614215 
L 161.502057 62.951449 
L 161.534081 65.877997 
L 161.678206 71.256049 
L 161.79032 64.408594 
L 161.870385 66.855295 
L 161.934445 70.918989 
L 161.982486 69.067306 
L 162.030528 67.706658 
L 162.014522 69.315157 
L 162.062564 68.907238 
L 162.126624 73.82436 
L 162.190683 72.218805 
L 162.350826 62.227129 
L 162.38285 66.084092 
L 162.478933 68.157995 
L 162.44691 65.572117 
L 162.494951 67.334825 
L 162.510969 66.985227 
L 162.526987 69.010793 
L 162.655094 74.534407 
L 162.575029 65.371399 
L 162.68713 73.825313 
L 162.735172 74.384384 
L 162.863291 66.840851 
L 162.927351 72.97967 
L 163.039452 71.913439 
L 163.055458 70.040724 
L 163.135536 73.233277 
L 163.151554 73.000065 
L 163.183577 77.368399 
L 163.263655 73.957506 
L 163.327714 76.394528 
L 163.34372 73.496966 
L 163.439816 71.4605 
L 163.375756 75.022429 
L 163.455822 72.714435 
L 163.519881 74.315951 
L 163.535899 71.954181 
L 163.631982 69.254533 
L 163.648001 70.264813 
L 163.664018 71.382284 
L 163.696042 68.48135 
L 163.71206 69.306677 
L 163.760102 66.375197 
L 163.808143 70.506231 
L 163.872203 72.336572 
L 163.856185 70.294484 
L 163.904239 71.019745 
L 163.920245 69.252779 
L 164.01634 69.587657 
L 164.032346 69.554339 
L 164.048364 71.942492 
L 164.096406 66.656203 
L 164.224525 62.436554 
L 164.240543 64.645069 
L 164.288585 59.910751 
L 164.336626 63.724675 
L 164.448728 70.612407 
L 164.496769 67.203408 
L 164.753008 59.144026 
L 164.769014 59.831399 
L 164.897133 68.122856 
L 164.929169 65.106158 
L 164.961193 68.624327 
L 165.04127 65.688662 
L 165.057276 66.296102 
L 165.089312 63.30225 
L 165.10533 63.988241 
L 165.121336 63.051508 
L 165.185395 65.699007 
L 165.201413 64.542565 
L 165.217431 64.155592 
L 165.249455 65.025352 
L 165.377574 68.750678 
L 165.393592 68.181226 
L 165.425616 66.757863 
L 165.569741 60.723583 
L 165.585759 61.071604 
L 165.681854 64.122976 
L 165.665836 60.45773 
L 165.745902 63.736754 
L 165.793956 61.95406 
L 165.809961 61.529717 
L 165.82598 62.39451 
L 165.986122 68.097694 
L 165.874021 60.665267 
L 166.00214 68.051746 
L 166.050182 65.273906 
L 166.082218 68.792423 
L 166.13026 66.416862 
L 166.146265 66.122739 
L 166.258367 56.993967 
L 166.290403 59.604871 
L 166.338444 61.582735 
L 166.354462 59.242253 
L 166.498587 50.104578 
L 166.546629 53.532256 
L 166.802868 47.971548 
L 166.866927 47.77265 
L 166.946993 49.951452 
L 167.139172 56.79045 
L 167.15519 56.904288 
L 167.187213 55.033963 
L 167.251273 57.958623 
L 167.283309 59.742979 
L 167.331351 58.101307 
L 167.363374 55.379595 
L 167.443452 56.024752 
L 167.459458 59.156259 
L 167.555553 58.416822 
L 167.571559 56.342443 
L 167.635619 61.538748 
L 167.74772 66.391933 
L 167.763738 64.569676 
L 167.795774 62.049165 
L 167.843815 65.077563 
L 167.859821 63.78968 
L 167.955917 70.167302 
L 167.971923 69.499409 
L 168.052 62.241487 
L 168.100042 65.201831 
L 168.228161 69.996694 
L 168.164101 63.153548 
L 168.244179 69.28743 
L 168.340263 62.551479 
L 168.372286 63.085945 
L 168.42034 64.653721 
L 168.452364 62.050344 
L 168.468382 62.587089 
L 168.516423 64.295581 
L 168.644543 70.236242 
L 168.676566 70.036166 
L 168.692584 71.536761 
L 168.77265 68.772583 
L 168.804686 69.990493 
L 168.820704 68.570637 
L 168.836709 67.402177 
L 168.884763 69.524381 
L 168.916787 69.35926 
L 168.932805 68.982564 
L 168.964829 70.720397 
L 168.996865 72.699807 
L 169.07693 71.158482 
L 169.429252 54.489501 
L 169.44527 56.108944 
L 169.461276 56.130567 
L 169.589395 59.403267 
L 169.605413 57.373926 
L 169.637437 56.577603 
L 169.653455 57.788712 
L 169.68549 57.639973 
L 169.717514 59.166964 
L 169.733532 56.879328 
L 169.765556 58.4907 
L 169.781574 56.549112 
L 169.877657 57.491149 
L 170.197955 43.563266 
L 170.213961 45.602843 
L 170.262003 41.446342 
L 170.278021 42.497499 
L 170.358098 36.600373 
L 170.40614 39.089454 
L 170.422158 40.221986 
L 170.454182 36.915632 
L 170.4702 37.462196 
L 170.582301 34.128242 
L 170.502223 38.173343 
L 170.614325 34.555011 
L 170.646361 34.763434 
L 170.662366 31.943917 
L 170.742444 35.141242 
L 170.838527 37.188077 
L 170.854545 37.09549 
L 170.870563 36.204088 
L 170.918605 39.663434 
L 170.950629 40.578159 
L 170.966647 39.252161 
L 170.982665 40.080653 
L 171.206867 25.742768 
L 171.222885 28.105846 
L 171.334987 30.100965 
L 171.463094 26.048165 
L 171.49513 28.238827 
L 171.511148 25.477607 
L 171.575195 27.487213 
L 171.591213 26.694703 
L 171.623249 28.130396 
L 171.655273 31.625591 
L 171.751356 31.470723 
L 171.767374 28.041011 
L 171.847452 31.261127 
L 171.975559 38.086664 
L 171.991577 37.667081 
L 172.023612 35.11487 
L 172.087672 36.609465 
L 172.311875 55.359053 
L 172.119696 34.441674 
L 172.39194 51.102162 
L 172.439982 46.880943 
L 172.488036 51.256706 
L 172.52006 47.867131 
L 172.648179 53.613343 
L 172.680202 51.852023 
L 172.69622 51.584484 
L 172.712238 53.062172 
L 172.744262 56.50997 
L 172.808322 56.310755 
L 172.82434 52.853071 
L 172.920423 56.051154 
L 173.064548 60.171409 
L 173.112602 58.175606 
L 173.144626 60.348457 
L 173.160644 61.381644 
L 173.224703 58.49868 
L 173.256727 61.162938 
L 173.288763 59.084257 
L 173.320787 62.275857 
L 173.336805 63.93446 
L 173.400864 61.325895 
L 173.48093 62.879893 
L 173.528971 58.285039 
L 173.577013 57.890782 
L 173.641073 59.377495 
L 173.657091 57.980027 
L 173.705132 62.517855 
L 173.801228 67.808978 
L 173.833252 66.787931 
L 174.057454 54.286644 
L 174.073472 57.291402 
L 174.153538 51.55675 
L 174.185574 52.2634 
L 174.201591 53.500483 
L 174.249633 49.316792 
L 174.393758 41.848536 
L 174.409776 41.883425 
L 174.826158 56.331658 
L 174.4418 39.729833 
L 174.874199 55.383579 
L 175.002319 53.43673 
L 175.018324 53.588102 
L 175.146444 57.801305 
L 175.242527 56.810339 
L 175.306587 57.971051 
L 175.370646 54.472869 
L 175.46673 62.191256 
L 175.530789 58.77162 
L 175.594849 56.864719 
L 175.578843 59.936517 
L 175.658909 57.471676 
L 175.754992 61.984373 
L 175.77101 61.074304 
L 175.83507 55.33317 
L 175.899129 56.610769 
L 175.963189 60.551051 
L 175.995213 56.683792 
L 176.011231 56.522117 
L 176.059272 62.794345 
L 176.155356 61.815745 
L 176.171374 60.967145 
L 176.219415 63.307309 
L 176.235433 63.879811 
L 176.267457 63.109891 
L 176.299493 63.421752 
L 176.315511 62.102518 
L 176.37957 65.845656 
L 176.395576 62.993071 
L 176.459636 65.560215 
L 176.523696 64.357599 
L 176.667821 59.370871 
L 176.683838 60.850716 
L 176.779934 60.073482 
L 176.827976 64.240242 
L 176.924059 62.135782 
L 176.876017 64.396154 
L 176.940077 63.568554 
L 176.956083 63.323202 
L 176.972101 64.223323 
L 176.988119 64.141588 
L 177.052178 66.67735 
L 177.020142 63.128948 
L 177.132244 64.826876 
L 177.228339 60.797515 
L 177.180298 65.577391 
L 177.260363 61.890148 
L 177.372464 67.140559 
L 177.388482 66.879418 
L 177.420506 63.777601 
L 177.500584 66.721526 
L 177.580661 62.859552 
L 177.628703 64.683013 
L 177.644709 65.207391 
L 177.660727 64.349656 
L 177.708768 64.364669 
L 177.740804 59.840888 
L 177.836888 61.430086 
L 177.868911 60.458891 
L 177.900947 61.869783 
L 177.916965 64.825471 
L 177.965007 61.739839 
L 178.013049 63.105363 
L 178.029067 61.896259 
L 178.077108 65.399524 
L 178.141168 68.48936 
L 178.205228 66.642351 
L 178.221233 66.883989 
L 178.365371 60.159104 
L 178.381388 61.346273 
L 178.509496 64.50899 
L 178.589573 68.172207 
L 178.621597 65.729851 
L 178.637615 66.605262 
L 178.685656 63.875937 
L 178.749716 59.584641 
L 178.781752 60.911048 
L 178.877835 69.864502 
L 178.909859 67.826068 
L 179.02196 60.238163 
L 179.070002 62.861031 
L 179.182116 67.305612 
L 179.198121 65.285809 
L 179.230157 64.874994 
L 179.246163 65.687391 
L 179.310223 70.13427 
L 179.3903 68.739863 
L 179.406318 69.531517 
L 179.45436 67.109581 
L 179.486384 66.431203 
L 179.662545 59.91369 
L 179.694581 61.075704 
L 179.726604 59.361333 
L 179.742622 57.97699 
L 179.822688 60.103593 
L 179.838706 60.806131 
L 179.886747 58.113772 
L 179.966825 56.056671 
L 179.918783 58.625893 
L 179.982843 56.226093 
L 180.078926 63.060032 
L 180.126968 62.042792 
L 180.207046 65.734091 
L 180.271093 63.215187 
L 180.287111 62.261022 
L 180.351171 64.130895 
L 180.367189 63.317483 
L 180.383206 63.305324 
L 180.447254 66.563121 
L 180.511314 64.677679 
L 180.54335 63.3563 
L 180.687475 55.059595 
L 180.831612 59.072739 
L 180.847618 57.839811 
L 181.055814 47.220208 
L 181.167916 57.582422 
L 181.199939 57.404213 
L 181.215958 55.43722 
L 181.231975 57.460182 
L 181.296035 56.890216 
L 181.424142 61.360259 
L 181.472184 58.317325 
L 181.50422 61.676868 
L 181.536243 60.582304 
L 181.584297 64.384844 
L 181.648345 61.356721 
L 181.872547 54.956315 
L 182.000667 59.234243 
L 182.080744 64.169706 
L 182.112768 60.971489 
L 182.256905 54.505167 
L 182.336971 55.058892 
L 182.352989 55.833963 
L 182.385025 52.164538 
L 182.417048 54.053939 
L 182.433066 54.021898 
L 182.561173 58.066229 
L 182.593209 55.298996 
L 182.609227 55.254966 
L 182.625233 58.127794 
L 182.689293 53.034487 
L 182.705311 53.466492 
L 182.737334 52.95343 
L 182.76937 53.860688 
L 182.83343 57.793674 
L 182.897489 57.671886 
L 182.913495 56.092019 
L 182.961537 58.361128 
L 182.993573 57.893513 
L 183.025597 61.694648 
L 183.089656 56.796829 
L 183.185752 53.353699 
L 183.233793 54.409213 
L 183.361901 58.88371 
L 183.265817 53.86711 
L 183.377918 58.587619 
L 183.538061 52.493795 
L 183.570097 53.389902 
L 183.698217 60.186 
L 183.714222 58.821191 
L 183.778282 61.853708 
L 183.7943 63.067658 
L 183.85836 59.716161 
L 183.890383 61.191925 
L 183.922419 59.021726 
L 183.986479 56.292168 
L 184.018503 57.657845 
L 184.050526 62.248716 
L 184.130604 58.45729 
L 184.242705 53.453637 
L 184.274729 53.691125 
L 184.306765 52.067436 
L 184.354807 52.835352 
L 184.370825 54.353403 
L 184.418866 52.145627 
L 184.434884 52.292191 
L 184.45089 51.063992 
L 184.498944 52.544595 
L 184.595027 56.234574 
L 184.546986 52.071145 
L 184.611045 55.424462 
L 184.643069 54.3582 
L 184.675093 57.726199 
L 184.707129 55.949371 
L 184.723147 57.836402 
L 184.787206 61.035566 
L 184.803212 56.987056 
L 184.81923 57.41245 
L 184.835248 55.67821 
L 184.88329 57.900106 
L 184.915313 55.868357 
L 185.027415 66.617428 
L 185.107492 63.5338 
L 185.235611 57.477987 
L 185.299671 59.569432 
L 185.315677 63.478124 
L 185.411772 60.743563 
L 185.427778 61.324808 
L 185.459814 59.419435 
L 185.475832 60.051535 
L 185.491838 59.259789 
L 185.523874 60.538225 
L 185.571915 64.594752 
L 185.619957 60.555749 
L 185.796118 53.007548 
L 185.667999 60.745377 
L 185.812136 53.012204 
L 185.940243 56.45969 
L 185.956261 56.664917 
L 185.988297 55.834629 
L 186.020321 52.568559 
L 186.052344 56.15034 
L 186.116404 54.317983 
L 186.292565 49.958705 
L 186.308583 51.103965 
L 186.356625 52.904653 
L 186.372643 50.60773 
L 186.420684 51.574342 
L 186.468726 53.258369 
L 186.500762 50.369111 
L 186.516768 50.815401 
L 186.548804 51.173468 
L 186.612863 53.931156 
L 186.580827 51.119405 
L 186.644887 53.470293 
L 186.724965 46.545001 
L 186.773006 47.082523 
L 186.853072 43.71946 
L 186.885108 45.727881 
L 186.901126 46.623926 
L 186.933149 44.670106 
L 187.061269 38.625029 
L 187.077286 39.515789 
L 187.093292 39.494177 
L 187.221412 42.105058 
L 187.23743 40.829548 
L 187.301489 44.249795 
L 187.445614 34.67692 
L 187.573733 35.352836 
L 187.82996 48.147672 
L 187.845978 47.679422 
L 187.894019 43.536901 
L 187.974097 44.711593 
L 187.990115 44.629663 
L 188.118222 50.12539 
L 188.150258 47.990978 
L 188.166264 47.112163 
L 188.230323 47.682807 
L 188.358443 51.6029 
L 188.374461 48.648398 
L 188.470544 50.524418 
L 188.50258 51.610104 
L 188.566627 50.108862 
L 188.582645 50.483994 
L 188.630687 49.234812 
L 188.646705 48.442963 
L 188.710765 49.369101 
L 188.870908 56.611221 
L 188.934967 54.730026 
L 188.983009 50.858472 
L 189.047069 53.792951 
L 189.15917 59.002864 
L 189.191206 56.631287 
L 189.319313 60.523805 
L 189.22323 55.404078 
L 189.335331 59.134226 
L 189.479468 54.688905 
L 189.511492 55.869591 
L 189.543516 57.974045 
L 189.575552 52.479772 
L 189.607575 55.971056 
L 189.767718 52.509755 
L 189.863814 61.719963 
L 189.927873 59.29125 
L 189.959897 59.420021 
L 189.991933 56.939128 
L 190.039975 59.321935 
L 190.05598 60.903874 
L 190.12004 59.004147 
L 190.136058 59.524144 
L 190.280195 55.415883 
L 190.1841 60.497917 
L 190.312219 57.822996 
L 190.376279 60.705313 
L 190.408302 57.352803 
L 190.42432 59.56909 
L 190.616499 51.090657 
L 190.48838 61.140642 
L 190.648523 54.14671 
L 190.680559 60.653163 
L 190.760624 55.365163 
L 190.856708 52.899441 
L 190.79266 56.192518 
L 190.888744 53.377816 
L 190.936785 55.032453 
L 191.000845 53.590913 
L 191.016863 54.231091 
L 191.048887 51.568207 
L 191.080923 50.448811 
L 191.096928 53.401089 
L 191.128964 53.637937 
L 191.225048 59.84269 
L 191.289107 59.703098 
L 191.51331 51.772243 
L 191.657435 56.718271 
L 191.673453 55.939039 
L 191.737513 53.181234 
L 191.769536 56.195078 
L 191.81759 53.594982 
L 191.88165 52.477182 
L 191.929691 54.878014 
L 191.945697 53.421674 
L 191.977733 56.373482 
L 192.041793 60.895503 
L 192.105852 60.019108 
L 192.1699 57.871376 
L 192.201936 60.626633 
L 192.217954 59.768507 
L 192.233959 61.357882 
L 192.282013 58.962659 
L 192.314037 59.555734 
L 192.330055 59.653141 
L 192.346061 60.64453 
L 192.362079 57.53874 
L 192.442156 60.480155 
L 192.746424 48.872836 
L 192.762442 49.835457 
L 192.84252 52.867442 
L 192.890562 52.231224 
L 192.90658 51.697992 
L 192.938603 53.295408 
L 192.970627 53.103245 
L 193.098746 56.769156 
L 193.034687 52.794047 
L 193.114764 56.735001 
L 193.162806 53.022725 
L 193.242884 54.966715 
L 193.338967 50.859419 
L 193.403027 51.413327 
L 193.579188 55.678234 
L 193.611211 54.805694 
L 193.787372 49.658166 
L 193.80339 49.876334 
L 193.819408 48.498174 
L 193.883468 51.977586 
L 193.899474 52.246652 
L 193.947515 49.609908 
L 193.979551 51.915794 
L 194.059617 54.563775 
L 194.091653 52.428753 
L 194.10767 52.370181 
L 194.235777 48.366177 
L 194.155712 53.61924 
L 194.267813 48.556489 
L 194.299837 49.461401 
L 194.315855 49.170088 
L 194.347879 46.57045 
L 194.379915 50.32857 
L 194.395933 50.111788 
L 194.443974 53.215109 
L 194.475998 49.974255 
L 194.492016 50.835913 
L 194.572081 48.231601 
L 194.604117 49.870701 
L 194.620135 51.146589 
L 194.652159 46.980777 
L 194.748242 45.811223 
L 194.684195 46.988365 
L 194.76426 46.094379 
L 194.844338 50.347377 
L 194.89238 47.89577 
L 195.036505 43.010476 
L 195.116582 50.525964 
L 195.164624 48.569938 
L 195.292743 46.41887 
L 195.308761 46.881884 
L 195.324767 46.525846 
L 195.468904 37.602919 
L 195.677089 43.674764 
L 195.500928 37.18292 
L 195.709125 43.489865 
L 195.757167 41.200543 
L 195.805208 44.572716 
L 195.821226 42.432775 
L 195.837232 43.722197 
L 195.901292 41.531059 
L 195.91731 41.132153 
L 195.933328 43.63514 
L 195.997387 39.090248 
L 196.029411 36.945046 
L 196.061435 40.034313 
L 196.093471 38.902557 
L 196.189554 44.972484 
L 196.237596 44.217363 
L 196.333691 39.67662 
L 196.349697 41.799618 
L 196.365715 42.17241 
L 196.397751 41.835955 
L 196.429775 38.857354 
L 196.493834 40.793865 
L 196.573912 45.915156 
L 196.653977 45.382908 
L 196.782096 43.444693 
L 196.81412 44.251195 
L 196.846156 44.876897 
L 196.894198 43.781313 
L 196.990281 39.140486 
L 197.006299 39.760763 
L 197.1184 46.014727 
L 197.134418 44.5816 
L 197.166442 46.017116 
L 197.198478 41.528535 
L 197.214484 41.157082 
L 197.262525 50.302486 
L 197.358621 47.95172 
L 197.374639 48.264791 
L 197.390645 47.276287 
L 197.422681 43.980216 
L 197.48674 47.892562 
L 197.614847 49.546863 
L 197.726949 42.527965 
L 197.775002 42.695321 
L 197.83905 45.441529 
L 197.999205 50.349827 
L 198.095289 42.405945 
L 198.20739 44.596039 
L 198.351515 52.187317 
L 198.367533 51.732032 
L 198.431593 51.825548 
L 198.51167 47.526241 
L 198.559712 50.214512 
L 198.607754 48.533589 
L 198.703837 44.86775 
L 198.655795 48.562948 
L 198.719855 46.298519 
L 198.831956 49.676912 
L 198.767897 45.736869 
L 198.912034 48.169278 
L 199.008117 44.64748 
L 199.056159 45.041859 
L 199.072177 45.993201 
L 199.1042 43.00238 
L 199.136236 43.589619 
L 199.216302 41.120733 
L 199.16826 43.601131 
L 199.248338 43.233185 
L 199.296379 42.646196 
L 199.280361 43.565827 
L 199.312397 43.465785 
L 199.344421 44.481437 
L 199.376457 41.981682 
L 199.424499 43.984224 
L 199.520582 40.982607 
L 199.47254 44.025914 
L 199.5366 42.980066 
L 199.60066 47.48314 
L 199.632683 44.298945 
L 199.648701 42.402591 
L 199.696743 47.421409 
L 199.728767 46.003252 
L 199.744785 45.873565 
L 199.792826 49.975972 
L 199.856886 47.247282 
L 199.888922 44.748731 
L 199.936964 47.99545 
L 199.952969 46.29536 
L 200.001023 50.524864 
L 200.049065 47.356526 
L 200.145148 47.738238 
L 200.19319 44.444226 
L 200.241232 45.010556 
L 200.273268 43.763569 
L 200.289285 43.464679 
L 200.321309 44.149791 
L 200.401387 51.341631 
L 200.449429 47.217887 
L 200.577548 42.918861 
L 200.481452 47.851233 
L 200.593553 43.471559 
L 200.609572 43.152836 
L 200.641595 44.579541 
L 200.721673 47.181574 
L 200.753697 45.445146 
L 200.769715 43.68487 
L 200.849792 45.453804 
L 200.865798 46.74564 
L 200.945876 44.676503 
L 200.977911 45.473607 
L 201.009935 47.633174 
L 201.041959 43.564922 
L 201.057977 40.544834 
L 201.15406 41.369269 
L 201.170078 41.266111 
L 201.186096 41.643388 
L 201.298197 45.833665 
L 201.314215 44.990631 
L 201.394281 41.003901 
L 201.426317 44.282515 
L 201.442322 43.190744 
L 201.474358 45.791585 
L 201.506382 45.045293 
L 201.58646 48.237601 
L 201.602478 47.834858 
L 201.714579 40.528459 
L 201.746603 40.938871 
L 201.874722 48.05178 
L 201.89074 46.978693 
L 202.098925 40.45496 
L 202.114943 41.940395 
L 202.195008 45.899484 
L 202.323127 44.720203 
L 202.387187 42.213219 
L 202.419211 45.422465 
L 202.435229 46.271616 
L 202.467252 42.728353 
L 202.499288 43.651931 
L 202.54733 41.710746 
L 202.595372 47.883769 
L 202.675449 47.364469 
L 202.803568 43.878354 
L 202.819574 43.383952 
L 202.835592 45.801233 
L 202.85161 45.777079 
L 202.867616 45.683252 
L 202.899652 49.632234 
L 202.963711 45.16378 
L 202.979729 45.347665 
L 203.043777 45.647037 
L 203.107836 42.435512 
L 203.235956 45.172946 
L 203.251974 44.380455 
L 203.267979 43.572389 
L 203.300015 45.468389 
L 203.332039 43.734173 
L 203.428135 49.099827 
L 203.460158 47.492329 
L 203.492194 43.945908 
L 203.57226 46.685339 
L 203.604296 47.562291 
L 203.620301 45.976966 
L 203.716397 45.904598 
L 203.748421 49.534435 
L 203.892558 42.265852 
L 203.956605 45.992902 
L 204.004659 43.521644 
L 204.052701 44.596778 
L 204.116761 42.321601 
L 204.244868 46.85839 
L 204.260886 46.696741 
L 204.308927 38.580162 
L 204.405023 40.592609 
L 204.485088 45.413043 
L 204.53313 47.95169 
L 204.565166 44.333199 
L 204.59719 40.866245 
L 204.645231 45.04247 
L 204.709291 50.110487 
L 204.757333 48.46356 
L 204.805386 44.459019 
L 204.869434 46.673736 
L 204.917488 46.634759 
L 204.981547 50.847699 
L 205.029589 47.129607 
L 205.045595 46.822811 
L 205.061613 47.725309 
L 205.109654 51.273741 
L 205.20575 50.439316 
L 205.237774 47.789435 
L 205.349875 48.101351 
L 205.397917 45.914179 
L 205.477994 49.790768 
L 205.622119 42.865153 
L 205.638137 43.112625 
L 205.718215 42.163978 
L 205.750239 43.985019 
L 205.814298 44.032317 
L 205.830316 42.583439 
L 205.86234 38.808375 
L 205.942418 42.269206 
L 205.958423 43.87126 
L 205.990459 41.450705 
L 206.006477 43.616376 
" clip-path="url(#p76958c3f0c)" style="fill: none; stroke: #d55e00; stroke-width: 1.25; stroke-linecap: square"/>
   </g>
   <g id="patch_4">
    <path d="M 37.85375 131.718516 
L 37.85375 20.418516 
" style="fill: none; stroke: #000000; stroke-width: 0.8; stroke-linejoin: miter; stroke-linecap: square"/>
   </g>
   <g id="patch_5">
    <path d="M 37.85375 131.718516 
L 214.01375 131.718516 
" style="fill: none; stroke: #000000; stroke-width: 0.8; stroke-linejoin: miter; stroke-linecap: square"/>
   </g>
   <g id="text_13">
    <!-- drugs3003 rep3 -->
    <g transform="translate(88.060664 14.418516) scale(0.095 -0.095)">
     <defs>
      <path id="DejaVuSans-64" d="M 2906 2969 
L 2906 4863 
L 3481 4863 
L 3481 0 
L 2906 0 
L 2906 525 
Q 2725 213 2448 61 
Q 2172 -91 1784 -91 
Q 1150 -91 751 415 
Q 353 922 353 1747 
Q 353 2572 751 3078 
Q 1150 3584 1784 3584 
Q 2172 3584 2448 3432 
Q 2725 3281 2906 2969 
z
M 947 1747 
Q 947 1113 1208 752 
Q 1469 391 1925 391 
Q 2381 391 2643 752 
Q 2906 1113 2906 1747 
Q 2906 2381 2643 2742 
Q 2381 3103 1925 3103 
Q 1469 3103 1208 2742 
Q 947 2381 947 1747 
z
" transform="scale(0.015625)"/>
      <path id="DejaVuSans-72" d="M 2631 2963 
Q 2534 3019 2420 3045 
Q 2306 3072 2169 3072 
Q 1681 3072 1420 2755 
Q 1159 2438 1159 1844 
L 1159 0 
L 581 0 
L 581 3500 
L 1159 3500 
L 1159 2956 
Q 1341 3275 1631 3429 
Q 1922 3584 2338 3584 
Q 2397 3584 2469 3576 
Q 2541 3569 2628 3553 
L 2631 2963 
z
" transform="scale(0.015625)"/>
      <path id="DejaVuSans-75" d="M 544 1381 
L 544 3500 
L 1119 3500 
L 1119 1403 
Q 1119 906 1312 657 
Q 1506 409 1894 409 
Q 2359 409 2629 706 
Q 2900 1003 2900 1516 
L 2900 3500 
L 3475 3500 
L 3475 0 
L 2900 0 
L 2900 538 
Q 2691 219 2414 64 
Q 2138 -91 1772 -91 
Q 1169 -91 856 284 
Q 544 659 544 1381 
z
M 1991 3584 
L 1991 3584 
z
" transform="scale(0.015625)"/>
      <path id="DejaVuSans-67" d="M 2906 1791 
Q 2906 2416 2648 2759 
Q 2391 3103 1925 3103 
Q 1463 3103 1205 2759 
Q 947 2416 947 1791 
Q 947 1169 1205 825 
Q 1463 481 1925 481 
Q 2391 481 2648 825 
Q 2906 1169 2906 1791 
z
M 3481 434 
Q 3481 -459 3084 -895 
Q 2688 -1331 1869 -1331 
Q 1566 -1331 1297 -1286 
Q 1028 -1241 775 -1147 
L 775 -588 
Q 1028 -725 1275 -790 
Q 1522 -856 1778 -856 
Q 2344 -856 2625 -561 
Q 2906 -266 2906 331 
L 2906 616 
Q 2728 306 2450 153 
Q 2172 0 1784 0 
Q 1141 0 747 490 
Q 353 981 353 1791 
Q 353 2603 747 3093 
Q 1141 3584 1784 3584 
Q 2172 3584 2450 3431 
Q 2728 3278 2906 2969 
L 2906 3500 
L 3481 3500 
L 3481 434 
z
" transform="scale(0.015625)"/>
      <path id="DejaVuSans-33" d="M 2597 2516 
Q 3050 2419 3304 2112 
Q 3559 1806 3559 1356 
Q 3559 666 3084 287 
Q 2609 -91 1734 -91 
Q 1441 -91 1130 -33 
Q 819 25 488 141 
L 488 750 
Q 750 597 1062 519 
Q 1375 441 1716 441 
Q 2309 441 2620 675 
Q 2931 909 2931 1356 
Q 2931 1769 2642 2001 
Q 2353 2234 1838 2234 
L 1294 2234 
L 1294 2753 
L 1863 2753 
Q 2328 2753 2575 2939 
Q 2822 3125 2822 3475 
Q 2822 3834 2567 4026 
Q 2313 4219 1838 4219 
Q 1578 4219 1281 4162 
Q 984 4106 628 3988 
L 628 4550 
Q 988 4650 1302 4700 
Q 1616 4750 1894 4750 
Q 2613 4750 3031 4423 
Q 3450 4097 3450 3541 
Q 3450 3153 3228 2886 
Q 3006 2619 2597 2516 
z
" transform="scale(0.015625)"/>
      <path id="DejaVuSans-70" d="M 1159 525 
L 1159 -1331 
L 581 -1331 
L 581 3500 
L 1159 3500 
L 1159 2969 
Q 1341 3281 1617 3432 
Q 1894 3584 2278 3584 
Q 2916 3584 3314 3078 
Q 3713 2572 3713 1747 
Q 3713 922 3314 415 
Q 2916 -91 2278 -91 
Q 1894 -91 1617 61 
Q 1341 213 1159 525 
z
M 3116 1747 
Q 3116 2381 2855 2742 
Q 2594 3103 2138 3103 
Q 1681 3103 1420 2742 
Q 1159 2381 1159 1747 
Q 1159 1113 1420 752 
Q 1681 391 2138 391 
Q 2594 391 2855 752 
Q 3116 1113 3116 1747 
z
" transform="scale(0.015625)"/>
     </defs>
     <use xlink:href="#DejaVuSans-64"/>
     <use xlink:href="#DejaVuSans-72" transform="translate(63.476562 0)"/>
     <use xlink:href="#DejaVuSans-75" transform="translate(104.589844 0)"/>
     <use xlink:href="#DejaVuSans-67" transform="translate(167.96875 0)"/>
     <use xlink:href="#DejaVuSans-73" transform="translate(231.445312 0)"/>
     <use xlink:href="#DejaVuSans-33" transform="translate(283.544922 0)"/>
     <use xlink:href="#DejaVuSans-30" transform="translate(347.167969 0)"/>
     <use xlink:href="#DejaVuSans-30" transform="translate(410.791016 0)"/>
     <use xlink:href="#DejaVuSans-33" transform="translate(474.414062 0)"/>
     <use xlink:href="#DejaVuSans-20" transform="translate(538.037109 0)"/>
     <use xlink:href="#DejaVuSans-72" transform="translate(569.824219 0)"/>
     <use xlink:href="#DejaVuSans-65" transform="translate(608.6875 0)"/>
     <use xlink:href="#DejaVuSans-70" transform="translate(670.210938 0)"/>
     <use xlink:href="#DejaVuSans-33" transform="translate(733.6875 0)"/>
    </g>
   </g>
  </g>
 </g>
 <defs>
  <clipPath id="p76958c3f0c">
   <rect x="37.85375" y="20.418516" width="176.16" height="111.3"/>
  </clipPath>
 </defs>
</svg>
