<?xml version="1.0" encoding="utf-8" standalone="no"?>
<!DOCTYPE svg PUBLIC "-//W3C//DTD SVG 1.1//EN"
  "http://www.w3.org/Graphics/SVG/1.1/DTD/svg11.dtd">
<svg xmlns:xlink="http://www.w3.org/1999/xlink" width="226.01375pt" height="164.903516pt" viewBox="0 0 226.01375 164.903516" xmlns="http://www.w3.org/2000/svg" version="1.1">
 <metadata>
  <rdf:RDF xmlns:dc="http://purl.org/dc/elements/1.1/" xmlns:cc="http://creativecommons.org/ns#" xmlns:rdf="http://www.w3.org/1999/02/22-rdf-syntax-ns#">
   <cc:Work>
    <dc:type rdf:resource="http://purl.org/dc/dcmitype/StillImage"/>
    <dc:date>2026-05-24T13:54:10.101414</dc:date>
    <dc:format>image/svg+xml</dc:format>
    <dc:creator>
     <cc:Agent>
      <dc:title>Matplotlib v3.10.9, https://matplotlib.org/</dc:title>
     </cc:Agent>
    </dc:creator>
   </cc:Work>
  </rdf:RDF>
 </metadata>
 <defs>
  <style type="text/css">*{stroke-linejoin: round; stroke-linecap: butt}</style>
 </defs>
 <g id="figure_1">
  <g id="patch_1">
   <path d="M 0 164.903516 
L 226.01375 164.903516 
L 226.01375 0 
L 0 0 
z
" style="fill: #ffffff"/>
  </g>
  <g id="axes_1">
   <g id="patch_2">
    <path d="M 37.85375 131.718516 
L 218.81375 131.718516 
L 218.81375 20.418516 
L 37.85375 20.418516 
z
" style="fill: #ffffff"/>
   </g>
   <g id="patch_3">
    <path d="M 128.33375 131.718516 
L 210.588295 131.718516 
L 210.588295 20.418516 
L 128.33375 20.418516 
z
" clip-path="url(#pc298cde838)" style="fill: #bdbdbd; opacity: 0.18"/>
   </g>
   <g id="matplotlib.axis_1">
    <g id="xtick_1">
     <g id="line2d_1">
      <defs>
       <path id="md5f81e0468" d="M 0 0 
L 0 3 
" style="stroke: #000000; stroke-width: 0.7"/>
      </defs>
      <g>
       <use xlink:href="#md5f81e0468" x="46.079205" y="131.718516" style="stroke: #000000; stroke-width: 0.7"/>
      </g>
     </g>
     <g id="text_1">
      <!-- 0 -->
      <g transform="translate(43.693267 143.917344) scale(0.075 -0.075)">
       <defs>
        <path id="DejaVuSans-30" d="M 2034 4250 
Q 1547 4250 1301 3770 
Q 1056 3291 1056 2328 
Q 1056 1369 1301 889 
Q 1547 409 2034 409 
Q 2525 409 2770 889 
Q 3016 1369 3016 2328 
Q 3016 3291 2770 3770 
Q 2525 4250 2034 4250 
z
M 2034 4750 
Q 2819 4750 3233 4129 
Q 3647 3509 3647 2328 
Q 3647 1150 3233 529 
Q 2819 -91 2034 -91 
Q 1250 -91 836 529 
Q 422 1150 422 2328 
Q 422 3509 836 4129 
Q 1250 4750 2034 4750 
z
" transform="scale(0.015625)"/>
       </defs>
       <use xlink:href="#DejaVuSans-30"/>
      </g>
     </g>
    </g>
    <g id="xtick_2">
     <g id="line2d_2">
      <g>
       <use xlink:href="#md5f81e0468" x="78.981023" y="131.718516" style="stroke: #000000; stroke-width: 0.7"/>
      </g>
     </g>
     <g id="text_2">
      <!-- 20 -->
      <g transform="translate(74.209148 143.917344) scale(0.075 -0.075)">
       <defs>
        <path id="DejaVuSans-32" d="M 1228 531 
L 3431 531 
L 3431 0 
L 469 0 
L 469 531 
Q 828 903 1448 1529 
Q 2069 2156 2228 2338 
Q 2531 2678 2651 2914 
Q 2772 3150 2772 3378 
Q 2772 3750 2511 3984 
Q 2250 4219 1831 4219 
Q 1534 4219 1204 4116 
Q 875 4013 500 3803 
L 500 4441 
Q 881 4594 1212 4672 
Q 1544 4750 1819 4750 
Q 2544 4750 2975 4387 
Q 3406 4025 3406 3419 
Q 3406 3131 3298 2873 
Q 3191 2616 2906 2266 
Q 2828 2175 2409 1742 
Q 1991 1309 1228 531 
z
" transform="scale(0.015625)"/>
       </defs>
       <use xlink:href="#DejaVuSans-32"/>
       <use xlink:href="#DejaVuSans-30" transform="translate(63.623047 0)"/>
      </g>
     </g>
    </g>
    <g id="xtick_3">
     <g id="line2d_3">
      <g>
       <use xlink:href="#md5f81e0468" x="111.882841" y="131.718516" style="stroke: #000000; stroke-width: 0.7"/>
      </g>
     </g>
     <g id="text_3">
      <!-- 40 -->
      <g transform="translate(107.110966 143.917344) scale(0.075 -0.075)">
       <defs>
        <path id="DejaVuSans-34" d="M 2419 4116 
L 825 1625 
L 2419 1625 
L 2419 4116 
z
M 2253 4666 
L 3047 4666 
L 3047 1625 
L 3713 1625 
L 3713 1100 
L 3047 1100 
L 3047 0 
L 2419 0 
L 2419 1100 
L 313 1100 
L 313 1709 
L 2253 4666 
z
" transform="scale(0.015625)"/>
       </defs>
       <use xlink:href="#DejaVuSans-34"/>
       <use xlink:href="#DejaVuSans-30" transform="translate(63.623047 0)"/>
      </g>
     </g>
    </g>
    <g id="xtick_4">
     <g id="line2d_4">
      <g>
       <use xlink:href="#md5f81e0468" x="144.784659" y="131.718516" style="stroke: #000000; stroke-width: 0.7"/>
      </g>
     </g>
     <g id="text_4">
      <!-- 60 -->
      <g transform="translate(140.012784 143.917344) scale(0.075 -0.075)">
       <defs>
        <path id="DejaVuSans-36" d="M 2113 2584 
Q 1688 2584 1439 2293 
Q 1191 2003 1191 1497 
Q 1191 994 1439 701 
Q 1688 409 2113 409 
Q 2538 409 2786 701 
Q 3034 994 3034 1497 
Q 3034 2003 2786 2293 
Q 2538 2584 2113 2584 
z
M 3366 4563 
L 3366 3988 
Q 3128 4100 2886 4159 
Q 2644 4219 2406 4219 
Q 1781 4219 1451 3797 
Q 1122 3375 1075 2522 
Q 1259 2794 1537 2939 
Q 1816 3084 2150 3084 
Q 2853 3084 3261 2657 
Q 3669 2231 3669 1497 
Q 3669 778 3244 343 
Q 2819 -91 2113 -91 
Q 1303 -91 875 529 
Q 447 1150 447 2328 
Q 447 3434 972 4092 
Q 1497 4750 2381 4750 
Q 2619 4750 2861 4703 
Q 3103 4656 3366 4563 
z
" transform="scale(0.015625)"/>
       </defs>
       <use xlink:href="#DejaVuSans-36"/>
       <use xlink:href="#DejaVuSans-30" transform="translate(63.623047 0)"/>
      </g>
     </g>
    </g>
    <g id="xtick_5">
     <g id="line2d_5">
      <g>
       <use xlink:href="#md5f81e0468" x="177.686477" y="131.718516" style="stroke: #000000; stroke-width: 0.7"/>
      </g>
     </g>
     <g id="text_5">
      <!-- 80 -->
      <g transform="translate(172.914602 143.917344) scale(0.075 -0.075)">
       <defs>
        <path id="DejaVuSans-38" d="M 2034 2216 
Q 1584 2216 1326 1975 
Q 1069 1734 1069 1313 
Q 1069 891 1326 650 
Q 1584 409 2034 409 
Q 2484 409 2743 651 
Q 3003 894 3003 1313 
Q 3003 1734 2745 1975 
Q 2488 2216 2034 2216 
z
M 1403 2484 
Q 997 2584 770 2862 
Q 544 3141 544 3541 
Q 544 4100 942 4425 
Q 1341 4750 2034 4750 
Q 2731 4750 3128 4425 
Q 3525 4100 3525 3541 
Q 3525 3141 3298 2862 
Q 3072 2584 2669 2484 
Q 3125 2378 3379 2068 
Q 3634 1759 3634 1313 
Q 3634 634 3220 271 
Q 2806 -91 2034 -91 
Q 1263 -91 848 271 
Q 434 634 434 1313 
Q 434 1759 690 2068 
Q 947 2378 1403 2484 
z
M 1172 3481 
Q 1172 3119 1398 2916 
Q 1625 2713 2034 2713 
Q 2441 2713 2670 2916 
Q 2900 3119 2900 3481 
Q 2900 3844 2670 4047 
Q 2441 4250 2034 4250 
Q 1625 4250 1398 4047 
Q 1172 3844 1172 3481 
z
" transform="scale(0.015625)"/>
       </defs>
       <use xlink:href="#DejaVuSans-38"/>
       <use xlink:href="#DejaVuSans-30" transform="translate(63.623047 0)"/>
      </g>
     </g>
    </g>
    <g id="xtick_6">
     <g id="line2d_6">
      <g>
       <use xlink:href="#md5f81e0468" x="210.588295" y="131.718516" style="stroke: #000000; stroke-width: 0.7"/>
      </g>
     </g>
     <g id="text_6">
      <!-- 100 -->
      <g transform="translate(203.430483 143.917344) scale(0.075 -0.075)">
       <defs>
        <path id="DejaVuSans-31" d="M 794 531 
L 1825 531 
L 1825 4091 
L 703 3866 
L 703 4441 
L 1819 4666 
L 2450 4666 
L 2450 531 
L 3481 531 
L 3481 0 
L 794 0 
L 794 531 
z
" transform="scale(0.015625)"/>
       </defs>
       <use xlink:href="#DejaVuSans-31"/>
       <use xlink:href="#DejaVuSans-30" transform="translate(63.623047 0)"/>
       <use xlink:href="#DejaVuSans-30" transform="translate(127.246094 0)"/>
      </g>
     </g>
    </g>
    <g id="text_7">
     <!-- Time (ns) -->
     <g transform="translate(108.360742 155.935781) scale(0.085 -0.085)">
      <defs>
       <path id="DejaVuSans-54" d="M -19 4666 
L 3928 4666 
L 3928 4134 
L 2272 4134 
L 2272 0 
L 1638 0 
L 1638 4134 
L -19 4134 
L -19 4666 
z
" transform="scale(0.015625)"/>
       <path id="DejaVuSans-69" d="M 603 3500 
L 1178 3500 
L 1178 0 
L 603 0 
L 603 3500 
z
M 603 4863 
L 1178 4863 
L 1178 4134 
L 603 4134 
L 603 4863 
z
" transform="scale(0.015625)"/>
       <path id="DejaVuSans-6d" d="M 3328 2828 
Q 3544 3216 3844 3400 
Q 4144 3584 4550 3584 
Q 5097 3584 5394 3201 
Q 5691 2819 5691 2113 
L 5691 0 
L 5113 0 
L 5113 2094 
Q 5113 2597 4934 2840 
Q 4756 3084 4391 3084 
Q 3944 3084 3684 2787 
Q 3425 2491 3425 1978 
L 3425 0 
L 2847 0 
L 2847 2094 
Q 2847 2600 2669 2842 
Q 2491 3084 2119 3084 
Q 1678 3084 1418 2786 
Q 1159 2488 1159 1978 
L 1159 0 
L 581 0 
L 581 3500 
L 1159 3500 
L 1159 2956 
Q 1356 3278 1631 3431 
Q 1906 3584 2284 3584 
Q 2666 3584 2933 3390 
Q 3200 3197 3328 2828 
z
" transform="scale(0.015625)"/>
       <path id="DejaVuSans-65" d="M 3597 1894 
L 3597 1613 
L 953 1613 
Q 991 1019 1311 708 
Q 1631 397 2203 397 
Q 2534 397 2845 478 
Q 3156 559 3463 722 
L 3463 178 
Q 3153 47 2828 -22 
Q 2503 -91 2169 -91 
Q 1331 -91 842 396 
Q 353 884 353 1716 
Q 353 2575 817 3079 
Q 1281 3584 2069 3584 
Q 2775 3584 3186 3129 
Q 3597 2675 3597 1894 
z
M 3022 2063 
Q 3016 2534 2758 2815 
Q 2500 3097 2075 3097 
Q 1594 3097 1305 2825 
Q 1016 2553 972 2059 
L 3022 2063 
z
" transform="scale(0.015625)"/>
       <path id="DejaVuSans-20" transform="scale(0.015625)"/>
       <path id="DejaVuSans-28" d="M 1984 4856 
Q 1566 4138 1362 3434 
Q 1159 2731 1159 2009 
Q 1159 1288 1364 580 
Q 1569 -128 1984 -844 
L 1484 -844 
Q 1016 -109 783 600 
Q 550 1309 550 2009 
Q 550 2706 781 3412 
Q 1013 4119 1484 4856 
L 1984 4856 
z
" transform="scale(0.015625)"/>
       <path id="DejaVuSans-6e" d="M 3513 2113 
L 3513 0 
L 2938 0 
L 2938 2094 
Q 2938 2591 2744 2837 
Q 2550 3084 2163 3084 
Q 1697 3084 1428 2787 
Q 1159 2491 1159 1978 
L 1159 0 
L 581 0 
L 581 3500 
L 1159 3500 
L 1159 2956 
Q 1366 3272 1645 3428 
Q 1925 3584 2291 3584 
Q 2894 3584 3203 3211 
Q 3513 2838 3513 2113 
z
" transform="scale(0.015625)"/>
       <path id="DejaVuSans-73" d="M 2834 3397 
L 2834 2853 
Q 2591 2978 2328 3040 
Q 2066 3103 1784 3103 
Q 1356 3103 1142 2972 
Q 928 2841 928 2578 
Q 928 2378 1081 2264 
Q 1234 2150 1697 2047 
L 1894 2003 
Q 2506 1872 2764 1633 
Q 3022 1394 3022 966 
Q 3022 478 2636 193 
Q 2250 -91 1575 -91 
Q 1294 -91 989 -36 
Q 684 19 347 128 
L 347 722 
Q 666 556 975 473 
Q 1284 391 1588 391 
Q 1994 391 2212 530 
Q 2431 669 2431 922 
Q 2431 1156 2273 1281 
Q 2116 1406 1581 1522 
L 1381 1569 
Q 847 1681 609 1914 
Q 372 2147 372 2553 
Q 372 3047 722 3315 
Q 1072 3584 1716 3584 
Q 2034 3584 2315 3537 
Q 2597 3491 2834 3397 
z
" transform="scale(0.015625)"/>
       <path id="DejaVuSans-29" d="M 513 4856 
L 1013 4856 
Q 1481 4119 1714 3412 
Q 1947 2706 1947 2009 
Q 1947 1309 1714 600 
Q 1481 -109 1013 -844 
L 513 -844 
Q 928 -128 1133 580 
Q 1338 1288 1338 2009 
Q 1338 2731 1133 3434 
Q 928 4138 513 4856 
z
" transform="scale(0.015625)"/>
      </defs>
      <use xlink:href="#DejaVuSans-54"/>
      <use xlink:href="#DejaVuSans-69" transform="translate(57.958984 0)"/>
      <use xlink:href="#DejaVuSans-6d" transform="translate(85.742188 0)"/>
      <use xlink:href="#DejaVuSans-65" transform="translate(183.154297 0)"/>
      <use xlink:href="#DejaVuSans-20" transform="translate(244.677734 0)"/>
      <use xlink:href="#DejaVuSans-28" transform="translate(276.464844 0)"/>
      <use xlink:href="#DejaVuSans-6e" transform="translate(315.478516 0)"/>
      <use xlink:href="#DejaVuSans-73" transform="translate(378.857422 0)"/>
      <use xlink:href="#DejaVuSans-29" transform="translate(430.957031 0)"/>
     </g>
    </g>
   </g>
   <g id="matplotlib.axis_2">
    <g id="ytick_1">
     <g id="line2d_7">
      <defs>
       <path id="m2264842610" d="M 0 0 
L -3 0 
" style="stroke: #000000; stroke-width: 0.7"/>
      </defs>
      <g>
       <use xlink:href="#m2264842610" x="37.85375" y="121.965705" style="stroke: #000000; stroke-width: 0.7"/>
      </g>
     </g>
     <g id="text_8">
      <!-- 2.0 -->
      <g transform="translate(19.426406 124.815119) scale(0.075 -0.075)">
       <defs>
        <path id="DejaVuSans-2e" d="M 684 794 
L 1344 794 
L 1344 0 
L 684 0 
L 684 794 
z
" transform="scale(0.015625)"/>
       </defs>
       <use xlink:href="#DejaVuSans-32"/>
       <use xlink:href="#DejaVuSans-2e" transform="translate(63.623047 0)"/>
       <use xlink:href="#DejaVuSans-30" transform="translate(95.410156 0)"/>
      </g>
     </g>
    </g>
    <g id="ytick_2">
     <g id="line2d_8">
      <g>
       <use xlink:href="#m2264842610" x="37.85375" y="96.184533" style="stroke: #000000; stroke-width: 0.7"/>
      </g>
     </g>
     <g id="text_9">
      <!-- 2.5 -->
      <g transform="translate(19.426406 99.033947) scale(0.075 -0.075)">
       <defs>
        <path id="DejaVuSans-35" d="M 691 4666 
L 3169 4666 
L 3169 4134 
L 1269 4134 
L 1269 2991 
Q 1406 3038 1543 3061 
Q 1681 3084 1819 3084 
Q 2600 3084 3056 2656 
Q 3513 2228 3513 1497 
Q 3513 744 3044 326 
Q 2575 -91 1722 -91 
Q 1428 -91 1123 -41 
Q 819 9 494 109 
L 494 744 
Q 775 591 1075 516 
Q 1375 441 1709 441 
Q 2250 441 2565 725 
Q 2881 1009 2881 1497 
Q 2881 1984 2565 2268 
Q 2250 2553 1709 2553 
Q 1456 2553 1204 2497 
Q 953 2441 691 2322 
L 691 4666 
z
" transform="scale(0.015625)"/>
       </defs>
       <use xlink:href="#DejaVuSans-32"/>
       <use xlink:href="#DejaVuSans-2e" transform="translate(63.623047 0)"/>
       <use xlink:href="#DejaVuSans-35" transform="translate(95.410156 0)"/>
      </g>
     </g>
    </g>
    <g id="ytick_3">
     <g id="line2d_9">
      <g>
       <use xlink:href="#m2264842610" x="37.85375" y="70.403361" style="stroke: #000000; stroke-width: 0.7"/>
      </g>
     </g>
     <g id="text_10">
      <!-- 3.0 -->
      <g transform="translate(19.426406 73.252775) scale(0.075 -0.075)">
       <defs>
        <path id="DejaVuSans-33" d="M 2597 2516 
Q 3050 2419 3304 2112 
Q 3559 1806 3559 1356 
Q 3559 666 3084 287 
Q 2609 -91 1734 -91 
Q 1441 -91 1130 -33 
Q 819 25 488 141 
L 488 750 
Q 750 597 1062 519 
Q 1375 441 1716 441 
Q 2309 441 2620 675 
Q 2931 909 2931 1356 
Q 2931 1769 2642 2001 
Q 2353 2234 1838 2234 
L 1294 2234 
L 1294 2753 
L 1863 2753 
Q 2328 2753 2575 2939 
Q 2822 3125 2822 3475 
Q 2822 3834 2567 4026 
Q 2313 4219 1838 4219 
Q 1578 4219 1281 4162 
Q 984 4106 628 3988 
L 628 4550 
Q 988 4650 1302 4700 
Q 1616 4750 1894 4750 
Q 2613 4750 3031 4423 
Q 3450 4097 3450 3541 
Q 3450 3153 3228 2886 
Q 3006 2619 2597 2516 
z
" transform="scale(0.015625)"/>
       </defs>
       <use xlink:href="#DejaVuSans-33"/>
       <use xlink:href="#DejaVuSans-2e" transform="translate(63.623047 0)"/>
       <use xlink:href="#DejaVuSans-30" transform="translate(95.410156 0)"/>
      </g>
     </g>
    </g>
    <g id="ytick_4">
     <g id="line2d_10">
      <g>
       <use xlink:href="#m2264842610" x="37.85375" y="44.622189" style="stroke: #000000; stroke-width: 0.7"/>
      </g>
     </g>
     <g id="text_11">
      <!-- 3.5 -->
      <g transform="translate(19.426406 47.471603) scale(0.075 -0.075)">
       <use xlink:href="#DejaVuSans-33"/>
       <use xlink:href="#DejaVuSans-2e" transform="translate(63.623047 0)"/>
       <use xlink:href="#DejaVuSans-35" transform="translate(95.410156 0)"/>
      </g>
     </g>
    </g>
    <g id="text_12">
     <!-- Rg (nm) -->
     <g transform="translate(13.658672 93.219922) rotate(-90) scale(0.085 -0.085)">
      <defs>
       <path id="DejaVuSans-52" d="M 2841 2188 
Q 3044 2119 3236 1894 
Q 3428 1669 3622 1275 
L 4263 0 
L 3584 0 
L 2988 1197 
Q 2756 1666 2539 1819 
Q 2322 1972 1947 1972 
L 1259 1972 
L 1259 0 
L 628 0 
L 628 4666 
L 2053 4666 
Q 2853 4666 3247 4331 
Q 3641 3997 3641 3322 
Q 3641 2881 3436 2590 
Q 3231 2300 2841 2188 
z
M 1259 4147 
L 1259 2491 
L 2053 2491 
Q 2509 2491 2742 2702 
Q 2975 2913 2975 3322 
Q 2975 3731 2742 3939 
Q 2509 4147 2053 4147 
L 1259 4147 
z
" transform="scale(0.015625)"/>
       <path id="DejaVuSans-67" d="M 2906 1791 
Q 2906 2416 2648 2759 
Q 2391 3103 1925 3103 
Q 1463 3103 1205 2759 
Q 947 2416 947 1791 
Q 947 1169 1205 825 
Q 1463 481 1925 481 
Q 2391 481 2648 825 
Q 2906 1169 2906 1791 
z
M 3481 434 
Q 3481 -459 3084 -895 
Q 2688 -1331 1869 -1331 
Q 1566 -1331 1297 -1286 
Q 1028 -1241 775 -1147 
L 775 -588 
Q 1028 -725 1275 -790 
Q 1522 -856 1778 -856 
Q 2344 -856 2625 -561 
Q 2906 -266 2906 331 
L 2906 616 
Q 2728 306 2450 153 
Q 2172 0 1784 0 
Q 1141 0 747 490 
Q 353 981 353 1791 
Q 353 2603 747 3093 
Q 1141 3584 1784 3584 
Q 2172 3584 2450 3431 
Q 2728 3278 2906 2969 
L 2906 3500 
L 3481 3500 
L 3481 434 
z
" transform="scale(0.015625)"/>
      </defs>
      <use xlink:href="#DejaVuSans-52"/>
      <use xlink:href="#DejaVuSans-67" transform="translate(69.482422 0)"/>
      <use xlink:href="#DejaVuSans-20" transform="translate(132.958984 0)"/>
      <use xlink:href="#DejaVuSans-28" transform="translate(164.746094 0)"/>
      <use xlink:href="#DejaVuSans-6e" transform="translate(203.759766 0)"/>
      <use xlink:href="#DejaVuSans-6d" transform="translate(267.138672 0)"/>
      <use xlink:href="#DejaVuSans-29" transform="translate(364.550781 0)"/>
     </g>
    </g>
   </g>
   <g id="line2d_11">
    <path d="M 46.079205 35.928262 
L 46.112106 40.933935 
L 46.194361 38.722426 
L 46.210812 38.696645 
L 46.227263 39.617548 
L 46.243714 37.375617 
L 46.276615 38.340349 
L 46.325968 35.253311 
L 46.391772 35.8437 
L 46.408223 36.279918 
L 46.424674 34.749547 
L 46.441125 34.063252 
L 46.474026 36.790385 
L 46.490477 36.714072 
L 46.605634 32.79585 
L 46.523379 36.844525 
L 46.622085 33.8503 
L 46.786594 40.807607 
L 46.803045 40.323437 
L 46.819495 42.317352 
L 46.852397 41.434605 
L 46.967554 46.800183 
L 46.885299 40.841638 
L 47.000455 42.714898 
L 47.033357 39.947031 
L 47.115612 40.189374 
L 47.132063 40.724592 
L 47.280121 30.492044 
L 47.44463 25.477607 
L 47.510434 30.477607 
L 47.576237 29.807297 
L 47.592688 28.857518 
L 47.674943 30.277029 
L 47.790099 25.713246 
L 47.80655 28.694066 
L 48.003961 38.158334 
L 48.020412 37.8701 
L 48.053314 36.990447 
L 48.069765 39.219487 
L 48.152019 41.816682 
L 48.184921 39.78461 
L 48.217823 38.202162 
L 48.415234 29.654156 
L 48.464586 28.861128 
L 48.481037 30.043968 
L 48.497488 29.117908 
L 48.513939 31.103058 
L 48.53039 28.166067 
L 48.596194 30.913309 
L 48.629095 28.059849 
L 48.661997 32.450898 
L 48.694899 30.267233 
L 48.727801 32.271461 
L 48.777154 29.19422 
L 48.810055 31.486166 
L 48.842957 29.910937 
L 48.875859 31.916196 
L 49.023917 39.533501 
L 49.056819 38.222271 
L 49.188426 35.283217 
L 49.204877 35.334264 
L 49.221328 35.083671 
L 49.25423 36.884744 
L 49.287132 33.493488 
L 49.320034 34.467501 
L 49.385837 36.525354 
L 49.402288 34.688704 
L 49.484543 35.454404 
L 49.517445 31.880618 
L 49.649052 38.286724 
L 49.665503 36.507307 
L 49.714855 39.494314 
L 49.747757 39.429861 
L 49.764208 41.047372 
L 49.813561 38.234646 
L 49.846463 38.444505 
L 50.060325 46.337153 
L 50.076775 46.111825 
L 50.126128 49.576815 
L 50.175481 46.471215 
L 50.208383 44.023035 
L 50.290637 44.964563 
L 50.33999 47.508649 
L 50.422245 46.038607 
L 50.471597 44.193706 
L 50.488048 46.189684 
L 50.52095 44.566502 
L 50.603205 50.283219 
L 50.652557 48.199069 
L 50.669008 48.780692 
L 50.70191 46.904338 
L 50.800615 44.609814 
L 50.751263 48.78327 
L 50.817066 46.039638 
L 50.965125 51.610949 
L 51.030928 47.00076 
L 51.162535 40.643123 
L 51.195437 41.759963 
L 51.261241 44.162253 
L 51.343495 44.042113 
L 51.376397 43.15524 
L 51.392848 44.932079 
L 51.42575 46.762542 
L 51.475103 45.296109 
L 51.491554 42.990757 
L 51.540906 47.968585 
L 51.573808 46.447496 
L 51.590259 46.809464 
L 51.60671 45.546702 
L 51.771219 38.996222 
L 51.672514 46.941979 
L 51.804121 39.635079 
L 51.902826 45.978279 
L 51.952179 43.340865 
L 52.067335 36.896088 
L 52.083786 38.643535 
L 52.166041 41.568151 
L 52.198943 39.981578 
L 52.297648 44.396346 
L 52.231845 39.529376 
L 52.347001 43.200615 
L 52.445706 38.758004 
L 52.462157 36.328386 
L 52.51151 40.026437 
L 52.560863 36.913103 
L 52.577314 35.970028 
L 52.626666 38.535254 
L 52.659568 39.590736 
L 52.676019 37.766976 
L 52.69247 38.094912 
L 52.774725 37.028087 
L 52.791175 37.68757 
L 52.807626 38.022209 
L 52.824077 36.453167 
L 52.840528 36.485136 
L 52.856979 36.693963 
L 52.939234 33.119661 
L 52.972135 35.08264 
L 53.087292 38.563614 
L 53.103743 38.458942 
L 53.136645 39.901141 
L 53.169546 37.838647 
L 53.202448 38.126881 
L 53.218899 38.168131 
L 53.301154 35.516795 
L 53.334055 37.042009 
L 53.449212 40.906091 
L 53.465663 40.328593 
L 53.547917 42.201337 
L 53.515015 39.708813 
L 53.564368 39.997563 
L 53.580819 39.852672 
L 53.728877 32.174008 
L 53.745328 33.74666 
L 53.761779 36.53876 
L 53.844034 32.433367 
L 53.95919 36.311371 
L 53.975641 35.979825 
L 53.992092 33.827097 
L 54.057895 36.047371 
L 54.074346 35.57042 
L 54.090797 35.741091 
L 54.123699 35.166687 
L 54.14015 33.775534 
L 54.189503 35.984465 
L 54.222405 35.830294 
L 54.304659 34.282392 
L 54.337561 38.816269 
L 54.354012 38.340349 
L 54.452717 47.110588 
L 54.485619 45.350249 
L 54.50207 46.114919 
L 54.534972 44.819673 
L 54.551423 43.187209 
L 54.600775 45.674061 
L 54.781735 57.578259 
L 54.831088 55.313125 
L 54.962695 49.391706 
L 54.979146 48.796161 
L 55.012048 50.709124 
L 55.094303 53.480084 
L 55.04495 49.884642 
L 55.143655 52.313744 
L 55.160106 50.338391 
L 55.258812 51.129872 
L 55.40687 45.531233 
L 55.291714 51.288169 
L 55.423321 47.713867 
L 55.439772 51.158232 
L 55.522026 46.248465 
L 55.554928 42.968585 
L 55.620732 44.538658 
L 55.637183 45.958685 
L 55.670085 42.458633 
L 55.702986 42.84071 
L 55.735888 42.74996 
L 55.883946 45.30539 
L 55.900397 48.507927 
L 55.933299 43.130491 
L 55.999103 46.439246 
L 56.147161 38.198552 
L 56.163612 38.354271 
L 56.295219 41.599089 
L 56.361023 39.196799 
L 56.393925 40.961263 
L 56.49263 46.255684 
L 56.525532 44.036441 
L 56.722943 50.508031 
L 56.607786 43.548145 
L 56.739394 48.77863 
L 56.805197 47.062119 
L 56.821648 49.186488 
L 56.838099 48.153694 
L 56.969706 52.343134 
L 57.002608 51.903308 
L 57.134215 46.720261 
L 57.150666 46.92651 
L 57.167117 49.971267 
L 57.232921 46.319106 
L 57.249372 47.461212 
L 57.331626 45.343546 
L 57.364528 46.724386 
L 57.380979 46.226294 
L 57.413881 48.200616 
L 57.446783 46.939401 
L 57.463234 48.814723 
L 57.496135 46.307762 
L 57.545488 48.041288 
L 57.611292 48.728614 
L 57.644194 47.05851 
L 57.660645 48.315084 
L 57.709997 46.593418 
L 57.742899 47.600946 
L 57.825154 44.042628 
L 57.858055 45.477093 
L 58.022565 53.5301 
L 58.12127 50.714796 
L 58.137721 51.362934 
L 58.187074 54.728408 
L 58.219975 48.924551 
L 58.252877 50.912795 
L 58.285779 47.990241 
L 58.30223 49.104504 
L 58.400935 45.489468 
L 58.433837 45.50339 
L 58.48319 46.865151 
L 58.499641 45.422952 
L 58.614797 40.854013 
L 58.631248 42.127603 
L 58.647699 42.296212 
L 58.66415 42.058509 
L 58.779306 39.160706 
L 58.795757 39.415939 
L 58.878012 40.519889 
L 58.84511 39.260737 
L 58.910914 40.223406 
L 58.976717 40.170296 
L 59.108325 46.719745 
L 59.190579 49.762955 
L 59.157677 45.497202 
L 59.223481 47.205978 
L 59.239932 47.47204 
L 59.256383 45.975701 
L 59.289285 44.656736 
L 59.305735 46.511949 
L 59.371539 47.95621 
L 59.38799 46.171122 
L 59.404441 46.171122 
L 59.503146 47.862882 
L 59.519597 46.372731 
L 59.634754 43.144928 
L 59.552499 47.126057 
L 59.684106 44.637658 
L 59.815714 46.948166 
L 59.832165 45.945794 
L 59.865066 49.07666 
L 59.881517 48.655396 
L 59.914419 49.744392 
L 59.963772 51.903823 
L 60.029575 51.321169 
L 60.046026 51.358809 
L 60.095379 49.950126 
L 60.161183 50.421922 
L 60.177634 50.247125 
L 60.276339 54.090582 
L 60.243437 49.491737 
L 60.309241 52.155448 
L 60.325692 51.746558 
L 60.358594 52.361181 
L 60.457299 56.134514 
L 60.391495 51.833183 
L 60.490201 54.582487 
L 60.572455 53.500709 
L 60.539554 55.934967 
L 60.588906 54.94033 
L 60.605357 54.46905 
L 60.638259 56.621778 
L 60.65471 56.765121 
L 60.671161 53.889489 
L 60.769866 54.163285 
L 60.83567 57.089964 
L 60.868572 55.710671 
L 60.983728 48.864223 
L 61.000179 49.682518 
L 61.065983 55.576093 
L 61.115335 52.112135 
L 61.246943 47.246712 
L 61.279845 47.491118 
L 61.345648 43.620848 
L 61.312746 48.409959 
L 61.37855 47.758726 
L 61.543059 53.146991 
L 61.608863 46.775433 
L 61.658215 49.695924 
L 61.724019 50.990139 
L 61.691117 49.267441 
L 61.773372 50.461109 
L 61.806274 48.523912 
L 61.855626 51.17731 
L 61.937881 53.036648 
L 61.987234 52.2529 
L 62.10239 50.047579 
L 62.217546 53.698193 
L 62.365605 47.1869 
L 62.398506 47.234337 
L 62.579466 52.692212 
L 62.612368 51.928573 
L 62.628819 51.158747 
L 62.661721 53.256819 
L 62.694623 52.929914 
L 62.711074 55.15122 
L 62.760426 49.716033 
L 62.809779 47.578774 
L 62.842681 50.394078 
L 62.875583 49.326222 
L 62.908485 49.879486 
L 62.941386 48.135132 
L 62.990739 50.441 
L 63.023641 49.732017 
L 63.105895 56.910527 
L 63.270405 63.405835 
L 63.303306 62.113167 
L 63.36911 62.513807 
L 63.434914 58.489366 
L 63.467815 62.138948 
L 63.55007 61.181951 
L 63.681677 55.241454 
L 63.698128 55.260016 
L 63.714579 56.432544 
L 63.747481 52.446259 
L 63.796834 54.758315 
L 63.813285 52.272494 
L 63.879088 55.830296 
L 64.076499 64.963018 
L 64.125852 63.826068 
L 64.224557 59.070989 
L 64.27391 60.812765 
L 64.290361 62.432338 
L 64.323263 58.474928 
L 64.372615 60.412126 
L 64.504223 55.030564 
L 64.405517 62.081199 
L 64.520674 56.511434 
L 64.570026 59.898565 
L 64.602928 55.993748 
L 64.619379 56.347982 
L 64.685183 51.216497 
L 64.783888 51.635699 
L 64.800339 52.310135 
L 64.849692 47.77832 
L 64.899045 50.227016 
L 65.080005 62.051293 
L 65.112906 60.926202 
L 65.228063 65.492563 
L 65.244514 63.736866 
L 65.277415 64.656222 
L 65.376121 61.494935 
L 65.409023 63.066039 
L 65.474826 60.739546 
L 65.491277 60.889593 
L 65.639335 69.498442 
L 65.672237 69.38913 
L 65.738041 65.250736 
L 65.820295 65.638485 
L 65.869648 61.536185 
L 65.919001 66.017984 
L 65.968354 62.632916 
L 65.984805 62.53701 
L 66.034157 65.534844 
L 66.067059 62.118324 
L 66.099961 63.061914 
L 66.116412 61.512466 
L 66.165765 64.515973 
L 66.313823 69.850097 
L 66.330274 68.520304 
L 66.396077 70.277549 
L 66.412528 71.088624 
L 66.461881 68.296524 
L 66.560586 65.728719 
L 66.577037 67.105949 
L 66.62639 64.444816 
L 66.659292 67.806166 
L 66.675743 67.318902 
L 66.725095 70.336846 
L 66.774448 67.147199 
L 66.790899 67.910322 
L 66.823801 66.23042 
L 66.873154 68.625491 
L 67.087015 73.339836 
L 66.938957 68.18979 
L 67.103466 72.783479 
L 67.152819 70.994781 
L 67.202172 73.404289 
L 67.218623 73.217634 
L 67.317328 79.502052 
L 67.366681 79.202475 
L 67.448935 72.948994 
L 67.498288 77.302403 
L 67.613445 72.191027 
L 67.646346 74.497411 
L 67.679248 72.348808 
L 67.777954 76.670764 
L 67.810855 74.859379 
L 67.843757 77.602495 
L 67.860208 77.46534 
L 67.991815 81.533608 
L 68.008266 81.077797 
L 68.041168 82.136888 
L 68.07407 80.583314 
L 68.189226 77.785026 
L 68.304383 85.785955 
L 68.320834 82.234341 
L 68.370186 78.155759 
L 68.43599 81.360875 
L 68.501794 84.002929 
L 68.518245 80.574549 
L 68.534695 80.963329 
L 68.567597 80.037785 
L 68.600499 80.738517 
L 68.633401 84.844427 
L 68.682754 80.639517 
L 68.715655 82.236919 
L 68.732106 81.542374 
L 68.765008 84.249913 
L 68.929517 88.41615 
L 68.79791 82.264247 
L 68.945968 88.266619 
L 69.077575 85.299206 
L 69.094026 84.712427 
L 69.143379 86.726452 
L 69.15983 87.996948 
L 69.242085 86.231454 
L 69.258535 86.585687 
L 69.274986 85.205363 
L 69.423045 78.968897 
L 69.439495 79.954254 
L 69.472397 80.788533 
L 69.554652 80.231144 
L 69.604005 82.940745 
L 69.88367 73.559492 
L 69.900121 72.405011 
L 69.949474 75.280127 
L 69.965925 73.908569 
L 70.113983 81.493905 
L 70.130434 80.334268 
L 70.327845 71.581045 
L 70.410099 74.383458 
L 70.443001 72.802041 
L 70.475903 73.858554 
L 70.492354 72.219387 
L 70.508805 70.856078 
L 70.574608 73.608476 
L 70.623961 73.095431 
L 70.739117 78.191337 
L 70.804921 84.569084 
L 70.870725 83.153697 
L 70.903626 81.432031 
L 70.96943 81.900217 
L 71.002332 84.26435 
L 71.035234 81.17525 
L 71.068135 82.176591 
L 71.166841 79.093163 
L 71.183292 79.834629 
L 71.199743 79.749036 
L 71.216194 77.342621 
L 71.298448 79.077178 
L 71.495859 86.024689 
L 71.51231 85.205363 
L 71.594565 80.60858 
L 71.643917 81.251562 
L 71.660368 80.867939 
L 71.676819 80.981891 
L 71.742623 86.679015 
L 71.791975 83.484212 
L 71.907132 85.102754 
L 71.923583 84.309725 
L 71.972935 86.118016 
L 71.989386 85.821017 
L 72.137445 89.305085 
L 72.153895 87.905167 
L 72.219699 84.73563 
L 72.285503 86.277344 
L 72.384208 89.41646 
L 72.41711 86.925998 
L 72.499365 85.056348 
L 72.515815 83.607446 
L 72.565168 85.561143 
L 72.581619 85.392019 
L 72.59807 86.445953 
L 72.647423 84.956832 
L 72.680325 85.378097 
L 72.861285 80.993235 
L 72.894186 83.19701 
L 72.976441 81.365 
L 73.009343 79.590739 
L 73.025794 81.604764 
L 73.058695 80.707064 
L 73.338361 90.808643 
L 73.371263 89.281882 
L 73.453517 90.241973 
L 73.552223 92.570528 
L 73.568674 92.41945 
L 73.749634 79.336021 
L 73.766085 80.199175 
L 73.798986 79.708817 
L 73.815437 80.439971 
L 73.930594 84.545365 
L 73.848339 79.64127 
L 73.979946 82.969104 
L 74.111554 75.921563 
L 74.128005 77.875776 
L 74.193808 75.999938 
L 74.210259 76.829576 
L 74.259612 81.894029 
L 74.325415 78.802351 
L 74.358317 78.191337 
L 74.374768 79.722223 
L 74.40767 79.380365 
L 74.572179 83.364587 
L 74.621532 82.682417 
L 74.605081 84.689739 
L 74.637983 82.77987 
L 74.687335 86.168547 
L 74.736688 82.375106 
L 74.753139 82.19206 
L 74.76959 82.651996 
L 74.786041 84.60363 
L 74.851845 81.820295 
L 74.868295 79.103991 
L 74.917648 84.370053 
L 74.934099 83.866804 
L 75.065706 89.740787 
L 74.999903 82.562277 
L 75.082157 88.148541 
L 75.263117 97.967559 
L 75.345372 97.033249 
L 75.394725 92.245685 
L 75.460528 93.171229 
L 75.509881 97.766465 
L 75.575685 94.983646 
L 75.592135 94.753162 
L 75.608586 96.277345 
L 75.657939 94.622709 
L 75.707292 96.064908 
L 75.756645 93.160401 
L 75.871801 94.015821 
L 75.937605 97.198248 
L 75.986957 96.941984 
L 76.069212 95.055833 
L 76.102114 96.036033 
L 76.266623 99.18443 
L 76.135015 95.267239 
L 76.283074 98.522369 
L 76.414681 93.7049 
L 76.513386 95.532269 
L 76.595641 98.959102 
L 76.612092 96.345407 
L 76.76015 91.998702 
L 76.776601 92.954152 
L 76.809503 88.454306 
L 76.891757 89.4211 
L 76.842405 88.383666 
L 76.924659 88.812664 
L 77.056266 83.675508 
L 77.072717 83.770383 
L 77.138521 81.097391 
L 77.105619 84.253522 
L 77.204325 82.802042 
L 77.270128 84.02871 
L 77.286579 82.690667 
L 77.434637 77.084809 
L 77.566245 74.13699 
L 77.681401 79.355615 
L 77.714303 78.807507 
L 77.796557 79.557224 
L 77.84591 75.604455 
L 77.961066 79.195256 
L 77.977517 79.179272 
L 78.109125 75.069237 
L 78.125575 75.84061 
L 78.142026 74.972816 
L 78.174928 77.051294 
L 78.20783 75.943735 
L 78.240732 77.545261 
L 78.273634 75.345096 
L 78.355888 69.828956 
L 78.405241 73.250118 
L 78.438143 72.986119 
L 78.454594 73.306321 
L 78.586201 75.937032 
L 78.503946 72.928369 
L 78.602652 75.773579 
L 78.619103 74.469567 
L 78.668455 78.407384 
L 78.75071 75.180612 
L 78.816514 74.061709 
L 78.783612 75.317252 
L 78.865866 74.393255 
L 78.882317 74.862472 
L 78.93167 73.161946 
L 78.981023 73.272805 
L 79.063277 70.339939 
L 79.079728 72.046137 
L 79.145532 69.225677 
L 79.244237 65.902484 
L 79.29359 66.820809 
L 79.326492 68.002618 
L 79.342943 70.412127 
L 79.392295 67.117808 
L 79.425197 67.76801 
L 79.523903 65.567844 
L 79.491001 68.479054 
L 79.556805 66.489779 
L 79.737765 73.076868 
L 79.787117 69.710879 
L 79.852921 72.004372 
L 79.869372 72.374074 
L 79.935175 68.991584 
L 79.984528 69.959925 
L 80.165488 82.038404 
L 80.231292 80.010457 
L 80.280645 76.742435 
L 80.313546 80.892173 
L 80.329997 80.895782 
L 80.395801 77.070888 
L 80.362899 81.076766 
L 80.461605 77.525667 
L 80.56031 74.496895 
L 80.593212 74.798535 
L 80.609663 74.726863 
L 80.659015 78.828648 
L 80.724819 76.569702 
L 80.839975 71.784716 
L 80.856426 72.508136 
L 80.938681 74.837207 
L 80.905779 71.566092 
L 80.971583 73.86835 
L 81.020935 69.349942 
L 81.10319 70.772547 
L 81.168994 76.34489 
L 81.234797 74.196803 
L 81.349954 71.053562 
L 81.366405 72.452964 
L 81.382855 72.325605 
L 81.399306 72.655088 
L 81.46511 74.996019 
L 81.481561 72.486995 
L 81.514463 74.127709 
L 81.530914 73.097493 
L 81.596717 74.799566 
L 81.629619 78.436258 
L 81.728325 77.302918 
L 81.777677 74.707785 
L 81.810579 78.519789 
L 81.843481 76.554233 
L 81.942186 80.298175 
L 81.975088 77.943838 
L 82.057343 73.921975 
L 82.090245 75.679736 
L 82.238303 81.680561 
L 82.254754 81.188141 
L 82.402812 78.063463 
L 82.419263 79.193194 
L 82.468615 76.093781 
L 82.534419 76.803279 
L 82.649575 74.006538 
L 82.666026 74.289099 
L 82.764732 70.956109 
L 82.781183 73.354274 
L 82.797634 73.321274 
L 82.846986 74.483489 
L 82.879888 72.006434 
L 82.945692 74.72841 
L 83.044397 72.143074 
L 82.978594 76.002 
L 83.060848 72.280746 
L 83.192455 77.696854 
L 83.208906 76.784717 
L 83.225357 76.734185 
L 83.340514 73.552273 
L 83.291161 77.004372 
L 83.356965 74.018397 
L 83.373415 75.059956 
L 83.406317 73.92971 
L 83.439219 74.296833 
L 83.45567 70.438939 
L 83.537925 71.720779 
L 83.570826 74.35149 
L 83.620179 70.769969 
L 83.653081 73.191337 
L 83.751786 69.860409 
L 83.768237 70.729235 
L 83.866943 74.366443 
L 83.899845 73.073775 
L 83.99855 74.888769 
L 83.949197 72.496792 
L 84.015001 74.21949 
L 84.113706 70.386861 
L 84.163059 70.706032 
L 84.17951 69.76966 
L 84.212412 72.135856 
L 84.261765 70.458017 
L 84.36047 72.386449 
L 84.344019 69.826894 
L 84.393372 72.059543 
L 84.459175 68.689944 
L 84.508528 71.136577 
L 84.590783 68.740475 
L 84.54143 71.370155 
L 84.673037 68.980756 
L 84.689488 70.449767 
L 84.738841 66.846075 
L 84.755292 67.783478 
L 84.771743 67.824212 
L 84.788194 67.098215 
L 84.837546 69.151427 
L 84.870448 71.849169 
L 84.936252 71.335092 
L 84.985605 65.109455 
L 85.067859 65.957656 
L 85.117212 63.595585 
L 85.100761 66.134514 
L 85.133663 65.718406 
L 85.150114 66.820294 
L 85.199466 64.306114 
L 85.232368 64.953737 
L 85.248819 65.015096 
L 85.331074 63.693553 
L 85.298172 65.702938 
L 85.347525 63.840506 
L 85.363975 68.019634 
L 85.462681 65.008909 
L 85.544935 66.165968 
L 85.495583 64.372114 
L 85.577837 65.131627 
L 85.594288 65.256923 
L 85.643641 68.951881 
L 85.725895 67.319933 
L 85.775248 66.826997 
L 85.824601 69.038506 
L 85.873954 66.407279 
L 85.906855 70.408517 
L 85.923306 69.181333 
L 85.939757 69.196286 
L 85.956208 69.473692 
L 86.038463 73.379539 
L 86.071365 72.079137 
L 86.104266 67.207011 
L 86.17007 70.880828 
L 86.367481 76.35778 
L 86.433285 70.68386 
L 86.466186 73.544023 
L 86.482637 76.054594 
L 86.53199 71.521233 
L 86.564892 73.568258 
L 86.663597 69.506692 
L 86.696499 71.684685 
L 86.762303 72.551964 
L 86.795205 71.424811 
L 86.811655 71.814107 
L 86.877459 69.115334 
L 86.861008 72.278683 
L 86.910361 71.406249 
L 86.926812 72.554542 
L 86.992615 69.785644 
L 87.009066 70.607032 
L 87.157125 75.159472 
L 87.173575 74.056553 
L 87.190026 72.733979 
L 87.206477 75.61322 
L 87.239379 75.33633 
L 87.387437 82.938682 
L 87.453241 81.144313 
L 87.469692 81.358812 
L 87.486143 84.242178 
L 87.551946 79.867629 
L 87.584848 82.48184 
L 87.700005 78.211447 
L 87.732906 78.327462 
L 87.897415 82.178138 
L 87.930317 80.788017 
L 87.963219 81.570733 
L 88.012572 85.006332 
L 88.061925 81.996123 
L 88.193532 79.955801 
L 88.308688 86.227844 
L 88.325139 83.206291 
L 88.456746 86.940951 
L 88.473197 84.827927 
L 88.506099 89.283429 
L 88.555452 87.016232 
L 88.687059 81.132453 
L 88.736412 84.570115 
L 88.752863 84.762442 
L 88.785765 84.970754 
L 88.900921 79.381396 
L 88.917372 79.359224 
L 88.933823 79.009632 
L 88.950274 81.280953 
L 89.048979 80.288378 
L 89.081881 80.854017 
L 89.098332 79.174116 
L 89.114783 80.348706 
L 89.24639 75.734392 
L 89.328645 78.881241 
L 89.312194 75.373455 
L 89.377997 78.284665 
L 89.410899 79.16535 
L 89.42735 78.308899 
L 89.443801 74.405114 
L 89.509605 78.456883 
L 89.542506 75.713767 
L 89.575408 73.965803 
L 89.624761 76.128328 
L 89.690565 77.983541 
L 89.707015 75.76172 
L 89.739917 73.8436 
L 89.756368 76.53103 
L 89.805721 75.924141 
L 89.822172 76.07625 
L 89.871525 73.136165 
L 89.937328 74.009631 
L 89.97023 76.082953 
L 89.986681 73.571867 
L 90.036034 74.167928 
L 90.068935 71.459873 
L 90.134739 75.300237 
L 90.15119 75.085737 
L 90.249895 78.833804 
L 90.282797 78.233618 
L 90.299248 77.570527 
L 90.348601 79.120491 
L 90.381503 78.583727 
L 90.529561 81.324781 
L 90.414405 77.802042 
L 90.546012 81.208766 
L 90.677619 78.977663 
L 90.69407 80.249706 
L 90.759874 77.270434 
L 90.858579 76.011281 
L 91.023088 85.867939 
L 91.039539 86.086563 
L 91.072441 83.729649 
L 91.154695 84.419037 
L 91.171146 85.47194 
L 91.204048 82.296731 
L 91.220499 80.973126 
L 91.253401 82.389543 
L 91.269852 81.718717 
L 91.434361 92.142561 
L 91.615321 96.518141 
L 91.664674 92.304982 
L 91.714026 97.830918 
L 91.730477 98.140808 
L 91.763379 95.637456 
L 91.829183 96.883718 
L 92.059495 108.052122 
L 92.075946 107.645295 
L 92.14175 104.881038 
L 92.174652 107.038922 
L 92.191103 108.017059 
L 92.240455 104.905788 
L 92.273357 103.933322 
L 92.306259 104.504117 
L 92.32271 106.695001 
L 92.355612 103.74976 
L 92.404965 104.366445 
L 92.470768 102.069859 
L 92.569474 103.070168 
L 92.668179 108.228465 
L 92.717532 105.294052 
L 92.733983 103.860103 
L 92.783335 105.390989 
L 92.816237 105.104303 
L 92.832688 105.549801 
L 92.849139 103.574963 
L 92.997197 99.746459 
L 93.013648 100.495145 
L 93.04655 98.247542 
L 93.063001 99.485554 
L 93.079452 97.282811 
L 93.145255 101.170096 
L 93.161706 100.893206 
L 93.178157 100.54052 
L 93.260412 105.729754 
L 93.309765 104.768116 
L 93.326215 105.806066 
L 93.392019 103.104199 
L 93.40847 104.289102 
L 93.441372 103.367683 
L 93.474274 104.662929 
L 93.490725 105.616317 
L 93.556528 103.457917 
L 93.572979 103.695104 
L 93.58943 103.27023 
L 93.704586 107.666435 
L 93.721037 106.965188 
L 93.737488 106.704798 
L 93.753939 107.214749 
L 93.77039 108.66262 
L 93.819743 106.596001 
L 93.885546 102.295186 
L 93.934899 104.977459 
L 94.115859 110.413677 
L 94.181663 109.771726 
L 94.280368 106.842985 
L 94.31327 107.90981 
L 94.461328 112.480811 
L 94.477779 112.331796 
L 94.625837 115.835973 
L 94.658739 114.800086 
L 94.691641 115.15071 
L 94.773895 118.158857 
L 94.740994 115.016648 
L 94.823248 116.615596 
L 94.889052 119.383978 
L 94.938405 117.112657 
L 94.954855 117.221969 
L 94.971306 116.844533 
L 95.086463 115.014585 
L 95.102914 115.022319 
L 95.185168 114.507212 
L 95.250972 117.403468 
L 95.267423 116.713564 
L 95.316775 118.649215 
L 95.333226 118.07481 
L 95.349677 118.902386 
L 95.39903 117.805139 
L 95.431932 118.672933 
L 95.448383 116.240738 
L 95.547088 117.461218 
L 95.596441 118.501746 
L 95.629343 117.620546 
L 95.645794 116.1768 
L 95.728048 117.2725 
L 95.76095 117.680358 
L 95.777401 117.034798 
L 95.892557 115.172881 
L 95.826754 117.461218 
L 95.909008 115.600333 
L 95.991263 116.502159 
L 95.94191 115.14246 
L 96.007714 116.025207 
L 96.040615 113.722948 
L 96.106419 115.218772 
L 96.155772 113.551761 
L 96.188674 116.027269 
L 96.320281 112.908263 
L 96.336732 112.958794 
L 96.386085 111.758423 
L 96.435437 113.364074 
L 96.534143 115.234756 
L 96.468339 113.2197 
L 96.567045 114.428837 
L 96.583495 113.711605 
L 96.632848 115.629208 
L 96.649299 114.840304 
L 96.682201 115.329631 
L 96.715103 114.093682 
L 96.748005 112.369437 
L 96.780906 114.385009 
L 96.813808 114.286009 
L 96.879612 115.416256 
L 96.896063 113.71212 
L 96.961866 112.451937 
L 96.928965 114.544852 
L 97.011219 113.085638 
L 97.093474 117.152875 
L 97.175728 116.261362 
L 97.20863 113.26095 
L 97.274434 116.99097 
L 97.290885 118.075841 
L 97.340237 114.350978 
L 97.438943 113.23259 
L 97.406041 115.139366 
L 97.455394 113.402231 
L 97.471845 114.194228 
L 97.537648 112.801529 
L 97.587001 110.41213 
L 97.619903 113.352731 
L 97.636354 114.250947 
L 97.718608 112.986638 
L 97.735059 113.69923 
L 97.817314 111.85536 
L 97.866666 112.689123 
L 97.93247 115.149678 
L 97.981823 114.793383 
L 97.998274 114.866601 
L 98.014725 114.778945 
L 98.11343 115.929301 
L 98.212135 113.000044 
L 98.228586 113.26559 
L 98.245037 114.779461 
L 98.310841 111.109769 
L 98.574055 116.368612 
L 98.623408 115.42399 
L 98.820819 111.597549 
L 98.853721 111.960547 
L 98.952426 115.434818 
L 98.985328 113.91012 
L 99.001779 112.333343 
L 99.067583 115.038819 
L 99.084034 114.511337 
L 99.166288 117.365312 
L 99.19919 115.383256 
L 99.347248 117.159063 
L 99.462405 114.261775 
L 99.594012 118.642512 
L 99.643365 118.272294 
L 99.659815 118.838964 
L 99.692717 117.770077 
L 99.709168 118.524434 
L 99.758521 116.710471 
L 99.824325 118.141326 
L 99.873677 116.927548 
L 99.890128 118.535777 
L 99.92303 118.210419 
L 99.955932 118.789464 
L 99.972383 118.174841 
L 100.005285 118.842058 
L 100.087539 116.53258 
L 100.10399 117.861342 
L 100.186245 115.841645 
L 100.252048 114.195775 
L 100.268499 115.216194 
L 100.400106 120.13421 
L 100.449459 119.646946 
L 100.613968 116.242284 
L 100.64687 118.041295 
L 100.712674 115.776676 
L 100.794928 117.981998 
L 100.778477 115.551349 
L 100.82783 116.716658 
L 100.942986 113.181028 
L 100.959437 114.457196 
L 101.025241 113.514636 
L 100.992339 114.75368 
L 101.058143 114.562899 
L 101.123946 116.902282 
L 101.173299 115.203819 
L 101.436514 118.52959 
L 101.55167 113.563105 
L 101.568121 114.695414 
L 101.617474 114.559805 
L 101.666826 115.768426 
L 101.683277 113.984369 
L 101.765532 116.949204 
L 101.831335 114.302509 
L 101.880688 116.389237 
L 101.897139 116.570221 
L 101.91359 115.969004 
L 102.045197 112.258062 
L 102.09455 112.650967 
L 102.259059 118.054701 
L 102.324863 114.10451 
L 102.390666 115.222897 
L 102.407117 115.277553 
L 102.423568 116.956939 
L 102.45647 115.228053 
L 102.522274 116.344893 
L 102.620979 116.951782 
L 102.653881 115.600333 
L 102.703234 117.122454 
L 102.719685 116.069551 
L 102.81839 117.354484 
L 102.834841 116.597033 
L 102.851292 116.833189 
L 102.867743 116.032941 
L 102.900645 115.404396 
L 102.933546 117.026548 
L 102.99935 119.785133 
L 103.048703 117.911873 
L 103.147408 115.77152 
L 103.098055 118.603324 
L 103.18031 117.415843 
L 103.279015 119.676852 
L 103.295466 118.942604 
L 103.394172 117.811842 
L 103.410623 117.983545 
L 103.54223 120.689537 
L 103.575132 119.809883 
L 103.690288 117.410687 
L 103.608034 120.249194 
L 103.706739 117.998498 
L 103.739641 116.588783 
L 103.756092 118.245997 
L 103.805445 117.607655 
L 103.953503 123.003139 
L 103.969954 122.483391 
L 104.08511 121.32891 
L 104.035757 123.136685 
L 104.118012 121.754815 
L 104.134463 121.748111 
L 104.183815 120.079554 
L 104.233168 121.957455 
L 104.249619 122.422031 
L 104.26607 121.201551 
L 104.397677 118.962198 
L 104.611539 115.446677 
L 104.62799 117.525156 
L 104.660892 114.441212 
L 104.710245 116.245894 
L 104.726695 114.808851 
L 104.743146 117.49989 
L 104.792499 116.825455 
L 104.825401 116.415018 
L 104.940557 119.631993 
L 104.957008 119.581462 
L 104.973459 119.878461 
L 105.039263 120.767911 
L 105.072165 119.952195 
L 105.17087 118.615183 
L 105.187321 119.754711 
L 105.203772 119.932601 
L 105.236674 119.481431 
L 105.286026 116.10255 
L 105.35183 117.034282 
L 105.401183 120.061507 
L 105.450535 118.594559 
L 105.565692 115.470912 
L 105.598594 116.68108 
L 105.664397 115.075944 
L 105.71375 113.093888 
L 105.796005 113.621371 
L 105.878259 111.74347 
L 106.042768 108.798229 
L 106.174375 113.04181 
L 106.289532 111.19794 
L 106.207277 113.159888 
L 106.305983 111.215472 
L 106.454041 112.152359 
L 106.536295 110.255896 
L 106.552746 111.687783 
L 106.635001 112.475655 
L 106.651452 111.338706 
L 106.733706 108.336746 
L 106.783059 110.304365 
L 106.848863 111.335096 
L 106.996921 114.654164 
L 107.013372 114.557227 
L 107.128528 112.526186 
L 107.062725 115.144007 
L 107.194332 112.555061 
L 107.293037 115.199694 
L 107.325939 113.671386 
L 107.34239 113.376965 
L 107.358841 114.887226 
L 107.375292 114.281884 
L 107.457546 117.032735 
L 107.424645 114.02201 
L 107.490448 115.182163 
L 107.572703 113.453793 
L 107.605605 114.666539 
L 107.638506 113.928682 
L 107.654957 114.94446 
L 107.70431 116.594455 
L 107.770114 116.422753 
L 107.786565 115.973645 
L 107.819466 117.48339 
L 107.88527 116.909501 
L 107.934623 119.178244 
L 107.951074 118.762652 
L 108.000426 119.545368 
L 108.016877 119.538665 
L 108.033328 119.517524 
L 108.06623 118.969932 
L 108.099132 119.347369 
L 108.197837 123.046451 
L 108.214288 121.703768 
L 108.230739 121.252082 
L 108.280092 122.425125 
L 108.296543 122.307563 
L 108.312994 122.241563 
L 108.42815 118.783792 
L 108.461052 119.538149 
L 108.477503 118.947245 
L 108.510405 121.377894 
L 108.526855 120.470912 
L 108.559757 120.042945 
L 108.576208 120.741099 
L 108.592659 120.08471 
L 108.642012 121.887845 
L 108.691365 123.138748 
L 108.724266 121.097395 
L 108.855874 119.05862 
L 108.954579 115.470396 
L 108.888775 119.865055 
L 109.036834 116.30055 
L 109.168441 119.485556 
L 109.267146 118.040263 
L 109.283597 118.080998 
L 109.316499 119.519071 
L 109.365852 116.921876 
L 109.382303 117.593218 
L 109.448106 119.00551 
L 109.415205 117.317875 
L 109.481008 118.075841 
L 109.596165 114.978491 
L 109.661968 115.505974 
L 109.69487 115.778739 
L 109.842928 113.10781 
L 109.859379 112.524639 
L 109.892281 114.409243 
L 110.007437 119.733055 
L 110.040339 119.49329 
L 110.221299 123.332622 
L 110.451612 115.785958 
L 110.484514 118.155247 
L 110.59967 121.515565 
L 110.698375 115.05996 
L 110.764179 115.66788 
L 110.895786 121.086567 
L 110.928688 120.056867 
L 110.945139 119.347884 
L 110.978041 121.161848 
L 111.027394 123.819371 
L 111.076746 120.097601 
L 111.191903 115.954051 
L 111.208354 117.259094 
L 111.224805 117.971685 
L 111.241255 115.978801 
L 111.274157 116.028301 
L 111.290608 115.554443 
L 111.32351 116.802251 
L 111.339961 116.539284 
L 111.356412 117.292094 
L 111.405765 114.493805 
L 111.50447 116.822876 
L 111.570274 116.108222 
L 111.668979 109.762445 
L 111.718332 110.844738 
L 111.734783 110.870519 
L 111.784135 111.965704 
L 111.817037 110.047584 
L 111.833488 109.231353 
L 111.899292 110.73027 
L 111.915743 110.628176 
L 111.932194 110.415224 
L 112.063801 114.426259 
L 112.080252 113.971994 
L 112.113154 113.557433 
L 112.129605 112.830404 
L 112.178957 113.538871 
L 112.327015 117.668499 
L 112.442172 119.728414 
L 112.359917 117.646327 
L 112.458623 119.67943 
L 112.491525 118.199075 
L 112.557328 119.710883 
L 112.573779 119.394806 
L 112.59023 119.333447 
L 112.606681 119.71604 
L 112.656034 118.667261 
L 112.705386 118.007263 
L 112.721837 119.05862 
L 112.738288 119.020464 
L 112.836994 121.405222 
L 112.853445 121.254144 
L 112.886346 118.644574 
L 112.968601 120.303335 
L 113.13311 117.013141 
L 113.182463 114.389649 
L 113.248266 116.422753 
L 113.412775 120.338397 
L 113.544383 116.412956 
L 113.577285 118.296528 
L 113.593735 118.809574 
L 113.643088 118.174841 
L 113.67599 118.481637 
L 113.708892 117.658186 
L 113.741794 119.131323 
L 113.791146 117.821639 
L 113.824048 118.74873 
L 113.840499 118.167622 
L 113.972106 113.306325 
L 114.005008 115.1471 
L 114.070812 113.146997 
L 114.087263 114.408212 
L 114.103714 112.699436 
L 114.185968 115.443068 
L 114.251772 113.028404 
L 114.268223 115.816895 
L 114.350477 116.273222 
L 114.317575 115.70088 
L 114.366928 115.91641 
L 114.383379 114.540727 
L 114.465634 115.474006 
L 114.482085 116.141738 
L 114.531437 113.935901 
L 114.613692 112.298281 
L 114.630143 112.853092 
L 114.712397 114.705727 
L 114.663045 112.829889 
L 114.745299 114.065322 
L 114.76175 114.027682 
L 114.778201 111.576408 
L 114.876906 112.891248 
L 114.909808 116.070582 
L 115.024965 115.498755 
L 115.205925 108.210934 
L 115.238826 109.840819 
L 115.321081 108.935385 
L 115.337532 108.39398 
L 115.370434 110.56063 
L 115.419786 113.699745 
L 115.502041 113.691495 
L 115.518492 113.936932 
L 115.534943 113.021185 
L 115.567845 110.989628 
L 115.600746 113.913729 
L 115.617197 113.584761 
L 115.765255 117.728827 
L 115.896863 114.696445 
L 115.913314 114.678914 
L 115.946215 114.094713 
L 115.995568 114.711914 
L 116.061372 114.094713 
L 116.127175 117.006954 
L 116.160077 115.354896 
L 116.225881 117.469984 
L 116.439743 109.362321 
L 116.489095 110.051194 
L 116.538448 113.336746 
L 116.554899 109.947554 
L 116.587801 111.640345 
L 116.604252 110.207428 
L 116.670055 113.648183 
L 116.702957 113.708511 
L 116.785212 111.000457 
L 116.867466 108.822979 
L 116.900368 110.432755 
L 116.93327 111.337674 
L 116.949721 110.092959 
L 116.999074 107.733466 
L 117.064877 109.871757 
L 117.081328 109.905272 
L 117.11423 107.426155 
L 117.196485 108.44348 
L 117.229386 109.205571 
L 117.245837 108.568261 
L 117.262288 107.557639 
L 117.311641 109.491227 
L 117.328092 108.817823 
L 117.443248 112.160609 
L 117.459699 111.477924 
L 117.492601 108.673964 
L 117.558405 111.47019 
L 117.673561 114.192166 
L 117.772266 110.917441 
L 117.788717 112.994372 
L 117.903874 108.164012 
L 117.936775 110.460083 
L 118.002579 112.592702 
L 118.134186 111.770282 
L 118.19999 112.947966 
L 118.249343 110.576098 
L 118.364499 114.087494 
L 118.298695 109.99035 
L 118.38095 112.203922 
L 118.397401 112.030672 
L 118.430303 114.388103 
L 118.496106 111.362424 
L 118.512557 111.532064 
L 118.56191 108.947244 
L 118.627714 110.218256 
L 118.693517 112.333859 
L 118.759321 111.974985 
L 118.775772 111.986844 
L 118.890928 114.342212 
L 118.907379 114.053979 
L 118.940281 115.119772 
L 118.973183 114.461837 
L 119.022535 116.640346 
L 119.10479 112.854638 
L 119.137692 115.220834 
L 119.154143 115.413678 
L 119.170594 114.352009 
L 119.252848 112.791732 
L 119.219946 114.802664 
L 119.28575 112.805654 
L 119.318652 114.710367 
L 119.400906 113.48473 
L 119.483161 112.352937 
L 119.516063 113.334168 
L 119.598317 115.439974 
L 119.64767 114.595383 
L 119.664121 113.322825 
L 119.729925 115.680255 
L 119.746375 117.03222 
L 119.779277 115.616318 
L 119.82863 116.237128 
L 119.861532 115.001694 
L 119.894434 117.795342 
L 119.927335 115.911254 
L 119.943786 116.779564 
L 119.960237 115.622505 
L 120.00959 116.425846 
L 120.026041 114.234447 
L 120.108295 114.306634 
L 120.19055 116.839376 
L 120.223452 116.008191 
L 120.239903 115.883926 
L 120.37151 112.373562 
L 120.387961 112.465858 
L 120.437314 109.716039 
L 120.503117 112.00025 
L 120.536019 112.436983 
L 120.55247 111.749657 
L 120.568921 111.906923 
L 120.684077 107.564858 
L 120.73343 108.404808 
L 120.881488 113.591464 
L 121.029546 111.474315 
L 121.045997 112.161125 
L 121.078899 110.477099 
L 121.177605 108.842057 
L 121.194055 109.280337 
L 121.210506 109.200415 
L 121.226957 109.20454 
L 121.243408 108.260434 
L 121.292761 111.240737 
L 121.309212 111.315502 
L 121.440819 114.330868 
L 121.45727 113.241356 
L 121.605328 114.788742 
L 121.621779 114.716039 
L 121.63823 114.864023 
L 121.671132 114.768633 
L 121.720485 113.751823 
L 121.753386 115.271365 
L 121.802739 116.40419 
L 121.835641 114.71243 
L 121.852092 114.622711 
L 121.884994 117.461218 
L 121.967248 115.286319 
L 121.983699 115.382225 
L 122.00015 115.164631 
L 122.016601 113.103685 
L 122.115306 114.103994 
L 122.263365 116.615596 
L 122.296266 115.856082 
L 122.312717 114.065322 
L 122.394972 115.156381 
L 122.444325 117.457093 
L 122.493677 114.1834 
L 122.592383 112.858763 
L 122.559481 114.746976 
L 122.608834 113.579089 
L 122.674637 116.204644 
L 122.707539 113.057794 
L 122.72399 113.024279 
L 122.806245 116.62694 
L 122.872048 115.218772 
L 122.90495 115.74677 
L 122.921401 114.732539 
L 123.069459 118.799261 
L 123.08591 118.218153 
L 123.135263 119.925898 
L 123.151714 119.609821 
L 123.250419 117.709233 
L 123.299772 118.044904 
L 123.316223 118.993651 
L 123.365575 117.128125 
L 123.44783 116.000973 
L 123.398477 117.200828 
L 123.464281 116.260847 
L 123.513634 118.155763 
L 123.562986 115.720474 
L 123.579437 115.684895 
L 123.678143 110.831848 
L 123.694594 108.803385 
L 123.760397 112.527218 
L 123.776848 111.697064 
L 123.908455 117.568984 
L 123.924906 117.209078 
L 124.007161 116.704799 
L 124.040063 117.940748 
L 124.138768 118.361497 
L 124.17167 116.664064 
L 124.35263 120.152773 
L 124.451335 117.318391 
L 124.517139 117.61539 
L 124.599394 118.376965 
L 124.615845 116.465034 
L 124.681648 119.173088 
L 124.698099 117.815967 
L 124.796805 121.919298 
L 124.829706 121.677471 
L 124.977765 124.177729 
L 125.060019 124.667571 
L 125.092921 123.068623 
L 125.142274 123.828136 
L 125.125823 122.161126 
L 125.175175 122.844327 
L 125.224528 119.715008 
L 125.306783 121.731096 
L 125.339685 122.492672 
L 125.356135 121.573831 
L 125.372586 121.987876 
L 125.487743 119.224135 
L 125.504194 119.483493 
L 125.586448 120.529178 
L 125.553546 119.322619 
L 125.61935 119.769664 
L 125.635801 119.715524 
L 125.701605 117.160094 
L 125.750957 118.139263 
L 125.816761 121.47019 
L 125.866114 120.387897 
L 125.915466 119.865055 
L 125.964819 122.432859 
L 126.063525 117.348812 
L 126.096426 117.388515 
L 126.16223 117.237438 
L 126.195132 118.436778 
L 126.293837 116.742955 
L 126.310288 117.688093 
L 126.34319 119.993961 
L 126.392543 117.139985 
L 126.408994 117.393672 
L 126.441895 118.746152 
L 126.52415 120.499787 
L 126.540601 119.088526 
L 126.622855 117.690155 
L 126.606405 119.261775 
L 126.655757 118.574449 
L 126.672208 119.597446 
L 126.738012 116.839892 
L 126.754463 118.113998 
L 126.787365 118.863714 
L 126.820266 118.3187 
L 126.902521 116.316019 
L 126.935423 116.974985 
L 127.017677 119.76193 
L 127.050579 118.761621 
L 127.083481 116.752752 
L 127.165735 117.664374 
L 127.215088 117.013657 
L 127.198637 117.753577 
L 127.24799 117.551452 
L 127.264441 119.194744 
L 127.346695 117.949514 
L 127.363146 117.674686 
L 127.396048 118.515153 
L 127.461852 120.43224 
L 127.494754 118.039232 
L 127.675714 116.575377 
L 127.840223 123.158857 
L 127.955379 119.165869 
L 128.004732 120.025929 
L 128.136339 123.362528 
L 128.185692 122.609203 
L 128.235045 120.917958 
L 128.300848 121.356238 
L 128.416005 124.193198 
L 128.448906 123.885371 
L 128.481808 124.341182 
L 128.498259 122.457609 
L 128.580514 122.752546 
L 128.596965 121.870314 
L 128.613415 122.82628 
L 128.679219 120.261569 
L 128.87663 124.107604 
L 128.975335 122.625187 
L 128.991786 123.146998 
L 129.123394 124.180307 
L 129.139845 123.50845 
L 129.172746 124.779462 
L 129.205648 124.644368 
L 129.320805 126.601159 
L 129.337255 125.564756 
L 129.386608 124.904243 
L 129.435961 125.741615 
L 129.452412 126.640862 
L 129.468863 125.555991 
L 129.534666 125.677162 
L 129.60047 124.694384 
L 129.715626 122.994373 
L 129.633372 125.058414 
L 129.78143 123.135139 
L 129.847234 122.787093 
L 129.814332 123.668809 
L 129.863685 123.040779 
L 129.913037 124.234963 
L 129.945939 122.422031 
L 129.96239 122.895889 
L 129.995292 123.613637 
L 130.044645 122.484937 
L 130.061095 123.199591 
L 130.126899 121.724908 
L 130.159801 121.196394 
L 130.242055 122.623124 
L 130.32431 117.897951 
L 130.406565 118.474934 
L 130.439466 119.636118 
L 130.472368 118.231044 
L 130.521721 119.264869 
L 130.653328 116.101004 
L 130.554623 120.112038 
L 130.669779 117.072954 
L 130.735583 115.962301 
L 130.817837 119.872273 
L 130.834288 118.338294 
L 130.883641 121.008192 
L 130.932994 118.590949 
L 130.949445 118.509481 
L 130.965895 119.677883 
L 131.015248 116.679017 
L 131.031699 117.754092 
L 131.04815 116.618174 
L 131.130405 118.282606 
L 131.22911 116.67283 
L 131.245561 117.770592 
L 131.278463 120.431209 
L 131.360717 119.172572 
L 131.393619 120.339944 
L 131.459423 118.02531 
L 131.508775 120.66788 
L 131.574579 119.702633 
L 131.59103 118.753886 
L 131.607481 120.131116 
L 131.656834 119.961992 
L 131.722637 121.976533 
L 131.788441 121.375831 
L 131.804892 121.31241 
L 131.821343 121.500612 
L 131.854245 123.223826 
L 131.936499 121.820299 
L 131.95295 121.604253 
L 131.985852 122.426672 
L 132.002303 122.053361 
L 132.035205 121.972408 
L 132.117459 123.728105 
L 132.183263 121.442862 
L 132.232615 123.249607 
L 132.249066 124.112761 
L 132.31487 122.39986 
L 132.347772 122.885061 
L 132.397125 122.412234 
L 132.49583 119.821742 
L 132.528732 120.445647 
L 132.561634 120.833911 
L 132.578085 120.069757 
L 132.660339 117.543718 
L 132.67679 118.733261 
L 132.791946 121.51505 
L 132.742594 118.378512 
L 132.808397 121.296941 
L 133.022259 115.765848 
L 133.104514 118.037685 
L 133.153866 116.812564 
L 133.170317 116.749142 
L 133.269023 119.098323 
L 133.318375 118.612605 
L 133.449983 112.493186 
L 133.482885 114.729961 
L 133.614492 119.16226 
L 133.647394 118.769871 
L 133.729648 115.515255 
L 133.779001 116.338706 
L 133.811903 117.190516 
L 133.828354 116.154113 
L 133.844805 116.349018 
L 133.877706 114.061197 
L 133.94351 116.711502 
L 133.959961 116.587237 
L 134.075117 120.942708 
L 134.140921 119.822774 
L 134.173823 120.341491 
L 134.256077 123.362013 
L 134.206725 120.268272 
L 134.288979 120.958692 
L 134.453488 117.107501 
L 134.48639 118.780699 
L 134.502841 118.647152 
L 134.568645 118.265075 
L 134.617997 120.019742 
L 134.66735 118.191341 
L 134.733154 119.399447 
L 134.749605 119.530931 
L 134.914114 116.248472 
L 134.930565 116.161332 
L 134.963466 119.097291 
L 135.062172 118.833808 
L 135.078623 118.287247 
L 135.111525 119.734086 
L 135.160877 119.057588 
L 135.177328 119.669118 
L 135.21023 118.214028 
L 135.259583 118.890526 
L 135.308935 118.937448 
L 135.39119 117.651999 
L 135.407641 118.068623 
L 135.440543 116.455237 
L 135.473445 116.47844 
L 135.489895 115.56424 
L 135.555699 111.757907 
L 135.621503 112.382327 
L 135.720208 115.1636 
L 135.802463 114.561868 
L 135.835365 112.890732 
L 135.93407 113.461527 
L 135.950521 113.615699 
L 135.966972 112.74842 
L 135.983423 112.133797 
L 136.016325 113.889495 
L 136.082128 112.228672 
L 136.230186 116.63983 
L 136.11503 112.159062 
L 136.29599 116.304159 
L 136.444048 114.601571 
L 136.592106 118.283122 
L 136.608557 118.161435 
L 136.756615 115.141944 
L 136.773066 115.785958 
L 136.789517 116.613533 
L 136.855321 116.462971 
L 136.871772 114.635602 
L 136.954026 117.512265 
L 137.102085 114.692836 
L 137.118535 114.964054 
L 137.151437 114.118431 
L 137.167888 113.762136 
L 137.20079 115.401303 
L 137.217241 116.195878 
L 137.250143 113.365106 
L 137.266594 112.729342 
L 137.315946 114.779976 
L 137.332397 114.237541 
L 137.348848 115.648802 
L 137.447554 115.577646 
L 137.513357 114.254556 
L 137.496906 115.61013 
L 137.529808 115.331693 
L 137.56271 116.791939 
L 137.628514 115.656536 
L 137.644965 115.241459 
L 137.677866 116.505252 
L 137.727219 115.897848 
L 137.74367 116.208253 
L 137.760121 114.987773 
L 137.776572 115.639005 
L 137.891728 111.832157 
L 137.842375 115.819989 
L 137.941081 112.465343 
L 137.973983 111.626939 
L 138.089139 113.780183 
L 138.122041 112.47978 
L 138.138492 114.316947 
L 138.187845 113.982307 
L 138.237197 115.233725 
L 138.28655 114.912492 
L 138.319452 113.341387 
L 138.385255 114.628383 
L 138.566215 119.514431 
L 138.582666 118.987464 
L 138.64847 117.884545 
L 138.714274 116.002004 
L 138.780077 116.072644 
L 138.796528 115.875161 
L 138.845881 116.324269 
L 138.878783 116.622815 
L 138.895234 115.500302 
L 138.911685 114.632508 
L 138.944586 116.631065 
L 138.977488 116.521237 
L 138.993939 116.908986 
L 139.01039 115.905582 
L 139.026841 116.242284 
L 139.109095 113.651277 
L 139.125546 115.825145 
L 139.158448 118.346544 
L 139.224252 116.237644 
L 139.306506 116.66458 
L 139.355859 114.222587 
L 139.405212 115.267756 
L 139.438114 113.552277 
L 139.471015 116.566096 
L 139.55327 115.389443 
L 139.569721 115.398724 
L 139.602623 116.348503 
L 139.73423 114.217431 
L 139.767132 115.27549 
L 139.800034 114.093166 
L 139.832935 114.837211 
L 139.882288 112.622608 
L 139.91519 115.39924 
L 139.948092 113.445543 
L 139.980994 113.072232 
L 139.997445 113.846698 
L 140.013895 113.794104 
L 140.063248 116.138644 
L 140.09615 113.676542 
L 140.129052 115.488443 
L 140.194855 114.41904 
L 140.211306 115.707583 
L 140.244208 114.900632 
L 140.260659 114.551555 
L 140.27711 115.099147 
L 140.408717 117.777811 
L 140.425168 117.647358 
L 140.441619 116.501643 
L 140.523874 118.177419 
L 140.573226 118.986432 
L 140.655481 121.311378 
L 140.704834 120.296632 
L 140.902245 116.854329 
L 141.099655 123.645606 
L 141.165459 122.713359 
L 141.198361 122.868561 
L 141.395772 119.917648 
L 141.412223 121.100488 
L 141.494477 120.156898 
L 141.593183 116.808955 
L 141.626085 117.555577 
L 141.642535 119.010151 
L 141.72479 116.827517 
L 141.741241 118.216091 
L 141.839946 116.809986 
L 141.856397 117.64014 
L 141.90575 120.099148 
L 141.971554 118.254763 
L 141.988005 118.274872 
L 142.037357 119.10451 
L 142.103161 116.497002 
L 142.136063 117.852576 
L 142.168965 117.102344 
L 142.251219 115.378615 
L 142.284121 116.668705 
L 142.366375 118.494012 
L 142.399277 117.200828 
L 142.465081 118.722949 
L 142.432179 116.355722 
L 142.514434 117.427703 
L 142.596688 118.190825 
L 142.613139 116.894032 
L 142.695394 118.743574 
L 142.711845 118.145966 
L 142.777648 119.546915 
L 142.827001 120.349741 
L 142.843452 118.429559 
L 142.99151 116.339222 
L 143.007961 117.007985 
L 143.073765 117.877842 
L 143.106666 116.388206 
L 143.123117 116.678502 
L 143.139568 115.815348 
L 143.221823 112.457608 
L 143.254725 113.747698 
L 143.35343 116.531034 
L 143.386332 115.848864 
L 143.402783 115.970035 
L 143.468586 117.607655 
L 143.517939 116.586721 
L 143.567292 115.978285 
L 143.649546 119.134416 
L 143.665997 117.934561 
L 143.764703 118.425434 
L 143.929212 121.095848 
L 143.978565 118.029435 
L 144.044368 119.300963 
L 144.060819 119.95632 
L 144.110172 118.792042 
L 144.159525 119.517009 
L 144.241779 116.772345 
L 144.291132 117.666436 
L 144.324034 119.663962 
L 144.43919 119.133385 
L 144.488543 119.224135 
L 144.570797 117.075532 
L 144.653052 118.907542 
L 144.62015 116.649627 
L 144.685954 118.341903 
L 144.702405 116.517112 
L 144.735306 118.982307 
L 144.80111 117.502468 
L 144.883365 119.858867 
L 144.834012 117.264766 
L 144.932717 119.768117 
L 145.113677 115.161022 
L 145.228834 117.798436 
L 145.442695 114.486587 
L 145.475597 114.955288 
L 145.623655 119.889805 
L 145.508499 114.891351 
L 145.656557 119.623227 
L 145.788165 115.637974 
L 145.853968 116.945595 
L 145.870419 116.951782 
L 146.002026 114.014276 
L 146.018477 114.111728 
L 146.084281 116.617143 
L 146.150085 116.112347 
L 146.166535 115.917957 
L 146.182986 116.908986 
L 146.265241 118.240841 
L 146.347495 118.23156 
L 146.413299 116.659939 
L 146.42975 117.558155 
L 146.462652 118.751824 
L 146.495554 116.574346 
L 146.561357 117.894342 
L 146.594259 115.260022 
L 146.627161 118.138232 
L 146.709415 116.912079 
L 146.857474 113.029435 
L 146.873925 114.263837 
L 146.956179 113.316121 
L 147.021983 111.844532 
L 147.054885 113.224856 
L 147.071335 115.162569 
L 147.087786 112.403468 
L 147.15359 113.173809 
L 147.170041 111.881657 
L 147.235845 115.185256 
L 147.268746 114.759351 
L 147.285197 116.074191 
L 147.318099 113.698714 
L 147.367452 114.007572 
L 147.383903 114.013244 
L 147.400354 114.400478 
L 147.416805 112.389546 
L 147.482608 113.818339 
L 147.630666 117.399343 
L 147.69647 115.904035 
L 147.729372 117.722124 
L 147.795175 120.169788 
L 147.828077 118.83123 
L 147.926783 114.929507 
L 147.976135 116.210316 
L 148.025488 117.775233 
L 148.107743 117.017782 
L 148.124194 115.612193 
L 148.206448 116.614565 
L 148.222899 116.724392 
L 148.23935 116.527424 
L 148.321605 115.092444 
L 148.305154 116.624877 
L 148.338055 116.124722 
L 148.502565 121.938892 
L 148.568368 119.677368 
L 148.60127 118.116576 
L 148.650623 120.724083 
L 148.683525 122.459672 
L 148.716426 120.80813 
L 148.815132 117.773686 
L 148.848034 118.375934 
L 148.930288 121.946111 
L 148.979641 120.852989 
L 149.012543 119.74543 
L 149.094797 120.437912 
L 149.111248 119.928992 
L 149.14415 122.316329 
L 149.193503 120.538975 
L 149.209954 120.782349 
L 149.226405 119.548462 
L 149.242855 119.616009 
L 149.292208 120.430178 
L 149.32511 118.70748 
L 149.341561 119.243728 
L 149.358012 119.412853 
L 149.390914 118.966323 
L 149.571874 117.049751 
L 149.621226 116.743986 
L 149.719932 120.497209 
L 149.736383 119.390166 
L 149.802186 122.186391 
L 149.818637 120.541553 
L 149.851539 122.351907 
L 149.900892 120.320866 
L 149.933794 121.126785 
L 150.065401 117.891248 
L 150.081852 117.810295 
L 150.180557 116.552174 
L 150.164106 118.563621 
L 150.197008 117.290547 
L 150.41087 121.042223 
L 150.22991 116.740892 
L 150.476674 120.039851 
L 150.493125 118.947245 
L 150.558928 121.002004 
L 150.59183 119.278275 
L 150.739888 121.732643 
L 150.756339 122.688093 
L 150.838594 122.183298 
L 150.920848 118.677058 
L 150.95375 121.190723 
L 151.036005 122.35036 
L 150.986652 120.561662 
L 151.085357 122.21836 
L 151.184063 120.871552 
L 151.118259 122.518453 
L 151.216965 121.373253 
L 151.249866 122.04047 
L 151.266317 120.975192 
L 151.397925 117.56228 
L 151.414375 118.222794 
L 151.447277 117.498859 
L 151.463728 118.639933 
L 151.578885 122.143079 
L 151.792746 113.490918 
L 151.924354 118.976636 
L 151.973706 118.200622 
L 152.006608 117.48339 
L 152.171117 114.275181 
L 152.302725 117.720061 
L 152.335626 117.170407 
L 152.467234 122.601984 
L 152.483685 122.215266 
L 152.549488 119.557228 
L 152.631743 121.301582 
L 152.76335 123.083576 
L 152.829154 123.680668 
L 152.94431 119.209697 
L 153.108819 123.833293 
L 153.12527 123.908574 
L 153.207525 126.659425 
L 153.240426 125.395116 
L 153.256877 125.339944 
L 153.273328 125.360569 
L 153.30623 124.500509 
L 153.372034 125.796271 
L 153.437837 123.702324 
L 153.520092 124.730993 
L 153.536543 125.033148 
L 153.569445 124.585587 
L 153.602346 123.131014 
L 153.684601 123.299622 
L 153.717503 123.674481 
L 153.750405 122.73089 
L 153.766855 122.953639 
L 153.980717 115.913832 
L 153.997168 118.385215 
L 154.079423 117.825248 
L 154.21103 114.482462 
L 154.227481 114.678914 
L 154.260383 114.662414 
L 154.276834 115.28374 
L 154.326186 113.440387 
L 154.39199 113.916823 
L 154.424892 113.292918 
L 154.457794 114.362321 
L 154.490695 114.874335 
L 154.523597 113.958588 
L 154.540048 113.829682 
L 154.57295 116.114925 
L 154.622303 112.52103 
L 154.655205 111.375315 
L 154.688106 112.867529 
L 154.704557 112.125031 
L 154.770361 114.548977 
L 154.836165 114.193713 
L 154.869066 114.161744 
L 154.951321 116.870829 
L 154.984223 115.322928 
L 155.132281 111.072644 
L 155.050026 115.373975 
L 155.148732 111.531033 
L 155.165183 111.567642 
L 155.214535 111.742439 
L 155.263888 109.777913 
L 155.329692 112.284359 
L 155.379045 110.34974 
L 155.395495 110.360568 
L 155.411946 110.102241 
L 155.543554 114.969726 
L 155.576455 112.445233 
L 155.65871 114.127197 
L 155.675161 114.274665 
L 155.856121 109.802663 
L 155.872572 109.826898 
L 155.921925 103.63787 
L 156.02063 104.893413 
L 156.037081 104.641788 
L 156.102885 108.869901 
L 156.168688 108.488855 
L 156.185139 107.957247 
L 156.234492 108.513089 
L 156.283845 113.109356 
L 156.366099 110.832363 
L 156.448354 108.784307 
L 156.399001 111.163909 
L 156.481255 109.303024 
L 156.497706 110.357474 
L 156.530608 108.448636 
L 156.579961 108.941572 
L 156.596412 107.946419 
L 156.662215 110.272912 
L 156.695117 109.705726 
L 156.74447 112.423062 
L 156.760921 113.42234 
L 156.843175 113.084607 
L 156.92543 110.524021 
L 156.958332 111.754298 
L 157.024135 112.411202 
L 156.991234 111.376346 
L 157.040586 111.406252 
L 157.10639 109.857835 
L 157.073488 111.928063 
L 157.155743 111.03191 
L 157.320252 108.45173 
L 157.336703 109.190103 
L 157.369605 110.769973 
L 157.418957 108.961166 
L 157.435408 109.106572 
L 157.665721 105.998394 
L 157.731525 110.664786 
L 157.813779 110.21774 
L 157.879583 108.016028 
L 157.928935 109.711914 
L 158.01119 107.105437 
L 158.060543 107.874232 
L 158.142797 111.170612 
L 158.208601 110.133178 
L 158.241503 110.659114 
L 158.323757 108.387277 
L 158.356659 109.082337 
L 158.521168 114.048307 
L 158.537619 113.694073 
L 158.586972 114.75007 
L 158.619874 116.327878 
L 158.702128 114.86557 
L 158.718579 114.490712 
L 158.751481 116.121113 
L 158.767932 116.291784 
L 158.833735 110.51938 
L 158.91599 111.021082 
L 158.932441 109.591258 
L 158.998245 112.973232 
L 159.047597 109.183915 
L 159.129852 110.402333 
L 159.245008 112.412749 
L 159.261459 112.350359 
L 159.310812 110.778738 
L 159.343714 112.961373 
L 159.360165 112.829373 
L 159.376615 112.50814 
L 159.393066 114.172572 
L 159.409517 115.363662 
L 159.442419 113.055732 
L 159.475321 110.048616 
L 159.557575 110.169787 
L 159.574026 111.768735 
L 159.656281 109.839788 
L 159.672732 111.027269 
L 159.754986 109.610336 
L 159.771437 109.644367 
L 159.787888 108.717792 
L 159.853692 110.859176 
L 159.870143 110.925176 
L 159.886594 109.193196 
L 159.985299 110.46988 
L 160.100455 112.469468 
L 160.051103 109.353555 
L 160.133357 111.581049 
L 160.18271 111.137612 
L 160.215612 112.914966 
L 160.297866 112.669014 
L 160.347219 109.753163 
L 160.413023 111.239706 
L 160.478826 113.460496 
L 160.511728 112.47153 
L 160.610434 109.73821 
L 160.643335 110.530208 
L 160.659786 112.178141 
L 160.709139 109.475758 
L 160.72559 109.947038 
L 160.890099 103.216605 
L 161.054608 108.729135 
L 160.939452 102.945387 
L 161.071059 107.648904 
L 161.103961 103.862681 
L 161.186215 106.361908 
L 161.235568 107.368405 
L 161.252019 105.980347 
L 161.317823 103.612088 
L 161.383626 104.439664 
L 161.531685 109.234446 
L 161.646841 111.410377 
L 161.581037 108.228465 
L 161.663292 110.397177 
L 161.696194 112.449358 
L 161.729095 110.08935 
L 161.778448 111.005613 
L 161.910055 109.469055 
L 162.025212 113.377481 
L 161.959408 109.261259 
L 162.041663 112.731404 
L 162.156819 110.679739 
L 162.17327 112.434405 
L 162.222623 109.772242 
L 162.255525 110.089866 
L 162.403583 107.73192 
L 162.469386 110.474005 
L 162.53519 109.907335 
L 162.633895 109.037478 
L 162.568092 110.212584 
L 162.650346 109.374696 
L 162.666797 109.907335 
L 162.71615 108.954463 
L 162.732601 109.479883 
L 162.798405 107.822154 
L 162.831306 108.924557 
L 162.847757 109.537633 
L 162.913561 108.088215 
L 162.979365 106.891969 
L 162.995815 109.464414 
L 163.012266 109.658804 
L 163.045168 108.762651 
L 163.07807 109.228259 
L 163.143874 107.867013 
L 163.127423 109.432961 
L 163.176775 109.320555 
L 163.193226 109.092134 
L 163.209677 110.433786 
L 163.25903 108.000044 
L 163.291932 108.285184 
L 163.472892 111.583111 
L 163.538695 110.636942 
L 163.670303 108.019637 
L 163.703205 109.090587 
L 163.752557 108.570839 
L 163.834812 111.791939 
L 163.966419 109.030775 
L 164.032223 109.162775 
L 164.048674 107.208046 
L 164.16383 110.626114 
L 164.213183 109.176696 
L 164.278986 109.56857 
L 164.361241 112.130188 
L 164.394143 111.437705 
L 164.459946 110.226506 
L 164.492848 112.150812 
L 164.509299 111.541346 
L 164.52575 113.020669 
L 164.591554 112.268375 
L 164.608005 113.048513 
L 164.657357 111.632095 
L 164.673808 111.79297 
L 164.70671 110.27549 
L 164.772514 111.838345 
L 164.821866 110.719957 
L 164.838317 111.947141 
L 164.854768 110.524536 
L 164.937023 111.43719 
L 165.035728 109.078212 
L 165.085081 110.368302 
L 165.233139 108.171746 
L 165.298943 107.274046 
L 165.364746 110.097084 
L 165.43055 107.47978 
L 165.512805 108.770901 
L 165.627961 112.146687 
L 165.644412 111.701704 
L 165.693765 111.75997 
L 165.776019 109.342727 
L 165.808921 111.118534 
L 165.841823 112.086875 
L 165.891175 110.872582 
L 166.006332 109.774304 
L 165.940528 111.681595 
L 166.022783 109.881554 
L 166.105037 111.143284 
L 166.055685 108.844119 
L 166.137939 110.312099 
L 166.187292 108.266105 
L 166.253095 109.596414 
L 166.269546 109.696961 
L 166.285997 110.57713 
L 166.318899 109.135447 
L 166.351801 109.727382 
L 166.368252 108.834323 
L 166.450506 110.081616 
L 166.499859 110.927754 
L 166.51631 108.653854 
L 166.532761 109.206087 
L 166.565663 109.409243 
L 166.631466 108.33984 
L 166.647917 109.144728 
L 166.664368 107.809779 
L 166.713721 108.259402 
L 166.730172 107.565889 
L 166.779525 109.83721 
L 166.861779 110.526083 
L 166.87823 110.225475 
L 166.993386 107.831951 
L 167.009837 108.404808 
L 167.05919 109.806788 
L 167.092092 108.356855 
L 167.124994 108.995713 
L 167.289503 112.237437 
L 167.322405 111.184534 
L 167.371757 110.019741 
L 167.388208 112.752545 
L 167.404659 112.454515 
L 167.503365 110.50288 
L 167.60207 108.854432 
L 167.618521 109.909397 
L 167.651423 109.987772 
L 167.667874 109.168447 
L 167.700775 110.880316 
L 167.750128 113.579605 
L 167.832383 112.995404 
L 167.980441 109.398415 
L 168.013343 110.135756 
L 168.029794 108.779151 
L 168.079146 109.393774 
L 168.095597 108.124309 
L 168.161401 110.547224 
L 168.177852 109.103994 
L 168.210754 110.912285 
L 168.276557 110.228568 
L 168.32591 107.386968 
L 168.424615 107.719029 
L 168.490419 108.706964 
L 168.50687 107.527217 
L 168.539772 108.337777 
L 168.556223 106.415017 
L 168.638477 107.198249 
L 168.68783 105.656535 
L 168.770085 108.951369 
L 168.819437 108.236199 
L 168.852339 107.486483 
L 168.86879 108.817823 
L 168.901692 108.637354 
L 168.918143 108.738417 
L 168.934594 107.215781 
L 168.967495 108.801323 
L 169.016848 108.542995 
L 169.099103 109.222071 
L 169.115554 108.333137 
L 169.181357 106.573314 
L 169.197808 107.915482 
L 169.23071 109.173603 
L 169.296514 107.766466 
L 169.312965 108.243418 
L 169.41167 105.951472 
L 169.428121 105.994269 
L 169.461023 108.129981 
L 169.543277 106.813079 
L 169.576179 106.085018 
L 169.625532 106.841954 
L 169.691335 110.323443 
L 169.757139 109.032322 
L 169.872295 106.141221 
L 169.905197 107.057484 
L 170.053255 110.930847 
L 169.971001 106.135549 
L 170.119059 109.700054 
L 170.168412 108.897229 
L 170.184863 110.126475 
L 170.217765 109.36954 
L 170.349372 112.609717 
L 170.365823 113.06295 
L 170.398725 112.119359 
L 170.448077 112.318906 
L 170.513881 111.679533 
L 170.480979 113.236715 
L 170.563234 112.193094 
L 170.579685 113.541449 
L 170.612586 111.947141 
L 170.661939 112.220422 
L 170.694841 111.795032 
L 170.711292 112.740686 
L 170.826448 108.436261 
L 170.842899 109.507211 
L 170.925154 112.894857 
L 170.974506 111.799157 
L 171.007408 110.466271 
L 171.056761 112.57878 
L 171.089663 110.685411 
L 171.22127 112.678295 
L 171.237721 111.496486 
L 171.303525 113.2032 
L 171.319975 112.870107 
L 171.40223 110.477614 
L 171.468034 111.779564 
L 171.517386 110.200209 
L 171.599641 111.125753 
L 171.648994 110.983957 
L 171.731248 112.522577 
L 171.862855 109.638695 
L 171.94511 112.479265 
L 171.994463 110.599817 
L 172.027365 110.805551 
L 172.043815 110.725114 
L 172.175423 112.671592 
L 172.191874 111.613017 
L 172.241226 113.717276 
L 172.257677 113.271778 
L 172.30703 114.451009 
L 172.290579 113.135138 
L 172.389285 113.855464 
L 172.422186 114.24579 
L 172.504441 112.997466 
L 172.619597 114.902179 
L 172.636048 113.45998 
L 172.701852 114.95271 
L 172.734754 114.350462 
L 172.767655 113.495043 
L 172.833459 114.587649 
L 172.84991 114.965601 
L 172.882812 113.539902 
L 172.915714 114.380368 
L 172.948615 114.970241 
L 173.113125 112.439046 
L 173.21183 113.327981 
L 173.228281 113.31509 
L 173.359888 111.662001 
L 173.39279 113.402231 
L 173.442143 111.0118 
L 173.475045 112.470499 
L 173.540848 113.202684 
L 173.57375 113.184122 
L 173.688906 110.841645 
L 173.705357 111.193815 
L 173.721808 111.209284 
L 173.820514 113.72862 
L 173.869866 112.780389 
L 173.902768 113.284153 
L 173.919219 113.171231 
L 173.93567 112.220937 
L 173.985023 114.182884 
L 174.001474 113.618277 
L 174.017925 113.967869 
L 174.034375 112.597858 
L 174.050826 112.253937 
L 174.100179 113.336231 
L 174.133081 112.750483 
L 174.231786 114.468024 
L 174.281139 113.934354 
L 174.29759 113.993651 
L 174.330492 111.80586 
L 174.412746 112.45039 
L 174.527903 114.940851 
L 174.610157 111.609408 
L 174.643059 113.279512 
L 174.65951 114.535571 
L 174.708863 112.60353 
L 174.758215 113.762136 
L 174.84047 110.331693 
L 174.873372 110.772035 
L 174.906274 111.760486 
L 174.972077 110.659114 
L 174.988528 111.498033 
L 175.004979 111.104613 
L 175.037881 112.439046 
L 175.087234 111.579502 
L 175.136586 112.759764 
L 175.185939 111.640861 
L 175.218841 111.143284 
L 175.251743 112.494733 
L 175.284645 113.540418 
L 175.301095 111.798642 
L 175.366899 113.09131 
L 175.399801 113.96426 
L 175.432703 113.08306 
L 175.498506 111.391815 
L 175.531408 112.468952 
L 175.547859 113.836385 
L 175.613663 111.651173 
L 175.630114 112.124 
L 175.646565 112.656639 
L 175.663015 111.28869 
L 175.712368 111.419143 
L 175.728819 110.778738 
L 175.74527 112.589608 
L 175.778172 111.872376 
L 175.893328 115.483802 
L 175.909779 114.280337 
L 175.975583 112.930951 
L 176.008485 113.979213 
L 176.057837 114.859898 
L 176.090739 113.734292 
L 176.189445 110.879801 
L 176.238797 111.402127 
L 176.271699 111.287143 
L 176.321052 111.670251 
L 176.419757 114.416977 
L 176.452659 113.150606 
L 176.46911 112.505046 
L 176.518463 113.824011 
L 176.534914 113.651277 
L 176.551365 114.246822 
L 176.600717 112.976841 
L 176.617168 113.731198 
L 176.633619 112.343656 
L 176.682972 114.010666 
L 176.715874 113.569293 
L 176.748775 112.857217 
L 176.814579 114.650555 
L 176.962637 111.68108 
L 177.127146 114.394806 
L 177.160048 111.858454 
L 177.242303 113.208356 
L 177.341008 115.065632 
L 177.291655 113.203716 
L 177.357459 114.615492 
L 177.439714 112.846904 
L 177.472615 113.286215 
L 177.55487 116.169066 
L 177.637125 114.499993 
L 177.670026 114.171025 
L 177.686477 112.879388 
L 177.768732 114.610336 
L 177.785183 112.967044 
L 177.883888 114.548977 
L 177.900339 114.291681 
L 178.031946 113.168138 
L 178.114201 114.023557 
L 178.147103 113.540933 
L 178.229357 112.03686 
L 178.262259 112.420999 
L 178.27871 112.716451 
L 178.295161 111.219081 
L 178.311612 112.093063 
L 178.328063 111.301065 
L 178.377415 112.90517 
L 178.393866 113.522886 
L 178.45967 112.760279 
L 178.476121 112.110078 
L 178.509023 113.795651 
L 178.558375 113.036654 
L 178.574826 114.0349 
L 178.624179 112.572592 
L 178.657081 113.399652 
L 178.739335 112.493702 
L 178.689983 114.24579 
L 178.755786 113.590949 
L 178.772237 113.626527 
L 178.788688 111.595486 
L 178.870943 113.735839 
L 178.887394 112.825764 
L 178.920295 114.363353 
L 178.969648 112.505561 
L 178.986099 112.712842 
L 179.00255 112.427187 
L 179.051903 113.284668 
L 179.068354 112.788639 
L 179.101255 112.413265 
L 179.117706 113.44348 
L 179.216412 111.924969 
L 179.232863 112.441108 
L 179.265765 112.81081 
L 179.282215 112.02036 
L 179.298666 111.566095 
L 179.315117 113.126372 
L 179.348019 112.995404 
L 179.36447 112.857217 
L 179.380921 113.68737 
L 179.413823 111.260331 
L 179.430274 110.042428 
L 179.496077 112.212687 
L 179.512528 112.332312 
L 179.54543 114.258681 
L 179.578332 111.956938 
L 179.627685 113.566714 
L 179.709939 110.96591 
L 179.759292 111.716658 
L 179.841546 113.696652 
L 179.874448 113.069653 
L 179.923801 112.303437 
L 179.940252 113.484215 
L 179.973154 113.190825 
L 180.006055 112.625186 
L 180.08831 112.795857 
L 180.104761 111.87547 
L 180.170565 113.967869 
L 180.187015 113.30684 
L 180.236368 113.791526 
L 180.26927 112.286937 
L 180.285721 113.861135 
L 180.384426 113.180512 
L 180.483132 114.14576 
L 180.466681 112.426671 
L 180.499583 113.441934 
L 180.516034 113.483699 
L 180.565386 113.747183 
L 180.647641 112.512264 
L 180.713445 113.755948 
L 180.746346 112.383874 
L 180.779248 110.261053 
L 180.845052 112.264765 
L 180.861503 113.527527 
L 180.927306 111.165972 
L 180.943757 111.192268 
L 181.042463 112.831435 
L 181.058914 112.461218 
L 181.141168 110.895785 
L 181.124717 113.165559 
L 181.206972 111.823392 
L 181.272775 111.152565 
L 181.322128 113.61673 
L 181.404383 113.587855 
L 181.437285 114.451009 
L 181.53599 111.709954 
L 181.552441 113.376965 
L 181.618245 111.511955 
L 181.634695 111.53258 
L 181.651146 111.44544 
L 181.700499 113.115544 
L 181.766303 111.68572 
L 181.799205 110.452349 
L 181.848557 113.138747 
L 181.914361 112.480296 
L 181.963714 111.520721 
L 181.980165 112.976841 
L 182.013066 112.392124 
L 182.029517 113.281575 
L 182.07887 111.660455 
L 182.111772 112.647358 
L 182.194026 111.771314 
L 182.161125 113.372324 
L 182.210477 112.852576 
L 182.374986 110.857113 
L 182.243379 112.875263 
L 182.407888 111.630548 
L 182.473692 113.387793 
L 182.523045 112.709233 
L 182.539495 110.933426 
L 182.605299 112.980966 
L 182.638201 112.253937 
L 182.687554 110.912801 
L 182.720455 111.220628 
L 182.736906 112.87217 
L 182.835612 112.633436 
L 182.884965 111.464518 
L 182.917866 113.416668 
L 182.950768 112.303437 
L 182.967219 113.390887 
L 183.033023 110.700364 
L 183.049474 110.562692 
L 183.065925 111.315502 
L 183.181081 113.006232 
L 183.197532 112.591155 
L 183.213983 113.049544 
L 183.279786 112.216297 
L 183.296237 112.754092 
L 183.312688 110.735426 
L 183.411394 111.45369 
L 183.427845 112.410171 
L 183.510099 111.317565 
L 183.52655 111.700673 
L 183.674608 113.885885 
L 183.789765 110.959722 
L 183.806215 112.060063 
L 183.937823 113.644058 
L 183.987175 113.971479 
L 184.052979 111.950235 
L 184.168135 114.916101 
L 184.201037 114.857836 
L 184.217488 113.573418 
L 184.233939 115.066663 
L 184.299743 114.764508 
L 184.316194 114.74543 
L 184.414899 113.524433 
L 184.349095 114.917132 
L 184.447801 113.800292 
L 184.464252 114.735633 
L 184.513605 113.580121 
L 184.562957 114.032322 
L 184.579408 113.380574 
L 184.628761 114.492774 
L 184.661663 114.046244 
L 184.694565 113.319215 
L 184.760368 114.657774 
L 184.79327 113.433168 
L 184.842623 114.982616 
L 184.875525 113.691495 
L 184.941328 115.91641 
L 184.990681 115.040366 
L 185.056485 113.503293 
L 185.089386 114.313853 
L 185.105837 115.28374 
L 185.15519 113.472355 
L 185.188092 113.700777 
L 185.253895 114.96096 
L 185.270346 114.819164 
L 185.286797 115.696239 
L 185.303248 113.981791 
L 185.369052 114.379337 
L 185.385503 113.942604 
L 185.418405 114.80782 
L 185.467757 114.529899 
L 185.484208 115.336334 
L 185.550012 113.611574 
L 185.566463 113.572902 
L 185.582914 114.970241 
L 185.681619 114.10451 
L 185.69807 113.369746 
L 185.780325 114.590227 
L 185.862579 115.307459 
L 185.895481 115.207428 
L 186.076441 111.584658 
L 186.092892 112.121422 
L 186.224499 114.203509 
L 186.125794 111.9755 
L 186.257401 113.020669 
L 186.323205 113.460496 
L 186.372557 112.440593 
L 186.389008 112.577749 
L 186.42191 112.104406 
L 186.438361 111.383049 
L 186.504165 112.680358 
L 186.635772 113.86062 
L 186.652223 113.874542 
L 186.668674 114.636633 
L 186.701575 113.092341 
L 186.718026 113.398106 
L 186.750928 111.445955 
L 186.833183 112.407077 
L 186.915437 112.295187 
L 186.948339 113.718308 
L 187.079946 111.799157 
L 187.178652 113.321278 
L 187.211554 113.118122 
L 187.228005 113.382121 
L 187.244455 112.821123 
L 187.260906 111.116987 
L 187.343161 112.307562 
L 187.359612 113.150606 
L 187.392514 112.302406 
L 187.441866 112.746873 
L 187.474768 112.127094 
L 187.524121 112.957248 
L 187.540572 112.137406 
L 187.589925 113.53784 
L 187.639277 111.982719 
L 187.655728 113.09595 
L 187.672179 112.185359 
L 187.68863 113.631167 
L 187.754434 112.757701 
L 187.770885 113.256825 
L 187.820237 112.136891 
L 187.853139 113.108841 
L 187.968295 111.611986 
L 187.984746 111.806892 
L 188.017648 112.981997 
L 188.05055 111.739345 
L 188.083452 112.044594 
L 188.165706 109.667054 
L 188.215059 111.156175 
L 188.297314 111.682626 
L 188.264412 110.793176 
L 188.313765 111.345409 
L 188.363117 110.418318 
L 188.396019 112.160094 
L 188.461823 113.187731 
L 188.478274 112.605077 
L 188.560528 111.233518 
L 188.544077 112.607655 
L 188.59343 111.37944 
L 188.675685 112.545264 
L 188.692135 111.473799 
L 188.708586 111.358815 
L 188.725037 111.634673 
L 188.741488 112.24414 
L 188.807292 111.335612 
L 188.840194 111.905891 
L 188.971801 110.507521 
L 189.004703 111.601158 
L 189.070506 109.785648 
L 189.169212 110.416255 
L 189.185663 109.035416 
L 189.267917 109.615492 
L 189.399525 111.823907 
L 189.415975 111.39233 
L 189.432426 110.747801 
L 189.465328 111.837829 
L 189.514681 110.959722 
L 189.547583 112.671592 
L 189.629837 112.322515 
L 189.744994 109.607758 
L 189.86015 111.443893 
L 189.876601 110.568364 
L 189.909503 111.00716 
L 189.991757 110.016131 
L 190.106914 113.06295 
L 190.238521 110.580223 
L 190.254972 111.766157 
L 190.287874 110.56527 
L 190.353677 111.573314 
L 190.370128 111.706345 
L 190.485285 109.307149 
L 190.501735 110.150194 
L 190.518186 111.283018 
L 190.58399 110.114616 
L 190.616892 110.644676 
L 190.633343 110.44513 
L 190.649794 111.482049 
L 190.682695 110.474521 
L 190.814303 112.001797 
L 190.962361 109.75007 
L 191.028165 111.786267 
L 191.077517 110.712223 
L 191.110419 109.82896 
L 191.143321 110.867941 
L 191.159772 110.467818 
L 191.192674 111.63983 
L 191.258477 110.576098 
L 191.274928 109.413883 
L 191.357183 110.37913 
L 191.472339 111.996641 
L 191.554594 108.915791 
L 191.603946 109.551555 
L 191.620397 110.933426 
L 191.702652 109.538664 
L 191.719103 109.695929 
L 191.735554 109.51082 
L 191.752005 108.717792 
L 191.784906 110.235787 
L 191.834259 110.098116 
L 191.883612 109.668601 
L 191.900063 110.684379 
L 191.916514 110.666848 
L 192.03167 112.213719 
L 191.965866 110.467818 
L 192.048121 111.408315 
L 192.081023 111.088113 
L 192.097474 112.142047 
L 192.130375 113.117091 
L 192.179728 112.060578 
L 192.21263 111.130909 
L 192.278434 112.567436 
L 192.294885 112.912388 
L 192.327786 111.341799 
L 192.344237 112.070891 
L 192.410041 110.884957 
L 192.459394 111.324784 
L 192.541648 111.846079 
L 192.525197 111.275799 
L 192.558099 111.57847 
L 192.57455 110.681286 
L 192.623903 111.721814 
L 192.656805 111.138128 
L 192.75551 112.541139 
L 192.771961 111.60322 
L 192.788412 111.685204 
L 192.821314 111.290237 
L 192.837765 111.357268 
L 192.854215 111.213925 
L 192.870666 112.022422 
L 192.969372 111.564549 
L 192.985823 110.975707 
L 193.018725 111.873407 
L 193.084528 111.266003 
L 193.133881 112.933529 
L 193.183234 111.22269 
L 193.249037 112.233828 
L 193.314841 112.492155 
L 193.364194 110.588473 
L 193.495801 112.480811 
L 193.528703 113.301684 
L 193.545154 112.097703 
L 193.578055 111.526908 
L 193.610957 112.636014 
L 193.627408 113.447605 
L 193.66031 112.304984 
L 193.726114 112.863404 
L 193.857721 111.122659 
L 193.956426 111.872891 
L 193.907074 110.926207 
L 193.972877 111.848142 
L 194.02223 111.195362 
L 194.055132 112.179687 
L 194.088034 111.455752 
L 194.137386 110.752442 
L 194.170288 111.708923 
L 194.20319 110.922597 
L 194.285445 111.794001 
L 194.301895 111.462455 
L 194.334797 110.768426 
L 194.38415 112.151328 
L 194.466405 112.950544 
L 194.515757 112.558155 
L 194.548659 111.839376 
L 194.581561 112.718514 
L 194.598012 111.897641 
L 194.614463 113.222278 
L 194.630914 111.738314 
L 194.713168 112.699951 
L 194.762521 113.531136 
L 194.778972 111.967251 
L 194.844775 113.735839 
L 194.861226 112.919091 
L 194.877677 113.397074 
L 194.910579 111.486174 
L 194.92703 112.396249 
L 194.976383 110.413677 
L 195.009285 112.500405 
L 195.025735 111.784204 
L 195.10799 112.937654 
L 195.124441 111.607345 
L 195.157343 113.179997 
L 195.190245 111.211862 
L 195.223146 112.533405 
L 195.305401 109.725835 
L 195.321852 111.458846 
L 195.420557 111.070581 
L 195.437008 109.96096 
L 195.502812 112.037375 
L 195.519263 111.957969 
L 195.585066 110.150709 
L 195.634419 111.201034 
L 195.766026 113.249606 
L 195.782477 113.050575 
L 195.83183 114.233416 
L 195.864732 112.90981 
L 195.881183 113.032013 
L 195.897634 111.861032 
L 195.979888 113.040263 
L 195.996339 112.08636 
L 196.045692 113.633745 
L 196.062143 112.023453 
L 196.095045 113.074294 
L 196.160848 109.518039 
L 196.210201 111.605798 
L 196.276005 112.583421 
L 196.308906 112.06986 
L 196.325357 111.542892 
L 196.341808 112.442655 
L 196.391161 112.011079 
L 196.506317 113.247028 
L 196.440514 111.62333 
L 196.522768 113.035622 
L 196.670826 111.097394 
L 196.55567 113.1702 
L 196.687277 112.465858 
L 196.703728 113.171747 
L 196.753081 111.703251 
L 196.785983 112.575686 
L 196.818885 112.742748 
L 196.901139 111.269096 
L 196.966943 113.250637 
L 197.016295 112.678295 
L 197.032746 112.599405 
L 197.065648 113.400168 
L 197.09855 112.494733 
L 197.115001 110.972613 
L 197.197255 112.895888 
L 197.246608 112.679326 
L 197.295961 113.381606 
L 197.328863 111.188144 
L 197.411117 111.56197 
L 197.444019 109.974366 
L 197.542725 112.658702 
L 197.575626 111.205159 
L 197.624979 112.929404 
L 197.657881 112.113688 
L 197.773037 115.383771 
L 197.789488 115.165663 
L 197.888194 114.044697 
L 197.904645 115.127507 
L 197.986899 113.384699 
L 198.00335 114.171025 
L 198.069154 113.052122 
L 198.102055 113.731714 
L 198.134957 114.820195 
L 198.18431 114.126166 
L 198.200761 112.944873 
L 198.266565 114.879492 
L 198.283015 114.090588 
L 198.299466 114.751101 
L 198.332368 113.850823 
L 198.381721 113.973026 
L 198.414623 113.769354 
L 198.447525 114.466477 
L 198.463975 114.218978 
L 198.480426 114.189588 
L 198.496877 113.706448 
L 198.529779 114.451009 
L 198.54623 114.396353 
L 198.562681 115.54774 
L 198.612034 113.853917 
L 198.644935 113.936416 
L 198.72719 113.320762 
L 198.760092 114.515462 
L 198.842346 112.834014 
L 198.875248 113.626527 
L 198.941052 114.200931 
L 198.924601 112.865982 
L 198.973954 114.080275 
L 199.006855 112.980966 
L 199.056208 114.562899 
L 199.08911 113.747698 
L 199.105561 114.349431 
L 199.154914 112.715936 
L 199.187815 114.002932 
L 199.27007 112.662827 
L 199.253619 114.462352 
L 199.302972 112.831435 
L 199.385226 114.69232 
L 199.418128 114.331384 
L 199.516834 112.744811 
L 199.549735 113.168138 
L 199.582637 112.359124 
L 199.599088 113.125856 
L 199.648441 114.570118 
L 199.664892 113.620339 
L 199.681343 111.98736 
L 199.730695 113.775026 
L 199.763597 113.298075 
L 199.780048 113.946729 
L 199.81295 112.328703 
L 199.878754 113.681698 
L 199.895205 113.776058 
L 199.944557 112.676233 
L 200.010361 113.466683 
L 200.059714 113.828135 
L 200.076165 112.950029 
L 200.092615 114.866085 
L 200.17487 114.554133 
L 200.257125 112.898466 
L 200.273575 113.21609 
L 200.339379 115.025413 
L 200.372281 113.779667 
L 200.503888 111.360362 
L 200.454535 114.014791 
L 200.53679 112.431827 
L 200.553241 112.557124 
L 200.668397 109.259196 
L 200.734201 109.424711 
L 200.783554 111.646017 
L 200.849357 110.356443 
L 200.865808 109.773273 
L 200.915161 110.347677 
L 200.931612 111.816173 
L 200.964514 110.198662 
L 201.030317 110.835457 
L 201.178375 114.042635 
L 201.277081 111.924454 
L 201.326434 112.719029 
L 201.458041 113.96426 
L 201.474492 114.220525 
L 201.507394 113.748214 
L 201.523845 112.721092 
L 201.589648 114.837211 
L 201.606099 113.815245 
L 201.721255 116.229394 
L 201.655452 113.27745 
L 201.754157 115.256928 
L 201.787059 116.146378 
L 201.819961 115.524021 
L 201.951568 112.557639 
L 202.050274 115.029022 
L 202.099626 114.212275 
L 202.132528 114.266931 
L 202.247685 111.945079 
L 202.297037 113.210934 
L 202.34639 113.09131 
L 202.362841 111.716142 
L 202.445095 112.377171 
L 202.477997 113.578574 
L 202.543801 113.568777 
L 202.560252 111.852782 
L 202.658957 112.993341 
L 202.724761 113.871963 
L 202.691859 112.289 
L 202.774114 113.357887 
L 202.823466 112.418937 
L 202.839917 112.794311 
L 202.856368 113.757495 
L 202.955074 113.449152 
L 202.971525 113.407387 
L 203.119583 111.361909 
L 203.218288 114.431931 
L 203.284092 113.626011 
L 203.399248 115.15535 
L 203.366346 113.358403 
L 203.415699 114.645399 
L 203.530855 112.117813 
L 203.563757 112.910326 
L 203.678914 110.096569 
L 203.695365 111.808438 
L 203.711815 112.877842 
L 203.744717 111.381502 
L 203.810521 112.245172 
L 203.958579 113.618277 
L 203.892775 112.233828 
L 203.97503 112.979935 
L 204.139539 110.920535 
L 204.221794 110.748317 
L 204.254695 111.877532 
L 204.271146 111.436674 
L 204.304048 112.308078 
L 204.353401 111.989422 
L 204.369852 112.514327 
L 204.402754 110.545161 
L 204.419205 111.50783 
L 204.435655 109.75471 
L 204.501459 112.032735 
L 204.51791 111.82236 
L 204.649517 113.116575 
L 204.814026 108.989525 
L 204.69887 113.387277 
L 204.830477 110.009428 
L 204.962085 111.809985 
L 204.978535 111.598064 
L 205.011437 110.113584 
L 205.110143 110.411099 
L 205.208848 112.877842 
L 205.24175 112.110078 
L 205.258201 111.829579 
L 205.274652 112.523093 
L 205.291103 111.946626 
L 205.307554 112.945388 
L 205.389808 111.365518 
L 205.439161 110.38738 
L 205.472063 111.693454 
L 205.488514 111.990454 
L 205.537866 111.163909 
L 205.570768 111.81772 
L 205.587219 110.623536 
L 205.669474 111.932188 
L 205.685925 111.138128 
L 205.751728 110.085225 
L 205.817532 113.350668 
L 205.932688 111.35933 
L 205.949139 111.523299 
L 206.031394 111.48308 
L 206.064295 112.981482 
L 206.195903 111.366034 
L 206.245255 113.048513 
L 206.294608 111.451627 
L 206.32751 109.682523 
L 206.409765 110.101725 
L 206.492019 111.522783 
L 206.541372 111.490814 
L 206.557823 111.457815 
L 206.574274 111.000972 
L 206.640077 112.171437 
L 206.68943 111.451111 
L 206.788135 113.034591 
L 206.886841 110.709129 
L 206.903292 111.076253 
L 206.969095 113.606417 
L 207.05135 113.32695 
L 207.150055 111.448533 
L 207.166506 111.839376 
L 207.281663 113.170716 
L 207.298114 113.026857 
L 207.314565 112.621061 
L 207.363917 113.956526 
L 207.380368 113.465137 
L 207.396819 113.892588 
L 207.429721 112.022938 
L 207.446172 112.392124 
L 207.495525 111.372737 
L 207.511975 112.378718 
L 207.59423 113.488855 
L 207.610681 112.811326 
L 207.660034 111.701704 
L 207.643583 112.834014 
L 207.692935 112.02036 
L 207.709386 113.43523 
L 207.791641 111.972407 
L 207.808092 112.983544 
L 207.824543 111.941469 
L 207.890346 113.018607 
L 207.923248 112.043563 
L 207.939699 112.077594 
L 207.989052 113.771933 
L 208.021954 111.516596 
L 208.054855 112.577749 
L 208.153561 110.640551 
L 208.170012 111.406768 
L 208.186463 111.731095 
L 208.219365 110.227537 
L 208.252266 111.416049 
L 208.31807 113.330043 
L 208.367423 113.157309 
L 208.466128 112.033766 
L 208.482579 112.859279 
L 208.548383 114.399962 
L 208.581285 112.382327 
L 208.597735 113.208356 
L 208.663539 111.670767 
L 208.67999 113.622917 
L 208.712892 112.461218 
L 208.795146 114.386556 
L 208.828048 113.797714 
L 208.877401 112.887638 
L 208.86095 114.101932 
L 208.926754 113.423371 
L 208.943205 113.808542 
L 208.992557 112.798951 
L 209.009008 111.870829 
L 209.074812 112.983544 
L 209.091263 113.820917 
L 209.140615 112.467405 
L 209.157066 112.586514 
L 209.239321 111.698095 
L 209.288674 113.080997 
L 209.354477 112.719545 
L 209.370928 111.88836 
L 209.40383 113.288793 
L 209.453183 112.2725 
L 209.535437 113.798745 
L 209.551888 112.402952 
L 209.58479 111.472252 
L 209.716397 111.878048 
L 209.831554 111.344893 
L 209.749299 112.029125 
L 209.848005 111.614564 
L 209.880906 113.33159 
L 209.963161 113.077388 
L 210.061866 111.747079 
L 210.094768 112.028094 
L 210.111219 112.067797 
L 210.160572 113.795136 
L 210.226375 112.221968 
L 210.30863 111.435643 
L 210.341532 113.105747 
L 210.357983 112.329218 
L 210.390885 113.685823 
L 210.423786 113.181544 
L 210.440237 114.145244 
L 210.522492 112.747904 
L 210.538943 113.112966 
L 210.571845 111.459361 
L 210.588295 112.822154 
" clip-path="url(#pc298cde838)" style="fill: none; stroke: #0072b2; stroke-width: 1.25; stroke-linecap: square"/>
   </g>
   <g id="patch_4">
    <path d="M 37.85375 131.718516 
L 37.85375 20.418516 
" style="fill: none; stroke: #000000; stroke-width: 0.8; stroke-linejoin: miter; stroke-linecap: square"/>
   </g>
   <g id="patch_5">
    <path d="M 37.85375 131.718516 
L 218.81375 131.718516 
" style="fill: none; stroke: #000000; stroke-width: 0.8; stroke-linejoin: miter; stroke-linecap: square"/>
   </g>
   <g id="text_13">
    <!-- drugs2263 rep1 -->
    <g transform="translate(90.460664 14.418516) scale(0.095 -0.095)">
     <defs>
      <path id="DejaVuSans-64" d="M 2906 2969 
L 2906 4863 
L 3481 4863 
L 3481 0 
L 2906 0 
L 2906 525 
Q 2725 213 2448 61 
Q 2172 -91 1784 -91 
Q 1150 -91 751 415 
Q 353 922 353 1747 
Q 353 2572 751 3078 
Q 1150 3584 1784 3584 
Q 2172 3584 2448 3432 
Q 2725 3281 2906 2969 
z
M 947 1747 
Q 947 1113 1208 752 
Q 1469 391 1925 391 
Q 2381 391 2643 752 
Q 2906 1113 2906 1747 
Q 2906 2381 2643 2742 
Q 2381 3103 1925 3103 
Q 1469 3103 1208 2742 
Q 947 2381 947 1747 
z
" transform="scale(0.015625)"/>
      <path id="DejaVuSans-72" d="M 2631 2963 
Q 2534 3019 2420 3045 
Q 2306 3072 2169 3072 
Q 1681 3072 1420 2755 
Q 1159 2438 1159 1844 
L 1159 0 
L 581 0 
L 581 3500 
L 1159 3500 
L 1159 2956 
Q 1341 3275 1631 3429 
Q 1922 3584 2338 3584 
Q 2397 3584 2469 3576 
Q 2541 3569 2628 3553 
L 2631 2963 
z
" transform="scale(0.015625)"/>
      <path id="DejaVuSans-75" d="M 544 1381 
L 544 3500 
L 1119 3500 
L 1119 1403 
Q 1119 906 1312 657 
Q 1506 409 1894 409 
Q 2359 409 2629 706 
Q 2900 1003 2900 1516 
L 2900 3500 
L 3475 3500 
L 3475 0 
L 2900 0 
L 2900 538 
Q 2691 219 2414 64 
Q 2138 -91 1772 -91 
Q 1169 -91 856 284 
Q 544 659 544 1381 
z
M 1991 3584 
L 1991 3584 
z
" transform="scale(0.015625)"/>
      <path id="DejaVuSans-70" d="M 1159 525 
L 1159 -1331 
L 581 -1331 
L 581 3500 
L 1159 3500 
L 1159 2969 
Q 1341 3281 1617 3432 
Q 1894 3584 2278 3584 
Q 2916 3584 3314 3078 
Q 3713 2572 3713 1747 
Q 3713 922 3314 415 
Q 2916 -91 2278 -91 
Q 1894 -91 1617 61 
Q 1341 213 1159 525 
z
M 3116 1747 
Q 3116 2381 2855 2742 
Q 2594 3103 2138 3103 
Q 1681 3103 1420 2742 
Q 1159 2381 1159 1747 
Q 1159 1113 1420 752 
Q 1681 391 2138 391 
Q 2594 391 2855 752 
Q 3116 1113 3116 1747 
z
" transform="scale(0.015625)"/>
     </defs>
     <use xlink:href="#DejaVuSans-64"/>
     <use xlink:href="#DejaVuSans-72" transform="translate(63.476562 0)"/>
     <use xlink:href="#DejaVuSans-75" transform="translate(104.589844 0)"/>
     <use xlink:href="#DejaVuSans-67" transform="translate(167.96875 0)"/>
     <use xlink:href="#DejaVuSans-73" transform="translate(231.445312 0)"/>
     <use xlink:href="#DejaVuSans-32" transform="translate(283.544922 0)"/>
     <use xlink:href="#DejaVuSans-32" transform="translate(347.167969 0)"/>
     <use xlink:href="#DejaVuSans-36" transform="translate(410.791016 0)"/>
     <use xlink:href="#DejaVuSans-33" transform="translate(474.414062 0)"/>
     <use xlink:href="#DejaVuSans-20" transform="translate(538.037109 0)"/>
     <use xlink:href="#DejaVuSans-72" transform="translate(569.824219 0)"/>
     <use xlink:href="#DejaVuSans-65" transform="translate(608.6875 0)"/>
     <use xlink:href="#DejaVuSans-70" transform="translate(670.210938 0)"/>
     <use xlink:href="#DejaVuSans-31" transform="translate(733.6875 0)"/>
    </g>
   </g>
  </g>
 </g>
 <defs>
  <clipPath id="pc298cde838">
   <rect x="37.85375" y="20.418516" width="180.96" height="111.3"/>
  </clipPath>
 </defs>
</svg>
