<?xml version="1.0" encoding="utf-8" standalone="no"?>
<!DOCTYPE svg PUBLIC "-//W3C//DTD SVG 1.1//EN"
  "http://www.w3.org/Graphics/SVG/1.1/DTD/svg11.dtd">
<svg xmlns:xlink="http://www.w3.org/1999/xlink" width="225.998281pt" height="164.903516pt" viewBox="0 0 225.998281 164.903516" xmlns="http://www.w3.org/2000/svg" version="1.1">
 <metadata>
  <rdf:RDF xmlns:dc="http://purl.org/dc/elements/1.1/" xmlns:cc="http://creativecommons.org/ns#" xmlns:rdf="http://www.w3.org/1999/02/22-rdf-syntax-ns#">
   <cc:Work>
    <dc:type rdf:resource="http://purl.org/dc/dcmitype/StillImage"/>
    <dc:date>2026-05-24T13:54:15.453203</dc:date>
    <dc:format>image/svg+xml</dc:format>
    <dc:creator>
     <cc:Agent>
      <dc:title>Matplotlib v3.10.9, https://matplotlib.org/</dc:title>
     </cc:Agent>
    </dc:creator>
   </cc:Work>
  </rdf:RDF>
 </metadata>
 <defs>
  <style type="text/css">*{stroke-linejoin: round; stroke-linecap: butt}</style>
 </defs>
 <g id="figure_1">
  <g id="patch_1">
   <path d="M 0 164.903516 
L 225.998281 164.903516 
L 225.998281 0 
L 0 0 
z
" style="fill: #ffffff"/>
  </g>
  <g id="axes_1">
   <g id="patch_2">
    <path d="M 30.698281 131.718516 
L 218.798281 131.718516 
L 218.798281 20.418516 
L 30.698281 20.418516 
z
" style="fill: #ffffff"/>
   </g>
   <g id="patch_3">
    <path d="M 124.748281 131.718516 
L 210.248281 131.718516 
L 210.248281 20.418516 
L 124.748281 20.418516 
z
" clip-path="url(#pabb4dbf663)" style="fill: #bdbdbd; opacity: 0.18"/>
   </g>
   <g id="matplotlib.axis_1">
    <g id="xtick_1">
     <g id="line2d_1">
      <defs>
       <path id="m1cc280f111" d="M 0 0 
L 0 3 
" style="stroke: #000000; stroke-width: 0.7"/>
      </defs>
      <g>
       <use xlink:href="#m1cc280f111" x="39.248281" y="131.718516" style="stroke: #000000; stroke-width: 0.7"/>
      </g>
     </g>
     <g id="text_1">
      <!-- 0 -->
      <g transform="translate(36.862344 143.917344) scale(0.075 -0.075)">
       <defs>
        <path id="DejaVuSans-30" d="M 2034 4250 
Q 1547 4250 1301 3770 
Q 1056 3291 1056 2328 
Q 1056 1369 1301 889 
Q 1547 409 2034 409 
Q 2525 409 2770 889 
Q 3016 1369 3016 2328 
Q 3016 3291 2770 3770 
Q 2525 4250 2034 4250 
z
M 2034 4750 
Q 2819 4750 3233 4129 
Q 3647 3509 3647 2328 
Q 3647 1150 3233 529 
Q 2819 -91 2034 -91 
Q 1250 -91 836 529 
Q 422 1150 422 2328 
Q 422 3509 836 4129 
Q 1250 4750 2034 4750 
z
" transform="scale(0.015625)"/>
       </defs>
       <use xlink:href="#DejaVuSans-30"/>
      </g>
     </g>
    </g>
    <g id="xtick_2">
     <g id="line2d_2">
      <g>
       <use xlink:href="#m1cc280f111" x="73.448281" y="131.718516" style="stroke: #000000; stroke-width: 0.7"/>
      </g>
     </g>
     <g id="text_2">
      <!-- 20 -->
      <g transform="translate(68.676406 143.917344) scale(0.075 -0.075)">
       <defs>
        <path id="DejaVuSans-32" d="M 1228 531 
L 3431 531 
L 3431 0 
L 469 0 
L 469 531 
Q 828 903 1448 1529 
Q 2069 2156 2228 2338 
Q 2531 2678 2651 2914 
Q 2772 3150 2772 3378 
Q 2772 3750 2511 3984 
Q 2250 4219 1831 4219 
Q 1534 4219 1204 4116 
Q 875 4013 500 3803 
L 500 4441 
Q 881 4594 1212 4672 
Q 1544 4750 1819 4750 
Q 2544 4750 2975 4387 
Q 3406 4025 3406 3419 
Q 3406 3131 3298 2873 
Q 3191 2616 2906 2266 
Q 2828 2175 2409 1742 
Q 1991 1309 1228 531 
z
" transform="scale(0.015625)"/>
       </defs>
       <use xlink:href="#DejaVuSans-32"/>
       <use xlink:href="#DejaVuSans-30" transform="translate(63.623047 0)"/>
      </g>
     </g>
    </g>
    <g id="xtick_3">
     <g id="line2d_3">
      <g>
       <use xlink:href="#m1cc280f111" x="107.648281" y="131.718516" style="stroke: #000000; stroke-width: 0.7"/>
      </g>
     </g>
     <g id="text_3">
      <!-- 40 -->
      <g transform="translate(102.876406 143.917344) scale(0.075 -0.075)">
       <defs>
        <path id="DejaVuSans-34" d="M 2419 4116 
L 825 1625 
L 2419 1625 
L 2419 4116 
z
M 2253 4666 
L 3047 4666 
L 3047 1625 
L 3713 1625 
L 3713 1100 
L 3047 1100 
L 3047 0 
L 2419 0 
L 2419 1100 
L 313 1100 
L 313 1709 
L 2253 4666 
z
" transform="scale(0.015625)"/>
       </defs>
       <use xlink:href="#DejaVuSans-34"/>
       <use xlink:href="#DejaVuSans-30" transform="translate(63.623047 0)"/>
      </g>
     </g>
    </g>
    <g id="xtick_4">
     <g id="line2d_4">
      <g>
       <use xlink:href="#m1cc280f111" x="141.848281" y="131.718516" style="stroke: #000000; stroke-width: 0.7"/>
      </g>
     </g>
     <g id="text_4">
      <!-- 60 -->
      <g transform="translate(137.076406 143.917344) scale(0.075 -0.075)">
       <defs>
        <path id="DejaVuSans-36" d="M 2113 2584 
Q 1688 2584 1439 2293 
Q 1191 2003 1191 1497 
Q 1191 994 1439 701 
Q 1688 409 2113 409 
Q 2538 409 2786 701 
Q 3034 994 3034 1497 
Q 3034 2003 2786 2293 
Q 2538 2584 2113 2584 
z
M 3366 4563 
L 3366 3988 
Q 3128 4100 2886 4159 
Q 2644 4219 2406 4219 
Q 1781 4219 1451 3797 
Q 1122 3375 1075 2522 
Q 1259 2794 1537 2939 
Q 1816 3084 2150 3084 
Q 2853 3084 3261 2657 
Q 3669 2231 3669 1497 
Q 3669 778 3244 343 
Q 2819 -91 2113 -91 
Q 1303 -91 875 529 
Q 447 1150 447 2328 
Q 447 3434 972 4092 
Q 1497 4750 2381 4750 
Q 2619 4750 2861 4703 
Q 3103 4656 3366 4563 
z
" transform="scale(0.015625)"/>
       </defs>
       <use xlink:href="#DejaVuSans-36"/>
       <use xlink:href="#DejaVuSans-30" transform="translate(63.623047 0)"/>
      </g>
     </g>
    </g>
    <g id="xtick_5">
     <g id="line2d_5">
      <g>
       <use xlink:href="#m1cc280f111" x="176.048281" y="131.718516" style="stroke: #000000; stroke-width: 0.7"/>
      </g>
     </g>
     <g id="text_5">
      <!-- 80 -->
      <g transform="translate(171.276406 143.917344) scale(0.075 -0.075)">
       <defs>
        <path id="DejaVuSans-38" d="M 2034 2216 
Q 1584 2216 1326 1975 
Q 1069 1734 1069 1313 
Q 1069 891 1326 650 
Q 1584 409 2034 409 
Q 2484 409 2743 651 
Q 3003 894 3003 1313 
Q 3003 1734 2745 1975 
Q 2488 2216 2034 2216 
z
M 1403 2484 
Q 997 2584 770 2862 
Q 544 3141 544 3541 
Q 544 4100 942 4425 
Q 1341 4750 2034 4750 
Q 2731 4750 3128 4425 
Q 3525 4100 3525 3541 
Q 3525 3141 3298 2862 
Q 3072 2584 2669 2484 
Q 3125 2378 3379 2068 
Q 3634 1759 3634 1313 
Q 3634 634 3220 271 
Q 2806 -91 2034 -91 
Q 1263 -91 848 271 
Q 434 634 434 1313 
Q 434 1759 690 2068 
Q 947 2378 1403 2484 
z
M 1172 3481 
Q 1172 3119 1398 2916 
Q 1625 2713 2034 2713 
Q 2441 2713 2670 2916 
Q 2900 3119 2900 3481 
Q 2900 3844 2670 4047 
Q 2441 4250 2034 4250 
Q 1625 4250 1398 4047 
Q 1172 3844 1172 3481 
z
" transform="scale(0.015625)"/>
       </defs>
       <use xlink:href="#DejaVuSans-38"/>
       <use xlink:href="#DejaVuSans-30" transform="translate(63.623047 0)"/>
      </g>
     </g>
    </g>
    <g id="xtick_6">
     <g id="line2d_6">
      <g>
       <use xlink:href="#m1cc280f111" x="210.248281" y="131.718516" style="stroke: #000000; stroke-width: 0.7"/>
      </g>
     </g>
     <g id="text_6">
      <!-- 100 -->
      <g transform="translate(203.090469 143.917344) scale(0.075 -0.075)">
       <defs>
        <path id="DejaVuSans-31" d="M 794 531 
L 1825 531 
L 1825 4091 
L 703 3866 
L 703 4441 
L 1819 4666 
L 2450 4666 
L 2450 531 
L 3481 531 
L 3481 0 
L 794 0 
L 794 531 
z
" transform="scale(0.015625)"/>
       </defs>
       <use xlink:href="#DejaVuSans-31"/>
       <use xlink:href="#DejaVuSans-30" transform="translate(63.623047 0)"/>
       <use xlink:href="#DejaVuSans-30" transform="translate(127.246094 0)"/>
      </g>
     </g>
    </g>
    <g id="text_7">
     <!-- Time (ns) -->
     <g transform="translate(104.775273 155.935781) scale(0.085 -0.085)">
      <defs>
       <path id="DejaVuSans-54" d="M -19 4666 
L 3928 4666 
L 3928 4134 
L 2272 4134 
L 2272 0 
L 1638 0 
L 1638 4134 
L -19 4134 
L -19 4666 
z
" transform="scale(0.015625)"/>
       <path id="DejaVuSans-69" d="M 603 3500 
L 1178 3500 
L 1178 0 
L 603 0 
L 603 3500 
z
M 603 4863 
L 1178 4863 
L 1178 4134 
L 603 4134 
L 603 4863 
z
" transform="scale(0.015625)"/>
       <path id="DejaVuSans-6d" d="M 3328 2828 
Q 3544 3216 3844 3400 
Q 4144 3584 4550 3584 
Q 5097 3584 5394 3201 
Q 5691 2819 5691 2113 
L 5691 0 
L 5113 0 
L 5113 2094 
Q 5113 2597 4934 2840 
Q 4756 3084 4391 3084 
Q 3944 3084 3684 2787 
Q 3425 2491 3425 1978 
L 3425 0 
L 2847 0 
L 2847 2094 
Q 2847 2600 2669 2842 
Q 2491 3084 2119 3084 
Q 1678 3084 1418 2786 
Q 1159 2488 1159 1978 
L 1159 0 
L 581 0 
L 581 3500 
L 1159 3500 
L 1159 2956 
Q 1356 3278 1631 3431 
Q 1906 3584 2284 3584 
Q 2666 3584 2933 3390 
Q 3200 3197 3328 2828 
z
" transform="scale(0.015625)"/>
       <path id="DejaVuSans-65" d="M 3597 1894 
L 3597 1613 
L 953 1613 
Q 991 1019 1311 708 
Q 1631 397 2203 397 
Q 2534 397 2845 478 
Q 3156 559 3463 722 
L 3463 178 
Q 3153 47 2828 -22 
Q 2503 -91 2169 -91 
Q 1331 -91 842 396 
Q 353 884 353 1716 
Q 353 2575 817 3079 
Q 1281 3584 2069 3584 
Q 2775 3584 3186 3129 
Q 3597 2675 3597 1894 
z
M 3022 2063 
Q 3016 2534 2758 2815 
Q 2500 3097 2075 3097 
Q 1594 3097 1305 2825 
Q 1016 2553 972 2059 
L 3022 2063 
z
" transform="scale(0.015625)"/>
       <path id="DejaVuSans-20" transform="scale(0.015625)"/>
       <path id="DejaVuSans-28" d="M 1984 4856 
Q 1566 4138 1362 3434 
Q 1159 2731 1159 2009 
Q 1159 1288 1364 580 
Q 1569 -128 1984 -844 
L 1484 -844 
Q 1016 -109 783 600 
Q 550 1309 550 2009 
Q 550 2706 781 3412 
Q 1013 4119 1484 4856 
L 1984 4856 
z
" transform="scale(0.015625)"/>
       <path id="DejaVuSans-6e" d="M 3513 2113 
L 3513 0 
L 2938 0 
L 2938 2094 
Q 2938 2591 2744 2837 
Q 2550 3084 2163 3084 
Q 1697 3084 1428 2787 
Q 1159 2491 1159 1978 
L 1159 0 
L 581 0 
L 581 3500 
L 1159 3500 
L 1159 2956 
Q 1366 3272 1645 3428 
Q 1925 3584 2291 3584 
Q 2894 3584 3203 3211 
Q 3513 2838 3513 2113 
z
" transform="scale(0.015625)"/>
       <path id="DejaVuSans-73" d="M 2834 3397 
L 2834 2853 
Q 2591 2978 2328 3040 
Q 2066 3103 1784 3103 
Q 1356 3103 1142 2972 
Q 928 2841 928 2578 
Q 928 2378 1081 2264 
Q 1234 2150 1697 2047 
L 1894 2003 
Q 2506 1872 2764 1633 
Q 3022 1394 3022 966 
Q 3022 478 2636 193 
Q 2250 -91 1575 -91 
Q 1294 -91 989 -36 
Q 684 19 347 128 
L 347 722 
Q 666 556 975 473 
Q 1284 391 1588 391 
Q 1994 391 2212 530 
Q 2431 669 2431 922 
Q 2431 1156 2273 1281 
Q 2116 1406 1581 1522 
L 1381 1569 
Q 847 1681 609 1914 
Q 372 2147 372 2553 
Q 372 3047 722 3315 
Q 1072 3584 1716 3584 
Q 2034 3584 2315 3537 
Q 2597 3491 2834 3397 
z
" transform="scale(0.015625)"/>
       <path id="DejaVuSans-29" d="M 513 4856 
L 1013 4856 
Q 1481 4119 1714 3412 
Q 1947 2706 1947 2009 
Q 1947 1309 1714 600 
Q 1481 -109 1013 -844 
L 513 -844 
Q 928 -128 1133 580 
Q 1338 1288 1338 2009 
Q 1338 2731 1133 3434 
Q 928 4138 513 4856 
z
" transform="scale(0.015625)"/>
      </defs>
      <use xlink:href="#DejaVuSans-54"/>
      <use xlink:href="#DejaVuSans-69" transform="translate(57.958984 0)"/>
      <use xlink:href="#DejaVuSans-6d" transform="translate(85.742188 0)"/>
      <use xlink:href="#DejaVuSans-65" transform="translate(183.154297 0)"/>
      <use xlink:href="#DejaVuSans-20" transform="translate(244.677734 0)"/>
      <use xlink:href="#DejaVuSans-28" transform="translate(276.464844 0)"/>
      <use xlink:href="#DejaVuSans-6e" transform="translate(315.478516 0)"/>
      <use xlink:href="#DejaVuSans-73" transform="translate(378.857422 0)"/>
      <use xlink:href="#DejaVuSans-29" transform="translate(430.957031 0)"/>
     </g>
    </g>
   </g>
   <g id="matplotlib.axis_2">
    <g id="ytick_1">
     <g id="line2d_7">
      <defs>
       <path id="m47e145c0da" d="M 0 0 
L -3 0 
" style="stroke: #000000; stroke-width: 0.7"/>
      </defs>
      <g>
       <use xlink:href="#m47e145c0da" x="30.698281" y="126.659425" style="stroke: #000000; stroke-width: 0.7"/>
      </g>
     </g>
     <g id="text_8">
      <!-- 0 -->
      <g transform="translate(19.426406 129.508839) scale(0.075 -0.075)">
       <use xlink:href="#DejaVuSans-30"/>
      </g>
     </g>
    </g>
    <g id="ytick_2">
     <g id="line2d_8">
      <g>
       <use xlink:href="#m47e145c0da" x="30.698281" y="109.795788" style="stroke: #000000; stroke-width: 0.7"/>
      </g>
     </g>
     <g id="text_9">
      <!-- 1 -->
      <g transform="translate(19.426406 112.645202) scale(0.075 -0.075)">
       <use xlink:href="#DejaVuSans-31"/>
      </g>
     </g>
    </g>
    <g id="ytick_3">
     <g id="line2d_9">
      <g>
       <use xlink:href="#m47e145c0da" x="30.698281" y="92.932152" style="stroke: #000000; stroke-width: 0.7"/>
      </g>
     </g>
     <g id="text_10">
      <!-- 2 -->
      <g transform="translate(19.426406 95.781566) scale(0.075 -0.075)">
       <use xlink:href="#DejaVuSans-32"/>
      </g>
     </g>
    </g>
    <g id="ytick_4">
     <g id="line2d_10">
      <g>
       <use xlink:href="#m47e145c0da" x="30.698281" y="76.068516" style="stroke: #000000; stroke-width: 0.7"/>
      </g>
     </g>
     <g id="text_11">
      <!-- 3 -->
      <g transform="translate(19.426406 78.91793) scale(0.075 -0.075)">
       <defs>
        <path id="DejaVuSans-33" d="M 2597 2516 
Q 3050 2419 3304 2112 
Q 3559 1806 3559 1356 
Q 3559 666 3084 287 
Q 2609 -91 1734 -91 
Q 1441 -91 1130 -33 
Q 819 25 488 141 
L 488 750 
Q 750 597 1062 519 
Q 1375 441 1716 441 
Q 2309 441 2620 675 
Q 2931 909 2931 1356 
Q 2931 1769 2642 2001 
Q 2353 2234 1838 2234 
L 1294 2234 
L 1294 2753 
L 1863 2753 
Q 2328 2753 2575 2939 
Q 2822 3125 2822 3475 
Q 2822 3834 2567 4026 
Q 2313 4219 1838 4219 
Q 1578 4219 1281 4162 
Q 984 4106 628 3988 
L 628 4550 
Q 988 4650 1302 4700 
Q 1616 4750 1894 4750 
Q 2613 4750 3031 4423 
Q 3450 4097 3450 3541 
Q 3450 3153 3228 2886 
Q 3006 2619 2597 2516 
z
" transform="scale(0.015625)"/>
       </defs>
       <use xlink:href="#DejaVuSans-33"/>
      </g>
     </g>
    </g>
    <g id="ytick_5">
     <g id="line2d_11">
      <g>
       <use xlink:href="#m47e145c0da" x="30.698281" y="59.204879" style="stroke: #000000; stroke-width: 0.7"/>
      </g>
     </g>
     <g id="text_12">
      <!-- 4 -->
      <g transform="translate(19.426406 62.054293) scale(0.075 -0.075)">
       <use xlink:href="#DejaVuSans-34"/>
      </g>
     </g>
    </g>
    <g id="ytick_6">
     <g id="line2d_12">
      <g>
       <use xlink:href="#m47e145c0da" x="30.698281" y="42.341243" style="stroke: #000000; stroke-width: 0.7"/>
      </g>
     </g>
     <g id="text_13">
      <!-- 5 -->
      <g transform="translate(19.426406 45.190657) scale(0.075 -0.075)">
       <defs>
        <path id="DejaVuSans-35" d="M 691 4666 
L 3169 4666 
L 3169 4134 
L 1269 4134 
L 1269 2991 
Q 1406 3038 1543 3061 
Q 1681 3084 1819 3084 
Q 2600 3084 3056 2656 
Q 3513 2228 3513 1497 
Q 3513 744 3044 326 
Q 2575 -91 1722 -91 
Q 1428 -91 1123 -41 
Q 819 9 494 109 
L 494 744 
Q 775 591 1075 516 
Q 1375 441 1709 441 
Q 2250 441 2565 725 
Q 2881 1009 2881 1497 
Q 2881 1984 2565 2268 
Q 2250 2553 1709 2553 
Q 1456 2553 1204 2497 
Q 953 2441 691 2322 
L 691 4666 
z
" transform="scale(0.015625)"/>
       </defs>
       <use xlink:href="#DejaVuSans-35"/>
      </g>
     </g>
    </g>
    <g id="ytick_7">
     <g id="line2d_13">
      <g>
       <use xlink:href="#m47e145c0da" x="30.698281" y="25.477607" style="stroke: #000000; stroke-width: 0.7"/>
      </g>
     </g>
     <g id="text_14">
      <!-- 6 -->
      <g transform="translate(19.426406 28.327021) scale(0.075 -0.075)">
       <use xlink:href="#DejaVuSans-36"/>
      </g>
     </g>
    </g>
    <g id="text_15">
     <!-- Number of H-bonds -->
     <g transform="translate(13.658672 117.573086) rotate(-90) scale(0.085 -0.085)">
      <defs>
       <path id="DejaVuSans-4e" d="M 628 4666 
L 1478 4666 
L 3547 763 
L 3547 4666 
L 4159 4666 
L 4159 0 
L 3309 0 
L 1241 3903 
L 1241 0 
L 628 0 
L 628 4666 
z
" transform="scale(0.015625)"/>
       <path id="DejaVuSans-75" d="M 544 1381 
L 544 3500 
L 1119 3500 
L 1119 1403 
Q 1119 906 1312 657 
Q 1506 409 1894 409 
Q 2359 409 2629 706 
Q 2900 1003 2900 1516 
L 2900 3500 
L 3475 3500 
L 3475 0 
L 2900 0 
L 2900 538 
Q 2691 219 2414 64 
Q 2138 -91 1772 -91 
Q 1169 -91 856 284 
Q 544 659 544 1381 
z
M 1991 3584 
L 1991 3584 
z
" transform="scale(0.015625)"/>
       <path id="DejaVuSans-62" d="M 3116 1747 
Q 3116 2381 2855 2742 
Q 2594 3103 2138 3103 
Q 1681 3103 1420 2742 
Q 1159 2381 1159 1747 
Q 1159 1113 1420 752 
Q 1681 391 2138 391 
Q 2594 391 2855 752 
Q 3116 1113 3116 1747 
z
M 1159 2969 
Q 1341 3281 1617 3432 
Q 1894 3584 2278 3584 
Q 2916 3584 3314 3078 
Q 3713 2572 3713 1747 
Q 3713 922 3314 415 
Q 2916 -91 2278 -91 
Q 1894 -91 1617 61 
Q 1341 213 1159 525 
L 1159 0 
L 581 0 
L 581 4863 
L 1159 4863 
L 1159 2969 
z
" transform="scale(0.015625)"/>
       <path id="DejaVuSans-72" d="M 2631 2963 
Q 2534 3019 2420 3045 
Q 2306 3072 2169 3072 
Q 1681 3072 1420 2755 
Q 1159 2438 1159 1844 
L 1159 0 
L 581 0 
L 581 3500 
L 1159 3500 
L 1159 2956 
Q 1341 3275 1631 3429 
Q 1922 3584 2338 3584 
Q 2397 3584 2469 3576 
Q 2541 3569 2628 3553 
L 2631 2963 
z
" transform="scale(0.015625)"/>
       <path id="DejaVuSans-6f" d="M 1959 3097 
Q 1497 3097 1228 2736 
Q 959 2375 959 1747 
Q 959 1119 1226 758 
Q 1494 397 1959 397 
Q 2419 397 2687 759 
Q 2956 1122 2956 1747 
Q 2956 2369 2687 2733 
Q 2419 3097 1959 3097 
z
M 1959 3584 
Q 2709 3584 3137 3096 
Q 3566 2609 3566 1747 
Q 3566 888 3137 398 
Q 2709 -91 1959 -91 
Q 1206 -91 779 398 
Q 353 888 353 1747 
Q 353 2609 779 3096 
Q 1206 3584 1959 3584 
z
" transform="scale(0.015625)"/>
       <path id="DejaVuSans-66" d="M 2375 4863 
L 2375 4384 
L 1825 4384 
Q 1516 4384 1395 4259 
Q 1275 4134 1275 3809 
L 1275 3500 
L 2222 3500 
L 2222 3053 
L 1275 3053 
L 1275 0 
L 697 0 
L 697 3053 
L 147 3053 
L 147 3500 
L 697 3500 
L 697 3744 
Q 697 4328 969 4595 
Q 1241 4863 1831 4863 
L 2375 4863 
z
" transform="scale(0.015625)"/>
       <path id="DejaVuSans-48" d="M 628 4666 
L 1259 4666 
L 1259 2753 
L 3553 2753 
L 3553 4666 
L 4184 4666 
L 4184 0 
L 3553 0 
L 3553 2222 
L 1259 2222 
L 1259 0 
L 628 0 
L 628 4666 
z
" transform="scale(0.015625)"/>
       <path id="DejaVuSans-2d" d="M 313 2009 
L 1997 2009 
L 1997 1497 
L 313 1497 
L 313 2009 
z
" transform="scale(0.015625)"/>
       <path id="DejaVuSans-64" d="M 2906 2969 
L 2906 4863 
L 3481 4863 
L 3481 0 
L 2906 0 
L 2906 525 
Q 2725 213 2448 61 
Q 2172 -91 1784 -91 
Q 1150 -91 751 415 
Q 353 922 353 1747 
Q 353 2572 751 3078 
Q 1150 3584 1784 3584 
Q 2172 3584 2448 3432 
Q 2725 3281 2906 2969 
z
M 947 1747 
Q 947 1113 1208 752 
Q 1469 391 1925 391 
Q 2381 391 2643 752 
Q 2906 1113 2906 1747 
Q 2906 2381 2643 2742 
Q 2381 3103 1925 3103 
Q 1469 3103 1208 2742 
Q 947 2381 947 1747 
z
" transform="scale(0.015625)"/>
      </defs>
      <use xlink:href="#DejaVuSans-4e"/>
      <use xlink:href="#DejaVuSans-75" transform="translate(74.804688 0)"/>
      <use xlink:href="#DejaVuSans-6d" transform="translate(138.183594 0)"/>
      <use xlink:href="#DejaVuSans-62" transform="translate(235.595703 0)"/>
      <use xlink:href="#DejaVuSans-65" transform="translate(299.072266 0)"/>
      <use xlink:href="#DejaVuSans-72" transform="translate(360.595703 0)"/>
      <use xlink:href="#DejaVuSans-20" transform="translate(401.708984 0)"/>
      <use xlink:href="#DejaVuSans-6f" transform="translate(433.496094 0)"/>
      <use xlink:href="#DejaVuSans-66" transform="translate(494.677734 0)"/>
      <use xlink:href="#DejaVuSans-20" transform="translate(529.882812 0)"/>
      <use xlink:href="#DejaVuSans-48" transform="translate(561.669922 0)"/>
      <use xlink:href="#DejaVuSans-2d" transform="translate(636.865234 0)"/>
      <use xlink:href="#DejaVuSans-62" transform="translate(672.949219 0)"/>
      <use xlink:href="#DejaVuSans-6f" transform="translate(736.425781 0)"/>
      <use xlink:href="#DejaVuSans-6e" transform="translate(797.607422 0)"/>
      <use xlink:href="#DejaVuSans-64" transform="translate(860.986328 0)"/>
      <use xlink:href="#DejaVuSans-73" transform="translate(924.462891 0)"/>
     </g>
    </g>
   </g>
   <g id="line2d_14">
    <path d="M 39.248281 126.659425 
L 39.265381 126.659425 
L 39.333781 109.795788 
L 39.367981 126.659425 
L 39.470581 126.659425 
L 39.487681 109.795788 
L 39.573181 126.659425 
L 39.829681 126.659425 
L 39.898081 92.932152 
L 39.932281 126.659425 
L 39.983581 126.659425 
L 40.000681 92.932152 
L 40.086181 109.795788 
L 40.205881 126.659425 
L 40.650481 126.659425 
L 40.667581 109.795788 
L 40.753081 126.659425 
L 40.992481 126.659425 
L 41.009581 109.795788 
L 41.095081 126.659425 
L 41.283181 126.659425 
L 41.334481 109.795788 
L 41.385781 126.659425 
L 41.625181 126.659425 
L 41.744881 109.795788 
L 41.830381 92.932152 
L 41.864581 126.659425 
L 41.881681 126.659425 
L 41.967181 109.795788 
L 41.984281 126.659425 
L 42.001381 126.659425 
L 42.069781 109.795788 
L 42.103981 126.659425 
L 42.138181 126.659425 
L 42.206581 109.795788 
L 42.240781 126.659425 
L 42.274981 126.659425 
L 42.343381 109.795788 
L 42.377581 126.659425 
L 42.394681 126.659425 
L 42.514381 109.795788 
L 42.531481 109.795788 
L 42.599881 126.659425 
L 42.634081 109.795788 
L 42.651181 109.795788 
L 42.702481 126.659425 
L 42.753781 109.795788 
L 42.770881 109.795788 
L 42.890581 126.659425 
L 42.941881 109.795788 
L 42.993181 126.659425 
L 43.061581 126.659425 
L 43.181281 109.795788 
L 43.249681 109.795788 
L 43.300981 92.932152 
L 43.369381 126.659425 
L 43.403581 126.659425 
L 43.523281 109.795788 
L 43.591681 109.795788 
L 43.694281 126.659425 
L 43.813981 109.795788 
L 43.831081 109.795788 
L 43.950781 126.659425 
L 44.036281 109.795788 
L 44.053381 126.659425 
L 44.070481 126.659425 
L 44.190181 109.795788 
L 44.258581 126.659425 
L 44.292781 109.795788 
L 44.309881 109.795788 
L 44.429581 126.659425 
L 44.463781 126.659425 
L 44.583481 109.795788 
L 44.600581 109.795788 
L 44.703181 126.659425 
L 44.805781 109.795788 
L 44.908381 126.659425 
L 45.028081 109.795788 
L 45.045181 109.795788 
L 45.164881 126.659425 
L 45.267481 92.932152 
L 45.284581 109.795788 
L 45.318781 109.795788 
L 45.335881 76.068516 
L 45.421381 109.795788 
L 45.438481 92.932152 
L 45.506881 109.795788 
L 45.523981 126.659425 
L 45.558181 92.932152 
L 45.609481 109.795788 
L 45.677881 109.795788 
L 45.763381 92.932152 
L 45.780481 126.659425 
L 45.797581 76.068516 
L 45.900181 92.932152 
L 45.917281 126.659425 
L 46.002781 109.795788 
L 46.019881 109.795788 
L 46.122481 76.068516 
L 46.225081 126.659425 
L 46.293481 76.068516 
L 46.344781 92.932152 
L 46.396081 126.659425 
L 46.430281 76.068516 
L 46.447381 109.795788 
L 46.532881 92.932152 
L 46.635481 76.068516 
L 46.669681 109.795788 
L 46.738081 76.068516 
L 46.789381 76.068516 
L 46.909081 109.795788 
L 46.994581 76.068516 
L 47.028781 92.932152 
L 47.062981 92.932152 
L 47.165581 109.795788 
L 47.285281 76.068516 
L 47.302381 76.068516 
L 47.422081 126.659425 
L 47.490481 76.068516 
L 47.524681 92.932152 
L 47.575981 126.659425 
L 47.627281 109.795788 
L 47.678581 126.659425 
L 47.746981 92.932152 
L 47.764081 92.932152 
L 47.781181 109.795788 
L 47.798281 76.068516 
L 47.849581 92.932152 
L 47.952181 76.068516 
L 47.969281 109.795788 
L 48.054781 76.068516 
L 48.106081 126.659425 
L 48.088981 59.204879 
L 48.174481 92.932152 
L 48.242881 109.795788 
L 48.311281 59.204879 
L 48.328381 109.795788 
L 48.413881 76.068516 
L 48.430981 59.204879 
L 48.448081 92.932152 
L 48.516481 76.068516 
L 48.533581 76.068516 
L 48.584881 92.932152 
L 48.636181 59.204879 
L 48.738781 76.068516 
L 48.824281 25.477607 
L 48.790081 92.932152 
L 48.841381 59.204879 
L 48.909781 59.204879 
L 48.995281 92.932152 
L 49.029481 76.068516 
L 49.046581 42.341243 
L 49.132081 59.204879 
L 49.149181 59.204879 
L 49.217581 42.341243 
L 49.268881 92.932152 
L 49.320181 59.204879 
L 49.354381 109.795788 
L 49.371481 109.795788 
L 49.491181 76.068516 
L 49.576681 76.068516 
L 49.593781 109.795788 
L 49.679281 76.068516 
L 49.696381 76.068516 
L 49.730581 126.659425 
L 49.764781 59.204879 
L 49.798981 76.068516 
L 49.816081 76.068516 
L 49.901581 109.795788 
L 49.935781 92.932152 
L 49.987081 109.795788 
L 50.055481 76.068516 
L 50.175181 109.795788 
L 50.294881 76.068516 
L 50.311981 76.068516 
L 50.329081 92.932152 
L 50.363281 42.341243 
L 50.414581 76.068516 
L 50.448781 76.068516 
L 50.465881 109.795788 
L 50.551381 92.932152 
L 50.568481 92.932152 
L 50.619781 59.204879 
L 50.671081 76.068516 
L 50.790781 126.659425 
L 50.893381 76.068516 
L 50.910481 92.932152 
L 50.927581 92.932152 
L 50.995981 76.068516 
L 51.047281 109.795788 
L 51.184081 76.068516 
L 51.235381 76.068516 
L 51.286681 109.795788 
L 51.355081 92.932152 
L 51.491881 92.932152 
L 51.508981 109.795788 
L 51.543181 76.068516 
L 51.594481 92.932152 
L 51.611581 76.068516 
L 51.628681 109.795788 
L 51.679981 92.932152 
L 51.731281 109.795788 
L 51.765481 76.068516 
L 51.782581 92.932152 
L 51.799681 92.932152 
L 51.850981 126.659425 
L 51.902281 92.932152 
L 52.039081 126.659425 
L 52.175881 92.932152 
L 52.244281 92.932152 
L 52.261381 126.659425 
L 52.295581 59.204879 
L 52.346881 92.932152 
L 52.363981 76.068516 
L 52.398181 109.795788 
L 52.449481 92.932152 
L 52.500781 109.795788 
L 52.534981 92.932152 
L 52.620481 76.068516 
L 52.637581 92.932152 
L 52.688881 76.068516 
L 52.740181 109.795788 
L 52.791481 59.204879 
L 52.808581 126.659425 
L 52.859881 76.068516 
L 52.945381 109.795788 
L 53.047981 59.204879 
L 53.150581 109.795788 
L 53.167681 92.932152 
L 53.201881 92.932152 
L 53.304481 109.795788 
L 53.424181 92.932152 
L 53.441281 92.932152 
L 53.475481 76.068516 
L 53.543881 109.795788 
L 53.629381 76.068516 
L 53.663581 92.932152 
L 53.731981 109.795788 
L 53.766181 92.932152 
L 53.800381 92.932152 
L 53.868781 76.068516 
L 53.834581 109.795788 
L 53.902981 92.932152 
L 53.920081 92.932152 
L 53.971381 76.068516 
L 54.039781 109.795788 
L 54.091081 76.068516 
L 54.159481 92.932152 
L 54.227881 126.659425 
L 54.279181 109.795788 
L 54.313381 92.932152 
L 54.347581 126.659425 
L 54.381781 109.795788 
L 54.450181 109.795788 
L 54.535681 126.659425 
L 54.552781 109.795788 
L 54.569881 109.795788 
L 54.672481 92.932152 
L 54.740881 109.795788 
L 54.757981 92.932152 
L 54.775081 76.068516 
L 54.826381 126.659425 
L 54.843481 126.659425 
L 54.963181 92.932152 
L 55.031581 126.659425 
L 55.082881 109.795788 
L 55.202581 109.795788 
L 55.219681 92.932152 
L 55.236781 126.659425 
L 55.305181 109.795788 
L 55.407781 126.659425 
L 55.424881 109.795788 
L 55.510381 126.659425 
L 55.612981 126.659425 
L 55.715581 92.932152 
L 55.732681 109.795788 
L 55.749781 109.795788 
L 55.835281 126.659425 
L 55.852381 109.795788 
L 55.869481 109.795788 
L 55.937881 126.659425 
L 55.954981 109.795788 
L 56.023381 92.932152 
L 56.057581 109.795788 
L 56.074681 109.795788 
L 56.194381 92.932152 
L 56.314081 126.659425 
L 56.416681 76.068516 
L 56.450881 92.932152 
L 56.536381 126.659425 
L 56.570581 109.795788 
L 56.587681 109.795788 
L 56.638981 126.659425 
L 56.621881 92.932152 
L 56.690281 109.795788 
L 56.724481 109.795788 
L 56.741581 92.932152 
L 56.827081 109.795788 
L 56.861281 109.795788 
L 56.895481 126.659425 
L 56.946781 109.795788 
L 57.049381 92.932152 
L 57.151981 126.659425 
L 57.271681 92.932152 
L 57.391381 109.795788 
L 57.408481 109.795788 
L 57.476881 76.068516 
L 57.511081 109.795788 
L 57.528181 109.795788 
L 57.613681 126.659425 
L 57.630781 92.932152 
L 57.699181 109.795788 
L 57.733381 92.932152 
L 57.750481 76.068516 
L 57.801781 109.795788 
L 57.835981 92.932152 
L 57.853081 92.932152 
L 57.972781 109.795788 
L 58.024081 126.659425 
L 58.092481 92.932152 
L 58.143781 109.795788 
L 58.177981 92.932152 
L 58.195081 76.068516 
L 58.212181 126.659425 
L 58.263481 109.795788 
L 58.417381 109.795788 
L 58.468681 76.068516 
L 58.519981 109.795788 
L 58.639681 126.659425 
L 58.759381 76.068516 
L 58.776481 92.932152 
L 58.827781 92.932152 
L 58.861981 76.068516 
L 58.930381 109.795788 
L 58.947481 76.068516 
L 59.032981 92.932152 
L 59.152681 109.795788 
L 59.169781 109.795788 
L 59.289481 92.932152 
L 59.306581 92.932152 
L 59.409181 126.659425 
L 59.426281 109.795788 
L 59.443381 109.795788 
L 59.494681 126.659425 
L 59.563081 92.932152 
L 59.682781 126.659425 
L 59.699881 76.068516 
L 59.785381 92.932152 
L 59.819581 76.068516 
L 59.905081 109.795788 
L 59.922181 109.795788 
L 59.939281 126.659425 
L 59.973481 76.068516 
L 60.024781 109.795788 
L 60.041881 109.795788 
L 60.127381 76.068516 
L 60.144481 92.932152 
L 60.195781 126.659425 
L 60.229981 109.795788 
L 60.247081 76.068516 
L 60.332581 92.932152 
L 60.383881 92.932152 
L 60.435181 109.795788 
L 60.452281 76.068516 
L 60.486481 92.932152 
L 60.606181 76.068516 
L 60.640381 76.068516 
L 60.708781 109.795788 
L 60.742981 92.932152 
L 60.794281 92.932152 
L 60.913981 109.795788 
L 60.982381 92.932152 
L 61.016581 109.795788 
L 61.050781 109.795788 
L 61.102081 126.659425 
L 61.170481 92.932152 
L 61.221781 109.795788 
L 61.204681 76.068516 
L 61.273081 92.932152 
L 61.358581 92.932152 
L 61.392781 109.795788 
L 61.478281 76.068516 
L 61.597981 109.795788 
L 61.632181 109.795788 
L 61.734781 92.932152 
L 61.854481 126.659425 
L 61.957081 109.795788 
L 62.042581 126.659425 
L 62.059681 109.795788 
L 62.128081 109.795788 
L 62.145181 126.659425 
L 62.230681 109.795788 
L 62.281981 109.795788 
L 62.350381 126.659425 
L 62.367481 92.932152 
L 62.384581 109.795788 
L 62.401681 109.795788 
L 62.452981 76.068516 
L 62.487181 109.795788 
L 62.521381 92.932152 
L 62.589781 126.659425 
L 62.675281 92.932152 
L 62.709481 109.795788 
L 62.726581 109.795788 
L 62.812081 59.204879 
L 62.794981 126.659425 
L 62.829181 76.068516 
L 62.948881 92.932152 
L 62.965981 92.932152 
L 62.983081 59.204879 
L 63.034381 126.659425 
L 63.068581 92.932152 
L 63.102781 76.068516 
L 63.171181 109.795788 
L 63.273781 92.932152 
L 63.410581 126.659425 
L 63.427681 126.659425 
L 63.547381 92.932152 
L 63.615781 126.659425 
L 63.632881 59.204879 
L 63.649981 92.932152 
L 63.667081 109.795788 
L 63.735481 76.068516 
L 63.752581 76.068516 
L 63.872281 92.932152 
L 63.889381 92.932152 
L 63.906481 109.795788 
L 63.991981 92.932152 
L 64.009081 92.932152 
L 64.043281 76.068516 
L 64.111681 109.795788 
L 64.180081 76.068516 
L 64.231381 92.932152 
L 64.265581 92.932152 
L 64.299781 109.795788 
L 64.333981 76.068516 
L 64.368181 92.932152 
L 64.402381 59.204879 
L 64.419481 109.795788 
L 64.470781 92.932152 
L 64.539181 92.932152 
L 64.590481 109.795788 
L 64.607581 59.204879 
L 64.641781 92.932152 
L 64.658881 92.932152 
L 64.795681 59.204879 
L 64.812781 59.204879 
L 64.915381 126.659425 
L 65.017981 76.068516 
L 65.035081 92.932152 
L 65.103481 109.795788 
L 65.137681 92.932152 
L 65.154781 92.932152 
L 65.171881 76.068516 
L 65.206081 109.795788 
L 65.257381 92.932152 
L 65.342881 76.068516 
L 65.377081 109.795788 
L 65.394181 109.795788 
L 65.411281 126.659425 
L 65.428381 92.932152 
L 65.496781 109.795788 
L 65.513881 109.795788 
L 65.530981 92.932152 
L 65.599381 109.795788 
L 65.701981 126.659425 
L 65.821681 109.795788 
L 65.855881 109.795788 
L 65.958481 126.659425 
L 66.026881 76.068516 
L 66.078181 109.795788 
L 66.095281 109.795788 
L 66.129481 126.659425 
L 66.163681 92.932152 
L 66.197881 109.795788 
L 66.232081 109.795788 
L 66.249181 92.932152 
L 66.334681 109.795788 
L 66.385981 109.795788 
L 66.403081 126.659425 
L 66.471481 109.795788 
L 66.505681 76.068516 
L 66.574081 109.795788 
L 66.625381 109.795788 
L 66.642481 126.659425 
L 66.659581 92.932152 
L 66.727981 109.795788 
L 66.745081 109.795788 
L 66.762181 92.932152 
L 66.779281 126.659425 
L 66.847681 109.795788 
L 66.881881 109.795788 
L 66.898981 126.659425 
L 66.967381 109.795788 
L 67.069981 92.932152 
L 67.189681 109.795788 
L 67.223881 109.795788 
L 67.309381 76.068516 
L 67.343581 92.932152 
L 67.429081 126.659425 
L 67.548781 42.341243 
L 67.685581 126.659425 
L 67.753981 92.932152 
L 67.805281 109.795788 
L 67.839481 109.795788 
L 67.942081 92.932152 
L 68.027581 126.659425 
L 68.044681 92.932152 
L 68.164381 126.659425 
L 68.249881 76.068516 
L 68.284081 92.932152 
L 68.318281 92.932152 
L 68.335381 59.204879 
L 68.420881 76.068516 
L 68.523481 109.795788 
L 68.557681 92.932152 
L 68.591881 126.659425 
L 68.626081 109.795788 
L 68.677381 109.795788 
L 68.694481 76.068516 
L 68.779981 92.932152 
L 68.882581 126.659425 
L 69.002281 92.932152 
L 69.019381 126.659425 
L 69.104881 92.932152 
L 69.121981 76.068516 
L 69.190381 109.795788 
L 69.207481 92.932152 
L 69.310081 126.659425 
L 69.327181 109.795788 
L 69.344281 109.795788 
L 69.378481 76.068516 
L 69.446881 109.795788 
L 69.566581 92.932152 
L 69.617881 92.932152 
L 69.652081 76.068516 
L 69.686281 126.659425 
L 69.703381 109.795788 
L 69.737581 109.795788 
L 69.857281 92.932152 
L 69.874381 109.795788 
L 69.891481 59.204879 
L 69.942781 92.932152 
L 69.959881 42.341243 
L 70.011181 109.795788 
L 70.045381 92.932152 
L 70.079581 92.932152 
L 70.113781 109.795788 
L 70.182181 59.204879 
L 70.301881 126.659425 
L 70.387381 76.068516 
L 70.404481 109.795788 
L 70.438681 109.795788 
L 70.472881 92.932152 
L 70.489981 126.659425 
L 70.524181 126.659425 
L 70.541281 126.659425 
L 70.558381 76.068516 
L 70.643881 126.659425 
L 70.746481 76.068516 
L 70.780681 92.932152 
L 70.900381 126.659425 
L 70.968781 59.204879 
L 71.002981 126.659425 
L 71.156881 76.068516 
L 71.173981 76.068516 
L 71.225281 109.795788 
L 71.259481 76.068516 
L 71.276581 42.341243 
L 71.327881 92.932152 
L 71.344981 76.068516 
L 71.464681 109.795788 
L 71.515981 109.795788 
L 71.618581 59.204879 
L 71.721181 109.795788 
L 71.738281 92.932152 
L 71.772481 92.932152 
L 71.789581 76.068516 
L 71.823781 126.659425 
L 71.840881 109.795788 
L 71.857981 126.659425 
L 71.892181 92.932152 
L 71.943481 109.795788 
L 72.011881 109.795788 
L 72.028981 126.659425 
L 72.097381 109.795788 
L 72.131581 126.659425 
L 72.182881 76.068516 
L 72.268381 126.659425 
L 72.285481 109.795788 
L 72.302581 92.932152 
L 72.388081 109.795788 
L 72.456481 126.659425 
L 72.490681 109.795788 
L 72.627481 76.068516 
L 72.678781 76.068516 
L 72.695881 59.204879 
L 72.730081 92.932152 
L 72.764281 76.068516 
L 72.883981 109.795788 
L 72.935281 109.795788 
L 72.986581 76.068516 
L 73.020781 109.795788 
L 73.089181 92.932152 
L 73.140481 126.659425 
L 73.277281 76.068516 
L 73.294381 126.659425 
L 73.379881 92.932152 
L 73.396981 76.068516 
L 73.431181 126.659425 
L 73.465381 109.795788 
L 73.516681 126.659425 
L 73.567981 109.795788 
L 73.670581 76.068516 
L 73.773181 109.795788 
L 73.875781 92.932152 
L 73.944181 126.659425 
L 73.978381 109.795788 
L 73.995481 76.068516 
L 74.080981 109.795788 
L 74.166481 109.795788 
L 74.286181 126.659425 
L 74.422981 92.932152 
L 74.457181 92.932152 
L 74.474281 76.068516 
L 74.491381 109.795788 
L 74.542681 92.932152 
L 74.628181 109.795788 
L 74.645281 92.932152 
L 74.662381 92.932152 
L 74.679481 126.659425 
L 74.764981 109.795788 
L 74.799181 76.068516 
L 74.816281 126.659425 
L 74.867581 109.795788 
L 74.884681 109.795788 
L 74.901781 126.659425 
L 74.987281 109.795788 
L 75.021481 109.795788 
L 75.038581 92.932152 
L 75.072781 126.659425 
L 75.124081 109.795788 
L 75.243781 109.795788 
L 75.329281 76.068516 
L 75.346381 92.932152 
L 75.431881 109.795788 
L 75.448981 92.932152 
L 75.466081 92.932152 
L 75.483181 109.795788 
L 75.568681 92.932152 
L 75.585781 92.932152 
L 75.602881 109.795788 
L 75.637081 59.204879 
L 75.671281 92.932152 
L 75.790981 76.068516 
L 75.927781 126.659425 
L 75.961981 92.932152 
L 76.030381 109.795788 
L 76.047481 109.795788 
L 76.150081 59.204879 
L 76.167181 76.068516 
L 76.184281 76.068516 
L 76.269781 126.659425 
L 76.303981 92.932152 
L 76.389481 92.932152 
L 76.457881 25.477607 
L 76.526281 59.204879 
L 76.645981 92.932152 
L 76.663081 92.932152 
L 76.680181 109.795788 
L 76.697281 76.068516 
L 76.765681 92.932152 
L 76.799881 92.932152 
L 76.816981 76.068516 
L 76.834081 109.795788 
L 76.885381 109.795788 
L 76.902481 126.659425 
L 76.953781 92.932152 
L 76.987981 109.795788 
L 77.005081 109.795788 
L 77.090581 126.659425 
L 77.107681 92.932152 
L 77.124781 126.659425 
L 77.210281 92.932152 
L 77.244481 92.932152 
L 77.295781 76.068516 
L 77.312881 109.795788 
L 77.347081 92.932152 
L 77.364181 92.932152 
L 77.415481 76.068516 
L 77.483881 109.795788 
L 77.535181 126.659425 
L 77.586481 92.932152 
L 77.706181 126.659425 
L 77.825881 109.795788 
L 77.860081 126.659425 
L 77.928481 109.795788 
L 78.048181 92.932152 
L 78.065281 92.932152 
L 78.184981 109.795788 
L 78.219181 109.795788 
L 78.338881 126.659425 
L 78.355981 126.659425 
L 78.475681 92.932152 
L 78.578281 109.795788 
L 78.663781 92.932152 
L 78.629581 126.659425 
L 78.680881 109.795788 
L 78.868981 109.795788 
L 78.886081 76.068516 
L 78.903181 126.659425 
L 78.971581 109.795788 
L 78.988681 126.659425 
L 79.057081 92.932152 
L 79.074181 92.932152 
L 79.193881 126.659425 
L 79.330681 92.932152 
L 79.399081 76.068516 
L 79.450381 109.795788 
L 79.587181 76.068516 
L 79.672681 109.795788 
L 79.689781 92.932152 
L 79.706881 92.932152 
L 79.723981 109.795788 
L 79.758181 76.068516 
L 79.809481 92.932152 
L 79.860781 76.068516 
L 79.894981 109.795788 
L 79.929181 109.795788 
L 79.980481 59.204879 
L 80.048881 92.932152 
L 80.151481 126.659425 
L 80.168581 109.795788 
L 80.185681 109.795788 
L 80.305381 126.659425 
L 80.407981 126.659425 
L 80.425081 92.932152 
L 80.510581 109.795788 
L 80.527681 109.795788 
L 80.664481 76.068516 
L 80.801281 126.659425 
L 80.852581 76.068516 
L 80.938081 92.932152 
L 80.972281 92.932152 
L 81.023581 76.068516 
L 81.074881 109.795788 
L 81.091981 76.068516 
L 81.177481 109.795788 
L 81.194581 109.795788 
L 81.331381 59.204879 
L 81.382681 109.795788 
L 81.451081 92.932152 
L 81.485281 109.795788 
L 81.570781 76.068516 
L 81.604981 76.068516 
L 81.656281 126.659425 
L 81.724681 109.795788 
L 81.861481 76.068516 
L 81.878581 76.068516 
L 81.895681 59.204879 
L 81.929881 126.659425 
L 81.964081 92.932152 
L 82.083781 109.795788 
L 82.203481 92.932152 
L 82.220581 92.932152 
L 82.254781 126.659425 
L 82.340281 109.795788 
L 82.357381 109.795788 
L 82.494181 76.068516 
L 82.596781 109.795788 
L 82.613881 76.068516 
L 82.682281 92.932152 
L 82.699381 126.659425 
L 82.750681 76.068516 
L 82.784881 109.795788 
L 82.819081 76.068516 
L 82.887481 92.932152 
L 82.990081 126.659425 
L 83.075581 76.068516 
L 83.109781 92.932152 
L 83.212381 126.659425 
L 83.161081 76.068516 
L 83.229481 109.795788 
L 83.332081 92.932152 
L 83.434681 109.795788 
L 83.451781 59.204879 
L 83.537281 92.932152 
L 83.605681 76.068516 
L 83.639881 109.795788 
L 83.708281 76.068516 
L 83.742481 109.795788 
L 83.759581 109.795788 
L 83.776681 59.204879 
L 83.862181 109.795788 
L 83.913481 126.659425 
L 83.930581 109.795788 
L 83.947681 76.068516 
L 84.016081 126.659425 
L 84.033181 109.795788 
L 84.118681 92.932152 
L 84.135781 109.795788 
L 84.187081 109.795788 
L 84.306781 76.068516 
L 84.426481 126.659425 
L 84.443581 109.795788 
L 84.477781 126.659425 
L 84.563281 92.932152 
L 84.597481 76.068516 
L 84.665881 109.795788 
L 84.734281 76.068516 
L 84.768481 92.932152 
L 84.836881 126.659425 
L 84.871081 109.795788 
L 84.905281 126.659425 
L 84.990781 92.932152 
L 85.007881 92.932152 
L 85.144681 126.659425 
L 85.281481 76.068516 
L 85.366981 126.659425 
L 85.401181 92.932152 
L 85.452481 92.932152 
L 85.537981 109.795788 
L 85.555081 76.068516 
L 85.640581 109.795788 
L 85.691881 109.795788 
L 85.743181 76.068516 
L 85.811581 92.932152 
L 85.845781 92.932152 
L 85.897081 109.795788 
L 85.948381 59.204879 
L 86.033881 109.795788 
L 86.050981 92.932152 
L 86.119381 76.068516 
L 86.136481 92.932152 
L 86.256181 109.795788 
L 86.341681 109.795788 
L 86.427181 126.659425 
L 86.444281 76.068516 
L 86.495581 109.795788 
L 86.512681 59.204879 
L 86.546881 76.068516 
L 86.615281 59.204879 
L 86.666581 109.795788 
L 86.734981 92.932152 
L 86.752081 109.795788 
L 86.769181 126.659425 
L 86.786281 59.204879 
L 86.837581 92.932152 
L 86.854681 92.932152 
L 86.905981 126.659425 
L 86.974381 76.068516 
L 86.991481 76.068516 
L 87.008581 59.204879 
L 87.042781 109.795788 
L 87.094081 76.068516 
L 87.162481 126.659425 
L 87.213781 109.795788 
L 87.247981 126.659425 
L 87.333481 92.932152 
L 87.350581 92.932152 
L 87.367681 109.795788 
L 87.384781 59.204879 
L 87.418981 76.068516 
L 87.436081 59.204879 
L 87.470281 109.795788 
L 87.504481 76.068516 
L 87.538681 109.795788 
L 87.607081 76.068516 
L 87.624181 76.068516 
L 87.743881 109.795788 
L 87.778081 42.341243 
L 87.846481 109.795788 
L 87.966181 76.068516 
L 88.085881 126.659425 
L 88.171381 76.068516 
L 88.205581 92.932152 
L 88.239781 76.068516 
L 88.325281 109.795788 
L 88.359481 109.795788 
L 88.376581 126.659425 
L 88.393681 92.932152 
L 88.462081 109.795788 
L 88.513381 109.795788 
L 88.564681 42.341243 
L 88.615981 109.795788 
L 88.718581 59.204879 
L 88.735681 92.932152 
L 88.804081 92.932152 
L 88.821181 59.204879 
L 88.838281 109.795788 
L 88.906681 76.068516 
L 88.923781 76.068516 
L 89.026381 109.795788 
L 89.043481 76.068516 
L 89.111881 126.659425 
L 89.128981 109.795788 
L 89.163181 59.204879 
L 89.231581 109.795788 
L 89.317081 126.659425 
L 89.334181 109.795788 
L 89.368381 109.795788 
L 89.488081 126.659425 
L 89.505181 126.659425 
L 89.573581 76.068516 
L 89.624881 92.932152 
L 89.641981 109.795788 
L 89.676181 76.068516 
L 89.710381 92.932152 
L 89.727481 59.204879 
L 89.812981 92.932152 
L 89.830081 92.932152 
L 89.847181 109.795788 
L 89.898481 76.068516 
L 89.932681 92.932152 
L 89.966881 59.204879 
L 90.035281 76.068516 
L 90.069481 92.932152 
L 90.120781 76.068516 
L 90.137881 59.204879 
L 90.172081 109.795788 
L 90.223381 76.068516 
L 90.240481 76.068516 
L 90.257581 109.795788 
L 90.343081 76.068516 
L 90.479881 109.795788 
L 90.599581 92.932152 
L 90.633781 76.068516 
L 90.736381 126.659425 
L 90.873181 92.932152 
L 90.890281 92.932152 
L 90.958681 126.659425 
L 90.992881 92.932152 
L 91.027081 92.932152 
L 91.112581 109.795788 
L 91.129681 92.932152 
L 91.146781 92.932152 
L 91.180981 109.795788 
L 91.215181 76.068516 
L 91.232281 59.204879 
L 91.266481 92.932152 
L 91.283581 92.932152 
L 91.300681 109.795788 
L 91.334881 76.068516 
L 91.369081 76.068516 
L 91.386181 42.341243 
L 91.403281 92.932152 
L 91.454581 92.932152 
L 91.471681 92.932152 
L 91.505881 76.068516 
L 91.522981 109.795788 
L 91.557181 92.932152 
L 91.642681 126.659425 
L 91.625581 76.068516 
L 91.676881 109.795788 
L 91.796581 92.932152 
L 91.847881 92.932152 
L 91.967581 126.659425 
L 92.018881 126.659425 
L 92.138581 109.795788 
L 92.155681 109.795788 
L 92.275381 92.932152 
L 92.309581 92.932152 
L 92.429281 109.795788 
L 92.514781 109.795788 
L 92.600281 92.932152 
L 92.617381 109.795788 
L 92.634481 109.795788 
L 92.702881 92.932152 
L 92.737081 109.795788 
L 92.754181 126.659425 
L 92.788381 92.932152 
L 92.822581 109.795788 
L 92.890981 92.932152 
L 92.925181 109.795788 
L 92.993581 126.659425 
L 93.010681 109.795788 
L 93.147481 59.204879 
L 93.198781 126.659425 
L 93.250081 59.204879 
L 93.267181 59.204879 
L 93.369781 109.795788 
L 93.386881 92.932152 
L 93.438181 76.068516 
L 93.506581 109.795788 
L 93.523681 109.795788 
L 93.643381 92.932152 
L 93.694681 126.659425 
L 93.763081 109.795788 
L 93.797281 109.795788 
L 93.831481 76.068516 
L 93.865681 126.659425 
L 93.899881 109.795788 
L 93.916981 109.795788 
L 93.934081 126.659425 
L 93.951181 92.932152 
L 94.019581 109.795788 
L 94.139281 59.204879 
L 94.156381 76.068516 
L 94.173481 76.068516 
L 94.190581 42.341243 
L 94.258981 76.068516 
L 94.344481 109.795788 
L 94.361581 92.932152 
L 94.412881 92.932152 
L 94.532581 126.659425 
L 94.566781 76.068516 
L 94.652281 92.932152 
L 94.737781 109.795788 
L 94.754881 92.932152 
L 94.840381 76.068516 
L 94.823281 109.795788 
L 94.857481 92.932152 
L 94.994281 126.659425 
L 95.028481 126.659425 
L 95.131081 109.795788 
L 95.148181 126.659425 
L 95.182381 92.932152 
L 95.233681 109.795788 
L 95.319181 76.068516 
L 95.284981 126.659425 
L 95.353381 92.932152 
L 95.387581 92.932152 
L 95.404681 76.068516 
L 95.438881 109.795788 
L 95.473081 109.795788 
L 95.490181 109.795788 
L 95.507281 126.659425 
L 95.575681 109.795788 
L 95.644081 76.068516 
L 95.678281 109.795788 
L 95.695381 126.659425 
L 95.712481 92.932152 
L 95.763781 109.795788 
L 95.832181 59.204879 
L 95.849281 126.659425 
L 95.866381 126.659425 
L 95.986081 59.204879 
L 96.037381 126.659425 
L 96.105781 92.932152 
L 96.208381 109.795788 
L 96.225481 92.932152 
L 96.259681 126.659425 
L 96.293881 126.659425 
L 96.310981 126.659425 
L 96.413581 76.068516 
L 96.430681 92.932152 
L 96.550381 126.659425 
L 96.635881 92.932152 
L 96.670081 109.795788 
L 96.772681 109.795788 
L 96.806881 126.659425 
L 96.892381 92.932152 
L 96.926581 92.932152 
L 96.977881 76.068516 
L 97.046281 109.795788 
L 97.063381 109.795788 
L 97.097581 92.932152 
L 97.131781 126.659425 
L 97.165981 109.795788 
L 97.200181 92.932152 
L 97.285681 126.659425 
L 97.405381 76.068516 
L 97.490881 126.659425 
L 97.542181 109.795788 
L 97.559281 109.795788 
L 97.627681 76.068516 
L 97.661881 109.795788 
L 97.696081 126.659425 
L 97.730281 92.932152 
L 97.764481 109.795788 
L 97.781581 109.795788 
L 97.849981 126.659425 
L 97.901281 92.932152 
L 98.003881 109.795788 
L 98.140681 59.204879 
L 98.209081 109.795788 
L 98.260381 92.932152 
L 98.277481 92.932152 
L 98.294581 109.795788 
L 98.362981 92.932152 
L 98.397181 76.068516 
L 98.414281 109.795788 
L 98.465581 92.932152 
L 98.482681 92.932152 
L 98.499781 109.795788 
L 98.568181 76.068516 
L 98.585281 92.932152 
L 98.619481 92.932152 
L 98.722081 59.204879 
L 98.739181 109.795788 
L 98.824681 92.932152 
L 98.858881 76.068516 
L 98.893081 126.659425 
L 98.910181 92.932152 
L 99.012781 126.659425 
L 99.029881 109.795788 
L 99.046981 59.204879 
L 99.149581 76.068516 
L 99.200881 109.795788 
L 99.269281 92.932152 
L 99.303481 92.932152 
L 99.337681 109.795788 
L 99.354781 76.068516 
L 99.406081 92.932152 
L 99.508681 59.204879 
L 99.440281 109.795788 
L 99.525781 76.068516 
L 99.611281 92.932152 
L 99.628381 76.068516 
L 99.679681 76.068516 
L 99.748081 92.932152 
L 99.765181 76.068516 
L 99.782281 59.204879 
L 99.850681 76.068516 
L 99.987481 109.795788 
L 100.090081 76.068516 
L 100.107181 92.932152 
L 100.192681 126.659425 
L 100.226881 109.795788 
L 100.329481 92.932152 
L 100.432081 109.795788 
L 100.500481 92.932152 
L 100.534681 109.795788 
L 100.585981 109.795788 
L 100.722781 76.068516 
L 100.842481 109.795788 
L 100.910881 92.932152 
L 100.927981 109.795788 
L 100.945081 126.659425 
L 100.962181 92.932152 
L 101.013481 109.795788 
L 101.047681 76.068516 
L 101.098981 92.932152 
L 101.218681 126.659425 
L 101.321281 92.932152 
L 101.338381 109.795788 
L 101.355481 109.795788 
L 101.406781 92.932152 
L 101.440981 126.659425 
L 101.458081 126.659425 
L 101.594881 76.068516 
L 101.697481 126.659425 
L 101.731681 109.795788 
L 101.765881 109.795788 
L 101.800081 126.659425 
L 101.834281 109.795788 
L 101.851381 76.068516 
L 101.919781 109.795788 
L 101.971081 126.659425 
L 102.005281 109.795788 
L 102.107881 92.932152 
L 102.124981 109.795788 
L 102.142081 76.068516 
L 102.193381 92.932152 
L 102.313081 76.068516 
L 102.330181 76.068516 
L 102.432781 109.795788 
L 102.449881 92.932152 
L 102.535381 76.068516 
L 102.603781 109.795788 
L 102.637981 76.068516 
L 102.655081 76.068516 
L 102.757681 109.795788 
L 102.826081 42.341243 
L 102.860281 109.795788 
L 102.877381 109.795788 
L 102.962881 76.068516 
L 102.979981 109.795788 
L 103.082581 59.204879 
L 103.099681 76.068516 
L 103.185181 59.204879 
L 103.253581 126.659425 
L 103.390381 92.932152 
L 103.424581 126.659425 
L 103.492981 92.932152 
L 103.510081 59.204879 
L 103.578481 76.068516 
L 103.698181 126.659425 
L 103.834981 76.068516 
L 103.869181 126.659425 
L 103.937581 92.932152 
L 104.023081 109.795788 
L 104.040181 59.204879 
L 104.108581 92.932152 
L 104.142781 59.204879 
L 104.279581 109.795788 
L 104.296681 59.204879 
L 104.382181 92.932152 
L 104.450581 109.795788 
L 104.484781 92.932152 
L 104.536081 92.932152 
L 104.553181 76.068516 
L 104.604481 126.659425 
L 104.638681 92.932152 
L 104.741281 126.659425 
L 104.689981 76.068516 
L 104.758381 109.795788 
L 104.895181 76.068516 
L 104.963581 109.795788 
L 105.014881 92.932152 
L 105.066181 42.341243 
L 105.117481 76.068516 
L 105.202981 76.068516 
L 105.237181 109.795788 
L 105.322681 92.932152 
L 105.356881 76.068516 
L 105.408181 92.932152 
L 105.493681 126.659425 
L 105.510781 109.795788 
L 105.562081 109.795788 
L 105.596281 76.068516 
L 105.647581 92.932152 
L 105.664681 126.659425 
L 105.750181 109.795788 
L 105.801481 109.795788 
L 105.921181 76.068516 
L 105.972481 126.659425 
L 106.040881 109.795788 
L 106.092181 109.795788 
L 106.126381 92.932152 
L 106.194781 109.795788 
L 106.211881 109.795788 
L 106.228981 126.659425 
L 106.297381 92.932152 
L 106.331581 92.932152 
L 106.451281 126.659425 
L 106.588081 59.204879 
L 106.741981 109.795788 
L 106.827481 42.341243 
L 106.844581 109.795788 
L 106.912981 109.795788 
L 106.964281 59.204879 
L 107.015581 109.795788 
L 107.032681 109.795788 
L 107.118181 126.659425 
L 107.152381 92.932152 
L 107.220781 126.659425 
L 107.272081 109.795788 
L 107.323381 109.795788 
L 107.408881 126.659425 
L 107.374681 92.932152 
L 107.425981 109.795788 
L 107.494381 109.795788 
L 107.631181 76.068516 
L 107.733781 126.659425 
L 107.767981 109.795788 
L 107.819281 109.795788 
L 107.921881 126.659425 
L 108.024481 76.068516 
L 108.092881 59.204879 
L 108.127081 109.795788 
L 108.246781 92.932152 
L 108.280981 92.932152 
L 108.417781 126.659425 
L 108.451981 126.659425 
L 108.469081 92.932152 
L 108.554581 109.795788 
L 108.571681 126.659425 
L 108.640081 92.932152 
L 108.657181 109.795788 
L 108.691381 92.932152 
L 108.708481 126.659425 
L 108.759781 109.795788 
L 108.793981 109.795788 
L 108.811081 126.659425 
L 108.845281 92.932152 
L 108.879481 109.795788 
L 108.930781 76.068516 
L 108.964981 126.659425 
L 108.982081 92.932152 
L 109.067581 76.068516 
L 109.101781 109.795788 
L 109.118881 109.795788 
L 109.221481 76.068516 
L 109.272781 59.204879 
L 109.341181 109.795788 
L 109.443781 76.068516 
L 109.375381 126.659425 
L 109.460881 92.932152 
L 109.477981 126.659425 
L 109.495081 76.068516 
L 109.563481 109.795788 
L 109.614781 76.068516 
L 109.666081 109.795788 
L 109.683181 109.795788 
L 109.700281 92.932152 
L 109.768681 126.659425 
L 109.785781 109.795788 
L 109.802881 109.795788 
L 109.939681 76.068516 
L 109.990981 59.204879 
L 110.076481 109.795788 
L 110.127781 109.795788 
L 110.161981 92.932152 
L 110.179081 126.659425 
L 110.213281 126.659425 
L 110.247481 126.659425 
L 110.367181 92.932152 
L 110.486881 109.795788 
L 110.521081 109.795788 
L 110.538181 126.659425 
L 110.606581 109.795788 
L 110.709181 92.932152 
L 110.828881 109.795788 
L 110.880181 92.932152 
L 110.931481 109.795788 
L 110.948581 109.795788 
L 110.965681 76.068516 
L 111.034081 109.795788 
L 111.051181 126.659425 
L 111.085381 92.932152 
L 111.136681 109.795788 
L 111.239281 76.068516 
L 111.256381 92.932152 
L 111.273481 92.932152 
L 111.307681 76.068516 
L 111.376081 109.795788 
L 111.393181 76.068516 
L 111.410281 126.659425 
L 111.478681 92.932152 
L 111.495781 92.932152 
L 111.615481 109.795788 
L 111.683881 109.795788 
L 111.700981 76.068516 
L 111.735181 126.659425 
L 111.786481 92.932152 
L 111.889081 126.659425 
L 111.991681 59.204879 
L 112.008781 76.068516 
L 112.042981 76.068516 
L 112.077181 126.659425 
L 112.162681 109.795788 
L 112.265281 92.932152 
L 112.402081 126.659425 
L 112.504681 92.932152 
L 112.521781 109.795788 
L 112.555981 109.795788 
L 112.573081 76.068516 
L 112.658581 109.795788 
L 112.675681 109.795788 
L 112.692781 59.204879 
L 112.778281 92.932152 
L 112.880881 109.795788 
L 112.897981 76.068516 
L 112.983481 109.795788 
L 113.000581 92.932152 
L 113.086081 109.795788 
L 113.103181 109.795788 
L 113.188681 76.068516 
L 113.205781 92.932152 
L 113.222881 92.932152 
L 113.257081 126.659425 
L 113.325481 109.795788 
L 113.342581 76.068516 
L 113.359681 126.659425 
L 113.428081 109.795788 
L 113.513581 92.932152 
L 113.530681 109.795788 
L 113.581981 126.659425 
L 113.633281 109.795788 
L 113.684581 109.795788 
L 113.701681 76.068516 
L 113.735881 126.659425 
L 113.787181 109.795788 
L 113.804281 109.795788 
L 113.923981 92.932152 
L 113.958181 92.932152 
L 113.975281 76.068516 
L 114.009481 126.659425 
L 114.026581 109.795788 
L 114.146281 126.659425 
L 114.163381 126.659425 
L 114.300181 76.068516 
L 114.385681 126.659425 
L 114.419881 109.795788 
L 114.471181 109.795788 
L 114.539581 126.659425 
L 114.590881 92.932152 
L 114.710581 109.795788 
L 114.744781 76.068516 
L 114.813181 92.932152 
L 114.932881 126.659425 
L 114.967081 76.068516 
L 115.069681 92.932152 
L 115.086781 92.932152 
L 115.103881 59.204879 
L 115.138081 109.795788 
L 115.189381 92.932152 
L 115.257781 126.659425 
L 115.291981 76.068516 
L 115.326181 126.659425 
L 115.411681 92.932152 
L 115.480081 59.204879 
L 115.497181 109.795788 
L 115.531381 109.795788 
L 115.616881 76.068516 
L 115.633981 92.932152 
L 115.753681 126.659425 
L 115.856281 76.068516 
L 115.873381 92.932152 
L 115.941781 109.795788 
L 115.907581 59.204879 
L 115.958881 76.068516 
L 115.975981 76.068516 
L 116.095681 109.795788 
L 116.112781 109.795788 
L 116.146981 76.068516 
L 116.215381 92.932152 
L 116.249581 126.659425 
L 116.317981 92.932152 
L 116.335081 92.932152 
L 116.352181 126.659425 
L 116.386381 76.068516 
L 116.437681 109.795788 
L 116.471881 109.795788 
L 116.557381 92.932152 
L 116.591581 126.659425 
L 116.625781 76.068516 
L 116.659981 109.795788 
L 116.711281 109.795788 
L 116.728381 126.659425 
L 116.796781 109.795788 
L 116.882281 59.204879 
L 116.899381 76.068516 
L 116.967781 126.659425 
L 117.019081 109.795788 
L 117.121681 76.068516 
L 117.138781 92.932152 
L 117.172981 92.932152 
L 117.241381 59.204879 
L 117.292681 109.795788 
L 117.309781 76.068516 
L 117.395281 92.932152 
L 117.463681 92.932152 
L 117.480781 76.068516 
L 117.497881 109.795788 
L 117.532081 92.932152 
L 117.600481 126.659425 
L 117.634681 109.795788 
L 117.703081 92.932152 
L 117.668881 126.659425 
L 117.737281 109.795788 
L 117.754381 109.795788 
L 117.788581 92.932152 
L 117.874081 126.659425 
L 117.976681 76.068516 
L 117.993781 92.932152 
L 118.096381 109.795788 
L 118.113481 76.068516 
L 118.164781 126.659425 
L 118.181881 126.659425 
L 118.198981 126.659425 
L 118.284481 76.068516 
L 118.335781 92.932152 
L 118.369981 92.932152 
L 118.387081 76.068516 
L 118.404181 109.795788 
L 118.472581 92.932152 
L 118.489681 92.932152 
L 118.558081 126.659425 
L 118.592281 92.932152 
L 118.660681 126.659425 
L 118.694881 92.932152 
L 118.711981 92.932152 
L 118.797481 76.068516 
L 118.814581 126.659425 
L 118.865881 76.068516 
L 118.917181 109.795788 
L 118.968481 109.795788 
L 119.036881 59.204879 
L 119.071081 109.795788 
L 119.122381 59.204879 
L 119.190781 126.659425 
L 119.242081 59.204879 
L 119.293381 126.659425 
L 119.361781 76.068516 
L 119.413081 109.795788 
L 119.430181 109.795788 
L 119.549881 76.068516 
L 119.686681 126.659425 
L 119.720881 42.341243 
L 119.806381 76.068516 
L 119.874781 126.659425 
L 119.926081 109.795788 
L 119.943181 109.795788 
L 120.011581 76.068516 
L 120.028681 126.659425 
L 120.045781 92.932152 
L 120.148381 126.659425 
L 120.285181 92.932152 
L 120.302281 126.659425 
L 120.353581 76.068516 
L 120.387781 92.932152 
L 120.404881 92.932152 
L 120.421981 76.068516 
L 120.456181 126.659425 
L 120.507481 92.932152 
L 120.627181 126.659425 
L 120.746881 92.932152 
L 120.866581 109.795788 
L 120.883681 109.795788 
L 121.003381 126.659425 
L 121.071781 126.659425 
L 121.174381 92.932152 
L 121.225681 76.068516 
L 121.276981 109.795788 
L 121.294081 92.932152 
L 121.328281 126.659425 
L 121.379581 109.795788 
L 121.447981 126.659425 
L 121.482181 109.795788 
L 121.499281 109.795788 
L 121.584781 126.659425 
L 121.601881 109.795788 
L 121.670281 109.795788 
L 121.772881 126.659425 
L 121.807081 109.795788 
L 121.875481 126.659425 
L 121.909681 126.659425 
L 121.926781 109.795788 
L 122.012281 126.659425 
L 122.029381 126.659425 
L 122.063581 76.068516 
L 122.149081 109.795788 
L 122.217481 126.659425 
L 122.234581 92.932152 
L 122.251681 109.795788 
L 122.268781 109.795788 
L 122.285881 92.932152 
L 122.354281 109.795788 
L 122.405581 126.659425 
L 122.456881 109.795788 
L 122.473981 109.795788 
L 122.491081 92.932152 
L 122.525281 126.659425 
L 122.576581 109.795788 
L 122.610781 109.795788 
L 122.662081 92.932152 
L 122.713381 109.795788 
L 122.764681 109.795788 
L 122.781781 76.068516 
L 122.867281 92.932152 
L 122.986981 109.795788 
L 123.055381 109.795788 
L 123.072481 126.659425 
L 123.089581 92.932152 
L 123.157981 109.795788 
L 123.260581 109.795788 
L 123.277681 76.068516 
L 123.363181 109.795788 
L 123.431581 109.795788 
L 123.482881 92.932152 
L 123.534181 109.795788 
L 123.551281 109.795788 
L 123.688081 76.068516 
L 123.722281 126.659425 
L 123.773581 59.204879 
L 123.807781 109.795788 
L 123.824881 76.068516 
L 123.910381 109.795788 
L 123.927481 126.659425 
L 123.961681 92.932152 
L 123.995881 109.795788 
L 124.012981 76.068516 
L 124.064281 126.659425 
L 124.098481 92.932152 
L 124.235281 126.659425 
L 124.269481 126.659425 
L 124.372081 76.068516 
L 124.406281 126.659425 
L 124.491781 109.795788 
L 124.543081 109.795788 
L 124.662781 92.932152 
L 124.714081 92.932152 
L 124.731181 59.204879 
L 124.748281 109.795788 
L 124.799581 109.795788 
L 124.816681 109.795788 
L 124.833781 126.659425 
L 124.867981 76.068516 
L 124.885081 42.341243 
L 124.902181 126.659425 
L 124.953481 76.068516 
L 125.056081 126.659425 
L 125.175781 92.932152 
L 125.192881 92.932152 
L 125.209981 59.204879 
L 125.261281 126.659425 
L 125.295481 92.932152 
L 125.312581 109.795788 
L 125.329681 76.068516 
L 125.363881 92.932152 
L 125.380981 59.204879 
L 125.398081 109.795788 
L 125.449381 92.932152 
L 125.466481 109.795788 
L 125.517781 59.204879 
L 125.534881 92.932152 
L 125.620381 109.795788 
L 125.637481 76.068516 
L 125.705881 92.932152 
L 125.688781 59.204879 
L 125.722981 59.204879 
L 125.740081 59.204879 
L 125.859781 92.932152 
L 125.945281 59.204879 
L 125.962381 92.932152 
L 126.030781 76.068516 
L 126.047881 92.932152 
L 126.064981 109.795788 
L 126.150481 92.932152 
L 126.184681 109.795788 
L 126.253081 76.068516 
L 126.406981 126.659425 
L 126.458281 92.932152 
L 126.509581 126.659425 
L 126.543781 126.659425 
L 126.629281 92.932152 
L 126.646381 126.659425 
L 126.663481 126.659425 
L 126.800281 92.932152 
L 126.817381 92.932152 
L 126.885781 126.659425 
L 126.919981 109.795788 
L 126.937081 92.932152 
L 127.022581 109.795788 
L 127.039681 109.795788 
L 127.142281 126.659425 
L 127.279081 76.068516 
L 127.364581 126.659425 
L 127.398781 109.795788 
L 127.450081 109.795788 
L 127.484281 92.932152 
L 127.552681 126.659425 
L 127.672381 109.795788 
L 127.757881 126.659425 
L 127.774981 109.795788 
L 127.792081 109.795788 
L 127.894681 92.932152 
L 128.014381 126.659425 
L 128.065681 92.932152 
L 128.116981 109.795788 
L 128.151181 109.795788 
L 128.270881 92.932152 
L 128.287981 92.932152 
L 128.356381 76.068516 
L 128.373481 109.795788 
L 128.390581 76.068516 
L 128.476081 109.795788 
L 128.493181 126.659425 
L 128.510281 76.068516 
L 128.561581 109.795788 
L 128.664181 76.068516 
L 128.629981 126.659425 
L 128.681281 92.932152 
L 128.732581 92.932152 
L 128.835181 126.659425 
L 128.989081 76.068516 
L 129.108781 109.795788 
L 129.142981 109.795788 
L 129.160081 76.068516 
L 129.228481 126.659425 
L 129.245581 109.795788 
L 129.262681 109.795788 
L 129.279781 92.932152 
L 129.331081 126.659425 
L 129.365281 109.795788 
L 129.399481 109.795788 
L 129.484981 126.659425 
L 129.502081 109.795788 
L 129.536281 109.795788 
L 129.570481 126.659425 
L 129.621781 109.795788 
L 129.690181 92.932152 
L 129.724381 109.795788 
L 129.758581 109.795788 
L 129.878281 126.659425 
L 129.895381 92.932152 
L 129.980881 109.795788 
L 129.997981 109.795788 
L 130.117681 126.659425 
L 130.134781 126.659425 
L 130.271581 92.932152 
L 130.305781 92.932152 
L 130.425481 109.795788 
L 130.510981 109.795788 
L 130.528081 126.659425 
L 130.545181 92.932152 
L 130.596481 109.795788 
L 130.630681 92.932152 
L 130.699081 109.795788 
L 130.716181 109.795788 
L 130.784581 126.659425 
L 130.818781 109.795788 
L 130.852981 109.795788 
L 130.921381 92.932152 
L 130.955581 109.795788 
L 131.023981 109.795788 
L 131.143681 126.659425 
L 131.554081 126.659425 
L 131.571181 109.795788 
L 131.656681 126.659425 
L 131.673781 126.659425 
L 131.690881 109.795788 
L 131.776381 126.659425 
L 131.878981 126.659425 
L 131.896081 92.932152 
L 131.981581 126.659425 
L 132.477481 126.659425 
L 132.597181 109.795788 
L 132.648481 109.795788 
L 132.716881 126.659425 
L 132.751081 109.795788 
L 132.768181 92.932152 
L 132.853681 109.795788 
L 132.870781 126.659425 
L 132.922081 92.932152 
L 132.956281 109.795788 
L 132.973381 92.932152 
L 133.024681 126.659425 
L 133.041781 126.659425 
L 133.195681 126.659425 
L 133.298281 92.932152 
L 133.315381 109.795788 
L 133.349581 109.795788 
L 133.435081 126.659425 
L 133.452181 109.795788 
L 133.469281 109.795788 
L 133.503481 126.659425 
L 133.571881 109.795788 
L 133.588981 109.795788 
L 133.606081 126.659425 
L 133.691581 109.795788 
L 133.742881 109.795788 
L 133.759981 126.659425 
L 133.845481 109.795788 
L 133.862581 109.795788 
L 133.879681 126.659425 
L 133.965181 109.795788 
L 134.084881 109.795788 
L 134.204581 126.659425 
L 134.461081 126.659425 
L 134.597881 92.932152 
L 134.649181 109.795788 
L 134.666281 76.068516 
L 134.700481 92.932152 
L 134.768881 92.932152 
L 134.785981 76.068516 
L 134.854381 109.795788 
L 134.922781 126.659425 
L 134.956981 109.795788 
L 134.991181 109.795788 
L 135.008281 126.659425 
L 135.093781 109.795788 
L 135.127981 109.795788 
L 135.213481 92.932152 
L 135.196381 126.659425 
L 135.230581 109.795788 
L 135.281881 109.795788 
L 135.333181 126.659425 
L 135.367381 109.795788 
L 135.418681 92.932152 
L 135.469981 109.795788 
L 135.487081 109.795788 
L 135.606781 59.204879 
L 135.675181 126.659425 
L 135.726481 109.795788 
L 135.760681 109.795788 
L 135.777781 92.932152 
L 135.811981 126.659425 
L 135.863281 109.795788 
L 135.914581 109.795788 
L 136.034281 126.659425 
L 136.701181 126.659425 
L 136.752481 76.068516 
L 136.820881 92.932152 
L 136.837981 76.068516 
L 136.872181 109.795788 
L 136.923481 92.932152 
L 137.060281 126.659425 
L 137.299681 126.659425 
L 137.368081 92.932152 
L 137.402281 126.659425 
L 137.556181 126.659425 
L 137.675881 76.068516 
L 137.778481 126.659425 
L 137.795581 109.795788 
L 137.829781 109.795788 
L 137.846881 126.659425 
L 137.915281 109.795788 
L 138.052081 76.068516 
L 138.205981 126.659425 
L 138.325681 126.659425 
L 138.394081 109.795788 
L 138.428281 126.659425 
L 138.582181 126.659425 
L 138.701881 109.795788 
L 138.804481 126.659425 
L 138.872881 109.795788 
L 138.907081 126.659425 
L 138.992581 126.659425 
L 139.043881 92.932152 
L 139.095181 109.795788 
L 139.214881 126.659425 
L 139.231981 92.932152 
L 139.317481 126.659425 
L 139.420081 126.659425 
L 139.522681 109.795788 
L 139.625281 126.659425 
L 139.727881 109.795788 
L 139.796281 126.659425 
L 139.813381 109.795788 
L 139.933081 92.932152 
L 139.967281 92.932152 
L 140.052781 76.068516 
L 140.069881 92.932152 
L 140.206681 126.659425 
L 140.240881 126.659425 
L 140.360581 109.795788 
L 140.377681 126.659425 
L 140.463181 109.795788 
L 140.548681 109.795788 
L 140.651281 126.659425 
L 140.753881 76.068516 
L 140.770981 92.932152 
L 140.839381 126.659425 
L 140.873581 92.932152 
L 140.924881 92.932152 
L 140.959081 126.659425 
L 141.027481 109.795788 
L 141.078781 92.932152 
L 141.130081 109.795788 
L 141.249781 109.795788 
L 141.369481 92.932152 
L 141.386581 92.932152 
L 141.420781 126.659425 
L 141.506281 109.795788 
L 141.557581 109.795788 
L 141.677281 92.932152 
L 141.728581 126.659425 
L 141.796981 109.795788 
L 141.814081 92.932152 
L 141.899581 109.795788 
L 141.933781 109.795788 
L 142.053481 92.932152 
L 142.104781 92.932152 
L 142.121881 59.204879 
L 142.156081 109.795788 
L 142.190281 109.795788 
L 142.275781 109.795788 
L 142.378381 126.659425 
L 142.515181 76.068516 
L 142.617781 109.795788 
L 142.737481 76.068516 
L 142.840081 126.659425 
L 142.874281 109.795788 
L 142.891381 109.795788 
L 143.045281 59.204879 
L 143.096581 59.204879 
L 143.147881 76.068516 
L 143.182081 59.204879 
L 143.199181 42.341243 
L 143.216281 92.932152 
L 143.284681 59.204879 
L 143.387281 126.659425 
L 143.404381 109.795788 
L 143.489881 59.204879 
L 143.506981 109.795788 
L 143.609581 109.795788 
L 143.643781 59.204879 
L 143.712181 109.795788 
L 143.729281 109.795788 
L 143.848981 76.068516 
L 143.866081 109.795788 
L 143.951581 92.932152 
L 143.968681 92.932152 
L 144.054181 109.795788 
L 144.071281 76.068516 
L 144.156781 109.795788 
L 144.208081 109.795788 
L 144.259381 76.068516 
L 144.310681 109.795788 
L 144.327781 109.795788 
L 144.344881 92.932152 
L 144.430381 109.795788 
L 144.532981 109.795788 
L 144.550081 126.659425 
L 144.601381 109.795788 
L 144.618481 76.068516 
L 144.703981 109.795788 
L 144.721081 109.795788 
L 144.857881 76.068516 
L 144.926281 109.795788 
L 144.960481 76.068516 
L 144.977581 76.068516 
L 145.114381 109.795788 
L 145.182781 92.932152 
L 145.216981 109.795788 
L 145.285381 109.795788 
L 145.302481 126.659425 
L 145.319581 92.932152 
L 145.370881 109.795788 
L 145.490581 92.932152 
L 145.558981 109.795788 
L 145.576081 76.068516 
L 145.593181 92.932152 
L 145.610281 92.932152 
L 145.695781 109.795788 
L 145.712881 92.932152 
L 145.729981 92.932152 
L 145.764181 76.068516 
L 145.849681 109.795788 
L 145.900981 126.659425 
L 145.952281 92.932152 
L 146.020681 126.659425 
L 146.071981 109.795788 
L 146.089081 109.795788 
L 146.106181 126.659425 
L 146.191681 109.795788 
L 146.431081 109.795788 
L 146.465281 92.932152 
L 146.533681 109.795788 
L 146.584981 109.795788 
L 146.636281 126.659425 
L 146.653381 92.932152 
L 146.687581 109.795788 
L 146.704681 76.068516 
L 146.790181 109.795788 
L 146.892781 59.204879 
L 146.909881 76.068516 
L 147.029581 126.659425 
L 147.149281 76.068516 
L 147.183481 76.068516 
L 147.200581 109.795788 
L 147.286081 92.932152 
L 147.320281 92.932152 
L 147.439981 109.795788 
L 147.457081 109.795788 
L 147.559681 42.341243 
L 147.593881 76.068516 
L 147.628081 92.932152 
L 147.645181 59.204879 
L 147.679381 59.204879 
L 147.730681 59.204879 
L 147.747781 42.341243 
L 147.781981 92.932152 
L 147.816181 76.068516 
L 147.850381 92.932152 
L 147.901681 76.068516 
L 147.970081 59.204879 
L 148.004281 76.068516 
L 148.021381 109.795788 
L 148.089781 42.341243 
L 148.209481 59.204879 
L 148.226581 59.204879 
L 148.312081 92.932152 
L 148.260781 42.341243 
L 148.329181 76.068516 
L 148.380481 59.204879 
L 148.397581 92.932152 
L 148.414681 109.795788 
L 148.431781 59.204879 
L 148.465981 76.068516 
L 148.483081 59.204879 
L 148.534381 109.795788 
L 148.551481 92.932152 
L 148.568581 92.932152 
L 148.705381 42.341243 
L 148.807981 76.068516 
L 148.842181 59.204879 
L 148.859281 109.795788 
L 148.893481 76.068516 
L 149.013181 92.932152 
L 149.047381 92.932152 
L 149.149981 59.204879 
L 149.167081 76.068516 
L 149.269681 109.795788 
L 149.286781 92.932152 
L 149.320981 92.932152 
L 149.389381 76.068516 
L 149.423581 92.932152 
L 149.457781 92.932152 
L 149.526181 76.068516 
L 149.560381 92.932152 
L 149.577481 92.932152 
L 149.714281 59.204879 
L 149.782681 92.932152 
L 149.816881 76.068516 
L 149.851081 59.204879 
L 149.885281 109.795788 
L 149.902381 92.932152 
L 150.022081 92.932152 
L 150.039181 76.068516 
L 150.056281 109.795788 
L 150.107581 92.932152 
L 150.227281 109.795788 
L 150.261481 109.795788 
L 150.295681 92.932152 
L 150.364081 109.795788 
L 150.381181 109.795788 
L 150.500881 92.932152 
L 150.569281 92.932152 
L 150.637681 109.795788 
L 150.671881 92.932152 
L 150.688981 92.932152 
L 150.723181 76.068516 
L 150.757381 109.795788 
L 150.774481 92.932152 
L 150.808681 109.795788 
L 150.842881 59.204879 
L 150.859981 76.068516 
L 150.894181 76.068516 
L 150.911281 109.795788 
L 150.979681 59.204879 
L 150.996781 76.068516 
L 151.099381 92.932152 
L 151.116481 76.068516 
L 151.150681 109.795788 
L 151.201981 92.932152 
L 151.219081 92.932152 
L 151.236181 76.068516 
L 151.321681 92.932152 
L 151.390081 92.932152 
L 151.509781 76.068516 
L 151.526881 76.068516 
L 151.543981 59.204879 
L 151.561081 92.932152 
L 151.612381 92.932152 
L 151.663681 92.932152 
L 151.766281 59.204879 
L 151.783381 76.068516 
L 151.817581 76.068516 
L 151.868881 92.932152 
L 151.920181 76.068516 
L 151.971481 76.068516 
L 152.091181 92.932152 
L 152.125381 92.932152 
L 152.245081 76.068516 
L 152.262181 76.068516 
L 152.279281 59.204879 
L 152.347681 92.932152 
L 152.364781 92.932152 
L 152.433181 59.204879 
L 152.467381 76.068516 
L 152.484481 76.068516 
L 152.535781 42.341243 
L 152.587081 76.068516 
L 152.638381 76.068516 
L 152.706781 92.932152 
L 152.740981 76.068516 
L 152.826481 59.204879 
L 152.792281 92.932152 
L 152.843581 76.068516 
L 152.929081 92.932152 
L 152.911981 59.204879 
L 152.946181 76.068516 
L 152.980381 76.068516 
L 153.031681 59.204879 
L 153.100081 92.932152 
L 153.134281 92.932152 
L 153.168481 59.204879 
L 153.236881 76.068516 
L 153.322381 126.659425 
L 153.271081 59.204879 
L 153.356581 92.932152 
L 153.373681 92.932152 
L 153.390781 126.659425 
L 153.407881 76.068516 
L 153.476281 92.932152 
L 153.561781 109.795788 
L 153.578881 92.932152 
L 153.647281 92.932152 
L 153.766981 109.795788 
L 153.784081 109.795788 
L 153.886681 76.068516 
L 153.903781 92.932152 
L 153.920881 92.932152 
L 153.989281 109.795788 
L 154.006381 92.932152 
L 154.126081 76.068516 
L 154.194481 76.068516 
L 154.228681 109.795788 
L 154.297081 76.068516 
L 154.331281 76.068516 
L 154.399681 59.204879 
L 154.450981 92.932152 
L 154.570681 59.204879 
L 154.604881 109.795788 
L 154.690381 76.068516 
L 154.707481 42.341243 
L 154.741681 92.932152 
L 154.775881 92.932152 
L 154.810081 92.932152 
L 154.844281 126.659425 
L 154.929781 109.795788 
L 155.032381 109.795788 
L 155.169181 76.068516 
L 155.288881 92.932152 
L 155.305981 92.932152 
L 155.425681 76.068516 
L 155.476981 59.204879 
L 155.528281 92.932152 
L 155.545381 76.068516 
L 155.630881 92.932152 
L 155.699281 92.932152 
L 155.716381 109.795788 
L 155.801881 92.932152 
L 155.870281 92.932152 
L 155.989981 109.795788 
L 156.007081 109.795788 
L 156.109681 76.068516 
L 156.246481 109.795788 
L 156.263581 76.068516 
L 156.349081 92.932152 
L 156.400381 92.932152 
L 156.520081 109.795788 
L 156.605581 109.795788 
L 156.622681 126.659425 
L 156.708181 109.795788 
L 156.759481 109.795788 
L 156.844981 92.932152 
L 156.879181 126.659425 
L 156.998881 109.795788 
L 157.015981 109.795788 
L 157.118581 92.932152 
L 157.221181 109.795788 
L 157.289581 92.932152 
L 157.323781 109.795788 
L 157.340881 126.659425 
L 157.409281 109.795788 
L 157.528981 92.932152 
L 157.597381 109.795788 
L 157.614481 92.932152 
L 157.699981 76.068516 
L 157.717081 92.932152 
L 157.768381 92.932152 
L 157.836781 76.068516 
L 157.870981 92.932152 
L 157.888081 109.795788 
L 157.939381 76.068516 
L 157.956481 76.068516 
L 157.990681 76.068516 
L 158.007781 59.204879 
L 158.024881 92.932152 
L 158.076181 92.932152 
L 158.110381 92.932152 
L 158.230081 76.068516 
L 158.349781 109.795788 
L 158.366881 109.795788 
L 158.383981 92.932152 
L 158.435281 126.659425 
L 158.452381 126.659425 
L 158.537881 126.659425 
L 158.674681 92.932152 
L 158.725981 92.932152 
L 158.743081 126.659425 
L 158.777281 76.068516 
L 158.811481 76.068516 
L 158.828581 76.068516 
L 158.896981 126.659425 
L 158.931181 109.795788 
L 158.948281 92.932152 
L 159.016681 109.795788 
L 159.033781 126.659425 
L 159.119281 109.795788 
L 159.153481 109.795788 
L 159.238981 92.932152 
L 159.221881 126.659425 
L 159.256081 109.795788 
L 159.273181 126.659425 
L 159.341581 109.795788 
L 159.427081 59.204879 
L 159.461281 76.068516 
L 159.478381 126.659425 
L 159.580981 109.795788 
L 159.632281 109.795788 
L 159.683581 92.932152 
L 159.734881 109.795788 
L 159.769081 109.795788 
L 159.820381 92.932152 
L 159.803281 126.659425 
L 159.871681 109.795788 
L 159.905881 109.795788 
L 159.940081 126.659425 
L 160.008481 109.795788 
L 160.042681 109.795788 
L 160.145281 126.659425 
L 160.264981 109.795788 
L 160.350481 109.795788 
L 160.367581 126.659425 
L 160.435981 109.795788 
L 160.453081 92.932152 
L 160.470181 126.659425 
L 160.521481 126.659425 
L 160.538581 126.659425 
L 160.624081 92.932152 
L 160.641181 109.795788 
L 160.675381 126.659425 
L 160.743781 109.795788 
L 160.777981 109.795788 
L 160.829281 126.659425 
L 160.812181 92.932152 
L 160.880581 109.795788 
L 160.914781 92.932152 
L 160.983181 109.795788 
L 161.000281 109.795788 
L 161.017381 76.068516 
L 161.068681 126.659425 
L 161.102881 92.932152 
L 161.205481 126.659425 
L 161.308081 92.932152 
L 161.359381 126.659425 
L 161.427781 109.795788 
L 161.513281 109.795788 
L 161.581681 92.932152 
L 161.632981 126.659425 
L 161.735581 59.204879 
L 161.769781 76.068516 
L 161.821081 109.795788 
L 161.872381 92.932152 
L 161.889481 92.932152 
L 161.923681 76.068516 
L 161.957881 109.795788 
L 161.974981 109.795788 
L 161.992081 109.795788 
L 162.060481 59.204879 
L 162.077581 126.659425 
L 162.094681 126.659425 
L 162.214381 92.932152 
L 162.334081 126.659425 
L 162.368281 76.068516 
L 162.453781 109.795788 
L 162.470881 109.795788 
L 162.522181 92.932152 
L 162.573481 126.659425 
L 162.658981 92.932152 
L 162.693181 109.795788 
L 162.727381 92.932152 
L 162.795781 126.659425 
L 162.915481 92.932152 
L 163.035181 126.659425 
L 163.120681 109.795788 
L 163.137781 126.659425 
L 163.154881 126.659425 
L 163.189081 92.932152 
L 163.274581 109.795788 
L 163.308781 109.795788 
L 163.360081 92.932152 
L 163.411381 109.795788 
L 163.445581 109.795788 
L 163.462681 126.659425 
L 163.548181 109.795788 
L 163.565281 109.795788 
L 163.684981 126.659425 
L 163.787581 92.932152 
L 163.804681 109.795788 
L 163.873081 109.795788 
L 163.890181 126.659425 
L 163.975681 109.795788 
L 164.112481 109.795788 
L 164.146681 126.659425 
L 164.215081 109.795788 
L 164.266381 76.068516 
L 164.317681 109.795788 
L 164.334781 109.795788 
L 164.368981 126.659425 
L 164.437381 92.932152 
L 164.557081 126.659425 
L 164.676781 109.795788 
L 164.745181 109.795788 
L 164.813581 126.659425 
L 164.830681 109.795788 
L 164.899081 126.659425 
L 164.950381 92.932152 
L 165.001681 126.659425 
L 165.070081 109.795788 
L 165.087181 109.795788 
L 165.104281 92.932152 
L 165.172681 109.795788 
L 165.241081 126.659425 
L 165.275281 109.795788 
L 165.309481 109.795788 
L 165.412081 126.659425 
L 165.514681 109.795788 
L 165.531781 126.659425 
L 165.617281 109.795788 
L 165.634381 109.795788 
L 165.651481 126.659425 
L 165.736981 109.795788 
L 165.771181 109.795788 
L 165.890881 126.659425 
L 165.993481 92.932152 
L 166.010581 109.795788 
L 166.078981 109.795788 
L 166.096081 126.659425 
L 166.181581 109.795788 
L 166.232881 109.795788 
L 166.249981 92.932152 
L 166.318381 126.659425 
L 166.335481 109.795788 
L 166.352581 109.795788 
L 166.369681 126.659425 
L 166.455181 109.795788 
L 166.523581 109.795788 
L 166.540681 126.659425 
L 166.626181 109.795788 
L 166.745881 109.795788 
L 166.865581 126.659425 
L 167.002381 92.932152 
L 167.122081 109.795788 
L 167.173381 109.795788 
L 167.293081 126.659425 
L 167.395681 76.068516 
L 167.464081 126.659425 
L 167.498281 92.932152 
L 167.532481 92.932152 
L 167.566681 126.659425 
L 167.617981 76.068516 
L 167.635081 92.932152 
L 167.669281 92.932152 
L 167.754781 109.795788 
L 167.737681 76.068516 
L 167.771881 92.932152 
L 167.788981 92.932152 
L 167.908681 109.795788 
L 168.045481 109.795788 
L 168.165181 92.932152 
L 168.284881 109.795788 
L 168.319081 109.795788 
L 168.336181 92.932152 
L 168.370381 126.659425 
L 168.421681 109.795788 
L 168.438781 109.795788 
L 168.558481 92.932152 
L 168.626881 126.659425 
L 168.678181 109.795788 
L 168.866281 109.795788 
L 168.934681 126.659425 
L 168.968881 109.795788 
L 169.003081 109.795788 
L 169.037281 126.659425 
L 169.088581 92.932152 
L 169.105681 109.795788 
L 169.139881 109.795788 
L 169.242481 126.659425 
L 169.362181 109.795788 
L 169.430581 109.795788 
L 169.464781 92.932152 
L 169.550281 126.659425 
L 169.601581 92.932152 
L 169.652881 126.659425 
L 169.669981 126.659425 
L 169.687081 109.795788 
L 169.772581 126.659425 
L 169.823881 126.659425 
L 169.892281 92.932152 
L 169.943581 109.795788 
L 169.960681 109.795788 
L 169.977781 92.932152 
L 170.011981 126.659425 
L 170.046181 126.659425 
L 170.200081 126.659425 
L 170.319781 92.932152 
L 170.439481 109.795788 
L 170.456581 109.795788 
L 170.473681 126.659425 
L 170.559181 109.795788 
L 170.644681 109.795788 
L 170.661781 126.659425 
L 170.730181 109.795788 
L 170.832781 92.932152 
L 170.952481 126.659425 
L 171.055081 92.932152 
L 171.174781 126.659425 
L 171.294481 126.659425 
L 171.414181 109.795788 
L 171.431281 109.795788 
L 171.550981 126.659425 
L 171.568081 92.932152 
L 171.653581 109.795788 
L 171.687781 109.795788 
L 171.756181 92.932152 
L 171.790381 126.659425 
L 171.892981 92.932152 
L 171.910081 109.795788 
L 171.927181 126.659425 
L 172.012681 109.795788 
L 172.098181 109.795788 
L 172.115281 126.659425 
L 172.166581 92.932152 
L 172.183681 109.795788 
L 172.269181 92.932152 
L 172.286281 109.795788 
L 172.303381 109.795788 
L 172.337581 126.659425 
L 172.405981 109.795788 
L 172.474381 109.795788 
L 172.594081 126.659425 
L 172.713781 109.795788 
L 172.867681 109.795788 
L 172.884781 126.659425 
L 172.953181 109.795788 
L 173.021581 92.932152 
L 173.055781 109.795788 
L 173.107081 109.795788 
L 173.209681 92.932152 
L 173.312281 126.659425 
L 173.449081 92.932152 
L 173.568781 109.795788 
L 173.585881 109.795788 
L 173.705581 92.932152 
L 173.842381 126.659425 
L 173.927881 76.068516 
L 173.944981 126.659425 
L 173.962081 126.659425 
L 174.013381 92.932152 
L 174.064681 126.659425 
L 174.081781 126.659425 
L 174.218581 92.932152 
L 174.338281 126.659425 
L 174.475081 92.932152 
L 174.492181 92.932152 
L 174.611881 126.659425 
L 174.731581 109.795788 
L 174.817081 109.795788 
L 174.868381 92.932152 
L 174.902581 109.795788 
L 174.953881 92.932152 
L 175.005181 126.659425 
L 175.107781 92.932152 
L 175.124881 109.795788 
L 175.159081 126.659425 
L 175.210381 92.932152 
L 175.227481 92.932152 
L 175.347181 109.795788 
L 175.364281 109.795788 
L 175.449781 126.659425 
L 175.466881 109.795788 
L 175.518181 109.795788 
L 175.535281 126.659425 
L 175.603681 109.795788 
L 175.706281 92.932152 
L 175.825981 109.795788 
L 175.843081 109.795788 
L 175.911481 126.659425 
L 175.894381 92.932152 
L 175.928581 109.795788 
L 175.945681 92.932152 
L 176.014081 109.795788 
L 176.099581 126.659425 
L 176.219281 92.932152 
L 176.321881 126.659425 
L 176.338981 109.795788 
L 176.407381 109.795788 
L 176.424481 126.659425 
L 176.475781 92.932152 
L 176.509981 109.795788 
L 176.544181 109.795788 
L 176.561281 92.932152 
L 176.612581 126.659425 
L 176.646781 109.795788 
L 176.817781 109.795788 
L 176.920381 126.659425 
L 176.971681 92.932152 
L 177.022981 109.795788 
L 177.091381 126.659425 
L 177.125581 109.795788 
L 177.142681 92.932152 
L 177.193981 126.659425 
L 177.228181 109.795788 
L 177.313681 109.795788 
L 177.364981 126.659425 
L 177.416281 109.795788 
L 177.621481 109.795788 
L 177.638581 92.932152 
L 177.689881 126.659425 
L 177.706981 126.659425 
L 177.724081 126.659425 
L 177.843781 109.795788 
L 177.860881 109.795788 
L 177.877981 126.659425 
L 177.963481 109.795788 
L 178.048981 109.795788 
L 178.066081 92.932152 
L 178.134481 126.659425 
L 178.151581 109.795788 
L 178.168681 109.795788 
L 178.237081 92.932152 
L 178.254181 109.795788 
L 178.373881 126.659425 
L 178.493581 109.795788 
L 178.544881 109.795788 
L 178.664581 126.659425 
L 178.784281 109.795788 
L 178.938181 109.795788 
L 179.057881 126.659425 
L 179.160481 126.659425 
L 179.177581 92.932152 
L 179.263081 126.659425 
L 179.348581 126.659425 
L 179.468281 109.795788 
L 179.485381 109.795788 
L 179.605081 126.659425 
L 179.724781 126.659425 
L 179.844481 109.795788 
L 179.947081 126.659425 
L 180.032581 109.795788 
L 180.049681 126.659425 
L 180.083881 126.659425 
L 180.100981 109.795788 
L 180.186481 126.659425 
L 180.271981 126.659425 
L 180.374581 109.795788 
L 180.391681 126.659425 
L 180.477181 109.795788 
L 180.494281 109.795788 
L 180.545581 126.659425 
L 180.613981 92.932152 
L 180.733681 109.795788 
L 180.784981 109.795788 
L 180.802081 92.932152 
L 180.887581 109.795788 
L 180.938881 109.795788 
L 181.024381 126.659425 
L 180.990181 92.932152 
L 181.041481 109.795788 
L 181.058581 109.795788 
L 181.075681 92.932152 
L 181.126981 126.659425 
L 181.161181 109.795788 
L 181.178281 109.795788 
L 181.229581 126.659425 
L 181.246681 92.932152 
L 181.280881 109.795788 
L 181.383481 109.795788 
L 181.400581 126.659425 
L 181.417681 92.932152 
L 181.486081 109.795788 
L 181.691281 109.795788 
L 181.725481 92.932152 
L 181.776781 126.659425 
L 181.793881 109.795788 
L 181.845181 109.795788 
L 181.947781 92.932152 
L 182.050381 109.795788 
L 182.067481 92.932152 
L 182.135881 109.795788 
L 182.152981 126.659425 
L 182.238481 109.795788 
L 182.323981 109.795788 
L 182.341081 92.932152 
L 182.409481 126.659425 
L 182.426581 109.795788 
L 182.751481 109.795788 
L 182.802781 76.068516 
L 182.871181 92.932152 
L 182.888281 92.932152 
L 182.905381 76.068516 
L 182.922481 109.795788 
L 182.990881 92.932152 
L 183.007981 92.932152 
L 183.076381 109.795788 
L 183.093481 76.068516 
L 183.110581 126.659425 
L 183.213181 109.795788 
L 183.264481 109.795788 
L 183.332881 126.659425 
L 183.367081 109.795788 
L 183.384181 92.932152 
L 183.435481 126.659425 
L 183.452581 126.659425 
L 183.486781 126.659425 
L 183.572281 92.932152 
L 183.606481 109.795788 
L 183.640681 109.795788 
L 183.657781 92.932152 
L 183.743281 109.795788 
L 183.811681 109.795788 
L 183.828781 92.932152 
L 183.914281 109.795788 
L 183.948481 109.795788 
L 184.068181 126.659425 
L 185.196781 126.659425 
L 185.230981 109.795788 
L 185.299381 126.659425 
L 185.367781 126.659425 
L 185.401981 109.795788 
L 185.470381 126.659425 
L 185.572981 126.659425 
L 185.658481 109.795788 
L 185.675581 126.659425 
L 185.795281 126.659425 
L 185.812381 109.795788 
L 185.897881 126.659425 
L 185.966281 126.659425 
L 186.085981 109.795788 
L 186.239881 109.795788 
L 186.359581 126.659425 
L 186.376681 126.659425 
L 186.410881 109.795788 
L 186.479281 126.659425 
L 186.564781 126.659425 
L 186.633181 109.795788 
L 186.667381 126.659425 
L 186.787081 126.659425 
L 186.889681 92.932152 
L 187.009381 126.659425 
L 187.060681 92.932152 
L 187.129081 109.795788 
L 187.163281 109.795788 
L 187.265881 126.659425 
L 187.385581 109.795788 
L 187.453981 126.659425 
L 187.488181 109.795788 
L 187.539481 109.795788 
L 187.624981 126.659425 
L 187.590781 92.932152 
L 187.642081 109.795788 
L 187.659181 109.795788 
L 187.778881 126.659425 
L 187.830181 126.659425 
L 187.915681 92.932152 
L 187.949881 109.795788 
L 188.001181 109.795788 
L 188.120881 126.659425 
L 188.565481 126.659425 
L 188.685181 109.795788 
L 188.736481 109.795788 
L 188.856181 126.659425 
L 188.975881 109.795788 
L 189.027181 109.795788 
L 189.095581 92.932152 
L 189.146881 126.659425 
L 189.266581 109.795788 
L 189.317881 109.795788 
L 189.386281 92.932152 
L 189.437581 126.659425 
L 189.488881 92.932152 
L 189.540181 126.659425 
L 189.591481 126.659425 
L 189.711181 109.795788 
L 189.745381 109.795788 
L 189.762481 126.659425 
L 189.847981 109.795788 
L 190.036081 109.795788 
L 190.155781 126.659425 
L 190.275481 109.795788 
L 190.292581 109.795788 
L 190.309681 92.932152 
L 190.378081 126.659425 
L 190.395181 109.795788 
L 190.412281 109.795788 
L 190.429381 126.659425 
L 190.514881 109.795788 
L 190.566181 109.795788 
L 190.651681 126.659425 
L 190.668781 109.795788 
L 190.737181 109.795788 
L 190.754281 126.659425 
L 190.822681 92.932152 
L 190.839781 109.795788 
L 190.873981 109.795788 
L 190.891081 92.932152 
L 190.942381 126.659425 
L 190.976581 109.795788 
L 190.993681 109.795788 
L 191.010781 126.659425 
L 191.027881 92.932152 
L 191.096281 109.795788 
L 191.113381 92.932152 
L 191.147581 126.659425 
L 191.198881 109.795788 
L 191.233081 109.795788 
L 191.301481 126.659425 
L 191.335681 109.795788 
L 191.352781 109.795788 
L 191.369881 92.932152 
L 191.455381 109.795788 
L 191.575081 126.659425 
L 191.592181 126.659425 
L 191.660581 109.795788 
L 191.694781 126.659425 
L 191.814481 126.659425 
L 191.934181 109.795788 
L 192.019681 109.795788 
L 192.036781 126.659425 
L 192.105181 92.932152 
L 192.122281 109.795788 
L 192.224881 109.795788 
L 192.310381 126.659425 
L 192.327481 109.795788 
L 192.378781 109.795788 
L 192.447181 126.659425 
L 192.481381 109.795788 
L 192.498481 109.795788 
L 192.618181 126.659425 
L 192.737881 92.932152 
L 192.789181 126.659425 
L 192.840481 109.795788 
L 192.857581 109.795788 
L 192.977281 126.659425 
L 193.182481 126.659425 
L 193.302181 109.795788 
L 193.336381 109.795788 
L 193.387681 126.659425 
L 193.438981 109.795788 
L 193.473181 109.795788 
L 193.558681 126.659425 
L 193.575781 109.795788 
L 193.592881 109.795788 
L 193.695481 126.659425 
L 193.780981 109.795788 
L 193.798081 126.659425 
L 193.815181 126.659425 
L 193.917781 109.795788 
L 193.934881 126.659425 
L 194.003281 92.932152 
L 194.020381 109.795788 
L 194.071681 109.795788 
L 194.122981 126.659425 
L 194.174281 109.795788 
L 194.225581 109.795788 
L 194.345281 126.659425 
L 194.396581 126.659425 
L 194.516281 109.795788 
L 194.550481 109.795788 
L 194.670181 126.659425 
L 194.755681 109.795788 
L 194.772781 126.659425 
L 194.789881 126.659425 
L 194.875381 109.795788 
L 194.892481 126.659425 
L 195.063481 126.659425 
L 195.166081 109.795788 
L 195.285781 126.659425 
L 195.405481 109.795788 
L 195.490981 109.795788 
L 195.610681 126.659425 
L 195.627781 126.659425 
L 195.747481 109.795788 
L 195.867181 126.659425 
L 195.918481 126.659425 
L 196.021081 109.795788 
L 196.123681 126.659425 
L 196.243381 109.795788 
L 196.363081 126.659425 
L 196.397281 126.659425 
L 196.465681 109.795788 
L 196.499881 126.659425 
L 196.534081 126.659425 
L 196.653781 109.795788 
L 196.756381 109.795788 
L 196.876081 126.659425 
L 196.893181 126.659425 
L 197.012881 109.795788 
L 197.081281 109.795788 
L 197.115481 126.659425 
L 197.183881 109.795788 
L 197.320681 109.795788 
L 197.406181 126.659425 
L 197.423281 109.795788 
L 197.491681 109.795788 
L 197.611381 126.659425 
L 197.628481 126.659425 
L 197.748181 109.795788 
L 197.765281 126.659425 
L 197.850781 109.795788 
L 197.936281 109.795788 
L 198.055981 126.659425 
L 198.175681 109.795788 
L 198.192781 109.795788 
L 198.209881 92.932152 
L 198.244081 126.659425 
L 198.295381 109.795788 
L 198.432181 109.795788 
L 198.551881 126.659425 
L 198.705781 126.659425 
L 198.791281 109.795788 
L 198.808381 126.659425 
L 198.842581 126.659425 
L 198.962281 109.795788 
L 198.979381 109.795788 
L 199.099081 126.659425 
L 199.218781 109.795788 
L 199.270081 126.659425 
L 199.304281 109.795788 
L 199.389781 92.932152 
L 199.355581 126.659425 
L 199.406881 109.795788 
L 199.423981 126.659425 
L 199.475281 92.932152 
L 199.509481 109.795788 
L 199.560781 109.795788 
L 199.594981 92.932152 
L 199.629181 126.659425 
L 199.663381 109.795788 
L 199.697581 92.932152 
L 199.748881 126.659425 
L 199.765981 92.932152 
L 199.851481 109.795788 
L 199.919881 126.659425 
L 199.954081 109.795788 
L 200.142181 109.795788 
L 200.261881 126.659425 
L 200.381581 109.795788 
L 200.484181 126.659425 
L 200.586781 109.795788 
L 200.655181 126.659425 
L 200.689381 109.795788 
L 200.740681 109.795788 
L 200.757781 126.659425 
L 200.826181 92.932152 
L 200.843281 109.795788 
L 200.860381 109.795788 
L 200.877481 92.932152 
L 200.928781 126.659425 
L 200.962981 109.795788 
L 200.997181 109.795788 
L 201.031381 126.659425 
L 201.099781 109.795788 
L 201.202381 109.795788 
L 201.219481 92.932152 
L 201.236581 126.659425 
L 201.304981 109.795788 
L 201.424681 126.659425 
L 201.441781 126.659425 
L 201.561481 109.795788 
L 201.766681 109.795788 
L 201.783781 126.659425 
L 201.869281 109.795788 
L 201.903481 109.795788 
L 202.023181 92.932152 
L 202.125781 126.659425 
L 202.245481 109.795788 
L 202.313881 109.795788 
L 202.348081 126.659425 
L 202.433581 92.932152 
L 202.553281 109.795788 
L 202.638781 92.932152 
L 202.655881 109.795788 
L 202.672981 109.795788 
L 202.690081 126.659425 
L 202.775581 109.795788 
L 202.809781 109.795788 
L 202.929481 126.659425 
L 203.032081 109.795788 
L 203.066281 126.659425 
L 203.100481 92.932152 
L 203.134681 109.795788 
L 203.151781 109.795788 
L 203.271481 126.659425 
L 203.374081 109.795788 
L 203.391181 126.659425 
L 203.476681 109.795788 
L 203.510881 109.795788 
L 203.630581 126.659425 
L 203.818681 126.659425 
L 203.938381 109.795788 
L 203.955481 109.795788 
L 204.058081 126.659425 
L 204.177781 109.795788 
L 204.297481 126.659425 
L 204.365881 109.795788 
L 204.400081 126.659425 
L 204.502681 126.659425 
L 204.622381 109.795788 
L 204.724981 126.659425 
L 204.827581 109.795788 
L 204.913081 126.659425 
L 204.930181 109.795788 
L 204.947281 109.795788 
L 205.066981 126.659425 
L 205.118281 126.659425 
L 205.220881 109.795788 
L 205.340581 126.659425 
L 205.374781 126.659425 
L 205.494481 109.795788 
L 205.597081 126.659425 
L 205.716781 109.795788 
L 205.836481 126.659425 
L 205.853581 126.659425 
L 205.973281 109.795788 
L 206.092981 126.659425 
L 206.110081 126.659425 
L 206.195581 109.795788 
L 206.212681 126.659425 
L 206.246881 126.659425 
L 206.298181 109.795788 
L 206.349481 126.659425 
L 206.400781 126.659425 
L 206.503381 109.795788 
L 206.605981 126.659425 
L 206.725681 109.795788 
L 206.845381 126.659425 
L 206.896681 126.659425 
L 207.016381 109.795788 
L 207.136081 126.659425 
L 207.170281 126.659425 
L 207.238681 109.795788 
L 207.272881 126.659425 
L 207.307081 126.659425 
L 207.392581 109.795788 
L 207.409681 126.659425 
L 207.426781 126.659425 
L 207.546481 109.795788 
L 207.649081 126.659425 
L 207.717481 109.795788 
L 207.751681 126.659425 
L 207.820081 126.659425 
L 207.905581 109.795788 
L 207.922681 126.659425 
L 207.973981 126.659425 
L 207.991081 109.795788 
L 208.076581 126.659425 
L 208.230481 126.659425 
L 208.298881 109.795788 
L 208.333081 126.659425 
L 208.794781 126.659425 
L 208.880281 109.795788 
L 208.897381 126.659425 
L 208.965781 126.659425 
L 209.085481 109.795788 
L 209.102581 109.795788 
L 209.222281 126.659425 
L 209.256481 126.659425 
L 209.341981 109.795788 
L 209.359081 126.659425 
L 209.461681 126.659425 
L 209.581381 109.795788 
L 209.701081 126.659425 
L 209.752381 126.659425 
L 209.854981 109.795788 
L 209.957581 126.659425 
L 210.025981 109.795788 
L 210.060181 126.659425 
L 210.111481 126.659425 
L 210.231181 109.795788 
L 210.248281 109.795788 
L 210.248281 109.795788 
" clip-path="url(#pabb4dbf663)" style="fill: none; stroke: #0072b2; stroke-width: 1.25; stroke-linecap: square"/>
   </g>
   <g id="patch_4">
    <path d="M 30.698281 131.718516 
L 30.698281 20.418516 
" style="fill: none; stroke: #000000; stroke-width: 0.8; stroke-linejoin: miter; stroke-linecap: square"/>
   </g>
   <g id="patch_5">
    <path d="M 30.698281 131.718516 
L 218.798281 131.718516 
" style="fill: none; stroke: #000000; stroke-width: 0.8; stroke-linejoin: miter; stroke-linecap: square"/>
   </g>
   <g id="text_16">
    <!-- drugs2263 rep1 -->
    <g transform="translate(86.875195 14.418516) scale(0.095 -0.095)">
     <defs>
      <path id="DejaVuSans-67" d="M 2906 1791 
Q 2906 2416 2648 2759 
Q 2391 3103 1925 3103 
Q 1463 3103 1205 2759 
Q 947 2416 947 1791 
Q 947 1169 1205 825 
Q 1463 481 1925 481 
Q 2391 481 2648 825 
Q 2906 1169 2906 1791 
z
M 3481 434 
Q 3481 -459 3084 -895 
Q 2688 -1331 1869 -1331 
Q 1566 -1331 1297 -1286 
Q 1028 -1241 775 -1147 
L 775 -588 
Q 1028 -725 1275 -790 
Q 1522 -856 1778 -856 
Q 2344 -856 2625 -561 
Q 2906 -266 2906 331 
L 2906 616 
Q 2728 306 2450 153 
Q 2172 0 1784 0 
Q 1141 0 747 490 
Q 353 981 353 1791 
Q 353 2603 747 3093 
Q 1141 3584 1784 3584 
Q 2172 3584 2450 3431 
Q 2728 3278 2906 2969 
L 2906 3500 
L 3481 3500 
L 3481 434 
z
" transform="scale(0.015625)"/>
      <path id="DejaVuSans-70" d="M 1159 525 
L 1159 -1331 
L 581 -1331 
L 581 3500 
L 1159 3500 
L 1159 2969 
Q 1341 3281 1617 3432 
Q 1894 3584 2278 3584 
Q 2916 3584 3314 3078 
Q 3713 2572 3713 1747 
Q 3713 922 3314 415 
Q 2916 -91 2278 -91 
Q 1894 -91 1617 61 
Q 1341 213 1159 525 
z
M 3116 1747 
Q 3116 2381 2855 2742 
Q 2594 3103 2138 3103 
Q 1681 3103 1420 2742 
Q 1159 2381 1159 1747 
Q 1159 1113 1420 752 
Q 1681 391 2138 391 
Q 2594 391 2855 752 
Q 3116 1113 3116 1747 
z
" transform="scale(0.015625)"/>
     </defs>
     <use xlink:href="#DejaVuSans-64"/>
     <use xlink:href="#DejaVuSans-72" transform="translate(63.476562 0)"/>
     <use xlink:href="#DejaVuSans-75" transform="translate(104.589844 0)"/>
     <use xlink:href="#DejaVuSans-67" transform="translate(167.96875 0)"/>
     <use xlink:href="#DejaVuSans-73" transform="translate(231.445312 0)"/>
     <use xlink:href="#DejaVuSans-32" transform="translate(283.544922 0)"/>
     <use xlink:href="#DejaVuSans-32" transform="translate(347.167969 0)"/>
     <use xlink:href="#DejaVuSans-36" transform="translate(410.791016 0)"/>
     <use xlink:href="#DejaVuSans-33" transform="translate(474.414062 0)"/>
     <use xlink:href="#DejaVuSans-20" transform="translate(538.037109 0)"/>
     <use xlink:href="#DejaVuSans-72" transform="translate(569.824219 0)"/>
     <use xlink:href="#DejaVuSans-65" transform="translate(608.6875 0)"/>
     <use xlink:href="#DejaVuSans-70" transform="translate(670.210938 0)"/>
     <use xlink:href="#DejaVuSans-31" transform="translate(733.6875 0)"/>
    </g>
   </g>
  </g>
 </g>
 <defs>
  <clipPath id="pabb4dbf663">
   <rect x="30.698281" y="20.418516" width="188.1" height="111.3"/>
  </clipPath>
 </defs>
</svg>
