<?xml version="1.0" encoding="utf-8" standalone="no"?>
<!DOCTYPE svg PUBLIC "-//W3C//DTD SVG 1.1//EN"
  "http://www.w3.org/Graphics/SVG/1.1/DTD/svg11.dtd">
<svg xmlns:xlink="http://www.w3.org/1999/xlink" width="218.858281pt" height="164.903516pt" viewBox="0 0 218.858281 164.903516" xmlns="http://www.w3.org/2000/svg" version="1.1">
 <metadata>
  <rdf:RDF xmlns:dc="http://purl.org/dc/elements/1.1/" xmlns:cc="http://creativecommons.org/ns#" xmlns:rdf="http://www.w3.org/1999/02/22-rdf-syntax-ns#">
   <cc:Work>
    <dc:type rdf:resource="http://purl.org/dc/dcmitype/StillImage"/>
    <dc:date>2026-05-24T13:54:00.111316</dc:date>
    <dc:format>image/svg+xml</dc:format>
    <dc:creator>
     <cc:Agent>
      <dc:title>Matplotlib v3.10.9, https://matplotlib.org/</dc:title>
     </cc:Agent>
    </dc:creator>
   </cc:Work>
  </rdf:RDF>
 </metadata>
 <defs>
  <style type="text/css">*{stroke-linejoin: round; stroke-linecap: butt}</style>
 </defs>
 <g id="figure_1">
  <g id="patch_1">
   <path d="M 0 164.903516 
L 218.858281 164.903516 
L 218.858281 0 
L 0 0 
z
" style="fill: #ffffff"/>
  </g>
  <g id="axes_1">
   <g id="patch_2">
    <path d="M 30.698281 131.718516 
L 211.658281 131.718516 
L 211.658281 20.418516 
L 30.698281 20.418516 
z
" style="fill: #ffffff"/>
   </g>
   <g id="patch_3">
    <path d="M 121.178275 131.718516 
L 203.432814 131.718516 
L 203.432814 20.418516 
L 121.178275 20.418516 
z
" clip-path="url(#pafbde7e9d1)" style="fill: #bdbdbd; opacity: 0.18"/>
   </g>
   <g id="matplotlib.axis_1">
    <g id="xtick_1">
     <g id="line2d_1">
      <defs>
       <path id="m0be07e8932" d="M 0 0 
L 0 3 
" style="stroke: #000000; stroke-width: 0.7"/>
      </defs>
      <g>
       <use xlink:href="#m0be07e8932" x="38.923736" y="131.718516" style="stroke: #000000; stroke-width: 0.7"/>
      </g>
     </g>
     <g id="text_1">
      <!-- 0 -->
      <g transform="translate(36.537798 143.917344) scale(0.075 -0.075)">
       <defs>
        <path id="DejaVuSans-30" d="M 2034 4250 
Q 1547 4250 1301 3770 
Q 1056 3291 1056 2328 
Q 1056 1369 1301 889 
Q 1547 409 2034 409 
Q 2525 409 2770 889 
Q 3016 1369 3016 2328 
Q 3016 3291 2770 3770 
Q 2525 4250 2034 4250 
z
M 2034 4750 
Q 2819 4750 3233 4129 
Q 3647 3509 3647 2328 
Q 3647 1150 3233 529 
Q 2819 -91 2034 -91 
Q 1250 -91 836 529 
Q 422 1150 422 2328 
Q 422 3509 836 4129 
Q 1250 4750 2034 4750 
z
" transform="scale(0.015625)"/>
       </defs>
       <use xlink:href="#DejaVuSans-30"/>
      </g>
     </g>
    </g>
    <g id="xtick_2">
     <g id="line2d_2">
      <g>
       <use xlink:href="#m0be07e8932" x="71.825551" y="131.718516" style="stroke: #000000; stroke-width: 0.7"/>
      </g>
     </g>
     <g id="text_2">
      <!-- 20 -->
      <g transform="translate(67.053676 143.917344) scale(0.075 -0.075)">
       <defs>
        <path id="DejaVuSans-32" d="M 1228 531 
L 3431 531 
L 3431 0 
L 469 0 
L 469 531 
Q 828 903 1448 1529 
Q 2069 2156 2228 2338 
Q 2531 2678 2651 2914 
Q 2772 3150 2772 3378 
Q 2772 3750 2511 3984 
Q 2250 4219 1831 4219 
Q 1534 4219 1204 4116 
Q 875 4013 500 3803 
L 500 4441 
Q 881 4594 1212 4672 
Q 1544 4750 1819 4750 
Q 2544 4750 2975 4387 
Q 3406 4025 3406 3419 
Q 3406 3131 3298 2873 
Q 3191 2616 2906 2266 
Q 2828 2175 2409 1742 
Q 1991 1309 1228 531 
z
" transform="scale(0.015625)"/>
       </defs>
       <use xlink:href="#DejaVuSans-32"/>
       <use xlink:href="#DejaVuSans-30" transform="translate(63.623047 0)"/>
      </g>
     </g>
    </g>
    <g id="xtick_3">
     <g id="line2d_3">
      <g>
       <use xlink:href="#m0be07e8932" x="104.727367" y="131.718516" style="stroke: #000000; stroke-width: 0.7"/>
      </g>
     </g>
     <g id="text_3">
      <!-- 40 -->
      <g transform="translate(99.955492 143.917344) scale(0.075 -0.075)">
       <defs>
        <path id="DejaVuSans-34" d="M 2419 4116 
L 825 1625 
L 2419 1625 
L 2419 4116 
z
M 2253 4666 
L 3047 4666 
L 3047 1625 
L 3713 1625 
L 3713 1100 
L 3047 1100 
L 3047 0 
L 2419 0 
L 2419 1100 
L 313 1100 
L 313 1709 
L 2253 4666 
z
" transform="scale(0.015625)"/>
       </defs>
       <use xlink:href="#DejaVuSans-34"/>
       <use xlink:href="#DejaVuSans-30" transform="translate(63.623047 0)"/>
      </g>
     </g>
    </g>
    <g id="xtick_4">
     <g id="line2d_4">
      <g>
       <use xlink:href="#m0be07e8932" x="137.629183" y="131.718516" style="stroke: #000000; stroke-width: 0.7"/>
      </g>
     </g>
     <g id="text_4">
      <!-- 60 -->
      <g transform="translate(132.857308 143.917344) scale(0.075 -0.075)">
       <defs>
        <path id="DejaVuSans-36" d="M 2113 2584 
Q 1688 2584 1439 2293 
Q 1191 2003 1191 1497 
Q 1191 994 1439 701 
Q 1688 409 2113 409 
Q 2538 409 2786 701 
Q 3034 994 3034 1497 
Q 3034 2003 2786 2293 
Q 2538 2584 2113 2584 
z
M 3366 4563 
L 3366 3988 
Q 3128 4100 2886 4159 
Q 2644 4219 2406 4219 
Q 1781 4219 1451 3797 
Q 1122 3375 1075 2522 
Q 1259 2794 1537 2939 
Q 1816 3084 2150 3084 
Q 2853 3084 3261 2657 
Q 3669 2231 3669 1497 
Q 3669 778 3244 343 
Q 2819 -91 2113 -91 
Q 1303 -91 875 529 
Q 447 1150 447 2328 
Q 447 3434 972 4092 
Q 1497 4750 2381 4750 
Q 2619 4750 2861 4703 
Q 3103 4656 3366 4563 
z
" transform="scale(0.015625)"/>
       </defs>
       <use xlink:href="#DejaVuSans-36"/>
       <use xlink:href="#DejaVuSans-30" transform="translate(63.623047 0)"/>
      </g>
     </g>
    </g>
    <g id="xtick_5">
     <g id="line2d_5">
      <g>
       <use xlink:href="#m0be07e8932" x="170.530999" y="131.718516" style="stroke: #000000; stroke-width: 0.7"/>
      </g>
     </g>
     <g id="text_5">
      <!-- 80 -->
      <g transform="translate(165.759124 143.917344) scale(0.075 -0.075)">
       <defs>
        <path id="DejaVuSans-38" d="M 2034 2216 
Q 1584 2216 1326 1975 
Q 1069 1734 1069 1313 
Q 1069 891 1326 650 
Q 1584 409 2034 409 
Q 2484 409 2743 651 
Q 3003 894 3003 1313 
Q 3003 1734 2745 1975 
Q 2488 2216 2034 2216 
z
M 1403 2484 
Q 997 2584 770 2862 
Q 544 3141 544 3541 
Q 544 4100 942 4425 
Q 1341 4750 2034 4750 
Q 2731 4750 3128 4425 
Q 3525 4100 3525 3541 
Q 3525 3141 3298 2862 
Q 3072 2584 2669 2484 
Q 3125 2378 3379 2068 
Q 3634 1759 3634 1313 
Q 3634 634 3220 271 
Q 2806 -91 2034 -91 
Q 1263 -91 848 271 
Q 434 634 434 1313 
Q 434 1759 690 2068 
Q 947 2378 1403 2484 
z
M 1172 3481 
Q 1172 3119 1398 2916 
Q 1625 2713 2034 2713 
Q 2441 2713 2670 2916 
Q 2900 3119 2900 3481 
Q 2900 3844 2670 4047 
Q 2441 4250 2034 4250 
Q 1625 4250 1398 4047 
Q 1172 3844 1172 3481 
z
" transform="scale(0.015625)"/>
       </defs>
       <use xlink:href="#DejaVuSans-38"/>
       <use xlink:href="#DejaVuSans-30" transform="translate(63.623047 0)"/>
      </g>
     </g>
    </g>
    <g id="xtick_6">
     <g id="line2d_6">
      <g>
       <use xlink:href="#m0be07e8932" x="203.432814" y="131.718516" style="stroke: #000000; stroke-width: 0.7"/>
      </g>
     </g>
     <g id="text_6">
      <!-- 100 -->
      <g transform="translate(196.275002 143.917344) scale(0.075 -0.075)">
       <defs>
        <path id="DejaVuSans-31" d="M 794 531 
L 1825 531 
L 1825 4091 
L 703 3866 
L 703 4441 
L 1819 4666 
L 2450 4666 
L 2450 531 
L 3481 531 
L 3481 0 
L 794 0 
L 794 531 
z
" transform="scale(0.015625)"/>
       </defs>
       <use xlink:href="#DejaVuSans-31"/>
       <use xlink:href="#DejaVuSans-30" transform="translate(63.623047 0)"/>
       <use xlink:href="#DejaVuSans-30" transform="translate(127.246094 0)"/>
      </g>
     </g>
    </g>
    <g id="text_7">
     <!-- Time (ns) -->
     <g transform="translate(101.205273 155.935781) scale(0.085 -0.085)">
      <defs>
       <path id="DejaVuSans-54" d="M -19 4666 
L 3928 4666 
L 3928 4134 
L 2272 4134 
L 2272 0 
L 1638 0 
L 1638 4134 
L -19 4134 
L -19 4666 
z
" transform="scale(0.015625)"/>
       <path id="DejaVuSans-69" d="M 603 3500 
L 1178 3500 
L 1178 0 
L 603 0 
L 603 3500 
z
M 603 4863 
L 1178 4863 
L 1178 4134 
L 603 4134 
L 603 4863 
z
" transform="scale(0.015625)"/>
       <path id="DejaVuSans-6d" d="M 3328 2828 
Q 3544 3216 3844 3400 
Q 4144 3584 4550 3584 
Q 5097 3584 5394 3201 
Q 5691 2819 5691 2113 
L 5691 0 
L 5113 0 
L 5113 2094 
Q 5113 2597 4934 2840 
Q 4756 3084 4391 3084 
Q 3944 3084 3684 2787 
Q 3425 2491 3425 1978 
L 3425 0 
L 2847 0 
L 2847 2094 
Q 2847 2600 2669 2842 
Q 2491 3084 2119 3084 
Q 1678 3084 1418 2786 
Q 1159 2488 1159 1978 
L 1159 0 
L 581 0 
L 581 3500 
L 1159 3500 
L 1159 2956 
Q 1356 3278 1631 3431 
Q 1906 3584 2284 3584 
Q 2666 3584 2933 3390 
Q 3200 3197 3328 2828 
z
" transform="scale(0.015625)"/>
       <path id="DejaVuSans-65" d="M 3597 1894 
L 3597 1613 
L 953 1613 
Q 991 1019 1311 708 
Q 1631 397 2203 397 
Q 2534 397 2845 478 
Q 3156 559 3463 722 
L 3463 178 
Q 3153 47 2828 -22 
Q 2503 -91 2169 -91 
Q 1331 -91 842 396 
Q 353 884 353 1716 
Q 353 2575 817 3079 
Q 1281 3584 2069 3584 
Q 2775 3584 3186 3129 
Q 3597 2675 3597 1894 
z
M 3022 2063 
Q 3016 2534 2758 2815 
Q 2500 3097 2075 3097 
Q 1594 3097 1305 2825 
Q 1016 2553 972 2059 
L 3022 2063 
z
" transform="scale(0.015625)"/>
       <path id="DejaVuSans-20" transform="scale(0.015625)"/>
       <path id="DejaVuSans-28" d="M 1984 4856 
Q 1566 4138 1362 3434 
Q 1159 2731 1159 2009 
Q 1159 1288 1364 580 
Q 1569 -128 1984 -844 
L 1484 -844 
Q 1016 -109 783 600 
Q 550 1309 550 2009 
Q 550 2706 781 3412 
Q 1013 4119 1484 4856 
L 1984 4856 
z
" transform="scale(0.015625)"/>
       <path id="DejaVuSans-6e" d="M 3513 2113 
L 3513 0 
L 2938 0 
L 2938 2094 
Q 2938 2591 2744 2837 
Q 2550 3084 2163 3084 
Q 1697 3084 1428 2787 
Q 1159 2491 1159 1978 
L 1159 0 
L 581 0 
L 581 3500 
L 1159 3500 
L 1159 2956 
Q 1366 3272 1645 3428 
Q 1925 3584 2291 3584 
Q 2894 3584 3203 3211 
Q 3513 2838 3513 2113 
z
" transform="scale(0.015625)"/>
       <path id="DejaVuSans-73" d="M 2834 3397 
L 2834 2853 
Q 2591 2978 2328 3040 
Q 2066 3103 1784 3103 
Q 1356 3103 1142 2972 
Q 928 2841 928 2578 
Q 928 2378 1081 2264 
Q 1234 2150 1697 2047 
L 1894 2003 
Q 2506 1872 2764 1633 
Q 3022 1394 3022 966 
Q 3022 478 2636 193 
Q 2250 -91 1575 -91 
Q 1294 -91 989 -36 
Q 684 19 347 128 
L 347 722 
Q 666 556 975 473 
Q 1284 391 1588 391 
Q 1994 391 2212 530 
Q 2431 669 2431 922 
Q 2431 1156 2273 1281 
Q 2116 1406 1581 1522 
L 1381 1569 
Q 847 1681 609 1914 
Q 372 2147 372 2553 
Q 372 3047 722 3315 
Q 1072 3584 1716 3584 
Q 2034 3584 2315 3537 
Q 2597 3491 2834 3397 
z
" transform="scale(0.015625)"/>
       <path id="DejaVuSans-29" d="M 513 4856 
L 1013 4856 
Q 1481 4119 1714 3412 
Q 1947 2706 1947 2009 
Q 1947 1309 1714 600 
Q 1481 -109 1013 -844 
L 513 -844 
Q 928 -128 1133 580 
Q 1338 1288 1338 2009 
Q 1338 2731 1133 3434 
Q 928 4138 513 4856 
z
" transform="scale(0.015625)"/>
      </defs>
      <use xlink:href="#DejaVuSans-54"/>
      <use xlink:href="#DejaVuSans-69" transform="translate(57.958984 0)"/>
      <use xlink:href="#DejaVuSans-6d" transform="translate(85.742188 0)"/>
      <use xlink:href="#DejaVuSans-65" transform="translate(183.154297 0)"/>
      <use xlink:href="#DejaVuSans-20" transform="translate(244.677734 0)"/>
      <use xlink:href="#DejaVuSans-28" transform="translate(276.464844 0)"/>
      <use xlink:href="#DejaVuSans-6e" transform="translate(315.478516 0)"/>
      <use xlink:href="#DejaVuSans-73" transform="translate(378.857422 0)"/>
      <use xlink:href="#DejaVuSans-29" transform="translate(430.957031 0)"/>
     </g>
    </g>
   </g>
   <g id="matplotlib.axis_2">
    <g id="ytick_1">
     <g id="line2d_7">
      <defs>
       <path id="me023a94b20" d="M 0 0 
L -3 0 
" style="stroke: #000000; stroke-width: 0.7"/>
      </defs>
      <g>
       <use xlink:href="#me023a94b20" x="30.698281" y="126.672279" style="stroke: #000000; stroke-width: 0.7"/>
      </g>
     </g>
     <g id="text_8">
      <!-- 0 -->
      <g transform="translate(19.426406 129.521693) scale(0.075 -0.075)">
       <use xlink:href="#DejaVuSans-30"/>
      </g>
     </g>
    </g>
    <g id="ytick_2">
     <g id="line2d_8">
      <g>
       <use xlink:href="#me023a94b20" x="30.698281" y="97.947047" style="stroke: #000000; stroke-width: 0.7"/>
      </g>
     </g>
     <g id="text_9">
      <!-- 1 -->
      <g transform="translate(19.426406 100.796461) scale(0.075 -0.075)">
       <use xlink:href="#DejaVuSans-31"/>
      </g>
     </g>
    </g>
    <g id="ytick_3">
     <g id="line2d_9">
      <g>
       <use xlink:href="#me023a94b20" x="30.698281" y="69.221815" style="stroke: #000000; stroke-width: 0.7"/>
      </g>
     </g>
     <g id="text_10">
      <!-- 2 -->
      <g transform="translate(19.426406 72.071229) scale(0.075 -0.075)">
       <use xlink:href="#DejaVuSans-32"/>
      </g>
     </g>
    </g>
    <g id="ytick_4">
     <g id="line2d_10">
      <g>
       <use xlink:href="#me023a94b20" x="30.698281" y="40.496583" style="stroke: #000000; stroke-width: 0.7"/>
      </g>
     </g>
     <g id="text_11">
      <!-- 3 -->
      <g transform="translate(19.426406 43.345997) scale(0.075 -0.075)">
       <defs>
        <path id="DejaVuSans-33" d="M 2597 2516 
Q 3050 2419 3304 2112 
Q 3559 1806 3559 1356 
Q 3559 666 3084 287 
Q 2609 -91 1734 -91 
Q 1441 -91 1130 -33 
Q 819 25 488 141 
L 488 750 
Q 750 597 1062 519 
Q 1375 441 1716 441 
Q 2309 441 2620 675 
Q 2931 909 2931 1356 
Q 2931 1769 2642 2001 
Q 2353 2234 1838 2234 
L 1294 2234 
L 1294 2753 
L 1863 2753 
Q 2328 2753 2575 2939 
Q 2822 3125 2822 3475 
Q 2822 3834 2567 4026 
Q 2313 4219 1838 4219 
Q 1578 4219 1281 4162 
Q 984 4106 628 3988 
L 628 4550 
Q 988 4650 1302 4700 
Q 1616 4750 1894 4750 
Q 2613 4750 3031 4423 
Q 3450 4097 3450 3541 
Q 3450 3153 3228 2886 
Q 3006 2619 2597 2516 
z
" transform="scale(0.015625)"/>
       </defs>
       <use xlink:href="#DejaVuSans-33"/>
      </g>
     </g>
    </g>
    <g id="text_12">
     <!-- Ligand RMSD (nm) -->
     <g transform="translate(13.658672 115.752891) rotate(-90) scale(0.085 -0.085)">
      <defs>
       <path id="DejaVuSans-4c" d="M 628 4666 
L 1259 4666 
L 1259 531 
L 3531 531 
L 3531 0 
L 628 0 
L 628 4666 
z
" transform="scale(0.015625)"/>
       <path id="DejaVuSans-67" d="M 2906 1791 
Q 2906 2416 2648 2759 
Q 2391 3103 1925 3103 
Q 1463 3103 1205 2759 
Q 947 2416 947 1791 
Q 947 1169 1205 825 
Q 1463 481 1925 481 
Q 2391 481 2648 825 
Q 2906 1169 2906 1791 
z
M 3481 434 
Q 3481 -459 3084 -895 
Q 2688 -1331 1869 -1331 
Q 1566 -1331 1297 -1286 
Q 1028 -1241 775 -1147 
L 775 -588 
Q 1028 -725 1275 -790 
Q 1522 -856 1778 -856 
Q 2344 -856 2625 -561 
Q 2906 -266 2906 331 
L 2906 616 
Q 2728 306 2450 153 
Q 2172 0 1784 0 
Q 1141 0 747 490 
Q 353 981 353 1791 
Q 353 2603 747 3093 
Q 1141 3584 1784 3584 
Q 2172 3584 2450 3431 
Q 2728 3278 2906 2969 
L 2906 3500 
L 3481 3500 
L 3481 434 
z
" transform="scale(0.015625)"/>
       <path id="DejaVuSans-61" d="M 2194 1759 
Q 1497 1759 1228 1600 
Q 959 1441 959 1056 
Q 959 750 1161 570 
Q 1363 391 1709 391 
Q 2188 391 2477 730 
Q 2766 1069 2766 1631 
L 2766 1759 
L 2194 1759 
z
M 3341 1997 
L 3341 0 
L 2766 0 
L 2766 531 
Q 2569 213 2275 61 
Q 1981 -91 1556 -91 
Q 1019 -91 701 211 
Q 384 513 384 1019 
Q 384 1609 779 1909 
Q 1175 2209 1959 2209 
L 2766 2209 
L 2766 2266 
Q 2766 2663 2505 2880 
Q 2244 3097 1772 3097 
Q 1472 3097 1187 3025 
Q 903 2953 641 2809 
L 641 3341 
Q 956 3463 1253 3523 
Q 1550 3584 1831 3584 
Q 2591 3584 2966 3190 
Q 3341 2797 3341 1997 
z
" transform="scale(0.015625)"/>
       <path id="DejaVuSans-64" d="M 2906 2969 
L 2906 4863 
L 3481 4863 
L 3481 0 
L 2906 0 
L 2906 525 
Q 2725 213 2448 61 
Q 2172 -91 1784 -91 
Q 1150 -91 751 415 
Q 353 922 353 1747 
Q 353 2572 751 3078 
Q 1150 3584 1784 3584 
Q 2172 3584 2448 3432 
Q 2725 3281 2906 2969 
z
M 947 1747 
Q 947 1113 1208 752 
Q 1469 391 1925 391 
Q 2381 391 2643 752 
Q 2906 1113 2906 1747 
Q 2906 2381 2643 2742 
Q 2381 3103 1925 3103 
Q 1469 3103 1208 2742 
Q 947 2381 947 1747 
z
" transform="scale(0.015625)"/>
       <path id="DejaVuSans-52" d="M 2841 2188 
Q 3044 2119 3236 1894 
Q 3428 1669 3622 1275 
L 4263 0 
L 3584 0 
L 2988 1197 
Q 2756 1666 2539 1819 
Q 2322 1972 1947 1972 
L 1259 1972 
L 1259 0 
L 628 0 
L 628 4666 
L 2053 4666 
Q 2853 4666 3247 4331 
Q 3641 3997 3641 3322 
Q 3641 2881 3436 2590 
Q 3231 2300 2841 2188 
z
M 1259 4147 
L 1259 2491 
L 2053 2491 
Q 2509 2491 2742 2702 
Q 2975 2913 2975 3322 
Q 2975 3731 2742 3939 
Q 2509 4147 2053 4147 
L 1259 4147 
z
" transform="scale(0.015625)"/>
       <path id="DejaVuSans-4d" d="M 628 4666 
L 1569 4666 
L 2759 1491 
L 3956 4666 
L 4897 4666 
L 4897 0 
L 4281 0 
L 4281 4097 
L 3078 897 
L 2444 897 
L 1241 4097 
L 1241 0 
L 628 0 
L 628 4666 
z
" transform="scale(0.015625)"/>
       <path id="DejaVuSans-53" d="M 3425 4513 
L 3425 3897 
Q 3066 4069 2747 4153 
Q 2428 4238 2131 4238 
Q 1616 4238 1336 4038 
Q 1056 3838 1056 3469 
Q 1056 3159 1242 3001 
Q 1428 2844 1947 2747 
L 2328 2669 
Q 3034 2534 3370 2195 
Q 3706 1856 3706 1288 
Q 3706 609 3251 259 
Q 2797 -91 1919 -91 
Q 1588 -91 1214 -16 
Q 841 59 441 206 
L 441 856 
Q 825 641 1194 531 
Q 1563 422 1919 422 
Q 2459 422 2753 634 
Q 3047 847 3047 1241 
Q 3047 1584 2836 1778 
Q 2625 1972 2144 2069 
L 1759 2144 
Q 1053 2284 737 2584 
Q 422 2884 422 3419 
Q 422 4038 858 4394 
Q 1294 4750 2059 4750 
Q 2388 4750 2728 4690 
Q 3069 4631 3425 4513 
z
" transform="scale(0.015625)"/>
       <path id="DejaVuSans-44" d="M 1259 4147 
L 1259 519 
L 2022 519 
Q 2988 519 3436 956 
Q 3884 1394 3884 2338 
Q 3884 3275 3436 3711 
Q 2988 4147 2022 4147 
L 1259 4147 
z
M 628 4666 
L 1925 4666 
Q 3281 4666 3915 4102 
Q 4550 3538 4550 2338 
Q 4550 1131 3912 565 
Q 3275 0 1925 0 
L 628 0 
L 628 4666 
z
" transform="scale(0.015625)"/>
      </defs>
      <use xlink:href="#DejaVuSans-4c"/>
      <use xlink:href="#DejaVuSans-69" transform="translate(55.712891 0)"/>
      <use xlink:href="#DejaVuSans-67" transform="translate(83.496094 0)"/>
      <use xlink:href="#DejaVuSans-61" transform="translate(146.972656 0)"/>
      <use xlink:href="#DejaVuSans-6e" transform="translate(208.251953 0)"/>
      <use xlink:href="#DejaVuSans-64" transform="translate(271.630859 0)"/>
      <use xlink:href="#DejaVuSans-20" transform="translate(335.107422 0)"/>
      <use xlink:href="#DejaVuSans-52" transform="translate(366.894531 0)"/>
      <use xlink:href="#DejaVuSans-4d" transform="translate(436.376953 0)"/>
      <use xlink:href="#DejaVuSans-53" transform="translate(522.65625 0)"/>
      <use xlink:href="#DejaVuSans-44" transform="translate(586.132812 0)"/>
      <use xlink:href="#DejaVuSans-20" transform="translate(663.134766 0)"/>
      <use xlink:href="#DejaVuSans-28" transform="translate(694.921875 0)"/>
      <use xlink:href="#DejaVuSans-6e" transform="translate(733.935547 0)"/>
      <use xlink:href="#DejaVuSans-6d" transform="translate(797.314453 0)"/>
      <use xlink:href="#DejaVuSans-29" transform="translate(894.726562 0)"/>
     </g>
    </g>
   </g>
   <g id="line2d_11">
    <path d="M 38.923736 126.659425 
L 39.022441 119.942782 
L 39.055343 120.98869 
L 39.088245 118.91503 
L 39.269205 113.900823 
L 39.335008 116.185001 
L 39.36791 114.003874 
L 39.450165 112.073881 
L 39.515968 112.135611 
L 39.614674 113.120691 
L 39.631125 112.830308 
L 39.647576 112.101121 
L 39.664027 114.480955 
L 39.713379 114.102698 
L 39.960143 108.430028 
L 40.058849 103.298024 
L 40.124652 104.431355 
L 40.157554 106.28036 
L 40.239808 105.380488 
L 40.305612 107.638352 
L 40.322063 109.479243 
L 40.387867 106.149109 
L 40.420768 109.379161 
L 40.585277 104.590958 
L 40.601729 103.946441 
L 40.63463 106.407648 
L 40.864943 112.955266 
L 40.881394 112.299897 
L 40.930747 109.780722 
L 40.99655 111.61048 
L 41.013001 112.686438 
L 41.045903 108.686389 
L 41.062354 108.732898 
L 41.144608 105.048821 
L 41.17751 107.131782 
L 41.193961 107.795496 
L 41.243314 105.874806 
L 41.276216 107.258029 
L 41.292667 106.549772 
L 41.325568 109.802867 
L 41.391372 108.824775 
L 41.424274 110.032712 
L 41.522979 111.637162 
L 41.457176 109.03168 
L 41.53943 110.989176 
L 41.621685 109.107512 
L 41.654587 110.269115 
L 41.687488 110.50137 
L 41.703939 111.169639 
L 41.769743 109.861745 
L 41.90135 104.482836 
L 41.917801 108.998836 
L 41.934252 104.191151 
L 42.000056 104.922955 
L 42.016507 104.795355 
L 42.032958 102.960272 
L 42.08231 109.721916 
L 42.181016 107.532332 
L 42.246819 100.908346 
L 42.279721 106.713454 
L 42.296172 108.486593 
L 42.361976 105.449782 
L 42.378427 106.396356 
L 42.477132 104.295323 
L 42.493583 104.536256 
L 42.510034 104.610528 
L 42.526485 80.307669 
L 42.62519 84.116666 
L 42.707445 83.29952 
L 42.855503 90.873243 
L 43.003561 81.884607 
L 43.020012 83.010507 
L 43.135169 86.78535 
L 43.052914 79.885773 
L 43.151619 86.542768 
L 43.184521 84.111941 
L 43.200972 84.526501 
L 43.217423 92.053804 
L 43.233874 80.656477 
L 43.299677 81.103688 
L 43.316128 81.181083 
L 43.414834 75.906805 
L 43.513539 92.147463 
L 43.52999 89.610025 
L 43.546441 91.390266 
L 43.562892 81.967496 
L 43.579343 81.94366 
L 43.612245 82.619568 
L 43.628696 79.85872 
L 43.645147 90.773403 
L 43.743852 85.656052 
L 43.760303 87.109942 
L 43.793205 84.052287 
L 43.809655 84.611777 
L 43.842558 79.858349 
L 43.924812 81.203417 
L 43.990616 82.949899 
L 43.957714 80.543437 
L 44.056419 82.433632 
L 44.089321 83.071177 
L 44.105772 82.510863 
L 44.155125 83.032533 
L 44.204477 79.240722 
L 44.220929 61.944501 
L 44.303183 78.533668 
L 44.418339 75.064139 
L 44.43479 60.739892 
L 44.533496 71.375279 
L 44.566397 72.301177 
L 44.582848 71.843751 
L 44.747358 64.489014 
L 44.780259 66.321196 
L 44.846063 64.023588 
L 44.862514 64.156103 
L 44.961219 85.872229 
L 44.911866 62.118683 
L 44.97767 84.347827 
L 44.994121 85.048872 
L 45.043474 82.746803 
L 45.059925 82.413599 
L 45.076376 82.547335 
L 45.092827 84.122828 
L 45.109277 73.311774 
L 45.207983 77.711445 
L 45.240885 78.346192 
L 45.257335 77.810085 
L 45.273786 79.945777 
L 45.323139 74.90971 
L 45.33959 75.152153 
L 45.356041 56.582868 
L 45.438296 78.868963 
L 45.553452 58.312098 
L 45.619256 59.239041 
L 45.635707 76.323387 
L 45.734412 72.237315 
L 45.833118 78.354666 
L 45.767314 71.145345 
L 45.898921 78.163132 
L 45.964725 70.501199 
L 46.014078 74.903887 
L 46.04698 75.723291 
L 46.06343 70.190332 
L 46.162135 72.451591 
L 46.293743 78.480759 
L 46.195037 71.82844 
L 46.310194 77.645693 
L 46.326644 76.784893 
L 46.359546 79.858455 
L 46.458252 89.823592 
L 46.491154 88.614903 
L 46.573408 78.008117 
L 46.60631 79.618393 
L 46.705015 83.285539 
L 46.655663 79.085735 
L 46.754368 82.601956 
L 46.902427 75.562287 
L 46.935329 76.143272 
L 46.951779 77.823189 
L 47.017583 75.356668 
L 47.050484 75.870029 
L 47.264346 70.484806 
L 47.33015 77.760827 
L 47.379503 76.777884 
L 47.51111 81.593008 
L 47.527561 81.186871 
L 47.642717 76.93718 
L 47.659169 77.334145 
L 47.724972 80.894672 
L 47.790776 78.684452 
L 47.807226 79.279085 
L 47.840128 76.940581 
L 47.856579 76.331723 
L 47.889481 78.543931 
L 47.905931 77.74996 
L 48.070441 81.931084 
L 47.988186 76.823204 
L 48.086892 81.364309 
L 48.103343 81.456345 
L 48.169147 86.402057 
L 48.23495 84.393914 
L 48.481714 76.163132 
L 48.267852 84.430679 
L 48.531066 76.979515 
L 48.613321 76.043632 
L 48.646223 79.404327 
L 48.662673 77.776298 
L 48.728478 80.732811 
L 48.794281 83.704609 
L 48.843634 83.152518 
L 48.975241 80.052836 
L 48.991692 80.85406 
L 49.008142 80.859553 
L 49.090397 77.507895 
L 49.156201 79.549119 
L 49.172652 79.572829 
L 49.271357 82.721456 
L 49.205554 78.992458 
L 49.304259 80.578565 
L 49.353612 81.592264 
L 49.518121 87.212284 
L 49.386513 81.345156 
L 49.534572 86.033504 
L 49.666179 79.670578 
L 49.699081 81.177512 
L 49.748434 82.505152 
L 49.764884 81.406188 
L 49.830688 78.323703 
L 49.896492 79.371795 
L 49.995198 83.559595 
L 50.04455 83.116939 
L 50.093903 73.031927 
L 50.143255 83.690059 
L 50.176157 76.431288 
L 50.22551 85.519963 
L 50.258412 70.972882 
L 50.274862 71.80311 
L 50.291314 71.419631 
L 50.324215 83.730025 
L 50.40647 79.848755 
L 50.422921 78.523229 
L 50.505176 79.125221 
L 50.636783 81.563999 
L 50.653233 80.788188 
L 50.702586 76.988256 
L 50.76839 79.336004 
L 50.850645 84.393908 
L 50.94935 64.555343 
L 50.965801 65.014838 
L 50.998702 63.282991 
L 51.048056 65.600129 
L 51.064506 64.945297 
L 51.080957 65.970742 
L 51.113859 62.786042 
L 51.146761 64.915903 
L 51.261917 60.895643 
L 51.344172 66.763136 
L 51.377073 63.059575 
L 51.409975 63.601508 
L 51.426426 65.694744 
L 51.49223 61.459183 
L 51.508681 62.713117 
L 51.541583 63.254645 
L 51.607387 53.616008 
L 51.640288 62.191082 
L 51.821248 69.618214 
L 51.837699 68.619231 
L 51.903503 71.03523 
L 51.919954 71.278398 
L 51.969306 67.157548 
L 52.03511 67.611174 
L 52.051561 69.411396 
L 52.117365 65.578798 
L 52.133816 66.234422 
L 52.166717 63.624014 
L 52.298324 83.059408 
L 52.413482 61.867587 
L 52.331227 85.15515 
L 52.429931 67.672896 
L 52.446383 67.490106 
L 52.479285 64.370143 
L 52.57799 70.495822 
L 52.594441 67.693584 
L 52.676696 69.830758 
L 52.709597 70.4891 
L 52.907007 56.839232 
L 52.956361 54.495509 
L 52.989262 57.029878 
L 53.005714 57.666542 
L 53.038616 55.242003 
L 53.055066 55.500277 
L 53.071517 55.046077 
L 53.087968 59.414751 
L 53.153772 50.778969 
L 53.186673 45.067747 
L 53.268928 46.926275 
L 53.285379 46.554237 
L 53.30183 39.138623 
L 53.31828 51.082782 
L 53.367634 48.794949 
L 53.433437 59.457387 
L 53.400535 47.891991 
L 53.499241 55.488991 
L 53.515692 56.239834 
L 53.548593 53.918189 
L 53.597946 41.490332 
L 53.581496 58.360348 
L 53.663749 43.61801 
L 53.713103 42.584962 
L 53.729553 43.457376 
L 53.992769 56.348131 
L 54.009218 55.086122 
L 54.157277 60.681286 
L 54.173728 51.95284 
L 54.272434 56.656511 
L 54.288884 56.617832 
L 54.338238 60.191616 
L 54.371139 55.694758 
L 54.453394 54.233644 
L 54.601452 47.564231 
L 54.617903 47.455905 
L 54.76596 37.431753 
L 54.815314 39.512146 
L 54.831764 42.930543 
L 54.897567 37.908356 
L 54.93047 41.782419 
L 55.09498 35.246909 
L 55.160783 36.569441 
L 55.210136 39.715236 
L 55.259488 37.31543 
L 55.275939 36.637112 
L 55.29239 43.820009 
L 55.341743 35.143949 
L 55.374644 42.075732 
L 55.506252 32.474613 
L 55.572056 30.0036 
L 55.637859 45.66547 
L 55.753015 34.650464 
L 55.933975 61.43834 
L 55.966877 49.238432 
L 55.983329 37.509897 
L 56.082033 38.945595 
L 56.114936 51.688482 
L 56.164288 34.650642 
L 56.180739 36.240761 
L 56.394601 50.019471 
L 56.427502 47.589871 
L 56.443954 45.192894 
L 56.460405 49.23753 
L 56.526209 63.393543 
L 56.559109 63.088102 
L 56.608463 45.131474 
L 56.690717 46.846338 
L 56.707168 44.876985 
L 56.75652 47.235525 
L 56.888127 53.399948 
L 56.986833 49.530459 
L 57.003285 50.143007 
L 57.052637 61.373292 
L 57.036186 47.953759 
L 57.101989 49.909976 
L 57.134892 48.759809 
L 57.184244 67.247596 
L 57.266499 65.414943 
L 57.315851 48.018658 
L 57.2994 65.998493 
L 57.398106 52.510414 
L 57.414557 53.463474 
L 57.431009 49.073834 
L 57.46391 50.598161 
L 57.480361 49.908264 
L 57.529713 52.495853 
L 57.562616 56.326633 
L 57.628419 50.971882 
L 57.644869 51.619182 
L 57.677772 50.855174 
L 57.694223 51.023343 
L 57.710673 49.317694 
L 57.727124 54.241397 
L 57.792928 52.100542 
L 57.924535 63.103332 
L 58.023241 59.526842 
L 58.039692 57.755992 
L 58.105496 62.052258 
L 58.121947 61.307088 
L 58.138397 62.796225 
L 58.171299 72.777786 
L 58.237103 64.235841 
L 58.253554 64.626467 
L 58.286455 63.284726 
L 58.467414 55.997927 
L 58.483866 64.339106 
L 58.582572 58.219876 
L 58.599023 58.436346 
L 58.615473 56.412234 
L 58.664827 60.352902 
L 58.697728 59.31637 
L 58.812884 72.158438 
L 58.829335 71.936122 
L 59.010296 50.074876 
L 59.026746 63.588188 
L 59.109001 52.010038 
L 59.191255 56.268496 
L 59.207707 55.722426 
L 59.240608 44.638867 
L 59.322863 49.183794 
L 59.355765 49.939486 
L 59.487372 63.947219 
L 59.536724 65.226256 
L 59.569625 61.584436 
L 59.684783 66.794352 
L 59.734135 50.433382 
L 59.799939 60.753855 
L 59.882194 61.015932 
L 59.898645 59.157166 
L 59.915095 48.319641 
L 59.997349 62.74493 
L 60.013801 63.638779 
L 60.079604 61.93597 
L 60.096056 62.991246 
L 60.145408 61.015973 
L 60.211211 61.673605 
L 60.227663 62.12402 
L 60.244114 50.993791 
L 60.277015 63.484185 
L 60.326367 60.731199 
L 60.425073 64.537407 
L 60.441525 63.594427 
L 60.573132 54.849817 
L 60.622484 56.5078 
L 60.803444 61.581449 
L 60.688288 56.331203 
L 60.819895 60.818561 
L 60.869249 49.405538 
L 60.90215 62.126559 
L 60.918601 61.068974 
L 60.951502 57.359029 
L 61.000856 53.837856 
L 61.066659 56.288836 
L 61.132463 60.529953 
L 61.181815 58.258072 
L 61.346325 54.293521 
L 61.231167 58.376526 
L 61.412128 55.657467 
L 61.428578 56.600011 
L 61.461481 56.169032 
L 61.576637 38.891264 
L 61.593088 39.32559 
L 61.609539 39.834285 
L 61.625989 38.071929 
L 61.741146 33.043925 
L 61.889205 49.091296 
L 61.938557 47.544919 
L 61.971458 49.190923 
L 61.987909 49.506036 
L 62.135968 34.925243 
L 62.16887 36.333403 
L 62.300477 39.422219 
L 62.366281 34.356151 
L 62.399182 36.887628 
L 62.432085 47.349013 
L 62.514339 42.247796 
L 62.580143 40.545433 
L 62.613044 42.690013 
L 62.629495 42.903329 
L 62.645947 42.774382 
L 62.744651 47.96267 
L 62.777554 46.905688 
L 62.876258 49.937774 
L 62.974964 46.013243 
L 62.991416 48.09565 
L 63.007865 48.211537 
L 63.073669 50.590106 
L 63.09012 48.876305 
L 63.221727 31.025957 
L 63.303982 34.565876 
L 63.320434 42.160917 
L 63.402688 29.088773 
L 63.517844 42.424936 
L 63.550745 35.28559 
L 63.567197 36.276533 
L 63.600099 33.934711 
L 63.61655 34.604584 
L 63.633 32.679289 
L 63.698804 37.75598 
L 63.79751 33.309645 
L 63.748158 38.855329 
L 63.830411 33.892497 
L 63.846862 27.821873 
L 63.929117 37.516067 
L 63.962018 34.60448 
L 64.027823 37.696631 
L 64.060724 41.801829 
L 64.126528 37.962822 
L 64.15943 37.433697 
L 64.323938 54.727083 
L 64.34039 54.605704 
L 64.373291 56.405748 
L 64.389742 45.231354 
L 64.471997 57.714343 
L 64.603604 52.492128 
L 64.521349 58.740469 
L 64.636507 52.664424 
L 64.70231 53.44189 
L 64.735211 47.055972 
L 64.768114 55.698613 
L 64.833917 44.914087 
L 64.850369 49.161948 
L 64.866818 44.057328 
L 64.916172 49.809547 
L 64.965524 47.432204 
L 64.981976 48.948264 
L 65.047779 45.648163 
L 65.064229 44.437722 
L 65.130032 46.922075 
L 65.212287 46.746601 
L 65.228739 48.674415 
L 65.245188 42.248385 
L 65.310993 49.267643 
L 65.343896 46.118918 
L 65.376795 53.930621 
L 65.393247 44.615149 
L 65.459052 51.167828 
L 65.574208 56.516349 
L 65.60711 53.988609 
L 65.640013 53.00857 
L 65.672912 55.137362 
L 65.689364 55.106147 
L 65.903227 66.472577 
L 65.969029 63.653974 
L 65.985481 63.304141 
L 66.001932 64.817214 
L 66.034834 67.879674 
L 66.100636 65.508645 
L 66.14999 61.702075 
L 66.199341 65.484286 
L 66.3145 71.539955 
L 66.232243 65.40445 
L 66.330948 71.190364 
L 66.347399 68.069876 
L 66.413204 72.542101 
L 66.429656 70.97329 
L 66.52836 73.590667 
L 66.544812 71.700564 
L 66.561263 69.445915 
L 66.610614 75.149853 
L 66.643516 71.916316 
L 66.659967 73.291959 
L 66.725773 70.605173 
L 66.742224 71.189795 
L 66.85738 67.464408 
L 66.890279 68.524803 
L 66.923182 72.972583 
L 67.005438 69.226451 
L 67.07124 67.915822 
L 67.120594 68.509708 
L 67.186396 73.118651 
L 67.23575 70.926063 
L 67.252201 70.427565 
L 67.268652 71.179609 
L 67.350906 76.363835 
L 67.383808 74.218546 
L 67.498964 70.300358 
L 67.515415 80.094795 
L 67.61412 77.630836 
L 67.745727 75.249075 
L 67.77863 78.696801 
L 67.877334 68.779584 
L 67.893785 69.577769 
L 67.910237 68.894333 
L 67.943139 69.999301 
L 67.976042 69.380565 
L 68.107649 79.304044 
L 68.321509 70.36734 
L 68.140548 79.854595 
L 68.337961 70.519127 
L 68.354412 72.236068 
L 68.387315 69.650217 
L 68.420214 71.483936 
L 68.551821 61.237108 
L 68.568273 64.418295 
L 68.584724 64.342194 
L 68.617626 58.50128 
L 68.634078 63.09784 
L 68.666977 54.387697 
L 68.749234 70.676033 
L 68.880841 62.576577 
L 68.897292 65.860604 
L 68.979545 60.249089 
L 68.995996 53.189194 
L 69.061802 62.377865 
L 69.07825 61.153115 
L 69.144055 60.530622 
L 69.160506 63.342665 
L 69.176957 60.527466 
L 69.226308 67.060758 
L 69.259211 64.978891 
L 69.357915 68.539097 
L 69.308565 63.668406 
L 69.390818 68.237723 
L 69.456623 74.363525 
L 69.42372 66.056378 
L 69.522425 70.331945 
L 69.670483 72.700489 
L 69.621133 70.252557 
L 69.686935 72.628102 
L 69.719837 73.040564 
L 69.736288 71.623914 
L 69.802091 73.238412 
L 69.867896 68.038887 
L 69.9666 74.028509 
L 70.015954 71.078289 
L 70.032405 69.434106 
L 70.098207 72.762286 
L 70.13111 70.431357 
L 70.213363 68.199622 
L 70.229815 69.173019 
L 70.246266 71.307112 
L 70.262717 71.168274 
L 70.279168 59.419338 
L 70.34497 74.285145 
L 70.361422 72.392319 
L 70.377873 72.945674 
L 70.394324 68.093195 
L 70.476578 71.729315 
L 70.493029 72.250239 
L 70.542383 74.870187 
L 70.608185 58.107991 
L 70.756243 62.355709 
L 70.822048 61.40085 
L 70.854951 62.224954 
L 70.88785 59.478564 
L 70.970107 60.495147 
L 71.003006 62.003457 
L 71.035909 59.508156 
L 71.118165 54.104877 
L 71.151065 58.807482 
L 71.249772 58.518983 
L 71.480084 72.247363 
L 71.529438 70.453128 
L 71.562337 72.466769 
L 71.693944 80.114058 
L 71.611691 72.34544 
L 71.710396 75.500022 
L 71.726847 73.732662 
L 71.776201 77.938151 
L 71.792652 76.193917 
L 71.858454 80.970323 
L 71.924259 79.061135 
L 72.088769 75.68162 
L 72.006512 79.593583 
L 72.105217 76.223294 
L 72.121668 76.111352 
L 72.236827 67.938759 
L 72.302629 68.864022 
L 72.335532 70.69261 
L 72.384883 70.147606 
L 72.450688 65.225776 
L 72.500042 68.944769 
L 72.51649 69.367759 
L 72.549392 67.738099 
L 72.681 63.983976 
L 72.796155 60.249345 
L 72.845509 61.298635 
L 72.878412 61.444929 
L 72.894863 62.352187 
L 72.927762 60.732308 
L 73.059373 55.459318 
L 73.174529 59.833763 
L 73.207428 58.498307 
L 73.223879 56.149829 
L 73.306136 56.422144 
L 73.355486 61.230662 
L 73.40484 58.907452 
L 73.470645 52.80637 
L 73.536447 54.450775 
L 73.56935 54.640884 
L 73.585801 53.291083 
L 73.668054 58.017521 
L 73.700957 56.822537 
L 73.78321 54.682998 
L 73.750308 57.747285 
L 73.799662 56.2644 
L 73.865467 57.308617 
L 73.881918 55.643421 
L 73.898366 55.122405 
L 73.914818 49.241207 
L 73.997074 57.060692 
L 74.029973 55.166217 
L 74.062876 54.516288 
L 74.161581 43.025213 
L 74.178032 44.348177 
L 74.27674 54.473511 
L 74.309639 53.885304 
L 74.342542 53.916477 
L 74.408347 51.459731 
L 74.424798 41.042856 
L 74.457697 51.499206 
L 74.507051 48.150536 
L 74.688012 55.421863 
L 74.704463 54.148456 
L 74.737363 47.204637 
L 74.836071 50.122618 
L 74.967678 63.401411 
L 75.165087 70.175518 
L 75.197989 69.973594 
L 75.346048 64.509808 
L 75.362499 64.498522 
L 75.378951 65.294475 
L 75.428301 63.282678 
L 75.527009 61.002222 
L 75.477655 63.564018 
L 75.543457 62.843435 
L 75.740869 48.383339 
L 75.625713 63.768554 
L 75.773772 55.690493 
L 75.823123 60.447584 
L 75.839574 52.777559 
L 75.872476 53.893089 
L 75.888928 53.975231 
L 75.905379 47.314996 
L 75.95473 55.988546 
L 76.004084 48.691521 
L 76.217947 56.23213 
L 76.250847 55.937214 
L 76.349554 53.329181 
L 76.366002 54.303159 
L 76.431807 53.434485 
L 76.481161 57.028974 
L 76.530512 55.296403 
L 76.563415 57.71555 
L 76.579866 55.90806 
L 76.727924 60.279409 
L 76.925334 51.48586 
L 76.941785 53.064392 
L 76.991139 49.384109 
L 77.024041 52.165079 
L 77.073392 52.406521 
L 77.122746 49.804704 
L 77.22145 55.582948 
L 77.237902 54.282824 
L 77.254353 49.837503 
L 77.336606 56.509136 
L 77.38596 55.444461 
L 77.435314 58.271733 
L 77.451765 55.905087 
L 77.534018 59.605314 
L 77.698528 54.290973 
L 77.76433 51.675929 
L 77.780781 55.164605 
L 77.813684 57.04352 
L 77.863038 53.6059 
L 77.879486 54.629018 
L 77.994645 50.922423 
L 78.043996 51.202922 
L 78.126252 53.88298 
L 78.142704 53.743735 
L 78.159152 51.125553 
L 78.224957 55.204315 
L 78.241408 56.620886 
L 78.274311 53.71486 
L 78.290759 54.78798 
L 78.389467 45.09256 
L 78.405918 52.21775 
L 78.488171 49.572262 
L 78.521074 52.946808 
L 78.570424 47.604639 
L 78.603327 40.853985 
L 78.685583 44.346094 
L 78.899444 54.280003 
L 78.932346 53.483151 
L 79.047502 49.806514 
L 78.965249 53.845589 
L 79.063953 51.263285 
L 79.096856 53.989209 
L 79.162658 53.156672 
L 79.277814 43.644704 
L 79.212012 59.006571 
L 79.294265 49.856214 
L 79.425872 59.441965 
L 79.36007 49.780003 
L 79.442324 53.61055 
L 79.491677 56.801484 
L 79.541028 56.282255 
L 79.639736 66.034681 
L 79.573931 54.139853 
L 79.656184 64.268255 
L 79.705538 65.664835 
L 79.721989 63.470575 
L 79.754892 63.605897 
L 79.870048 52.31707 
L 80.001655 66.873283 
L 80.051009 69.096182 
L 80.083908 66.618651 
L 80.149713 52.028364 
L 80.199067 54.54647 
L 80.215515 54.581486 
L 80.231966 52.600152 
L 80.248418 57.082311 
L 80.314223 54.154138 
L 80.528083 75.810536 
L 80.544534 67.343113 
L 80.626788 75.951829 
L 80.643239 71.912456 
L 80.709044 80.365895 
L 80.774846 75.348398 
L 80.8242 76.670503 
L 80.873554 67.200004 
L 80.955807 77.625048 
L 80.98871 74.259704 
L 81.005161 74.234535 
L 81.070963 67.14777 
L 81.120317 67.164821 
L 81.169668 73.1641 
L 81.235473 69.943373 
L 81.334177 73.519977 
L 81.36708 73.39086 
L 81.449333 55.189289 
L 81.482236 59.426878 
L 81.498687 59.084324 
L 81.548041 54.161584 
L 81.597392 59.299801 
L 81.613843 58.701144 
L 81.630294 59.911582 
L 81.679648 63.07928 
L 81.74545 60.804431 
L 81.942862 51.466867 
L 81.975765 56.719425 
L 82.041567 54.583603 
L 82.058018 60.082854 
L 82.090921 64.742072 
L 82.173174 54.839131 
L 82.206077 52.833989 
L 82.222528 63.072288 
L 82.321232 58.224432 
L 82.337684 57.941999 
L 82.370586 45.677474 
L 82.436388 52.138827 
L 82.485742 61.647279 
L 82.502193 47.852859 
L 82.551544 55.528434 
L 82.633801 49.543327 
L 82.584447 57.629176 
L 82.650252 55.526925 
L 82.683151 55.041386 
L 82.748956 57.82293 
L 82.765408 52.373811 
L 82.781859 52.561683 
L 82.79831 46.455836 
L 82.83121 56.175093 
L 82.897015 50.315002 
L 82.946369 48.059715 
L 83.012171 58.035825 
L 83.061524 48.710589 
L 83.143778 55.975593 
L 83.291836 62.936938 
L 83.308287 60.884911 
L 83.324739 59.976105 
L 83.357641 63.13715 
L 83.423443 69.846729 
L 83.456346 59.658286 
L 83.472797 53.760002 
L 83.505697 64.229855 
L 83.555051 56.03978 
L 83.571502 60.110206 
L 83.653755 55.347505 
L 83.752463 60.596283 
L 83.736012 52.9006 
L 83.801814 60.50616 
L 83.851167 58.00105 
L 83.88407 60.635751 
L 83.916969 59.400833 
L 84.032128 67.381541 
L 84.04858 67.369994 
L 84.114382 64.588691 
L 84.147284 66.417425 
L 84.163735 68.729981 
L 84.245989 64.952915 
L 84.311794 71.715493 
L 84.278891 64.116976 
L 84.328242 64.703049 
L 84.344693 62.266773 
L 84.361145 67.89038 
L 84.42695 65.190631 
L 84.459852 67.315924 
L 84.509203 63.527721 
L 84.525654 63.708779 
L 84.542106 64.27612 
L 84.624359 73.221801 
L 84.673713 71.881619 
L 84.723067 68.834955 
L 84.772417 72.697637 
L 85.002732 61.079404 
L 85.084985 65.841763 
L 85.101437 63.13391 
L 85.117888 60.661925 
L 85.200141 64.58778 
L 85.233044 60.770846 
L 85.249495 70.20096 
L 85.265946 71.014752 
L 85.3482 69.702069 
L 85.496258 61.210049 
L 85.627865 67.867794 
L 85.644317 66.181536 
L 85.72657 61.019937 
L 85.743021 67.955222 
L 85.808826 66.590997 
L 85.792375 69.981597 
L 85.825278 67.591787 
L 85.841726 69.192716 
L 85.891079 64.066291 
L 85.907531 62.796055 
L 85.989784 64.680933 
L 86.088492 71.753703 
L 86.121391 70.506255 
L 86.26945 65.652719 
L 86.285901 66.729036 
L 86.302352 67.573828 
L 86.368157 65.390699 
L 86.384609 65.297776 
L 86.532664 58.464804 
L 86.549115 59.003632 
L 86.828781 48.732566 
L 86.845232 48.942545 
L 86.927488 51.589299 
L 86.960388 49.96836 
L 86.976839 48.017618 
L 87.042644 52.440043 
L 87.108446 54.151352 
L 87.1578 50.389372 
L 87.223602 54.055636 
L 87.272956 52.620512 
L 87.32231 43.535161 
L 87.371661 58.04084 
L 87.552622 48.794558 
L 87.421014 58.525024 
L 87.585524 51.014507 
L 87.601976 52.55786 
L 87.618427 50.385324 
L 87.70068 52.006683 
L 87.717131 52.363071 
L 87.86519 45.334331 
L 87.881641 46.175725 
L 87.91454 42.321597 
L 87.930992 42.358917 
L 87.947443 41.893025 
L 87.963894 43.38221 
L 88.144855 53.268967 
L 88.177755 50.151943 
L 88.194206 48.049702 
L 88.227109 50.277493 
L 88.292914 49.219037 
L 88.391618 45.61531 
L 88.40807 47.042919 
L 88.473872 53.817708 
L 88.556128 52.244798 
L 88.687735 43.448827 
L 88.78644 52.665206 
L 88.802891 47.068247 
L 88.868693 42.147726 
L 88.901596 47.869741 
L 89.066105 41.111239 
L 89.082557 44.673823 
L 89.115459 46.317409 
L 89.148359 44.296922 
L 89.181261 42.09241 
L 89.230615 47.006642 
L 89.312868 44.643975 
L 89.345771 46.737004 
L 89.378673 48.454383 
L 89.428024 46.420148 
L 89.444475 46.032713 
L 89.477378 47.184578 
L 89.493829 47.943016 
L 89.526732 46.000346 
L 89.608985 40.60286 
L 89.641888 41.90116 
L 89.773495 49.575468 
L 89.822845 51.64683 
L 89.855748 50.205269 
L 89.905102 46.08757 
L 89.970904 47.246179 
L 89.987355 47.280334 
L 90.020258 43.274634 
L 90.05316 52.165413 
L 90.086063 45.201592 
L 90.102511 50.553964 
L 90.184768 43.03504 
L 90.201219 47.772894 
L 90.21767 49.994049 
L 90.25057 41.650297 
L 90.267021 42.396892 
L 90.283472 40.688502 
L 90.332826 43.457588 
L 90.382177 41.855171 
L 90.415079 43.795506 
L 90.464433 39.799329 
L 90.480884 40.756919 
L 90.497336 40.425022 
L 90.513784 40.978986 
L 90.579589 45.875874 
L 90.628943 43.823045 
L 90.678294 39.604748 
L 90.744099 42.950137 
L 90.777001 43.827707 
L 90.793449 42.629144 
L 90.826352 38.322617 
L 90.859254 43.156261 
L 90.892157 42.346692 
L 91.007313 48.236321 
L 90.957959 41.542184 
L 91.089566 48.019658 
L 91.106017 45.904992 
L 91.171823 49.767838 
L 91.204722 46.600677 
L 91.237625 49.776229 
L 91.286978 53.313635 
L 91.30343 47.118714 
L 91.336329 49.858529 
L 91.467939 40.187318 
L 91.484388 40.356783 
L 91.500839 39.490895 
L 91.533741 41.750011 
L 91.566641 47.077505 
L 91.648901 43.823981 
L 91.747602 46.322519 
L 91.681797 43.536471 
L 91.780504 44.570688 
L 91.862758 41.521077 
L 91.879212 41.85472 
L 92.010816 59.008323 
L 92.027271 43.029801 
L 92.076621 60.777005 
L 92.109524 57.174823 
L 92.191777 60.431354 
L 92.22468 59.664232 
L 92.422089 49.425284 
L 92.438543 49.386226 
L 92.586602 55.957287 
L 92.60305 55.864481 
L 92.685303 55.955986 
L 92.718206 52.93327 
L 92.751108 50.59399 
L 92.833362 51.998875 
L 92.849816 52.834033 
L 92.866264 51.606244 
L 92.964972 37.17625 
L 92.98142 38.700469 
L 92.997874 43.918364 
L 93.014323 38.563535 
L 93.080128 39.651271 
L 93.096576 39.71918 
L 93.11303 36.742054 
L 93.162381 45.125263 
L 93.178835 41.314172 
L 93.211732 40.244226 
L 93.261089 52.1737 
L 93.277537 35.589431 
L 93.293991 53.117516 
L 93.376245 42.584209 
L 93.425595 51.751373 
L 93.458498 36.366633 
L 93.474946 37.481755 
L 93.4914 37.992285 
L 93.573654 58.70217 
L 93.606556 58.13846 
L 93.672361 53.089477 
L 93.655907 58.72008 
L 93.688809 57.469932 
L 93.73816 67.817094 
L 93.82042 67.388033 
L 93.853322 68.063527 
L 93.919121 65.495388 
L 93.952024 74.308542 
L 94.001381 73.248061 
L 94.116537 62.472422 
L 94.132985 61.534018 
L 94.149433 46.858759 
L 94.248141 49.558948 
L 94.264595 48.709342 
L 94.281043 52.94937 
L 94.297491 66.35965 
L 94.313946 48.006775 
L 94.396199 58.121905 
L 94.412654 53.214547 
L 94.44555 62.812595 
L 94.478452 61.662345 
L 94.675868 71.837782 
L 94.692316 70.470248 
L 94.791024 53.666895 
L 94.823926 54.854577 
L 94.856822 62.710618 
L 94.889725 52.547157 
L 94.922628 54.509219 
L 94.95553 55.433135 
L 95.070686 49.464247 
L 95.08714 57.964003 
L 95.103589 47.116344 
L 95.185842 57.25513 
L 95.28455 54.800706 
L 95.251647 58.652989 
L 95.300998 55.27406 
L 95.449056 60.144642 
L 95.580666 46.054395 
L 95.597115 46.963557 
L 95.613569 61.808887 
L 95.71227 53.443346 
L 95.778076 57.34095 
L 95.810978 56.176038 
L 95.975485 41.448097 
L 95.991939 41.704312 
L 96.04129 42.288164 
L 96.090641 40.265077 
L 96.222251 50.336454 
L 96.238699 51.871778 
L 96.255153 48.599546 
L 96.337407 34.272781 
L 96.353855 47.741939 
L 96.370309 47.64949 
L 96.41966 50.801961 
L 96.501913 50.006987 
L 96.55127 49.589925 
L 96.699329 55.959019 
L 96.781582 50.011916 
L 96.830933 52.079168 
L 96.863835 53.856266 
L 96.88029 50.668782 
L 96.896738 51.207518 
L 96.913186 51.057423 
L 96.962543 53.038628 
L 96.995446 49.780009 
L 97.011894 48.016015 
L 97.044796 49.944875 
L 97.094147 49.70981 
L 97.209303 55.07934 
L 97.225757 54.702494 
L 97.291562 39.57369 
L 97.390264 39.794742 
L 97.406718 37.944449 
L 97.456069 43.264072 
L 97.472517 42.404125 
L 97.521874 36.588885 
L 97.538322 45.930874 
L 97.63703 42.21226 
L 97.702835 50.772299 
L 97.719283 39.264104 
L 97.768634 37.222843 
L 97.900244 51.374506 
L 97.982497 54.953969 
L 98.0154 52.493394 
L 98.031848 51.994868 
L 98.048303 53.502911 
L 98.081205 54.675759 
L 98.114108 51.583095 
L 98.147004 50.05129 
L 98.196361 53.313635 
L 98.229264 53.595257 
L 98.278614 56.121558 
L 98.327965 53.298554 
L 98.344419 53.43111 
L 98.459575 59.183171 
L 98.492478 58.261165 
L 98.52538 55.823014 
L 98.574731 57.60989 
L 98.739238 67.337101 
L 98.755692 65.174536 
L 98.821491 69.806212 
L 98.854394 70.317909 
L 98.870848 69.403355 
L 98.903751 69.990149 
L 98.920199 65.309145 
L 98.953101 78.257182 
L 98.986004 77.460157 
L 99.15051 62.500254 
L 99.249218 64.196442 
L 99.282121 74.70757 
L 99.298569 63.305667 
L 99.364374 72.163192 
L 99.430179 59.964681 
L 99.495984 61.041053 
L 99.528881 62.867101 
L 99.578237 59.590299 
L 99.594686 60.926674 
L 99.693393 56.642513 
L 99.660491 63.14145 
L 99.742744 57.837928 
L 99.759199 62.091063 
L 99.8579 60.298278 
L 99.890803 61.613078 
L 99.907257 57.136894 
L 99.98951 63.583572 
L 100.055315 65.684423 
L 100.088212 63.263555 
L 100.137569 63.879404 
L 100.154017 64.933253 
L 100.203368 61.17202 
L 100.219822 57.922713 
L 100.285627 65.396384 
L 100.31853 65.660535 
L 100.351426 65.360256 
L 100.36788 65.511078 
L 100.433685 69.37328 
L 100.483036 67.255736 
L 100.515939 66.291609 
L 100.565289 67.2942 
L 100.598192 66.797983 
L 100.647543 71.679052 
L 100.713348 70.733707 
L 100.779153 65.70568 
L 100.861406 66.918818 
L 100.877861 68.576887 
L 100.910757 66.444519 
L 101.042367 59.8899 
L 101.157523 52.124192 
L 101.091718 62.782646 
L 101.206874 55.439285 
L 101.223328 56.364048 
L 101.239777 53.415164 
L 101.305582 49.154721 
L 101.338484 53.586766 
L 101.371387 53.294547 
L 101.387835 54.190151 
L 101.404289 50.509621 
L 101.502991 52.912114 
L 101.535893 48.684311 
L 101.568796 54.966804 
L 101.585244 53.565067 
L 101.601698 53.777369 
L 101.618147 53.157617 
L 101.667504 61.821371 
L 101.700406 50.827314 
L 101.716854 52.764561 
L 101.733302 53.053289 
L 101.749757 53.022473 
L 101.799108 45.20148 
L 101.881361 50.76037 
L 101.914263 52.345738 
L 101.930718 51.449835 
L 102.144575 30.582069 
L 101.96362 52.413596 
L 102.243283 31.765163 
L 102.374893 36.1551 
L 102.391341 33.371323 
L 102.506497 27.987583 
L 102.522952 29.732853 
L 102.621653 41.026276 
L 102.638107 33.235562 
L 102.703906 42.87679 
L 102.753263 37.426671 
L 102.769711 35.668403 
L 102.819062 35.687933 
L 102.884867 47.838436 
L 102.851965 33.54499 
L 102.950672 42.586099 
L 102.967121 42.057722 
L 103.000023 42.769409 
L 103.016478 45.017951 
L 103.032926 37.86108 
L 103.082276 38.921549 
L 103.098731 38.726603 
L 103.115179 39.466625 
L 103.279692 46.519951 
L 103.312594 45.571383 
L 103.329042 36.696565 
L 103.411296 47.444449 
L 103.42775 48.629144 
L 103.444198 59.038054 
L 103.477101 39.743002 
L 103.526452 42.080923 
L 103.575809 48.024794 
L 103.641608 43.110745 
L 103.658062 43.187663 
L 103.67451 41.642742 
L 103.789666 62.951821 
L 103.80612 42.070335 
L 103.888374 60.219853 
L 103.954179 62.823017 
L 103.970627 61.547145 
L 104.036432 42.521502 
L 104.085783 50.748836 
L 104.13514 42.946543 
L 104.168042 46.910591 
L 104.233841 64.704588 
L 104.283198 58.178012 
L 104.332549 61.13131 
L 104.414802 42.268467 
L 104.529958 57.163681 
L 104.546412 56.058064 
L 104.628666 38.705688 
L 104.645114 60.393454 
L 104.793172 46.253725 
L 104.809627 46.428021 
L 104.858977 48.090083 
L 104.89188 46.271957 
L 104.908328 45.845471 
L 104.941231 47.777223 
L 104.957685 41.626832 
L 105.023484 55.657803 
L 105.072841 52.528795 
L 105.089289 58.88485 
L 105.171542 53.061399 
L 105.253802 47.110435 
L 105.27025 54.909873 
L 105.286698 55.241963 
L 105.303153 53.439664 
L 105.352503 46.35499 
L 105.385406 57.862405 
L 105.40186 56.851512 
L 105.418309 58.999435 
L 105.484114 53.416109 
L 105.500562 54.041144 
L 105.549919 52.024949 
L 105.566367 47.833047 
L 105.632172 52.118214 
L 105.665075 48.76774 
L 105.681523 48.926232 
L 105.813133 57.804348 
L 105.829581 56.759077 
L 105.895386 48.367951 
L 105.961191 53.805167 
L 106.010542 56.872921 
L 106.043445 51.126168 
L 106.257302 57.895895 
L 106.323107 55.229654 
L 106.372464 56.10521 
L 106.421815 55.054358 
L 106.48762 57.303598 
L 106.536971 53.564033 
L 106.602776 54.546039 
L 106.685029 58.821261 
L 106.73438 58.313017 
L 106.86599 52.960429 
L 106.997594 59.863726 
L 107.079847 50.825794 
L 107.11275 58.220964 
L 107.145653 58.948158 
L 107.24436 62.705097 
L 107.293711 60.910996 
L 107.425321 46.736622 
L 107.458224 54.249848 
L 107.49112 51.22959 
L 107.507575 44.125473 
L 107.57338 59.148077 
L 107.589828 59.063326 
L 107.606282 62.988865 
L 107.62273 57.206869 
L 107.688536 61.00622 
L 107.787237 45.434663 
L 107.803691 47.766476 
L 107.82014 48.101499 
L 107.918847 39.778285 
L 107.984653 55.820135 
L 108.034003 43.856409 
L 108.083354 50.624884 
L 108.099808 40.493297 
L 108.165607 49.138284 
L 108.132711 39.861132 
L 108.214964 49.056067 
L 108.297217 54.349251 
L 108.379471 51.387128 
L 108.428828 49.499317 
L 108.511081 49.823177 
L 108.527529 50.309955 
L 108.626237 61.908491 
L 108.609782 46.015906 
L 108.642685 54.571952 
L 108.757841 48.054183 
L 108.774295 48.135406 
L 108.8401 55.944763 
L 108.872997 55.917333 
L 108.889451 46.351681 
L 108.955256 57.791557 
L 108.971704 56.161739 
L 109.021055 57.324301 
L 109.119763 48.923882 
L 109.152665 49.43566 
L 109.300724 41.171404 
L 109.317172 44.674056 
L 109.399425 40.654313 
L 109.432328 52.728097 
L 109.448782 46.077189 
L 109.514587 57.160331 
L 109.580386 64.911424 
L 109.563938 56.543517 
L 109.629743 60.115583 
L 109.761347 47.667831 
L 109.810698 64.540648 
L 109.876503 62.636851 
L 109.975211 46.234523 
L 109.991659 46.647925 
L 110.156172 52.61643 
L 110.205522 51.765804 
L 110.337133 49.375558 
L 110.435834 59.363246 
L 110.468737 57.661739 
L 110.55099 47.621802 
L 110.501639 58.474157 
L 110.567445 58.02378 
L 110.583893 57.714372 
L 110.666146 61.703109 
L 110.6826 56.777734 
L 110.715503 57.396725 
L 110.731951 55.07608 
L 110.797756 57.560402 
L 110.814204 57.516001 
L 110.830659 62.803458 
L 110.880009 50.725552 
L 110.896464 54.348838 
L 110.92936 49.038234 
L 111.01162 52.965272 
L 111.028068 52.93954 
L 111.06097 50.098135 
L 111.126776 51.672332 
L 111.143224 52.802438 
L 111.209029 50.389004 
L 111.241931 50.840978 
L 111.25838 50.518483 
L 111.307737 47.773327 
L 111.324185 52.581558 
L 111.340633 51.071702 
L 111.406438 59.286199 
L 111.455795 55.350389 
L 111.538048 56.649237 
L 111.587399 52.636498 
L 111.669652 58.809475 
L 111.719009 54.463477 
L 111.751906 52.491381 
L 111.784808 56.123942 
L 111.817711 56.431362 
L 111.965769 52.366934 
L 111.982224 52.853359 
L 112.048022 63.514258 
L 112.031574 51.005255 
L 112.097379 56.978521 
L 112.14673 57.203431 
L 112.196081 54.541087 
L 112.294789 61.181163 
L 112.311237 56.4192 
L 112.344139 62.136222 
L 112.442847 58.74713 
L 112.47575 56.06675 
L 112.5251 61.774267 
L 112.541555 61.920211 
L 112.558003 61.287547 
L 112.706061 55.964747 
L 112.837665 63.323057 
L 112.870568 61.520793 
L 113.018626 56.235192 
L 113.035081 57.231515 
L 113.100886 54.861416 
L 113.117334 54.527534 
L 113.133782 56.342193 
L 113.150236 58.375923 
L 113.216042 55.812693 
L 113.380548 45.534661 
L 113.396996 47.649203 
L 113.479256 53.519888 
L 113.528607 51.391018 
L 113.676665 46.67245 
L 113.709568 49.702324 
L 113.775373 47.849642 
L 113.98923 34.156168 
L 114.038587 34.700313 
L 114.137288 38.043143 
L 114.203094 34.813735 
L 114.268899 49.565325 
L 114.301801 37.954112 
L 114.384055 44.427168 
L 114.49921 40.574491 
L 114.416957 45.631425 
L 114.515659 40.600393 
L 114.565016 51.709425 
L 114.745977 50.263371 
L 114.762425 50.358259 
L 114.778873 49.927171 
L 114.894029 45.223437 
L 114.943386 46.0734 
L 114.959834 45.701316 
L 115.009191 51.660308 
L 115.091444 51.651047 
L 115.272405 62.149022 
L 115.305301 59.46234 
L 115.338204 57.237249 
L 115.387561 62.04591 
L 115.420464 60.759465 
L 115.45336 63.54024 
L 115.601418 69.609002 
L 115.634321 68.088676 
L 115.700126 69.754605 
L 115.733028 72.440592 
L 115.798834 69.675427 
L 115.848184 72.021244 
L 115.864633 69.729453 
L 115.96334 65.13349 
L 116.045594 66.48763 
L 116.243009 76.464158 
L 116.078496 66.368497 
L 116.259457 75.276287 
L 116.29236 67.360049 
L 116.325262 75.888979 
L 116.358165 69.042546 
L 116.407516 78.339385 
L 116.473321 70.806623 
L 116.637827 75.81284 
L 116.654282 74.198835 
L 116.703632 76.582271 
L 116.736535 75.640864 
L 116.752983 76.719643 
L 116.818788 74.878976 
L 116.835236 74.603783 
L 116.933944 67.89425 
L 116.950398 72.650387 
L 116.999749 70.986001 
L 117.0491 72.540748 
L 117.082002 75.981686 
L 117.147808 72.411568 
L 117.18071 74.457287 
L 117.295866 71.545051 
L 117.230061 76.200441 
L 117.328769 72.527905 
L 117.345217 78.088955 
L 117.361671 70.561356 
L 117.42747 72.946102 
L 117.443925 73.619375 
L 117.476827 70.888594 
L 117.493275 71.132525 
L 117.526178 73.464652 
L 117.624885 71.946084 
L 117.657782 69.033409 
L 117.707139 70.310958 
L 117.740041 75.387551 
L 117.822295 72.866432 
L 117.871645 74.850521 
L 117.8881 72.879677 
L 117.953899 64.409408 
L 118.003256 71.409747 
L 118.052606 71.787567 
L 118.069054 70.633514 
L 118.085509 72.680413 
L 118.13486 70.036215 
L 118.167762 70.069048 
L 118.184217 71.037003 
L 118.233567 68.560615 
L 118.26647 69.560724 
L 118.282918 68.89788 
L 118.332269 70.921938 
L 118.398074 74.508375 
L 118.463879 74.397573 
L 118.529684 70.588538 
L 118.546132 77.719046 
L 118.628386 69.763943 
L 118.694191 71.674752 
L 118.727093 71.401414 
L 118.875152 63.426485 
L 118.908054 65.1662 
L 118.940957 67.726891 
L 118.990308 65.014312 
L 119.006762 59.324881 
L 119.089015 66.76939 
L 119.105463 66.802346 
L 119.237074 53.084048 
L 119.286424 54.163568 
L 119.302872 60.967866 
L 119.319327 52.184466 
L 119.385132 60.018449 
L 119.40158 52.110858 
L 119.483833 54.298899 
L 119.549639 63.702595 
L 119.582541 56.203353 
L 119.829307 47.297778 
L 119.862204 48.886057 
L 119.993814 58.496856 
L 120.010262 58.112326 
L 120.026717 59.324895 
L 120.043165 59.099994 
L 120.059619 61.328003 
L 120.076067 56.062263 
L 120.141872 59.300815 
L 120.158321 58.701704 
L 120.207678 60.052856 
L 120.24058 59.569404 
L 120.273476 63.425643 
L 120.339281 59.745352 
L 120.372184 59.871841 
L 120.405087 54.217112 
L 120.454437 61.974485 
L 120.470892 62.520985 
L 120.536691 54.684874 
L 120.569593 66.259112 
L 120.586048 66.580142 
L 120.684749 56.678106 
L 120.734106 58.110915 
L 120.799905 69.875788 
L 120.832807 59.971756 
L 120.915067 55.366182 
L 120.964418 58.249963 
L 121.030223 61.875182 
L 121.096022 59.522801 
L 121.178281 54.195629 
L 121.211184 56.786251 
L 121.227632 56.385525 
L 121.24408 60.043445 
L 121.309885 54.080805 
L 121.32634 44.127946 
L 121.359236 56.305046 
L 121.425041 51.1391 
L 121.589554 65.252755 
L 121.688255 63.159751 
L 121.786963 67.098288 
L 121.836314 64.183291 
L 122.017275 51.881142 
L 122.066626 56.925747 
L 122.115983 68.930268 
L 122.181781 67.198183 
L 122.198236 67.241247 
L 122.296943 58.988991 
L 122.32984 60.239317 
L 122.379197 66.330548 
L 122.362742 59.996643 
L 122.46145 62.753763 
L 122.527255 65.121768 
L 122.560158 60.984708 
L 122.609508 56.730553 
L 122.675314 64.703514 
L 122.79047 56.967878 
L 122.806918 57.351038 
L 122.922074 66.159875 
L 123.053684 55.918743 
L 123.070132 59.076632 
L 123.103035 52.334323 
L 123.152385 54.817409 
L 123.234645 50.339602 
L 123.201742 55.57099 
L 123.251093 50.684877 
L 123.366249 57.605799 
L 123.382703 57.049814 
L 123.415599 56.129805 
L 123.54721 58.992039 
L 123.563658 58.028936 
L 123.613015 60.451255 
L 123.629463 60.727003 
L 123.711716 53.363597 
L 123.744619 55.738042 
L 123.777521 58.687637 
L 123.826872 55.739851 
L 124.007833 46.890756 
L 124.024288 46.883517 
L 124.05719 45.92591 
L 124.139444 57.123178 
L 124.155892 58.093123 
L 124.271047 46.985475 
L 124.30395 51.115712 
L 124.386203 48.444128 
L 124.402658 48.262607 
L 124.419106 48.835808 
L 124.501365 62.726307 
L 124.484911 47.460228 
L 124.534262 55.366716 
L 124.550716 54.860535 
L 124.583619 57.126349 
L 124.600067 55.533001 
L 124.715223 60.544649 
L 124.731677 59.397044 
L 124.748125 58.725983 
L 124.81393 60.462521 
L 124.830379 60.568195 
L 124.879736 66.785197 
L 124.994891 49.552655 
L 125.011339 54.772181 
L 125.06069 49.787831 
L 125.126495 52.502113 
L 125.340359 73.626591 
L 125.422612 71.019802 
L 125.439067 73.725072 
L 125.504866 77.97593 
L 125.52132 77.842731 
L 125.537768 58.53309 
L 125.554223 80.231013 
L 125.636476 62.505948 
L 125.702281 74.50078 
L 125.751632 71.401158 
L 125.76808 72.120421 
L 125.784534 71.512138 
L 125.89969 85.490103 
L 125.916138 84.533688 
L 125.981943 76.422357 
L 126.014846 80.870152 
L 126.031294 83.206657 
L 126.097099 78.890398 
L 126.113554 80.554864 
L 126.130002 77.206841 
L 126.195807 83.329658 
L 126.245158 84.630231 
L 126.27806 83.03806 
L 126.310963 83.792718 
L 126.426119 66.23047 
L 126.491924 68.412616 
L 126.524826 66.549507 
L 126.574177 81.27454 
L 126.639982 79.3374 
L 126.65643 79.854718 
L 126.689333 77.545646 
L 126.755138 60.911045 
L 126.804489 61.932537 
L 126.886742 75.433083 
L 126.837391 60.802151 
L 126.919645 66.366814 
L 126.969002 66.439259 
L 127.0348 44.44557 
L 127.051255 53.720347 
L 127.133508 44.864768 
L 127.149956 40.898589 
L 127.182859 44.880131 
L 127.248664 42.397056 
L 127.265112 42.48937 
L 127.380274 51.799944 
L 127.396722 51.587705 
L 127.511878 40.135469 
L 127.544781 40.606681 
L 127.659937 61.746065 
L 127.676385 54.853796 
L 127.74219 53.421966 
L 127.8738 68.912996 
L 128.021859 57.789267 
L 128.054761 62.313118 
L 128.104112 57.282126 
L 128.137015 60.795277 
L 128.317976 68.773805 
L 128.400229 66.328954 
L 128.531833 62.200107 
L 128.433131 67.030137 
L 128.548287 62.559086 
L 128.564735 62.238185 
L 128.729248 76.170615 
L 128.778599 72.800755 
L 128.795047 73.493294 
L 128.82795 74.007588 
L 128.926657 60.475548 
L 129.041813 65.821848 
L 129.058261 63.604466 
L 129.124066 59.608278 
L 129.140521 62.183642 
L 129.156969 68.640982 
L 129.222774 57.920858 
L 129.239222 58.518558 
L 129.288579 51.588889 
L 129.321476 59.964399 
L 129.33793 60.317596 
L 129.354378 59.793602 
L 129.403735 60.06089 
L 129.420183 58.939928 
L 129.436638 59.756762 
L 129.453086 69.029991 
L 129.535339 62.504652 
L 129.551794 61.052037 
L 129.568242 68.174777 
L 129.584696 67.636708 
L 129.66695 76.391139 
L 129.683398 66.081506 
L 129.699852 65.550334 
L 129.7163 76.483235 
L 129.765651 55.28682 
L 129.782105 63.629383 
L 129.815008 51.411591 
L 129.864359 75.377382 
L 129.897261 58.865332 
L 130.160475 79.816904 
L 130.193378 77.67339 
L 130.242729 78.491427 
L 130.357885 74.943847 
L 130.374339 75.344302 
L 130.390787 76.597897 
L 130.456592 73.220623 
L 130.47304 73.057955 
L 130.505943 60.075471 
L 130.588196 67.051532 
L 130.769157 62.445946 
L 130.80206 56.534265 
L 130.884313 60.680827 
L 130.900768 67.430406 
L 130.983021 59.194506 
L 130.999469 59.04747 
L 131.098177 67.84735 
L 131.131079 65.354537 
L 131.147527 65.398814 
L 131.163982 66.482597 
L 131.213333 63.242037 
L 131.246235 65.343874 
L 131.262683 59.438466 
L 131.344943 67.044396 
L 131.427196 71.399389 
L 131.476547 68.420456 
L 131.5588 70.993975 
L 131.624605 66.016383 
L 131.673956 67.064162 
L 131.69041 68.767477 
L 131.739761 63.516797 
L 131.756215 64.277858 
L 131.789118 63.713717 
L 131.822014 67.533736 
L 131.93717 57.810665 
L 131.986527 54.261524 
L 132.002975 54.659788 
L 132.06878 68.473103 
L 132.118131 63.422348 
L 132.151034 61.894726 
L 132.167488 62.964428 
L 132.200391 65.875096 
L 132.26619 62.54697 
L 132.331995 64.052052 
L 132.348443 52.78331 
L 132.447151 59.315582 
L 132.463605 59.46743 
L 132.480053 58.166381 
L 132.496501 60.385707 
L 132.512956 66.496213 
L 132.562307 54.384371 
L 132.595209 59.801766 
L 132.611664 59.787377 
L 132.726819 66.612673 
L 132.874878 45.252079 
L 132.973579 58.364424 
L 132.940677 44.880952 
L 132.990034 50.721786 
L 133.006482 50.18716 
L 133.055832 59.977619 
L 133.039384 48.342024 
L 133.121638 54.732521 
L 133.138092 53.343747 
L 133.220345 34.289005 
L 133.253248 42.219341 
L 133.269696 54.200848 
L 133.368404 51.27992 
L 133.401306 48.624083 
L 133.450657 51.431411 
L 133.48356 50.878735 
L 133.516462 49.842366 
L 133.631618 55.55962 
L 133.648066 54.559147 
L 133.730319 53.372938 
L 133.713871 54.932282 
L 133.746774 54.074463 
L 133.812579 61.263119 
L 133.878378 60.359779 
L 133.894832 57.822026 
L 133.944183 60.900437 
L 133.977086 60.003965 
L 133.993534 60.073917 
L 134.009988 59.816539 
L 134.174495 53.435924 
L 134.207397 52.839373 
L 134.223852 53.149754 
L 134.355456 60.080662 
L 134.37191 58.846764 
L 134.404806 61.494684 
L 134.437709 60.362649 
L 134.454163 61.220651 
L 134.503514 58.76411 
L 134.602222 55.970518 
L 134.651572 57.195758 
L 134.898339 48.847453 
L 134.931241 51.392827 
L 134.964138 52.837606 
L 135.095748 59.310923 
L 135.112196 57.910482 
L 135.145099 48.977891 
L 135.227352 55.124091 
L 135.293157 67.312477 
L 135.342514 64.46988 
L 135.358962 64.881599 
L 135.45767 60.002265 
L 135.474118 62.40538 
L 135.638624 70.029718 
L 135.819585 75.610904 
L 135.852488 73.978369 
L 136.148605 52.418875 
L 136.230858 57.210962 
L 136.296663 63.287739 
L 136.362469 61.139974 
L 136.378917 61.205487 
L 136.46117 54.9897 
L 136.510527 58.541851 
L 136.526975 59.192403 
L 136.54343 57.450893 
L 136.59278 58.627185 
L 136.658585 60.755745 
L 136.72439 56.33249 
L 136.757287 58.356677 
L 136.806644 55.721619 
L 136.855994 52.569229 
L 136.888897 56.289276 
L 136.905345 56.200934 
L 136.987605 62.915193 
L 137.036955 62.166418 
L 137.069858 51.867759 
L 137.135663 64.904815 
L 137.152111 58.161334 
L 137.234365 67.455676 
L 137.283722 66.854853 
L 137.333072 64.056182 
L 137.34952 69.38828 
L 137.431774 61.426178 
L 137.448228 61.918936 
L 137.563384 70.701931 
L 137.579832 70.375452 
L 137.694994 47.960151 
L 137.777248 49.565251 
L 137.875949 67.813991 
L 137.826598 49.265382 
L 137.908852 59.113526 
L 137.925306 59.186888 
L 137.991105 51.281261 
L 138.122715 52.227269 
L 138.139163 51.954696 
L 138.204968 59.825722 
L 138.18852 48.840343 
L 138.254319 57.047022 
L 138.303676 60.946199 
L 138.369481 58.652196 
L 138.385929 58.231963 
L 138.468183 65.313692 
L 138.51754 63.728824 
L 138.550436 61.149226 
L 138.632695 65.849441 
L 138.714949 55.483341 
L 138.780754 57.886169 
L 138.846553 67.4372 
L 138.89591 61.814632 
L 138.945261 62.312259 
L 138.961709 61.154836 
L 139.109767 65.884477 
L 139.126222 64.515404 
L 139.14267 63.641812 
L 139.192027 66.541851 
L 139.208475 65.41062 
L 139.224923 66.532748 
L 139.241377 57.456069 
L 139.307183 71.39701 
L 139.323631 68.888533 
L 139.455241 60.627648 
L 139.471689 66.816192 
L 139.504592 59.473402 
L 139.553942 60.833389 
L 139.619747 55.708121 
L 139.685553 56.92541 
L 139.767806 55.280075 
L 139.800708 63.740242 
L 139.817157 64.024042 
L 139.833611 62.685681 
L 139.850059 62.01281 
L 139.866514 63.363485 
L 139.882962 62.839324 
L 139.981669 51.556297 
L 139.932312 63.530488 
L 139.998118 54.667053 
L 140.063923 57.503905 
L 140.096825 49.410341 
L 140.146176 59.638667 
L 140.211981 55.704442 
L 140.244884 54.416824 
L 140.261332 50.680577 
L 140.294234 59.766336 
L 140.327137 58.262461 
L 140.343585 59.318472 
L 140.36004 51.837494 
L 140.458741 55.904771 
L 140.491644 53.582052 
L 140.508098 54.077714 
L 140.656156 46.447692 
L 140.590351 54.433884 
L 140.672605 46.872093 
L 140.721955 49.051465 
L 140.754858 52.059281 
L 140.771312 47.396418 
L 140.820663 49.017687 
L 140.870014 45.966602 
L 140.853566 51.696407 
L 140.886468 48.166651 
L 140.952273 54.515562 
L 140.985176 53.268042 
L 141.050975 46.611484 
L 141.083877 49.997988 
L 141.100332 54.150748 
L 141.182585 51.917609 
L 141.24839 49.516165 
L 141.281286 52.121699 
L 141.297741 53.076999 
L 141.330643 48.625878 
L 141.379994 45.484946 
L 141.429345 45.859615 
L 141.478702 39.654508 
L 141.544501 52.60328 
L 141.560955 52.515708 
L 141.87352 25.477607 
L 141.906423 26.449496 
L 141.955773 37.891494 
L 142.021579 30.68816 
L 142.103832 26.581422 
L 142.120286 27.902487 
L 142.284793 40.944237 
L 142.301247 38.68658 
L 142.3835 32.362206 
L 142.416403 36.860893 
L 142.482208 33.105687 
L 142.515104 37.04595 
L 142.531559 38.337031 
L 142.564461 35.029266 
L 142.613812 27.468271 
L 142.663163 36.456597 
L 142.679617 37.256503 
L 142.728968 35.589055 
L 142.745422 33.910461 
L 142.778325 37.758761 
L 142.794773 36.008978 
L 142.893481 44.311994 
L 142.909929 39.979551 
L 142.942832 34.455666 
L 143.008637 38.989556 
L 143.025085 40.933807 
L 143.09089 36.946515 
L 143.107338 40.017768 
L 143.173143 38.545846 
L 143.156695 40.041457 
L 143.189598 39.658352 
L 143.321202 43.753455 
L 143.354104 46.636015 
L 143.403455 43.520692 
L 143.436358 44.201307 
L 143.46926 43.338516 
L 143.518611 49.043543 
L 143.584416 45.036732 
L 143.683124 36.785501 
L 143.633767 46.419826 
L 143.716026 41.600815 
L 143.732474 42.558767 
L 143.765377 38.762817 
L 143.831182 42.13127 
L 143.896981 46.431331 
L 143.946338 43.814743 
L 143.995689 42.346829 
L 144.045039 42.956597 
L 144.061494 43.68679 
L 144.094396 41.408896 
L 144.143747 35.968337 
L 144.17665 42.568746 
L 144.209546 38.967791 
L 144.226 38.957976 
L 144.242455 38.817354 
L 144.324702 40.947175 
L 144.30826 37.757988 
L 144.357611 40.531553 
L 144.390507 32.74314 
L 144.456312 36.658877 
L 144.505663 57.314597 
L 144.587922 52.003779 
L 144.735975 43.711117 
L 144.620819 52.398041 
L 144.785338 47.669377 
L 144.884039 51.182895 
L 144.93339 49.883937 
L 145.097896 40.048067 
L 145.114351 39.904087 
L 145.130805 40.386321 
L 145.147247 45.445463 
L 145.213052 35.458683 
L 145.328208 32.10947 
L 145.344663 33.403869 
L 145.361117 38.012689 
L 145.443364 30.948499 
L 145.459818 29.525201 
L 145.492727 32.024931 
L 145.55852 39.110763 
L 145.607883 34.953199 
L 145.624325 32.338824 
L 145.673676 39.101312 
L 145.706585 41.209195 
L 145.723039 39.138951 
L 145.739481 33.951294 
L 145.838195 35.502543 
L 146.052052 42.007645 
L 146.084948 39.421739 
L 146.134312 42.426993 
L 146.167208 41.251473 
L 146.282364 48.560568 
L 146.315273 48.545195 
L 146.331715 48.128216 
L 146.39752 44.20765 
L 146.364623 50.379867 
L 146.44687 45.580972 
L 146.463325 45.754432 
L 146.496221 43.855766 
L 146.512676 51.3466 
L 146.52913 51.890297 
L 146.562026 43.603587 
L 146.644286 43.668052 
L 146.742987 59.854841 
L 146.710091 36.899517 
L 146.759442 47.854284 
L 146.825247 50.148459 
L 146.874597 48.691515 
L 146.891052 49.180048 
L 146.907494 48.00425 
L 146.956857 43.361755 
L 147.006208 44.747466 
L 147.137818 52.016148 
L 147.15426 50.918005 
L 147.187169 52.676225 
L 147.203611 55.545712 
L 147.302325 54.43805 
L 147.351675 52.96076 
L 147.36813 54.298117 
L 147.499728 60.216526 
L 147.565533 58.401419 
L 147.549091 62.098831 
L 147.581987 61.201474 
L 147.664247 65.18033 
L 147.697143 62.510862 
L 147.812299 57.873329 
L 147.878104 62.953593 
L 147.927455 62.17993 
L 147.976805 60.298023 
L 148.009714 62.507694 
L 148.026156 64.825243 
L 148.075519 58.863758 
L 148.108416 61.436272 
L 148.12487 60.274902 
L 148.141312 65.471655 
L 148.157766 62.681852 
L 148.289377 68.37253 
L 148.404533 65.44563 
L 148.420987 66.750756 
L 148.601948 51.89325 
L 148.700649 42.424827 
L 148.717104 55.399351 
L 148.782909 38.344804 
L 148.799351 45.630623 
L 148.848701 38.426502 
L 148.865156 48.209899 
L 148.898065 48.198352 
L 149.013221 55.63245 
L 149.062571 53.283344 
L 149.227078 39.246742 
L 149.358688 58.136748 
L 149.37513 57.291402 
L 149.440935 59.339292 
L 149.45739 57.532699 
L 149.523195 69.139009 
L 149.539649 57.372165 
L 149.556091 58.029381 
L 149.572545 58.057618 
L 149.638351 61.532653 
L 149.704156 60.53835 
L 149.769961 57.998404 
L 149.737052 60.684552 
L 149.835766 58.975772 
L 150.08252 74.41771 
L 150.098974 73.35344 
L 150.115428 61.468743 
L 150.131883 74.886204 
L 150.197688 69.101445 
L 150.21413 73.261622 
L 150.230584 61.169052 
L 150.263481 61.545269 
L 150.279935 61.278808 
L 150.296389 69.115224 
L 150.34574 59.283686 
L 150.395091 66.53594 
L 150.411545 68.354209 
L 150.428 61.540966 
L 150.47735 64.576672 
L 150.493792 64.487756 
L 150.526701 64.604182 
L 150.559597 62.424873 
L 150.625403 72.350573 
L 150.641857 51.003899 
L 150.658311 50.990258 
L 150.674753 51.215679 
L 150.773467 67.802019 
L 150.789909 67.399434 
L 150.937974 52.721898 
L 150.987324 65.35932 
L 151.05313 64.370405 
L 151.086026 63.581682 
L 151.250545 72.962848 
L 151.266987 73.035802 
L 151.365701 68.437194 
L 151.447948 69.303262 
L 151.645363 77.993042 
L 151.661818 78.49079 
L 151.711169 77.334323 
L 151.908571 66.602838 
L 151.974376 67.955503 
L 152.023727 60.55293 
L 152.089532 66.38155 
L 152.204688 59.190539 
L 152.221143 64.865059 
L 152.303402 63.69589 
L 152.319844 59.473476 
L 152.385649 67.340729 
L 152.402104 69.067776 
L 152.418558 67.422837 
L 152.51726 45.471083 
L 152.533714 64.460435 
L 152.615961 43.451151 
L 152.632415 59.929828 
L 152.64887 61.303472 
L 152.665324 59.158269 
L 152.698221 37.680461 
L 152.764026 57.292714 
L 152.796922 59.412654 
L 152.813376 55.124959 
L 152.829831 56.409092 
L 152.879181 49.40769 
L 152.944987 55.066178 
L 152.961428 53.513976 
L 153.010792 57.563093 
L 153.027234 58.272747 
L 153.125948 40.416063 
L 153.142389 42.034963 
L 153.175298 54.412326 
L 153.257545 49.142361 
L 153.274 48.81275 
L 153.306909 50.011822 
L 153.32335 39.956459 
L 153.339805 51.865972 
L 153.422064 42.310633 
L 153.438506 43.568726 
L 153.48787 40.566486 
L 153.520766 39.017388 
L 153.53722 41.979543 
L 153.603025 47.026394 
L 153.668818 45.756787 
L 153.701727 47.860695 
L 153.718181 50.735824 
L 153.767532 47.38475 
L 153.816883 49.288161 
L 153.915584 36.277053 
L 153.948493 40.831097 
L 154.014298 44.009518 
L 154.03074 40.91687 
L 154.063649 35.574385 
L 154.145896 40.124559 
L 154.195247 38.194882 
L 154.178805 44.669747 
L 154.24461 38.57539 
L 154.359766 44.361003 
L 154.392662 44.23905 
L 154.425571 45.92165 
L 154.442013 45.232041 
L 154.458467 48.507547 
L 154.540727 45.462776 
L 154.557168 45.413173 
L 154.573623 48.71569 
L 154.622974 48.309329 
L 154.655882 37.281933 
L 154.721688 52.342041 
L 154.738129 51.445903 
L 154.771038 54.88614 
L 154.984896 63.222478 
L 155.034246 62.026248 
L 155.067155 62.325909 
L 155.083597 62.093166 
L 155.198753 55.991892 
L 155.215207 61.22043 
L 155.281013 49.422449 
L 155.297467 47.93468 
L 155.313909 50.893049 
L 155.363272 59.346838 
L 155.412623 50.868474 
L 155.429065 47.325665 
L 155.478428 52.525966 
L 155.49487 50.667509 
L 155.62648 56.649237 
L 155.642934 59.145584 
L 155.659389 56.327187 
L 155.741636 58.421923 
L 155.971948 67.79376 
L 155.988402 66.02488 
L 156.070662 68.400164 
L 156.120012 67.367555 
L 156.136454 68.887327 
L 156.152909 68.427025 
L 156.235168 71.374136 
L 156.202259 66.287581 
L 156.284519 69.807114 
L 156.728688 57.823396 
L 156.745142 57.851024 
L 156.843844 72.685851 
L 156.860298 61.350283 
L 156.909649 64.678687 
L 156.991908 63.492616 
L 157.008363 61.606064 
L 157.024805 64.127263 
L 157.09061 63.97736 
L 157.107064 64.54618 
L 157.22222 58.927729 
L 157.320921 62.963078 
L 157.35383 62.675102 
L 157.386727 64.226931 
L 157.436077 61.35298 
L 157.584142 69.195442 
L 157.666389 67.416207 
L 157.617038 69.31371 
L 157.682843 68.273135 
L 157.863805 74.547706 
L 157.913155 69.394856 
L 157.97896 70.191811 
L 158.044766 73.02669 
L 158.077662 70.487753 
L 158.094116 70.072145 
L 158.225727 61.336673 
L 158.275077 61.033251 
L 158.357337 64.61012 
L 158.439584 64.18093 
L 158.55474 72.741911 
L 158.752155 63.425471 
L 158.768609 63.74283 
L 158.81796 58.96448 
L 158.834415 68.273451 
L 158.998921 61.648471 
L 159.015363 67.64411 
L 159.048272 60.0056 
L 159.114077 63.60735 
L 159.130519 63.765086 
L 159.163428 63.528103 
L 159.212778 70.651326 
L 159.278584 70.315525 
L 159.295038 62.307212 
L 159.360843 73.427582 
L 159.377285 73.279004 
L 159.39374 74.510087 
L 159.426636 72.156074 
L 159.44309 72.841028 
L 159.65696 59.601847 
L 159.673402 59.225029 
L 159.706311 53.671709 
L 159.739207 61.674516 
L 159.772116 61.133413 
L 159.854363 66.70869 
L 159.936622 65.416888 
L 159.953064 64.430506 
L 160.002428 67.611455 
L 160.018869 65.969702 
L 160.051778 67.462437 
L 160.101129 65.137457 
L 160.117583 62.288038 
L 160.183389 66.654155 
L 160.216285 63.917026 
L 160.380791 50.158656 
L 160.512402 52.188275 
L 160.627558 60.448147 
L 160.561752 50.438923 
L 160.693363 56.991395 
L 160.709817 55.24842 
L 160.775622 58.261838 
L 160.824973 59.589943 
L 160.808519 57.063593 
L 160.841415 59.086082 
L 160.857869 57.114267 
L 160.923674 60.39483 
L 160.956571 64.59532 
L 161.022376 62.51526 
L 161.088181 55.824295 
L 161.153986 56.478406 
L 161.170441 57.697852 
L 161.219791 55.476447 
L 161.269142 52.487141 
L 161.302051 54.377965 
L 161.318493 57.329287 
L 161.400752 52.483717 
L 161.482999 55.70223 
L 161.532362 69.134295 
L 161.581713 66.332645 
L 161.614609 54.786748 
L 161.696869 60.887281 
L 161.713323 60.468869 
L 161.729765 61.758968 
L 161.74622 62.792364 
L 161.779116 59.918445 
L 161.894272 57.122569 
L 161.910726 59.771035 
L 161.976532 55.999338 
L 161.992986 57.978004 
L 162.091687 54.031487 
L 162.124596 55.740541 
L 162.141038 58.713292 
L 162.173947 46.83594 
L 162.190389 47.651593 
L 162.223298 46.436857 
L 162.256194 45.0024 
L 162.321999 55.899541 
L 162.338453 45.025595 
L 162.437155 46.701503 
L 162.470064 53.49926 
L 162.519414 43.119438 
L 162.552311 50.761898 
L 162.58522 51.224658 
L 162.601661 44.664987 
L 162.63457 55.391678 
L 162.683921 54.894367 
L 162.815531 59.316642 
L 162.733272 53.813982 
L 162.848428 57.690251 
L 162.930687 60.050397 
L 162.947142 49.133444 
L 162.963583 56.827762 
L 163.045843 51.506958 
L 163.062297 50.9688 
L 163.078739 51.780268 
L 163.111648 39.131864 
L 163.193895 43.208285 
L 163.276155 34.893821 
L 163.309051 37.441203 
L 163.358414 40.222699 
L 163.391311 37.222857 
L 163.407765 37.773882 
L 163.490012 28.310351 
L 163.506466 33.027899 
L 163.638077 51.083247 
L 163.670973 42.651771 
L 163.736778 54.230932 
L 163.753233 53.159033 
L 163.769687 40.363978 
L 163.868388 49.56864 
L 163.884843 49.740704 
L 163.917739 51.746251 
L 163.999999 51.56833 
L 164.23031 31.507142 
L 164.361908 50.96693 
L 164.509973 55.511592 
L 164.608674 53.806543 
L 164.575778 56.365527 
L 164.625129 54.347332 
L 164.756739 61.533291 
L 164.789635 60.720051 
L 164.80609 59.404728 
L 164.822544 61.513367 
L 164.85544 61.225397 
L 164.888349 63.201411 
L 164.921246 60.121638 
L 164.970596 62.058986 
L 165.118661 54.222688 
L 165.135103 54.474709 
L 165.168012 52.637578 
L 165.184453 55.237935 
L 165.233817 53.943036 
L 165.398323 59.883176 
L 165.56283 64.677989 
L 165.612181 63.472273 
L 165.628635 62.04078 
L 165.661531 65.619464 
L 165.809596 71.148715 
L 165.858947 67.7371 
L 165.924752 68.518434 
L 165.957648 68.170221 
L 165.974103 68.529356 
L 166.023453 70.180206 
L 166.039908 69.087711 
L 166.072804 66.021244 
L 166.122167 73.79935 
L 166.171518 72.44208 
L 166.237323 72.943246 
L 166.270219 73.209411 
L 166.286674 73.089992 
L 166.566336 62.750086 
L 166.582791 63.505715 
L 166.632141 61.080377 
L 166.681492 59.557667 
L 166.714388 61.725581 
L 166.780194 64.567583 
L 166.796648 63.739886 
L 166.829544 67.367817 
L 166.911804 65.369755 
L 167.043414 56.47281 
L 167.059868 57.02216 
L 167.224375 67.20936 
L 167.240817 62.16481 
L 167.257271 78.570755 
L 167.323077 68.506565 
L 167.438232 71.831623 
L 167.355985 68.480368 
L 167.487583 70.575135 
L 167.717895 52.093278 
L 167.767258 69.5793 
L 167.816609 55.172476 
L 167.86596 52.499832 
L 167.882414 69.019144 
L 167.981115 65.463248 
L 168.096271 60.006123 
L 168.112726 61.747871 
L 168.145622 61.989896 
L 168.194973 65.239659 
L 168.260778 62.554194 
L 168.277232 63.156129 
L 168.293687 61.988224 
L 168.343037 64.115026 
L 168.408842 48.940744 
L 168.425284 61.901698 
L 168.474635 45.060043 
L 168.507544 47.035043 
L 168.523998 45.401474 
L 168.573349 51.312615 
L 168.589803 51.659794 
L 168.6227 43.719315 
L 168.688505 54.000018 
L 168.721401 53.341952 
L 168.787206 52.7084 
L 168.803661 54.099658 
L 168.820115 44.742451 
L 168.918817 48.020643 
L 168.935271 48.137701 
L 169.017518 56.745852 
L 169.001076 47.373929 
L 169.050427 53.601036 
L 169.066869 54.110418 
L 169.099778 52.232523 
L 169.132674 50.5676 
L 169.149128 59.490887 
L 169.24783 55.824849 
L 169.330089 57.28638 
L 169.346544 56.723383 
L 169.428791 39.77495 
L 169.494596 49.900669 
L 169.543947 53.15398 
L 169.593297 50.944734 
L 169.659102 46.896312 
L 169.708453 49.789968 
L 169.774258 52.276999 
L 169.790713 50.630684 
L 169.872972 43.3722 
L 169.889414 43.499473 
L 169.922323 53.893267 
L 169.988128 49.213455 
L 170.00457 45.644834 
L 170.037479 51.561022 
L 170.070375 51.32428 
L 170.169089 57.26895 
L 170.201985 53.979635 
L 170.251336 50.775123 
L 170.333596 58.470713 
L 170.415843 46.519247 
L 170.448752 53.736714 
L 170.465206 53.730251 
L 170.547453 65.364056 
L 170.596804 62.286593 
L 170.613258 63.36264 
L 170.629713 60.076353 
L 170.646167 63.28582 
L 170.662609 56.299637 
L 170.744868 65.342923 
L 170.860024 54.348585 
L 170.777765 65.750497 
L 170.909375 56.25673 
L 170.97518 64.789055 
L 171.040985 62.018248 
L 171.073881 54.92552 
L 171.10679 63.490559 
L 171.172595 58.863482 
L 171.189037 61.684871 
L 171.271297 59.127524 
L 171.287751 59.243795 
L 171.369998 63.080116 
L 171.402907 61.765994 
L 171.419349 60.937693 
L 171.435804 51.466396 
L 171.452258 61.524777 
L 171.534505 57.09979 
L 171.567414 55.729214 
L 171.60031 52.821882 
L 171.649661 54.757299 
L 171.748375 59.715369 
L 171.81418 53.833418 
L 171.863531 53.863283 
L 171.912881 55.430567 
L 171.929336 53.070473 
L 171.945778 53.862373 
L 171.962232 53.248345 
L 171.995141 55.216308 
L 172.011583 54.824367 
L 172.060933 55.978581 
L 172.077388 54.847358 
L 172.126739 52.097072 
L 172.208998 52.783557 
L 172.274803 56.771363 
L 172.35705 54.183418 
L 172.389959 44.98199 
L 172.472206 51.831263 
L 172.505115 50.760329 
L 172.587375 58.102881 
L 172.620271 50.395174 
L 172.686076 59.882874 
L 172.751881 64.147905 
L 172.768323 58.618611 
L 172.801232 63.008774 
L 172.817686 58.283014 
L 172.916388 61.845376 
L 172.932842 61.786909 
L 172.949284 63.653207 
L 172.998647 58.052324 
L 173.19605 52.734465 
L 173.245401 55.304721 
L 173.311206 54.989077 
L 173.344115 52.426442 
L 173.442816 52.520928 
L 173.459271 52.643337 
L 173.475713 52.359805 
L 173.508621 47.841656 
L 173.590868 51.082529 
L 173.607323 52.539967 
L 173.640232 50.099388 
L 173.755387 44.284005 
L 173.788284 46.577528 
L 173.837634 43.213892 
L 173.854089 43.66688 
L 173.886985 42.118645 
L 173.90344 41.30394 
L 173.936348 41.484667 
L 174.002141 51.544634 
L 174.051504 45.162437 
L 174.199557 35.382977 
L 174.133751 47.718112 
L 174.216011 38.020152 
L 174.347621 43.297569 
L 174.364063 42.303394 
L 174.380518 43.348154 
L 174.462777 41.927685 
L 174.512128 37.743838 
L 174.545024 42.142056 
L 174.561479 43.275467 
L 174.577933 39.382216 
L 174.610829 42.136891 
L 174.709531 37.598511 
L 174.725985 39.454469 
L 174.824686 48.804537 
L 174.775336 38.58728 
L 174.906946 45.562711 
L 174.9234 43.66638 
L 174.989206 45.925456 
L 175.005647 49.058807 
L 175.087907 45.571171 
L 175.104361 45.933715 
L 175.137258 44.725325 
L 175.235959 39.762745 
L 175.285322 40.247888 
L 175.41692 44.009052 
L 175.351115 38.074997 
L 175.433375 43.074859 
L 175.482725 44.798864 
L 175.532076 39.25114 
L 175.647232 47.728194 
L 175.663686 41.411964 
L 175.745946 47.897808 
L 175.762388 43.637009 
L 175.910452 56.680358 
L 175.795297 41.652707 
L 175.926907 55.126329 
L 175.959803 33.340409 
L 176.058505 38.088756 
L 176.206569 49.266204 
L 176.272374 46.152845 
L 176.288829 52.443289 
L 176.305271 42.400003 
L 176.38753 49.210477 
L 176.403985 49.064616 
L 176.436881 49.40428 
L 176.535582 56.270714 
L 176.584933 51.109568 
L 176.601387 50.86349 
L 176.617842 58.56621 
L 176.716543 55.33376 
L 176.732998 55.319001 
L 176.782349 56.723656 
L 176.848154 54.21025 
L 176.913959 54.849817 
L 176.930413 53.932902 
L 177.029115 50.365533 
L 176.96331 55.026127 
L 177.09492 51.950832 
L 177.111374 54.098667 
L 177.144271 48.734689 
L 177.160725 49.026414 
L 177.210076 42.15747 
L 177.292323 46.48353 
L 177.423933 54.897518 
L 177.440387 54.725405 
L 177.456842 54.911551 
L 177.473284 50.847485 
L 177.555543 55.472063 
L 177.637803 69.510248 
L 177.604894 53.45806 
L 177.687153 64.289253 
L 177.818751 46.124648 
L 177.950361 56.806304 
L 178.049075 60.244789 
L 177.98327 56.465002 
L 178.065517 60.049417 
L 178.131322 60.421903 
L 178.164231 54.672608 
L 178.180673 61.479434 
L 178.262933 50.208302 
L 178.279387 47.695376 
L 178.312284 54.404766 
L 178.361634 51.266882 
L 178.410985 49.514338 
L 178.427439 56.005488 
L 178.443894 46.753203 
L 178.509699 48.162781 
L 178.542595 47.460174 
L 178.55905 48.803449 
L 178.575504 48.321313 
L 178.641297 55.846361 
L 178.69066 49.547395 
L 178.740011 48.513493 
L 178.838712 51.933956 
L 178.855166 51.942511 
L 178.970322 44.007079 
L 179.003219 46.986377 
L 179.019673 46.984673 
L 179.069024 45.502089 
L 179.085478 46.000935 
L 179.101933 52.332082 
L 179.184179 41.501351 
L 179.200634 48.839622 
L 179.282894 38.015826 
L 179.299335 46.647686 
L 179.332244 47.847045 
L 179.348686 43.935915 
L 179.36514 43.12493 
L 179.414491 45.444648 
L 179.463842 48.770194 
L 179.546102 48.416508 
L 179.562556 48.256558 
L 179.57901 48.32447 
L 179.759959 56.02372 
L 179.842218 52.081903 
L 179.908024 52.531481 
L 180.056076 45.547139 
L 180.105439 46.547688 
L 180.20414 52.252275 
L 180.237037 50.353773 
L 180.335751 44.623669 
L 180.401556 46.148057 
L 180.483803 44.971977 
L 180.549608 49.425339 
L 180.664764 45.141947 
L 180.69766 45.190326 
L 180.714114 44.757244 
L 180.812828 33.30485 
L 180.82927 39.3445 
L 180.845725 38.560898 
L 180.862179 40.571843 
L 180.944426 43.993199 
L 180.927984 37.360445 
L 180.960881 42.791312 
L 180.977335 39.507053 
L 181.059582 45.084206 
L 181.076037 40.682501 
L 181.092491 40.89944 
L 181.125387 40.145399 
L 181.207647 47.133889 
L 181.240543 44.548863 
L 181.306348 48.113696 
L 181.322803 46.250752 
L 181.372153 55.39472 
L 181.355699 45.795546 
L 181.503764 53.499355 
L 181.520205 49.039131 
L 181.602465 55.694526 
L 181.635374 56.21405 
L 181.66827 54.701741 
L 181.684725 44.454434 
L 181.766972 56.869928 
L 181.783426 55.568318 
L 181.849231 58.950666 
L 181.865686 60.155784 
L 181.931491 58.064961 
L 182.046647 51.872771 
L 182.079543 55.404835 
L 182.112439 59.399176 
L 182.194699 56.742031 
L 182.260504 59.141352 
L 182.2934 56.54103 
L 182.309855 55.760588 
L 182.408556 66.008691 
L 182.42501 65.163592 
L 182.441465 65.815252 
L 182.474361 64.939334 
L 182.490816 65.203347 
L 182.523712 66.095059 
L 182.638868 58.811009 
L 182.704673 58.350739 
L 182.721127 59.602599 
L 182.770478 57.655212 
L 182.803387 59.244473 
L 182.885634 56.399113 
L 182.902088 46.442953 
L 182.951439 58.181976 
L 183.00079 48.654175 
L 183.017244 48.892103 
L 183.033699 47.250612 
L 183.115945 48.899624 
L 183.1324 57.318926 
L 183.214659 50.611467 
L 183.231101 50.136679 
L 183.247556 50.260591 
L 183.26401 62.224667 
L 183.346257 51.032369 
L 183.527218 59.876299 
L 183.543673 59.702385 
L 183.675283 55.357602 
L 183.625932 60.108611 
L 183.691737 57.555662 
L 183.75753 54.769076 
L 183.741088 58.912731 
L 183.823335 55.579217 
L 183.83979 62.253097 
L 183.938491 58.043353 
L 183.9714 52.467596 
L 184.020751 61.072208 
L 184.037205 61.254697 
L 184.119452 57.301926 
L 184.152361 59.97485 
L 184.168803 59.735175 
L 184.218166 61.445415 
L 184.267517 60.368236 
L 184.349764 58.293306 
L 184.333322 62.424296 
L 184.382672 59.621104 
L 184.547179 53.817659 
L 184.695231 46.985219 
L 184.761036 41.9272 
L 184.826841 43.696453 
L 184.958452 47.588182 
L 185.073608 43.422782 
L 185.090062 44.307982 
L 185.106504 43.626843 
L 185.122958 45.356246 
L 185.172309 49.034069 
L 185.221672 47.064644 
L 185.320374 40.62555 
L 185.369724 40.904774 
L 185.451984 54.199696 
L 185.517777 48.454779 
L 185.600036 49.598336 
L 185.632945 44.834613 
L 185.665841 44.169661 
L 185.780997 49.225264 
L 185.797452 50.456701 
L 185.863257 47.31668 
L 185.879698 46.498976 
L 185.912607 48.4832 
L 185.978412 52.663692 
L 186.027763 52.306221 
L 186.093568 55.77275 
L 186.142919 54.752128 
L 186.159373 50.081546 
L 186.258075 51.583034 
L 186.274529 50.528161 
L 186.307426 54.17609 
L 186.373231 64.161047 
L 186.406127 57.844029 
L 186.439036 48.541331 
L 186.521283 53.495836 
L 186.554192 55.259494 
L 186.570646 53.887091 
L 186.702244 59.869629 
L 186.899659 53.100718 
L 186.916114 54.662417 
L 186.932556 52.395829 
L 186.94901 52.552356 
L 186.981919 47.961656 
L 186.998361 57.470274 
L 187.014815 57.138115 
L 187.097075 56.856608 
L 187.146425 65.069175 
L 187.228672 50.700253 
L 187.278036 56.881257 
L 187.327386 59.075701 
L 187.343828 56.666128 
L 187.360283 56.820885 
L 187.458984 48.241442 
L 187.475439 52.652084 
L 187.491893 53.518512 
L 187.541244 46.368445 
L 187.607049 48.857705 
L 187.639945 54.094659 
L 187.70575 48.624235 
L 187.722205 52.049782 
L 187.755101 50.30471 
L 187.771556 53.28013 
L 187.820906 52.370298 
L 187.91962 56.084603 
L 187.952517 55.046229 
L 188.001867 49.096831 
L 188.067672 52.538335 
L 188.117023 54.429188 
L 188.232179 45.479735 
L 188.265088 49.582029 
L 188.314438 43.032685 
L 188.347335 46.548285 
L 188.446049 54.340163 
L 188.462491 54.108453 
L 188.478945 49.007162 
L 188.54475 56.205456 
L 188.561205 55.546686 
L 188.67636 51.907377 
L 188.692802 52.402514 
L 188.709257 55.643504 
L 188.791516 52.421943 
L 188.807958 52.081457 
L 188.824412 52.742534 
L 188.857321 54.988577 
L 188.890218 52.404171 
L 188.923126 53.087849 
L 188.939568 52.392529 
L 188.972477 54.485886 
L 188.988919 54.197657 
L 189.153438 62.599822 
L 189.235685 67.026569 
L 189.25214 62.952866 
L 189.449555 50.920277 
L 189.696309 68.823094 
L 189.729218 56.922834 
L 189.762114 72.682757 
L 189.811464 63.930797 
L 189.87727 60.562867 
L 189.910178 62.671477 
L 189.992425 66.667426 
L 190.041776 64.558075 
L 190.058231 64.210598 
L 190.124036 69.608155 
L 190.107581 60.898394 
L 190.173386 68.622156 
L 190.189841 62.055237 
L 190.206295 69.867687 
L 190.288542 66.622075 
L 190.337893 64.006694 
L 190.453049 60.006416 
L 190.485958 61.100499 
L 190.502412 62.254082 
L 190.568217 60.231613 
L 190.584659 60.154606 
L 190.732724 53.929354 
L 190.749166 54.404723 
L 190.782075 53.12898 
L 190.798529 60.068629 
L 190.880776 50.931365 
L 190.930127 46.696278 
L 190.995932 46.773365 
L 191.028841 54.456227 
L 191.111088 51.310265 
L 191.143997 43.92198 
L 191.160438 50.984409 
L 191.292049 56.793346 
L 191.308503 56.766557 
L 191.341399 50.098669 
L 191.423659 53.182969 
L 191.440113 53.176047 
L 191.588166 46.595923 
L 191.505919 53.743508 
L 191.60462 49.355105 
L 191.621074 49.457781 
L 191.637516 48.940353 
L 191.769127 55.723762 
L 191.802035 53.630302 
L 191.834932 57.370241 
L 191.867828 56.502966 
L 192.09814 49.254136 
L 192.114594 46.699303 
L 192.180399 52.184926 
L 192.22975 54.755989 
L 192.262659 51.903809 
L 192.279101 51.941031 
L 192.328464 52.543773 
L 192.344906 51.140634 
L 192.36136 51.102754 
L 192.410711 53.717437 
L 192.44362 52.00591 
L 192.525867 45.29839 
L 192.591672 45.413521 
L 192.608126 43.498016 
L 192.690373 46.722458 
L 192.706828 46.609499 
L 192.920698 59.770467 
L 192.772633 46.489557 
L 192.953594 56.461682 
L 193.035853 50.794716 
L 193.085204 51.840481 
L 193.101646 52.366785 
L 193.118101 49.828003 
L 193.249711 41.684888 
L 193.151009 49.901927 
L 193.266165 46.480313 
L 193.480023 57.085065 
L 193.562282 49.042055 
L 193.595178 51.472457 
L 193.660983 49.940425 
L 193.677438 51.181588 
L 193.759685 54.925172 
L 193.792594 52.637305 
L 193.82549 51.295486 
L 193.841944 56.666243 
L 193.940646 54.464842 
L 193.973555 54.625091 
L 193.989997 53.209158 
L 194.039347 58.510047 
L 194.088711 58.207007 
L 194.138061 61.381366 
L 194.203866 60.922682 
L 194.220308 63.323269 
L 194.236763 55.765422 
L 194.335464 59.397122 
L 194.351919 61.314408 
L 194.401269 59.348812 
L 194.45062 60.452521 
L 194.680944 71.31793 
L 194.730295 68.205459 
L 194.845451 65.367673 
L 194.861893 67.085126 
L 194.944152 64.368615 
L 195.125113 60.147695 
L 195.141568 61.173258 
L 195.256724 63.412122 
L 195.306074 64.973755 
L 195.404776 61.042587 
L 195.651542 53.895631 
L 195.667996 53.898254 
L 195.700893 56.488933 
L 195.750243 52.453544 
L 195.816048 48.11423 
L 195.832503 48.446526 
L 195.931204 61.176903 
L 195.947659 61.059529 
L 196.013464 51.189019 
L 196.04636 59.122224 
L 196.17797 62.438653 
L 196.210879 66.105311 
L 196.26023 61.678296 
L 196.276672 62.137305 
L 196.293126 62.14642 
L 196.326035 63.178632 
L 196.375386 60.919778 
L 196.391828 59.450999 
L 196.457633 62.973468 
L 196.474087 62.859472 
L 196.572789 62.731487 
L 196.605697 64.127564 
L 196.737308 56.649137 
L 196.671503 65.059081 
L 196.75375 61.519592 
L 196.852464 59.207573 
L 196.868905 60.76675 
L 196.951165 65.336526 
L 196.984061 62.325596 
L 197.000516 59.541799 
L 197.099217 59.668567 
L 197.115672 60.874283 
L 197.181477 63.024168 
L 197.230828 50.318193 
L 197.247282 62.31772 
L 197.329529 52.091304 
L 197.378892 50.804173 
L 197.395334 58.786366 
L 197.461139 46.059902 
L 197.51049 48.228226 
L 197.543399 49.628449 
L 197.559853 46.783473 
L 197.576295 46.830379 
L 197.592749 57.636995 
L 197.675009 45.226232 
L 197.707905 43.070421 
L 197.740802 46.463678 
L 197.757256 45.207228 
L 197.806607 44.607747 
L 197.888866 54.255259 
L 197.905321 54.213818 
L 197.954671 56.265345 
L 197.971126 53.398776 
L 198.053373 34.518092 
L 198.184983 35.531039 
L 198.201438 45.717408 
L 198.283684 32.586116 
L 198.365944 42.87218 
L 198.448191 38.908953 
L 198.4811 38.668279 
L 198.596256 49.364114 
L 198.61271 49.073156 
L 198.793671 36.975708 
L 198.826568 41.460478 
L 198.859464 36.432436 
L 198.892373 36.784467 
L 198.908827 36.269369 
L 198.925269 37.486411 
L 199.023983 50.307298 
L 199.040425 49.447701 
L 199.056879 49.460438 
L 199.089788 46.521054 
L 199.10623 47.799982 
L 199.122684 54.350955 
L 199.204944 50.720806 
L 199.23784 37.94116 
L 199.254295 49.375213 
L 199.336542 62.443226 
L 199.36945 60.736261 
L 199.402347 61.212364 
L 199.435256 49.433166 
L 199.484606 65.83064 
L 199.501061 64.758468 
L 199.550411 56.095082 
L 199.649113 60.200526 
L 199.780723 65.370583 
L 199.714918 59.778492 
L 199.81362 65.027058 
L 199.830074 63.768479 
L 199.86297 68.336288 
L 199.879425 68.046959 
L 200.027489 62.789239 
L 199.912333 68.394089 
L 200.07684 63.276068 
L 200.142645 66.994558 
L 200.159087 66.598894 
L 200.257801 56.844609 
L 200.274243 57.993644 
L 200.307152 56.359268 
L 200.323606 57.894436 
L 200.372957 52.51036 
L 200.405853 57.520172 
L 200.521009 65.36281 
L 200.537463 64.714542 
L 200.586814 65.379042 
L 200.603269 63.861497 
L 200.61971 63.808508 
L 200.636165 64.09156 
L 200.652619 64.206521 
L 200.866477 72.789207 
L 200.899385 73.013161 
L 200.965191 71.708179 
L 201.080346 74.400581 
L 201.113243 72.402838 
L 201.162593 74.814721 
L 201.211944 76.503184 
L 201.277749 75.544414 
L 201.310658 75.112191 
L 201.360009 75.723024 
L 201.376463 75.544773 
L 201.392905 76.1225 
L 201.425814 74.000441 
L 201.475165 73.299468 
L 201.491619 74.551279 
L 201.508061 74.486096 
L 201.524515 75.254297 
L 201.590321 73.654822 
L 201.639671 72.913323 
L 201.771282 77.958146 
L 201.820632 77.205749 
L 201.853529 78.033639 
L 202.018048 81.153653 
L 202.1661 76.252313 
L 202.182554 77.749589 
L 202.199009 78.579246 
L 202.264801 76.378574 
L 202.281256 76.263665 
L 202.29771 74.8194 
L 202.347061 76.906277 
L 202.396411 74.893942 
L 202.445762 75.767029 
L 202.478671 73.37382 
L 202.676074 61.110039 
L 202.741879 63.165551 
L 202.774788 62.443591 
L 202.939295 54.644371 
L 202.988645 56.010747 
L 203.0051 54.825271 
L 203.05445 52.971991 
L 203.087359 55.612145 
L 203.120256 56.668429 
L 203.153152 54.717575 
L 203.169606 53.651291 
L 203.235411 55.76704 
L 203.251866 66.071254 
L 203.350567 58.522401 
L 203.367022 57.617643 
L 203.399918 59.244094 
L 203.432827 61.736709 
L 203.432827 61.736709 
" clip-path="url(#pafbde7e9d1)" style="fill: none; stroke: #0072b2; stroke-width: 1.25; stroke-linecap: square"/>
   </g>
   <g id="patch_4">
    <path d="M 30.698281 131.718516 
L 30.698281 20.418516 
" style="fill: none; stroke: #000000; stroke-width: 0.8; stroke-linejoin: miter; stroke-linecap: square"/>
   </g>
   <g id="patch_5">
    <path d="M 30.698281 131.718516 
L 211.658281 131.718516 
" style="fill: none; stroke: #000000; stroke-width: 0.8; stroke-linejoin: miter; stroke-linecap: square"/>
   </g>
   <g id="text_13">
    <!-- drugs2263 rep1 -->
    <g transform="translate(83.305195 14.418516) scale(0.095 -0.095)">
     <defs>
      <path id="DejaVuSans-72" d="M 2631 2963 
Q 2534 3019 2420 3045 
Q 2306 3072 2169 3072 
Q 1681 3072 1420 2755 
Q 1159 2438 1159 1844 
L 1159 0 
L 581 0 
L 581 3500 
L 1159 3500 
L 1159 2956 
Q 1341 3275 1631 3429 
Q 1922 3584 2338 3584 
Q 2397 3584 2469 3576 
Q 2541 3569 2628 3553 
L 2631 2963 
z
" transform="scale(0.015625)"/>
      <path id="DejaVuSans-75" d="M 544 1381 
L 544 3500 
L 1119 3500 
L 1119 1403 
Q 1119 906 1312 657 
Q 1506 409 1894 409 
Q 2359 409 2629 706 
Q 2900 1003 2900 1516 
L 2900 3500 
L 3475 3500 
L 3475 0 
L 2900 0 
L 2900 538 
Q 2691 219 2414 64 
Q 2138 -91 1772 -91 
Q 1169 -91 856 284 
Q 544 659 544 1381 
z
M 1991 3584 
L 1991 3584 
z
" transform="scale(0.015625)"/>
      <path id="DejaVuSans-70" d="M 1159 525 
L 1159 -1331 
L 581 -1331 
L 581 3500 
L 1159 3500 
L 1159 2969 
Q 1341 3281 1617 3432 
Q 1894 3584 2278 3584 
Q 2916 3584 3314 3078 
Q 3713 2572 3713 1747 
Q 3713 922 3314 415 
Q 2916 -91 2278 -91 
Q 1894 -91 1617 61 
Q 1341 213 1159 525 
z
M 3116 1747 
Q 3116 2381 2855 2742 
Q 2594 3103 2138 3103 
Q 1681 3103 1420 2742 
Q 1159 2381 1159 1747 
Q 1159 1113 1420 752 
Q 1681 391 2138 391 
Q 2594 391 2855 752 
Q 3116 1113 3116 1747 
z
" transform="scale(0.015625)"/>
     </defs>
     <use xlink:href="#DejaVuSans-64"/>
     <use xlink:href="#DejaVuSans-72" transform="translate(63.476562 0)"/>
     <use xlink:href="#DejaVuSans-75" transform="translate(104.589844 0)"/>
     <use xlink:href="#DejaVuSans-67" transform="translate(167.96875 0)"/>
     <use xlink:href="#DejaVuSans-73" transform="translate(231.445312 0)"/>
     <use xlink:href="#DejaVuSans-32" transform="translate(283.544922 0)"/>
     <use xlink:href="#DejaVuSans-32" transform="translate(347.167969 0)"/>
     <use xlink:href="#DejaVuSans-36" transform="translate(410.791016 0)"/>
     <use xlink:href="#DejaVuSans-33" transform="translate(474.414062 0)"/>
     <use xlink:href="#DejaVuSans-20" transform="translate(538.037109 0)"/>
     <use xlink:href="#DejaVuSans-72" transform="translate(569.824219 0)"/>
     <use xlink:href="#DejaVuSans-65" transform="translate(608.6875 0)"/>
     <use xlink:href="#DejaVuSans-70" transform="translate(670.210938 0)"/>
     <use xlink:href="#DejaVuSans-31" transform="translate(733.6875 0)"/>
    </g>
   </g>
  </g>
 </g>
 <defs>
  <clipPath id="pafbde7e9d1">
   <rect x="30.698281" y="20.418516" width="180.96" height="111.3"/>
  </clipPath>
 </defs>
</svg>
