<?xml version="1.0" encoding="utf-8" standalone="no"?>
<!DOCTYPE svg PUBLIC "-//W3C//DTD SVG 1.1//EN"
  "http://www.w3.org/Graphics/SVG/1.1/DTD/svg11.dtd">
<svg xmlns:xlink="http://www.w3.org/1999/xlink" width="221.21375pt" height="164.903516pt" viewBox="0 0 221.21375 164.903516" xmlns="http://www.w3.org/2000/svg" version="1.1">
 <metadata>
  <rdf:RDF xmlns:dc="http://purl.org/dc/elements/1.1/" xmlns:cc="http://creativecommons.org/ns#" xmlns:rdf="http://www.w3.org/1999/02/22-rdf-syntax-ns#">
   <cc:Work>
    <dc:type rdf:resource="http://purl.org/dc/dcmitype/StillImage"/>
    <dc:date>2026-05-24T13:54:11.831272</dc:date>
    <dc:format>image/svg+xml</dc:format>
    <dc:creator>
     <cc:Agent>
      <dc:title>Matplotlib v3.10.9, https://matplotlib.org/</dc:title>
     </cc:Agent>
    </dc:creator>
   </cc:Work>
  </rdf:RDF>
 </metadata>
 <defs>
  <style type="text/css">*{stroke-linejoin: round; stroke-linecap: butt}</style>
 </defs>
 <g id="figure_1">
  <g id="patch_1">
   <path d="M 0 164.903516 
L 221.21375 164.903516 
L 221.21375 0 
L 0 0 
z
" style="fill: #ffffff"/>
  </g>
  <g id="axes_1">
   <g id="patch_2">
    <path d="M 37.85375 131.718516 
L 214.01375 131.718516 
L 214.01375 20.418516 
L 37.85375 20.418516 
z
" style="fill: #ffffff"/>
   </g>
   <g id="patch_3">
    <path d="M 125.93375 131.718516 
L 206.006477 131.718516 
L 206.006477 20.418516 
L 125.93375 20.418516 
z
" clip-path="url(#pb863f774a5)" style="fill: #bdbdbd; opacity: 0.18"/>
   </g>
   <g id="matplotlib.axis_1">
    <g id="xtick_1">
     <g id="line2d_1">
      <defs>
       <path id="ma9815056aa" d="M 0 0 
L 0 3 
" style="stroke: #000000; stroke-width: 0.7"/>
      </defs>
      <g>
       <use xlink:href="#ma9815056aa" x="45.861023" y="131.718516" style="stroke: #000000; stroke-width: 0.7"/>
      </g>
     </g>
     <g id="text_1">
      <!-- 0 -->
      <g transform="translate(43.475085 143.917344) scale(0.075 -0.075)">
       <defs>
        <path id="DejaVuSans-30" d="M 2034 4250 
Q 1547 4250 1301 3770 
Q 1056 3291 1056 2328 
Q 1056 1369 1301 889 
Q 1547 409 2034 409 
Q 2525 409 2770 889 
Q 3016 1369 3016 2328 
Q 3016 3291 2770 3770 
Q 2525 4250 2034 4250 
z
M 2034 4750 
Q 2819 4750 3233 4129 
Q 3647 3509 3647 2328 
Q 3647 1150 3233 529 
Q 2819 -91 2034 -91 
Q 1250 -91 836 529 
Q 422 1150 422 2328 
Q 422 3509 836 4129 
Q 1250 4750 2034 4750 
z
" transform="scale(0.015625)"/>
       </defs>
       <use xlink:href="#DejaVuSans-30"/>
      </g>
     </g>
    </g>
    <g id="xtick_2">
     <g id="line2d_2">
      <g>
       <use xlink:href="#ma9815056aa" x="77.890114" y="131.718516" style="stroke: #000000; stroke-width: 0.7"/>
      </g>
     </g>
     <g id="text_2">
      <!-- 20 -->
      <g transform="translate(73.118239 143.917344) scale(0.075 -0.075)">
       <defs>
        <path id="DejaVuSans-32" d="M 1228 531 
L 3431 531 
L 3431 0 
L 469 0 
L 469 531 
Q 828 903 1448 1529 
Q 2069 2156 2228 2338 
Q 2531 2678 2651 2914 
Q 2772 3150 2772 3378 
Q 2772 3750 2511 3984 
Q 2250 4219 1831 4219 
Q 1534 4219 1204 4116 
Q 875 4013 500 3803 
L 500 4441 
Q 881 4594 1212 4672 
Q 1544 4750 1819 4750 
Q 2544 4750 2975 4387 
Q 3406 4025 3406 3419 
Q 3406 3131 3298 2873 
Q 3191 2616 2906 2266 
Q 2828 2175 2409 1742 
Q 1991 1309 1228 531 
z
" transform="scale(0.015625)"/>
       </defs>
       <use xlink:href="#DejaVuSans-32"/>
       <use xlink:href="#DejaVuSans-30" transform="translate(63.623047 0)"/>
      </g>
     </g>
    </g>
    <g id="xtick_3">
     <g id="line2d_3">
      <g>
       <use xlink:href="#ma9815056aa" x="109.919205" y="131.718516" style="stroke: #000000; stroke-width: 0.7"/>
      </g>
     </g>
     <g id="text_3">
      <!-- 40 -->
      <g transform="translate(105.14733 143.917344) scale(0.075 -0.075)">
       <defs>
        <path id="DejaVuSans-34" d="M 2419 4116 
L 825 1625 
L 2419 1625 
L 2419 4116 
z
M 2253 4666 
L 3047 4666 
L 3047 1625 
L 3713 1625 
L 3713 1100 
L 3047 1100 
L 3047 0 
L 2419 0 
L 2419 1100 
L 313 1100 
L 313 1709 
L 2253 4666 
z
" transform="scale(0.015625)"/>
       </defs>
       <use xlink:href="#DejaVuSans-34"/>
       <use xlink:href="#DejaVuSans-30" transform="translate(63.623047 0)"/>
      </g>
     </g>
    </g>
    <g id="xtick_4">
     <g id="line2d_4">
      <g>
       <use xlink:href="#ma9815056aa" x="141.948295" y="131.718516" style="stroke: #000000; stroke-width: 0.7"/>
      </g>
     </g>
     <g id="text_4">
      <!-- 60 -->
      <g transform="translate(137.17642 143.917344) scale(0.075 -0.075)">
       <defs>
        <path id="DejaVuSans-36" d="M 2113 2584 
Q 1688 2584 1439 2293 
Q 1191 2003 1191 1497 
Q 1191 994 1439 701 
Q 1688 409 2113 409 
Q 2538 409 2786 701 
Q 3034 994 3034 1497 
Q 3034 2003 2786 2293 
Q 2538 2584 2113 2584 
z
M 3366 4563 
L 3366 3988 
Q 3128 4100 2886 4159 
Q 2644 4219 2406 4219 
Q 1781 4219 1451 3797 
Q 1122 3375 1075 2522 
Q 1259 2794 1537 2939 
Q 1816 3084 2150 3084 
Q 2853 3084 3261 2657 
Q 3669 2231 3669 1497 
Q 3669 778 3244 343 
Q 2819 -91 2113 -91 
Q 1303 -91 875 529 
Q 447 1150 447 2328 
Q 447 3434 972 4092 
Q 1497 4750 2381 4750 
Q 2619 4750 2861 4703 
Q 3103 4656 3366 4563 
z
" transform="scale(0.015625)"/>
       </defs>
       <use xlink:href="#DejaVuSans-36"/>
       <use xlink:href="#DejaVuSans-30" transform="translate(63.623047 0)"/>
      </g>
     </g>
    </g>
    <g id="xtick_5">
     <g id="line2d_5">
      <g>
       <use xlink:href="#ma9815056aa" x="173.977386" y="131.718516" style="stroke: #000000; stroke-width: 0.7"/>
      </g>
     </g>
     <g id="text_5">
      <!-- 80 -->
      <g transform="translate(169.205511 143.917344) scale(0.075 -0.075)">
       <defs>
        <path id="DejaVuSans-38" d="M 2034 2216 
Q 1584 2216 1326 1975 
Q 1069 1734 1069 1313 
Q 1069 891 1326 650 
Q 1584 409 2034 409 
Q 2484 409 2743 651 
Q 3003 894 3003 1313 
Q 3003 1734 2745 1975 
Q 2488 2216 2034 2216 
z
M 1403 2484 
Q 997 2584 770 2862 
Q 544 3141 544 3541 
Q 544 4100 942 4425 
Q 1341 4750 2034 4750 
Q 2731 4750 3128 4425 
Q 3525 4100 3525 3541 
Q 3525 3141 3298 2862 
Q 3072 2584 2669 2484 
Q 3125 2378 3379 2068 
Q 3634 1759 3634 1313 
Q 3634 634 3220 271 
Q 2806 -91 2034 -91 
Q 1263 -91 848 271 
Q 434 634 434 1313 
Q 434 1759 690 2068 
Q 947 2378 1403 2484 
z
M 1172 3481 
Q 1172 3119 1398 2916 
Q 1625 2713 2034 2713 
Q 2441 2713 2670 2916 
Q 2900 3119 2900 3481 
Q 2900 3844 2670 4047 
Q 2441 4250 2034 4250 
Q 1625 4250 1398 4047 
Q 1172 3844 1172 3481 
z
" transform="scale(0.015625)"/>
       </defs>
       <use xlink:href="#DejaVuSans-38"/>
       <use xlink:href="#DejaVuSans-30" transform="translate(63.623047 0)"/>
      </g>
     </g>
    </g>
    <g id="xtick_6">
     <g id="line2d_6">
      <g>
       <use xlink:href="#ma9815056aa" x="206.006477" y="131.718516" style="stroke: #000000; stroke-width: 0.7"/>
      </g>
     </g>
     <g id="text_6">
      <!-- 100 -->
      <g transform="translate(198.848665 143.917344) scale(0.075 -0.075)">
       <defs>
        <path id="DejaVuSans-31" d="M 794 531 
L 1825 531 
L 1825 4091 
L 703 3866 
L 703 4441 
L 1819 4666 
L 2450 4666 
L 2450 531 
L 3481 531 
L 3481 0 
L 794 0 
L 794 531 
z
" transform="scale(0.015625)"/>
       </defs>
       <use xlink:href="#DejaVuSans-31"/>
       <use xlink:href="#DejaVuSans-30" transform="translate(63.623047 0)"/>
       <use xlink:href="#DejaVuSans-30" transform="translate(127.246094 0)"/>
      </g>
     </g>
    </g>
    <g id="text_7">
     <!-- Time (ns) -->
     <g transform="translate(105.960742 155.935781) scale(0.085 -0.085)">
      <defs>
       <path id="DejaVuSans-54" d="M -19 4666 
L 3928 4666 
L 3928 4134 
L 2272 4134 
L 2272 0 
L 1638 0 
L 1638 4134 
L -19 4134 
L -19 4666 
z
" transform="scale(0.015625)"/>
       <path id="DejaVuSans-69" d="M 603 3500 
L 1178 3500 
L 1178 0 
L 603 0 
L 603 3500 
z
M 603 4863 
L 1178 4863 
L 1178 4134 
L 603 4134 
L 603 4863 
z
" transform="scale(0.015625)"/>
       <path id="DejaVuSans-6d" d="M 3328 2828 
Q 3544 3216 3844 3400 
Q 4144 3584 4550 3584 
Q 5097 3584 5394 3201 
Q 5691 2819 5691 2113 
L 5691 0 
L 5113 0 
L 5113 2094 
Q 5113 2597 4934 2840 
Q 4756 3084 4391 3084 
Q 3944 3084 3684 2787 
Q 3425 2491 3425 1978 
L 3425 0 
L 2847 0 
L 2847 2094 
Q 2847 2600 2669 2842 
Q 2491 3084 2119 3084 
Q 1678 3084 1418 2786 
Q 1159 2488 1159 1978 
L 1159 0 
L 581 0 
L 581 3500 
L 1159 3500 
L 1159 2956 
Q 1356 3278 1631 3431 
Q 1906 3584 2284 3584 
Q 2666 3584 2933 3390 
Q 3200 3197 3328 2828 
z
" transform="scale(0.015625)"/>
       <path id="DejaVuSans-65" d="M 3597 1894 
L 3597 1613 
L 953 1613 
Q 991 1019 1311 708 
Q 1631 397 2203 397 
Q 2534 397 2845 478 
Q 3156 559 3463 722 
L 3463 178 
Q 3153 47 2828 -22 
Q 2503 -91 2169 -91 
Q 1331 -91 842 396 
Q 353 884 353 1716 
Q 353 2575 817 3079 
Q 1281 3584 2069 3584 
Q 2775 3584 3186 3129 
Q 3597 2675 3597 1894 
z
M 3022 2063 
Q 3016 2534 2758 2815 
Q 2500 3097 2075 3097 
Q 1594 3097 1305 2825 
Q 1016 2553 972 2059 
L 3022 2063 
z
" transform="scale(0.015625)"/>
       <path id="DejaVuSans-20" transform="scale(0.015625)"/>
       <path id="DejaVuSans-28" d="M 1984 4856 
Q 1566 4138 1362 3434 
Q 1159 2731 1159 2009 
Q 1159 1288 1364 580 
Q 1569 -128 1984 -844 
L 1484 -844 
Q 1016 -109 783 600 
Q 550 1309 550 2009 
Q 550 2706 781 3412 
Q 1013 4119 1484 4856 
L 1984 4856 
z
" transform="scale(0.015625)"/>
       <path id="DejaVuSans-6e" d="M 3513 2113 
L 3513 0 
L 2938 0 
L 2938 2094 
Q 2938 2591 2744 2837 
Q 2550 3084 2163 3084 
Q 1697 3084 1428 2787 
Q 1159 2491 1159 1978 
L 1159 0 
L 581 0 
L 581 3500 
L 1159 3500 
L 1159 2956 
Q 1366 3272 1645 3428 
Q 1925 3584 2291 3584 
Q 2894 3584 3203 3211 
Q 3513 2838 3513 2113 
z
" transform="scale(0.015625)"/>
       <path id="DejaVuSans-73" d="M 2834 3397 
L 2834 2853 
Q 2591 2978 2328 3040 
Q 2066 3103 1784 3103 
Q 1356 3103 1142 2972 
Q 928 2841 928 2578 
Q 928 2378 1081 2264 
Q 1234 2150 1697 2047 
L 1894 2003 
Q 2506 1872 2764 1633 
Q 3022 1394 3022 966 
Q 3022 478 2636 193 
Q 2250 -91 1575 -91 
Q 1294 -91 989 -36 
Q 684 19 347 128 
L 347 722 
Q 666 556 975 473 
Q 1284 391 1588 391 
Q 1994 391 2212 530 
Q 2431 669 2431 922 
Q 2431 1156 2273 1281 
Q 2116 1406 1581 1522 
L 1381 1569 
Q 847 1681 609 1914 
Q 372 2147 372 2553 
Q 372 3047 722 3315 
Q 1072 3584 1716 3584 
Q 2034 3584 2315 3537 
Q 2597 3491 2834 3397 
z
" transform="scale(0.015625)"/>
       <path id="DejaVuSans-29" d="M 513 4856 
L 1013 4856 
Q 1481 4119 1714 3412 
Q 1947 2706 1947 2009 
Q 1947 1309 1714 600 
Q 1481 -109 1013 -844 
L 513 -844 
Q 928 -128 1133 580 
Q 1338 1288 1338 2009 
Q 1338 2731 1133 3434 
Q 928 4138 513 4856 
z
" transform="scale(0.015625)"/>
      </defs>
      <use xlink:href="#DejaVuSans-54"/>
      <use xlink:href="#DejaVuSans-69" transform="translate(57.958984 0)"/>
      <use xlink:href="#DejaVuSans-6d" transform="translate(85.742188 0)"/>
      <use xlink:href="#DejaVuSans-65" transform="translate(183.154297 0)"/>
      <use xlink:href="#DejaVuSans-20" transform="translate(244.677734 0)"/>
      <use xlink:href="#DejaVuSans-28" transform="translate(276.464844 0)"/>
      <use xlink:href="#DejaVuSans-6e" transform="translate(315.478516 0)"/>
      <use xlink:href="#DejaVuSans-73" transform="translate(378.857422 0)"/>
      <use xlink:href="#DejaVuSans-29" transform="translate(430.957031 0)"/>
     </g>
    </g>
   </g>
   <g id="matplotlib.axis_2">
    <g id="ytick_1">
     <g id="line2d_7">
      <defs>
       <path id="m05d75a23f9" d="M 0 0 
L -3 0 
" style="stroke: #000000; stroke-width: 0.7"/>
      </defs>
      <g>
       <use xlink:href="#m05d75a23f9" x="37.85375" y="108.481542" style="stroke: #000000; stroke-width: 0.7"/>
      </g>
     </g>
     <g id="text_8">
      <!-- 2.5 -->
      <g transform="translate(19.426406 111.330956) scale(0.075 -0.075)">
       <defs>
        <path id="DejaVuSans-2e" d="M 684 794 
L 1344 794 
L 1344 0 
L 684 0 
L 684 794 
z
" transform="scale(0.015625)"/>
        <path id="DejaVuSans-35" d="M 691 4666 
L 3169 4666 
L 3169 4134 
L 1269 4134 
L 1269 2991 
Q 1406 3038 1543 3061 
Q 1681 3084 1819 3084 
Q 2600 3084 3056 2656 
Q 3513 2228 3513 1497 
Q 3513 744 3044 326 
Q 2575 -91 1722 -91 
Q 1428 -91 1123 -41 
Q 819 9 494 109 
L 494 744 
Q 775 591 1075 516 
Q 1375 441 1709 441 
Q 2250 441 2565 725 
Q 2881 1009 2881 1497 
Q 2881 1984 2565 2268 
Q 2250 2553 1709 2553 
Q 1456 2553 1204 2497 
Q 953 2441 691 2322 
L 691 4666 
z
" transform="scale(0.015625)"/>
       </defs>
       <use xlink:href="#DejaVuSans-32"/>
       <use xlink:href="#DejaVuSans-2e" transform="translate(63.623047 0)"/>
       <use xlink:href="#DejaVuSans-35" transform="translate(95.410156 0)"/>
      </g>
     </g>
    </g>
    <g id="ytick_2">
     <g id="line2d_8">
      <g>
       <use xlink:href="#m05d75a23f9" x="37.85375" y="79.20016" style="stroke: #000000; stroke-width: 0.7"/>
      </g>
     </g>
     <g id="text_9">
      <!-- 3.0 -->
      <g transform="translate(19.426406 82.049574) scale(0.075 -0.075)">
       <defs>
        <path id="DejaVuSans-33" d="M 2597 2516 
Q 3050 2419 3304 2112 
Q 3559 1806 3559 1356 
Q 3559 666 3084 287 
Q 2609 -91 1734 -91 
Q 1441 -91 1130 -33 
Q 819 25 488 141 
L 488 750 
Q 750 597 1062 519 
Q 1375 441 1716 441 
Q 2309 441 2620 675 
Q 2931 909 2931 1356 
Q 2931 1769 2642 2001 
Q 2353 2234 1838 2234 
L 1294 2234 
L 1294 2753 
L 1863 2753 
Q 2328 2753 2575 2939 
Q 2822 3125 2822 3475 
Q 2822 3834 2567 4026 
Q 2313 4219 1838 4219 
Q 1578 4219 1281 4162 
Q 984 4106 628 3988 
L 628 4550 
Q 988 4650 1302 4700 
Q 1616 4750 1894 4750 
Q 2613 4750 3031 4423 
Q 3450 4097 3450 3541 
Q 3450 3153 3228 2886 
Q 3006 2619 2597 2516 
z
" transform="scale(0.015625)"/>
       </defs>
       <use xlink:href="#DejaVuSans-33"/>
       <use xlink:href="#DejaVuSans-2e" transform="translate(63.623047 0)"/>
       <use xlink:href="#DejaVuSans-30" transform="translate(95.410156 0)"/>
      </g>
     </g>
    </g>
    <g id="ytick_3">
     <g id="line2d_9">
      <g>
       <use xlink:href="#m05d75a23f9" x="37.85375" y="49.918777" style="stroke: #000000; stroke-width: 0.7"/>
      </g>
     </g>
     <g id="text_10">
      <!-- 3.5 -->
      <g transform="translate(19.426406 52.768191) scale(0.075 -0.075)">
       <use xlink:href="#DejaVuSans-33"/>
       <use xlink:href="#DejaVuSans-2e" transform="translate(63.623047 0)"/>
       <use xlink:href="#DejaVuSans-35" transform="translate(95.410156 0)"/>
      </g>
     </g>
    </g>
    <g id="ytick_4">
     <g id="line2d_10">
      <g>
       <use xlink:href="#m05d75a23f9" x="37.85375" y="20.637394" style="stroke: #000000; stroke-width: 0.7"/>
      </g>
     </g>
     <g id="text_11">
      <!-- 4.0 -->
      <g transform="translate(19.426406 23.486808) scale(0.075 -0.075)">
       <use xlink:href="#DejaVuSans-34"/>
       <use xlink:href="#DejaVuSans-2e" transform="translate(63.623047 0)"/>
       <use xlink:href="#DejaVuSans-30" transform="translate(95.410156 0)"/>
      </g>
     </g>
    </g>
    <g id="text_12">
     <!-- Rg (nm) -->
     <g transform="translate(13.658672 93.219922) rotate(-90) scale(0.085 -0.085)">
      <defs>
       <path id="DejaVuSans-52" d="M 2841 2188 
Q 3044 2119 3236 1894 
Q 3428 1669 3622 1275 
L 4263 0 
L 3584 0 
L 2988 1197 
Q 2756 1666 2539 1819 
Q 2322 1972 1947 1972 
L 1259 1972 
L 1259 0 
L 628 0 
L 628 4666 
L 2053 4666 
Q 2853 4666 3247 4331 
Q 3641 3997 3641 3322 
Q 3641 2881 3436 2590 
Q 3231 2300 2841 2188 
z
M 1259 4147 
L 1259 2491 
L 2053 2491 
Q 2509 2491 2742 2702 
Q 2975 2913 2975 3322 
Q 2975 3731 2742 3939 
Q 2509 4147 2053 4147 
L 1259 4147 
z
" transform="scale(0.015625)"/>
       <path id="DejaVuSans-67" d="M 2906 1791 
Q 2906 2416 2648 2759 
Q 2391 3103 1925 3103 
Q 1463 3103 1205 2759 
Q 947 2416 947 1791 
Q 947 1169 1205 825 
Q 1463 481 1925 481 
Q 2391 481 2648 825 
Q 2906 1169 2906 1791 
z
M 3481 434 
Q 3481 -459 3084 -895 
Q 2688 -1331 1869 -1331 
Q 1566 -1331 1297 -1286 
Q 1028 -1241 775 -1147 
L 775 -588 
Q 1028 -725 1275 -790 
Q 1522 -856 1778 -856 
Q 2344 -856 2625 -561 
Q 2906 -266 2906 331 
L 2906 616 
Q 2728 306 2450 153 
Q 2172 0 1784 0 
Q 1141 0 747 490 
Q 353 981 353 1791 
Q 353 2603 747 3093 
Q 1141 3584 1784 3584 
Q 2172 3584 2450 3431 
Q 2728 3278 2906 2969 
L 2906 3500 
L 3481 3500 
L 3481 434 
z
" transform="scale(0.015625)"/>
      </defs>
      <use xlink:href="#DejaVuSans-52"/>
      <use xlink:href="#DejaVuSans-67" transform="translate(69.482422 0)"/>
      <use xlink:href="#DejaVuSans-20" transform="translate(132.958984 0)"/>
      <use xlink:href="#DejaVuSans-28" transform="translate(164.746094 0)"/>
      <use xlink:href="#DejaVuSans-6e" transform="translate(203.759766 0)"/>
      <use xlink:href="#DejaVuSans-6d" transform="translate(267.138672 0)"/>
      <use xlink:href="#DejaVuSans-29" transform="translate(364.550781 0)"/>
     </g>
    </g>
   </g>
   <g id="line2d_11">
    <path d="M 45.861023 48.78793 
L 45.893052 50.114962 
L 46.005154 44.12282 
L 46.053197 50.379666 
L 46.13327 48.310643 
L 46.181314 47.413462 
L 46.197328 47.125333 
L 46.213343 47.161642 
L 46.325445 44.012722 
L 46.341459 44.176698 
L 46.501605 37.823809 
L 46.597692 40.840962 
L 46.549648 37.131011 
L 46.613706 38.67824 
L 46.629721 38.660085 
L 46.805881 44.290309 
L 46.83791 41.970638 
L 46.853925 40.469089 
L 46.885954 42.626541 
L 46.933997 41.717061 
L 46.966026 43.389028 
L 46.998055 42.278093 
L 47.01407 41.082241 
L 47.062114 45.156453 
L 47.078128 45.059238 
L 47.094143 45.792444 
L 47.126172 44.116378 
L 47.254288 36.92897 
L 47.270303 39.137957 
L 47.302332 40.840377 
L 47.350375 37.86246 
L 47.36639 39.092864 
L 47.526535 27.232147 
L 47.54255 29.340992 
L 47.622623 26.305684 
L 47.638637 25.477607 
L 47.654652 27.751013 
L 47.830812 36.820043 
L 47.89487 33.770094 
L 47.926899 36.027689 
L 47.942914 38.323349 
L 48.022986 34.131426 
L 48.07103 32.470586 
L 48.103059 34.870489 
L 48.135088 33.222532 
L 48.199146 37.831422 
L 48.24719 34.096874 
L 48.375306 37.608298 
L 48.311248 32.23575 
L 48.391321 37.514012 
L 48.439365 34.71764 
L 48.487408 36.71463 
L 48.615525 41.865811 
L 48.807699 32.299583 
L 48.855743 35.785825 
L 48.887772 38.206809 
L 48.919801 35.671042 
L 48.935815 34.027185 
L 48.999874 37.170248 
L 49.015888 36.724586 
L 49.12799 34.312971 
L 49.095961 36.75211 
L 49.160019 35.878354 
L 49.208063 39.031959 
L 49.240092 36.216846 
L 49.336179 30.101137 
L 49.352194 31.928881 
L 49.432266 37.484145 
L 49.464295 35.186142 
L 49.544368 38.769012 
L 49.560383 37.030283 
L 49.672485 41.404336 
L 49.704514 38.678825 
L 49.752557 42.269894 
L 49.784586 41.115036 
L 49.800601 40.606711 
L 49.83263 42.727269 
L 49.848645 42.863135 
L 49.976761 31.479119 
L 50.00879 33.455612 
L 50.072848 29.472758 
L 50.168935 30.36994 
L 50.232994 35.963855 
L 50.297052 33.549898 
L 50.36111 28.419214 
L 50.393139 34.289546 
L 50.409154 33.856181 
L 50.425168 34.32117 
L 50.457197 34.171249 
L 50.473212 36.648454 
L 50.553285 34.003174 
L 50.569299 33.78942 
L 50.585314 34.304187 
L 50.71343 43.072204 
L 50.793503 48.47989 
L 50.825532 47.684022 
L 50.873575 44.936842 
L 50.921619 48.10216 
L 50.953648 46.30194 
L 50.969663 46.58187 
L 50.985677 45.982773 
L 51.06575 41.742829 
L 51.097779 45.448681 
L 51.193866 43.578186 
L 51.209881 45.846908 
L 51.273939 42.919941 
L 51.289954 43.743919 
L 51.321983 42.346611 
L 51.386041 43.186987 
L 51.514157 48.783245 
L 51.530172 47.849754 
L 51.642274 49.798723 
L 51.754375 40.641849 
L 51.802419 42.885974 
L 51.818434 44.189581 
L 51.866477 39.796203 
L 51.882492 39.809087 
L 51.994594 43.759145 
L 52.010608 42.201961 
L 52.026623 42.305032 
L 52.058652 41.1695 
L 52.186768 47.340844 
L 52.29887 41.769768 
L 52.330899 42.994901 
L 52.346914 44.718989 
L 52.426986 41.642687 
L 52.47503 43.840547 
L 52.65119 57.018926 
L 52.667205 52.513693 
L 52.715248 60.333579 
L 52.747277 59.603301 
L 52.779306 61.602634 
L 52.82735 58.887664 
L 52.939452 56.288649 
L 52.955466 57.939533 
L 53.083583 61.878465 
L 53.051554 57.656675 
L 53.099597 61.843913 
L 53.115612 62.255609 
L 53.147641 60.486428 
L 53.211699 57.770287 
L 53.275757 53.477636 
L 53.307786 59.050469 
L 53.323801 59.205074 
L 53.371845 53.888747 
L 53.419888 58.910504 
L 53.467932 64.240301 
L 53.548005 63.575614 
L 53.564019 61.92063 
L 53.612063 65.903484 
L 53.644092 64.073983 
L 53.660106 63.823334 
L 53.692135 68.913024 
L 53.756194 64.948325 
L 53.932354 55.409622 
L 53.948368 57.205742 
L 54.028441 54.846248 
L 54.108514 61.37951 
L 54.124528 61.218462 
L 54.140543 63.781169 
L 54.220615 58.866582 
L 54.252645 57.57293 
L 54.284674 57.606897 
L 54.300688 56.897116 
L 54.316703 58.246988 
L 54.364746 53.316588 
L 54.396775 55.383268 
L 54.41279 51.615926 
L 54.444819 52.845158 
L 54.460834 51.973159 
L 54.508877 54.962788 
L 54.524892 54.07849 
L 54.781125 62.960119 
L 54.797139 62.948406 
L 54.973299 55.27727 
L 54.861197 62.953677 
L 55.037357 55.507421 
L 55.101415 56.555695 
L 55.085401 54.41464 
L 55.133445 54.810525 
L 55.181488 53.860051 
L 55.229532 54.919451 
L 55.277575 57.971743 
L 55.389677 57.71758 
L 55.421706 58.733059 
L 55.533808 55.355158 
L 55.581852 55.056488 
L 55.661925 57.317597 
L 55.677939 55.116222 
L 55.774026 57.034153 
L 55.806055 55.722932 
L 55.82207 58.245231 
L 55.838085 60.606481 
L 55.918157 56.09422 
L 55.934172 54.056822 
L 55.99823 58.795721 
L 56.142361 62.980616 
L 56.190405 63.935189 
L 56.222434 62.629239 
L 56.238448 61.562811 
L 56.286492 64.550098 
L 56.478666 68.973344 
L 56.558739 64.612175 
L 56.590768 66.340362 
L 56.734899 73.496146 
L 56.798957 70.922898 
L 56.87903 72.495894 
L 56.943088 66.810621 
L 56.975117 70.259968 
L 57.039175 66.965812 
L 57.071205 65.618869 
L 57.087219 67.617616 
L 57.119248 70.622471 
L 57.183306 65.803927 
L 57.311423 69.664384 
L 57.519612 62.799071 
L 57.551641 68.073234 
L 57.599685 62.455894 
L 57.631714 63.057333 
L 57.647728 62.995257 
L 57.663743 61.684036 
L 57.695772 65.430882 
L 57.75983 62.376248 
L 57.775845 63.193199 
L 57.807874 61.24423 
L 57.887946 52.880296 
L 57.93599 55.560128 
L 57.952005 55.172442 
L 58.080121 60.403854 
L 58.128165 60.147349 
L 58.192223 62.558964 
L 58.208237 60.221138 
L 58.240266 62.707128 
L 58.28831 62.698343 
L 58.304325 62.83011 
L 58.46447 55.163658 
L 58.544543 59.934767 
L 58.592586 58.945056 
L 58.608601 58.224734 
L 58.624615 61.487851 
L 58.656645 60.557289 
L 58.672659 60.416152 
L 58.768746 65.738337 
L 58.832805 64.863995 
L 58.976935 60.607653 
L 59.121066 65.142753 
L 59.137081 65.13924 
L 59.185125 68.811711 
L 59.233168 65.882401 
L 59.329255 61.760168 
L 59.361285 62.355166 
L 59.393314 64.50032 
L 59.409328 62.245653 
L 59.425343 63.047378 
L 59.553459 57.419496 
L 59.69759 63.396997 
L 59.761648 59.126015 
L 59.809692 60.605896 
L 59.825706 61.713903 
L 59.889765 59.05164 
L 59.905779 60.503997 
L 59.969837 58.603049 
L 60.001866 59.877961 
L 60.017881 61.914774 
L 60.065925 57.199885 
L 60.097954 58.990149 
L 60.129983 61.534701 
L 60.194041 64.040602 
L 60.242085 62.614599 
L 60.258099 63.282214 
L 60.274114 62.038341 
L 60.338172 62.878131 
L 60.40223 60.511024 
L 60.450274 62.180649 
L 60.610419 66.65543 
L 60.706506 61.56164 
L 60.738535 62.735824 
L 60.802594 65.165007 
L 60.834623 61.648899 
L 60.850637 61.870852 
L 60.866652 59.843994 
L 60.946725 62.288404 
L 60.962739 61.322704 
L 60.978754 61.965723 
L 60.994768 59.229671 
L 61.010783 56.228329 
L 61.10687 57.206913 
L 61.138899 58.136304 
L 61.154914 55.805506 
L 61.170928 57.581715 
L 61.186943 55.753385 
L 61.234986 58.299694 
L 61.28303 62.804928 
L 61.347088 60.088201 
L 61.443175 58.222977 
L 61.539263 55.518548 
L 61.555277 57.956516 
L 61.619335 57.632664 
L 61.699408 60.460075 
L 61.651365 57.591085 
L 61.715423 58.536288 
L 61.779481 54.638936 
L 61.747452 59.927153 
L 61.827525 56.363023 
L 61.907597 57.929577 
L 61.923612 57.373231 
L 61.971655 55.039505 
L 62.035714 57.099157 
L 62.16383 51.062508 
L 62.291946 51.574932 
L 62.372019 55.512692 
L 62.404048 52.753215 
L 62.580208 57.323453 
L 62.596223 57.146008 
L 62.612237 56.52817 
L 62.644266 57.713481 
L 62.676295 56.934596 
L 62.788397 61.098409 
L 62.804412 60.032566 
L 62.836441 62.022529 
L 62.900499 60.296684 
L 62.916514 63.036251 
L 62.980572 59.49906 
L 62.996586 59.562307 
L 63.04463 58.400422 
L 63.076659 59.805343 
L 63.092674 62.564235 
L 63.140717 58.574939 
L 63.172746 58.816803 
L 63.204775 60.026124 
L 63.22079 58.947398 
L 63.364921 51.485331 
L 63.412965 53.696661 
L 63.428979 53.699003 
L 63.493037 55.020179 
L 63.461008 53.117475 
L 63.509052 53.418488 
L 63.57311 51.123998 
L 63.557095 54.716238 
L 63.605139 53.955508 
L 63.781299 61.432216 
L 63.829343 59.842823 
L 63.92543 54.177461 
L 63.973474 57.075147 
L 63.989488 57.673658 
L 64.005503 55.145504 
L 64.085575 55.642116 
L 64.117605 52.205653 
L 64.165648 54.82048 
L 64.213692 50.089194 
L 64.293765 50.065769 
L 64.357823 55.396738 
L 64.373837 51.604799 
L 64.45391 55.840644 
L 64.469925 56.274008 
L 64.485939 54.383016 
L 64.501954 53.410874 
L 64.533983 55.598194 
L 64.598041 53.703688 
L 64.646085 52.671812 
L 64.726157 55.198796 
L 64.80623 53.537956 
L 64.758186 56.757151 
L 64.838259 54.93702 
L 64.934346 58.367627 
L 64.870288 53.438399 
L 64.950361 56.540469 
L 64.966375 55.304794 
L 64.998405 58.411549 
L 65.014419 61.897205 
L 65.046448 58.252844 
L 65.110506 59.199804 
L 65.206594 56.709129 
L 65.142535 59.556451 
L 65.222608 58.484167 
L 65.254637 55.708877 
L 65.366739 57.290658 
L 65.606957 66.674755 
L 65.767103 57.883313 
L 65.815146 59.190434 
L 65.831161 61.321533 
L 65.86319 55.851771 
L 65.895219 55.995835 
L 65.911234 55.246817 
L 65.943263 58.691479 
L 66.007321 60.811451 
L 66.03935 60.188929 
L 66.071379 57.84759 
L 66.167466 58.596607 
L 66.183481 59.751465 
L 66.231525 57.113212 
L 66.247539 57.166505 
L 66.263554 55.997006 
L 66.343626 58.063686 
L 66.359641 57.596355 
L 66.375655 58.293252 
L 66.39167 60.247492 
L 66.407685 56.806344 
L 66.471743 59.141827 
L 66.599859 54.237195 
L 66.631888 55.98178 
L 66.647903 55.866997 
L 66.776019 51.887071 
L 66.792034 51.607727 
L 66.840077 50.956509 
L 66.888121 53.532099 
L 66.904135 51.41037 
L 66.952179 55.355158 
L 66.984208 53.054227 
L 67.080295 57.708796 
L 67.112325 55.508593 
L 67.192397 55.503322 
L 67.240441 57.687713 
L 67.304499 54.080832 
L 67.368557 54.757232 
L 67.384572 55.869925 
L 67.432615 52.439318 
L 67.44863 54.551677 
L 67.464645 52.172272 
L 67.560732 53.711301 
L 67.62479 57.124339 
L 67.672834 56.863735 
L 67.688848 51.833194 
L 67.784935 54.924722 
L 67.80095 55.032477 
L 67.897037 50.497962 
L 67.945081 51.466591 
L 68.121241 55.999349 
L 68.15327 55.716491 
L 68.185299 53.76635 
L 68.217328 58.369384 
L 68.265372 55.56657 
L 68.281386 56.641197 
L 68.297401 54.768945 
L 68.377474 56.217202 
L 68.441532 53.177795 
L 68.409503 57.683614 
L 68.489575 55.028964 
L 68.665735 48.502729 
L 68.697765 49.202554 
L 68.713779 45.759649 
L 68.777837 51.70377 
L 68.793852 53.382179 
L 68.841895 49.909992 
L 68.85791 50.477466 
L 68.873925 49.948058 
L 68.905954 52.045191 
L 68.921968 52.15646 
L 68.986026 48.544309 
L 68.953997 52.444589 
L 69.018055 52.022351 
L 69.082114 57.850518 
L 69.146172 55.793793 
L 69.178201 55.800235 
L 69.274288 53.782748 
L 69.290303 56.37415 
L 69.338346 50.539542 
L 69.450448 46.400326 
L 69.546535 49.89418 
L 69.482477 45.410615 
L 69.578565 49.822734 
L 69.642623 53.27618 
L 69.770739 52.346203 
L 69.802768 50.351556 
L 69.818783 53.679678 
L 69.866826 52.281199 
L 69.978928 55.370385 
L 69.930885 51.304372 
L 69.994943 53.445426 
L 70.010957 52.10551 
L 70.075015 54.018756 
L 70.09103 53.155541 
L 70.283205 58.080669 
L 70.187117 52.853357 
L 70.299219 56.091292 
L 70.331248 53.384521 
L 70.379292 57.312326 
L 70.395306 57.302956 
L 70.491394 58.950912 
L 70.555452 62.94665 
L 70.603495 59.148854 
L 70.635525 59.616771 
L 70.715597 56.649395 
L 70.747626 57.476302 
L 71.019874 51.662776 
L 71.051903 52.167587 
L 71.164005 56.830354 
L 71.180019 56.221887 
L 71.292121 49.953329 
L 71.308135 51.82968 
L 71.340165 53.267981 
L 71.372194 50.657253 
L 71.404223 52.203896 
L 71.468281 48.605214 
L 71.484295 52.425849 
L 71.50031 51.276847 
L 71.644441 55.698922 
L 71.692485 49.348961 
L 71.756543 53.349384 
L 71.788572 52.533019 
L 71.820601 53.953751 
L 71.836615 54.712139 
L 71.868645 51.409785 
L 71.884659 49.873098 
L 71.916688 52.692895 
L 71.964732 51.239953 
L 71.980746 53.397405 
L 72.02879 48.868161 
L 72.060819 50.54657 
L 72.124877 47.856196 
L 72.092848 51.198959 
L 72.172921 48.800814 
L 72.20495 53.542641 
L 72.285023 49.732547 
L 72.301037 47.135874 
L 72.365095 51.268648 
L 72.38111 50.391964 
L 72.573285 56.135214 
L 72.589299 54.822823 
L 72.637343 50.097393 
L 72.749445 50.509675 
L 72.813503 51.14918 
L 72.829517 50.069283 
L 72.893575 51.90874 
L 72.925605 51.208914 
L 72.941619 50.148928 
L 72.989663 54.266476 
L 73.005677 53.904559 
L 73.117779 57.954759 
L 73.053721 53.325373 
L 73.133794 57.741005 
L 73.149808 56.206075 
L 73.197852 60.209426 
L 73.213866 59.507258 
L 73.229881 59.697587 
L 73.390026 53.12216 
L 73.454085 55.909748 
L 73.502128 54.774801 
L 73.550172 51.653991 
L 73.630245 53.639855 
L 73.662274 52.437561 
L 73.710317 57.222725 
L 73.774375 56.161568 
L 73.822419 53.583635 
L 73.854448 56.809272 
L 73.886477 55.817804 
L 74.030608 59.56992 
L 73.918506 55.398495 
L 74.046623 58.680938 
L 74.062637 57.031225 
L 74.126695 61.411719 
L 74.302855 67.178395 
L 74.463001 56.634169 
L 74.527059 59.754979 
L 74.559088 60.761087 
L 74.575103 58.868924 
L 74.607132 59.747951 
L 74.67119 54.981528 
L 74.719234 58.736572 
L 74.815321 63.360103 
L 74.84735 61.985635 
L 74.895394 59.047541 
L 74.927423 61.587993 
L 75.055539 65.497058 
L 75.071554 64.978192 
L 75.119597 64.014834 
L 75.167641 65.945649 
L 75.19967 66.295268 
L 75.311772 61.692235 
L 75.503946 55.610492 
L 75.343801 63.178558 
L 75.519961 56.502988 
L 75.616048 59.873276 
L 75.632063 59.405359 
L 75.792208 54.754304 
L 75.808223 57.529008 
L 75.888295 55.569498 
L 75.90431 53.837211 
L 75.968368 56.371808 
L 75.984383 56.113546 
L 76.000397 56.698588 
L 76.016412 54.705697 
L 76.032426 53.660937 
L 76.048441 57.206327 
L 76.112499 55.451787 
L 76.25663 60.947902 
L 76.176557 53.260954 
L 76.272645 59.726283 
L 76.480834 65.677431 
L 76.512863 61.572767 
L 76.592935 64.475723 
L 76.640979 62.215201 
L 76.656994 65.24231 
L 76.673008 65.501743 
L 76.689023 63.982625 
L 76.721052 63.96857 
L 76.737066 65.478318 
L 76.849168 56.019846 
L 76.881197 56.168009 
L 76.913226 55.591166 
L 77.073372 63.648817 
L 77.153445 63.836804 
L 77.185474 59.701101 
L 77.249532 64.418332 
L 77.31359 64.117905 
L 77.329605 64.072812 
L 77.345619 64.129617 
L 77.425692 66.376085 
L 77.441706 64.865751 
L 77.521779 60.97367 
L 77.553808 63.954515 
L 77.569823 64.417161 
L 77.585837 63.008726 
L 77.601852 63.90298 
L 77.713954 58.331904 
L 77.729968 59.249582 
L 77.745983 59.948236 
L 77.794026 58.059587 
L 77.810041 58.259286 
L 77.84207 58.927487 
L 77.858085 57.673658 
L 77.922143 62.203488 
L 78.002215 61.125348 
L 78.01823 61.063271 
L 78.034245 61.431045 
L 78.050259 61.415819 
L 78.082288 63.334921 
L 78.146346 60.905737 
L 78.162361 61.978021 
L 78.178375 58.354743 
L 78.274463 59.619113 
L 78.354535 62.174207 
L 78.386565 60.809109 
L 78.450623 56.623628 
L 78.498666 56.852023 
L 78.610768 62.188262 
L 78.658812 60.536792 
L 78.72287 59.799487 
L 78.706855 60.965471 
L 78.754899 60.812622 
L 78.786928 63.053234 
L 78.818957 60.821992 
L 78.834972 59.596859 
L 78.89903 62.301874 
L 78.915045 62.969489 
L 78.931059 61.195037 
L 78.963088 61.476724 
L 78.979103 59.10786 
L 79.043161 63.979697 
L 79.059175 64.942469 
L 79.091205 61.568668 
L 79.123234 62.534368 
L 79.267365 66.009482 
L 79.315408 66.695838 
L 79.395481 60.602382 
L 79.459539 60.505168 
L 79.523597 65.390474 
L 79.60367 61.621374 
L 79.651714 63.070217 
L 79.667728 64.051143 
L 79.699757 60.03608 
L 79.715772 61.227247 
L 79.731786 59.842823 
L 79.763815 62.048297 
L 79.77983 61.485509 
L 79.875917 68.137067 
L 79.907946 66.325721 
L 80.052077 71.930178 
L 79.939975 65.341867 
L 80.068092 71.25085 
L 80.148165 66.925404 
L 80.180194 69.294853 
L 80.196208 71.817152 
L 80.244252 65.968488 
L 80.292295 69.536718 
L 80.468455 60.590084 
L 80.516499 62.775061 
L 80.532514 58.834372 
L 80.596572 62.005546 
L 80.692659 64.068712 
L 80.724688 63.323208 
L 80.772732 60.27853 
L 80.820775 63.775313 
L 80.83679 61.70629 
L 80.852805 62.785602 
L 80.900848 60.495212 
L 80.932877 62.034827 
L 80.964906 60.140322 
L 81.01295 62.852949 
L 81.028965 65.162665 
L 81.109037 62.647979 
L 81.125052 62.353994 
L 81.141066 62.792629 
L 81.157081 62.682531 
L 81.173095 63.542819 
L 81.237154 61.630744 
L 81.285197 58.691479 
L 81.333241 62.059424 
L 81.349255 60.377501 
L 81.413314 62.398502 
L 81.397299 59.133042 
L 81.445343 59.441668 
L 81.509401 58.031477 
L 81.605488 62.376834 
L 81.621503 61.606148 
L 81.685561 57.377331 
L 81.71759 60.915693 
L 81.845706 65.487688 
L 81.989837 59.199218 
L 82.021866 59.700515 
L 82.06991 61.363112 
L 82.117954 59.42937 
L 82.165997 55.279027 
L 82.24607 55.766855 
L 82.294114 58.138647 
L 82.342157 55.547244 
L 82.358172 56.394647 
L 82.374186 55.858212 
L 82.406215 57.84349 
L 82.438245 56.666379 
L 82.454259 58.977265 
L 82.502303 54.728537 
L 82.534332 55.870511 
L 82.566361 53.767522 
L 82.582375 57.429451 
L 82.630419 60.618194 
L 82.694477 59.748537 
L 82.806579 57.37206 
L 82.886652 52.43639 
L 82.95071 52.584554 
L 82.966725 55.459986 
L 83.046797 50.333987 
L 83.174914 56.233014 
L 83.319045 52.166416 
L 83.383103 55.126763 
L 83.399117 51.692643 
L 83.415132 53.326544 
L 83.543248 49.757144 
L 83.575277 55.537874 
L 83.65535 52.034064 
L 83.783466 49.395226 
L 83.879554 57.359762 
L 83.959626 55.705364 
L 83.975641 51.983114 
L 84.055714 56.021603 
L 84.18383 59.67182 
L 84.247888 59.348553 
L 84.263903 63.977354 
L 84.311946 69.21228 
L 84.376005 67.276195 
L 84.504121 62.255609 
L 84.568179 63.593182 
L 84.53615 61.636015 
L 84.584194 62.664377 
L 84.616223 58.731887 
L 84.71231 60.808523 
L 84.728325 61.859139 
L 84.776368 58.780494 
L 84.808397 56.091292 
L 84.856441 59.182235 
L 84.920499 62.92381 
L 84.88847 58.791621 
L 85.000572 61.71039 
L 85.06463 56.364195 
L 85.112674 58.263971 
L 85.160717 61.164585 
L 85.192746 57.137223 
L 85.208761 56.407531 
L 85.24079 59.262466 
L 85.272819 58.393395 
L 85.304848 58.368213 
L 85.400935 61.519475 
L 85.464994 56.859636 
L 85.513037 61.366041 
L 85.529052 60.759916 
L 85.545066 61.86441 
L 85.59311 61.357842 
L 85.625139 63.333164 
L 85.657168 60.457732 
L 85.689197 58.010394 
L 85.753255 61.217291 
L 85.785285 62.203488 
L 85.865357 58.7395 
L 85.897386 59.035242 
L 85.913401 62.262051 
L 85.993474 57.428866 
L 86.009488 59.622041 
L 86.025503 56.913513 
L 86.073546 62.222814 
L 86.105575 61.42636 
L 86.12159 61.498392 
L 86.217677 57.842905 
L 86.153619 61.931171 
L 86.233692 59.548838 
L 86.377823 55.092211 
L 86.47391 56.901215 
L 86.489925 56.948651 
L 86.618041 52.37607 
L 86.746157 56.354239 
L 86.762172 55.38034 
L 86.810215 54.649477 
L 86.82623 55.154874 
L 86.842245 56.28982 
L 86.906303 53.834869 
L 86.922317 55.211094 
L 86.954346 56.059668 
L 87.00239 54.903639 
L 87.114492 57.490942 
L 87.066448 53.711301 
L 87.146521 56.807515 
L 87.162535 56.906486 
L 87.17855 54.514783 
L 87.210579 58.567912 
L 87.274637 55.741673 
L 87.322681 54.470861 
L 87.370725 56.245312 
L 87.498841 50.948896 
L 87.578914 52.873854 
L 87.626957 54.718581 
L 87.610943 52.164659 
L 87.675001 52.716906 
L 87.771088 48.112115 
L 87.723045 52.738574 
L 87.787103 49.613079 
L 87.88319 54.323868 
L 87.915219 53.092879 
L 87.931234 53.027874 
L 87.947248 55.544902 
L 88.011306 51.430867 
L 88.043335 48.061166 
L 88.091379 50.789019 
L 88.23551 56.528756 
L 88.251525 56.597275 
L 88.267539 56.348968 
L 88.347612 52.853943 
L 88.395655 54.145837 
L 88.427685 53.609402 
L 88.459714 55.663784 
L 88.475728 54.904225 
L 88.491743 54.826336 
L 88.571815 56.077823 
L 88.555801 54.445679 
L 88.58783 55.612834 
L 88.619859 52.996836 
L 88.683917 56.033315 
L 88.699932 56.097734 
L 88.780005 55.21695 
L 88.844063 59.333913 
L 88.860077 58.106437 
L 88.892106 63.430378 
L 88.908121 63.748374 
L 88.924135 62.827182 
L 88.972179 64.848768 
L 89.052252 59.855121 
L 89.132325 59.199218 
L 89.164354 61.705119 
L 89.308485 56.98496 
L 89.324499 57.273674 
L 89.388557 57.920207 
L 89.372543 55.500394 
L 89.420586 56.871348 
L 89.46863 57.668973 
L 89.484645 56.585562 
L 89.500659 57.086274 
L 89.532688 55.676668 
L 89.564717 57.183488 
L 89.612761 61.192695 
L 89.660805 57.342779 
L 89.676819 55.61342 
L 89.724863 61.346715 
L 89.740877 61.620203 
L 89.756892 60.828434 
L 89.836965 56.931082 
L 89.885008 59.019431 
L 89.901023 58.95384 
L 90.013125 63.670485 
L 90.029139 62.74168 
L 90.141241 69.104524 
L 90.17327 66.609751 
L 90.205299 61.28171 
L 90.301386 62.469949 
L 90.317401 62.195875 
L 90.333415 59.268322 
L 90.397474 62.899214 
L 90.413488 62.454137 
L 90.557619 71.005472 
L 90.573634 70.41633 
L 90.589648 73.496146 
L 90.70175 76.868776 
L 90.813852 72.719604 
L 90.829866 73.600388 
L 90.861895 75.237803 
L 90.87791 72.251687 
L 90.925954 73.419429 
L 91.23023 59.421757 
L 91.246245 60.225823 
L 91.342332 63.112968 
L 91.294288 59.9986 
L 91.358346 60.56783 
L 91.374361 59.982788 
L 91.390375 62.160737 
L 91.422405 60.325966 
L 91.438419 62.786188 
L 91.502477 58.026792 
L 91.534506 62.034242 
L 91.550521 62.252681 
L 91.566535 62.071136 
L 91.694652 58.79982 
L 91.742695 60.686712 
L 91.75871 58.047289 
L 91.774725 58.834372 
L 91.822768 56.592589 
L 91.838783 59.295261 
L 91.870812 62.170693 
L 91.950885 61.431045 
L 91.966899 58.960282 
L 91.998928 64.027718 
L 92.046972 61.278782 
L 92.079001 60.957272 
L 92.175088 64.407791 
L 92.239146 61.014664 
L 92.255161 65.184333 
L 92.271175 64.813045 
L 92.335234 69.108624 
L 92.383277 66.631419 
L 92.431321 61.009393 
L 92.495379 64.110877 
L 92.527408 61.09958 
L 92.575452 64.601633 
L 92.607481 65.916953 
L 92.623495 64.010149 
L 92.687554 64.976435 
L 92.767626 62.509771 
L 92.735597 66.713407 
L 92.783641 64.208092 
L 92.863714 66.805936 
L 92.895743 65.262221 
L 92.927772 65.56382 
L 93.007845 59.865662 
L 93.055888 61.309235 
L 93.135961 65.045539 
L 93.16799 63.41808 
L 93.184005 64.243229 
L 93.232048 63.136393 
L 93.248063 61.502492 
L 93.312121 65.494715 
L 93.376179 62.338768 
L 93.424223 63.993752 
L 93.440237 64.998689 
L 93.488281 61.43046 
L 93.504295 61.475553 
L 93.52031 59.701101 
L 93.568354 61.913017 
L 93.616397 61.248915 
L 93.712485 63.509438 
L 93.680455 59.776647 
L 93.728499 61.604391 
L 93.744514 59.648395 
L 93.760528 61.956939 
L 93.840601 59.902557 
L 93.87263 62.842993 
L 93.936688 59.451624 
L 94.016761 61.874951 
L 93.968717 59.446939 
L 94.04879 59.548838 
L 94.080819 55.730546 
L 94.144877 59.849851 
L 94.160892 60.580714 
L 94.192921 57.961201 
L 94.208935 58.447272 
L 94.22495 56.288063 
L 94.272994 60.831362 
L 94.289008 59.510772 
L 94.465168 66.729219 
L 94.369081 58.946227 
L 94.497197 66.078586 
L 94.513212 65.681531 
L 94.529226 67.615273 
L 94.57727 70.710901 
L 94.625314 66.938873 
L 94.641328 68.151123 
L 94.817488 61.987391 
L 94.833503 61.8322 
L 94.913575 63.486013 
L 94.865532 59.562893 
L 94.92959 61.51479 
L 94.993648 58.637601 
L 95.041692 61.226076 
L 95.073721 59.721012 
L 95.089735 62.359851 
L 95.185823 64.006636 
L 95.201837 63.67927 
L 95.313939 58.307893 
L 95.329954 59.982202 
L 95.394012 59.622041 
L 95.442055 62.572433 
L 95.474085 62.333497 
L 95.490099 63.103012 
L 95.506114 64.064613 
L 95.522128 61.438073 
L 95.570172 62.475805 
L 95.602201 63.331993 
L 95.682274 60.169603 
L 95.746332 64.004293 
L 95.794375 62.170107 
L 95.81039 60.623465 
L 95.858434 64.718173 
L 95.938506 67.427287 
L 95.890463 64.561811 
L 95.970535 66.710479 
L 96.098652 59.704029 
L 96.002565 66.781339 
L 96.178725 61.176883 
L 96.258797 64.685964 
L 96.290826 62.235112 
L 96.306841 62.240968 
L 96.434957 54.751962 
L 96.450972 58.17964 
L 96.466986 59.274764 
L 96.499015 57.284801 
L 96.563074 58.708462 
L 96.611117 55.665541 
L 96.643146 60.653332 
L 96.675175 57.914351 
L 96.707205 56.658765 
L 96.723219 58.931001 
L 96.771263 60.691397 
L 96.755248 58.716661 
L 96.835321 59.191019 
L 96.851335 59.282377 
L 96.963437 62.256195 
L 96.915394 57.650233 
L 96.979452 61.039846 
L 97.059525 59.268322 
L 97.04351 61.487265 
L 97.091554 60.831362 
L 97.123583 62.949578 
L 97.155612 59.873276 
L 97.203655 61.327975 
L 97.267714 58.907576 
L 97.299743 61.784179 
L 97.379815 60.695497 
L 97.411845 64.721687 
L 97.427859 61.97685 
L 97.523946 62.656764 
L 97.604019 67.729471 
L 97.636048 65.271591 
L 97.732135 60.823164 
L 97.860252 57.378502 
L 97.876266 57.827678 
L 97.908295 60.503997 
L 97.956339 57.141323 
L 97.988368 58.172027 
L 98.020397 56.574435 
L 98.036412 58.784594 
L 98.10047 57.963544 
L 98.212572 61.906575 
L 98.260615 60.580714 
L 98.308659 57.917865 
L 98.340688 60.749375 
L 98.404746 64.407791 
L 98.436775 61.334417 
L 98.468805 58.12342 
L 98.548877 60.305469 
L 98.612935 61.839813 
L 98.660979 57.796054 
L 98.676994 60.484085 
L 98.741052 56.560966 
L 98.757066 57.000186 
L 98.821125 54.625466 
L 98.869168 56.717914 
L 98.901197 57.552433 
L 98.98127 61.15053 
L 99.013299 60.855959 
L 99.093372 55.451787 
L 99.141415 55.895107 
L 99.173445 56.218959 
L 99.205474 54.100744 
L 99.301561 62.387961 
L 99.349605 60.378087 
L 99.365619 61.790035 
L 99.413663 57.961201 
L 99.429677 59.178136 
L 99.477721 56.969148 
L 99.461706 59.257195 
L 99.493735 59.047541 
L 99.50975 60.809109 
L 99.573808 56.833282 
L 99.637866 58.765854 
L 99.733954 62.859977 
L 99.749968 58.228248 
L 99.830041 64.117319 
L 99.846055 64.052315 
L 99.942143 68.94172 
L 99.990186 66.456316 
L 100.03823 67.539727 
L 100.054245 66.246076 
L 100.070259 65.265735 
L 100.118303 66.132464 
L 100.150332 70.695089 
L 100.21439 65.090632 
L 100.294463 67.888176 
L 100.246419 64.39315 
L 100.326492 65.902898 
L 100.374535 61.903647 
L 100.438594 63.629491 
L 100.454608 63.342534 
L 100.470623 65.129869 
L 100.502652 60.817893 
L 100.550695 63.063775 
L 100.56671 61.266484 
L 100.614754 64.541314 
L 100.646783 62.467021 
L 100.710841 65.285646 
L 100.74287 62.028385 
L 100.758885 61.891349 
L 100.774899 63.330821 
L 100.838957 61.185082 
L 100.887001 58.098238 
L 100.967074 58.415648 
L 101.047146 61.29518 
L 101.063161 60.143836 
L 101.079175 58.030891 
L 101.143234 60.553775 
L 101.239321 63.184414 
L 101.255335 62.125014 
L 101.27135 61.946398 
L 101.367437 57.46986 
L 101.399466 58.226491 
L 101.431495 57.927235 
L 101.44751 58.846085 
L 101.527583 59.68119 
L 101.687728 63.981454 
L 101.719757 62.786773 
L 101.815845 60.701939 
L 101.783815 64.013078 
L 101.847874 61.19328 
L 101.879903 62.850607 
L 101.911932 59.253682 
L 101.927946 59.494375 
L 101.943961 57.052307 
L 101.97599 59.559965 
L 102.040048 58.330732 
L 102.072077 59.027629 
L 102.088092 57.187587 
L 102.120121 55.909748 
L 102.136135 57.888584 
L 102.168165 57.347464 
L 102.32831 62.44301 
L 102.456426 64.22039 
L 102.392368 61.115978 
L 102.472441 63.500653 
L 102.536499 61.667639 
L 102.552514 63.079587 
L 102.616572 65.567333 
L 102.648601 64.268411 
L 102.664615 62.241554 
L 102.744688 62.371563 
L 102.872805 65.253437 
L 102.888819 65.448451 
L 102.904834 63.400511 
L 102.984906 65.797485 
L 103.016935 66.817648 
L 103.03295 64.439414 
L 103.129037 61.487265 
L 103.20911 66.1758 
L 103.241139 63.765357 
L 103.257154 63.793467 
L 103.273168 63.276944 
L 103.305197 65.188432 
L 103.401285 67.203577 
L 103.337226 64.177639 
L 103.417299 65.955019 
L 103.465343 63.04972 
L 103.497372 66.010653 
L 103.529401 65.313171 
L 103.545415 65.575532 
L 103.609474 62.47112 
L 103.657517 63.77707 
L 103.673532 64.455226 
L 103.689546 61.688721 
L 103.73759 62.830695 
L 103.801648 58.057244 
L 103.865706 60.085858 
L 103.929765 61.953425 
L 104.041866 56.729626 
L 104.121939 58.285639 
L 104.073895 56.531684 
L 104.137954 57.414811 
L 104.202012 53.632242 
L 104.26607 55.857627 
L 104.282085 58.385781 
L 104.330128 53.641026 
L 104.378172 57.317011 
L 104.44223 58.449615 
L 104.522303 53.263882 
L 104.554332 55.736987 
L 104.570346 52.200968 
L 104.61839 53.656252 
L 104.79455 45.278263 
L 104.666434 55.338175 
L 104.842594 47.343772 
L 105.018754 58.099995 
L 104.874623 46.371044 
L 105.098826 55.851185 
L 105.130855 56.467265 
L 105.194914 55.858212 
L 105.242957 59.012989 
L 105.307015 56.071381 
L 105.355059 58.559713 
L 105.451146 53.461824 
L 105.49919 55.091626 
L 105.627306 62.116815 
L 105.691365 58.6458 
L 105.787452 56.874862 
L 105.755423 59.526584 
L 105.803466 57.961787 
L 105.915568 64.293593 
L 105.963612 64.120833 
L 105.995641 61.616689 
L 106.107743 56.707373 
L 106.139772 58.314335 
L 106.315932 63.112968 
L 106.171801 58.105266 
L 106.347961 62.751636 
L 106.37999 61.29518 
L 106.396005 64.533701 
L 106.460063 61.404692 
L 106.492092 62.896871 
L 106.508106 60.953173 
L 106.55615 61.069713 
L 106.620208 58.880637 
L 106.668252 59.349725 
L 106.812383 65.560891 
L 106.844412 61.512447 
L 106.940499 63.495383 
L 106.972528 61.233689 
L 107.052601 62.775646 
L 107.148688 66.065702 
L 107.164703 68.459748 
L 107.228761 63.022781 
L 107.244775 64.914944 
L 107.26079 63.640033 
L 107.308834 67.706631 
L 107.324848 67.303719 
L 107.340863 67.351155 
L 107.533037 60.593598 
L 107.565066 64.347471 
L 107.581081 64.611589 
L 107.597095 63.238878 
L 107.61311 61.129447 
L 107.693183 64.510275 
L 107.725212 62.050639 
L 107.837314 62.800828 
L 107.933401 66.552945 
L 107.96543 66.473299 
L 107.981445 64.573523 
L 108.045503 67.911601 
L 108.061517 66.917791 
L 108.093546 68.514212 
L 108.14159 64.124347 
L 108.157605 64.020105 
L 108.173619 64.227417 
L 108.333765 72.518734 
L 108.429852 71.212198 
L 108.541954 67.985976 
L 108.461881 72.135733 
L 108.557968 69.092812 
L 108.606012 72.724289 
L 108.654055 69.668484 
L 108.766157 62.160152 
L 108.84623 64.324046 
L 108.862245 64.5378 
L 108.878259 66.266573 
L 108.942317 64.471624 
L 108.958332 65.019186 
L 108.974346 63.651745 
L 109.02239 67.847767 
L 109.038405 66.519564 
L 109.070434 68.901312 
L 109.102463 65.779916 
L 109.166521 62.465849 
L 109.214565 62.486932 
L 109.438768 70.70036 
L 109.454783 67.788619 
L 109.55087 69.096326 
L 109.566885 69.859984 
L 109.598914 66.989237 
L 109.630943 69.547844 
L 109.807103 64.139573 
L 109.90319 62.984715 
L 109.919205 63.290413 
L 109.951234 63.064946 
L 109.967248 63.927576 
L 110.015292 60.051892 
L 110.07935 60.911593 
L 110.095365 60.904566 
L 110.111379 62.543738 
L 110.143408 59.456309 
L 110.191452 60.576029 
L 110.207466 59.316929 
L 110.25551 61.873194 
L 110.287539 61.648899 
L 110.303554 62.45765 
L 110.351597 59.389547 
L 110.367612 61.000023 
L 110.463699 55.513278 
L 110.511743 56.381764 
L 110.543772 55.574183 
L 110.559786 57.751547 
L 110.623845 60.487013 
L 110.671888 60.440163 
L 110.735946 55.351059 
L 110.78399 58.389881 
L 110.800005 58.553857 
L 110.880077 62.699515 
L 110.912106 61.866752 
L 110.928121 58.645214 
L 111.024208 61.266484 
L 111.13631 53.19185 
L 111.168339 58.847256 
L 111.296455 61.647727 
L 111.344499 62.322956 
L 111.424572 56.623628 
L 111.472615 56.152783 
L 111.600732 64.796647 
L 111.616746 63.110625 
L 111.680805 65.038512 
L 111.712834 63.337849 
L 111.84095 68.579802 
L 111.905008 66.506094 
L 111.888994 69.358687 
L 111.937037 69.113894 
L 111.953052 69.949585 
L 112.001095 68.398257 
L 112.049139 66.878554 
L 112.081168 68.929422 
L 112.113197 67.785105 
L 112.241314 63.305054 
L 112.273343 60.290828 
L 112.337401 62.924981 
L 112.465517 71.263148 
L 112.54559 68.232525 
L 112.561605 67.637527 
L 112.593634 69.771554 
L 112.641677 68.360777 
L 112.657692 71.105028 
L 112.705735 67.535628 
L 112.753779 69.989408 
L 112.769794 69.667313 
L 112.801823 70.396419 
L 112.961968 75.582737 
L 112.849866 69.845343 
L 112.977983 74.820836 
L 112.993997 72.166771 
L 113.042041 76.064709 
L 113.090085 74.198314 
L 113.122114 75.229018 
L 113.170157 72.331918 
L 113.410375 78.983477 
L 113.506463 73.343297 
L 113.538492 76.104532 
L 113.60255 75.184511 
L 113.618565 74.011498 
L 113.634579 77.01694 
L 113.714652 74.789798 
L 113.746681 76.320043 
L 113.762695 74.225838 
L 113.794725 74.929177 
L 113.810739 71.77323 
L 113.890812 77.330836 
L 113.938855 76.47582 
L 113.95487 79.537481 
L 113.970885 79.367063 
L 114.066972 75.951683 
L 114.050957 80.055176 
L 114.099001 76.1262 
L 114.115015 78.205764 
L 114.163059 73.428213 
L 114.195088 75.359028 
L 114.30719 76.927339 
L 114.419292 71.514968 
L 114.435306 73.644896 
L 114.451321 75.359613 
L 114.515379 71.438251 
L 114.531394 73.369651 
L 114.547408 73.261309 
L 114.691539 67.788033 
L 114.595452 74.583657 
L 114.723568 67.828442 
L 114.851685 69.81899 
L 114.867699 69.262644 
L 114.995815 63.322037 
L 115.01183 63.444433 
L 115.027845 62.933766 
L 115.043859 63.232436 
L 115.123932 59.800072 
L 115.091903 64.087452 
L 115.155961 61.927657 
L 115.171975 64.467525 
L 115.252048 60.77807 
L 115.284077 59.94238 
L 115.348135 62.267321 
L 115.396179 61.446272 
L 115.428208 58.599535 
L 115.508281 60.283215 
L 115.524295 60.421423 
L 115.588354 61.139988 
L 115.636397 58.475382 
L 115.71647 64.051729 
L 115.764514 63.00287 
L 115.796543 64.605147 
L 115.844586 62.818983 
L 115.860601 62.821325 
L 115.876615 62.126771 
L 115.908645 64.320532 
L 115.940674 65.936279 
L 115.972703 62.554865 
L 116.004732 58.851355 
L 116.084805 60.720093 
L 116.132848 61.318605 
L 116.148863 58.847256 
L 116.196906 62.781503 
L 116.24495 60.663873 
L 116.309008 65.477732 
L 116.357052 63.026881 
L 116.437125 60.416152 
L 116.453139 63.152205 
L 116.485168 61.221976 
L 116.533212 63.84266 
L 116.59727 62.602886 
L 116.629299 56.655252 
L 116.757415 59.694659 
L 116.805459 61.726787 
L 116.837488 60.621122 
L 116.885532 55.184741 
L 116.965605 55.899206 
L 116.997634 59.297604 
L 117.077706 59.273007 
L 117.109735 56.24297 
L 117.141765 61.036918 
L 117.173794 60.375744 
L 117.189808 61.080254 
L 117.205823 59.164081 
L 117.221837 59.596274 
L 117.237852 57.650819 
L 117.333939 58.988392 
L 117.349954 60.355247 
L 117.430026 57.817137 
L 117.510099 64.734571 
L 117.622201 63.019267 
L 117.766332 54.537036 
L 117.782346 55.59468 
L 117.814375 59.161152 
L 117.878434 54.937606 
L 117.910463 57.081589 
L 117.942492 55.850014 
L 117.958506 53.557867 
L 118.022565 59.726283 
L 118.086623 54.822823 
L 118.102637 58.175541 
L 118.166695 57.45112 
L 118.230754 63.170359 
L 118.278797 60.944974 
L 118.310826 63.396412 
L 118.342855 61.087867 
L 118.406914 65.063108 
L 118.438943 60.607653 
L 118.454957 61.279953 
L 118.470972 60.684956 
L 118.486986 60.801495 
L 118.503001 63.655845 
L 118.551045 58.794549 
L 118.583074 60.69374 
L 118.615103 57.785513 
L 118.695175 60.267989 
L 118.71119 60.368131 
L 118.727205 58.891178 
L 118.807277 59.464508 
L 118.935394 63.690982 
L 118.951408 63.313838 
L 118.967423 64.051729 
L 118.983437 61.791792 
L 118.999452 60.186586 
L 119.031481 64.048215 
L 119.095539 61.671153 
L 119.111554 63.88014 
L 119.207641 63.449118 
L 119.271699 63.719092 
L 119.319743 60.002699 
L 119.335757 63.212525 
L 119.383801 58.28154 
L 119.41583 60.154963 
L 119.479888 55.621033 
L 119.59199 62.257366 
L 119.608005 61.223147 
L 119.640034 64.001951 
L 119.672063 63.925819 
L 119.848223 59.052811 
L 119.960325 63.193784 
L 119.896266 58.734815 
L 119.976339 61.672324 
L 120.024383 60.444263 
L 120.136485 64.823586 
L 120.184528 60.938532 
L 120.248586 62.23804 
L 120.392717 68.651249 
L 120.328659 60.872942 
L 120.424746 67.181323 
L 120.440761 67.174881 
L 120.488805 63.515294 
L 120.536848 66.992751 
L 120.568877 71.587 
L 120.64895 67.108705 
L 120.713008 68.390059 
L 120.761052 64.17881 
L 120.873154 69.887509 
L 120.905183 68.19563 
L 121.033299 64.024204 
L 120.937212 68.332081 
L 121.081343 66.709893 
L 121.097357 66.680026 
L 121.257503 57.653747 
L 121.273517 57.434722 
L 121.305546 60.962543 
L 121.385619 60.682027 
L 121.465692 56.502988 
L 121.481706 58.820317 
L 121.625837 65.52224 
L 121.673881 61.728544 
L 121.689895 64.162998 
L 121.818012 71.53605 
L 121.834026 71.62858 
L 121.978157 66.221479 
L 121.994172 66.114895 
L 122.010186 66.44109 
L 122.026201 64.056414 
L 122.090259 68.865588 
L 122.106274 67.078838 
L 122.122288 67.77515 
L 122.138303 65.784601 
L 122.170332 66.224993 
L 122.186346 65.471876 
L 122.218375 67.100507 
L 122.23439 68.541736 
L 122.266419 63.544575 
L 122.298448 65.084776 
L 122.314463 64.209848 
L 122.346492 68.284646 
L 122.362506 67.225831 
L 122.378521 67.568423 
L 122.41055 66.530105 
L 122.554681 59.955849 
L 122.618739 59.222058 
L 122.634754 61.764853 
L 122.698812 57.485086 
L 122.714826 58.966724 
L 122.730841 58.218292 
L 122.778885 61.0621 
L 122.794899 61.156971 
L 122.874972 57.270161 
L 122.923015 58.293838 
L 122.93903 58.939785 
L 122.955045 57.686542 
L 122.971059 55.704192 
L 123.019103 59.996257 
L 123.067146 56.809272 
L 123.083161 56.642368 
L 123.099175 57.397828 
L 123.131205 59.351481 
L 123.147219 57.859888 
L 123.275335 51.966131 
L 123.387437 59.10786 
L 123.419466 55.751043 
L 123.499539 58.27744 
L 123.46751 55.622204 
L 123.515554 57.795469 
L 123.531568 55.599951 
L 123.611641 55.993492 
L 123.627655 57.933091 
L 123.691714 53.689633 
L 123.771786 54.196201 
L 123.81983 51.740079 
L 123.915917 47.990305 
L 123.931932 48.659677 
L 123.947946 48.604628 
L 123.963961 47.019334 
L 123.99599 52.215608 
L 124.028019 51.497629 
L 124.060048 53.577778 
L 124.092077 50.752125 
L 124.140121 52.031136 
L 124.252223 47.37891 
L 124.268237 50.261369 
L 124.300266 48.976502 
L 124.396354 53.146756 
L 124.444397 50.340429 
L 124.492441 52.956427 
L 124.892805 67.089965 
L 124.908819 65.748878 
L 124.924834 64.904403 
L 124.940848 67.512203 
L 124.956863 66.897294 
L 124.972877 68.411141 
L 125.036935 65.143925 
L 125.05295 60.980112 
L 125.149037 63.284557 
L 125.213095 59.776061 
L 125.261139 61.336759 
L 125.373241 65.986057 
L 125.40527 65.782844 
L 125.453314 63.152205 
L 125.501357 67.550269 
L 125.517372 66.451631 
L 125.549401 68.231354 
L 125.565415 68.053908 
L 125.58143 70.782348 
L 125.645488 66.511951 
L 125.661503 63.009312 
L 125.725561 68.084361 
L 125.741575 67.777492 
L 125.75759 70.083108 
L 125.805634 65.755905 
L 125.837663 67.578964 
L 125.901721 70.726127 
L 125.93375 73.897887 
L 125.997808 69.178313 
L 126.013823 69.467028 
L 126.045852 68.220812 
L 126.10991 65.841993 
L 126.141939 67.611174 
L 126.173968 69.770969 
L 126.189983 67.459496 
L 126.238026 67.676764 
L 126.382157 64.479237 
L 126.28607 68.315098 
L 126.398172 65.211857 
L 126.46223 72.119336 
L 126.526288 71.107957 
L 126.574332 74.519823 
L 126.686434 66.109039 
L 126.702448 66.099083 
L 126.718463 68.390059 
L 126.782521 63.290413 
L 126.798535 64.80836 
L 126.910637 62.10276 
L 126.926652 63.50651 
L 126.974695 59.217958 
L 126.99071 58.857797 
L 127.006725 59.173451 
L 127.038754 58.875366 
L 127.102812 60.877041 
L 127.150855 57.701183 
L 127.214914 60.645133 
L 127.278972 64.630915 
L 127.327015 63.015754 
L 127.439117 57.988726 
L 127.455132 60.60531 
L 127.503175 59.398917 
L 127.51919 61.200894 
L 127.615277 66.134807 
L 127.663321 62.936694 
L 127.679335 62.407872 
L 127.711365 64.308234 
L 127.791437 68.571018 
L 127.839481 68.525339 
L 127.855495 67.096407 
L 127.887525 70.573864 
L 127.903539 69.582397 
L 127.919554 72.696179 
L 127.999626 68.681701 
L 128.015641 69.921475 
L 128.095714 71.66606 
L 128.159772 76.419014 
L 128.207815 75.280554 
L 128.22383 73.021202 
L 128.271874 75.585666 
L 128.319917 74.806195 
L 128.383975 76.628083 
L 128.512092 83.488125 
L 128.528106 78.554798 
L 128.624194 80.797166 
L 128.848397 90.248611 
L 128.864412 89.915389 
L 129.008543 81.454826 
L 128.912455 90.893973 
L 129.088615 84.292192 
L 129.184703 91.271702 
L 129.248761 88.657461 
L 129.28079 87.740953 
L 129.312819 88.617052 
L 129.488979 98.814587 
L 129.504994 97.457102 
L 129.665139 104.865292 
L 129.569052 97.288441 
L 129.713183 104.812585 
L 129.873328 95.885863 
L 129.889343 97.055361 
L 129.969415 102.245779 
L 130.113546 109.081225 
L 130.001445 102.221183 
L 130.145575 106.861111 
L 130.257677 102.621752 
L 130.33775 105.506554 
L 130.369779 102.772844 
L 130.401808 105.935819 
L 130.449852 102.438451 
L 130.465866 103.111337 
L 130.577968 98.28108 
L 130.626012 99.393772 
L 130.642026 101.314631 
L 130.706085 97.797937 
L 130.722099 96.681731 
L 130.770143 98.64534 
L 130.802172 97.672613 
L 130.930288 105.378887 
L 130.962317 105.194414 
L 131.074419 99.916152 
L 131.106448 100.854328 
L 131.138477 100.099454 
L 131.170506 101.728084 
L 131.186521 102.239337 
L 131.234565 100.809234 
L 131.250579 101.150655 
L 131.282608 99.221012 
L 131.346666 101.368509 
L 131.362681 101.02006 
L 131.39471 99.187631 
L 131.442754 102.289115 
L 131.458768 101.841696 
L 131.538841 103.664755 
L 131.506812 101.530728 
L 131.57087 103.05863 
L 131.634928 99.665504 
L 131.650943 99.944848 
L 131.698986 95.490564 
L 131.74703 100.751843 
L 131.795074 101.558838 
L 131.827103 100.149818 
L 131.843117 98.917657 
L 131.875146 101.249626 
L 131.891161 100.686253 
L 131.987248 105.489571 
L 132.019277 104.482291 
L 132.035292 104.11276 
L 132.067321 105.586785 
L 132.083335 105.611967 
L 132.115365 102.276817 
L 132.179423 104.986516 
L 132.387612 110.962847 
L 132.403626 110.555835 
L 132.419641 110.578089 
L 132.435655 111.813178 
L 132.483699 107.528726 
L 132.515728 110.501958 
L 132.595801 106.267284 
L 132.62783 108.910222 
L 132.643845 110.164051 
L 132.691888 105.757202 
L 132.707903 106.78615 
L 132.787975 106.20755 
L 132.739932 107.211902 
L 132.80399 106.666097 
L 132.948121 111.027266 
L 132.98015 111.036636 
L 132.996165 109.704918 
L 133.028194 108.239678 
L 133.092252 110.227884 
L 133.108266 108.373201 
L 133.220368 112.21199 
L 133.140295 108.097956 
L 133.236383 111.669114 
L 133.300441 108.478614 
L 133.33247 111.741146 
L 133.348485 111.179529 
L 133.556674 105.573901 
L 133.380514 112.491335 
L 133.620732 105.972128 
L 133.716819 109.259256 
L 133.732834 108.934232 
L 133.748848 107.563278 
L 133.812906 110.506643 
L 133.828921 109.321332 
L 133.892979 107.758878 
L 133.908994 109.51049 
L 133.925008 110.97573 
L 133.989066 108.481542 
L 134.005081 109.049015 
L 134.117183 105.600254 
L 134.053125 109.369939 
L 134.133197 106.841199 
L 134.149212 106.796692 
L 134.245299 106.780294 
L 134.277328 108.440548 
L 134.38943 104.078208 
L 134.341386 109.125733 
L 134.421459 104.268537 
L 134.501532 102.929206 
L 134.549575 105.534078 
L 134.581605 103.649529 
L 134.677692 104.790917 
L 134.74175 106.789664 
L 134.789794 104.932639 
L 134.901895 103.996806 
L 134.821823 105.408168 
L 134.91791 104.047755 
L 134.965954 103.570469 
L 134.997983 104.91097 
L 135.013997 102.634636 
L 135.046026 105.259419 
L 135.09407 104.859435 
L 135.158128 104.17308 
L 135.238201 107.432098 
L 135.254215 105.787069 
L 135.334288 108.336307 
L 135.366317 110.373705 
L 135.398346 107.587874 
L 135.414361 107.98493 
L 135.510448 102.994797 
L 135.542477 105.045665 
L 135.574506 102.795683 
L 135.638565 105.370688 
L 135.654579 105.00877 
L 135.670594 106.957739 
L 135.702623 105.709767 
L 135.814725 110.434611 
L 135.830739 110.141211 
L 135.958855 106.813675 
L 135.878783 110.185133 
L 135.97487 108.716965 
L 136.086972 105.01287 
L 136.15103 105.80581 
L 136.183059 107.738966 
L 136.199074 104.940252 
L 136.215088 105.343749 
L 136.247117 103.068 
L 136.32719 104.48639 
L 136.343205 104.308945 
L 136.359219 105.149907 
L 136.375234 105.768329 
L 136.407263 103.657142 
L 136.423277 101.77552 
L 136.471321 104.514501 
L 136.519365 102.914566 
L 136.583423 105.754274 
L 136.663495 104.232814 
L 136.711539 102.08356 
L 136.759583 103.410592 
L 136.85567 109.764067 
L 136.887699 107.057881 
L 136.903714 105.859687 
L 136.967772 108.968784 
L 136.999801 108.504382 
L 137.015815 108.956486 
L 137.079874 112.072611 
L 137.127917 109.058971 
L 137.304077 114.228306 
L 137.368135 111.607037 
L 137.336106 114.734289 
L 137.416179 112.529401 
L 137.448208 115.286536 
L 137.528281 113.350451 
L 137.56031 113.978243 
L 137.640383 110.774275 
L 137.672412 112.063241 
L 137.720455 109.122805 
L 137.768499 109.386337 
L 137.864586 106.803133 
L 137.992703 112.518274 
L 138.040746 108.784312 
L 138.120819 110.138283 
L 138.136834 111.525635 
L 138.184877 109.983677 
L 138.232921 111.146734 
L 138.248935 111.117452 
L 138.377052 107.145726 
L 138.425095 108.226794 
L 138.44111 109.121633 
L 138.489154 106.748084 
L 138.521183 108.457532 
L 138.537197 108.26486 
L 138.553212 108.909636 
L 138.601255 106.871066 
L 138.681328 110.4065 
L 138.745386 107.010446 
L 138.777415 109.721316 
L 138.889517 113.669618 
L 138.905532 112.869065 
L 138.921546 112.313304 
L 138.96959 113.605784 
L 138.985605 114.645859 
L 139.017634 111.456531 
L 139.049663 113.187646 
L 139.177779 109.515761 
L 139.193794 109.402149 
L 139.209808 109.447242 
L 139.385968 113.490416 
L 139.562128 105.086073 
L 139.610172 107.123472 
L 139.658215 111.625777 
L 139.738288 111.448332 
L 139.882419 107.963262 
L 139.770317 113.044167 
L 139.930463 108.345677 
L 139.946477 109.441972 
L 140.010535 106.457027 
L 140.074594 108.627364 
L 140.154666 107.624183 
L 140.170681 107.668105 
L 140.234739 104.759293 
L 140.266768 107.402231 
L 140.282783 109.259841 
L 140.330826 105.703325 
L 140.37887 107.6072 
L 140.394885 107.54161 
L 140.410899 106.535502 
L 140.490972 107.82154 
L 140.571045 111.488155 
L 140.603074 111.067674 
L 140.635103 107.395203 
L 140.699161 112.481379 
L 140.827277 109.23993 
L 140.923365 112.959251 
L 140.955394 111.980082 
L 140.971408 112.097793 
L 140.987423 110.962261 
L 141.051481 113.352793 
L 141.067495 112.869065 
L 141.08351 113.008444 
L 141.115539 112.639499 
L 141.147568 111.575413 
L 141.179597 112.763066 
L 141.227641 112.085495 
L 141.355757 116.450178 
L 141.387786 116.198358 
L 141.531917 112.369524 
L 141.660034 114.411608 
L 141.676048 113.87693 
L 141.756121 111.45126 
L 141.724092 114.201953 
L 141.772135 113.23801 
L 141.836194 114.291554 
L 141.852208 110.556421 
L 141.900252 115.653139 
L 141.932281 114.393453 
L 141.96431 115.627371 
L 141.996339 112.737884 
L 142.012354 113.240938 
L 142.092426 110.599172 
L 142.124455 111.61465 
L 142.284601 116.454863 
L 142.31663 114.715549 
L 142.364674 111.610551 
L 142.396703 113.673131 
L 142.49279 116.129254 
L 142.444746 112.98092 
L 142.508805 114.214251 
L 142.524819 115.167068 
L 142.588877 112.770679 
L 142.604892 113.707683 
L 142.636921 112.511246 
L 142.684965 114.659328 
L 142.716994 115.459296 
L 142.733008 114.375299 
L 142.765037 114.672798 
L 142.781052 113.607541 
L 142.84511 115.789004 
L 142.861125 117.270057 
L 142.909168 112.443899 
L 142.925183 112.344342 
L 142.941197 111.498696 
L 142.989241 114.108253 
L 143.005255 113.920266 
L 143.181415 120.611648 
L 143.213445 120.597007 
L 143.277503 116.535094 
L 143.341561 116.971386 
L 143.37359 119.55459 
L 143.421634 116.119298 
L 143.437648 113.766832 
L 143.517721 116.894669 
L 143.533735 118.135029 
L 143.613808 117.761984 
L 143.693881 115.386092 
L 143.661852 119.226053 
L 143.741925 115.818871 
L 143.773954 115.250812 
L 143.789968 115.28595 
L 143.838012 118.49109 
L 143.90207 117.527733 
L 143.998157 116.385173 
L 143.982143 118.300176 
L 144.014172 116.785742 
L 144.062215 117.819375 
L 144.094245 117.143561 
L 144.206346 113.731109 
L 144.222361 114.691538 
L 144.318448 110.428754 
L 144.25439 114.96444 
L 144.350477 113.024842 
L 144.414535 115.706431 
L 144.446565 115.551239 
L 144.526637 111.209396 
L 144.558666 112.642427 
L 144.60671 116.579602 
L 144.686783 116.004515 
L 144.702797 115.533085 
L 144.734826 117.852756 
L 144.766855 118.218773 
L 144.846928 117.283526 
L 144.862943 117.821132 
L 144.910986 116.576673 
L 144.975045 117.269471 
L 145.071132 112.989118 
L 145.215263 116.646363 
L 145.31135 113.334053 
L 145.247292 116.935663 
L 145.343379 114.090098 
L 145.439466 117.588638 
L 145.471495 117.005938 
L 145.48751 116.874172 
L 145.503525 117.480297 
L 145.583597 119.426923 
L 145.535554 117.353216 
L 145.599612 118.07588 
L 145.743743 115.017147 
L 145.791786 117.195682 
L 145.855845 116.399228 
L 145.999975 112.269968 
L 146.032005 113.286617 
L 146.176135 119.158706 
L 146.224179 118.978918 
L 146.240194 117.73973 
L 146.272223 119.166904 
L 146.336281 117.915418 
L 146.384325 119.368946 
L 146.416354 117.238433 
L 146.432368 117.537103 
L 146.512441 114.630633 
L 146.592514 115.763237 
L 146.608528 117.168157 
L 146.672586 113.64385 
L 146.736645 114.753029 
L 146.768674 112.604947 
L 146.89679 116.053122 
L 147.024906 114.548645 
L 147.056935 117.342089 
L 147.120994 113.770931 
L 147.169037 112.117704 
L 147.201066 113.397886 
L 147.313168 116.015056 
L 147.329183 114.071358 
L 147.393241 117.858027 
L 147.409255 117.414707 
L 147.473314 114.462558 
L 147.537372 115.978748 
L 147.569401 117.5535 
L 147.60143 114.788167 
L 147.633459 115.774363 
L 147.681503 114.453773 
L 147.729546 116.320168 
L 147.745561 116.32661 
L 147.825634 115.79896 
L 147.905706 120.127919 
L 148.193968 111.990038 
L 147.937735 121.075465 
L 148.209983 113.061736 
L 148.242012 112.833341 
L 148.322085 116.280346 
L 148.370128 117.831088 
L 148.402157 114.346603 
L 148.450201 115.09972 
L 148.434186 114.234748 
L 148.466215 114.693295 
L 148.594332 112.03396 
L 148.690419 115.764993 
L 148.722448 115.466909 
L 148.754477 112.522373 
L 148.818535 116.275075 
L 148.83455 114.221865 
L 148.850565 114.466657 
L 148.914623 113.204629 
L 148.978681 117.542373 
L 148.994695 116.656904 
L 149.042739 118.730612 
L 149.058754 118.437212 
L 149.18687 122.041751 
L 149.202885 120.978836 
L 149.36303 113.748677 
L 149.411074 117.052203 
L 149.475132 114.82389 
L 149.507161 113.302429 
L 149.555205 115.118461 
L 149.587234 116.526309 
L 149.619263 113.973558 
L 149.667306 115.773192 
L 149.811437 111.701323 
L 149.907525 106.780294 
L 149.971583 109.323089 
L 150.06767 112.780049 
L 150.083685 111.643346 
L 150.179772 110.125985 
L 150.211801 113.14021 
L 150.259845 110.046925 
L 150.355932 107.056125 
L 150.371946 108.390184 
L 150.452019 110.592144 
L 150.41999 107.326685 
L 150.484048 109.499363 
L 150.516077 106.410763 
L 150.59615 107.316729 
L 150.628179 108.632049 
L 150.644194 106.708262 
L 150.804339 102.837263 
L 150.820354 102.79744 
L 150.836368 103.36667 
L 150.868397 100.74423 
L 150.884412 101.695289 
L 150.980499 94.611537 
L 151.012528 97.076444 
L 151.028543 97.037207 
L 151.044557 96.395944 
L 151.076586 97.338805 
L 151.188688 101.832326 
L 151.140645 97.173072 
L 151.204703 101.703488 
L 151.364848 94.141864 
L 151.380863 94.156504 
L 151.396877 94.871556 
L 151.444921 92.596392 
L 151.460935 93.252881 
L 151.47695 91.558074 
L 151.541008 95.368168 
L 151.573037 97.990608 
L 151.605066 93.974374 
L 151.621081 93.605429 
L 151.637095 95.12806 
L 151.669125 97.379213 
L 151.701154 93.85842 
L 151.717168 94.528378 
L 151.733183 92.671352 
L 151.813255 95.614717 
L 151.82927 97.826047 
L 151.893328 94.104383 
L 151.925357 96.593887 
L 151.941372 96.517755 
L 151.957386 100.615392 
L 152.021445 94.02708 
L 152.037459 96.36842 
L 152.197605 89.343231 
L 152.245648 93.5088 
L 152.309706 91.072589 
L 152.341735 90.762792 
L 152.35775 90.932038 
L 152.389779 92.269026 
L 152.453837 90.077022 
L 152.485866 89.245431 
L 152.501881 88.550876 
L 152.517895 90.953121 
L 152.565939 89.631359 
L 152.71007 94.815335 
L 152.758114 92.045902 
L 152.838186 88.703725 
L 152.806157 92.60869 
L 152.854201 92.372682 
L 152.870215 92.972365 
L 152.902245 91.148135 
L 152.918259 90.010846 
L 152.950288 92.339887 
L 152.966303 92.02072 
L 153.046375 98.905359 
L 153.094419 95.229374 
L 153.110434 95.058956 
L 153.222535 89.870881 
L 153.23855 91.850888 
L 153.254565 90.773919 
L 153.286594 92.854068 
L 153.302608 92.541343 
L 153.366666 99.304757 
L 153.41471 94.388413 
L 153.446739 93.765305 
L 153.526812 96.185704 
L 153.558841 94.484456 
L 153.59087 94.837004 
L 153.815074 82.588601 
L 153.847103 85.233881 
L 153.895146 82.494315 
L 153.94319 84.734341 
L 153.975219 82.263578 
L 154.039277 84.432157 
L 154.103335 87.403046 
L 154.151379 85.717024 
L 154.167394 84.970934 
L 154.215437 87.719871 
L 154.29551 86.251116 
L 154.407612 91.931705 
L 154.439641 90.562507 
L 154.455655 87.161182 
L 154.519714 91.994367 
L 154.551743 89.514234 
L 154.583772 87.373179 
L 154.631815 91.005242 
L 154.64783 90.095176 
L 154.791961 94.461031 
L 154.920077 90.762206 
L 154.984135 92.211049 
L 155.096237 99.238581 
L 155.17631 97.57657 
L 155.224354 92.034775 
L 155.288412 95.180767 
L 155.304426 95.183695 
L 155.336455 94.515494 
L 155.368485 97.151404 
L 155.384499 94.239663 
L 155.448557 98.19265 
L 155.480586 96.915982 
L 155.496601 97.092841 
L 155.512615 96.267106 
L 155.608703 90.127386 
L 155.656746 93.376448 
L 155.70479 96.859761 
L 155.768848 93.601915 
L 155.848921 95.489393 
L 155.800877 92.362727 
L 155.88095 95.398035 
L 155.896965 93.123457 
L 155.961023 96.316885 
L 155.977037 98.073768 
L 156.025081 92.700048 
L 156.041095 92.416019 
L 156.05711 93.573219 
L 156.073125 94.677713 
L 156.121168 92.16947 
L 156.153197 93.767062 
L 156.185226 91.424551 
L 156.23327 93.641737 
L 156.297328 96.279404 
L 156.329357 93.798686 
L 156.361386 92.308263 
L 156.393415 93.895314 
L 156.505517 98.332615 
L 156.537546 97.810235 
L 156.58559 96.908954 
L 156.601605 97.924433 
L 156.617619 97.8565 
L 156.633634 100.42682 
L 156.697692 95.766395 
L 156.713706 98.323245 
L 156.729721 96.812326 
L 156.76175 99.851733 
L 156.809794 99.3967 
L 156.825808 99.492743 
L 156.905881 94.817678 
L 156.953925 96.178091 
L 157.017983 98.727914 
L 157.050012 97.378042 
L 157.066026 95.922757 
L 157.130085 98.814587 
L 157.146099 98.28635 
L 157.210157 100.761213 
L 157.258201 98.5329 
L 157.546463 91.562759 
L 157.578492 91.821021 
L 157.64255 93.888287 
L 157.658565 90.98533 
L 157.690594 93.539838 
L 157.770666 90.897486 
L 157.802695 92.633287 
L 157.81871 92.602834 
L 157.946826 95.80446 
L 157.962841 92.826544 
L 158.042914 97.434848 
L 158.058928 94.225608 
L 158.090957 95.121033 
L 158.106972 94.367916 
L 158.122986 93.104131 
L 158.139001 94.877412 
L 158.203059 93.460193 
L 158.219074 94.711679 
L 158.283132 91.723221 
L 158.299146 91.65646 
L 158.315161 90.400288 
L 158.34719 92.041217 
L 158.411248 91.429822 
L 158.587408 95.588949 
L 158.635452 93.039712 
L 158.619437 95.638728 
L 158.715525 94.452832 
L 158.747554 96.771332 
L 158.795597 93.82094 
L 158.827626 95.50052 
L 158.859655 97.354031 
L 158.87567 94.111411 
L 158.939728 98.577407 
L 158.955743 98.116518 
L 159.099874 93.568534 
L 159.115888 95.416189 
L 159.244005 99.595814 
L 159.324077 98.334958 
L 159.388135 93.870132 
L 159.516252 95.904603 
L 159.596325 94.595725 
L 159.644368 98.809316 
L 159.740455 94.164117 
L 159.772485 95.603005 
L 159.804514 99.167134 
L 159.868572 94.119024 
L 159.996688 91.279901 
L 160.172848 97.783296 
L 160.204877 97.341147 
L 160.332994 100.694451 
L 160.349008 100.532818 
L 160.365023 101.31873 
L 160.413066 104.324172 
L 160.445095 100.768826 
L 160.46111 101.384321 
L 160.589226 97.86587 
L 160.605241 97.869969 
L 160.701328 101.974048 
L 160.717343 99.182361 
L 160.733357 98.059713 
L 160.781401 99.762718 
L 160.797415 98.402305 
L 160.925532 102.381059 
L 160.957561 99.971787 
L 161.021619 102.796269 
L 161.069663 100.451416 
L 161.245823 105.911808 
L 161.34191 100.981409 
L 161.309881 106.230975 
L 161.373939 101.001906 
L 161.389954 103.978651 
L 161.470026 103.718047 
L 161.486041 100.664584 
L 161.534085 106.546043 
L 161.566114 103.818189 
L 161.582128 105.273474 
L 161.646186 103.239589 
L 161.662201 103.576911 
L 161.758288 102.018555 
L 161.774303 103.455686 
L 161.790317 104.118616 
L 161.822346 102.806225 
L 161.838361 103.397709 
L 161.854375 101.381978 
L 161.902419 105.585614 
L 161.918434 104.338812 
L 161.950463 107.152168 
L 162.04655 106.997562 
L 162.062565 107.069008 
L 162.174666 102.010942 
L 162.22271 103.422891 
L 162.254739 104.619914 
L 162.318797 103.020564 
L 162.334812 104.002076 
L 162.350826 103.083812 
L 162.39887 105.187972 
L 162.510972 107.193747 
L 162.462928 103.92126 
L 162.526986 107.090091 
L 162.559015 105.083145 
L 162.57503 108.598668 
L 162.591045 108.064575 
L 162.607059 109.033204 
L 162.639088 104.56545 
L 162.783219 100.998392 
L 162.799234 100.470156 
L 162.831263 102.740049 
L 162.879306 101.158268 
L 163.023437 106.086911 
L 163.039452 106.10975 
L 163.055466 107.833252 
L 163.10351 104.431927 
L 163.231626 99.899755 
L 163.311699 105.732606 
L 163.407786 103.948784 
L 163.503874 101.549468 
L 163.471845 104.067081 
L 163.519888 102.338308 
L 163.551917 105.12004 
L 163.615975 104.167809 
L 163.63199 102.255149 
L 163.696048 106.102137 
L 163.728077 103.818189 
L 163.744092 103.723318 
L 163.760106 102.189559 
L 163.824165 104.537926 
L 163.856194 103.219678 
L 163.872208 103.289953 
L 163.904237 104.803801 
L 164.000325 100.843201 
L 164.016339 100.361815 
L 164.048368 102.689685 
L 164.112426 102.35412 
L 164.144455 104.363994 
L 164.16047 102.309027 
L 164.176485 104.434855 
L 164.256557 104.066495 
L 164.304601 105.55926 
L 164.400688 99.583516 
L 164.416703 100.965597 
L 164.496775 98.911215 
L 164.51279 99.786728 
L 164.704965 105.518266 
L 164.720979 106.801377 
L 164.769023 105.005257 
L 164.817066 100.830317 
L 164.881125 101.753852 
L 164.945183 104.809657 
L 164.993226 103.308108 
L 165.121343 105.80581 
L 165.137357 104.795016 
L 165.265474 101.319316 
L 165.281488 102.421467 
L 165.361561 103.815261 
L 165.329532 99.961246 
L 165.377575 101.507303 
L 165.39359 102.057793 
L 165.409605 99.392015 
L 165.473663 101.006591 
L 165.489677 100.656971 
L 165.553735 101.575235 
L 165.56975 100.736617 
L 165.617794 104.161367 
L 165.681852 102.22821 
L 165.74591 100.202524 
L 165.729895 102.35822 
L 165.777939 101.525457 
L 165.825983 102.879428 
L 165.809968 100.976138 
L 165.890041 102.742391 
L 165.92207 99.881015 
L 166.018157 101.257825 
L 166.082215 103.859183 
L 166.114245 103.130077 
L 166.146274 99.801955 
L 166.242361 101.093264 
L 166.27439 99.178847 
L 166.338448 101.198091 
L 166.370477 100.232977 
L 166.466565 102.506969 
L 166.498594 101.96175 
L 166.578666 103.580424 
L 166.610695 102.905781 
L 166.62671 101.469822 
L 166.658739 104.447153 
L 166.706783 103.682324 
L 166.722797 107.285105 
L 166.818885 105.580929 
L 166.834899 106.8371 
L 166.866928 104.727083 
L 166.930986 106.735201 
L 166.947001 105.098371 
L 166.995045 109.213577 
L 167.027074 107.626526 
L 167.059103 110.323341 
L 167.123161 105.991453 
L 167.171205 106.135518 
L 167.251277 103.2595 
L 167.411423 106.364498 
L 167.427437 105.235408 
L 167.50751 103.465056 
L 167.475481 106.404321 
L 167.523525 103.752013 
L 167.555554 106.438287 
L 167.619612 103.632545 
L 167.747728 101.449911 
L 167.699685 103.833416 
L 167.763743 102.17199 
L 167.811786 100.426234 
L 167.843815 102.657475 
L 167.875845 101.403646 
L 167.891859 102.950289 
L 167.939903 101.112004 
L 167.987946 102.416782 
L 168.019975 104.197676 
L 168.03599 101.642583 
L 168.132077 101.839939 
L 168.180121 98.507132 
L 168.196135 100.118194 
L 168.244179 96.733852 
L 168.276208 97.574813 
L 168.292223 96.766061 
L 168.324252 100.155674 
L 168.340266 98.898917 
L 168.356281 99.262592 
L 168.372295 98.655296 
L 168.38831 98.78999 
L 168.484397 96.838093 
L 168.468383 99.151322 
L 168.500412 97.395611 
L 168.596499 101.292377 
L 168.532441 96.950534 
L 168.628528 99.912638 
L 168.692586 95.890548 
L 168.74063 98.861437 
L 168.772659 99.999897 
L 168.804688 96.809397 
L 168.868746 95.447813 
L 168.836717 97.235149 
L 168.884761 95.577823 
L 168.91679 100.524034 
L 169.012877 99.831236 
L 169.09295 102.749419 
L 169.124979 101.693532 
L 169.140994 97.83776 
L 169.237081 100.307351 
L 169.285125 98.792333 
L 169.333168 99.376789 
L 169.429255 104.339398 
L 169.461285 104.246869 
L 169.477299 102.1064 
L 169.541357 105.029853 
L 169.557372 104.850065 
L 169.589401 106.933143 
L 169.62143 103.897835 
L 169.653459 104.34174 
L 169.669474 104.541439 
L 169.765561 107.572063 
L 169.781575 105.69864 
L 169.877663 103.269456 
L 169.909692 104.023159 
L 169.957735 106.315891 
L 170.005779 103.245445 
L 170.021794 103.083812 
L 170.133895 98.292207 
L 170.101866 103.453343 
L 170.14991 100.165044 
L 170.165925 98.866707 
L 170.197954 101.478021 
L 170.213968 101.291206 
L 170.245997 104.322415 
L 170.32607 102.277403 
L 170.390128 104.003833 
L 170.422157 102.082389 
L 170.438172 102.497013 
L 170.550274 98.002321 
L 170.598317 99.143124 
L 170.630346 98.888376 
L 170.710419 101.448154 
L 170.726434 99.305343 
L 170.774477 101.638483 
L 170.822521 100.692694 
L 170.85455 101.568793 
L 170.886579 100.061973 
L 170.902594 100.574983 
L 171.062739 95.109906 
L 170.950637 102.269204 
L 171.094768 96.63898 
L 171.238899 103.024664 
L 171.254914 100.530476 
L 171.270928 99.565947 
L 171.334986 101.462795 
L 171.351001 99.711768 
L 171.447088 102.547377 
L 171.463103 101.800116 
L 171.479117 100.435604 
L 171.543175 103.941171 
L 171.575205 107.836181 
L 171.655277 105.626022 
L 171.671292 103.733273 
L 171.687306 106.700063 
L 171.767379 104.981831 
L 171.799408 104.855921 
L 171.863466 106.948955 
L 171.895495 106.089253 
L 171.943539 103.629617 
L 172.007597 105.480201 
L 172.055641 104.520942 
L 172.039626 105.95983 
L 172.103685 104.528556 
L 172.119699 105.561603 
L 172.167743 101.781376 
L 172.183757 102.685 
L 172.359917 96.631952 
L 172.456005 98.983247 
L 172.472019 97.60995 
L 172.520063 99.232139 
L 172.552092 97.566028 
L 172.600135 98.004078 
L 172.61615 97.462372 
L 172.648179 99.072263 
L 172.728252 103.288196 
L 172.744266 100.542188 
L 172.824339 97.334705 
L 172.840354 97.823705 
L 172.888397 102.277989 
L 172.952455 99.392015 
L 172.96847 99.168306 
L 173.112601 107.480705 
L 173.14463 107.454351 
L 173.256732 104.574235 
L 173.352819 106.996391 
L 173.368834 106.178854 
L 173.448906 104.536754 
L 173.400863 106.978236 
L 173.464921 106.164214 
L 173.512965 107.385833 
L 173.49695 105.370688 
L 173.544994 106.240345 
L 173.705139 102.028511 
L 173.753183 104.130914 
L 173.817241 103.265942 
L 173.929343 107.039141 
L 173.961372 105.268203 
L 174.009415 102.841948 
L 174.041445 105.808152 
L 174.105503 104.59356 
L 174.153546 108.153591 
L 174.169561 106.938999 
L 174.217605 111.260346 
L 174.233619 109.512833 
L 174.249634 109.488236 
L 174.281663 111.595325 
L 174.329706 108.816521 
L 174.37775 105.991453 
L 174.425794 109.373453 
L 174.521881 111.707765 
L 174.537895 110.544709 
L 174.55391 109.35647 
L 174.569925 111.971297 
L 174.617968 111.501624 
L 174.633983 112.056213 
L 174.649997 109.895833 
L 174.682026 111.021995 
L 174.714055 112.090766 
L 174.794128 108.240849 
L 174.810143 110.574576 
L 174.858186 107.933395 
L 174.874201 108.664844 
L 175.002317 102.497599 
L 175.018332 102.533322 
L 175.066375 103.964596 
L 175.146448 103.161701 
L 175.210506 100.107067 
L 175.226521 104.64451 
L 175.242535 103.329776 
L 175.25855 103.363742 
L 175.274565 104.635725 
L 175.322608 100.560928 
L 175.338623 102.373446 
L 175.418695 100.780539 
L 175.43471 102.243437 
L 175.466739 102.89524 
L 175.498768 101.168224 
L 175.562826 98.026917 
L 175.626885 98.563938 
L 175.642899 98.567452 
L 175.755001 101.459281 
L 175.803045 100.609535 
L 175.819059 100.480697 
L 175.835074 101.085065 
L 175.851088 101.223273 
L 175.867103 100.03035 
L 175.915146 102.655718 
L 175.931161 103.657727 
L 175.96319 101.217417 
L 175.995219 101.896745 
L 176.091306 98.153413 
L 176.123335 98.927613 
L 176.155365 101.881519 
L 176.235437 99.325254 
L 176.443626 106.682494 
L 176.539714 102.01387 
L 176.555728 104.113346 
L 176.571743 105.818108 
L 176.635801 103.262429 
L 176.66783 104.956649 
L 176.731888 102.887041 
L 176.779932 103.819946 
L 176.860005 105.609624 
L 176.84399 102.145637 
L 176.892034 104.677891 
L 176.940077 103.014708 
L 176.956092 105.254148 
L 176.988121 101.917242 
L 177.052179 103.324505 
L 177.084208 101.842282 
L 177.100223 99.665504 
L 177.180295 103.031691 
L 177.19631 103.558756 
L 177.228339 101.855751 
L 177.260368 103.048675 
L 177.276383 100.275142 
L 177.37247 102.392772 
L 177.388485 102.571974 
L 177.404499 101.856922 
L 177.500586 99.590543 
L 177.484572 102.301414 
L 177.532615 99.620996 
L 177.596674 104.029015 
L 177.628703 99.416612 
L 177.644717 100.113509 
L 177.660732 99.888628 
L 177.692761 100.543359 
L 177.772834 100.240004 
L 177.820877 102.262762 
L 177.884935 102.621166 
L 177.997037 96.223184 
L 178.109139 106.428332 
L 178.157183 103.726831 
L 178.285299 98.60786 
L 178.301314 99.428324 
L 178.413415 95.513989 
L 178.445445 97.30601 
L 178.509503 99.917323 
L 178.589575 99.359806 
L 178.717692 94.84813 
L 178.637619 99.636222 
L 178.749721 96.497258 
L 178.829794 99.975886 
L 178.861823 97.566028 
L 178.909866 96.406486 
L 178.925881 97.762799 
L 179.070012 101.044657 
L 179.021968 97.385655 
L 179.086026 100.405737 
L 179.13407 99.434766 
L 179.182114 100.278656 
L 179.214143 101.611544 
L 179.230157 97.530891 
L 179.278201 100.2687 
L 179.294215 99.414855 
L 179.31023 102.304342 
L 179.342259 100.335462 
L 179.438346 105.628364 
L 179.470375 103.918332 
L 179.48639 102.2001 
L 179.534434 105.594398 
L 179.550448 104.847137 
L 179.614506 109.528645 
L 179.66255 106.655555 
L 179.950812 98.474337 
L 179.966826 99.790828 
L 180.01487 103.999734 
L 180.094943 101.835254 
L 180.110957 99.914981 
L 180.19103 102.879428 
L 180.207045 102.870058 
L 180.223059 101.556495 
L 180.255088 104.20119 
L 180.303132 103.875581 
L 180.319146 103.890221 
L 180.383205 104.942009 
L 180.351175 103.538845 
L 180.399219 104.497517 
L 180.431248 101.365581 
L 180.511321 103.901348 
L 180.527335 103.821703 
L 180.54335 104.211145 
L 180.575379 106.653213 
L 180.607408 103.457443 
L 180.623423 103.759627 
L 180.655452 99.914395 
L 180.735525 103.040476 
L 180.863641 100.275142 
L 180.879655 101.011276 
L 180.911685 102.033196 
L 180.943714 100.12405 
L 180.959728 100.042648 
L 180.975743 100.521691 
L 180.991757 101.222102 
L 181.039801 99.572389 
L 181.055815 99.09276 
L 181.087845 101.084479 
L 181.167917 104.314216 
L 181.119874 100.803964 
L 181.199946 102.753518 
L 181.24799 103.66944 
L 181.344077 98.419874 
L 181.392121 99.560676 
L 181.42415 97.045405 
L 181.456179 97.303667 
L 181.632339 93.735438 
L 181.712412 100.022736 
L 181.77647 99.444136 
L 181.888572 95.482365 
L 181.904586 95.62233 
L 181.920601 95.982491 
L 181.936615 94.20394 
L 181.95263 94.227365 
L 181.968645 93.111159 
L 182.000674 97.301325 
L 182.016688 96.833408 
L 182.048717 97.495753 
L 182.112775 99.539008 
L 182.080746 96.955219 
L 182.176834 99.376789 
L 182.272921 97.266187 
L 182.208863 99.870473 
L 182.288935 98.473166 
L 182.433066 101.11786 
L 182.465095 98.96275 
L 182.497125 100.545702 
L 182.577197 103.287611 
L 182.609226 102.278574 
L 182.65727 102.910466 
L 182.673285 101.902601 
L 182.689299 103.194496 
L 182.737343 101.241428 
L 182.785386 102.724237 
L 182.801401 102.978985 
L 182.817415 102.112256 
L 182.913503 96.891385 
L 182.849445 102.400385 
L 182.945532 98.463796 
L 183.137706 106.119706 
L 183.249808 101.292963 
L 183.265823 102.156178 
L 183.36191 106.262013 
L 183.377925 104.079965 
L 183.393939 102.760546 
L 183.441983 105.602011 
L 183.457997 105.105984 
L 183.506041 107.642923 
L 183.554085 104.665007 
L 183.698215 98.090165 
L 183.842346 101.581092 
L 183.778288 97.511565 
L 183.858361 100.970282 
L 183.874375 99.285431 
L 183.938434 102.488229 
L 183.954448 101.564108 
L 184.002492 101.280665 
L 184.034521 104.207046 
L 184.050535 105.491913 
L 184.114594 103.313378 
L 184.290754 97.73996 
L 184.306768 98.310947 
L 184.354812 100.794008 
L 184.434885 100.521106 
L 184.450899 100.275728 
L 184.482928 101.095606 
L 184.514957 102.607111 
L 184.530972 101.072767 
L 184.546986 101.502618 
L 184.563001 100.289197 
L 184.611045 104.286106 
L 184.643074 102.100543 
L 184.675103 103.421134 
L 184.707132 102.176089 
L 184.851263 100.586696 
L 184.995394 96.353779 
L 185.027423 98.20202 
L 185.043437 98.088408 
L 185.107495 100.825046 
L 185.171554 99.801955 
L 185.219597 96.390674 
L 185.267641 100.753014 
L 185.283655 100.266943 
L 185.331699 101.613887 
L 185.347714 101.277151 
L 185.363728 101.922513 
L 185.379743 100.215408 
L 185.427786 100.532818 
L 185.491845 99.237995 
L 185.459815 100.71202 
L 185.539888 99.629195 
L 185.619961 103.393609 
L 185.668005 100.953884 
L 185.700034 98.396448 
L 185.780106 100.046747 
L 185.82815 98.528215 
L 185.860179 99.308271 
L 186.00431 103.131248 
L 186.148441 98.61723 
L 186.228514 101.624428 
L 186.260543 100.984923 
L 186.404674 97.126222 
L 186.420688 98.168054 
L 186.484746 96.724481 
L 186.53279 92.602834 
L 186.628877 93.16855 
L 186.644892 94.001899 
L 186.676921 93.092419 
L 186.70895 93.314957 
L 186.724965 91.320895 
L 186.773008 93.658721 
L 186.805037 92.727573 
L 186.853081 98.593805 
L 186.917139 95.877078 
L 186.949168 95.210048 
L 186.981197 96.609113 
L 186.997212 98.914729 
L 187.045255 94.785468 
L 187.077285 96.150566 
L 187.093299 95.340058 
L 187.109314 97.996465 
L 187.125328 97.332949 
L 187.23743 101.340984 
L 187.301488 98.02926 
L 187.317503 101.596318 
L 187.333517 100.282169 
L 187.429605 102.338308 
L 187.445619 101.675378 
L 187.493663 102.476516 
L 187.573735 99.333453 
L 187.58975 101.082137 
L 187.637794 98.390592 
L 187.669823 100.554486 
L 187.749895 99.049423 
L 187.76591 101.314045 
L 187.781925 99.926108 
L 187.797939 99.826551 
L 187.878012 94.769071 
L 187.926055 97.11978 
L 187.958085 96.160522 
L 187.974099 97.569542 
L 188.006128 96.669432 
L 188.102215 98.979734 
L 188.054172 95.621159 
L 188.134245 98.381808 
L 188.214317 94.926019 
L 188.310405 96.09376 
L 188.374463 99.523782 
L 188.342434 96.06038 
L 188.454535 98.398791 
L 188.614681 96.405314 
L 188.486565 98.51943 
L 188.630695 97.561343 
L 188.678739 101.643754 
L 188.758812 100.787566 
L 188.774826 100.364743 
L 188.790841 102.702569 
L 188.934972 107.390518 
L 188.82287 102.653376 
L 188.983015 104.858264 
L 188.99903 102.790413 
L 189.063088 107.219515 
L 189.079103 108.398969 
L 189.159175 107.041484 
L 189.17519 106.146645 
L 189.191205 107.977317 
L 189.223234 107.159195 
L 189.35135 111.509823 
L 189.383379 113.035383 
L 189.52751 105.768915 
L 189.543525 107.178521 
L 189.607583 104.125644 
L 189.623597 105.131752 
L 189.671641 104.659151 
L 189.767728 106.253815 
L 189.87983 103.895492 
L 189.847801 106.460541 
L 189.895845 104.516843 
L 189.927874 102.173747 
L 189.975917 104.372193 
L 189.991932 106.745156 
L 190.072005 104.906871 
L 190.088019 103.366085 
L 190.152077 106.199937 
L 190.184106 107.167394 
L 190.200121 105.886626 
L 190.280194 106.109165 
L 190.328237 102.235823 
L 190.392295 100.833245 
L 190.488383 105.205541 
L 190.504397 103.828731 
L 190.536426 107.276321 
L 190.58447 105.590884 
L 190.712586 108.609209 
L 190.728601 106.81426 
L 190.792659 110.28996 
L 190.840703 113.156608 
L 190.968819 113.021328 
L 191.048892 113.383831 
L 191.128965 109.81853 
L 191.225052 114.329034 
L 191.257081 112.872578 
L 191.273095 112.842126 
L 191.28911 114.800465 
L 191.337154 110.756706 
L 191.369183 111.360488 
L 191.46527 106.779708 
L 191.401212 112.797618 
L 191.481285 108.466902 
L 191.497299 110.553493 
L 191.545343 106.573567 
L 191.577372 107.161538 
L 191.705488 110.674132 
L 191.753532 111.89868 
L 191.833605 109.965523 
L 191.865634 110.915411 
L 191.913677 108.767329 
L 191.929692 107.429755 
L 191.99375 111.092856 
L 192.009765 111.876426 
L 192.057808 110.678232 
L 192.073823 111.448332 
L 192.137881 106.466983 
L 192.201939 107.091848 
L 192.442157 113.527896 
L 192.490201 111.762814 
L 192.554259 113.211071 
L 192.586288 109.527473 
L 192.650346 114.278085 
L 192.714405 113.674888 
L 192.730419 113.636823 
L 192.746434 113.939592 
L 192.762448 112.838026 
L 192.778463 113.932565 
L 192.810492 110.55525 
L 192.87455 113.923194 
L 192.954623 116.624109 
L 192.970637 113.618668 
L 193.002666 111.70308 
L 193.018681 114.206638 
L 193.066725 113.246209 
L 193.082739 115.164725 
L 193.162812 113.857604 
L 193.178826 111.940259 
L 193.194841 114.842044 
L 193.274914 112.630129 
L 193.290928 112.589135 
L 193.306943 113.132012 
L 193.338972 110.735623 
L 193.354986 110.350866 
L 193.371001 111.359317 
L 193.435059 112.38885 
L 193.419045 109.511661 
L 193.467088 110.569891 
L 193.57919 107.721983 
L 193.499117 111.434277 
L 193.611219 108.241435 
L 193.723321 113.984685 
L 193.771365 111.720649 
L 193.803394 110.428754 
L 193.835423 112.267039 
L 193.883466 110.640751 
L 193.947525 113.837107 
L 193.995568 111.474685 
L 194.011583 110.14531 
L 194.043612 113.442394 
L 194.075641 113.192917 
L 194.091655 113.311214 
L 194.187743 110.633138 
L 194.139699 114.300339 
L 194.203757 112.282266 
L 194.331874 114.627705 
L 194.347888 115.598675 
L 194.395932 112.960423 
L 194.411946 115.184636 
L 194.492019 116.229396 
L 194.524048 112.746083 
L 194.556077 117.080899 
L 194.63615 114.663428 
L 194.716223 115.171753 
L 194.668179 113.957746 
L 194.748252 114.704422 
L 194.764266 114.346603 
L 194.780281 116.980756 
L 194.844339 113.522625 
L 194.860354 114.822133 
L 194.98847 112.552826 
L 195.004485 113.719396 
L 195.116586 118.526228 
L 195.180645 117.583367 
L 195.196659 117.384254 
L 195.244703 119.924121 
L 195.308761 118.537355 
L 195.388834 113.746335 
L 195.34079 118.648038 
L 195.484921 114.271057 
L 195.51695 114.884795 
L 195.532965 113.547222 
L 195.645066 118.051869 
L 195.661081 117.750857 
L 195.677095 117.573997 
L 195.69311 117.769597 
L 195.773183 117.195682 
L 195.805212 120.225719 
L 195.933328 116.068349 
L 195.965357 114.136949 
L 196.013401 116.090017 
L 196.04543 114.967954 
L 196.125503 121.093619 
L 196.189561 118.92914 
L 196.205575 119.81578 
L 196.253619 117.460386 
L 196.285648 118.858279 
L 196.301663 117.712791 
L 196.349706 120.890407 
L 196.365721 119.801725 
L 196.39775 121.833853 
L 196.429779 119.819879 
L 196.57391 116.542121 
L 196.589925 115.324601 
L 196.637968 119.583871 
L 196.718041 121.553923 
L 196.686012 117.607964 
L 196.734055 120.918517 
L 196.75007 117.904291 
L 196.846157 118.653895 
L 196.92623 120.459385 
L 196.894201 118.142642 
L 196.974274 119.734963 
L 197.022317 119.35372 
L 197.070361 122.08743 
L 197.118405 119.788841 
L 197.214492 117.140633 
L 197.230506 118.170166 
L 197.342608 120.882794 
L 197.310579 117.05396 
L 197.358623 119.901867 
L 197.390652 119.965701 
L 197.438695 123.401578 
L 197.502754 121.026272 
L 197.646885 118.848909 
L 197.678914 120.745757 
L 197.726957 117.780138 
L 197.742972 117.461557 
L 197.871088 122.173517 
L 198.015219 116.735378 
L 198.079277 118.453024 
L 198.111306 120.801977 
L 198.143335 118.401489 
L 198.175365 119.255334 
L 198.191379 117.37137 
L 198.271452 118.473521 
L 198.303481 121.603701 
L 198.367539 118.209989 
L 198.51167 114.816277 
L 198.527685 115.131344 
L 198.575728 116.03731 
L 198.559714 114.302096 
L 198.591743 114.777625 
L 198.607757 113.593486 
L 198.655801 116.624109 
L 198.671815 116.369361 
L 198.735874 120.925544 
L 198.799932 118.260939 
L 198.815946 118.227558 
L 198.86399 116.497614 
L 198.880005 118.561365 
L 198.928048 117.117208 
L 199.008121 119.34025 
L 199.04015 118.309546 
L 199.072179 117.303437 
L 199.088194 120.793778 
L 199.120223 119.637749 
L 199.264354 124.77019 
L 199.168266 119.468503 
L 199.280368 122.697654 
L 199.296383 120.400822 
L 199.376455 123.730115 
L 199.39247 121.949807 
L 199.424499 121.975575 
L 199.440514 121.69623 
L 199.488557 122.728106 
L 199.520586 120.895092 
L 199.552615 120.012551 
L 199.680732 124.55995 
L 199.712761 121.815698 
L 199.808848 122.259019 
L 199.824863 122.071032 
L 199.952979 126.659425 
L 199.968994 125.922119 
L 200.113125 120.542544 
L 200.145154 121.57969 
L 200.241241 123.611818 
L 200.257255 122.39547 
L 200.337328 120.44123 
L 200.353343 121.212502 
L 200.401386 120.879865 
L 200.465445 123.518704 
L 200.593561 120.920274 
L 200.609575 120.463484 
L 200.62559 122.574672 
L 200.641605 122.737476 
L 200.673634 124.167579 
L 200.769721 119.178031 
L 200.817765 120.82833 
L 200.865808 119.114198 
L 200.881823 119.096629 
L 200.945881 116.710782 
L 200.993925 117.822889 
L 201.057983 121.340754 
L 201.122041 121.298589 
L 201.15407 121.264037 
L 201.186099 122.761487 
L 201.314215 124.994485 
L 201.33023 125.318923 
L 201.346245 124.777803 
L 201.378274 122.103827 
L 201.442332 124.487332 
L 201.522405 126.462654 
L 201.538419 125.685526 
L 201.554434 124.160552 
L 201.650521 125.34879 
L 201.794652 119.525309 
L 201.826681 119.618423 
L 201.85871 120.237432 
L 201.906754 119.333808 
L 202.050885 115.813601 
L 202.066899 116.174347 
L 202.114943 120.314149 
L 202.195015 118.721242 
L 202.21103 118.858279 
L 202.227045 120.20288 
L 202.275088 117.499037 
L 202.291103 114.548059 
L 202.38719 115.642012 
L 202.419219 114.276328 
L 202.451248 115.709359 
L 202.515306 115.097378 
L 202.56335 117.127749 
L 202.627408 115.213332 
L 202.659437 114.298582 
L 202.707481 115.297663 
L 202.723495 114.758885 
L 202.73951 116.719567 
L 202.787554 113.642679 
L 202.819583 113.856433 
L 202.835597 113.932565 
L 202.867626 110.6021 
L 202.947699 113.28896 
L 203.043786 116.263363 
L 203.075815 115.638498 
L 203.155888 113.423654 
L 203.203932 114.393453 
L 203.235961 116.03731 
L 203.316034 114.927546 
L 203.348063 114.185556 
L 203.476179 110.849821 
L 203.492194 110.762562 
L 203.508208 110.805313 
L 203.524223 109.947954 
L 203.556252 112.262354 
L 203.604295 110.577504 
L 203.700383 113.659662 
L 203.716397 112.784734 
L 203.732412 110.326855 
L 203.828499 110.939422 
L 203.844514 110.800628 
L 203.860528 113.461134 
L 203.940601 111.39094 
L 204.020674 108.989281 
L 204.052703 109.773437 
L 204.132775 113.341081 
L 204.100746 108.986939 
L 204.196834 112.849739 
L 204.228863 112.767751 
L 204.292921 114.079557 
L 204.389008 115.099135 
L 204.437052 109.386337 
L 204.453066 111.477028 
L 204.50111 108.131337 
L 204.549154 110.1172 
L 204.629226 110.323341 
L 204.645241 109.002751 
L 204.67727 111.530905 
L 204.725314 108.682413 
L 204.757343 110.269464 
L 204.837415 108.534249 
L 204.85343 109.387508 
L 204.997561 111.655059 
L 205.125677 108.893824 
L 205.237779 111.120381 
L 205.189735 108.410096 
L 205.253794 110.20973 
L 205.269808 110.24721 
L 205.349881 107.215415 
L 205.397925 108.220938 
L 205.429954 109.832585 
L 205.445968 107.939837 
L 205.494012 108.672457 
L 205.510026 107.174421 
L 205.542055 109.536843 
L 205.590099 108.942431 
L 205.606114 108.994552 
L 205.670172 111.04542 
L 205.782274 105.652375 
L 205.830317 108.301755 
L 205.91039 107.394032 
L 205.958434 108.473344 
L 206.006477 106.653213 
L 206.006477 106.653213 
" clip-path="url(#pb863f774a5)" style="fill: none; stroke: #d55e00; stroke-width: 1.25; stroke-linecap: square"/>
   </g>
   <g id="patch_4">
    <path d="M 37.85375 131.718516 
L 37.85375 20.418516 
" style="fill: none; stroke: #000000; stroke-width: 0.8; stroke-linejoin: miter; stroke-linecap: square"/>
   </g>
   <g id="patch_5">
    <path d="M 37.85375 131.718516 
L 214.01375 131.718516 
" style="fill: none; stroke: #000000; stroke-width: 0.8; stroke-linejoin: miter; stroke-linecap: square"/>
   </g>
   <g id="text_13">
    <!-- drugs3003 rep1 -->
    <g transform="translate(88.060664 14.418516) scale(0.095 -0.095)">
     <defs>
      <path id="DejaVuSans-64" d="M 2906 2969 
L 2906 4863 
L 3481 4863 
L 3481 0 
L 2906 0 
L 2906 525 
Q 2725 213 2448 61 
Q 2172 -91 1784 -91 
Q 1150 -91 751 415 
Q 353 922 353 1747 
Q 353 2572 751 3078 
Q 1150 3584 1784 3584 
Q 2172 3584 2448 3432 
Q 2725 3281 2906 2969 
z
M 947 1747 
Q 947 1113 1208 752 
Q 1469 391 1925 391 
Q 2381 391 2643 752 
Q 2906 1113 2906 1747 
Q 2906 2381 2643 2742 
Q 2381 3103 1925 3103 
Q 1469 3103 1208 2742 
Q 947 2381 947 1747 
z
" transform="scale(0.015625)"/>
      <path id="DejaVuSans-72" d="M 2631 2963 
Q 2534 3019 2420 3045 
Q 2306 3072 2169 3072 
Q 1681 3072 1420 2755 
Q 1159 2438 1159 1844 
L 1159 0 
L 581 0 
L 581 3500 
L 1159 3500 
L 1159 2956 
Q 1341 3275 1631 3429 
Q 1922 3584 2338 3584 
Q 2397 3584 2469 3576 
Q 2541 3569 2628 3553 
L 2631 2963 
z
" transform="scale(0.015625)"/>
      <path id="DejaVuSans-75" d="M 544 1381 
L 544 3500 
L 1119 3500 
L 1119 1403 
Q 1119 906 1312 657 
Q 1506 409 1894 409 
Q 2359 409 2629 706 
Q 2900 1003 2900 1516 
L 2900 3500 
L 3475 3500 
L 3475 0 
L 2900 0 
L 2900 538 
Q 2691 219 2414 64 
Q 2138 -91 1772 -91 
Q 1169 -91 856 284 
Q 544 659 544 1381 
z
M 1991 3584 
L 1991 3584 
z
" transform="scale(0.015625)"/>
      <path id="DejaVuSans-70" d="M 1159 525 
L 1159 -1331 
L 581 -1331 
L 581 3500 
L 1159 3500 
L 1159 2969 
Q 1341 3281 1617 3432 
Q 1894 3584 2278 3584 
Q 2916 3584 3314 3078 
Q 3713 2572 3713 1747 
Q 3713 922 3314 415 
Q 2916 -91 2278 -91 
Q 1894 -91 1617 61 
Q 1341 213 1159 525 
z
M 3116 1747 
Q 3116 2381 2855 2742 
Q 2594 3103 2138 3103 
Q 1681 3103 1420 2742 
Q 1159 2381 1159 1747 
Q 1159 1113 1420 752 
Q 1681 391 2138 391 
Q 2594 391 2855 752 
Q 3116 1113 3116 1747 
z
" transform="scale(0.015625)"/>
     </defs>
     <use xlink:href="#DejaVuSans-64"/>
     <use xlink:href="#DejaVuSans-72" transform="translate(63.476562 0)"/>
     <use xlink:href="#DejaVuSans-75" transform="translate(104.589844 0)"/>
     <use xlink:href="#DejaVuSans-67" transform="translate(167.96875 0)"/>
     <use xlink:href="#DejaVuSans-73" transform="translate(231.445312 0)"/>
     <use xlink:href="#DejaVuSans-33" transform="translate(283.544922 0)"/>
     <use xlink:href="#DejaVuSans-30" transform="translate(347.167969 0)"/>
     <use xlink:href="#DejaVuSans-30" transform="translate(410.791016 0)"/>
     <use xlink:href="#DejaVuSans-33" transform="translate(474.414062 0)"/>
     <use xlink:href="#DejaVuSans-20" transform="translate(538.037109 0)"/>
     <use xlink:href="#DejaVuSans-72" transform="translate(569.824219 0)"/>
     <use xlink:href="#DejaVuSans-65" transform="translate(608.6875 0)"/>
     <use xlink:href="#DejaVuSans-70" transform="translate(670.210938 0)"/>
     <use xlink:href="#DejaVuSans-31" transform="translate(733.6875 0)"/>
    </g>
   </g>
  </g>
 </g>
 <defs>
  <clipPath id="pb863f774a5">
   <rect x="37.85375" y="20.418516" width="176.16" height="111.3"/>
  </clipPath>
 </defs>
</svg>
