<?xml version="1.0" encoding="utf-8" standalone="no"?>
<!DOCTYPE svg PUBLIC "-//W3C//DTD SVG 1.1//EN"
  "http://www.w3.org/Graphics/SVG/1.1/DTD/svg11.dtd">
<svg xmlns:xlink="http://www.w3.org/1999/xlink" width="225.998281pt" height="164.903516pt" viewBox="0 0 225.998281 164.903516" xmlns="http://www.w3.org/2000/svg" version="1.1">
 <metadata>
  <rdf:RDF xmlns:dc="http://purl.org/dc/elements/1.1/" xmlns:cc="http://creativecommons.org/ns#" xmlns:rdf="http://www.w3.org/1999/02/22-rdf-syntax-ns#">
   <cc:Work>
    <dc:type rdf:resource="http://purl.org/dc/dcmitype/StillImage"/>
    <dc:date>2026-05-24T13:54:17.429483</dc:date>
    <dc:format>image/svg+xml</dc:format>
    <dc:creator>
     <cc:Agent>
      <dc:title>Matplotlib v3.10.9, https://matplotlib.org/</dc:title>
     </cc:Agent>
    </dc:creator>
   </cc:Work>
  </rdf:RDF>
 </metadata>
 <defs>
  <style type="text/css">*{stroke-linejoin: round; stroke-linecap: butt}</style>
 </defs>
 <g id="figure_1">
  <g id="patch_1">
   <path d="M 0 164.903516 
L 225.998281 164.903516 
L 225.998281 0 
L 0 0 
z
" style="fill: #ffffff"/>
  </g>
  <g id="axes_1">
   <g id="patch_2">
    <path d="M 30.698281 131.718516 
L 218.798281 131.718516 
L 218.798281 20.418516 
L 30.698281 20.418516 
z
" style="fill: #ffffff"/>
   </g>
   <g id="patch_3">
    <path d="M 124.748281 131.718516 
L 210.248281 131.718516 
L 210.248281 20.418516 
L 124.748281 20.418516 
z
" clip-path="url(#p55c59a321d)" style="fill: #bdbdbd; opacity: 0.18"/>
   </g>
   <g id="matplotlib.axis_1">
    <g id="xtick_1">
     <g id="line2d_1">
      <defs>
       <path id="m7f6680f1df" d="M 0 0 
L 0 3 
" style="stroke: #000000; stroke-width: 0.7"/>
      </defs>
      <g>
       <use xlink:href="#m7f6680f1df" x="39.248281" y="131.718516" style="stroke: #000000; stroke-width: 0.7"/>
      </g>
     </g>
     <g id="text_1">
      <!-- 0 -->
      <g transform="translate(36.862344 143.917344) scale(0.075 -0.075)">
       <defs>
        <path id="DejaVuSans-30" d="M 2034 4250 
Q 1547 4250 1301 3770 
Q 1056 3291 1056 2328 
Q 1056 1369 1301 889 
Q 1547 409 2034 409 
Q 2525 409 2770 889 
Q 3016 1369 3016 2328 
Q 3016 3291 2770 3770 
Q 2525 4250 2034 4250 
z
M 2034 4750 
Q 2819 4750 3233 4129 
Q 3647 3509 3647 2328 
Q 3647 1150 3233 529 
Q 2819 -91 2034 -91 
Q 1250 -91 836 529 
Q 422 1150 422 2328 
Q 422 3509 836 4129 
Q 1250 4750 2034 4750 
z
" transform="scale(0.015625)"/>
       </defs>
       <use xlink:href="#DejaVuSans-30"/>
      </g>
     </g>
    </g>
    <g id="xtick_2">
     <g id="line2d_2">
      <g>
       <use xlink:href="#m7f6680f1df" x="73.448281" y="131.718516" style="stroke: #000000; stroke-width: 0.7"/>
      </g>
     </g>
     <g id="text_2">
      <!-- 20 -->
      <g transform="translate(68.676406 143.917344) scale(0.075 -0.075)">
       <defs>
        <path id="DejaVuSans-32" d="M 1228 531 
L 3431 531 
L 3431 0 
L 469 0 
L 469 531 
Q 828 903 1448 1529 
Q 2069 2156 2228 2338 
Q 2531 2678 2651 2914 
Q 2772 3150 2772 3378 
Q 2772 3750 2511 3984 
Q 2250 4219 1831 4219 
Q 1534 4219 1204 4116 
Q 875 4013 500 3803 
L 500 4441 
Q 881 4594 1212 4672 
Q 1544 4750 1819 4750 
Q 2544 4750 2975 4387 
Q 3406 4025 3406 3419 
Q 3406 3131 3298 2873 
Q 3191 2616 2906 2266 
Q 2828 2175 2409 1742 
Q 1991 1309 1228 531 
z
" transform="scale(0.015625)"/>
       </defs>
       <use xlink:href="#DejaVuSans-32"/>
       <use xlink:href="#DejaVuSans-30" transform="translate(63.623047 0)"/>
      </g>
     </g>
    </g>
    <g id="xtick_3">
     <g id="line2d_3">
      <g>
       <use xlink:href="#m7f6680f1df" x="107.648281" y="131.718516" style="stroke: #000000; stroke-width: 0.7"/>
      </g>
     </g>
     <g id="text_3">
      <!-- 40 -->
      <g transform="translate(102.876406 143.917344) scale(0.075 -0.075)">
       <defs>
        <path id="DejaVuSans-34" d="M 2419 4116 
L 825 1625 
L 2419 1625 
L 2419 4116 
z
M 2253 4666 
L 3047 4666 
L 3047 1625 
L 3713 1625 
L 3713 1100 
L 3047 1100 
L 3047 0 
L 2419 0 
L 2419 1100 
L 313 1100 
L 313 1709 
L 2253 4666 
z
" transform="scale(0.015625)"/>
       </defs>
       <use xlink:href="#DejaVuSans-34"/>
       <use xlink:href="#DejaVuSans-30" transform="translate(63.623047 0)"/>
      </g>
     </g>
    </g>
    <g id="xtick_4">
     <g id="line2d_4">
      <g>
       <use xlink:href="#m7f6680f1df" x="141.848281" y="131.718516" style="stroke: #000000; stroke-width: 0.7"/>
      </g>
     </g>
     <g id="text_4">
      <!-- 60 -->
      <g transform="translate(137.076406 143.917344) scale(0.075 -0.075)">
       <defs>
        <path id="DejaVuSans-36" d="M 2113 2584 
Q 1688 2584 1439 2293 
Q 1191 2003 1191 1497 
Q 1191 994 1439 701 
Q 1688 409 2113 409 
Q 2538 409 2786 701 
Q 3034 994 3034 1497 
Q 3034 2003 2786 2293 
Q 2538 2584 2113 2584 
z
M 3366 4563 
L 3366 3988 
Q 3128 4100 2886 4159 
Q 2644 4219 2406 4219 
Q 1781 4219 1451 3797 
Q 1122 3375 1075 2522 
Q 1259 2794 1537 2939 
Q 1816 3084 2150 3084 
Q 2853 3084 3261 2657 
Q 3669 2231 3669 1497 
Q 3669 778 3244 343 
Q 2819 -91 2113 -91 
Q 1303 -91 875 529 
Q 447 1150 447 2328 
Q 447 3434 972 4092 
Q 1497 4750 2381 4750 
Q 2619 4750 2861 4703 
Q 3103 4656 3366 4563 
z
" transform="scale(0.015625)"/>
       </defs>
       <use xlink:href="#DejaVuSans-36"/>
       <use xlink:href="#DejaVuSans-30" transform="translate(63.623047 0)"/>
      </g>
     </g>
    </g>
    <g id="xtick_5">
     <g id="line2d_5">
      <g>
       <use xlink:href="#m7f6680f1df" x="176.048281" y="131.718516" style="stroke: #000000; stroke-width: 0.7"/>
      </g>
     </g>
     <g id="text_5">
      <!-- 80 -->
      <g transform="translate(171.276406 143.917344) scale(0.075 -0.075)">
       <defs>
        <path id="DejaVuSans-38" d="M 2034 2216 
Q 1584 2216 1326 1975 
Q 1069 1734 1069 1313 
Q 1069 891 1326 650 
Q 1584 409 2034 409 
Q 2484 409 2743 651 
Q 3003 894 3003 1313 
Q 3003 1734 2745 1975 
Q 2488 2216 2034 2216 
z
M 1403 2484 
Q 997 2584 770 2862 
Q 544 3141 544 3541 
Q 544 4100 942 4425 
Q 1341 4750 2034 4750 
Q 2731 4750 3128 4425 
Q 3525 4100 3525 3541 
Q 3525 3141 3298 2862 
Q 3072 2584 2669 2484 
Q 3125 2378 3379 2068 
Q 3634 1759 3634 1313 
Q 3634 634 3220 271 
Q 2806 -91 2034 -91 
Q 1263 -91 848 271 
Q 434 634 434 1313 
Q 434 1759 690 2068 
Q 947 2378 1403 2484 
z
M 1172 3481 
Q 1172 3119 1398 2916 
Q 1625 2713 2034 2713 
Q 2441 2713 2670 2916 
Q 2900 3119 2900 3481 
Q 2900 3844 2670 4047 
Q 2441 4250 2034 4250 
Q 1625 4250 1398 4047 
Q 1172 3844 1172 3481 
z
" transform="scale(0.015625)"/>
       </defs>
       <use xlink:href="#DejaVuSans-38"/>
       <use xlink:href="#DejaVuSans-30" transform="translate(63.623047 0)"/>
      </g>
     </g>
    </g>
    <g id="xtick_6">
     <g id="line2d_6">
      <g>
       <use xlink:href="#m7f6680f1df" x="210.248281" y="131.718516" style="stroke: #000000; stroke-width: 0.7"/>
      </g>
     </g>
     <g id="text_6">
      <!-- 100 -->
      <g transform="translate(203.090469 143.917344) scale(0.075 -0.075)">
       <defs>
        <path id="DejaVuSans-31" d="M 794 531 
L 1825 531 
L 1825 4091 
L 703 3866 
L 703 4441 
L 1819 4666 
L 2450 4666 
L 2450 531 
L 3481 531 
L 3481 0 
L 794 0 
L 794 531 
z
" transform="scale(0.015625)"/>
       </defs>
       <use xlink:href="#DejaVuSans-31"/>
       <use xlink:href="#DejaVuSans-30" transform="translate(63.623047 0)"/>
       <use xlink:href="#DejaVuSans-30" transform="translate(127.246094 0)"/>
      </g>
     </g>
    </g>
    <g id="text_7">
     <!-- Time (ns) -->
     <g transform="translate(104.775273 155.935781) scale(0.085 -0.085)">
      <defs>
       <path id="DejaVuSans-54" d="M -19 4666 
L 3928 4666 
L 3928 4134 
L 2272 4134 
L 2272 0 
L 1638 0 
L 1638 4134 
L -19 4134 
L -19 4666 
z
" transform="scale(0.015625)"/>
       <path id="DejaVuSans-69" d="M 603 3500 
L 1178 3500 
L 1178 0 
L 603 0 
L 603 3500 
z
M 603 4863 
L 1178 4863 
L 1178 4134 
L 603 4134 
L 603 4863 
z
" transform="scale(0.015625)"/>
       <path id="DejaVuSans-6d" d="M 3328 2828 
Q 3544 3216 3844 3400 
Q 4144 3584 4550 3584 
Q 5097 3584 5394 3201 
Q 5691 2819 5691 2113 
L 5691 0 
L 5113 0 
L 5113 2094 
Q 5113 2597 4934 2840 
Q 4756 3084 4391 3084 
Q 3944 3084 3684 2787 
Q 3425 2491 3425 1978 
L 3425 0 
L 2847 0 
L 2847 2094 
Q 2847 2600 2669 2842 
Q 2491 3084 2119 3084 
Q 1678 3084 1418 2786 
Q 1159 2488 1159 1978 
L 1159 0 
L 581 0 
L 581 3500 
L 1159 3500 
L 1159 2956 
Q 1356 3278 1631 3431 
Q 1906 3584 2284 3584 
Q 2666 3584 2933 3390 
Q 3200 3197 3328 2828 
z
" transform="scale(0.015625)"/>
       <path id="DejaVuSans-65" d="M 3597 1894 
L 3597 1613 
L 953 1613 
Q 991 1019 1311 708 
Q 1631 397 2203 397 
Q 2534 397 2845 478 
Q 3156 559 3463 722 
L 3463 178 
Q 3153 47 2828 -22 
Q 2503 -91 2169 -91 
Q 1331 -91 842 396 
Q 353 884 353 1716 
Q 353 2575 817 3079 
Q 1281 3584 2069 3584 
Q 2775 3584 3186 3129 
Q 3597 2675 3597 1894 
z
M 3022 2063 
Q 3016 2534 2758 2815 
Q 2500 3097 2075 3097 
Q 1594 3097 1305 2825 
Q 1016 2553 972 2059 
L 3022 2063 
z
" transform="scale(0.015625)"/>
       <path id="DejaVuSans-20" transform="scale(0.015625)"/>
       <path id="DejaVuSans-28" d="M 1984 4856 
Q 1566 4138 1362 3434 
Q 1159 2731 1159 2009 
Q 1159 1288 1364 580 
Q 1569 -128 1984 -844 
L 1484 -844 
Q 1016 -109 783 600 
Q 550 1309 550 2009 
Q 550 2706 781 3412 
Q 1013 4119 1484 4856 
L 1984 4856 
z
" transform="scale(0.015625)"/>
       <path id="DejaVuSans-6e" d="M 3513 2113 
L 3513 0 
L 2938 0 
L 2938 2094 
Q 2938 2591 2744 2837 
Q 2550 3084 2163 3084 
Q 1697 3084 1428 2787 
Q 1159 2491 1159 1978 
L 1159 0 
L 581 0 
L 581 3500 
L 1159 3500 
L 1159 2956 
Q 1366 3272 1645 3428 
Q 1925 3584 2291 3584 
Q 2894 3584 3203 3211 
Q 3513 2838 3513 2113 
z
" transform="scale(0.015625)"/>
       <path id="DejaVuSans-73" d="M 2834 3397 
L 2834 2853 
Q 2591 2978 2328 3040 
Q 2066 3103 1784 3103 
Q 1356 3103 1142 2972 
Q 928 2841 928 2578 
Q 928 2378 1081 2264 
Q 1234 2150 1697 2047 
L 1894 2003 
Q 2506 1872 2764 1633 
Q 3022 1394 3022 966 
Q 3022 478 2636 193 
Q 2250 -91 1575 -91 
Q 1294 -91 989 -36 
Q 684 19 347 128 
L 347 722 
Q 666 556 975 473 
Q 1284 391 1588 391 
Q 1994 391 2212 530 
Q 2431 669 2431 922 
Q 2431 1156 2273 1281 
Q 2116 1406 1581 1522 
L 1381 1569 
Q 847 1681 609 1914 
Q 372 2147 372 2553 
Q 372 3047 722 3315 
Q 1072 3584 1716 3584 
Q 2034 3584 2315 3537 
Q 2597 3491 2834 3397 
z
" transform="scale(0.015625)"/>
       <path id="DejaVuSans-29" d="M 513 4856 
L 1013 4856 
Q 1481 4119 1714 3412 
Q 1947 2706 1947 2009 
Q 1947 1309 1714 600 
Q 1481 -109 1013 -844 
L 513 -844 
Q 928 -128 1133 580 
Q 1338 1288 1338 2009 
Q 1338 2731 1133 3434 
Q 928 4138 513 4856 
z
" transform="scale(0.015625)"/>
      </defs>
      <use xlink:href="#DejaVuSans-54"/>
      <use xlink:href="#DejaVuSans-69" transform="translate(57.958984 0)"/>
      <use xlink:href="#DejaVuSans-6d" transform="translate(85.742188 0)"/>
      <use xlink:href="#DejaVuSans-65" transform="translate(183.154297 0)"/>
      <use xlink:href="#DejaVuSans-20" transform="translate(244.677734 0)"/>
      <use xlink:href="#DejaVuSans-28" transform="translate(276.464844 0)"/>
      <use xlink:href="#DejaVuSans-6e" transform="translate(315.478516 0)"/>
      <use xlink:href="#DejaVuSans-73" transform="translate(378.857422 0)"/>
      <use xlink:href="#DejaVuSans-29" transform="translate(430.957031 0)"/>
     </g>
    </g>
   </g>
   <g id="matplotlib.axis_2">
    <g id="ytick_1">
     <g id="line2d_7">
      <defs>
       <path id="md0a3232336" d="M 0 0 
L -3 0 
" style="stroke: #000000; stroke-width: 0.7"/>
      </defs>
      <g>
       <use xlink:href="#md0a3232336" x="30.698281" y="126.659425" style="stroke: #000000; stroke-width: 0.7"/>
      </g>
     </g>
     <g id="text_8">
      <!-- 0 -->
      <g transform="translate(19.426406 129.508839) scale(0.075 -0.075)">
       <use xlink:href="#DejaVuSans-30"/>
      </g>
     </g>
    </g>
    <g id="ytick_2">
     <g id="line2d_8">
      <g>
       <use xlink:href="#md0a3232336" x="30.698281" y="101.36397" style="stroke: #000000; stroke-width: 0.7"/>
      </g>
     </g>
     <g id="text_9">
      <!-- 1 -->
      <g transform="translate(19.426406 104.213384) scale(0.075 -0.075)">
       <use xlink:href="#DejaVuSans-31"/>
      </g>
     </g>
    </g>
    <g id="ytick_3">
     <g id="line2d_9">
      <g>
       <use xlink:href="#md0a3232336" x="30.698281" y="76.068516" style="stroke: #000000; stroke-width: 0.7"/>
      </g>
     </g>
     <g id="text_10">
      <!-- 2 -->
      <g transform="translate(19.426406 78.91793) scale(0.075 -0.075)">
       <use xlink:href="#DejaVuSans-32"/>
      </g>
     </g>
    </g>
    <g id="ytick_4">
     <g id="line2d_10">
      <g>
       <use xlink:href="#md0a3232336" x="30.698281" y="50.773061" style="stroke: #000000; stroke-width: 0.7"/>
      </g>
     </g>
     <g id="text_11">
      <!-- 3 -->
      <g transform="translate(19.426406 53.622475) scale(0.075 -0.075)">
       <defs>
        <path id="DejaVuSans-33" d="M 2597 2516 
Q 3050 2419 3304 2112 
Q 3559 1806 3559 1356 
Q 3559 666 3084 287 
Q 2609 -91 1734 -91 
Q 1441 -91 1130 -33 
Q 819 25 488 141 
L 488 750 
Q 750 597 1062 519 
Q 1375 441 1716 441 
Q 2309 441 2620 675 
Q 2931 909 2931 1356 
Q 2931 1769 2642 2001 
Q 2353 2234 1838 2234 
L 1294 2234 
L 1294 2753 
L 1863 2753 
Q 2328 2753 2575 2939 
Q 2822 3125 2822 3475 
Q 2822 3834 2567 4026 
Q 2313 4219 1838 4219 
Q 1578 4219 1281 4162 
Q 984 4106 628 3988 
L 628 4550 
Q 988 4650 1302 4700 
Q 1616 4750 1894 4750 
Q 2613 4750 3031 4423 
Q 3450 4097 3450 3541 
Q 3450 3153 3228 2886 
Q 3006 2619 2597 2516 
z
" transform="scale(0.015625)"/>
       </defs>
       <use xlink:href="#DejaVuSans-33"/>
      </g>
     </g>
    </g>
    <g id="ytick_5">
     <g id="line2d_11">
      <g>
       <use xlink:href="#md0a3232336" x="30.698281" y="25.477607" style="stroke: #000000; stroke-width: 0.7"/>
      </g>
     </g>
     <g id="text_12">
      <!-- 4 -->
      <g transform="translate(19.426406 28.327021) scale(0.075 -0.075)">
       <use xlink:href="#DejaVuSans-34"/>
      </g>
     </g>
    </g>
    <g id="text_13">
     <!-- Number of H-bonds -->
     <g transform="translate(13.658672 117.573086) rotate(-90) scale(0.085 -0.085)">
      <defs>
       <path id="DejaVuSans-4e" d="M 628 4666 
L 1478 4666 
L 3547 763 
L 3547 4666 
L 4159 4666 
L 4159 0 
L 3309 0 
L 1241 3903 
L 1241 0 
L 628 0 
L 628 4666 
z
" transform="scale(0.015625)"/>
       <path id="DejaVuSans-75" d="M 544 1381 
L 544 3500 
L 1119 3500 
L 1119 1403 
Q 1119 906 1312 657 
Q 1506 409 1894 409 
Q 2359 409 2629 706 
Q 2900 1003 2900 1516 
L 2900 3500 
L 3475 3500 
L 3475 0 
L 2900 0 
L 2900 538 
Q 2691 219 2414 64 
Q 2138 -91 1772 -91 
Q 1169 -91 856 284 
Q 544 659 544 1381 
z
M 1991 3584 
L 1991 3584 
z
" transform="scale(0.015625)"/>
       <path id="DejaVuSans-62" d="M 3116 1747 
Q 3116 2381 2855 2742 
Q 2594 3103 2138 3103 
Q 1681 3103 1420 2742 
Q 1159 2381 1159 1747 
Q 1159 1113 1420 752 
Q 1681 391 2138 391 
Q 2594 391 2855 752 
Q 3116 1113 3116 1747 
z
M 1159 2969 
Q 1341 3281 1617 3432 
Q 1894 3584 2278 3584 
Q 2916 3584 3314 3078 
Q 3713 2572 3713 1747 
Q 3713 922 3314 415 
Q 2916 -91 2278 -91 
Q 1894 -91 1617 61 
Q 1341 213 1159 525 
L 1159 0 
L 581 0 
L 581 4863 
L 1159 4863 
L 1159 2969 
z
" transform="scale(0.015625)"/>
       <path id="DejaVuSans-72" d="M 2631 2963 
Q 2534 3019 2420 3045 
Q 2306 3072 2169 3072 
Q 1681 3072 1420 2755 
Q 1159 2438 1159 1844 
L 1159 0 
L 581 0 
L 581 3500 
L 1159 3500 
L 1159 2956 
Q 1341 3275 1631 3429 
Q 1922 3584 2338 3584 
Q 2397 3584 2469 3576 
Q 2541 3569 2628 3553 
L 2631 2963 
z
" transform="scale(0.015625)"/>
       <path id="DejaVuSans-6f" d="M 1959 3097 
Q 1497 3097 1228 2736 
Q 959 2375 959 1747 
Q 959 1119 1226 758 
Q 1494 397 1959 397 
Q 2419 397 2687 759 
Q 2956 1122 2956 1747 
Q 2956 2369 2687 2733 
Q 2419 3097 1959 3097 
z
M 1959 3584 
Q 2709 3584 3137 3096 
Q 3566 2609 3566 1747 
Q 3566 888 3137 398 
Q 2709 -91 1959 -91 
Q 1206 -91 779 398 
Q 353 888 353 1747 
Q 353 2609 779 3096 
Q 1206 3584 1959 3584 
z
" transform="scale(0.015625)"/>
       <path id="DejaVuSans-66" d="M 2375 4863 
L 2375 4384 
L 1825 4384 
Q 1516 4384 1395 4259 
Q 1275 4134 1275 3809 
L 1275 3500 
L 2222 3500 
L 2222 3053 
L 1275 3053 
L 1275 0 
L 697 0 
L 697 3053 
L 147 3053 
L 147 3500 
L 697 3500 
L 697 3744 
Q 697 4328 969 4595 
Q 1241 4863 1831 4863 
L 2375 4863 
z
" transform="scale(0.015625)"/>
       <path id="DejaVuSans-48" d="M 628 4666 
L 1259 4666 
L 1259 2753 
L 3553 2753 
L 3553 4666 
L 4184 4666 
L 4184 0 
L 3553 0 
L 3553 2222 
L 1259 2222 
L 1259 0 
L 628 0 
L 628 4666 
z
" transform="scale(0.015625)"/>
       <path id="DejaVuSans-2d" d="M 313 2009 
L 1997 2009 
L 1997 1497 
L 313 1497 
L 313 2009 
z
" transform="scale(0.015625)"/>
       <path id="DejaVuSans-64" d="M 2906 2969 
L 2906 4863 
L 3481 4863 
L 3481 0 
L 2906 0 
L 2906 525 
Q 2725 213 2448 61 
Q 2172 -91 1784 -91 
Q 1150 -91 751 415 
Q 353 922 353 1747 
Q 353 2572 751 3078 
Q 1150 3584 1784 3584 
Q 2172 3584 2448 3432 
Q 2725 3281 2906 2969 
z
M 947 1747 
Q 947 1113 1208 752 
Q 1469 391 1925 391 
Q 2381 391 2643 752 
Q 2906 1113 2906 1747 
Q 2906 2381 2643 2742 
Q 2381 3103 1925 3103 
Q 1469 3103 1208 2742 
Q 947 2381 947 1747 
z
" transform="scale(0.015625)"/>
      </defs>
      <use xlink:href="#DejaVuSans-4e"/>
      <use xlink:href="#DejaVuSans-75" transform="translate(74.804688 0)"/>
      <use xlink:href="#DejaVuSans-6d" transform="translate(138.183594 0)"/>
      <use xlink:href="#DejaVuSans-62" transform="translate(235.595703 0)"/>
      <use xlink:href="#DejaVuSans-65" transform="translate(299.072266 0)"/>
      <use xlink:href="#DejaVuSans-72" transform="translate(360.595703 0)"/>
      <use xlink:href="#DejaVuSans-20" transform="translate(401.708984 0)"/>
      <use xlink:href="#DejaVuSans-6f" transform="translate(433.496094 0)"/>
      <use xlink:href="#DejaVuSans-66" transform="translate(494.677734 0)"/>
      <use xlink:href="#DejaVuSans-20" transform="translate(529.882812 0)"/>
      <use xlink:href="#DejaVuSans-48" transform="translate(561.669922 0)"/>
      <use xlink:href="#DejaVuSans-2d" transform="translate(636.865234 0)"/>
      <use xlink:href="#DejaVuSans-62" transform="translate(672.949219 0)"/>
      <use xlink:href="#DejaVuSans-6f" transform="translate(736.425781 0)"/>
      <use xlink:href="#DejaVuSans-6e" transform="translate(797.607422 0)"/>
      <use xlink:href="#DejaVuSans-64" transform="translate(860.986328 0)"/>
      <use xlink:href="#DejaVuSans-73" transform="translate(924.462891 0)"/>
     </g>
    </g>
   </g>
   <g id="line2d_12">
    <path d="M 39.248281 76.068516 
L 39.265381 76.068516 
L 39.282481 50.773061 
L 39.333781 126.659425 
L 39.367981 76.068516 
L 39.419281 76.068516 
L 39.521881 101.36397 
L 39.607381 50.773061 
L 39.641581 76.068516 
L 39.658681 76.068516 
L 39.709981 101.36397 
L 39.761281 76.068516 
L 39.778381 76.068516 
L 39.846781 101.36397 
L 39.880981 76.068516 
L 39.915181 76.068516 
L 39.932281 101.36397 
L 40.017781 76.068516 
L 40.171681 76.068516 
L 40.188781 50.773061 
L 40.257181 101.36397 
L 40.274281 76.068516 
L 40.376881 76.068516 
L 40.393981 50.773061 
L 40.411081 101.36397 
L 40.462381 101.36397 
L 40.547881 101.36397 
L 40.564981 76.068516 
L 40.650481 101.36397 
L 40.684681 101.36397 
L 40.701781 50.773061 
L 40.770181 126.659425 
L 40.787281 101.36397 
L 40.804381 101.36397 
L 40.821481 76.068516 
L 40.872781 126.659425 
L 40.906981 101.36397 
L 40.924081 101.36397 
L 40.975381 76.068516 
L 41.026681 126.659425 
L 41.095081 76.068516 
L 41.129281 101.36397 
L 41.231881 126.659425 
L 41.317381 76.068516 
L 41.351581 101.36397 
L 41.471281 126.659425 
L 41.505481 126.659425 
L 41.642281 76.068516 
L 41.761981 126.659425 
L 41.779081 126.659425 
L 41.796181 101.36397 
L 41.881681 126.659425 
L 41.950081 126.659425 
L 42.069781 101.36397 
L 42.121081 126.659425 
L 42.172381 101.36397 
L 42.257881 101.36397 
L 42.309181 126.659425 
L 42.343381 76.068516 
L 42.360481 76.068516 
L 42.463081 126.659425 
L 42.480181 76.068516 
L 42.565681 126.659425 
L 42.582781 126.659425 
L 42.651181 76.068516 
L 42.685381 126.659425 
L 42.719581 126.659425 
L 42.822181 101.36397 
L 42.941881 126.659425 
L 43.010281 126.659425 
L 43.129981 101.36397 
L 43.198381 101.36397 
L 43.283881 126.659425 
L 43.300981 101.36397 
L 43.335181 101.36397 
L 43.369381 126.659425 
L 43.437781 101.36397 
L 43.454881 101.36397 
L 43.574581 126.659425 
L 43.660081 101.36397 
L 43.677181 126.659425 
L 43.694281 126.659425 
L 43.813981 101.36397 
L 43.899481 101.36397 
L 43.916581 126.659425 
L 44.002081 101.36397 
L 44.241481 101.36397 
L 44.258581 126.659425 
L 44.344081 101.36397 
L 44.395381 101.36397 
L 44.480881 126.659425 
L 44.497981 101.36397 
L 44.549281 101.36397 
L 44.566381 126.659425 
L 44.651881 101.36397 
L 44.668981 101.36397 
L 44.720281 126.659425 
L 44.771581 101.36397 
L 44.976781 101.36397 
L 45.096481 126.659425 
L 45.216181 101.36397 
L 45.301681 101.36397 
L 45.318781 126.659425 
L 45.404281 101.36397 
L 45.421381 101.36397 
L 45.438481 126.659425 
L 45.523981 101.36397 
L 45.558181 101.36397 
L 45.677881 126.659425 
L 45.712081 126.659425 
L 45.763381 101.36397 
L 45.814681 126.659425 
L 45.831781 126.659425 
L 45.951481 101.36397 
L 46.242181 101.36397 
L 46.361881 126.659425 
L 46.481581 101.36397 
L 46.515781 101.36397 
L 46.532881 126.659425 
L 46.618381 101.36397 
L 46.635481 101.36397 
L 46.755181 126.659425 
L 46.874881 101.36397 
L 46.891981 101.36397 
L 46.977481 126.659425 
L 46.994581 101.36397 
L 47.011681 101.36397 
L 47.028781 126.659425 
L 47.114281 101.36397 
L 47.148481 101.36397 
L 47.165581 76.068516 
L 47.251081 101.36397 
L 47.302381 101.36397 
L 47.404981 126.659425 
L 47.507581 76.068516 
L 47.627281 126.659425 
L 47.729881 76.068516 
L 47.815381 126.659425 
L 47.832481 101.36397 
L 47.900881 101.36397 
L 47.917981 76.068516 
L 47.935081 126.659425 
L 48.003481 101.36397 
L 48.106081 101.36397 
L 48.123181 76.068516 
L 48.140281 126.659425 
L 48.191581 126.659425 
L 48.225781 126.659425 
L 48.328381 101.36397 
L 48.396781 126.659425 
L 48.430981 101.36397 
L 48.448081 101.36397 
L 48.567781 126.659425 
L 48.601981 126.659425 
L 48.704581 101.36397 
L 48.738781 126.659425 
L 48.755881 76.068516 
L 48.790081 76.068516 
L 48.824281 76.068516 
L 48.926881 101.36397 
L 48.943981 76.068516 
L 48.961081 126.659425 
L 49.012381 126.659425 
L 49.029481 126.659425 
L 49.149181 101.36397 
L 49.166281 126.659425 
L 49.183381 76.068516 
L 49.251781 101.36397 
L 49.474081 101.36397 
L 49.491181 76.068516 
L 49.508281 126.659425 
L 49.559581 101.36397 
L 49.679281 126.659425 
L 49.696381 126.659425 
L 49.730581 101.36397 
L 49.798981 126.659425 
L 49.816081 126.659425 
L 49.901581 101.36397 
L 49.918681 126.659425 
L 49.952881 126.659425 
L 50.004181 101.36397 
L 50.055481 126.659425 
L 50.072581 126.659425 
L 50.192281 101.36397 
L 50.226481 101.36397 
L 50.346181 126.659425 
L 50.448781 76.068516 
L 50.482981 101.36397 
L 50.551381 76.068516 
L 50.568481 76.068516 
L 50.585581 50.773061 
L 50.619781 126.659425 
L 50.653981 101.36397 
L 50.722381 126.659425 
L 50.756581 101.36397 
L 50.773681 101.36397 
L 50.790781 50.773061 
L 50.807881 126.659425 
L 50.876281 101.36397 
L 50.910481 126.659425 
L 50.978881 101.36397 
L 50.995981 101.36397 
L 51.030181 126.659425 
L 51.098581 101.36397 
L 51.201181 101.36397 
L 51.218281 126.659425 
L 51.303781 101.36397 
L 51.457681 101.36397 
L 51.526081 126.659425 
L 51.560281 101.36397 
L 51.885181 101.36397 
L 51.902281 126.659425 
L 51.987781 101.36397 
L 52.004881 101.36397 
L 52.107481 126.659425 
L 52.227181 101.36397 
L 52.295581 101.36397 
L 52.381081 76.068516 
L 52.363981 126.659425 
L 52.398181 101.36397 
L 52.466581 101.36397 
L 52.569181 126.659425 
L 52.705981 76.068516 
L 52.740181 76.068516 
L 52.876981 126.659425 
L 52.996681 101.36397 
L 53.099281 101.36397 
L 53.150581 126.659425 
L 53.201881 101.36397 
L 53.236081 101.36397 
L 53.355781 126.659425 
L 53.475481 101.36397 
L 53.526781 101.36397 
L 53.543881 126.659425 
L 53.629381 101.36397 
L 53.714881 101.36397 
L 53.783281 126.659425 
L 53.817481 101.36397 
L 53.954281 101.36397 
L 54.022681 126.659425 
L 54.056881 101.36397 
L 54.159481 101.36397 
L 54.176581 126.659425 
L 54.262081 101.36397 
L 54.313381 101.36397 
L 54.330481 126.659425 
L 54.415981 101.36397 
L 54.604081 101.36397 
L 54.672481 126.659425 
L 54.706681 101.36397 
L 54.877681 101.36397 
L 54.894781 126.659425 
L 54.980281 101.36397 
L 55.185481 101.36397 
L 55.305181 126.659425 
L 55.407781 101.36397 
L 55.476181 126.659425 
L 55.510381 101.36397 
L 55.561681 101.36397 
L 55.647181 126.659425 
L 55.664281 101.36397 
L 55.698481 101.36397 
L 55.715581 126.659425 
L 55.801081 101.36397 
L 55.835281 101.36397 
L 55.852381 126.659425 
L 55.937881 101.36397 
L 56.245681 101.36397 
L 56.262781 126.659425 
L 56.331181 76.068516 
L 56.348281 101.36397 
L 56.399581 76.068516 
L 56.450881 101.36397 
L 56.553481 101.36397 
L 56.673181 76.068516 
L 56.724481 76.068516 
L 56.809981 126.659425 
L 56.844181 101.36397 
L 56.946781 76.068516 
L 56.980981 126.659425 
L 57.049381 101.36397 
L 57.117781 126.659425 
L 57.169081 76.068516 
L 57.220381 76.068516 
L 57.322981 126.659425 
L 57.442681 76.068516 
L 57.511081 126.659425 
L 57.545281 101.36397 
L 57.835981 101.36397 
L 57.853081 76.068516 
L 57.887281 126.659425 
L 57.938581 101.36397 
L 57.989881 101.36397 
L 58.006981 126.659425 
L 58.092481 101.36397 
L 58.177981 101.36397 
L 58.246381 126.659425 
L 58.280581 101.36397 
L 58.366081 101.36397 
L 58.485781 126.659425 
L 58.588381 101.36397 
L 58.673881 126.659425 
L 58.690981 101.36397 
L 58.827781 101.36397 
L 58.930381 126.659425 
L 59.050081 101.36397 
L 59.067181 101.36397 
L 59.084281 126.659425 
L 59.169781 101.36397 
L 59.186881 101.36397 
L 59.272381 126.659425 
L 59.289481 101.36397 
L 59.357881 101.36397 
L 59.443381 126.659425 
L 59.460481 101.36397 
L 59.477581 101.36397 
L 59.597281 76.068516 
L 59.716981 101.36397 
L 59.734081 50.773061 
L 59.785381 126.659425 
L 59.819581 101.36397 
L 59.887981 101.36397 
L 59.905081 126.659425 
L 59.922181 76.068516 
L 59.990581 101.36397 
L 60.007681 101.36397 
L 60.024781 126.659425 
L 60.110281 101.36397 
L 60.264181 101.36397 
L 60.298381 76.068516 
L 60.366781 101.36397 
L 60.383881 101.36397 
L 60.400981 126.659425 
L 60.486481 101.36397 
L 60.554881 101.36397 
L 60.623281 126.659425 
L 60.657481 101.36397 
L 60.845581 101.36397 
L 60.862681 126.659425 
L 60.913981 76.068516 
L 60.948181 101.36397 
L 60.999481 101.36397 
L 61.067881 76.068516 
L 61.084981 126.659425 
L 61.102081 101.36397 
L 61.119181 101.36397 
L 61.204681 126.659425 
L 61.221781 101.36397 
L 61.238881 76.068516 
L 61.324381 101.36397 
L 61.461181 101.36397 
L 61.478281 76.068516 
L 61.563781 101.36397 
L 61.666381 126.659425 
L 61.786081 101.36397 
L 61.905781 126.659425 
L 62.025481 101.36397 
L 62.128081 126.659425 
L 62.247781 101.36397 
L 62.264881 101.36397 
L 62.384581 126.659425 
L 62.504281 101.36397 
L 62.606881 126.659425 
L 62.726581 101.36397 
L 62.760781 101.36397 
L 62.863381 76.068516 
L 63.000181 126.659425 
L 63.017281 126.659425 
L 63.136981 101.36397 
L 63.256681 126.659425 
L 63.273781 126.659425 
L 63.342181 76.068516 
L 63.393481 101.36397 
L 63.461881 101.36397 
L 63.581581 126.659425 
L 63.701281 76.068516 
L 63.820981 101.36397 
L 63.838081 101.36397 
L 63.889381 126.659425 
L 63.923581 76.068516 
L 63.940681 76.068516 
L 64.009081 126.659425 
L 64.043281 101.36397 
L 64.060381 76.068516 
L 64.128781 126.659425 
L 64.145881 101.36397 
L 64.180081 101.36397 
L 64.231381 76.068516 
L 64.299781 126.659425 
L 64.351081 76.068516 
L 64.419481 101.36397 
L 64.539181 126.659425 
L 64.658881 101.36397 
L 64.675981 101.36397 
L 64.744381 76.068516 
L 64.778581 126.659425 
L 64.915381 76.068516 
L 64.966681 126.659425 
L 65.035081 101.36397 
L 65.052181 76.068516 
L 65.069281 126.659425 
L 65.137681 101.36397 
L 65.154781 101.36397 
L 65.240281 126.659425 
L 65.257381 101.36397 
L 65.325781 101.36397 
L 65.411281 126.659425 
L 65.428381 101.36397 
L 65.513881 101.36397 
L 65.599381 126.659425 
L 65.616481 101.36397 
L 65.633581 101.36397 
L 65.753281 126.659425 
L 65.770381 126.659425 
L 65.907181 76.068516 
L 66.043981 126.659425 
L 66.146581 101.36397 
L 66.232081 126.659425 
L 66.249181 101.36397 
L 66.317581 101.36397 
L 66.403081 126.659425 
L 66.420181 101.36397 
L 66.539881 50.773061 
L 66.642481 126.659425 
L 66.676681 101.36397 
L 66.693781 101.36397 
L 66.779281 126.659425 
L 66.796381 101.36397 
L 66.847681 101.36397 
L 66.881881 76.068516 
L 66.898981 126.659425 
L 66.950281 101.36397 
L 67.001581 126.659425 
L 67.052881 101.36397 
L 67.189681 101.36397 
L 67.309381 126.659425 
L 67.429081 101.36397 
L 67.514581 126.659425 
L 67.531681 101.36397 
L 67.617181 101.36397 
L 67.719781 126.659425 
L 67.822381 101.36397 
L 67.924981 126.659425 
L 68.044681 101.36397 
L 68.147281 126.659425 
L 68.249881 101.36397 
L 68.352481 126.659425 
L 68.455081 101.36397 
L 68.523481 126.659425 
L 68.557681 101.36397 
L 68.677381 101.36397 
L 68.779981 126.659425 
L 68.848381 76.068516 
L 68.899681 101.36397 
L 68.933881 101.36397 
L 68.950981 126.659425 
L 69.036481 101.36397 
L 69.087781 101.36397 
L 69.207481 126.659425 
L 69.224581 101.36397 
L 69.310081 126.659425 
L 69.327181 126.659425 
L 69.429781 101.36397 
L 69.549481 126.659425 
L 69.669181 101.36397 
L 69.686281 101.36397 
L 69.737581 126.659425 
L 69.788881 101.36397 
L 69.805981 101.36397 
L 69.925681 126.659425 
L 70.011181 101.36397 
L 70.028281 126.659425 
L 70.045381 126.659425 
L 70.147981 101.36397 
L 70.165081 126.659425 
L 70.250581 101.36397 
L 70.267681 50.773061 
L 70.301881 126.659425 
L 70.353181 101.36397 
L 70.370281 101.36397 
L 70.489981 126.659425 
L 70.524181 126.659425 
L 70.643881 101.36397 
L 70.763581 126.659425 
L 70.797781 126.659425 
L 70.917481 101.36397 
L 70.985881 101.36397 
L 71.105581 126.659425 
L 71.225281 101.36397 
L 71.362081 101.36397 
L 71.379181 126.659425 
L 71.464681 101.36397 
L 71.515981 101.36397 
L 71.584381 76.068516 
L 71.567281 126.659425 
L 71.601481 126.659425 
L 71.635681 126.659425 
L 71.652781 101.36397 
L 71.738281 126.659425 
L 71.755381 126.659425 
L 71.806681 101.36397 
L 71.857981 126.659425 
L 71.875081 126.659425 
L 71.994781 101.36397 
L 72.011881 101.36397 
L 72.131581 126.659425 
L 72.165781 126.659425 
L 72.251281 101.36397 
L 72.268381 126.659425 
L 72.302581 126.659425 
L 72.422281 101.36397 
L 72.507781 101.36397 
L 72.627481 126.659425 
L 72.730081 101.36397 
L 72.832681 126.659425 
L 72.952381 101.36397 
L 72.969481 101.36397 
L 73.072081 126.659425 
L 73.123381 76.068516 
L 73.191781 101.36397 
L 73.225981 101.36397 
L 73.345681 126.659425 
L 73.362781 126.659425 
L 73.482481 101.36397 
L 73.516681 101.36397 
L 73.636381 126.659425 
L 73.721881 101.36397 
L 73.738981 126.659425 
L 73.756081 126.659425 
L 73.875781 101.36397 
L 73.927081 126.659425 
L 73.909981 76.068516 
L 73.978381 101.36397 
L 73.995481 101.36397 
L 74.098081 126.659425 
L 74.200681 101.36397 
L 74.320381 126.659425 
L 74.440081 76.068516 
L 74.559781 101.36397 
L 74.628181 101.36397 
L 74.713681 126.659425 
L 74.679481 76.068516 
L 74.730781 101.36397 
L 74.764981 101.36397 
L 74.884681 126.659425 
L 74.987281 101.36397 
L 75.106981 126.659425 
L 75.209581 101.36397 
L 75.312181 126.659425 
L 75.397681 101.36397 
L 75.414781 126.659425 
L 75.431881 126.659425 
L 75.551581 101.36397 
L 75.568681 126.659425 
L 75.654181 101.36397 
L 75.671281 101.36397 
L 75.756781 126.659425 
L 75.773881 101.36397 
L 75.876481 101.36397 
L 75.893581 76.068516 
L 75.910681 126.659425 
L 75.961981 101.36397 
L 76.030381 126.659425 
L 76.064581 101.36397 
L 76.081681 101.36397 
L 76.201381 126.659425 
L 76.235581 126.659425 
L 76.355281 101.36397 
L 76.457881 126.659425 
L 76.560481 101.36397 
L 76.628881 126.659425 
L 76.663081 101.36397 
L 76.680181 101.36397 
L 76.731481 126.659425 
L 76.782781 101.36397 
L 76.816981 101.36397 
L 76.936681 126.659425 
L 76.953781 126.659425 
L 77.073481 101.36397 
L 77.176081 126.659425 
L 77.295781 101.36397 
L 77.381281 126.659425 
L 77.398381 101.36397 
L 77.432581 101.36397 
L 77.552281 126.659425 
L 77.637781 101.36397 
L 77.654881 126.659425 
L 77.671981 126.659425 
L 77.791681 101.36397 
L 77.911381 126.659425 
L 78.013981 101.36397 
L 78.116581 126.659425 
L 78.236281 101.36397 
L 78.253381 101.36397 
L 78.304681 76.068516 
L 78.373081 126.659425 
L 78.458581 101.36397 
L 78.475681 126.659425 
L 78.492781 126.659425 
L 78.612481 101.36397 
L 78.629581 101.36397 
L 78.715081 126.659425 
L 78.732181 101.36397 
L 78.800581 101.36397 
L 78.903181 126.659425 
L 79.022881 101.36397 
L 79.039981 101.36397 
L 79.142581 126.659425 
L 79.262281 101.36397 
L 79.279381 101.36397 
L 79.399081 126.659425 
L 79.484581 101.36397 
L 79.501681 126.659425 
L 79.535881 126.659425 
L 79.604281 101.36397 
L 79.638481 126.659425 
L 79.655581 126.659425 
L 79.775281 101.36397 
L 79.843681 101.36397 
L 79.946281 126.659425 
L 80.065981 76.068516 
L 80.117281 126.659425 
L 80.185681 101.36397 
L 80.219881 101.36397 
L 80.339581 126.659425 
L 80.459281 101.36397 
L 80.476381 126.659425 
L 80.544781 101.36397 
L 80.664481 76.068516 
L 80.681581 126.659425 
L 80.749981 101.36397 
L 80.767081 50.773061 
L 80.818381 126.659425 
L 80.852581 101.36397 
L 80.955181 101.36397 
L 81.074881 126.659425 
L 81.091981 126.659425 
L 81.194581 101.36397 
L 81.262981 126.659425 
L 81.297181 101.36397 
L 81.314281 101.36397 
L 81.348481 126.659425 
L 81.416881 101.36397 
L 81.433981 101.36397 
L 81.519481 126.659425 
L 81.536581 101.36397 
L 81.587881 101.36397 
L 81.673381 126.659425 
L 81.690481 101.36397 
L 81.724681 101.36397 
L 81.741781 126.659425 
L 81.827281 101.36397 
L 81.964081 101.36397 
L 82.032481 126.659425 
L 82.066681 101.36397 
L 82.100881 101.36397 
L 82.117981 50.773061 
L 82.203481 101.36397 
L 82.254781 101.36397 
L 82.271881 76.068516 
L 82.357381 101.36397 
L 82.459981 126.659425 
L 82.562581 76.068516 
L 82.596781 50.773061 
L 82.682281 126.659425 
L 82.733581 126.659425 
L 82.819081 101.36397 
L 82.836181 126.659425 
L 82.853281 126.659425 
L 82.955881 76.068516 
L 82.972981 126.659425 
L 83.058481 76.068516 
L 83.195281 126.659425 
L 83.212381 126.659425 
L 83.332081 101.36397 
L 83.349181 101.36397 
L 83.468881 126.659425 
L 83.503081 126.659425 
L 83.605681 101.36397 
L 83.622781 126.659425 
L 83.639881 76.068516 
L 83.708281 101.36397 
L 83.759581 101.36397 
L 83.776681 126.659425 
L 83.862181 101.36397 
L 83.879281 101.36397 
L 83.998981 126.659425 
L 84.033181 76.068516 
L 84.101581 126.659425 
L 84.204181 76.068516 
L 84.221281 101.36397 
L 84.255481 101.36397 
L 84.340981 76.068516 
L 84.358081 101.36397 
L 84.392281 101.36397 
L 84.494881 126.659425 
L 84.614581 101.36397 
L 84.648781 101.36397 
L 84.665881 76.068516 
L 84.751381 101.36397 
L 84.853981 101.36397 
L 84.905281 126.659425 
L 84.956581 101.36397 
L 84.973681 101.36397 
L 85.059181 126.659425 
L 85.076281 101.36397 
L 85.127581 101.36397 
L 85.230181 126.659425 
L 85.366981 76.068516 
L 85.418281 126.659425 
L 85.486681 101.36397 
L 85.623481 101.36397 
L 85.726081 126.659425 
L 85.845781 101.36397 
L 85.879981 101.36397 
L 85.982581 126.659425 
L 86.119381 76.068516 
L 86.136481 76.068516 
L 86.256181 126.659425 
L 86.273281 126.659425 
L 86.392981 101.36397 
L 86.478481 126.659425 
L 86.495581 101.36397 
L 86.529781 101.36397 
L 86.546881 126.659425 
L 86.632381 101.36397 
L 86.649481 101.36397 
L 86.666581 126.659425 
L 86.752081 101.36397 
L 86.786281 101.36397 
L 86.871781 76.068516 
L 86.888881 101.36397 
L 86.905981 101.36397 
L 86.957281 50.773061 
L 86.991481 126.659425 
L 87.025681 76.068516 
L 87.042781 76.068516 
L 87.076981 126.659425 
L 87.145381 101.36397 
L 87.179581 76.068516 
L 87.213781 126.659425 
L 87.230881 126.659425 
L 87.247981 126.659425 
L 87.299281 76.068516 
L 87.367681 101.36397 
L 87.401881 101.36397 
L 87.504481 126.659425 
L 87.607081 76.068516 
L 87.624181 101.36397 
L 87.641281 101.36397 
L 87.726781 126.659425 
L 87.743881 101.36397 
L 87.812281 101.36397 
L 87.880681 126.659425 
L 87.897781 101.36397 
L 87.966181 126.659425 
L 88.017481 76.068516 
L 88.154281 126.659425 
L 88.171381 76.068516 
L 88.256881 101.36397 
L 88.291081 101.36397 
L 88.410781 126.659425 
L 88.444981 126.659425 
L 88.564681 101.36397 
L 88.701481 101.36397 
L 88.804081 126.659425 
L 88.923781 101.36397 
L 89.043481 101.36397 
L 89.146081 126.659425 
L 89.265781 101.36397 
L 89.282881 101.36397 
L 89.299981 126.659425 
L 89.385481 101.36397 
L 89.488081 101.36397 
L 89.590681 126.659425 
L 89.607781 101.36397 
L 89.693281 126.659425 
L 89.727481 126.659425 
L 89.847181 101.36397 
L 89.966881 126.659425 
L 90.086581 101.36397 
L 90.103681 101.36397 
L 90.223381 126.659425 
L 90.343081 126.659425 
L 90.360181 101.36397 
L 90.445681 126.659425 
L 90.496981 126.659425 
L 90.616681 101.36397 
L 90.633781 101.36397 
L 90.753481 126.659425 
L 90.821881 101.36397 
L 90.856081 126.659425 
L 90.873181 126.659425 
L 90.890281 101.36397 
L 90.975781 126.659425 
L 91.146781 126.659425 
L 91.232281 101.36397 
L 91.249381 126.659425 
L 91.403281 126.659425 
L 91.522981 101.36397 
L 91.642681 126.659425 
L 91.745281 101.36397 
L 91.864981 126.659425 
L 91.916281 101.36397 
L 91.967581 126.659425 
L 92.001781 126.659425 
L 92.018881 101.36397 
L 92.104381 126.659425 
L 92.224081 126.659425 
L 92.309581 101.36397 
L 92.326681 126.659425 
L 92.343781 126.659425 
L 92.360881 101.36397 
L 92.446381 126.659425 
L 92.583181 126.659425 
L 92.634481 101.36397 
L 92.685781 126.659425 
L 92.822581 126.659425 
L 92.839681 101.36397 
L 92.925181 126.659425 
L 93.113281 126.659425 
L 93.232981 101.36397 
L 93.335581 126.659425 
L 93.438181 101.36397 
L 93.557881 126.659425 
L 93.626281 101.36397 
L 93.660481 126.659425 
L 93.677581 126.659425 
L 93.797281 101.36397 
L 93.899881 126.659425 
L 94.019581 101.36397 
L 94.156381 101.36397 
L 94.173481 126.659425 
L 94.224781 76.068516 
L 94.258981 101.36397 
L 94.293181 101.36397 
L 94.412881 76.068516 
L 94.429981 76.068516 
L 94.464181 126.659425 
L 94.549681 101.36397 
L 94.600981 101.36397 
L 94.720681 126.659425 
L 94.840381 101.36397 
L 94.891681 101.36397 
L 94.994281 126.659425 
L 95.113981 101.36397 
L 95.182381 101.36397 
L 95.267881 126.659425 
L 95.284981 101.36397 
L 95.302081 101.36397 
L 95.387581 76.068516 
L 95.421781 126.659425 
L 95.558581 76.068516 
L 95.575681 76.068516 
L 95.695381 101.36397 
L 95.712481 101.36397 
L 95.780881 126.659425 
L 95.815081 101.36397 
L 95.917681 101.36397 
L 95.968981 126.659425 
L 96.020281 101.36397 
L 96.122881 101.36397 
L 96.191281 126.659425 
L 96.208381 101.36397 
L 96.225481 76.068516 
L 96.310981 101.36397 
L 96.328081 126.659425 
L 96.345181 76.068516 
L 96.413581 101.36397 
L 96.601681 101.36397 
L 96.721381 126.659425 
L 96.738481 126.659425 
L 96.772681 76.068516 
L 96.858181 101.36397 
L 96.994981 101.36397 
L 97.063381 126.659425 
L 97.097581 101.36397 
L 97.388281 101.36397 
L 97.490881 126.659425 
L 97.610581 101.36397 
L 97.696081 101.36397 
L 97.713181 126.659425 
L 97.798681 101.36397 
L 97.849981 101.36397 
L 97.867081 126.659425 
L 97.952581 101.36397 
L 98.055181 101.36397 
L 98.106481 126.659425 
L 98.157781 101.36397 
L 98.260381 76.068516 
L 98.328781 126.659425 
L 98.362981 101.36397 
L 98.482681 50.773061 
L 98.516881 126.659425 
L 98.602381 101.36397 
L 98.670781 101.36397 
L 98.722081 76.068516 
L 98.773381 101.36397 
L 98.824681 101.36397 
L 98.910181 76.068516 
L 98.944381 126.659425 
L 99.029881 76.068516 
L 99.046981 101.36397 
L 99.064081 126.659425 
L 99.149581 101.36397 
L 99.217981 101.36397 
L 99.235081 126.659425 
L 99.320581 101.36397 
L 99.371881 101.36397 
L 99.406081 76.068516 
L 99.491581 126.659425 
L 99.611281 101.36397 
L 99.730981 101.36397 
L 99.748081 76.068516 
L 99.816481 101.36397 
L 99.833581 126.659425 
L 99.884881 76.068516 
L 99.919081 101.36397 
L 99.936181 76.068516 
L 100.021681 101.36397 
L 100.209781 101.36397 
L 100.226881 126.659425 
L 100.312381 101.36397 
L 100.363681 101.36397 
L 100.483381 126.659425 
L 100.620181 76.068516 
L 100.756981 126.659425 
L 100.859581 76.068516 
L 100.876681 101.36397 
L 100.927981 101.36397 
L 100.945081 126.659425 
L 101.013481 101.36397 
L 101.133181 76.068516 
L 101.252881 126.659425 
L 101.355481 76.068516 
L 101.423881 126.659425 
L 101.475181 101.36397 
L 101.629081 101.36397 
L 101.680381 76.068516 
L 101.731681 101.36397 
L 101.868481 101.36397 
L 101.885581 76.068516 
L 101.971081 101.36397 
L 102.022381 101.36397 
L 102.039481 76.068516 
L 102.124981 101.36397 
L 102.159181 101.36397 
L 102.227581 126.659425 
L 102.278881 76.068516 
L 102.364381 126.659425 
L 102.381481 101.36397 
L 102.535381 101.36397 
L 102.552481 126.659425 
L 102.586681 76.068516 
L 102.637981 101.36397 
L 102.740581 76.068516 
L 102.860281 101.36397 
L 102.979981 76.068516 
L 103.031281 76.068516 
L 103.133881 101.36397 
L 103.150981 76.068516 
L 103.219381 126.659425 
L 103.253581 126.659425 
L 103.373281 101.36397 
L 103.458781 101.36397 
L 103.475881 126.659425 
L 103.561381 101.36397 
L 103.595581 101.36397 
L 103.612681 76.068516 
L 103.698181 101.36397 
L 103.715281 101.36397 
L 103.732381 126.659425 
L 103.766581 76.068516 
L 103.817881 101.36397 
L 103.834981 101.36397 
L 103.852081 76.068516 
L 103.937581 101.36397 
L 104.091481 101.36397 
L 104.108581 126.659425 
L 104.125681 76.068516 
L 104.194081 101.36397 
L 104.211181 101.36397 
L 104.228281 126.659425 
L 104.296681 76.068516 
L 104.313781 101.36397 
L 104.330881 101.36397 
L 104.416381 76.068516 
L 104.433481 101.36397 
L 104.484781 101.36397 
L 104.587381 76.068516 
L 104.724181 126.659425 
L 104.775481 76.068516 
L 104.843881 101.36397 
L 104.912281 101.36397 
L 105.014881 126.659425 
L 105.031981 76.068516 
L 105.117481 101.36397 
L 105.425281 101.36397 
L 105.544981 126.659425 
L 105.647581 101.36397 
L 105.664681 126.659425 
L 105.750181 101.36397 
L 105.767281 101.36397 
L 105.904081 50.773061 
L 105.955381 126.659425 
L 106.006681 101.36397 
L 106.057981 50.773061 
L 106.126381 76.068516 
L 106.160581 76.068516 
L 106.280281 101.36397 
L 106.365781 101.36397 
L 106.434181 76.068516 
L 106.468381 101.36397 
L 106.485481 126.659425 
L 106.502581 76.068516 
L 106.570981 101.36397 
L 106.588081 101.36397 
L 106.639381 76.068516 
L 106.673581 101.36397 
L 106.690681 126.659425 
L 106.776181 101.36397 
L 106.793281 101.36397 
L 106.844581 126.659425 
L 106.895881 101.36397 
L 106.981381 101.36397 
L 107.066881 126.659425 
L 107.083981 76.068516 
L 107.101081 126.659425 
L 107.186581 101.36397 
L 107.272081 101.36397 
L 107.391781 76.068516 
L 107.477281 101.36397 
L 107.494381 76.068516 
L 107.511481 76.068516 
L 107.579881 126.659425 
L 107.614081 76.068516 
L 107.648281 76.068516 
L 107.733781 126.659425 
L 107.750881 101.36397 
L 107.853481 76.068516 
L 107.938981 50.773061 
L 107.956081 101.36397 
L 108.058681 76.068516 
L 108.178381 101.36397 
L 108.195481 101.36397 
L 108.212581 50.773061 
L 108.298081 101.36397 
L 108.332281 101.36397 
L 108.451981 76.068516 
L 108.520381 76.068516 
L 108.622981 101.36397 
L 108.640081 50.773061 
L 108.691381 126.659425 
L 108.725581 101.36397 
L 108.862381 101.36397 
L 108.879481 126.659425 
L 108.947881 76.068516 
L 108.964981 101.36397 
L 108.982081 50.773061 
L 109.067581 76.068516 
L 109.084681 101.36397 
L 109.135981 50.773061 
L 109.170181 76.068516 
L 109.187281 76.068516 
L 109.306981 101.36397 
L 109.392481 101.36397 
L 109.460881 76.068516 
L 109.495081 101.36397 
L 109.614781 126.659425 
L 109.648981 76.068516 
L 109.734481 101.36397 
L 109.802881 101.36397 
L 109.819981 126.659425 
L 109.905481 101.36397 
L 109.922581 101.36397 
L 110.008081 76.068516 
L 109.990981 126.659425 
L 110.025181 101.36397 
L 110.042281 101.36397 
L 110.076481 126.659425 
L 110.110681 76.068516 
L 110.144881 101.36397 
L 110.179081 101.36397 
L 110.196181 126.659425 
L 110.247481 76.068516 
L 110.264581 50.773061 
L 110.332981 101.36397 
L 110.350081 76.068516 
L 110.469781 101.36397 
L 110.521081 101.36397 
L 110.640781 76.068516 
L 110.657881 76.068516 
L 110.743381 101.36397 
L 110.760481 76.068516 
L 110.777581 76.068516 
L 110.794681 126.659425 
L 110.845981 50.773061 
L 110.880181 76.068516 
L 110.914381 76.068516 
L 111.016981 101.36397 
L 111.085381 126.659425 
L 111.136681 76.068516 
L 111.153781 76.068516 
L 111.273481 101.36397 
L 111.376081 76.068516 
L 111.427381 126.659425 
L 111.461581 50.773061 
L 111.495781 101.36397 
L 111.512881 101.36397 
L 111.564181 76.068516 
L 111.598381 101.36397 
L 111.700981 126.659425 
L 111.803581 76.068516 
L 111.820681 101.36397 
L 111.837781 126.659425 
L 111.923281 101.36397 
L 111.940381 76.068516 
L 112.025881 101.36397 
L 112.282381 101.36397 
L 112.299481 76.068516 
L 112.367881 126.659425 
L 112.384981 101.36397 
L 112.453381 101.36397 
L 112.504681 126.659425 
L 112.521781 76.068516 
L 112.555981 101.36397 
L 112.590181 101.36397 
L 112.607281 126.659425 
L 112.641481 76.068516 
L 112.675681 101.36397 
L 112.709881 76.068516 
L 112.726981 126.659425 
L 112.778281 101.36397 
L 112.795381 101.36397 
L 112.829581 76.068516 
L 112.863781 126.659425 
L 112.897981 101.36397 
L 112.915081 101.36397 
L 112.932181 126.659425 
L 112.949281 76.068516 
L 113.000581 76.068516 
L 113.017681 50.773061 
L 113.068981 126.659425 
L 113.086081 76.068516 
L 113.205781 126.659425 
L 113.325481 101.36397 
L 113.342581 101.36397 
L 113.410981 76.068516 
L 113.428081 126.659425 
L 113.445181 101.36397 
L 113.462281 101.36397 
L 113.479381 126.659425 
L 113.564881 101.36397 
L 113.599081 101.36397 
L 113.650381 126.659425 
L 113.701681 101.36397 
L 113.770081 101.36397 
L 113.804281 126.659425 
L 113.855581 76.068516 
L 113.872681 126.659425 
L 113.958181 101.36397 
L 113.992381 101.36397 
L 114.094981 76.068516 
L 114.214681 101.36397 
L 114.317281 101.36397 
L 114.351481 126.659425 
L 114.419881 101.36397 
L 114.454081 101.36397 
L 114.522481 126.659425 
L 114.556681 101.36397 
L 114.590881 101.36397 
L 114.625081 126.659425 
L 114.693481 76.068516 
L 114.813181 101.36397 
L 114.830281 101.36397 
L 114.847381 76.068516 
L 114.915781 101.36397 
L 114.932881 126.659425 
L 114.967081 76.068516 
L 115.018381 101.36397 
L 115.052581 76.068516 
L 115.120981 101.36397 
L 115.155181 101.36397 
L 115.172281 76.068516 
L 115.257781 101.36397 
L 115.428781 101.36397 
L 115.445881 76.068516 
L 115.514281 101.36397 
L 115.599781 126.659425 
L 115.616881 101.36397 
L 115.633981 101.36397 
L 115.651081 126.659425 
L 115.702381 76.068516 
L 115.719481 101.36397 
L 115.736581 76.068516 
L 115.787881 126.659425 
L 115.822081 101.36397 
L 115.839181 101.36397 
L 115.873381 126.659425 
L 115.958881 76.068516 
L 115.993081 126.659425 
L 116.061481 101.36397 
L 116.146981 76.068516 
L 116.129881 126.659425 
L 116.164081 101.36397 
L 116.198281 101.36397 
L 116.215381 76.068516 
L 116.300881 101.36397 
L 116.335081 101.36397 
L 116.369281 76.068516 
L 116.454781 126.659425 
L 116.591581 76.068516 
L 116.711281 101.36397 
L 116.728381 101.36397 
L 116.745481 50.773061 
L 116.762581 126.659425 
L 116.830981 76.068516 
L 116.950681 126.659425 
L 117.053281 76.068516 
L 117.104581 126.659425 
L 117.172981 101.36397 
L 117.309781 101.36397 
L 117.412381 126.659425 
L 117.480781 76.068516 
L 117.514981 101.36397 
L 117.532081 126.659425 
L 117.566281 76.068516 
L 117.617581 101.36397 
L 117.685981 76.068516 
L 117.668881 126.659425 
L 117.720181 101.36397 
L 117.822781 126.659425 
L 117.942481 101.36397 
L 117.993781 101.36397 
L 118.010881 126.659425 
L 118.096381 101.36397 
L 118.181881 101.36397 
L 118.233181 126.659425 
L 118.284481 101.36397 
L 118.489681 101.36397 
L 118.575181 126.659425 
L 118.592281 101.36397 
L 118.694881 101.36397 
L 118.746181 126.659425 
L 118.763281 76.068516 
L 118.797481 101.36397 
L 118.831681 101.36397 
L 118.848781 126.659425 
L 118.934281 101.36397 
L 119.071081 101.36397 
L 119.088181 76.068516 
L 119.173681 101.36397 
L 119.276281 101.36397 
L 119.395981 126.659425 
L 119.430181 126.659425 
L 119.532781 76.068516 
L 119.549881 101.36397 
L 119.566981 126.659425 
L 119.652481 101.36397 
L 119.686681 101.36397 
L 119.789281 126.659425 
L 119.908981 101.36397 
L 120.011581 101.36397 
L 120.028681 126.659425 
L 120.062881 76.068516 
L 120.114181 101.36397 
L 120.268081 101.36397 
L 120.285181 76.068516 
L 120.370681 101.36397 
L 120.387781 101.36397 
L 120.404881 76.068516 
L 120.439081 126.659425 
L 120.490381 101.36397 
L 120.661381 101.36397 
L 120.729781 126.659425 
L 120.712681 76.068516 
L 120.763981 101.36397 
L 120.781081 76.068516 
L 120.798181 126.659425 
L 120.866581 101.36397 
L 120.883681 101.36397 
L 120.900781 76.068516 
L 120.969181 126.659425 
L 120.986281 101.36397 
L 121.020481 101.36397 
L 121.037581 126.659425 
L 121.071781 76.068516 
L 121.123081 101.36397 
L 121.140181 101.36397 
L 121.242781 76.068516 
L 121.259881 126.659425 
L 121.345381 101.36397 
L 121.413781 101.36397 
L 121.430881 126.659425 
L 121.516381 101.36397 
L 121.550581 50.773061 
L 121.618981 76.068516 
L 121.738681 101.36397 
L 121.824181 101.36397 
L 121.892581 76.068516 
L 121.926781 126.659425 
L 122.063581 76.068516 
L 122.114881 76.068516 
L 122.217481 126.659425 
L 122.234581 101.36397 
L 122.251681 101.36397 
L 122.268781 126.659425 
L 122.320081 76.068516 
L 122.337181 76.068516 
L 122.354281 76.068516 
L 122.439781 50.773061 
L 122.456881 76.068516 
L 122.542381 126.659425 
L 122.576581 101.36397 
L 122.644981 76.068516 
L 122.679181 101.36397 
L 122.696281 101.36397 
L 122.713381 76.068516 
L 122.798881 101.36397 
L 122.969881 101.36397 
L 123.021181 76.068516 
L 123.072481 101.36397 
L 123.106681 101.36397 
L 123.123781 126.659425 
L 123.140881 76.068516 
L 123.192181 101.36397 
L 123.243481 76.068516 
L 123.226381 126.659425 
L 123.277681 101.36397 
L 123.294781 126.659425 
L 123.380281 101.36397 
L 123.414481 101.36397 
L 123.482881 76.068516 
L 123.465781 126.659425 
L 123.517081 101.36397 
L 123.534181 101.36397 
L 123.636781 76.068516 
L 123.705181 126.659425 
L 123.739381 76.068516 
L 123.756481 76.068516 
L 123.876181 101.36397 
L 123.910381 101.36397 
L 123.944581 76.068516 
L 123.995881 101.36397 
L 124.030081 126.659425 
L 124.064281 50.773061 
L 124.098481 101.36397 
L 124.235281 101.36397 
L 124.303681 50.773061 
L 124.286581 126.659425 
L 124.354981 76.068516 
L 124.423381 126.659425 
L 124.474681 101.36397 
L 124.491781 101.36397 
L 124.611481 126.659425 
L 124.731181 101.36397 
L 124.799581 101.36397 
L 124.867981 126.659425 
L 124.902181 101.36397 
L 125.141581 101.36397 
L 125.209981 126.659425 
L 125.175781 76.068516 
L 125.227081 101.36397 
L 125.244181 76.068516 
L 125.312581 101.36397 
L 125.329681 126.659425 
L 125.415181 101.36397 
L 125.500681 76.068516 
L 125.449381 126.659425 
L 125.517781 101.36397 
L 125.534881 126.659425 
L 125.551981 76.068516 
L 125.603281 101.36397 
L 125.740081 50.773061 
L 125.825581 126.659425 
L 125.842681 50.773061 
L 125.979481 126.659425 
L 126.064981 76.068516 
L 126.082081 101.36397 
L 126.099181 101.36397 
L 126.218881 76.068516 
L 126.253081 76.068516 
L 126.321481 101.36397 
L 126.355681 76.068516 
L 126.372781 50.773061 
L 126.406981 101.36397 
L 126.441181 101.36397 
L 126.458281 101.36397 
L 126.475381 126.659425 
L 126.543781 76.068516 
L 126.577981 76.068516 
L 126.680581 126.659425 
L 126.697681 76.068516 
L 126.783181 101.36397 
L 126.851581 101.36397 
L 126.902881 76.068516 
L 126.954181 126.659425 
L 127.056781 50.773061 
L 127.125181 126.659425 
L 127.176481 101.36397 
L 127.244881 101.36397 
L 127.364581 76.068516 
L 127.432981 126.659425 
L 127.467181 101.36397 
L 127.535581 101.36397 
L 127.552681 126.659425 
L 127.638181 101.36397 
L 127.672381 101.36397 
L 127.689481 126.659425 
L 127.774981 101.36397 
L 127.809181 101.36397 
L 127.843381 126.659425 
L 127.911781 101.36397 
L 127.928881 76.068516 
L 128.014381 101.36397 
L 128.031481 101.36397 
L 128.134081 126.659425 
L 128.185381 76.068516 
L 128.253781 101.36397 
L 128.476081 101.36397 
L 128.527381 126.659425 
L 128.578681 101.36397 
L 128.818081 101.36397 
L 128.835181 126.659425 
L 128.920681 101.36397 
L 129.040381 101.36397 
L 129.057481 76.068516 
L 129.142981 101.36397 
L 129.536281 101.36397 
L 129.553381 126.659425 
L 129.638881 101.36397 
L 129.655981 101.36397 
L 129.673081 126.659425 
L 129.758581 101.36397 
L 129.775681 101.36397 
L 129.809881 126.659425 
L 129.878281 101.36397 
L 129.895381 101.36397 
L 129.929581 126.659425 
L 129.946681 76.068516 
L 129.980881 101.36397 
L 129.997981 76.068516 
L 130.083481 101.36397 
L 130.254481 101.36397 
L 130.339981 126.659425 
L 130.357081 101.36397 
L 130.391281 101.36397 
L 130.408381 126.659425 
L 130.493881 101.36397 
L 130.510981 101.36397 
L 130.579381 76.068516 
L 130.613581 101.36397 
L 130.904281 101.36397 
L 131.023981 126.659425 
L 131.075281 76.068516 
L 131.143681 101.36397 
L 131.229181 126.659425 
L 131.246281 101.36397 
L 131.314681 101.36397 
L 131.331781 126.659425 
L 131.417281 101.36397 
L 131.434381 101.36397 
L 131.519881 76.068516 
L 131.536981 101.36397 
L 131.588281 101.36397 
L 131.639581 126.659425 
L 131.656681 76.068516 
L 131.690881 101.36397 
L 131.707981 101.36397 
L 131.759281 126.659425 
L 131.793481 76.068516 
L 131.810581 101.36397 
L 131.878981 101.36397 
L 131.947381 126.659425 
L 131.981581 101.36397 
L 132.101281 101.36397 
L 132.220981 76.068516 
L 132.272281 126.659425 
L 132.340681 101.36397 
L 132.357781 101.36397 
L 132.477481 76.068516 
L 132.597181 101.36397 
L 132.614281 76.068516 
L 132.682681 101.36397 
L 132.699781 126.659425 
L 132.751081 76.068516 
L 132.785281 101.36397 
L 132.853681 101.36397 
L 132.870781 76.068516 
L 132.956281 101.36397 
L 133.041781 101.36397 
L 133.058881 76.068516 
L 133.075981 126.659425 
L 133.144381 101.36397 
L 133.212781 101.36397 
L 133.229881 126.659425 
L 133.315381 101.36397 
L 133.332481 101.36397 
L 133.435081 76.068516 
L 133.571881 126.659425 
L 133.674481 101.36397 
L 133.691581 126.659425 
L 133.777081 101.36397 
L 134.392681 101.36397 
L 134.409781 50.773061 
L 134.495281 101.36397 
L 134.700481 101.36397 
L 134.803081 126.659425 
L 134.922781 101.36397 
L 134.991181 101.36397 
L 135.008281 126.659425 
L 135.025381 76.068516 
L 135.093781 101.36397 
L 135.418681 101.36397 
L 135.538381 126.659425 
L 135.658081 101.36397 
L 135.846181 101.36397 
L 135.914581 126.659425 
L 135.948781 101.36397 
L 136.017181 101.36397 
L 136.119781 126.659425 
L 136.188181 101.36397 
L 136.222381 126.659425 
L 136.239481 126.659425 
L 136.324981 101.36397 
L 136.342081 126.659425 
L 136.376281 126.659425 
L 136.495981 101.36397 
L 136.513081 101.36397 
L 136.581481 126.659425 
L 136.598581 101.36397 
L 136.718281 76.068516 
L 136.735381 76.068516 
L 136.837981 101.36397 
L 136.940581 76.068516 
L 137.060281 101.36397 
L 137.077381 101.36397 
L 137.179981 50.773061 
L 137.197081 76.068516 
L 137.248381 101.36397 
L 137.282581 50.773061 
L 137.299681 76.068516 
L 137.333881 76.068516 
L 137.350981 50.773061 
L 137.368081 101.36397 
L 137.436481 76.068516 
L 137.453581 76.068516 
L 137.556181 126.659425 
L 137.641681 76.068516 
L 137.658781 101.36397 
L 137.710081 101.36397 
L 137.761381 76.068516 
L 137.812681 126.659425 
L 137.932381 76.068516 
L 137.966581 101.36397 
L 138.034981 76.068516 
L 138.052081 76.068516 
L 138.103381 126.659425 
L 138.154681 101.36397 
L 138.205981 126.659425 
L 138.257281 76.068516 
L 138.308581 126.659425 
L 138.376981 101.36397 
L 138.479581 50.773061 
L 138.496681 126.659425 
L 138.599281 101.36397 
L 138.650581 50.773061 
L 138.701881 76.068516 
L 138.736081 76.068516 
L 138.821581 50.773061 
L 138.804481 101.36397 
L 138.838681 76.068516 
L 138.872881 76.068516 
L 138.941281 101.36397 
L 138.975481 76.068516 
L 139.129381 76.068516 
L 139.146481 101.36397 
L 139.231981 76.068516 
L 139.249081 76.068516 
L 139.317481 101.36397 
L 139.283281 50.773061 
L 139.351681 76.068516 
L 139.420081 76.068516 
L 139.522681 101.36397 
L 139.625281 76.068516 
L 139.676581 101.36397 
L 139.727881 76.068516 
L 139.744981 76.068516 
L 139.796281 101.36397 
L 139.847581 76.068516 
L 139.898881 76.068516 
L 139.915981 50.773061 
L 139.967281 101.36397 
L 140.001481 76.068516 
L 140.035681 76.068516 
L 140.052781 50.773061 
L 140.069881 101.36397 
L 140.121181 76.068516 
L 140.240881 101.36397 
L 140.257981 101.36397 
L 140.343481 50.773061 
L 140.377681 76.068516 
L 140.394781 101.36397 
L 140.480281 76.068516 
L 140.514481 76.068516 
L 140.617081 25.477607 
L 140.736781 101.36397 
L 140.770981 50.773061 
L 140.856481 76.068516 
L 140.907781 76.068516 
L 140.941981 50.773061 
L 141.010381 101.36397 
L 141.147181 50.773061 
L 141.164281 50.773061 
L 141.283981 101.36397 
L 141.403681 76.068516 
L 141.437881 76.068516 
L 141.454981 126.659425 
L 141.540481 76.068516 
L 141.574681 76.068516 
L 141.694381 101.36397 
L 141.711481 101.36397 
L 141.848281 50.773061 
L 141.967981 101.36397 
L 142.070581 50.773061 
L 142.087681 76.068516 
L 142.121881 76.068516 
L 142.224481 101.36397 
L 142.327081 76.068516 
L 142.344181 101.36397 
L 142.429681 76.068516 
L 142.446781 76.068516 
L 142.515181 101.36397 
L 142.549381 76.068516 
L 142.566481 76.068516 
L 142.669081 50.773061 
L 142.805881 126.659425 
L 142.874281 50.773061 
L 142.908481 76.068516 
L 143.028181 101.36397 
L 143.062381 50.773061 
L 143.147881 76.068516 
L 143.182081 76.068516 
L 143.199181 101.36397 
L 143.284681 76.068516 
L 143.353081 76.068516 
L 143.370181 50.773061 
L 143.387281 101.36397 
L 143.438581 76.068516 
L 143.524081 101.36397 
L 143.541181 76.068516 
L 143.609581 76.068516 
L 143.712181 101.36397 
L 143.831881 76.068516 
L 143.848981 76.068516 
L 143.951581 126.659425 
L 144.071281 50.773061 
L 144.122581 101.36397 
L 144.190981 76.068516 
L 144.208081 50.773061 
L 144.225181 101.36397 
L 144.293581 76.068516 
L 144.413281 101.36397 
L 144.447481 101.36397 
L 144.532981 76.068516 
L 144.550081 126.659425 
L 144.669781 76.068516 
L 144.721081 76.068516 
L 144.823681 101.36397 
L 144.857881 50.773061 
L 144.943381 76.068516 
L 145.011781 101.36397 
L 145.045981 76.068516 
L 145.063081 50.773061 
L 145.131481 76.068516 
L 145.165681 101.36397 
L 145.234081 76.068516 
L 145.319581 76.068516 
L 145.405081 101.36397 
L 145.370881 50.773061 
L 145.422181 76.068516 
L 145.524781 76.068516 
L 145.576081 101.36397 
L 145.627381 76.068516 
L 145.781281 76.068516 
L 145.900981 101.36397 
L 146.037781 50.773061 
L 146.174581 101.36397 
L 146.260081 76.068516 
L 146.242981 126.659425 
L 146.277181 101.36397 
L 146.294281 101.36397 
L 146.328481 50.773061 
L 146.413981 76.068516 
L 146.533681 101.36397 
L 146.653381 76.068516 
L 146.670481 76.068516 
L 146.790181 101.36397 
L 146.892781 50.773061 
L 146.909881 76.068516 
L 146.978281 76.068516 
L 147.029581 50.773061 
L 147.097981 101.36397 
L 147.200581 76.068516 
L 147.217681 101.36397 
L 147.303181 76.068516 
L 147.354481 76.068516 
L 147.474181 101.36397 
L 147.491281 101.36397 
L 147.508381 126.659425 
L 147.525481 76.068516 
L 147.593881 101.36397 
L 147.645181 50.773061 
L 147.713581 76.068516 
L 147.799081 76.068516 
L 147.884581 101.36397 
L 147.901681 76.068516 
L 147.935881 76.068516 
L 147.952981 126.659425 
L 148.038481 76.068516 
L 148.072681 76.068516 
L 148.106881 126.659425 
L 148.192381 101.36397 
L 148.209481 101.36397 
L 148.329181 76.068516 
L 148.346281 76.068516 
L 148.397581 101.36397 
L 148.431781 76.068516 
L 148.448881 50.773061 
L 148.483081 126.659425 
L 148.534381 76.068516 
L 148.654081 126.659425 
L 148.756681 76.068516 
L 148.825081 101.36397 
L 148.859281 76.068516 
L 148.876381 76.068516 
L 148.996081 101.36397 
L 149.013181 101.36397 
L 149.132881 50.773061 
L 149.218381 101.36397 
L 149.252581 76.068516 
L 149.286781 76.068516 
L 149.406481 101.36397 
L 149.491981 76.068516 
L 149.509081 101.36397 
L 149.526181 101.36397 
L 149.543281 126.659425 
L 149.594581 76.068516 
L 149.628781 101.36397 
L 149.662981 101.36397 
L 149.714281 126.659425 
L 149.782681 76.068516 
L 149.851081 76.068516 
L 149.868181 50.773061 
L 149.885281 126.659425 
L 149.936581 76.068516 
L 149.987881 101.36397 
L 150.039181 76.068516 
L 150.056281 76.068516 
L 150.175981 101.36397 
L 150.210181 101.36397 
L 150.227281 50.773061 
L 150.312781 76.068516 
L 150.329881 101.36397 
L 150.415381 76.068516 
L 150.466681 76.068516 
L 150.586381 101.36397 
L 150.620581 101.36397 
L 150.637681 126.659425 
L 150.654781 76.068516 
L 150.723181 101.36397 
L 150.842881 76.068516 
L 150.859981 76.068516 
L 150.962581 101.36397 
L 150.996781 126.659425 
L 151.082281 76.068516 
L 151.099381 101.36397 
L 151.184881 76.068516 
L 151.236181 76.068516 
L 151.321681 101.36397 
L 151.338781 76.068516 
L 151.355881 76.068516 
L 151.475581 101.36397 
L 151.595281 76.068516 
L 151.612381 76.068516 
L 151.697881 101.36397 
L 151.646581 50.773061 
L 151.714981 76.068516 
L 151.732081 76.068516 
L 151.749181 50.773061 
L 151.834681 76.068516 
L 151.920181 50.773061 
L 151.937281 101.36397 
L 151.988581 126.659425 
L 152.039881 76.068516 
L 152.159581 101.36397 
L 152.279281 76.068516 
L 152.313481 101.36397 
L 152.381881 76.068516 
L 152.450281 76.068516 
L 152.484481 126.659425 
L 152.569981 101.36397 
L 152.655481 50.773061 
L 152.672581 126.659425 
L 152.758081 101.36397 
L 152.843581 76.068516 
L 152.809381 126.659425 
L 152.860681 101.36397 
L 152.877781 101.36397 
L 152.997481 76.068516 
L 153.014581 76.068516 
L 153.082981 50.773061 
L 153.117181 101.36397 
L 153.236881 76.068516 
L 153.339481 101.36397 
L 153.424981 76.068516 
L 153.442081 101.36397 
L 153.527581 126.659425 
L 153.647281 76.068516 
L 153.664381 76.068516 
L 153.698581 101.36397 
L 153.766981 76.068516 
L 153.818281 76.068516 
L 153.835381 50.773061 
L 153.920881 76.068516 
L 153.937981 101.36397 
L 154.023481 76.068516 
L 154.040581 76.068516 
L 154.074781 126.659425 
L 154.126081 76.068516 
L 154.143181 50.773061 
L 154.177381 101.36397 
L 154.228681 76.068516 
L 154.262881 76.068516 
L 154.382581 101.36397 
L 154.502281 76.068516 
L 154.519381 76.068516 
L 154.553581 126.659425 
L 154.639081 101.36397 
L 154.741681 76.068516 
L 154.827181 101.36397 
L 154.844281 76.068516 
L 154.861381 76.068516 
L 154.946881 101.36397 
L 154.912681 50.773061 
L 154.963981 76.068516 
L 154.981081 76.068516 
L 155.100781 101.36397 
L 155.134981 126.659425 
L 155.220481 76.068516 
L 155.305981 126.659425 
L 155.340181 101.36397 
L 155.442781 76.068516 
L 155.562481 101.36397 
L 155.682181 76.068516 
L 155.699281 76.068516 
L 155.716381 126.659425 
L 155.801881 101.36397 
L 155.836081 101.36397 
L 155.955781 76.068516 
L 156.024181 76.068516 
L 156.143881 101.36397 
L 156.263581 76.068516 
L 156.314881 76.068516 
L 156.331981 126.659425 
L 156.417481 76.068516 
L 156.434581 76.068516 
L 156.468781 50.773061 
L 156.554281 101.36397 
L 156.571381 101.36397 
L 156.639781 76.068516 
L 156.673981 101.36397 
L 156.691081 101.36397 
L 156.776581 126.659425 
L 156.793681 76.068516 
L 156.913381 101.36397 
L 157.015981 76.068516 
L 157.118581 126.659425 
L 157.169881 50.773061 
L 157.238281 76.068516 
L 157.255381 126.659425 
L 157.340881 76.068516 
L 157.426381 50.773061 
L 157.460581 101.36397 
L 157.563181 76.068516 
L 157.597381 101.36397 
L 157.665781 76.068516 
L 157.682881 76.068516 
L 157.785481 101.36397 
L 157.905181 76.068516 
L 157.922281 76.068516 
L 157.956481 101.36397 
L 158.024881 50.773061 
L 158.144581 101.36397 
L 158.178781 76.068516 
L 158.247181 101.36397 
L 158.264281 101.36397 
L 158.315581 50.773061 
L 158.366881 76.068516 
L 158.383981 101.36397 
L 158.452381 50.773061 
L 158.469481 50.773061 
L 158.572081 101.36397 
L 158.554981 25.477607 
L 158.589181 76.068516 
L 158.623381 76.068516 
L 158.640481 126.659425 
L 158.725981 76.068516 
L 158.777281 76.068516 
L 158.862781 101.36397 
L 158.879881 76.068516 
L 158.931181 76.068516 
L 158.982481 126.659425 
L 159.033781 76.068516 
L 159.085081 76.068516 
L 159.153481 101.36397 
L 159.187681 76.068516 
L 159.221881 76.068516 
L 159.307381 101.36397 
L 159.324481 76.068516 
L 159.392881 76.068516 
L 159.478381 101.36397 
L 159.495481 76.068516 
L 159.529681 76.068516 
L 159.615181 101.36397 
L 159.632281 76.068516 
L 159.649381 76.068516 
L 159.734881 50.773061 
L 159.786181 126.659425 
L 159.922981 76.068516 
L 159.957181 76.068516 
L 159.974281 101.36397 
L 160.059781 76.068516 
L 160.076881 76.068516 
L 160.179481 101.36397 
L 160.299181 76.068516 
L 160.316281 76.068516 
L 160.384681 101.36397 
L 160.401781 50.773061 
L 160.418881 76.068516 
L 160.504381 76.068516 
L 160.606981 126.659425 
L 160.555681 50.773061 
L 160.624081 101.36397 
L 160.692481 101.36397 
L 160.795081 126.659425 
L 160.914781 101.36397 
L 160.948981 101.36397 
L 161.000281 126.659425 
L 161.051581 101.36397 
L 161.085781 101.36397 
L 161.102881 126.659425 
L 161.188381 101.36397 
L 161.205481 101.36397 
L 161.308081 126.659425 
L 161.427781 101.36397 
L 161.444881 101.36397 
L 161.564581 126.659425 
L 161.581681 126.659425 
L 161.701381 101.36397 
L 161.769781 101.36397 
L 161.786881 126.659425 
L 161.872381 101.36397 
L 161.923681 101.36397 
L 162.043381 76.068516 
L 162.077581 76.068516 
L 162.145981 126.659425 
L 162.163081 50.773061 
L 162.180181 126.659425 
L 162.265681 76.068516 
L 162.299881 76.068516 
L 162.316981 101.36397 
L 162.351181 50.773061 
L 162.402481 76.068516 
L 162.419581 76.068516 
L 162.522181 101.36397 
L 162.641881 76.068516 
L 162.658981 76.068516 
L 162.761581 101.36397 
L 162.881281 50.773061 
L 163.018081 101.36397 
L 163.154881 101.36397 
L 163.206181 50.773061 
L 163.274581 76.068516 
L 163.342981 76.068516 
L 163.445581 101.36397 
L 163.565281 76.068516 
L 163.582381 101.36397 
L 163.633681 50.773061 
L 163.667881 76.068516 
L 163.684981 76.068516 
L 163.753381 101.36397 
L 163.770481 50.773061 
L 163.787581 76.068516 
L 163.804681 50.773061 
L 163.821781 101.36397 
L 163.890181 76.068516 
L 163.992781 101.36397 
L 164.112481 76.068516 
L 164.180881 50.773061 
L 164.232181 101.36397 
L 164.351881 76.068516 
L 164.386081 76.068516 
L 164.437381 50.773061 
L 164.505781 101.36397 
L 164.608381 76.068516 
L 164.693881 101.36397 
L 164.710981 50.773061 
L 164.796481 101.36397 
L 164.847781 101.36397 
L 164.950381 76.068516 
L 165.018781 126.659425 
L 165.035881 101.36397 
L 165.121381 50.773061 
L 165.138481 76.068516 
L 165.206881 101.36397 
L 165.241081 76.068516 
L 165.258181 76.068516 
L 165.326581 126.659425 
L 165.360781 76.068516 
L 165.514681 76.068516 
L 165.531781 50.773061 
L 165.548881 101.36397 
L 165.583081 76.068516 
L 165.634381 126.659425 
L 165.685681 101.36397 
L 165.702781 101.36397 
L 165.805381 76.068516 
L 165.925081 101.36397 
L 166.044781 76.068516 
L 166.113181 76.068516 
L 166.198681 101.36397 
L 166.215781 76.068516 
L 166.335481 76.068516 
L 166.369681 101.36397 
L 166.420981 76.068516 
L 166.438081 50.773061 
L 166.455181 101.36397 
L 166.506481 101.36397 
L 166.523581 101.36397 
L 166.591981 126.659425 
L 166.574881 76.068516 
L 166.626181 101.36397 
L 166.762981 50.773061 
L 166.797181 50.773061 
L 166.916881 76.068516 
L 166.933981 76.068516 
L 167.036581 101.36397 
L 167.139181 50.773061 
L 167.258881 101.36397 
L 167.378581 50.773061 
L 167.481181 101.36397 
L 167.498281 76.068516 
L 167.515381 76.068516 
L 167.635081 101.36397 
L 167.720581 101.36397 
L 167.754781 126.659425 
L 167.823181 76.068516 
L 167.857381 50.773061 
L 167.925781 101.36397 
L 168.045481 76.068516 
L 168.165181 101.36397 
L 168.182281 101.36397 
L 168.284881 76.068516 
L 168.370381 101.36397 
L 168.387481 76.068516 
L 168.438781 76.068516 
L 168.575581 126.659425 
L 168.695281 101.36397 
L 168.746581 101.36397 
L 168.797881 126.659425 
L 168.849181 76.068516 
L 168.917581 101.36397 
L 168.934681 76.068516 
L 168.951781 50.773061 
L 168.968881 101.36397 
L 169.037281 76.068516 
L 169.071481 76.068516 
L 169.105681 50.773061 
L 169.191181 101.36397 
L 169.310881 76.068516 
L 169.430581 76.068516 
L 169.481881 101.36397 
L 169.533181 76.068516 
L 169.687081 76.068516 
L 169.823881 126.659425 
L 169.960681 76.068516 
L 169.994881 76.068516 
L 170.011981 50.773061 
L 170.029081 101.36397 
L 170.080381 101.36397 
L 170.097481 101.36397 
L 170.217181 76.068516 
L 170.302681 50.773061 
L 170.336881 101.36397 
L 170.405281 50.773061 
L 170.439481 76.068516 
L 170.456581 101.36397 
L 170.524981 50.773061 
L 170.542081 76.068516 
L 170.576281 76.068516 
L 170.610481 50.773061 
L 170.661781 101.36397 
L 170.678881 76.068516 
L 170.781481 101.36397 
L 170.866981 50.773061 
L 170.901181 76.068516 
L 170.952481 76.068516 
L 170.969581 126.659425 
L 171.055081 76.068516 
L 171.123481 50.773061 
L 171.157681 101.36397 
L 171.260281 76.068516 
L 171.277381 126.659425 
L 171.328681 50.773061 
L 171.362881 101.36397 
L 171.465481 76.068516 
L 171.585181 101.36397 
L 171.619381 101.36397 
L 171.653581 50.773061 
L 171.721981 76.068516 
L 171.790381 126.659425 
L 171.824581 76.068516 
L 171.858781 76.068516 
L 171.927181 126.659425 
L 171.961381 76.068516 
L 171.978481 76.068516 
L 171.995581 101.36397 
L 172.081081 76.068516 
L 172.115281 76.068516 
L 172.132381 50.773061 
L 172.217881 76.068516 
L 172.286281 101.36397 
L 172.320481 76.068516 
L 172.371781 50.773061 
L 172.405981 101.36397 
L 172.423081 101.36397 
L 172.440181 126.659425 
L 172.491481 76.068516 
L 172.525681 101.36397 
L 172.542781 101.36397 
L 172.628281 126.659425 
L 172.662481 76.068516 
L 172.679581 76.068516 
L 172.696681 25.477607 
L 172.713781 101.36397 
L 172.782181 76.068516 
L 172.867681 50.773061 
L 172.850581 101.36397 
L 172.884781 76.068516 
L 172.918981 76.068516 
L 172.936081 50.773061 
L 172.987381 101.36397 
L 173.021581 76.068516 
L 173.055781 76.068516 
L 173.089981 50.773061 
L 173.141281 101.36397 
L 173.158381 76.068516 
L 173.192581 76.068516 
L 173.260981 101.36397 
L 173.295181 76.068516 
L 173.312281 76.068516 
L 173.346481 50.773061 
L 173.431981 101.36397 
L 173.500381 50.773061 
L 173.551681 76.068516 
L 173.568781 76.068516 
L 173.585881 101.36397 
L 173.602981 50.773061 
L 173.671381 76.068516 
L 173.705581 76.068516 
L 173.825281 101.36397 
L 173.944981 76.068516 
L 174.030481 101.36397 
L 174.047581 76.068516 
L 174.064681 76.068516 
L 174.081781 126.659425 
L 174.133081 50.773061 
L 174.167281 76.068516 
L 174.184381 76.068516 
L 174.235681 50.773061 
L 174.269881 101.36397 
L 174.286981 101.36397 
L 174.406681 76.068516 
L 174.423781 76.068516 
L 174.440881 101.36397 
L 174.526381 76.068516 
L 174.543481 76.068516 
L 174.663181 101.36397 
L 174.765781 76.068516 
L 174.868381 126.659425 
L 174.988081 50.773061 
L 175.039381 126.659425 
L 175.107781 101.36397 
L 175.159081 101.36397 
L 175.261681 126.659425 
L 175.381381 101.36397 
L 175.432681 101.36397 
L 175.483981 126.659425 
L 175.518181 76.068516 
L 175.535281 76.068516 
L 175.637881 126.659425 
L 175.654981 101.36397 
L 175.706281 101.36397 
L 175.723381 126.659425 
L 175.808881 101.36397 
L 175.928581 101.36397 
L 175.945681 76.068516 
L 175.979881 126.659425 
L 176.031181 101.36397 
L 176.116681 101.36397 
L 176.167981 126.659425 
L 176.219281 101.36397 
L 176.492881 101.36397 
L 176.527081 126.659425 
L 176.595481 101.36397 
L 176.886181 101.36397 
L 176.971681 126.659425 
L 176.988781 101.36397 
L 177.228181 101.36397 
L 177.279481 76.068516 
L 177.330781 101.36397 
L 177.347881 101.36397 
L 177.364981 76.068516 
L 177.450481 101.36397 
L 177.570181 101.36397 
L 177.689881 126.659425 
L 177.792481 101.36397 
L 177.809581 126.659425 
L 177.895081 101.36397 
L 177.946381 101.36397 
L 177.997681 76.068516 
L 177.980581 126.659425 
L 178.031881 101.36397 
L 178.066081 126.659425 
L 178.117381 76.068516 
L 178.254181 76.068516 
L 178.322581 126.659425 
L 178.373881 101.36397 
L 178.476481 101.36397 
L 178.510681 76.068516 
L 178.527781 126.659425 
L 178.579081 101.36397 
L 178.613281 101.36397 
L 178.630381 76.068516 
L 178.698781 126.659425 
L 178.715881 101.36397 
L 178.750081 101.36397 
L 178.852681 126.659425 
L 178.938181 101.36397 
L 178.955281 126.659425 
L 178.972381 126.659425 
L 179.092081 101.36397 
L 179.109181 101.36397 
L 179.126281 76.068516 
L 179.160481 126.659425 
L 179.211781 101.36397 
L 179.228881 101.36397 
L 179.245981 126.659425 
L 179.331481 101.36397 
L 179.382781 101.36397 
L 179.434081 126.659425 
L 179.485381 101.36397 
L 179.570881 76.068516 
L 179.673481 126.659425 
L 179.810281 76.068516 
L 179.912881 101.36397 
L 179.929981 76.068516 
L 180.015481 101.36397 
L 180.049681 101.36397 
L 180.066781 126.659425 
L 180.118081 76.068516 
L 180.152281 101.36397 
L 180.237781 101.36397 
L 180.254881 76.068516 
L 180.340381 101.36397 
L 180.374581 126.659425 
L 180.442981 101.36397 
L 180.511381 101.36397 
L 180.528481 126.659425 
L 180.613981 101.36397 
L 180.648181 101.36397 
L 180.767881 126.659425 
L 180.870481 101.36397 
L 180.973081 126.659425 
L 181.092781 101.36397 
L 181.280881 101.36397 
L 181.383481 126.659425 
L 181.503181 101.36397 
L 181.520281 101.36397 
L 181.639981 126.659425 
L 181.759681 101.36397 
L 181.828081 101.36397 
L 181.845181 126.659425 
L 181.930681 101.36397 
L 182.187181 101.36397 
L 182.289781 126.659425 
L 182.409481 101.36397 
L 182.443681 101.36397 
L 182.460781 126.659425 
L 182.546281 101.36397 
L 182.597581 101.36397 
L 182.614681 126.659425 
L 182.631781 76.068516 
L 182.700181 101.36397 
L 183.076381 101.36397 
L 183.093481 126.659425 
L 183.178981 101.36397 
L 183.367081 101.36397 
L 183.384181 126.659425 
L 183.469681 101.36397 
L 183.623581 101.36397 
L 183.640681 50.773061 
L 183.726181 101.36397 
L 183.760381 101.36397 
L 183.880081 126.659425 
L 183.914281 126.659425 
L 184.033981 101.36397 
L 184.204981 101.36397 
L 184.222081 126.659425 
L 184.307581 101.36397 
L 184.375981 101.36397 
L 184.410181 126.659425 
L 184.427281 76.068516 
L 184.478581 101.36397 
L 184.529881 101.36397 
L 184.564081 126.659425 
L 184.632481 101.36397 
L 184.700881 101.36397 
L 184.752181 126.659425 
L 184.803481 101.36397 
L 184.974481 101.36397 
L 185.042881 126.659425 
L 185.077081 101.36397 
L 185.094181 101.36397 
L 185.179681 126.659425 
L 185.196781 101.36397 
L 185.265181 101.36397 
L 185.282281 126.659425 
L 185.367781 101.36397 
L 185.419081 101.36397 
L 185.504581 126.659425 
L 185.487481 76.068516 
L 185.521681 101.36397 
L 185.590081 101.36397 
L 185.641381 76.068516 
L 185.709781 126.659425 
L 185.726881 126.659425 
L 185.846581 101.36397 
L 186.308281 101.36397 
L 186.325381 126.659425 
L 186.410881 101.36397 
L 186.496381 101.36397 
L 186.530581 126.659425 
L 186.598981 101.36397 
L 186.633181 101.36397 
L 186.650281 126.659425 
L 186.735781 101.36397 
L 187.009381 101.36397 
L 187.026481 126.659425 
L 187.111981 101.36397 
L 187.282981 101.36397 
L 187.402681 126.659425 
L 187.522381 101.36397 
L 187.642081 101.36397 
L 187.744681 126.659425 
L 187.864381 101.36397 
L 187.881481 101.36397 
L 187.966981 126.659425 
L 187.984081 101.36397 
L 188.001181 76.068516 
L 188.035381 126.659425 
L 188.086681 101.36397 
L 188.497081 101.36397 
L 188.565481 126.659425 
L 188.531281 76.068516 
L 188.599681 101.36397 
L 188.633881 101.36397 
L 188.650981 126.659425 
L 188.736481 101.36397 
L 188.787781 101.36397 
L 188.804881 126.659425 
L 188.890381 101.36397 
L 188.907481 101.36397 
L 188.924581 126.659425 
L 189.010081 101.36397 
L 189.112681 101.36397 
L 189.129781 126.659425 
L 189.215281 101.36397 
L 189.420481 101.36397 
L 189.437581 76.068516 
L 189.454681 126.659425 
L 189.523081 101.36397 
L 189.642781 126.659425 
L 189.745381 101.36397 
L 189.813781 126.659425 
L 189.847981 101.36397 
L 189.865081 101.36397 
L 189.984781 126.659425 
L 190.053181 101.36397 
L 190.087381 126.659425 
L 190.104481 126.659425 
L 190.224181 101.36397 
L 190.292581 101.36397 
L 190.309681 126.659425 
L 190.395181 101.36397 
L 190.463581 101.36397 
L 190.480681 126.659425 
L 190.497781 76.068516 
L 190.566181 101.36397 
L 190.908181 101.36397 
L 191.027881 126.659425 
L 191.147581 101.36397 
L 191.164681 101.36397 
L 191.181781 126.659425 
L 191.250181 76.068516 
L 191.267281 101.36397 
L 191.421181 101.36397 
L 191.438281 76.068516 
L 191.489581 126.659425 
L 191.523781 101.36397 
L 191.677681 101.36397 
L 191.746081 126.659425 
L 191.763181 101.36397 
L 191.814481 126.659425 
L 191.882881 76.068516 
L 191.934181 126.659425 
L 191.985481 101.36397 
L 192.156481 101.36397 
L 192.276181 126.659425 
L 192.395881 101.36397 
L 192.925981 101.36397 
L 192.960181 126.659425 
L 193.028581 101.36397 
L 193.045681 76.068516 
L 193.062781 126.659425 
L 193.131181 101.36397 
L 193.250881 101.36397 
L 193.336381 126.659425 
L 193.353481 101.36397 
L 193.370581 101.36397 
L 193.473181 126.659425 
L 193.575781 101.36397 
L 193.695481 126.659425 
L 193.866481 126.659425 
L 193.883581 101.36397 
L 193.969081 126.659425 
L 194.088781 126.659425 
L 194.208481 101.36397 
L 194.276881 126.659425 
L 194.311081 101.36397 
L 194.362381 101.36397 
L 194.447881 126.659425 
L 194.464981 101.36397 
L 194.499181 101.36397 
L 194.601781 126.659425 
L 194.721481 101.36397 
L 194.824081 126.659425 
L 194.943781 101.36397 
L 194.960881 101.36397 
L 195.063481 126.659425 
L 195.183181 101.36397 
L 195.200281 101.36397 
L 195.217381 126.659425 
L 195.251581 76.068516 
L 195.302881 101.36397 
L 195.439681 101.36397 
L 195.525181 126.659425 
L 195.542281 101.36397 
L 195.576481 101.36397 
L 195.696181 126.659425 
L 195.815881 101.36397 
L 195.850081 101.36397 
L 195.969781 126.659425 
L 196.055281 101.36397 
L 196.072381 126.659425 
L 196.089481 126.659425 
L 196.209181 101.36397 
L 196.260481 101.36397 
L 196.328881 126.659425 
L 196.363081 101.36397 
L 196.380181 76.068516 
L 196.431481 126.659425 
L 196.465681 101.36397 
L 196.722181 101.36397 
L 196.739281 126.659425 
L 196.807681 101.36397 
L 196.824781 76.068516 
L 196.910281 101.36397 
L 196.995781 126.659425 
L 197.012881 101.36397 
L 197.047081 101.36397 
L 197.064181 126.659425 
L 197.132581 101.36397 
L 197.149681 76.068516 
L 197.235181 101.36397 
L 197.303581 101.36397 
L 197.371981 76.068516 
L 197.406181 101.36397 
L 197.594281 101.36397 
L 197.713981 126.659425 
L 197.765281 126.659425 
L 197.867881 101.36397 
L 197.936281 126.659425 
L 197.970481 101.36397 
L 197.987581 101.36397 
L 198.090181 126.659425 
L 198.226981 76.068516 
L 198.346681 126.659425 
L 198.466381 101.36397 
L 198.500581 101.36397 
L 198.517681 126.659425 
L 198.586081 101.36397 
L 198.603181 76.068516 
L 198.688681 101.36397 
L 198.705781 101.36397 
L 198.808381 126.659425 
L 198.928081 101.36397 
L 198.996481 101.36397 
L 199.099081 126.659425 
L 199.218781 101.36397 
L 199.321381 126.659425 
L 199.441081 101.36397 
L 199.646281 101.36397 
L 199.697581 126.659425 
L 199.748881 101.36397 
L 200.107981 101.36397 
L 200.125081 126.659425 
L 200.210581 101.36397 
L 200.364481 101.36397 
L 200.381581 126.659425 
L 200.467081 101.36397 
L 200.484181 101.36397 
L 200.501281 126.659425 
L 200.586781 101.36397 
L 200.757781 101.36397 
L 200.877481 126.659425 
L 200.997181 101.36397 
L 201.014281 101.36397 
L 201.031381 126.659425 
L 201.116881 101.36397 
L 201.133981 101.36397 
L 201.185281 126.659425 
L 201.236581 101.36397 
L 201.595681 101.36397 
L 201.612781 76.068516 
L 201.698281 101.36397 
L 201.732481 101.36397 
L 201.852181 126.659425 
L 201.971881 101.36397 
L 202.194181 101.36397 
L 202.211281 76.068516 
L 202.296781 101.36397 
L 202.467781 101.36397 
L 202.553281 76.068516 
L 202.587481 126.659425 
L 202.707181 101.36397 
L 202.878181 101.36397 
L 202.895281 76.068516 
L 202.946581 126.659425 
L 202.980781 101.36397 
L 203.049181 101.36397 
L 203.151781 126.659425 
L 203.271481 101.36397 
L 203.322781 76.068516 
L 203.391181 126.659425 
L 203.510881 101.36397 
L 203.527981 101.36397 
L 203.647681 126.659425 
L 203.767381 101.36397 
L 203.784481 101.36397 
L 203.801581 126.659425 
L 203.887081 101.36397 
L 203.972581 101.36397 
L 203.989681 126.659425 
L 204.075181 101.36397 
L 204.126481 101.36397 
L 204.143581 126.659425 
L 204.229081 101.36397 
L 204.536881 101.36397 
L 204.553981 126.659425 
L 204.605281 76.068516 
L 204.639481 101.36397 
L 204.707881 101.36397 
L 204.724981 126.659425 
L 204.810481 101.36397 
L 204.913081 101.36397 
L 204.930181 76.068516 
L 205.015681 101.36397 
L 205.152481 101.36397 
L 205.237981 126.659425 
L 205.255081 76.068516 
L 205.374781 101.36397 
L 205.391881 101.36397 
L 205.408981 126.659425 
L 205.460281 76.068516 
L 205.494481 101.36397 
L 205.545781 101.36397 
L 205.562881 126.659425 
L 205.648381 101.36397 
L 205.750981 101.36397 
L 205.819381 126.659425 
L 205.853581 101.36397 
L 205.939081 101.36397 
L 205.956181 126.659425 
L 206.041681 101.36397 
L 206.263981 101.36397 
L 206.281081 126.659425 
L 206.366581 101.36397 
L 206.554681 101.36397 
L 206.571781 126.659425 
L 206.657281 101.36397 
L 206.845381 101.36397 
L 206.862481 76.068516 
L 206.879581 126.659425 
L 206.947981 101.36397 
L 207.187381 101.36397 
L 207.238681 126.659425 
L 207.289981 101.36397 
L 207.546481 101.36397 
L 207.597781 126.659425 
L 207.649081 101.36397 
L 207.751681 101.36397 
L 207.785881 126.659425 
L 207.854281 101.36397 
L 207.871381 101.36397 
L 207.939781 126.659425 
L 207.973981 101.36397 
L 208.059481 101.36397 
L 208.144981 126.659425 
L 208.162081 101.36397 
L 208.196281 101.36397 
L 208.315981 126.659425 
L 208.333081 126.659425 
L 208.452781 101.36397 
L 208.538281 101.36397 
L 208.623781 126.659425 
L 208.640881 101.36397 
L 208.709281 101.36397 
L 208.760581 126.659425 
L 208.794781 76.068516 
L 208.811881 101.36397 
L 208.828981 101.36397 
L 208.863181 76.068516 
L 208.931581 126.659425 
L 208.999981 76.068516 
L 209.034181 101.36397 
L 209.068381 76.068516 
L 209.153881 126.659425 
L 209.205181 76.068516 
L 209.273581 101.36397 
L 209.290681 126.659425 
L 209.324881 76.068516 
L 209.376181 101.36397 
L 209.410381 101.36397 
L 209.444581 76.068516 
L 209.495881 126.659425 
L 209.512981 101.36397 
L 209.649781 101.36397 
L 209.666881 126.659425 
L 209.752381 101.36397 
L 209.769481 101.36397 
L 209.786581 126.659425 
L 209.872081 101.36397 
L 209.940481 101.36397 
L 209.957581 126.659425 
L 210.043081 101.36397 
L 210.077281 101.36397 
L 210.128581 76.068516 
L 210.111481 126.659425 
L 210.179881 101.36397 
L 210.231181 101.36397 
L 210.248281 126.659425 
L 210.248281 126.659425 
" clip-path="url(#p55c59a321d)" style="fill: none; stroke: #d55e00; stroke-width: 1.25; stroke-linecap: square"/>
   </g>
   <g id="patch_4">
    <path d="M 30.698281 131.718516 
L 30.698281 20.418516 
" style="fill: none; stroke: #000000; stroke-width: 0.8; stroke-linejoin: miter; stroke-linecap: square"/>
   </g>
   <g id="patch_5">
    <path d="M 30.698281 131.718516 
L 218.798281 131.718516 
" style="fill: none; stroke: #000000; stroke-width: 0.8; stroke-linejoin: miter; stroke-linecap: square"/>
   </g>
   <g id="text_14">
    <!-- drugs3003 rep1 -->
    <g transform="translate(86.875195 14.418516) scale(0.095 -0.095)">
     <defs>
      <path id="DejaVuSans-67" d="M 2906 1791 
Q 2906 2416 2648 2759 
Q 2391 3103 1925 3103 
Q 1463 3103 1205 2759 
Q 947 2416 947 1791 
Q 947 1169 1205 825 
Q 1463 481 1925 481 
Q 2391 481 2648 825 
Q 2906 1169 2906 1791 
z
M 3481 434 
Q 3481 -459 3084 -895 
Q 2688 -1331 1869 -1331 
Q 1566 -1331 1297 -1286 
Q 1028 -1241 775 -1147 
L 775 -588 
Q 1028 -725 1275 -790 
Q 1522 -856 1778 -856 
Q 2344 -856 2625 -561 
Q 2906 -266 2906 331 
L 2906 616 
Q 2728 306 2450 153 
Q 2172 0 1784 0 
Q 1141 0 747 490 
Q 353 981 353 1791 
Q 353 2603 747 3093 
Q 1141 3584 1784 3584 
Q 2172 3584 2450 3431 
Q 2728 3278 2906 2969 
L 2906 3500 
L 3481 3500 
L 3481 434 
z
" transform="scale(0.015625)"/>
      <path id="DejaVuSans-70" d="M 1159 525 
L 1159 -1331 
L 581 -1331 
L 581 3500 
L 1159 3500 
L 1159 2969 
Q 1341 3281 1617 3432 
Q 1894 3584 2278 3584 
Q 2916 3584 3314 3078 
Q 3713 2572 3713 1747 
Q 3713 922 3314 415 
Q 2916 -91 2278 -91 
Q 1894 -91 1617 61 
Q 1341 213 1159 525 
z
M 3116 1747 
Q 3116 2381 2855 2742 
Q 2594 3103 2138 3103 
Q 1681 3103 1420 2742 
Q 1159 2381 1159 1747 
Q 1159 1113 1420 752 
Q 1681 391 2138 391 
Q 2594 391 2855 752 
Q 3116 1113 3116 1747 
z
" transform="scale(0.015625)"/>
     </defs>
     <use xlink:href="#DejaVuSans-64"/>
     <use xlink:href="#DejaVuSans-72" transform="translate(63.476562 0)"/>
     <use xlink:href="#DejaVuSans-75" transform="translate(104.589844 0)"/>
     <use xlink:href="#DejaVuSans-67" transform="translate(167.96875 0)"/>
     <use xlink:href="#DejaVuSans-73" transform="translate(231.445312 0)"/>
     <use xlink:href="#DejaVuSans-33" transform="translate(283.544922 0)"/>
     <use xlink:href="#DejaVuSans-30" transform="translate(347.167969 0)"/>
     <use xlink:href="#DejaVuSans-30" transform="translate(410.791016 0)"/>
     <use xlink:href="#DejaVuSans-33" transform="translate(474.414062 0)"/>
     <use xlink:href="#DejaVuSans-20" transform="translate(538.037109 0)"/>
     <use xlink:href="#DejaVuSans-72" transform="translate(569.824219 0)"/>
     <use xlink:href="#DejaVuSans-65" transform="translate(608.6875 0)"/>
     <use xlink:href="#DejaVuSans-70" transform="translate(670.210938 0)"/>
     <use xlink:href="#DejaVuSans-31" transform="translate(733.6875 0)"/>
    </g>
   </g>
  </g>
 </g>
 <defs>
  <clipPath id="p55c59a321d">
   <rect x="30.698281" y="20.418516" width="188.1" height="111.3"/>
  </clipPath>
 </defs>
</svg>
