<?xml version="1.0" encoding="utf-8" standalone="no"?>
<!DOCTYPE svg PUBLIC "-//W3C//DTD SVG 1.1//EN"
  "http://www.w3.org/Graphics/SVG/1.1/DTD/svg11.dtd">
<svg xmlns:xlink="http://www.w3.org/1999/xlink" width="226.01375pt" height="164.903516pt" viewBox="0 0 226.01375 164.903516" xmlns="http://www.w3.org/2000/svg" version="1.1">
 <metadata>
  <rdf:RDF xmlns:dc="http://purl.org/dc/elements/1.1/" xmlns:cc="http://creativecommons.org/ns#" xmlns:rdf="http://www.w3.org/1999/02/22-rdf-syntax-ns#">
   <cc:Work>
    <dc:type rdf:resource="http://purl.org/dc/dcmitype/StillImage"/>
    <dc:date>2026-05-24T13:53:56.638644</dc:date>
    <dc:format>image/svg+xml</dc:format>
    <dc:creator>
     <cc:Agent>
      <dc:title>Matplotlib v3.10.9, https://matplotlib.org/</dc:title>
     </cc:Agent>
    </dc:creator>
   </cc:Work>
  </rdf:RDF>
 </metadata>
 <defs>
  <style type="text/css">*{stroke-linejoin: round; stroke-linecap: butt}</style>
 </defs>
 <g id="figure_1">
  <g id="patch_1">
   <path d="M 0 164.903516 
L 226.01375 164.903516 
L 226.01375 0 
L 0 0 
z
" style="fill: #ffffff"/>
  </g>
  <g id="axes_1">
   <g id="patch_2">
    <path d="M 37.85375 131.718516 
L 218.81375 131.718516 
L 218.81375 20.418516 
L 37.85375 20.418516 
z
" style="fill: #ffffff"/>
   </g>
   <g id="patch_3">
    <path d="M 128.333744 131.718516 
L 210.588283 131.718516 
L 210.588283 20.418516 
L 128.333744 20.418516 
z
" clip-path="url(#p81279b229b)" style="fill: #bdbdbd; opacity: 0.18"/>
   </g>
   <g id="matplotlib.axis_1">
    <g id="xtick_1">
     <g id="line2d_1">
      <defs>
       <path id="m70e4701d44" d="M 0 0 
L 0 3 
" style="stroke: #000000; stroke-width: 0.7"/>
      </defs>
      <g>
       <use xlink:href="#m70e4701d44" x="46.079205" y="131.718516" style="stroke: #000000; stroke-width: 0.7"/>
      </g>
     </g>
     <g id="text_1">
      <!-- 0 -->
      <g transform="translate(43.693267 143.917344) scale(0.075 -0.075)">
       <defs>
        <path id="DejaVuSans-30" d="M 2034 4250 
Q 1547 4250 1301 3770 
Q 1056 3291 1056 2328 
Q 1056 1369 1301 889 
Q 1547 409 2034 409 
Q 2525 409 2770 889 
Q 3016 1369 3016 2328 
Q 3016 3291 2770 3770 
Q 2525 4250 2034 4250 
z
M 2034 4750 
Q 2819 4750 3233 4129 
Q 3647 3509 3647 2328 
Q 3647 1150 3233 529 
Q 2819 -91 2034 -91 
Q 1250 -91 836 529 
Q 422 1150 422 2328 
Q 422 3509 836 4129 
Q 1250 4750 2034 4750 
z
" transform="scale(0.015625)"/>
       </defs>
       <use xlink:href="#DejaVuSans-30"/>
      </g>
     </g>
    </g>
    <g id="xtick_2">
     <g id="line2d_2">
      <g>
       <use xlink:href="#m70e4701d44" x="78.98102" y="131.718516" style="stroke: #000000; stroke-width: 0.7"/>
      </g>
     </g>
     <g id="text_2">
      <!-- 20 -->
      <g transform="translate(74.209145 143.917344) scale(0.075 -0.075)">
       <defs>
        <path id="DejaVuSans-32" d="M 1228 531 
L 3431 531 
L 3431 0 
L 469 0 
L 469 531 
Q 828 903 1448 1529 
Q 2069 2156 2228 2338 
Q 2531 2678 2651 2914 
Q 2772 3150 2772 3378 
Q 2772 3750 2511 3984 
Q 2250 4219 1831 4219 
Q 1534 4219 1204 4116 
Q 875 4013 500 3803 
L 500 4441 
Q 881 4594 1212 4672 
Q 1544 4750 1819 4750 
Q 2544 4750 2975 4387 
Q 3406 4025 3406 3419 
Q 3406 3131 3298 2873 
Q 3191 2616 2906 2266 
Q 2828 2175 2409 1742 
Q 1991 1309 1228 531 
z
" transform="scale(0.015625)"/>
       </defs>
       <use xlink:href="#DejaVuSans-32"/>
       <use xlink:href="#DejaVuSans-30" transform="translate(63.623047 0)"/>
      </g>
     </g>
    </g>
    <g id="xtick_3">
     <g id="line2d_3">
      <g>
       <use xlink:href="#m70e4701d44" x="111.882836" y="131.718516" style="stroke: #000000; stroke-width: 0.7"/>
      </g>
     </g>
     <g id="text_3">
      <!-- 40 -->
      <g transform="translate(107.110961 143.917344) scale(0.075 -0.075)">
       <defs>
        <path id="DejaVuSans-34" d="M 2419 4116 
L 825 1625 
L 2419 1625 
L 2419 4116 
z
M 2253 4666 
L 3047 4666 
L 3047 1625 
L 3713 1625 
L 3713 1100 
L 3047 1100 
L 3047 0 
L 2419 0 
L 2419 1100 
L 313 1100 
L 313 1709 
L 2253 4666 
z
" transform="scale(0.015625)"/>
       </defs>
       <use xlink:href="#DejaVuSans-34"/>
       <use xlink:href="#DejaVuSans-30" transform="translate(63.623047 0)"/>
      </g>
     </g>
    </g>
    <g id="xtick_4">
     <g id="line2d_4">
      <g>
       <use xlink:href="#m70e4701d44" x="144.784652" y="131.718516" style="stroke: #000000; stroke-width: 0.7"/>
      </g>
     </g>
     <g id="text_4">
      <!-- 60 -->
      <g transform="translate(140.012777 143.917344) scale(0.075 -0.075)">
       <defs>
        <path id="DejaVuSans-36" d="M 2113 2584 
Q 1688 2584 1439 2293 
Q 1191 2003 1191 1497 
Q 1191 994 1439 701 
Q 1688 409 2113 409 
Q 2538 409 2786 701 
Q 3034 994 3034 1497 
Q 3034 2003 2786 2293 
Q 2538 2584 2113 2584 
z
M 3366 4563 
L 3366 3988 
Q 3128 4100 2886 4159 
Q 2644 4219 2406 4219 
Q 1781 4219 1451 3797 
Q 1122 3375 1075 2522 
Q 1259 2794 1537 2939 
Q 1816 3084 2150 3084 
Q 2853 3084 3261 2657 
Q 3669 2231 3669 1497 
Q 3669 778 3244 343 
Q 2819 -91 2113 -91 
Q 1303 -91 875 529 
Q 447 1150 447 2328 
Q 447 3434 972 4092 
Q 1497 4750 2381 4750 
Q 2619 4750 2861 4703 
Q 3103 4656 3366 4563 
z
" transform="scale(0.015625)"/>
       </defs>
       <use xlink:href="#DejaVuSans-36"/>
       <use xlink:href="#DejaVuSans-30" transform="translate(63.623047 0)"/>
      </g>
     </g>
    </g>
    <g id="xtick_5">
     <g id="line2d_5">
      <g>
       <use xlink:href="#m70e4701d44" x="177.686467" y="131.718516" style="stroke: #000000; stroke-width: 0.7"/>
      </g>
     </g>
     <g id="text_5">
      <!-- 80 -->
      <g transform="translate(172.914592 143.917344) scale(0.075 -0.075)">
       <defs>
        <path id="DejaVuSans-38" d="M 2034 2216 
Q 1584 2216 1326 1975 
Q 1069 1734 1069 1313 
Q 1069 891 1326 650 
Q 1584 409 2034 409 
Q 2484 409 2743 651 
Q 3003 894 3003 1313 
Q 3003 1734 2745 1975 
Q 2488 2216 2034 2216 
z
M 1403 2484 
Q 997 2584 770 2862 
Q 544 3141 544 3541 
Q 544 4100 942 4425 
Q 1341 4750 2034 4750 
Q 2731 4750 3128 4425 
Q 3525 4100 3525 3541 
Q 3525 3141 3298 2862 
Q 3072 2584 2669 2484 
Q 3125 2378 3379 2068 
Q 3634 1759 3634 1313 
Q 3634 634 3220 271 
Q 2806 -91 2034 -91 
Q 1263 -91 848 271 
Q 434 634 434 1313 
Q 434 1759 690 2068 
Q 947 2378 1403 2484 
z
M 1172 3481 
Q 1172 3119 1398 2916 
Q 1625 2713 2034 2713 
Q 2441 2713 2670 2916 
Q 2900 3119 2900 3481 
Q 2900 3844 2670 4047 
Q 2441 4250 2034 4250 
Q 1625 4250 1398 4047 
Q 1172 3844 1172 3481 
z
" transform="scale(0.015625)"/>
       </defs>
       <use xlink:href="#DejaVuSans-38"/>
       <use xlink:href="#DejaVuSans-30" transform="translate(63.623047 0)"/>
      </g>
     </g>
    </g>
    <g id="xtick_6">
     <g id="line2d_6">
      <g>
       <use xlink:href="#m70e4701d44" x="210.588283" y="131.718516" style="stroke: #000000; stroke-width: 0.7"/>
      </g>
     </g>
     <g id="text_6">
      <!-- 100 -->
      <g transform="translate(203.43047 143.917344) scale(0.075 -0.075)">
       <defs>
        <path id="DejaVuSans-31" d="M 794 531 
L 1825 531 
L 1825 4091 
L 703 3866 
L 703 4441 
L 1819 4666 
L 2450 4666 
L 2450 531 
L 3481 531 
L 3481 0 
L 794 0 
L 794 531 
z
" transform="scale(0.015625)"/>
       </defs>
       <use xlink:href="#DejaVuSans-31"/>
       <use xlink:href="#DejaVuSans-30" transform="translate(63.623047 0)"/>
       <use xlink:href="#DejaVuSans-30" transform="translate(127.246094 0)"/>
      </g>
     </g>
    </g>
    <g id="text_7">
     <!-- Time (ns) -->
     <g transform="translate(108.360742 155.935781) scale(0.085 -0.085)">
      <defs>
       <path id="DejaVuSans-54" d="M -19 4666 
L 3928 4666 
L 3928 4134 
L 2272 4134 
L 2272 0 
L 1638 0 
L 1638 4134 
L -19 4134 
L -19 4666 
z
" transform="scale(0.015625)"/>
       <path id="DejaVuSans-69" d="M 603 3500 
L 1178 3500 
L 1178 0 
L 603 0 
L 603 3500 
z
M 603 4863 
L 1178 4863 
L 1178 4134 
L 603 4134 
L 603 4863 
z
" transform="scale(0.015625)"/>
       <path id="DejaVuSans-6d" d="M 3328 2828 
Q 3544 3216 3844 3400 
Q 4144 3584 4550 3584 
Q 5097 3584 5394 3201 
Q 5691 2819 5691 2113 
L 5691 0 
L 5113 0 
L 5113 2094 
Q 5113 2597 4934 2840 
Q 4756 3084 4391 3084 
Q 3944 3084 3684 2787 
Q 3425 2491 3425 1978 
L 3425 0 
L 2847 0 
L 2847 2094 
Q 2847 2600 2669 2842 
Q 2491 3084 2119 3084 
Q 1678 3084 1418 2786 
Q 1159 2488 1159 1978 
L 1159 0 
L 581 0 
L 581 3500 
L 1159 3500 
L 1159 2956 
Q 1356 3278 1631 3431 
Q 1906 3584 2284 3584 
Q 2666 3584 2933 3390 
Q 3200 3197 3328 2828 
z
" transform="scale(0.015625)"/>
       <path id="DejaVuSans-65" d="M 3597 1894 
L 3597 1613 
L 953 1613 
Q 991 1019 1311 708 
Q 1631 397 2203 397 
Q 2534 397 2845 478 
Q 3156 559 3463 722 
L 3463 178 
Q 3153 47 2828 -22 
Q 2503 -91 2169 -91 
Q 1331 -91 842 396 
Q 353 884 353 1716 
Q 353 2575 817 3079 
Q 1281 3584 2069 3584 
Q 2775 3584 3186 3129 
Q 3597 2675 3597 1894 
z
M 3022 2063 
Q 3016 2534 2758 2815 
Q 2500 3097 2075 3097 
Q 1594 3097 1305 2825 
Q 1016 2553 972 2059 
L 3022 2063 
z
" transform="scale(0.015625)"/>
       <path id="DejaVuSans-20" transform="scale(0.015625)"/>
       <path id="DejaVuSans-28" d="M 1984 4856 
Q 1566 4138 1362 3434 
Q 1159 2731 1159 2009 
Q 1159 1288 1364 580 
Q 1569 -128 1984 -844 
L 1484 -844 
Q 1016 -109 783 600 
Q 550 1309 550 2009 
Q 550 2706 781 3412 
Q 1013 4119 1484 4856 
L 1984 4856 
z
" transform="scale(0.015625)"/>
       <path id="DejaVuSans-6e" d="M 3513 2113 
L 3513 0 
L 2938 0 
L 2938 2094 
Q 2938 2591 2744 2837 
Q 2550 3084 2163 3084 
Q 1697 3084 1428 2787 
Q 1159 2491 1159 1978 
L 1159 0 
L 581 0 
L 581 3500 
L 1159 3500 
L 1159 2956 
Q 1366 3272 1645 3428 
Q 1925 3584 2291 3584 
Q 2894 3584 3203 3211 
Q 3513 2838 3513 2113 
z
" transform="scale(0.015625)"/>
       <path id="DejaVuSans-73" d="M 2834 3397 
L 2834 2853 
Q 2591 2978 2328 3040 
Q 2066 3103 1784 3103 
Q 1356 3103 1142 2972 
Q 928 2841 928 2578 
Q 928 2378 1081 2264 
Q 1234 2150 1697 2047 
L 1894 2003 
Q 2506 1872 2764 1633 
Q 3022 1394 3022 966 
Q 3022 478 2636 193 
Q 2250 -91 1575 -91 
Q 1294 -91 989 -36 
Q 684 19 347 128 
L 347 722 
Q 666 556 975 473 
Q 1284 391 1588 391 
Q 1994 391 2212 530 
Q 2431 669 2431 922 
Q 2431 1156 2273 1281 
Q 2116 1406 1581 1522 
L 1381 1569 
Q 847 1681 609 1914 
Q 372 2147 372 2553 
Q 372 3047 722 3315 
Q 1072 3584 1716 3584 
Q 2034 3584 2315 3537 
Q 2597 3491 2834 3397 
z
" transform="scale(0.015625)"/>
       <path id="DejaVuSans-29" d="M 513 4856 
L 1013 4856 
Q 1481 4119 1714 3412 
Q 1947 2706 1947 2009 
Q 1947 1309 1714 600 
Q 1481 -109 1013 -844 
L 513 -844 
Q 928 -128 1133 580 
Q 1338 1288 1338 2009 
Q 1338 2731 1133 3434 
Q 928 4138 513 4856 
z
" transform="scale(0.015625)"/>
      </defs>
      <use xlink:href="#DejaVuSans-54"/>
      <use xlink:href="#DejaVuSans-69" transform="translate(57.958984 0)"/>
      <use xlink:href="#DejaVuSans-6d" transform="translate(85.742188 0)"/>
      <use xlink:href="#DejaVuSans-65" transform="translate(183.154297 0)"/>
      <use xlink:href="#DejaVuSans-20" transform="translate(244.677734 0)"/>
      <use xlink:href="#DejaVuSans-28" transform="translate(276.464844 0)"/>
      <use xlink:href="#DejaVuSans-6e" transform="translate(315.478516 0)"/>
      <use xlink:href="#DejaVuSans-73" transform="translate(378.857422 0)"/>
      <use xlink:href="#DejaVuSans-29" transform="translate(430.957031 0)"/>
     </g>
    </g>
   </g>
   <g id="matplotlib.axis_2">
    <g id="ytick_1">
     <g id="line2d_7">
      <defs>
       <path id="m6dd0a01ba8" d="M 0 0 
L -3 0 
" style="stroke: #000000; stroke-width: 0.7"/>
      </defs>
      <g>
       <use xlink:href="#m6dd0a01ba8" x="37.85375" y="126.680936" style="stroke: #000000; stroke-width: 0.7"/>
      </g>
     </g>
     <g id="text_8">
      <!-- 0.0 -->
      <g transform="translate(19.426406 129.53035) scale(0.075 -0.075)">
       <defs>
        <path id="DejaVuSans-2e" d="M 684 794 
L 1344 794 
L 1344 0 
L 684 0 
L 684 794 
z
" transform="scale(0.015625)"/>
       </defs>
       <use xlink:href="#DejaVuSans-30"/>
       <use xlink:href="#DejaVuSans-2e" transform="translate(63.623047 0)"/>
       <use xlink:href="#DejaVuSans-30" transform="translate(95.410156 0)"/>
      </g>
     </g>
    </g>
    <g id="ytick_2">
     <g id="line2d_8">
      <g>
       <use xlink:href="#m6dd0a01ba8" x="37.85375" y="105.242848" style="stroke: #000000; stroke-width: 0.7"/>
      </g>
     </g>
     <g id="text_9">
      <!-- 0.5 -->
      <g transform="translate(19.426406 108.092262) scale(0.075 -0.075)">
       <defs>
        <path id="DejaVuSans-35" d="M 691 4666 
L 3169 4666 
L 3169 4134 
L 1269 4134 
L 1269 2991 
Q 1406 3038 1543 3061 
Q 1681 3084 1819 3084 
Q 2600 3084 3056 2656 
Q 3513 2228 3513 1497 
Q 3513 744 3044 326 
Q 2575 -91 1722 -91 
Q 1428 -91 1123 -41 
Q 819 9 494 109 
L 494 744 
Q 775 591 1075 516 
Q 1375 441 1709 441 
Q 2250 441 2565 725 
Q 2881 1009 2881 1497 
Q 2881 1984 2565 2268 
Q 2250 2553 1709 2553 
Q 1456 2553 1204 2497 
Q 953 2441 691 2322 
L 691 4666 
z
" transform="scale(0.015625)"/>
       </defs>
       <use xlink:href="#DejaVuSans-30"/>
       <use xlink:href="#DejaVuSans-2e" transform="translate(63.623047 0)"/>
       <use xlink:href="#DejaVuSans-35" transform="translate(95.410156 0)"/>
      </g>
     </g>
    </g>
    <g id="ytick_3">
     <g id="line2d_9">
      <g>
       <use xlink:href="#m6dd0a01ba8" x="37.85375" y="83.80476" style="stroke: #000000; stroke-width: 0.7"/>
      </g>
     </g>
     <g id="text_10">
      <!-- 1.0 -->
      <g transform="translate(19.426406 86.654174) scale(0.075 -0.075)">
       <use xlink:href="#DejaVuSans-31"/>
       <use xlink:href="#DejaVuSans-2e" transform="translate(63.623047 0)"/>
       <use xlink:href="#DejaVuSans-30" transform="translate(95.410156 0)"/>
      </g>
     </g>
    </g>
    <g id="ytick_4">
     <g id="line2d_10">
      <g>
       <use xlink:href="#m6dd0a01ba8" x="37.85375" y="62.366673" style="stroke: #000000; stroke-width: 0.7"/>
      </g>
     </g>
     <g id="text_11">
      <!-- 1.5 -->
      <g transform="translate(19.426406 65.216087) scale(0.075 -0.075)">
       <use xlink:href="#DejaVuSans-31"/>
       <use xlink:href="#DejaVuSans-2e" transform="translate(63.623047 0)"/>
       <use xlink:href="#DejaVuSans-35" transform="translate(95.410156 0)"/>
      </g>
     </g>
    </g>
    <g id="ytick_5">
     <g id="line2d_11">
      <g>
       <use xlink:href="#m6dd0a01ba8" x="37.85375" y="40.928585" style="stroke: #000000; stroke-width: 0.7"/>
      </g>
     </g>
     <g id="text_12">
      <!-- 2.0 -->
      <g transform="translate(19.426406 43.777999) scale(0.075 -0.075)">
       <use xlink:href="#DejaVuSans-32"/>
       <use xlink:href="#DejaVuSans-2e" transform="translate(63.623047 0)"/>
       <use xlink:href="#DejaVuSans-30" transform="translate(95.410156 0)"/>
      </g>
     </g>
    </g>
    <g id="text_13">
     <!-- Backbone RMSD (nm) -->
     <g transform="translate(13.658672 122.435352) rotate(-90) scale(0.085 -0.085)">
      <defs>
       <path id="DejaVuSans-42" d="M 1259 2228 
L 1259 519 
L 2272 519 
Q 2781 519 3026 730 
Q 3272 941 3272 1375 
Q 3272 1813 3026 2020 
Q 2781 2228 2272 2228 
L 1259 2228 
z
M 1259 4147 
L 1259 2741 
L 2194 2741 
Q 2656 2741 2882 2914 
Q 3109 3088 3109 3444 
Q 3109 3797 2882 3972 
Q 2656 4147 2194 4147 
L 1259 4147 
z
M 628 4666 
L 2241 4666 
Q 2963 4666 3353 4366 
Q 3744 4066 3744 3513 
Q 3744 3084 3544 2831 
Q 3344 2578 2956 2516 
Q 3422 2416 3680 2098 
Q 3938 1781 3938 1306 
Q 3938 681 3513 340 
Q 3088 0 2303 0 
L 628 0 
L 628 4666 
z
" transform="scale(0.015625)"/>
       <path id="DejaVuSans-61" d="M 2194 1759 
Q 1497 1759 1228 1600 
Q 959 1441 959 1056 
Q 959 750 1161 570 
Q 1363 391 1709 391 
Q 2188 391 2477 730 
Q 2766 1069 2766 1631 
L 2766 1759 
L 2194 1759 
z
M 3341 1997 
L 3341 0 
L 2766 0 
L 2766 531 
Q 2569 213 2275 61 
Q 1981 -91 1556 -91 
Q 1019 -91 701 211 
Q 384 513 384 1019 
Q 384 1609 779 1909 
Q 1175 2209 1959 2209 
L 2766 2209 
L 2766 2266 
Q 2766 2663 2505 2880 
Q 2244 3097 1772 3097 
Q 1472 3097 1187 3025 
Q 903 2953 641 2809 
L 641 3341 
Q 956 3463 1253 3523 
Q 1550 3584 1831 3584 
Q 2591 3584 2966 3190 
Q 3341 2797 3341 1997 
z
" transform="scale(0.015625)"/>
       <path id="DejaVuSans-63" d="M 3122 3366 
L 3122 2828 
Q 2878 2963 2633 3030 
Q 2388 3097 2138 3097 
Q 1578 3097 1268 2742 
Q 959 2388 959 1747 
Q 959 1106 1268 751 
Q 1578 397 2138 397 
Q 2388 397 2633 464 
Q 2878 531 3122 666 
L 3122 134 
Q 2881 22 2623 -34 
Q 2366 -91 2075 -91 
Q 1284 -91 818 406 
Q 353 903 353 1747 
Q 353 2603 823 3093 
Q 1294 3584 2113 3584 
Q 2378 3584 2631 3529 
Q 2884 3475 3122 3366 
z
" transform="scale(0.015625)"/>
       <path id="DejaVuSans-6b" d="M 581 4863 
L 1159 4863 
L 1159 1991 
L 2875 3500 
L 3609 3500 
L 1753 1863 
L 3688 0 
L 2938 0 
L 1159 1709 
L 1159 0 
L 581 0 
L 581 4863 
z
" transform="scale(0.015625)"/>
       <path id="DejaVuSans-62" d="M 3116 1747 
Q 3116 2381 2855 2742 
Q 2594 3103 2138 3103 
Q 1681 3103 1420 2742 
Q 1159 2381 1159 1747 
Q 1159 1113 1420 752 
Q 1681 391 2138 391 
Q 2594 391 2855 752 
Q 3116 1113 3116 1747 
z
M 1159 2969 
Q 1341 3281 1617 3432 
Q 1894 3584 2278 3584 
Q 2916 3584 3314 3078 
Q 3713 2572 3713 1747 
Q 3713 922 3314 415 
Q 2916 -91 2278 -91 
Q 1894 -91 1617 61 
Q 1341 213 1159 525 
L 1159 0 
L 581 0 
L 581 4863 
L 1159 4863 
L 1159 2969 
z
" transform="scale(0.015625)"/>
       <path id="DejaVuSans-6f" d="M 1959 3097 
Q 1497 3097 1228 2736 
Q 959 2375 959 1747 
Q 959 1119 1226 758 
Q 1494 397 1959 397 
Q 2419 397 2687 759 
Q 2956 1122 2956 1747 
Q 2956 2369 2687 2733 
Q 2419 3097 1959 3097 
z
M 1959 3584 
Q 2709 3584 3137 3096 
Q 3566 2609 3566 1747 
Q 3566 888 3137 398 
Q 2709 -91 1959 -91 
Q 1206 -91 779 398 
Q 353 888 353 1747 
Q 353 2609 779 3096 
Q 1206 3584 1959 3584 
z
" transform="scale(0.015625)"/>
       <path id="DejaVuSans-52" d="M 2841 2188 
Q 3044 2119 3236 1894 
Q 3428 1669 3622 1275 
L 4263 0 
L 3584 0 
L 2988 1197 
Q 2756 1666 2539 1819 
Q 2322 1972 1947 1972 
L 1259 1972 
L 1259 0 
L 628 0 
L 628 4666 
L 2053 4666 
Q 2853 4666 3247 4331 
Q 3641 3997 3641 3322 
Q 3641 2881 3436 2590 
Q 3231 2300 2841 2188 
z
M 1259 4147 
L 1259 2491 
L 2053 2491 
Q 2509 2491 2742 2702 
Q 2975 2913 2975 3322 
Q 2975 3731 2742 3939 
Q 2509 4147 2053 4147 
L 1259 4147 
z
" transform="scale(0.015625)"/>
       <path id="DejaVuSans-4d" d="M 628 4666 
L 1569 4666 
L 2759 1491 
L 3956 4666 
L 4897 4666 
L 4897 0 
L 4281 0 
L 4281 4097 
L 3078 897 
L 2444 897 
L 1241 4097 
L 1241 0 
L 628 0 
L 628 4666 
z
" transform="scale(0.015625)"/>
       <path id="DejaVuSans-53" d="M 3425 4513 
L 3425 3897 
Q 3066 4069 2747 4153 
Q 2428 4238 2131 4238 
Q 1616 4238 1336 4038 
Q 1056 3838 1056 3469 
Q 1056 3159 1242 3001 
Q 1428 2844 1947 2747 
L 2328 2669 
Q 3034 2534 3370 2195 
Q 3706 1856 3706 1288 
Q 3706 609 3251 259 
Q 2797 -91 1919 -91 
Q 1588 -91 1214 -16 
Q 841 59 441 206 
L 441 856 
Q 825 641 1194 531 
Q 1563 422 1919 422 
Q 2459 422 2753 634 
Q 3047 847 3047 1241 
Q 3047 1584 2836 1778 
Q 2625 1972 2144 2069 
L 1759 2144 
Q 1053 2284 737 2584 
Q 422 2884 422 3419 
Q 422 4038 858 4394 
Q 1294 4750 2059 4750 
Q 2388 4750 2728 4690 
Q 3069 4631 3425 4513 
z
" transform="scale(0.015625)"/>
       <path id="DejaVuSans-44" d="M 1259 4147 
L 1259 519 
L 2022 519 
Q 2988 519 3436 956 
Q 3884 1394 3884 2338 
Q 3884 3275 3436 3711 
Q 2988 4147 2022 4147 
L 1259 4147 
z
M 628 4666 
L 1925 4666 
Q 3281 4666 3915 4102 
Q 4550 3538 4550 2338 
Q 4550 1131 3912 565 
Q 3275 0 1925 0 
L 628 0 
L 628 4666 
z
" transform="scale(0.015625)"/>
      </defs>
      <use xlink:href="#DejaVuSans-42"/>
      <use xlink:href="#DejaVuSans-61" transform="translate(68.603516 0)"/>
      <use xlink:href="#DejaVuSans-63" transform="translate(129.882812 0)"/>
      <use xlink:href="#DejaVuSans-6b" transform="translate(184.863281 0)"/>
      <use xlink:href="#DejaVuSans-62" transform="translate(242.773438 0)"/>
      <use xlink:href="#DejaVuSans-6f" transform="translate(306.25 0)"/>
      <use xlink:href="#DejaVuSans-6e" transform="translate(367.431641 0)"/>
      <use xlink:href="#DejaVuSans-65" transform="translate(430.810547 0)"/>
      <use xlink:href="#DejaVuSans-20" transform="translate(492.333984 0)"/>
      <use xlink:href="#DejaVuSans-52" transform="translate(524.121094 0)"/>
      <use xlink:href="#DejaVuSans-4d" transform="translate(593.603516 0)"/>
      <use xlink:href="#DejaVuSans-53" transform="translate(679.882812 0)"/>
      <use xlink:href="#DejaVuSans-44" transform="translate(743.359375 0)"/>
      <use xlink:href="#DejaVuSans-20" transform="translate(820.361328 0)"/>
      <use xlink:href="#DejaVuSans-28" transform="translate(852.148438 0)"/>
      <use xlink:href="#DejaVuSans-6e" transform="translate(891.162109 0)"/>
      <use xlink:href="#DejaVuSans-6d" transform="translate(954.541016 0)"/>
      <use xlink:href="#DejaVuSans-29" transform="translate(1051.953125 0)"/>
     </g>
    </g>
   </g>
   <g id="line2d_12">
    <path d="M 46.079205 126.659425 
L 46.227263 113.578843 
L 46.408223 103.826828 
L 46.441125 105.613577 
L 46.474026 107.007593 
L 46.523379 104.781192 
L 46.53983 102.54965 
L 46.589183 104.939418 
L 46.638535 103.843155 
L 46.654986 102.517505 
L 46.737241 102.919594 
L 46.885299 105.779212 
L 46.918201 105.254986 
L 47.033357 101.971512 
L 47.049808 102.727556 
L 47.066259 103.031651 
L 47.08271 102.252616 
L 47.181415 100.609327 
L 47.148514 102.78272 
L 47.197866 100.73769 
L 47.230768 102.36027 
L 47.26367 100.39814 
L 47.313023 101.096555 
L 47.44463 97.403956 
L 47.493983 99.528097 
L 47.543335 97.587954 
L 47.609139 96.114064 
L 47.62559 98.005517 
L 47.642041 98.251146 
L 47.674943 97.216308 
L 47.823001 93.689322 
L 47.839452 93.858027 
L 47.888804 92.847534 
L 47.872354 94.230638 
L 47.905255 93.152907 
L 48.053313 97.839402 
L 48.069764 97.689344 
L 48.086215 99.059495 
L 48.152019 95.62131 
L 48.16847 95.358548 
L 48.201372 97.210498 
L 48.267175 95.869687 
L 48.34943 93.851339 
L 48.382332 95.686152 
L 48.398783 95.994556 
L 48.431685 94.542117 
L 48.448135 94.254469 
L 48.497488 97.40676 
L 48.563292 95.361493 
L 48.612645 94.958736 
L 48.71135 97.062284 
L 48.727801 97.457143 
L 48.760703 96.002668 
L 48.842957 93.4943 
L 48.875859 94.516348 
L 48.89231 95.355195 
L 48.908761 94.231136 
L 48.925212 94.297645 
L 48.941663 92.175883 
L 49.023917 95.053406 
L 49.237779 86.324019 
L 49.336484 93.140537 
L 49.369386 90.486395 
L 49.402288 90.67177 
L 49.500994 86.952751 
L 49.566797 89.910456 
L 49.599699 87.276895 
L 49.632601 86.512249 
L 49.665503 88.30516 
L 49.698404 86.714886 
L 49.79711 90.046781 
L 49.830012 88.54356 
L 49.945168 84.356127 
L 50.175481 93.267905 
L 50.241285 95.519037 
L 50.307088 94.214311 
L 50.33999 94.915757 
L 50.372892 93.112702 
L 50.471597 96.197579 
L 50.488048 95.081495 
L 50.504499 94.760223 
L 50.52095 95.892395 
L 50.553851 95.022982 
L 50.570302 96.228467 
L 50.619655 92.911729 
L 50.669008 88.310553 
L 50.800615 89.731423 
L 51.014477 96.060263 
L 51.047379 95.324873 
L 51.162535 98.263301 
L 51.195437 99.871166 
L 51.24479 97.991243 
L 51.277692 98.480019 
L 51.327044 100.701365 
L 51.392848 99.899383 
L 51.573808 96.175682 
L 51.590259 96.007491 
L 51.623161 93.545207 
L 51.705415 95.474948 
L 51.738317 97.275044 
L 51.820572 96.648868 
L 51.96863 94.950872 
L 52.083786 95.992107 
L 52.14959 94.281288 
L 52.215394 94.424113 
L 52.248295 95.17156 
L 52.264746 94.13767 
L 52.281197 94.482107 
L 52.297648 93.435757 
L 52.33055 96.454004 
L 52.347001 96.421667 
L 52.379903 96.806399 
L 52.396353 95.341063 
L 52.412804 95.794152 
L 52.544412 91.992644 
L 52.643117 95.269224 
L 52.676019 93.746043 
L 52.807626 90.684226 
L 52.939233 94.457818 
L 53.005037 93.244885 
L 53.021488 91.828453 
L 53.05439 93.992384 
L 53.103742 92.223673 
L 53.218899 94.789692 
L 53.169546 91.754634 
L 53.251801 94.591047 
L 53.268252 94.604489 
L 53.432761 90.271873 
L 53.465662 90.543386 
L 53.646623 93.460471 
L 53.95919 82.59088 
L 53.975641 83.546697 
L 54.485619 92.073748 
L 54.600775 88.385458 
L 54.617226 89.000354 
L 54.633677 89.705195 
L 54.683029 87.648511 
L 54.699481 88.111364 
L 54.715932 88.107003 
L 54.765284 90.68841 
L 54.831088 90.027616 
L 54.880441 86.512528 
L 54.962695 87.421104 
L 55.094303 88.755402 
L 55.028499 86.736668 
L 55.110753 88.695629 
L 55.127205 86.695914 
L 55.176557 90.239943 
L 55.193008 89.885725 
L 55.22591 90.367525 
L 55.258812 89.451947 
L 55.390419 84.967451 
L 55.406869 86.245624 
L 55.472673 88.268869 
L 55.538477 87.854008 
L 55.604281 89.768948 
L 55.637183 88.775949 
L 55.719437 87.233645 
L 55.752339 87.391704 
L 55.867495 90.98733 
L 55.883946 90.643292 
L 55.982652 91.162081 
L 55.9662 89.890815 
L 55.999102 90.892814 
L 56.015554 90.842361 
L 56.032004 91.157767 
L 56.048455 89.608947 
L 56.081357 90.394983 
L 56.147161 87.410111 
L 56.245866 88.733604 
L 56.262317 89.938879 
L 56.31167 87.917696 
L 56.344571 86.392976 
L 56.393925 89.455982 
L 56.426826 89.941126 
L 56.459728 88.420659 
L 56.49263 88.732095 
L 56.50908 87.387352 
L 56.591335 89.321063 
L 56.657139 86.887197 
L 56.690041 88.108971 
L 56.755844 90.047026 
L 56.788746 87.698389 
L 56.838099 83.194066 
L 56.903903 84.955566 
L 56.920353 86.062345 
L 56.969706 82.776435 
L 57.002608 83.289835 
L 57.084863 86.23415 
L 57.117765 85.815108 
L 57.249372 79.331365 
L 57.265822 79.768762 
L 57.298724 83.180942 
L 57.397429 81.544984 
L 57.529037 84.038414 
L 57.594841 83.580188 
L 57.677095 78.829276 
L 57.792252 80.414374 
L 58.055466 87.342105 
L 57.841605 79.823999 
L 58.071917 84.819897 
L 58.121269 82.759302 
L 58.137721 86.009595 
L 58.252877 87.97109 
L 58.269328 87.169653 
L 58.30223 86.702495 
L 58.318681 87.448172 
L 58.368033 91.232402 
L 58.450288 89.734801 
L 58.466738 88.303727 
L 58.49964 90.520456 
L 58.548993 90.364382 
L 58.565444 90.357462 
L 58.647699 85.848934 
L 58.697052 88.120453 
L 58.713502 88.141668 
L 58.729953 88.039164 
L 58.779306 87.195022 
L 58.762855 88.271545 
L 58.845109 87.374082 
L 58.993168 93.194133 
L 59.02607 91.744189 
L 59.075423 93.458966 
L 59.091873 94.052694 
L 59.141226 92.751826 
L 59.174128 93.474007 
L 59.338637 91.366381 
L 59.20703 93.622697 
L 59.355088 91.565464 
L 59.387989 93.059926 
L 59.437343 90.33698 
L 59.453793 91.317408 
L 59.470244 90.033854 
L 59.486695 92.107299 
L 59.56895 90.512331 
L 59.601851 91.247228 
L 59.618303 91.782387 
L 59.667655 89.778132 
L 59.733458 87.140535 
L 59.766361 85.562525 
L 59.815713 86.836651 
L 59.94732 93.000564 
L 59.963772 92.179892 
L 60.062476 89.831346 
L 60.013124 92.326284 
L 60.078927 90.981417 
L 60.177634 92.767896 
L 60.144731 90.466016 
L 60.210535 91.959655 
L 60.292789 89.82768 
L 60.243437 92.995144 
L 60.309241 91.9118 
L 60.375044 92.92388 
L 60.407945 89.810997 
L 60.4902 92.20892 
L 60.523103 92.873843 
L 60.539553 91.701399 
L 60.556004 91.989556 
L 60.621807 89.011527 
L 60.671161 90.744891 
L 60.786317 93.168068 
L 60.917924 90.212073 
L 60.934375 90.344402 
L 61.049531 87.193663 
L 61.065983 87.98839 
L 61.082434 88.543963 
L 61.148237 87.357463 
L 61.164687 87.077529 
L 61.246942 86.943296 
L 61.296294 89.509641 
L 61.395 87.992395 
L 61.345648 89.716626 
L 61.427903 88.271202 
L 61.592411 86.568104 
L 61.493707 88.714764 
L 61.608862 86.70608 
L 61.674666 87.987709 
L 61.707567 86.999147 
L 61.822724 83.999088 
L 61.839176 85.775611 
L 61.921429 83.403341 
L 62.250448 91.073974 
L 62.299801 90.045709 
L 62.464309 85.451274 
L 62.48076 85.927598 
L 62.563015 87.794676 
L 62.579466 87.760945 
L 62.64527 83.577517 
L 62.694622 86.72037 
L 62.743974 87.578413 
L 62.84268 83.614051 
L 62.892033 85.030436 
L 62.941387 84.759737 
L 62.974288 82.256755 
L 63.040091 83.18276 
L 63.122346 85.267117 
L 63.072994 83.044197 
L 63.155247 85.066649 
L 63.171698 83.954188 
L 63.253953 85.720013 
L 63.286854 85.021916 
L 63.319757 85.670011 
L 63.369109 89.51055 
L 63.434913 87.062509 
L 63.517168 89.209242 
L 63.467815 86.786181 
L 63.55007 87.92315 
L 63.56652 87.251083 
L 63.599422 88.45812 
L 63.681677 92.036064 
L 63.731029 91.763745 
L 63.747481 91.550637 
L 63.763932 92.658142 
L 63.780382 92.682761 
L 63.895539 90.293139 
L 64.010695 92.412697 
L 64.09295 92.44106 
L 64.504223 85.262104 
L 64.520674 84.038071 
L 64.586478 86.038601 
L 64.619379 84.948084 
L 64.63583 84.893597 
L 64.652281 84.025834 
L 64.734534 85.490613 
L 64.767437 86.348471 
L 64.800338 87.920123 
L 64.83324 86.243699 
L 64.866141 87.303036 
L 65.0142 84.262078 
L 65.080003 86.8752 
L 65.145807 86.695163 
L 65.195161 84.916287 
L 65.228062 86.171615 
L 65.326768 87.326502 
L 65.343219 86.872118 
L 65.392572 88.851655 
L 65.474826 88.038928 
L 65.705138 82.127393 
L 65.721589 82.384067 
L 65.738041 81.243136 
L 65.770942 79.114544 
L 65.820296 80.890698 
L 65.853197 83.545042 
L 65.935451 82.820435 
L 66.050607 84.529488 
L 66.001255 82.571573 
L 66.067059 84.419112 
L 66.08351 83.45393 
L 66.132862 85.998606 
L 66.165765 83.589123 
L 66.215117 85.894914 
L 66.248018 83.543156 
L 66.280921 83.95162 
L 66.297372 83.909228 
L 66.363175 83.15294 
L 66.511234 88.618807 
L 66.609938 90.820756 
L 66.62639 88.32451 
L 66.725094 89.253864 
L 66.774448 88.158437 
L 66.840252 88.496031 
L 66.906055 89.798168 
L 66.873153 88.029264 
L 66.922506 88.848354 
L 66.955407 87.215856 
L 67.021211 88.423356 
L 67.037662 89.092272 
L 67.087015 88.120955 
L 67.119917 88.20103 
L 67.136367 88.225629 
L 67.152818 89.312154 
L 67.185721 87.108164 
L 67.251524 88.607192 
L 67.514739 93.245057 
L 67.54764 92.945837 
L 67.564091 92.387121 
L 67.613443 94.112021 
L 67.712149 95.726575 
L 67.646346 93.996273 
L 67.728601 95.144647 
L 67.942463 88.718164 
L 68.090521 89.939801 
L 67.975364 87.478931 
L 68.106971 89.817381 
L 68.304381 86.108917 
L 68.189226 90.225446 
L 68.320833 86.870587 
L 68.386636 88.547753 
L 68.43599 87.149985 
L 68.518243 86.000051 
L 68.485342 87.904662 
L 68.551146 86.885096 
L 68.732105 89.753148 
L 68.748557 88.562918 
L 68.765008 88.271022 
L 68.781458 89.39108 
L 68.81436 88.673607 
L 68.830812 89.472506 
L 68.863713 88.259818 
L 68.896615 88.502373 
L 68.97887 87.733967 
L 68.99532 88.838874 
L 69.110477 87.496335 
L 69.19273 89.451784 
L 69.225633 88.09634 
L 69.274985 87.385543 
L 69.324339 88.485437 
L 69.390143 88.007324 
L 69.472396 91.249201 
L 69.604005 87.169991 
L 69.620454 87.409678 
L 69.636906 87.538714 
L 69.653357 87.52733 
L 69.686258 86.889997 
L 69.71916 87.240724 
L 69.752061 90.426698 
L 69.834316 88.030212 
L 69.867219 88.509649 
L 69.883669 87.96284 
L 69.90012 86.854328 
L 69.965924 88.729681 
L 69.982375 88.860736 
L 69.998826 88.132536 
L 70.015277 88.699136 
L 70.048178 88.14888 
L 70.081081 88.860157 
L 70.146885 90.640475 
L 70.179786 88.369834 
L 70.196237 89.157581 
L 70.212688 89.804518 
L 70.245589 87.525675 
L 70.26204 87.716834 
L 70.344295 85.125955 
L 70.360745 87.136522 
L 70.393647 88.777123 
L 70.459451 86.890769 
L 70.574607 88.735422 
L 70.591058 88.236502 
L 70.673313 87.544223 
L 70.689764 88.337098 
L 70.706214 88.943161 
L 70.755568 86.818188 
L 70.821371 85.446421 
L 70.887175 85.96906 
L 70.903626 86.472036 
L 70.936527 85.307292 
L 70.952979 84.481694 
L 70.96943 86.281854 
L 71.002331 86.066496 
L 71.018782 87.295546 
L 71.084586 85.272438 
L 71.101037 85.437468 
L 71.117487 85.773814 
L 71.133938 84.195006 
L 71.265545 81.586248 
L 71.3478 83.38466 
L 71.364251 82.493954 
L 71.380703 81.721656 
L 71.430055 83.25435 
L 71.446506 82.947083 
L 71.545211 86.026154 
L 71.578113 84.170829 
L 71.611014 83.347906 
L 71.660368 85.446433 
L 71.676818 86.114757 
L 71.693269 85.177548 
L 71.775524 86.085044 
L 71.874229 82.538803 
L 71.907131 84.637686 
L 72.038738 89.32737 
L 72.05519 89.205516 
L 72.071641 89.535993 
L 72.08809 88.395131 
L 72.318404 82.881846 
L 72.351306 83.826336 
L 72.384207 83.228239 
L 72.43356 84.484245 
L 72.581618 81.519606 
L 72.614521 80.578676 
L 72.647423 82.506393 
L 72.795482 87.704263 
L 72.81193 86.982177 
L 72.828381 85.778569 
L 72.894186 87.398337 
L 72.910638 86.590254 
L 72.992891 89.486737 
L 72.943537 86.398117 
L 73.042245 87.593788 
L 73.140949 89.899664 
L 73.223202 88.78346 
L 73.239654 88.162056 
L 73.289008 90.197041 
L 73.305459 91.530687 
L 73.338361 89.886291 
L 73.404163 90.7783 
L 73.437066 91.442658 
L 73.469969 90.817661 
L 73.502868 89.531161 
L 73.552222 90.448347 
L 73.601576 90.185833 
L 73.650926 92.636202 
L 73.766082 87.977654 
L 73.782534 88.217212 
L 73.848339 87.63067 
L 73.930592 90.294494 
L 73.963495 88.6221 
L 74.045748 89.65518 
L 74.144456 88.580403 
L 74.095102 90.221763 
L 74.160907 88.760565 
L 74.259611 93.664797 
L 74.325413 93.177552 
L 74.440572 90.908056 
L 74.457021 92.351762 
L 74.506374 90.382124 
L 74.539277 90.995018 
L 74.588628 91.085508 
L 74.605079 90.330849 
L 74.654433 92.28036 
L 74.703787 89.693271 
L 74.720238 89.820764 
L 74.736686 89.208256 
L 74.753137 89.534608 
L 74.78604 88.794715 
L 74.835394 89.943085 
L 74.851845 89.966148 
L 74.901196 92.960316 
L 74.967001 90.911641 
L 75.16441 82.758256 
L 75.016352 91.258578 
L 75.197313 82.835219 
L 75.394725 87.908353 
L 75.411173 87.84533 
L 75.427624 87.998835 
L 75.444076 88.329655 
L 75.476978 87.248609 
L 75.509881 85.780936 
L 75.542783 87.576895 
L 75.575683 86.244775 
L 75.625037 86.201226 
L 75.690839 88.147637 
L 75.822446 84.0589 
L 75.855348 84.491825 
L 76.019858 79.48496 
L 76.052761 80.461838 
L 76.266621 85.056149 
L 76.299524 84.774439 
L 76.332426 85.521913 
L 76.348877 84.673475 
L 76.381777 83.394045 
L 76.431131 85.071031 
L 76.447582 84.280364 
L 76.464033 84.384699 
L 76.513384 83.039378 
L 76.546287 85.331898 
L 76.612092 84.628939 
L 76.59564 86.103721 
L 76.644994 85.439342 
L 76.694345 88.458866 
L 76.743699 85.551463 
L 76.76015 84.970272 
L 76.79305 86.726326 
L 76.825952 86.443883 
L 76.842404 86.43262 
L 76.957559 88.118202 
L 77.039816 86.620194 
L 77.072715 87.098504 
L 77.13852 88.687529 
L 77.187874 87.863724 
L 77.270127 86.143947 
L 77.319481 86.496282 
L 77.401735 88.027759 
L 77.434637 87.953961 
L 77.533342 83.453669 
L 77.582696 83.980934 
L 77.697851 86.962621 
L 77.714303 86.783626 
L 77.730754 85.601808 
L 77.796556 87.336154 
L 77.961066 90.880543 
L 78.026868 90.345675 
L 78.043319 90.206199 
L 78.05977 91.312006 
L 78.109124 88.836022 
L 78.142027 87.544793 
L 78.191377 90.575243 
L 78.322985 87.935897 
L 78.257183 90.978995 
L 78.339436 88.617161 
L 78.355887 89.296967 
L 78.405241 88.06266 
L 78.471043 84.163274 
L 78.520397 87.035476 
L 78.586199 89.399471 
L 78.619101 87.757262 
L 78.668455 84.933849 
L 78.750709 85.84032 
L 78.865864 88.351299 
L 78.882316 87.856182 
L 78.948121 85.01142 
L 79.013923 85.635847 
L 79.030374 84.920291 
L 79.079728 87.009107 
L 79.211335 90.76831 
L 79.293588 88.567051 
L 79.342942 89.711502 
L 79.375845 89.411618 
L 79.392296 89.973879 
L 79.441647 88.236193 
L 79.523903 91.127574 
L 79.540351 91.102371 
L 79.639059 88.363754 
L 79.671959 88.955733 
L 79.754215 90.489298 
L 79.704861 88.18605 
L 79.770666 89.529857 
L 79.902273 84.679584 
L 79.918725 86.613874 
L 80.066783 91.037268 
L 80.346449 83.160477 
L 80.395799 82.571209 
L 80.494504 86.141332 
L 80.510955 85.063052 
L 80.593211 86.238442 
L 80.626114 85.889117 
L 80.708367 88.259342 
L 80.724819 85.874033 
L 80.807072 88.388206 
L 80.823523 87.888755 
L 80.856426 89.655686 
L 80.905777 88.147307 
L 80.922228 88.988383 
L 80.988033 87.738191 
L 81.004484 88.313953 
L 81.152543 83.500224 
L 81.185442 83.270871 
L 81.201893 81.846074 
L 81.267699 84.29375 
L 81.28415 83.040154 
L 81.300601 83.813443 
L 81.366403 82.068691 
L 81.382854 82.725023 
L 81.415757 82.78598 
L 81.44866 82.546345 
L 81.580267 86.642276 
L 81.678971 83.776882 
L 81.695422 85.144757 
L 81.82703 87.739593 
L 81.892832 86.303202 
L 81.942185 87.40289 
L 81.958637 87.388325 
L 82.057341 89.452067 
L 81.991539 86.370728 
L 82.073793 88.225397 
L 82.090244 86.967363 
L 82.172497 88.707985 
L 82.320556 84.127494 
L 82.353458 84.755192 
L 82.468614 88.653108 
L 82.485065 87.897862 
L 82.633124 84.536382 
L 82.649575 85.456707 
L 82.682478 84.36649 
L 82.74828 85.65031 
L 82.781182 84.747509 
L 82.814085 85.542485 
L 82.846984 87.846397 
L 82.912789 86.090742 
L 83.077299 81.462495 
L 82.962143 86.143909 
L 83.110198 81.797487 
L 83.241806 87.946796 
L 83.307611 87.602145 
L 83.389864 89.729648 
L 83.439218 88.667738 
L 83.47212 87.640896 
L 83.521471 88.911154 
L 83.537923 89.762491 
L 83.570825 88.544692 
L 83.620179 89.139607 
L 83.63663 88.148194 
L 83.685981 89.178547 
L 83.735335 88.155865 
L 83.751786 88.015535 
L 83.801137 89.178843 
L 83.834039 88.640138 
L 83.932744 86.524919 
L 83.949195 87.715728 
L 83.965646 87.65396 
L 83.982098 86.589868 
L 84.031452 87.766613 
L 84.064351 87.456113 
L 84.080802 88.734363 
L 84.146607 87.441037 
L 84.17951 88.166386 
L 84.195961 88.367038 
L 84.212409 88.005678 
L 84.261763 88.186791 
L 84.327568 85.875903 
L 84.376919 87.288394 
L 84.442724 86.679205 
L 84.459175 86.561591 
L 84.541429 85.257834 
L 84.574331 86.029266 
L 84.623682 86.671101 
L 84.607234 85.887604 
L 84.640133 86.46762 
L 84.656585 85.317934 
L 84.689487 86.631136 
L 84.738841 86.335792 
L 84.771741 86.308407 
L 84.837546 87.798372 
L 84.93625 89.329746 
L 84.952702 89.070701 
L 85.034955 87.515247 
L 85.067857 88.094655 
L 85.150114 87.271724 
L 85.166562 86.739948 
L 85.199465 89.141554 
L 85.215916 89.450335 
L 85.26527 88.514365 
L 85.577835 78.616559 
L 85.347523 89.387543 
L 85.594286 79.123321 
L 85.725893 82.393843 
L 85.824601 79.987893 
L 85.873951 81.504574 
L 85.923305 83.959801 
L 85.972659 80.879087 
L 85.989107 80.184193 
L 86.02201 81.505624 
L 86.038461 81.402901 
L 86.054912 82.483767 
L 86.087815 81.19144 
L 86.120718 81.282008 
L 86.219422 78.929593 
L 86.235874 80.554648 
L 86.252325 80.234568 
L 86.268773 80.943234 
L 86.285224 80.757971 
L 86.351029 82.498799 
L 86.40038 81.995347 
L 86.482637 82.028375 
L 86.53199 81.127392 
L 86.56489 81.892324 
L 86.581341 80.410249 
L 86.597792 81.293005 
L 86.647146 78.494006 
L 86.712948 79.82718 
L 86.729399 79.573096 
L 86.745851 80.475996 
L 86.811653 79.929479 
L 86.91036 83.323835 
L 87.07487 78.973276 
L 87.140672 79.897433 
L 87.272279 75.362797 
L 87.305182 75.795551 
L 87.551945 80.972763 
L 87.338084 75.320208 
L 87.568396 80.633591 
L 87.61775 79.756696 
L 87.634201 80.861182 
L 87.667101 80.616385 
L 87.749357 81.981241 
L 87.716455 79.903835 
L 87.765808 80.276862 
L 87.815159 79.302333 
L 87.913864 82.801364 
L 87.930315 81.984684 
L 88.012571 79.792682 
L 88.061922 80.242239 
L 88.193529 83.23732 
L 88.209981 83.1502 
L 88.226432 83.362994 
L 88.242883 82.674536 
L 88.341588 80.134864 
L 88.292237 82.742537 
L 88.37449 81.872867 
L 88.407393 82.991944 
L 88.456747 81.155309 
L 88.473195 80.260294 
L 88.506097 82.103344 
L 88.555451 81.070611 
L 88.654156 84.406009 
L 88.687058 82.642319 
L 88.70351 82.493676 
L 88.75286 84.49466 
L 88.818665 84.26005 
L 88.966724 82.129288 
L 88.983175 82.507953 
L 88.999627 83.161583 
L 89.032526 81.402245 
L 89.048977 80.681686 
L 89.098331 82.893826 
L 89.114782 82.13355 
L 89.229938 83.489217 
L 89.197036 81.441258 
L 89.24639 83.247735 
L 89.312192 82.794165 
L 89.345094 83.418793 
L 89.361545 83.734804 
L 89.410899 82.906929 
L 89.427347 81.917308 
L 89.493152 83.393921 
L 89.509604 83.103049 
L 89.542506 83.55544 
L 89.558954 83.530503 
L 89.575406 82.360022 
L 89.591857 83.690097 
L 89.657662 82.572233 
L 89.707013 85.190248 
L 89.756367 83.794389 
L 89.83862 82.811641 
L 89.789269 83.864941 
L 89.855071 83.605245 
L 89.937328 84.617324 
L 89.97023 84.289008 
L 90.200542 79.716474 
L 90.266344 80.708629 
L 90.282795 78.962492 
L 90.315698 80.197982 
L 90.365052 77.143003 
L 90.447305 77.357633 
L 90.51311 79.031712 
L 90.562461 78.044046 
L 90.611815 77.157933 
L 90.628266 78.750178 
L 90.759873 80.609937 
L 90.776324 80.634989 
L 90.957282 82.838726 
L 90.973734 81.097623 
L 91.072438 82.004197 
L 91.088889 80.711051 
L 91.154694 82.353959 
L 91.187597 80.978603 
L 91.204048 80.93655 
L 91.220496 80.214837 
L 91.26985 82.133601 
L 91.302753 82.326308 
L 91.352104 82.235737 
L 91.565967 74.105454 
L 91.582419 74.247824 
L 91.59887 74.02582 
L 91.730477 76.580918 
L 91.746928 75.870747 
L 91.779828 77.912382 
L 91.829182 76.750858 
L 91.845633 77.235959 
L 91.894984 75.815111 
L 92.158201 67.115351 
L 92.207552 67.14295 
L 92.470766 74.77557 
L 92.487217 74.594606 
L 92.52012 72.808625 
L 92.569474 75.058921 
L 92.783334 78.890418 
L 92.89849 77.462679 
L 92.947844 79.753009 
L 93.030097 78.131239 
L 93.079451 74.805694 
L 93.145253 76.06745 
L 93.211058 78.082245 
L 93.326214 77.258323 
L 93.342665 77.095406 
L 93.359116 77.934905 
L 93.392019 77.679024 
L 93.424918 78.140042 
L 93.44137 78.104883 
L 93.490724 75.410278 
L 93.572977 76.846905 
L 93.622331 76.748255 
L 93.78684 79.27515 
L 93.836191 76.541 
L 93.885545 78.18185 
L 94.017152 81.987179 
L 94.115857 79.314 
L 94.148759 79.889724 
L 94.263915 84.474032 
L 94.214564 79.710759 
L 94.280366 83.239447 
L 94.379071 80.76231 
L 94.411974 81.729644 
L 94.428425 81.217938 
L 94.444876 81.897658 
L 94.461327 81.729927 
L 94.560032 84.48373 
L 94.576483 84.084738 
L 94.592935 84.05216 
L 94.609386 85.388885 
L 94.642285 82.212828 
L 94.691639 84.767198 
L 94.806795 81.519323 
L 94.724542 85.116668 
L 94.856149 82.172812 
L 94.8726 83.615346 
L 94.954853 82.749989 
L 94.971305 81.797675 
L 95.004207 83.519038 
L 95.053561 83.433809 
L 95.070009 83.104725 
L 95.08646 84.029449 
L 95.218068 85.412021 
L 95.267421 83.257785 
L 95.333223 84.464102 
L 95.349675 85.16812 
L 95.382577 83.39254 
L 95.399029 82.245581 
L 95.431931 84.431593 
L 95.481282 83.554085 
L 95.612889 88.500885 
L 95.678694 86.759465 
L 95.695146 86.489191 
L 95.711597 86.86741 
L 95.728048 87.860491 
L 95.777399 86.211263 
L 95.79385 86.283569 
L 95.826753 86.418861 
L 95.909006 83.650646 
L 95.95836 84.428802 
L 95.974811 82.914115 
L 96.122869 77.930887 
L 96.270928 83.467711 
L 96.303827 82.874969 
L 96.353181 81.503527 
L 96.402535 83.465614 
L 96.550593 86.827882 
L 96.435434 82.750954 
L 96.567042 85.90815 
L 96.682201 84.540194 
L 96.780905 85.602164 
L 96.731551 84.342886 
L 96.797356 85.173196 
L 96.813808 84.992765 
L 96.830259 85.685327 
L 96.846707 85.880439 
L 96.863158 84.294526 
L 96.928964 87.523514 
L 96.961866 87.815093 
L 97.093473 85.759172 
L 97.175727 88.318421 
L 97.241532 87.274738 
L 97.554097 79.815235 
L 97.586999 81.675795 
L 97.751509 85.47501 
L 97.784412 84.74458 
L 97.833762 85.532537 
L 97.866665 85.05807 
L 97.883116 85.000847 
L 97.899567 86.706813 
L 97.998272 86.017218 
L 98.096976 87.792266 
L 98.080525 85.890125 
L 98.129879 87.14162 
L 98.179233 85.091342 
L 98.245035 85.130174 
L 98.31084 88.981758 
L 98.360191 87.702363 
L 98.47535 85.990249 
L 98.508249 85.85434 
L 98.557603 87.644596 
L 98.606957 86.06087 
L 98.623408 85.095792 
L 98.672759 87.034558 
L 98.68921 86.494078 
L 98.705662 87.130031 
L 98.738564 84.827327 
L 98.820817 82.450028 
L 98.870168 83.392956 
L 98.935973 81.802293 
L 98.903071 83.397171 
L 98.968876 82.801578 
L 99.051129 83.790161 
L 99.034681 82.640243 
L 99.084032 83.075883 
L 99.100486 81.95112 
L 99.182739 83.402942 
L 99.248538 81.318015 
L 99.330798 82.584989 
L 99.347246 82.543703 
L 99.495304 85.435286 
L 99.561109 83.451932 
L 99.594012 84.986003 
L 99.61046 85.813659 
L 99.659811 83.938873 
L 99.676265 82.776543 
L 99.725616 85.381716 
L 99.74207 86.458135 
L 99.774973 84.036142 
L 99.791421 84.152709 
L 99.890129 82.618355 
L 99.906577 83.255118 
L 100.021733 84.482345 
L 99.98883 83.04138 
L 100.038187 84.350673 
L 100.071084 83.65941 
L 100.087538 84.860899 
L 100.136889 85.986086 
L 100.153343 86.485636 
L 100.202694 84.989935 
L 100.235596 86.164078 
L 100.268499 85.456531 
L 100.284947 86.520675 
L 100.400103 88.724043 
L 100.433006 88.090414 
L 100.515259 90.029811 
L 100.663317 85.314966 
L 100.794927 88.149888 
L 100.811376 88.532635 
L 100.844278 87.583927 
L 100.942986 85.108616 
L 100.959434 86.520666 
L 100.975888 85.967795 
L 101.008791 87.877054 
L 101.041687 87.076135 
L 101.123947 88.064967 
L 101.07459 86.479479 
L 101.140395 87.285101 
L 101.189746 86.849179 
L 101.2062 87.176873 
L 101.255551 88.552667 
L 101.304902 87.733663 
L 101.370707 85.159184 
L 101.420064 86.478557 
L 101.436512 86.658337 
L 101.469415 86.258894 
L 101.633921 81.653551 
L 101.749077 84.946999 
L 101.781979 84.593995 
L 101.847785 80.63736 
L 101.897135 81.898704 
L 102.094551 86.145744 
L 102.127453 83.674481 
L 102.193252 86.812421 
L 102.275505 85.163695 
L 102.324862 85.977005 
L 102.341311 86.905381 
L 102.423564 85.562804 
L 102.440018 85.616862 
L 102.489369 84.778924 
L 102.522272 86.075345 
L 102.538726 85.233961 
L 102.67033 87.694697 
L 102.785486 86.114787 
L 102.851291 88.506004 
L 102.900642 87.090915 
L 102.933544 87.452614 
L 103.015798 88.151689 
L 103.0487 86.467508 
L 103.229661 90.74914 
L 103.246109 90.792685 
L 103.525778 86.498452 
L 103.542226 86.612944 
L 103.624486 89.005928 
L 103.673836 88.817097 
L 103.821895 91.227115 
L 103.920596 90.067842 
L 103.8877 91.423175 
L 103.937051 90.094575 
L 104.002856 90.081472 
L 104.085109 92.391006 
L 104.414129 85.203934 
L 104.479927 86.015362 
L 104.562187 86.865609 
L 104.545732 84.845018 
L 104.578635 86.551533 
L 104.726693 82.729855 
L 104.743142 82.791742 
L 104.759596 82.080499 
L 104.808947 84.068243 
L 104.841849 85.673081 
L 104.924103 84.532909 
L 104.957005 84.733484 
L 104.989908 84.051882 
L 105.006362 86.792784 
L 105.088615 82.482485 
L 105.121518 84.202947 
L 105.187317 82.373888 
L 105.22022 82.609073 
L 105.368278 86.977126 
L 105.269577 82.09067 
L 105.384732 86.898568 
L 105.401181 86.363791 
L 105.417635 86.934087 
L 105.434083 86.925048 
L 105.466986 89.466148 
L 105.549239 89.038942 
L 105.664395 87.568495 
L 105.582141 89.718513 
L 105.680849 87.95448 
L 105.713745 88.97952 
L 105.746648 87.052078 
L 105.763102 87.195494 
L 105.779551 86.422994 
L 105.828908 87.939173 
L 105.861804 86.955941 
L 106.157921 91.267252 
L 106.256628 89.673956 
L 106.273077 90.823127 
L 106.289531 90.989894 
L 106.305979 90.038759 
L 106.322433 90.335805 
L 106.388232 88.213276 
L 106.437589 88.51861 
L 106.470492 90.102722 
L 106.536291 88.186946 
L 106.634999 84.152388 
L 106.684349 85.21263 
L 106.848862 90.964177 
L 106.86531 90.327903 
L 106.964018 88.44572 
L 106.996921 88.602656 
L 107.079174 88.132261 
L 107.046271 89.371756 
L 107.095622 88.618048 
L 107.112076 88.866194 
L 107.128525 87.910626 
L 107.161427 88.814554 
L 107.227232 85.620721 
L 107.309486 86.253346 
L 107.342388 87.52179 
L 107.375291 85.612617 
L 107.490446 83.447117 
L 107.506895 83.727009 
L 107.638505 88.097013 
L 107.654953 87.341608 
L 107.819466 84.475991 
L 107.852369 85.332636 
L 108.049778 91.868067 
L 107.885271 84.995822 
L 108.099128 89.145185 
L 108.164934 86.740093 
L 108.132031 90.146717 
L 108.181382 87.239172 
L 108.197836 86.029103 
L 108.247187 88.20955 
L 108.280089 87.570142 
L 108.296544 87.637432 
L 108.32944 88.765174 
L 108.395245 87.387622 
L 108.428148 87.246332 
L 108.526855 90.438442 
L 108.543304 90.326737 
L 108.691362 85.120424 
L 108.707816 85.339423 
L 108.724265 86.275384 
L 108.757167 84.948547 
L 108.773615 85.144649 
L 108.822972 83.003516 
L 108.872323 86.592985 
L 108.888771 86.463997 
L 108.905226 87.122703 
L 108.938128 87.85487 
L 108.971031 86.820666 
L 109.069732 83.310891 
L 109.086187 84.337252 
L 109.151986 85.851759 
L 109.201342 84.757572 
L 109.217791 84.49529 
L 109.234245 85.101139 
L 109.250693 84.851574 
L 109.365849 87.207564 
L 109.300044 84.669479 
L 109.382304 85.946202 
L 109.54681 90.156789 
L 109.596161 86.992544 
L 109.67842 89.03601 
L 109.694868 88.725192 
L 109.711317 90.718089 
L 109.777122 88.648786 
L 109.810024 89.39614 
L 109.958083 84.228008 
L 109.990985 84.280737 
L 110.007433 84.492276 
L 110.05679 87.841316 
L 110.122589 85.198871 
L 110.155492 84.723824 
L 110.171946 85.452633 
L 110.254199 81.361131 
L 110.30355 82.769511 
L 110.320005 83.058419 
L 110.402258 80.725655 
L 110.43516 81.565346 
L 110.468063 82.723132 
L 110.517414 81.8848 
L 110.550316 80.267892 
L 110.599667 83.952735 
L 110.747726 89.311708 
L 110.912238 88.967 
L 111.01094 85.739303 
L 111.060291 87.910969 
L 111.175453 90.80024 
L 111.191901 90.736873 
L 111.339959 82.852198 
L 111.38931 80.336592 
L 111.438667 83.353309 
L 111.471563 83.165571 
L 111.488018 84.167536 
L 111.537368 78.948403 
L 111.603173 83.196742 
L 111.652524 81.815019 
L 111.685427 84.06366 
L 111.701881 83.631618 
L 111.817037 86.466196 
L 111.84994 86.088157 
L 111.866388 85.350712 
L 111.915739 87.196472 
L 111.981544 89.081737 
L 112.047349 88.234628 
L 112.146057 85.750391 
L 112.162505 86.283642 
L 112.261212 88.390745 
L 112.294115 87.98057 
L 112.310563 87.933715 
L 112.327011 88.645824 
L 112.392816 87.129083 
L 112.442167 86.642421 
L 112.458621 87.733041 
L 112.47507 87.587421 
L 112.524427 88.806223 
L 112.557329 87.590482 
L 112.623128 84.947252 
L 112.672485 86.171264 
L 112.705388 86.473073 
L 112.738284 86.300132 
L 112.869894 82.855083 
L 112.771186 86.316164 
L 112.886342 84.368625 
L 113.001498 87.388887 
L 113.017952 86.173999 
L 113.149557 88.135872 
L 113.198914 87.093466 
L 113.215362 87.086511 
L 113.346972 83.774773 
L 113.49503 87.307144 
L 113.577284 82.682249 
L 113.643089 84.504997 
L 113.774693 86.198627 
L 113.675985 84.269705 
L 113.791147 85.374616 
L 114.005005 78.864537 
L 114.136615 83.327313 
L 114.20242 85.631654 
L 114.301121 89.033373 
L 114.350478 88.918533 
L 114.366926 88.886475 
L 114.531433 82.800124 
L 114.547887 84.421303 
L 114.630141 83.153952 
L 114.712394 81.45982 
L 114.794647 82.711757 
L 114.860453 79.213923 
L 114.893355 80.248971 
L 114.909803 80.032703 
L 114.942706 77.092118 
L 115.024965 77.201353 
L 115.041414 78.208322 
L 115.107219 75.526023 
L 115.255277 77.94059 
L 115.28818 73.897967 
L 115.386881 74.452553 
L 115.452686 71.652598 
L 115.502037 72.757379 
L 115.551394 77.231637 
L 115.633647 76.063064 
L 115.748803 78.758342 
L 115.765251 78.101745 
L 115.798154 77.523568 
L 115.847511 79.01117 
L 115.863959 79.605524 
L 115.91331 77.460124 
L 116.094271 72.016492 
L 116.127173 73.757115 
L 116.192978 73.488478 
L 116.242329 76.921201 
L 116.308134 74.94695 
L 116.357485 75.498012 
L 116.439738 78.118222 
L 116.456193 80.153292 
L 116.538446 79.115612 
L 116.554894 78.276362 
L 116.604251 79.753348 
L 116.653602 78.440616 
L 116.670056 78.502933 
L 116.686504 77.70117 
L 116.719407 80.371849 
L 116.735855 80.252435 
L 116.851011 83.255504 
L 116.867465 82.942306 
L 116.883913 81.557543 
L 116.966167 83.653446 
L 117.114225 87.130232 
L 117.245835 83.973131 
L 117.393894 86.518578 
L 117.278738 83.297561 
L 117.410342 85.830595 
L 117.492602 84.241356 
L 117.443245 86.276027 
L 117.5584 84.672656 
L 117.574855 84.651805 
L 117.624206 86.258744 
L 117.690011 85.1429 
L 117.706459 83.819428 
L 117.805167 84.062665 
L 117.969673 88.676411 
L 117.854517 82.983862 
L 118.035478 87.090143 
L 118.068381 86.489731 
L 118.084829 88.231811 
L 118.117731 89.988148 
L 118.199991 88.740374 
L 118.413848 85.676708 
L 118.430303 86.855739 
L 118.479653 87.906467 
L 118.512556 86.280602 
L 118.529004 86.940145 
L 118.545459 86.860653 
L 118.677063 84.027249 
L 118.825121 89.586282 
L 118.858024 89.879307 
L 118.989634 86.703383 
L 119.022536 86.954856 
L 119.038985 86.460468 
L 119.071887 88.282375 
L 119.10479 87.205797 
L 119.137692 89.434033 
L 119.236394 88.595273 
L 119.318647 87.781723 
L 119.335101 88.384116 
L 119.450257 90.6464 
L 119.400907 87.995461 
L 119.48316 89.437635 
L 119.664121 82.853651 
L 119.762822 83.01941 
L 119.877978 87.005128 
L 119.910881 85.7773 
L 119.993134 85.164197 
L 119.960238 86.013115 
L 120.009588 85.295449 
L 120.141192 86.887922 
L 120.256355 88.141587 
L 120.174095 86.57138 
L 120.272803 88.095426 
L 120.420861 84.133376 
L 120.486666 85.769655 
L 120.552465 85.133489 
L 120.585368 85.165256 
L 120.700523 82.170132 
L 120.980192 87.222283 
L 121.062445 82.421129 
L 121.128251 82.759015 
L 121.144699 81.854469 
L 121.194056 82.762093 
L 121.243406 82.044453 
L 121.276309 82.173369 
L 121.407913 77.250511 
L 121.473718 78.501651 
L 121.621777 83.741094 
L 121.786283 85.525994 
L 121.802738 85.047316 
L 121.901445 83.708092 
L 121.917893 84.862653 
L 122.065952 87.094538 
L 122.0824 86.519517 
L 122.115303 87.634327 
L 122.148205 87.35456 
L 122.312718 88.950124 
L 122.181108 86.913545 
L 122.345614 88.639324 
L 122.59238 82.947503 
L 122.608829 83.579197 
L 122.658186 81.709496 
L 122.674634 82.216074 
L 122.691088 81.275521 
L 122.756887 83.315106 
L 122.773341 81.812399 
L 122.78979 82.165518 
L 122.806244 80.236043 
L 122.839147 80.844122 
L 122.872049 79.579828 
L 123.020101 83.571986 
L 123.085906 81.290814 
L 123.135263 81.550738 
L 123.316218 85.560917 
L 123.332673 85.434171 
L 123.349121 83.560919 
L 123.398478 86.540779 
L 123.414926 85.460021 
L 123.464277 88.476446 
L 123.530082 87.966155 
L 123.612335 86.089495 
L 123.694594 86.291617 
L 123.842647 88.448212 
L 124.007159 80.560702 
L 124.023608 80.584837 
L 124.05651 81.735766 
L 124.105867 78.651511 
L 124.122315 78.677267 
L 124.253919 81.445272 
L 124.286822 80.073749 
L 124.319725 82.923123 
L 124.451335 81.264034 
L 124.484237 81.841846 
L 124.51714 81.071108 
L 124.533588 81.022414 
L 124.582939 85.50237 
L 124.648744 81.739844 
L 124.7639 86.640316 
L 124.829705 86.260742 
L 124.846153 84.706777 
L 124.928413 86.617523 
L 124.944861 86.425202 
L 124.961309 86.941924 
L 125.027114 90.602041 
L 125.092919 89.569085 
L 125.14227 90.682896 
L 125.224523 88.697112 
L 125.306783 90.826167 
L 125.339685 89.471494 
L 125.356133 89.130427 
L 125.405484 90.027255 
L 125.421939 89.567336 
L 125.438387 90.515551 
L 125.487738 88.933544 
L 125.537095 90.109848 
L 125.619348 91.180462 
L 125.6029 89.754511 
L 125.635796 89.894708 
L 125.767406 88.097793 
L 125.685153 89.968408 
L 125.783854 88.802365 
L 125.816757 89.551694 
L 125.849659 89.365402 
L 125.98127 87.598054 
L 126.047069 89.450013 
L 126.096426 88.220844 
L 126.162231 85.615413 
L 126.211581 85.996706 
L 126.310283 87.837749 
L 126.35964 87.255735 
L 126.540601 83.441342 
L 126.557049 83.921748 
L 126.6064 85.912077 
L 126.655757 83.979125 
L 126.672205 84.060825 
L 126.836718 80.807441 
L 126.935419 85.99638 
L 126.984776 85.217059 
L 127.050575 87.536754 
L 127.083478 84.793142 
L 127.099932 84.649708 
L 127.198633 81.114628 
L 127.231536 82.3789 
L 127.330244 81.217329 
L 127.363146 81.545353 
L 127.396049 80.710683 
L 127.428945 83.655731 
L 127.461848 83.650029 
L 127.544101 85.148315 
L 127.642809 80.520132 
L 127.692159 82.119885 
L 127.708614 82.416721 
L 127.725062 80.84666 
L 127.741516 80.8051 
L 127.807321 82.70683 
L 127.840218 81.993666 
L 127.955374 79.715347 
L 127.971828 80.294115 
L 128.037633 82.911825 
L 128.086984 80.916999 
L 128.152789 79.40422 
L 128.185692 79.807007 
L 128.218594 81.154661 
L 128.267945 78.556867 
L 128.317296 76.241626 
L 128.366653 78.843627 
L 128.399549 78.484063 
L 128.514705 81.083598 
L 128.564062 78.702324 
L 128.613412 80.604161 
L 128.679218 82.246567 
L 128.71212 80.066653 
L 128.728568 79.855796 
L 128.745023 80.932194 
L 128.794373 83.765134 
L 128.827276 80.749974 
L 128.991783 72.849267 
L 129.008237 74.413677 
L 129.205646 83.609048 
L 129.271451 85.572481 
L 129.238549 83.515423 
L 129.320802 84.786235 
L 129.353704 83.776149 
L 129.403055 86.112249 
L 129.46886 88.098535 
L 129.501763 86.705295 
L 129.518211 85.837258 
L 129.567568 88.049557 
L 129.600471 89.01678 
L 129.633367 87.453103 
L 129.649821 87.580762 
L 129.79788 85.577978 
L 129.847231 86.334781 
L 129.896581 85.08079 
L 129.929484 85.757016 
L 129.962386 85.317483 
L 130.04464 81.37516 
L 130.093997 82.821301 
L 130.110445 82.763204 
L 130.126899 83.506861 
L 130.159796 80.754318 
L 130.17625 80.981935 
L 130.192698 81.178882 
L 130.225601 80.323558 
L 130.307854 80.354412 
L 130.390113 77.882377 
L 130.472367 80.372145 
L 130.505269 79.133555 
L 130.620425 74.096402 
L 130.636873 75.728304 
L 130.653328 76.677527 
L 130.669776 75.090542 
L 130.719127 75.137222 
L 130.900088 68.440126 
L 130.982341 68.582985 
L 130.998795 71.17229 
L 131.097503 69.732122 
L 131.245562 62.776886 
L 131.26201 63.163591 
L 131.294912 63.832142 
L 131.31136 61.334853 
L 131.344263 61.834639 
L 131.393614 59.482032 
L 131.442971 62.317001 
L 131.508776 66.999122 
L 131.574575 65.748064 
L 131.607477 65.776937 
L 131.936497 57.393268 
L 132.216159 46.965765 
L 132.232613 47.218812 
L 132.380672 56.436838 
L 132.561633 46.970387 
L 132.627432 42.884442 
L 132.709691 43.949456 
L 132.77549 48.558979 
L 132.841295 45.392604 
L 133.055159 54.768723 
L 133.088061 55.911986 
L 133.120964 54.14972 
L 133.203217 52.752664 
L 133.219665 54.279862 
L 133.23612 54.264413 
L 133.28547 56.448423 
L 133.351276 55.285132 
L 133.499334 45.709506 
L 133.515782 46.781963 
L 133.663841 50.190932 
L 133.680295 50.434276 
L 133.795451 48.006245 
L 133.943509 51.36914 
L 134.075113 44.732186 
L 134.108016 45.503241 
L 134.256074 52.638463 
L 134.272529 52.273595 
L 134.338328 49.364751 
L 134.387685 51.470756 
L 134.404133 51.79571 
L 134.535743 46.358651 
L 134.552191 46.374322 
L 134.568639 49.135441 
L 134.650899 45.693239 
L 134.667347 47.427293 
L 134.683801 48.683234 
L 134.733152 45.375955 
L 134.7496 46.415608 
L 134.947016 40.883299 
L 134.996367 38.437051 
L 135.045717 40.288637 
L 135.095074 39.723374 
L 135.177327 43.734835 
L 135.226678 39.330466 
L 135.292483 43.082989 
L 135.358288 46.761439 
L 135.424087 44.467224 
L 135.45699 44.285498 
L 135.473444 44.98916 
L 135.572146 38.1821 
L 135.506347 45.231467 
L 135.605048 41.529267 
L 135.621503 41.35775 
L 135.670853 38.77281 
L 135.720204 40.952656 
L 135.736659 41.194233 
L 135.753107 40.676387 
L 135.786009 37.230275 
L 135.884717 39.193892 
L 135.901165 39.784361 
L 135.91762 37.759157 
L 135.934068 36.74649 
L 135.999873 39.065834 
L 136.131477 46.545536 
L 136.164379 46.257005 
L 136.246633 43.85181 
L 136.230185 46.370172 
L 136.29599 44.103236 
L 136.328892 43.203158 
L 136.34534 44.189648 
L 136.378243 43.426071 
L 136.394691 44.469407 
L 136.427594 40.95639 
L 136.460496 42.287554 
L 136.509847 42.231099 
L 136.526301 39.400581 
L 136.608555 42.528244 
L 136.756613 44.921279 
L 136.805964 44.480855 
L 136.904672 41.462222 
L 136.871769 45.05335 
L 136.92112 41.909566 
L 136.970477 39.880443 
L 137.019827 42.390894 
L 137.134983 45.923008 
L 137.069178 42.235065 
L 137.167886 45.154234 
L 137.233691 42.562249 
L 137.315944 43.623824 
L 137.332392 43.726513 
L 137.348847 43.723057 
L 137.365295 42.843418 
L 137.4311 45.153475 
L 137.447548 44.9727 
L 137.464003 45.420392 
L 137.480451 46.619789 
L 137.529808 44.1516 
L 137.546256 45.399906 
L 137.677866 43.405769 
L 137.694314 43.032601 
L 137.743665 44.208737 
L 137.76012 43.530942 
L 137.80947 44.625768 
L 137.842373 43.028476 
L 137.858821 41.487622 
L 137.908178 43.234337 
L 137.957529 42.574854 
L 137.973983 42.95156 
L 138.023334 38.346123 
L 138.072684 41.071161 
L 138.237197 46.600027 
L 138.335899 40.66003 
L 138.368801 41.048004 
L 138.483957 38.248151 
L 138.418152 41.963324 
L 138.500412 38.42225 
L 138.747171 45.951945 
L 138.829425 44.351875 
L 138.845879 44.270063 
L 138.862327 44.43842 
L 139.010386 47.517706 
L 139.076191 44.219319 
L 139.109093 47.765131 
L 139.125542 47.886544 
L 139.141996 47.525869 
L 139.224249 47.955248 
L 139.2736 44.879269 
L 139.40521 49.000312 
L 139.438113 47.43447 
L 139.553269 39.468703 
L 139.619074 40.572893 
L 139.635522 40.501663 
L 139.800028 34.162626 
L 139.816483 35.288241 
L 139.849385 37.436055 
L 139.915184 34.681651 
L 139.964541 33.806055 
L 139.980989 32.525309 
L 140.063243 34.660744 
L 140.096145 37.362647 
L 140.145502 33.856512 
L 140.16195 31.632512 
L 140.194853 34.443281 
L 140.244204 33.634747 
L 140.35936 36.224486 
L 140.310009 32.658221 
L 140.375814 35.563768 
L 140.392262 35.283233 
L 140.408717 35.734308 
L 140.507418 39.622714 
L 140.556775 39.396461 
L 140.589678 39.738934 
L 140.688379 34.589403 
L 140.721282 36.494361 
L 140.819989 40.925721 
L 140.852892 39.648221 
L 140.968048 35.939085 
L 140.984496 36.859632 
L 141.099652 39.5132 
L 141.149002 38.207363 
L 141.231262 39.647372 
L 141.181905 37.94999 
L 141.24771 38.453009 
L 141.297061 35.729875 
L 141.329963 38.094517 
L 141.346418 38.992644 
L 141.37932 36.950568 
L 141.412223 37.375029 
L 141.428671 36.924941 
L 141.461574 38.80275 
L 141.478022 37.724637 
L 141.494476 38.250552 
L 141.510924 36.470196 
L 141.543827 37.208198 
L 141.62608 32.404 
L 141.675437 34.765341 
L 141.741236 33.097483 
L 141.757691 35.639886 
L 141.872846 38.816333 
L 141.807041 34.938972 
L 141.889295 36.696132 
L 141.922197 35.866864 
L 141.938652 36.382038 
L 141.988002 37.718081 
L 142.037353 36.133571 
L 142.053807 36.187368 
L 142.070256 37.192763 
L 142.136061 34.471167 
L 142.152509 33.958072 
L 142.185411 35.797229 
L 142.33347 41.573867 
L 142.218314 35.719537 
L 142.382821 38.804804 
L 142.415723 35.303535 
L 142.497983 36.710894 
L 142.547333 33.881924 
L 142.530879 37.042164 
L 142.596684 36.953329 
L 142.678937 39.683448 
L 142.646041 36.231942 
L 142.71184 37.153252 
L 142.728294 35.947488 
L 142.777645 40.239273 
L 142.810548 39.352015 
L 142.826996 39.370465 
L 142.876353 36.818269 
L 142.925703 37.768898 
L 143.024411 40.73773 
L 143.057314 37.551499 
L 143.123113 41.357583 
L 143.188918 37.776912 
L 143.254723 39.920986 
L 143.271171 40.621686 
L 143.304074 38.345519 
L 143.369879 35.683474 
L 143.41923 37.482331 
L 143.435684 38.908654 
L 143.485035 35.137347 
L 143.517937 36.540393 
L 143.633093 39.422641 
L 143.649541 37.383501 
L 143.665996 37.294585 
L 143.748249 36.846915 
L 143.814054 40.165059 
L 143.912755 37.140033 
L 143.92921 38.241076 
L 143.945658 38.707046 
L 143.995015 37.411225 
L 144.192424 32.195716 
L 144.027918 38.066948 
L 144.208872 33.273709 
L 144.356931 36.518037 
L 144.373385 35.543753 
L 144.43919 37.624813 
L 144.455639 36.749882 
L 144.521444 37.924504 
L 144.537892 37.694765 
L 144.669502 33.230039 
L 144.68595 34.799106 
L 144.718853 30.562043 
L 144.751755 31.183774 
L 144.932716 38.153039 
L 144.801106 31.030251 
L 144.982067 37.69134 
L 145.130125 32.466367 
L 145.146574 33.526614 
L 145.195931 36.573798 
L 145.261736 33.923664 
L 145.278184 33.974151 
L 145.360437 36.132855 
L 145.39334 35.977472 
L 145.409788 35.30059 
L 145.44269 36.330793 
L 145.475593 35.750009 
L 145.492047 37.163843 
L 145.541398 33.772607 
L 145.574301 34.721294 
L 145.640106 36.491017 
L 145.673008 34.60997 
L 145.722359 32.292577 
L 145.738807 34.805126 
L 145.804612 38.248846 
L 145.853963 36.750302 
L 146.067827 25.477607 
L 146.133632 30.748366 
L 146.182983 28.540067 
L 146.199437 27.142154 
L 146.265236 30.085543 
L 146.314593 34.355033 
L 146.380392 32.314491 
L 146.544904 27.968541 
L 146.561353 29.59426 
L 146.643606 33.031141 
L 146.676508 31.388958 
L 146.742314 28.485122 
L 146.808119 30.361323 
L 146.890372 32.044376 
L 146.923275 31.470465 
L 146.956177 29.535974 
L 146.98908 30.588691 
L 147.03843 33.698637 
L 147.104236 32.460519 
L 147.120684 31.790866 
L 147.153586 33.118685 
L 147.219392 37.37322 
L 147.252294 35.002399 
L 147.268742 33.288222 
L 147.350996 35.358121 
L 147.433255 38.561734 
L 147.466151 37.898256 
L 147.531956 32.683308 
L 147.597762 34.02414 
L 147.61421 33.803324 
L 147.630664 30.894415 
L 147.729372 31.426363 
L 147.992586 37.244934 
L 148.041937 35.898695 
L 148.140645 32.995841 
L 148.157093 34.720239 
L 148.173541 34.229959 
L 148.206443 34.789231 
L 148.222898 36.363031 
L 148.288697 33.56239 
L 148.321599 35.619807 
L 148.338054 35.867854 
L 148.354502 35.035298 
L 148.45321 33.012606 
L 148.469658 34.362811 
L 148.519015 32.983994 
L 148.568365 34.893266 
L 148.584814 35.673137 
L 148.601268 33.822082 
L 148.634171 34.757224 
L 148.716424 32.079294 
L 148.683521 35.957937 
L 148.749326 33.988557 
L 148.765775 33.880964 
L 148.782229 32.676165 
L 148.83158 36.488033 
L 148.848028 35.783899 
L 148.864482 35.447518 
L 148.88093 35.817959 
L 148.930287 38.11406 
L 148.979638 37.590885 
L 149.144145 29.606518 
L 149.292203 33.597895 
L 149.325106 32.256767 
L 149.34156 30.994261 
L 149.374463 34.28379 
L 149.407359 33.407705 
L 149.522521 35.933159 
L 149.58832 33.408074 
L 149.621222 34.805404 
L 149.736378 38.871824 
L 149.752833 37.061257 
L 149.851534 32.5046 
L 149.933794 34.578688 
L 149.999593 35.922127 
L 150.016047 34.034341 
L 150.032495 33.075985 
L 150.081846 35.774474 
L 150.0983 35.392349 
L 150.147651 37.318763 
L 150.197008 34.650463 
L 150.246359 36.641984 
L 150.328612 35.426071 
L 150.377963 32.042206 
L 150.460222 34.615604 
L 150.493119 34.828424 
L 150.558924 30.894098 
L 150.591826 34.80579 
L 150.608281 35.070045 
L 150.624729 33.413421 
L 150.690534 35.502554 
L 150.706982 34.327236 
L 150.723437 34.673912 
L 150.756339 33.915985 
L 150.772787 34.202132 
L 150.838592 34.927623 
L 150.937294 30.637128 
L 151.05245 38.033826 
L 151.118255 37.990071 
L 151.134709 37.335047 
L 151.167612 39.133222 
L 151.18406 39.129818 
L 151.200508 40.014851 
L 151.249865 37.55664 
L 151.266313 37.86401 
L 151.282768 38.062806 
L 151.299216 37.361124 
L 151.315664 37.518081 
L 151.348567 36.367551 
L 151.381469 36.538502 
L 151.414378 41.151807 
L 151.513079 40.747095 
L 151.529534 41.956301 
L 151.56243 40.013826 
L 151.611781 40.978086 
L 151.710495 36.328615 
L 151.759846 37.725671 
L 151.809196 40.875856 
L 151.875001 40.357414 
L 151.990157 37.337307 
L 151.957248 41.042867 
L 152.006599 37.350084 
L 152.039508 37.816649 
L 152.072404 37.065236 
L 152.154664 38.220406 
L 152.171118 36.48829 
L 152.220469 34.469757 
L 152.253365 36.455211 
L 152.40143 41.17126 
L 152.450781 38.699277 
L 152.53304 39.867288 
L 152.582391 42.215231 
L 152.648196 40.831389 
L 152.746898 43.82036 
L 152.779794 42.616629 
L 152.796248 42.577131 
L 152.812703 43.245262 
L 152.845599 41.00352 
L 152.862053 41.592836 
L 152.878508 40.684208 
L 152.911404 43.89012 
L 152.960755 46.026712 
L 153.02656 44.003909 
L 153.125261 39.989404 
L 153.174625 41.174737 
L 153.191066 40.978695 
L 153.207521 41.304125 
L 153.28978 39.863558 
L 153.339131 43.962362 
L 153.372027 43.972056 
L 153.520092 39.994699 
L 153.618794 45.224795 
L 153.684599 44.91718 
L 153.701053 44.354949 
L 153.733949 45.780946 
L 153.914911 50.962069 
L 153.947807 52.419469 
L 153.964261 51.687268 
L 154.030066 57.901779 
L 154.112326 57.385164 
L 154.128768 57.896724 
L 154.161677 56.388165 
L 154.260378 51.11948 
L 154.309729 51.846823 
L 154.49069 58.775472 
L 154.605846 63.619686 
L 154.638754 61.195733 
L 154.75391 56.228429 
L 154.770352 56.451711 
L 154.803261 62.056108 
L 154.885508 58.775403 
L 154.934871 54.837724 
L 155.033573 55.498874 
L 155.066469 52.970826 
L 155.115832 57.128109 
L 155.148729 56.507455 
L 155.181625 58.528903 
L 155.313235 63.447097 
L 155.411949 59.746797 
L 155.428391 61.35067 
L 155.444845 61.219148 
L 155.4613 61.666818 
L 155.560001 61.377219 
L 155.609352 64.25954 
L 155.642261 61.773597 
L 155.740962 61.802191 
L 155.773859 62.651173 
L 155.790313 60.730668 
L 155.839664 57.947863 
L 155.856118 59.5596 
L 155.971274 64.58654 
L 155.987728 62.175917 
L 156.053533 65.487068 
L 156.08643 62.688081 
L 156.201586 55.391139 
L 156.250936 59.535134 
L 156.366092 64.070799 
L 156.399001 63.335018 
L 156.464806 59.869706 
L 156.530599 56.688864 
L 156.563508 59.398389 
L 156.596404 61.190455 
L 156.662209 60.535178 
L 156.678664 59.160285 
L 156.728014 61.504171 
L 156.744469 61.494679 
L 156.810274 68.599775 
L 156.876079 67.250299 
L 156.908975 67.988292 
L 156.941871 67.559921 
L 157.073482 70.901458 
L 157.221546 66.897776 
L 157.237988 67.11093 
L 157.270897 64.657731 
L 157.336702 67.277165 
L 157.369599 67.615501 
L 157.534105 61.770827 
L 157.55056 62.557725 
L 157.583468 60.094248 
L 157.59991 60.965509 
L 157.616365 60.149318 
L 157.632819 63.569036 
L 157.68217 60.706627 
L 157.764429 65.325609 
L 157.830222 64.641944 
L 157.896027 65.628045 
L 157.863131 64.460016 
L 157.912482 64.605298 
L 157.978287 60.31786 
L 158.044092 61.45892 
L 158.060534 63.036797 
L 158.093443 61.266539 
L 158.159248 62.026099 
L 158.175702 62.341667 
L 158.192144 60.954452 
L 158.290858 56.226131 
L 158.340209 57.010577 
L 158.422456 61.492668 
L 158.373105 56.635307 
L 158.488261 59.64699 
L 158.57052 57.580804 
L 158.537612 60.579156 
L 158.603417 58.559924 
L 158.619871 58.503032 
L 158.652767 55.533861 
L 158.718573 58.384792 
L 158.735027 58.496789 
L 158.850183 61.605522 
L 158.866637 60.89265 
L 158.915988 56.143209 
L 158.998247 57.695605 
L 159.031144 57.174372 
L 159.06404 58.299499 
L 159.1463 61.915191 
L 159.179196 58.925302 
L 159.19565 57.826849 
L 159.245001 61.740183 
L 159.294352 61.196338 
L 159.310806 62.497381 
L 159.327261 62.055152 
L 159.40952 63.268372 
L 159.376611 61.570659 
L 159.425962 61.630523 
L 159.524676 58.268109 
L 159.541118 59.458871 
L 159.590469 63.401601 
L 159.639832 59.224711 
L 159.672728 62.77229 
L 159.738533 56.88395 
L 159.820793 57.522347 
L 159.837235 57.739484 
L 159.853689 56.552162 
L 159.870144 55.127494 
L 159.935949 57.469755 
L 159.952391 55.65078 
L 159.968845 56.444573 
L 160.018196 53.481387 
L 160.03465 54.391961 
L 160.067546 53.164168 
L 160.116897 56.242064 
L 160.199157 59.178863 
L 160.232066 56.969973 
L 160.248507 56.918183 
L 160.363663 53.873533 
L 160.380118 54.010771 
L 160.429468 57.274793 
L 160.478819 53.997736 
L 160.495274 54.192879 
L 160.626884 59.146663 
L 160.643338 58.968899 
L 160.676235 56.810323 
L 160.725585 59.421212 
L 160.774936 58.536231 
L 160.840741 60.850983 
L 160.857196 60.116896 
L 160.890092 62.009291 
L 160.906546 62.005222 
L 161.021702 64.487376 
L 160.955897 61.188718 
L 161.038157 63.734337 
L 161.169767 59.791268 
L 161.186209 59.78855 
L 161.268468 57.499168 
L 161.301365 57.968855 
L 161.482326 61.184787 
L 161.49878 60.914187 
L 161.531676 62.168139 
L 161.646832 63.839902 
L 161.564585 62.101539 
L 161.663286 63.293711 
L 161.877156 58.765893 
L 161.959403 60.141009 
L 161.992312 59.513593 
L 162.107468 55.660826 
L 162.156819 55.750219 
L 162.20617 59.040631 
L 162.239066 55.37034 
L 162.25552 55.610579 
L 162.271975 55.319244 
L 162.288429 56.351171 
L 162.33778 57.649046 
L 162.370676 56.499111 
L 162.436481 53.418865 
L 162.403585 57.585975 
L 162.502286 54.445479 
L 162.518741 54.79381 
L 162.535183 53.595639 
L 162.568092 51.37308 
L 162.617442 53.881816 
L 162.633897 51.97462 
L 162.781949 57.29554 
L 162.798403 57.393054 
L 162.847754 54.612598 
L 162.897105 56.652732 
L 162.913559 58.070591 
L 162.96291 53.129091 
L 163.01226 57.545466 
L 163.061611 58.729088 
L 163.09452 58.326519 
L 163.127416 56.790609 
L 163.176767 59.323639 
L 163.259027 61.583124 
L 163.291923 60.729922 
L 163.324832 61.495369 
L 163.341286 60.220506 
L 163.374183 56.637991 
L 163.472884 56.902799 
L 163.489338 57.153517 
L 163.653845 49.330172 
L 163.686754 49.184568 
L 163.769001 46.014874 
L 163.80191 48.411781 
L 163.834806 47.921736 
L 163.949962 51.902875 
L 164.048676 48.832272 
L 164.081572 53.145804 
L 164.163832 51.600088 
L 164.213182 47.702965 
L 164.295429 49.456481 
L 164.394143 52.991501 
L 164.427039 50.949635 
L 164.542195 47.875121 
L 164.47639 51.264119 
L 164.55865 48.045597 
L 164.723156 53.702555 
L 164.608001 47.371875 
L 164.739611 53.513467 
L 164.788962 49.019525 
L 164.854767 51.44178 
L 164.871221 51.61858 
L 164.904117 47.374045 
L 164.986377 50.133101 
L 165.002819 49.465922 
L 165.035728 52.376974 
L 165.068624 53.187415 
L 165.085078 51.434397 
L 165.101533 51.820364 
L 165.18378 47.112003 
L 165.282494 47.892829 
L 165.298936 48.530347 
L 165.331845 46.409742 
L 165.381195 47.645918 
L 165.39765 46.878722 
L 165.463442 47.85548 
L 165.562156 52.046274 
L 165.578611 49.519011 
L 165.644403 46.954381 
L 165.693766 47.473466 
L 165.710208 49.546148 
L 165.776013 47.180991 
L 165.792468 47.30892 
L 165.891169 44.848835 
L 165.858273 47.458755 
L 165.924078 45.756687 
L 166.006325 44.744397 
L 166.105039 52.182711 
L 166.15439 51.245549 
L 166.170832 52.640856 
L 166.187286 55.365675 
L 166.236637 51.155492 
L 166.285988 53.395493 
L 166.466949 47.580948 
L 166.64791 54.965816 
L 166.680818 52.619941 
L 166.730169 49.013625 
L 166.845325 50.78737 
L 166.861779 50.916436 
L 166.878221 50.206531 
L 166.894676 49.790495 
L 166.927585 51.288357 
L 166.944026 51.46264 
L 166.960481 51.051792 
L 167.04274 49.457921 
L 167.059182 51.00299 
L 167.075637 51.669933 
L 167.108533 48.562474 
L 167.124987 49.263118 
L 167.141442 48.970792 
L 167.256598 51.901387 
L 167.273052 51.456671 
L 167.338857 49.094507 
L 167.322403 51.706635 
L 167.388208 50.939722 
L 167.40465 51.142217 
L 167.454013 53.975608 
L 167.519806 52.465681 
L 167.585611 51.962237 
L 167.602065 53.740882 
L 167.75013 47.415532 
L 167.914637 55.902931 
L 167.963987 54.589616 
L 168.227195 45.239351 
L 168.276559 49.426617 
L 168.342364 48.112317 
L 168.424611 48.216124 
L 168.457519 45.561652 
L 168.490416 47.403857 
L 168.523312 45.449522 
L 168.556221 45.618746 
L 168.572675 45.647173 
L 168.589117 45.148394 
L 168.605572 47.058686 
L 168.720728 51.811828 
L 168.770078 49.634528 
L 168.802987 53.14095 
L 168.835883 49.230909 
L 168.934585 53.01113 
L 168.967494 51.082615 
L 169.049741 51.951857 
L 169.066195 52.034887 
L 169.099104 50.184179 
L 169.164909 52.101808 
L 169.181351 51.671099 
L 169.230702 52.987033 
L 169.280065 51.411291 
L 169.296507 51.833587 
L 169.312961 51.164963 
L 169.362312 52.301053 
L 169.477468 55.290693 
L 169.493922 54.893313 
L 169.576182 51.535979 
L 169.625532 52.983526 
L 169.691338 51.609581 
L 169.724234 51.88846 
L 169.773585 53.732474 
L 169.806493 51.536189 
L 169.83939 52.220665 
L 170.053247 48.08792 
L 170.135507 51.175579 
L 170.168403 49.545886 
L 170.184857 49.677207 
L 170.332922 43.546887 
L 170.415169 43.904831 
L 170.448078 44.476434 
L 170.513883 41.112022 
L 170.530325 40.250631 
L 170.563234 41.51541 
L 170.59613 40.301997 
L 170.661935 45.944009 
L 170.72774 45.398045 
L 170.777091 47.088524 
L 170.859351 46.068928 
L 170.875792 45.950376 
L 170.908701 43.734625 
L 170.958052 46.764041 
L 171.35287 54.668517 
L 171.007403 46.062754 
L 171.369325 53.220996 
L 171.43513 51.391375 
L 171.500935 51.883191 
L 171.550286 51.185287 
L 171.648987 55.066056 
L 171.681896 53.379423 
L 171.698338 55.424947 
L 171.747701 54.475167 
L 171.846403 57.065921 
L 171.780597 54.096219 
L 171.862857 56.388083 
L 171.945104 54.229263 
L 171.978013 54.707539 
L 172.010909 54.803731 
L 172.027364 54.092823 
L 172.043818 56.072733 
L 172.126065 53.707649 
L 172.158974 50.998445 
L 172.241221 52.532906 
L 172.339922 52.227139 
L 172.372831 55.138277 
L 172.471532 52.889263 
L 172.586688 48.494211 
L 172.603143 48.70812 
L 172.652493 46.367801 
L 172.701844 48.32193 
L 172.734753 50.795028 
L 172.800558 47.943633 
L 172.849909 45.53536 
L 172.866363 48.577768 
L 172.932156 46.209879 
L 172.965065 48.853256 
L 173.014416 45.041469 
L 173.063766 46.921277 
L 173.129571 44.320897 
L 173.211831 47.217354 
L 173.162468 44.287706 
L 173.244727 44.525052 
L 173.277636 42.605802 
L 173.359883 43.221787 
L 173.475039 46.900327 
L 173.491493 46.422086 
L 173.52439 45.755804 
L 173.590195 49.165999 
L 173.721805 52.632126 
L 173.869857 47.17567 
L 174.083727 52.169625 
L 174.100181 50.92174 
L 174.116623 49.955482 
L 174.149532 52.802366 
L 174.165974 52.325154 
L 174.231779 52.233823 
L 174.264688 53.220722 
L 174.330493 47.738402 
L 174.41274 50.402479 
L 174.429195 49.667337 
L 174.478545 52.35515 
L 174.495 51.831838 
L 174.527896 53.664477 
L 174.593701 52.371233 
L 174.692403 57.423693 
L 174.873364 49.860417 
L 174.988519 52.694644 
L 175.004974 52.44474 
L 175.087233 49.141006 
L 175.136584 49.654963 
L 175.16948 49.032118 
L 175.25174 42.173002 
L 175.301091 44.426085 
L 175.333999 43.63312 
L 175.432701 46.660345 
L 175.449155 46.865559 
L 175.465597 45.574472 
L 175.514948 47.754991 
L 175.531402 47.31419 
L 175.613662 50.603157 
L 175.646558 48.597829 
L 175.712363 49.156789 
L 175.761714 47.384897 
L 175.926221 52.019267 
L 175.992026 49.543159 
L 176.00848 50.612697 
L 176.074285 53.696943 
L 176.107182 52.016767 
L 176.123636 50.57936 
L 176.172987 53.577893 
L 176.189441 53.169382 
L 176.288143 55.406798 
L 176.238792 51.696358 
L 176.304597 54.810068 
L 176.403298 47.478851 
L 176.419753 50.696717 
L 176.502012 54.713348 
L 176.518454 53.821121 
L 176.567818 49.69281 
L 176.63361 52.642896 
L 176.650065 52.672288 
L 176.71587 43.83592 
L 176.814571 45.602097 
L 176.913285 48.933949 
L 176.946182 47.955982 
L 177.044883 43.000293 
L 177.077792 44.519186 
L 177.094246 44.27315 
L 177.110688 45.422883 
L 177.127142 44.861728 
L 177.258753 48.346211 
L 177.275195 48.627251 
L 177.373909 54.113506 
L 177.406805 53.623234 
L 177.423259 53.71658 
L 177.439714 53.19816 
L 177.456156 53.318561 
L 177.60422 48.857809 
L 177.521961 53.69326 
L 177.637117 49.664186 
L 177.686467 50.986427 
L 177.719376 49.748197 
L 177.768727 45.150551 
L 177.834532 48.073402 
L 177.867428 46.492935 
L 177.883883 47.693519 
L 177.999038 43.180939 
L 178.09774 47.811648 
L 178.147103 45.968066 
L 178.31161 39.609465 
L 178.377415 41.087621 
L 178.344506 39.264938 
L 178.426766 40.729953 
L 178.476116 38.31439 
L 178.509025 41.790966 
L 178.541922 39.743556 
L 178.739337 47.2082 
L 178.805129 45.826772 
L 178.821584 45.534027 
L 178.838038 46.999178 
L 178.887389 45.968937 
L 178.953194 48.647622 
L 179.035454 43.111617 
L 179.06835 45.325936 
L 179.101246 47.068599 
L 179.167051 46.813615 
L 179.183506 44.381279 
L 179.265765 47.807433 
L 179.282207 46.256439 
L 179.331571 50.944884 
L 179.348012 51.787144 
L 179.397363 50.583142 
L 179.413818 51.065113 
L 179.528973 46.107285 
L 179.545428 46.797356 
L 179.561882 47.970967 
L 179.594779 45.970112 
L 179.644129 46.44921 
L 179.660584 46.806913 
L 179.709935 45.549342 
L 179.726389 44.834742 
L 179.759285 47.115051 
L 179.857999 50.655487 
L 179.808636 46.825881 
L 179.890896 49.866814 
L 180.038948 45.809875 
L 180.203467 42.172234 
L 180.236363 42.420474 
L 180.302168 44.886704 
L 180.335064 43.401683 
L 180.351519 41.409536 
L 180.417324 44.800634 
L 180.45022 44.451399 
L 180.631181 48.498644 
L 180.66409 44.407815 
L 180.746337 44.551022 
L 180.894402 47.495187 
L 180.812142 43.286963 
L 180.910856 47.361208 
L 180.993103 43.491281 
L 181.042454 45.590542 
L 181.058908 44.941491 
L 181.091817 47.515558 
L 181.124714 46.412491 
L 181.141168 47.920454 
L 181.174064 45.867873 
L 181.223415 47.679786 
L 181.28922 45.657476 
L 181.305675 47.482166 
L 181.338571 49.579085 
L 181.404376 46.341059 
L 181.42083 46.035193 
L 181.453727 50.442358 
L 181.535986 47.552534 
L 181.651142 50.357262 
L 181.684038 49.89001 
L 181.700493 48.803292 
L 181.733402 52.372013 
L 181.815649 56.806212 
L 181.864999 54.350534 
L 181.930804 48.697761 
L 181.99661 51.141922 
L 182.177571 57.821219 
L 182.243376 57.086425 
L 182.325635 53.374265 
L 182.358532 55.51834 
L 182.457233 51.503668 
L 182.523038 51.790552 
L 182.555947 54.883721 
L 182.638194 52.420373 
L 182.671103 51.409147 
L 182.687545 52.873656 
L 182.703999 54.285045 
L 182.75335 51.015973 
L 182.769804 51.075078 
L 182.786259 51.230259 
L 182.802701 50.493617 
L 182.835609 51.117761 
L 183.065921 45.647829 
L 183.082376 48.297285 
L 183.181077 46.493741 
L 183.197531 46.979541 
L 183.263337 45.937388 
L 183.427843 41.282236 
L 183.477194 36.789392 
L 183.542999 40.915859 
L 183.559453 40.966286 
L 183.6417 39.51172 
L 183.658155 41.625404 
L 183.839116 50.683502 
L 184.085882 44.008154 
L 184.102324 44.884573 
L 184.135233 43.033407 
L 184.168129 43.145746 
L 184.21748 40.671182 
L 184.283285 42.442371 
L 184.299739 43.996363 
L 184.365544 41.413442 
L 184.381999 42.424968 
L 184.464246 39.609581 
L 184.497155 41.807418 
L 184.546505 45.294272 
L 184.595856 41.253231 
L 184.628752 41.193478 
L 184.694557 42.446921 
L 184.760363 44.371945 
L 184.727466 42.435323 
L 184.793271 42.928952 
L 184.809713 42.485591 
L 184.842622 44.275049 
L 184.859064 43.758799 
L 184.957778 45.531 
L 184.941324 43.60032 
L 184.990674 44.989358 
L 185.155181 39.935779 
L 185.171635 40.996522 
L 185.385493 49.24502 
L 185.401947 48.344911 
L 185.467752 50.640292 
L 185.500661 52.487496 
L 185.566454 49.548673 
L 185.632259 44.114842 
L 185.698064 47.603994 
L 185.714518 47.458194 
L 185.730973 47.691577 
L 185.763869 48.866933 
L 185.780323 47.47549 
L 185.829674 48.423242 
L 185.895479 49.653539 
L 185.928376 47.371245 
L 185.94483 48.757556 
L 185.994181 46.272071 
L 186.010635 46.556859 
L 186.043531 44.126003 
L 186.125791 45.844995 
L 186.191596 49.094657 
L 186.224492 47.471601 
L 186.323206 40.857908 
L 186.372557 42.843517 
L 186.405454 45.451944 
L 186.471259 43.821441 
L 186.520609 42.367428 
L 186.56996 44.475328 
L 186.586414 43.51196 
L 186.602869 42.796554 
L 186.668674 44.603331 
L 186.685116 44.902486 
L 186.734479 44.490896 
L 186.800272 42.657078 
L 186.816726 45.047704 
L 186.931882 50.706891 
L 186.948336 49.707413 
L 187.096389 42.344931 
L 187.112843 43.982209 
L 187.293804 48.707031 
L 187.376064 49.346825 
L 187.40896 46.163024 
L 187.425414 46.252691 
L 187.441856 46.189972 
L 187.474765 44.534549 
L 187.524116 48.410336 
L 187.655726 54.258972 
L 187.606375 47.318083 
L 187.67218 54.139618 
L 187.705077 49.44815 
L 187.754427 55.057884 
L 187.787336 53.370407 
L 187.803778 53.456382 
L 187.820233 50.988095 
L 187.869583 53.659984 
L 187.918934 51.720377 
L 188.03409 46.336218 
L 188.099895 47.749713 
L 188.264402 52.736092 
L 188.330207 49.687746 
L 188.37957 52.3284 
L 188.396012 52.870059 
L 188.428921 51.323674 
L 188.461817 52.194956 
L 188.609882 46.23064 
L 188.725037 47.316989 
L 188.889544 52.395934 
L 188.905998 51.465126 
L 188.955349 54.866759 
L 188.971791 53.963637 
L 189.021154 56.796397 
L 189.086959 54.829093 
L 189.169207 50.716912 
L 189.202115 53.026651 
L 189.218557 53.009055 
L 189.317271 54.873066 
L 189.267908 51.42427 
L 189.333713 53.237306 
L 189.432427 48.983998 
L 189.448869 50.037659 
L 189.547583 52.698348 
L 189.646284 46.074571 
L 189.679181 47.114219 
L 189.876596 52.23032 
L 189.991752 46.681089 
L 190.041103 48.627251 
L 190.057557 48.069098 
L 190.074011 49.360387 
L 190.106908 51.393566 
L 190.189167 51.128587 
L 190.238518 50.161884 
L 190.271414 50.296918 
L 190.38657 56.237489 
L 190.403025 55.033886 
L 190.419479 54.840631 
L 190.583986 60.606117 
L 190.616882 57.632676 
L 190.715596 57.883043 
L 190.73205 57.719654 
L 190.797843 61.301684 
L 190.830752 57.30695 
L 190.847206 60.181025 
L 190.912999 57.574604 
L 190.978804 58.320958 
L 190.995258 59.722482 
L 191.044609 57.543528 
L 191.061063 55.64705 
L 191.110414 59.339177 
L 191.126869 58.809412 
L 191.159765 60.232833 
L 191.192674 58.410115 
L 191.307829 51.013473 
L 191.340726 51.946806 
L 191.373635 56.159232 
L 191.439427 51.104817 
L 191.472336 54.35917 
L 191.587492 50.109163 
L 191.620388 51.282058 
L 191.636843 51.160487 
L 191.719102 54.168671 
L 191.768453 54.148395 
L 191.784907 53.029275 
L 191.834258 54.288707 
L 191.867154 54.197265 
L 191.965868 57.232572 
L 191.98231 54.977607 
L 192.048115 55.114168 
L 192.113921 51.839294 
L 192.311336 56.987655 
L 192.327778 56.892809 
L 192.459388 51.783757 
L 192.475842 52.108857 
L 192.525193 54.435661 
L 192.607453 53.198619 
L 192.656803 51.804654 
L 192.673245 54.246577 
L 192.6897 54.143288 
L 192.706154 54.42796 
L 192.722609 54.284012 
L 192.755505 51.068539 
L 192.837764 53.300553 
L 192.887115 53.834944 
L 192.95292 51.985283 
L 192.969362 52.705406 
L 193.002271 50.131999 
L 193.018725 49.170411 
L 193.084518 51.323356 
L 193.117427 53.912756 
L 193.150323 50.62953 
L 193.166778 51.207243 
L 193.249037 48.10971 
L 193.281933 50.184295 
L 193.298388 51.649335 
L 193.364193 48.1968 
L 193.380635 49.598216 
L 193.397089 49.600515 
L 193.429998 48.310469 
L 193.479349 50.205767 
L 193.66031 57.480131 
L 193.512245 48.683886 
L 193.676752 56.179053 
L 193.824816 50.893386 
L 193.874167 51.601267 
L 193.890622 52.855957 
L 193.923518 50.171531 
L 193.972869 52.149027 
L 194.005777 54.619462 
L 194.104479 50.300983 
L 194.137388 51.528442 
L 194.186738 49.22037 
L 194.20318 49.215452 
L 194.236089 51.796881 
L 194.252543 49.213587 
L 194.318336 50.3369 
L 194.33479 50.390894 
L 194.384141 55.145888 
L 194.449946 51.827739 
L 194.466401 50.994951 
L 194.532206 53.097242 
L 194.54866 54.169546 
L 194.598011 50.377619 
L 194.614453 50.499405 
L 194.647362 48.631727 
L 194.663816 50.513005 
L 194.729609 49.913575 
L 194.746063 49.934044 
L 194.762518 48.605732 
L 194.844777 50.788107 
L 195.009284 47.633073 
L 194.91057 51.588378 
L 195.025726 48.267511 
L 195.058635 49.837637 
L 195.091531 47.152602 
L 195.12444 47.714756 
L 195.140881 47.671991 
L 195.223141 46.584064 
L 195.239595 48.21672 
L 195.25605 47.459257 
L 195.288946 50.03401 
L 195.338297 50.821632 
L 195.354751 50.780265 
L 195.420556 47.253936 
L 195.486362 48.018744 
L 195.502803 49.883356 
L 195.601517 48.736607 
L 195.634414 52.240302 
L 195.650868 53.923835 
L 195.683764 50.419291 
L 195.733115 51.081192 
L 195.74957 51.174306 
L 195.963427 43.542861 
L 196.029232 44.16406 
L 196.127946 47.690098 
L 196.160842 45.634743 
L 196.210193 43.828031 
L 196.275998 44.829464 
L 196.407608 49.764546 
L 196.424063 49.395116 
L 196.440505 49.352917 
L 196.654375 42.646513 
L 196.687271 44.502066 
L 196.72018 47.969989 
L 196.802427 47.745168 
L 196.950491 42.076818 
L 196.966933 41.749908 
L 196.983388 42.596653 
L 196.999842 41.932415 
L 197.032738 45.167765 
L 197.098544 41.579398 
L 197.131452 42.645399 
L 197.180803 40.252908 
L 197.230154 43.986745 
L 197.295959 42.14268 
L 197.312413 40.805445 
L 197.328855 42.144999 
L 197.39466 41.688372 
L 197.47692 42.343139 
L 197.427569 39.982445 
L 197.509816 41.972663 
L 197.526271 41.988437 
L 197.575621 45.32681 
L 197.657881 44.213419 
L 197.674323 43.365701 
L 197.707232 45.577254 
L 197.740128 45.165489 
L 197.822388 47.85599 
L 197.855284 47.19237 
L 197.97044 44.397615 
L 198.003348 45.243944 
L 198.036245 46.748606 
L 198.052699 49.00442 
L 198.134959 46.119376 
L 198.151401 46.090259 
L 198.266556 48.098588 
L 198.23366 45.508485 
L 198.283011 47.102549 
L 198.299465 45.81123 
L 198.381712 47.313495 
L 198.398167 46.744198 
L 198.447517 49.346456 
L 198.513323 47.514361 
L 198.710738 51.14708 
L 198.743634 50.761833 
L 198.760089 49.521361 
L 198.792985 52.458503 
L 198.85879 49.986722 
L 199.056206 47.051736 
L 199.07266 46.243747 
L 199.089102 48.554422 
L 199.154907 47.078924 
L 199.204258 47.498519 
L 199.220712 46.812423 
L 199.401673 41.037233 
L 199.434569 43.794707 
L 199.582634 47.396426 
L 199.500375 43.079739 
L 199.61553 46.281341 
L 199.631985 44.752291 
L 199.681335 48.294433 
L 199.69779 48.05768 
L 199.812946 49.343738 
L 199.8294 48.471928 
L 200.010361 41.058594 
L 200.026803 41.28297 
L 200.076166 43.207222 
L 200.109063 40.5832 
L 200.306478 48.451403 
L 200.32292 48.436829 
L 200.339374 48.814183 
L 200.355829 48.221913 
L 200.438076 40.565574 
L 200.503881 41.550555 
L 200.520335 40.659438 
L 200.569686 43.455831 
L 200.586141 43.504654 
L 200.717751 40.42157 
L 200.865803 46.430374 
L 201.046764 39.688589 
L 201.16192 43.948719 
L 201.211271 43.758117 
L 201.227725 44.201825 
L 201.244179 42.119642 
L 201.277076 43.052602 
L 201.375777 40.977031 
L 201.392232 41.42239 
L 201.540296 46.303212 
L 201.606089 44.9458 
L 201.770608 38.434872 
L 201.803504 39.123777 
L 201.91866 43.580335 
L 201.935114 42.70928 
L 201.968011 44.263095 
L 202.017361 41.294109 
L 202.033816 41.106843 
L 202.099621 42.927408 
L 202.148972 41.949012 
L 202.165426 43.09162 
L 202.214777 39.891942 
L 202.231231 38.517593 
L 202.313478 39.510511 
L 202.362842 41.938285 
L 202.412192 38.871425 
L 202.510894 40.338583 
L 202.477997 38.531005 
L 202.527348 39.58473 
L 202.543803 39.453319 
L 202.658958 41.82119 
L 202.691855 39.718572 
L 202.75766 41.678622 
L 202.839907 41.675368 
L 202.905712 45.690293 
L 202.955075 45.094563 
L 203.004426 47.924339 
L 203.053777 46.283854 
L 203.119582 42.288459 
L 203.218283 42.529509 
L 203.234738 43.219245 
L 203.267634 40.202318 
L 203.333439 43.163827 
L 203.349894 43.187495 
L 203.366348 42.311839 
L 203.432141 43.639984 
L 203.465049 44.514624 
L 203.613101 38.959377 
L 203.695361 40.556926 
L 203.662452 37.777924 
L 203.728257 39.481531 
L 203.744712 39.546476 
L 203.843413 40.963581 
L 203.777621 39.064946 
L 203.859868 40.333524 
L 203.876322 39.776584 
L 203.925673 41.640304 
L 204.090179 37.723012 
L 203.958569 41.749402 
L 204.106634 38.68012 
L 204.13953 40.303472 
L 204.205335 39.16622 
L 204.287595 36.828842 
L 204.336946 38.498578 
L 204.402751 38.629427 
L 204.419205 37.76988 
L 204.452101 41.004133 
L 204.550803 40.214097 
L 204.583712 39.220879 
L 204.600166 39.6404 
L 204.715322 42.341072 
L 204.731764 42.108319 
L 204.830478 44.300985 
L 204.879828 43.516462 
L 204.89627 41.417639 
L 204.97853 43.58584 
L 205.027881 46.317717 
L 205.077231 43.063917 
L 205.093686 43.335396 
L 205.143036 41.137212 
L 205.192387 43.933665 
L 205.208842 44.258379 
L 205.225296 42.936382 
L 205.24175 42.592605 
L 205.258192 43.062562 
L 205.274647 42.711737 
L 205.340452 46.844074 
L 205.389803 45.202684 
L 205.504959 41.40659 
L 205.570764 42.043936 
L 205.587218 42.528077 
L 205.620114 41.421906 
L 205.653023 39.254206 
L 205.718816 41.507958 
L 205.73527 41.777623 
L 205.751725 40.295621 
L 205.899777 37.946024 
L 205.965582 36.607215 
L 205.998491 37.741758 
L 206.014933 39.059415 
L 206.097192 37.893582 
L 206.113647 37.473726 
L 206.130088 37.958351 
L 206.261699 44.674102 
L 206.278153 43.339598 
L 206.343958 45.19371 
L 206.360413 45.186052 
L 206.475568 48.401967 
L 206.508465 47.850832 
L 206.524919 50.107307 
L 206.607166 46.824055 
L 206.623621 47.022207 
L 206.672971 47.162159 
L 206.738777 44.909359 
L 206.788127 48.67565 
L 206.886841 47.904119 
L 206.903283 47.894943 
L 206.919738 48.355622 
L 206.936192 47.807647 
L 206.952634 47.996452 
L 207.084244 44.628606 
L 207.166504 48.36809 
L 207.1994 45.532114 
L 207.215854 44.674261 
L 207.265205 46.722263 
L 207.380361 49.434065 
L 207.446166 46.710785 
L 207.495517 48.884187 
L 207.544867 47.922461 
L 207.594231 49.132628 
L 207.676478 50.301098 
L 207.643581 48.649988 
L 207.709387 49.366749 
L 207.840984 47.760543 
L 207.989049 50.024907 
L 208.071296 48.14636 
L 208.0384 50.576591 
L 208.120659 48.500981 
L 208.137101 48.307116 
L 208.153556 49.213338 
L 208.235815 50.619428 
L 208.252257 52.596423 
L 208.30162 50.505202 
L 208.350971 51.361555 
L 208.449672 47.583015 
L 208.515478 49.397796 
L 208.630633 51.189463 
L 208.79514 45.391176 
L 208.811594 45.472868 
L 208.828049 45.217013 
L 208.844491 46.140853 
L 208.8774 47.243358 
L 208.910296 46.172093 
L 208.92675 45.292051 
L 208.959647 49.011576 
L 209.041906 53.338395 
L 209.107711 52.145173 
L 209.140608 52.617385 
L 209.173516 51.721865 
L 209.189958 53.098263 
L 209.255763 49.977602 
L 209.272218 51.469478 
L 209.288672 51.523104 
L 209.305114 50.850518 
L 209.338023 52.666088 
L 209.354477 53.4145 
L 209.370919 52.109748 
L 209.403828 52.225613 
L 209.55188 47.678873 
L 209.63414 50.357914 
L 209.667036 50.001861 
L 209.683491 50.127711 
L 209.699945 51.336652 
L 209.782192 50.547486 
L 209.798646 49.864606 
L 209.864452 51.214712 
L 209.880906 50.733976 
L 210.012504 54.012048 
L 210.061867 53.154619 
L 210.144114 51.571631 
L 210.177023 52.451454 
L 210.275724 55.896238 
L 210.341529 54.913975 
L 210.506036 50.791546 
L 210.52249 50.724029 
L 210.538932 49.946212 
L 210.588295 51.692362 
L 210.588295 51.692362 
" clip-path="url(#p81279b229b)" style="fill: none; stroke: #d55e00; stroke-width: 1.25; stroke-linecap: square"/>
   </g>
   <g id="patch_4">
    <path d="M 37.85375 131.718516 
L 37.85375 20.418516 
" style="fill: none; stroke: #000000; stroke-width: 0.8; stroke-linejoin: miter; stroke-linecap: square"/>
   </g>
   <g id="patch_5">
    <path d="M 37.85375 131.718516 
L 218.81375 131.718516 
" style="fill: none; stroke: #000000; stroke-width: 0.8; stroke-linejoin: miter; stroke-linecap: square"/>
   </g>
   <g id="text_14">
    <!-- drugs3003 rep1 -->
    <g transform="translate(90.460664 14.418516) scale(0.095 -0.095)">
     <defs>
      <path id="DejaVuSans-64" d="M 2906 2969 
L 2906 4863 
L 3481 4863 
L 3481 0 
L 2906 0 
L 2906 525 
Q 2725 213 2448 61 
Q 2172 -91 1784 -91 
Q 1150 -91 751 415 
Q 353 922 353 1747 
Q 353 2572 751 3078 
Q 1150 3584 1784 3584 
Q 2172 3584 2448 3432 
Q 2725 3281 2906 2969 
z
M 947 1747 
Q 947 1113 1208 752 
Q 1469 391 1925 391 
Q 2381 391 2643 752 
Q 2906 1113 2906 1747 
Q 2906 2381 2643 2742 
Q 2381 3103 1925 3103 
Q 1469 3103 1208 2742 
Q 947 2381 947 1747 
z
" transform="scale(0.015625)"/>
      <path id="DejaVuSans-72" d="M 2631 2963 
Q 2534 3019 2420 3045 
Q 2306 3072 2169 3072 
Q 1681 3072 1420 2755 
Q 1159 2438 1159 1844 
L 1159 0 
L 581 0 
L 581 3500 
L 1159 3500 
L 1159 2956 
Q 1341 3275 1631 3429 
Q 1922 3584 2338 3584 
Q 2397 3584 2469 3576 
Q 2541 3569 2628 3553 
L 2631 2963 
z
" transform="scale(0.015625)"/>
      <path id="DejaVuSans-75" d="M 544 1381 
L 544 3500 
L 1119 3500 
L 1119 1403 
Q 1119 906 1312 657 
Q 1506 409 1894 409 
Q 2359 409 2629 706 
Q 2900 1003 2900 1516 
L 2900 3500 
L 3475 3500 
L 3475 0 
L 2900 0 
L 2900 538 
Q 2691 219 2414 64 
Q 2138 -91 1772 -91 
Q 1169 -91 856 284 
Q 544 659 544 1381 
z
M 1991 3584 
L 1991 3584 
z
" transform="scale(0.015625)"/>
      <path id="DejaVuSans-67" d="M 2906 1791 
Q 2906 2416 2648 2759 
Q 2391 3103 1925 3103 
Q 1463 3103 1205 2759 
Q 947 2416 947 1791 
Q 947 1169 1205 825 
Q 1463 481 1925 481 
Q 2391 481 2648 825 
Q 2906 1169 2906 1791 
z
M 3481 434 
Q 3481 -459 3084 -895 
Q 2688 -1331 1869 -1331 
Q 1566 -1331 1297 -1286 
Q 1028 -1241 775 -1147 
L 775 -588 
Q 1028 -725 1275 -790 
Q 1522 -856 1778 -856 
Q 2344 -856 2625 -561 
Q 2906 -266 2906 331 
L 2906 616 
Q 2728 306 2450 153 
Q 2172 0 1784 0 
Q 1141 0 747 490 
Q 353 981 353 1791 
Q 353 2603 747 3093 
Q 1141 3584 1784 3584 
Q 2172 3584 2450 3431 
Q 2728 3278 2906 2969 
L 2906 3500 
L 3481 3500 
L 3481 434 
z
" transform="scale(0.015625)"/>
      <path id="DejaVuSans-33" d="M 2597 2516 
Q 3050 2419 3304 2112 
Q 3559 1806 3559 1356 
Q 3559 666 3084 287 
Q 2609 -91 1734 -91 
Q 1441 -91 1130 -33 
Q 819 25 488 141 
L 488 750 
Q 750 597 1062 519 
Q 1375 441 1716 441 
Q 2309 441 2620 675 
Q 2931 909 2931 1356 
Q 2931 1769 2642 2001 
Q 2353 2234 1838 2234 
L 1294 2234 
L 1294 2753 
L 1863 2753 
Q 2328 2753 2575 2939 
Q 2822 3125 2822 3475 
Q 2822 3834 2567 4026 
Q 2313 4219 1838 4219 
Q 1578 4219 1281 4162 
Q 984 4106 628 3988 
L 628 4550 
Q 988 4650 1302 4700 
Q 1616 4750 1894 4750 
Q 2613 4750 3031 4423 
Q 3450 4097 3450 3541 
Q 3450 3153 3228 2886 
Q 3006 2619 2597 2516 
z
" transform="scale(0.015625)"/>
      <path id="DejaVuSans-70" d="M 1159 525 
L 1159 -1331 
L 581 -1331 
L 581 3500 
L 1159 3500 
L 1159 2969 
Q 1341 3281 1617 3432 
Q 1894 3584 2278 3584 
Q 2916 3584 3314 3078 
Q 3713 2572 3713 1747 
Q 3713 922 3314 415 
Q 2916 -91 2278 -91 
Q 1894 -91 1617 61 
Q 1341 213 1159 525 
z
M 3116 1747 
Q 3116 2381 2855 2742 
Q 2594 3103 2138 3103 
Q 1681 3103 1420 2742 
Q 1159 2381 1159 1747 
Q 1159 1113 1420 752 
Q 1681 391 2138 391 
Q 2594 391 2855 752 
Q 3116 1113 3116 1747 
z
" transform="scale(0.015625)"/>
     </defs>
     <use xlink:href="#DejaVuSans-64"/>
     <use xlink:href="#DejaVuSans-72" transform="translate(63.476562 0)"/>
     <use xlink:href="#DejaVuSans-75" transform="translate(104.589844 0)"/>
     <use xlink:href="#DejaVuSans-67" transform="translate(167.96875 0)"/>
     <use xlink:href="#DejaVuSans-73" transform="translate(231.445312 0)"/>
     <use xlink:href="#DejaVuSans-33" transform="translate(283.544922 0)"/>
     <use xlink:href="#DejaVuSans-30" transform="translate(347.167969 0)"/>
     <use xlink:href="#DejaVuSans-30" transform="translate(410.791016 0)"/>
     <use xlink:href="#DejaVuSans-33" transform="translate(474.414062 0)"/>
     <use xlink:href="#DejaVuSans-20" transform="translate(538.037109 0)"/>
     <use xlink:href="#DejaVuSans-72" transform="translate(569.824219 0)"/>
     <use xlink:href="#DejaVuSans-65" transform="translate(608.6875 0)"/>
     <use xlink:href="#DejaVuSans-70" transform="translate(670.210938 0)"/>
     <use xlink:href="#DejaVuSans-31" transform="translate(733.6875 0)"/>
    </g>
   </g>
  </g>
 </g>
 <defs>
  <clipPath id="p81279b229b">
   <rect x="37.85375" y="20.418516" width="180.96" height="111.3"/>
  </clipPath>
 </defs>
</svg>
