<?xml version="1.0" encoding="utf-8" standalone="no"?>
<!DOCTYPE svg PUBLIC "-//W3C//DTD SVG 1.1//EN"
  "http://www.w3.org/Graphics/SVG/1.1/DTD/svg11.dtd">
<svg xmlns:xlink="http://www.w3.org/1999/xlink" width="226.01375pt" height="164.903516pt" viewBox="0 0 226.01375 164.903516" xmlns="http://www.w3.org/2000/svg" version="1.1">
 <metadata>
  <rdf:RDF xmlns:dc="http://purl.org/dc/elements/1.1/" xmlns:cc="http://creativecommons.org/ns#" xmlns:rdf="http://www.w3.org/1999/02/22-rdf-syntax-ns#">
   <cc:Work>
    <dc:type rdf:resource="http://purl.org/dc/dcmitype/StillImage"/>
    <dc:date>2026-05-24T13:54:01.872773</dc:date>
    <dc:format>image/svg+xml</dc:format>
    <dc:creator>
     <cc:Agent>
      <dc:title>Matplotlib v3.10.9, https://matplotlib.org/</dc:title>
     </cc:Agent>
    </dc:creator>
   </cc:Work>
  </rdf:RDF>
 </metadata>
 <defs>
  <style type="text/css">*{stroke-linejoin: round; stroke-linecap: butt}</style>
 </defs>
 <g id="figure_1">
  <g id="patch_1">
   <path d="M 0 164.903516 
L 226.01375 164.903516 
L 226.01375 0 
L 0 0 
z
" style="fill: #ffffff"/>
  </g>
  <g id="axes_1">
   <g id="patch_2">
    <path d="M 37.85375 131.718516 
L 218.81375 131.718516 
L 218.81375 20.418516 
L 37.85375 20.418516 
z
" style="fill: #ffffff"/>
   </g>
   <g id="patch_3">
    <path d="M 128.333744 131.718516 
L 210.588283 131.718516 
L 210.588283 20.418516 
L 128.333744 20.418516 
z
" clip-path="url(#pde4f5eae2f)" style="fill: #bdbdbd; opacity: 0.18"/>
   </g>
   <g id="matplotlib.axis_1">
    <g id="xtick_1">
     <g id="line2d_1">
      <defs>
       <path id="me7ea63df3d" d="M 0 0 
L 0 3 
" style="stroke: #000000; stroke-width: 0.7"/>
      </defs>
      <g>
       <use xlink:href="#me7ea63df3d" x="46.079205" y="131.718516" style="stroke: #000000; stroke-width: 0.7"/>
      </g>
     </g>
     <g id="text_1">
      <!-- 0 -->
      <g transform="translate(43.693267 143.917344) scale(0.075 -0.075)">
       <defs>
        <path id="DejaVuSans-30" d="M 2034 4250 
Q 1547 4250 1301 3770 
Q 1056 3291 1056 2328 
Q 1056 1369 1301 889 
Q 1547 409 2034 409 
Q 2525 409 2770 889 
Q 3016 1369 3016 2328 
Q 3016 3291 2770 3770 
Q 2525 4250 2034 4250 
z
M 2034 4750 
Q 2819 4750 3233 4129 
Q 3647 3509 3647 2328 
Q 3647 1150 3233 529 
Q 2819 -91 2034 -91 
Q 1250 -91 836 529 
Q 422 1150 422 2328 
Q 422 3509 836 4129 
Q 1250 4750 2034 4750 
z
" transform="scale(0.015625)"/>
       </defs>
       <use xlink:href="#DejaVuSans-30"/>
      </g>
     </g>
    </g>
    <g id="xtick_2">
     <g id="line2d_2">
      <g>
       <use xlink:href="#me7ea63df3d" x="78.98102" y="131.718516" style="stroke: #000000; stroke-width: 0.7"/>
      </g>
     </g>
     <g id="text_2">
      <!-- 20 -->
      <g transform="translate(74.209145 143.917344) scale(0.075 -0.075)">
       <defs>
        <path id="DejaVuSans-32" d="M 1228 531 
L 3431 531 
L 3431 0 
L 469 0 
L 469 531 
Q 828 903 1448 1529 
Q 2069 2156 2228 2338 
Q 2531 2678 2651 2914 
Q 2772 3150 2772 3378 
Q 2772 3750 2511 3984 
Q 2250 4219 1831 4219 
Q 1534 4219 1204 4116 
Q 875 4013 500 3803 
L 500 4441 
Q 881 4594 1212 4672 
Q 1544 4750 1819 4750 
Q 2544 4750 2975 4387 
Q 3406 4025 3406 3419 
Q 3406 3131 3298 2873 
Q 3191 2616 2906 2266 
Q 2828 2175 2409 1742 
Q 1991 1309 1228 531 
z
" transform="scale(0.015625)"/>
       </defs>
       <use xlink:href="#DejaVuSans-32"/>
       <use xlink:href="#DejaVuSans-30" transform="translate(63.623047 0)"/>
      </g>
     </g>
    </g>
    <g id="xtick_3">
     <g id="line2d_3">
      <g>
       <use xlink:href="#me7ea63df3d" x="111.882836" y="131.718516" style="stroke: #000000; stroke-width: 0.7"/>
      </g>
     </g>
     <g id="text_3">
      <!-- 40 -->
      <g transform="translate(107.110961 143.917344) scale(0.075 -0.075)">
       <defs>
        <path id="DejaVuSans-34" d="M 2419 4116 
L 825 1625 
L 2419 1625 
L 2419 4116 
z
M 2253 4666 
L 3047 4666 
L 3047 1625 
L 3713 1625 
L 3713 1100 
L 3047 1100 
L 3047 0 
L 2419 0 
L 2419 1100 
L 313 1100 
L 313 1709 
L 2253 4666 
z
" transform="scale(0.015625)"/>
       </defs>
       <use xlink:href="#DejaVuSans-34"/>
       <use xlink:href="#DejaVuSans-30" transform="translate(63.623047 0)"/>
      </g>
     </g>
    </g>
    <g id="xtick_4">
     <g id="line2d_4">
      <g>
       <use xlink:href="#me7ea63df3d" x="144.784652" y="131.718516" style="stroke: #000000; stroke-width: 0.7"/>
      </g>
     </g>
     <g id="text_4">
      <!-- 60 -->
      <g transform="translate(140.012777 143.917344) scale(0.075 -0.075)">
       <defs>
        <path id="DejaVuSans-36" d="M 2113 2584 
Q 1688 2584 1439 2293 
Q 1191 2003 1191 1497 
Q 1191 994 1439 701 
Q 1688 409 2113 409 
Q 2538 409 2786 701 
Q 3034 994 3034 1497 
Q 3034 2003 2786 2293 
Q 2538 2584 2113 2584 
z
M 3366 4563 
L 3366 3988 
Q 3128 4100 2886 4159 
Q 2644 4219 2406 4219 
Q 1781 4219 1451 3797 
Q 1122 3375 1075 2522 
Q 1259 2794 1537 2939 
Q 1816 3084 2150 3084 
Q 2853 3084 3261 2657 
Q 3669 2231 3669 1497 
Q 3669 778 3244 343 
Q 2819 -91 2113 -91 
Q 1303 -91 875 529 
Q 447 1150 447 2328 
Q 447 3434 972 4092 
Q 1497 4750 2381 4750 
Q 2619 4750 2861 4703 
Q 3103 4656 3366 4563 
z
" transform="scale(0.015625)"/>
       </defs>
       <use xlink:href="#DejaVuSans-36"/>
       <use xlink:href="#DejaVuSans-30" transform="translate(63.623047 0)"/>
      </g>
     </g>
    </g>
    <g id="xtick_5">
     <g id="line2d_5">
      <g>
       <use xlink:href="#me7ea63df3d" x="177.686467" y="131.718516" style="stroke: #000000; stroke-width: 0.7"/>
      </g>
     </g>
     <g id="text_5">
      <!-- 80 -->
      <g transform="translate(172.914592 143.917344) scale(0.075 -0.075)">
       <defs>
        <path id="DejaVuSans-38" d="M 2034 2216 
Q 1584 2216 1326 1975 
Q 1069 1734 1069 1313 
Q 1069 891 1326 650 
Q 1584 409 2034 409 
Q 2484 409 2743 651 
Q 3003 894 3003 1313 
Q 3003 1734 2745 1975 
Q 2488 2216 2034 2216 
z
M 1403 2484 
Q 997 2584 770 2862 
Q 544 3141 544 3541 
Q 544 4100 942 4425 
Q 1341 4750 2034 4750 
Q 2731 4750 3128 4425 
Q 3525 4100 3525 3541 
Q 3525 3141 3298 2862 
Q 3072 2584 2669 2484 
Q 3125 2378 3379 2068 
Q 3634 1759 3634 1313 
Q 3634 634 3220 271 
Q 2806 -91 2034 -91 
Q 1263 -91 848 271 
Q 434 634 434 1313 
Q 434 1759 690 2068 
Q 947 2378 1403 2484 
z
M 1172 3481 
Q 1172 3119 1398 2916 
Q 1625 2713 2034 2713 
Q 2441 2713 2670 2916 
Q 2900 3119 2900 3481 
Q 2900 3844 2670 4047 
Q 2441 4250 2034 4250 
Q 1625 4250 1398 4047 
Q 1172 3844 1172 3481 
z
" transform="scale(0.015625)"/>
       </defs>
       <use xlink:href="#DejaVuSans-38"/>
       <use xlink:href="#DejaVuSans-30" transform="translate(63.623047 0)"/>
      </g>
     </g>
    </g>
    <g id="xtick_6">
     <g id="line2d_6">
      <g>
       <use xlink:href="#me7ea63df3d" x="210.588283" y="131.718516" style="stroke: #000000; stroke-width: 0.7"/>
      </g>
     </g>
     <g id="text_6">
      <!-- 100 -->
      <g transform="translate(203.43047 143.917344) scale(0.075 -0.075)">
       <defs>
        <path id="DejaVuSans-31" d="M 794 531 
L 1825 531 
L 1825 4091 
L 703 3866 
L 703 4441 
L 1819 4666 
L 2450 4666 
L 2450 531 
L 3481 531 
L 3481 0 
L 794 0 
L 794 531 
z
" transform="scale(0.015625)"/>
       </defs>
       <use xlink:href="#DejaVuSans-31"/>
       <use xlink:href="#DejaVuSans-30" transform="translate(63.623047 0)"/>
       <use xlink:href="#DejaVuSans-30" transform="translate(127.246094 0)"/>
      </g>
     </g>
    </g>
    <g id="text_7">
     <!-- Time (ns) -->
     <g transform="translate(108.360742 155.935781) scale(0.085 -0.085)">
      <defs>
       <path id="DejaVuSans-54" d="M -19 4666 
L 3928 4666 
L 3928 4134 
L 2272 4134 
L 2272 0 
L 1638 0 
L 1638 4134 
L -19 4134 
L -19 4666 
z
" transform="scale(0.015625)"/>
       <path id="DejaVuSans-69" d="M 603 3500 
L 1178 3500 
L 1178 0 
L 603 0 
L 603 3500 
z
M 603 4863 
L 1178 4863 
L 1178 4134 
L 603 4134 
L 603 4863 
z
" transform="scale(0.015625)"/>
       <path id="DejaVuSans-6d" d="M 3328 2828 
Q 3544 3216 3844 3400 
Q 4144 3584 4550 3584 
Q 5097 3584 5394 3201 
Q 5691 2819 5691 2113 
L 5691 0 
L 5113 0 
L 5113 2094 
Q 5113 2597 4934 2840 
Q 4756 3084 4391 3084 
Q 3944 3084 3684 2787 
Q 3425 2491 3425 1978 
L 3425 0 
L 2847 0 
L 2847 2094 
Q 2847 2600 2669 2842 
Q 2491 3084 2119 3084 
Q 1678 3084 1418 2786 
Q 1159 2488 1159 1978 
L 1159 0 
L 581 0 
L 581 3500 
L 1159 3500 
L 1159 2956 
Q 1356 3278 1631 3431 
Q 1906 3584 2284 3584 
Q 2666 3584 2933 3390 
Q 3200 3197 3328 2828 
z
" transform="scale(0.015625)"/>
       <path id="DejaVuSans-65" d="M 3597 1894 
L 3597 1613 
L 953 1613 
Q 991 1019 1311 708 
Q 1631 397 2203 397 
Q 2534 397 2845 478 
Q 3156 559 3463 722 
L 3463 178 
Q 3153 47 2828 -22 
Q 2503 -91 2169 -91 
Q 1331 -91 842 396 
Q 353 884 353 1716 
Q 353 2575 817 3079 
Q 1281 3584 2069 3584 
Q 2775 3584 3186 3129 
Q 3597 2675 3597 1894 
z
M 3022 2063 
Q 3016 2534 2758 2815 
Q 2500 3097 2075 3097 
Q 1594 3097 1305 2825 
Q 1016 2553 972 2059 
L 3022 2063 
z
" transform="scale(0.015625)"/>
       <path id="DejaVuSans-20" transform="scale(0.015625)"/>
       <path id="DejaVuSans-28" d="M 1984 4856 
Q 1566 4138 1362 3434 
Q 1159 2731 1159 2009 
Q 1159 1288 1364 580 
Q 1569 -128 1984 -844 
L 1484 -844 
Q 1016 -109 783 600 
Q 550 1309 550 2009 
Q 550 2706 781 3412 
Q 1013 4119 1484 4856 
L 1984 4856 
z
" transform="scale(0.015625)"/>
       <path id="DejaVuSans-6e" d="M 3513 2113 
L 3513 0 
L 2938 0 
L 2938 2094 
Q 2938 2591 2744 2837 
Q 2550 3084 2163 3084 
Q 1697 3084 1428 2787 
Q 1159 2491 1159 1978 
L 1159 0 
L 581 0 
L 581 3500 
L 1159 3500 
L 1159 2956 
Q 1366 3272 1645 3428 
Q 1925 3584 2291 3584 
Q 2894 3584 3203 3211 
Q 3513 2838 3513 2113 
z
" transform="scale(0.015625)"/>
       <path id="DejaVuSans-73" d="M 2834 3397 
L 2834 2853 
Q 2591 2978 2328 3040 
Q 2066 3103 1784 3103 
Q 1356 3103 1142 2972 
Q 928 2841 928 2578 
Q 928 2378 1081 2264 
Q 1234 2150 1697 2047 
L 1894 2003 
Q 2506 1872 2764 1633 
Q 3022 1394 3022 966 
Q 3022 478 2636 193 
Q 2250 -91 1575 -91 
Q 1294 -91 989 -36 
Q 684 19 347 128 
L 347 722 
Q 666 556 975 473 
Q 1284 391 1588 391 
Q 1994 391 2212 530 
Q 2431 669 2431 922 
Q 2431 1156 2273 1281 
Q 2116 1406 1581 1522 
L 1381 1569 
Q 847 1681 609 1914 
Q 372 2147 372 2553 
Q 372 3047 722 3315 
Q 1072 3584 1716 3584 
Q 2034 3584 2315 3537 
Q 2597 3491 2834 3397 
z
" transform="scale(0.015625)"/>
       <path id="DejaVuSans-29" d="M 513 4856 
L 1013 4856 
Q 1481 4119 1714 3412 
Q 1947 2706 1947 2009 
Q 1947 1309 1714 600 
Q 1481 -109 1013 -844 
L 513 -844 
Q 928 -128 1133 580 
Q 1338 1288 1338 2009 
Q 1338 2731 1133 3434 
Q 928 4138 513 4856 
z
" transform="scale(0.015625)"/>
      </defs>
      <use xlink:href="#DejaVuSans-54"/>
      <use xlink:href="#DejaVuSans-69" transform="translate(57.958984 0)"/>
      <use xlink:href="#DejaVuSans-6d" transform="translate(85.742188 0)"/>
      <use xlink:href="#DejaVuSans-65" transform="translate(183.154297 0)"/>
      <use xlink:href="#DejaVuSans-20" transform="translate(244.677734 0)"/>
      <use xlink:href="#DejaVuSans-28" transform="translate(276.464844 0)"/>
      <use xlink:href="#DejaVuSans-6e" transform="translate(315.478516 0)"/>
      <use xlink:href="#DejaVuSans-73" transform="translate(378.857422 0)"/>
      <use xlink:href="#DejaVuSans-29" transform="translate(430.957031 0)"/>
     </g>
    </g>
   </g>
   <g id="matplotlib.axis_2">
    <g id="ytick_1">
     <g id="line2d_7">
      <defs>
       <path id="mcd569fbe1a" d="M 0 0 
L -3 0 
" style="stroke: #000000; stroke-width: 0.7"/>
      </defs>
      <g>
       <use xlink:href="#mcd569fbe1a" x="37.85375" y="126.683269" style="stroke: #000000; stroke-width: 0.7"/>
      </g>
     </g>
     <g id="text_8">
      <!-- 0.0 -->
      <g transform="translate(19.426406 129.532683) scale(0.075 -0.075)">
       <defs>
        <path id="DejaVuSans-2e" d="M 684 794 
L 1344 794 
L 1344 0 
L 684 0 
L 684 794 
z
" transform="scale(0.015625)"/>
       </defs>
       <use xlink:href="#DejaVuSans-30"/>
       <use xlink:href="#DejaVuSans-2e" transform="translate(63.623047 0)"/>
       <use xlink:href="#DejaVuSans-30" transform="translate(95.410156 0)"/>
      </g>
     </g>
    </g>
    <g id="ytick_2">
     <g id="line2d_8">
      <g>
       <use xlink:href="#mcd569fbe1a" x="37.85375" y="101.583983" style="stroke: #000000; stroke-width: 0.7"/>
      </g>
     </g>
     <g id="text_9">
      <!-- 0.5 -->
      <g transform="translate(19.426406 104.433397) scale(0.075 -0.075)">
       <defs>
        <path id="DejaVuSans-35" d="M 691 4666 
L 3169 4666 
L 3169 4134 
L 1269 4134 
L 1269 2991 
Q 1406 3038 1543 3061 
Q 1681 3084 1819 3084 
Q 2600 3084 3056 2656 
Q 3513 2228 3513 1497 
Q 3513 744 3044 326 
Q 2575 -91 1722 -91 
Q 1428 -91 1123 -41 
Q 819 9 494 109 
L 494 744 
Q 775 591 1075 516 
Q 1375 441 1709 441 
Q 2250 441 2565 725 
Q 2881 1009 2881 1497 
Q 2881 1984 2565 2268 
Q 2250 2553 1709 2553 
Q 1456 2553 1204 2497 
Q 953 2441 691 2322 
L 691 4666 
z
" transform="scale(0.015625)"/>
       </defs>
       <use xlink:href="#DejaVuSans-30"/>
       <use xlink:href="#DejaVuSans-2e" transform="translate(63.623047 0)"/>
       <use xlink:href="#DejaVuSans-35" transform="translate(95.410156 0)"/>
      </g>
     </g>
    </g>
    <g id="ytick_3">
     <g id="line2d_9">
      <g>
       <use xlink:href="#mcd569fbe1a" x="37.85375" y="76.484697" style="stroke: #000000; stroke-width: 0.7"/>
      </g>
     </g>
     <g id="text_10">
      <!-- 1.0 -->
      <g transform="translate(19.426406 79.334111) scale(0.075 -0.075)">
       <use xlink:href="#DejaVuSans-31"/>
       <use xlink:href="#DejaVuSans-2e" transform="translate(63.623047 0)"/>
       <use xlink:href="#DejaVuSans-30" transform="translate(95.410156 0)"/>
      </g>
     </g>
    </g>
    <g id="ytick_4">
     <g id="line2d_10">
      <g>
       <use xlink:href="#mcd569fbe1a" x="37.85375" y="51.385411" style="stroke: #000000; stroke-width: 0.7"/>
      </g>
     </g>
     <g id="text_11">
      <!-- 1.5 -->
      <g transform="translate(19.426406 54.234825) scale(0.075 -0.075)">
       <use xlink:href="#DejaVuSans-31"/>
       <use xlink:href="#DejaVuSans-2e" transform="translate(63.623047 0)"/>
       <use xlink:href="#DejaVuSans-35" transform="translate(95.410156 0)"/>
      </g>
     </g>
    </g>
    <g id="ytick_5">
     <g id="line2d_11">
      <g>
       <use xlink:href="#mcd569fbe1a" x="37.85375" y="26.286125" style="stroke: #000000; stroke-width: 0.7"/>
      </g>
     </g>
     <g id="text_12">
      <!-- 2.0 -->
      <g transform="translate(19.426406 29.135539) scale(0.075 -0.075)">
       <use xlink:href="#DejaVuSans-32"/>
       <use xlink:href="#DejaVuSans-2e" transform="translate(63.623047 0)"/>
       <use xlink:href="#DejaVuSans-30" transform="translate(95.410156 0)"/>
      </g>
     </g>
    </g>
    <g id="text_13">
     <!-- Ligand RMSD (nm) -->
     <g transform="translate(13.658672 115.752891) rotate(-90) scale(0.085 -0.085)">
      <defs>
       <path id="DejaVuSans-4c" d="M 628 4666 
L 1259 4666 
L 1259 531 
L 3531 531 
L 3531 0 
L 628 0 
L 628 4666 
z
" transform="scale(0.015625)"/>
       <path id="DejaVuSans-67" d="M 2906 1791 
Q 2906 2416 2648 2759 
Q 2391 3103 1925 3103 
Q 1463 3103 1205 2759 
Q 947 2416 947 1791 
Q 947 1169 1205 825 
Q 1463 481 1925 481 
Q 2391 481 2648 825 
Q 2906 1169 2906 1791 
z
M 3481 434 
Q 3481 -459 3084 -895 
Q 2688 -1331 1869 -1331 
Q 1566 -1331 1297 -1286 
Q 1028 -1241 775 -1147 
L 775 -588 
Q 1028 -725 1275 -790 
Q 1522 -856 1778 -856 
Q 2344 -856 2625 -561 
Q 2906 -266 2906 331 
L 2906 616 
Q 2728 306 2450 153 
Q 2172 0 1784 0 
Q 1141 0 747 490 
Q 353 981 353 1791 
Q 353 2603 747 3093 
Q 1141 3584 1784 3584 
Q 2172 3584 2450 3431 
Q 2728 3278 2906 2969 
L 2906 3500 
L 3481 3500 
L 3481 434 
z
" transform="scale(0.015625)"/>
       <path id="DejaVuSans-61" d="M 2194 1759 
Q 1497 1759 1228 1600 
Q 959 1441 959 1056 
Q 959 750 1161 570 
Q 1363 391 1709 391 
Q 2188 391 2477 730 
Q 2766 1069 2766 1631 
L 2766 1759 
L 2194 1759 
z
M 3341 1997 
L 3341 0 
L 2766 0 
L 2766 531 
Q 2569 213 2275 61 
Q 1981 -91 1556 -91 
Q 1019 -91 701 211 
Q 384 513 384 1019 
Q 384 1609 779 1909 
Q 1175 2209 1959 2209 
L 2766 2209 
L 2766 2266 
Q 2766 2663 2505 2880 
Q 2244 3097 1772 3097 
Q 1472 3097 1187 3025 
Q 903 2953 641 2809 
L 641 3341 
Q 956 3463 1253 3523 
Q 1550 3584 1831 3584 
Q 2591 3584 2966 3190 
Q 3341 2797 3341 1997 
z
" transform="scale(0.015625)"/>
       <path id="DejaVuSans-64" d="M 2906 2969 
L 2906 4863 
L 3481 4863 
L 3481 0 
L 2906 0 
L 2906 525 
Q 2725 213 2448 61 
Q 2172 -91 1784 -91 
Q 1150 -91 751 415 
Q 353 922 353 1747 
Q 353 2572 751 3078 
Q 1150 3584 1784 3584 
Q 2172 3584 2448 3432 
Q 2725 3281 2906 2969 
z
M 947 1747 
Q 947 1113 1208 752 
Q 1469 391 1925 391 
Q 2381 391 2643 752 
Q 2906 1113 2906 1747 
Q 2906 2381 2643 2742 
Q 2381 3103 1925 3103 
Q 1469 3103 1208 2742 
Q 947 2381 947 1747 
z
" transform="scale(0.015625)"/>
       <path id="DejaVuSans-52" d="M 2841 2188 
Q 3044 2119 3236 1894 
Q 3428 1669 3622 1275 
L 4263 0 
L 3584 0 
L 2988 1197 
Q 2756 1666 2539 1819 
Q 2322 1972 1947 1972 
L 1259 1972 
L 1259 0 
L 628 0 
L 628 4666 
L 2053 4666 
Q 2853 4666 3247 4331 
Q 3641 3997 3641 3322 
Q 3641 2881 3436 2590 
Q 3231 2300 2841 2188 
z
M 1259 4147 
L 1259 2491 
L 2053 2491 
Q 2509 2491 2742 2702 
Q 2975 2913 2975 3322 
Q 2975 3731 2742 3939 
Q 2509 4147 2053 4147 
L 1259 4147 
z
" transform="scale(0.015625)"/>
       <path id="DejaVuSans-4d" d="M 628 4666 
L 1569 4666 
L 2759 1491 
L 3956 4666 
L 4897 4666 
L 4897 0 
L 4281 0 
L 4281 4097 
L 3078 897 
L 2444 897 
L 1241 4097 
L 1241 0 
L 628 0 
L 628 4666 
z
" transform="scale(0.015625)"/>
       <path id="DejaVuSans-53" d="M 3425 4513 
L 3425 3897 
Q 3066 4069 2747 4153 
Q 2428 4238 2131 4238 
Q 1616 4238 1336 4038 
Q 1056 3838 1056 3469 
Q 1056 3159 1242 3001 
Q 1428 2844 1947 2747 
L 2328 2669 
Q 3034 2534 3370 2195 
Q 3706 1856 3706 1288 
Q 3706 609 3251 259 
Q 2797 -91 1919 -91 
Q 1588 -91 1214 -16 
Q 841 59 441 206 
L 441 856 
Q 825 641 1194 531 
Q 1563 422 1919 422 
Q 2459 422 2753 634 
Q 3047 847 3047 1241 
Q 3047 1584 2836 1778 
Q 2625 1972 2144 2069 
L 1759 2144 
Q 1053 2284 737 2584 
Q 422 2884 422 3419 
Q 422 4038 858 4394 
Q 1294 4750 2059 4750 
Q 2388 4750 2728 4690 
Q 3069 4631 3425 4513 
z
" transform="scale(0.015625)"/>
       <path id="DejaVuSans-44" d="M 1259 4147 
L 1259 519 
L 2022 519 
Q 2988 519 3436 956 
Q 3884 1394 3884 2338 
Q 3884 3275 3436 3711 
Q 2988 4147 2022 4147 
L 1259 4147 
z
M 628 4666 
L 1925 4666 
Q 3281 4666 3915 4102 
Q 4550 3538 4550 2338 
Q 4550 1131 3912 565 
Q 3275 0 1925 0 
L 628 0 
L 628 4666 
z
" transform="scale(0.015625)"/>
      </defs>
      <use xlink:href="#DejaVuSans-4c"/>
      <use xlink:href="#DejaVuSans-69" transform="translate(55.712891 0)"/>
      <use xlink:href="#DejaVuSans-67" transform="translate(83.496094 0)"/>
      <use xlink:href="#DejaVuSans-61" transform="translate(146.972656 0)"/>
      <use xlink:href="#DejaVuSans-6e" transform="translate(208.251953 0)"/>
      <use xlink:href="#DejaVuSans-64" transform="translate(271.630859 0)"/>
      <use xlink:href="#DejaVuSans-20" transform="translate(335.107422 0)"/>
      <use xlink:href="#DejaVuSans-52" transform="translate(366.894531 0)"/>
      <use xlink:href="#DejaVuSans-4d" transform="translate(436.376953 0)"/>
      <use xlink:href="#DejaVuSans-53" transform="translate(522.65625 0)"/>
      <use xlink:href="#DejaVuSans-44" transform="translate(586.132812 0)"/>
      <use xlink:href="#DejaVuSans-20" transform="translate(663.134766 0)"/>
      <use xlink:href="#DejaVuSans-28" transform="translate(694.921875 0)"/>
      <use xlink:href="#DejaVuSans-6e" transform="translate(733.935547 0)"/>
      <use xlink:href="#DejaVuSans-6d" transform="translate(797.314453 0)"/>
      <use xlink:href="#DejaVuSans-29" transform="translate(894.726562 0)"/>
     </g>
    </g>
   </g>
   <g id="line2d_12">
    <path d="M 46.079205 126.659425 
L 46.17791 122.921433 
L 46.194361 123.189539 
L 46.210812 123.416858 
L 46.227263 120.538758 
L 46.325968 122.652299 
L 46.424674 121.091168 
L 46.375321 123.063475 
L 46.441125 121.94095 
L 46.474026 121.713465 
L 46.490477 122.837637 
L 46.523379 118.903324 
L 46.605634 122.124671 
L 46.638535 122.874332 
L 46.72079 120.271697 
L 46.852397 122.237618 
L 46.885299 120.422839 
L 46.951103 120.874782 
L 46.984004 122.638243 
L 47.049808 121.698069 
L 47.164964 119.310936 
L 47.181415 119.792516 
L 47.214317 118.82022 
L 47.230768 119.194641 
L 47.296572 115.697482 
L 47.26367 120.080862 
L 47.329474 118.428013 
L 47.345924 119.605792 
L 47.411728 116.937763 
L 47.428179 117.581761 
L 47.477532 117.125079 
L 47.576237 121.834233 
L 47.592688 120.867704 
L 47.62559 118.785196 
L 47.707845 120.267892 
L 47.855903 118.34883 
L 47.740746 120.806803 
L 47.872354 118.896773 
L 47.905255 121.214943 
L 47.971059 118.619988 
L 47.98751 120.194928 
L 48.053313 116.660346 
L 48.102666 118.105598 
L 48.152019 118.338529 
L 48.250725 116.812548 
L 48.300077 119.07309 
L 48.398783 118.615435 
L 48.497488 116.774995 
L 48.513939 117.121074 
L 48.563292 118.262303 
L 48.612645 116.595203 
L 48.629095 117.599024 
L 48.678448 118.285886 
L 48.71135 117.14786 
L 48.727801 118.72556 
L 48.744252 116.172833 
L 48.810055 117.478236 
L 48.875859 116.149074 
L 48.89231 118.02262 
L 48.908761 117.195448 
L 48.958114 119.031727 
L 48.974564 117.102038 
L 49.007466 117.793539 
L 49.155524 112.258965 
L 49.171975 112.548491 
L 49.188426 111.66347 
L 49.221328 113.897577 
L 49.237779 115.470088 
L 49.270681 111.18068 
L 49.303582 112.317577 
L 49.320034 112.352375 
L 49.369386 111.330583 
L 49.484543 115.203041 
L 49.566797 112.591099 
L 49.517445 115.686449 
L 49.599699 113.714438 
L 49.61615 114.660842 
L 49.649052 113.351316 
L 49.698404 114.155969 
L 49.731306 112.968196 
L 49.747757 114.21172 
L 49.764208 116.9634 
L 49.846463 112.560789 
L 49.862914 116.73084 
L 49.994521 111.670869 
L 50.060324 114.084296 
L 50.093226 113.320259 
L 50.109677 111.158944 
L 50.191932 112.410374 
L 50.208383 114.43671 
L 50.224834 110.091908 
L 50.307088 113.313547 
L 50.356441 114.966732 
L 50.405793 113.065486 
L 50.455146 111.253995 
L 50.471597 111.881266 
L 50.488048 114.106745 
L 50.537401 109.790405 
L 50.553851 110.016771 
L 50.685459 104.243895 
L 50.718361 108.114993 
L 50.784164 102.772243 
L 50.817066 101.48329 
L 50.849968 103.820114 
L 50.932222 102.85095 
L 50.981576 99.766268 
L 51.014477 102.073981 
L 51.06383 109.361669 
L 51.129634 105.036641 
L 51.178986 106.559229 
L 51.195437 106.476853 
L 51.343495 111.476766 
L 51.359946 110.720374 
L 51.376397 113.977574 
L 51.409299 116.932462 
L 51.508004 116.470194 
L 51.639612 114.042526 
L 51.738317 116.372522 
L 51.78767 112.937951 
L 51.853474 113.781985 
L 51.919277 115.151879 
L 52.034433 106.698279 
L 52.050884 108.881485 
L 52.182492 101.263801 
L 52.215394 102.796033 
L 52.231844 102.124827 
L 52.264746 104.287397 
L 52.281197 105.374221 
L 52.297648 100.347893 
L 52.33055 102.492728 
L 52.445706 97.93168 
L 52.478608 100.090094 
L 52.560863 106.595332 
L 52.593765 100.694635 
L 52.626666 99.75803 
L 52.824077 93.437503 
L 52.659568 100.831366 
L 52.840528 93.457135 
L 52.955685 55.592167 
L 52.972135 55.238442 
L 53.05439 63.512608 
L 53.103742 59.415601 
L 53.251801 53.103402 
L 53.383408 60.931352 
L 53.416309 59.251919 
L 53.482113 60.267044 
L 53.531466 55.353287 
L 53.580819 56.589025 
L 53.564368 54.127382 
L 53.59727 55.433143 
L 53.646623 51.136968 
L 53.695975 51.669208 
L 53.844034 66.731255 
L 53.860484 66.241457 
L 53.926288 73.470594 
L 53.975641 69.842964 
L 53.992092 70.206336 
L 54.008542 69.724144 
L 54.090797 61.459416 
L 54.123699 66.689319 
L 54.14015 67.323011 
L 54.156601 66.401721 
L 54.238855 62.919813 
L 54.271757 64.131722 
L 54.288208 65.311258 
L 54.32111 62.200743 
L 54.354012 62.728456 
L 54.386913 63.09615 
L 54.567873 50.672541 
L 54.600775 53.116438 
L 54.617226 53.9359 
L 54.633677 50.806094 
L 54.666579 51.239534 
L 54.798186 42.554137 
L 54.814637 87.020137 
L 54.896891 51.824684 
L 54.929793 48.924762 
L 54.946244 52.121146 
L 54.962695 50.733482 
L 55.0614 96.272166 
L 55.176557 50.553756 
L 55.209459 93.252275 
L 55.275262 49.212169 
L 55.341066 52.815834 
L 55.357517 50.201583 
L 55.373968 90.186779 
L 55.456223 58.325991 
L 55.489124 62.179113 
L 55.58783 70.066925 
L 55.604281 66.58203 
L 55.637183 61.329512 
L 55.719437 65.217848 
L 55.735888 65.526946 
L 55.752339 69.639313 
L 55.818142 62.569864 
L 55.834593 63.234603 
L 55.867495 64.376651 
L 55.94975 59.589986 
L 56.114259 73.925554 
L 56.130709 74.003627 
L 56.212964 66.705011 
L 56.262317 67.591774 
L 56.278768 68.291447 
L 56.31167 65.458992 
L 56.344571 67.038084 
L 56.443277 62.911806 
L 56.459728 62.393943 
L 56.574884 70.992551 
L 56.591335 68.884874 
L 56.607786 67.55283 
L 56.657139 70.025722 
L 56.67359 69.547791 
L 56.805197 78.475602 
L 56.821648 77.854751 
L 56.903903 71.923524 
L 56.871001 78.322758 
L 56.936804 76.570848 
L 56.953255 79.482696 
L 57.019058 74.247527 
L 57.03551 74.556309 
L 57.051961 73.241824 
L 57.101313 76.236781 
L 57.249372 87.617651 
L 57.265822 83.79383 
L 57.364527 85.242259 
L 57.446782 89.893724 
L 57.397429 84.111853 
L 57.496135 87.447593 
L 57.512586 85.205439 
L 57.545488 93.318773 
L 57.693546 108.860196 
L 57.742899 104.948833 
L 57.874506 95.281136 
L 57.890957 95.970859 
L 57.973212 99.998321 
L 57.95676 94.483706 
L 57.989662 96.91542 
L 58.055466 94.012452 
L 58.088368 96.075051 
L 58.170622 98.623959 
L 58.137721 95.602688 
L 58.219975 98.58133 
L 58.318681 90.648028 
L 58.351583 91.305951 
L 58.368033 95.599174 
L 58.433837 85.65703 
L 58.450288 86.815548 
L 58.49964 83.040254 
L 58.516092 83.479271 
L 58.532542 82.83831 
L 58.581895 82.877083 
L 58.6806 77.080454 
L 58.713502 77.140396 
L 58.729953 78.131155 
L 58.779306 75.477975 
L 59.009619 52.159222 
L 59.042521 53.1928 
L 59.141226 59.944167 
L 59.091873 49.50318 
L 59.157677 55.885266 
L 59.22348 49.230602 
L 59.239931 55.955148 
L 59.371538 63.005276 
L 59.453793 55.369285 
L 59.486695 60.384946 
L 59.634754 70.397919 
L 59.684106 68.095993 
L 59.865065 47.314397 
L 60.013124 65.471738 
L 60.062476 63.622191 
L 60.046026 66.03988 
L 60.078927 65.852559 
L 60.12828 70.349894 
L 60.144731 66.271501 
L 60.210535 62.436591 
L 60.226986 66.472341 
L 60.259888 65.029503 
L 60.407945 76.995633 
L 60.424397 74.036784 
L 60.440848 71.713062 
L 60.473749 78.182418 
L 60.4902 76.300142 
L 60.572455 79.039247 
L 60.605358 77.810075 
L 60.638259 78.674866 
L 60.786317 68.426285 
L 60.901473 75.95971 
L 60.967276 79.054944 
L 60.934375 75.144285 
L 61.049531 77.104137 
L 61.065983 76.609255 
L 61.082434 79.372696 
L 61.098884 79.729829 
L 61.164687 86.334068 
L 61.214041 81.647068 
L 61.230491 80.61612 
L 61.263393 82.346992 
L 61.279845 82.328112 
L 61.378549 90.24396 
L 61.411452 85.198511 
L 61.427903 86.805624 
L 61.460804 79.176098 
L 61.493707 76.612086 
L 61.510156 75.570711 
L 61.543059 88.880185 
L 61.625314 79.698204 
L 61.658215 76.674141 
L 61.674666 87.182198 
L 61.74047 77.238961 
L 61.789822 84.626398 
L 61.872077 81.129009 
L 61.93788 78.29677 
L 61.904979 81.506979 
L 61.954332 80.221629 
L 61.970783 83.65604 
L 62.020135 74.154198 
L 62.036586 74.484244 
L 62.151742 80.130022 
L 62.168194 78.431945 
L 62.201095 75.611277 
L 62.233997 81.87762 
L 62.250448 81.550431 
L 62.266898 81.596679 
L 62.299801 85.138318 
L 62.382056 83.082903 
L 62.414957 79.840637 
L 62.447859 86.680363 
L 62.464309 85.647191 
L 62.48076 87.376256 
L 62.563015 85.154628 
L 62.579466 86.635586 
L 62.694622 82.687579 
L 62.612367 86.90842 
L 62.711073 85.834306 
L 62.727525 85.444324 
L 62.760426 90.943638 
L 62.84268 87.782664 
L 62.941387 93.882925 
L 62.957836 91.056022 
L 63.00719 91.796376 
L 63.089444 86.217537 
L 63.171698 93.705924 
L 63.204601 96.380158 
L 63.286854 94.945046 
L 63.319757 92.167434 
L 63.369109 83.521121 
L 63.451364 86.967283 
L 63.467815 86.707034 
L 63.56652 76.919166 
L 63.582971 81.22784 
L 63.615874 86.297293 
L 63.698127 83.994569 
L 63.731029 86.425229 
L 63.763932 84.525334 
L 63.796833 76.625885 
L 63.879088 78.731198 
L 64.027146 90.92153 
L 64.060047 88.516933 
L 64.125851 90.401508 
L 64.158753 92.071544 
L 64.191654 88.840649 
L 64.224557 91.240371 
L 64.241008 90.489732 
L 64.273909 93.981736 
L 64.405516 90.406382 
L 64.306812 94.066646 
L 64.438419 90.966282 
L 64.454869 95.266759 
L 64.537124 94.242949 
L 64.652281 84.633788 
L 64.668731 85.413095 
L 64.701633 87.337468 
L 64.734534 85.298361 
L 64.783888 83.403732 
L 64.899044 88.787554 
L 64.964848 84.737257 
L 64.931947 90.204413 
L 65.0142 86.016362 
L 65.195161 92.857262 
L 65.211611 91.284094 
L 65.260964 95.791886 
L 65.293865 93.69479 
L 65.409023 86.811492 
L 65.441924 91.236792 
L 65.458375 91.185263 
L 65.474826 91.710888 
L 65.491276 89.537154 
L 65.524179 90.339764 
L 65.54063 89.08501 
L 65.589982 93.434812 
L 65.606433 94.660917 
L 65.655786 91.099715 
L 65.672237 92.24732 
L 65.803844 78.697977 
L 65.853197 84.37016 
L 65.869648 84.293818 
L 65.968352 88.046532 
L 65.902549 83.017549 
L 65.984804 85.994159 
L 66.132862 79.124951 
L 66.248018 84.087978 
L 66.182214 78.363499 
L 66.264469 82.544076 
L 66.346724 83.085001 
L 66.412528 79.842379 
L 66.428979 79.870877 
L 66.445429 82.020932 
L 66.478331 77.891683 
L 66.544135 80.624784 
L 66.741545 90.247946 
L 66.774448 92.408608 
L 66.8238 89.017353 
L 66.873153 85.904926 
L 66.906055 86.772899 
L 66.922506 91.566823 
L 67.021211 89.30228 
L 67.070563 86.491466 
L 67.103466 88.390332 
L 67.119917 90.640032 
L 67.169269 87.180045 
L 67.202171 87.426545 
L 67.300877 90.776893 
L 67.317328 89.756602 
L 67.350229 85.931074 
L 67.399583 90.435161 
L 67.432484 88.901811 
L 67.514739 88.651917 
L 67.564091 92.407021 
L 67.712149 67.776068 
L 67.745052 86.988572 
L 67.810855 81.071742 
L 67.942463 60.282144 
L 67.991815 65.795488 
L 68.057618 78.94014 
L 68.07407 65.488469 
L 68.090521 68.376247 
L 68.106971 66.833017 
L 68.238578 87.661253 
L 68.287932 89.658519 
L 68.304381 85.741896 
L 68.320833 87.647529 
L 68.337284 84.524711 
L 68.370185 90.350787 
L 68.403087 88.132548 
L 68.518243 91.759661 
L 68.534695 91.354478 
L 68.584047 90.888329 
L 68.61695 91.602695 
L 68.633401 91.368383 
L 68.649851 93.428437 
L 68.715654 89.17461 
L 68.732105 90.535408 
L 68.748557 90.517768 
L 68.847263 95.68033 
L 68.880164 92.745691 
L 68.896615 87.318086 
L 68.99532 87.702055 
L 69.044674 89.394796 
L 69.028222 86.701401 
L 69.077575 87.601763 
L 69.143378 71.22229 
L 69.225633 77.364357 
L 69.307888 67.64264 
L 69.324339 78.730149 
L 69.390143 85.610481 
L 69.439495 91.284275 
L 69.52175 91.043016 
L 69.554651 91.717313 
L 69.587553 89.911249 
L 69.604005 73.656931 
L 69.636906 93.087242 
L 69.702709 78.252269 
L 69.801415 94.146618 
L 69.817865 93.828168 
L 69.916571 98.960811 
L 69.883669 92.668315 
L 69.949472 96.286518 
L 70.015277 81.913482 
L 70.113982 84.000176 
L 70.245589 92.598238 
L 70.294941 92.377454 
L 70.475902 83.460973 
L 70.344295 93.641419 
L 70.492354 83.852934 
L 70.508803 83.810822 
L 70.591058 77.982868 
L 70.722665 101.676233 
L 70.788469 93.666002 
L 70.80492 77.105683 
L 70.903626 80.526897 
L 70.98588 95.089819 
L 71.002331 79.482581 
L 71.035233 94.128617 
L 71.051683 79.725552 
L 71.101037 95.098302 
L 71.150389 84.365722 
L 71.216193 87.145699 
L 71.281996 81.578185 
L 71.298448 82.808352 
L 71.331349 80.736235 
L 71.364251 81.010048 
L 71.380703 79.625978 
L 71.413604 80.952952 
L 71.528759 97.722056 
L 71.578113 89.417169 
L 71.660368 94.759768 
L 71.775524 96.454447 
L 71.693269 93.338923 
L 71.791975 96.057316 
L 71.874229 96.559588 
L 71.907131 93.535054 
L 71.940034 50.227862 
L 71.972935 96.423886 
L 72.022287 53.296069 
L 72.05519 54.409448 
L 72.170345 103.296683 
L 72.219698 54.623088 
L 72.285501 57.881352 
L 72.318404 54.726171 
L 72.367756 59.672136 
L 72.400657 57.07703 
L 72.417108 57.198411 
L 72.43356 56.100924 
L 72.466462 60.960106 
L 72.499365 59.992579 
L 72.565167 64.110307 
L 72.713225 73.60473 
L 72.795482 63.828989 
L 72.828381 66.934358 
L 72.877735 70.675372 
L 72.910638 66.475614 
L 72.927089 67.128331 
L 73.058696 52.174086 
L 73.091595 52.453892 
L 73.206754 100.379764 
L 73.223202 101.728048 
L 73.256105 98.071544 
L 73.272556 46.832451 
L 73.35481 100.2598 
L 73.371261 100.653327 
L 73.387712 99.825351 
L 73.404163 99.92116 
L 73.453517 95.472598 
L 73.502868 98.854762 
L 73.601576 102.543052 
L 73.552222 96.938677 
L 73.618027 99.534601 
L 73.716732 98.135356 
L 73.650926 100.443381 
L 73.733183 99.094751 
L 74.045748 115.943044 
L 74.062199 115.794145 
L 74.128004 114.023325 
L 74.095102 115.823119 
L 74.177355 114.912974 
L 74.276063 118.533636 
L 74.292514 116.674577 
L 74.308965 117.273928 
L 74.325413 116.364953 
L 74.440572 107.9715 
L 74.473472 110.31745 
L 74.57218 115.711884 
L 74.637982 115.186938 
L 74.802491 105.145326 
L 74.967001 111.656718 
L 75.016352 110.805963 
L 75.032803 112.119177 
L 75.065705 111.590285 
L 75.115059 113.472591 
L 75.16441 113.275773 
L 75.180861 111.577876 
L 75.263118 113.990681 
L 75.394725 111.380295 
L 75.32892 114.772418 
L 75.411173 112.888526 
L 75.476978 115.101761 
L 75.49343 111.93138 
L 75.559232 104.944486 
L 75.641488 105.808419 
L 75.756644 111.360587 
L 75.954056 93.629542 
L 75.970504 94.736386 
L 76.069212 99.435278 
L 76.102111 91.134834 
L 76.167916 96.564091 
L 76.184368 100.517695 
L 76.266621 96.929682 
L 76.365329 91.898856 
L 76.381777 92.88441 
L 76.414679 93.545791 
L 76.447582 90.150289 
L 76.480485 95.618425 
L 76.513384 93.651489 
L 76.529835 93.665143 
L 76.644994 80.786288 
L 76.59564 94.564516 
L 76.694345 85.872799 
L 76.76015 93.132356 
L 76.825952 91.984595 
L 76.957559 102.934626 
L 76.891757 89.813628 
L 77.039816 101.519272 
L 77.187874 87.965 
L 77.220774 91.623125 
L 77.253676 86.58465 
L 77.30303 89.330988 
L 77.451088 76.947222 
L 77.51689 84.600601 
L 77.566244 77.809437 
L 77.582696 76.355034 
L 77.632046 80.985265 
L 77.664949 77.919001 
L 77.6814 78.667652 
L 77.714303 77.29076 
L 77.878812 61.642008 
L 77.895261 62.047156 
L 78.01042 56.0265 
L 78.043319 56.621147 
L 78.174926 63.221441 
L 78.207829 61.725755 
L 78.22428 61.872796 
L 78.290085 62.452494 
L 78.355887 55.744088 
L 78.38879 56.67251 
L 78.405241 53.409387 
L 78.454592 60.573496 
L 78.487494 56.904664 
L 78.520397 56.274767 
L 78.536848 58.327803 
L 78.619101 51.50272 
L 78.668455 52.575373 
L 78.750709 56.586033 
L 78.701358 51.231618 
L 78.76716 55.264134 
L 78.783611 50.566978 
L 78.882316 51.863311 
L 78.898767 53.707281 
L 78.931669 48.435341 
L 78.964572 53.373189 
L 78.98102 50.308641 
L 79.063277 54.192711 
L 79.129079 62.307024 
L 79.194884 58.412709 
L 79.342942 44.049703 
L 79.375845 42.832618 
L 79.458098 45.48489 
L 79.507452 41.769859 
L 79.540351 46.763955 
L 79.556803 46.141693 
L 79.622608 47.064348 
L 79.704861 42.003499 
L 79.902273 62.754951 
L 79.935176 65.258183 
L 79.968075 63.223434 
L 80.149036 46.785826 
L 80.165488 47.666947 
L 80.181939 47.565284 
L 80.313546 35.85459 
L 80.329997 36.458685 
L 80.346449 34.683914 
L 80.379348 34.716157 
L 80.494504 27.553358 
L 80.560309 29.282643 
L 80.609663 28.600937 
L 80.691916 38.315997 
L 80.74127 29.468257 
L 80.807072 35.131319 
L 80.856426 28.670843 
L 80.938679 29.467956 
L 80.95513 32.203422 
L 80.971582 66.256276 
L 81.053835 25.477607 
L 81.070286 26.464325 
L 81.086738 26.022909 
L 81.152543 89.439011 
L 81.201893 48.205562 
L 81.218345 47.145027 
L 81.234796 47.710273 
L 81.333501 89.676094 
L 81.349952 86.817305 
L 81.432208 83.357017 
L 81.382854 88.266503 
L 81.44866 85.446347 
L 81.465108 86.187042 
L 81.481559 85.050857 
L 81.580267 43.487278 
L 81.547364 86.365904 
L 81.596715 44.345779 
L 81.629617 92.059216 
L 81.711874 86.676588 
L 81.82703 94.88416 
L 81.87638 92.749662 
L 81.942185 92.931165 
L 82.04089 84.965856 
L 82.156046 90.29969 
L 82.172497 81.333668 
L 82.221851 92.568636 
L 82.254754 88.701503 
L 82.402812 96.68772 
L 82.41926 96.917403 
L 82.485065 91.003218 
L 82.517968 94.029379 
L 82.534419 96.935369 
L 82.567319 90.767576 
L 82.600221 92.55965 
L 82.633124 88.765798 
L 82.666026 93.364117 
L 82.715377 91.442772 
L 82.74828 92.367134 
L 82.929241 102.907754 
L 82.945692 102.223739 
L 82.962143 100.270708 
L 83.044396 102.776214 
L 83.077299 98.665518 
L 83.09375 104.680251 
L 83.143101 107.279935 
L 83.176004 104.464693 
L 83.192455 105.431899 
L 83.324062 99.358725 
L 83.340513 100.701457 
L 83.406315 106.015638 
L 83.505023 105.500897 
L 83.521471 103.521131 
L 83.587276 107.855622 
L 83.620179 103.925691 
L 83.63663 103.621081 
L 83.653078 104.961037 
L 83.685981 106.273428 
L 83.735335 105.372916 
L 83.899844 94.757494 
L 83.916296 95.094934 
L 83.982098 85.865595 
L 84.031452 91.942725 
L 84.113705 102.703898 
L 84.163059 99.010563 
L 84.212409 99.324626 
L 84.327568 88.152562 
L 84.376919 95.242914 
L 84.426273 93.451357 
L 84.492075 86.512725 
L 84.541429 90.215829 
L 84.673036 79.619221 
L 84.705938 83.108976 
L 84.837546 92.288493 
L 84.952702 85.358344 
L 84.985604 88.541194 
L 85.117211 80.917642 
L 85.183013 82.492256 
L 85.331072 90.176001 
L 85.347523 88.738183 
L 85.363974 85.97309 
L 85.446228 90.15543 
L 85.462679 89.533545 
L 85.47913 92.743442 
L 85.495581 94.176436 
L 85.528484 91.303541 
L 85.544935 91.30945 
L 85.627188 87.232091 
L 85.660091 90.039401 
L 85.725893 90.833196 
L 85.692994 89.414674 
L 85.742344 90.590952 
L 85.808149 88.114175 
L 85.8575 92.531408 
L 86.071364 87.141819 
L 86.153617 90.662265 
L 86.202971 89.81182 
L 86.235874 89.704792 
L 86.40038 95.734635 
L 86.416831 93.990937 
L 86.482637 97.777972 
L 86.499088 95.424824 
L 86.581341 100.43794 
L 86.53199 94.776429 
L 86.614244 97.204971 
L 86.844555 76.643611 
L 86.861007 79.11578 
L 86.959711 86.468505 
L 86.992614 86.236482 
L 87.10777 74.817833 
L 87.140672 75.792278 
L 87.222929 79.966314 
L 87.305182 77.764088 
L 87.370984 73.778994 
L 87.387435 76.365917 
L 87.403886 79.564088 
L 87.469692 73.280437 
L 87.502591 79.268946 
L 87.61775 74.926433 
L 87.749357 63.927449 
L 87.765808 65.821732 
L 87.798708 63.793092 
L 87.815159 68.735333 
L 87.880964 73.472486 
L 87.930315 71.259427 
L 87.99612 65.28031 
L 88.078373 66.721557 
L 88.111276 68.987329 
L 88.16063 66.175185 
L 88.193529 65.206664 
L 88.209981 65.751143 
L 88.292237 109.703893 
L 88.325136 109.395508 
L 88.37449 106.185445 
L 88.571902 89.980799 
L 88.654156 95.229777 
L 88.70351 94.015906 
L 88.719961 93.927988 
L 88.736409 94.00936 
L 88.933821 81.518996 
L 88.999627 82.434312 
L 89.048977 88.227197 
L 89.098331 84.947724 
L 89.180584 72.20178 
L 89.24639 75.673844 
L 89.262841 76.936072 
L 89.29574 72.172153 
L 89.443799 61.998227 
L 89.493152 64.118429 
L 89.575406 67.852124 
L 89.591857 69.626056 
L 89.62476 65.591587 
L 89.657662 102.306069 
L 89.723464 68.579486 
L 89.772818 71.951701 
L 89.83862 71.649641 
L 89.855071 72.213556 
L 89.871523 71.434856 
L 89.97023 66.042756 
L 89.920876 71.661006 
L 89.986678 68.163014 
L 90.00313 68.391266 
L 90.068935 69.866728 
L 90.200542 59.240815 
L 90.315698 104.026068 
L 90.365052 102.547113 
L 90.381503 105.48772 
L 90.463756 102.74367 
L 90.480208 102.632807 
L 90.578912 108.054263 
L 90.611815 106.578952 
L 90.628266 104.995508 
L 90.661165 109.010134 
L 90.710519 105.829843 
L 90.776324 111.340045 
L 90.842126 108.18381 
L 90.957282 100.934268 
L 91.039539 95.216058 
L 91.121792 97.792992 
L 91.154694 100.44818 
L 91.220496 98.522232 
L 91.236948 97.191703 
L 91.26985 100.794169 
L 91.286302 98.370346 
L 91.43436 107.825799 
L 91.450811 105.788816 
L 91.516613 110.198093 
L 91.533065 111.829416 
L 91.582419 106.370673 
L 91.615321 109.52601 
L 91.648221 105.786863 
L 91.730477 107.968524 
L 91.763376 111.975258 
L 91.845633 109.087851 
L 91.944337 102.22024 
L 92.010143 104.227595 
L 92.075945 107.535882 
L 92.108847 105.4371 
L 92.14175 102.526331 
L 92.207552 104.446742 
L 92.256905 108.409588 
L 92.322707 105.693434 
L 92.503668 95.421004 
L 92.52012 96.253879 
L 92.536571 92.566728 
L 92.585922 90.245893 
L 92.618824 91.736348 
L 92.635276 93.757955 
L 92.701081 89.4048 
L 92.717532 78.120518 
L 92.799785 95.97755 
L 92.931392 91.496911 
L 92.947844 92.012084 
L 92.964295 91.297979 
L 92.980746 76.123212 
L 93.063 94.856365 
L 93.079451 95.357583 
L 93.095902 93.249996 
L 93.145253 94.663176 
L 93.161704 94.1395 
L 93.194607 95.687222 
L 93.227509 96.286327 
L 93.309763 79.201519 
L 93.359116 80.460765 
L 93.44137 93.999365 
L 93.490724 92.387268 
L 93.572977 96.75618 
L 93.605879 95.066291 
L 93.753938 86.829639 
L 93.770389 90.18206 
L 93.803292 86.338521 
L 93.836191 87.029278 
L 93.918448 54.634865 
L 93.95135 61.385258 
L 94.017152 56.795351 
L 94.033603 93.835874 
L 94.115857 60.351212 
L 94.231013 67.020092 
L 94.263915 64.672059 
L 94.280366 64.073225 
L 94.32972 64.770218 
L 94.379071 70.190915 
L 94.461327 69.158341 
L 94.49423 66.860938 
L 94.543581 71.985118 
L 94.560032 71.945772 
L 94.642285 69.651833 
L 94.724542 77.708398 
L 94.790344 80.361051 
L 94.806795 78.975279 
L 94.839698 70.878892 
L 94.921951 74.1699 
L 95.070009 85.283829 
L 95.102912 84.168843 
L 95.119363 80.920198 
L 95.201616 85.630877 
L 95.283873 89.237338 
L 95.316775 88.357819 
L 95.41548 80.28248 
L 95.448382 82.643565 
L 95.514184 86.006031 
L 95.547087 84.645459 
L 95.645792 81.207108 
L 95.596441 85.520977 
L 95.662243 83.995352 
L 95.744496 86.050301 
L 95.728048 83.454001 
L 95.777399 84.797606 
L 95.79385 83.298917 
L 95.843204 88.68303 
L 95.859655 86.615105 
L 95.95836 94.53282 
L 96.007714 91.203762 
L 96.024162 91.107616 
L 96.106418 84.840571 
L 96.122869 90.52469 
L 96.238025 100.370016 
L 96.33673 99.846073 
L 96.50124 90.512116 
L 96.698652 103.644865 
L 96.7151 98.23248 
L 96.813808 101.728083 
L 96.896061 106.242054 
L 96.87961 101.168153 
L 96.978314 104.180429 
L 96.994766 104.05688 
L 97.126373 96.789653 
L 97.159275 96.869373 
L 97.175727 99.775755 
L 97.241532 95.647219 
L 97.25798 89.560301 
L 97.356688 93.420244 
L 97.389587 94.44306 
L 97.406038 92.616073 
L 97.537645 99.762633 
L 97.570548 100.34077 
L 97.652804 96.978093 
L 97.800863 89.747205 
L 97.817311 90.299831 
L 97.899567 93.005956 
L 97.916019 89.96333 
L 97.93247 89.841453 
L 97.948918 90.514485 
L 97.965369 92.076991 
L 98.014723 88.837687 
L 98.047626 89.962266 
L 98.064077 89.873058 
L 98.228584 96.161493 
L 98.245035 95.74743 
L 98.261486 95.085371 
L 98.277937 97.090322 
L 98.425996 102.380484 
L 98.491798 99.211458 
L 98.541152 102.001771 
L 98.557603 102.391281 
L 98.574054 101.968845 
L 98.590506 102.243191 
L 98.623408 97.649389 
L 98.705662 98.993491 
L 98.72211 101.942331 
L 98.820817 101.02317 
L 98.919525 102.966376 
L 98.85372 99.528276 
L 98.935973 101.558261 
L 99.182739 93.294989 
L 99.215642 94.939409 
L 99.264993 97.474376 
L 99.314343 95.826001 
L 99.380148 88.43647 
L 99.429499 91.106517 
L 99.577558 97.937022 
L 99.594012 97.749003 
L 99.61046 99.578389 
L 99.692714 98.375812 
L 99.824324 94.148415 
L 99.840772 96.416913 
L 99.857226 93.852514 
L 99.923032 96.361213 
L 100.021733 92.200188 
L 100.038187 92.50643 
L 100.120441 99.655248 
L 100.153343 96.037056 
L 100.169791 94.901434 
L 100.235596 97.160515 
L 100.268499 99.000503 
L 100.284947 97.398632 
L 100.44946 66.979482 
L 100.531713 74.328698 
L 100.564616 76.263959 
L 100.581064 73.277716 
L 100.597518 73.2976 
L 100.679772 52.96016 
L 100.646869 75.711724 
L 100.712674 56.119232 
L 100.745577 77.694914 
L 100.778473 54.599425 
L 100.811376 55.809722 
L 100.877181 53.397912 
L 100.893629 69.801927 
L 100.910083 48.587538 
L 100.992337 68.566168 
L 101.041687 63.353584 
L 101.058142 68.695415 
L 101.091044 65.683566 
L 101.2062 89.406196 
L 101.140395 62.739023 
L 101.272005 86.213642 
L 101.288454 66.985199 
L 101.387161 68.541937 
L 101.436512 68.899216 
L 101.551668 85.454283 
L 101.58457 89.446817 
L 101.633921 84.404967 
L 101.666824 86.241206 
L 101.683278 86.789289 
L 101.699726 85.473173 
L 101.716181 69.733305 
L 101.814882 74.563311 
L 101.831336 75.059906 
L 101.930038 89.933266 
L 101.946492 88.817121 
L 101.96294 76.891426 
L 102.061648 78.239519 
L 102.078096 77.084023 
L 102.127453 86.418804 
L 102.176804 85.441417 
L 102.193252 74.239716 
L 102.29196 77.750906 
L 102.324862 76.734385 
L 102.341311 78.361054 
L 102.390668 82.286578 
L 102.440018 76.844962 
L 102.588077 71.139307 
L 102.604525 74.167988 
L 102.686778 69.290855 
L 102.719681 64.788098 
L 102.752583 35.965393 
L 102.834837 42.483954 
L 102.851291 70.562962 
L 102.933544 43.101994 
L 102.966447 41.80798 
L 102.999349 44.01247 
L 103.015798 42.528194 
L 103.032252 70.57874 
L 103.130953 68.959534 
L 103.246109 74.656425 
L 103.410622 57.620084 
L 103.42707 67.295507 
L 103.443525 54.087414 
L 103.509323 57.943413 
L 103.55868 58.951149 
L 103.575129 56.870729 
L 103.591583 57.275696 
L 103.608031 54.121323 
L 103.739642 80.847369 
L 103.772544 75.05845 
L 103.838343 82.945454 
L 103.937051 87.747334 
L 103.969953 86.831039 
L 104.085109 74.06118 
L 104.13446 77.469001 
L 104.216713 79.384538 
L 104.200265 76.903473 
L 104.249616 78.286218 
L 104.26607 76.53087 
L 104.298973 83.572735 
L 104.331869 86.255608 
L 104.381226 82.41994 
L 104.397674 82.354295 
L 104.479927 73.139685 
L 104.529284 73.176014 
L 104.627986 81.401998 
L 104.660888 81.04842 
L 104.693791 84.85565 
L 104.726693 80.018837 
L 104.743142 80.06881 
L 104.759596 78.29306 
L 104.808947 83.784413 
L 104.825401 81.300151 
L 104.841849 81.835177 
L 104.858304 80.407881 
L 104.8912 81.648453 
L 104.97346 79.496295 
L 104.957005 85.07554 
L 104.989908 82.361107 
L 105.088615 78.527041 
L 105.02281 82.647776 
L 105.105064 79.615978 
L 105.170869 82.454125 
L 105.236674 82.093183 
L 105.253122 80.344119 
L 105.302473 83.731132 
L 105.318927 81.531511 
L 105.35183 85.920071 
L 105.417635 82.950253 
L 105.434083 81.406943 
L 105.466986 87.099356 
L 105.483434 85.273583 
L 105.516336 86.997483 
L 105.532791 83.853335 
L 105.549239 85.077302 
L 105.697297 75.289128 
L 105.746648 78.719131 
L 105.779551 76.424514 
L 105.911161 63.425714 
L 105.944063 66.039433 
L 105.960512 66.307559 
L 106.075667 61.88526 
L 106.092122 62.406814 
L 106.10857 64.260958 
L 106.174375 60.801654 
L 106.190823 60.80939 
L 106.256628 64.096543 
L 106.305979 58.662848 
L 106.437589 68.332107 
L 106.536291 67.256206 
L 106.61855 60.333377 
L 106.667901 62.905848 
L 106.799505 67.393916 
L 106.86531 63.029903 
L 106.898213 72.173548 
L 106.980466 66.776649 
L 107.128525 56.628441 
L 107.144979 58.31955 
L 107.161427 59.834097 
L 107.177882 56.745193 
L 107.19433 56.751779 
L 107.293037 48.419614 
L 107.342388 48.979599 
L 107.375291 81.117197 
L 107.391739 45.526851 
L 107.457544 56.421452 
L 107.473998 56.979464 
L 107.506895 56.787324 
L 107.523349 51.618046 
L 107.638505 94.118271 
L 107.753661 88.941749 
L 107.770109 89.648595 
L 107.786563 92.100594 
L 107.852369 87.291722 
L 107.868817 89.515935 
L 107.885271 89.540131 
L 107.901719 88.41888 
L 107.918167 91.471576 
L 107.967524 89.710103 
L 108.016875 95.569155 
L 108.049778 89.362759 
L 108.066226 89.790677 
L 108.08268 89.8017 
L 108.197836 83.198068 
L 108.312992 87.264012 
L 108.32944 85.124704 
L 108.4117 87.720207 
L 108.477498 84.944948 
L 108.493953 86.416093 
L 108.576206 93.204114 
L 108.609109 90.048743 
L 108.625557 89.761446 
L 108.642011 90.764263 
L 108.773615 95.626045 
L 108.806518 95.986185 
L 108.855875 93.914364 
L 108.872323 97.326225 
L 108.938128 91.842774 
L 109.003927 88.434412 
L 109.03683 91.875544 
L 109.135537 94.822662 
L 109.086187 91.411764 
L 109.151986 92.366647 
L 109.16844 70.141505 
L 109.267148 77.165535 
L 109.316498 79.731249 
L 109.349401 76.005818 
L 109.365849 77.661728 
L 109.481005 69.22768 
L 109.530362 70.683981 
L 109.579713 90.375912 
L 109.744219 86.206388 
L 109.777122 81.427248 
L 109.842927 81.993318 
L 109.859375 64.013805 
L 109.941635 88.508967 
L 110.05679 83.893002 
L 110.171946 89.423981 
L 110.106141 83.407135 
L 110.188394 87.502766 
L 110.221297 84.37649 
L 110.237745 89.132102 
L 110.287102 84.475366 
L 110.30355 73.608906 
L 110.369355 88.985612 
L 110.402258 78.217255 
L 110.500966 91.378182 
L 110.517414 90.821459 
L 110.533862 89.777726 
L 110.550316 90.201221 
L 110.566765 77.834441 
L 110.63257 94.353356 
L 110.649018 94.345228 
L 110.714823 91.693765 
L 110.747726 93.799063 
L 110.829979 96.24931 
L 110.862881 95.149023 
L 110.879336 95.146804 
L 110.895784 92.120061 
L 110.945135 100.359509 
L 110.961589 99.303507 
L 110.978037 99.721229 
L 110.994492 97.16047 
L 111.027394 100.059116 
L 111.076745 97.527933 
L 111.158998 101.025529 
L 111.191901 99.708062 
L 111.257706 94.473963 
L 111.307057 96.066658 
L 111.372862 100.735341 
L 111.405764 97.747698 
L 111.488018 89.307992 
L 111.537368 94.540837 
L 111.586725 99.546067 
L 111.619622 95.675375 
L 111.636076 56.22236 
L 111.718329 102.168028 
L 111.734784 99.772452 
L 111.833485 101.385674 
L 111.84994 102.668719 
L 111.89929 99.066464 
L 111.915739 98.922289 
L 111.932193 99.376646 
L 111.965096 103.953787 
L 112.014446 99.12861 
L 112.030894 100.239565 
L 112.063797 97.799578 
L 112.129602 100.355217 
L 112.211855 101.363149 
L 112.195407 99.521881 
L 112.244758 101.014325 
L 112.458621 81.863906 
L 112.573777 96.727994 
L 112.590225 93.212643 
L 112.60668 90.090518 
L 112.672485 94.372732 
L 112.705388 92.251185 
L 112.754738 90.615525 
L 112.771186 92.642689 
L 112.787641 92.193331 
L 112.836992 83.178933 
L 112.902797 84.06306 
L 113.067303 93.510958 
L 113.083758 92.143609 
L 113.100206 91.593112 
L 113.182459 95.238572 
L 113.215362 95.020133 
L 113.248264 92.88959 
L 113.297615 95.695977 
L 113.314069 97.822483 
L 113.346972 94.213342 
L 113.396323 95.627044 
L 113.429225 91.067924 
L 113.49503 95.693567 
L 113.560829 100.852936 
L 113.577284 96.427847 
L 113.610186 91.608206 
L 113.659537 97.218193 
L 113.69244 95.595148 
L 113.774693 89.734971 
L 113.856946 84.871212 
L 113.889849 86.329254 
L 113.906303 88.54521 
L 113.955654 82.943587 
L 114.005005 78.559585 
L 113.988556 83.487332 
L 114.054362 81.881651 
L 114.07081 82.335341 
L 114.087258 81.480439 
L 114.20242 74.460645 
L 114.284673 69.878841 
L 114.317576 82.177506 
L 114.383375 84.585783 
L 114.399829 69.914281 
L 114.465634 85.210122 
L 114.514985 81.034003 
L 114.531433 79.404145 
L 114.547887 83.121847 
L 114.613693 80.857746 
L 114.630141 81.167812 
L 114.646589 79.7062 
L 114.663043 79.989064 
L 114.728849 67.376974 
L 114.811102 72.602751 
L 114.95916 79.52155 
L 115.041414 67.757695 
L 115.074316 76.968857 
L 115.140121 79.389678 
L 115.156569 75.911525 
L 115.271725 69.952091 
L 115.33753 71.512072 
L 115.353978 73.928129 
L 115.386881 66.092779 
L 115.403335 58.941486 
L 115.485589 63.810361 
L 115.600745 69.153597 
L 115.617193 63.754249 
L 115.66655 71.984084 
L 115.699452 69.02792 
L 115.7159 72.034177 
L 115.814608 70.163733 
L 116.012017 54.095446 
L 116.04492 55.038933 
L 116.061368 56.695069 
L 116.094271 54.369329 
L 116.176524 42.652581 
L 116.209426 48.470189 
L 116.225881 47.293464 
L 116.275232 49.44739 
L 116.357485 87.860582 
L 116.390387 84.656216 
L 116.472641 92.941967 
L 116.538446 90.278522 
L 116.554894 79.907753 
L 116.637154 86.643633 
L 116.818115 94.691543 
L 116.916816 80.868277 
L 116.949718 87.032295 
L 116.982621 93.215354 
L 116.999069 90.984775 
L 117.064874 47.917854 
L 117.081329 92.794323 
L 117.097777 91.13262 
L 117.130679 88.425291 
L 117.196485 89.146172 
L 117.328089 104.449704 
L 117.360991 102.544272 
L 117.459699 97.36663 
L 117.476147 98.15783 
L 117.607757 91.611685 
L 117.50905 99.381209 
L 117.64066 95.459265 
L 117.739361 100.289829 
L 117.755816 98.574378 
L 117.821615 92.836817 
L 117.88742 96.464502 
L 117.93677 98.906371 
L 117.986127 105.266917 
L 118.051933 100.621641 
L 118.084829 88.241996 
L 118.183537 91.086663 
L 118.199991 94.541123 
L 118.282244 90.591399 
L 118.298692 89.996842 
L 118.413848 96.08622 
L 118.430303 96.054093 
L 118.446751 95.432595 
L 118.463205 96.331897 
L 118.529004 104.382724 
L 118.578361 101.517118 
L 118.64416 99.266059 
L 118.660614 102.739544 
L 118.677063 100.910393 
L 118.742868 104.169696 
L 118.709965 100.176285 
L 118.77577 100.965918 
L 118.841576 102.47314 
L 118.989634 93.103441 
L 119.121238 101.668804 
L 119.219946 99.059738 
L 119.236394 100.089883 
L 119.302199 103.462685 
L 119.335101 101.227468 
L 119.417355 72.014815 
L 119.48316 92.947218 
L 119.516062 90.442756 
L 119.581861 90.751051 
L 119.631218 94.427087 
L 119.697023 92.071248 
L 119.713471 91.998586 
L 119.72992 95.454316 
L 119.779277 91.36524 
L 119.795725 92.532412 
L 119.845082 86.441112 
L 119.910881 89.928387 
L 120.009588 92.825602 
L 120.058939 92.499658 
L 120.075394 95.023271 
L 120.141192 91.49164 
L 120.157647 93.118139 
L 120.174095 92.601049 
L 120.206998 97.073601 
L 120.272803 90.177462 
L 120.420861 79.382726 
L 120.338608 90.632447 
L 120.503114 80.121784 
L 120.56892 79.676202 
L 120.634725 85.300886 
L 120.667627 91.694367 
L 120.733426 89.056327 
L 120.815679 83.60553 
L 120.832134 85.13238 
L 120.865036 92.477796 
L 120.94729 89.997154 
L 121.013095 81.255574 
L 121.095348 83.219639 
L 121.210504 94.499112 
L 121.259855 92.12611 
L 121.276309 90.362915 
L 121.32566 93.211182 
L 121.375011 90.518506 
L 121.391465 92.913906 
L 121.473718 89.798764 
L 121.490173 89.312786 
L 121.506621 91.938086 
L 121.523069 94.221875 
L 121.572426 90.321692 
L 121.621777 93.588124 
L 121.736933 78.82761 
L 121.819186 78.963307 
L 121.901445 77.833432 
L 121.934342 93.276651 
L 122.016601 75.026895 
L 121.983699 95.080572 
L 122.033049 92.48121 
L 122.065952 94.99668 
L 122.0824 94.408569 
L 122.098854 75.715871 
L 122.197556 79.089998 
L 122.263361 79.536429 
L 122.362069 74.531646 
L 122.641731 87.65778 
L 122.674634 83.676762 
L 122.773341 76.647606 
L 122.78979 80.14471 
L 122.822692 86.184627 
L 122.904945 81.282024 
L 123.102361 91.441939 
L 123.118809 91.109157 
L 123.16816 81.324065 
L 123.250419 86.015553 
L 123.266867 85.431011 
L 123.283322 87.040081 
L 123.29977 86.802014 
L 123.316218 87.771886 
L 123.365575 84.789042 
L 123.398478 84.358368 
L 123.414926 85.013319 
L 123.530082 89.238789 
L 123.562984 87.582663 
L 123.579432 86.654958 
L 123.612335 89.093549 
L 123.67814 92.803911 
L 123.727491 91.7986 
L 123.892004 81.792348 
L 124.040062 73.448145 
L 124.05651 76.694939 
L 124.105867 77.869038 
L 124.122315 74.058369 
L 124.155218 73.79068 
L 124.171666 54.855252 
L 124.270374 59.824529 
L 124.401978 69.56019 
L 124.418432 68.745317 
L 124.451335 72.426152 
L 124.467783 75.354456 
L 124.533588 70.346426 
L 124.550036 70.149411 
L 124.632296 76.993093 
L 124.681646 76.518671 
L 124.698095 73.527589 
L 124.7639 78.827474 
L 124.780354 79.596105 
L 124.911958 90.840224 
L 125.027114 96.441174 
L 125.125822 95.370961 
L 125.175172 91.25639 
L 125.224523 92.046415 
L 125.240978 95.973339 
L 125.306783 89.389605 
L 125.323231 88.862525 
L 125.454841 42.818969 
L 125.471289 43.857974 
L 125.537095 85.441382 
L 125.586445 81.780772 
L 125.6029 80.788717 
L 125.65225 83.371409 
L 125.685153 82.100788 
L 125.750958 85.225448 
L 125.718055 81.488134 
L 125.800309 82.643439 
L 125.816757 82.554156 
L 125.882562 86.10691 
L 125.931913 84.921149 
L 125.948367 83.168351 
L 126.014172 85.422096 
L 126.03062 84.885433 
L 126.079971 87.484283 
L 126.145776 87.330078 
L 126.178679 83.736152 
L 126.244484 85.565764 
L 126.293835 89.055007 
L 126.343185 84.140923 
L 126.40899 81.009029 
L 126.441893 83.85078 
L 126.540601 93.733559 
L 126.639302 88.914235 
L 126.655757 87.053022 
L 126.688659 90.078264 
L 126.705107 89.271327 
L 126.73801 97.090734 
L 126.820263 91.733522 
L 126.836718 93.169447 
L 126.886068 90.045384 
L 126.968322 90.728165 
L 127.001224 87.506782 
L 127.017672 90.004337 
L 127.067029 83.620469 
L 127.083478 85.529491 
L 127.149283 82.48948 
L 127.165731 86.055732 
L 127.198633 87.241608 
L 127.215088 92.266315 
L 127.280887 85.732223 
L 127.313789 90.868109 
L 127.330244 90.733983 
L 127.445399 80.119706 
L 127.49475 82.108383 
L 127.593458 86.187313 
L 127.527653 80.255358 
L 127.62636 84.569207 
L 127.659263 81.737119 
L 127.708614 86.664827 
L 127.725062 86.035096 
L 127.757964 86.298141 
L 127.790867 82.731533 
L 127.840218 78.044567 
L 127.906023 81.915028 
L 128.054081 88.925078 
L 127.955374 80.113687 
L 128.086984 88.523479 
L 128.20214 81.494715 
L 128.218594 83.739977 
L 128.284393 79.180225 
L 128.33375 76.728225 
L 128.350198 79.414938 
L 128.432451 83.014331 
L 128.465354 80.453737 
L 128.481808 78.216563 
L 128.547607 83.771025 
L 128.613412 85.403397 
L 128.629867 84.524425 
L 128.777925 76.416603 
L 128.810822 76.856954 
L 128.860179 78.613433 
L 128.909529 75.455415 
L 128.95888 80.820267 
L 128.975334 44.015804 
L 129.04114 89.944701 
L 129.057588 84.986417 
L 129.139841 79.866309 
L 129.156295 37.468399 
L 129.254997 43.018052 
L 129.353704 52.842113 
L 129.304354 42.725464 
L 129.386607 50.280244 
L 129.403055 44.192503 
L 129.46886 54.963284 
L 129.682724 78.649129 
L 129.715627 74.286371 
L 129.732075 71.799473 
L 129.781425 77.325894 
L 129.830782 72.434987 
L 129.847231 72.787176 
L 129.945938 78.020517 
L 129.978841 77.763014 
L 130.126899 86.016688 
L 130.159796 85.258338 
L 130.242055 79.684735 
L 130.192698 85.374663 
L 130.291406 80.733178 
L 130.324308 84.537823 
L 130.406562 83.288054 
L 130.735581 55.82424 
L 130.834289 58.549736 
L 130.867185 64.191895 
L 130.88364 58.274126 
L 130.949445 60.459084 
L 130.982341 55.179148 
L 131.064601 59.794726 
L 131.097503 63.124909 
L 131.130399 59.703851 
L 131.146854 60.729323 
L 131.245562 49.913559 
L 131.278458 52.682401 
L 131.426516 60.371146 
L 131.442971 56.853667 
L 131.541672 52.562778 
L 131.591029 57.799323 
L 131.656834 56.197215 
L 131.722633 61.178374 
L 131.804886 60.247296 
L 131.903594 55.939651 
L 131.936497 57.660263 
L 131.952945 60.571248 
L 132.01875 54.850076 
L 132.068107 58.038474 
L 132.133906 64.959019 
L 132.183263 60.847922 
L 132.249062 58.931501 
L 132.216159 61.234737 
L 132.281964 60.14957 
L 132.298419 61.18867 
L 132.331321 58.451538 
L 132.364217 59.169191 
L 132.39712 58.063593 
L 132.446477 59.632183 
L 132.561633 65.741495 
L 132.578081 64.374457 
L 132.610984 68.973013 
L 132.676789 66.765671 
L 132.693237 62.58034 
L 132.77549 66.173278 
L 132.791945 66.238586 
L 132.923549 54.582874 
L 132.940003 96.430894 
L 132.956451 52.531966 
L 133.022256 53.157687 
L 133.071607 51.442201 
L 133.055159 54.918301 
L 133.104509 52.015408 
L 133.153866 58.497173 
L 133.23612 56.710154 
L 133.252568 56.887425 
L 133.301925 62.585124 
L 133.351276 56.598287 
L 133.367724 58.414652 
L 133.400626 56.53962 
L 133.433529 51.299652 
L 133.48288 60.006448 
L 133.762548 72.476416 
L 133.811899 70.908434 
L 133.877704 62.243101 
L 133.910607 69.497949 
L 134.009308 69.356731 
L 134.042211 72.374955 
L 134.058665 72.808666 
L 134.075113 71.723352 
L 134.272529 59.1917 
L 134.108016 73.296259 
L 134.288977 59.700729 
L 134.338328 65.697767 
L 134.387685 62.67384 
L 134.404133 58.548918 
L 134.469938 62.749479 
L 134.486386 61.278847 
L 134.535743 69.697709 
L 134.601542 63.57759 
L 134.650899 66.117708 
L 134.716698 61.716488 
L 134.733152 65.22333 
L 134.766055 59.036923 
L 134.815405 107.425606 
L 134.881211 105.365612 
L 135.012815 97.189319 
L 135.029269 98.999841 
L 135.177327 105.75198 
L 135.226678 102.308629 
L 135.292483 102.47444 
L 135.308931 99.524326 
L 135.341834 103.630995 
L 135.391185 103.303294 
L 135.424087 100.388599 
L 135.440542 103.373758 
L 135.45699 103.275379 
L 135.489892 107.922823 
L 135.5886 106.201519 
L 135.605048 105.181408 
L 135.637951 108.218974 
L 135.703756 108.179714 
L 135.769561 111.984384 
L 135.818912 110.370952 
L 135.802457 113.037786 
L 135.868263 111.582153 
L 135.950516 114.299427 
L 135.901165 110.63091 
L 135.96697 112.81757 
L 136.065672 104.937574 
L 136.098574 104.99354 
L 136.164379 107.191399 
L 136.180834 105.55337 
L 136.29599 102.344732 
L 136.361789 106.068603 
L 136.427594 105.471953 
L 136.460496 104.3388 
L 136.493399 105.5749 
L 136.608555 109.696725 
L 136.625003 109.528173 
L 136.67436 105.114353 
L 136.756613 106.064431 
L 136.773061 105.91251 
L 136.789516 106.244052 
L 136.822418 108.023908 
L 136.871769 104.594045 
L 136.888217 105.929538 
L 136.904672 104.136043 
L 136.970477 107.170211 
L 136.986925 108.87765 
L 137.05273 105.260973 
L 137.069178 101.959262 
L 137.102081 54.983524 
L 137.184334 57.787792 
L 137.233691 59.626666 
L 137.217236 57.304852 
L 137.250139 58.594508 
L 137.266593 106.270165 
L 137.332392 57.367931 
L 137.348847 60.035232 
L 137.398197 59.636525 
L 137.496905 65.902266 
L 137.579158 56.866011 
L 137.694314 102.43129 
L 137.727217 100.420089 
L 137.776568 101.961311 
L 137.793022 57.582219 
L 137.891724 63.955269 
L 137.924626 69.495921 
L 138.006879 67.336223 
L 138.039782 66.231428 
L 138.072684 68.741236 
L 138.089139 68.304513 
L 138.204295 76.695235 
L 138.253645 75.579632 
L 138.368801 69.58032 
L 138.385256 71.176529 
L 138.418152 65.458099 
L 138.451055 68.287541 
L 138.467509 68.215069 
L 138.483957 67.457342 
L 138.500412 69.601474 
L 138.697821 82.34144 
L 138.714269 80.294568 
L 138.911684 66.842309 
L 138.961035 70.073797 
L 139.010386 69.52335 
L 139.043288 66.757449 
L 139.076191 73.219681 
L 139.109093 72.033062 
L 139.224249 77.931028 
L 139.306503 72.938389 
L 139.35586 74.699259 
L 139.487464 93.264157 
L 139.520366 90.314825 
L 139.602619 88.708998 
L 139.569717 90.759705 
L 139.619074 90.620891 
L 139.65197 96.380078 
L 139.684873 89.878976 
L 139.750678 94.875456 
L 139.767132 93.628779 
L 139.78358 97.840404 
L 139.832931 106.751344 
L 139.898736 101.137145 
L 139.915184 102.573171 
L 139.980989 99.269919 
L 140.013892 95.740111 
L 140.079697 98.091287 
L 140.1126 100.885967 
L 140.16195 94.744724 
L 140.178405 95.667358 
L 140.194853 92.459243 
L 140.244204 95.024234 
L 140.293561 91.475873 
L 140.342912 92.440318 
L 140.35936 94.935729 
L 140.425165 91.003248 
L 140.49097 87.935604 
L 140.507418 91.246184 
L 140.556775 98.856469 
L 140.639028 95.969549 
L 140.688379 93.613649 
L 140.754184 99.93502 
L 140.787087 96.115295 
L 140.885788 93.014078 
L 140.836437 97.276935 
L 140.918691 93.654094 
L 141.017398 103.245636 
L 141.066749 102.411105 
L 141.116106 100.53045 
L 141.132554 104.354874 
L 141.149002 103.790577 
L 141.24771 110.469502 
L 141.264165 107.422965 
L 141.280613 105.284536 
L 141.329963 110.483623 
L 141.346418 110.002745 
L 141.428671 107.429205 
L 141.445119 108.505277 
L 141.461574 110.489325 
L 141.510924 104.939461 
L 141.527379 104.27425 
L 141.560275 106.920458 
L 141.658983 111.364306 
L 141.691885 110.968275 
L 141.708334 108.773312 
L 141.757691 111.193235 
L 141.790593 110.702604 
L 141.889295 112.344172 
L 141.905749 111.37271 
L 141.988002 110.864936 
L 142.00445 111.503808 
L 142.020905 111.265415 
L 142.037353 111.196171 
L 142.070256 113.6657 
L 142.119606 109.809717 
L 142.136061 111.322135 
L 142.284119 101.296014 
L 142.349924 103.463804 
L 142.366372 106.203301 
L 142.432178 99.414581 
L 142.481528 93.436047 
L 142.563781 94.765496 
L 142.71184 104.626724 
L 142.613138 92.967669 
L 142.744742 103.137493 
L 142.761197 99.831335 
L 142.84345 103.758234 
L 142.859898 101.596874 
L 142.876353 102.737471 
L 142.892801 100.732118 
L 142.958606 101.634679 
L 143.106665 94.265071 
L 143.139567 97.272071 
L 143.17247 88.641054 
L 143.188918 90.968426 
L 143.304074 81.077244 
L 143.369879 82.605675 
L 143.402781 84.812515 
L 143.468587 81.520834 
L 143.485035 80.135699 
L 143.501483 85.244277 
L 143.534385 82.621769 
L 143.682444 89.618922 
L 143.715346 88.759141 
L 143.896307 80.40507 
L 144.011463 92.962077 
L 144.044366 92.351642 
L 144.060814 89.518109 
L 144.143073 94.457482 
L 144.225327 93.993141 
L 144.30758 97.966985 
L 144.324028 102.597969 
L 144.422736 100.029449 
L 144.488541 110.549443 
L 144.537892 103.359496 
L 144.554346 101.895922 
L 144.620145 104.920838 
L 144.68595 106.931034 
L 144.653048 103.211571 
L 144.702405 103.949927 
L 144.718853 103.894347 
L 144.784658 109.792986 
L 144.834009 107.750506 
L 144.883359 109.231851 
L 144.965619 104.655222 
L 144.998515 105.759299 
L 145.080775 105.743025 
L 145.130125 109.022889 
L 145.228833 109.223669 
L 145.261736 105.345061 
L 145.360437 107.502641 
L 145.376892 106.328717 
L 145.44269 110.255661 
L 145.508495 103.890703 
L 145.52495 105.787842 
L 145.590749 101.086365 
L 145.77171 94.262677 
L 145.936223 102.82441 
L 146.051379 95.34035 
L 146.084281 98.559875 
L 146.100729 99.287047 
L 146.117177 95.518746 
L 146.199437 95.053756 
L 146.28169 99.969346 
L 146.396846 107.153223 
L 146.429749 107.039077 
L 146.561353 100.159378 
L 146.577807 102.027322 
L 146.643606 104.853019 
L 146.692963 104.071518 
L 146.873924 95.468221 
L 146.890372 64.305123 
L 146.98908 78.005668 
L 147.005528 78.482289 
L 147.021982 78.214394 
L 147.054879 74.656365 
L 147.120684 79.288378 
L 147.153586 75.152502 
L 147.268742 79.021482 
L 147.23584 74.970748 
L 147.285197 78.476983 
L 147.416801 82.67769 
L 147.466151 76.417084 
L 147.515508 79.483519 
L 147.61421 86.446277 
L 147.630664 82.987335 
L 147.74582 79.285732 
L 147.778723 80.902267 
L 147.811625 84.734616 
L 147.828073 80.789917 
L 147.893878 81.550496 
L 147.910327 79.295626 
L 147.992586 82.625358 
L 148.009034 82.130485 
L 148.025482 82.848977 
L 148.058385 85.942389 
L 148.12419 82.872169 
L 148.288697 70.353865 
L 148.321599 71.79619 
L 148.338054 72.628809 
L 148.354502 69.186005 
L 148.370956 67.288203 
L 148.420307 94.397646 
L 148.436755 66.674159 
L 148.469658 68.428951 
L 148.50256 69.7648 
L 148.519015 97.283336 
L 148.601268 71.983552 
L 148.650619 72.397323 
L 148.716424 67.316425 
L 148.749326 70.91519 
L 148.798677 65.663074 
L 148.83158 94.111122 
L 148.913833 90.917253 
L 149.012541 94.13965 
L 149.045443 90.291322 
L 149.094794 95.175523 
L 149.127697 91.680753 
L 149.144145 90.96454 
L 149.177047 93.845015 
L 149.193502 92.810538 
L 149.308657 97.01393 
L 149.325106 95.474094 
L 149.440261 90.380701 
L 149.473164 91.225327 
L 149.58832 99.068256 
L 149.604774 98.690477 
L 149.670573 101.804887 
L 149.687028 100.109134 
L 149.703476 97.46386 
L 149.752833 102.123919 
L 149.785735 100.054006 
L 149.835086 102.513118 
L 149.851534 104.514786 
L 149.900891 100.982082 
L 150.081846 89.008975 
L 150.197008 92.669214 
L 150.147651 88.757901 
L 150.213456 92.61771 
L 150.229904 92.528577 
L 150.312164 94.824871 
L 150.345067 93.285828 
L 150.361515 93.493369 
L 150.410865 90.658756 
L 150.460222 92.228671 
L 150.47667 93.539832 
L 150.526021 90.090051 
L 150.542476 92.880258 
L 150.558924 90.520971 
L 150.608281 98.455663 
L 150.641177 96.716755 
L 150.690534 98.148779 
L 150.706982 98.982507 
L 150.723437 97.025712 
L 150.855041 87.038841 
L 150.871495 88.073248 
L 150.887943 84.970791 
L 150.920846 85.226838 
L 151.118255 61.510558 
L 151.249865 40.7348 
L 151.266313 42.786004 
L 151.282768 48.274169 
L 151.299216 41.319322 
L 151.381469 46.550104 
L 151.397924 46.292776 
L 151.496625 54.159002 
L 151.513079 53.501748 
L 151.628235 45.445559 
L 151.710495 53.963705 
L 151.842093 50.362469 
L 151.875001 51.018725 
L 151.891443 48.548795 
L 152.006599 55.09621 
L 152.023054 50.273051 
L 152.088859 56.005828 
L 152.105313 52.20179 
L 152.121768 54.88521 
L 152.220469 54.758479 
L 152.236923 54.569431 
L 152.26982 50.169622 
L 152.286274 57.607027 
L 152.31917 53.216936 
L 152.368521 59.777819 
L 152.417872 52.262887 
L 152.516586 54.852937 
L 152.53304 80.134208 
L 152.565937 46.641922 
L 152.615287 53.331143 
L 152.648196 52.218175 
L 152.993664 95.330009 
L 153.02656 90.910858 
L 153.092365 94.964669 
L 153.125261 94.472281 
L 153.15817 96.770999 
L 153.207521 91.628713 
L 153.240417 98.302332 
L 153.256872 97.215226 
L 153.273326 96.137498 
L 153.355586 97.218203 
L 153.372027 96.213112 
L 153.421378 98.910743 
L 153.470741 95.529347 
L 153.487183 95.187837 
L 153.520092 96.802067 
L 153.569443 98.904443 
L 153.618794 96.593296 
L 153.668144 97.855208 
L 153.684599 97.938538 
L 153.701053 97.43604 
L 153.750404 99.214756 
L 153.766858 98.031023 
L 153.882014 100.672482 
L 153.898456 98.616575 
L 153.964261 102.114426 
L 154.030066 105.906652 
L 154.062963 102.937813 
L 154.128768 99.699313 
L 154.178131 102.034867 
L 154.194573 105.375446 
L 154.276832 101.963123 
L 154.424885 89.467724 
L 154.441339 92.07308 
L 154.556495 96.477006 
L 154.688105 92.188939 
L 154.75391 95.928085 
L 154.836157 94.209873 
L 154.918417 91.822861 
L 154.951313 92.318607 
L 155.099378 97.159682 
L 155.148729 92.38638 
L 155.165183 60.381602 
L 155.214534 93.112869 
L 155.24743 92.797034 
L 155.263884 93.229831 
L 155.346144 85.850455 
L 155.395495 89.305292 
L 155.411949 89.640252 
L 155.428391 88.224125 
L 155.543547 53.537524 
L 155.560001 53.28881 
L 155.592898 81.193403 
L 155.675157 79.211082 
L 155.691612 77.992597 
L 155.724508 81.711764 
L 155.740962 83.779609 
L 155.757417 81.449537 
L 155.773859 82.156714 
L 155.790313 53.979312 
L 155.823222 83.009643 
L 155.872573 80.648332 
L 155.905469 85.873803 
L 155.921923 56.563554 
L 155.938378 86.709052 
L 156.00417 81.946327 
L 156.13578 78.840837 
L 156.053533 82.263943 
L 156.152235 78.866288 
L 156.234494 50.916712 
L 156.267391 60.714344 
L 156.283845 60.658197 
L 156.34965 65.33326 
L 156.415443 62.634108 
L 156.579962 52.356542 
L 156.612858 55.959058 
L 156.645767 59.142571 
L 156.695118 53.379885 
L 156.760923 49.288205 
L 156.826716 44.745154 
L 156.876079 47.649959 
L 156.941871 40.356488 
L 157.007677 46.073624 
L 157.040585 43.602674 
L 157.073482 37.795282 
L 157.122832 45.442256 
L 157.139287 46.673437 
L 157.155741 39.68944 
L 157.172196 38.064617 
L 157.188638 46.056004 
L 157.205092 45.023901 
L 157.303793 50.703293 
L 157.336702 47.540185 
L 157.402507 44.824638 
L 157.418949 47.860899 
L 157.698624 60.977886 
L 157.715066 60.049002 
L 157.731521 57.75958 
L 157.764429 60.469339 
L 157.830222 59.020744 
L 157.863131 61.063128 
L 157.912482 58.580171 
L 157.945378 53.280372 
L 157.994741 55.257759 
L 158.076988 78.168201 
L 158.109897 77.130075 
L 158.126339 76.300895 
L 158.142793 79.686553 
L 158.159248 81.26722 
L 158.192144 77.678324 
L 158.225053 79.914233 
L 158.488261 57.847076 
L 158.619871 66.415973 
L 158.636326 65.89314 
L 158.702131 61.259826 
L 158.751481 65.327914 
L 158.767923 65.950607 
L 158.784378 62.608461 
L 158.817287 61.853952 
L 158.850183 56.74838 
L 158.915988 58.198597 
L 159.047598 65.390823 
L 159.06404 63.627894 
L 159.113403 69.822252 
L 159.129845 70.252785 
L 159.1463 70.173993 
L 159.162754 68.20261 
L 159.179196 73.05382 
L 159.261456 68.269234 
L 159.40952 75.618792 
L 159.425962 73.47847 
L 159.574027 67.403976 
L 159.656274 72.995464 
L 159.689183 72.120147 
L 159.722079 70.360004 
L 159.754988 75.474777 
L 159.77143 73.793019 
L 159.90304 84.548786 
L 159.935949 83.513074 
L 159.985299 86.261557 
L 160.001741 91.568961 
L 160.084001 85.896267 
L 160.215611 75.494801 
L 160.232066 76.253618 
L 160.248507 75.907915 
L 160.281416 79.52657 
L 160.314313 70.352269 
L 160.380118 72.522112 
L 160.445923 65.548782 
L 160.495274 67.367848 
L 160.511728 68.048571 
L 160.544624 66.697953 
L 160.709131 57.934286 
L 160.725585 60.497702 
L 160.791391 55.95456 
L 160.807845 93.323793 
L 160.890092 54.348838 
L 161.038157 62.143537 
L 161.054611 59.187439 
L 161.103962 65.441568 
L 161.186209 65.044628 
L 161.219118 69.404018 
L 161.268468 60.248481 
L 161.36717 60.740106 
L 161.383624 60.921066 
L 161.400079 60.712622 
L 161.449429 55.914306 
L 161.482326 58.826852 
L 161.49878 64.305309 
L 161.58104 61.09758 
L 161.597481 60.097714 
L 161.613936 63.037689 
L 161.712637 68.427394 
L 161.729092 66.92709 
L 161.844247 74.201485 
L 161.877156 72.67951 
L 162.025209 61.546751 
L 162.041663 58.280069 
L 162.074559 64.246195 
L 162.140364 59.541725 
L 162.189715 58.319882 
L 162.271975 64.471375 
L 162.304871 60.480468 
L 162.370676 64.177819 
L 162.469378 63.403722 
L 162.502286 69.506438 
L 162.666793 49.575587 
L 162.699702 52.633769 
L 162.814858 62.693844 
L 162.831299 59.748342 
L 162.847754 61.372969 
L 162.897105 56.269451 
L 162.913559 55.22654 
L 162.946455 59.248355 
L 163.127416 74.096164 
L 163.160325 72.245096 
L 163.193221 74.609574 
L 163.308377 79.783155 
L 163.324832 78.891693 
L 163.341286 78.362415 
L 163.456442 91.156269 
L 163.472884 86.648437 
L 163.653845 71.742779 
L 163.752559 78.027886 
L 163.769001 75.744383 
L 163.834806 77.398195 
L 163.917065 67.24689 
L 163.966416 74.828847 
L 164.015767 71.900197 
L 164.147377 64.63183 
L 164.180273 69.050193 
L 164.246079 66.736917 
L 164.278987 65.066806 
L 164.311884 67.931683 
L 164.361234 65.236181 
L 164.377689 66.546509 
L 164.427039 62.329272 
L 164.443494 62.9051 
L 164.459948 60.250539 
L 164.47639 60.96874 
L 164.492845 59.280015 
L 164.55865 63.283321 
L 164.591546 59.559405 
L 164.756065 69.034039 
L 164.788962 67.548688 
L 164.805416 71.154512 
L 164.838312 67.95988 
L 164.953468 71.847639 
L 164.986377 73.27379 
L 165.002819 72.260843 
L 165.035728 67.091194 
L 165.117975 69.552877 
L 165.266039 82.743922 
L 165.298936 77.065374 
L 165.430546 68.722632 
L 165.447 67.42137 
L 165.463442 70.117475 
L 165.479897 69.817669 
L 165.512806 74.903899 
L 165.578611 71.148122 
L 165.595052 66.84892 
L 165.660858 76.591048 
L 165.677312 78.597404 
L 165.710208 75.780813 
L 165.776013 78.271811 
L 165.792468 78.612825 
L 165.841819 71.613628 
L 165.907624 75.79286 
L 165.924078 76.025691 
L 165.94052 75.142618 
L 166.088585 56.208896 
L 166.170832 59.384518 
L 166.187286 62.204313 
L 166.253091 56.521729 
L 166.302442 57.003023 
L 166.351793 54.493295 
L 166.466949 62.925942 
L 166.499858 60.382797 
L 166.516312 60.257391 
L 166.532754 60.349335 
L 166.680818 73.212197 
L 166.713715 70.121963 
L 166.730169 74.288243 
L 166.77952 73.694008 
L 166.795974 73.134675 
L 166.828871 67.377662 
L 166.91113 69.651968 
L 166.927585 69.971216 
L 166.976935 67.152396 
L 167.009832 70.037187 
L 167.04274 68.548142 
L 167.190793 81.415763 
L 167.075637 66.219491 
L 167.256598 78.360778 
L 167.40465 72.053318 
L 167.421104 74.477131 
L 167.470455 66.207609 
L 167.48691 67.03475 
L 167.503364 62.225225 
L 167.53626 67.758353 
L 167.602065 65.591441 
L 167.61852 65.766438 
L 167.634974 64.474267 
L 167.651416 70.46647 
L 167.700767 69.651632 
L 167.799481 78.521223 
L 167.898182 73.405075 
L 167.865286 79.38259 
L 167.931091 76.108308 
L 167.996884 90.604717 
L 168.079143 87.471598 
L 168.227195 97.021846 
L 168.276559 94.441022 
L 168.358805 85.726997 
L 168.408156 92.350789 
L 168.556221 101.60727 
L 168.589117 104.28189 
L 168.605572 106.496049 
L 168.622026 99.519602 
L 168.654922 101.960548 
L 168.835883 94.863403 
L 168.901689 95.749363 
L 168.885234 94.589043 
L 168.934585 95.123432 
L 169.00039 94.260077 
L 169.033299 96.872737 
L 169.099104 93.55436 
L 169.132 90.439363 
L 169.164909 98.35998 
L 169.197805 93.640124 
L 169.21426 95.961984 
L 169.247156 90.700767 
L 169.296507 94.403444 
L 169.329416 92.813866 
L 169.345857 89.407827 
L 169.395221 94.703365 
L 169.444571 91.444037 
L 169.461013 95.504318 
L 169.543273 94.761861 
L 169.592624 91.514446 
L 169.625532 96.996943 
L 169.641974 94.190798 
L 169.724234 98.983807 
L 169.691338 93.1701 
L 169.790039 98.58253 
L 169.806493 99.046023 
L 169.83939 97.556833 
L 169.905195 94.439326 
L 169.938091 98.637482 
L 169.954546 94.652122 
L 170.069701 98.693484 
L 170.003896 93.370161 
L 170.086156 98.565553 
L 170.10261 94.588059 
L 170.168403 99.061178 
L 170.184857 98.193074 
L 170.283559 106.030362 
L 170.300013 103.623536 
L 170.349364 96.324734 
L 170.415169 98.82152 
L 170.448078 100.156095 
L 170.563234 107.171019 
L 170.579676 104.471721 
L 170.612584 99.729989 
L 170.694831 102.545798 
L 170.81 107.438908 
L 170.760637 102.273189 
L 170.875792 105.455954 
L 170.892247 104.65728 
L 170.925156 107.748162 
L 170.974506 108.815313 
L 170.990948 105.295148 
L 171.089662 99.44715 
L 171.139013 102.0813 
L 171.171909 103.939707 
L 171.221272 100.339264 
L 171.237714 101.115831 
L 171.254169 102.280875 
L 171.319974 100.407052 
L 171.336428 101.819369 
L 171.451584 100.10951 
L 171.468026 100.344329 
L 171.500935 102.871852 
L 171.550286 98.937183 
L 171.56674 98.940115 
L 171.616091 99.280702 
L 171.698338 97.723512 
L 171.714792 98.017861 
L 171.731247 96.603803 
L 171.747701 95.511818 
L 171.764143 62.426968 
L 171.846403 62.516502 
L 171.862857 96.717342 
L 171.961558 94.893271 
L 171.978013 96.497517 
L 172.043818 94.740161 
L 172.076714 95.338533 
L 172.10961 93.446247 
L 172.19187 94.738108 
L 172.208325 95.884392 
L 172.241221 93.283002 
L 172.27413 95.073173 
L 172.389285 86.016527 
L 172.422182 86.362149 
L 172.586688 94.832767 
L 172.668948 94.129892 
L 172.751195 95.885195 
L 172.701844 93.316238 
L 172.833455 95.095486 
L 172.866363 93.080857 
L 172.94861 94.161723 
L 172.965065 94.444652 
L 172.981519 92.846083 
L 173.03087 94.339842 
L 173.096675 91.071393 
L 173.113117 91.589432 
L 173.129571 88.755005 
L 173.162468 91.292628 
L 173.261182 87.375488 
L 173.277636 90.248317 
L 173.294078 89.548559 
L 173.310532 92.275165 
L 173.326987 92.948257 
L 173.343429 91.24644 
L 173.359883 86.716582 
L 173.442143 89.615494 
L 173.540844 96.384962 
L 173.475039 89.423218 
L 173.639545 93.877609 
L 173.721805 86.20425 
L 173.754701 90.415448 
L 173.771156 90.478021 
L 173.78761 90.14794 
L 173.804065 89.928678 
L 173.820506 86.55316 
L 173.869857 90.934667 
L 173.902766 90.45645 
L 173.91922 91.429294 
L 173.952117 88.553242 
L 173.985013 89.001294 
L 174.001467 87.898266 
L 174.050818 91.843894 
L 174.165974 94.618725 
L 174.28113 89.686304 
L 174.297584 90.714712 
L 174.363389 95.61717 
L 174.41274 91.439052 
L 174.429195 91.566286 
L 174.445649 90.859806 
L 174.462091 88.782142 
L 174.511454 92.537718 
L 174.54435 91.241611 
L 174.659506 95.148657 
L 174.692403 94.485649 
L 174.708857 93.613077 
L 174.725311 96.842085 
L 174.840467 104.092948 
L 174.856922 102.556861 
L 174.889818 103.026213 
L 174.906272 103.66635 
L 174.922727 101.472658 
L 174.955623 102.283851 
L 175.021428 102.765878 
L 175.087233 93.560198 
L 175.185935 87.665269 
L 175.202389 89.383581 
L 175.284636 86.077062 
L 175.350441 98.532874 
L 175.399792 92.382334 
L 175.449155 91.983089 
L 175.531402 99.568561 
L 175.646558 96.273742 
L 175.778169 106.081308 
L 175.794623 100.948981 
L 175.843974 99.960536 
L 175.860428 101.540827 
L 175.87687 99.621068 
L 175.942675 104.86455 
L 175.95913 102.373371 
L 175.975584 102.544904 
L 176.107182 84.976684 
L 176.156545 91.555046 
L 176.288143 104.823427 
L 176.321051 103.516001 
L 176.452649 108.171767 
L 176.419753 102.52988 
L 176.469104 107.783471 
L 176.485558 107.456709 
L 176.650065 97.415142 
L 176.666519 97.245034 
L 176.798129 86.551408 
L 176.814571 87.389122 
L 176.896831 80.495016 
L 176.929727 83.367764 
L 176.995532 89.758103 
L 177.044883 89.639624 
L 177.143597 85.647528 
L 177.160039 88.090687 
L 177.258753 92.369679 
L 177.291649 91.628647 
L 177.357454 92.939437 
L 177.423259 88.83204 
L 177.439714 90.27817 
L 177.47261 85.897973 
L 177.571311 79.082935 
L 177.620675 79.50762 
L 177.670025 83.362308 
L 177.719376 79.283589 
L 177.735831 79.129539 
L 177.801636 81.88658 
L 177.850986 80.341383 
L 177.949688 74.840081 
L 177.966142 79.440364 
L 177.999038 87.415556 
L 178.081298 84.440428 
L 178.163545 81.926152 
L 178.130649 86.500517 
L 178.18 84.884048 
L 178.196454 85.197447 
L 178.278701 75.58168 
L 178.328064 77.976689 
L 178.377415 74.755898 
L 178.410311 79.937631 
L 178.459662 82.242875 
L 178.492571 79.319727 
L 178.525467 81.62742 
L 178.541922 79.22457 
L 178.607727 82.041272 
L 178.624181 81.372903 
L 178.640623 81.453 
L 178.755779 90.41085 
L 178.673532 81.205657 
L 178.821584 87.818827 
L 178.903843 82.568824 
L 178.870935 88.381001 
L 178.920298 87.516932 
L 178.969649 88.572719 
L 178.953194 86.868342 
L 178.98609 86.871986 
L 179.035454 82.385112 
L 179.06835 88.06987 
L 179.101246 84.548545 
L 179.117701 83.963687 
L 179.232857 75.535206 
L 179.298662 74.636767 
L 179.348012 85.750395 
L 179.364467 85.218169 
L 179.413818 90.424599 
L 179.463168 85.109203 
L 179.479623 84.670678 
L 179.496077 85.547653 
L 179.528973 88.965849 
L 179.594779 87.37851 
L 179.677038 87.921272 
L 179.726389 84.624501 
L 179.742843 84.68113 
L 179.890896 94.282977 
L 179.90735 94.083237 
L 180.104753 87.323949 
L 179.940246 94.942155 
L 180.121207 88.562448 
L 180.137662 88.911735 
L 180.154116 92.30422 
L 180.203467 87.116544 
L 180.236363 87.399654 
L 180.269272 86.891865 
L 180.285714 87.677081 
L 180.302168 86.918089 
L 180.367973 80.530315 
L 180.433778 82.804281 
L 180.466675 83.945831 
L 180.483129 80.423568 
L 180.499584 75.040394 
L 180.548934 83.530569 
L 180.581831 82.674889 
L 180.598285 83.44891 
L 180.631181 81.667755 
L 180.647636 71.382474 
L 180.746337 73.863533 
L 180.812142 68.0167 
L 180.828597 74.543714 
L 180.927298 81.059393 
L 180.960207 79.243505 
L 181.15761 66.796759 
L 181.256324 76.451797 
L 181.28922 75.604781 
L 181.437285 81.873905 
L 181.470181 82.188113 
L 181.552441 80.472341 
L 181.651142 90.357695 
L 181.684038 89.092038 
L 181.716947 87.988583 
L 181.733402 90.559342 
L 181.815649 92.237491 
L 181.782752 89.395509 
L 181.848557 91.239975 
L 181.930804 88.534222 
L 181.897908 91.323099 
L 181.963713 90.268115 
L 182.04596 95.252171 
L 182.078869 95.242789 
L 182.194025 78.601024 
L 182.226921 84.411297 
L 182.342077 91.650755 
L 182.358532 89.09241 
L 182.407882 94.810052 
L 182.440791 90.771662 
L 182.473688 94.335164 
L 182.506584 89.098579 
L 182.555947 94.027632 
L 182.572389 90.849636 
L 182.638194 97.74197 
L 182.654649 94.087168 
L 182.769804 104.431326 
L 182.786259 103.62835 
L 182.819155 106.984888 
L 182.835609 108.48337 
L 182.88496 104.056991 
L 182.917856 106.473811 
L 182.934311 106.079591 
L 183.000116 100.705774 
L 183.065921 101.168565 
L 183.098817 98.678881 
L 183.148181 101.16863 
L 183.164623 102.341203 
L 183.197531 99.957449 
L 183.213973 65.750104 
L 183.296233 101.064689 
L 183.362038 102.395297 
L 183.378492 99.501691 
L 183.394934 102.857892 
L 183.477194 97.733557 
L 183.493648 98.630168 
L 183.526545 94.84875 
L 183.608804 98.006682 
L 183.72396 103.7863 
L 183.740402 102.152286 
L 183.756856 100.905404 
L 183.789765 103.908041 
L 183.839116 102.448297 
L 183.85557 102.419955 
L 183.872012 63.204976 
L 183.954272 100.599142 
L 184.003622 97.991442 
L 184.036519 99.180601 
L 184.052973 65.800453 
L 184.151675 72.32443 
L 184.168129 72.587516 
L 184.283285 81.658684 
L 184.316194 81.062375 
L 184.332636 80.400376 
L 184.34909 81.528479 
L 184.381999 84.031841 
L 184.414895 79.104897 
L 184.43135 79.459314 
L 184.464246 74.907528 
L 184.530051 80.170286 
L 184.546505 77.056238 
L 184.694557 86.576211 
L 184.727466 82.295648 
L 184.793271 77.46131 
L 184.875518 78.585613 
L 184.908427 81.171431 
L 184.957778 77.577841 
L 184.990674 76.148582 
L 185.007129 78.874862 
L 185.023583 77.997336 
L 185.040025 71.026606 
L 185.138739 74.753885 
L 185.220986 80.637866 
L 185.253895 79.821466 
L 185.385493 71.224609 
L 185.401947 71.647216 
L 185.484207 79.598575 
L 185.517103 75.577072 
L 185.665168 64.924633 
L 185.747415 69.311778 
L 185.780323 65.864311 
L 185.895479 62.604154 
L 185.81322 67.308067 
L 185.911934 63.214649 
L 186.043531 71.081538 
L 186.059986 70.80879 
L 186.07644 69.938 
L 186.109337 73.737535 
L 186.142245 72.27514 
L 186.372557 92.326588 
L 186.388999 91.136415 
L 186.405454 90.911792 
L 186.438362 85.079872 
L 186.504155 91.83781 
L 186.520609 97.780016 
L 186.619311 95.549713 
L 186.65222 92.350503 
L 186.685116 99.437025 
L 186.70157 98.163367 
L 186.800272 107.884451 
L 186.833181 101.806001 
L 186.849635 101.590539 
L 186.866077 102.069263 
L 186.882531 101.99144 
L 186.898986 102.525382 
L 186.931882 100.864 
L 186.948336 101.268962 
L 187.030583 95.838631 
L 187.079947 99.115654 
L 187.145752 104.690798 
L 187.195103 101.064006 
L 187.310258 95.946513 
L 187.260908 101.881048 
L 187.3267 96.830223 
L 187.359609 99.274362 
L 187.376064 98.778912 
L 187.425414 102.418258 
L 187.474765 97.149818 
L 187.507661 98.366039 
L 187.557024 96.302938 
L 187.655726 91.471626 
L 187.622817 97.464111 
L 187.67218 92.502133 
L 187.803778 98.020798 
L 187.836687 98.288582 
L 187.951843 95.243557 
L 187.968297 97.184947 
L 188.017648 90.604125 
L 188.050544 94.323332 
L 188.083453 92.552472 
L 188.099895 99.178754 
L 188.132804 99.704192 
L 188.149246 96.440672 
L 188.215051 101.357552 
L 188.231505 99.259081 
L 188.363116 110.59297 
L 188.396012 102.832657 
L 188.478271 105.51544 
L 188.626323 111.386057 
L 188.675674 104.448891 
L 188.757934 108.662976 
L 188.774388 110.63712 
L 188.840193 107.05246 
L 188.92244 101.348316 
L 188.971791 101.947988 
L 189.0047 108.141834 
L 189.070505 103.470802 
L 189.119856 96.007293 
L 189.185661 100.567241 
L 189.202115 100.270091 
L 189.218557 101.664642 
L 189.235012 101.601276 
L 189.284362 97.87858 
L 189.366622 105.046891 
L 189.383064 105.679057 
L 189.399518 101.659723 
L 189.481778 106.849592 
L 189.498232 110.785652 
L 189.580479 105.803946 
L 189.596934 107.928114 
L 189.76144 115.655827 
L 189.810791 117.32758 
L 189.827245 116.63601 
L 189.89305 111.034326 
L 189.942401 114.220997 
L 190.074011 110.235777 
L 190.090453 113.418723 
L 190.189167 112.615666 
L 190.353674 106.50781 
L 190.370128 103.02293 
L 190.435933 108.332955 
L 190.452375 106.797928 
L 190.583986 112.805141 
L 190.60044 112.131351 
L 190.682687 108.326781 
L 190.73205 109.294233 
L 190.863648 112.764169 
L 190.995258 109.589646 
L 191.028155 113.010202 
L 191.110414 110.494817 
L 191.126869 111.139552 
L 191.176219 109.506452 
L 191.209115 110.736217 
L 191.291375 105.704206 
L 191.390076 107.60475 
L 191.406531 107.943404 
L 191.422985 106.142862 
L 191.455882 105.933453 
L 191.472336 106.377901 
L 191.603946 96.849756 
L 191.636843 98.110965 
L 191.801349 108.4807 
L 191.719102 97.498191 
L 191.834258 107.347015 
L 191.98231 101.118682 
L 192.113921 104.204936 
L 192.146817 104.18323 
L 192.410037 90.934331 
L 192.442934 93.036336 
L 192.508739 101.076174 
L 192.558089 97.029341 
L 192.656803 89.689632 
L 192.673245 90.247132 
L 192.755505 95.276091 
L 192.788414 94.321615 
L 192.804856 94.516466 
L 192.837764 88.027081 
L 192.936466 88.400252 
L 192.95292 89.466941 
L 193.002271 87.178504 
L 193.018725 89.019818 
L 193.035167 82.928823 
L 193.133881 87.294397 
L 193.216128 83.149647 
L 193.249037 85.246024 
L 193.281933 86.38883 
L 193.314842 84.291463 
L 193.331284 84.597996 
L 193.347739 83.871045 
L 193.364193 84.928438 
L 193.380635 84.199198 
L 193.413544 88.712155 
L 193.429998 84.14261 
L 193.479349 86.829343 
L 193.545154 79.730266 
L 193.594505 80.976074 
L 193.759011 90.633084 
L 193.824816 83.96189 
L 193.890622 87.375593 
L 194.038674 98.553199 
L 194.170284 94.60985 
L 194.301894 98.530073 
L 194.351245 100.279829 
L 194.433504 95.028034 
L 194.499297 98.040305 
L 194.54866 97.944371 
L 194.565102 97.823342 
L 194.581557 97.94675 
L 194.663816 102.994031 
L 194.680258 97.571561 
L 194.696713 97.809547 
L 194.762518 90.76357 
L 194.795414 96.008744 
L 194.877674 97.996778 
L 194.828323 95.425185 
L 194.894128 95.473592 
L 194.927024 91.006466 
L 194.992829 97.287352 
L 195.025726 95.187114 
L 195.058635 98.490391 
L 195.107985 96.215487 
L 195.190245 91.656673 
L 195.239595 95.117729 
L 195.25605 96.428238 
L 195.321842 93.140357 
L 195.436998 87.691744 
L 195.453453 88.576057 
L 195.502803 89.641261 
L 195.535712 87.503088 
L 195.568609 89.443162 
L 195.683764 77.038849 
L 195.733115 80.07529 
L 195.74957 41.59312 
L 195.831829 84.858451 
L 195.914076 91.692545 
L 195.963427 88.90172 
L 195.996336 90.510168 
L 196.062141 94.715739 
L 196.078595 93.156893 
L 196.095037 87.528885 
L 196.193751 88.741622 
L 196.243102 87.161436 
L 196.259544 90.032298 
L 196.325349 85.056219 
L 196.522764 76.734761 
L 196.539219 85.157394 
L 196.605024 74.853841 
L 196.621466 77.328881 
L 196.63792 74.690821 
L 196.670816 86.992854 
L 196.802427 92.824879 
L 196.818881 91.945521 
L 196.884686 94.288805 
L 196.917582 92.8174 
L 196.950491 89.354426 
L 196.983388 52.399487 
L 197.049193 94.838871 
L 197.197245 101.745898 
L 197.098544 93.463475 
L 197.230154 99.979712 
L 197.279505 97.569819 
L 197.295959 98.549986 
L 197.427569 104.440427 
L 197.493362 100.815403 
L 197.542725 103.583844 
L 197.575621 104.060615 
L 197.592076 103.31122 
L 197.657881 103.35146 
L 197.740128 93.93983 
L 197.773037 96.583703 
L 197.838842 93.627414 
L 197.871738 95.656189 
L 197.904634 91.614978 
L 197.937543 96.503566 
L 197.953998 95.442845 
L 198.085595 99.875645 
L 198.10205 98.363458 
L 198.167855 91.481822 
L 198.184309 69.411317 
L 198.23366 93.141793 
L 198.266556 92.397549 
L 198.299465 93.98911 
L 198.332362 93.067685 
L 198.36527 90.232143 
L 198.447517 92.006728 
L 198.513323 94.680133 
L 198.595582 94.628614 
L 198.612024 94.112799 
L 198.644933 95.446781 
L 198.677829 95.001404 
L 198.80944 99.174095 
L 199.039751 86.064121 
L 199.07266 88.988925 
L 199.171361 55.71057 
L 199.187816 58.59367 
L 199.204258 60.754066 
L 199.253608 55.869664 
L 199.270063 52.738513 
L 199.286517 54.664216 
L 199.335868 83.594045 
L 199.401673 81.520367 
L 199.418128 81.425306 
L 199.467478 85.093381 
L 199.533283 81.91293 
L 199.549725 81.598958 
L 199.56618 83.264687 
L 199.599089 84.640584 
L 199.61553 80.211856 
L 199.730686 52.984898 
L 199.911647 56.383462 
L 199.928102 56.7723 
L 199.960998 62.302817 
L 200.026803 60.728635 
L 200.092608 55.18975 
L 200.141959 56.102937 
L 200.191322 59.404417 
L 200.224219 56.819502 
L 200.273569 85.351938 
L 200.339374 84.496148 
L 200.355829 60.324155 
L 200.40518 90.805356 
L 200.438076 66.500763 
L 200.45453 90.327365 
L 200.487439 66.206564 
L 200.53679 66.406997 
L 200.569686 64.546387 
L 200.586141 91.304425 
L 200.668387 90.021264 
L 200.684842 67.077234 
L 200.701296 91.029573 
L 200.783543 72.227205 
L 200.865803 80.04854 
L 200.915154 78.000282 
L 200.931608 76.824868 
L 200.948062 83.324318 
L 200.997413 84.971388 
L 201.096115 79.402885 
L 201.112569 80.929499 
L 201.29353 93.240353 
L 201.375777 90.323264 
L 201.392232 87.587948 
L 201.490933 89.374957 
L 201.589647 93.61747 
L 201.606089 90.628586 
L 201.622543 90.632959 
L 201.869309 104.323419 
L 201.984465 102.164374 
L 202.083167 108.721241 
L 202.116075 107.372887 
L 202.13253 106.569565 
L 202.148972 109.922603 
L 202.198322 108.505899 
L 202.280582 109.747581 
L 202.231231 108.381849 
L 202.297036 108.708471 
L 202.412192 102.048285 
L 202.445089 102.050704 
L 202.642504 109.659417 
L 202.691855 106.251511 
L 202.75766 103.961709 
L 202.774114 105.849953 
L 202.839907 110.542686 
L 202.88927 108.753092 
L 203.004426 101.912006 
L 203.037322 102.09523 
L 203.168933 107.796925 
L 203.201829 108.234942 
L 203.333439 103.416341 
L 203.415699 105.494321 
L 203.448595 104.133704 
L 203.465049 103.585144 
L 203.497946 104.536056 
L 203.5144 103.727492 
L 203.563751 110.832222 
L 203.629556 107.159759 
L 203.744712 97.376856 
L 203.777621 101.245579 
L 203.909218 110.324061 
L 203.975024 108.355916 
L 204.057283 102.826262 
L 204.090179 105.672772 
L 204.106634 106.393147 
L 204.13953 103.152227 
L 204.254686 99.070766 
L 204.287595 103.475952 
L 204.336946 97.259958 
L 204.419205 97.399219 
L 204.452101 92.035487 
L 204.501452 98.522226 
L 204.567257 96.726117 
L 204.616608 97.970619 
L 204.600166 96.052768 
L 204.649517 96.323107 
L 204.764673 93.405079 
L 204.863374 95.989683 
L 204.814023 93.23212 
L 204.89627 95.357779 
L 204.945634 97.143668 
L 204.962075 94.518449 
L 205.077231 101.138415 
L 205.11014 100.93473 
L 205.472062 85.229399 
L 205.60366 93.922446 
L 205.620114 91.227149 
L 205.685919 94.825704 
L 205.801075 98.540112 
L 205.883335 99.338164 
L 205.932686 96.594978 
L 205.94914 97.686265 
L 205.982036 93.043343 
L 205.998491 94.741576 
L 206.014933 91.385977 
L 206.064296 94.747886 
L 206.113647 92.674073 
L 206.146543 94.059408 
L 206.179452 90.166498 
L 206.195894 90.974163 
L 206.212348 91.005653 
L 206.393309 101.196119 
L 206.409763 100.992689 
L 206.557816 109.658865 
L 206.590724 109.125194 
L 206.722322 105.194345 
L 206.821036 101.812748 
L 206.853932 102.646662 
L 206.870387 104.130085 
L 206.919738 100.269302 
L 206.936192 100.460444 
L 206.985543 100.373726 
L 207.018439 101.029615 
L 207.051348 100.133962 
L 207.133595 103.325934 
L 207.150049 103.386905 
L 207.166504 102.611277 
L 207.232309 104.165942 
L 207.248751 104.241787 
L 207.380361 98.44732 
L 207.46262 100.127587 
L 207.479075 100.260342 
L 207.528426 97.563128 
L 207.544867 100.644562 
L 207.594231 98.757517 
L 207.610673 99.088391 
L 207.627127 98.836726 
L 207.643581 102.874734 
L 207.725828 96.741934 
L 207.742283 97.124292 
L 207.758737 96.848827 
L 207.890348 92.45218 
L 208.054854 101.015103 
L 208.104205 99.680599 
L 208.137101 102.371026 
L 208.202906 101.731813 
L 208.235815 105.25143 
L 208.318062 98.808695 
L 208.350971 103.257548 
L 208.383867 103.578277 
L 208.416776 103.049013 
L 208.433218 100.233646 
L 208.482569 104.56244 
L 208.531932 100.306063 
L 208.679984 97.181889 
L 208.581283 101.201922 
L 208.696439 98.843276 
L 208.745789 101.910786 
L 208.811594 101.701413 
L 208.910296 96.551225 
L 208.92675 98.421985 
L 208.959647 97.263046 
L 208.992555 101.131508 
L 209.140608 83.985824 
L 209.157062 84.817735 
L 209.222867 80.775731 
L 209.272218 81.905159 
L 209.387374 89.049801 
L 209.403828 88.645492 
L 209.486075 92.240352 
L 209.535438 91.766538 
L 209.55188 91.197281 
L 209.584789 93.155688 
L 209.617685 92.125262 
L 209.63414 92.703183 
L 209.650594 90.450853 
L 209.732841 86.94504 
L 209.749296 89.216922 
L 209.864452 95.904145 
L 209.880906 95.575887 
L 209.963153 99.142239 
L 210.028958 98.763235 
L 210.078309 94.022572 
L 210.160568 94.669607 
L 210.242828 99.654124 
L 210.275724 98.290083 
L 210.30862 96.071884 
L 210.357984 99.466723 
L 210.456685 105.486144 
L 210.489581 103.672414 
L 210.571841 99.928841 
L 210.588295 99.994455 
" clip-path="url(#pde4f5eae2f)" style="fill: none; stroke: #d55e00; stroke-width: 1.25; stroke-linecap: square"/>
   </g>
   <g id="patch_4">
    <path d="M 37.85375 131.718516 
L 37.85375 20.418516 
" style="fill: none; stroke: #000000; stroke-width: 0.8; stroke-linejoin: miter; stroke-linecap: square"/>
   </g>
   <g id="patch_5">
    <path d="M 37.85375 131.718516 
L 218.81375 131.718516 
" style="fill: none; stroke: #000000; stroke-width: 0.8; stroke-linejoin: miter; stroke-linecap: square"/>
   </g>
   <g id="text_14">
    <!-- drugs3003 rep1 -->
    <g transform="translate(90.460664 14.418516) scale(0.095 -0.095)">
     <defs>
      <path id="DejaVuSans-72" d="M 2631 2963 
Q 2534 3019 2420 3045 
Q 2306 3072 2169 3072 
Q 1681 3072 1420 2755 
Q 1159 2438 1159 1844 
L 1159 0 
L 581 0 
L 581 3500 
L 1159 3500 
L 1159 2956 
Q 1341 3275 1631 3429 
Q 1922 3584 2338 3584 
Q 2397 3584 2469 3576 
Q 2541 3569 2628 3553 
L 2631 2963 
z
" transform="scale(0.015625)"/>
      <path id="DejaVuSans-75" d="M 544 1381 
L 544 3500 
L 1119 3500 
L 1119 1403 
Q 1119 906 1312 657 
Q 1506 409 1894 409 
Q 2359 409 2629 706 
Q 2900 1003 2900 1516 
L 2900 3500 
L 3475 3500 
L 3475 0 
L 2900 0 
L 2900 538 
Q 2691 219 2414 64 
Q 2138 -91 1772 -91 
Q 1169 -91 856 284 
Q 544 659 544 1381 
z
M 1991 3584 
L 1991 3584 
z
" transform="scale(0.015625)"/>
      <path id="DejaVuSans-33" d="M 2597 2516 
Q 3050 2419 3304 2112 
Q 3559 1806 3559 1356 
Q 3559 666 3084 287 
Q 2609 -91 1734 -91 
Q 1441 -91 1130 -33 
Q 819 25 488 141 
L 488 750 
Q 750 597 1062 519 
Q 1375 441 1716 441 
Q 2309 441 2620 675 
Q 2931 909 2931 1356 
Q 2931 1769 2642 2001 
Q 2353 2234 1838 2234 
L 1294 2234 
L 1294 2753 
L 1863 2753 
Q 2328 2753 2575 2939 
Q 2822 3125 2822 3475 
Q 2822 3834 2567 4026 
Q 2313 4219 1838 4219 
Q 1578 4219 1281 4162 
Q 984 4106 628 3988 
L 628 4550 
Q 988 4650 1302 4700 
Q 1616 4750 1894 4750 
Q 2613 4750 3031 4423 
Q 3450 4097 3450 3541 
Q 3450 3153 3228 2886 
Q 3006 2619 2597 2516 
z
" transform="scale(0.015625)"/>
      <path id="DejaVuSans-70" d="M 1159 525 
L 1159 -1331 
L 581 -1331 
L 581 3500 
L 1159 3500 
L 1159 2969 
Q 1341 3281 1617 3432 
Q 1894 3584 2278 3584 
Q 2916 3584 3314 3078 
Q 3713 2572 3713 1747 
Q 3713 922 3314 415 
Q 2916 -91 2278 -91 
Q 1894 -91 1617 61 
Q 1341 213 1159 525 
z
M 3116 1747 
Q 3116 2381 2855 2742 
Q 2594 3103 2138 3103 
Q 1681 3103 1420 2742 
Q 1159 2381 1159 1747 
Q 1159 1113 1420 752 
Q 1681 391 2138 391 
Q 2594 391 2855 752 
Q 3116 1113 3116 1747 
z
" transform="scale(0.015625)"/>
     </defs>
     <use xlink:href="#DejaVuSans-64"/>
     <use xlink:href="#DejaVuSans-72" transform="translate(63.476562 0)"/>
     <use xlink:href="#DejaVuSans-75" transform="translate(104.589844 0)"/>
     <use xlink:href="#DejaVuSans-67" transform="translate(167.96875 0)"/>
     <use xlink:href="#DejaVuSans-73" transform="translate(231.445312 0)"/>
     <use xlink:href="#DejaVuSans-33" transform="translate(283.544922 0)"/>
     <use xlink:href="#DejaVuSans-30" transform="translate(347.167969 0)"/>
     <use xlink:href="#DejaVuSans-30" transform="translate(410.791016 0)"/>
     <use xlink:href="#DejaVuSans-33" transform="translate(474.414062 0)"/>
     <use xlink:href="#DejaVuSans-20" transform="translate(538.037109 0)"/>
     <use xlink:href="#DejaVuSans-72" transform="translate(569.824219 0)"/>
     <use xlink:href="#DejaVuSans-65" transform="translate(608.6875 0)"/>
     <use xlink:href="#DejaVuSans-70" transform="translate(670.210938 0)"/>
     <use xlink:href="#DejaVuSans-31" transform="translate(733.6875 0)"/>
    </g>
   </g>
  </g>
 </g>
 <defs>
  <clipPath id="pde4f5eae2f">
   <rect x="37.85375" y="20.418516" width="180.96" height="111.3"/>
  </clipPath>
 </defs>
</svg>
