<?xml version="1.0" encoding="utf-8" standalone="no"?>
<!DOCTYPE svg PUBLIC "-//W3C//DTD SVG 1.1//EN"
  "http://www.w3.org/Graphics/SVG/1.1/DTD/svg11.dtd">
<svg xmlns:xlink="http://www.w3.org/1999/xlink" width="230.785625pt" height="164.903516pt" viewBox="0 0 230.785625 164.903516" xmlns="http://www.w3.org/2000/svg" version="1.1">
 <metadata>
  <rdf:RDF xmlns:dc="http://purl.org/dc/elements/1.1/" xmlns:cc="http://creativecommons.org/ns#" xmlns:rdf="http://www.w3.org/1999/02/22-rdf-syntax-ns#">
   <cc:Work>
    <dc:type rdf:resource="http://purl.org/dc/dcmitype/StillImage"/>
    <dc:date>2026-05-24T13:54:13.856755</dc:date>
    <dc:format>image/svg+xml</dc:format>
    <dc:creator>
     <cc:Agent>
      <dc:title>Matplotlib v3.10.9, https://matplotlib.org/</dc:title>
     </cc:Agent>
    </dc:creator>
   </cc:Work>
  </rdf:RDF>
 </metadata>
 <defs>
  <style type="text/css">*{stroke-linejoin: round; stroke-linecap: butt}</style>
 </defs>
 <g id="figure_1">
  <g id="patch_1">
   <path d="M 0 164.903516 
L 230.785625 164.903516 
L 230.785625 0 
L 0 0 
z
" style="fill: #ffffff"/>
  </g>
  <g id="axes_1">
   <g id="patch_2">
    <path d="M 42.625625 131.718516 
L 223.585625 131.718516 
L 223.585625 20.418516 
L 42.625625 20.418516 
z
" style="fill: #ffffff"/>
   </g>
   <g id="patch_3">
    <path d="M 133.105625 131.718516 
L 215.36017 131.718516 
L 215.36017 20.418516 
L 133.105625 20.418516 
z
" clip-path="url(#pc74b3ce35d)" style="fill: #bdbdbd; opacity: 0.18"/>
   </g>
   <g id="matplotlib.axis_1">
    <g id="xtick_1">
     <g id="line2d_1">
      <defs>
       <path id="m05b57ca6c0" d="M 0 0 
L 0 3 
" style="stroke: #000000; stroke-width: 0.7"/>
      </defs>
      <g>
       <use xlink:href="#m05b57ca6c0" x="50.85108" y="131.718516" style="stroke: #000000; stroke-width: 0.7"/>
      </g>
     </g>
     <g id="text_1">
      <!-- 0 -->
      <g transform="translate(48.465142 143.917344) scale(0.075 -0.075)">
       <defs>
        <path id="DejaVuSans-30" d="M 2034 4250 
Q 1547 4250 1301 3770 
Q 1056 3291 1056 2328 
Q 1056 1369 1301 889 
Q 1547 409 2034 409 
Q 2525 409 2770 889 
Q 3016 1369 3016 2328 
Q 3016 3291 2770 3770 
Q 2525 4250 2034 4250 
z
M 2034 4750 
Q 2819 4750 3233 4129 
Q 3647 3509 3647 2328 
Q 3647 1150 3233 529 
Q 2819 -91 2034 -91 
Q 1250 -91 836 529 
Q 422 1150 422 2328 
Q 422 3509 836 4129 
Q 1250 4750 2034 4750 
z
" transform="scale(0.015625)"/>
       </defs>
       <use xlink:href="#DejaVuSans-30"/>
      </g>
     </g>
    </g>
    <g id="xtick_2">
     <g id="line2d_2">
      <g>
       <use xlink:href="#m05b57ca6c0" x="83.752898" y="131.718516" style="stroke: #000000; stroke-width: 0.7"/>
      </g>
     </g>
     <g id="text_2">
      <!-- 20 -->
      <g transform="translate(78.981023 143.917344) scale(0.075 -0.075)">
       <defs>
        <path id="DejaVuSans-32" d="M 1228 531 
L 3431 531 
L 3431 0 
L 469 0 
L 469 531 
Q 828 903 1448 1529 
Q 2069 2156 2228 2338 
Q 2531 2678 2651 2914 
Q 2772 3150 2772 3378 
Q 2772 3750 2511 3984 
Q 2250 4219 1831 4219 
Q 1534 4219 1204 4116 
Q 875 4013 500 3803 
L 500 4441 
Q 881 4594 1212 4672 
Q 1544 4750 1819 4750 
Q 2544 4750 2975 4387 
Q 3406 4025 3406 3419 
Q 3406 3131 3298 2873 
Q 3191 2616 2906 2266 
Q 2828 2175 2409 1742 
Q 1991 1309 1228 531 
z
" transform="scale(0.015625)"/>
       </defs>
       <use xlink:href="#DejaVuSans-32"/>
       <use xlink:href="#DejaVuSans-30" transform="translate(63.623047 0)"/>
      </g>
     </g>
    </g>
    <g id="xtick_3">
     <g id="line2d_3">
      <g>
       <use xlink:href="#m05b57ca6c0" x="116.654716" y="131.718516" style="stroke: #000000; stroke-width: 0.7"/>
      </g>
     </g>
     <g id="text_3">
      <!-- 40 -->
      <g transform="translate(111.882841 143.917344) scale(0.075 -0.075)">
       <defs>
        <path id="DejaVuSans-34" d="M 2419 4116 
L 825 1625 
L 2419 1625 
L 2419 4116 
z
M 2253 4666 
L 3047 4666 
L 3047 1625 
L 3713 1625 
L 3713 1100 
L 3047 1100 
L 3047 0 
L 2419 0 
L 2419 1100 
L 313 1100 
L 313 1709 
L 2253 4666 
z
" transform="scale(0.015625)"/>
       </defs>
       <use xlink:href="#DejaVuSans-34"/>
       <use xlink:href="#DejaVuSans-30" transform="translate(63.623047 0)"/>
      </g>
     </g>
    </g>
    <g id="xtick_4">
     <g id="line2d_4">
      <g>
       <use xlink:href="#m05b57ca6c0" x="149.556534" y="131.718516" style="stroke: #000000; stroke-width: 0.7"/>
      </g>
     </g>
     <g id="text_4">
      <!-- 60 -->
      <g transform="translate(144.784659 143.917344) scale(0.075 -0.075)">
       <defs>
        <path id="DejaVuSans-36" d="M 2113 2584 
Q 1688 2584 1439 2293 
Q 1191 2003 1191 1497 
Q 1191 994 1439 701 
Q 1688 409 2113 409 
Q 2538 409 2786 701 
Q 3034 994 3034 1497 
Q 3034 2003 2786 2293 
Q 2538 2584 2113 2584 
z
M 3366 4563 
L 3366 3988 
Q 3128 4100 2886 4159 
Q 2644 4219 2406 4219 
Q 1781 4219 1451 3797 
Q 1122 3375 1075 2522 
Q 1259 2794 1537 2939 
Q 1816 3084 2150 3084 
Q 2853 3084 3261 2657 
Q 3669 2231 3669 1497 
Q 3669 778 3244 343 
Q 2819 -91 2113 -91 
Q 1303 -91 875 529 
Q 447 1150 447 2328 
Q 447 3434 972 4092 
Q 1497 4750 2381 4750 
Q 2619 4750 2861 4703 
Q 3103 4656 3366 4563 
z
" transform="scale(0.015625)"/>
       </defs>
       <use xlink:href="#DejaVuSans-36"/>
       <use xlink:href="#DejaVuSans-30" transform="translate(63.623047 0)"/>
      </g>
     </g>
    </g>
    <g id="xtick_5">
     <g id="line2d_5">
      <g>
       <use xlink:href="#m05b57ca6c0" x="182.458352" y="131.718516" style="stroke: #000000; stroke-width: 0.7"/>
      </g>
     </g>
     <g id="text_5">
      <!-- 80 -->
      <g transform="translate(177.686477 143.917344) scale(0.075 -0.075)">
       <defs>
        <path id="DejaVuSans-38" d="M 2034 2216 
Q 1584 2216 1326 1975 
Q 1069 1734 1069 1313 
Q 1069 891 1326 650 
Q 1584 409 2034 409 
Q 2484 409 2743 651 
Q 3003 894 3003 1313 
Q 3003 1734 2745 1975 
Q 2488 2216 2034 2216 
z
M 1403 2484 
Q 997 2584 770 2862 
Q 544 3141 544 3541 
Q 544 4100 942 4425 
Q 1341 4750 2034 4750 
Q 2731 4750 3128 4425 
Q 3525 4100 3525 3541 
Q 3525 3141 3298 2862 
Q 3072 2584 2669 2484 
Q 3125 2378 3379 2068 
Q 3634 1759 3634 1313 
Q 3634 634 3220 271 
Q 2806 -91 2034 -91 
Q 1263 -91 848 271 
Q 434 634 434 1313 
Q 434 1759 690 2068 
Q 947 2378 1403 2484 
z
M 1172 3481 
Q 1172 3119 1398 2916 
Q 1625 2713 2034 2713 
Q 2441 2713 2670 2916 
Q 2900 3119 2900 3481 
Q 2900 3844 2670 4047 
Q 2441 4250 2034 4250 
Q 1625 4250 1398 4047 
Q 1172 3844 1172 3481 
z
" transform="scale(0.015625)"/>
       </defs>
       <use xlink:href="#DejaVuSans-38"/>
       <use xlink:href="#DejaVuSans-30" transform="translate(63.623047 0)"/>
      </g>
     </g>
    </g>
    <g id="xtick_6">
     <g id="line2d_6">
      <g>
       <use xlink:href="#m05b57ca6c0" x="215.36017" y="131.718516" style="stroke: #000000; stroke-width: 0.7"/>
      </g>
     </g>
     <g id="text_6">
      <!-- 100 -->
      <g transform="translate(208.202358 143.917344) scale(0.075 -0.075)">
       <defs>
        <path id="DejaVuSans-31" d="M 794 531 
L 1825 531 
L 1825 4091 
L 703 3866 
L 703 4441 
L 1819 4666 
L 2450 4666 
L 2450 531 
L 3481 531 
L 3481 0 
L 794 0 
L 794 531 
z
" transform="scale(0.015625)"/>
       </defs>
       <use xlink:href="#DejaVuSans-31"/>
       <use xlink:href="#DejaVuSans-30" transform="translate(63.623047 0)"/>
       <use xlink:href="#DejaVuSans-30" transform="translate(127.246094 0)"/>
      </g>
     </g>
    </g>
    <g id="text_7">
     <!-- Time (ns) -->
     <g transform="translate(113.132617 155.935781) scale(0.085 -0.085)">
      <defs>
       <path id="DejaVuSans-54" d="M -19 4666 
L 3928 4666 
L 3928 4134 
L 2272 4134 
L 2272 0 
L 1638 0 
L 1638 4134 
L -19 4134 
L -19 4666 
z
" transform="scale(0.015625)"/>
       <path id="DejaVuSans-69" d="M 603 3500 
L 1178 3500 
L 1178 0 
L 603 0 
L 603 3500 
z
M 603 4863 
L 1178 4863 
L 1178 4134 
L 603 4134 
L 603 4863 
z
" transform="scale(0.015625)"/>
       <path id="DejaVuSans-6d" d="M 3328 2828 
Q 3544 3216 3844 3400 
Q 4144 3584 4550 3584 
Q 5097 3584 5394 3201 
Q 5691 2819 5691 2113 
L 5691 0 
L 5113 0 
L 5113 2094 
Q 5113 2597 4934 2840 
Q 4756 3084 4391 3084 
Q 3944 3084 3684 2787 
Q 3425 2491 3425 1978 
L 3425 0 
L 2847 0 
L 2847 2094 
Q 2847 2600 2669 2842 
Q 2491 3084 2119 3084 
Q 1678 3084 1418 2786 
Q 1159 2488 1159 1978 
L 1159 0 
L 581 0 
L 581 3500 
L 1159 3500 
L 1159 2956 
Q 1356 3278 1631 3431 
Q 1906 3584 2284 3584 
Q 2666 3584 2933 3390 
Q 3200 3197 3328 2828 
z
" transform="scale(0.015625)"/>
       <path id="DejaVuSans-65" d="M 3597 1894 
L 3597 1613 
L 953 1613 
Q 991 1019 1311 708 
Q 1631 397 2203 397 
Q 2534 397 2845 478 
Q 3156 559 3463 722 
L 3463 178 
Q 3153 47 2828 -22 
Q 2503 -91 2169 -91 
Q 1331 -91 842 396 
Q 353 884 353 1716 
Q 353 2575 817 3079 
Q 1281 3584 2069 3584 
Q 2775 3584 3186 3129 
Q 3597 2675 3597 1894 
z
M 3022 2063 
Q 3016 2534 2758 2815 
Q 2500 3097 2075 3097 
Q 1594 3097 1305 2825 
Q 1016 2553 972 2059 
L 3022 2063 
z
" transform="scale(0.015625)"/>
       <path id="DejaVuSans-20" transform="scale(0.015625)"/>
       <path id="DejaVuSans-28" d="M 1984 4856 
Q 1566 4138 1362 3434 
Q 1159 2731 1159 2009 
Q 1159 1288 1364 580 
Q 1569 -128 1984 -844 
L 1484 -844 
Q 1016 -109 783 600 
Q 550 1309 550 2009 
Q 550 2706 781 3412 
Q 1013 4119 1484 4856 
L 1984 4856 
z
" transform="scale(0.015625)"/>
       <path id="DejaVuSans-6e" d="M 3513 2113 
L 3513 0 
L 2938 0 
L 2938 2094 
Q 2938 2591 2744 2837 
Q 2550 3084 2163 3084 
Q 1697 3084 1428 2787 
Q 1159 2491 1159 1978 
L 1159 0 
L 581 0 
L 581 3500 
L 1159 3500 
L 1159 2956 
Q 1366 3272 1645 3428 
Q 1925 3584 2291 3584 
Q 2894 3584 3203 3211 
Q 3513 2838 3513 2113 
z
" transform="scale(0.015625)"/>
       <path id="DejaVuSans-73" d="M 2834 3397 
L 2834 2853 
Q 2591 2978 2328 3040 
Q 2066 3103 1784 3103 
Q 1356 3103 1142 2972 
Q 928 2841 928 2578 
Q 928 2378 1081 2264 
Q 1234 2150 1697 2047 
L 1894 2003 
Q 2506 1872 2764 1633 
Q 3022 1394 3022 966 
Q 3022 478 2636 193 
Q 2250 -91 1575 -91 
Q 1294 -91 989 -36 
Q 684 19 347 128 
L 347 722 
Q 666 556 975 473 
Q 1284 391 1588 391 
Q 1994 391 2212 530 
Q 2431 669 2431 922 
Q 2431 1156 2273 1281 
Q 2116 1406 1581 1522 
L 1381 1569 
Q 847 1681 609 1914 
Q 372 2147 372 2553 
Q 372 3047 722 3315 
Q 1072 3584 1716 3584 
Q 2034 3584 2315 3537 
Q 2597 3491 2834 3397 
z
" transform="scale(0.015625)"/>
       <path id="DejaVuSans-29" d="M 513 4856 
L 1013 4856 
Q 1481 4119 1714 3412 
Q 1947 2706 1947 2009 
Q 1947 1309 1714 600 
Q 1481 -109 1013 -844 
L 513 -844 
Q 928 -128 1133 580 
Q 1338 1288 1338 2009 
Q 1338 2731 1133 3434 
Q 928 4138 513 4856 
z
" transform="scale(0.015625)"/>
      </defs>
      <use xlink:href="#DejaVuSans-54"/>
      <use xlink:href="#DejaVuSans-69" transform="translate(57.958984 0)"/>
      <use xlink:href="#DejaVuSans-6d" transform="translate(85.742188 0)"/>
      <use xlink:href="#DejaVuSans-65" transform="translate(183.154297 0)"/>
      <use xlink:href="#DejaVuSans-20" transform="translate(244.677734 0)"/>
      <use xlink:href="#DejaVuSans-28" transform="translate(276.464844 0)"/>
      <use xlink:href="#DejaVuSans-6e" transform="translate(315.478516 0)"/>
      <use xlink:href="#DejaVuSans-73" transform="translate(378.857422 0)"/>
      <use xlink:href="#DejaVuSans-29" transform="translate(430.957031 0)"/>
     </g>
    </g>
   </g>
   <g id="matplotlib.axis_2">
    <g id="ytick_1">
     <g id="line2d_7">
      <defs>
       <path id="ma2df7801d2" d="M 0 0 
L -3 0 
" style="stroke: #000000; stroke-width: 0.7"/>
      </defs>
      <g>
       <use xlink:href="#ma2df7801d2" x="42.625625" y="130.053175" style="stroke: #000000; stroke-width: 0.7"/>
      </g>
     </g>
     <g id="text_8">
      <!-- 2.25 -->
      <g transform="translate(19.426406 132.902589) scale(0.075 -0.075)">
       <defs>
        <path id="DejaVuSans-2e" d="M 684 794 
L 1344 794 
L 1344 0 
L 684 0 
L 684 794 
z
" transform="scale(0.015625)"/>
        <path id="DejaVuSans-35" d="M 691 4666 
L 3169 4666 
L 3169 4134 
L 1269 4134 
L 1269 2991 
Q 1406 3038 1543 3061 
Q 1681 3084 1819 3084 
Q 2600 3084 3056 2656 
Q 3513 2228 3513 1497 
Q 3513 744 3044 326 
Q 2575 -91 1722 -91 
Q 1428 -91 1123 -41 
Q 819 9 494 109 
L 494 744 
Q 775 591 1075 516 
Q 1375 441 1709 441 
Q 2250 441 2565 725 
Q 2881 1009 2881 1497 
Q 2881 1984 2565 2268 
Q 2250 2553 1709 2553 
Q 1456 2553 1204 2497 
Q 953 2441 691 2322 
L 691 4666 
z
" transform="scale(0.015625)"/>
       </defs>
       <use xlink:href="#DejaVuSans-32"/>
       <use xlink:href="#DejaVuSans-2e" transform="translate(63.623047 0)"/>
       <use xlink:href="#DejaVuSans-32" transform="translate(95.410156 0)"/>
       <use xlink:href="#DejaVuSans-35" transform="translate(159.033203 0)"/>
      </g>
     </g>
    </g>
    <g id="ytick_2">
     <g id="line2d_8">
      <g>
       <use xlink:href="#ma2df7801d2" x="42.625625" y="111.740254" style="stroke: #000000; stroke-width: 0.7"/>
      </g>
     </g>
     <g id="text_9">
      <!-- 2.50 -->
      <g transform="translate(19.426406 114.589668) scale(0.075 -0.075)">
       <use xlink:href="#DejaVuSans-32"/>
       <use xlink:href="#DejaVuSans-2e" transform="translate(63.623047 0)"/>
       <use xlink:href="#DejaVuSans-35" transform="translate(95.410156 0)"/>
       <use xlink:href="#DejaVuSans-30" transform="translate(159.033203 0)"/>
      </g>
     </g>
    </g>
    <g id="ytick_3">
     <g id="line2d_9">
      <g>
       <use xlink:href="#ma2df7801d2" x="42.625625" y="93.427333" style="stroke: #000000; stroke-width: 0.7"/>
      </g>
     </g>
     <g id="text_10">
      <!-- 2.75 -->
      <g transform="translate(19.426406 96.276747) scale(0.075 -0.075)">
       <defs>
        <path id="DejaVuSans-37" d="M 525 4666 
L 3525 4666 
L 3525 4397 
L 1831 0 
L 1172 0 
L 2766 4134 
L 525 4134 
L 525 4666 
z
" transform="scale(0.015625)"/>
       </defs>
       <use xlink:href="#DejaVuSans-32"/>
       <use xlink:href="#DejaVuSans-2e" transform="translate(63.623047 0)"/>
       <use xlink:href="#DejaVuSans-37" transform="translate(95.410156 0)"/>
       <use xlink:href="#DejaVuSans-35" transform="translate(159.033203 0)"/>
      </g>
     </g>
    </g>
    <g id="ytick_4">
     <g id="line2d_10">
      <g>
       <use xlink:href="#ma2df7801d2" x="42.625625" y="75.114412" style="stroke: #000000; stroke-width: 0.7"/>
      </g>
     </g>
     <g id="text_11">
      <!-- 3.00 -->
      <g transform="translate(19.426406 77.963827) scale(0.075 -0.075)">
       <defs>
        <path id="DejaVuSans-33" d="M 2597 2516 
Q 3050 2419 3304 2112 
Q 3559 1806 3559 1356 
Q 3559 666 3084 287 
Q 2609 -91 1734 -91 
Q 1441 -91 1130 -33 
Q 819 25 488 141 
L 488 750 
Q 750 597 1062 519 
Q 1375 441 1716 441 
Q 2309 441 2620 675 
Q 2931 909 2931 1356 
Q 2931 1769 2642 2001 
Q 2353 2234 1838 2234 
L 1294 2234 
L 1294 2753 
L 1863 2753 
Q 2328 2753 2575 2939 
Q 2822 3125 2822 3475 
Q 2822 3834 2567 4026 
Q 2313 4219 1838 4219 
Q 1578 4219 1281 4162 
Q 984 4106 628 3988 
L 628 4550 
Q 988 4650 1302 4700 
Q 1616 4750 1894 4750 
Q 2613 4750 3031 4423 
Q 3450 4097 3450 3541 
Q 3450 3153 3228 2886 
Q 3006 2619 2597 2516 
z
" transform="scale(0.015625)"/>
       </defs>
       <use xlink:href="#DejaVuSans-33"/>
       <use xlink:href="#DejaVuSans-2e" transform="translate(63.623047 0)"/>
       <use xlink:href="#DejaVuSans-30" transform="translate(95.410156 0)"/>
       <use xlink:href="#DejaVuSans-30" transform="translate(159.033203 0)"/>
      </g>
     </g>
    </g>
    <g id="ytick_5">
     <g id="line2d_11">
      <g>
       <use xlink:href="#ma2df7801d2" x="42.625625" y="56.801492" style="stroke: #000000; stroke-width: 0.7"/>
      </g>
     </g>
     <g id="text_12">
      <!-- 3.25 -->
      <g transform="translate(19.426406 59.650906) scale(0.075 -0.075)">
       <use xlink:href="#DejaVuSans-33"/>
       <use xlink:href="#DejaVuSans-2e" transform="translate(63.623047 0)"/>
       <use xlink:href="#DejaVuSans-32" transform="translate(95.410156 0)"/>
       <use xlink:href="#DejaVuSans-35" transform="translate(159.033203 0)"/>
      </g>
     </g>
    </g>
    <g id="ytick_6">
     <g id="line2d_12">
      <g>
       <use xlink:href="#ma2df7801d2" x="42.625625" y="38.488571" style="stroke: #000000; stroke-width: 0.7"/>
      </g>
     </g>
     <g id="text_13">
      <!-- 3.50 -->
      <g transform="translate(19.426406 41.337985) scale(0.075 -0.075)">
       <use xlink:href="#DejaVuSans-33"/>
       <use xlink:href="#DejaVuSans-2e" transform="translate(63.623047 0)"/>
       <use xlink:href="#DejaVuSans-35" transform="translate(95.410156 0)"/>
       <use xlink:href="#DejaVuSans-30" transform="translate(159.033203 0)"/>
      </g>
     </g>
    </g>
    <g id="text_14">
     <!-- Rg (nm) -->
     <g transform="translate(13.658672 93.219922) rotate(-90) scale(0.085 -0.085)">
      <defs>
       <path id="DejaVuSans-52" d="M 2841 2188 
Q 3044 2119 3236 1894 
Q 3428 1669 3622 1275 
L 4263 0 
L 3584 0 
L 2988 1197 
Q 2756 1666 2539 1819 
Q 2322 1972 1947 1972 
L 1259 1972 
L 1259 0 
L 628 0 
L 628 4666 
L 2053 4666 
Q 2853 4666 3247 4331 
Q 3641 3997 3641 3322 
Q 3641 2881 3436 2590 
Q 3231 2300 2841 2188 
z
M 1259 4147 
L 1259 2491 
L 2053 2491 
Q 2509 2491 2742 2702 
Q 2975 2913 2975 3322 
Q 2975 3731 2742 3939 
Q 2509 4147 2053 4147 
L 1259 4147 
z
" transform="scale(0.015625)"/>
       <path id="DejaVuSans-67" d="M 2906 1791 
Q 2906 2416 2648 2759 
Q 2391 3103 1925 3103 
Q 1463 3103 1205 2759 
Q 947 2416 947 1791 
Q 947 1169 1205 825 
Q 1463 481 1925 481 
Q 2391 481 2648 825 
Q 2906 1169 2906 1791 
z
M 3481 434 
Q 3481 -459 3084 -895 
Q 2688 -1331 1869 -1331 
Q 1566 -1331 1297 -1286 
Q 1028 -1241 775 -1147 
L 775 -588 
Q 1028 -725 1275 -790 
Q 1522 -856 1778 -856 
Q 2344 -856 2625 -561 
Q 2906 -266 2906 331 
L 2906 616 
Q 2728 306 2450 153 
Q 2172 0 1784 0 
Q 1141 0 747 490 
Q 353 981 353 1791 
Q 353 2603 747 3093 
Q 1141 3584 1784 3584 
Q 2172 3584 2450 3431 
Q 2728 3278 2906 2969 
L 2906 3500 
L 3481 3500 
L 3481 434 
z
" transform="scale(0.015625)"/>
      </defs>
      <use xlink:href="#DejaVuSans-52"/>
      <use xlink:href="#DejaVuSans-67" transform="translate(69.482422 0)"/>
      <use xlink:href="#DejaVuSans-20" transform="translate(132.958984 0)"/>
      <use xlink:href="#DejaVuSans-28" transform="translate(164.746094 0)"/>
      <use xlink:href="#DejaVuSans-6e" transform="translate(203.759766 0)"/>
      <use xlink:href="#DejaVuSans-6d" transform="translate(267.138672 0)"/>
      <use xlink:href="#DejaVuSans-29" transform="translate(364.550781 0)"/>
     </g>
    </g>
   </g>
   <g id="line2d_13">
    <path d="M 50.85108 30.594237 
L 50.900432 32.541266 
L 50.916883 28.768072 
L 50.933334 27.215869 
L 50.966236 32.862841 
L 50.982687 32.844528 
L 50.999138 33.689853 
L 51.064941 32.306128 
L 51.081392 32.618913 
L 51.163647 25.477607 
L 51.196549 27.589453 
L 51.361058 44.42855 
L 51.426861 44.67321 
L 51.459763 41.859613 
L 51.57492 55.428755 
L 51.624272 55.244893 
L 52.051996 33.400509 
L 52.13425 35.40614 
L 52.232956 40.194602 
L 52.265858 38.076896 
L 52.29876 34.746142 
L 52.331661 39.248923 
L 52.348112 39.564638 
L 52.364563 45.734627 
L 52.463269 42.230999 
L 52.561974 35.455951 
L 52.594876 37.991192 
L 52.84164 53.769604 
L 52.923894 48.091134 
L 52.973247 50.369994 
L 53.006149 50.706951 
L 53.0226 51.695849 
L 53.03905 49.681428 
L 53.071952 51.599157 
L 53.088403 45.888456 
L 53.187109 49.101275 
L 53.252912 49.740762 
L 53.302265 45.016761 
L 53.318716 48.746736 
L 53.38452 43.659407 
L 53.40097 43.968529 
L 53.483225 38.487838 
L 53.532578 39.328035 
L 53.697087 53.417264 
L 53.729989 51.396982 
L 53.76289 52.015959 
L 53.878047 45.783706 
L 53.894498 47.102969 
L 53.910949 47.033379 
L 53.976752 51.945637 
L 54.026105 47.631113 
L 54.075458 43.032373 
L 54.223516 36.510775 
L 54.239967 34.444345 
L 54.28932 39.267969 
L 54.30577 37.206666 
L 54.519632 45.7588 
L 54.355123 35.998013 
L 54.552534 45.560288 
L 54.634789 49.411862 
L 54.601887 44.909813 
L 54.65124 46.284015 
L 54.66769 45.139091 
L 54.733494 47.120549 
L 54.749945 45.940464 
L 54.815749 49.67923 
L 54.84865 48.722563 
L 54.930905 39.055539 
L 54.980258 42.654394 
L 55.046061 46.063527 
L 55.062512 45.389612 
L 55.095414 40.167499 
L 55.177669 42.281543 
L 55.259923 35.229603 
L 55.309276 36.648488 
L 55.440883 42.874149 
L 55.490236 41.236974 
L 55.506687 41.541701 
L 55.654745 49.751017 
L 55.687647 46.944745 
L 55.769901 53.131582 
L 55.802803 51.569856 
L 55.835705 47.513911 
L 55.885058 52.643726 
L 56.09892 63.260825 
L 55.950861 51.350834 
L 56.131821 63.170725 
L 56.148272 61.999431 
L 56.181174 66.240703 
L 56.197625 68.620651 
L 56.246978 64.884815 
L 56.27988 67.784849 
L 56.395036 63.125309 
L 56.411487 63.189771 
L 56.427938 65.138998 
L 56.47729 59.450272 
L 56.510192 56.598584 
L 56.575996 58.273118 
L 56.691152 61.73133 
L 56.789858 62.704845 
L 56.82276 57.848258 
L 56.83921 58.960219 
L 56.855661 55.84629 
L 56.872112 52.322884 
L 56.954367 58.435737 
L 56.970818 58.505326 
L 57.00372 55.358433 
L 57.053072 59.218065 
L 57.102425 61.347491 
L 57.135327 60.566628 
L 57.151778 58.404238 
L 57.20113 63.568482 
L 57.217581 62.205268 
L 57.234032 63.189771 
L 57.250483 61.409755 
L 57.316287 61.874171 
L 57.332738 60.43038 
L 57.349189 64.615981 
L 57.38209 61.916657 
L 57.414992 67.021566 
L 57.464345 61.849998 
L 57.480796 62.466777 
L 57.513698 63.866616 
L 57.645305 67.346804 
L 57.72756 61.486669 
L 57.694658 67.870553 
L 57.776912 63.926683 
L 57.842716 67.166605 
L 57.875618 63.377295 
L 57.941421 58.628389 
L 58.040127 61.488134 
L 58.056578 61.30061 
L 58.171734 66.120571 
L 58.204636 63.964774 
L 58.237538 65.727209 
L 58.28689 62.820582 
L 58.385596 59.470783 
L 58.336243 65.130208 
L 58.402047 60.832532 
L 58.46785 66.435553 
L 58.533654 63.798492 
L 58.64881 58.400576 
L 58.681712 64.419667 
L 58.763967 60.089027 
L 58.82977 57.677582 
L 58.846221 60.735107 
L 58.879123 64.414539 
L 58.912025 58.90235 
L 58.928476 60.581278 
L 58.961378 57.734718 
L 58.99428 63.322356 
L 59.01073 65.34337 
L 59.060083 61.214905 
L 59.109436 64.396226 
L 59.241043 58.982194 
L 59.273945 62.202338 
L 59.306847 57.221956 
L 59.323298 56.978028 
L 59.339749 62.307088 
L 59.438454 58.929453 
L 59.504258 64.32737 
L 59.55361 61.345293 
L 59.619414 59.957174 
L 59.602963 61.735725 
L 59.635865 60.293399 
L 59.652316 62.065358 
L 59.701669 59.856087 
L 59.71812 60.436973 
L 59.73457 57.764019 
L 59.800374 61.304273 
L 59.816825 62.800804 
L 59.849727 57.984506 
L 59.89908 61.532085 
L 59.997785 58.108302 
L 60.014236 58.472362 
L 60.293901 69.397119 
L 60.063589 57.892209 
L 60.326803 66.818659 
L 60.359705 66.409182 
L 60.392607 71.628365 
L 60.45841 66.489759 
L 60.474861 66.832577 
L 60.507763 63.945728 
L 60.524214 68.388443 
L 60.573567 66.94392 
L 60.590018 68.200919 
L 60.655821 65.673735 
L 60.672272 65.993113 
L 60.688723 64.818888 
L 60.787429 61.567979 
L 60.754527 66.064899 
L 60.80388 63.110659 
L 60.869683 67.581942 
L 60.836781 62.579584 
L 60.919036 64.267303 
L 60.951938 62.578852 
L 60.968389 60.727782 
L 61.00129 64.526614 
L 61.017741 64.290011 
L 61.116447 69.636652 
L 61.067094 64.131055 
L 61.132898 68.133527 
L 61.1658 66.264144 
L 61.231603 69.084334 
L 61.248054 67.280877 
L 61.313858 64.971252 
L 61.34676 68.752504 
L 61.379661 66.389404 
L 61.412563 69.580248 
L 61.494818 73.703585 
L 61.478367 69.418362 
L 61.511269 72.119151 
L 61.593523 69.370015 
L 61.609974 72.196798 
L 61.642876 72.056887 
L 61.692229 73.605428 
L 61.72513 69.111437 
L 61.774483 76.243953 
L 61.840287 79.214309 
L 61.856738 76.063022 
L 61.873189 77.516335 
L 61.971894 71.896466 
L 61.988345 73.110979 
L 62.021247 71.496512 
L 62.136403 83.58304 
L 62.152854 83.316403 
L 62.185756 84.516266 
L 62.235109 88.239649 
L 62.26801 85.135975 
L 62.399618 81.145224 
L 62.62993 96.507567 
L 62.44897 80.581186 
L 62.695734 95.445417 
L 62.893145 85.409204 
L 62.99185 89.295938 
L 62.942498 83.135472 
L 63.024752 88.271147 
L 63.041203 88.554631 
L 63.15636 78.389495 
L 63.189261 83.186748 
L 63.436025 90.402771 
L 63.485378 87.734945 
L 63.501829 87.568664 
L 63.584083 89.660732 
L 63.567632 86.637635 
L 63.600534 87.551816 
L 63.633436 88.713588 
L 63.797945 80.02667 
L 63.814396 80.258878 
L 63.995356 64.924371 
L 64.011807 65.165369 
L 64.07761 72.487607 
L 64.159865 71.159554 
L 64.25857 63.417584 
L 64.275021 66.666296 
L 64.291472 70.139158 
L 64.373727 64.599866 
L 64.390178 64.401354 
L 64.406629 64.675315 
L 64.472432 67.497702 
L 64.505334 64.847456 
L 64.571138 62.761249 
L 64.587589 65.859795 
L 64.653392 59.700793 
L 64.669843 59.721304 
L 64.719196 61.421475 
L 64.702745 57.761089 
L 64.785 60.41573 
L 64.817901 59.293514 
L 64.883705 57.704685 
L 64.900156 58.867189 
L 64.96596 65.181484 
L 65.031763 61.447113 
L 65.081116 57.698825 
L 65.114018 61.980386 
L 65.14692 60.096352 
L 65.262076 67.013509 
L 65.278527 63.391213 
L 65.294978 62.911414 
L 65.32788 65.023993 
L 65.34433 65.374869 
L 65.377232 63.784575 
L 65.426585 60.792243 
L 65.475938 64.024108 
L 65.50884 70.181644 
L 65.591094 66.528583 
L 65.607545 66.517595 
L 65.623996 66.279527 
L 65.656898 68.553259 
L 65.6898 64.678978 
L 65.70625 65.892025 
L 65.722701 63.860024 
L 65.739152 67.605382 
L 65.804956 65.74479 
L 65.821407 65.883968 
L 65.837858 63.948658 
L 65.88721 65.959417 
L 65.920112 72.344034 
L 66.002367 69.993387 
L 66.018818 69.825641 
L 66.166876 58.156648 
L 66.183327 59.420972 
L 66.331385 65.316267 
L 66.347836 63.076963 
L 66.364287 66.604764 
L 66.43009 66.305165 
L 66.446541 66.275132 
L 66.462992 66.53371 
L 66.479443 69.276253 
L 66.561698 64.503906 
L 66.578149 63.322356 
L 66.660403 64.893605 
L 66.676854 67.113864 
L 66.759109 63.661512 
L 66.841363 59.948384 
L 66.890716 60.125653 
L 66.940069 64.253385 
L 66.989421 59.067899 
L 67.005872 61.702029 
L 67.038774 56.474789 
L 67.104578 64.522219 
L 67.121029 64.109079 
L 67.15393 65.647365 
L 67.186832 66.872866 
L 67.236185 66.320548 
L 67.367792 63.142157 
L 67.400694 63.772122 
L 67.433596 66.619415 
L 67.482949 60.927026 
L 67.4994 61.006871 
L 67.68036 68.447044 
L 67.69681 67.95406 
L 67.713261 69.819048 
L 67.729712 69.219849 
L 67.762614 71.404947 
L 67.811967 70.588923 
L 67.844869 65.476688 
L 67.927123 68.38771 
L 67.943574 67.874216 
L 67.960025 72.298618 
L 68.04228 68.847731 
L 68.05873 65.951359 
L 68.140985 66.267807 
L 68.206789 71.374181 
L 68.256141 69.767772 
L 68.272592 68.558387 
L 68.354847 70.362576 
L 68.371298 70.348658 
L 68.453552 65.016668 
L 68.502905 67.82587 
L 68.650963 73.779034 
L 68.667414 71.284814 
L 68.700316 69.490148 
L 68.733218 69.692323 
L 68.78257 62.960493 
L 68.848374 65.245946 
L 68.864825 66.297107 
L 68.914178 62.73561 
L 68.930629 61.387779 
L 68.979981 66.1843 
L 69.095138 61.325516 
L 69.012883 66.636995 
L 69.111589 64.350078 
L 69.12804 64.440177 
L 69.160941 67.244984 
L 69.193843 61.278634 
L 69.243196 65.381461 
L 69.259647 64.727324 
L 69.407705 76.645373 
L 69.424156 77.873803 
L 69.473509 75.523889 
L 69.48996 73.310223 
L 69.572214 74.791373 
L 69.67092 82.598537 
L 69.703821 78.46934 
L 69.786076 83.084196 
L 69.818978 80.621474 
L 69.835429 80.504271 
L 69.85188 81.800094 
L 69.901232 79.685318 
L 69.917683 77.285592 
L 69.967036 84.26428 
L 69.983487 83.586702 
L 69.999938 84.792425 
L 70.04929 80.772372 
L 70.065741 80.986267 
L 70.082192 80.285981 
L 70.147996 78.048875 
L 70.164447 80.523317 
L 70.197349 78.222481 
L 70.263152 77.002108 
L 70.345407 80.173906 
L 70.361858 80.037658 
L 70.444112 72.365277 
L 70.509916 73.971686 
L 70.608621 83.040245 
L 70.641523 79.462632 
L 70.657974 75.880625 
L 70.740229 81.346666 
L 70.75668 78.363857 
L 70.77313 81.212615 
L 70.822483 75.435987 
L 70.838934 76.155319 
L 70.904738 72.311071 
L 70.871836 77.172052 
L 70.921189 74.376035 
L 71.036345 78.647341 
L 71.1186 78.678107 
L 71.184403 72.869248 
L 71.200854 74.484448 
L 71.283109 73.968756 
L 71.381814 68.563514 
L 71.398265 71.238666 
L 71.447618 72.050295 
L 71.464069 69.65936 
L 71.529872 66.759325 
L 71.562774 70.358913 
L 71.595676 72.38652 
L 71.628578 68.209709 
L 71.67793 70.936136 
L 71.743734 67.622963 
L 71.776636 69.936983 
L 71.891792 79.179881 
L 71.908243 78.522081 
L 71.941145 77.931672 
L 71.957596 79.026785 
L 71.974047 79.238482 
L 72.072752 74.521806 
L 72.089203 78.58581 
L 72.138556 75.375188 
L 72.20436 77.892116 
L 72.253712 81.52247 
L 72.319516 80.760652 
L 72.40177 73.05897 
L 72.467574 76.357494 
L 72.484025 75.745109 
L 72.533378 76.461511 
L 72.615632 80.868332 
L 72.648534 79.432599 
L 72.681436 77.605702 
L 72.697887 79.56958 
L 72.74724 79.527094 
L 72.76369 79.515374 
L 72.780141 79.620124 
L 72.845945 86.165894 
L 72.895298 85.026098 
L 72.94465 79.430402 
L 72.994003 84.579262 
L 73.010454 85.691223 
L 73.059807 83.859931 
L 73.076258 84.190296 
L 73.092709 83.010944 
L 73.142061 87.119631 
L 73.191414 90.159576 
L 73.224316 85.865562 
L 73.240767 86.063342 
L 73.405276 77.787366 
L 73.29012 86.340965 
L 73.454629 80.606091 
L 73.48753 85.67877 
L 73.553334 80.728421 
L 73.602687 79.004809 
L 73.635589 81.162804 
L 73.65204 81.093215 
L 73.66849 81.003115 
L 73.734294 85.0239 
L 73.701392 80.946712 
L 73.767196 82.034499 
L 73.833 82.704752 
L 73.882352 77.052652 
L 73.931705 81.915099 
L 74.01396 80.170976 
L 74.046861 75.773678 
L 74.145567 77.421108 
L 74.227821 81.720249 
L 74.244272 79.609868 
L 74.260723 76.231501 
L 74.359429 78.738906 
L 74.425232 81.318098 
L 74.458134 78.9235 
L 74.55684 76.479824 
L 74.523938 79.324919 
L 74.57329 77.627678 
L 74.606192 82.525285 
L 74.671996 77.641596 
L 74.688447 77.648921 
L 74.770701 75.016255 
L 74.787152 77.20062 
L 74.803603 77.621085 
L 74.820054 74.298389 
L 74.836505 78.656131 
L 74.902309 78.549184 
L 74.91876 78.471537 
L 74.984563 83.375737 
L 75.050367 82.274765 
L 75.165523 77.098068 
L 75.428738 88.617628 
L 75.445189 88.59199 
L 75.543894 97.698639 
L 75.593247 94.216987 
L 75.6426 96.817421 
L 75.675501 95.150213 
L 75.774207 87.173837 
L 75.790658 90.257 
L 75.889363 92.028226 
L 75.905814 87.499807 
L 75.955167 94.994187 
L 75.988069 94.008952 
L 76.103225 84.550694 
L 76.119676 88.023557 
L 76.152578 88.504088 
L 76.18548 86.5197 
L 76.234832 90.797598 
L 76.284185 89.35454 
L 76.317087 85.036353 
L 76.38289 91.188029 
L 76.399341 91.8722 
L 76.432243 90.345635 
L 76.448694 88.798559 
L 76.481596 93.242739 
L 76.530949 90.787343 
L 76.596752 89.244662 
L 76.629654 92.401077 
L 76.679007 85.796705 
L 76.761261 87.961293 
L 76.777712 87.766443 
L 76.794163 85.930024 
L 76.843516 90.925056 
L 76.859967 90.585168 
L 76.92577 87.63752 
L 76.942221 90.911138 
L 76.975123 94.144467 
L 77.008025 91.089872 
L 77.172534 79.115419 
L 77.304141 87.654368 
L 77.353494 87.490284 
L 77.369945 87.104248 
L 77.435749 79.522699 
L 77.501552 80.155593 
L 77.518003 82.760423 
L 77.567356 77.229189 
L 77.583807 75.175211 
L 77.63316 81.5547 
L 77.715414 87.869728 
L 77.764767 84.297976 
L 77.797669 84.183703 
L 77.863472 86.331443 
L 77.929276 91.128696 
L 77.978629 87.315945 
L 78.077334 91.261281 
L 78.027981 85.253178 
L 78.110236 89.03443 
L 78.291196 82.255719 
L 78.307647 82.710612 
L 78.37345 89.045418 
L 78.439254 88.270415 
L 78.505058 86.53435 
L 78.53796 88.319493 
L 78.603763 91.142613 
L 78.686018 89.873162 
L 78.702469 89.464417 
L 78.71892 90.407899 
L 78.73537 90.399841 
L 78.768272 89.711275 
L 78.817625 92.642075 
L 78.883429 88.572212 
L 78.91633 92.037016 
L 78.932781 92.135906 
L 79.064389 103.228409 
L 79.09729 99.531396 
L 79.113741 97.673733 
L 79.179545 101.627127 
L 79.195996 101.789746 
L 79.212447 101.548748 
L 79.311152 101.85201 
L 79.376956 99.128512 
L 79.393407 102.296647 
L 79.45921 95.928146 
L 79.475661 95.494496 
L 79.492112 97.097975 
L 79.508563 98.437749 
L 79.557916 95.865149 
L 79.607269 97.691314 
L 79.656621 94.765642 
L 79.689523 99.71599 
L 79.705974 97.986518 
L 79.722425 97.84148 
L 79.738876 98.856748 
L 79.788229 95.69081 
L 79.870483 92.09635 
L 79.903385 92.760743 
L 79.936287 94.653567 
L 79.969189 91.978415 
L 80.00209 85.172601 
L 80.084345 90.081929 
L 80.117247 87.055169 
L 80.1666 90.281906 
L 80.18305 90.270918 
L 80.215952 91.156531 
L 80.248854 89.045418 
L 80.34756 85.470735 
L 80.331109 90.32952 
L 80.396912 85.822344 
L 80.495618 85.903653 
L 80.512069 83.182353 
L 80.610774 88.148085 
L 80.643676 86.823694 
L 80.676578 86.572441 
L 80.791734 97.95502 
L 80.841087 105.773905 
L 80.90689 103.300195 
L 80.956243 104.609935 
L 80.989145 102.213873 
L 81.153654 90.508986 
L 81.170105 90.369808 
L 81.25236 94.775897 
L 81.301712 94.482158 
L 81.334614 92.337348 
L 81.499123 82.798514 
L 81.63073 94.90189 
L 81.663632 92.187915 
L 81.745887 88.400803 
L 81.778789 91.082547 
L 81.79524 92.163009 
L 81.844592 89.953006 
L 81.943298 86.08605 
L 81.9762 86.099967 
L 82.091356 94.729748 
L 82.107807 93.398765 
L 82.255865 83.679732 
L 82.272316 86.271376 
L 82.288767 88.255032 
L 82.33812 84.447409 
L 82.371021 85.266363 
L 82.469727 88.099006 
L 82.502629 82.767748 
L 82.568432 90.625456 
L 82.617785 88.969236 
L 82.634236 90.101707 
L 82.650687 92.529268 
L 82.683589 86.425937 
L 82.71649 86.676458 
L 82.864549 80.799476 
L 82.881 81.294657 
L 82.979705 86.559988 
L 82.996156 85.542522 
L 83.012607 84.175646 
L 83.094861 84.835643 
L 83.193567 90.516311 
L 83.210018 88.297518 
L 83.25937 88.359782 
L 83.341625 84.341195 
L 83.358076 85.519082 
L 83.390978 82.17148 
L 83.407429 82.50331 
L 83.42388 81.182582 
L 83.473232 83.706835 
L 83.522585 82.058672 
L 83.571938 85.675108 
L 83.60484 83.019734 
L 83.736447 77.198423 
L 83.80225 82.348749 
L 83.851603 81.759073 
L 83.96676 77.762461 
L 83.98321 77.922882 
L 84.032563 76.898823 
L 84.081916 79.369603 
L 84.098367 78.006389 
L 84.16417 80.502806 
L 84.180621 79.694108 
L 84.197072 81.173059 
L 84.229974 79.244342 
L 84.262876 79.743186 
L 84.295778 74.078634 
L 84.361581 76.378737 
L 84.410934 81.152549 
L 84.476738 80.24789 
L 84.608345 74.011242 
L 84.624796 77.390342 
L 84.756403 85.76594 
L 84.789305 85.539592 
L 84.855109 86.233286 
L 84.838658 83.730275 
L 84.87156 84.554357 
L 85.06897 75.842534 
L 85.085421 79.22896 
L 85.217029 84.074558 
L 85.167676 76.409502 
L 85.23348 84.032072 
L 85.266381 80.936456 
L 85.315734 84.927941 
L 85.348636 82.422 
L 85.496694 88.03894 
L 85.41444 80.346048 
L 85.513145 87.827242 
L 85.677654 79.48827 
L 85.694105 81.595721 
L 85.842163 86.313862 
L 85.875065 84.49136 
L 85.924418 87.071285 
L 85.97377 91.230515 
L 86.023123 85.253911 
L 86.039574 85.408472 
L 86.105378 88.438161 
L 86.13828 87.29397 
L 86.204083 83.663616 
L 86.253436 84.571205 
L 86.286338 86.483806 
L 86.31924 83.359622 
L 86.352141 84.448874 
L 86.368592 84.570472 
L 86.385043 84.107522 
L 86.483749 89.911985 
L 86.5002 86.372464 
L 86.51665 86.481609 
L 86.533101 83.710498 
L 86.582454 88.354654 
L 86.615356 88.217674 
L 86.631807 87.961293 
L 86.664709 90.528764 
L 86.746963 89.387503 
L 86.779865 92.295595 
L 86.829218 90.070209 
L 86.944374 81.027288 
L 86.960825 84.722836 
L 86.993727 89.705415 
L 87.05953 84.158065 
L 87.174687 89.428524 
L 87.092432 83.353029 
L 87.24049 86.682318 
L 87.289843 83.864326 
L 87.355647 85.313977 
L 87.42145 82.950878 
L 87.454352 85.21582 
L 87.58596 88.16127 
L 87.60241 88.214744 
L 87.635312 92.327826 
L 87.717567 88.986084 
L 87.816272 90.210119 
L 87.849174 85.851644 
L 87.898527 83.081266 
L 87.914978 85.857504 
L 87.94788 85.767405 
L 88.14529 95.908368 
L 88.276898 91.252491 
L 88.194643 95.975027 
L 88.3098 91.607762 
L 88.342701 92.697747 
L 88.375603 89.428524 
L 88.408505 91.578461 
L 88.49076 91.689803 
L 88.556563 84.78803 
L 88.573014 83.779354 
L 88.622367 85.710268 
L 88.655269 85.132313 
L 88.786876 90.276046 
L 88.803327 90.076801 
L 88.819778 90.322927 
L 88.836229 88.939203 
L 89.000738 82.230814 
L 89.017189 82.450569 
L 89.03364 81.367909 
L 89.082992 87.09326 
L 89.148796 84.402726 
L 89.181698 81.838917 
L 89.2146 84.719906 
L 89.263952 82.058672 
L 89.444912 90.815178 
L 89.642323 82.6022 
L 89.77393 87.897564 
L 89.93844 80.200277 
L 89.971341 85.315442 
L 90.070047 81.715854 
L 90.1194 79.154975 
L 90.168752 80.203939 
L 90.234556 84.223992 
L 90.267458 83.470965 
L 90.30036 78.957928 
L 90.382614 81.436765 
L 90.448418 82.474009 
L 90.464869 78.031294 
L 90.530672 85.864097 
L 90.596476 85.304454 
L 90.612927 85.426052 
L 90.711632 91.904431 
L 90.760985 91.470781 
L 90.777436 87.313015 
L 90.85969 91.456863 
L 90.876141 91.614354 
L 90.909043 91.346986 
L 90.958396 94.178896 
L 91.0242 92.762941 
L 91.057101 91.580658 
L 91.139356 96.041686 
L 91.172258 92.818612 
L 91.20516 98.106651 
L 91.238061 96.311985 
L 91.369669 100.326909 
L 91.40257 95.969167 
L 91.484825 96.67165 
L 91.501276 98.961498 
L 91.56708 92.884538 
L 91.599981 88.986816 
L 91.665785 93.477145 
L 91.813843 98.40332 
L 91.715138 92.981963 
L 91.830294 97.161704 
L 91.929 92.29999 
L 91.879647 97.420283 
L 91.94545 93.862448 
L 91.961901 93.342361 
L 91.978352 94.378873 
L 91.994803 95.979422 
L 92.027705 92.058259 
L 92.10996 87.08447 
L 92.12641 90.872315 
L 92.142861 92.717525 
L 92.159312 90.308277 
L 92.208665 90.823236 
L 92.323821 85.408472 
L 92.274469 92.143231 
L 92.356723 85.839924 
L 92.455429 81.887263 
L 92.47188 83.100311 
L 92.48833 84.943323 
L 92.521232 77.806412 
L 92.537683 79.02825 
L 92.554134 79.004077 
L 92.570585 78.516221 
L 92.65284 84.380018 
L 92.685741 79.649424 
L 92.735094 75.928971 
L 92.784447 81.487309 
L 92.899603 75.34076 
L 92.998309 76.067417 
L 93.179269 89.508368 
L 93.19572 89.429256 
L 93.491836 80.081609 
L 93.524738 80.308689 
L 93.672796 89.013187 
L 93.705698 88.330481 
L 93.787952 84.45327 
L 93.7386 89.106217 
L 93.820854 87.681471 
L 93.837305 89.120867 
L 93.870207 83.258535 
L 94.001814 80.379743 
L 94.084069 86.326315 
L 94.11697 83.743461 
L 94.133421 83.807922 
L 94.166323 83.081998 
L 94.265029 86.614927 
L 94.28148 85.009982 
L 94.314381 83.125949 
L 94.347283 84.830516 
L 94.445989 87.532038 
L 94.380185 81.861625 
L 94.47889 87.499807 
L 94.495341 86.41495 
L 94.528243 89.613851 
L 94.610498 96.958065 
L 94.6434 93.337966 
L 94.65985 91.029806 
L 94.725654 95.90031 
L 94.742105 96.133983 
L 94.775007 99.781917 
L 94.857261 97.122881 
L 94.890163 98.372555 
L 94.923065 95.961842 
L 94.955967 97.043769 
L 94.988869 92.550511 
L 95.071123 94.749526 
L 95.120476 97.006411 
L 95.18628 96.381574 
L 95.449494 84.512603 
L 95.56465 90.827631 
L 95.482396 84.295046 
L 95.581101 89.112077 
L 95.597552 88.93847 
L 95.778512 99.293328 
L 95.860767 100.725399 
L 95.91012 94.942911 
L 95.92657 95.884195 
L 95.959472 91.705919 
L 95.992374 93.528421 
L 96.025276 90.761705 
L 96.041727 91.196087 
L 96.09108 88.880601 
L 96.074629 91.595309 
L 96.140432 91.345521 
L 96.156883 91.155799 
L 96.255589 85.363056 
L 96.28849 86.781941 
L 96.304941 87.071285 
L 96.420098 93.343826 
L 96.46945 90.240153 
L 96.502352 94.988327 
L 96.518803 93.939363 
L 96.83137 80.67568 
L 96.847821 83.032187 
L 96.864272 84.396133 
L 96.897174 80.850019 
L 96.913625 77.8174 
L 96.979429 81.294657 
L 96.99588 80.54456 
L 97.045232 83.15525 
L 97.078134 80.359233 
L 97.127487 76.693719 
L 97.19329 79.35422 
L 97.209741 79.320524 
L 97.324898 83.013874 
L 97.456505 77.772716 
L 97.472956 78.092093 
L 97.604563 87.464646 
L 97.621014 84.314091 
L 97.769072 79.285363 
L 97.653916 85.242923 
L 97.785523 80.32041 
L 97.867778 75.934831 
L 97.884229 78.28328 
L 97.999385 89.011722 
L 97.933581 77.655513 
L 98.032287 87.522515 
L 98.048738 86.272109 
L 98.08164 89.361865 
L 98.130992 87.629463 
L 98.180345 91.957905 
L 98.229698 90.637909 
L 98.2626 94.091726 
L 98.377756 86.408357 
L 98.394207 87.217788 
L 98.44356 91.270804 
L 98.509363 88.089483 
L 98.542265 91.867805 
L 98.608069 90.945566 
L 98.657421 85.968114 
L 98.739676 86.836879 
L 98.756127 87.166512 
L 98.772578 85.679503 
L 98.789029 84.443747 
L 98.82193 87.175302 
L 98.871283 85.957859 
L 99.085145 95.914228 
L 98.904185 85.461213 
L 99.101596 95.198559 
L 99.1674 91.643655 
L 99.216752 94.429416 
L 99.233203 96.339088 
L 99.299007 93.368732 
L 99.315458 93.722538 
L 99.36481 95.828524 
L 99.381261 95.180246 
L 99.512869 89.421931 
L 99.628025 80.395126 
L 99.644476 82.71574 
L 99.776083 86.951885 
L 99.841887 90.557332 
L 99.858338 86.989243 
L 99.90769 77.881861 
L 99.973494 81.822802 
L 100.0722 89.884149 
L 100.121552 86.502119 
L 100.138003 85.664852 
L 100.170905 89.054208 
L 100.187356 88.703332 
L 100.220258 87.515922 
L 100.25316 82.869568 
L 100.302512 90.101707 
L 100.335414 92.138836 
L 100.351865 89.023442 
L 100.483472 83.005084 
L 100.401218 89.475405 
L 100.499923 85.421657 
L 100.532825 86.97093 
L 100.565727 84.280396 
L 100.582178 85.750557 
L 100.647981 79.450912 
L 100.713785 82.949413 
L 100.730236 83.854803 
L 100.763138 81.030951 
L 100.779589 81.273414 
L 100.845392 78.186588 
L 100.878294 81.022161 
L 100.944098 86.152709 
L 100.977 84.195424 
L 101.009901 79.623786 
L 101.075705 85.984962 
L 101.371821 70.235118 
L 101.388272 70.500289 
L 101.454076 79.129337 
L 101.51988 76.495207 
L 101.552781 75.833744 
L 101.569232 77.028479 
L 101.618585 83.719288 
L 101.733741 81.212615 
L 101.783094 79.319059 
L 101.799545 80.529909 
L 101.865349 85.486851 
L 101.89825 82.93403 
L 101.980505 79.924851 
L 102.013407 80.692528 
L 102.112112 84.956509 
L 102.128563 84.554357 
L 102.24372 80.901295 
L 102.391778 86.291154 
L 102.490483 80.503539 
L 102.44113 86.498457 
L 102.523385 83.752251 
L 102.572738 82.018384 
L 102.589189 82.172945 
L 102.60564 80.78043 
L 102.654992 85.725651 
L 102.671443 85.907316 
L 102.753698 83.208723 
L 102.770149 87.034659 
L 102.7866 84.79975 
L 102.80305 85.124255 
L 102.819501 83.760309 
L 102.852403 83.989586 
L 102.918207 80.053773 
L 102.98401 82.806572 
L 103.115618 89.024907 
L 103.247225 80.174639 
L 103.395283 86.792928 
L 103.411734 84.429097 
L 103.477538 83.115694 
L 103.493989 85.868492 
L 103.625596 92.952662 
L 103.52689 84.361705 
L 103.674949 90.322927 
L 103.724301 88.326086 
L 103.740752 89.206571 
L 103.757203 86.192265 
L 103.806556 90.680395 
L 103.823007 89.506171 
L 103.88881 93.233949 
L 103.921712 88.769259 
L 104.036869 85.650935 
L 103.971065 88.91503 
L 104.05332 85.869225 
L 104.102672 88.404465 
L 104.135574 86.028913 
L 104.267181 79.184276 
L 104.349436 86.670598 
L 104.398789 86.206182 
L 104.464592 84.793157 
L 104.43169 88.031614 
L 104.481043 86.952617 
L 104.497494 87.190685 
L 104.513945 85.36159 
L 104.579749 89.366993 
L 104.5962 86.071399 
L 104.61265 89.087904 
L 104.645552 83.672407 
L 104.694905 86.518235 
L 104.711356 86.280899 
L 104.727807 83.106171 
L 104.79361 89.247592 
L 104.810061 89.413874 
L 104.908767 83.438734 
L 104.941669 83.820375 
L 104.97457 85.669248 
L 105.007472 82.421268 
L 105.040374 83.928055 
L 105.13908 78.653934 
L 105.204883 82.534075 
L 105.221334 82.179537 
L 105.237785 82.616117 
L 105.254236 85.412134 
L 105.303589 82.238139 
L 105.352941 84.877397 
L 105.385843 86.968 
L 105.435196 85.895595 
L 105.451647 82.846128 
L 105.533901 85.161613 
L 105.566803 86.737257 
L 105.599705 82.542133 
L 105.616156 85.028295 
L 105.649058 83.374272 
L 105.68196 87.443403 
L 105.747763 87.132816 
L 105.764214 89.524484 
L 105.780665 84.329474 
L 105.830018 90.118555 
L 105.87937 85.468538 
L 105.928723 82.602932 
L 106.010978 84.250362 
L 106.04388 89.962529 
L 106.126134 85.624564 
L 106.142585 84.16246 
L 106.175487 86.127803 
L 106.22484 85.543987 
L 106.274192 87.620672 
L 106.290643 84.401261 
L 106.389349 80.13142 
L 106.4058 83.350099 
L 106.751269 94.320271 
L 106.455152 83.2893 
L 106.78417 92.537325 
L 106.817072 91.19682 
L 106.849974 94.798605 
L 106.899327 91.335265 
L 107.030934 95.043266 
L 107.080287 90.187411 
L 107.195443 81.754678 
L 107.228345 85.129383 
L 107.294149 84.867874 
L 107.343501 88.247707 
L 107.359952 85.711734 
L 107.409305 88.83372 
L 107.442207 88.533388 
L 107.458658 94.058763 
L 107.557363 90.051163 
L 107.67252 82.575096 
L 107.721872 82.873963 
L 107.886381 92.650866 
L 107.935734 93.874901 
L 108.03444 87.968618 
L 108.05089 91.935197 
L 108.116694 85.957127 
L 108.133145 86.23182 
L 108.149596 85.674375 
L 108.166047 87.385534 
L 108.182498 89.356005 
L 108.23185 85.057596 
L 108.264752 86.907201 
L 108.379909 82.111413 
L 108.39636 82.228616 
L 108.527967 91.681746 
L 108.560869 89.068858 
L 108.610221 93.805312 
L 108.626672 94.517318 
L 108.659574 91.76452 
L 108.676025 93.302806 
L 108.840534 86.437658 
L 108.906338 85.231202 
L 108.972141 93.151907 
L 109.054396 87.649241 
L 109.103749 88.858626 
L 109.13665 88.435964 
L 109.153101 88.460137 
L 109.169552 88.271147 
L 109.186003 89.927368 
L 109.218905 83.925125 
L 109.268258 88.715785 
L 109.284709 88.449149 
L 109.416316 98.545429 
L 109.449218 97.561658 
L 109.48212 95.997002 
L 109.515021 98.361567 
L 109.564374 96.221885 
L 109.630178 97.929382 
L 109.597276 95.431499 
L 109.67953 96.768343 
L 109.695981 94.086599 
L 109.761785 97.675199 
L 109.778236 97.17489 
L 109.942745 89.540599 
L 109.975647 93.05375 
L 110.008549 91.730092 
L 110.025 92.989288 
L 110.090803 88.356852 
L 110.123705 91.472246 
L 110.140156 92.238459 
L 110.156607 89.368458 
L 110.173058 91.920546 
L 110.22241 87.801604 
L 110.288214 90.854002 
L 110.370469 95.79849 
L 110.38692 91.823121 
L 110.40337 90.634979 
L 110.452723 93.142384 
L 110.534978 95.838046 
L 110.551429 94.772967 
L 110.56788 92.299257 
L 110.58433 96.495846 
L 110.633683 96.294404 
L 110.732389 99.044272 
L 110.666585 95.071834 
L 110.74884 98.046585 
L 110.863996 95.115785 
L 110.880447 99.124117 
L 110.913349 94.563467 
L 110.962701 95.156806 
L 110.979152 92.53586 
L 111.012054 96.683371 
L 111.061407 95.008105 
L 111.077858 96.744902 
L 111.143661 92.073642 
L 111.29172 99.212751 
L 111.390425 91.047386 
L 111.423327 93.70569 
L 111.48913 95.178781 
L 111.522032 94.192081 
L 111.538483 93.220031 
L 111.587836 96.573493 
L 111.620738 93.879296 
L 111.65364 93.641228 
L 111.752345 99.14536 
L 111.818149 98.60696 
L 111.8346 98.727093 
L 111.999109 104.659014 
L 111.867501 95.821931 
L 112.01556 104.450247 
L 112.229421 96.207967 
L 112.328127 103.982901 
L 112.37748 103.500905 
L 112.492636 99.93428 
L 112.509087 100.722469 
L 112.525538 101.011813 
L 112.640694 94.917273 
L 112.657145 96.750762 
L 112.690047 99.408333 
L 112.75585 96.715601 
L 112.805203 91.190959 
L 112.854556 96.603526 
L 112.887458 96.128855 
L 112.903909 96.726589 
L 112.986163 98.883851 
L 112.93681 96.563238 
L 113.002614 97.502325 
L 113.10132 92.563696 
L 113.134221 94.074146 
L 113.167123 95.572875 
L 113.216476 93.570174 
L 113.249378 92.522675 
L 113.265829 94.383268 
L 113.29873 93.840473 
L 113.348083 96.133251 
L 113.397436 95.998467 
L 113.413887 92.878678 
L 113.496141 96.716334 
L 113.512592 94.265333 
L 113.611298 100.194324 
L 113.545494 93.441984 
L 113.627749 97.50672 
L 113.759356 88.616163 
L 113.775807 89.254185 
L 113.792258 88.777316 
L 113.808709 89.306926 
L 113.874512 93.411951 
L 113.923865 92.540255 
L 113.956767 89.934693 
L 114.00612 93.374592 
L 114.039021 97.641503 
L 114.088374 92.210623 
L 114.137727 96.493649 
L 114.154178 95.829989 
L 114.18708 98.363032 
L 114.252883 101.233765 
L 114.285785 99.485248 
L 114.400941 93.185603 
L 114.433843 95.843174 
L 114.549 104.984984 
L 114.581901 103.479662 
L 114.697058 95.286461 
L 114.713509 96.662128 
L 114.72996 99.087491 
L 114.795763 96.309787 
L 114.812214 96.649675 
L 114.828665 96.774935 
L 114.878018 92.445761 
L 114.943821 94.824975 
L 114.960272 95.939866 
L 114.993174 91.564543 
L 115.009625 90.615934 
L 115.026076 94.522446 
L 115.042527 94.0258 
L 115.157683 98.142544 
L 115.174134 97.574111 
L 115.239938 94.463112 
L 115.27284 96.864302 
L 115.28929 98.361567 
L 115.322192 94.808128 
L 115.371545 97.792401 
L 115.601858 87.63752 
L 115.684112 83.423351 
L 115.700563 84.985809 
L 115.83217 91.64805 
L 115.897974 80.590708 
L 115.980229 82.30553 
L 116.029581 87.7159 
L 116.095385 85.048806 
L 116.111836 81.974433 
L 116.210541 83.365482 
L 116.226992 86.628112 
L 116.292796 81.998606 
L 116.309247 82.822687 
L 116.325698 81.111528 
L 116.391501 85.507361 
L 116.506658 83.066615 
L 116.440854 85.910978 
L 116.523109 83.098113 
L 116.572461 85.906583 
L 116.605363 84.940393 
L 116.638265 80.427357 
L 116.704069 85.412134 
L 116.72052 84.077488 
L 116.802774 81.674833 
L 116.852127 82.41614 
L 116.934381 86.249401 
L 116.90148 81.701204 
L 116.950832 82.158294 
L 116.967283 80.656635 
L 116.983734 83.763971 
L 117.000185 83.005084 
L 117.115341 88.691612 
L 117.164694 85.207762 
L 117.214047 87.039787 
L 117.296301 93.336501 
L 117.345654 90.748519 
L 117.477261 79.546872 
L 117.575967 79.526361 
L 117.608869 81.465333 
L 117.64177 77.452606 
L 117.707574 83.944903 
L 117.756927 87.250019 
L 117.839181 86.926246 
L 117.872083 87.515922 
L 117.888534 85.321302 
L 117.954338 88.094611 
L 117.970789 87.660961 
L 117.98724 88.312168 
L 118.00369 86.55193 
L 118.020141 87.370884 
L 118.151749 83.320066 
L 118.217552 86.839077 
L 118.266905 83.927323 
L 118.382061 80.573128 
L 118.398512 80.76578 
L 118.414963 82.984573 
L 118.480767 78.746231 
L 118.513669 82.185397 
L 118.53012 81.102738 
L 118.563021 84.015225 
L 118.579472 82.458626 
L 118.645276 88.95019 
L 118.71108 84.987274 
L 118.72753 84.993135 
L 118.743981 83.942705 
L 118.793334 87.211928 
L 118.809785 88.832255 
L 118.842687 85.045876 
L 118.875589 85.914641 
L 118.924941 86.335838 
L 118.990745 84.372693 
L 119.08945 87.968618 
L 119.105901 87.815522 
L 119.122352 86.716014 
L 119.171705 88.192036 
L 119.188156 87.750328 
L 119.221058 90.424014 
L 119.25396 87.517388 
L 119.303312 88.512878 
L 119.336214 86.466226 
L 119.352665 91.524255 
L 119.369116 91.787961 
L 119.402018 86.296282 
L 119.467821 91.631935 
L 119.517174 92.267759 
L 119.533625 91.472978 
L 119.582978 86.123408 
L 119.648781 87.033194 
L 119.665232 90.625456 
L 119.763938 89.224152 
L 119.829741 87.123293 
L 119.895545 91.22612 
L 120.010701 85.57695 
L 119.961349 91.451003 
L 120.027152 86.155639 
L 120.109407 92.477992 
L 120.142309 87.982536 
L 120.224563 84.478908 
L 120.191661 88.898182 
L 120.257465 86.332175 
L 120.372621 91.708116 
L 120.389072 87.195813 
L 120.471327 91.253956 
L 120.487778 91.003435 
L 120.619385 81.405267 
L 120.635836 82.366329 
L 120.652287 87.700517 
L 120.750992 86.77022 
L 120.767443 86.230355 
L 120.783894 87.366489 
L 120.8826 91.979148 
L 120.89905 89.834338 
L 120.997756 87.713702 
L 121.014207 89.442442 
L 121.030658 85.279549 
L 121.08001 87.334258 
L 121.112912 85.256108 
L 121.162265 87.054437 
L 121.195167 90.116357 
L 121.24452 85.448027 
L 121.277421 88.36784 
L 121.310323 86.698434 
L 121.326774 87.012683 
L 121.343225 85.030493 
L 121.409029 88.817605 
L 121.42548 87.693192 
L 121.458381 88.645463 
L 121.474832 84.242305 
L 121.557087 87.088865 
L 121.573538 88.80149 
L 121.589989 86.232553 
L 121.639341 86.247203 
L 121.688694 82.353144 
L 121.738047 84.089209 
L 121.869654 89.320111 
L 121.902556 86.575371 
L 121.951909 91.653178 
L 121.96836 91.232713 
L 121.98481 93.543804 
L 122.001261 94.105644 
L 122.067065 89.839466 
L 122.116418 91.746207 
L 122.132869 91.702256 
L 122.231574 87.397255 
L 122.198672 92.519745 
L 122.264476 88.304111 
L 122.34673 87.047112 
L 122.428985 93.738653 
L 122.51124 90.259198 
L 122.609945 91.645852 
L 122.807356 103.698684 
L 122.840258 99.105071 
L 122.88961 103.553646 
L 122.955414 106.943734 
L 122.988316 104.114754 
L 123.152825 94.657962 
L 123.169276 99.359987 
L 123.267981 96.576423 
L 123.300883 94.652102 
L 123.317334 98.420901 
L 123.366687 95.621954 
L 123.465392 98.27513 
L 123.43249 93.880029 
L 123.514745 97.947695 
L 123.580549 94.143735 
L 123.61345 95.391211 
L 123.679254 99.472795 
L 123.712156 96.744902 
L 123.728607 94.80593 
L 123.745058 96.844524 
L 123.79441 95.824861 
L 123.893116 101.330458 
L 123.909567 96.481929 
L 124.008272 98.341056 
L 124.057625 95.803618 
L 124.090527 97.82976 
L 124.15633 97.548473 
L 124.238585 106.535722 
L 124.304389 101.274054 
L 124.386643 102.549366 
L 124.403094 102.799886 
L 124.567603 116.048918 
L 124.616956 114.060135 
L 124.649858 116.98361 
L 124.68276 115.398443 
L 124.847269 126.405974 
L 124.86372 126.659425 
L 124.88017 125.657342 
L 124.913072 125.313059 
L 125.028229 120.530456 
L 125.04468 121.720796 
L 125.06113 122.302415 
L 125.077581 121.374316 
L 125.143385 116.084079 
L 125.176287 120.022822 
L 125.24209 121.524482 
L 125.291443 120.487238 
L 125.357247 123.609225 
L 125.390149 120.986082 
L 125.455952 119.002426 
L 125.488854 120.47625 
L 125.538207 126.530502 
L 125.60401 122.979993 
L 125.620461 120.304841 
L 125.653363 124.770264 
L 125.702716 122.495066 
L 125.735618 122.350761 
L 125.752069 123.93959 
L 125.78497 120.931876 
L 125.834323 123.880988 
L 126.13044 105.799543 
L 126.163341 108.662219 
L 126.229145 106.324025 
L 126.344301 103.506033 
L 126.393654 111.795193 
L 126.475909 107.321713 
L 126.49236 108.206593 
L 126.50881 106.151883 
L 126.558163 107.292412 
L 126.67332 104.389448 
L 126.591065 108.430011 
L 126.68977 104.778414 
L 126.706221 104.861921 
L 126.722672 104.639969 
L 126.772025 105.800275 
L 126.85428 99.231797 
L 126.87073 98.972486 
L 126.887181 99.169533 
L 126.952985 103.026234 
L 126.985887 100.063936 
L 127.018789 95.415384 
L 127.03524 100.289551 
L 127.101043 98.609157 
L 127.117494 98.888979 
L 127.133945 98.221656 
L 127.166847 93.808975 
L 127.23265 99.518943 
L 127.314905 105.688933 
L 127.39716 104.656816 
L 127.495865 105.034795 
L 127.545218 97.473024 
L 127.59457 102.251964 
L 127.676825 101.565595 
L 127.742629 102.445348 
L 127.808432 96.027768 
L 127.841334 98.548359 
L 127.874236 95.799955 
L 127.923589 88.660846 
L 128.005843 92.592264 
L 128.071647 95.363375 
L 128.186803 91.128696 
L 128.203254 95.059381 
L 128.30196 93.862448 
L 128.31841 91.953509 
L 128.384214 94.144467 
L 128.417116 93.098433 
L 128.48292 90.268721 
L 128.466469 93.858786 
L 128.532272 91.867073 
L 128.548723 92.554173 
L 128.565174 91.467118 
L 128.581625 88.470392 
L 128.630978 93.894679 
L 128.647429 92.810554 
L 128.68033 93.851461 
L 128.696781 90.530229 
L 128.729683 91.454666 
L 128.779036 87.054437 
L 128.84484 90.7661 
L 128.877741 93.760629 
L 128.927094 90.67307 
L 129.0258 87.534235 
L 129.058701 89.432919 
L 129.075152 89.484928 
L 129.091603 93.092573 
L 129.190309 93.088178 
L 129.256112 86.869843 
L 129.289014 88.575874 
L 129.40417 98.108116 
L 129.420621 97.09944 
L 129.437072 97.30308 
L 129.453523 96.147168 
L 129.618032 88.130504 
L 129.634483 90.089987 
L 129.700287 84.813668 
L 129.733189 88.93554 
L 129.74964 88.779514 
L 129.831894 94.71583 
L 129.881247 92.2011 
L 129.914149 92.726315 
L 129.94705 91.400459 
L 129.963501 92.178392 
L 130.029305 89.394096 
L 130.012854 92.767336 
L 130.062207 90.560995 
L 130.11156 97.420283 
L 130.177363 92.819344 
L 130.210265 90.864989 
L 130.243167 94.097586 
L 130.29252 97.597552 
L 130.358323 95.139225 
L 130.374774 91.059839 
L 130.424127 96.492184 
L 130.457029 95.281333 
L 130.47348 96.739775 
L 130.522832 92.916037 
L 130.539283 93.709352 
L 130.720243 88.172258 
L 130.637989 93.73499 
L 130.736694 89.220489 
L 130.753145 91.848027 
L 130.818949 87.310085 
L 130.85185 91.708849 
L 130.884752 89.57869 
L 130.934105 92.364451 
L 130.950556 92.991486 
L 130.967007 91.127231 
L 131.065712 86.436193 
L 131.01636 91.434155 
L 131.098614 88.449149 
L 131.115065 88.241114 
L 131.147967 90.402039 
L 131.230221 89.912718 
L 131.296025 89.120134 
L 131.279574 91.429027 
L 131.328927 89.564772 
L 131.345378 92.521943 
L 131.444083 92.384962 
L 131.460534 91.396797 
L 131.476985 94.71583 
L 131.509887 99.858831 
L 131.55924 95.901775 
L 131.592141 92.058259 
L 131.657945 96.156691 
L 131.838905 91.157264 
L 131.855356 91.834842 
L 131.970512 99.833193 
L 132.019865 99.470597 
L 132.052767 100.406754 
L 132.200825 91.270804 
L 132.315981 94.753921 
L 132.365334 90.927253 
L 132.381785 94.813255 
L 132.414687 94.48582 
L 132.447589 94.595698 
L 132.513392 90.069476 
L 132.529843 92.537325 
L 132.645 97.94037 
L 132.727254 94.49754 
L 132.694352 99.502095 
L 132.760156 97.262059 
L 132.776607 97.284767 
L 132.793058 97.170494 
L 132.809509 100.417009 
L 132.891763 96.584481 
L 132.924665 97.295022 
L 132.941116 97.062082 
L 133.00692 91.170449 
L 133.072723 92.217948 
L 133.089174 92.805427 
L 133.105625 91.826052 
L 133.122076 91.9623 
L 133.171429 88.637406 
L 133.253683 88.942133 
L 133.418192 98.426028 
L 133.434643 98.435551 
L 133.451094 97.08772 
L 133.483996 101.42422 
L 133.516898 100.734921 
L 133.533349 101.136341 
L 133.5498 100.124002 
L 133.56625 100.931968 
L 133.697858 96.829142 
L 133.714309 100.077854 
L 133.796563 99.403938 
L 133.862367 96.495114 
L 133.895269 99.697677 
L 133.91172 101.846882 
L 133.961072 96.53174 
L 133.977523 97.10237 
L 133.993974 94.004557 
L 134.026876 98.117639 
L 134.09268 96.040221 
L 134.142032 96.029966 
L 134.158483 98.302233 
L 134.191385 92.17473 
L 134.257189 98.058305 
L 134.29009 100.862379 
L 134.322992 97.433468 
L 134.355894 99.489643 
L 134.503952 93.631706 
L 134.619109 96.75589 
L 134.536854 93.529886 
L 134.63556 95.780177 
L 134.668461 89.288613 
L 134.767167 89.658534 
L 134.81652 92.96365 
L 134.849421 90.738264 
L 134.865872 88.698205 
L 134.882323 94.80886 
L 134.964578 89.633629 
L 134.981029 89.794782 
L 134.99748 89.350145 
L 135.079734 83.60941 
L 135.112636 87.354769 
L 135.17844 92.738768 
L 135.260694 90.948496 
L 135.293596 88.881334 
L 135.326498 93.686644 
L 135.342949 92.53879 
L 135.458105 94.503401 
L 135.392301 90.514114 
L 135.474556 93.69983 
L 135.622614 88.203023 
L 135.507458 94.871124 
L 135.671967 88.668904 
L 135.787123 83.531031 
L 135.72132 89.241 
L 135.869378 84.413714 
L 136.017436 92.440633 
L 136.066789 88.838115 
L 136.132592 89.647546 
L 136.165494 88.946528 
L 136.181945 90.566855 
L 136.247749 92.680899 
L 136.214847 89.383108 
L 136.2642 90.892093 
L 136.297101 87.811127 
L 136.346454 89.072521 
L 136.412258 96.876755 
L 136.46161 92.524873 
L 136.494512 93.162162 
L 136.543865 88.934808 
L 136.609669 90.210852 
L 136.774178 96.897266 
L 136.790629 95.79263 
L 137.00449 88.943598 
L 137.020941 89.117204 
L 137.070294 92.232598 
L 137.086745 89.950808 
L 137.103196 85.680968 
L 137.169 90.817376 
L 137.18545 90.155913 
L 137.218352 90.663547 
L 137.234803 90.005015 
L 137.251254 90.086324 
L 137.317058 81.614767 
L 137.36641 82.384642 
L 137.448665 90.862059 
L 137.481567 85.135975 
L 137.596723 88.452079 
L 137.613174 87.368687 
L 137.629625 87.080807 
L 137.678978 91.275931 
L 137.744781 89.370655 
L 137.794134 91.073757 
L 137.90929 85.390159 
L 137.925741 85.410669 
L 138.024447 91.270804 
L 138.0738 91.108185 
L 138.09025 92.482387 
L 138.156054 89.038092 
L 138.188956 85.557172 
L 138.27121 86.049424 
L 138.304112 87.107911 
L 138.386367 82.408815 
L 138.402818 87.403847 
L 138.419269 84.289186 
L 138.43572 87.347444 
L 138.517974 82.263777 
L 138.534425 82.415408 
L 138.666032 87.522515 
L 138.79764 83.024862 
L 138.748287 88.528993 
L 138.81409 83.933915 
L 138.896345 90.856199 
L 138.929247 86.498457 
L 138.945698 86.453773 
L 138.9786 85.409204 
L 139.027952 86.09484 
L 139.15956 93.675657 
L 139.17601 92.916769 
L 139.225363 86.350488 
L 139.291167 91.960102 
L 139.422774 93.866111 
L 139.35697 91.223923 
L 139.439225 93.255924 
L 139.570832 85.826739 
L 139.587283 86.732862 
L 139.603734 86.740187 
L 139.71889 88.966306 
L 139.653087 86.268446 
L 139.735341 87.980338 
L 139.850498 84.952114 
L 139.998556 92.080235 
L 140.031458 89.342087 
L 140.097261 92.50949 
L 140.113712 92.097815 
L 140.130163 88.797094 
L 140.212418 91.656108 
L 140.228869 93.124071 
L 140.294672 89.931031 
L 140.311123 89.219024 
L 140.344025 92.444296 
L 140.393378 90.257733 
L 140.409829 91.672956 
L 140.475632 88.15248 
L 140.541436 83.671674 
L 140.590789 85.55058 
L 140.722396 94.256542 
L 140.738847 93.149709 
L 140.870454 86.317525 
L 140.771749 94.072681 
L 140.903356 88.134167 
L 140.96916 94.277785 
L 141.018512 93.540141 
L 141.117218 88.767794 
L 141.133669 91.571136 
L 141.215923 94.105644 
L 141.199472 88.905507 
L 141.232374 93.395835 
L 141.33108 94.1452 
L 141.380432 87.658763 
L 141.396883 87.452194 
L 141.446236 85.424587 
L 141.495589 86.886691 
L 141.610745 92.389357 
L 141.676549 87.708574 
L 141.643647 92.603252 
L 141.725901 90.912603 
L 141.808156 94.487285 
L 141.857509 92.304385 
L 141.87396 90.259198 
L 141.939763 95.153143 
L 141.972665 91.842899 
L 142.07137 92.548313 
L 142.087821 93.335036 
L 142.137174 90.523637 
L 142.153625 93.082318 
L 142.25233 90.592493 
L 142.268781 91.750602 
L 142.285232 91.716907 
L 142.301683 89.419734 
L 142.367487 94.135677 
L 142.400389 93.505713 
L 142.41684 95.109925 
L 142.43329 93.208311 
L 142.449741 97.130938 
L 142.515545 95.397071 
L 142.581349 90.584436 
L 142.647152 93.025914 
L 142.696505 95.864417 
L 142.729407 90.196202 
L 142.745858 92.573951 
L 142.79521 87.045647 
L 142.893916 89.427059 
L 142.95972 92.388624 
L 142.992621 89.996957 
L 143.058425 88.643266 
L 143.041974 90.920661 
L 143.091327 89.271033 
L 143.305189 99.867621 
L 143.370992 96.093695 
L 143.420345 96.150098 
L 143.436796 96.599131 
L 143.453247 95.02422 
L 143.535501 92.682364 
L 143.551952 95.063776 
L 143.601305 98.347649 
L 143.634207 92.669178 
L 143.650658 94.331259 
L 143.749363 90.00062 
L 143.765814 94.350305 
L 143.86452 93.565047 
L 143.930323 91.678816 
L 143.897421 93.767221 
L 143.946774 92.168137 
L 144.06193 99.211286 
L 144.078381 98.776904 
L 144.111283 99.388555 
L 144.209989 96.216025 
L 144.22644 98.40625 
L 144.275792 94.343712 
L 144.308694 96.262906 
L 144.42385 92.173265 
L 144.440301 93.785534 
L 144.456752 93.827288 
L 144.539007 87.734945 
L 144.58836 88.92968 
L 144.76932 99.570952 
L 144.851574 92.825205 
L 144.802221 100.202382 
L 144.933829 95.988945 
L 144.95028 96.11567 
L 144.96673 95.449812 
L 144.983181 94.500471 
L 145.032534 97.453246 
L 145.098338 103.180795 
L 145.180592 109.090008 
L 145.246396 107.528282 
L 145.3122 106.182649 
L 145.32865 108.29889 
L 145.345101 109.912625 
L 145.378003 104.850933 
L 145.394454 105.601763 
L 145.410905 105.286048 
L 145.526061 109.826188 
L 145.591865 106.921759 
L 145.624767 107.381779 
L 145.657669 110.536729 
L 145.707021 105.57466 
L 145.723472 106.841182 
L 145.739923 102.900241 
L 145.822178 104.294953 
L 145.920883 108.823372 
L 145.937334 107.43452 
L 145.986687 100.653612 
L 146.068941 102.5186 
L 146.151196 99.305781 
L 146.118294 102.562551 
L 146.184098 100.821358 
L 146.200549 101.446928 
L 146.217 99.083096 
L 146.299254 93.970128 
L 146.332156 97.076732 
L 146.365058 93.628043 
L 146.447312 94.826441 
L 146.463763 97.31187 
L 146.513116 90.725079 
L 146.546018 93.699097 
L 146.661174 92.278747 
L 146.628272 93.902737 
L 146.677625 92.794439 
L 146.694076 94.973676 
L 146.726978 91.212202 
L 146.75988 91.85169 
L 146.77633 91.091337 
L 146.792781 91.452468 
L 146.842134 99.072841 
L 146.924389 98.130091 
L 147.072447 90.754379 
L 147.088898 91.241503 
L 147.105349 88.674032 
L 147.269858 84.958706 
L 147.385014 87.349641 
L 147.467269 82.563376 
L 147.516621 84.008632 
L 147.533072 84.055513 
L 147.565974 82.675451 
L 147.598876 85.21289 
L 147.730483 98.749068 
L 147.84564 89.517891 
L 147.86209 92.434041 
L 147.993698 88.327551 
L 148.075952 89.679045 
L 148.059501 88.070438 
L 148.108854 89.000734 
L 148.158207 87.833835 
L 148.20756 89.05494 
L 148.22401 92.340278 
L 148.306265 86.658145 
L 148.470774 95.402199 
L 148.520127 94.558339 
L 148.503676 95.869545 
L 148.56948 94.731213 
L 148.58593 95.824861 
L 148.602381 91.108185 
L 148.651734 93.762094 
L 148.717538 95.14069 
L 148.783341 90.439397 
L 148.832694 97.094313 
L 148.898498 94.211126 
L 148.914949 93.367267 
L 148.980752 95.25423 
L 148.997203 98.428958 
L 149.063007 92.746825 
L 149.079458 94.299028 
L 149.095909 93.682982 
L 149.12881 96.593271 
L 149.145261 95.803618 
L 149.161712 96.780063 
L 149.211065 94.114434 
L 149.227516 94.768572 
L 149.243967 94.883577 
L 149.29332 90.503126 
L 149.359123 93.559186 
L 149.47428 97.163902 
L 149.49073 96.256313 
L 149.507181 96.425525 
L 149.638789 102.599177 
L 149.65524 101.476961 
L 149.819749 96.327368 
L 149.688141 102.449743 
L 149.8362 97.865653 
L 149.902003 97.345566 
L 149.918454 100.036833 
L 150.01716 93.554059 
L 150.050061 94.687995 
L 150.181669 100.000939 
L 150.19812 96.276091 
L 150.247472 103.703812 
L 150.280374 101.851277 
L 150.296825 102.95811 
L 150.313276 100.600871 
L 150.37908 94.723888 
L 150.428432 98.373287 
L 150.444883 98.26927 
L 150.461334 99.901317 
L 150.527138 96.475336 
L 150.625843 90.062151 
L 150.658745 92.85597 
L 150.724549 91.459793 
L 150.708098 93.189998 
L 150.75745 92.530733 
L 150.806803 97.369739 
L 150.889058 96.357401 
L 150.971312 93.445646 
L 151.037116 95.432232 
L 151.070018 96.734647 
L 151.168723 98.319813 
L 151.11937 93.146047 
L 151.185174 97.367541 
L 151.218076 98.240702 
L 151.267429 95.022755 
L 151.366134 90.522172 
L 151.382585 93.318188 
L 151.399036 91.329405 
L 151.415487 93.983314 
L 151.448389 93.881494 
L 151.497741 100.955409 
L 151.563545 95.941331 
L 151.579996 97.596087 
L 151.612898 93.625845 
L 151.66225 95.246173 
L 151.678701 94.889437 
L 151.695152 96.486324 
L 151.728054 95.241045 
L 151.84321 100.951746 
L 151.876112 100.484401 
L 151.909014 99.46254 
L 152.073523 104.016597 
L 152.20513 97.088453 
L 152.221581 96.308322 
L 152.238032 98.812065 
L 152.254483 101.049904 
L 152.320287 97.798994 
L 152.336738 99.084561 
L 152.353189 96.939019 
L 152.418992 101.791943 
L 152.484796 103.235001 
L 152.451894 99.264028 
L 152.501247 100.944421 
L 152.517698 100.529817 
L 152.534149 102.043196 
L 152.5506 102.036604 
L 152.56705 103.521415 
L 152.616403 98.599635 
L 152.649305 97.354356 
L 152.665756 99.151952 
L 152.682207 99.070643 
L 152.698658 99.747489 
L 152.73156 98.30443 
L 152.846716 92.899189 
L 153.011225 101.805861 
L 153.044127 100.219229 
L 153.09348 96.509032 
L 153.126381 101.134876 
L 153.159283 97.293557 
L 153.323792 92.272154 
L 153.406047 95.268148 
L 153.422498 93.715945 
L 153.438949 92.553441 
L 153.4554 95.360445 
L 153.488301 93.192928 
L 153.619909 96.931694 
L 153.63636 94.985397 
L 153.669261 97.964543 
L 153.735065 95.917891 
L 153.767967 102.424838 
L 153.866672 98.987136 
L 154.064083 93.007601 
L 154.096985 96.080509 
L 154.146338 93.156302 
L 154.212141 90.400574 
L 154.261494 91.346986 
L 154.327298 96.563238 
L 154.409552 94.629394 
L 154.508258 90.64963 
L 154.54116 90.776355 
L 154.590512 96.289277 
L 154.672767 93.851461 
L 154.804374 90.922858 
L 154.820825 91.393134 
L 154.952432 101.789746 
L 154.985334 99.113862 
L 155.034687 98.127894 
L 155.051138 99.296991 
L 155.08404 98.876526 
L 155.10049 99.747489 
L 155.149843 96.870895 
L 155.166294 98.825982 
L 155.232098 89.960331 
L 155.297901 94.463112 
L 155.330803 96.711206 
L 155.380156 91.459061 
L 155.396607 95.057183 
L 155.46241 89.1509 
L 155.528214 91.31329 
L 155.64337 95.249835 
L 155.676272 92.52707 
L 155.758527 93.033972 
L 155.791429 95.131168 
L 155.82433 92.601054 
L 155.873683 89.379445 
L 155.906585 94.757584 
L 155.955938 89.479068 
L 155.972389 89.342819 
L 155.98884 90.03871 
L 156.087545 99.757744 
L 156.153349 94.184023 
L 156.202701 90.902348 
L 156.284956 93.054482 
L 156.383661 97.961613 
L 156.317858 91.889048 
L 156.400112 96.23507 
L 156.482367 99.196636 
L 156.54817 91.405587 
L 156.564621 90.922858 
L 156.581072 91.943987 
L 156.597523 94.087331 
L 156.646876 89.419734 
L 156.679778 91.865607 
L 156.696229 92.106606 
L 156.778483 96.132518 
L 156.811385 94.147397 
L 156.89364 90.070941 
L 156.926541 90.924323 
L 157.0746 98.686804 
L 156.959443 89.611653 
L 157.09105 97.775553 
L 157.123952 95.051323 
L 157.206207 97.250339 
L 157.288461 91.140416 
L 157.321363 96.818886 
L 157.354265 98.160125 
L 157.370716 96.134716 
L 157.387167 96.561773 
L 157.403618 93.509375 
L 157.485872 97.064279 
L 157.502323 95.528192 
L 157.63393 91.034201 
L 157.81489 98.936593 
L 157.946498 90.729474 
L 157.962949 91.407052 
L 158.094556 98.327138 
L 158.127458 95.011035 
L 158.308418 86.710154 
L 158.324869 86.74092 
L 158.390672 91.784298 
L 158.456476 90.359553 
L 158.620985 81.95026 
L 158.686789 84.672292 
L 158.653887 81.200162 
L 158.70324 83.201398 
L 158.71969 78.133114 
L 158.785494 85.037818 
L 158.801945 82.428593 
L 158.818396 82.328971 
L 158.867749 81.909971 
L 158.999356 91.853887 
L 159.08161 96.763948 
L 159.114512 94.04338 
L 159.130963 91.233445 
L 159.196767 98.50514 
L 159.213218 99.272085 
L 159.26257 97.232026 
L 159.377727 93.250797 
L 159.311923 97.722812 
L 159.410629 93.444914 
L 159.44353 93.002474 
L 159.476432 94.516586 
L 159.525785 88.107796 
L 159.60804 89.199979 
L 159.723196 94.254345 
L 159.756098 92.444296 
L 159.789 93.120409 
L 159.854803 91.577728 
L 159.953509 94.005289 
L 159.904156 91.135288 
L 159.96996 91.909558 
L 160.002861 93.384115 
L 160.052214 91.77038 
L 160.068665 93.337234 
L 160.134469 95.405861 
L 160.16737 90.765367 
L 160.216723 95.651987 
L 160.282527 92.260434 
L 160.364781 94.798605 
L 160.397683 92.85304 
L 160.463487 90.232095 
L 160.51284 91.197552 
L 160.52929 91.355776 
L 160.71025 99.80902 
L 160.841858 93.479342 
L 160.759603 101.527505 
L 160.858309 95.80142 
L 160.907661 100.067598 
L 160.989916 97.755043 
L 161.006367 95.271078 
L 161.039269 103.226211 
L 161.088621 98.50221 
L 161.187327 95.878335 
L 161.220229 96.687766 
L 161.23668 96.362528 
L 161.269581 97.777018 
L 161.351836 101.030858 
L 161.368287 97.593889 
L 161.384738 98.023144 
L 161.401189 98.495617 
L 161.43409 94.04338 
L 161.483443 100.973722 
L 161.499894 98.871399 
L 161.516345 101.295297 
L 161.582149 97.76017 
L 161.61505 95.212477 
L 161.680854 98.1821 
L 161.713756 95.505484 
L 161.730207 95.89738 
L 161.763109 94.077076 
L 161.77956 95.799955 
L 161.861814 94.147397 
L 161.828912 97.52723 
L 161.878265 96.250453 
L 161.927618 99.726246 
L 161.97697 97.400505 
L 162.026323 93.913725 
L 162.075676 96.077579 
L 162.108578 98.582054 
L 162.14148 94.48289 
L 162.174381 90.986587 
L 162.207283 94.737806 
L 162.223734 94.481425 
L 162.273087 98.17331 
L 162.33889 95.145085 
L 162.355341 92.474329 
L 162.437596 96.097357 
L 162.470498 97.127276 
L 162.536301 94.781757 
L 162.602105 99.747489 
L 162.651458 96.509032 
L 162.667909 94.524644 
L 162.750163 97.286965 
L 162.832418 100.181139 
L 162.848869 100.052948 
L 162.898221 93.172418 
L 162.964025 97.266454 
L 163.029829 100.189196 
L 163.06273 97.007143 
L 163.095632 96.09809 
L 163.112083 97.892756 
L 163.128534 99.918898 
L 163.177887 92.771731 
L 163.22724 93.83388 
L 163.210789 91.638527 
L 163.260141 93.670529 
L 163.342396 89.129657 
L 163.309494 93.909329 
L 163.375298 91.117708 
L 163.4082 95.566283 
L 163.441101 90.900883 
L 163.572709 87.178232 
L 163.704316 91.09793 
L 163.753669 85.765207 
L 163.819472 88.554631 
L 163.868825 95.722309 
L 163.983981 94.819115 
L 164.033334 90.383726 
L 164.115589 92.692619 
L 164.14849 96.900196 
L 164.181392 91.246631 
L 164.214294 92.613507 
L 164.230745 92.40474 
L 164.345901 82.925972 
L 164.362352 85.352068 
L 164.395254 84.014492 
L 164.477509 89.487125 
L 164.49396 87.439008 
L 164.526861 96.306857 
L 164.559763 95.56848 
L 164.576214 93.113816 
L 164.625567 96.152296 
L 164.67492 94.542224 
L 164.757174 100.819161 
L 164.806527 99.114594 
L 164.888781 93.850728 
L 164.921683 95.933273 
L 164.938134 98.237771 
L 165.003938 93.694702 
L 165.069741 96.478266 
L 165.135545 88.777316 
L 165.267152 93.575302 
L 165.382309 97.911069 
L 165.349407 93.096968 
L 165.39876 96.900196 
L 165.41521 96.856245 
L 165.464563 101.091657 
L 165.513916 97.796796 
L 165.546818 92.645005 
L 165.629072 95.02129 
L 165.645523 95.67323 
L 165.661974 94.200139 
L 165.711327 94.723888 
L 165.810032 91.226853 
L 165.925189 98.463387 
L 165.94164 98.110314 
L 165.95809 97.864188 
L 165.990992 98.912419 
L 166.023894 98.182833 
L 166.13905 93.694702 
L 166.188403 94.022137 
L 166.287109 98.066362 
L 166.30356 97.178552 
L 166.352912 95.043266 
L 166.385814 97.887628 
L 166.451618 105.482363 
L 166.50097 100.097632 
L 166.616127 94.926795 
L 166.649029 98.954905 
L 166.714832 96.842327 
L 166.731283 95.261556 
L 166.764185 100.25732 
L 166.780636 99.529931 
L 166.797087 100.651414 
L 166.829989 96.326635 
L 166.84644 92.029691 
L 166.86289 97.337508 
L 166.928694 95.784573 
L 166.961596 93.936433 
L 167.010949 96.164749 
L 167.0274 96.504637 
L 167.04385 94.679937 
L 167.060301 94.209661 
L 167.093203 95.594118 
L 167.22481 98.378415 
L 167.126105 94.981002 
L 167.241261 98.105918 
L 167.323516 93.003206 
L 167.356418 97.373402 
L 167.422221 91.635597 
L 167.488025 95.843906 
L 167.504476 96.804236 
L 167.520927 96.009455 
L 167.553829 91.260549 
L 167.603181 100.79572 
L 167.619632 101.222045 
L 167.668985 98.280257 
L 167.701887 101.482089 
L 167.734789 99.047935 
L 167.76769 97.809249 
L 167.784141 100.528352 
L 167.849945 98.899967 
L 167.9322 107.883553 
L 167.94865 107.570768 
L 167.965101 108.909077 
L 167.998003 113.888726 
L 168.047356 107.498982 
L 168.096709 106.153348 
L 168.12961 107.546595 
L 168.146061 107.480669 
L 168.211865 111.621587 
L 168.261218 109.315624 
L 168.343472 105.762917 
L 168.359923 110.079639 
L 168.392825 113.805952 
L 168.47508 110.519881 
L 168.49153 111.245073 
L 168.507981 108.970608 
L 168.524432 107.554653 
L 168.557334 111.812773 
L 168.573785 109.938263 
L 168.590236 111.733662 
L 168.639589 107.292412 
L 168.721843 104.133799 
L 168.754745 104.876572 
L 168.787647 102.0703 
L 168.869901 106.302782 
L 168.952156 103.209363 
L 168.968607 104.982786 
L 169.100214 112.633925 
L 169.281174 101.587571 
L 169.182469 113.155477 
L 169.330527 105.185694 
L 169.363429 107.538538 
L 169.37988 102.487102 
L 169.39633 103.069452 
L 169.527938 100.310062 
L 169.544389 99.887399 
L 169.56084 102.193362 
L 169.57729 101.726749 
L 169.593741 105.24283 
L 169.675996 99.284538 
L 169.708898 104.568182 
L 169.75825 99.513083 
L 169.791152 95.164863 
L 169.856956 99.032552 
L 169.873407 99.200299 
L 169.955661 104.411423 
L 169.988563 103.646676 
L 170.054367 99.615636 
L 170.10372 101.515052 
L 170.185974 109.205014 
L 170.235327 104.720545 
L 170.251778 102.178712 
L 170.317581 107.131258 
L 170.334032 104.839946 
L 170.350483 104.359415 
L 170.366934 106.066911 
L 170.48209 109.007966 
L 170.498541 108.736203 
L 170.514992 107.140781 
L 170.547894 109.355179 
L 170.679501 116.813666 
L 170.778207 109.973424 
L 170.811109 112.576056 
L 170.84401 116.370493 
L 170.893363 111.075129 
L 170.959167 111.130068 
L 171.057872 106.469796 
L 171.074323 108.984526 
L 171.140127 103.94481 
L 171.156578 105.970952 
L 171.337538 98.072223 
L 171.18948 107.857183 
L 171.403341 98.92121 
L 171.419792 98.916815 
L 171.436243 98.681677 
L 171.452694 100.032438 
L 171.485596 101.839557 
L 171.502047 99.655924 
L 171.518498 98.061235 
L 171.584301 102.275404 
L 171.600752 102.30324 
L 171.617203 103.206433 
L 171.633654 99.827333 
L 171.699458 103.046012 
L 171.798163 99.999474 
L 171.847516 105.859609 
L 171.91332 101.686461 
L 171.962672 105.03626 
L 171.995574 103.227676 
L 172.012025 100.611126 
L 172.11073 101.033056 
L 172.143632 102.625547 
L 172.160083 104.69271 
L 172.209436 100.052216 
L 172.258789 95.358248 
L 172.341043 98.107383 
L 172.357494 98.08321 
L 172.423298 100.573035 
L 172.439749 99.233262 
L 172.4562 96.247523 
L 172.505552 101.32533 
L 172.522003 100.102759 
L 172.63716 106.058854 
L 172.65361 105.843494 
L 172.670061 106.813346 
L 172.719414 104.093511 
L 172.933276 96.795446 
L 173.048432 103.521415 
L 173.081334 98.653108 
L 173.147138 103.481127 
L 173.163589 104.116952 
L 173.19649 101.906948 
L 173.229392 101.282844 
L 173.262294 103.500905 
L 173.311647 106.379696 
L 173.361 103.160285 
L 173.393901 105.609088 
L 173.410352 106.691016 
L 173.459705 103.599795 
L 173.492607 102.974225 
L 173.509058 103.095823 
L 173.54196 101.268926 
L 173.607763 103.586609 
L 173.640665 103.152959 
L 173.673567 104.436329 
L 173.706469 101.156119 
L 173.73937 100.154035 
L 173.838076 97.412225 
L 173.821625 100.179674 
L 173.854527 97.707429 
L 173.936781 101.077739 
L 173.887429 97.659816 
L 173.969683 100.311527 
L 174.035487 96.928764 
L 174.08484 98.727093 
L 174.117741 101.056496 
L 174.150643 98.363032 
L 174.167094 95.769922 
L 174.199996 98.8106 
L 174.2658 97.059884 
L 174.348054 99.781184 
L 174.364505 99.173195 
L 174.380956 96.520019 
L 174.430309 103.396155 
L 174.46321 100.828683 
L 174.479661 100.050018 
L 174.545465 101.613942 
L 174.611269 100.762024 
L 174.693523 103.893534 
L 174.742876 102.167724 
L 174.759327 104.877304 
L 174.792229 106.033216 
L 174.82513 103.432048 
L 174.841581 105.256015 
L 174.973189 98.149137 
L 174.98964 98.324208 
L 175.154149 90.589563 
L 175.1706 90.628387 
L 175.18705 89.883417 
L 175.219952 92.440633 
L 175.269305 91.152136 
L 175.285756 90.784413 
L 175.302207 91.935197 
L 175.318658 93.024449 
L 175.35156 89.638756 
L 175.36801 91.011493 
L 175.483167 88.081425 
L 175.400912 91.01369 
L 175.499618 89.002932 
L 175.516069 89.163353 
L 175.53252 85.916106 
L 175.631225 87.625068 
L 175.697029 86.181277 
L 175.71348 88.409593 
L 175.72993 88.393478 
L 175.861538 92.772463 
L 175.762832 87.5357 
L 175.877989 92.037016 
L 175.91089 93.942293 
L 175.976694 96.361796 
L 176.026047 94.937051 
L 176.190556 99.012774 
L 176.371516 90.394714 
L 176.387967 90.567588 
L 176.486672 95.186839 
L 176.503123 94.132747 
L 176.536025 91.32794 
L 176.585378 94.275588 
L 176.61828 98.613553 
L 176.700534 96.180864 
L 176.716985 96.736112 
L 176.733436 94.008219 
L 176.782789 91.766718 
L 176.848592 93.557721 
L 176.963749 88.71432 
L 176.99665 89.569167 
L 177.062454 92.19231 
L 177.029552 89.282021 
L 177.095356 90.570518 
L 177.210512 85.886073 
L 177.276316 89.243197 
L 177.259865 84.930871 
L 177.309218 84.979217 
L 177.34212 82.005198 
L 177.457276 82.728925 
L 177.53953 85.980567 
L 177.588883 85.378438 
L 177.605334 84.5756 
L 177.621785 89.514961 
L 177.70404 86.248668 
L 177.835647 79.477283 
L 177.934352 84.58146 
L 177.950803 83.972006 
L 178.033058 80.225915 
L 177.983705 85.316907 
L 178.08241 80.78629 
L 178.115312 82.38977 
L 178.131763 80.841229 
L 178.164665 78.346277 
L 178.197567 81.230196 
L 178.24692 79.580568 
L 178.26337 79.557127 
L 178.345625 80.508666 
L 178.378527 75.512169 
L 178.477232 82.252057 
L 178.493683 80.987732 
L 178.510134 79.867714 
L 178.543036 84.507476 
L 178.575938 82.483532 
L 178.707545 88.242579 
L 178.756898 81.362049 
L 178.822701 86.820764 
L 178.904956 93.116014 
L 178.954309 89.974982 
L 178.98721 88.972898 
L 179.003661 90.630584 
L 179.036563 94.742934 
L 179.102367 91.817994 
L 179.15172 92.727047 
L 179.266876 84.344125 
L 179.398483 91.853155 
L 179.53009 85.693421 
L 179.595894 86.351221 
L 179.628796 85.129383 
L 179.6946 88.640336 
L 179.727501 85.021703 
L 179.793305 89.052743 
L 179.87556 90.020398 
L 179.990716 96.667255 
L 180.05652 89.295206 
L 180.105872 91.975485 
L 180.138774 91.080349 
L 180.23748 95.494496 
L 180.270381 92.355661 
L 180.336185 94.405976 
L 180.43489 97.664211 
L 180.451341 96.197712 
L 180.467792 95.994072 
L 180.517145 96.848187 
L 180.582949 92.788579 
L 180.731007 99.061853 
L 180.846163 90.571983 
L 180.928418 92.369579 
L 180.944869 96.7764 
L 181.027123 92.907246 
L 181.092927 88.315831 
L 181.14228 91.781368 
L 181.15873 91.864875 
L 181.257436 87.411173 
L 181.273887 90.599818 
L 181.306789 88.514343 
L 181.32324 91.070094 
L 181.33969 90.974867 
L 181.372592 94.720958 
L 181.471298 94.060228 
L 181.52065 90.927986 
L 181.570003 94.585442 
L 181.586454 94.03459 
L 181.602905 95.476915 
L 181.619356 96.809364 
L 181.668709 92.825937 
L 181.68516 94.997849 
L 181.70161 93.461762 
L 181.750963 97.63491 
L 181.767414 95.818268 
L 181.783865 96.250453 
L 181.816767 95.02715 
L 181.833218 95.591188 
L 181.86612 93.831683 
L 181.88257 96.114205 
L 181.948374 94.525376 
L 181.981276 99.502095 
L 182.06353 99.47719 
L 182.162236 99.491108 
L 182.195138 96.326635 
L 182.22804 92.599589 
L 182.277392 96.766145 
L 182.293843 98.385007 
L 182.359647 95.668102 
L 182.376098 96.060731 
L 182.42545 97.982856 
L 182.458352 96.268034 
L 182.474803 94.976606 
L 182.491254 99.061853 
L 182.507705 98.509535 
L 182.524156 99.952593 
L 182.622861 99.781184 
L 182.77092 93.666866 
L 182.836723 100.736386 
L 182.886076 99.057458 
L 182.902527 96.353738 
L 182.95188 102.865813 
L 182.984781 100.26318 
L 183.017683 101.488681 
L 183.034134 101.10118 
L 183.083487 102.277602 
L 183.13284 98.262677 
L 183.14929 102.10546 
L 183.247996 100.90633 
L 183.297349 103.323636 
L 183.280898 100.871902 
L 183.3138 101.323132 
L 183.461858 95.396339 
L 183.478309 96.710474 
L 183.49476 96.126658 
L 183.577014 102.312763 
L 183.626367 101.315075 
L 183.642818 101.527505 
L 183.741523 95.964772 
L 183.774425 96.387434 
L 183.889581 94.044113 
L 183.823778 97.280372 
L 183.906032 94.608883 
L 184.03764 98.843563 
L 184.05409 98.331534 
L 184.185698 90.933846 
L 184.2186 91.527185 
L 184.333756 95.66737 
L 184.350207 93.389975 
L 184.383109 96.638687 
L 184.432461 95.46666 
L 184.448912 96.233605 
L 184.481814 92.917502 
L 184.514716 91.626074 
L 184.547618 93.474947 
L 184.646323 96.761017 
L 184.613421 93.231019 
L 184.679225 96.594736 
L 184.728578 98.069293 
L 184.810832 92.3205 
L 184.893087 90.883302 
L 184.925989 94.897495 
L 184.95889 89.005129 
L 185.057596 91.050316 
L 185.13985 87.100585 
L 185.172752 89.273963 
L 185.337261 95.790433 
L 185.205654 88.400803 
L 185.386614 95.602908 
L 185.403065 95.194896 
L 185.419516 96.182329 
L 185.50177 95.511344 
L 185.518221 97.5243 
L 185.534672 95.156073 
L 185.633378 95.660045 
L 185.68273 97.372669 
L 185.732083 95.187571 
L 185.797887 96.122263 
L 185.764985 93.654414 
L 185.814338 95.384618 
L 185.880141 93.646356 
L 185.929494 94.921668 
L 185.978847 91.467118 
L 186.077552 91.491291 
L 186.274963 103.133181 
L 186.324316 102.072497 
L 186.423021 99.642006 
L 186.439472 101.125353 
L 186.505276 102.903904 
L 186.538178 101.693053 
L 186.620432 96.805701 
L 186.653334 99.371708 
L 186.702687 100.33863 
L 186.735589 102.084217 
L 186.76849 99.936478 
L 186.784941 101.573653 
L 186.916549 96.96246 
L 186.933 97.114823 
L 186.998803 102.42557 
L 187.031705 97.932312 
L 187.048156 95.100402 
L 187.13041 99.256702 
L 187.245567 96.646745 
L 187.179763 99.81781 
L 187.262018 97.694244 
L 187.31137 101.63958 
L 187.377174 101.115098 
L 187.410076 96.416002 
L 187.49233 98.372555 
L 187.508781 102.484904 
L 187.607487 100.98471 
L 187.722643 94.759781 
L 187.755545 96.631362 
L 187.771996 96.583016 
L 187.85425 101.605884 
L 187.887152 99.963581 
L 187.903603 100.211172 
L 188.01876 85.679503 
L 188.051661 91.182169 
L 188.19972 86.384184 
L 188.084563 91.791623 
L 188.21617 88.162002 
L 188.364229 98.285385 
L 188.38068 98.246562 
L 188.528738 95.101134 
L 188.545189 95.161933 
L 188.610992 98.554219 
L 188.676796 97.928649 
L 188.824854 92.633285 
L 188.890658 98.111779 
L 188.94001 96.588876 
L 189.071618 90.852537 
L 189.12097 91.858282 
L 189.153872 88.857893 
L 189.252578 95.542109 
L 189.269029 93.754036 
L 189.28548 91.451003 
L 189.318381 93.814835 
L 189.367734 93.414881 
L 189.48289 97.822434 
L 189.499341 94.454322 
L 189.548694 99.444227 
L 189.581596 97.41076 
L 189.696752 99.877877 
L 189.6474 95.447615 
L 189.713203 98.969556 
L 189.84481 95.520866 
L 189.894163 99.284538 
L 189.959967 96.380841 
L 189.976418 94.698983 
L 190.02577 98.231911 
L 190.058672 97.613667 
L 190.108025 94.779559 
L 190.124476 98.218726 
L 190.140927 98.098593 
L 190.173829 101.496006 
L 190.272534 100.946619 
L 190.37124 97.292092 
L 190.305436 101.906948 
L 190.404141 97.412225 
L 190.420592 97.423213 
L 190.437043 96.621107 
L 190.469945 100.351815 
L 190.486396 100.479273 
L 190.502847 100.038298 
L 190.5522 106.103537 
L 190.618003 102.078357 
L 190.634454 103.528741 
L 190.667356 98.294908 
L 190.716709 102.675358 
L 190.782512 97.342636 
L 190.848316 97.498662 
L 190.91412 102.690009 
L 190.979923 101.293832 
L 191.045727 94.37228 
L 191.127981 96.448965 
L 191.259589 105.7783 
L 191.27604 102.94639 
L 191.325392 95.913496 
L 191.374745 101.927459 
L 191.391196 102.809409 
L 191.407647 99.532129 
L 191.424098 99.840518 
L 191.440549 99.023762 
L 191.47345 102.495892 
L 191.489901 101.578048 
L 191.506352 101.468903 
L 191.588607 93.420008 
L 191.63796 96.544925 
L 191.687312 95.232987 
L 191.753116 86.914526 
L 191.851821 88.335609 
L 191.950527 92.440633 
L 191.966978 91.388006 
L 192.049232 87.477099 
L 192.098585 90.389586 
L 192.19729 93.956211 
L 192.213741 91.325743 
L 192.230192 95.513541 
L 192.312447 90.591028 
L 192.328898 93.285225 
L 192.3618 87.817719 
L 192.460505 88.972898 
L 192.575661 93.92691 
L 192.509858 88.535586 
L 192.592112 92.908711 
L 192.608563 92.658923 
L 192.625014 93.233216 
L 192.72372 102.561086 
L 192.756621 101.415429 
L 192.789523 100.115945 
L 192.822425 103.095091 
L 192.838876 102.788166 
L 192.888229 106.452215 
L 192.92113 102.429965 
L 192.970483 95.421244 
L 193.019836 100.46389 
L 193.118541 107.200847 
L 193.151443 104.116219 
L 193.200796 102.657778 
L 193.184345 105.001832 
L 193.250149 103.402015 
L 193.414658 110.207097 
L 193.44756 113.666774 
L 193.513363 108.81678 
L 193.579167 112.585579 
L 193.62852 109.226257 
L 193.64497 109.807875 
L 193.743676 101.399314 
L 193.760127 102.598444 
L 193.776578 105.525581 
L 193.875283 105.031133 
L 194.122047 90.44599 
L 193.924636 105.702118 
L 194.154949 91.768183 
L 194.204301 95.23079 
L 194.253654 93.031042 
L 194.286556 93.543071 
L 194.385261 90.013072 
L 194.418163 95.956714 
L 194.500418 92.938745 
L 194.582672 88.72311 
L 194.53332 94.308551 
L 194.697829 90.273116 
L 194.763632 89.939821 
L 194.780083 91.705919 
L 194.796534 88.444021 
L 194.878789 93.701295 
L 194.944592 90.396911 
L 194.961043 94.402313 
L 194.977494 93.778941 
L 195.059749 96.155226 
L 195.09265 94.3547 
L 195.142003 97.600482 
L 195.174905 94.251415 
L 195.27361 91.673688 
L 195.224258 94.79128 
L 195.339414 92.480189 
L 195.355865 92.956325 
L 195.372316 91.095 
L 195.421669 88.023557 
L 195.45457 91.288384 
L 195.487472 90.465035 
L 195.503923 90.67307 
L 195.569727 93.497655 
L 195.61908 91.287652 
L 195.783589 94.928993 
L 195.882294 85.538127 
L 195.915196 89.613851 
L 195.931647 91.120638 
L 195.981 88.625686 
L 195.99745 88.936273 
L 196.079705 83.189678 
L 196.129058 86.810509 
L 196.145509 86.555593 
L 196.244214 79.933641 
L 196.277116 81.360584 
L 196.310018 81.509284 
L 196.34292 86.567313 
L 196.425174 83.522973 
L 196.441625 83.250477 
L 196.573232 90.697243 
L 196.507429 82.708414 
L 196.589683 89.613851 
L 196.639036 86.183474 
L 196.671938 90.333915 
L 196.688389 88.794897 
L 196.72129 91.027608 
L 196.737741 89.7794 
L 196.754192 93.327711 
L 196.836447 88.980956 
L 196.852898 89.512031 
L 196.869349 87.96642 
L 196.90225 85.387961 
L 196.935152 88.18471 
L 196.968054 85.713931 
L 197.050309 92.639878 
L 197.08321 89.208036 
L 197.165465 89.547192 
L 197.198367 85.489781 
L 197.24772 85.03269 
L 197.26417 87.19801 
L 197.379327 84.440817 
L 197.494483 88.753143 
L 197.510934 86.400299 
L 197.60964 88.038207 
L 197.675443 82.983841 
L 197.741247 86.004008 
L 197.774149 89.841663 
L 197.856403 86.792928 
L 197.872854 84.444479 
L 197.905756 87.860938 
L 197.97156 86.19373 
L 198.004461 92.487514 
L 198.037363 85.513221 
L 198.103167 88.658649 
L 198.185421 90.574913 
L 198.15252 87.896099 
L 198.201872 89.865837 
L 198.267676 87.136479 
L 198.251225 89.980109 
L 198.300578 89.322309 
L 198.465087 95.572143 
L 198.481538 94.331259 
L 198.497989 93.485202 
L 198.51444 96.689963 
L 198.547341 95.096739 
L 198.613145 97.432735 
L 198.646047 95.777247 
L 198.777654 90.171296 
L 198.810556 84.492826 
L 198.89281 89.081311 
L 198.975065 88.378827 
L 199.007967 92.072177 
L 199.024418 91.162391 
L 199.05732 93.380452 
L 199.07377 92.008448 
L 199.090221 94.152525 
L 199.123123 90.220375 
L 199.139574 90.637177 
L 199.188927 86.192997 
L 199.205378 91.056909 
L 199.25473 89.597735 
L 199.271181 87.84116 
L 199.336985 91.840702 
L 199.517945 101.030126 
L 199.534396 99.540186 
L 199.6002 93.982581 
L 199.633101 100.58915 
L 199.698905 104.17482 
L 199.731807 102.932472 
L 199.846963 97.18954 
L 199.879865 98.127161 
L 199.896316 96.912648 
L 199.912767 94.460915 
L 199.97857 100.547397 
L 199.995021 99.303583 
L 200.044374 101.341445 
L 200.060825 101.315807 
L 200.077276 102.002175 
L 200.14308 100.307864 
L 200.15953 101.035986 
L 200.192432 100.726131 
L 200.307589 105.270666 
L 200.32404 104.661944 
L 200.356941 105.373218 
L 200.488549 95.988212 
L 200.587254 102.072497 
L 200.603705 101.769968 
L 200.653058 104.867781 
L 200.735312 96.394027 
L 200.801116 104.68685 
L 200.88337 103.316311 
L 200.899821 100.244868 
L 200.982076 102.462196 
L 201.031429 102.432163 
L 201.113683 108.046172 
L 201.146585 107.051414 
L 201.278192 101.464508 
L 201.42625 109.505345 
L 201.360447 100.830149 
L 201.442701 109.073893 
L 201.541407 104.81797 
L 201.59076 106.354791 
L 201.673014 112.485224 
L 201.705916 109.811537 
L 201.738818 108.489345 
L 201.755269 108.498867 
L 201.78817 114.112144 
L 201.870425 111.581298 
L 201.886876 111.496326 
L 201.95268 114.018382 
L 201.985581 110.798238 
L 202.051385 108.057892 
L 202.100738 109.484102 
L 202.182992 114.570699 
L 202.15009 108.457846 
L 202.265247 112.666156 
L 202.298149 108.227104 
L 202.347501 112.927664 
L 202.380403 111.117615 
L 202.396854 111.050956 
L 202.49556 102.252696 
L 202.561363 105.159323 
L 202.709421 112.702781 
L 202.841029 104.620923 
L 202.989087 99.194438 
L 203.03844 100.540804 
L 203.05489 102.225593 
L 203.104243 96.420397 
L 203.120694 95.816071 
L 203.137145 98.974683 
L 203.170047 101.501134 
L 203.186498 98.615018 
L 203.202949 96.544193 
L 203.23585 98.827447 
L 203.301654 96.650407 
L 203.482614 106.765732 
L 203.564869 102.589654 
L 203.630672 100.190661 
L 203.59777 103.702347 
L 203.663574 102.558156 
L 203.680025 102.585259 
L 203.696476 102.062974 
L 203.712927 103.218153 
L 203.729378 102.616025 
L 203.844534 108.585304 
L 203.860985 108.571386 
L 203.877436 108.134074 
L 203.893887 111.143253 
L 203.94324 106.318897 
L 203.95969 108.622663 
L 203.976141 102.939064 
L 204.074847 104.887559 
L 204.107749 102.269544 
L 204.1242 106.436832 
L 204.173552 103.106811 
L 204.222905 104.916127 
L 204.272258 102.729565 
L 204.30516 105.538767 
L 204.32161 104.872909 
L 204.370963 108.887101 
L 204.436767 106.184114 
L 204.453218 105.534372 
L 204.469669 110.394621 
L 204.568374 108.192675 
L 204.68353 101.750922 
L 204.699981 102.953715 
L 204.716432 106.024425 
L 204.782236 101.837359 
L 204.815138 104.68978 
L 204.831589 104.725673 
L 204.979647 94.2646 
L 204.86449 105.149068 
L 205.04545 99.833193 
L 205.111254 98.629668 
L 205.20996 104.17189 
L 205.341567 98.137417 
L 205.374469 99.46254 
L 205.39092 98.287583 
L 205.40737 96.201375 
L 205.489625 98.685339 
L 205.670585 92.790044 
L 205.719938 94.825708 
L 205.76929 95.558225 
L 205.785741 93.017124 
L 205.851545 98.352044 
L 206.048956 104.600413 
L 206.065407 103.297265 
L 206.081858 101.364153 
L 206.13121 104.993774 
L 206.147661 104.782077 
L 206.164112 104.92565 
L 206.197014 107.564176 
L 206.246367 103.105346 
L 206.262818 103.089963 
L 206.345072 104.973264 
L 206.29572 102.442418 
L 206.361523 102.967633 
L 206.377974 102.710519 
L 206.410876 98.05098 
L 206.460229 103.141972 
L 206.47668 102.624082 
L 206.49313 103.293603 
L 206.526032 102.117181 
L 206.558934 102.812339 
L 206.608287 104.437061 
L 206.723443 96.837932 
L 206.822149 103.098021 
L 206.85505 101.067484 
L 206.887952 100.261715 
L 206.904403 101.496739 
L 206.937305 101.169304 
L 206.953756 101.501866 
L 206.970207 101.359026 
L 207.01956 106.844844 
L 207.068912 102.273939 
L 207.21697 98.336661 
L 207.167618 102.487102 
L 207.282774 98.973218 
L 207.365029 104.443654 
L 207.414381 103.474534 
L 207.529538 95.968434 
L 207.595341 98.445806 
L 207.858556 103.339019 
L 207.907909 99.36658 
L 207.94081 103.577819 
L 207.973712 100.499783 
L 208.072418 109.58226 
L 208.138221 105.649377 
L 208.204025 99.312374 
L 208.269829 99.981162 
L 208.30273 102.386014 
L 208.401436 90.840816 
L 208.434338 93.243472 
L 208.450789 95.355318 
L 208.500141 88.814675 
L 208.516592 91.267874 
L 208.533043 91.166054 
L 208.549494 91.416575 
L 208.681101 95.696671 
L 208.697552 94.303424 
L 208.812709 90.299486 
L 208.730454 96.845989 
L 208.82916 91.155799 
L 208.960767 99.505026 
L 209.01012 97.993111 
L 209.02657 96.473871 
L 209.075923 99.976766 
L 209.125276 104.81211 
L 209.20753 102.670963 
L 209.289785 97.910336 
L 209.322687 99.59659 
L 209.404941 95.394141 
L 209.437843 98.905094 
L 209.454294 98.864806 
L 209.520098 93.713747 
L 209.585901 94.594965 
L 209.602352 93.894679 
L 209.635254 95.698868 
L 209.651705 95.615361 
L 209.717509 100.484401 
L 209.684607 94.674077 
L 209.766861 97.606342 
L 209.783312 95.635139 
L 209.849116 97.842945 
L 209.865567 96.324437 
L 209.93137 94.190616 
L 209.964272 98.511733 
L 210.09588 94.011882 
L 210.128781 100.559117 
L 210.211036 96.062929 
L 210.227487 96.189654 
L 210.375545 106.198032 
L 210.47425 96.3281 
L 210.507152 97.699372 
L 210.540054 100.017787 
L 210.605858 98.371822 
L 210.671661 95.734761 
L 210.704563 99.296991 
L 210.81972 106.286666 
L 210.83617 104.71908 
L 210.918425 108.28717 
L 210.951327 106.21195 
L 211.033581 100.511504 
L 211.066483 100.768617 
L 211.165189 105.173241 
L 211.18164 103.960925 
L 211.230992 104.351357 
L 211.37905 97.204923 
L 211.510658 103.709672 
L 211.527109 101.268926 
L 211.54356 100.319584 
L 211.592912 103.17933 
L 211.658716 106.173859 
L 211.708069 104.322056 
L 211.806774 98.886049 
L 211.823225 101.073344 
L 211.938381 106.378964 
L 211.954832 105.979009 
L 211.987734 107.778803 
L 212.004185 108.490077 
L 212.037087 105.459655 
L 212.08644 106.358453 
L 212.168694 102.680486 
L 212.185145 102.043196 
L 212.201596 104.586495 
L 212.234498 105.579055 
L 212.250949 103.161017 
L 212.28385 103.500905 
L 212.316752 104.129404 
L 212.431909 101.393454 
L 212.44836 101.468903 
L 212.497712 99.647866 
L 212.514163 103.966053 
L 212.547065 101.545817 
L 212.563516 103.308253 
L 212.612869 99.553372 
L 212.62932 100.834544 
L 212.678672 96.519287 
L 212.728025 100.094702 
L 212.744476 103.279685 
L 212.81028 98.322743 
L 212.974789 90.741194 
L 212.892534 98.644318 
L 213.00769 94.27632 
L 213.040592 95.253498 
L 213.057043 93.880761 
L 213.073494 94.953898 
L 213.122847 97.95209 
L 213.1722 94.006754 
L 213.287356 89.329634 
L 213.320258 90.603481 
L 213.468316 96.536135 
L 213.386061 89.619711 
L 213.484767 95.810943 
L 213.517669 92.642808 
L 213.567021 96.925834 
L 213.599923 94.774432 
L 213.682178 97.901546 
L 213.649276 94.15692 
L 213.73153 96.324437 
L 213.879589 88.921622 
L 213.764432 98.574729 
L 213.91249 92.72778 
L 213.928941 92.51828 
L 213.961843 94.427219 
L 214.060549 89.954471 
L 214.09345 94.308551 
L 214.175705 91.401924 
L 214.192156 89.199979 
L 214.25796 92.373974 
L 214.27441 91.96816 
L 214.307312 94.05803 
L 214.45537 101.192012 
L 214.504723 94.053635 
L 214.586978 97.488407 
L 214.685683 102.281264 
L 214.61988 96.239466 
L 214.735036 100.639694 
L 214.80084 96.558843 
L 214.767938 101.170769 
L 214.866643 99.439832 
L 214.948898 104.757171 
L 214.9818 101.318737 
L 215.064054 103.402748 
L 215.031152 98.93586 
L 215.096956 101.694518 
L 215.212112 96.521484 
L 215.129858 103.279685 
L 215.245014 97.316265 
L 215.310818 102.458533 
L 215.36017 101.079937 
" clip-path="url(#pc74b3ce35d)" style="fill: none; stroke: #009e73; stroke-width: 1.25; stroke-linecap: square"/>
   </g>
   <g id="patch_4">
    <path d="M 42.625625 131.718516 
L 42.625625 20.418516 
" style="fill: none; stroke: #000000; stroke-width: 0.8; stroke-linejoin: miter; stroke-linecap: square"/>
   </g>
   <g id="patch_5">
    <path d="M 42.625625 131.718516 
L 223.585625 131.718516 
" style="fill: none; stroke: #000000; stroke-width: 0.8; stroke-linejoin: miter; stroke-linecap: square"/>
   </g>
   <g id="text_15">
    <!-- drugs3523 rep2 -->
    <g transform="translate(95.232539 14.418516) scale(0.095 -0.095)">
     <defs>
      <path id="DejaVuSans-64" d="M 2906 2969 
L 2906 4863 
L 3481 4863 
L 3481 0 
L 2906 0 
L 2906 525 
Q 2725 213 2448 61 
Q 2172 -91 1784 -91 
Q 1150 -91 751 415 
Q 353 922 353 1747 
Q 353 2572 751 3078 
Q 1150 3584 1784 3584 
Q 2172 3584 2448 3432 
Q 2725 3281 2906 2969 
z
M 947 1747 
Q 947 1113 1208 752 
Q 1469 391 1925 391 
Q 2381 391 2643 752 
Q 2906 1113 2906 1747 
Q 2906 2381 2643 2742 
Q 2381 3103 1925 3103 
Q 1469 3103 1208 2742 
Q 947 2381 947 1747 
z
" transform="scale(0.015625)"/>
      <path id="DejaVuSans-72" d="M 2631 2963 
Q 2534 3019 2420 3045 
Q 2306 3072 2169 3072 
Q 1681 3072 1420 2755 
Q 1159 2438 1159 1844 
L 1159 0 
L 581 0 
L 581 3500 
L 1159 3500 
L 1159 2956 
Q 1341 3275 1631 3429 
Q 1922 3584 2338 3584 
Q 2397 3584 2469 3576 
Q 2541 3569 2628 3553 
L 2631 2963 
z
" transform="scale(0.015625)"/>
      <path id="DejaVuSans-75" d="M 544 1381 
L 544 3500 
L 1119 3500 
L 1119 1403 
Q 1119 906 1312 657 
Q 1506 409 1894 409 
Q 2359 409 2629 706 
Q 2900 1003 2900 1516 
L 2900 3500 
L 3475 3500 
L 3475 0 
L 2900 0 
L 2900 538 
Q 2691 219 2414 64 
Q 2138 -91 1772 -91 
Q 1169 -91 856 284 
Q 544 659 544 1381 
z
M 1991 3584 
L 1991 3584 
z
" transform="scale(0.015625)"/>
      <path id="DejaVuSans-70" d="M 1159 525 
L 1159 -1331 
L 581 -1331 
L 581 3500 
L 1159 3500 
L 1159 2969 
Q 1341 3281 1617 3432 
Q 1894 3584 2278 3584 
Q 2916 3584 3314 3078 
Q 3713 2572 3713 1747 
Q 3713 922 3314 415 
Q 2916 -91 2278 -91 
Q 1894 -91 1617 61 
Q 1341 213 1159 525 
z
M 3116 1747 
Q 3116 2381 2855 2742 
Q 2594 3103 2138 3103 
Q 1681 3103 1420 2742 
Q 1159 2381 1159 1747 
Q 1159 1113 1420 752 
Q 1681 391 2138 391 
Q 2594 391 2855 752 
Q 3116 1113 3116 1747 
z
" transform="scale(0.015625)"/>
     </defs>
     <use xlink:href="#DejaVuSans-64"/>
     <use xlink:href="#DejaVuSans-72" transform="translate(63.476562 0)"/>
     <use xlink:href="#DejaVuSans-75" transform="translate(104.589844 0)"/>
     <use xlink:href="#DejaVuSans-67" transform="translate(167.96875 0)"/>
     <use xlink:href="#DejaVuSans-73" transform="translate(231.445312 0)"/>
     <use xlink:href="#DejaVuSans-33" transform="translate(283.544922 0)"/>
     <use xlink:href="#DejaVuSans-35" transform="translate(347.167969 0)"/>
     <use xlink:href="#DejaVuSans-32" transform="translate(410.791016 0)"/>
     <use xlink:href="#DejaVuSans-33" transform="translate(474.414062 0)"/>
     <use xlink:href="#DejaVuSans-20" transform="translate(538.037109 0)"/>
     <use xlink:href="#DejaVuSans-72" transform="translate(569.824219 0)"/>
     <use xlink:href="#DejaVuSans-65" transform="translate(608.6875 0)"/>
     <use xlink:href="#DejaVuSans-70" transform="translate(670.210938 0)"/>
     <use xlink:href="#DejaVuSans-32" transform="translate(733.6875 0)"/>
    </g>
   </g>
  </g>
 </g>
 <defs>
  <clipPath id="pc74b3ce35d">
   <rect x="42.625625" y="20.418516" width="180.96" height="111.3"/>
  </clipPath>
 </defs>
</svg>
