<?xml version="1.0" encoding="utf-8" standalone="no"?>
<!DOCTYPE svg PUBLIC "-//W3C//DTD SVG 1.1//EN"
  "http://www.w3.org/Graphics/SVG/1.1/DTD/svg11.dtd">
<svg xmlns:xlink="http://www.w3.org/1999/xlink" width="225.998281pt" height="164.903516pt" viewBox="0 0 225.998281 164.903516" xmlns="http://www.w3.org/2000/svg" version="1.1">
 <metadata>
  <rdf:RDF xmlns:dc="http://purl.org/dc/elements/1.1/" xmlns:cc="http://creativecommons.org/ns#" xmlns:rdf="http://www.w3.org/1999/02/22-rdf-syntax-ns#">
   <cc:Work>
    <dc:type rdf:resource="http://purl.org/dc/dcmitype/StillImage"/>
    <dc:date>2026-05-24T13:54:19.727403</dc:date>
    <dc:format>image/svg+xml</dc:format>
    <dc:creator>
     <cc:Agent>
      <dc:title>Matplotlib v3.10.9, https://matplotlib.org/</dc:title>
     </cc:Agent>
    </dc:creator>
   </cc:Work>
  </rdf:RDF>
 </metadata>
 <defs>
  <style type="text/css">*{stroke-linejoin: round; stroke-linecap: butt}</style>
 </defs>
 <g id="figure_1">
  <g id="patch_1">
   <path d="M 0 164.903516 
L 225.998281 164.903516 
L 225.998281 0 
L 0 0 
z
" style="fill: #ffffff"/>
  </g>
  <g id="axes_1">
   <g id="patch_2">
    <path d="M 30.698281 131.718516 
L 218.798281 131.718516 
L 218.798281 20.418516 
L 30.698281 20.418516 
z
" style="fill: #ffffff"/>
   </g>
   <g id="patch_3">
    <path d="M 124.748281 131.718516 
L 210.248281 131.718516 
L 210.248281 20.418516 
L 124.748281 20.418516 
z
" clip-path="url(#p4777bab7a8)" style="fill: #bdbdbd; opacity: 0.18"/>
   </g>
   <g id="matplotlib.axis_1">
    <g id="xtick_1">
     <g id="line2d_1">
      <defs>
       <path id="m8a1c868235" d="M 0 0 
L 0 3 
" style="stroke: #000000; stroke-width: 0.7"/>
      </defs>
      <g>
       <use xlink:href="#m8a1c868235" x="39.248281" y="131.718516" style="stroke: #000000; stroke-width: 0.7"/>
      </g>
     </g>
     <g id="text_1">
      <!-- 0 -->
      <g transform="translate(36.862344 143.917344) scale(0.075 -0.075)">
       <defs>
        <path id="DejaVuSans-30" d="M 2034 4250 
Q 1547 4250 1301 3770 
Q 1056 3291 1056 2328 
Q 1056 1369 1301 889 
Q 1547 409 2034 409 
Q 2525 409 2770 889 
Q 3016 1369 3016 2328 
Q 3016 3291 2770 3770 
Q 2525 4250 2034 4250 
z
M 2034 4750 
Q 2819 4750 3233 4129 
Q 3647 3509 3647 2328 
Q 3647 1150 3233 529 
Q 2819 -91 2034 -91 
Q 1250 -91 836 529 
Q 422 1150 422 2328 
Q 422 3509 836 4129 
Q 1250 4750 2034 4750 
z
" transform="scale(0.015625)"/>
       </defs>
       <use xlink:href="#DejaVuSans-30"/>
      </g>
     </g>
    </g>
    <g id="xtick_2">
     <g id="line2d_2">
      <g>
       <use xlink:href="#m8a1c868235" x="73.448281" y="131.718516" style="stroke: #000000; stroke-width: 0.7"/>
      </g>
     </g>
     <g id="text_2">
      <!-- 20 -->
      <g transform="translate(68.676406 143.917344) scale(0.075 -0.075)">
       <defs>
        <path id="DejaVuSans-32" d="M 1228 531 
L 3431 531 
L 3431 0 
L 469 0 
L 469 531 
Q 828 903 1448 1529 
Q 2069 2156 2228 2338 
Q 2531 2678 2651 2914 
Q 2772 3150 2772 3378 
Q 2772 3750 2511 3984 
Q 2250 4219 1831 4219 
Q 1534 4219 1204 4116 
Q 875 4013 500 3803 
L 500 4441 
Q 881 4594 1212 4672 
Q 1544 4750 1819 4750 
Q 2544 4750 2975 4387 
Q 3406 4025 3406 3419 
Q 3406 3131 3298 2873 
Q 3191 2616 2906 2266 
Q 2828 2175 2409 1742 
Q 1991 1309 1228 531 
z
" transform="scale(0.015625)"/>
       </defs>
       <use xlink:href="#DejaVuSans-32"/>
       <use xlink:href="#DejaVuSans-30" transform="translate(63.623047 0)"/>
      </g>
     </g>
    </g>
    <g id="xtick_3">
     <g id="line2d_3">
      <g>
       <use xlink:href="#m8a1c868235" x="107.648281" y="131.718516" style="stroke: #000000; stroke-width: 0.7"/>
      </g>
     </g>
     <g id="text_3">
      <!-- 40 -->
      <g transform="translate(102.876406 143.917344) scale(0.075 -0.075)">
       <defs>
        <path id="DejaVuSans-34" d="M 2419 4116 
L 825 1625 
L 2419 1625 
L 2419 4116 
z
M 2253 4666 
L 3047 4666 
L 3047 1625 
L 3713 1625 
L 3713 1100 
L 3047 1100 
L 3047 0 
L 2419 0 
L 2419 1100 
L 313 1100 
L 313 1709 
L 2253 4666 
z
" transform="scale(0.015625)"/>
       </defs>
       <use xlink:href="#DejaVuSans-34"/>
       <use xlink:href="#DejaVuSans-30" transform="translate(63.623047 0)"/>
      </g>
     </g>
    </g>
    <g id="xtick_4">
     <g id="line2d_4">
      <g>
       <use xlink:href="#m8a1c868235" x="141.848281" y="131.718516" style="stroke: #000000; stroke-width: 0.7"/>
      </g>
     </g>
     <g id="text_4">
      <!-- 60 -->
      <g transform="translate(137.076406 143.917344) scale(0.075 -0.075)">
       <defs>
        <path id="DejaVuSans-36" d="M 2113 2584 
Q 1688 2584 1439 2293 
Q 1191 2003 1191 1497 
Q 1191 994 1439 701 
Q 1688 409 2113 409 
Q 2538 409 2786 701 
Q 3034 994 3034 1497 
Q 3034 2003 2786 2293 
Q 2538 2584 2113 2584 
z
M 3366 4563 
L 3366 3988 
Q 3128 4100 2886 4159 
Q 2644 4219 2406 4219 
Q 1781 4219 1451 3797 
Q 1122 3375 1075 2522 
Q 1259 2794 1537 2939 
Q 1816 3084 2150 3084 
Q 2853 3084 3261 2657 
Q 3669 2231 3669 1497 
Q 3669 778 3244 343 
Q 2819 -91 2113 -91 
Q 1303 -91 875 529 
Q 447 1150 447 2328 
Q 447 3434 972 4092 
Q 1497 4750 2381 4750 
Q 2619 4750 2861 4703 
Q 3103 4656 3366 4563 
z
" transform="scale(0.015625)"/>
       </defs>
       <use xlink:href="#DejaVuSans-36"/>
       <use xlink:href="#DejaVuSans-30" transform="translate(63.623047 0)"/>
      </g>
     </g>
    </g>
    <g id="xtick_5">
     <g id="line2d_5">
      <g>
       <use xlink:href="#m8a1c868235" x="176.048281" y="131.718516" style="stroke: #000000; stroke-width: 0.7"/>
      </g>
     </g>
     <g id="text_5">
      <!-- 80 -->
      <g transform="translate(171.276406 143.917344) scale(0.075 -0.075)">
       <defs>
        <path id="DejaVuSans-38" d="M 2034 2216 
Q 1584 2216 1326 1975 
Q 1069 1734 1069 1313 
Q 1069 891 1326 650 
Q 1584 409 2034 409 
Q 2484 409 2743 651 
Q 3003 894 3003 1313 
Q 3003 1734 2745 1975 
Q 2488 2216 2034 2216 
z
M 1403 2484 
Q 997 2584 770 2862 
Q 544 3141 544 3541 
Q 544 4100 942 4425 
Q 1341 4750 2034 4750 
Q 2731 4750 3128 4425 
Q 3525 4100 3525 3541 
Q 3525 3141 3298 2862 
Q 3072 2584 2669 2484 
Q 3125 2378 3379 2068 
Q 3634 1759 3634 1313 
Q 3634 634 3220 271 
Q 2806 -91 2034 -91 
Q 1263 -91 848 271 
Q 434 634 434 1313 
Q 434 1759 690 2068 
Q 947 2378 1403 2484 
z
M 1172 3481 
Q 1172 3119 1398 2916 
Q 1625 2713 2034 2713 
Q 2441 2713 2670 2916 
Q 2900 3119 2900 3481 
Q 2900 3844 2670 4047 
Q 2441 4250 2034 4250 
Q 1625 4250 1398 4047 
Q 1172 3844 1172 3481 
z
" transform="scale(0.015625)"/>
       </defs>
       <use xlink:href="#DejaVuSans-38"/>
       <use xlink:href="#DejaVuSans-30" transform="translate(63.623047 0)"/>
      </g>
     </g>
    </g>
    <g id="xtick_6">
     <g id="line2d_6">
      <g>
       <use xlink:href="#m8a1c868235" x="210.248281" y="131.718516" style="stroke: #000000; stroke-width: 0.7"/>
      </g>
     </g>
     <g id="text_6">
      <!-- 100 -->
      <g transform="translate(203.090469 143.917344) scale(0.075 -0.075)">
       <defs>
        <path id="DejaVuSans-31" d="M 794 531 
L 1825 531 
L 1825 4091 
L 703 3866 
L 703 4441 
L 1819 4666 
L 2450 4666 
L 2450 531 
L 3481 531 
L 3481 0 
L 794 0 
L 794 531 
z
" transform="scale(0.015625)"/>
       </defs>
       <use xlink:href="#DejaVuSans-31"/>
       <use xlink:href="#DejaVuSans-30" transform="translate(63.623047 0)"/>
       <use xlink:href="#DejaVuSans-30" transform="translate(127.246094 0)"/>
      </g>
     </g>
    </g>
    <g id="text_7">
     <!-- Time (ns) -->
     <g transform="translate(104.775273 155.935781) scale(0.085 -0.085)">
      <defs>
       <path id="DejaVuSans-54" d="M -19 4666 
L 3928 4666 
L 3928 4134 
L 2272 4134 
L 2272 0 
L 1638 0 
L 1638 4134 
L -19 4134 
L -19 4666 
z
" transform="scale(0.015625)"/>
       <path id="DejaVuSans-69" d="M 603 3500 
L 1178 3500 
L 1178 0 
L 603 0 
L 603 3500 
z
M 603 4863 
L 1178 4863 
L 1178 4134 
L 603 4134 
L 603 4863 
z
" transform="scale(0.015625)"/>
       <path id="DejaVuSans-6d" d="M 3328 2828 
Q 3544 3216 3844 3400 
Q 4144 3584 4550 3584 
Q 5097 3584 5394 3201 
Q 5691 2819 5691 2113 
L 5691 0 
L 5113 0 
L 5113 2094 
Q 5113 2597 4934 2840 
Q 4756 3084 4391 3084 
Q 3944 3084 3684 2787 
Q 3425 2491 3425 1978 
L 3425 0 
L 2847 0 
L 2847 2094 
Q 2847 2600 2669 2842 
Q 2491 3084 2119 3084 
Q 1678 3084 1418 2786 
Q 1159 2488 1159 1978 
L 1159 0 
L 581 0 
L 581 3500 
L 1159 3500 
L 1159 2956 
Q 1356 3278 1631 3431 
Q 1906 3584 2284 3584 
Q 2666 3584 2933 3390 
Q 3200 3197 3328 2828 
z
" transform="scale(0.015625)"/>
       <path id="DejaVuSans-65" d="M 3597 1894 
L 3597 1613 
L 953 1613 
Q 991 1019 1311 708 
Q 1631 397 2203 397 
Q 2534 397 2845 478 
Q 3156 559 3463 722 
L 3463 178 
Q 3153 47 2828 -22 
Q 2503 -91 2169 -91 
Q 1331 -91 842 396 
Q 353 884 353 1716 
Q 353 2575 817 3079 
Q 1281 3584 2069 3584 
Q 2775 3584 3186 3129 
Q 3597 2675 3597 1894 
z
M 3022 2063 
Q 3016 2534 2758 2815 
Q 2500 3097 2075 3097 
Q 1594 3097 1305 2825 
Q 1016 2553 972 2059 
L 3022 2063 
z
" transform="scale(0.015625)"/>
       <path id="DejaVuSans-20" transform="scale(0.015625)"/>
       <path id="DejaVuSans-28" d="M 1984 4856 
Q 1566 4138 1362 3434 
Q 1159 2731 1159 2009 
Q 1159 1288 1364 580 
Q 1569 -128 1984 -844 
L 1484 -844 
Q 1016 -109 783 600 
Q 550 1309 550 2009 
Q 550 2706 781 3412 
Q 1013 4119 1484 4856 
L 1984 4856 
z
" transform="scale(0.015625)"/>
       <path id="DejaVuSans-6e" d="M 3513 2113 
L 3513 0 
L 2938 0 
L 2938 2094 
Q 2938 2591 2744 2837 
Q 2550 3084 2163 3084 
Q 1697 3084 1428 2787 
Q 1159 2491 1159 1978 
L 1159 0 
L 581 0 
L 581 3500 
L 1159 3500 
L 1159 2956 
Q 1366 3272 1645 3428 
Q 1925 3584 2291 3584 
Q 2894 3584 3203 3211 
Q 3513 2838 3513 2113 
z
" transform="scale(0.015625)"/>
       <path id="DejaVuSans-73" d="M 2834 3397 
L 2834 2853 
Q 2591 2978 2328 3040 
Q 2066 3103 1784 3103 
Q 1356 3103 1142 2972 
Q 928 2841 928 2578 
Q 928 2378 1081 2264 
Q 1234 2150 1697 2047 
L 1894 2003 
Q 2506 1872 2764 1633 
Q 3022 1394 3022 966 
Q 3022 478 2636 193 
Q 2250 -91 1575 -91 
Q 1294 -91 989 -36 
Q 684 19 347 128 
L 347 722 
Q 666 556 975 473 
Q 1284 391 1588 391 
Q 1994 391 2212 530 
Q 2431 669 2431 922 
Q 2431 1156 2273 1281 
Q 2116 1406 1581 1522 
L 1381 1569 
Q 847 1681 609 1914 
Q 372 2147 372 2553 
Q 372 3047 722 3315 
Q 1072 3584 1716 3584 
Q 2034 3584 2315 3537 
Q 2597 3491 2834 3397 
z
" transform="scale(0.015625)"/>
       <path id="DejaVuSans-29" d="M 513 4856 
L 1013 4856 
Q 1481 4119 1714 3412 
Q 1947 2706 1947 2009 
Q 1947 1309 1714 600 
Q 1481 -109 1013 -844 
L 513 -844 
Q 928 -128 1133 580 
Q 1338 1288 1338 2009 
Q 1338 2731 1133 3434 
Q 928 4138 513 4856 
z
" transform="scale(0.015625)"/>
      </defs>
      <use xlink:href="#DejaVuSans-54"/>
      <use xlink:href="#DejaVuSans-69" transform="translate(57.958984 0)"/>
      <use xlink:href="#DejaVuSans-6d" transform="translate(85.742188 0)"/>
      <use xlink:href="#DejaVuSans-65" transform="translate(183.154297 0)"/>
      <use xlink:href="#DejaVuSans-20" transform="translate(244.677734 0)"/>
      <use xlink:href="#DejaVuSans-28" transform="translate(276.464844 0)"/>
      <use xlink:href="#DejaVuSans-6e" transform="translate(315.478516 0)"/>
      <use xlink:href="#DejaVuSans-73" transform="translate(378.857422 0)"/>
      <use xlink:href="#DejaVuSans-29" transform="translate(430.957031 0)"/>
     </g>
    </g>
   </g>
   <g id="matplotlib.axis_2">
    <g id="ytick_1">
     <g id="line2d_7">
      <defs>
       <path id="mb5d869fca2" d="M 0 0 
L -3 0 
" style="stroke: #000000; stroke-width: 0.7"/>
      </defs>
      <g>
       <use xlink:href="#mb5d869fca2" x="30.698281" y="126.659425" style="stroke: #000000; stroke-width: 0.7"/>
      </g>
     </g>
     <g id="text_8">
      <!-- 0 -->
      <g transform="translate(19.426406 129.508839) scale(0.075 -0.075)">
       <use xlink:href="#DejaVuSans-30"/>
      </g>
     </g>
    </g>
    <g id="ytick_2">
     <g id="line2d_8">
      <g>
       <use xlink:href="#mb5d869fca2" x="30.698281" y="101.36397" style="stroke: #000000; stroke-width: 0.7"/>
      </g>
     </g>
     <g id="text_9">
      <!-- 1 -->
      <g transform="translate(19.426406 104.213384) scale(0.075 -0.075)">
       <use xlink:href="#DejaVuSans-31"/>
      </g>
     </g>
    </g>
    <g id="ytick_3">
     <g id="line2d_9">
      <g>
       <use xlink:href="#mb5d869fca2" x="30.698281" y="76.068516" style="stroke: #000000; stroke-width: 0.7"/>
      </g>
     </g>
     <g id="text_10">
      <!-- 2 -->
      <g transform="translate(19.426406 78.91793) scale(0.075 -0.075)">
       <use xlink:href="#DejaVuSans-32"/>
      </g>
     </g>
    </g>
    <g id="ytick_4">
     <g id="line2d_10">
      <g>
       <use xlink:href="#mb5d869fca2" x="30.698281" y="50.773061" style="stroke: #000000; stroke-width: 0.7"/>
      </g>
     </g>
     <g id="text_11">
      <!-- 3 -->
      <g transform="translate(19.426406 53.622475) scale(0.075 -0.075)">
       <defs>
        <path id="DejaVuSans-33" d="M 2597 2516 
Q 3050 2419 3304 2112 
Q 3559 1806 3559 1356 
Q 3559 666 3084 287 
Q 2609 -91 1734 -91 
Q 1441 -91 1130 -33 
Q 819 25 488 141 
L 488 750 
Q 750 597 1062 519 
Q 1375 441 1716 441 
Q 2309 441 2620 675 
Q 2931 909 2931 1356 
Q 2931 1769 2642 2001 
Q 2353 2234 1838 2234 
L 1294 2234 
L 1294 2753 
L 1863 2753 
Q 2328 2753 2575 2939 
Q 2822 3125 2822 3475 
Q 2822 3834 2567 4026 
Q 2313 4219 1838 4219 
Q 1578 4219 1281 4162 
Q 984 4106 628 3988 
L 628 4550 
Q 988 4650 1302 4700 
Q 1616 4750 1894 4750 
Q 2613 4750 3031 4423 
Q 3450 4097 3450 3541 
Q 3450 3153 3228 2886 
Q 3006 2619 2597 2516 
z
" transform="scale(0.015625)"/>
       </defs>
       <use xlink:href="#DejaVuSans-33"/>
      </g>
     </g>
    </g>
    <g id="ytick_5">
     <g id="line2d_11">
      <g>
       <use xlink:href="#mb5d869fca2" x="30.698281" y="25.477607" style="stroke: #000000; stroke-width: 0.7"/>
      </g>
     </g>
     <g id="text_12">
      <!-- 4 -->
      <g transform="translate(19.426406 28.327021) scale(0.075 -0.075)">
       <use xlink:href="#DejaVuSans-34"/>
      </g>
     </g>
    </g>
    <g id="text_13">
     <!-- Number of H-bonds -->
     <g transform="translate(13.658672 117.573086) rotate(-90) scale(0.085 -0.085)">
      <defs>
       <path id="DejaVuSans-4e" d="M 628 4666 
L 1478 4666 
L 3547 763 
L 3547 4666 
L 4159 4666 
L 4159 0 
L 3309 0 
L 1241 3903 
L 1241 0 
L 628 0 
L 628 4666 
z
" transform="scale(0.015625)"/>
       <path id="DejaVuSans-75" d="M 544 1381 
L 544 3500 
L 1119 3500 
L 1119 1403 
Q 1119 906 1312 657 
Q 1506 409 1894 409 
Q 2359 409 2629 706 
Q 2900 1003 2900 1516 
L 2900 3500 
L 3475 3500 
L 3475 0 
L 2900 0 
L 2900 538 
Q 2691 219 2414 64 
Q 2138 -91 1772 -91 
Q 1169 -91 856 284 
Q 544 659 544 1381 
z
M 1991 3584 
L 1991 3584 
z
" transform="scale(0.015625)"/>
       <path id="DejaVuSans-62" d="M 3116 1747 
Q 3116 2381 2855 2742 
Q 2594 3103 2138 3103 
Q 1681 3103 1420 2742 
Q 1159 2381 1159 1747 
Q 1159 1113 1420 752 
Q 1681 391 2138 391 
Q 2594 391 2855 752 
Q 3116 1113 3116 1747 
z
M 1159 2969 
Q 1341 3281 1617 3432 
Q 1894 3584 2278 3584 
Q 2916 3584 3314 3078 
Q 3713 2572 3713 1747 
Q 3713 922 3314 415 
Q 2916 -91 2278 -91 
Q 1894 -91 1617 61 
Q 1341 213 1159 525 
L 1159 0 
L 581 0 
L 581 4863 
L 1159 4863 
L 1159 2969 
z
" transform="scale(0.015625)"/>
       <path id="DejaVuSans-72" d="M 2631 2963 
Q 2534 3019 2420 3045 
Q 2306 3072 2169 3072 
Q 1681 3072 1420 2755 
Q 1159 2438 1159 1844 
L 1159 0 
L 581 0 
L 581 3500 
L 1159 3500 
L 1159 2956 
Q 1341 3275 1631 3429 
Q 1922 3584 2338 3584 
Q 2397 3584 2469 3576 
Q 2541 3569 2628 3553 
L 2631 2963 
z
" transform="scale(0.015625)"/>
       <path id="DejaVuSans-6f" d="M 1959 3097 
Q 1497 3097 1228 2736 
Q 959 2375 959 1747 
Q 959 1119 1226 758 
Q 1494 397 1959 397 
Q 2419 397 2687 759 
Q 2956 1122 2956 1747 
Q 2956 2369 2687 2733 
Q 2419 3097 1959 3097 
z
M 1959 3584 
Q 2709 3584 3137 3096 
Q 3566 2609 3566 1747 
Q 3566 888 3137 398 
Q 2709 -91 1959 -91 
Q 1206 -91 779 398 
Q 353 888 353 1747 
Q 353 2609 779 3096 
Q 1206 3584 1959 3584 
z
" transform="scale(0.015625)"/>
       <path id="DejaVuSans-66" d="M 2375 4863 
L 2375 4384 
L 1825 4384 
Q 1516 4384 1395 4259 
Q 1275 4134 1275 3809 
L 1275 3500 
L 2222 3500 
L 2222 3053 
L 1275 3053 
L 1275 0 
L 697 0 
L 697 3053 
L 147 3053 
L 147 3500 
L 697 3500 
L 697 3744 
Q 697 4328 969 4595 
Q 1241 4863 1831 4863 
L 2375 4863 
z
" transform="scale(0.015625)"/>
       <path id="DejaVuSans-48" d="M 628 4666 
L 1259 4666 
L 1259 2753 
L 3553 2753 
L 3553 4666 
L 4184 4666 
L 4184 0 
L 3553 0 
L 3553 2222 
L 1259 2222 
L 1259 0 
L 628 0 
L 628 4666 
z
" transform="scale(0.015625)"/>
       <path id="DejaVuSans-2d" d="M 313 2009 
L 1997 2009 
L 1997 1497 
L 313 1497 
L 313 2009 
z
" transform="scale(0.015625)"/>
       <path id="DejaVuSans-64" d="M 2906 2969 
L 2906 4863 
L 3481 4863 
L 3481 0 
L 2906 0 
L 2906 525 
Q 2725 213 2448 61 
Q 2172 -91 1784 -91 
Q 1150 -91 751 415 
Q 353 922 353 1747 
Q 353 2572 751 3078 
Q 1150 3584 1784 3584 
Q 2172 3584 2448 3432 
Q 2725 3281 2906 2969 
z
M 947 1747 
Q 947 1113 1208 752 
Q 1469 391 1925 391 
Q 2381 391 2643 752 
Q 2906 1113 2906 1747 
Q 2906 2381 2643 2742 
Q 2381 3103 1925 3103 
Q 1469 3103 1208 2742 
Q 947 2381 947 1747 
z
" transform="scale(0.015625)"/>
      </defs>
      <use xlink:href="#DejaVuSans-4e"/>
      <use xlink:href="#DejaVuSans-75" transform="translate(74.804688 0)"/>
      <use xlink:href="#DejaVuSans-6d" transform="translate(138.183594 0)"/>
      <use xlink:href="#DejaVuSans-62" transform="translate(235.595703 0)"/>
      <use xlink:href="#DejaVuSans-65" transform="translate(299.072266 0)"/>
      <use xlink:href="#DejaVuSans-72" transform="translate(360.595703 0)"/>
      <use xlink:href="#DejaVuSans-20" transform="translate(401.708984 0)"/>
      <use xlink:href="#DejaVuSans-6f" transform="translate(433.496094 0)"/>
      <use xlink:href="#DejaVuSans-66" transform="translate(494.677734 0)"/>
      <use xlink:href="#DejaVuSans-20" transform="translate(529.882812 0)"/>
      <use xlink:href="#DejaVuSans-48" transform="translate(561.669922 0)"/>
      <use xlink:href="#DejaVuSans-2d" transform="translate(636.865234 0)"/>
      <use xlink:href="#DejaVuSans-62" transform="translate(672.949219 0)"/>
      <use xlink:href="#DejaVuSans-6f" transform="translate(736.425781 0)"/>
      <use xlink:href="#DejaVuSans-6e" transform="translate(797.607422 0)"/>
      <use xlink:href="#DejaVuSans-64" transform="translate(860.986328 0)"/>
      <use xlink:href="#DejaVuSans-73" transform="translate(924.462891 0)"/>
     </g>
    </g>
   </g>
   <g id="line2d_12">
    <path d="M 39.248281 101.36397 
L 39.367981 126.659425 
L 39.436381 126.659425 
L 39.453481 101.36397 
L 39.538981 126.659425 
L 39.709981 126.659425 
L 39.829681 101.36397 
L 39.932281 126.659425 
L 40.000681 101.36397 
L 40.034881 126.659425 
L 40.069081 126.659425 
L 40.086181 76.068516 
L 40.171681 126.659425 
L 40.274281 101.36397 
L 40.393981 126.659425 
L 40.496581 126.659425 
L 40.582081 101.36397 
L 40.599181 126.659425 
L 40.684681 126.659425 
L 40.787281 101.36397 
L 40.906981 126.659425 
L 41.009581 126.659425 
L 41.026681 101.36397 
L 41.112181 126.659425 
L 41.163481 126.659425 
L 41.180581 101.36397 
L 41.266081 126.659425 
L 41.779081 126.659425 
L 41.813281 101.36397 
L 41.881681 126.659425 
L 41.898781 126.659425 
L 42.035581 76.068516 
L 42.086881 126.659425 
L 42.138181 101.36397 
L 42.155281 76.068516 
L 42.223681 126.659425 
L 42.463081 126.659425 
L 42.531481 101.36397 
L 42.565681 126.659425 
L 42.839281 126.659425 
L 42.856381 101.36397 
L 42.941881 126.659425 
L 43.335181 126.659425 
L 43.352281 101.36397 
L 43.437781 126.659425 
L 43.608781 126.659425 
L 43.728481 101.36397 
L 43.762681 101.36397 
L 43.882381 126.659425 
L 44.087581 126.659425 
L 44.104681 101.36397 
L 44.190181 126.659425 
L 44.275681 126.659425 
L 44.395381 101.36397 
L 44.412481 101.36397 
L 44.532181 126.659425 
L 44.668981 126.659425 
L 44.788681 101.36397 
L 44.908381 126.659425 
L 44.925481 126.659425 
L 45.045181 101.36397 
L 45.079381 101.36397 
L 45.181981 126.659425 
L 45.301681 101.36397 
L 45.335881 101.36397 
L 45.370081 126.659425 
L 45.438481 101.36397 
L 45.558181 101.36397 
L 45.660781 126.659425 
L 45.797581 76.068516 
L 45.865981 126.659425 
L 45.900181 76.068516 
L 45.917281 76.068516 
L 45.968581 126.659425 
L 46.019881 76.068516 
L 46.036981 76.068516 
L 46.139581 126.659425 
L 46.156681 101.36397 
L 46.293481 101.36397 
L 46.396081 126.659425 
L 46.498681 76.068516 
L 46.515781 101.36397 
L 46.601281 101.36397 
L 46.618381 126.659425 
L 46.669681 76.068516 
L 46.703881 101.36397 
L 47.028781 101.36397 
L 47.080081 126.659425 
L 47.131381 101.36397 
L 47.199781 101.36397 
L 47.268181 76.068516 
L 47.251081 126.659425 
L 47.302381 101.36397 
L 47.370781 101.36397 
L 47.387881 126.659425 
L 47.473381 101.36397 
L 47.575981 101.36397 
L 47.593081 126.659425 
L 47.678581 101.36397 
L 47.695681 101.36397 
L 47.712781 126.659425 
L 47.746981 76.068516 
L 47.798281 101.36397 
L 47.866681 101.36397 
L 47.969281 126.659425 
L 48.088981 101.36397 
L 48.174481 101.36397 
L 48.277081 76.068516 
L 48.396781 126.659425 
L 48.516481 76.068516 
L 48.550681 126.659425 
L 48.619081 101.36397 
L 48.721681 101.36397 
L 48.738781 126.659425 
L 48.824281 101.36397 
L 48.858481 76.068516 
L 48.926881 101.36397 
L 49.337281 101.36397 
L 49.371481 76.068516 
L 49.439881 101.36397 
L 49.491181 101.36397 
L 49.576681 126.659425 
L 49.593781 101.36397 
L 49.610881 76.068516 
L 49.662181 126.659425 
L 49.696381 101.36397 
L 49.713481 101.36397 
L 49.730581 126.659425 
L 49.816081 101.36397 
L 49.901581 50.773061 
L 49.850281 126.659425 
L 49.918681 101.36397 
L 49.935781 101.36397 
L 50.055481 126.659425 
L 50.175181 101.36397 
L 50.243581 101.36397 
L 50.329081 76.068516 
L 50.363281 126.659425 
L 50.482981 76.068516 
L 50.551381 101.36397 
L 50.585581 76.068516 
L 50.602681 76.068516 
L 50.739481 126.659425 
L 50.910481 126.659425 
L 51.030181 101.36397 
L 51.132781 126.659425 
L 51.235381 101.36397 
L 51.252481 126.659425 
L 51.337981 101.36397 
L 51.440581 101.36397 
L 51.526081 126.659425 
L 51.543181 101.36397 
L 51.782581 101.36397 
L 51.902281 76.068516 
L 52.039081 76.068516 
L 52.141681 126.659425 
L 52.158781 101.36397 
L 52.210081 101.36397 
L 52.295581 126.659425 
L 52.312681 101.36397 
L 52.483681 101.36397 
L 52.500781 76.068516 
L 52.586281 101.36397 
L 52.603381 101.36397 
L 52.671781 126.659425 
L 52.688881 76.068516 
L 52.705981 101.36397 
L 52.723081 101.36397 
L 52.791481 76.068516 
L 52.825681 126.659425 
L 52.962481 76.068516 
L 53.116381 76.068516 
L 53.133481 101.36397 
L 53.201881 76.068516 
L 53.218981 50.773061 
L 53.304481 76.068516 
L 53.321581 76.068516 
L 53.338681 50.773061 
L 53.389981 126.659425 
L 53.424181 76.068516 
L 53.441281 76.068516 
L 53.458381 101.36397 
L 53.543881 76.068516 
L 53.902981 76.068516 
L 53.920081 101.36397 
L 54.005581 76.068516 
L 54.262081 76.068516 
L 54.279181 126.659425 
L 54.364681 76.068516 
L 54.501481 76.068516 
L 54.518581 50.773061 
L 54.586981 76.068516 
L 54.604081 126.659425 
L 54.689581 76.068516 
L 55.288081 76.068516 
L 55.356481 101.36397 
L 55.390681 76.068516 
L 55.766881 76.068516 
L 55.783981 50.773061 
L 55.869481 76.068516 
L 55.989181 126.659425 
L 56.091781 76.068516 
L 56.108881 101.36397 
L 56.160181 126.659425 
L 56.211481 101.36397 
L 56.228581 101.36397 
L 56.348281 76.068516 
L 56.536381 76.068516 
L 56.553481 50.773061 
L 56.604781 101.36397 
L 56.621881 76.068516 
L 56.638981 101.36397 
L 56.724481 76.068516 
L 56.809981 76.068516 
L 56.827081 50.773061 
L 56.861281 101.36397 
L 56.912581 76.068516 
L 56.929681 126.659425 
L 57.015181 76.068516 
L 57.032281 76.068516 
L 57.083581 126.659425 
L 57.134881 76.068516 
L 57.169081 76.068516 
L 57.186181 101.36397 
L 57.271681 76.068516 
L 57.340081 76.068516 
L 57.357181 126.659425 
L 57.442681 76.068516 
L 57.596581 76.068516 
L 57.613681 50.773061 
L 57.699181 76.068516 
L 58.006981 76.068516 
L 58.126681 126.659425 
L 58.177981 76.068516 
L 58.229281 101.36397 
L 58.297681 76.068516 
L 58.314781 126.659425 
L 58.348981 76.068516 
L 58.417381 101.36397 
L 58.451581 101.36397 
L 58.571281 126.659425 
L 58.656781 101.36397 
L 58.673881 126.659425 
L 58.725181 126.659425 
L 58.844881 101.36397 
L 58.964581 126.659425 
L 59.032981 126.659425 
L 59.152681 101.36397 
L 59.186881 101.36397 
L 59.255281 126.659425 
L 59.289481 101.36397 
L 59.340781 101.36397 
L 59.460481 126.659425 
L 59.511781 126.659425 
L 59.563081 101.36397 
L 59.614381 126.659425 
L 59.905081 126.659425 
L 59.956381 101.36397 
L 60.007681 126.659425 
L 60.076081 126.659425 
L 60.093181 101.36397 
L 60.178681 126.659425 
L 60.247081 126.659425 
L 60.366781 101.36397 
L 60.383881 101.36397 
L 60.400981 126.659425 
L 60.486481 101.36397 
L 60.657481 101.36397 
L 60.777181 126.659425 
L 60.845581 126.659425 
L 60.879781 101.36397 
L 60.948181 126.659425 
L 61.820281 126.659425 
L 61.922881 101.36397 
L 62.042581 126.659425 
L 62.196481 126.659425 
L 62.299081 101.36397 
L 62.418781 126.659425 
L 63.769681 126.659425 
L 63.786781 101.36397 
L 63.872281 126.659425 
L 64.128781 126.659425 
L 64.248481 101.36397 
L 64.333981 126.659425 
L 64.299781 76.068516 
L 64.351081 101.36397 
L 64.368181 101.36397 
L 64.453681 76.068516 
L 64.402381 126.659425 
L 64.470781 101.36397 
L 64.487881 101.36397 
L 64.607581 76.068516 
L 64.744381 126.659425 
L 64.881181 50.773061 
L 65.000881 76.068516 
L 65.171881 76.068516 
L 65.206081 126.659425 
L 65.274481 76.068516 
L 65.428381 76.068516 
L 65.445481 101.36397 
L 65.530981 76.068516 
L 65.548081 76.068516 
L 65.650681 101.36397 
L 65.770381 76.068516 
L 65.821681 76.068516 
L 65.872981 101.36397 
L 65.924281 76.068516 
L 66.129481 76.068516 
L 66.197881 50.773061 
L 66.249181 101.36397 
L 66.368881 76.068516 
L 66.385981 76.068516 
L 66.403081 101.36397 
L 66.488581 76.068516 
L 66.505681 76.068516 
L 66.522781 101.36397 
L 66.608281 76.068516 
L 66.625381 50.773061 
L 66.710881 76.068516 
L 66.916081 76.068516 
L 66.984481 101.36397 
L 67.018681 76.068516 
L 67.121281 76.068516 
L 67.172581 101.36397 
L 67.223881 76.068516 
L 67.343581 76.068516 
L 67.360681 126.659425 
L 67.446181 76.068516 
L 67.856581 76.068516 
L 67.959181 101.36397 
L 67.993381 126.659425 
L 68.078881 76.068516 
L 68.113081 76.068516 
L 68.130181 101.36397 
L 68.215681 76.068516 
L 68.232781 76.068516 
L 68.249881 101.36397 
L 68.335381 76.068516 
L 68.386681 76.068516 
L 68.506381 101.36397 
L 68.626081 76.068516 
L 68.985181 76.068516 
L 69.036481 101.36397 
L 69.087781 76.068516 
L 69.104881 76.068516 
L 69.224581 101.36397 
L 69.241681 101.36397 
L 69.361381 76.068516 
L 69.378481 101.36397 
L 69.463981 76.068516 
L 69.600781 76.068516 
L 69.617881 126.659425 
L 69.703381 76.068516 
L 69.720481 101.36397 
L 69.805981 76.068516 
L 69.959881 76.068516 
L 69.976981 101.36397 
L 70.062481 76.068516 
L 70.130881 76.068516 
L 70.147981 126.659425 
L 70.233481 76.068516 
L 70.250581 76.068516 
L 70.267681 126.659425 
L 70.353181 76.068516 
L 70.387381 76.068516 
L 70.472881 101.36397 
L 70.489981 76.068516 
L 70.507081 76.068516 
L 70.524181 101.36397 
L 70.609681 76.068516 
L 70.678081 76.068516 
L 70.797781 126.659425 
L 70.814881 126.659425 
L 70.934581 76.068516 
L 71.020081 76.068516 
L 71.054281 50.773061 
L 71.122681 76.068516 
L 71.327881 76.068516 
L 71.413381 126.659425 
L 71.447581 101.36397 
L 71.464681 76.068516 
L 71.550181 101.36397 
L 71.669881 126.659425 
L 71.704081 126.659425 
L 71.823781 101.36397 
L 71.840881 101.36397 
L 71.892181 126.659425 
L 71.943481 101.36397 
L 72.046081 101.36397 
L 72.165781 126.659425 
L 72.234181 126.659425 
L 72.251281 76.068516 
L 72.336781 126.659425 
L 72.353881 126.659425 
L 72.473581 50.773061 
L 72.490681 76.068516 
L 72.507781 126.659425 
L 72.593281 101.36397 
L 72.644581 101.36397 
L 72.678781 76.068516 
L 72.747181 126.659425 
L 72.866881 101.36397 
L 73.020781 101.36397 
L 73.054981 126.659425 
L 73.123381 101.36397 
L 73.140481 101.36397 
L 73.174681 126.659425 
L 73.243081 101.36397 
L 73.294381 101.36397 
L 73.345681 126.659425 
L 73.396981 101.36397 
L 73.414081 101.36397 
L 73.533781 76.068516 
L 73.773181 76.068516 
L 73.909981 126.659425 
L 73.927081 126.659425 
L 74.046781 101.36397 
L 74.080981 101.36397 
L 74.200681 126.659425 
L 74.234881 101.36397 
L 74.303281 126.659425 
L 74.320381 126.659425 
L 74.440081 76.068516 
L 74.576881 126.659425 
L 74.696581 101.36397 
L 74.901781 101.36397 
L 75.021481 126.659425 
L 75.038581 76.068516 
L 75.124081 101.36397 
L 75.158281 101.36397 
L 75.260881 126.659425 
L 75.380581 101.36397 
L 75.397681 101.36397 
L 75.466081 126.659425 
L 75.500281 101.36397 
L 75.551581 101.36397 
L 75.654181 126.659425 
L 75.739681 101.36397 
L 75.756781 126.659425 
L 75.773881 126.659425 
L 75.893581 101.36397 
L 75.910681 101.36397 
L 75.927781 126.659425 
L 76.013281 101.36397 
L 76.081681 101.36397 
L 76.201381 76.068516 
L 76.286881 76.068516 
L 76.389481 126.659425 
L 76.457881 50.773061 
L 76.509181 76.068516 
L 76.628881 76.068516 
L 76.645981 101.36397 
L 76.731481 76.068516 
L 76.834081 76.068516 
L 76.868281 101.36397 
L 76.885381 50.773061 
L 76.936681 76.068516 
L 76.953781 76.068516 
L 76.970881 126.659425 
L 77.056381 76.068516 
L 77.073481 76.068516 
L 77.090581 126.659425 
L 77.176081 76.068516 
L 77.244481 76.068516 
L 77.364181 126.659425 
L 77.483881 50.773061 
L 77.586481 126.659425 
L 77.706181 76.068516 
L 77.740381 76.068516 
L 77.757481 101.36397 
L 77.842981 76.068516 
L 78.082381 76.068516 
L 78.184981 101.36397 
L 78.304681 76.068516 
L 78.338881 76.068516 
L 78.355981 50.773061 
L 78.407281 101.36397 
L 78.424381 101.36397 
L 78.544081 126.659425 
L 78.578281 126.659425 
L 78.697981 101.36397 
L 78.715081 101.36397 
L 78.732181 76.068516 
L 78.749281 126.659425 
L 78.817681 101.36397 
L 79.005781 101.36397 
L 79.125481 126.659425 
L 79.159681 76.068516 
L 79.228081 101.36397 
L 79.347781 126.659425 
L 79.467481 101.36397 
L 79.501681 101.36397 
L 79.604281 126.659425 
L 79.741081 76.068516 
L 79.843681 126.659425 
L 79.860781 101.36397 
L 80.134381 101.36397 
L 80.151481 126.659425 
L 80.236981 101.36397 
L 80.373781 101.36397 
L 80.442181 126.659425 
L 80.476381 101.36397 
L 80.493481 101.36397 
L 80.613181 126.659425 
L 80.715781 76.068516 
L 80.835481 126.659425 
L 80.852581 126.659425 
L 80.869681 101.36397 
L 80.955181 126.659425 
L 80.989381 126.659425 
L 81.126181 76.068516 
L 81.228781 76.068516 
L 81.245881 101.36397 
L 81.331381 76.068516 
L 81.348481 76.068516 
L 81.485281 126.659425 
L 81.502381 126.659425 
L 81.622081 101.36397 
L 81.690481 126.659425 
L 81.724681 101.36397 
L 81.775981 101.36397 
L 81.895681 76.068516 
L 82.152181 76.068516 
L 82.271881 101.36397 
L 82.442881 101.36397 
L 82.494181 126.659425 
L 82.545481 101.36397 
L 82.596781 101.36397 
L 82.613881 126.659425 
L 82.699381 101.36397 
L 82.716481 101.36397 
L 82.836181 126.659425 
L 82.955881 101.36397 
L 82.972981 101.36397 
L 83.007181 126.659425 
L 83.075581 101.36397 
L 83.092681 101.36397 
L 83.126881 76.068516 
L 83.212381 126.659425 
L 83.263681 126.659425 
L 83.383381 101.36397 
L 83.400481 101.36397 
L 83.520181 126.659425 
L 83.554381 126.659425 
L 83.674081 101.36397 
L 83.708281 101.36397 
L 83.725381 126.659425 
L 83.810881 101.36397 
L 83.879281 101.36397 
L 83.981881 126.659425 
L 84.101581 101.36397 
L 84.340981 101.36397 
L 84.358081 126.659425 
L 84.443581 101.36397 
L 84.529081 101.36397 
L 84.546181 126.659425 
L 84.631681 101.36397 
L 84.700081 101.36397 
L 84.751381 126.659425 
L 84.802681 101.36397 
L 84.853981 101.36397 
L 84.922381 126.659425 
L 84.956581 101.36397 
L 84.973681 76.068516 
L 85.059181 101.36397 
L 85.127581 101.36397 
L 85.230181 126.659425 
L 85.349881 101.36397 
L 85.469581 101.36397 
L 85.537981 126.659425 
L 85.572181 101.36397 
L 85.640581 101.36397 
L 85.657681 126.659425 
L 85.691881 76.068516 
L 85.726081 76.068516 
L 85.777381 101.36397 
L 85.828681 50.773061 
L 85.948381 76.068516 
L 86.085181 76.068516 
L 86.153581 126.659425 
L 86.204881 101.36397 
L 86.324581 76.068516 
L 86.478481 76.068516 
L 86.495581 101.36397 
L 86.581081 76.068516 
L 86.752081 76.068516 
L 86.769181 126.659425 
L 86.854681 76.068516 
L 86.923081 101.36397 
L 86.957281 76.068516 
L 87.042781 76.068516 
L 87.059881 126.659425 
L 87.128281 50.773061 
L 87.145381 76.068516 
L 87.555781 76.068516 
L 87.675481 101.36397 
L 87.743881 76.068516 
L 87.760981 101.36397 
L 87.795181 126.659425 
L 87.863581 101.36397 
L 87.931981 101.36397 
L 88.051681 126.659425 
L 88.137181 76.068516 
L 88.171381 101.36397 
L 88.291081 101.36397 
L 88.410781 76.068516 
L 88.427881 101.36397 
L 88.513381 76.068516 
L 88.906681 76.068516 
L 88.923781 126.659425 
L 89.009281 76.068516 
L 89.128981 76.068516 
L 89.248681 126.659425 
L 89.368381 101.36397 
L 89.470981 101.36397 
L 89.590681 126.659425 
L 89.641981 76.068516 
L 89.710381 101.36397 
L 89.812981 101.36397 
L 89.898481 126.659425 
L 89.915581 101.36397 
L 89.949781 76.068516 
L 90.018181 101.36397 
L 90.069481 76.068516 
L 90.120781 126.659425 
L 90.240481 101.36397 
L 90.308881 101.36397 
L 90.325981 126.659425 
L 90.411481 101.36397 
L 90.565381 101.36397 
L 90.685081 126.659425 
L 90.736381 126.659425 
L 90.856081 101.36397 
L 91.061281 101.36397 
L 91.078381 126.659425 
L 91.163881 101.36397 
L 91.266481 101.36397 
L 91.386181 126.659425 
L 91.403281 126.659425 
L 91.522981 101.36397 
L 91.591381 101.36397 
L 91.659781 126.659425 
L 91.693981 101.36397 
L 91.813681 101.36397 
L 91.830781 126.659425 
L 91.916281 101.36397 
L 91.933381 101.36397 
L 92.001781 126.659425 
L 92.035981 101.36397 
L 92.275381 101.36397 
L 92.292481 76.068516 
L 92.377981 101.36397 
L 92.514781 101.36397 
L 92.634481 126.659425 
L 92.754181 101.36397 
L 92.856781 126.659425 
L 92.925181 101.36397 
L 92.959381 126.659425 
L 92.976481 126.659425 
L 93.010681 76.068516 
L 93.079081 126.659425 
L 93.113281 76.068516 
L 93.198781 101.36397 
L 93.267181 101.36397 
L 93.369781 126.659425 
L 93.489481 76.068516 
L 93.506581 126.659425 
L 93.592081 101.36397 
L 93.745981 101.36397 
L 93.763081 126.659425 
L 93.848581 101.36397 
L 93.934081 101.36397 
L 93.985381 126.659425 
L 94.036681 101.36397 
L 94.139281 101.36397 
L 94.241881 126.659425 
L 94.361581 101.36397 
L 94.378681 101.36397 
L 94.395781 126.659425 
L 94.481281 101.36397 
L 94.549681 101.36397 
L 94.669381 126.659425 
L 95.233681 126.659425 
L 95.353381 101.36397 
L 95.678281 101.36397 
L 95.797981 126.659425 
L 95.917681 101.36397 
L 96.139981 101.36397 
L 96.259681 126.659425 
L 96.293881 126.659425 
L 96.413581 101.36397 
L 96.481981 101.36397 
L 96.601681 126.659425 
L 96.738481 76.068516 
L 96.909481 76.068516 
L 96.926581 101.36397 
L 97.012081 76.068516 
L 97.268581 76.068516 
L 97.319881 126.659425 
L 97.371181 76.068516 
L 97.405381 76.068516 
L 97.473781 126.659425 
L 97.525081 101.36397 
L 97.576381 101.36397 
L 97.610581 76.068516 
L 97.696081 126.659425 
L 97.713181 126.659425 
L 97.764481 101.36397 
L 97.815781 126.659425 
L 97.832881 126.659425 
L 97.849981 50.773061 
L 97.952581 76.068516 
L 98.157781 76.068516 
L 98.174881 101.36397 
L 98.260381 76.068516 
L 98.602381 76.068516 
L 98.619481 50.773061 
L 98.704981 76.068516 
L 98.841781 76.068516 
L 98.858881 101.36397 
L 98.944381 76.068516 
L 99.269281 76.068516 
L 99.286381 101.36397 
L 99.371881 76.068516 
L 99.730981 76.068516 
L 99.748081 101.36397 
L 99.816481 50.773061 
L 99.833581 76.068516 
L 100.021681 76.068516 
L 100.038781 50.773061 
L 100.107181 76.068516 
L 100.124281 126.659425 
L 100.209781 76.068516 
L 100.278181 76.068516 
L 100.346581 126.659425 
L 100.380781 76.068516 
L 100.500481 101.36397 
L 100.517581 101.36397 
L 100.637281 126.659425 
L 100.756981 76.068516 
L 100.808281 126.659425 
L 100.859581 76.068516 
L 100.893781 76.068516 
L 100.910881 101.36397 
L 100.996381 76.068516 
L 101.064781 76.068516 
L 101.081881 101.36397 
L 101.098981 50.773061 
L 101.167381 76.068516 
L 101.269981 76.068516 
L 101.338381 101.36397 
L 101.372581 76.068516 
L 101.509381 76.068516 
L 101.629081 126.659425 
L 101.748781 76.068516 
L 101.765881 101.36397 
L 101.834281 76.068516 
L 101.868481 50.773061 
L 101.919781 76.068516 
L 101.988181 101.36397 
L 102.022381 76.068516 
L 102.056581 76.068516 
L 102.073681 101.36397 
L 102.159181 76.068516 
L 102.210481 76.068516 
L 102.261781 101.36397 
L 102.295981 50.773061 
L 102.313081 76.068516 
L 102.518281 76.068516 
L 102.569581 50.773061 
L 102.655081 126.659425 
L 102.774781 101.36397 
L 102.843181 126.659425 
L 102.877381 101.36397 
L 102.928681 101.36397 
L 103.031281 126.659425 
L 103.150981 101.36397 
L 103.253581 101.36397 
L 103.270681 126.659425 
L 103.304881 76.068516 
L 103.356181 101.36397 
L 103.561381 101.36397 
L 103.681081 76.068516 
L 103.749481 76.068516 
L 103.766581 50.773061 
L 103.834981 101.36397 
L 103.852081 76.068516 
L 103.869181 76.068516 
L 103.937581 101.36397 
L 103.971781 76.068516 
L 104.125681 76.068516 
L 104.142781 101.36397 
L 104.228281 76.068516 
L 104.245381 76.068516 
L 104.347981 101.36397 
L 104.467681 76.068516 
L 104.501881 76.068516 
L 104.518981 126.659425 
L 104.604481 101.36397 
L 104.672881 101.36397 
L 104.758381 126.659425 
L 104.775481 101.36397 
L 104.809681 101.36397 
L 104.860981 126.659425 
L 104.912281 101.36397 
L 105.066181 101.36397 
L 105.185881 126.659425 
L 105.202981 76.068516 
L 105.288481 126.659425 
L 105.408181 101.36397 
L 105.459481 101.36397 
L 105.579181 76.068516 
L 105.613381 126.659425 
L 105.681781 101.36397 
L 105.698881 76.068516 
L 105.767281 126.659425 
L 105.955381 126.659425 
L 106.075081 101.36397 
L 106.126381 101.36397 
L 106.228981 126.659425 
L 106.348681 101.36397 
L 106.382881 101.36397 
L 106.502581 126.659425 
L 106.622281 101.36397 
L 106.639381 126.659425 
L 106.673581 76.068516 
L 106.707781 101.36397 
L 106.724881 76.068516 
L 106.741981 126.659425 
L 106.793281 126.659425 
L 106.810381 126.659425 
L 106.861681 76.068516 
L 106.912981 101.36397 
L 106.964281 101.36397 
L 106.998481 126.659425 
L 107.015581 76.068516 
L 107.049781 76.068516 
L 107.254981 76.068516 
L 107.289181 126.659425 
L 107.357581 76.068516 
L 107.425981 76.068516 
L 107.443081 101.36397 
L 107.528581 76.068516 
L 107.545681 76.068516 
L 107.562781 101.36397 
L 107.648281 76.068516 
L 108.041581 76.068516 
L 108.058681 101.36397 
L 108.144181 76.068516 
L 108.161281 50.773061 
L 108.246781 76.068516 
L 108.383581 76.068516 
L 108.400681 101.36397 
L 108.486181 76.068516 
L 108.503281 76.068516 
L 108.537481 101.36397 
L 108.605881 76.068516 
L 108.640081 76.068516 
L 108.725581 101.36397 
L 108.742681 76.068516 
L 108.947881 76.068516 
L 108.999181 101.36397 
L 108.982081 50.773061 
L 109.050481 76.068516 
L 109.067581 76.068516 
L 109.084681 50.773061 
L 109.135981 101.36397 
L 109.170181 76.068516 
L 109.187281 76.068516 
L 109.204381 101.36397 
L 109.289881 76.068516 
L 109.392481 76.068516 
L 109.409581 101.36397 
L 109.495081 76.068516 
L 109.563481 76.068516 
L 109.580581 101.36397 
L 109.666081 76.068516 
L 109.785781 76.068516 
L 109.802881 50.773061 
L 109.819981 126.659425 
L 109.888381 76.068516 
L 109.990981 76.068516 
L 110.042281 126.659425 
L 110.093581 76.068516 
L 110.161981 76.068516 
L 110.196181 101.36397 
L 110.264581 76.068516 
L 110.315881 76.068516 
L 110.332981 126.659425 
L 110.418481 76.068516 
L 110.538181 76.068516 
L 110.555281 101.36397 
L 110.640781 76.068516 
L 110.657881 76.068516 
L 110.674981 101.36397 
L 110.760481 76.068516 
L 110.845981 76.068516 
L 110.948581 126.659425 
L 111.068281 76.068516 
L 111.358981 76.068516 
L 111.376081 126.659425 
L 111.461581 76.068516 
L 111.752281 76.068516 
L 111.820681 101.36397 
L 111.837781 50.773061 
L 111.854881 76.068516 
L 111.940381 76.068516 
L 111.957481 101.36397 
L 112.042981 76.068516 
L 112.145581 76.068516 
L 112.248181 101.36397 
L 112.316581 126.659425 
L 112.367881 76.068516 
L 112.521781 76.068516 
L 112.538881 126.659425 
L 112.555981 50.773061 
L 112.624381 76.068516 
L 112.778281 76.068516 
L 112.795381 101.36397 
L 112.829581 50.773061 
L 112.880881 76.068516 
L 113.051881 76.068516 
L 113.068981 101.36397 
L 113.154481 76.068516 
L 113.205781 76.068516 
L 113.274181 126.659425 
L 113.308381 76.068516 
L 113.359681 76.068516 
L 113.445181 126.659425 
L 113.479381 101.36397 
L 113.513581 101.36397 
L 113.633281 126.659425 
L 113.684581 126.659425 
L 113.821381 76.068516 
L 113.958181 76.068516 
L 114.060781 101.36397 
L 114.163381 76.068516 
L 114.180481 101.36397 
L 114.265981 76.068516 
L 114.317281 76.068516 
L 114.436981 101.36397 
L 114.590881 101.36397 
L 114.607981 126.659425 
L 114.693481 101.36397 
L 114.778981 101.36397 
L 114.796081 126.659425 
L 114.881581 101.36397 
L 114.932881 101.36397 
L 114.949981 126.659425 
L 115.035481 101.36397 
L 115.103881 101.36397 
L 115.120981 126.659425 
L 115.206481 101.36397 
L 115.309081 101.36397 
L 115.326181 76.068516 
L 115.411681 101.36397 
L 115.514281 101.36397 
L 115.531381 126.659425 
L 115.616881 101.36397 
L 115.736581 101.36397 
L 115.753681 76.068516 
L 115.839181 101.36397 
L 116.300881 101.36397 
L 116.420581 76.068516 
L 116.574481 76.068516 
L 116.711281 126.659425 
L 116.830981 76.068516 
L 116.848081 76.068516 
L 116.967781 126.659425 
L 117.087481 101.36397 
L 117.138781 126.659425 
L 117.190081 101.36397 
L 117.224281 101.36397 
L 117.292681 126.659425 
L 117.309781 76.068516 
L 117.326881 101.36397 
L 117.361081 101.36397 
L 117.378181 126.659425 
L 117.463681 101.36397 
L 118.096381 101.36397 
L 118.130581 76.068516 
L 118.198981 126.659425 
L 118.318681 101.36397 
L 118.900081 101.36397 
L 118.985581 126.659425 
L 119.002681 101.36397 
L 119.088181 101.36397 
L 119.105281 126.659425 
L 119.190781 101.36397 
L 119.276281 101.36397 
L 119.293381 126.659425 
L 119.378881 101.36397 
L 119.720881 101.36397 
L 119.737981 76.068516 
L 119.806381 126.659425 
L 119.926081 126.659425 
L 119.960281 101.36397 
L 120.028681 126.659425 
L 120.045781 126.659425 
L 120.165481 101.36397 
L 120.216781 101.36397 
L 120.268081 126.659425 
L 120.319381 101.36397 
L 120.763981 101.36397 
L 120.849481 126.659425 
L 120.866581 101.36397 
L 120.883681 101.36397 
L 120.900781 126.659425 
L 120.986281 101.36397 
L 121.978081 101.36397 
L 122.080681 126.659425 
L 122.200381 101.36397 
L 122.320081 101.36397 
L 122.337181 126.659425 
L 122.422681 101.36397 
L 122.473981 101.36397 
L 122.508181 126.659425 
L 122.576581 101.36397 
L 122.747581 101.36397 
L 122.867281 126.659425 
L 122.969881 101.36397 
L 123.072481 126.659425 
L 123.175081 101.36397 
L 123.294781 126.659425 
L 124.389181 126.659425 
L 124.508881 101.36397 
L 124.679881 101.36397 
L 124.696981 126.659425 
L 124.782481 101.36397 
L 124.816681 101.36397 
L 124.936381 126.659425 
L 124.987681 126.659425 
L 125.107381 76.068516 
L 125.227081 76.068516 
L 125.244181 50.773061 
L 125.329681 76.068516 
L 125.363881 76.068516 
L 125.380981 101.36397 
L 125.466481 76.068516 
L 125.534881 76.068516 
L 125.551981 126.659425 
L 125.637481 76.068516 
L 125.671681 76.068516 
L 125.688781 126.659425 
L 125.774281 101.36397 
L 125.893981 76.068516 
L 126.082081 76.068516 
L 126.099181 101.36397 
L 126.184681 76.068516 
L 126.235981 76.068516 
L 126.253081 50.773061 
L 126.338581 76.068516 
L 126.475381 76.068516 
L 126.560881 126.659425 
L 126.577981 76.068516 
L 126.783181 76.068516 
L 126.902881 101.36397 
L 127.022581 76.068516 
L 127.039681 76.068516 
L 127.056781 50.773061 
L 127.142281 76.068516 
L 127.193581 76.068516 
L 127.279081 126.659425 
L 127.313281 101.36397 
L 127.398781 76.068516 
L 127.415881 126.659425 
L 127.501381 76.068516 
L 127.535581 76.068516 
L 127.552681 50.773061 
L 127.603981 101.36397 
L 127.638181 76.068516 
L 127.963081 76.068516 
L 128.031481 101.36397 
L 128.065681 76.068516 
L 128.134081 76.068516 
L 128.151181 101.36397 
L 128.236681 76.068516 
L 128.253781 76.068516 
L 128.373481 126.659425 
L 128.476081 50.773061 
L 128.493181 76.068516 
L 128.612881 76.068516 
L 128.629981 126.659425 
L 128.715481 76.068516 
L 128.886481 76.068516 
L 128.903581 126.659425 
L 128.989081 76.068516 
L 129.142981 76.068516 
L 129.211381 126.659425 
L 129.262681 101.36397 
L 129.313981 101.36397 
L 129.416581 126.659425 
L 129.536281 101.36397 
L 129.570481 101.36397 
L 129.690181 126.659425 
L 129.724381 50.773061 
L 129.826981 76.068516 
L 129.929581 101.36397 
L 130.015081 126.659425 
L 130.032181 50.773061 
L 130.151881 126.659425 
L 130.220281 126.659425 
L 130.288681 101.36397 
L 130.322881 126.659425 
L 130.339981 126.659425 
L 130.459681 101.36397 
L 130.528081 101.36397 
L 130.613581 126.659425 
L 130.630681 101.36397 
L 130.801681 101.36397 
L 130.921381 126.659425 
L 131.058181 126.659425 
L 131.126581 101.36397 
L 131.160781 126.659425 
L 131.177881 126.659425 
L 131.263381 101.36397 
L 131.280481 126.659425 
L 131.331781 126.659425 
L 131.451481 101.36397 
L 131.571181 126.659425 
L 131.588281 101.36397 
L 131.673781 126.659425 
L 131.793481 126.659425 
L 131.878981 101.36397 
L 131.896081 126.659425 
L 131.930281 126.659425 
L 132.049981 101.36397 
L 132.101281 126.659425 
L 132.152581 101.36397 
L 132.169681 101.36397 
L 132.289381 126.659425 
L 132.409081 101.36397 
L 132.460381 126.659425 
L 132.511681 101.36397 
L 132.545881 101.36397 
L 132.597181 126.659425 
L 132.665581 76.068516 
L 132.716881 76.068516 
L 132.836581 101.36397 
L 132.973381 50.773061 
L 133.041781 126.659425 
L 133.093081 76.068516 
L 133.195681 76.068516 
L 133.315381 126.659425 
L 133.435081 101.36397 
L 133.862581 101.36397 
L 133.982281 126.659425 
L 134.084881 101.36397 
L 134.204581 126.659425 
L 134.221681 126.659425 
L 134.238781 101.36397 
L 134.324281 126.659425 
L 134.341381 126.659425 
L 134.426881 101.36397 
L 134.443981 126.659425 
L 134.495281 126.659425 
L 134.614981 101.36397 
L 134.666281 101.36397 
L 134.751781 126.659425 
L 134.768881 101.36397 
L 134.803081 101.36397 
L 134.888581 126.659425 
L 134.905681 101.36397 
L 134.922781 101.36397 
L 134.956981 126.659425 
L 135.025381 101.36397 
L 135.059581 101.36397 
L 135.145081 76.068516 
L 135.162181 126.659425 
L 135.298981 76.068516 
L 135.333181 76.068516 
L 135.350281 126.659425 
L 135.435781 76.068516 
L 135.623881 76.068516 
L 135.640981 50.773061 
L 135.726481 76.068516 
L 136.222381 76.068516 
L 136.239481 126.659425 
L 136.324981 76.068516 
L 136.427581 76.068516 
L 136.461781 50.773061 
L 136.530181 126.659425 
L 136.649881 76.068516 
L 136.735381 76.068516 
L 136.752481 101.36397 
L 136.837981 76.068516 
L 137.111581 76.068516 
L 137.248381 126.659425 
L 137.282581 126.659425 
L 137.402281 101.36397 
L 137.453581 126.659425 
L 137.487781 101.36397 
L 137.556181 50.773061 
L 137.607481 76.068516 
L 137.641681 76.068516 
L 137.710081 126.659425 
L 137.744281 76.068516 
L 137.829781 76.068516 
L 137.846881 126.659425 
L 137.932381 101.36397 
L 137.949481 101.36397 
L 137.966581 126.659425 
L 137.983681 76.068516 
L 138.034981 76.068516 
L 138.052081 50.773061 
L 138.137581 76.068516 
L 138.171781 76.068516 
L 138.291481 101.36397 
L 138.411181 76.068516 
L 138.582181 76.068516 
L 138.599281 101.36397 
L 138.616381 50.773061 
L 138.684781 76.068516 
L 138.872881 76.068516 
L 138.975481 101.36397 
L 139.009681 76.068516 
L 139.078081 101.36397 
L 139.146481 101.36397 
L 139.249081 126.659425 
L 139.368781 101.36397 
L 139.402981 101.36397 
L 139.522681 126.659425 
L 140.497381 126.659425 
L 140.565781 101.36397 
L 140.599981 126.659425 
L 140.617081 126.659425 
L 140.736781 101.36397 
L 140.822281 101.36397 
L 140.941981 126.659425 
L 142.942681 126.659425 
L 143.062381 101.36397 
L 143.216281 101.36397 
L 143.267581 76.068516 
L 143.318881 126.659425 
L 143.438581 76.068516 
L 143.455681 76.068516 
L 143.575381 126.659425 
L 143.695081 76.068516 
L 143.712181 76.068516 
L 143.831881 126.659425 
L 143.934481 76.068516 
L 143.951581 101.36397 
L 143.985781 101.36397 
L 144.088381 126.659425 
L 144.122581 101.36397 
L 144.190981 126.659425 
L 144.943381 126.659425 
L 144.977581 101.36397 
L 145.045981 126.659425 
L 145.148581 126.659425 
L 145.165681 101.36397 
L 145.251181 126.659425 
L 145.627381 126.659425 
L 145.747081 76.068516 
L 145.764181 76.068516 
L 145.781281 50.773061 
L 145.798381 101.36397 
L 145.866781 76.068516 
L 146.071981 76.068516 
L 146.157481 50.773061 
L 146.174581 76.068516 
L 146.396881 76.068516 
L 146.413981 126.659425 
L 146.499481 76.068516 
L 146.516581 76.068516 
L 146.550781 101.36397 
L 146.619181 76.068516 
L 146.807281 76.068516 
L 146.824381 50.773061 
L 146.909881 76.068516 
L 146.944081 76.068516 
L 146.961181 101.36397 
L 146.995381 50.773061 
L 147.046681 76.068516 
L 147.080881 76.068516 
L 147.183481 101.36397 
L 147.303181 76.068516 
L 147.320281 76.068516 
L 147.405781 101.36397 
L 147.388681 50.773061 
L 147.422881 76.068516 
L 147.439981 50.773061 
L 147.525481 76.068516 
L 147.559681 101.36397 
L 147.610981 50.773061 
L 147.628081 76.068516 
L 147.730681 50.773061 
L 147.799081 101.36397 
L 147.833281 76.068516 
L 147.901681 50.773061 
L 147.935881 76.068516 
L 147.970081 76.068516 
L 148.038481 50.773061 
L 148.072681 76.068516 
L 148.089781 76.068516 
L 148.141081 50.773061 
L 148.192381 76.068516 
L 148.363381 76.068516 
L 148.448881 101.36397 
L 148.465981 76.068516 
L 148.534381 76.068516 
L 148.551481 50.773061 
L 148.636981 76.068516 
L 148.739581 76.068516 
L 148.756681 101.36397 
L 148.842181 76.068516 
L 148.893481 76.068516 
L 149.013181 101.36397 
L 149.132881 76.068516 
L 149.423581 76.068516 
L 149.509081 126.659425 
L 149.543281 101.36397 
L 149.577481 101.36397 
L 149.697181 126.659425 
L 149.816881 101.36397 
L 149.833981 126.659425 
L 149.902381 76.068516 
L 150.141781 76.068516 
L 150.158881 101.36397 
L 150.227281 76.068516 
L 150.346981 50.773061 
L 150.449581 101.36397 
L 150.466681 50.773061 
L 150.535081 126.659425 
L 150.552181 76.068516 
L 150.654781 76.068516 
L 150.706081 50.773061 
L 150.791581 126.659425 
L 151.065181 126.659425 
L 151.184881 50.773061 
L 151.201981 76.068516 
L 151.355881 76.068516 
L 151.458481 101.36397 
L 151.578181 76.068516 
L 151.732081 76.068516 
L 151.851781 101.36397 
L 151.903081 101.36397 
L 152.022781 126.659425 
L 153.801181 126.659425 
L 153.869581 76.068516 
L 153.920881 101.36397 
L 153.937981 101.36397 
L 153.972181 76.068516 
L 154.057681 126.659425 
L 154.177381 76.068516 
L 154.228681 126.659425 
L 154.279981 76.068516 
L 154.314181 76.068516 
L 154.399681 126.659425 
L 154.416781 101.36397 
L 154.502281 126.659425 
L 154.536481 76.068516 
L 154.553581 76.068516 
L 154.690381 126.659425 
L 154.827181 76.068516 
L 154.844281 76.068516 
L 154.929781 126.659425 
L 154.946881 101.36397 
L 154.963981 76.068516 
L 155.032381 126.659425 
L 155.049481 126.659425 
L 155.117881 76.068516 
L 155.169181 101.36397 
L 155.237581 101.36397 
L 155.323081 76.068516 
L 155.340181 101.36397 
L 155.374381 101.36397 
L 155.391481 76.068516 
L 155.476981 101.36397 
L 155.596681 126.659425 
L 155.733481 76.068516 
L 155.801881 126.659425 
L 155.853181 101.36397 
L 155.904481 101.36397 
L 156.024181 76.068516 
L 156.092581 101.36397 
L 156.126781 76.068516 
L 156.212281 76.068516 
L 156.229381 101.36397 
L 156.314881 76.068516 
L 156.331981 76.068516 
L 156.434581 126.659425 
L 156.451681 101.36397 
L 156.502981 101.36397 
L 156.554281 126.659425 
L 156.605581 101.36397 
L 156.622681 101.36397 
L 156.639781 126.659425 
L 156.725281 101.36397 
L 157.238281 101.36397 
L 157.357981 126.659425 
L 157.477681 101.36397 
L 157.546081 101.36397 
L 157.665781 126.659425 
L 157.802581 76.068516 
L 158.110381 76.068516 
L 158.127481 101.36397 
L 158.212981 76.068516 
L 158.247181 76.068516 
L 158.264281 101.36397 
L 158.349781 76.068516 
L 158.383981 76.068516 
L 158.401081 50.773061 
L 158.452381 101.36397 
L 158.486581 76.068516 
L 158.503681 76.068516 
L 158.520781 101.36397 
L 158.606281 76.068516 
L 158.691781 76.068516 
L 158.811481 101.36397 
L 158.828581 50.773061 
L 158.914081 76.068516 
L 158.931181 76.068516 
L 158.965381 101.36397 
L 159.033781 76.068516 
L 159.290281 76.068516 
L 159.409981 101.36397 
L 159.427081 101.36397 
L 159.546781 76.068516 
L 159.615181 76.068516 
L 159.632281 50.773061 
L 159.717781 76.068516 
L 159.769081 76.068516 
L 159.786181 50.773061 
L 159.854581 101.36397 
L 159.871681 101.36397 
L 159.991381 76.068516 
L 160.008481 76.068516 
L 160.025581 101.36397 
L 160.076881 50.773061 
L 160.111081 76.068516 
L 160.230781 76.068516 
L 160.350481 101.36397 
L 160.384681 101.36397 
L 160.418881 126.659425 
L 160.435981 76.068516 
L 160.470181 76.068516 
L 160.521481 76.068516 
L 160.641181 101.36397 
L 160.760881 101.36397 
L 160.777981 126.659425 
L 160.829281 76.068516 
L 160.863481 101.36397 
L 160.897681 101.36397 
L 160.948981 76.068516 
L 160.983181 101.36397 
L 161.085781 126.659425 
L 161.205481 101.36397 
L 161.290981 126.659425 
L 161.308081 101.36397 
L 161.325181 101.36397 
L 161.393581 126.659425 
L 161.410681 101.36397 
L 161.513281 50.773061 
L 161.615881 101.36397 
L 161.735581 76.068516 
L 161.752681 126.659425 
L 161.838181 101.36397 
L 161.923681 76.068516 
L 161.940781 126.659425 
L 162.026281 76.068516 
L 162.145981 101.36397 
L 162.180181 101.36397 
L 162.265681 126.659425 
L 162.282781 101.36397 
L 162.402481 101.36397 
L 162.487981 126.659425 
L 162.505081 101.36397 
L 162.539281 101.36397 
L 162.556381 126.659425 
L 162.573481 76.068516 
L 162.641881 101.36397 
L 162.710281 101.36397 
L 162.795781 126.659425 
L 162.812881 101.36397 
L 162.864181 101.36397 
L 162.915481 76.068516 
L 162.966781 126.659425 
L 163.086481 101.36397 
L 163.189081 101.36397 
L 163.291681 126.659425 
L 163.308781 76.068516 
L 163.394281 101.36397 
L 163.513981 126.659425 
L 163.650781 76.068516 
L 163.684981 126.659425 
L 163.753381 101.36397 
L 163.873081 101.36397 
L 163.975681 126.659425 
L 164.095381 101.36397 
L 164.163781 101.36397 
L 164.215081 126.659425 
L 164.266381 101.36397 
L 164.334781 101.36397 
L 164.420281 126.659425 
L 164.437381 101.36397 
L 164.454481 101.36397 
L 164.574181 126.659425 
L 164.693881 101.36397 
L 164.710981 126.659425 
L 164.762281 76.068516 
L 164.796481 101.36397 
L 164.813581 101.36397 
L 164.864881 126.659425 
L 164.933281 76.068516 
L 164.950381 76.068516 
L 165.087181 126.659425 
L 165.223981 126.659425 
L 165.343681 76.068516 
L 165.463381 126.659425 
L 165.565981 101.36397 
L 165.685681 126.659425 
L 165.805381 101.36397 
L 165.839581 101.36397 
L 165.890881 126.659425 
L 165.942181 101.36397 
L 166.061881 101.36397 
L 166.078981 76.068516 
L 166.096081 126.659425 
L 166.164481 101.36397 
L 166.181581 101.36397 
L 166.284181 126.659425 
L 166.403881 101.36397 
L 166.455181 101.36397 
L 166.574881 126.659425 
L 166.626181 101.36397 
L 166.677481 126.659425 
L 166.711681 126.659425 
L 166.814281 101.36397 
L 166.916881 126.659425 
L 167.036581 101.36397 
L 167.070781 101.36397 
L 167.173381 126.659425 
L 167.293081 101.36397 
L 167.310181 101.36397 
L 167.327281 126.659425 
L 167.412781 101.36397 
L 167.464081 101.36397 
L 167.566681 126.659425 
L 167.686381 101.36397 
L 167.754781 101.36397 
L 167.823181 126.659425 
L 167.857381 101.36397 
L 167.874481 101.36397 
L 167.994181 126.659425 
L 168.062581 76.068516 
L 168.096781 126.659425 
L 168.130981 126.659425 
L 168.250681 101.36397 
L 168.592681 101.36397 
L 168.712381 126.659425 
L 168.849181 76.068516 
L 168.985981 126.659425 
L 169.003081 126.659425 
L 169.071481 76.068516 
L 169.105681 126.659425 
L 169.122781 126.659425 
L 169.242481 101.36397 
L 169.259581 101.36397 
L 169.327981 126.659425 
L 169.362181 101.36397 
L 169.464781 101.36397 
L 169.550281 126.659425 
L 169.567381 101.36397 
L 169.584481 101.36397 
L 169.687081 126.659425 
L 169.806781 76.068516 
L 169.943581 126.659425 
L 170.063281 101.36397 
L 170.285581 101.36397 
L 170.405281 126.659425 
L 170.524981 101.36397 
L 170.542081 101.36397 
L 170.576281 76.068516 
L 170.644681 101.36397 
L 170.969581 101.36397 
L 171.020881 126.659425 
L 171.037981 76.068516 
L 171.055081 76.068516 
L 171.174781 76.068516 
L 171.260281 126.659425 
L 171.277381 76.068516 
L 171.311581 76.068516 
L 171.448381 126.659425 
L 171.568081 76.068516 
L 171.756181 76.068516 
L 171.773281 101.36397 
L 171.824581 50.773061 
L 171.858781 76.068516 
L 171.927181 76.068516 
L 171.995581 101.36397 
L 172.029781 76.068516 
L 172.132381 76.068516 
L 172.252081 101.36397 
L 172.269181 76.068516 
L 172.337581 101.36397 
L 172.457281 126.659425 
L 172.508581 126.659425 
L 172.576981 76.068516 
L 172.611181 101.36397 
L 172.662481 126.659425 
L 172.696681 76.068516 
L 172.713781 76.068516 
L 172.747981 50.773061 
L 172.850581 126.659425 
L 172.936081 76.068516 
L 172.953181 101.36397 
L 172.987381 101.36397 
L 173.107081 76.068516 
L 173.124181 76.068516 
L 173.226781 101.36397 
L 173.260981 76.068516 
L 173.329381 101.36397 
L 173.363581 101.36397 
L 173.449081 76.068516 
L 173.466181 101.36397 
L 173.517481 101.36397 
L 173.620081 76.068516 
L 173.756881 126.659425 
L 173.859481 76.068516 
L 173.979181 126.659425 
L 174.098881 76.068516 
L 174.201481 126.659425 
L 174.321181 76.068516 
L 174.355381 50.773061 
L 174.423781 101.36397 
L 174.457981 126.659425 
L 174.543481 76.068516 
L 174.646081 126.659425 
L 174.782881 76.068516 
L 174.902581 76.068516 
L 175.039381 126.659425 
L 175.176181 76.068516 
L 175.227481 76.068516 
L 175.261681 126.659425 
L 175.347181 101.36397 
L 175.449781 101.36397 
L 175.535281 76.068516 
L 175.518181 126.659425 
L 175.552381 101.36397 
L 175.723381 101.36397 
L 175.740481 126.659425 
L 175.774681 76.068516 
L 175.808881 76.068516 
L 176.014081 76.068516 
L 176.133781 101.36397 
L 176.407381 101.36397 
L 176.492881 126.659425 
L 176.509981 101.36397 
L 176.595481 101.36397 
L 176.612581 126.659425 
L 176.698081 101.36397 
L 176.715181 101.36397 
L 176.732281 126.659425 
L 176.817781 101.36397 
L 176.834881 101.36397 
L 176.851981 126.659425 
L 176.937481 101.36397 
L 177.074281 101.36397 
L 177.193981 126.659425 
L 177.228181 126.659425 
L 177.296581 101.36397 
L 177.330781 126.659425 
L 177.382081 126.659425 
L 177.450481 101.36397 
L 177.484681 126.659425 
L 180.631081 126.659425 
L 180.648181 101.36397 
L 180.733681 126.659425 
L 182.563381 126.659425 
L 182.665981 101.36397 
L 182.683081 126.659425 
L 182.768581 101.36397 
L 182.802781 101.36397 
L 182.922481 126.659425 
L 183.007981 101.36397 
L 183.025081 126.659425 
L 183.059281 126.659425 
L 183.178981 101.36397 
L 183.213181 101.36397 
L 183.298681 126.659425 
L 183.315781 101.36397 
L 183.469681 101.36397 
L 183.589381 126.659425 
L 183.606481 126.659425 
L 183.726181 101.36397 
L 183.760381 126.659425 
L 183.811681 76.068516 
L 183.931381 76.068516 
L 184.033981 101.36397 
L 184.153681 76.068516 
L 184.239181 76.068516 
L 184.256281 126.659425 
L 184.341781 76.068516 
L 184.735081 76.068516 
L 184.752181 101.36397 
L 184.837681 76.068516 
L 185.008681 76.068516 
L 185.145481 126.659425 
L 185.162581 126.659425 
L 185.282281 101.36397 
L 185.316481 101.36397 
L 185.333581 76.068516 
L 185.419081 101.36397 
L 185.470381 101.36397 
L 185.521681 126.659425 
L 185.555881 76.068516 
L 185.572981 76.068516 
L 185.590081 50.773061 
L 185.675581 76.068516 
L 185.829481 76.068516 
L 185.966281 126.659425 
L 186.034681 126.659425 
L 186.154381 101.36397 
L 186.188581 101.36397 
L 186.308281 126.659425 
L 186.325381 126.659425 
L 186.393781 101.36397 
L 186.427981 126.659425 
L 186.445081 126.659425 
L 186.564781 101.36397 
L 186.616081 101.36397 
L 186.735781 126.659425 
L 186.752881 126.659425 
L 186.838381 76.068516 
L 186.872581 101.36397 
L 186.940981 101.36397 
L 186.958081 76.068516 
L 186.975181 126.659425 
L 187.043581 101.36397 
L 187.060681 101.36397 
L 187.077781 126.659425 
L 187.094881 50.773061 
L 187.146181 76.068516 
L 187.368481 76.068516 
L 187.471081 101.36397 
L 187.590781 76.068516 
L 187.710481 76.068516 
L 187.727581 101.36397 
L 187.813081 76.068516 
L 187.915681 76.068516 
L 188.001181 101.36397 
L 188.018281 76.068516 
L 188.120881 76.068516 
L 188.137981 101.36397 
L 188.223481 76.068516 
L 188.445781 76.068516 
L 188.497081 126.659425 
L 188.548381 76.068516 
L 188.565481 76.068516 
L 188.582581 50.773061 
L 188.668081 76.068516 
L 188.890381 76.068516 
L 188.941681 50.773061 
L 188.992981 76.068516 
L 189.010081 76.068516 
L 189.027181 50.773061 
L 189.061381 101.36397 
L 189.112681 76.068516 
L 189.129781 76.068516 
L 189.146881 101.36397 
L 189.232381 76.068516 
L 189.249481 76.068516 
L 189.369181 126.659425 
L 189.488881 101.36397 
L 189.574381 101.36397 
L 189.591481 126.659425 
L 189.676981 101.36397 
L 189.694081 101.36397 
L 189.711181 126.659425 
L 189.796681 101.36397 
L 190.104481 101.36397 
L 190.224181 126.659425 
L 190.241281 126.659425 
L 190.360981 101.36397 
L 190.412281 126.659425 
L 190.446481 76.068516 
L 190.463581 101.36397 
L 190.497781 101.36397 
L 190.617481 126.659425 
L 190.720081 101.36397 
L 190.771381 76.068516 
L 190.839781 126.659425 
L 190.908181 101.36397 
L 190.942381 126.659425 
L 190.993681 126.659425 
L 191.130481 76.068516 
L 191.233081 126.659425 
L 191.352781 101.36397 
L 191.472481 126.659425 
L 191.506681 126.659425 
L 191.626381 101.36397 
L 191.660581 101.36397 
L 191.780281 126.659425 
L 191.899981 101.36397 
L 192.686581 101.36397 
L 192.806281 126.659425 
L 192.891781 126.659425 
L 192.908881 76.068516 
L 192.994381 101.36397 
L 193.267981 101.36397 
L 193.319281 126.659425 
L 193.370581 101.36397 
L 193.387681 101.36397 
L 193.507381 126.659425 
L 193.558681 126.659425 
L 193.644181 76.068516 
L 193.661281 101.36397 
L 193.780981 126.659425 
L 193.951981 126.659425 
L 194.071681 101.36397 
L 194.105881 101.36397 
L 194.122981 76.068516 
L 194.157181 126.659425 
L 194.208481 101.36397 
L 194.328181 126.659425 
L 194.413681 126.659425 
L 194.550481 76.068516 
L 194.567581 76.068516 
L 194.687281 101.36397 
L 194.806981 76.068516 
L 194.858281 101.36397 
L 194.909581 76.068516 
L 194.995081 76.068516 
L 195.046381 101.36397 
L 195.097681 76.068516 
L 195.114781 76.068516 
L 195.131881 101.36397 
L 195.217381 76.068516 
L 195.268681 76.068516 
L 195.285781 50.773061 
L 195.371281 76.068516 
L 195.490981 101.36397 
L 195.610681 76.068516 
L 195.627781 76.068516 
L 195.747481 101.36397 
L 195.867181 76.068516 
L 195.884281 76.068516 
L 195.901381 101.36397 
L 195.986881 76.068516 
L 196.003981 50.773061 
L 196.089481 76.068516 
L 196.363081 76.068516 
L 196.380181 101.36397 
L 196.448581 50.773061 
L 196.465681 76.068516 
L 196.499881 76.068516 
L 196.534081 101.36397 
L 196.602481 76.068516 
L 196.653781 76.068516 
L 196.773481 101.36397 
L 196.893181 76.068516 
L 196.944481 76.068516 
L 196.961581 50.773061 
L 197.012881 101.36397 
L 197.047081 76.068516 
L 197.132581 76.068516 
L 197.235181 101.36397 
L 197.371981 50.773061 
L 197.508781 101.36397 
L 197.525881 50.773061 
L 197.611381 76.068516 
L 197.953381 76.068516 
L 198.021781 101.36397 
L 198.055981 76.068516 
L 198.124381 76.068516 
L 198.141481 101.36397 
L 198.226981 76.068516 
L 198.295381 76.068516 
L 198.329581 50.773061 
L 198.380881 76.068516 
L 198.483481 126.659425 
L 198.500581 101.36397 
L 198.517681 76.068516 
L 198.603181 101.36397 
L 198.671581 101.36397 
L 198.774181 126.659425 
L 198.893881 101.36397 
L 198.928081 101.36397 
L 199.030681 76.068516 
L 199.099081 126.659425 
L 199.133281 101.36397 
L 199.201681 101.36397 
L 199.321381 76.068516 
L 199.423981 126.659425 
L 199.372681 50.773061 
L 199.441081 101.36397 
L 199.509481 101.36397 
L 199.526581 126.659425 
L 199.612081 101.36397 
L 199.663381 101.36397 
L 199.783081 126.659425 
L 199.902781 76.068516 
L 199.919881 101.36397 
L 200.005381 76.068516 
L 200.056681 76.068516 
L 200.107981 126.659425 
L 200.159281 76.068516 
L 200.244781 76.068516 
L 200.278981 126.659425 
L 200.347381 101.36397 
L 200.467081 76.068516 
L 200.501281 76.068516 
L 200.518381 50.773061 
L 200.603881 76.068516 
L 200.757781 76.068516 
L 200.774881 50.773061 
L 200.791981 101.36397 
L 200.860381 76.068516 
L 200.877481 76.068516 
L 200.894581 101.36397 
L 200.911681 50.773061 
L 200.980081 76.068516 
L 201.151081 76.068516 
L 201.168181 50.773061 
L 201.253681 76.068516 
L 201.339181 76.068516 
L 201.407581 126.659425 
L 201.441781 76.068516 
L 201.493081 76.068516 
L 201.595681 101.36397 
L 201.646981 25.477607 
L 201.715381 76.068516 
L 201.800881 101.36397 
L 201.817981 76.068516 
L 201.971881 76.068516 
L 202.040281 101.36397 
L 202.074481 76.068516 
L 202.125781 76.068516 
L 202.228381 126.659425 
L 202.245481 101.36397 
L 202.313881 101.36397 
L 202.330981 126.659425 
L 202.416481 101.36397 
L 202.467781 101.36397 
L 202.587481 126.659425 
L 202.621681 126.659425 
L 202.741381 101.36397 
L 202.946581 101.36397 
L 203.014981 126.659425 
L 203.049181 101.36397 
L 203.151781 101.36397 
L 203.168881 76.068516 
L 203.254381 101.36397 
L 203.271481 101.36397 
L 203.288581 126.659425 
L 203.374081 101.36397 
L 203.493781 101.36397 
L 203.510881 126.659425 
L 203.596381 101.36397 
L 203.664781 101.36397 
L 203.698981 76.068516 
L 203.767381 101.36397 
L 203.784481 101.36397 
L 203.869981 126.659425 
L 203.887081 101.36397 
L 203.904181 101.36397 
L 204.023881 126.659425 
L 204.040981 126.659425 
L 204.160681 101.36397 
L 204.194881 101.36397 
L 204.297481 126.659425 
L 204.365881 101.36397 
L 204.400081 126.659425 
L 204.878881 126.659425 
L 204.964381 101.36397 
L 204.981481 126.659425 
L 205.049881 126.659425 
L 205.066981 101.36397 
L 205.152481 126.659425 
L 205.768081 126.659425 
L 205.887781 101.36397 
L 205.990381 126.659425 
L 206.007481 101.36397 
L 206.092981 126.659425 
L 206.110081 126.659425 
L 206.212681 76.068516 
L 206.229781 101.36397 
L 206.298181 101.36397 
L 206.315281 126.659425 
L 206.349481 76.068516 
L 206.383681 76.068516 
L 206.691481 76.068516 
L 206.708581 50.773061 
L 206.725681 101.36397 
L 206.794081 76.068516 
L 206.965081 76.068516 
L 207.084781 101.36397 
L 207.204481 76.068516 
L 207.460981 76.068516 
L 207.478081 126.659425 
L 207.563581 76.068516 
L 207.666181 76.068516 
L 207.683281 126.659425 
L 207.768781 101.36397 
L 207.888481 76.068516 
L 207.905581 76.068516 
L 207.922681 101.36397 
L 208.008181 76.068516 
L 208.059481 76.068516 
L 208.076581 50.773061 
L 208.110781 126.659425 
L 208.162081 76.068516 
L 208.281781 101.36397 
L 208.418581 50.773061 
L 208.538281 76.068516 
L 208.999981 76.068516 
L 209.017081 126.659425 
L 209.102581 76.068516 
L 209.153881 76.068516 
L 209.239381 101.36397 
L 209.256481 76.068516 
L 209.444581 76.068516 
L 209.512981 101.36397 
L 209.530081 76.068516 
L 209.547181 50.773061 
L 209.632681 76.068516 
L 209.718181 101.36397 
L 209.735281 76.068516 
L 209.837881 76.068516 
L 209.854981 50.773061 
L 209.906281 101.36397 
L 209.923381 76.068516 
L 210.043081 126.659425 
L 210.162781 101.36397 
L 210.179881 101.36397 
L 210.196981 126.659425 
L 210.248281 101.36397 
" clip-path="url(#p4777bab7a8)" style="fill: none; stroke: #009e73; stroke-width: 1.25; stroke-linecap: square"/>
   </g>
   <g id="patch_4">
    <path d="M 30.698281 131.718516 
L 30.698281 20.418516 
" style="fill: none; stroke: #000000; stroke-width: 0.8; stroke-linejoin: miter; stroke-linecap: square"/>
   </g>
   <g id="patch_5">
    <path d="M 30.698281 131.718516 
L 218.798281 131.718516 
" style="fill: none; stroke: #000000; stroke-width: 0.8; stroke-linejoin: miter; stroke-linecap: square"/>
   </g>
   <g id="text_14">
    <!-- drugs3523 rep2 -->
    <g transform="translate(86.875195 14.418516) scale(0.095 -0.095)">
     <defs>
      <path id="DejaVuSans-67" d="M 2906 1791 
Q 2906 2416 2648 2759 
Q 2391 3103 1925 3103 
Q 1463 3103 1205 2759 
Q 947 2416 947 1791 
Q 947 1169 1205 825 
Q 1463 481 1925 481 
Q 2391 481 2648 825 
Q 2906 1169 2906 1791 
z
M 3481 434 
Q 3481 -459 3084 -895 
Q 2688 -1331 1869 -1331 
Q 1566 -1331 1297 -1286 
Q 1028 -1241 775 -1147 
L 775 -588 
Q 1028 -725 1275 -790 
Q 1522 -856 1778 -856 
Q 2344 -856 2625 -561 
Q 2906 -266 2906 331 
L 2906 616 
Q 2728 306 2450 153 
Q 2172 0 1784 0 
Q 1141 0 747 490 
Q 353 981 353 1791 
Q 353 2603 747 3093 
Q 1141 3584 1784 3584 
Q 2172 3584 2450 3431 
Q 2728 3278 2906 2969 
L 2906 3500 
L 3481 3500 
L 3481 434 
z
" transform="scale(0.015625)"/>
      <path id="DejaVuSans-35" d="M 691 4666 
L 3169 4666 
L 3169 4134 
L 1269 4134 
L 1269 2991 
Q 1406 3038 1543 3061 
Q 1681 3084 1819 3084 
Q 2600 3084 3056 2656 
Q 3513 2228 3513 1497 
Q 3513 744 3044 326 
Q 2575 -91 1722 -91 
Q 1428 -91 1123 -41 
Q 819 9 494 109 
L 494 744 
Q 775 591 1075 516 
Q 1375 441 1709 441 
Q 2250 441 2565 725 
Q 2881 1009 2881 1497 
Q 2881 1984 2565 2268 
Q 2250 2553 1709 2553 
Q 1456 2553 1204 2497 
Q 953 2441 691 2322 
L 691 4666 
z
" transform="scale(0.015625)"/>
      <path id="DejaVuSans-70" d="M 1159 525 
L 1159 -1331 
L 581 -1331 
L 581 3500 
L 1159 3500 
L 1159 2969 
Q 1341 3281 1617 3432 
Q 1894 3584 2278 3584 
Q 2916 3584 3314 3078 
Q 3713 2572 3713 1747 
Q 3713 922 3314 415 
Q 2916 -91 2278 -91 
Q 1894 -91 1617 61 
Q 1341 213 1159 525 
z
M 3116 1747 
Q 3116 2381 2855 2742 
Q 2594 3103 2138 3103 
Q 1681 3103 1420 2742 
Q 1159 2381 1159 1747 
Q 1159 1113 1420 752 
Q 1681 391 2138 391 
Q 2594 391 2855 752 
Q 3116 1113 3116 1747 
z
" transform="scale(0.015625)"/>
     </defs>
     <use xlink:href="#DejaVuSans-64"/>
     <use xlink:href="#DejaVuSans-72" transform="translate(63.476562 0)"/>
     <use xlink:href="#DejaVuSans-75" transform="translate(104.589844 0)"/>
     <use xlink:href="#DejaVuSans-67" transform="translate(167.96875 0)"/>
     <use xlink:href="#DejaVuSans-73" transform="translate(231.445312 0)"/>
     <use xlink:href="#DejaVuSans-33" transform="translate(283.544922 0)"/>
     <use xlink:href="#DejaVuSans-35" transform="translate(347.167969 0)"/>
     <use xlink:href="#DejaVuSans-32" transform="translate(410.791016 0)"/>
     <use xlink:href="#DejaVuSans-33" transform="translate(474.414062 0)"/>
     <use xlink:href="#DejaVuSans-20" transform="translate(538.037109 0)"/>
     <use xlink:href="#DejaVuSans-72" transform="translate(569.824219 0)"/>
     <use xlink:href="#DejaVuSans-65" transform="translate(608.6875 0)"/>
     <use xlink:href="#DejaVuSans-70" transform="translate(670.210938 0)"/>
     <use xlink:href="#DejaVuSans-32" transform="translate(733.6875 0)"/>
    </g>
   </g>
  </g>
 </g>
 <defs>
  <clipPath id="p4777bab7a8">
   <rect x="30.698281" y="20.418516" width="188.1" height="111.3"/>
  </clipPath>
 </defs>
</svg>
