<?xml version="1.0" encoding="utf-8" standalone="no"?>
<!DOCTYPE svg PUBLIC "-//W3C//DTD SVG 1.1//EN"
  "http://www.w3.org/Graphics/SVG/1.1/DTD/svg11.dtd">
<svg xmlns:xlink="http://www.w3.org/1999/xlink" width="226.01375pt" height="164.903516pt" viewBox="0 0 226.01375 164.903516" xmlns="http://www.w3.org/2000/svg" version="1.1">
 <metadata>
  <rdf:RDF xmlns:dc="http://purl.org/dc/elements/1.1/" xmlns:cc="http://creativecommons.org/ns#" xmlns:rdf="http://www.w3.org/1999/02/22-rdf-syntax-ns#">
   <cc:Work>
    <dc:type rdf:resource="http://purl.org/dc/dcmitype/StillImage"/>
    <dc:date>2026-05-24T13:53:58.681258</dc:date>
    <dc:format>image/svg+xml</dc:format>
    <dc:creator>
     <cc:Agent>
      <dc:title>Matplotlib v3.10.9, https://matplotlib.org/</dc:title>
     </cc:Agent>
    </dc:creator>
   </cc:Work>
  </rdf:RDF>
 </metadata>
 <defs>
  <style type="text/css">*{stroke-linejoin: round; stroke-linecap: butt}</style>
 </defs>
 <g id="figure_1">
  <g id="patch_1">
   <path d="M 0 164.903516 
L 226.01375 164.903516 
L 226.01375 0 
L 0 0 
z
" style="fill: #ffffff"/>
  </g>
  <g id="axes_1">
   <g id="patch_2">
    <path d="M 37.85375 131.718516 
L 218.81375 131.718516 
L 218.81375 20.418516 
L 37.85375 20.418516 
z
" style="fill: #ffffff"/>
   </g>
   <g id="patch_3">
    <path d="M 128.333744 131.718516 
L 210.588283 131.718516 
L 210.588283 20.418516 
L 128.333744 20.418516 
z
" clip-path="url(#p87b43f3b8c)" style="fill: #bdbdbd; opacity: 0.18"/>
   </g>
   <g id="matplotlib.axis_1">
    <g id="xtick_1">
     <g id="line2d_1">
      <defs>
       <path id="m50d2b48415" d="M 0 0 
L 0 3 
" style="stroke: #000000; stroke-width: 0.7"/>
      </defs>
      <g>
       <use xlink:href="#m50d2b48415" x="46.079205" y="131.718516" style="stroke: #000000; stroke-width: 0.7"/>
      </g>
     </g>
     <g id="text_1">
      <!-- 0 -->
      <g transform="translate(43.693267 143.917344) scale(0.075 -0.075)">
       <defs>
        <path id="DejaVuSans-30" d="M 2034 4250 
Q 1547 4250 1301 3770 
Q 1056 3291 1056 2328 
Q 1056 1369 1301 889 
Q 1547 409 2034 409 
Q 2525 409 2770 889 
Q 3016 1369 3016 2328 
Q 3016 3291 2770 3770 
Q 2525 4250 2034 4250 
z
M 2034 4750 
Q 2819 4750 3233 4129 
Q 3647 3509 3647 2328 
Q 3647 1150 3233 529 
Q 2819 -91 2034 -91 
Q 1250 -91 836 529 
Q 422 1150 422 2328 
Q 422 3509 836 4129 
Q 1250 4750 2034 4750 
z
" transform="scale(0.015625)"/>
       </defs>
       <use xlink:href="#DejaVuSans-30"/>
      </g>
     </g>
    </g>
    <g id="xtick_2">
     <g id="line2d_2">
      <g>
       <use xlink:href="#m50d2b48415" x="78.98102" y="131.718516" style="stroke: #000000; stroke-width: 0.7"/>
      </g>
     </g>
     <g id="text_2">
      <!-- 20 -->
      <g transform="translate(74.209145 143.917344) scale(0.075 -0.075)">
       <defs>
        <path id="DejaVuSans-32" d="M 1228 531 
L 3431 531 
L 3431 0 
L 469 0 
L 469 531 
Q 828 903 1448 1529 
Q 2069 2156 2228 2338 
Q 2531 2678 2651 2914 
Q 2772 3150 2772 3378 
Q 2772 3750 2511 3984 
Q 2250 4219 1831 4219 
Q 1534 4219 1204 4116 
Q 875 4013 500 3803 
L 500 4441 
Q 881 4594 1212 4672 
Q 1544 4750 1819 4750 
Q 2544 4750 2975 4387 
Q 3406 4025 3406 3419 
Q 3406 3131 3298 2873 
Q 3191 2616 2906 2266 
Q 2828 2175 2409 1742 
Q 1991 1309 1228 531 
z
" transform="scale(0.015625)"/>
       </defs>
       <use xlink:href="#DejaVuSans-32"/>
       <use xlink:href="#DejaVuSans-30" transform="translate(63.623047 0)"/>
      </g>
     </g>
    </g>
    <g id="xtick_3">
     <g id="line2d_3">
      <g>
       <use xlink:href="#m50d2b48415" x="111.882836" y="131.718516" style="stroke: #000000; stroke-width: 0.7"/>
      </g>
     </g>
     <g id="text_3">
      <!-- 40 -->
      <g transform="translate(107.110961 143.917344) scale(0.075 -0.075)">
       <defs>
        <path id="DejaVuSans-34" d="M 2419 4116 
L 825 1625 
L 2419 1625 
L 2419 4116 
z
M 2253 4666 
L 3047 4666 
L 3047 1625 
L 3713 1625 
L 3713 1100 
L 3047 1100 
L 3047 0 
L 2419 0 
L 2419 1100 
L 313 1100 
L 313 1709 
L 2253 4666 
z
" transform="scale(0.015625)"/>
       </defs>
       <use xlink:href="#DejaVuSans-34"/>
       <use xlink:href="#DejaVuSans-30" transform="translate(63.623047 0)"/>
      </g>
     </g>
    </g>
    <g id="xtick_4">
     <g id="line2d_4">
      <g>
       <use xlink:href="#m50d2b48415" x="144.784652" y="131.718516" style="stroke: #000000; stroke-width: 0.7"/>
      </g>
     </g>
     <g id="text_4">
      <!-- 60 -->
      <g transform="translate(140.012777 143.917344) scale(0.075 -0.075)">
       <defs>
        <path id="DejaVuSans-36" d="M 2113 2584 
Q 1688 2584 1439 2293 
Q 1191 2003 1191 1497 
Q 1191 994 1439 701 
Q 1688 409 2113 409 
Q 2538 409 2786 701 
Q 3034 994 3034 1497 
Q 3034 2003 2786 2293 
Q 2538 2584 2113 2584 
z
M 3366 4563 
L 3366 3988 
Q 3128 4100 2886 4159 
Q 2644 4219 2406 4219 
Q 1781 4219 1451 3797 
Q 1122 3375 1075 2522 
Q 1259 2794 1537 2939 
Q 1816 3084 2150 3084 
Q 2853 3084 3261 2657 
Q 3669 2231 3669 1497 
Q 3669 778 3244 343 
Q 2819 -91 2113 -91 
Q 1303 -91 875 529 
Q 447 1150 447 2328 
Q 447 3434 972 4092 
Q 1497 4750 2381 4750 
Q 2619 4750 2861 4703 
Q 3103 4656 3366 4563 
z
" transform="scale(0.015625)"/>
       </defs>
       <use xlink:href="#DejaVuSans-36"/>
       <use xlink:href="#DejaVuSans-30" transform="translate(63.623047 0)"/>
      </g>
     </g>
    </g>
    <g id="xtick_5">
     <g id="line2d_5">
      <g>
       <use xlink:href="#m50d2b48415" x="177.686467" y="131.718516" style="stroke: #000000; stroke-width: 0.7"/>
      </g>
     </g>
     <g id="text_5">
      <!-- 80 -->
      <g transform="translate(172.914592 143.917344) scale(0.075 -0.075)">
       <defs>
        <path id="DejaVuSans-38" d="M 2034 2216 
Q 1584 2216 1326 1975 
Q 1069 1734 1069 1313 
Q 1069 891 1326 650 
Q 1584 409 2034 409 
Q 2484 409 2743 651 
Q 3003 894 3003 1313 
Q 3003 1734 2745 1975 
Q 2488 2216 2034 2216 
z
M 1403 2484 
Q 997 2584 770 2862 
Q 544 3141 544 3541 
Q 544 4100 942 4425 
Q 1341 4750 2034 4750 
Q 2731 4750 3128 4425 
Q 3525 4100 3525 3541 
Q 3525 3141 3298 2862 
Q 3072 2584 2669 2484 
Q 3125 2378 3379 2068 
Q 3634 1759 3634 1313 
Q 3634 634 3220 271 
Q 2806 -91 2034 -91 
Q 1263 -91 848 271 
Q 434 634 434 1313 
Q 434 1759 690 2068 
Q 947 2378 1403 2484 
z
M 1172 3481 
Q 1172 3119 1398 2916 
Q 1625 2713 2034 2713 
Q 2441 2713 2670 2916 
Q 2900 3119 2900 3481 
Q 2900 3844 2670 4047 
Q 2441 4250 2034 4250 
Q 1625 4250 1398 4047 
Q 1172 3844 1172 3481 
z
" transform="scale(0.015625)"/>
       </defs>
       <use xlink:href="#DejaVuSans-38"/>
       <use xlink:href="#DejaVuSans-30" transform="translate(63.623047 0)"/>
      </g>
     </g>
    </g>
    <g id="xtick_6">
     <g id="line2d_6">
      <g>
       <use xlink:href="#m50d2b48415" x="210.588283" y="131.718516" style="stroke: #000000; stroke-width: 0.7"/>
      </g>
     </g>
     <g id="text_6">
      <!-- 100 -->
      <g transform="translate(203.43047 143.917344) scale(0.075 -0.075)">
       <defs>
        <path id="DejaVuSans-31" d="M 794 531 
L 1825 531 
L 1825 4091 
L 703 3866 
L 703 4441 
L 1819 4666 
L 2450 4666 
L 2450 531 
L 3481 531 
L 3481 0 
L 794 0 
L 794 531 
z
" transform="scale(0.015625)"/>
       </defs>
       <use xlink:href="#DejaVuSans-31"/>
       <use xlink:href="#DejaVuSans-30" transform="translate(63.623047 0)"/>
       <use xlink:href="#DejaVuSans-30" transform="translate(127.246094 0)"/>
      </g>
     </g>
    </g>
    <g id="text_7">
     <!-- Time (ns) -->
     <g transform="translate(108.360742 155.935781) scale(0.085 -0.085)">
      <defs>
       <path id="DejaVuSans-54" d="M -19 4666 
L 3928 4666 
L 3928 4134 
L 2272 4134 
L 2272 0 
L 1638 0 
L 1638 4134 
L -19 4134 
L -19 4666 
z
" transform="scale(0.015625)"/>
       <path id="DejaVuSans-69" d="M 603 3500 
L 1178 3500 
L 1178 0 
L 603 0 
L 603 3500 
z
M 603 4863 
L 1178 4863 
L 1178 4134 
L 603 4134 
L 603 4863 
z
" transform="scale(0.015625)"/>
       <path id="DejaVuSans-6d" d="M 3328 2828 
Q 3544 3216 3844 3400 
Q 4144 3584 4550 3584 
Q 5097 3584 5394 3201 
Q 5691 2819 5691 2113 
L 5691 0 
L 5113 0 
L 5113 2094 
Q 5113 2597 4934 2840 
Q 4756 3084 4391 3084 
Q 3944 3084 3684 2787 
Q 3425 2491 3425 1978 
L 3425 0 
L 2847 0 
L 2847 2094 
Q 2847 2600 2669 2842 
Q 2491 3084 2119 3084 
Q 1678 3084 1418 2786 
Q 1159 2488 1159 1978 
L 1159 0 
L 581 0 
L 581 3500 
L 1159 3500 
L 1159 2956 
Q 1356 3278 1631 3431 
Q 1906 3584 2284 3584 
Q 2666 3584 2933 3390 
Q 3200 3197 3328 2828 
z
" transform="scale(0.015625)"/>
       <path id="DejaVuSans-65" d="M 3597 1894 
L 3597 1613 
L 953 1613 
Q 991 1019 1311 708 
Q 1631 397 2203 397 
Q 2534 397 2845 478 
Q 3156 559 3463 722 
L 3463 178 
Q 3153 47 2828 -22 
Q 2503 -91 2169 -91 
Q 1331 -91 842 396 
Q 353 884 353 1716 
Q 353 2575 817 3079 
Q 1281 3584 2069 3584 
Q 2775 3584 3186 3129 
Q 3597 2675 3597 1894 
z
M 3022 2063 
Q 3016 2534 2758 2815 
Q 2500 3097 2075 3097 
Q 1594 3097 1305 2825 
Q 1016 2553 972 2059 
L 3022 2063 
z
" transform="scale(0.015625)"/>
       <path id="DejaVuSans-20" transform="scale(0.015625)"/>
       <path id="DejaVuSans-28" d="M 1984 4856 
Q 1566 4138 1362 3434 
Q 1159 2731 1159 2009 
Q 1159 1288 1364 580 
Q 1569 -128 1984 -844 
L 1484 -844 
Q 1016 -109 783 600 
Q 550 1309 550 2009 
Q 550 2706 781 3412 
Q 1013 4119 1484 4856 
L 1984 4856 
z
" transform="scale(0.015625)"/>
       <path id="DejaVuSans-6e" d="M 3513 2113 
L 3513 0 
L 2938 0 
L 2938 2094 
Q 2938 2591 2744 2837 
Q 2550 3084 2163 3084 
Q 1697 3084 1428 2787 
Q 1159 2491 1159 1978 
L 1159 0 
L 581 0 
L 581 3500 
L 1159 3500 
L 1159 2956 
Q 1366 3272 1645 3428 
Q 1925 3584 2291 3584 
Q 2894 3584 3203 3211 
Q 3513 2838 3513 2113 
z
" transform="scale(0.015625)"/>
       <path id="DejaVuSans-73" d="M 2834 3397 
L 2834 2853 
Q 2591 2978 2328 3040 
Q 2066 3103 1784 3103 
Q 1356 3103 1142 2972 
Q 928 2841 928 2578 
Q 928 2378 1081 2264 
Q 1234 2150 1697 2047 
L 1894 2003 
Q 2506 1872 2764 1633 
Q 3022 1394 3022 966 
Q 3022 478 2636 193 
Q 2250 -91 1575 -91 
Q 1294 -91 989 -36 
Q 684 19 347 128 
L 347 722 
Q 666 556 975 473 
Q 1284 391 1588 391 
Q 1994 391 2212 530 
Q 2431 669 2431 922 
Q 2431 1156 2273 1281 
Q 2116 1406 1581 1522 
L 1381 1569 
Q 847 1681 609 1914 
Q 372 2147 372 2553 
Q 372 3047 722 3315 
Q 1072 3584 1716 3584 
Q 2034 3584 2315 3537 
Q 2597 3491 2834 3397 
z
" transform="scale(0.015625)"/>
       <path id="DejaVuSans-29" d="M 513 4856 
L 1013 4856 
Q 1481 4119 1714 3412 
Q 1947 2706 1947 2009 
Q 1947 1309 1714 600 
Q 1481 -109 1013 -844 
L 513 -844 
Q 928 -128 1133 580 
Q 1338 1288 1338 2009 
Q 1338 2731 1133 3434 
Q 928 4138 513 4856 
z
" transform="scale(0.015625)"/>
      </defs>
      <use xlink:href="#DejaVuSans-54"/>
      <use xlink:href="#DejaVuSans-69" transform="translate(57.958984 0)"/>
      <use xlink:href="#DejaVuSans-6d" transform="translate(85.742188 0)"/>
      <use xlink:href="#DejaVuSans-65" transform="translate(183.154297 0)"/>
      <use xlink:href="#DejaVuSans-20" transform="translate(244.677734 0)"/>
      <use xlink:href="#DejaVuSans-28" transform="translate(276.464844 0)"/>
      <use xlink:href="#DejaVuSans-6e" transform="translate(315.478516 0)"/>
      <use xlink:href="#DejaVuSans-73" transform="translate(378.857422 0)"/>
      <use xlink:href="#DejaVuSans-29" transform="translate(430.957031 0)"/>
     </g>
    </g>
   </g>
   <g id="matplotlib.axis_2">
    <g id="ytick_1">
     <g id="line2d_7">
      <defs>
       <path id="m37f24593bb" d="M 0 0 
L -3 0 
" style="stroke: #000000; stroke-width: 0.7"/>
      </defs>
      <g>
       <use xlink:href="#m37f24593bb" x="37.85375" y="126.681914" style="stroke: #000000; stroke-width: 0.7"/>
      </g>
     </g>
     <g id="text_8">
      <!-- 0.0 -->
      <g transform="translate(19.426406 129.531328) scale(0.075 -0.075)">
       <defs>
        <path id="DejaVuSans-2e" d="M 684 794 
L 1344 794 
L 1344 0 
L 684 0 
L 684 794 
z
" transform="scale(0.015625)"/>
       </defs>
       <use xlink:href="#DejaVuSans-30"/>
       <use xlink:href="#DejaVuSans-2e" transform="translate(63.623047 0)"/>
       <use xlink:href="#DejaVuSans-30" transform="translate(95.410156 0)"/>
      </g>
     </g>
    </g>
    <g id="ytick_2">
     <g id="line2d_8">
      <g>
       <use xlink:href="#m37f24593bb" x="37.85375" y="103.817247" style="stroke: #000000; stroke-width: 0.7"/>
      </g>
     </g>
     <g id="text_9">
      <!-- 0.5 -->
      <g transform="translate(19.426406 106.666661) scale(0.075 -0.075)">
       <defs>
        <path id="DejaVuSans-35" d="M 691 4666 
L 3169 4666 
L 3169 4134 
L 1269 4134 
L 1269 2991 
Q 1406 3038 1543 3061 
Q 1681 3084 1819 3084 
Q 2600 3084 3056 2656 
Q 3513 2228 3513 1497 
Q 3513 744 3044 326 
Q 2575 -91 1722 -91 
Q 1428 -91 1123 -41 
Q 819 9 494 109 
L 494 744 
Q 775 591 1075 516 
Q 1375 441 1709 441 
Q 2250 441 2565 725 
Q 2881 1009 2881 1497 
Q 2881 1984 2565 2268 
Q 2250 2553 1709 2553 
Q 1456 2553 1204 2497 
Q 953 2441 691 2322 
L 691 4666 
z
" transform="scale(0.015625)"/>
       </defs>
       <use xlink:href="#DejaVuSans-30"/>
       <use xlink:href="#DejaVuSans-2e" transform="translate(63.623047 0)"/>
       <use xlink:href="#DejaVuSans-35" transform="translate(95.410156 0)"/>
      </g>
     </g>
    </g>
    <g id="ytick_3">
     <g id="line2d_9">
      <g>
       <use xlink:href="#m37f24593bb" x="37.85375" y="80.95258" style="stroke: #000000; stroke-width: 0.7"/>
      </g>
     </g>
     <g id="text_10">
      <!-- 1.0 -->
      <g transform="translate(19.426406 83.801994) scale(0.075 -0.075)">
       <use xlink:href="#DejaVuSans-31"/>
       <use xlink:href="#DejaVuSans-2e" transform="translate(63.623047 0)"/>
       <use xlink:href="#DejaVuSans-30" transform="translate(95.410156 0)"/>
      </g>
     </g>
    </g>
    <g id="ytick_4">
     <g id="line2d_10">
      <g>
       <use xlink:href="#m37f24593bb" x="37.85375" y="58.087913" style="stroke: #000000; stroke-width: 0.7"/>
      </g>
     </g>
     <g id="text_11">
      <!-- 1.5 -->
      <g transform="translate(19.426406 60.937327) scale(0.075 -0.075)">
       <use xlink:href="#DejaVuSans-31"/>
       <use xlink:href="#DejaVuSans-2e" transform="translate(63.623047 0)"/>
       <use xlink:href="#DejaVuSans-35" transform="translate(95.410156 0)"/>
      </g>
     </g>
    </g>
    <g id="ytick_5">
     <g id="line2d_11">
      <g>
       <use xlink:href="#m37f24593bb" x="37.85375" y="35.223246" style="stroke: #000000; stroke-width: 0.7"/>
      </g>
     </g>
     <g id="text_12">
      <!-- 2.0 -->
      <g transform="translate(19.426406 38.07266) scale(0.075 -0.075)">
       <use xlink:href="#DejaVuSans-32"/>
       <use xlink:href="#DejaVuSans-2e" transform="translate(63.623047 0)"/>
       <use xlink:href="#DejaVuSans-30" transform="translate(95.410156 0)"/>
      </g>
     </g>
    </g>
    <g id="text_13">
     <!-- Backbone RMSD (nm) -->
     <g transform="translate(13.658672 122.435352) rotate(-90) scale(0.085 -0.085)">
      <defs>
       <path id="DejaVuSans-42" d="M 1259 2228 
L 1259 519 
L 2272 519 
Q 2781 519 3026 730 
Q 3272 941 3272 1375 
Q 3272 1813 3026 2020 
Q 2781 2228 2272 2228 
L 1259 2228 
z
M 1259 4147 
L 1259 2741 
L 2194 2741 
Q 2656 2741 2882 2914 
Q 3109 3088 3109 3444 
Q 3109 3797 2882 3972 
Q 2656 4147 2194 4147 
L 1259 4147 
z
M 628 4666 
L 2241 4666 
Q 2963 4666 3353 4366 
Q 3744 4066 3744 3513 
Q 3744 3084 3544 2831 
Q 3344 2578 2956 2516 
Q 3422 2416 3680 2098 
Q 3938 1781 3938 1306 
Q 3938 681 3513 340 
Q 3088 0 2303 0 
L 628 0 
L 628 4666 
z
" transform="scale(0.015625)"/>
       <path id="DejaVuSans-61" d="M 2194 1759 
Q 1497 1759 1228 1600 
Q 959 1441 959 1056 
Q 959 750 1161 570 
Q 1363 391 1709 391 
Q 2188 391 2477 730 
Q 2766 1069 2766 1631 
L 2766 1759 
L 2194 1759 
z
M 3341 1997 
L 3341 0 
L 2766 0 
L 2766 531 
Q 2569 213 2275 61 
Q 1981 -91 1556 -91 
Q 1019 -91 701 211 
Q 384 513 384 1019 
Q 384 1609 779 1909 
Q 1175 2209 1959 2209 
L 2766 2209 
L 2766 2266 
Q 2766 2663 2505 2880 
Q 2244 3097 1772 3097 
Q 1472 3097 1187 3025 
Q 903 2953 641 2809 
L 641 3341 
Q 956 3463 1253 3523 
Q 1550 3584 1831 3584 
Q 2591 3584 2966 3190 
Q 3341 2797 3341 1997 
z
" transform="scale(0.015625)"/>
       <path id="DejaVuSans-63" d="M 3122 3366 
L 3122 2828 
Q 2878 2963 2633 3030 
Q 2388 3097 2138 3097 
Q 1578 3097 1268 2742 
Q 959 2388 959 1747 
Q 959 1106 1268 751 
Q 1578 397 2138 397 
Q 2388 397 2633 464 
Q 2878 531 3122 666 
L 3122 134 
Q 2881 22 2623 -34 
Q 2366 -91 2075 -91 
Q 1284 -91 818 406 
Q 353 903 353 1747 
Q 353 2603 823 3093 
Q 1294 3584 2113 3584 
Q 2378 3584 2631 3529 
Q 2884 3475 3122 3366 
z
" transform="scale(0.015625)"/>
       <path id="DejaVuSans-6b" d="M 581 4863 
L 1159 4863 
L 1159 1991 
L 2875 3500 
L 3609 3500 
L 1753 1863 
L 3688 0 
L 2938 0 
L 1159 1709 
L 1159 0 
L 581 0 
L 581 4863 
z
" transform="scale(0.015625)"/>
       <path id="DejaVuSans-62" d="M 3116 1747 
Q 3116 2381 2855 2742 
Q 2594 3103 2138 3103 
Q 1681 3103 1420 2742 
Q 1159 2381 1159 1747 
Q 1159 1113 1420 752 
Q 1681 391 2138 391 
Q 2594 391 2855 752 
Q 3116 1113 3116 1747 
z
M 1159 2969 
Q 1341 3281 1617 3432 
Q 1894 3584 2278 3584 
Q 2916 3584 3314 3078 
Q 3713 2572 3713 1747 
Q 3713 922 3314 415 
Q 2916 -91 2278 -91 
Q 1894 -91 1617 61 
Q 1341 213 1159 525 
L 1159 0 
L 581 0 
L 581 4863 
L 1159 4863 
L 1159 2969 
z
" transform="scale(0.015625)"/>
       <path id="DejaVuSans-6f" d="M 1959 3097 
Q 1497 3097 1228 2736 
Q 959 2375 959 1747 
Q 959 1119 1226 758 
Q 1494 397 1959 397 
Q 2419 397 2687 759 
Q 2956 1122 2956 1747 
Q 2956 2369 2687 2733 
Q 2419 3097 1959 3097 
z
M 1959 3584 
Q 2709 3584 3137 3096 
Q 3566 2609 3566 1747 
Q 3566 888 3137 398 
Q 2709 -91 1959 -91 
Q 1206 -91 779 398 
Q 353 888 353 1747 
Q 353 2609 779 3096 
Q 1206 3584 1959 3584 
z
" transform="scale(0.015625)"/>
       <path id="DejaVuSans-52" d="M 2841 2188 
Q 3044 2119 3236 1894 
Q 3428 1669 3622 1275 
L 4263 0 
L 3584 0 
L 2988 1197 
Q 2756 1666 2539 1819 
Q 2322 1972 1947 1972 
L 1259 1972 
L 1259 0 
L 628 0 
L 628 4666 
L 2053 4666 
Q 2853 4666 3247 4331 
Q 3641 3997 3641 3322 
Q 3641 2881 3436 2590 
Q 3231 2300 2841 2188 
z
M 1259 4147 
L 1259 2491 
L 2053 2491 
Q 2509 2491 2742 2702 
Q 2975 2913 2975 3322 
Q 2975 3731 2742 3939 
Q 2509 4147 2053 4147 
L 1259 4147 
z
" transform="scale(0.015625)"/>
       <path id="DejaVuSans-4d" d="M 628 4666 
L 1569 4666 
L 2759 1491 
L 3956 4666 
L 4897 4666 
L 4897 0 
L 4281 0 
L 4281 4097 
L 3078 897 
L 2444 897 
L 1241 4097 
L 1241 0 
L 628 0 
L 628 4666 
z
" transform="scale(0.015625)"/>
       <path id="DejaVuSans-53" d="M 3425 4513 
L 3425 3897 
Q 3066 4069 2747 4153 
Q 2428 4238 2131 4238 
Q 1616 4238 1336 4038 
Q 1056 3838 1056 3469 
Q 1056 3159 1242 3001 
Q 1428 2844 1947 2747 
L 2328 2669 
Q 3034 2534 3370 2195 
Q 3706 1856 3706 1288 
Q 3706 609 3251 259 
Q 2797 -91 1919 -91 
Q 1588 -91 1214 -16 
Q 841 59 441 206 
L 441 856 
Q 825 641 1194 531 
Q 1563 422 1919 422 
Q 2459 422 2753 634 
Q 3047 847 3047 1241 
Q 3047 1584 2836 1778 
Q 2625 1972 2144 2069 
L 1759 2144 
Q 1053 2284 737 2584 
Q 422 2884 422 3419 
Q 422 4038 858 4394 
Q 1294 4750 2059 4750 
Q 2388 4750 2728 4690 
Q 3069 4631 3425 4513 
z
" transform="scale(0.015625)"/>
       <path id="DejaVuSans-44" d="M 1259 4147 
L 1259 519 
L 2022 519 
Q 2988 519 3436 956 
Q 3884 1394 3884 2338 
Q 3884 3275 3436 3711 
Q 2988 4147 2022 4147 
L 1259 4147 
z
M 628 4666 
L 1925 4666 
Q 3281 4666 3915 4102 
Q 4550 3538 4550 2338 
Q 4550 1131 3912 565 
Q 3275 0 1925 0 
L 628 0 
L 628 4666 
z
" transform="scale(0.015625)"/>
      </defs>
      <use xlink:href="#DejaVuSans-42"/>
      <use xlink:href="#DejaVuSans-61" transform="translate(68.603516 0)"/>
      <use xlink:href="#DejaVuSans-63" transform="translate(129.882812 0)"/>
      <use xlink:href="#DejaVuSans-6b" transform="translate(184.863281 0)"/>
      <use xlink:href="#DejaVuSans-62" transform="translate(242.773438 0)"/>
      <use xlink:href="#DejaVuSans-6f" transform="translate(306.25 0)"/>
      <use xlink:href="#DejaVuSans-6e" transform="translate(367.431641 0)"/>
      <use xlink:href="#DejaVuSans-65" transform="translate(430.810547 0)"/>
      <use xlink:href="#DejaVuSans-20" transform="translate(492.333984 0)"/>
      <use xlink:href="#DejaVuSans-52" transform="translate(524.121094 0)"/>
      <use xlink:href="#DejaVuSans-4d" transform="translate(593.603516 0)"/>
      <use xlink:href="#DejaVuSans-53" transform="translate(679.882812 0)"/>
      <use xlink:href="#DejaVuSans-44" transform="translate(743.359375 0)"/>
      <use xlink:href="#DejaVuSans-20" transform="translate(820.361328 0)"/>
      <use xlink:href="#DejaVuSans-28" transform="translate(852.148438 0)"/>
      <use xlink:href="#DejaVuSans-6e" transform="translate(891.162109 0)"/>
      <use xlink:href="#DejaVuSans-6d" transform="translate(954.541016 0)"/>
      <use xlink:href="#DejaVuSans-29" transform="translate(1051.953125 0)"/>
     </g>
    </g>
   </g>
   <g id="line2d_12">
    <path d="M 46.079205 126.659425 
L 46.194361 114.568182 
L 46.210812 115.177772 
L 46.260165 115.223465 
L 46.35887 112.365171 
L 46.375321 113.221718 
L 46.408223 109.921894 
L 46.506928 102.372804 
L 46.556281 103.05375 
L 46.638535 102.849057 
L 46.687888 105.510422 
L 46.852397 93.824875 
L 46.90175 98.344662 
L 46.951103 93.601945 
L 46.967554 95.414413 
L 46.984004 94.976825 
L 47.000455 96.080557 
L 47.049808 100.819291 
L 47.132063 97.800104 
L 47.148514 97.295316 
L 47.247219 105.085354 
L 47.280121 103.322145 
L 47.378826 97.983401 
L 47.411728 99.266557 
L 47.477532 97.845129 
L 47.543335 98.909484 
L 47.559786 99.664315 
L 47.609139 97.187664 
L 47.674943 93.519193 
L 47.707845 96.390908 
L 47.740746 96.984969 
L 47.757197 94.574041 
L 47.773648 94.389509 
L 47.790099 94.615732 
L 47.839452 90.547724 
L 47.921706 91.363416 
L 48.152019 98.664448 
L 48.184921 97.930076 
L 48.250725 96.104583 
L 48.267175 96.554295 
L 48.34943 94.377825 
L 48.316528 97.000032 
L 48.382332 95.705604 
L 48.398783 95.744415 
L 48.415234 95.445884 
L 48.513939 100.094907 
L 48.546841 98.2904 
L 48.645546 101.107697 
L 48.579743 97.509251 
L 48.661997 100.664095 
L 48.694899 98.175148 
L 48.744252 101.645099 
L 48.777154 99.862885 
L 48.793605 100.311129 
L 48.842957 98.88741 
L 48.908761 95.982367 
L 48.958114 98.221669 
L 48.991015 96.711448 
L 49.023917 98.628737 
L 49.056819 99.171334 
L 49.089721 102.120003 
L 49.155524 98.577306 
L 49.25423 92.065051 
L 49.287132 93.615513 
L 49.352935 97.082153 
L 49.418739 96.983963 
L 49.517445 93.119999 
L 49.61615 94.72487 
L 49.681954 98.712065 
L 49.764208 102.21019 
L 49.79711 100.762605 
L 49.813561 100.65451 
L 49.846463 101.307027 
L 49.862914 98.905185 
L 49.895815 99.846066 
L 49.928717 98.994847 
L 50.010972 95.223928 
L 50.060324 96.608127 
L 50.076775 96.737601 
L 50.093226 96.209116 
L 50.126128 95.535738 
L 50.142579 96.886889 
L 50.15903 97.682474 
L 50.191932 94.966298 
L 50.241285 91.421095 
L 50.307088 91.428375 
L 50.323539 92.840565 
L 50.389343 89.896575 
L 50.504499 85.652595 
L 50.52095 86.393346 
L 50.537401 86.440484 
L 50.586754 84.463747 
L 50.619655 86.920633 
L 50.718361 90.042438 
L 50.734812 88.788068 
L 50.751263 87.577626 
L 50.817066 89.903018 
L 50.833517 90.76465 
L 50.899321 88.692142 
L 50.932222 87.214398 
L 50.965124 89.251636 
L 50.998026 88.710424 
L 51.047379 91.035821 
L 51.096732 88.003998 
L 51.195437 83.701956 
L 51.211888 85.282695 
L 51.228339 85.661138 
L 51.24479 84.994761 
L 51.392848 78.564128 
L 51.409299 77.696084 
L 51.458652 79.80529 
L 51.540906 80.592173 
L 51.508004 78.777066 
L 51.557357 80.072519 
L 51.623161 80.912366 
L 51.656062 78.711984 
L 51.688964 81.30396 
L 51.754768 78.72376 
L 51.853474 76.096376 
L 51.869924 76.287534 
L 52.100237 83.017488 
L 51.902826 76.223751 
L 52.116688 82.79737 
L 52.133139 80.716287 
L 52.215394 82.601287 
L 52.231844 83.845642 
L 52.264746 82.397133 
L 52.33055 83.445816 
L 52.51151 75.466317 
L 52.544412 76.02401 
L 52.560863 75.489182 
L 52.725371 69.251573 
L 52.774724 70.476959 
L 52.791176 69.106135 
L 52.824077 69.511082 
L 52.922783 65.994332 
L 52.939233 67.345661 
L 52.972135 71.072359 
L 53.037939 66.55405 
L 53.05439 66.559295 
L 53.268252 76.558517 
L 53.301154 74.938061 
L 53.317604 74.870062 
L 53.399859 69.305168 
L 53.482113 71.344851 
L 53.498564 71.485167 
L 53.580819 77.918805 
L 53.630172 75.739194 
L 53.876935 81.875531 
L 53.695975 75.380287 
L 53.893386 80.378572 
L 53.909837 80.171418 
L 54.057896 85.538565 
L 54.107248 82.617 
L 54.173051 84.655879 
L 54.189503 84.804138 
L 54.205953 84.126598 
L 54.238855 82.293469 
L 54.288208 85.759378 
L 54.337561 84.658714 
L 54.386913 86.040421 
L 54.403365 86.19425 
L 54.419815 84.246551 
L 54.485619 87.569436 
L 54.50207 86.433236 
L 54.633677 89.675213 
L 54.567873 86.37366 
L 54.683029 88.448313 
L 54.798186 86.940809 
L 54.831088 86.177591 
L 54.929793 88.099695 
L 54.946244 87.544624 
L 54.995597 89.298129 
L 55.077852 91.809273 
L 55.110753 90.282087 
L 55.127205 89.095918 
L 55.160106 91.247721 
L 55.209459 89.352318 
L 55.22591 90.123218 
L 55.258812 89.251723 
L 55.275262 89.634692 
L 55.423321 84.279101 
L 55.439771 84.105618 
L 55.472673 82.032826 
L 55.571379 82.327286 
L 55.58783 82.66786 
L 55.604281 81.733957 
L 55.637183 79.814075 
L 55.702986 81.334818 
L 55.801692 83.754567 
L 55.883946 83.632566 
L 55.900397 82.577389 
L 55.9662 84.745778 
L 55.982652 83.475486 
L 55.999102 83.427735 
L 56.064906 84.536717 
L 56.048455 83.087207 
L 56.081357 83.54472 
L 56.097808 82.813275 
L 56.163611 84.409032 
L 56.196513 85.755541 
L 56.212964 85.332417 
L 56.344571 80.165121 
L 56.361023 81.685242 
L 56.377473 82.429656 
L 56.426826 80.96286 
L 56.443277 79.644625 
L 56.525532 81.188242 
L 56.541982 81.099783 
L 56.67359 77.114951 
L 56.690041 78.336903 
L 56.706492 78.818694 
L 56.739394 76.576548 
L 56.755844 77.397655 
L 56.805197 77.524284 
L 56.887451 75.227359 
L 57.068411 70.364831 
L 56.953255 76.014731 
L 57.084863 70.621797 
L 57.101313 69.860939 
L 57.134215 71.069565 
L 57.200019 73.423373 
L 57.21647 71.688562 
L 57.315175 71.842112 
L 57.348077 67.855063 
L 57.463234 62.773875 
L 57.512586 64.349814 
L 57.677095 71.092974 
L 57.808702 59.425308 
L 57.858055 61.137863 
L 57.94031 62.93284 
L 57.973212 61.430306 
L 58.170622 68.636641 
L 58.187073 66.933466 
L 58.269328 65.310267 
L 58.285779 66.03707 
L 58.384484 70.898936 
L 58.400935 68.700297 
L 58.450288 67.546221 
L 58.433837 69.839739 
L 58.49964 67.952663 
L 58.516092 68.460263 
L 58.548993 67.674254 
L 58.66415 61.598252 
L 58.6806 62.359412 
L 58.746404 63.734855 
L 58.762855 61.976895 
L 58.812208 59.730218 
L 58.878011 61.715241 
L 58.993168 65.304802 
L 59.042521 64.522556 
L 59.058971 66.18522 
L 59.075423 65.910103 
L 59.108325 68.394783 
L 59.124775 67.534496 
L 59.239931 74.869476 
L 59.256382 73.734291 
L 59.305734 69.778201 
L 59.387989 71.323999 
L 59.453793 71.157027 
L 59.634754 79.152285 
L 59.667655 74.67536 
L 59.74991 77.224551 
L 59.766361 77.126535 
L 59.848616 73.280483 
L 59.881517 75.316321 
L 59.914419 78.425536 
L 59.980223 75.18446 
L 60.029575 76.714239 
L 60.12828 80.018124 
L 60.144731 79.336272 
L 60.194085 73.818978 
L 60.259888 76.865955 
L 60.276338 78.870606 
L 60.358593 76.824543 
L 60.375044 77.339688 
L 60.391496 75.341321 
L 60.4902 72.885107 
L 60.506652 73.02791 
L 60.556004 72.0958 
L 60.621807 75.531633 
L 60.720514 71.404286 
L 60.65471 75.61952 
L 60.753415 73.386877 
L 60.786317 72.718455 
L 61.000179 78.026785 
L 61.131786 73.065756 
L 61.181138 74.079077 
L 61.230491 73.852525 
L 61.263393 75.225969 
L 61.395 84.659532 
L 61.460804 81.785192 
L 61.477255 82.274208 
L 61.493707 81.045927 
L 61.55951 81.922293 
L 61.806273 75.301568 
L 61.822724 76.000194 
L 62.069487 81.200634 
L 62.168194 79.522171 
L 62.184645 80.206748 
L 62.266898 84.577512 
L 62.316252 82.888065 
L 62.349153 80.43475 
L 62.431408 81.554282 
L 62.464309 80.119039 
L 62.497211 82.140381 
L 62.628818 84.696665 
L 62.64527 84.512069 
L 62.743974 82.909864 
L 62.694622 84.920931 
L 62.760426 83.762625 
L 62.84268 85.437297 
L 62.859132 84.217412 
L 62.990739 77.674683 
L 63.00719 78.805227 
L 63.02364 78.086823 
L 63.072994 80.005987 
L 63.105895 79.094186 
L 63.138797 79.517872 
L 63.155247 77.919792 
L 63.237502 80.375778 
L 63.270405 81.228424 
L 63.319757 82.235489 
L 63.336208 80.834132 
L 63.484267 77.044844 
L 63.500716 78.110131 
L 63.55007 79.463459 
L 63.582971 77.259964 
L 63.599422 76.713617 
L 63.648775 78.687195 
L 63.681677 80.120736 
L 63.747481 77.943777 
L 63.846185 72.305392 
L 63.879088 71.124244 
L 63.92844 72.557795 
L 64.043596 77.903993 
L 64.060047 77.235178 
L 64.208106 72.187995 
L 64.273909 75.57937 
L 64.323262 73.866193 
L 64.356164 73.238714 
L 64.389065 73.668647 
L 64.454869 76.257307 
L 64.487771 75.181195 
L 64.63583 67.411136 
L 64.652281 67.473566 
L 64.718085 72.164234 
L 64.783888 69.401839 
L 64.899044 63.605111 
L 64.915495 65.813683 
L 64.964848 64.869303 
L 64.99775 66.73581 
L 65.063554 64.209452 
L 65.112906 65.666242 
L 65.145807 67.340082 
L 65.17871 65.036677 
L 65.228062 62.486599 
L 65.277416 65.226555 
L 65.293865 64.222668 
L 65.37612 68.168817 
L 65.425472 67.12525 
L 65.441924 66.918348 
L 65.474826 67.280629 
L 65.655786 74.936479 
L 65.55708 66.69865 
L 65.705138 73.394326 
L 65.738041 72.676636 
L 65.820296 64.481564 
L 65.869648 67.386113 
L 65.919 69.439228 
L 65.984804 69.256031 
L 66.034156 67.431445 
L 66.099961 67.744398 
L 66.149313 70.325375 
L 66.231568 70.265196 
L 66.330273 66.196177 
L 66.363175 68.768465 
L 66.46188 72.892053 
L 66.494782 70.689884 
L 66.511234 70.29995 
L 66.527683 72.321282 
L 66.560586 74.370405 
L 66.577037 72.163919 
L 66.62639 72.630532 
L 66.642841 71.830625 
L 66.659291 73.860267 
L 66.725094 72.380365 
L 66.741545 74.034852 
L 66.790898 70.993252 
L 66.807349 71.070421 
L 66.873153 69.981033 
L 66.856703 72.400179 
L 66.906055 70.88101 
L 66.938956 73.158884 
L 67.00476 69.992635 
L 67.119917 65.14115 
L 67.202171 65.865494 
L 67.267976 67.062734 
L 67.235073 65.824886 
L 67.300877 66.075378 
L 67.448935 61.488735 
L 67.662797 67.6298 
L 67.843756 61.997904 
L 67.876659 61.725485 
L 67.893109 61.104229 
L 67.90956 62.619297 
L 67.958912 62.611129 
L 67.991815 64.030371 
L 68.024717 60.736817 
L 68.041167 60.757189 
L 68.057618 60.609744 
L 68.07407 58.708076 
L 68.139873 61.505376 
L 68.156325 62.403189 
L 68.205677 60.077797 
L 68.222128 57.798711 
L 68.255029 60.265896 
L 68.304381 58.710225 
L 68.320833 60.239597 
L 68.386636 56.2764 
L 68.419539 56.160664 
L 68.43599 56.26944 
L 68.649851 62.124446 
L 68.699204 58.404104 
L 68.765008 61.161669 
L 68.781458 60.095595 
L 68.81436 64.548425 
L 68.880164 60.172315 
L 68.913066 60.868755 
L 68.929516 60.190758 
L 68.962419 58.311392 
L 69.011771 60.618469 
L 69.028222 61.902274 
L 69.061123 59.233593 
L 69.110477 61.234676 
L 69.143378 59.123595 
L 69.225633 60.713719 
L 69.274985 61.163005 
L 69.35724 58.358137 
L 69.439495 58.238701 
L 69.505298 61.786565 
L 69.52175 61.587629 
L 69.538199 62.607905 
L 69.571102 62.784576 
L 69.669808 58.998398 
L 69.702709 60.408416 
L 69.834316 55.62178 
L 69.735612 61.092691 
L 69.867219 57.483152 
L 69.998826 61.802854 
L 70.048178 61.616452 
L 70.196237 55.8686 
L 70.212688 55.942475 
L 70.229138 55.831961 
L 70.410099 63.286108 
L 70.607509 53.952166 
L 70.64041 54.7378 
L 70.673313 53.645084 
L 70.689764 53.566379 
L 70.870724 44.072055 
L 70.887175 45.428885 
L 70.920076 45.986056 
L 71.002331 47.869849 
L 71.035233 47.200952 
L 71.133938 47.292694 
L 71.216193 43.927587 
L 71.331349 51.153731 
L 71.413604 49.886695 
L 71.430055 47.466145 
L 71.495858 50.319697 
L 71.545211 55.749937 
L 71.611014 51.663893 
L 71.70972 47.285016 
L 71.676818 51.725879 
L 71.742621 48.081077 
L 71.808425 50.214277 
L 71.841328 49.150467 
L 71.857779 47.943454 
L 71.907131 50.962304 
L 72.022287 53.610188 
L 71.972935 50.877289 
L 72.038738 52.952307 
L 72.186797 47.054179 
L 72.203248 47.06199 
L 72.400657 57.518203 
L 72.43356 54.482045 
L 72.466462 50.977193 
L 72.548716 51.182239 
L 72.795482 60.231997 
L 72.844832 56.322637 
L 73.042245 50.944822 
L 73.075144 52.131941 
L 73.108047 50.391734 
L 73.140949 48.146022 
L 73.190303 51.565392 
L 73.206754 52.816034 
L 73.239654 51.130903 
L 73.272556 51.66023 
L 73.338361 48.197394 
L 73.387712 49.639853 
L 73.519319 54.435689 
L 73.552222 53.575059 
L 73.618027 49.112484 
L 73.683829 52.284988 
L 73.733183 53.403423 
L 73.716732 52.102345 
L 73.749634 52.521962 
L 73.798985 50.459025 
L 73.86479 51.205387 
L 73.881241 50.642834 
L 73.914141 52.539614 
L 73.930592 52.954068 
L 73.979946 51.735948 
L 74.045748 50.134653 
L 74.078651 50.57671 
L 74.111553 53.540304 
L 74.160907 48.551142 
L 74.424121 39.078901 
L 74.457021 39.516105 
L 74.57218 42.237979 
L 74.62153 40.994365 
L 74.605079 42.745863 
L 74.654433 41.980317 
L 74.703787 47.634059 
L 74.802491 46.724658 
L 74.835394 46.640361 
L 74.868293 46.509424 
L 74.884745 47.39639 
L 74.983452 43.832703 
L 74.9999 44.97697 
L 75.263118 54.593305 
L 75.296017 54.342818 
L 75.345371 55.427289 
L 75.411173 52.368746 
L 75.427624 52.510375 
L 75.444076 51.294409 
L 75.49343 53.459697 
L 75.509881 53.437802 
L 75.657939 59.35034 
L 75.559232 52.818211 
L 75.773095 57.625909 
L 75.954056 49.771325 
L 75.970504 50.544553 
L 76.003407 47.337568 
L 76.069212 39.085138 
L 76.167916 39.52714 
L 76.381777 53.694911 
L 76.513384 51.129403 
L 76.529835 49.264973 
L 76.59564 53.190731 
L 76.612092 52.738395 
L 76.661443 54.020636 
L 76.694345 55.484647 
L 76.727248 58.505312 
L 76.776602 53.864393 
L 76.79305 54.032462 
L 76.858855 48.986499 
L 76.908209 51.7098 
L 76.974011 55.973183 
L 77.039816 54.66665 
L 77.056267 54.223926 
L 77.072715 55.981364 
L 77.171423 59.897862 
L 77.204322 57.97814 
L 77.335929 51.802617 
L 77.253676 58.038845 
L 77.352381 53.16022 
L 77.483988 59.787796 
L 77.500439 57.921261 
L 77.51689 55.931916 
L 77.599147 58.114486 
L 77.615595 56.847276 
L 77.697851 55.437765 
L 77.648498 56.90468 
L 77.714303 56.873758 
L 77.730754 57.044168 
L 77.878812 51.368765 
L 77.961066 55.919693 
L 78.01042 55.593872 
L 78.026868 55.393737 
L 78.043319 56.151129 
L 78.092673 57.049089 
L 78.109124 56.145235 
L 78.125575 54.185829 
L 78.207829 56.65107 
L 78.22428 56.651436 
L 78.257183 56.402636 
L 78.322985 58.463529 
L 78.405241 54.640109 
L 78.43814 57.086335 
L 78.454592 57.272893 
L 78.487494 54.5721 
L 78.569748 56.91967 
L 78.586199 56.578996 
L 78.60265 58.427243 
L 78.652004 61.053529 
L 78.717806 59.050744 
L 78.734257 58.982575 
L 78.849413 62.735335 
L 78.783611 58.05828 
L 78.882316 62.712722 
L 78.964572 63.954657 
L 79.013923 60.279816 
L 79.063277 63.189002 
L 79.129079 60.620266 
L 79.14553 60.368421 
L 79.178432 61.246141 
L 79.293588 63.546893 
L 79.326491 63.362586 
L 79.392296 59.912275 
L 79.458098 60.829734 
L 79.523903 64.674908 
L 79.491001 60.657499 
L 79.589705 63.041836 
L 79.622608 61.404831 
L 79.671959 63.736386 
L 79.704861 62.236089 
L 79.754215 64.637533 
L 79.836468 63.434253 
L 79.984527 54.257436 
L 80.03388 54.572767 
L 80.083231 54.493372 
L 80.181939 60.370333 
L 80.19839 58.904492 
L 80.264192 61.443033 
L 80.297095 65.80953 
L 80.362897 60.709745 
L 80.379348 62.565514 
L 80.395799 62.682046 
L 80.478056 56.649643 
L 80.543858 57.303614 
L 80.57676 58.347532 
L 80.593211 57.022095 
L 80.642562 60.399622 
L 80.708367 57.711885 
L 80.724819 57.552624 
L 80.905777 63.134337 
L 80.922228 62.871069 
L 81.070286 58.471737 
L 81.086738 59.516026 
L 81.152543 57.612712 
L 81.185442 55.022017 
L 81.218345 57.713399 
L 81.234796 59.211935 
L 81.300601 56.874183 
L 81.317049 57.596812 
L 81.366403 55.567166 
L 81.399306 58.04977 
L 81.481559 59.400203 
L 81.49801 58.709983 
L 81.514462 57.649862 
L 81.547364 59.474568 
L 81.596715 58.595943 
L 81.613166 59.039915 
L 81.629617 57.157828 
L 81.711874 55.001105 
L 81.678971 57.709983 
L 81.728322 56.991698 
L 81.761224 60.578282 
L 81.82703 56.178987 
L 81.87638 54.394455 
L 81.942185 58.226409 
L 82.007988 54.490555 
L 82.057341 57.517069 
L 82.156046 63.213197 
L 82.2054 60.335885 
L 82.238302 56.65149 
L 82.304104 61.843645 
L 82.320556 61.580408 
L 82.402812 56.447908 
L 82.435712 59.282651 
L 82.517968 62.642911 
L 82.550871 61.498987 
L 82.616673 62.877155 
L 82.682478 59.75198 
L 82.863435 54.81195 
L 82.962143 58.075813 
L 82.978591 57.762974 
L 83.027945 55.80708 
L 83.077299 58.90141 
L 83.09375 59.1591 
L 83.110198 58.144283 
L 83.12665 58.539124 
L 83.241806 53.458714 
L 83.356965 46.906647 
L 83.373416 46.967087 
L 83.488572 52.727246 
L 83.406315 46.845402 
L 83.537923 51.56145 
L 83.587276 53.220336 
L 83.63663 50.475812 
L 83.784689 57.805589 
L 83.801137 57.439485 
L 83.866942 58.72698 
L 83.883393 56.97904 
L 84.031452 53.295287 
L 84.163059 59.353742 
L 84.17951 58.765859 
L 84.195961 57.757733 
L 84.228861 60.500807 
L 84.245312 60.04704 
L 84.261763 60.663467 
L 84.278215 58.252122 
L 84.327568 56.008106 
L 84.360468 59.121231 
L 84.376919 58.516086 
L 84.409822 60.99912 
L 84.475627 58.154426 
L 84.492075 59.097992 
L 84.590783 52.5395 
L 84.640133 52.840202 
L 84.656585 52.892507 
L 84.673036 52.304025 
L 84.705938 54.475186 
L 84.72239 53.109534 
L 84.853997 59.115753 
L 84.870448 58.54554 
L 84.8869 58.341692 
L 84.903348 59.133272 
L 84.919799 58.821334 
L 84.93625 59.140671 
L 85.002055 55.708542 
L 85.067857 56.785034 
L 85.10076 57.075365 
L 85.166562 60.413277 
L 85.199465 56.900939 
L 85.232367 57.968724 
L 85.281721 57.265617 
L 85.380426 65.247983 
L 85.413328 63.344948 
L 85.462679 59.000208 
L 85.528484 60.936818 
L 85.544935 61.638091 
L 85.577835 59.551681 
L 85.610737 58.37384 
L 85.676542 59.340659 
L 85.709445 61.117605 
L 85.758796 57.855379 
L 85.775247 58.796411 
L 85.8575 54.461389 
L 85.989107 51.54887 
L 86.005559 53.350605 
L 86.071364 49.649264 
L 86.120718 49.860424 
L 86.268773 45.508582 
L 86.318127 48.864402 
L 86.383932 46.224205 
L 86.40038 46.482521 
L 86.499088 42.599918 
L 86.53199 43.498325 
L 86.548438 43.277393 
L 86.581341 43.959515 
L 86.614244 43.371481 
L 86.778753 48.97097 
L 86.795205 48.881564 
L 86.811653 49.226784 
L 86.828104 52.171534 
L 86.91036 49.210102 
L 87.041968 42.736045 
L 87.058419 44.51808 
L 87.091318 43.826781 
L 87.190026 47.510004 
L 87.338084 52.541909 
L 87.222929 47.225897 
L 87.354536 50.291166 
L 87.370984 49.109008 
L 87.420338 50.946998 
L 87.436789 50.12778 
L 87.601299 57.120518 
L 87.502591 50.068501 
L 87.61775 56.046665 
L 87.765808 61.76157 
L 87.650649 56.030486 
L 87.798708 61.710234 
L 87.897416 59.641668 
L 87.83161 61.821681 
L 87.913864 60.871252 
L 87.963218 65.467109 
L 88.012571 60.953016 
L 88.029023 60.909408 
L 88.078373 63.806828 
L 88.144179 62.361164 
L 88.226432 62.519543 
L 88.358039 56.34525 
L 88.506097 51.00159 
L 88.654156 58.34022 
L 88.719961 60.121556 
L 88.70351 57.983741 
L 88.75286 58.718484 
L 88.851568 51.168196 
L 88.884468 53.34424 
L 88.91737 52.744093 
L 88.999627 56.292355 
L 89.032526 54.899755 
L 89.065429 55.17768 
L 89.213487 61.925313 
L 89.427347 56.230241 
L 89.542506 60.948982 
L 89.558954 60.621094 
L 89.690565 54.425089 
L 89.608308 61.263015 
L 89.723464 56.846883 
L 90.00313 45.484209 
L 90.036032 45.97718 
L 90.052484 48.816876 
L 90.151188 48.035151 
L 90.167639 47.918184 
L 90.184091 48.07387 
L 90.216993 51.931116 
L 90.299247 49.804053 
L 90.414402 47.190338 
L 90.430854 47.21859 
L 90.54601 53.106923 
L 90.562461 50.9435 
L 90.710519 57.587058 
L 90.973734 43.789923 
L 90.990185 44.22555 
L 91.006636 42.87771 
L 91.039539 42.969338 
L 91.088889 41.02365 
L 91.105341 43.398375 
L 91.236948 50.404859 
L 91.319204 49.612882 
L 91.335655 48.952756 
L 91.385006 50.012131 
L 91.483711 55.676834 
L 91.516613 52.077263 
L 91.549516 50.110975 
L 91.582419 50.593415 
L 91.59887 49.193041 
L 91.631769 51.079632 
L 91.681123 49.396028 
L 91.697574 50.616275 
L 91.763376 47.383636 
L 91.779828 47.393975 
L 92.075945 57.639729 
L 92.092396 54.931551 
L 92.174649 58.788925 
L 92.1911 59.661441 
L 92.224003 57.13388 
L 92.306256 54.061097 
L 92.322707 55.291331 
L 92.372061 59.899837 
L 92.454315 57.08703 
L 92.470766 57.078497 
L 92.701081 60.83754 
L 92.717532 60.92384 
L 92.832688 54.006986 
L 92.849139 56.13115 
L 92.89849 55.809042 
L 93.013646 59.467082 
L 93.112354 65.245788 
L 93.161704 62.736359 
L 93.227509 54.401379 
L 93.309763 54.720368 
L 93.326214 56.140621 
L 93.392019 52.432827 
L 93.424918 48.497479 
L 93.507175 51.711684 
L 93.523626 51.272733 
L 93.556526 53.147535 
L 93.589428 55.105436 
L 93.671685 53.834691 
L 93.737487 55.519584 
L 93.753938 54.143067 
L 93.81974 50.949312 
L 93.852642 54.776908 
L 93.869094 53.435854 
L 93.934899 56.146657 
L 93.984249 55.890879 
L 94.050055 54.396911 
L 94.082957 55.493089 
L 94.132308 57.681727 
L 94.16521 54.804894 
L 94.181662 55.491927 
L 94.313269 48.538055 
L 94.32972 50.728087 
L 94.411974 55.623879 
L 94.444876 53.355416 
L 94.477779 51.033875 
L 94.527129 53.765311 
L 94.543581 53.590547 
L 94.642285 56.111331 
L 94.592935 53.257071 
L 94.658737 55.428702 
L 94.675188 53.507041 
L 94.724542 58.01138 
L 94.740993 56.264945 
L 94.856149 61.655459 
L 94.790344 55.661757 
L 94.8726 60.285079 
L 94.938402 57.501864 
L 94.987756 58.701582 
L 95.070009 53.537693 
L 95.08646 56.158693 
L 95.185168 62.93113 
L 95.218068 60.140625 
L 95.300324 56.09796 
L 95.349675 58.286177 
L 95.366126 58.866093 
L 95.399029 56.152419 
L 95.41548 56.930138 
L 95.448382 57.90136 
L 95.481282 60.313235 
L 95.530636 55.228005 
L 95.563538 54.298835 
L 95.744496 58.703251 
L 95.79385 57.331595 
L 95.826753 58.517284 
L 95.843204 60.940404 
L 95.925457 59.675178 
L 95.95836 57.815896 
L 96.024162 60.606049 
L 96.073516 62.608216 
L 96.122869 60.5699 
L 96.320279 55.117372 
L 96.418986 59.650187 
L 96.451886 57.581204 
L 96.468337 57.234242 
L 96.484788 58.979223 
L 96.550593 64.014659 
L 96.599944 60.929479 
L 96.616395 61.490729 
L 96.649298 59.450844 
L 96.87961 53.395315 
L 96.945415 57.274347 
L 97.011217 56.263806 
L 97.093473 52.484446 
L 97.142824 54.106996 
L 97.192178 57.979383 
L 97.241532 54.921079 
L 97.340236 53.059643 
L 97.356688 53.413995 
L 97.373139 53.868499 
L 97.406038 53.546423 
L 97.504746 48.827828 
L 97.521197 49.935036 
L 97.586999 51.75145 
L 97.603451 49.140571 
L 97.619902 48.431121 
L 97.636353 50.350807 
L 97.669253 50.127515 
L 97.833762 57.270414 
L 97.866665 55.050104 
L 97.883116 55.53987 
L 97.916019 54.262654 
L 97.965369 52.918683 
L 97.981821 54.32989 
L 97.998272 53.082737 
L 98.064077 58.327603 
L 98.129879 57.503451 
L 98.228584 55.474248 
L 98.245035 57.511879 
L 98.31084 54.875573 
L 98.327291 55.298314 
L 98.343743 54.256005 
L 98.376642 58.271287 
L 98.393093 58.106392 
L 98.47535 62.079485 
L 98.508249 61.051535 
L 98.590506 54.689181 
L 98.639856 57.5358 
L 98.656308 59.240626 
L 98.72211 56.390156 
L 98.738564 56.933828 
L 98.787915 58.199671 
L 98.804369 57.023956 
L 98.820817 54.935721 
L 98.903071 56.931212 
L 98.952428 56.246393 
L 98.968876 57.139221 
L 99.001778 57.973914 
L 99.018226 55.498951 
L 99.051129 56.06541 
L 99.116934 54.494717 
L 99.133382 55.248524 
L 99.248538 59.596149 
L 99.264993 58.967448 
L 99.380148 61.385272 
L 99.413051 61.202931 
L 99.462402 64.189775 
L 99.528207 61.903011 
L 99.659811 58.197224 
L 99.74207 61.155569 
L 99.791421 59.844116 
L 99.840772 57.6258 
L 99.906577 57.717126 
L 99.923032 57.593332 
L 99.955928 58.982045 
L 99.98883 57.130162 
L 100.038187 54.19015 
L 100.103986 55.53548 
L 100.186246 55.282436 
L 100.235596 56.722156 
L 100.268499 56.313226 
L 100.301402 57.85987 
L 100.383655 61.066191 
L 100.416557 59.115625 
L 100.482356 57.050374 
L 100.515259 58.446074 
L 100.531713 59.675219 
L 100.613967 58.047081 
L 100.630415 57.425816 
L 100.663317 58.782436 
L 100.679772 58.689336 
L 100.69622 59.537464 
L 100.778473 58.383301 
L 100.794927 58.382286 
L 100.82783 59.79391 
L 100.877181 58.707353 
L 100.926532 53.866094 
L 100.992337 55.149611 
L 101.008791 56.013841 
L 101.058142 53.518976 
L 101.07459 53.157472 
L 101.091044 53.941433 
L 101.15685 57.574418 
L 101.2062 55.559753 
L 101.272005 52.369455 
L 101.321356 55.023288 
L 101.354259 57.22077 
L 101.403609 54.371462 
L 101.420064 55.286648 
L 101.45296 55.694837 
L 101.502317 55.361603 
L 101.601019 58.89649 
L 101.617473 59.270204 
L 101.633921 58.327507 
L 101.650376 58.948502 
L 101.798434 52.7725 
L 101.96294 48.928638 
L 101.979395 49.399321 
L 102.028746 52.303147 
L 102.094551 51.869972 
L 102.16035 50.064687 
L 102.127453 52.488827 
L 102.209707 51.637511 
L 102.226155 51.72394 
L 102.242609 51.508097 
L 102.259057 49.241033 
L 102.324862 52.564317 
L 102.341311 52.185262 
L 102.423564 57.830159 
L 102.555174 56.119146 
L 102.571622 55.896838 
L 102.588077 57.729299 
L 102.67033 57.164976 
L 102.719681 52.98906 
L 102.785486 55.607284 
L 102.900642 62.083303 
L 102.933544 61.623604 
L 102.949999 61.449216 
L 103.098051 54.861791 
L 103.114505 55.049167 
L 103.246109 58.295949 
L 103.262564 57.988506 
L 103.279012 56.143506 
L 103.361271 58.69711 
L 103.42707 56.376195 
L 103.476427 58.14266 
L 103.509323 59.362028 
L 103.575129 57.964782 
L 103.591583 58.36228 
L 103.80544 53.264561 
L 103.821895 54.327718 
L 103.854797 51.357945 
L 103.8877 52.599405 
L 103.904148 52.344414 
L 103.920596 53.246201 
L 104.002856 52.50785 
L 104.068655 56.475053 
L 104.118012 58.305164 
L 104.13446 60.014037 
L 104.183817 54.949724 
L 104.200265 54.213861 
L 104.233168 57.235052 
L 104.26607 56.138119 
L 104.447031 58.414891 
L 104.463479 57.263815 
L 104.64444 49.483239 
L 104.660888 49.639007 
L 104.743142 48.173071 
L 104.759596 49.344684 
L 104.776044 50.526933 
L 104.858304 49.267323 
L 104.874752 48.917027 
L 104.907654 51.64074 
L 104.989908 49.616933 
L 105.039259 51.776981 
L 105.137966 56.584808 
L 105.187317 54.992778 
L 105.22022 53.526796 
L 105.269577 56.448379 
L 105.318927 57.685691 
L 105.35183 55.07247 
L 105.368278 54.734901 
L 105.384732 56.381829 
L 105.434083 55.618753 
L 105.466986 55.245039 
L 105.483434 55.870122 
L 105.565687 52.859509 
L 105.59859 52.873955 
L 105.647947 55.135499 
L 105.697297 53.818956 
L 105.927609 47.776634 
L 105.960512 48.377005 
L 106.092122 51.491187 
L 106.10857 49.812083 
L 106.141473 51.986353 
L 106.190823 50.849151 
L 106.207278 52.101495 
L 106.24018 50.193868 
L 106.289531 50.300386 
L 106.305979 49.22196 
L 106.355336 51.97637 
L 106.371784 53.267323 
L 106.404687 50.52349 
L 106.437589 50.935603 
L 106.519843 48.334175 
L 106.569193 49.8263 
L 106.667901 53.661478 
L 106.733706 53.307505 
L 106.766609 54.425441 
L 106.81596 52.868129 
L 106.848862 54.182349 
L 106.964018 51.10438 
L 106.980466 51.16301 
L 106.996921 51.451452 
L 107.079174 49.12216 
L 107.095622 51.560023 
L 107.112076 50.821668 
L 107.128525 50.631388 
L 107.24368 45.24487 
L 107.276583 46.859166 
L 107.309486 46.791752 
L 107.457544 50.407804 
L 107.605602 44.448183 
L 107.720758 47.150343 
L 107.737213 46.419108 
L 107.786563 45.308727 
L 107.819466 46.396134 
L 107.868817 48.043469 
L 107.901719 46.846764 
L 107.95107 44.866904 
L 107.983973 47.083331 
L 108.016875 50.729802 
L 108.08268 47.002573 
L 108.115583 47.86245 
L 108.148485 46.660939 
L 108.247187 49.021034 
L 108.263641 48.999066 
L 108.296544 46.869094 
L 108.345895 50.459254 
L 108.362343 50.148628 
L 108.4117 49.445279 
L 108.444602 50.632646 
L 108.46105 52.748391 
L 108.543304 51.778911 
L 108.609109 50.486234 
L 108.642011 52.478062 
L 108.658459 52.976809 
L 108.674914 50.930078 
L 108.757167 51.006021 
L 108.83942 47.762975 
L 109.020381 58.852068 
L 109.135537 54.637955 
L 109.151986 55.042513 
L 109.184888 56.60385 
L 109.234245 53.697965 
L 109.267148 50.817461 
L 109.300044 53.205309 
L 109.316498 55.078493 
L 109.349401 50.984542 
L 109.382304 51.460543 
L 109.4152 50.329277 
L 109.481005 48.550479 
L 109.513907 50.508573 
L 109.612615 54.955156 
L 109.645518 52.558308 
L 109.760674 45.124429 
L 109.842927 47.382013 
L 109.92518 51.28866 
L 109.974531 49.862925 
L 110.007433 49.844213 
L 110.106141 54.403871 
L 110.155492 53.622919 
L 110.188394 50.989993 
L 110.270648 52.134036 
L 110.287102 52.126193 
L 110.320005 53.346339 
L 110.352907 51.575982 
L 110.369355 51.781106 
L 110.385804 51.625375 
L 110.402258 52.331792 
L 110.484511 54.342822 
L 110.500966 53.81966 
L 110.599667 51.739607 
L 110.550316 55.284101 
L 110.63257 51.857492 
L 110.862881 62.40398 
L 110.912238 60.868298 
L 110.961589 59.023055 
L 110.994492 61.069795 
L 111.01094 61.455531 
L 111.043842 59.656347 
L 111.060291 58.740681 
L 111.093193 61.719823 
L 111.126096 63.390225 
L 111.158998 61.55528 
L 111.208349 63.026754 
L 111.307057 61.70712 
L 111.241251 63.428765 
L 111.323511 61.991666 
L 111.372862 63.734278 
L 111.38931 61.89691 
L 111.438667 63.196689 
L 111.504466 59.957977 
L 111.537368 62.374951 
L 111.570271 63.429314 
L 111.603173 62.874681 
L 111.718329 59.539618 
L 111.734784 59.974454 
L 111.997998 65.882638 
L 112.014446 65.27174 
L 112.047349 65.367863 
L 112.162505 61.935844 
L 112.178953 64.638087 
L 112.261212 60.104105 
L 112.294115 60.325202 
L 112.310563 61.26157 
L 112.409271 60.662346 
L 112.425719 61.331403 
L 112.491524 59.532873 
L 112.524427 58.158798 
L 112.540875 57.788569 
L 112.557329 58.523764 
L 112.738284 65.108294 
L 112.836992 63.715776 
L 112.787641 65.205675 
L 112.869894 63.783854 
L 112.886342 64.31987 
L 112.919245 63.733249 
L 112.98505 60.192002 
L 113.050855 60.659406 
L 113.215362 55.974609 
L 113.314069 61.193108 
L 113.346972 60.11985 
L 113.36342 59.111395 
L 113.396323 61.2847 
L 113.445673 60.359248 
L 113.527933 63.428463 
L 113.593732 63.180537 
L 113.643089 62.399389 
L 113.675985 65.127162 
L 113.74179 62.504868 
L 113.791147 62.948342 
L 113.807595 63.039947 
L 113.824044 62.77736 
L 113.873401 60.141942 
L 113.939206 61.693685 
L 113.988556 62.399805 
L 114.005005 62.378943 
L 114.037907 59.855141 
L 114.12016 60.780918 
L 114.136615 60.83481 
L 114.169517 60.588384 
L 114.218868 62.701458 
L 114.251771 59.784146 
L 114.268219 60.074605 
L 114.284673 60.330767 
L 114.317576 56.990249 
L 114.399829 57.480888 
L 114.416277 58.322802 
L 114.44918 55.573773 
L 114.482082 57.253188 
L 114.58079 55.050465 
L 114.564336 57.624771 
L 114.597238 55.648738 
L 114.646589 59.39092 
L 114.695946 55.586011 
L 114.778199 54.227337 
L 114.794647 55.267931 
L 114.811102 57.137392 
L 114.893355 54.405558 
L 114.926258 56.428066 
L 115.024965 56.364639 
L 115.041414 56.042431 
L 115.057862 58.284823 
L 115.107219 55.270268 
L 115.156569 58.13645 
L 115.189472 56.126504 
L 115.238823 59.870296 
L 115.271725 57.036284 
L 115.304628 58.347596 
L 115.321076 57.721072 
L 115.419784 53.638572 
L 115.436238 54.873909 
L 115.452686 56.094855 
L 115.518491 53.789744 
L 115.551394 53.428427 
L 115.584296 53.663289 
L 115.863959 60.193044 
L 115.650095 53.115835 
L 115.91331 60.08366 
L 116.04492 54.27281 
L 116.110725 53.087973 
L 116.176524 57.489778 
L 116.192978 56.89847 
L 116.209426 58.660805 
L 116.242329 57.416743 
L 116.373939 60.940353 
L 116.42329 58.365069 
L 116.472641 61.18576 
L 116.521998 59.218534 
L 116.587797 60.39525 
L 116.686504 55.949687 
L 116.719407 57.531259 
L 116.735855 56.13479 
L 116.785212 57.629197 
L 116.80166 57.363281 
L 116.916816 61.995334 
L 116.93327 60.642431 
L 117.064874 55.708405 
L 117.097777 56.356801 
L 117.114225 57.978332 
L 117.163582 54.385254 
L 117.18003 54.612767 
L 117.196485 54.955659 
L 117.212933 54.304108 
L 117.229387 52.156599 
L 117.328089 53.375189 
L 117.360991 51.772239 
L 117.377439 53.470864 
L 117.426796 52.85115 
L 117.5584 56.460959 
L 117.574855 56.443907 
L 117.722913 52.281531 
L 117.788718 55.029014 
L 117.838069 53.915984 
L 117.969673 48.865431 
L 117.986127 49.228065 
L 118.002576 47.874399 
L 118.183537 42.72427 
L 118.298692 50.728851 
L 118.380946 49.593346 
L 118.446751 47.005111 
L 118.496102 48.788587 
L 118.529004 50.239241 
L 118.545459 48.602382 
L 118.611264 49.337211 
L 118.64416 48.358274 
L 118.677063 49.524734 
L 118.759316 48.876891 
L 118.808673 50.944469 
L 118.907374 46.458472 
L 118.940277 47.809911 
L 118.956731 49.349119 
L 119.022536 48.856011 
L 119.088335 44.374463 
L 119.15414 44.675133 
L 119.170589 44.668841 
L 119.187043 43.368107 
L 119.252848 46.538819 
L 119.35155 43.560988 
L 119.368004 43.726579 
L 119.384452 46.253532 
L 119.450257 41.965752 
L 119.466705 40.58812 
L 119.516062 44.112909 
L 119.532511 43.446999 
L 119.548965 43.377879 
L 119.598316 45.420242 
L 119.631218 42.845393 
L 119.812179 33.160757 
L 120.075394 25.614808 
L 119.86153 34.30784 
L 120.091842 25.724783 
L 120.124744 25.477607 
L 120.174095 28.016559 
L 120.338608 32.181102 
L 120.453764 28.601039 
L 120.486666 29.53582 
L 120.536017 28.686987 
L 120.634725 33.015685 
L 120.651173 33.07153 
L 120.766329 27.385745 
L 120.684075 34.076935 
L 120.832134 30.039263 
L 120.848582 32.548798 
L 120.881484 29.817773 
L 120.930841 30.502629 
L 120.980192 29.584041 
L 121.161153 38.57934 
L 121.194056 42.184906 
L 121.292757 40.84473 
L 121.309212 39.065571 
L 121.391465 42.172449 
L 121.523069 44.388515 
L 121.654679 37.478036 
L 121.671127 39.100151 
L 121.802738 44.347986 
L 121.819186 41.852293 
L 121.83564 41.207487 
L 121.884991 43.478849 
L 121.917893 43.077954 
L 121.950796 43.783901 
L 122.098854 48.859838 
L 122.131757 46.463649 
L 122.197556 48.539422 
L 122.312718 52.170144 
L 122.329166 50.357881 
L 122.345614 50.191454 
L 122.362069 50.433613 
L 122.394971 53.839777 
L 122.444322 51.268901 
L 122.625283 43.053301 
L 122.773341 48.980518 
L 122.78979 48.605382 
L 122.888497 45.419095 
L 122.904945 46.42878 
L 122.9214 48.139999 
L 122.970751 44.403327 
L 123.020101 47.054723 
L 123.151712 52.134937 
L 123.085906 47.005308 
L 123.184614 51.097343 
L 123.217517 51.91181 
L 123.233965 49.758008 
L 123.266867 50.87883 
L 123.283322 49.966497 
L 123.332673 53.095202 
L 123.349121 52.051321 
L 123.398478 54.237233 
L 123.447828 51.7392 
L 123.464277 52.55647 
L 123.480731 50.696937 
L 123.546536 52.816862 
L 123.579432 52.089742 
L 123.595887 52.990683 
L 123.628789 50.841825 
L 123.67814 52.18683 
L 123.694594 52.222746 
L 123.711043 53.74133 
L 123.776848 52.09919 
L 123.80975 53.454452 
L 123.859101 49.956277 
L 123.957809 50.929447 
L 124.040062 54.562803 
L 124.072965 52.840303 
L 124.089413 52.765293 
L 124.105867 52.983385 
L 124.253919 55.097859 
L 124.418432 51.684105 
L 124.484237 57.124464 
L 124.51714 53.960145 
L 124.648744 47.508628 
L 124.681646 48.903537 
L 124.747452 48.319917 
L 124.796802 52.016937 
L 124.81325 51.283982 
L 124.846153 54.177991 
L 124.862607 53.862847 
L 124.928413 56.629129 
L 125.010666 55.075333 
L 125.060017 52.151847 
L 125.125822 53.460818 
L 125.257426 56.81966 
L 125.175172 53.071199 
L 125.290328 56.57028 
L 125.339685 51.058528 
L 125.405484 54.625201 
L 125.438387 57.109781 
L 125.487738 52.754254 
L 125.569997 51.028497 
L 125.52064 53.068245 
L 125.586445 51.783955 
L 125.635796 54.511051 
L 125.701601 52.52568 
L 125.89901 58.259091 
L 125.734504 52.436819 
L 125.915465 56.756883 
L 125.98127 55.712379 
L 125.948367 58.070312 
L 126.014172 56.947762 
L 126.03062 58.220839 
L 126.079971 55.806408 
L 126.178679 52.280671 
L 126.195127 54.233136 
L 126.293835 56.923411 
L 126.22803 54.097022 
L 126.376088 55.297248 
L 126.441893 55.308809 
L 126.507698 53.541329 
L 126.524146 54.326103 
L 126.589951 52.677534 
L 126.6064 53.562405 
L 126.655757 53.754441 
L 126.73801 49.547539 
L 126.787361 52.137923 
L 126.820263 56.901964 
L 126.902517 54.189656 
L 126.918971 54.110174 
L 126.951874 56.170322 
L 127.001224 53.60487 
L 127.050575 52.289895 
L 127.067029 54.093949 
L 127.083478 54.925524 
L 127.11638 51.54228 
L 127.24799 45.27234 
L 127.264439 46.002148 
L 127.280887 45.599748 
L 127.297341 46.028571 
L 127.428945 51.887939 
L 127.445399 51.473645 
L 127.577003 53.009945 
L 127.478302 50.310853 
L 127.593458 52.036619 
L 127.642809 49.705182 
L 127.692159 52.460827 
L 127.708614 52.476571 
L 127.741516 55.346435 
L 127.790867 50.819034 
L 127.807321 50.933197 
L 127.922477 47.378112 
L 127.840218 51.10112 
L 128.070536 47.687411 
L 128.235042 55.925702 
L 128.284393 54.859518 
L 128.300848 54.128301 
L 128.33375 56.731325 
L 128.350198 56.176088 
L 128.399549 58.748985 
L 128.448906 55.814598 
L 128.465354 56.093945 
L 128.481808 55.454516 
L 128.646315 50.119064 
L 128.662763 50.719202 
L 128.695666 48.353756 
L 128.745023 45.867297 
L 128.810822 47.035265 
L 128.827276 47.051632 
L 128.925977 49.08875 
L 128.942432 47.129312 
L 129.04114 48.273821 
L 129.057588 47.176807 
L 129.09049 49.263038 
L 129.139841 47.727818 
L 129.172744 50.426704 
L 129.222094 52.527834 
L 129.254997 50.011097 
L 129.287899 51.466406 
L 129.41951 54.241728 
L 129.386607 51.23454 
L 129.435958 53.483742 
L 129.584016 48.955175 
L 129.715627 53.162127 
L 129.732075 52.811484 
L 129.781425 50.90843 
L 129.814328 53.70932 
L 129.847231 52.491104 
L 129.880133 55.481048 
L 129.995289 59.045901 
L 130.011743 58.969245 
L 130.04464 56.666202 
L 130.093997 60.494337 
L 130.110445 58.556442 
L 130.307854 63.134826 
L 130.340756 61.557475 
L 130.488815 56.806792 
L 130.521717 58.631337 
L 130.55462 56.306239 
L 130.587523 57.879405 
L 130.603971 56.718022 
L 130.636873 58.403651 
L 130.702678 57.310221 
L 130.719127 57.564344 
L 130.735581 56.180547 
L 130.768484 55.966625 
L 130.784932 55.35425 
L 130.834289 57.387641 
L 130.88364 59.928752 
L 130.949445 58.973644 
L 130.965893 58.997876 
L 131.015244 61.493756 
L 131.048146 58.061907 
L 131.081049 59.29176 
L 131.097503 59.422958 
L 131.113951 58.898648 
L 131.245562 53.938369 
L 131.294912 56.050593 
L 131.360717 54.671474 
L 131.377165 54.923018 
L 131.393614 53.766843 
L 131.426516 51.741811 
L 131.459419 54.301396 
L 131.492321 53.591206 
L 131.574575 55.872231 
L 131.607477 54.881024 
L 131.64038 50.21285 
L 131.722633 53.11868 
L 131.821341 56.394359 
L 131.854243 55.608907 
L 131.936497 50.767534 
L 131.985847 53.15471 
L 132.002302 52.101938 
L 132.051652 54.326767 
L 132.068107 54.207084 
L 132.133906 53.924957 
L 132.249062 58.303261 
L 132.281964 56.783996 
L 132.298419 57.724836 
L 132.331321 59.50523 
L 132.380672 57.300225 
L 132.39712 56.289922 
L 132.446477 58.466648 
L 132.462925 58.213371 
L 132.47938 58.092317 
L 132.561633 63.136436 
L 132.594535 62.057928 
L 132.676789 59.5426 
L 132.693237 60.384001 
L 132.709691 61.664944 
L 132.742594 59.351885 
L 132.77549 59.378463 
L 132.791945 59.305648 
L 132.841295 61.152816 
L 132.890652 59.789218 
L 133.055159 56.994611 
L 133.071607 56.939206 
L 133.088061 56.357789 
L 133.120964 58.094786 
L 133.137412 59.719215 
L 133.203217 57.142527 
L 133.219665 58.045238 
L 133.28547 58.347349 
L 133.367724 55.85816 
L 133.515782 61.484633 
L 133.565139 63.115789 
L 133.61449 63.046061 
L 133.696743 59.993143 
L 133.729646 62.299873 
L 133.762548 63.515582 
L 133.811899 60.797198 
L 133.828354 61.503981 
L 133.844802 62.370703 
L 133.894152 60.265439 
L 133.910607 60.646163 
L 133.943509 58.164418 
L 134.009308 61.365577 
L 134.025763 62.668337 
L 134.091568 60.218314 
L 134.108016 58.914196 
L 134.157367 61.063118 
L 134.190269 60.547726 
L 134.288977 58.168076 
L 134.338328 58.509002 
L 134.453483 61.011691 
L 134.404133 58.148843 
L 134.469938 59.935776 
L 134.650899 56.060901 
L 134.733152 60.464732 
L 134.815405 59.683162 
L 134.897659 58.591397 
L 134.914113 58.714208 
L 134.947016 58.2325 
L 135.062172 61.258904 
L 135.12797 61.814094 
L 135.095074 60.691654 
L 135.144425 61.517791 
L 135.325386 56.498832 
L 135.341834 57.179115 
L 135.358288 59.184306 
L 135.45699 58.200201 
L 135.473444 58.566141 
L 135.506347 57.559053 
L 135.539243 57.72618 
L 135.572146 56.678347 
L 135.5886 58.075209 
L 135.637951 57.173006 
L 135.769561 61.87759 
L 135.934068 53.893838 
L 136.016321 54.690992 
L 136.098574 59.156941 
L 136.147931 57.192167 
L 136.230185 55.063708 
L 136.263087 56.750558 
L 136.279535 56.381006 
L 136.29599 58.038223 
L 136.328892 58.513941 
L 136.361789 58.099295 
L 136.444048 54.856157 
L 136.476944 57.407607 
L 136.559204 54.573979 
L 136.575652 55.64207 
L 136.641457 60.724424 
L 136.707262 59.670418 
L 136.871769 56.074665 
L 136.888217 57.222243 
L 136.954022 55.681896 
L 137.003379 52.262599 
L 137.085632 53.700435 
L 137.102081 55.431208 
L 137.167886 52.991946 
L 137.200788 54.668644 
L 137.250139 51.940335 
L 137.29949 54.254706 
L 137.398197 56.497913 
L 137.464003 56.248395 
L 137.480451 56.116914 
L 137.513353 56.47915 
L 137.529808 58.083034 
L 137.579158 54.763541 
L 137.677866 51.207852 
L 137.727217 51.923923 
L 137.743665 51.596209 
L 137.76012 53.078187 
L 137.80947 57.510649 
L 137.875275 56.96609 
L 137.924626 54.917311 
L 137.973983 55.608793 
L 138.023334 59.189404 
L 138.089139 57.318896 
L 138.171392 55.942041 
L 138.122035 57.857144 
L 138.220743 56.348447 
L 138.286548 58.244673 
L 138.270094 56.289017 
L 138.335899 57.208455 
L 138.483957 53.168241 
L 138.533308 50.96053 
L 138.599113 52.720894 
L 138.615567 53.188664 
L 138.681366 52.041905 
L 138.697821 52.02044 
L 138.747171 54.86972 
L 138.796528 51.891176 
L 138.812976 51.232532 
L 138.845879 53.057444 
L 138.961035 56.538091 
L 138.977483 56.399796 
L 139.092639 54.164661 
L 139.109093 55.873964 
L 139.174899 54.53521 
L 139.290054 49.795236 
L 139.322957 50.125146 
L 139.339405 49.758548 
L 139.388756 54.183876 
L 139.471015 52.892018 
L 139.503912 55.581831 
L 139.586171 53.295223 
L 139.717775 56.396879 
L 139.767132 57.985836 
L 139.832931 54.838149 
L 139.865834 55.665424 
L 139.898736 54.077967 
L 140.030346 48.764122 
L 140.046795 50.008024 
L 140.096145 53.582339 
L 140.211301 52.990624 
L 140.293561 49.67243 
L 140.408717 39.147184 
L 140.49097 41.561935 
L 140.540321 41.745049 
L 140.573223 39.564651 
L 140.606126 42.751593 
L 140.688379 41.658954 
L 140.73773 42.861526 
L 140.754184 40.253386 
L 140.770632 41.293989 
L 140.787087 40.52082 
L 140.819989 43.028187 
L 140.836437 41.455811 
L 140.968048 47.417709 
L 140.984496 47.014911 
L 141.017398 46.873777 
L 141.033847 47.477418 
L 141.066749 44.90796 
L 141.083204 44.933188 
L 141.149002 43.613326 
L 141.231262 48.018419 
L 141.24771 47.941991 
L 141.280613 46.214771 
L 141.329963 48.519027 
L 141.346418 47.337454 
L 141.510924 52.509062 
L 141.609632 55.899869 
L 141.543827 52.309989 
L 141.658983 55.414178 
L 141.675437 55.383411 
L 141.691885 54.493994 
L 141.741236 57.785912 
L 141.757691 58.023901 
L 141.774139 56.910268 
L 141.922197 53.709919 
L 141.938652 55.319313 
L 142.00445 56.685682 
L 142.020905 56.092463 
L 142.136061 49.216605 
L 142.152509 49.344295 
L 142.366372 58.880919 
L 142.382821 58.85141 
L 142.399275 58.857208 
L 142.497983 61.790736 
L 142.547333 61.563621 
L 142.563781 60.898063 
L 142.629587 62.372509 
L 142.662489 61.050236 
L 142.728294 62.93841 
L 142.810548 64.451337 
L 142.826996 63.907465 
L 142.942152 54.376932 
L 142.991509 56.722097 
L 143.073762 60.394798 
L 143.123113 59.421636 
L 143.139567 57.566745 
L 143.188918 60.465299 
L 143.22182 60.140538 
L 143.238269 60.125342 
L 143.254723 61.001365 
L 143.304074 59.78609 
L 143.353424 60.340929 
L 143.369879 60.441336 
L 143.386327 61.318658 
L 143.452132 59.204765 
L 143.468587 59.288765 
L 143.534385 61.251825 
L 143.583742 60.818526 
L 143.616639 60.864808 
L 143.7976 55.888753 
L 143.814054 56.061619 
L 143.830502 58.446243 
L 143.896307 55.020631 
L 143.912755 56.08189 
L 143.945658 54.773945 
L 143.962112 56.024866 
L 144.011463 58.818393 
L 144.060814 55.268375 
L 144.110171 57.507544 
L 144.192424 56.53724 
L 144.225327 53.62392 
L 144.291132 56.143877 
L 144.30758 56.527344 
L 144.324028 55.816189 
L 144.356931 53.186469 
L 144.43919 54.801025 
L 144.455639 54.203288 
L 144.488541 56.042806 
L 144.554346 58.387262 
L 144.603697 56.582681 
L 144.653048 56.22864 
L 144.751755 52.74177 
L 144.81756 52.985411 
L 144.916262 50.500739 
L 144.932716 52.360451 
L 144.965619 54.42819 
L 145.047872 52.462313 
L 145.06432 51.36876 
L 145.130125 54.142884 
L 145.146574 53.166494 
L 145.245281 57.090419 
L 145.261736 55.479306 
L 145.409788 51.97348 
L 145.44269 53.598435 
L 145.475593 49.645953 
L 145.492047 50.310473 
L 145.52495 49.63833 
L 145.557846 50.797569 
L 145.607203 54.153462 
L 145.673008 51.922103 
L 145.689457 50.339548 
L 145.755262 54.109145 
L 145.788164 54.244253 
L 145.853963 56.821768 
L 145.919768 56.20964 
L 145.936223 56.007036 
L 145.952671 57.364415 
L 146.018476 56.307789 
L 146.100729 53.168827 
L 146.133632 55.178105 
L 146.15008 54.164084 
L 146.182983 56.281517 
L 146.232333 55.881171 
L 146.298138 53.952472 
L 146.331041 54.630665 
L 146.347495 56.443875 
L 146.396846 53.951342 
L 146.429749 54.720825 
L 146.446197 54.614674 
L 146.594255 60.602697 
L 146.725865 53.808813 
L 146.758768 55.576215 
L 146.841021 59.804793 
L 146.906826 57.974961 
L 147.071333 51.774571 
L 147.087781 52.439087 
L 147.137138 51.968134 
L 147.170041 49.207999 
L 147.252294 50.612566 
L 147.301645 50.33444 
L 147.400353 53.688975 
L 147.449703 55.759755 
L 147.482606 53.183826 
L 147.61421 48.9322 
L 147.548411 54.031675 
L 147.663567 51.060256 
L 147.680015 51.936362 
L 147.696469 49.809989 
L 147.762268 50.834202 
L 147.795171 50.384116 
L 147.811625 52.064628 
L 147.943229 55.322418 
L 147.959684 54.754395 
L 147.976132 57.361447 
L 148.074839 58.552294 
L 148.009034 56.574478 
L 148.091288 57.662516 
L 148.2558 50.869089 
L 148.272248 52.461138 
L 148.288697 54.031232 
L 148.354502 51.523302 
L 148.387404 53.394798 
L 148.420307 53.301218 
L 148.584814 56.895946 
L 148.617716 56.072781 
L 148.634171 56.666769 
L 148.667073 58.433375 
L 148.683521 56.596478 
L 148.749326 57.708725 
L 148.848028 54.935886 
L 148.930287 56.095138 
L 148.96319 58.126984 
L 148.996086 53.142171 
L 149.012541 54.358544 
L 149.127697 53.529828 
L 149.242852 56.963424 
L 149.2593 56.423292 
L 149.325106 55.339877 
L 149.34156 57.105446 
L 149.390911 57.874823 
L 149.374463 56.788528 
L 149.440261 57.051055 
L 149.555417 54.172874 
L 149.473164 57.745021 
L 149.571872 54.2612 
L 149.769281 59.705963 
L 149.621222 53.044091 
L 149.802184 58.639619 
L 149.851534 55.184507 
L 149.917339 55.891455 
L 149.950242 55.890664 
L 150.032495 57.386905 
L 150.180554 51.403683 
L 150.213456 53.322916 
L 150.229904 53.254734 
L 150.246359 53.336388 
L 150.377963 55.209141 
L 150.394417 54.305393 
L 150.42732 57.725041 
L 150.443768 56.654847 
L 150.460222 60.074331 
L 150.542476 56.805626 
L 150.690534 61.142971 
L 150.756339 59.284663 
L 150.855041 57.580052 
L 150.871495 57.835702 
L 150.887943 58.519287 
L 150.920846 57.028323 
L 150.970196 58.100575 
L 151.019553 56.701505 
L 151.085352 57.692999 
L 151.101807 59.086706 
L 151.134709 56.366491 
L 151.18406 58.195848 
L 151.315664 52.533459 
L 151.348567 53.314511 
L 151.480171 58.894674 
L 151.513079 58.073718 
L 151.611781 54.836694 
L 151.628235 55.962779 
L 151.710495 53.998723 
L 151.759846 58.843435 
L 151.875001 61.280922 
L 151.891443 60.695674 
L 152.006599 56.427522 
L 152.039508 56.652277 
L 152.072404 58.941812 
L 152.121768 56.861946 
L 152.286274 48.528625 
L 152.31917 48.834042 
L 152.450781 52.930609 
L 152.467235 52.143941 
L 152.483677 53.493212 
L 152.500131 52.206805 
L 152.631742 56.605039 
L 152.648196 56.617751 
L 152.681092 54.293279 
L 152.763352 55.474394 
L 152.796248 56.124638 
L 152.845599 55.282555 
L 152.862053 55.44286 
L 153.043014 51.160586 
L 153.15817 57.203375 
L 153.191066 56.621163 
L 153.28978 51.126916 
L 153.372027 53.741582 
L 153.520092 58.251093 
L 153.618794 54.778412 
L 153.668144 56.05421 
L 153.750404 61.692669 
L 153.86556 65.072927 
L 153.882014 64.570416 
L 153.914911 63.490825 
L 153.931365 63.888446 
L 153.947807 66.352548 
L 153.99717 63.776061 
L 154.046521 64.913775 
L 154.079417 65.204742 
L 154.095872 65.108477 
L 154.309729 55.110869 
L 154.326183 56.363761 
L 154.359079 58.215735 
L 154.391988 55.998631 
L 154.54004 52.989211 
L 154.556495 53.679166 
L 154.75391 59.320131 
L 154.770352 58.346503 
L 154.786807 56.252662 
L 154.819715 58.42331 
L 154.885508 57.246365 
L 154.918417 56.07472 
L 154.967767 57.659315 
L 155.000676 56.404447 
L 155.115832 59.214332 
L 155.132274 58.785944 
L 155.181625 56.608862 
L 155.230988 58.175146 
L 155.24743 58.798496 
L 155.296781 57.167052 
L 155.313235 57.722984 
L 155.362586 56.051672 
L 155.428391 56.584909 
L 155.477742 58.313514 
L 155.527105 56.323103 
L 155.543547 57.573005 
L 155.592898 56.529046 
L 155.576456 57.891025 
L 155.625806 56.786483 
L 155.691612 59.393901 
L 155.740962 57.844656 
L 155.757417 58.186569 
L 155.790313 57.03489 
L 155.987728 50.371545 
L 156.037079 52.747092 
L 156.069975 54.956423 
L 156.13578 52.333681 
L 156.152235 53.522731 
L 156.267391 47.52718 
L 156.300287 49.969968 
L 156.415443 53.799901 
L 156.448352 52.395978 
L 156.547053 49.17559 
L 156.563508 50.22196 
L 156.662209 55.5941 
L 156.695118 54.520663 
L 156.760923 51.35554 
L 156.793819 52.734558 
L 156.84317 57.023261 
L 156.908975 54.392992 
L 156.991235 56.993308 
L 157.040585 55.426072 
L 157.073482 56.610206 
L 157.106391 54.213468 
L 157.122832 51.751048 
L 157.205092 55.777626 
L 157.221546 55.815288 
L 157.237988 56.288564 
L 157.270897 55.356651 
L 157.287352 55.607096 
L 157.320248 53.230808 
L 157.369599 56.045325 
L 157.386053 57.548526 
L 157.468313 55.832135 
L 157.484754 54.601353 
L 157.567014 54.673431 
L 157.583468 56.665109 
L 157.665715 53.405092 
L 157.715066 53.960077 
L 157.731521 52.683524 
L 157.764429 53.844866 
L 157.830222 51.891126 
L 157.863131 54.184525 
L 157.896027 56.056758 
L 157.961832 54.439453 
L 158.076988 51.642706 
L 158.126339 55.592559 
L 158.192144 52.609475 
L 158.290858 53.810199 
L 158.257949 51.932731 
L 158.3073 53.513027 
L 158.323754 53.662607 
L 158.340209 53.249768 
L 158.356651 51.122233 
L 158.406014 56.960616 
L 158.43891 57.589587 
L 158.455365 56.852983 
L 158.471806 56.466758 
L 158.504715 58.074839 
L 158.52117 57.551407 
L 158.537612 57.5616 
L 158.685676 60.853856 
L 158.767923 59.125818 
L 158.800832 59.641736 
L 158.833728 59.174099 
L 158.850183 59.932963 
L 158.899533 59.451927 
L 158.981793 61.576352 
L 158.932442 58.634127 
L 159.031144 60.019977 
L 159.179196 54.900354 
L 159.228559 56.342232 
L 159.294352 57.766038 
L 159.343715 57.022552 
L 159.376611 54.649762 
L 159.442417 57.598979 
L 159.458871 57.682495 
L 159.541118 62.760701 
L 159.590469 61.642161 
L 159.623378 62.001484 
L 159.722079 59.441647 
L 159.985299 50.49072 
L 160.018196 51.209407 
L 160.067546 53.965788 
L 160.149806 53.13394 
L 160.182702 52.618273 
L 160.199157 53.57622 
L 160.215611 53.33872 
L 160.347221 58.467869 
L 160.363663 58.296974 
L 160.429468 58.479461 
L 160.495274 55.104202 
L 160.676235 49.344505 
L 160.692689 49.599899 
L 160.857196 56.850751 
L 160.939443 55.501329 
L 160.890092 57.017673 
L 160.988806 56.296356 
L 161.005248 57.983371 
L 161.071053 54.909299 
L 161.103962 55.095687 
L 161.219118 52.575063 
L 161.400079 56.773816 
L 161.449429 55.285825 
L 161.515234 55.585887 
L 161.531676 56.204482 
L 161.564585 55.013621 
L 161.58104 55.703622 
L 161.663286 48.972346 
L 161.712637 52.573947 
L 161.827793 56.402165 
L 161.844247 56.025012 
L 161.877156 53.520124 
L 161.942949 55.394144 
L 161.959403 55.791436 
L 161.975858 54.491099 
L 162.025209 52.667683 
L 162.058105 54.033802 
L 162.074559 56.611308 
L 162.173261 55.964119 
L 162.25552 54.795625 
L 162.271975 55.801954 
L 162.321325 55.945055 
L 162.387131 53.964028 
L 162.420027 54.922935 
L 162.485832 54.293951 
L 162.551637 57.234297 
L 162.568092 54.677972 
L 162.650338 59.090981 
L 162.749052 55.19679 
L 162.765494 58.53215 
L 162.781949 58.425697 
L 162.930013 52.655423 
L 162.995806 53.975259 
L 163.01226 53.148697 
L 163.160325 46.815824 
L 163.176767 46.842823 
L 163.22613 42.195026 
L 163.291923 45.856093 
L 163.324832 47.139771 
L 163.390637 45.124904 
L 163.439988 43.38237 
L 163.489338 45.209096 
L 163.555144 48.189588 
L 163.58804 45.829538 
L 163.637403 43.916205 
L 163.71965 43.932192 
L 163.785455 42.45073 
L 163.884157 48.510873 
L 164.065118 50.977998 
L 164.081572 50.49045 
L 164.246079 43.455472 
L 164.262533 43.974107 
L 164.278987 44.007453 
L 164.394143 42.411097 
L 164.410585 43.197024 
L 164.525741 51.044159 
L 164.542195 50.088334 
L 164.591546 48.297038 
L 164.624455 50.817392 
L 164.657351 52.570874 
L 164.756065 52.354067 
L 164.772507 52.807794 
L 164.805416 50.957155 
L 164.838312 49.10642 
L 164.887663 51.830923 
L 165.019273 56.86003 
L 164.937014 50.367946 
L 165.035728 56.101709 
L 165.200234 49.865381 
L 165.216689 50.159338 
L 165.282494 53.624821 
L 165.331845 51.032983 
L 165.414092 47.772006 
L 165.447 50.072594 
L 165.479897 51.609191 
L 165.529247 48.852951 
L 165.545702 48.739543 
L 165.578611 51.239693 
L 165.611507 47.833238 
L 165.644403 49.124616 
L 165.907624 41.446011 
L 165.924078 42.160248 
L 166.006325 45.035718 
L 166.039234 44.175056 
L 166.07213 41.781203 
L 166.105039 45.615049 
L 166.121481 45.5214 
L 166.137936 45.471116 
L 166.220195 47.915523 
L 166.187286 45.252 
L 166.269546 47.337568 
L 166.401156 52.270858 
L 166.434052 51.957667 
L 166.450507 50.701459 
L 166.483403 54.218667 
L 166.516312 53.195674 
L 166.598559 55.990427 
L 166.631468 54.357483 
L 166.680818 55.435941 
L 166.69726 53.548641 
L 166.713715 52.991081 
L 166.746624 55.386855 
L 166.812429 53.660362 
L 166.927585 52.204683 
L 166.878221 54.870891 
L 166.944026 52.405421 
L 166.960481 53.672458 
L 167.026286 53.096176 
L 167.075637 48.967417 
L 167.141442 51.715288 
L 167.190793 49.589043 
L 167.223701 50.700824 
L 167.355299 52.690278 
L 167.388208 50.791244 
L 167.421104 52.646264 
L 167.470455 57.431605 
L 167.552715 55.668557 
L 167.651416 52.478419 
L 167.66787 53.473187 
L 167.700767 55.161748 
L 167.733676 52.837403 
L 167.75013 53.273817 
L 167.898182 48.306157 
L 168.095598 52.13072 
L 168.112039 52.372885 
L 168.144948 49.609091 
L 168.227195 50.522177 
L 168.342364 47.373255 
L 168.408156 48.869597 
L 168.441065 50.127611 
L 168.490416 47.94554 
L 168.50687 47.909523 
L 168.556221 46.94725 
L 168.589117 48.394378 
L 168.605572 48.86791 
L 168.622026 47.034172 
L 168.638468 45.725467 
L 168.720728 47.979425 
L 168.737182 47.366016 
L 168.770078 48.712814 
L 168.802987 48.022873 
L 168.983948 52.058454 
L 169.115546 54.61659 
L 169.033299 51.823278 
L 169.132 53.620532 
L 169.164909 52.760098 
L 169.21426 54.446692 
L 169.296507 56.184973 
L 169.280065 54.407465 
L 169.312961 55.79128 
L 169.329416 53.971267 
L 169.395221 56.692898 
L 169.428117 54.377229 
L 169.461013 56.389132 
L 169.526818 53.978478 
L 169.543273 54.728769 
L 169.559727 54.868033 
L 169.658429 51.144714 
L 169.609078 55.015985 
L 169.691338 52.464924 
L 169.790039 50.749539 
L 169.822935 51.325669 
L 169.83939 52.831879 
L 169.872286 49.706526 
L 169.905195 49.94928 
L 169.921649 49.939293 
L 169.954546 50.621648 
L 169.987454 49.569622 
L 170.003896 48.358627 
L 170.053247 49.74498 
L 170.086156 49.329191 
L 170.168403 51.357858 
L 170.300013 57.380791 
L 170.316468 56.258621 
L 170.332922 55.442887 
L 170.365818 57.88214 
L 170.415169 59.799882 
L 170.480974 59.736945 
L 170.513883 58.448123 
L 170.579676 60.284448 
L 170.67839 59.162506 
L 170.694831 59.849334 
L 170.760637 62.338884 
L 170.793545 59.853591 
L 170.826442 60.652208 
L 170.908701 58.5487 
L 170.974506 58.06139 
L 171.040312 60.866226 
L 171.056753 61.16258 
L 171.073208 60.744527 
L 171.204818 55.817163 
L 171.221272 57.119873 
L 171.237714 57.226843 
L 171.254169 56.950332 
L 171.385779 54.314667 
L 171.418675 53.317644 
L 171.468026 54.830068 
L 171.484481 54.535772 
L 171.599636 59.61991 
L 171.632545 58.77902 
L 171.648987 60.047479 
L 171.714792 57.727954 
L 171.747701 59.562295 
L 171.764143 60.227945 
L 171.813494 59.051718 
L 171.879299 55.573184 
L 171.92865 56.396563 
L 171.945104 56.009505 
L 171.961558 57.64657 
L 172.142519 61.383109 
L 172.158974 61.179074 
L 172.241221 59.037995 
L 172.224766 61.265658 
L 172.257675 60.343572 
L 172.356377 62.707275 
L 172.290571 60.153484 
L 172.389285 62.604206 
L 172.422182 63.312668 
L 172.504441 61.380818 
L 172.652493 66.853956 
L 172.817 63.798235 
L 172.833455 64.116987 
L 172.849909 62.446655 
L 172.866363 62.425825 
L 172.965065 64.369669 
L 173.014416 62.855155 
L 173.03087 62.660444 
L 173.146026 64.497958 
L 173.244727 62.806083 
L 173.261182 65.537276 
L 173.359883 64.139459 
L 173.442143 64.05908 
L 173.475039 64.85146 
L 173.557298 64.103652 
L 173.507948 65.460442 
L 173.57374 64.303156 
L 173.606649 66.481793 
L 173.656 63.947725 
L 173.672454 64.086454 
L 173.705351 63.984148 
L 173.721805 64.877827 
L 173.771156 62.886621 
L 173.804065 63.640835 
L 173.935662 60.467471 
L 173.952117 61.577614 
L 174.001467 63.677204 
L 174.050818 61.666215 
L 174.133078 58.825445 
L 174.165974 60.717596 
L 174.215337 62.255195 
L 174.248234 60.519977 
L 174.264688 60.338349 
L 174.28113 60.572442 
L 174.363389 60.462779 
L 174.445649 65.220779 
L 174.593701 61.078149 
L 174.675961 59.474527 
L 174.708857 60.141677 
L 174.856922 63.269426 
L 174.906272 62.524587 
L 174.955623 63.775179 
L 175.037883 60.754582 
L 175.103675 59.687278 
L 175.16948 56.642326 
L 175.218831 57.71504 
L 175.284636 62.334595 
L 175.333999 60.433389 
L 175.38335 60.654828 
L 175.465597 57.788591 
L 175.482052 57.270103 
L 175.498506 58.42882 
L 175.531402 58.366043 
L 175.547857 59.856284 
L 175.580753 56.987601 
L 175.630104 58.133226 
L 175.646558 58.379268 
L 175.663013 57.744389 
L 175.679467 57.919098 
L 175.745272 56.461298 
L 175.712363 58.167185 
L 175.778169 57.472615 
L 175.811065 58.900313 
L 175.860428 57.998178 
L 175.95913 53.090684 
L 176.024935 53.707075 
L 176.09074 58.13318 
L 176.156545 57.21761 
L 176.172987 54.683634 
L 176.255246 57.144828 
L 176.321051 60.38524 
L 176.370402 58.230799 
L 176.386857 58.137218 
L 176.452649 60.334549 
L 176.502012 58.798185 
L 176.534909 59.288678 
L 176.584259 56.637584 
L 176.600714 55.252086 
L 176.682973 57.670185 
L 176.699415 57.10909 
L 176.748766 58.640826 
L 176.781675 57.476041 
L 176.798129 57.548494 
L 176.814571 57.432401 
L 176.97909 53.920768 
L 176.863922 57.706169 
L 177.028441 55.348954 
L 177.127142 56.533244 
L 177.061337 55.292995 
L 177.160039 56.236392 
L 177.176493 56.214839 
L 177.258753 52.914581 
L 177.291649 53.220135 
L 177.324558 52.981295 
L 177.406805 54.855837 
L 177.456156 57.849329 
L 177.505519 54.335702 
L 177.587766 54.401319 
L 177.653571 51.317314 
L 177.686467 51.20515 
L 177.702922 52.404927 
L 177.768727 50.376996 
L 177.785181 51.434263 
L 177.850986 50.207697 
L 177.900337 50.454521 
L 177.982584 53.261986 
L 178.015493 51.408041 
L 178.064844 49.274023 
L 178.114194 51.241536 
L 178.130649 51.888172 
L 178.163545 48.938342 
L 178.22935 50.969456 
L 178.262259 50.459162 
L 178.278701 53.580537 
L 178.360961 52.96144 
L 178.393857 50.13533 
L 178.476116 52.242117 
L 178.607727 55.941012 
L 178.525467 51.087319 
L 178.689974 54.694183 
L 178.805129 50.987752 
L 178.854493 52.13576 
L 179.035454 56.593282 
L 179.051896 55.733378 
L 179.216402 52.982425 
L 179.364467 57.596853 
L 179.380921 56.855914 
L 179.413818 59.108592 
L 179.463168 57.383187 
L 179.545428 56.869139 
L 179.578324 58.264716 
L 179.594779 58.126961 
L 179.677038 55.542527 
L 179.726389 56.604517 
L 179.808636 53.762279 
L 179.874441 54.541397 
L 180.104753 59.284476 
L 180.137662 57.821978 
L 180.154116 56.510447 
L 180.187012 59.147041 
L 180.236363 58.29814 
L 180.269272 57.406194 
L 180.285714 58.575438 
L 180.384428 60.660202 
L 180.40087 59.436398 
L 180.433778 59.588997 
L 180.516025 58.267373 
L 180.53248 58.588334 
L 180.548934 57.481738 
L 180.696986 54.790558 
L 180.7957 56.509345 
L 180.812142 55.727483 
L 180.828597 54.912866 
L 180.845051 56.246223 
L 180.910856 55.286959 
L 180.993103 57.738088 
L 181.026012 56.494959 
L 181.091817 56.813185 
L 181.124714 56.17714 
L 181.206973 58.316482 
L 181.174064 55.292017 
L 181.239869 56.851588 
L 181.272766 57.10658 
L 181.355025 54.604723 
L 181.37148 55.425519 
L 181.42083 52.844441 
L 181.50309 48.862363 
L 181.601791 49.823579 
L 181.651142 53.327087 
L 181.684038 49.47241 
L 181.700493 49.850308 
L 181.799207 53.296732 
L 181.733402 49.58452 
L 181.832103 52.90688 
L 181.848557 54.419195 
L 181.914363 50.361864 
L 182.04596 48.289996 
L 182.12822 53.109008 
L 182.177571 52.380485 
L 182.226921 50.175965 
L 182.25983 53.126102 
L 182.276272 54.785542 
L 182.358532 52.496057 
L 182.374986 52.48274 
L 182.490142 56.020572 
L 182.523038 54.669604 
L 182.539493 53.744367 
L 182.605298 55.12601 
L 182.621752 54.688998 
L 182.687545 56.109168 
L 182.720454 55.161514 
L 182.769804 51.80697 
L 182.835609 52.384834 
L 182.983662 55.401895 
L 183.000116 54.675562 
L 183.082376 52.662882 
L 183.098817 53.267945 
L 183.246882 60.507136 
L 183.263337 59.034661 
L 183.279778 57.314794 
L 183.329129 59.470553 
L 183.378492 58.534748 
L 183.427843 59.120426 
L 183.493648 55.838752 
L 183.608804 52.109639 
L 183.625246 52.345712 
L 183.6417 52.294875 
L 183.707506 51.061102 
L 183.756856 53.82646 
L 183.839116 51.638019 
L 183.888467 52.522415 
L 184.052973 56.651495 
L 183.954272 52.349659 
L 184.069428 54.985882 
L 184.085882 55.195176 
L 184.102324 54.761808 
L 184.118778 53.519081 
L 184.184583 55.294166 
L 184.201038 54.617093 
L 184.365544 59.855365 
L 184.381999 59.120179 
L 184.4807 56.296622 
L 184.497155 57.095632 
L 184.513596 57.622768 
L 184.546505 56.093387 
L 184.61231 57.265302 
L 184.645207 55.649872 
L 184.776817 51.07333 
L 184.793271 51.424056 
L 184.891973 54.459972 
L 184.842622 51.239287 
L 184.908427 53.637351 
L 184.924869 52.66092 
L 184.957778 53.890774 
L 185.007129 53.311648 
L 185.072934 55.485726 
L 185.040025 52.762046 
L 185.10583 53.648797 
L 185.122285 53.085901 
L 185.138739 54.023398 
L 185.18809 53.566361 
L 185.204544 54.370982 
L 185.253895 51.884756 
L 185.286791 52.440596 
L 185.401947 47.975159 
L 185.484207 50.089477 
L 185.517103 50.057576 
L 185.533557 47.694714 
L 185.599362 51.116855 
L 185.615817 50.989225 
L 185.648713 52.958559 
L 185.698064 49.78064 
L 185.780323 45.66462 
L 185.86257 47.511052 
L 185.994181 51.064637 
L 186.010635 51.509798 
L 186.043531 49.99404 
L 186.125791 48.432562 
L 186.07644 51.723043 
L 186.142245 48.601399 
L 186.273843 53.203508 
L 186.290298 52.097493 
L 186.306752 52.057714 
L 186.339648 53.406235 
L 186.372557 51.47525 
L 186.487713 44.444872 
L 186.504155 47.417709 
L 186.56996 50.909788 
L 186.619311 47.97193 
L 186.668674 50.291898 
L 186.750921 49.438255 
L 186.767375 49.346874 
L 186.833181 54.970224 
L 186.898986 53.417068 
L 186.915428 52.837106 
L 186.964791 54.655766 
L 187.079947 58.455238 
L 187.211544 55.38027 
L 187.27735 59.009135 
L 187.359609 57.267515 
L 187.425414 55.050497 
L 187.474765 56.39826 
L 187.491219 58.051531 
L 187.557024 55.594553 
L 187.589921 57.652784 
L 187.622817 55.059424 
L 187.688622 58.556735 
L 187.705077 58.231841 
L 187.721531 59.745665 
L 187.737973 59.79824 
L 187.853129 53.618721 
L 188.017648 47.866497 
L 188.132804 44.062689 
L 188.149246 45.981126 
L 188.198609 51.64277 
L 188.24796 46.343152 
L 188.29731 43.479448 
L 188.37957 44.761626 
L 188.428921 46.552304 
L 188.412466 44.593858 
L 188.478271 45.190521 
L 188.593427 41.584608 
L 188.675674 36.815011 
L 188.725037 39.751387 
L 188.741479 40.165951 
L 188.757934 40.05 
L 188.790843 36.737641 
L 188.840193 39.876375 
L 188.971791 47.995051 
L 188.988245 47.198743 
L 189.103401 44.460343 
L 189.152752 44.527711 
L 189.366622 59.135005 
L 189.432427 56.361548 
L 189.498232 56.921746 
L 189.514674 56.768452 
L 189.580479 58.276405 
L 189.613388 58.075173 
L 189.646284 54.290787 
L 189.712089 55.751098 
L 189.8437 58.842483 
L 189.876596 58.830292 
L 189.89305 59.044959 
L 189.909505 58.084867 
L 189.942401 58.634717 
L 189.975297 57.866295 
L 190.024661 59.548974 
L 190.041103 59.046487 
L 190.123362 57.324343 
L 190.139817 57.851451 
L 190.156258 59.010177 
L 190.222063 56.968459 
L 190.238518 57.11322 
L 190.254972 56.992435 
L 190.370128 52.593515 
L 190.38657 54.069475 
L 190.567531 57.419725 
L 190.583986 57.295122 
L 190.649791 60.386306 
L 190.715596 59.055683 
L 190.781401 56.687928 
L 190.830752 58.18426 
L 190.847206 59.416062 
L 190.880102 57.284339 
L 190.929453 58.52835 
L 191.011713 57.159767 
L 191.028155 58.103484 
L 191.110414 59.999024 
L 191.126869 57.599327 
L 191.143323 57.013031 
L 191.176219 59.394706 
L 191.307829 62.957227 
L 191.324271 62.088352 
L 191.373635 60.209955 
L 191.406531 62.722416 
L 191.422985 62.645166 
L 191.472336 62.96148 
L 191.455882 62.578058 
L 191.48879 62.743497 
L 191.620388 60.73608 
L 191.636843 60.777154 
L 191.653297 61.887435 
L 191.686193 60.158976 
L 191.751999 61.320103 
L 191.801349 58.194426 
L 191.8507 60.733876 
L 191.867154 62.292451 
L 191.93296 58.463127 
L 191.98231 56.346046 
L 192.015219 58.840439 
L 192.048115 58.17211 
L 192.130375 61.345451 
L 192.19618 60.818512 
L 192.278427 57.502308 
L 192.311336 58.447716 
L 192.426492 62.458681 
L 192.459388 61.9656 
L 192.475842 62.187493 
L 192.492297 61.330735 
L 192.525193 61.526119 
L 192.541648 61.567522 
L 192.607453 61.880896 
L 192.673245 60.074889 
L 192.73905 61.964228 
L 192.804856 61.596441 
L 192.837764 60.777292 
L 192.870661 62.147763 
L 192.90357 64.385203 
L 192.969362 61.758158 
L 193.002271 60.236698 
L 193.084518 60.676765 
L 193.100972 62.01111 
L 193.133881 60.419853 
L 193.183232 60.64517 
L 193.199686 60.602734 
L 193.249037 60.688654 
L 193.347739 57.810788 
L 193.44644 60.274662 
L 193.462894 60.267391 
L 193.512245 61.006697 
L 193.610959 56.761378 
L 193.66031 57.387495 
L 193.676752 56.7515 
L 193.693206 54.528044 
L 193.775466 56.459596 
L 193.808362 55.614418 
L 193.841271 54.357213 
L 193.857713 55.69556 
L 193.874167 55.540954 
L 193.890622 56.99779 
L 193.939972 53.186314 
L 193.956427 53.60556 
L 194.038674 60.667413 
L 194.170284 58.851954 
L 194.219635 58.17821 
L 194.318336 55.096442 
L 194.33479 56.437719 
L 194.41705 57.880567 
L 194.565102 53.247906 
L 194.663816 47.47429 
L 194.713167 50.401809 
L 194.729609 50.213285 
L 194.828323 50.764913 
L 194.877674 45.991996 
L 194.894128 46.345827 
L 194.927024 45.318705 
L 194.943479 44.642409 
L 194.959933 45.732569 
L 195.107985 53.287325 
L 195.140881 54.366492 
L 195.157336 54.905265 
L 195.17379 53.269861 
L 195.305401 50.550104 
L 195.371206 51.914421 
L 195.420556 51.416286 
L 195.469907 47.474281 
L 195.552154 49.322089 
L 195.716673 56.576636 
L 195.815375 51.937674 
L 195.831829 52.507516 
L 195.897634 51.316999 
L 195.979881 55.834211 
L 196.095037 50.432017 
L 196.111492 51.009062 
L 196.127946 53.341757 
L 196.210193 51.304561 
L 196.358258 46.248195 
L 196.407608 48.456839 
L 196.539219 51.697824 
L 196.440505 48.340202 
L 196.555661 51.549949 
L 196.605024 48.384834 
L 196.687271 44.017811 
L 196.72018 45.107614 
L 196.76953 49.389768 
L 196.835336 46.109855 
L 196.901141 43.790289 
L 196.934037 45.489902 
L 196.966933 47.659827 
L 196.999842 44.634759 
L 197.016296 42.713656 
L 197.032738 44.695428 
L 197.098544 44.033606 
L 197.246608 46.576989 
L 197.131452 42.935214 
L 197.295959 45.604495 
L 197.493362 40.813638 
L 197.509816 41.678417 
L 197.707232 49.947149 
L 197.575621 41.192355 
L 197.756582 47.080569 
L 197.921089 41.974308 
L 197.937543 42.168196 
L 198.085595 50.22822 
L 198.10205 49.62548 
L 198.151401 49.238811 
L 198.134959 50.774585 
L 198.167855 49.497392 
L 198.348816 54.981922 
L 198.398167 51.615973 
L 198.463972 53.882451 
L 198.529777 55.252872 
L 198.562673 53.622366 
L 198.710738 49.514426 
L 198.743634 50.230008 
L 198.760089 49.755992 
L 198.776543 52.150219 
L 198.80944 52.448119 
L 198.891699 51.117377 
L 199.122011 44.386032 
L 198.957504 51.550273 
L 199.154907 45.273392 
L 199.204258 49.478821 
L 199.286517 47.256266 
L 199.319414 49.639839 
L 199.368777 46.527816 
L 199.385219 45.799416 
L 199.434569 46.907145 
L 199.451024 46.675737 
L 199.500375 47.910849 
L 199.533283 46.533546 
L 199.549725 47.38343 
L 199.599089 45.332845 
L 199.61553 47.402815 
L 199.664894 46.547713 
L 199.681335 46.8973 
L 199.69779 44.594704 
L 199.780049 46.630597 
L 199.895205 49.483166 
L 199.911647 51.594997 
L 200.010361 51.132037 
L 200.026803 51.066613 
L 200.043258 50.271142 
L 200.092608 51.264771 
L 200.109063 50.744902 
L 200.207764 57.383356 
L 200.257115 56.009794 
L 200.438076 50.952664 
L 200.569686 54.668872 
L 200.586141 53.706622 
L 200.635491 55.90779 
L 200.684842 53.79482 
L 200.701296 53.795186 
L 200.931608 57.845662 
L 200.980959 56.635746 
L 200.997413 56.384559 
L 201.046764 58.521367 
L 201.07966 55.399709 
L 201.096115 55.538749 
L 201.112569 55.652894 
L 201.129023 55.585841 
L 201.260621 50.24112 
L 201.29353 50.840266 
L 201.309984 51.573723 
L 201.342881 49.74889 
L 201.42514 47.335629 
L 201.375777 49.929118 
L 201.441582 49.781618 
L 201.458037 49.516178 
L 201.474491 50.672993 
L 201.507387 49.750906 
L 201.638998 54.498279 
L 201.655452 52.342113 
L 201.671894 52.649575 
L 201.688348 51.662896 
L 201.704803 50.83963 
L 201.754154 52.854607 
L 201.78705 51.433796 
L 201.836413 49.455746 
L 201.951569 55.771814 
L 202.05027 51.015684 
L 202.083167 52.723903 
L 202.247686 48.436513 
L 202.148972 53.219211 
L 202.264128 50.856349 
L 202.280582 50.716751 
L 202.428634 54.953437 
L 202.593153 51.745629 
L 202.790556 56.201582 
L 202.823465 55.607174 
L 202.987972 51.380572 
L 203.004426 51.240347 
L 203.020868 51.780736 
L 203.037322 51.274187 
L 203.136024 53.597333 
L 203.152478 52.264995 
L 203.300543 46.90902 
L 203.185387 53.590849 
L 203.366348 48.429009 
L 203.497946 52.691737 
L 203.5144 52.458234 
L 203.530855 51.329949 
L 203.563751 56.064596 
L 203.580205 55.959734 
L 203.761166 60.371174 
L 203.892776 57.203402 
L 203.909218 57.364731 
L 203.942127 58.042723 
L 203.958569 56.450903 
L 203.991478 59.331495 
L 204.024374 58.699186 
L 204.040829 60.34498 
L 204.106634 57.7756 
L 204.188893 53.92321 
L 204.238244 55.287288 
L 204.254686 56.090396 
L 204.304049 54.07226 
L 204.3534 50.499729 
L 204.435647 51.628347 
L 204.517907 55.305548 
L 204.567257 54.944812 
L 204.633062 56.911658 
L 204.665959 55.026279 
L 204.682413 54.324713 
L 204.731764 56.818832 
L 204.830478 58.116206 
L 204.797569 56.769669 
L 204.84692 57.264698 
L 204.945634 53.25285 
L 204.994984 54.685271 
L 205.011439 56.337773 
L 205.093686 55.914466 
L 205.192387 54.45399 
L 205.159491 57.26136 
L 205.208842 55.479855 
L 205.274647 56.653187 
L 205.258192 55.248222 
L 205.323998 55.736241 
L 205.356906 52.266944 
L 205.422711 55.989805 
L 205.439153 56.40891 
L 205.455608 56.405558 
L 205.60366 48.495472 
L 205.702374 55.182006 
L 205.73527 54.244792 
L 205.768179 52.785597 
L 205.850426 53.640484 
L 205.899777 54.147293 
L 205.883335 52.40201 
L 205.916231 52.834074 
L 205.932686 52.703325 
L 206.047841 48.387482 
L 206.080738 48.618451 
L 206.097192 48.933152 
L 206.113647 48.022488 
L 206.130088 48.082709 
L 206.146543 46.514527 
L 206.195894 51.147105 
L 206.212348 50.714849 
L 206.261699 53.403523 
L 206.327504 51.884729 
L 206.459114 49.143529 
L 206.607166 55.543057 
L 206.623621 54.856898 
L 206.640075 55.031574 
L 206.656529 54.45854 
L 206.689426 54.81142 
L 206.903283 48.657834 
L 206.952634 52.656704 
L 207.051348 51.722175 
L 207.166504 48.424573 
L 207.28166 50.286781 
L 207.232309 46.893582 
L 207.298114 49.680648 
L 207.314556 47.784024 
L 207.396815 49.972401 
L 207.41327 49.847647 
L 207.46262 48.02563 
L 207.511971 50.647599 
L 207.544867 50.229907 
L 207.660023 52.527043 
L 207.676478 52.551266 
L 207.709387 53.703288 
L 207.742283 51.035654 
L 207.775179 53.037666 
L 207.791634 51.608528 
L 207.873893 53.932836 
L 207.906789 56.355329 
L 207.972595 53.074606 
L 208.202906 59.078378 
L 208.219361 57.975592 
L 208.350971 54.957877 
L 208.367413 56.24273 
L 208.515478 60.529123 
L 208.696439 56.778655 
L 208.729335 59.489183 
L 208.79514 56.162475 
L 208.8774 58.561765 
L 208.893841 57.836699 
L 209.008997 55.146538 
L 209.107711 59.588896 
L 209.140608 58.18587 
L 209.189958 56.407117 
L 209.239322 58.021331 
L 209.288672 58.891405 
L 209.305114 56.892598 
L 209.387374 58.631689 
L 209.436725 60.199689 
L 209.486075 59.091649 
L 209.683491 52.301314 
L 209.716387 56.066219 
L 209.732841 56.794559 
L 209.76575 54.783914 
L 209.782192 55.834504 
L 209.847997 56.799525 
L 209.913802 53.124103 
L 210.028958 56.063576 
L 210.078309 55.263198 
L 210.177023 49.556776 
L 210.209919 52.223144 
L 210.242828 52.681873 
L 210.25927 54.529622 
L 210.292179 51.816912 
L 210.341529 53.303303 
L 210.357984 51.577501 
L 210.407334 54.676729 
L 210.423776 54.454548 
L 210.47314 55.986728 
L 210.506036 53.190667 
L 210.52249 53.494575 
L 210.571841 52.706823 
L 210.555387 53.60213 
L 210.588295 52.817369 
" clip-path="url(#p87b43f3b8c)" style="fill: none; stroke: #009e73; stroke-width: 1.25; stroke-linecap: square"/>
   </g>
   <g id="patch_4">
    <path d="M 37.85375 131.718516 
L 37.85375 20.418516 
" style="fill: none; stroke: #000000; stroke-width: 0.8; stroke-linejoin: miter; stroke-linecap: square"/>
   </g>
   <g id="patch_5">
    <path d="M 37.85375 131.718516 
L 218.81375 131.718516 
" style="fill: none; stroke: #000000; stroke-width: 0.8; stroke-linejoin: miter; stroke-linecap: square"/>
   </g>
   <g id="text_14">
    <!-- drugs3523 rep2 -->
    <g transform="translate(90.460664 14.418516) scale(0.095 -0.095)">
     <defs>
      <path id="DejaVuSans-64" d="M 2906 2969 
L 2906 4863 
L 3481 4863 
L 3481 0 
L 2906 0 
L 2906 525 
Q 2725 213 2448 61 
Q 2172 -91 1784 -91 
Q 1150 -91 751 415 
Q 353 922 353 1747 
Q 353 2572 751 3078 
Q 1150 3584 1784 3584 
Q 2172 3584 2448 3432 
Q 2725 3281 2906 2969 
z
M 947 1747 
Q 947 1113 1208 752 
Q 1469 391 1925 391 
Q 2381 391 2643 752 
Q 2906 1113 2906 1747 
Q 2906 2381 2643 2742 
Q 2381 3103 1925 3103 
Q 1469 3103 1208 2742 
Q 947 2381 947 1747 
z
" transform="scale(0.015625)"/>
      <path id="DejaVuSans-72" d="M 2631 2963 
Q 2534 3019 2420 3045 
Q 2306 3072 2169 3072 
Q 1681 3072 1420 2755 
Q 1159 2438 1159 1844 
L 1159 0 
L 581 0 
L 581 3500 
L 1159 3500 
L 1159 2956 
Q 1341 3275 1631 3429 
Q 1922 3584 2338 3584 
Q 2397 3584 2469 3576 
Q 2541 3569 2628 3553 
L 2631 2963 
z
" transform="scale(0.015625)"/>
      <path id="DejaVuSans-75" d="M 544 1381 
L 544 3500 
L 1119 3500 
L 1119 1403 
Q 1119 906 1312 657 
Q 1506 409 1894 409 
Q 2359 409 2629 706 
Q 2900 1003 2900 1516 
L 2900 3500 
L 3475 3500 
L 3475 0 
L 2900 0 
L 2900 538 
Q 2691 219 2414 64 
Q 2138 -91 1772 -91 
Q 1169 -91 856 284 
Q 544 659 544 1381 
z
M 1991 3584 
L 1991 3584 
z
" transform="scale(0.015625)"/>
      <path id="DejaVuSans-67" d="M 2906 1791 
Q 2906 2416 2648 2759 
Q 2391 3103 1925 3103 
Q 1463 3103 1205 2759 
Q 947 2416 947 1791 
Q 947 1169 1205 825 
Q 1463 481 1925 481 
Q 2391 481 2648 825 
Q 2906 1169 2906 1791 
z
M 3481 434 
Q 3481 -459 3084 -895 
Q 2688 -1331 1869 -1331 
Q 1566 -1331 1297 -1286 
Q 1028 -1241 775 -1147 
L 775 -588 
Q 1028 -725 1275 -790 
Q 1522 -856 1778 -856 
Q 2344 -856 2625 -561 
Q 2906 -266 2906 331 
L 2906 616 
Q 2728 306 2450 153 
Q 2172 0 1784 0 
Q 1141 0 747 490 
Q 353 981 353 1791 
Q 353 2603 747 3093 
Q 1141 3584 1784 3584 
Q 2172 3584 2450 3431 
Q 2728 3278 2906 2969 
L 2906 3500 
L 3481 3500 
L 3481 434 
z
" transform="scale(0.015625)"/>
      <path id="DejaVuSans-33" d="M 2597 2516 
Q 3050 2419 3304 2112 
Q 3559 1806 3559 1356 
Q 3559 666 3084 287 
Q 2609 -91 1734 -91 
Q 1441 -91 1130 -33 
Q 819 25 488 141 
L 488 750 
Q 750 597 1062 519 
Q 1375 441 1716 441 
Q 2309 441 2620 675 
Q 2931 909 2931 1356 
Q 2931 1769 2642 2001 
Q 2353 2234 1838 2234 
L 1294 2234 
L 1294 2753 
L 1863 2753 
Q 2328 2753 2575 2939 
Q 2822 3125 2822 3475 
Q 2822 3834 2567 4026 
Q 2313 4219 1838 4219 
Q 1578 4219 1281 4162 
Q 984 4106 628 3988 
L 628 4550 
Q 988 4650 1302 4700 
Q 1616 4750 1894 4750 
Q 2613 4750 3031 4423 
Q 3450 4097 3450 3541 
Q 3450 3153 3228 2886 
Q 3006 2619 2597 2516 
z
" transform="scale(0.015625)"/>
      <path id="DejaVuSans-70" d="M 1159 525 
L 1159 -1331 
L 581 -1331 
L 581 3500 
L 1159 3500 
L 1159 2969 
Q 1341 3281 1617 3432 
Q 1894 3584 2278 3584 
Q 2916 3584 3314 3078 
Q 3713 2572 3713 1747 
Q 3713 922 3314 415 
Q 2916 -91 2278 -91 
Q 1894 -91 1617 61 
Q 1341 213 1159 525 
z
M 3116 1747 
Q 3116 2381 2855 2742 
Q 2594 3103 2138 3103 
Q 1681 3103 1420 2742 
Q 1159 2381 1159 1747 
Q 1159 1113 1420 752 
Q 1681 391 2138 391 
Q 2594 391 2855 752 
Q 3116 1113 3116 1747 
z
" transform="scale(0.015625)"/>
     </defs>
     <use xlink:href="#DejaVuSans-64"/>
     <use xlink:href="#DejaVuSans-72" transform="translate(63.476562 0)"/>
     <use xlink:href="#DejaVuSans-75" transform="translate(104.589844 0)"/>
     <use xlink:href="#DejaVuSans-67" transform="translate(167.96875 0)"/>
     <use xlink:href="#DejaVuSans-73" transform="translate(231.445312 0)"/>
     <use xlink:href="#DejaVuSans-33" transform="translate(283.544922 0)"/>
     <use xlink:href="#DejaVuSans-35" transform="translate(347.167969 0)"/>
     <use xlink:href="#DejaVuSans-32" transform="translate(410.791016 0)"/>
     <use xlink:href="#DejaVuSans-33" transform="translate(474.414062 0)"/>
     <use xlink:href="#DejaVuSans-20" transform="translate(538.037109 0)"/>
     <use xlink:href="#DejaVuSans-72" transform="translate(569.824219 0)"/>
     <use xlink:href="#DejaVuSans-65" transform="translate(608.6875 0)"/>
     <use xlink:href="#DejaVuSans-70" transform="translate(670.210938 0)"/>
     <use xlink:href="#DejaVuSans-32" transform="translate(733.6875 0)"/>
    </g>
   </g>
  </g>
 </g>
 <defs>
  <clipPath id="p87b43f3b8c">
   <rect x="37.85375" y="20.418516" width="180.96" height="111.3"/>
  </clipPath>
 </defs>
</svg>
