<?xml version="1.0" encoding="utf-8" standalone="no"?>
<!DOCTYPE svg PUBLIC "-//W3C//DTD SVG 1.1//EN"
  "http://www.w3.org/Graphics/SVG/1.1/DTD/svg11.dtd">
<svg xmlns:xlink="http://www.w3.org/1999/xlink" width="225.998281pt" height="164.903516pt" viewBox="0 0 225.998281 164.903516" xmlns="http://www.w3.org/2000/svg" version="1.1">
 <metadata>
  <rdf:RDF xmlns:dc="http://purl.org/dc/elements/1.1/" xmlns:cc="http://creativecommons.org/ns#" xmlns:rdf="http://www.w3.org/1999/02/22-rdf-syntax-ns#">
   <cc:Work>
    <dc:type rdf:resource="http://purl.org/dc/dcmitype/StillImage"/>
    <dc:date>2026-05-24T13:54:17.814545</dc:date>
    <dc:format>image/svg+xml</dc:format>
    <dc:creator>
     <cc:Agent>
      <dc:title>Matplotlib v3.10.9, https://matplotlib.org/</dc:title>
     </cc:Agent>
    </dc:creator>
   </cc:Work>
  </rdf:RDF>
 </metadata>
 <defs>
  <style type="text/css">*{stroke-linejoin: round; stroke-linecap: butt}</style>
 </defs>
 <g id="figure_1">
  <g id="patch_1">
   <path d="M 0 164.903516 
L 225.998281 164.903516 
L 225.998281 0 
L 0 0 
z
" style="fill: #ffffff"/>
  </g>
  <g id="axes_1">
   <g id="patch_2">
    <path d="M 30.698281 131.718516 
L 218.798281 131.718516 
L 218.798281 20.418516 
L 30.698281 20.418516 
z
" style="fill: #ffffff"/>
   </g>
   <g id="patch_3">
    <path d="M 124.748281 131.718516 
L 210.248281 131.718516 
L 210.248281 20.418516 
L 124.748281 20.418516 
z
" clip-path="url(#p2ad8ca65a7)" style="fill: #bdbdbd; opacity: 0.18"/>
   </g>
   <g id="matplotlib.axis_1">
    <g id="xtick_1">
     <g id="line2d_1">
      <defs>
       <path id="m715dd30e94" d="M 0 0 
L 0 3 
" style="stroke: #000000; stroke-width: 0.7"/>
      </defs>
      <g>
       <use xlink:href="#m715dd30e94" x="39.248281" y="131.718516" style="stroke: #000000; stroke-width: 0.7"/>
      </g>
     </g>
     <g id="text_1">
      <!-- 0 -->
      <g transform="translate(36.862344 143.917344) scale(0.075 -0.075)">
       <defs>
        <path id="DejaVuSans-30" d="M 2034 4250 
Q 1547 4250 1301 3770 
Q 1056 3291 1056 2328 
Q 1056 1369 1301 889 
Q 1547 409 2034 409 
Q 2525 409 2770 889 
Q 3016 1369 3016 2328 
Q 3016 3291 2770 3770 
Q 2525 4250 2034 4250 
z
M 2034 4750 
Q 2819 4750 3233 4129 
Q 3647 3509 3647 2328 
Q 3647 1150 3233 529 
Q 2819 -91 2034 -91 
Q 1250 -91 836 529 
Q 422 1150 422 2328 
Q 422 3509 836 4129 
Q 1250 4750 2034 4750 
z
" transform="scale(0.015625)"/>
       </defs>
       <use xlink:href="#DejaVuSans-30"/>
      </g>
     </g>
    </g>
    <g id="xtick_2">
     <g id="line2d_2">
      <g>
       <use xlink:href="#m715dd30e94" x="73.448281" y="131.718516" style="stroke: #000000; stroke-width: 0.7"/>
      </g>
     </g>
     <g id="text_2">
      <!-- 20 -->
      <g transform="translate(68.676406 143.917344) scale(0.075 -0.075)">
       <defs>
        <path id="DejaVuSans-32" d="M 1228 531 
L 3431 531 
L 3431 0 
L 469 0 
L 469 531 
Q 828 903 1448 1529 
Q 2069 2156 2228 2338 
Q 2531 2678 2651 2914 
Q 2772 3150 2772 3378 
Q 2772 3750 2511 3984 
Q 2250 4219 1831 4219 
Q 1534 4219 1204 4116 
Q 875 4013 500 3803 
L 500 4441 
Q 881 4594 1212 4672 
Q 1544 4750 1819 4750 
Q 2544 4750 2975 4387 
Q 3406 4025 3406 3419 
Q 3406 3131 3298 2873 
Q 3191 2616 2906 2266 
Q 2828 2175 2409 1742 
Q 1991 1309 1228 531 
z
" transform="scale(0.015625)"/>
       </defs>
       <use xlink:href="#DejaVuSans-32"/>
       <use xlink:href="#DejaVuSans-30" transform="translate(63.623047 0)"/>
      </g>
     </g>
    </g>
    <g id="xtick_3">
     <g id="line2d_3">
      <g>
       <use xlink:href="#m715dd30e94" x="107.648281" y="131.718516" style="stroke: #000000; stroke-width: 0.7"/>
      </g>
     </g>
     <g id="text_3">
      <!-- 40 -->
      <g transform="translate(102.876406 143.917344) scale(0.075 -0.075)">
       <defs>
        <path id="DejaVuSans-34" d="M 2419 4116 
L 825 1625 
L 2419 1625 
L 2419 4116 
z
M 2253 4666 
L 3047 4666 
L 3047 1625 
L 3713 1625 
L 3713 1100 
L 3047 1100 
L 3047 0 
L 2419 0 
L 2419 1100 
L 313 1100 
L 313 1709 
L 2253 4666 
z
" transform="scale(0.015625)"/>
       </defs>
       <use xlink:href="#DejaVuSans-34"/>
       <use xlink:href="#DejaVuSans-30" transform="translate(63.623047 0)"/>
      </g>
     </g>
    </g>
    <g id="xtick_4">
     <g id="line2d_4">
      <g>
       <use xlink:href="#m715dd30e94" x="141.848281" y="131.718516" style="stroke: #000000; stroke-width: 0.7"/>
      </g>
     </g>
     <g id="text_4">
      <!-- 60 -->
      <g transform="translate(137.076406 143.917344) scale(0.075 -0.075)">
       <defs>
        <path id="DejaVuSans-36" d="M 2113 2584 
Q 1688 2584 1439 2293 
Q 1191 2003 1191 1497 
Q 1191 994 1439 701 
Q 1688 409 2113 409 
Q 2538 409 2786 701 
Q 3034 994 3034 1497 
Q 3034 2003 2786 2293 
Q 2538 2584 2113 2584 
z
M 3366 4563 
L 3366 3988 
Q 3128 4100 2886 4159 
Q 2644 4219 2406 4219 
Q 1781 4219 1451 3797 
Q 1122 3375 1075 2522 
Q 1259 2794 1537 2939 
Q 1816 3084 2150 3084 
Q 2853 3084 3261 2657 
Q 3669 2231 3669 1497 
Q 3669 778 3244 343 
Q 2819 -91 2113 -91 
Q 1303 -91 875 529 
Q 447 1150 447 2328 
Q 447 3434 972 4092 
Q 1497 4750 2381 4750 
Q 2619 4750 2861 4703 
Q 3103 4656 3366 4563 
z
" transform="scale(0.015625)"/>
       </defs>
       <use xlink:href="#DejaVuSans-36"/>
       <use xlink:href="#DejaVuSans-30" transform="translate(63.623047 0)"/>
      </g>
     </g>
    </g>
    <g id="xtick_5">
     <g id="line2d_5">
      <g>
       <use xlink:href="#m715dd30e94" x="176.048281" y="131.718516" style="stroke: #000000; stroke-width: 0.7"/>
      </g>
     </g>
     <g id="text_5">
      <!-- 80 -->
      <g transform="translate(171.276406 143.917344) scale(0.075 -0.075)">
       <defs>
        <path id="DejaVuSans-38" d="M 2034 2216 
Q 1584 2216 1326 1975 
Q 1069 1734 1069 1313 
Q 1069 891 1326 650 
Q 1584 409 2034 409 
Q 2484 409 2743 651 
Q 3003 894 3003 1313 
Q 3003 1734 2745 1975 
Q 2488 2216 2034 2216 
z
M 1403 2484 
Q 997 2584 770 2862 
Q 544 3141 544 3541 
Q 544 4100 942 4425 
Q 1341 4750 2034 4750 
Q 2731 4750 3128 4425 
Q 3525 4100 3525 3541 
Q 3525 3141 3298 2862 
Q 3072 2584 2669 2484 
Q 3125 2378 3379 2068 
Q 3634 1759 3634 1313 
Q 3634 634 3220 271 
Q 2806 -91 2034 -91 
Q 1263 -91 848 271 
Q 434 634 434 1313 
Q 434 1759 690 2068 
Q 947 2378 1403 2484 
z
M 1172 3481 
Q 1172 3119 1398 2916 
Q 1625 2713 2034 2713 
Q 2441 2713 2670 2916 
Q 2900 3119 2900 3481 
Q 2900 3844 2670 4047 
Q 2441 4250 2034 4250 
Q 1625 4250 1398 4047 
Q 1172 3844 1172 3481 
z
" transform="scale(0.015625)"/>
       </defs>
       <use xlink:href="#DejaVuSans-38"/>
       <use xlink:href="#DejaVuSans-30" transform="translate(63.623047 0)"/>
      </g>
     </g>
    </g>
    <g id="xtick_6">
     <g id="line2d_6">
      <g>
       <use xlink:href="#m715dd30e94" x="210.248281" y="131.718516" style="stroke: #000000; stroke-width: 0.7"/>
      </g>
     </g>
     <g id="text_6">
      <!-- 100 -->
      <g transform="translate(203.090469 143.917344) scale(0.075 -0.075)">
       <defs>
        <path id="DejaVuSans-31" d="M 794 531 
L 1825 531 
L 1825 4091 
L 703 3866 
L 703 4441 
L 1819 4666 
L 2450 4666 
L 2450 531 
L 3481 531 
L 3481 0 
L 794 0 
L 794 531 
z
" transform="scale(0.015625)"/>
       </defs>
       <use xlink:href="#DejaVuSans-31"/>
       <use xlink:href="#DejaVuSans-30" transform="translate(63.623047 0)"/>
       <use xlink:href="#DejaVuSans-30" transform="translate(127.246094 0)"/>
      </g>
     </g>
    </g>
    <g id="text_7">
     <!-- Time (ns) -->
     <g transform="translate(104.775273 155.935781) scale(0.085 -0.085)">
      <defs>
       <path id="DejaVuSans-54" d="M -19 4666 
L 3928 4666 
L 3928 4134 
L 2272 4134 
L 2272 0 
L 1638 0 
L 1638 4134 
L -19 4134 
L -19 4666 
z
" transform="scale(0.015625)"/>
       <path id="DejaVuSans-69" d="M 603 3500 
L 1178 3500 
L 1178 0 
L 603 0 
L 603 3500 
z
M 603 4863 
L 1178 4863 
L 1178 4134 
L 603 4134 
L 603 4863 
z
" transform="scale(0.015625)"/>
       <path id="DejaVuSans-6d" d="M 3328 2828 
Q 3544 3216 3844 3400 
Q 4144 3584 4550 3584 
Q 5097 3584 5394 3201 
Q 5691 2819 5691 2113 
L 5691 0 
L 5113 0 
L 5113 2094 
Q 5113 2597 4934 2840 
Q 4756 3084 4391 3084 
Q 3944 3084 3684 2787 
Q 3425 2491 3425 1978 
L 3425 0 
L 2847 0 
L 2847 2094 
Q 2847 2600 2669 2842 
Q 2491 3084 2119 3084 
Q 1678 3084 1418 2786 
Q 1159 2488 1159 1978 
L 1159 0 
L 581 0 
L 581 3500 
L 1159 3500 
L 1159 2956 
Q 1356 3278 1631 3431 
Q 1906 3584 2284 3584 
Q 2666 3584 2933 3390 
Q 3200 3197 3328 2828 
z
" transform="scale(0.015625)"/>
       <path id="DejaVuSans-65" d="M 3597 1894 
L 3597 1613 
L 953 1613 
Q 991 1019 1311 708 
Q 1631 397 2203 397 
Q 2534 397 2845 478 
Q 3156 559 3463 722 
L 3463 178 
Q 3153 47 2828 -22 
Q 2503 -91 2169 -91 
Q 1331 -91 842 396 
Q 353 884 353 1716 
Q 353 2575 817 3079 
Q 1281 3584 2069 3584 
Q 2775 3584 3186 3129 
Q 3597 2675 3597 1894 
z
M 3022 2063 
Q 3016 2534 2758 2815 
Q 2500 3097 2075 3097 
Q 1594 3097 1305 2825 
Q 1016 2553 972 2059 
L 3022 2063 
z
" transform="scale(0.015625)"/>
       <path id="DejaVuSans-20" transform="scale(0.015625)"/>
       <path id="DejaVuSans-28" d="M 1984 4856 
Q 1566 4138 1362 3434 
Q 1159 2731 1159 2009 
Q 1159 1288 1364 580 
Q 1569 -128 1984 -844 
L 1484 -844 
Q 1016 -109 783 600 
Q 550 1309 550 2009 
Q 550 2706 781 3412 
Q 1013 4119 1484 4856 
L 1984 4856 
z
" transform="scale(0.015625)"/>
       <path id="DejaVuSans-6e" d="M 3513 2113 
L 3513 0 
L 2938 0 
L 2938 2094 
Q 2938 2591 2744 2837 
Q 2550 3084 2163 3084 
Q 1697 3084 1428 2787 
Q 1159 2491 1159 1978 
L 1159 0 
L 581 0 
L 581 3500 
L 1159 3500 
L 1159 2956 
Q 1366 3272 1645 3428 
Q 1925 3584 2291 3584 
Q 2894 3584 3203 3211 
Q 3513 2838 3513 2113 
z
" transform="scale(0.015625)"/>
       <path id="DejaVuSans-73" d="M 2834 3397 
L 2834 2853 
Q 2591 2978 2328 3040 
Q 2066 3103 1784 3103 
Q 1356 3103 1142 2972 
Q 928 2841 928 2578 
Q 928 2378 1081 2264 
Q 1234 2150 1697 2047 
L 1894 2003 
Q 2506 1872 2764 1633 
Q 3022 1394 3022 966 
Q 3022 478 2636 193 
Q 2250 -91 1575 -91 
Q 1294 -91 989 -36 
Q 684 19 347 128 
L 347 722 
Q 666 556 975 473 
Q 1284 391 1588 391 
Q 1994 391 2212 530 
Q 2431 669 2431 922 
Q 2431 1156 2273 1281 
Q 2116 1406 1581 1522 
L 1381 1569 
Q 847 1681 609 1914 
Q 372 2147 372 2553 
Q 372 3047 722 3315 
Q 1072 3584 1716 3584 
Q 2034 3584 2315 3537 
Q 2597 3491 2834 3397 
z
" transform="scale(0.015625)"/>
       <path id="DejaVuSans-29" d="M 513 4856 
L 1013 4856 
Q 1481 4119 1714 3412 
Q 1947 2706 1947 2009 
Q 1947 1309 1714 600 
Q 1481 -109 1013 -844 
L 513 -844 
Q 928 -128 1133 580 
Q 1338 1288 1338 2009 
Q 1338 2731 1133 3434 
Q 928 4138 513 4856 
z
" transform="scale(0.015625)"/>
      </defs>
      <use xlink:href="#DejaVuSans-54"/>
      <use xlink:href="#DejaVuSans-69" transform="translate(57.958984 0)"/>
      <use xlink:href="#DejaVuSans-6d" transform="translate(85.742188 0)"/>
      <use xlink:href="#DejaVuSans-65" transform="translate(183.154297 0)"/>
      <use xlink:href="#DejaVuSans-20" transform="translate(244.677734 0)"/>
      <use xlink:href="#DejaVuSans-28" transform="translate(276.464844 0)"/>
      <use xlink:href="#DejaVuSans-6e" transform="translate(315.478516 0)"/>
      <use xlink:href="#DejaVuSans-73" transform="translate(378.857422 0)"/>
      <use xlink:href="#DejaVuSans-29" transform="translate(430.957031 0)"/>
     </g>
    </g>
   </g>
   <g id="matplotlib.axis_2">
    <g id="ytick_1">
     <g id="line2d_7">
      <defs>
       <path id="m1267cde286" d="M 0 0 
L -3 0 
" style="stroke: #000000; stroke-width: 0.7"/>
      </defs>
      <g>
       <use xlink:href="#m1267cde286" x="30.698281" y="126.659425" style="stroke: #000000; stroke-width: 0.7"/>
      </g>
     </g>
     <g id="text_8">
      <!-- 0 -->
      <g transform="translate(19.426406 129.508839) scale(0.075 -0.075)">
       <use xlink:href="#DejaVuSans-30"/>
      </g>
     </g>
    </g>
    <g id="ytick_2">
     <g id="line2d_8">
      <g>
       <use xlink:href="#m1267cde286" x="30.698281" y="101.36397" style="stroke: #000000; stroke-width: 0.7"/>
      </g>
     </g>
     <g id="text_9">
      <!-- 1 -->
      <g transform="translate(19.426406 104.213384) scale(0.075 -0.075)">
       <use xlink:href="#DejaVuSans-31"/>
      </g>
     </g>
    </g>
    <g id="ytick_3">
     <g id="line2d_9">
      <g>
       <use xlink:href="#m1267cde286" x="30.698281" y="76.068516" style="stroke: #000000; stroke-width: 0.7"/>
      </g>
     </g>
     <g id="text_10">
      <!-- 2 -->
      <g transform="translate(19.426406 78.91793) scale(0.075 -0.075)">
       <use xlink:href="#DejaVuSans-32"/>
      </g>
     </g>
    </g>
    <g id="ytick_4">
     <g id="line2d_10">
      <g>
       <use xlink:href="#m1267cde286" x="30.698281" y="50.773061" style="stroke: #000000; stroke-width: 0.7"/>
      </g>
     </g>
     <g id="text_11">
      <!-- 3 -->
      <g transform="translate(19.426406 53.622475) scale(0.075 -0.075)">
       <defs>
        <path id="DejaVuSans-33" d="M 2597 2516 
Q 3050 2419 3304 2112 
Q 3559 1806 3559 1356 
Q 3559 666 3084 287 
Q 2609 -91 1734 -91 
Q 1441 -91 1130 -33 
Q 819 25 488 141 
L 488 750 
Q 750 597 1062 519 
Q 1375 441 1716 441 
Q 2309 441 2620 675 
Q 2931 909 2931 1356 
Q 2931 1769 2642 2001 
Q 2353 2234 1838 2234 
L 1294 2234 
L 1294 2753 
L 1863 2753 
Q 2328 2753 2575 2939 
Q 2822 3125 2822 3475 
Q 2822 3834 2567 4026 
Q 2313 4219 1838 4219 
Q 1578 4219 1281 4162 
Q 984 4106 628 3988 
L 628 4550 
Q 988 4650 1302 4700 
Q 1616 4750 1894 4750 
Q 2613 4750 3031 4423 
Q 3450 4097 3450 3541 
Q 3450 3153 3228 2886 
Q 3006 2619 2597 2516 
z
" transform="scale(0.015625)"/>
       </defs>
       <use xlink:href="#DejaVuSans-33"/>
      </g>
     </g>
    </g>
    <g id="ytick_5">
     <g id="line2d_11">
      <g>
       <use xlink:href="#m1267cde286" x="30.698281" y="25.477607" style="stroke: #000000; stroke-width: 0.7"/>
      </g>
     </g>
     <g id="text_12">
      <!-- 4 -->
      <g transform="translate(19.426406 28.327021) scale(0.075 -0.075)">
       <use xlink:href="#DejaVuSans-34"/>
      </g>
     </g>
    </g>
    <g id="text_13">
     <!-- Number of H-bonds -->
     <g transform="translate(13.658672 117.573086) rotate(-90) scale(0.085 -0.085)">
      <defs>
       <path id="DejaVuSans-4e" d="M 628 4666 
L 1478 4666 
L 3547 763 
L 3547 4666 
L 4159 4666 
L 4159 0 
L 3309 0 
L 1241 3903 
L 1241 0 
L 628 0 
L 628 4666 
z
" transform="scale(0.015625)"/>
       <path id="DejaVuSans-75" d="M 544 1381 
L 544 3500 
L 1119 3500 
L 1119 1403 
Q 1119 906 1312 657 
Q 1506 409 1894 409 
Q 2359 409 2629 706 
Q 2900 1003 2900 1516 
L 2900 3500 
L 3475 3500 
L 3475 0 
L 2900 0 
L 2900 538 
Q 2691 219 2414 64 
Q 2138 -91 1772 -91 
Q 1169 -91 856 284 
Q 544 659 544 1381 
z
M 1991 3584 
L 1991 3584 
z
" transform="scale(0.015625)"/>
       <path id="DejaVuSans-62" d="M 3116 1747 
Q 3116 2381 2855 2742 
Q 2594 3103 2138 3103 
Q 1681 3103 1420 2742 
Q 1159 2381 1159 1747 
Q 1159 1113 1420 752 
Q 1681 391 2138 391 
Q 2594 391 2855 752 
Q 3116 1113 3116 1747 
z
M 1159 2969 
Q 1341 3281 1617 3432 
Q 1894 3584 2278 3584 
Q 2916 3584 3314 3078 
Q 3713 2572 3713 1747 
Q 3713 922 3314 415 
Q 2916 -91 2278 -91 
Q 1894 -91 1617 61 
Q 1341 213 1159 525 
L 1159 0 
L 581 0 
L 581 4863 
L 1159 4863 
L 1159 2969 
z
" transform="scale(0.015625)"/>
       <path id="DejaVuSans-72" d="M 2631 2963 
Q 2534 3019 2420 3045 
Q 2306 3072 2169 3072 
Q 1681 3072 1420 2755 
Q 1159 2438 1159 1844 
L 1159 0 
L 581 0 
L 581 3500 
L 1159 3500 
L 1159 2956 
Q 1341 3275 1631 3429 
Q 1922 3584 2338 3584 
Q 2397 3584 2469 3576 
Q 2541 3569 2628 3553 
L 2631 2963 
z
" transform="scale(0.015625)"/>
       <path id="DejaVuSans-6f" d="M 1959 3097 
Q 1497 3097 1228 2736 
Q 959 2375 959 1747 
Q 959 1119 1226 758 
Q 1494 397 1959 397 
Q 2419 397 2687 759 
Q 2956 1122 2956 1747 
Q 2956 2369 2687 2733 
Q 2419 3097 1959 3097 
z
M 1959 3584 
Q 2709 3584 3137 3096 
Q 3566 2609 3566 1747 
Q 3566 888 3137 398 
Q 2709 -91 1959 -91 
Q 1206 -91 779 398 
Q 353 888 353 1747 
Q 353 2609 779 3096 
Q 1206 3584 1959 3584 
z
" transform="scale(0.015625)"/>
       <path id="DejaVuSans-66" d="M 2375 4863 
L 2375 4384 
L 1825 4384 
Q 1516 4384 1395 4259 
Q 1275 4134 1275 3809 
L 1275 3500 
L 2222 3500 
L 2222 3053 
L 1275 3053 
L 1275 0 
L 697 0 
L 697 3053 
L 147 3053 
L 147 3500 
L 697 3500 
L 697 3744 
Q 697 4328 969 4595 
Q 1241 4863 1831 4863 
L 2375 4863 
z
" transform="scale(0.015625)"/>
       <path id="DejaVuSans-48" d="M 628 4666 
L 1259 4666 
L 1259 2753 
L 3553 2753 
L 3553 4666 
L 4184 4666 
L 4184 0 
L 3553 0 
L 3553 2222 
L 1259 2222 
L 1259 0 
L 628 0 
L 628 4666 
z
" transform="scale(0.015625)"/>
       <path id="DejaVuSans-2d" d="M 313 2009 
L 1997 2009 
L 1997 1497 
L 313 1497 
L 313 2009 
z
" transform="scale(0.015625)"/>
       <path id="DejaVuSans-64" d="M 2906 2969 
L 2906 4863 
L 3481 4863 
L 3481 0 
L 2906 0 
L 2906 525 
Q 2725 213 2448 61 
Q 2172 -91 1784 -91 
Q 1150 -91 751 415 
Q 353 922 353 1747 
Q 353 2572 751 3078 
Q 1150 3584 1784 3584 
Q 2172 3584 2448 3432 
Q 2725 3281 2906 2969 
z
M 947 1747 
Q 947 1113 1208 752 
Q 1469 391 1925 391 
Q 2381 391 2643 752 
Q 2906 1113 2906 1747 
Q 2906 2381 2643 2742 
Q 2381 3103 1925 3103 
Q 1469 3103 1208 2742 
Q 947 2381 947 1747 
z
" transform="scale(0.015625)"/>
      </defs>
      <use xlink:href="#DejaVuSans-4e"/>
      <use xlink:href="#DejaVuSans-75" transform="translate(74.804688 0)"/>
      <use xlink:href="#DejaVuSans-6d" transform="translate(138.183594 0)"/>
      <use xlink:href="#DejaVuSans-62" transform="translate(235.595703 0)"/>
      <use xlink:href="#DejaVuSans-65" transform="translate(299.072266 0)"/>
      <use xlink:href="#DejaVuSans-72" transform="translate(360.595703 0)"/>
      <use xlink:href="#DejaVuSans-20" transform="translate(401.708984 0)"/>
      <use xlink:href="#DejaVuSans-6f" transform="translate(433.496094 0)"/>
      <use xlink:href="#DejaVuSans-66" transform="translate(494.677734 0)"/>
      <use xlink:href="#DejaVuSans-20" transform="translate(529.882812 0)"/>
      <use xlink:href="#DejaVuSans-48" transform="translate(561.669922 0)"/>
      <use xlink:href="#DejaVuSans-2d" transform="translate(636.865234 0)"/>
      <use xlink:href="#DejaVuSans-62" transform="translate(672.949219 0)"/>
      <use xlink:href="#DejaVuSans-6f" transform="translate(736.425781 0)"/>
      <use xlink:href="#DejaVuSans-6e" transform="translate(797.607422 0)"/>
      <use xlink:href="#DejaVuSans-64" transform="translate(860.986328 0)"/>
      <use xlink:href="#DejaVuSans-73" transform="translate(924.462891 0)"/>
     </g>
    </g>
   </g>
   <g id="line2d_12">
    <path d="M 39.248281 126.659425 
L 39.367981 101.36397 
L 39.453481 101.36397 
L 39.556081 126.659425 
L 39.675781 101.36397 
L 39.692881 101.36397 
L 39.812581 126.659425 
L 39.829681 126.659425 
L 39.846781 101.36397 
L 39.932281 126.659425 
L 40.154581 126.659425 
L 40.257181 101.36397 
L 40.376881 126.659425 
L 40.599181 126.659425 
L 40.701781 101.36397 
L 40.821481 126.659425 
L 40.838581 101.36397 
L 40.924081 126.659425 
L 41.659381 126.659425 
L 41.779081 101.36397 
L 41.881681 126.659425 
L 41.984281 101.36397 
L 42.103981 126.659425 
L 42.257881 126.659425 
L 42.274981 101.36397 
L 42.360481 126.659425 
L 43.164181 126.659425 
L 43.181281 101.36397 
L 43.266781 126.659425 
L 43.489081 126.659425 
L 43.574581 101.36397 
L 43.591681 126.659425 
L 43.608781 126.659425 
L 43.728481 101.36397 
L 43.848181 126.659425 
L 44.002081 126.659425 
L 44.036281 101.36397 
L 44.104681 126.659425 
L 44.497981 126.659425 
L 44.583481 101.36397 
L 44.600581 126.659425 
L 44.617681 126.659425 
L 44.686081 101.36397 
L 44.720281 126.659425 
L 44.737381 126.659425 
L 44.857081 101.36397 
L 44.976781 126.659425 
L 44.993881 126.659425 
L 45.010981 101.36397 
L 45.096481 126.659425 
L 45.181981 126.659425 
L 45.199081 101.36397 
L 45.284581 126.659425 
L 45.387181 126.659425 
L 45.438481 76.068516 
L 45.506881 101.36397 
L 45.609481 101.36397 
L 45.643681 126.659425 
L 45.694981 76.068516 
L 45.712081 101.36397 
L 45.729181 76.068516 
L 45.746281 126.659425 
L 45.797581 126.659425 
L 45.814681 126.659425 
L 45.831781 101.36397 
L 45.917281 126.659425 
L 47.114281 126.659425 
L 47.233981 101.36397 
L 47.353681 101.36397 
L 47.370781 76.068516 
L 47.456281 101.36397 
L 47.541781 101.36397 
L 47.558881 126.659425 
L 47.644381 101.36397 
L 47.661481 76.068516 
L 47.729881 101.36397 
L 47.832481 126.659425 
L 47.969281 76.068516 
L 48.088981 126.659425 
L 48.123181 126.659425 
L 48.242881 101.36397 
L 48.259981 101.36397 
L 48.362581 126.659425 
L 48.379681 101.36397 
L 48.465181 126.659425 
L 48.567781 126.659425 
L 48.584881 76.068516 
L 48.670381 126.659425 
L 48.704581 126.659425 
L 48.824281 101.36397 
L 48.892681 101.36397 
L 49.012381 126.659425 
L 49.046581 126.659425 
L 49.149181 101.36397 
L 49.268881 126.659425 
L 49.303081 126.659425 
L 49.422781 101.36397 
L 49.456981 101.36397 
L 49.508281 126.659425 
L 49.559581 101.36397 
L 49.593781 101.36397 
L 49.610881 126.659425 
L 49.696381 101.36397 
L 49.798981 101.36397 
L 49.918681 126.659425 
L 50.004181 101.36397 
L 50.021281 126.659425 
L 50.055481 126.659425 
L 50.158081 101.36397 
L 50.175181 126.659425 
L 50.260681 101.36397 
L 50.277781 101.36397 
L 50.363281 126.659425 
L 50.380381 101.36397 
L 50.431681 101.36397 
L 50.534281 126.659425 
L 50.653981 101.36397 
L 50.824981 101.36397 
L 50.859181 76.068516 
L 50.944681 126.659425 
L 51.047281 101.36397 
L 51.098581 126.659425 
L 51.132781 101.36397 
L 51.149881 76.068516 
L 51.184081 126.659425 
L 51.235381 101.36397 
L 51.320881 126.659425 
L 51.337981 101.36397 
L 51.355081 76.068516 
L 51.423481 101.36397 
L 51.491881 126.659425 
L 51.526081 101.36397 
L 51.543181 101.36397 
L 51.560281 126.659425 
L 51.645781 101.36397 
L 51.679981 101.36397 
L 51.782581 126.659425 
L 51.902281 101.36397 
L 51.919381 101.36397 
L 52.004881 126.659425 
L 52.021981 101.36397 
L 52.056181 101.36397 
L 52.158781 126.659425 
L 52.261381 101.36397 
L 52.278481 126.659425 
L 52.363981 101.36397 
L 52.517881 101.36397 
L 52.620481 126.659425 
L 52.740181 101.36397 
L 52.928281 101.36397 
L 52.996681 126.659425 
L 53.030881 101.36397 
L 53.065081 101.36397 
L 53.184781 126.659425 
L 53.218981 126.659425 
L 53.338681 101.36397 
L 53.372881 101.36397 
L 53.424181 126.659425 
L 53.475481 101.36397 
L 53.492581 101.36397 
L 53.509681 126.659425 
L 53.595181 101.36397 
L 53.629381 101.36397 
L 53.646481 76.068516 
L 53.680681 126.659425 
L 53.714881 126.659425 
L 53.731981 126.659425 
L 53.800381 101.36397 
L 53.834581 126.659425 
L 53.868781 126.659425 
L 53.988481 101.36397 
L 54.005581 101.36397 
L 54.125281 126.659425 
L 54.193681 76.068516 
L 54.244981 101.36397 
L 54.313381 101.36397 
L 54.330481 126.659425 
L 54.347581 76.068516 
L 54.415981 101.36397 
L 54.484381 101.36397 
L 54.501481 76.068516 
L 54.586981 101.36397 
L 54.655381 101.36397 
L 54.723781 76.068516 
L 54.689581 126.659425 
L 54.757981 101.36397 
L 54.860581 101.36397 
L 54.911881 126.659425 
L 54.963181 101.36397 
L 54.997381 76.068516 
L 55.065781 101.36397 
L 55.117081 101.36397 
L 55.134181 76.068516 
L 55.219681 101.36397 
L 55.339381 126.659425 
L 55.459081 101.36397 
L 55.510381 101.36397 
L 55.578781 126.659425 
L 55.612981 101.36397 
L 55.630081 101.36397 
L 55.749781 126.659425 
L 55.801081 126.659425 
L 55.920781 101.36397 
L 56.245681 101.36397 
L 56.365381 126.659425 
L 56.382481 101.36397 
L 56.467981 126.659425 
L 56.502181 126.659425 
L 56.570581 101.36397 
L 56.604781 126.659425 
L 57.887281 126.659425 
L 58.006981 101.36397 
L 58.092481 101.36397 
L 58.109581 76.068516 
L 58.143781 126.659425 
L 58.177981 126.659425 
L 58.195081 126.659425 
L 58.280581 101.36397 
L 58.297681 126.659425 
L 58.383181 126.659425 
L 58.485781 101.36397 
L 58.605481 126.659425 
L 58.742281 126.659425 
L 58.879081 76.068516 
L 58.896181 76.068516 
L 59.032981 126.659425 
L 59.101381 126.659425 
L 59.186881 76.068516 
L 59.221081 101.36397 
L 59.255281 101.36397 
L 59.289481 50.773061 
L 59.374981 76.068516 
L 59.392081 101.36397 
L 59.477581 76.068516 
L 59.494681 76.068516 
L 59.563081 101.36397 
L 59.597281 76.068516 
L 59.699881 76.068516 
L 59.716981 50.773061 
L 59.802481 76.068516 
L 59.887981 76.068516 
L 59.905081 50.773061 
L 59.990581 76.068516 
L 60.007681 76.068516 
L 60.024781 101.36397 
L 60.093181 50.773061 
L 60.110281 76.068516 
L 60.144481 76.068516 
L 60.161581 50.773061 
L 60.195781 101.36397 
L 60.247081 76.068516 
L 60.315481 76.068516 
L 60.435181 126.659425 
L 60.554881 76.068516 
L 60.640381 50.773061 
L 60.657481 76.068516 
L 60.674581 76.068516 
L 60.742981 50.773061 
L 60.777181 76.068516 
L 60.896881 76.068516 
L 60.948181 50.773061 
L 60.999481 76.068516 
L 61.016581 101.36397 
L 61.084981 76.068516 
L 61.153381 50.773061 
L 61.187581 76.068516 
L 61.221781 76.068516 
L 61.255981 101.36397 
L 61.324381 76.068516 
L 61.375681 76.068516 
L 61.409881 50.773061 
L 61.478281 76.068516 
L 61.649281 76.068516 
L 61.734781 50.773061 
L 61.751881 76.068516 
L 61.768981 76.068516 
L 61.786081 50.773061 
L 61.871581 76.068516 
L 61.957081 76.068516 
L 61.974181 101.36397 
L 62.059681 76.068516 
L 62.162281 76.068516 
L 62.179381 126.659425 
L 62.264881 101.36397 
L 62.367481 50.773061 
L 62.384581 76.068516 
L 62.470081 76.068516 
L 62.487181 101.36397 
L 62.572681 76.068516 
L 62.641081 76.068516 
L 62.658181 50.773061 
L 62.743681 76.068516 
L 62.760781 76.068516 
L 62.777881 50.773061 
L 62.863381 76.068516 
L 62.914681 76.068516 
L 62.931781 101.36397 
L 63.017281 76.068516 
L 63.085681 50.773061 
L 63.119881 76.068516 
L 63.136981 101.36397 
L 63.171181 50.773061 
L 63.222481 76.068516 
L 63.325081 76.068516 
L 63.342181 50.773061 
L 63.410581 76.068516 
L 63.427681 101.36397 
L 63.513181 76.068516 
L 63.632881 76.068516 
L 63.752581 50.773061 
L 63.855181 101.36397 
L 63.872281 76.068516 
L 63.889381 76.068516 
L 63.974881 50.773061 
L 63.991981 101.36397 
L 64.077481 76.068516 
L 64.128781 50.773061 
L 64.180081 76.068516 
L 64.282681 76.068516 
L 64.333981 101.36397 
L 64.316881 50.773061 
L 64.385281 76.068516 
L 64.470781 76.068516 
L 64.522081 50.773061 
L 64.504981 101.36397 
L 64.573381 76.068516 
L 64.641781 76.068516 
L 64.761481 50.773061 
L 64.881181 76.068516 
L 64.898281 50.773061 
L 64.949581 101.36397 
L 64.983781 76.068516 
L 65.052181 101.36397 
L 65.086381 76.068516 
L 65.103481 76.068516 
L 65.188981 50.773061 
L 65.223181 101.36397 
L 65.274481 50.773061 
L 65.325781 101.36397 
L 65.445481 76.068516 
L 65.479681 76.068516 
L 65.496781 50.773061 
L 65.513881 126.659425 
L 65.582281 76.068516 
L 65.616481 76.068516 
L 65.667781 50.773061 
L 65.719081 76.068516 
L 65.787481 101.36397 
L 65.753281 50.773061 
L 65.821681 76.068516 
L 65.958481 76.068516 
L 65.992681 126.659425 
L 66.043981 50.773061 
L 66.061081 76.068516 
L 66.078181 50.773061 
L 66.129481 101.36397 
L 66.163681 76.068516 
L 66.180781 76.068516 
L 66.300481 50.773061 
L 66.368881 101.36397 
L 66.385981 50.773061 
L 66.403081 25.477607 
L 66.420181 76.068516 
L 66.454381 76.068516 
L 66.471481 101.36397 
L 66.488581 50.773061 
L 66.539881 50.773061 
L 66.625381 50.773061 
L 66.727981 76.068516 
L 66.796381 50.773061 
L 66.830581 76.068516 
L 66.916081 76.068516 
L 67.035781 101.36397 
L 67.155481 76.068516 
L 67.292281 76.068516 
L 67.360681 101.36397 
L 67.343581 50.773061 
L 67.377781 76.068516 
L 67.394881 50.773061 
L 67.480381 76.068516 
L 67.531681 76.068516 
L 67.600081 101.36397 
L 67.617181 25.477607 
L 67.702681 76.068516 
L 67.753981 76.068516 
L 67.771081 50.773061 
L 67.822381 101.36397 
L 67.856581 76.068516 
L 67.907881 76.068516 
L 67.924981 50.773061 
L 67.976281 101.36397 
L 67.993381 101.36397 
L 68.078881 101.36397 
L 68.198581 50.773061 
L 68.318281 76.068516 
L 68.335381 50.773061 
L 68.369581 101.36397 
L 68.403781 101.36397 
L 68.420881 101.36397 
L 68.489281 76.068516 
L 68.506381 126.659425 
L 68.523481 101.36397 
L 68.591881 126.659425 
L 68.608981 101.36397 
L 68.660281 50.773061 
L 68.711581 101.36397 
L 68.728681 101.36397 
L 68.779981 76.068516 
L 68.814181 126.659425 
L 68.831281 101.36397 
L 68.899681 101.36397 
L 69.019381 76.068516 
L 69.036481 101.36397 
L 69.121981 76.068516 
L 69.173281 76.068516 
L 69.241681 126.659425 
L 69.292981 101.36397 
L 69.310081 101.36397 
L 69.327181 126.659425 
L 69.344281 76.068516 
L 69.412681 101.36397 
L 69.429781 101.36397 
L 69.481081 76.068516 
L 69.532381 101.36397 
L 69.549481 101.36397 
L 69.566581 76.068516 
L 69.617881 126.659425 
L 69.652081 101.36397 
L 69.754681 126.659425 
L 69.874381 101.36397 
L 69.994081 126.659425 
L 70.130881 126.659425 
L 70.199281 101.36397 
L 70.233481 126.659425 
L 70.318981 126.659425 
L 70.421581 101.36397 
L 70.455781 126.659425 
L 70.507081 76.068516 
L 70.524181 101.36397 
L 70.968781 101.36397 
L 70.985881 126.659425 
L 71.071381 101.36397 
L 71.191081 101.36397 
L 71.293681 126.659425 
L 71.396281 101.36397 
L 71.515981 126.659425 
L 71.635681 101.36397 
L 71.738281 126.659425 
L 71.857981 101.36397 
L 71.892181 101.36397 
L 71.994781 126.659425 
L 72.114481 101.36397 
L 72.251281 101.36397 
L 72.370981 126.659425 
L 72.490681 101.36397 
L 72.507781 101.36397 
L 72.576181 126.659425 
L 72.610381 101.36397 
L 72.747181 101.36397 
L 72.866881 126.659425 
L 73.277281 126.659425 
L 73.396981 76.068516 
L 73.499581 126.659425 
L 73.516681 101.36397 
L 73.619281 101.36397 
L 73.704781 126.659425 
L 73.721881 101.36397 
L 73.807381 101.36397 
L 73.875781 126.659425 
L 73.909981 101.36397 
L 73.927081 101.36397 
L 74.012581 126.659425 
L 74.029681 101.36397 
L 74.251981 101.36397 
L 74.303281 126.659425 
L 74.354581 101.36397 
L 74.422981 101.36397 
L 74.525581 126.659425 
L 74.645281 101.36397 
L 74.696581 101.36397 
L 74.799181 126.659425 
L 74.918881 101.36397 
L 75.021481 101.36397 
L 75.038581 126.659425 
L 75.124081 101.36397 
L 75.192481 101.36397 
L 75.209581 126.659425 
L 75.226681 76.068516 
L 75.295081 101.36397 
L 75.312181 101.36397 
L 75.329281 76.068516 
L 75.380581 126.659425 
L 75.414781 101.36397 
L 75.619981 101.36397 
L 75.688381 126.659425 
L 75.722581 101.36397 
L 75.927781 101.36397 
L 75.944881 126.659425 
L 76.030381 101.36397 
L 76.235581 101.36397 
L 76.355281 126.659425 
L 76.474981 101.36397 
L 76.714381 101.36397 
L 76.731481 76.068516 
L 76.748581 126.659425 
L 76.816981 101.36397 
L 77.124781 101.36397 
L 77.244481 126.659425 
L 77.364181 101.36397 
L 77.518081 101.36397 
L 77.637781 126.659425 
L 77.757481 101.36397 
L 77.979781 101.36397 
L 77.996881 126.659425 
L 78.082381 101.36397 
L 78.287581 101.36397 
L 78.338881 126.659425 
L 78.390181 101.36397 
L 78.407281 101.36397 
L 78.509881 126.659425 
L 78.629581 101.36397 
L 78.646681 101.36397 
L 78.766381 126.659425 
L 78.783481 126.659425 
L 78.886081 101.36397 
L 78.903181 126.659425 
L 78.988681 101.36397 
L 79.022881 101.36397 
L 79.108381 126.659425 
L 79.125481 101.36397 
L 79.228081 101.36397 
L 79.245181 126.659425 
L 79.330681 101.36397 
L 79.484581 101.36397 
L 79.535881 126.659425 
L 79.587181 101.36397 
L 79.621381 101.36397 
L 79.638481 126.659425 
L 79.672681 76.068516 
L 79.723981 101.36397 
L 79.860781 50.773061 
L 79.980481 101.36397 
L 80.100181 25.477607 
L 80.151481 126.659425 
L 80.219881 76.068516 
L 80.236981 76.068516 
L 80.339581 50.773061 
L 80.356681 101.36397 
L 80.442181 76.068516 
L 80.459281 76.068516 
L 80.476381 126.659425 
L 80.493481 50.773061 
L 80.544781 50.773061 
L 80.578981 50.773061 
L 80.596081 101.36397 
L 80.681581 76.068516 
L 80.732881 76.068516 
L 80.749981 50.773061 
L 80.818381 76.068516 
L 80.835481 101.36397 
L 80.869681 50.773061 
L 80.920981 76.068516 
L 81.006481 76.068516 
L 81.074881 101.36397 
L 81.091981 50.773061 
L 81.177481 101.36397 
L 81.194581 76.068516 
L 81.211681 76.068516 
L 81.297181 101.36397 
L 81.262981 50.773061 
L 81.314281 76.068516 
L 81.348481 76.068516 
L 81.485281 126.659425 
L 81.587881 76.068516 
L 81.604981 101.36397 
L 81.690481 101.36397 
L 81.724681 50.773061 
L 81.793081 101.36397 
L 81.810181 101.36397 
L 81.946981 50.773061 
L 81.964081 50.773061 
L 82.100881 101.36397 
L 82.169281 126.659425 
L 82.220581 76.068516 
L 82.288981 101.36397 
L 82.306081 76.068516 
L 82.323181 50.773061 
L 82.357381 101.36397 
L 82.408681 76.068516 
L 82.442881 76.068516 
L 82.477081 126.659425 
L 82.545481 101.36397 
L 82.562581 50.773061 
L 82.648081 76.068516 
L 82.750681 101.36397 
L 82.870381 76.068516 
L 82.921681 76.068516 
L 83.041381 101.36397 
L 83.195281 101.36397 
L 83.280781 126.659425 
L 83.314981 76.068516 
L 83.332081 76.068516 
L 83.417581 101.36397 
L 83.434681 50.773061 
L 83.520181 76.068516 
L 83.588581 76.068516 
L 83.605681 101.36397 
L 83.691181 76.068516 
L 83.759581 76.068516 
L 83.810881 101.36397 
L 83.862181 50.773061 
L 83.930581 126.659425 
L 83.981881 101.36397 
L 84.084481 76.068516 
L 84.169981 101.36397 
L 84.187081 76.068516 
L 84.255481 76.068516 
L 84.323881 101.36397 
L 84.358081 76.068516 
L 84.409381 76.068516 
L 84.494881 101.36397 
L 84.511981 76.068516 
L 84.563281 76.068516 
L 84.648781 101.36397 
L 84.665881 76.068516 
L 84.700081 76.068516 
L 84.802681 101.36397 
L 84.939481 50.773061 
L 84.956581 50.773061 
L 85.076281 76.068516 
L 85.093381 76.068516 
L 85.161781 50.773061 
L 85.213081 101.36397 
L 85.247281 101.36397 
L 85.315681 50.773061 
L 85.349881 76.068516 
L 85.366981 101.36397 
L 85.452481 76.068516 
L 85.520881 76.068516 
L 85.623481 101.36397 
L 85.743181 76.068516 
L 85.811581 76.068516 
L 85.845781 101.36397 
L 85.914181 76.068516 
L 85.999681 76.068516 
L 86.102281 101.36397 
L 86.204881 76.068516 
L 86.324581 101.36397 
L 86.410081 76.068516 
L 86.427181 101.36397 
L 86.444281 101.36397 
L 86.529781 50.773061 
L 86.546881 76.068516 
L 86.563981 101.36397 
L 86.649481 76.068516 
L 86.666581 50.773061 
L 86.734981 76.068516 
L 86.803381 126.659425 
L 86.837581 101.36397 
L 86.905981 50.773061 
L 86.957281 76.068516 
L 86.974381 76.068516 
L 86.991481 50.773061 
L 87.008581 101.36397 
L 87.059881 76.068516 
L 87.179581 101.36397 
L 87.230881 101.36397 
L 87.367681 50.773061 
L 87.453181 101.36397 
L 87.470281 76.068516 
L 87.521581 76.068516 
L 87.589981 50.773061 
L 87.641281 101.36397 
L 87.778081 50.773061 
L 87.931981 126.659425 
L 88.000381 76.068516 
L 88.034581 126.659425 
L 88.171381 76.068516 
L 88.239781 126.659425 
L 88.273981 76.068516 
L 88.291081 101.36397 
L 88.376581 76.068516 
L 88.444981 76.068516 
L 88.462081 101.36397 
L 88.513381 50.773061 
L 88.547581 76.068516 
L 88.564681 76.068516 
L 88.667281 126.659425 
L 88.769881 76.068516 
L 88.855381 101.36397 
L 88.872481 50.773061 
L 88.957981 76.068516 
L 88.992181 76.068516 
L 89.043481 50.773061 
L 89.077681 101.36397 
L 89.094781 101.36397 
L 89.214481 76.068516 
L 89.248681 76.068516 
L 89.368381 101.36397 
L 89.488081 76.068516 
L 89.607781 101.36397 
L 89.641981 101.36397 
L 89.710381 126.659425 
L 89.744581 101.36397 
L 89.881381 101.36397 
L 89.932681 50.773061 
L 90.001081 126.659425 
L 90.103681 50.773061 
L 90.120781 76.068516 
L 90.189181 101.36397 
L 90.223381 76.068516 
L 90.257581 76.068516 
L 90.343081 101.36397 
L 90.360181 76.068516 
L 90.394381 76.068516 
L 90.462781 101.36397 
L 90.479881 50.773061 
L 90.496981 76.068516 
L 90.514081 50.773061 
L 90.531181 101.36397 
L 90.582481 101.36397 
L 90.599581 101.36397 
L 90.719281 76.068516 
L 90.770581 76.068516 
L 90.787681 101.36397 
L 90.873181 76.068516 
L 90.941581 76.068516 
L 90.975781 50.773061 
L 91.044181 101.36397 
L 91.078381 50.773061 
L 91.146781 76.068516 
L 91.163881 101.36397 
L 91.232281 50.773061 
L 91.249381 50.773061 
L 91.386181 101.36397 
L 91.403281 50.773061 
L 91.488781 101.36397 
L 91.574281 25.477607 
L 91.608481 50.773061 
L 91.659781 101.36397 
L 91.711081 76.068516 
L 91.728181 76.068516 
L 91.762381 101.36397 
L 91.830781 76.068516 
L 91.950481 76.068516 
L 92.053081 101.36397 
L 92.087281 50.773061 
L 92.155681 76.068516 
L 92.258281 101.36397 
L 92.360881 50.773061 
L 92.463481 101.36397 
L 92.514781 126.659425 
L 92.583181 50.773061 
L 92.651581 101.36397 
L 92.702881 76.068516 
L 92.719981 76.068516 
L 92.839681 101.36397 
L 92.890981 101.36397 
L 92.908081 50.773061 
L 92.993581 76.068516 
L 93.113281 101.36397 
L 93.198781 50.773061 
L 93.232981 76.068516 
L 93.301381 76.068516 
L 93.369781 101.36397 
L 93.403981 76.068516 
L 93.438181 76.068516 
L 93.523681 50.773061 
L 93.540781 101.36397 
L 93.609181 76.068516 
L 93.643381 101.36397 
L 93.660481 101.36397 
L 93.780181 50.773061 
L 93.899881 126.659425 
L 93.916981 101.36397 
L 93.934081 101.36397 
L 94.053781 50.773061 
L 94.122181 126.659425 
L 94.190581 101.36397 
L 94.310281 50.773061 
L 94.429981 101.36397 
L 94.515481 50.773061 
L 94.532581 76.068516 
L 94.618081 101.36397 
L 94.635181 76.068516 
L 94.720681 50.773061 
L 94.737781 76.068516 
L 94.823281 101.36397 
L 94.789081 50.773061 
L 94.840381 76.068516 
L 94.857481 50.773061 
L 94.908781 101.36397 
L 94.942981 76.068516 
L 94.977181 76.068516 
L 95.079781 25.477607 
L 95.199481 76.068516 
L 95.319181 50.773061 
L 95.421781 76.068516 
L 95.541481 25.477607 
L 95.661181 76.068516 
L 95.729581 76.068516 
L 95.815081 50.773061 
L 95.763781 101.36397 
L 95.832181 76.068516 
L 95.849281 101.36397 
L 95.934781 76.068516 
L 95.986081 76.068516 
L 96.071581 50.773061 
L 96.105781 101.36397 
L 96.225481 76.068516 
L 96.242581 76.068516 
L 96.259681 50.773061 
L 96.328081 76.068516 
L 96.430681 101.36397 
L 96.550381 76.068516 
L 96.601681 76.068516 
L 96.652981 101.36397 
L 96.687181 50.773061 
L 96.704281 76.068516 
L 96.755581 50.773061 
L 96.772681 101.36397 
L 96.806881 76.068516 
L 96.823981 101.36397 
L 96.858181 50.773061 
L 96.909481 76.068516 
L 96.994981 76.068516 
L 97.012081 101.36397 
L 97.029181 50.773061 
L 97.097581 76.068516 
L 97.200181 76.068516 
L 97.268581 101.36397 
L 97.302781 76.068516 
L 97.354081 76.068516 
L 97.371181 101.36397 
L 97.388281 50.773061 
L 97.456681 76.068516 
L 97.525081 76.068516 
L 97.559281 50.773061 
L 97.627681 101.36397 
L 97.764481 50.773061 
L 97.781581 50.773061 
L 97.815781 101.36397 
L 97.901281 76.068516 
L 97.935481 76.068516 
L 97.952581 126.659425 
L 98.038081 76.068516 
L 98.055181 76.068516 
L 98.089381 50.773061 
L 98.123581 76.068516 
L 98.140681 126.659425 
L 98.209081 76.068516 
L 98.311681 50.773061 
L 98.414281 101.36397 
L 98.448481 25.477607 
L 98.533981 50.773061 
L 98.602381 101.36397 
L 98.636581 76.068516 
L 98.704981 76.068516 
L 98.722081 101.36397 
L 98.773381 50.773061 
L 98.807581 76.068516 
L 98.824681 76.068516 
L 98.858881 50.773061 
L 98.927281 76.068516 
L 98.961481 76.068516 
L 98.995681 50.773061 
L 99.064081 101.36397 
L 99.166681 50.773061 
L 99.269281 76.068516 
L 99.337681 101.36397 
L 99.388981 50.773061 
L 99.508681 101.36397 
L 99.559981 50.773061 
L 99.628381 76.068516 
L 99.662581 50.773061 
L 99.713881 101.36397 
L 99.782281 50.773061 
L 99.816481 76.068516 
L 99.936181 101.36397 
L 99.953281 101.36397 
L 100.055881 76.068516 
L 100.141381 101.36397 
L 100.158481 76.068516 
L 100.175581 50.773061 
L 100.261081 76.068516 
L 100.329481 76.068516 
L 100.414981 101.36397 
L 100.432081 76.068516 
L 100.466281 76.068516 
L 100.517581 101.36397 
L 100.551781 50.773061 
L 100.568881 76.068516 
L 100.603081 76.068516 
L 100.688581 50.773061 
L 100.705681 76.068516 
L 100.825381 101.36397 
L 100.945081 76.068516 
L 101.064781 76.068516 
L 101.116081 101.36397 
L 101.167381 76.068516 
L 101.252881 76.068516 
L 101.355481 101.36397 
L 101.423881 50.773061 
L 101.475181 76.068516 
L 101.577781 101.36397 
L 101.663281 50.773061 
L 101.697481 76.068516 
L 101.748781 126.659425 
L 101.817181 101.36397 
L 101.919781 76.068516 
L 102.022381 101.36397 
L 102.159181 50.773061 
L 102.278881 101.36397 
L 102.313081 101.36397 
L 102.449881 50.773061 
L 102.518281 76.068516 
L 102.535381 25.477607 
L 102.552481 50.773061 
L 102.569581 50.773061 
L 102.672181 101.36397 
L 102.689281 76.068516 
L 102.877381 76.068516 
L 102.945781 50.773061 
L 102.979981 76.068516 
L 102.997081 76.068516 
L 103.099681 50.773061 
L 103.219381 76.068516 
L 103.304881 101.36397 
L 103.321981 25.477607 
L 103.441681 76.068516 
L 103.458781 50.773061 
L 103.492981 101.36397 
L 103.544281 76.068516 
L 103.578481 76.068516 
L 103.595581 50.773061 
L 103.629781 101.36397 
L 103.663981 76.068516 
L 103.681081 101.36397 
L 103.715281 50.773061 
L 103.766581 76.068516 
L 103.886281 25.477607 
L 103.937581 76.068516 
L 103.988881 50.773061 
L 104.005981 25.477607 
L 104.057281 101.36397 
L 104.074381 76.068516 
L 104.108581 76.068516 
L 104.142781 25.477607 
L 104.228281 50.773061 
L 104.262481 50.773061 
L 104.347981 126.659425 
L 104.382181 101.36397 
L 104.467681 50.773061 
L 104.501881 76.068516 
L 104.518981 76.068516 
L 104.553181 50.773061 
L 104.621581 101.36397 
L 104.724181 50.773061 
L 104.826781 101.36397 
L 104.843881 76.068516 
L 104.878081 50.773061 
L 104.929381 76.068516 
L 104.980681 50.773061 
L 105.031981 101.36397 
L 105.168781 25.477607 
L 105.305581 101.36397 
L 105.425281 76.068516 
L 105.442381 76.068516 
L 105.493681 101.36397 
L 105.544981 76.068516 
L 105.579181 76.068516 
L 105.664681 101.36397 
L 105.715981 25.477607 
L 105.784381 50.773061 
L 105.904081 101.36397 
L 106.023781 50.773061 
L 106.057981 101.36397 
L 106.143481 76.068516 
L 106.246081 50.773061 
L 106.382881 101.36397 
L 106.417081 50.773061 
L 106.502581 76.068516 
L 106.536781 76.068516 
L 106.588081 126.659425 
L 106.639381 101.36397 
L 106.724881 101.36397 
L 106.741981 126.659425 
L 106.793281 76.068516 
L 106.827481 101.36397 
L 106.878781 126.659425 
L 106.912981 76.068516 
L 106.998481 126.659425 
L 107.015581 101.36397 
L 107.135281 76.068516 
L 107.152381 76.068516 
L 107.254981 101.36397 
L 107.306281 76.068516 
L 107.357581 101.36397 
L 107.579881 101.36397 
L 107.648281 76.068516 
L 107.665381 101.36397 
L 107.682481 126.659425 
L 107.767981 101.36397 
L 107.921881 101.36397 
L 108.041581 76.068516 
L 108.109981 76.068516 
L 108.229681 101.36397 
L 108.349381 76.068516 
L 108.366481 76.068516 
L 108.417781 101.36397 
L 108.469081 76.068516 
L 108.725581 76.068516 
L 108.776881 25.477607 
L 108.828181 76.068516 
L 108.862381 76.068516 
L 108.879481 25.477607 
L 108.964981 76.068516 
L 108.999181 76.068516 
L 109.084681 101.36397 
L 109.118881 50.773061 
L 109.187281 101.36397 
L 109.255681 50.773061 
L 109.306981 76.068516 
L 109.324081 101.36397 
L 109.409581 76.068516 
L 109.426681 50.773061 
L 109.460881 101.36397 
L 109.512181 76.068516 
L 109.529281 101.36397 
L 109.614781 76.068516 
L 109.837081 76.068516 
L 109.871281 101.36397 
L 109.939681 76.068516 
L 110.042281 76.068516 
L 110.059381 101.36397 
L 110.144881 76.068516 
L 110.179081 76.068516 
L 110.196181 101.36397 
L 110.264581 76.068516 
L 110.315881 50.773061 
L 110.332981 101.36397 
L 110.367181 76.068516 
L 110.709181 76.068516 
L 110.726281 50.773061 
L 110.760481 101.36397 
L 110.811781 76.068516 
L 110.828881 76.068516 
L 110.965681 126.659425 
L 111.051181 50.773061 
L 111.085381 76.068516 
L 111.290581 76.068516 
L 111.307681 50.773061 
L 111.324781 101.36397 
L 111.393181 76.068516 
L 111.683881 76.068516 
L 111.700981 101.36397 
L 111.735181 25.477607 
L 111.786481 76.068516 
L 111.820681 76.068516 
L 111.940381 101.36397 
L 112.060081 76.068516 
L 112.111381 76.068516 
L 112.128481 101.36397 
L 112.213981 76.068516 
L 112.573081 76.068516 
L 112.590181 101.36397 
L 112.641481 50.773061 
L 112.675681 76.068516 
L 112.726981 76.068516 
L 112.744081 50.773061 
L 112.829581 76.068516 
L 112.983481 76.068516 
L 113.068981 50.773061 
L 113.017681 101.36397 
L 113.086081 76.068516 
L 113.120281 76.068516 
L 113.222881 101.36397 
L 113.325481 76.068516 
L 113.342581 101.36397 
L 113.410981 76.068516 
L 113.428081 50.773061 
L 113.513581 76.068516 
L 113.684581 76.068516 
L 113.804281 101.36397 
L 113.889781 50.773061 
L 113.923981 76.068516 
L 113.992381 76.068516 
L 114.060781 101.36397 
L 114.077881 76.068516 
L 114.146281 50.773061 
L 114.129181 101.36397 
L 114.180481 76.068516 
L 114.197581 101.36397 
L 114.214681 50.773061 
L 114.265981 76.068516 
L 114.283081 50.773061 
L 114.300181 101.36397 
L 114.368581 76.068516 
L 114.436981 76.068516 
L 114.471181 50.773061 
L 114.556681 101.36397 
L 114.659281 50.773061 
L 114.676381 76.068516 
L 114.710581 76.068516 
L 114.830281 101.36397 
L 114.881581 50.773061 
L 114.949981 76.068516 
L 115.001281 76.068516 
L 115.069681 126.659425 
L 115.120981 101.36397 
L 115.138081 101.36397 
L 115.223581 76.068516 
L 115.240681 101.36397 
L 115.274881 101.36397 
L 115.291981 50.773061 
L 115.377481 101.36397 
L 115.480081 76.068516 
L 115.548481 101.36397 
L 115.582681 76.068516 
L 115.736581 76.068516 
L 115.753681 50.773061 
L 115.839181 76.068516 
L 115.873381 76.068516 
L 115.924681 50.773061 
L 115.975981 76.068516 
L 116.010181 76.068516 
L 116.061481 101.36397 
L 116.095681 76.068516 
L 116.112781 50.773061 
L 116.198281 76.068516 
L 116.215381 76.068516 
L 116.232481 101.36397 
L 116.249581 50.773061 
L 116.317981 76.068516 
L 116.335081 76.068516 
L 116.386381 101.36397 
L 116.437681 76.068516 
L 116.471881 76.068516 
L 116.488981 101.36397 
L 116.574481 76.068516 
L 116.779681 76.068516 
L 116.796781 126.659425 
L 116.813881 50.773061 
L 116.882281 101.36397 
L 116.984881 50.773061 
L 117.001981 76.068516 
L 117.087481 76.068516 
L 117.207181 50.773061 
L 117.309781 101.36397 
L 117.361081 50.773061 
L 117.412381 101.36397 
L 117.532081 76.068516 
L 117.651781 76.068516 
L 117.720181 101.36397 
L 117.754381 76.068516 
L 117.788581 76.068516 
L 117.839881 50.773061 
L 117.891181 76.068516 
L 117.908281 76.068516 
L 118.010881 126.659425 
L 118.027981 101.36397 
L 118.062181 101.36397 
L 118.096381 126.659425 
L 118.113481 76.068516 
L 118.147681 76.068516 
L 118.267381 76.068516 
L 118.284481 101.36397 
L 118.369981 76.068516 
L 118.421281 76.068516 
L 118.540981 50.773061 
L 118.592281 101.36397 
L 118.660681 76.068516 
L 118.729081 76.068516 
L 118.746181 101.36397 
L 118.797481 50.773061 
L 118.831681 76.068516 
L 118.917181 50.773061 
L 118.934281 76.068516 
L 119.071081 76.068516 
L 119.190781 101.36397 
L 119.310481 76.068516 
L 119.344681 76.068516 
L 119.447281 101.36397 
L 119.481481 50.773061 
L 119.549881 76.068516 
L 119.584081 76.068516 
L 119.635381 101.36397 
L 119.686681 50.773061 
L 119.806381 101.36397 
L 119.891881 50.773061 
L 119.926081 76.068516 
L 119.977381 76.068516 
L 120.045781 101.36397 
L 120.079981 76.068516 
L 120.097081 76.068516 
L 120.114181 101.36397 
L 120.199681 76.068516 
L 120.216781 76.068516 
L 120.250981 101.36397 
L 120.319381 76.068516 
L 120.353581 76.068516 
L 120.370681 101.36397 
L 120.439081 76.068516 
L 120.456181 50.773061 
L 120.524581 76.068516 
L 120.644281 101.36397 
L 120.695581 101.36397 
L 120.712681 126.659425 
L 120.746881 76.068516 
L 120.798181 101.36397 
L 120.849481 101.36397 
L 120.883681 126.659425 
L 120.952081 101.36397 
L 121.054681 76.068516 
L 121.140181 101.36397 
L 121.157281 76.068516 
L 121.208581 76.068516 
L 121.225681 50.773061 
L 121.311181 76.068516 
L 121.362481 76.068516 
L 121.379581 126.659425 
L 121.465081 76.068516 
L 121.482181 76.068516 
L 121.499281 101.36397 
L 121.533481 50.773061 
L 121.567681 76.068516 
L 121.601881 50.773061 
L 121.670281 76.068516 
L 121.789981 101.36397 
L 121.909681 76.068516 
L 121.926781 101.36397 
L 122.012281 76.068516 
L 122.149081 76.068516 
L 122.183281 50.773061 
L 122.234581 76.068516 
L 122.337181 101.36397 
L 122.354281 50.773061 
L 122.439781 76.068516 
L 122.491081 76.068516 
L 122.508181 101.36397 
L 122.593681 76.068516 
L 122.627881 76.068516 
L 122.696281 101.36397 
L 122.730481 76.068516 
L 122.747581 76.068516 
L 122.798881 101.36397 
L 122.850181 76.068516 
L 122.884381 76.068516 
L 122.986981 101.36397 
L 123.106681 76.068516 
L 123.140881 76.068516 
L 123.260581 101.36397 
L 123.328981 101.36397 
L 123.448681 76.068516 
L 123.568381 76.068516 
L 123.585481 101.36397 
L 123.670981 76.068516 
L 123.824881 76.068516 
L 123.841981 101.36397 
L 123.927481 76.068516 
L 124.030081 76.068516 
L 124.047181 50.773061 
L 124.132681 76.068516 
L 124.183981 76.068516 
L 124.320781 126.659425 
L 124.457581 76.068516 
L 124.508881 76.068516 
L 124.611481 101.36397 
L 124.731181 76.068516 
L 124.765381 76.068516 
L 124.782481 50.773061 
L 124.867981 76.068516 
L 125.021881 76.068516 
L 125.038981 50.773061 
L 125.124481 76.068516 
L 125.295481 76.068516 
L 125.312581 101.36397 
L 125.398081 76.068516 
L 125.569081 76.068516 
L 125.586181 101.36397 
L 125.671681 76.068516 
L 125.791381 76.068516 
L 125.808481 101.36397 
L 125.893981 76.068516 
L 125.962381 76.068516 
L 125.979481 50.773061 
L 126.047881 101.36397 
L 126.082081 101.36397 
L 126.201781 76.068516 
L 126.441181 76.068516 
L 126.458281 101.36397 
L 126.543781 76.068516 
L 126.646381 76.068516 
L 126.766081 101.36397 
L 126.783181 101.36397 
L 126.800281 50.773061 
L 126.885781 101.36397 
L 126.902881 101.36397 
L 127.039681 50.773061 
L 127.142281 101.36397 
L 127.159381 76.068516 
L 127.279081 76.068516 
L 127.347481 50.773061 
L 127.398781 101.36397 
L 127.518481 76.068516 
L 127.552681 76.068516 
L 127.569781 101.36397 
L 127.655281 76.068516 
L 127.740781 76.068516 
L 127.860481 101.36397 
L 127.877581 101.36397 
L 127.997281 76.068516 
L 128.031481 76.068516 
L 128.048581 126.659425 
L 128.134081 101.36397 
L 128.253781 76.068516 
L 128.287981 76.068516 
L 128.407681 101.36397 
L 128.476081 101.36397 
L 128.493181 126.659425 
L 128.578681 101.36397 
L 128.749681 101.36397 
L 128.766781 76.068516 
L 128.835181 101.36397 
L 128.852281 126.659425 
L 128.937781 101.36397 
L 128.971981 101.36397 
L 129.091681 76.068516 
L 129.125881 50.773061 
L 129.177181 101.36397 
L 129.194281 50.773061 
L 129.279781 76.068516 
L 129.399481 101.36397 
L 129.433681 126.659425 
L 129.519181 76.068516 
L 129.536281 76.068516 
L 129.604681 50.773061 
L 129.655981 126.659425 
L 129.724381 76.068516 
L 129.775681 101.36397 
L 129.878281 101.36397 
L 129.963781 126.659425 
L 129.980881 101.36397 
L 130.049281 101.36397 
L 130.134781 76.068516 
L 130.151881 126.659425 
L 130.271581 76.068516 
L 130.305781 126.659425 
L 130.374181 101.36397 
L 130.425481 126.659425 
L 130.493881 76.068516 
L 130.528081 126.659425 
L 130.596481 76.068516 
L 130.613581 76.068516 
L 130.630681 101.36397 
L 130.716181 76.068516 
L 130.767481 76.068516 
L 130.784581 101.36397 
L 130.818781 50.773061 
L 130.870081 76.068516 
L 130.904281 76.068516 
L 130.921381 50.773061 
L 131.006881 76.068516 
L 131.023981 76.068516 
L 131.041081 50.773061 
L 131.126581 76.068516 
L 131.690881 76.068516 
L 131.707981 101.36397 
L 131.793481 76.068516 
L 131.930281 76.068516 
L 131.947381 101.36397 
L 132.032881 76.068516 
L 132.118381 76.068516 
L 132.135481 101.36397 
L 132.203881 50.773061 
L 132.220981 76.068516 
L 132.460381 76.068516 
L 132.562981 101.36397 
L 132.682681 76.068516 
L 132.802381 101.36397 
L 132.887881 101.36397 
L 132.939181 50.773061 
L 132.990481 76.068516 
L 133.058881 126.659425 
L 133.110181 101.36397 
L 133.195681 76.068516 
L 133.212781 101.36397 
L 133.264081 101.36397 
L 133.281181 126.659425 
L 133.366681 101.36397 
L 133.674481 101.36397 
L 133.742881 126.659425 
L 133.777081 101.36397 
L 134.221681 101.36397 
L 134.307181 126.659425 
L 134.324281 101.36397 
L 134.546581 101.36397 
L 134.563681 126.659425 
L 134.580781 76.068516 
L 134.649181 101.36397 
L 134.700481 101.36397 
L 134.820181 76.068516 
L 134.888581 76.068516 
L 135.008281 101.36397 
L 135.162181 101.36397 
L 135.213481 76.068516 
L 135.264781 101.36397 
L 135.281881 101.36397 
L 135.401581 76.068516 
L 135.521281 101.36397 
L 135.692281 101.36397 
L 135.811981 76.068516 
L 135.846181 76.068516 
L 135.880381 101.36397 
L 135.948781 76.068516 
L 136.017181 76.068516 
L 136.034281 50.773061 
L 136.085581 101.36397 
L 136.119781 76.068516 
L 136.153981 76.068516 
L 136.205281 50.773061 
L 136.222381 101.36397 
L 136.239481 76.068516 
L 136.256581 126.659425 
L 136.342081 101.36397 
L 136.359181 101.36397 
L 136.393381 126.659425 
L 136.461781 101.36397 
L 136.478881 76.068516 
L 136.513081 126.659425 
L 136.547281 126.659425 
L 136.615681 126.659425 
L 136.735381 101.36397 
L 136.820881 101.36397 
L 136.889281 126.659425 
L 136.923481 101.36397 
L 136.940581 101.36397 
L 136.957681 126.659425 
L 137.043181 101.36397 
L 137.197081 101.36397 
L 137.282581 126.659425 
L 137.299681 76.068516 
L 137.419381 101.36397 
L 137.453581 101.36397 
L 137.556181 126.659425 
L 137.641681 76.068516 
L 137.675881 101.36397 
L 137.744281 101.36397 
L 137.761381 76.068516 
L 137.795581 126.659425 
L 137.846881 101.36397 
L 138.154681 101.36397 
L 138.171781 126.659425 
L 138.257281 101.36397 
L 138.291481 101.36397 
L 138.411181 126.659425 
L 138.530881 101.36397 
L 138.650581 101.36397 
L 138.667681 76.068516 
L 138.753181 101.36397 
L 138.804481 101.36397 
L 138.821581 76.068516 
L 138.907081 101.36397 
L 138.941281 101.36397 
L 138.958381 76.068516 
L 139.043881 101.36397 
L 139.078081 101.36397 
L 139.095181 126.659425 
L 139.180681 101.36397 
L 139.249081 101.36397 
L 139.266181 76.068516 
L 139.351681 101.36397 
L 139.591081 101.36397 
L 139.676581 76.068516 
L 139.744981 126.659425 
L 139.779181 101.36397 
L 139.967281 101.36397 
L 139.984381 76.068516 
L 140.018581 126.659425 
L 140.069881 101.36397 
L 140.121181 101.36397 
L 140.155381 126.659425 
L 140.223781 101.36397 
L 140.257981 101.36397 
L 140.275081 76.068516 
L 140.360581 101.36397 
L 140.463181 101.36397 
L 140.514481 76.068516 
L 140.565781 101.36397 
L 140.685481 101.36397 
L 140.702581 76.068516 
L 140.719681 126.659425 
L 140.788081 101.36397 
L 140.839381 101.36397 
L 140.890681 126.659425 
L 140.941981 101.36397 
L 141.078781 101.36397 
L 141.130081 126.659425 
L 141.181381 101.36397 
L 141.283981 101.36397 
L 141.403681 126.659425 
L 141.506281 126.659425 
L 141.625981 101.36397 
L 141.950881 101.36397 
L 141.967981 126.659425 
L 141.985081 76.068516 
L 142.053481 101.36397 
L 142.138981 101.36397 
L 142.156081 76.068516 
L 142.241581 101.36397 
L 142.634881 101.36397 
L 142.651981 126.659425 
L 142.720381 76.068516 
L 142.737481 101.36397 
L 142.754581 76.068516 
L 142.822981 101.36397 
L 142.840081 126.659425 
L 142.891381 76.068516 
L 142.925581 101.36397 
L 142.942681 101.36397 
L 143.028181 126.659425 
L 143.045281 101.36397 
L 143.182081 101.36397 
L 143.199181 126.659425 
L 143.284681 101.36397 
L 143.301781 101.36397 
L 143.318881 126.659425 
L 143.404381 101.36397 
L 143.541181 101.36397 
L 143.643781 76.068516 
L 143.729281 50.773061 
L 143.746381 101.36397 
L 143.866081 76.068516 
L 143.985781 76.068516 
L 144.037081 101.36397 
L 144.088381 76.068516 
L 144.190981 76.068516 
L 144.208081 50.773061 
L 144.276481 76.068516 
L 144.293581 101.36397 
L 144.361981 76.068516 
L 144.379081 50.773061 
L 144.464581 76.068516 
L 144.498781 76.068516 
L 144.567181 101.36397 
L 144.601381 76.068516 
L 144.789481 76.068516 
L 144.806581 101.36397 
L 144.892081 76.068516 
L 144.943381 76.068516 
L 145.028881 101.36397 
L 145.045981 76.068516 
L 145.114381 76.068516 
L 145.216981 101.36397 
L 145.336681 76.068516 
L 145.353781 76.068516 
L 145.473481 101.36397 
L 145.524781 101.36397 
L 145.644481 76.068516 
L 145.712881 126.659425 
L 145.747081 76.068516 
L 145.781281 76.068516 
L 145.900981 101.36397 
L 146.003581 101.36397 
L 146.054881 126.659425 
L 146.106181 101.36397 
L 146.140381 101.36397 
L 146.260081 126.659425 
L 146.294281 76.068516 
L 146.362681 101.36397 
L 146.482381 126.659425 
L 146.584981 126.659425 
L 146.704681 101.36397 
L 146.738881 101.36397 
L 146.858581 126.659425 
L 146.875681 126.659425 
L 146.995381 101.36397 
L 147.012481 101.36397 
L 147.097981 126.659425 
L 147.115081 101.36397 
L 147.149281 101.36397 
L 147.234781 126.659425 
L 147.251881 101.36397 
L 147.371581 101.36397 
L 147.457081 126.659425 
L 147.474181 101.36397 
L 147.508381 101.36397 
L 147.628081 126.659425 
L 147.645181 126.659425 
L 147.747781 101.36397 
L 147.764881 126.659425 
L 147.833281 76.068516 
L 147.850381 76.068516 
L 147.952981 126.659425 
L 147.970081 101.36397 
L 148.021381 101.36397 
L 148.141081 126.659425 
L 148.226581 76.068516 
L 148.260781 101.36397 
L 148.277881 101.36397 
L 148.397581 76.068516 
L 148.414681 76.068516 
L 148.517281 101.36397 
L 148.636981 76.068516 
L 148.756681 101.36397 
L 148.790881 101.36397 
L 148.807981 76.068516 
L 148.893481 101.36397 
L 148.910581 126.659425 
L 148.944781 76.068516 
L 148.996081 101.36397 
L 149.013181 101.36397 
L 149.030281 126.659425 
L 149.064481 76.068516 
L 149.115781 101.36397 
L 149.235481 76.068516 
L 149.303881 76.068516 
L 149.423581 101.36397 
L 149.440681 101.36397 
L 149.560381 76.068516 
L 149.594581 76.068516 
L 149.611681 126.659425 
L 149.697181 76.068516 
L 149.731381 101.36397 
L 149.799781 76.068516 
L 149.833981 76.068516 
L 149.851081 101.36397 
L 149.936581 76.068516 
L 149.953681 76.068516 
L 150.022081 101.36397 
L 150.056281 76.068516 
L 150.090481 76.068516 
L 150.227281 126.659425 
L 150.329881 76.068516 
L 150.346981 101.36397 
L 150.381181 101.36397 
L 150.483781 76.068516 
L 150.586381 126.659425 
L 150.688981 101.36397 
L 150.808681 126.659425 
L 150.825781 126.659425 
L 150.859981 101.36397 
L 150.928381 126.659425 
L 157.135681 126.659425 
L 157.169881 101.36397 
L 157.238281 126.659425 
L 159.529681 126.659425 
L 159.632281 101.36397 
L 159.717781 126.659425 
L 159.734881 101.36397 
L 159.820381 101.36397 
L 159.922981 126.659425 
L 160.008481 101.36397 
L 160.025581 126.659425 
L 160.076881 126.659425 
L 160.179481 101.36397 
L 160.196581 126.659425 
L 160.282081 101.36397 
L 160.299181 101.36397 
L 160.418881 126.659425 
L 160.453081 126.659425 
L 160.521481 76.068516 
L 160.572781 101.36397 
L 160.606981 101.36397 
L 160.726681 126.659425 
L 160.777981 126.659425 
L 160.897681 101.36397 
L 161.085781 101.36397 
L 161.188381 126.659425 
L 161.308081 101.36397 
L 161.342281 101.36397 
L 161.461981 126.659425 
L 161.667181 126.659425 
L 161.769781 101.36397 
L 161.855281 126.659425 
L 161.803981 76.068516 
L 161.872381 101.36397 
L 161.889481 101.36397 
L 161.992081 126.659425 
L 162.043381 76.068516 
L 162.111781 101.36397 
L 162.180181 101.36397 
L 162.197281 76.068516 
L 162.282781 101.36397 
L 162.299881 101.36397 
L 162.316981 126.659425 
L 162.402481 101.36397 
L 162.658981 101.36397 
L 162.744481 76.068516 
L 162.761581 101.36397 
L 162.932581 101.36397 
L 163.052281 76.068516 
L 163.171981 101.36397 
L 163.223281 101.36397 
L 163.274581 76.068516 
L 163.325881 101.36397 
L 163.428481 101.36397 
L 163.445581 76.068516 
L 163.531081 101.36397 
L 163.667881 101.36397 
L 163.684981 76.068516 
L 163.770481 101.36397 
L 163.855981 101.36397 
L 163.924381 76.068516 
L 163.958581 101.36397 
L 163.975681 101.36397 
L 163.992781 76.068516 
L 164.078281 101.36397 
L 164.215081 101.36397 
L 164.283481 76.068516 
L 164.317681 101.36397 
L 164.403181 101.36397 
L 164.522881 76.068516 
L 164.539981 76.068516 
L 164.557081 126.659425 
L 164.591281 50.773061 
L 164.642581 101.36397 
L 164.693881 101.36397 
L 164.813581 76.068516 
L 164.881981 101.36397 
L 164.916181 76.068516 
L 164.933281 50.773061 
L 164.967481 101.36397 
L 165.018781 76.068516 
L 165.052981 76.068516 
L 165.121381 101.36397 
L 165.155581 76.068516 
L 165.172681 50.773061 
L 165.223981 101.36397 
L 165.258181 76.068516 
L 165.377881 101.36397 
L 165.634381 101.36397 
L 165.651481 126.659425 
L 165.736981 101.36397 
L 165.890881 101.36397 
L 165.925081 126.659425 
L 165.993481 101.36397 
L 166.010581 101.36397 
L 166.096081 126.659425 
L 166.113181 101.36397 
L 166.130281 101.36397 
L 166.147381 126.659425 
L 166.232881 101.36397 
L 166.352581 101.36397 
L 166.455181 126.659425 
L 166.557781 101.36397 
L 166.574881 126.659425 
L 166.660381 101.36397 
L 166.728781 101.36397 
L 166.814281 126.659425 
L 166.831381 101.36397 
L 166.848481 101.36397 
L 166.968181 126.659425 
L 167.087881 101.36397 
L 167.224681 101.36397 
L 167.241781 126.659425 
L 167.327281 101.36397 
L 167.600881 101.36397 
L 167.617981 76.068516 
L 167.703481 101.36397 
L 167.788981 126.659425 
L 167.806081 101.36397 
L 167.823181 76.068516 
L 167.908681 101.36397 
L 168.079681 101.36397 
L 168.165181 76.068516 
L 168.182281 101.36397 
L 168.558481 101.36397 
L 168.575581 126.659425 
L 168.661081 101.36397 
L 168.934681 101.36397 
L 168.951781 126.659425 
L 169.037281 101.36397 
L 169.191181 101.36397 
L 169.208281 126.659425 
L 169.293781 101.36397 
L 169.533181 101.36397 
L 169.550281 126.659425 
L 169.618681 76.068516 
L 169.669981 76.068516 
L 169.789681 101.36397 
L 170.114581 101.36397 
L 170.165881 126.659425 
L 170.217181 101.36397 
L 170.353981 101.36397 
L 170.371081 126.659425 
L 170.456581 101.36397 
L 170.524981 101.36397 
L 170.542081 126.659425 
L 170.627581 101.36397 
L 170.747281 101.36397 
L 170.764381 126.659425 
L 170.849881 101.36397 
L 170.866981 101.36397 
L 170.884081 126.659425 
L 170.969581 101.36397 
L 171.003781 101.36397 
L 171.123481 126.659425 
L 171.157681 126.659425 
L 171.243181 76.068516 
L 171.277381 101.36397 
L 171.362881 101.36397 
L 171.379981 126.659425 
L 171.465481 101.36397 
L 171.721981 101.36397 
L 171.841681 76.068516 
L 171.858781 76.068516 
L 171.978481 101.36397 
L 172.200781 101.36397 
L 172.217881 126.659425 
L 172.303381 101.36397 
L 172.371781 101.36397 
L 172.388881 76.068516 
L 172.474381 101.36397 
L 172.508581 101.36397 
L 172.611181 76.068516 
L 172.713781 126.659425 
L 172.730881 101.36397 
L 172.799281 101.36397 
L 172.884781 126.659425 
L 172.901881 101.36397 
L 172.987381 101.36397 
L 173.004481 126.659425 
L 173.055781 76.068516 
L 173.089981 101.36397 
L 173.158381 101.36397 
L 173.175481 76.068516 
L 173.260981 101.36397 
L 173.671381 101.36397 
L 173.791081 76.068516 
L 174.098881 76.068516 
L 174.150181 50.773061 
L 174.218581 101.36397 
L 174.269881 101.36397 
L 174.355381 126.659425 
L 174.372481 76.068516 
L 174.457981 101.36397 
L 174.492181 101.36397 
L 174.611881 76.068516 
L 174.731581 101.36397 
L 174.817081 101.36397 
L 174.936781 126.659425 
L 175.056481 101.36397 
L 175.090681 101.36397 
L 175.107781 76.068516 
L 175.141981 126.659425 
L 175.193281 101.36397 
L 175.415581 101.36397 
L 175.535281 76.068516 
L 175.723381 76.068516 
L 175.825981 101.36397 
L 175.877281 76.068516 
L 175.911481 126.659425 
L 175.928581 126.659425 
L 175.962781 50.773061 
L 176.048281 101.36397 
L 176.270581 101.36397 
L 176.390281 126.659425 
L 176.492881 101.36397 
L 176.561281 126.659425 
L 176.595481 101.36397 
L 176.954581 101.36397 
L 177.074281 76.068516 
L 177.142681 76.068516 
L 177.159781 50.773061 
L 177.193981 101.36397 
L 177.228181 101.36397 
L 177.262381 101.36397 
L 177.330781 126.659425 
L 177.364981 76.068516 
L 177.484681 101.36397 
L 177.518881 101.36397 
L 177.570181 126.659425 
L 177.621481 101.36397 
L 177.655681 101.36397 
L 177.741181 76.068516 
L 177.758281 101.36397 
L 177.843781 101.36397 
L 177.929281 126.659425 
L 177.912181 76.068516 
L 177.946381 101.36397 
L 178.014781 101.36397 
L 178.031881 126.659425 
L 178.117381 101.36397 
L 178.134481 101.36397 
L 178.151581 126.659425 
L 178.237081 101.36397 
L 178.408081 101.36397 
L 178.425181 126.659425 
L 178.510681 101.36397 
L 178.579081 101.36397 
L 178.596181 126.659425 
L 178.681681 101.36397 
L 178.938181 101.36397 
L 178.955281 126.659425 
L 179.040781 101.36397 
L 179.074981 101.36397 
L 179.092081 126.659425 
L 179.177581 101.36397 
L 179.211781 101.36397 
L 179.331481 76.068516 
L 179.348581 76.068516 
L 179.434081 101.36397 
L 179.451181 76.068516 
L 179.605081 76.068516 
L 179.622181 101.36397 
L 179.707681 76.068516 
L 179.844481 76.068516 
L 179.895781 101.36397 
L 179.947081 76.068516 
L 179.981281 76.068516 
L 180.049681 50.773061 
L 180.083881 101.36397 
L 180.135181 126.659425 
L 180.186481 76.068516 
L 180.203581 126.659425 
L 180.254881 50.773061 
L 180.289081 76.068516 
L 180.391681 76.068516 
L 180.408781 50.773061 
L 180.494281 76.068516 
L 180.545581 76.068516 
L 180.562681 101.36397 
L 180.648181 76.068516 
L 180.784981 76.068516 
L 180.904681 101.36397 
L 181.007281 76.068516 
L 181.126981 101.36397 
L 181.195381 101.36397 
L 181.263781 126.659425 
L 181.229581 76.068516 
L 181.297981 101.36397 
L 181.349281 50.773061 
L 181.400581 76.068516 
L 181.417681 101.36397 
L 181.503181 76.068516 
L 181.520281 76.068516 
L 181.639981 101.36397 
L 181.657081 101.36397 
L 181.708381 50.773061 
L 181.759681 76.068516 
L 181.845181 101.36397 
L 181.862281 76.068516 
L 181.879381 50.773061 
L 181.913581 101.36397 
L 181.947781 76.068516 
L 182.033281 101.36397 
L 182.050381 76.068516 
L 182.067481 76.068516 
L 182.187181 101.36397 
L 182.204281 101.36397 
L 182.323981 76.068516 
L 182.443681 101.36397 
L 182.477881 101.36397 
L 182.563381 126.659425 
L 182.580481 101.36397 
L 182.614681 101.36397 
L 182.700181 126.659425 
L 182.717281 101.36397 
L 182.734381 101.36397 
L 182.854081 126.659425 
L 182.905381 126.659425 
L 183.025081 101.36397 
L 183.110581 126.659425 
L 183.127681 101.36397 
L 183.161881 101.36397 
L 183.213181 126.659425 
L 183.264481 101.36397 
L 183.418381 101.36397 
L 183.435481 126.659425 
L 183.520981 101.36397 
L 183.931381 101.36397 
L 183.948481 126.659425 
L 184.033981 101.36397 
L 184.273381 101.36397 
L 184.290481 126.659425 
L 184.375981 101.36397 
L 184.666681 101.36397 
L 184.683781 76.068516 
L 184.735081 126.659425 
L 184.769281 101.36397 
L 184.991581 101.36397 
L 185.111281 126.659425 
L 185.230981 101.36397 
L 185.265181 101.36397 
L 185.333581 126.659425 
L 185.367781 101.36397 
L 185.538781 101.36397 
L 185.555881 126.659425 
L 185.641381 101.36397 
L 185.692681 101.36397 
L 185.812381 126.659425 
L 185.966281 126.659425 
L 186.085981 101.36397 
L 186.462181 101.36397 
L 186.479281 126.659425 
L 186.564781 101.36397 
L 186.975181 101.36397 
L 187.094881 50.773061 
L 187.197481 101.36397 
L 187.214581 76.068516 
L 187.300081 101.36397 
L 187.436881 101.36397 
L 187.556581 126.659425 
L 187.676281 101.36397 
L 188.274781 101.36397 
L 188.326081 76.068516 
L 188.377381 101.36397 
L 188.462881 101.36397 
L 188.514181 126.659425 
L 188.548381 76.068516 
L 188.565481 101.36397 
L 188.582581 76.068516 
L 188.668081 101.36397 
L 189.403381 101.36397 
L 189.454681 76.068516 
L 189.505981 101.36397 
L 189.659881 101.36397 
L 189.779581 76.068516 
L 189.899281 101.36397 
L 189.967681 76.068516 
L 190.001881 101.36397 
L 190.036081 101.36397 
L 190.053181 76.068516 
L 190.138681 101.36397 
L 190.207081 101.36397 
L 190.224181 76.068516 
L 190.309681 101.36397 
L 190.839781 101.36397 
L 190.856881 76.068516 
L 190.942381 101.36397 
L 190.993681 101.36397 
L 191.010781 76.068516 
L 191.096281 101.36397 
L 191.335681 101.36397 
L 191.352781 76.068516 
L 191.438281 101.36397 
L 191.523781 101.36397 
L 191.626381 76.068516 
L 191.746081 101.36397 
L 192.122281 101.36397 
L 192.139381 126.659425 
L 192.224881 101.36397 
L 192.259081 101.36397 
L 192.276181 126.659425 
L 192.361681 101.36397 
L 192.412981 101.36397 
L 192.430081 76.068516 
L 192.515581 101.36397 
L 192.908881 101.36397 
L 192.925981 126.659425 
L 193.011481 101.36397 
L 193.729681 101.36397 
L 193.746781 76.068516 
L 193.815181 126.659425 
L 193.832281 101.36397 
L 194.088781 101.36397 
L 194.105881 126.659425 
L 194.191381 101.36397 
L 195.166081 101.36397 
L 195.183181 126.659425 
L 195.268681 101.36397 
L 196.157881 101.36397 
L 196.174981 76.068516 
L 196.260481 101.36397 
L 196.824781 101.36397 
L 196.841881 126.659425 
L 196.927381 101.36397 
L 197.064181 101.36397 
L 197.115481 126.659425 
L 197.166781 101.36397 
L 197.867881 101.36397 
L 197.884981 76.068516 
L 197.970481 101.36397 
L 198.876781 101.36397 
L 198.893881 126.659425 
L 198.979381 101.36397 
L 199.201681 101.36397 
L 199.218781 126.659425 
L 199.304281 101.36397 
L 200.090881 101.36397 
L 200.107981 126.659425 
L 200.193481 101.36397 
L 200.313181 101.36397 
L 200.330281 126.659425 
L 200.415781 101.36397 
L 201.151081 101.36397 
L 201.168181 126.659425 
L 201.219481 76.068516 
L 201.236581 101.36397 
L 201.270781 50.773061 
L 201.339181 101.36397 
L 201.595681 101.36397 
L 201.629881 76.068516 
L 201.698281 101.36397 
L 201.715381 101.36397 
L 201.783781 76.068516 
L 201.817981 101.36397 
L 201.920581 101.36397 
L 201.954781 76.068516 
L 202.023181 101.36397 
L 202.057381 101.36397 
L 202.177081 76.068516 
L 202.228381 76.068516 
L 202.245481 101.36397 
L 202.330981 76.068516 
L 202.450681 76.068516 
L 202.501981 101.36397 
L 202.553281 76.068516 
L 202.587481 76.068516 
L 202.655881 101.36397 
L 202.690081 76.068516 
L 202.758481 76.068516 
L 202.775581 101.36397 
L 202.861081 76.068516 
L 202.963681 76.068516 
L 202.980781 126.659425 
L 203.066281 76.068516 
L 203.168881 101.36397 
L 203.288581 76.068516 
L 203.305681 76.068516 
L 203.322781 50.773061 
L 203.391181 76.068516 
L 203.476681 101.36397 
L 203.493781 76.068516 
L 203.545081 76.068516 
L 203.664781 101.36397 
L 203.716081 101.36397 
L 203.835781 76.068516 
L 203.852881 101.36397 
L 203.938381 76.068516 
L 204.006781 76.068516 
L 204.023881 101.36397 
L 204.109381 76.068516 
L 204.143581 76.068516 
L 204.160681 101.36397 
L 204.246181 76.068516 
L 204.297481 76.068516 
L 204.314581 50.773061 
L 204.348781 101.36397 
L 204.382981 76.068516 
L 204.485581 126.659425 
L 204.605281 76.068516 
L 204.622381 76.068516 
L 204.690781 50.773061 
L 204.656581 101.36397 
L 204.724981 76.068516 
L 204.810481 76.068516 
L 204.930181 101.36397 
L 205.015681 101.36397 
L 205.032781 76.068516 
L 205.118281 101.36397 
L 205.186681 101.36397 
L 205.255081 76.068516 
L 205.289281 101.36397 
L 205.306381 101.36397 
L 205.426081 76.068516 
L 205.443181 101.36397 
L 205.528681 76.068516 
L 205.768081 76.068516 
L 205.819381 101.36397 
L 205.870681 76.068516 
L 205.921981 76.068516 
L 206.024581 101.36397 
L 206.144281 76.068516 
L 206.263981 76.068516 
L 206.366581 101.36397 
L 206.469181 76.068516 
L 206.520481 101.36397 
L 206.571781 76.068516 
L 206.742781 76.068516 
L 206.794081 101.36397 
L 206.845381 76.068516 
L 206.947981 76.068516 
L 207.067681 101.36397 
L 207.187381 76.068516 
L 207.221581 76.068516 
L 207.341281 101.36397 
L 207.460981 101.36397 
L 207.546481 76.068516 
L 207.563581 101.36397 
L 207.580681 101.36397 
L 207.700381 76.068516 
L 207.717481 76.068516 
L 207.837181 101.36397 
L 207.939781 76.068516 
L 208.059481 101.36397 
L 208.179181 101.36397 
L 208.230481 76.068516 
L 208.281781 101.36397 
L 208.333081 101.36397 
L 208.452781 76.068516 
L 208.572481 101.36397 
L 208.675081 76.068516 
L 208.794781 101.36397 
L 208.846081 101.36397 
L 208.863181 76.068516 
L 208.948681 101.36397 
L 208.965781 101.36397 
L 209.051281 76.068516 
L 209.068381 101.36397 
L 209.085481 101.36397 
L 209.153881 76.068516 
L 209.188081 101.36397 
L 209.307781 101.36397 
L 209.427481 76.068516 
L 209.530081 126.659425 
L 209.564281 76.068516 
L 209.632681 101.36397 
L 209.683981 101.36397 
L 209.786581 76.068516 
L 209.854981 101.36397 
L 209.889181 76.068516 
L 209.906281 76.068516 
L 210.008881 101.36397 
L 210.128581 76.068516 
L 210.231181 101.36397 
L 210.248281 76.068516 
L 210.248281 76.068516 
" clip-path="url(#p2ad8ca65a7)" style="fill: none; stroke: #d55e00; stroke-width: 1.25; stroke-linecap: square"/>
   </g>
   <g id="patch_4">
    <path d="M 30.698281 131.718516 
L 30.698281 20.418516 
" style="fill: none; stroke: #000000; stroke-width: 0.8; stroke-linejoin: miter; stroke-linecap: square"/>
   </g>
   <g id="patch_5">
    <path d="M 30.698281 131.718516 
L 218.798281 131.718516 
" style="fill: none; stroke: #000000; stroke-width: 0.8; stroke-linejoin: miter; stroke-linecap: square"/>
   </g>
   <g id="text_14">
    <!-- drugs3003 rep2 -->
    <g transform="translate(86.875195 14.418516) scale(0.095 -0.095)">
     <defs>
      <path id="DejaVuSans-67" d="M 2906 1791 
Q 2906 2416 2648 2759 
Q 2391 3103 1925 3103 
Q 1463 3103 1205 2759 
Q 947 2416 947 1791 
Q 947 1169 1205 825 
Q 1463 481 1925 481 
Q 2391 481 2648 825 
Q 2906 1169 2906 1791 
z
M 3481 434 
Q 3481 -459 3084 -895 
Q 2688 -1331 1869 -1331 
Q 1566 -1331 1297 -1286 
Q 1028 -1241 775 -1147 
L 775 -588 
Q 1028 -725 1275 -790 
Q 1522 -856 1778 -856 
Q 2344 -856 2625 -561 
Q 2906 -266 2906 331 
L 2906 616 
Q 2728 306 2450 153 
Q 2172 0 1784 0 
Q 1141 0 747 490 
Q 353 981 353 1791 
Q 353 2603 747 3093 
Q 1141 3584 1784 3584 
Q 2172 3584 2450 3431 
Q 2728 3278 2906 2969 
L 2906 3500 
L 3481 3500 
L 3481 434 
z
" transform="scale(0.015625)"/>
      <path id="DejaVuSans-70" d="M 1159 525 
L 1159 -1331 
L 581 -1331 
L 581 3500 
L 1159 3500 
L 1159 2969 
Q 1341 3281 1617 3432 
Q 1894 3584 2278 3584 
Q 2916 3584 3314 3078 
Q 3713 2572 3713 1747 
Q 3713 922 3314 415 
Q 2916 -91 2278 -91 
Q 1894 -91 1617 61 
Q 1341 213 1159 525 
z
M 3116 1747 
Q 3116 2381 2855 2742 
Q 2594 3103 2138 3103 
Q 1681 3103 1420 2742 
Q 1159 2381 1159 1747 
Q 1159 1113 1420 752 
Q 1681 391 2138 391 
Q 2594 391 2855 752 
Q 3116 1113 3116 1747 
z
" transform="scale(0.015625)"/>
     </defs>
     <use xlink:href="#DejaVuSans-64"/>
     <use xlink:href="#DejaVuSans-72" transform="translate(63.476562 0)"/>
     <use xlink:href="#DejaVuSans-75" transform="translate(104.589844 0)"/>
     <use xlink:href="#DejaVuSans-67" transform="translate(167.96875 0)"/>
     <use xlink:href="#DejaVuSans-73" transform="translate(231.445312 0)"/>
     <use xlink:href="#DejaVuSans-33" transform="translate(283.544922 0)"/>
     <use xlink:href="#DejaVuSans-30" transform="translate(347.167969 0)"/>
     <use xlink:href="#DejaVuSans-30" transform="translate(410.791016 0)"/>
     <use xlink:href="#DejaVuSans-33" transform="translate(474.414062 0)"/>
     <use xlink:href="#DejaVuSans-20" transform="translate(538.037109 0)"/>
     <use xlink:href="#DejaVuSans-72" transform="translate(569.824219 0)"/>
     <use xlink:href="#DejaVuSans-65" transform="translate(608.6875 0)"/>
     <use xlink:href="#DejaVuSans-70" transform="translate(670.210938 0)"/>
     <use xlink:href="#DejaVuSans-32" transform="translate(733.6875 0)"/>
    </g>
   </g>
  </g>
 </g>
 <defs>
  <clipPath id="p2ad8ca65a7">
   <rect x="30.698281" y="20.418516" width="188.1" height="111.3"/>
  </clipPath>
 </defs>
</svg>
