<?xml version="1.0" encoding="utf-8" standalone="no"?>
<!DOCTYPE svg PUBLIC "-//W3C//DTD SVG 1.1//EN"
  "http://www.w3.org/Graphics/SVG/1.1/DTD/svg11.dtd">
<svg xmlns:xlink="http://www.w3.org/1999/xlink" width="221.21375pt" height="164.903516pt" viewBox="0 0 221.21375 164.903516" xmlns="http://www.w3.org/2000/svg" version="1.1">
 <metadata>
  <rdf:RDF xmlns:dc="http://purl.org/dc/elements/1.1/" xmlns:cc="http://creativecommons.org/ns#" xmlns:rdf="http://www.w3.org/1999/02/22-rdf-syntax-ns#">
   <cc:Work>
    <dc:type rdf:resource="http://purl.org/dc/dcmitype/StillImage"/>
    <dc:date>2026-05-24T13:54:02.200246</dc:date>
    <dc:format>image/svg+xml</dc:format>
    <dc:creator>
     <cc:Agent>
      <dc:title>Matplotlib v3.10.9, https://matplotlib.org/</dc:title>
     </cc:Agent>
    </dc:creator>
   </cc:Work>
  </rdf:RDF>
 </metadata>
 <defs>
  <style type="text/css">*{stroke-linejoin: round; stroke-linecap: butt}</style>
 </defs>
 <g id="figure_1">
  <g id="patch_1">
   <path d="M 0 164.903516 
L 221.21375 164.903516 
L 221.21375 0 
L 0 0 
z
" style="fill: #ffffff"/>
  </g>
  <g id="axes_1">
   <g id="patch_2">
    <path d="M 37.85375 131.718516 
L 214.01375 131.718516 
L 214.01375 20.418516 
L 37.85375 20.418516 
z
" style="fill: #ffffff"/>
   </g>
   <g id="patch_3">
    <path d="M 125.933744 131.718516 
L 206.006465 131.718516 
L 206.006465 20.418516 
L 125.933744 20.418516 
z
" clip-path="url(#p96c0ee43b2)" style="fill: #bdbdbd; opacity: 0.18"/>
   </g>
   <g id="matplotlib.axis_1">
    <g id="xtick_1">
     <g id="line2d_1">
      <defs>
       <path id="m1c42d6403f" d="M 0 0 
L 0 3 
" style="stroke: #000000; stroke-width: 0.7"/>
      </defs>
      <g>
       <use xlink:href="#m1c42d6403f" x="45.861023" y="131.718516" style="stroke: #000000; stroke-width: 0.7"/>
      </g>
     </g>
     <g id="text_1">
      <!-- 0 -->
      <g transform="translate(43.475085 143.917344) scale(0.075 -0.075)">
       <defs>
        <path id="DejaVuSans-30" d="M 2034 4250 
Q 1547 4250 1301 3770 
Q 1056 3291 1056 2328 
Q 1056 1369 1301 889 
Q 1547 409 2034 409 
Q 2525 409 2770 889 
Q 3016 1369 3016 2328 
Q 3016 3291 2770 3770 
Q 2525 4250 2034 4250 
z
M 2034 4750 
Q 2819 4750 3233 4129 
Q 3647 3509 3647 2328 
Q 3647 1150 3233 529 
Q 2819 -91 2034 -91 
Q 1250 -91 836 529 
Q 422 1150 422 2328 
Q 422 3509 836 4129 
Q 1250 4750 2034 4750 
z
" transform="scale(0.015625)"/>
       </defs>
       <use xlink:href="#DejaVuSans-30"/>
      </g>
     </g>
    </g>
    <g id="xtick_2">
     <g id="line2d_2">
      <g>
       <use xlink:href="#m1c42d6403f" x="77.890111" y="131.718516" style="stroke: #000000; stroke-width: 0.7"/>
      </g>
     </g>
     <g id="text_2">
      <!-- 20 -->
      <g transform="translate(73.118236 143.917344) scale(0.075 -0.075)">
       <defs>
        <path id="DejaVuSans-32" d="M 1228 531 
L 3431 531 
L 3431 0 
L 469 0 
L 469 531 
Q 828 903 1448 1529 
Q 2069 2156 2228 2338 
Q 2531 2678 2651 2914 
Q 2772 3150 2772 3378 
Q 2772 3750 2511 3984 
Q 2250 4219 1831 4219 
Q 1534 4219 1204 4116 
Q 875 4013 500 3803 
L 500 4441 
Q 881 4594 1212 4672 
Q 1544 4750 1819 4750 
Q 2544 4750 2975 4387 
Q 3406 4025 3406 3419 
Q 3406 3131 3298 2873 
Q 3191 2616 2906 2266 
Q 2828 2175 2409 1742 
Q 1991 1309 1228 531 
z
" transform="scale(0.015625)"/>
       </defs>
       <use xlink:href="#DejaVuSans-32"/>
       <use xlink:href="#DejaVuSans-30" transform="translate(63.623047 0)"/>
      </g>
     </g>
    </g>
    <g id="xtick_3">
     <g id="line2d_3">
      <g>
       <use xlink:href="#m1c42d6403f" x="109.9192" y="131.718516" style="stroke: #000000; stroke-width: 0.7"/>
      </g>
     </g>
     <g id="text_3">
      <!-- 40 -->
      <g transform="translate(105.147325 143.917344) scale(0.075 -0.075)">
       <defs>
        <path id="DejaVuSans-34" d="M 2419 4116 
L 825 1625 
L 2419 1625 
L 2419 4116 
z
M 2253 4666 
L 3047 4666 
L 3047 1625 
L 3713 1625 
L 3713 1100 
L 3047 1100 
L 3047 0 
L 2419 0 
L 2419 1100 
L 313 1100 
L 313 1709 
L 2253 4666 
z
" transform="scale(0.015625)"/>
       </defs>
       <use xlink:href="#DejaVuSans-34"/>
       <use xlink:href="#DejaVuSans-30" transform="translate(63.623047 0)"/>
      </g>
     </g>
    </g>
    <g id="xtick_4">
     <g id="line2d_4">
      <g>
       <use xlink:href="#m1c42d6403f" x="141.948288" y="131.718516" style="stroke: #000000; stroke-width: 0.7"/>
      </g>
     </g>
     <g id="text_4">
      <!-- 60 -->
      <g transform="translate(137.176413 143.917344) scale(0.075 -0.075)">
       <defs>
        <path id="DejaVuSans-36" d="M 2113 2584 
Q 1688 2584 1439 2293 
Q 1191 2003 1191 1497 
Q 1191 994 1439 701 
Q 1688 409 2113 409 
Q 2538 409 2786 701 
Q 3034 994 3034 1497 
Q 3034 2003 2786 2293 
Q 2538 2584 2113 2584 
z
M 3366 4563 
L 3366 3988 
Q 3128 4100 2886 4159 
Q 2644 4219 2406 4219 
Q 1781 4219 1451 3797 
Q 1122 3375 1075 2522 
Q 1259 2794 1537 2939 
Q 1816 3084 2150 3084 
Q 2853 3084 3261 2657 
Q 3669 2231 3669 1497 
Q 3669 778 3244 343 
Q 2819 -91 2113 -91 
Q 1303 -91 875 529 
Q 447 1150 447 2328 
Q 447 3434 972 4092 
Q 1497 4750 2381 4750 
Q 2619 4750 2861 4703 
Q 3103 4656 3366 4563 
z
" transform="scale(0.015625)"/>
       </defs>
       <use xlink:href="#DejaVuSans-36"/>
       <use xlink:href="#DejaVuSans-30" transform="translate(63.623047 0)"/>
      </g>
     </g>
    </g>
    <g id="xtick_5">
     <g id="line2d_5">
      <g>
       <use xlink:href="#m1c42d6403f" x="173.977377" y="131.718516" style="stroke: #000000; stroke-width: 0.7"/>
      </g>
     </g>
     <g id="text_5">
      <!-- 80 -->
      <g transform="translate(169.205502 143.917344) scale(0.075 -0.075)">
       <defs>
        <path id="DejaVuSans-38" d="M 2034 2216 
Q 1584 2216 1326 1975 
Q 1069 1734 1069 1313 
Q 1069 891 1326 650 
Q 1584 409 2034 409 
Q 2484 409 2743 651 
Q 3003 894 3003 1313 
Q 3003 1734 2745 1975 
Q 2488 2216 2034 2216 
z
M 1403 2484 
Q 997 2584 770 2862 
Q 544 3141 544 3541 
Q 544 4100 942 4425 
Q 1341 4750 2034 4750 
Q 2731 4750 3128 4425 
Q 3525 4100 3525 3541 
Q 3525 3141 3298 2862 
Q 3072 2584 2669 2484 
Q 3125 2378 3379 2068 
Q 3634 1759 3634 1313 
Q 3634 634 3220 271 
Q 2806 -91 2034 -91 
Q 1263 -91 848 271 
Q 434 634 434 1313 
Q 434 1759 690 2068 
Q 947 2378 1403 2484 
z
M 1172 3481 
Q 1172 3119 1398 2916 
Q 1625 2713 2034 2713 
Q 2441 2713 2670 2916 
Q 2900 3119 2900 3481 
Q 2900 3844 2670 4047 
Q 2441 4250 2034 4250 
Q 1625 4250 1398 4047 
Q 1172 3844 1172 3481 
z
" transform="scale(0.015625)"/>
       </defs>
       <use xlink:href="#DejaVuSans-38"/>
       <use xlink:href="#DejaVuSans-30" transform="translate(63.623047 0)"/>
      </g>
     </g>
    </g>
    <g id="xtick_6">
     <g id="line2d_6">
      <g>
       <use xlink:href="#m1c42d6403f" x="206.006465" y="131.718516" style="stroke: #000000; stroke-width: 0.7"/>
      </g>
     </g>
     <g id="text_6">
      <!-- 100 -->
      <g transform="translate(198.848653 143.917344) scale(0.075 -0.075)">
       <defs>
        <path id="DejaVuSans-31" d="M 794 531 
L 1825 531 
L 1825 4091 
L 703 3866 
L 703 4441 
L 1819 4666 
L 2450 4666 
L 2450 531 
L 3481 531 
L 3481 0 
L 794 0 
L 794 531 
z
" transform="scale(0.015625)"/>
       </defs>
       <use xlink:href="#DejaVuSans-31"/>
       <use xlink:href="#DejaVuSans-30" transform="translate(63.623047 0)"/>
       <use xlink:href="#DejaVuSans-30" transform="translate(127.246094 0)"/>
      </g>
     </g>
    </g>
    <g id="text_7">
     <!-- Time (ns) -->
     <g transform="translate(105.960742 155.935781) scale(0.085 -0.085)">
      <defs>
       <path id="DejaVuSans-54" d="M -19 4666 
L 3928 4666 
L 3928 4134 
L 2272 4134 
L 2272 0 
L 1638 0 
L 1638 4134 
L -19 4134 
L -19 4666 
z
" transform="scale(0.015625)"/>
       <path id="DejaVuSans-69" d="M 603 3500 
L 1178 3500 
L 1178 0 
L 603 0 
L 603 3500 
z
M 603 4863 
L 1178 4863 
L 1178 4134 
L 603 4134 
L 603 4863 
z
" transform="scale(0.015625)"/>
       <path id="DejaVuSans-6d" d="M 3328 2828 
Q 3544 3216 3844 3400 
Q 4144 3584 4550 3584 
Q 5097 3584 5394 3201 
Q 5691 2819 5691 2113 
L 5691 0 
L 5113 0 
L 5113 2094 
Q 5113 2597 4934 2840 
Q 4756 3084 4391 3084 
Q 3944 3084 3684 2787 
Q 3425 2491 3425 1978 
L 3425 0 
L 2847 0 
L 2847 2094 
Q 2847 2600 2669 2842 
Q 2491 3084 2119 3084 
Q 1678 3084 1418 2786 
Q 1159 2488 1159 1978 
L 1159 0 
L 581 0 
L 581 3500 
L 1159 3500 
L 1159 2956 
Q 1356 3278 1631 3431 
Q 1906 3584 2284 3584 
Q 2666 3584 2933 3390 
Q 3200 3197 3328 2828 
z
" transform="scale(0.015625)"/>
       <path id="DejaVuSans-65" d="M 3597 1894 
L 3597 1613 
L 953 1613 
Q 991 1019 1311 708 
Q 1631 397 2203 397 
Q 2534 397 2845 478 
Q 3156 559 3463 722 
L 3463 178 
Q 3153 47 2828 -22 
Q 2503 -91 2169 -91 
Q 1331 -91 842 396 
Q 353 884 353 1716 
Q 353 2575 817 3079 
Q 1281 3584 2069 3584 
Q 2775 3584 3186 3129 
Q 3597 2675 3597 1894 
z
M 3022 2063 
Q 3016 2534 2758 2815 
Q 2500 3097 2075 3097 
Q 1594 3097 1305 2825 
Q 1016 2553 972 2059 
L 3022 2063 
z
" transform="scale(0.015625)"/>
       <path id="DejaVuSans-20" transform="scale(0.015625)"/>
       <path id="DejaVuSans-28" d="M 1984 4856 
Q 1566 4138 1362 3434 
Q 1159 2731 1159 2009 
Q 1159 1288 1364 580 
Q 1569 -128 1984 -844 
L 1484 -844 
Q 1016 -109 783 600 
Q 550 1309 550 2009 
Q 550 2706 781 3412 
Q 1013 4119 1484 4856 
L 1984 4856 
z
" transform="scale(0.015625)"/>
       <path id="DejaVuSans-6e" d="M 3513 2113 
L 3513 0 
L 2938 0 
L 2938 2094 
Q 2938 2591 2744 2837 
Q 2550 3084 2163 3084 
Q 1697 3084 1428 2787 
Q 1159 2491 1159 1978 
L 1159 0 
L 581 0 
L 581 3500 
L 1159 3500 
L 1159 2956 
Q 1366 3272 1645 3428 
Q 1925 3584 2291 3584 
Q 2894 3584 3203 3211 
Q 3513 2838 3513 2113 
z
" transform="scale(0.015625)"/>
       <path id="DejaVuSans-73" d="M 2834 3397 
L 2834 2853 
Q 2591 2978 2328 3040 
Q 2066 3103 1784 3103 
Q 1356 3103 1142 2972 
Q 928 2841 928 2578 
Q 928 2378 1081 2264 
Q 1234 2150 1697 2047 
L 1894 2003 
Q 2506 1872 2764 1633 
Q 3022 1394 3022 966 
Q 3022 478 2636 193 
Q 2250 -91 1575 -91 
Q 1294 -91 989 -36 
Q 684 19 347 128 
L 347 722 
Q 666 556 975 473 
Q 1284 391 1588 391 
Q 1994 391 2212 530 
Q 2431 669 2431 922 
Q 2431 1156 2273 1281 
Q 2116 1406 1581 1522 
L 1381 1569 
Q 847 1681 609 1914 
Q 372 2147 372 2553 
Q 372 3047 722 3315 
Q 1072 3584 1716 3584 
Q 2034 3584 2315 3537 
Q 2597 3491 2834 3397 
z
" transform="scale(0.015625)"/>
       <path id="DejaVuSans-29" d="M 513 4856 
L 1013 4856 
Q 1481 4119 1714 3412 
Q 1947 2706 1947 2009 
Q 1947 1309 1714 600 
Q 1481 -109 1013 -844 
L 513 -844 
Q 928 -128 1133 580 
Q 1338 1288 1338 2009 
Q 1338 2731 1133 3434 
Q 928 4138 513 4856 
z
" transform="scale(0.015625)"/>
      </defs>
      <use xlink:href="#DejaVuSans-54"/>
      <use xlink:href="#DejaVuSans-69" transform="translate(57.958984 0)"/>
      <use xlink:href="#DejaVuSans-6d" transform="translate(85.742188 0)"/>
      <use xlink:href="#DejaVuSans-65" transform="translate(183.154297 0)"/>
      <use xlink:href="#DejaVuSans-20" transform="translate(244.677734 0)"/>
      <use xlink:href="#DejaVuSans-28" transform="translate(276.464844 0)"/>
      <use xlink:href="#DejaVuSans-6e" transform="translate(315.478516 0)"/>
      <use xlink:href="#DejaVuSans-73" transform="translate(378.857422 0)"/>
      <use xlink:href="#DejaVuSans-29" transform="translate(430.957031 0)"/>
     </g>
    </g>
   </g>
   <g id="matplotlib.axis_2">
    <g id="ytick_1">
     <g id="line2d_7">
      <defs>
       <path id="maac6270e28" d="M 0 0 
L -3 0 
" style="stroke: #000000; stroke-width: 0.7"/>
      </defs>
      <g>
       <use xlink:href="#maac6270e28" x="37.85375" y="126.689356" style="stroke: #000000; stroke-width: 0.7"/>
      </g>
     </g>
     <g id="text_8">
      <!-- 0.0 -->
      <g transform="translate(19.426406 129.53877) scale(0.075 -0.075)">
       <defs>
        <path id="DejaVuSans-2e" d="M 684 794 
L 1344 794 
L 1344 0 
L 684 0 
L 684 794 
z
" transform="scale(0.015625)"/>
       </defs>
       <use xlink:href="#DejaVuSans-30"/>
       <use xlink:href="#DejaVuSans-2e" transform="translate(63.623047 0)"/>
       <use xlink:href="#DejaVuSans-30" transform="translate(95.410156 0)"/>
      </g>
     </g>
    </g>
    <g id="ytick_2">
     <g id="line2d_8">
      <g>
       <use xlink:href="#maac6270e28" x="37.85375" y="95.163268" style="stroke: #000000; stroke-width: 0.7"/>
      </g>
     </g>
     <g id="text_9">
      <!-- 0.5 -->
      <g transform="translate(19.426406 98.012682) scale(0.075 -0.075)">
       <defs>
        <path id="DejaVuSans-35" d="M 691 4666 
L 3169 4666 
L 3169 4134 
L 1269 4134 
L 1269 2991 
Q 1406 3038 1543 3061 
Q 1681 3084 1819 3084 
Q 2600 3084 3056 2656 
Q 3513 2228 3513 1497 
Q 3513 744 3044 326 
Q 2575 -91 1722 -91 
Q 1428 -91 1123 -41 
Q 819 9 494 109 
L 494 744 
Q 775 591 1075 516 
Q 1375 441 1709 441 
Q 2250 441 2565 725 
Q 2881 1009 2881 1497 
Q 2881 1984 2565 2268 
Q 2250 2553 1709 2553 
Q 1456 2553 1204 2497 
Q 953 2441 691 2322 
L 691 4666 
z
" transform="scale(0.015625)"/>
       </defs>
       <use xlink:href="#DejaVuSans-30"/>
       <use xlink:href="#DejaVuSans-2e" transform="translate(63.623047 0)"/>
       <use xlink:href="#DejaVuSans-35" transform="translate(95.410156 0)"/>
      </g>
     </g>
    </g>
    <g id="ytick_3">
     <g id="line2d_9">
      <g>
       <use xlink:href="#maac6270e28" x="37.85375" y="63.63718" style="stroke: #000000; stroke-width: 0.7"/>
      </g>
     </g>
     <g id="text_10">
      <!-- 1.0 -->
      <g transform="translate(19.426406 66.486594) scale(0.075 -0.075)">
       <use xlink:href="#DejaVuSans-31"/>
       <use xlink:href="#DejaVuSans-2e" transform="translate(63.623047 0)"/>
       <use xlink:href="#DejaVuSans-30" transform="translate(95.410156 0)"/>
      </g>
     </g>
    </g>
    <g id="ytick_4">
     <g id="line2d_10">
      <g>
       <use xlink:href="#maac6270e28" x="37.85375" y="32.111093" style="stroke: #000000; stroke-width: 0.7"/>
      </g>
     </g>
     <g id="text_11">
      <!-- 1.5 -->
      <g transform="translate(19.426406 34.960507) scale(0.075 -0.075)">
       <use xlink:href="#DejaVuSans-31"/>
       <use xlink:href="#DejaVuSans-2e" transform="translate(63.623047 0)"/>
       <use xlink:href="#DejaVuSans-35" transform="translate(95.410156 0)"/>
      </g>
     </g>
    </g>
    <g id="text_12">
     <!-- Ligand RMSD (nm) -->
     <g transform="translate(13.658672 115.752891) rotate(-90) scale(0.085 -0.085)">
      <defs>
       <path id="DejaVuSans-4c" d="M 628 4666 
L 1259 4666 
L 1259 531 
L 3531 531 
L 3531 0 
L 628 0 
L 628 4666 
z
" transform="scale(0.015625)"/>
       <path id="DejaVuSans-67" d="M 2906 1791 
Q 2906 2416 2648 2759 
Q 2391 3103 1925 3103 
Q 1463 3103 1205 2759 
Q 947 2416 947 1791 
Q 947 1169 1205 825 
Q 1463 481 1925 481 
Q 2391 481 2648 825 
Q 2906 1169 2906 1791 
z
M 3481 434 
Q 3481 -459 3084 -895 
Q 2688 -1331 1869 -1331 
Q 1566 -1331 1297 -1286 
Q 1028 -1241 775 -1147 
L 775 -588 
Q 1028 -725 1275 -790 
Q 1522 -856 1778 -856 
Q 2344 -856 2625 -561 
Q 2906 -266 2906 331 
L 2906 616 
Q 2728 306 2450 153 
Q 2172 0 1784 0 
Q 1141 0 747 490 
Q 353 981 353 1791 
Q 353 2603 747 3093 
Q 1141 3584 1784 3584 
Q 2172 3584 2450 3431 
Q 2728 3278 2906 2969 
L 2906 3500 
L 3481 3500 
L 3481 434 
z
" transform="scale(0.015625)"/>
       <path id="DejaVuSans-61" d="M 2194 1759 
Q 1497 1759 1228 1600 
Q 959 1441 959 1056 
Q 959 750 1161 570 
Q 1363 391 1709 391 
Q 2188 391 2477 730 
Q 2766 1069 2766 1631 
L 2766 1759 
L 2194 1759 
z
M 3341 1997 
L 3341 0 
L 2766 0 
L 2766 531 
Q 2569 213 2275 61 
Q 1981 -91 1556 -91 
Q 1019 -91 701 211 
Q 384 513 384 1019 
Q 384 1609 779 1909 
Q 1175 2209 1959 2209 
L 2766 2209 
L 2766 2266 
Q 2766 2663 2505 2880 
Q 2244 3097 1772 3097 
Q 1472 3097 1187 3025 
Q 903 2953 641 2809 
L 641 3341 
Q 956 3463 1253 3523 
Q 1550 3584 1831 3584 
Q 2591 3584 2966 3190 
Q 3341 2797 3341 1997 
z
" transform="scale(0.015625)"/>
       <path id="DejaVuSans-64" d="M 2906 2969 
L 2906 4863 
L 3481 4863 
L 3481 0 
L 2906 0 
L 2906 525 
Q 2725 213 2448 61 
Q 2172 -91 1784 -91 
Q 1150 -91 751 415 
Q 353 922 353 1747 
Q 353 2572 751 3078 
Q 1150 3584 1784 3584 
Q 2172 3584 2448 3432 
Q 2725 3281 2906 2969 
z
M 947 1747 
Q 947 1113 1208 752 
Q 1469 391 1925 391 
Q 2381 391 2643 752 
Q 2906 1113 2906 1747 
Q 2906 2381 2643 2742 
Q 2381 3103 1925 3103 
Q 1469 3103 1208 2742 
Q 947 2381 947 1747 
z
" transform="scale(0.015625)"/>
       <path id="DejaVuSans-52" d="M 2841 2188 
Q 3044 2119 3236 1894 
Q 3428 1669 3622 1275 
L 4263 0 
L 3584 0 
L 2988 1197 
Q 2756 1666 2539 1819 
Q 2322 1972 1947 1972 
L 1259 1972 
L 1259 0 
L 628 0 
L 628 4666 
L 2053 4666 
Q 2853 4666 3247 4331 
Q 3641 3997 3641 3322 
Q 3641 2881 3436 2590 
Q 3231 2300 2841 2188 
z
M 1259 4147 
L 1259 2491 
L 2053 2491 
Q 2509 2491 2742 2702 
Q 2975 2913 2975 3322 
Q 2975 3731 2742 3939 
Q 2509 4147 2053 4147 
L 1259 4147 
z
" transform="scale(0.015625)"/>
       <path id="DejaVuSans-4d" d="M 628 4666 
L 1569 4666 
L 2759 1491 
L 3956 4666 
L 4897 4666 
L 4897 0 
L 4281 0 
L 4281 4097 
L 3078 897 
L 2444 897 
L 1241 4097 
L 1241 0 
L 628 0 
L 628 4666 
z
" transform="scale(0.015625)"/>
       <path id="DejaVuSans-53" d="M 3425 4513 
L 3425 3897 
Q 3066 4069 2747 4153 
Q 2428 4238 2131 4238 
Q 1616 4238 1336 4038 
Q 1056 3838 1056 3469 
Q 1056 3159 1242 3001 
Q 1428 2844 1947 2747 
L 2328 2669 
Q 3034 2534 3370 2195 
Q 3706 1856 3706 1288 
Q 3706 609 3251 259 
Q 2797 -91 1919 -91 
Q 1588 -91 1214 -16 
Q 841 59 441 206 
L 441 856 
Q 825 641 1194 531 
Q 1563 422 1919 422 
Q 2459 422 2753 634 
Q 3047 847 3047 1241 
Q 3047 1584 2836 1778 
Q 2625 1972 2144 2069 
L 1759 2144 
Q 1053 2284 737 2584 
Q 422 2884 422 3419 
Q 422 4038 858 4394 
Q 1294 4750 2059 4750 
Q 2388 4750 2728 4690 
Q 3069 4631 3425 4513 
z
" transform="scale(0.015625)"/>
       <path id="DejaVuSans-44" d="M 1259 4147 
L 1259 519 
L 2022 519 
Q 2988 519 3436 956 
Q 3884 1394 3884 2338 
Q 3884 3275 3436 3711 
Q 2988 4147 2022 4147 
L 1259 4147 
z
M 628 4666 
L 1925 4666 
Q 3281 4666 3915 4102 
Q 4550 3538 4550 2338 
Q 4550 1131 3912 565 
Q 3275 0 1925 0 
L 628 0 
L 628 4666 
z
" transform="scale(0.015625)"/>
      </defs>
      <use xlink:href="#DejaVuSans-4c"/>
      <use xlink:href="#DejaVuSans-69" transform="translate(55.712891 0)"/>
      <use xlink:href="#DejaVuSans-67" transform="translate(83.496094 0)"/>
      <use xlink:href="#DejaVuSans-61" transform="translate(146.972656 0)"/>
      <use xlink:href="#DejaVuSans-6e" transform="translate(208.251953 0)"/>
      <use xlink:href="#DejaVuSans-64" transform="translate(271.630859 0)"/>
      <use xlink:href="#DejaVuSans-20" transform="translate(335.107422 0)"/>
      <use xlink:href="#DejaVuSans-52" transform="translate(366.894531 0)"/>
      <use xlink:href="#DejaVuSans-4d" transform="translate(436.376953 0)"/>
      <use xlink:href="#DejaVuSans-53" transform="translate(522.65625 0)"/>
      <use xlink:href="#DejaVuSans-44" transform="translate(586.132812 0)"/>
      <use xlink:href="#DejaVuSans-20" transform="translate(663.134766 0)"/>
      <use xlink:href="#DejaVuSans-28" transform="translate(694.921875 0)"/>
      <use xlink:href="#DejaVuSans-6e" transform="translate(733.935547 0)"/>
      <use xlink:href="#DejaVuSans-6d" transform="translate(797.314453 0)"/>
      <use xlink:href="#DejaVuSans-29" transform="translate(894.726562 0)"/>
     </g>
    </g>
   </g>
   <g id="line2d_11">
    <path d="M 45.861023 126.659425 
L 45.973125 121.838355 
L 45.989139 122.741898 
L 46.069212 121.837056 
L 46.117255 123.6427 
L 46.13327 123.44418 
L 46.277401 118.935968 
L 46.341459 120.493244 
L 46.373488 118.443203 
L 46.389503 119.628439 
L 46.405517 119.278487 
L 46.421532 120.837553 
L 46.437546 121.018222 
L 46.453561 120.118569 
L 46.517619 118.87912 
L 46.549648 120.568105 
L 46.565663 119.888144 
L 46.581677 121.486656 
L 46.629721 118.463197 
L 46.677765 120.727861 
L 46.773852 118.332143 
L 46.821895 119.014903 
L 46.853924 118.205931 
L 46.917983 120.610779 
L 46.998055 116.9634 
L 47.030084 120.084968 
L 47.046099 121.494588 
L 47.094143 118.939159 
L 47.126172 120.363552 
L 47.142186 119.633893 
L 47.19023 122.02782 
L 47.222259 120.012294 
L 47.302332 122.812309 
L 47.36639 122.29344 
L 47.430448 120.47028 
L 47.478492 121.938002 
L 47.494506 122.831029 
L 47.54255 120.502878 
L 47.558565 121.00536 
L 47.590594 123.022008 
L 47.654652 119.696277 
L 47.670666 122.369449 
L 47.766754 120.599606 
L 47.830812 118.852721 
L 47.798783 121.31086 
L 47.862841 120.66274 
L 47.910885 121.274422 
L 47.926899 120.232699 
L 47.942914 120.758473 
L 48.039001 119.56719 
L 48.119074 121.978488 
L 48.135088 119.275208 
L 48.199146 120.228847 
L 48.263205 117.190129 
L 48.295234 120.383949 
L 48.359292 118.660399 
L 48.375306 117.109032 
L 48.42335 119.916102 
L 48.455379 118.152949 
L 48.487408 119.483602 
L 48.503423 117.181018 
L 48.567481 118.516589 
L 48.583495 116.859736 
L 48.647554 119.458192 
L 48.679583 118.234677 
L 48.695597 119.93841 
L 48.77567 117.771577 
L 48.823714 119.333033 
L 48.807699 116.508119 
L 48.855743 117.494949 
L 48.871757 116.562451 
L 48.903786 118.647612 
L 48.967844 117.384979 
L 49.031903 120.675439 
L 49.079946 119.423481 
L 49.144005 119.622865 
L 49.208063 117.919674 
L 49.224077 118.613343 
L 49.240092 117.20349 
L 49.288135 118.373007 
L 49.400237 114.039355 
L 49.432266 114.798718 
L 49.464295 115.310992 
L 49.560383 112.643109 
L 49.576397 113.692524 
L 49.592412 113.99619 
L 49.608426 113.233397 
L 49.624441 111.547773 
L 49.65647 117.593115 
L 49.688499 115.241495 
L 49.720528 113.523885 
L 49.736543 116.188527 
L 49.768572 115.765509 
L 49.816615 117.943004 
L 49.848644 115.890504 
L 49.864659 114.696744 
L 49.928717 117.603714 
L 49.944732 118.088452 
L 49.976761 116.675649 
L 49.992775 116.940953 
L 50.00879 115.637425 
L 50.040819 118.405119 
L 50.072848 117.70601 
L 50.104877 119.021026 
L 50.168935 117.283755 
L 50.18495 117.933962 
L 50.232993 118.154235 
L 50.313066 116.519916 
L 50.393139 116.347273 
L 50.457197 118.203598 
L 50.473212 118.383398 
L 50.53727 116.875713 
L 50.569299 118.854839 
L 50.585313 118.256934 
L 50.601328 118.209532 
L 50.617342 118.663085 
L 50.729444 113.261052 
L 50.841546 121.202398 
L 50.905604 120.71561 
L 50.937633 119.877205 
L 50.953648 120.743138 
L 50.969662 120.330033 
L 50.985677 121.568914 
L 51.033721 118.964468 
L 51.06575 119.782141 
L 51.225895 115.182012 
L 51.24191 118.445082 
L 51.321982 114.515683 
L 51.337997 116.074553 
L 51.354012 116.954812 
L 51.38604 114.001726 
L 51.41807 114.775868 
L 51.450099 114.94324 
L 51.482128 113.593267 
L 51.530172 115.38714 
L 51.610244 116.363376 
L 51.562201 113.343587 
L 51.626259 116.13294 
L 51.658288 112.656312 
L 51.738361 115.341414 
L 51.834448 117.089076 
L 51.818434 115.274655 
L 51.850463 116.297367 
L 51.898506 115.203103 
L 51.914521 118.112084 
L 51.978579 113.01634 
L 51.994593 114.127988 
L 52.090681 116.3775 
L 52.12271 115.240379 
L 52.154739 113.318801 
L 52.186768 116.067107 
L 52.202783 115.065794 
L 52.26684 116.911357 
L 52.282855 114.528766 
L 52.378943 112.504419 
L 52.346913 114.899009 
L 52.410972 113.913516 
L 52.443001 118.749069 
L 52.523074 115.939313 
L 52.635175 110.078701 
L 52.587132 118.700847 
L 52.65119 110.498106 
L 52.811335 118.913585 
L 52.891408 115.852843 
L 52.923437 118.669743 
L 52.939451 117.389904 
L 52.971481 119.514939 
L 53.035539 117.685574 
L 53.099597 119.845736 
L 53.147641 118.441311 
L 53.17967 112.743583 
L 53.259743 113.028238 
L 53.371844 119.584914 
L 53.387859 118.503418 
L 53.467931 120.206892 
L 53.499961 119.283455 
L 53.67612 113.368392 
L 53.692135 114.950516 
L 53.740179 110.878266 
L 53.868295 105.236389 
L 53.996412 113.255743 
L 54.012426 111.230948 
L 54.044455 108.226254 
L 54.06047 113.08996 
L 54.220615 109.131834 
L 54.252644 102.217816 
L 54.316702 104.950586 
L 54.41279 114.668326 
L 54.444819 112.917241 
L 54.556921 102.981694 
L 54.572935 103.020546 
L 54.76511 119.593035 
L 54.653008 102.299412 
L 54.845182 118.303624 
L 54.861197 117.077783 
L 54.893226 119.34123 
L 54.941269 117.403239 
L 54.957284 119.48775 
L 55.053371 117.720095 
L 55.101416 117.375704 
L 55.213517 120.5133 
L 55.357648 117.768488 
L 55.485764 120.765257 
L 55.453735 117.416518 
L 55.517793 120.288047 
L 55.549822 119.140863 
L 55.581851 121.60962 
L 55.597866 120.827149 
L 55.629895 122.322721 
L 55.661924 121.320759 
L 55.677939 118.789258 
L 55.758012 121.540187 
L 55.950186 118.342855 
L 56.014244 120.317227 
L 55.99823 117.763639 
L 56.062288 119.380631 
L 56.094317 116.313382 
L 56.14236 121.346497 
L 56.158375 119.49241 
L 56.222433 118.689491 
L 56.270477 122.072474 
L 56.398593 118.950325 
L 56.510695 121.43518 
L 56.558739 121.054004 
L 56.606783 121.276024 
L 56.654826 119.888447 
L 56.670841 118.541722 
L 56.686855 120.959546 
L 56.766928 119.50915 
L 56.814971 121.203734 
L 56.863015 119.191689 
L 56.911058 120.788157 
L 57.087219 116.657736 
L 57.103234 117.814024 
L 57.151277 119.858932 
L 57.199321 119.088737 
L 57.215335 117.82963 
L 57.279393 120.051922 
L 57.311423 118.645651 
L 57.40751 120.316817 
L 57.439539 120.046159 
L 57.535626 117.919832 
L 57.647727 120.748233 
L 57.663742 118.744838 
L 57.75983 119.897173 
L 57.791859 119.057293 
L 57.807874 119.940453 
L 57.839903 119.732141 
L 57.855917 120.168771 
L 57.903961 119.272787 
L 57.919975 119.911303 
L 57.952004 117.850903 
L 57.984033 120.37741 
L 58.032077 119.636957 
L 58.080121 121.016822 
L 58.176208 118.255289 
L 58.192222 118.811957 
L 58.288309 119.762355 
L 58.240266 117.818993 
L 58.320338 119.450461 
L 58.46447 117.526487 
L 58.480485 117.477981 
L 58.544543 116.951508 
L 58.528528 118.844076 
L 58.592586 117.037789 
L 58.64063 119.757923 
L 58.704688 117.571507 
L 58.752731 116.34354 
L 58.736716 118.026964 
L 58.832804 116.844338 
L 58.848819 116.865284 
L 58.864834 116.584368 
L 58.880847 117.686835 
L 58.896862 116.934623 
L 58.928892 119.245346 
L 59.024979 118.535177 
L 59.073022 117.805178 
L 59.089037 118.967381 
L 59.121066 118.073427 
L 59.201138 119.87177 
L 59.16911 117.291278 
L 59.233168 119.483955 
L 59.281211 116.982051 
L 59.345269 119.170308 
L 59.393314 120.059104 
L 59.409327 119.916543 
L 59.4894 118.698583 
L 59.441357 120.73293 
L 59.52143 119.496168 
L 59.569473 120.806045 
L 59.633531 119.917987 
L 59.729619 121.621278 
L 59.665561 119.846997 
L 59.761648 120.809873 
L 59.809691 120.423363 
L 59.825706 121.262884 
L 59.873749 121.871627 
L 59.889764 121.673189 
L 59.921794 117.684439 
L 60.001867 119.920793 
L 60.033895 120.679279 
L 60.210054 110.840611 
L 60.338171 116.503466 
L 60.418244 111.093785 
L 60.450273 112.529798 
L 60.498317 109.201658 
L 60.54636 115.534619 
L 60.642448 105.824338 
L 60.690491 107.39887 
L 60.706506 109.63506 
L 60.754549 104.89172 
L 60.770564 106.88835 
L 60.962738 95.401939 
L 61.090855 104.400002 
L 61.138899 112.564237 
L 61.186943 102.435189 
L 61.202958 106.506436 
L 61.218971 106.876307 
L 61.251001 105.847459 
L 61.267016 105.411504 
L 61.283029 108.953277 
L 61.299044 102.676943 
L 61.363102 105.252202 
L 61.395132 97.323435 
L 61.45919 105.653151 
L 61.475203 104.896348 
L 61.571291 108.376129 
L 61.539263 103.534176 
L 61.587306 107.681571 
L 61.635349 103.07967 
L 61.699407 107.40899 
L 61.811509 110.983866 
L 61.731437 107.037373 
L 61.827524 109.403444 
L 61.843539 107.735292 
L 61.891582 111.333364 
L 61.923612 110.687596 
L 61.95564 109.555267 
L 61.971655 110.527015 
L 62.051728 114.354982 
L 62.003685 109.990151 
L 62.099771 112.4258 
L 62.179844 107.680613 
L 62.211872 110.113714 
L 62.227887 111.74565 
L 62.243902 106.919472 
L 62.291945 108.955925 
L 62.323975 106.136219 
L 62.356004 109.910163 
L 62.452092 117.259632 
L 62.48412 114.21708 
L 62.660281 100.289151 
L 62.708324 103.861807 
L 62.724339 100.273552 
L 62.740354 102.198327 
L 62.820425 88.491408 
L 62.86847 90.149119 
L 62.916513 101.32566 
L 62.996586 97.851151 
L 63.028615 98.90846 
L 63.172746 77.575797 
L 63.188761 81.671231 
L 63.284847 75.317873 
L 63.236804 83.731455 
L 63.332892 78.953808 
L 63.348905 82.102476 
L 63.39695 75.8583 
L 63.428978 76.02023 
L 63.541081 86.864183 
L 63.573109 80.57051 
L 63.589124 77.957672 
L 63.621153 88.555141 
L 63.669197 82.180838 
L 63.685211 80.5158 
L 63.733255 86.370402 
L 63.749269 87.04252 
L 63.877387 75.498877 
L 63.8934 76.97426 
L 63.989488 83.151324 
L 63.941445 74.535068 
L 64.021516 81.976385 
L 64.085574 82.158864 
L 64.101589 77.21285 
L 64.229705 61.605696 
L 64.325793 66.898831 
L 64.293763 61.055673 
L 64.405866 64.246794 
L 64.646084 44.189897 
L 64.678114 48.838633 
L 64.742172 44.337067 
L 64.822243 46.596706 
L 64.838258 37.484166 
L 64.902316 61.186727 
L 64.950361 40.684713 
L 64.982389 39.713678 
L 65.094491 51.61576 
L 65.110506 50.515386 
L 65.126521 55.325718 
L 65.238622 72.40393 
L 65.270652 67.898417 
L 65.30268 66.553558 
L 65.350725 59.440055 
L 65.414783 61.621074 
L 65.494854 66.201638 
L 65.462826 61.345499 
L 65.558912 64.296145 
L 65.590942 61.168637 
L 65.638986 65.459281 
L 65.719059 72.041878 
L 65.767102 66.299407 
L 65.783117 65.347458 
L 65.815146 69.48607 
L 65.86319 66.749631 
L 65.911233 71.625008 
L 65.927248 67.481377 
L 65.959276 71.873339 
L 66.023334 70.922809 
L 66.087394 63.02652 
L 66.135437 69.478264 
L 66.21551 72.848037 
L 66.247538 70.814214 
L 66.327611 68.396655 
L 66.343626 71.043491 
L 66.407684 63.378647 
L 66.471742 68.080738 
L 66.519786 64.868892 
L 66.647902 52.158336 
L 66.663917 56.253682 
L 66.695945 52.505079 
L 66.727975 58.140493 
L 66.792033 52.883859 
L 66.808048 52.693813 
L 66.920149 67.443224 
L 66.936164 66.397006 
L 67.24044 88.70665 
L 67.320513 87.473135 
L 67.400586 82.199993 
L 67.432614 87.232345 
L 67.464644 89.205354 
L 67.512687 87.373827 
L 67.720877 68.56798 
L 67.913051 91.690531 
L 67.929066 91.16001 
L 67.945081 94.839142 
L 67.993124 86.399287 
L 68.025154 88.284358 
L 68.249356 99.641114 
L 68.2974 97.712556 
L 68.345444 99.023183 
L 68.361458 100.552463 
L 68.393487 97.842033 
L 68.457546 99.462115 
L 68.537619 94.646146 
L 68.489575 100.21009 
L 68.553634 97.812443 
L 68.601677 103.306286 
L 68.633705 96.927487 
L 68.68175 102.321682 
L 68.745808 97.711364 
L 68.761823 103.041606 
L 68.777836 102.203649 
L 68.809866 102.334671 
L 68.873924 105.244598 
L 68.841894 101.975898 
L 68.905952 103.954746 
L 69.050084 97.049291 
L 68.937982 104.667803 
L 69.066098 98.321104 
L 69.242258 80.994959 
L 69.434432 61.425859 
L 69.49849 63.945745 
L 69.514505 63.505635 
L 69.642622 47.200664 
L 69.658636 50.571168 
L 69.690666 50.604397 
L 69.70668 48.651942 
L 69.754724 41.244402 
L 69.786753 49.791446 
L 69.802768 56.54533 
L 69.866826 46.015188 
L 69.914869 40.008516 
L 69.930884 48.79082 
L 69.978927 43.164404 
L 69.994942 46.363558 
L 70.075015 42.451706 
L 70.09103 42.311579 
L 70.107043 37.898072 
L 70.155088 41.646215 
L 70.251174 62.687816 
L 70.283204 60.821157 
L 70.379291 69.498246 
L 70.395305 55.602328 
L 70.459364 73.334517 
L 70.475379 71.295642 
L 70.603495 66.004789 
L 70.61951 68.374801 
L 70.651538 70.149278 
L 70.667553 66.666478 
L 70.731611 69.439967 
L 70.843712 39.163901 
L 70.971829 41.543484 
L 71.099946 57.884476 
L 71.11596 58.458169 
L 71.131975 56.199218 
L 71.14799 52.25765 
L 71.196033 57.724034 
L 71.228063 56.744361 
L 71.500308 38.98912 
L 71.516323 33.017619 
L 71.580383 43.826943 
L 71.61241 36.837011 
L 71.628425 37.471499 
L 71.64444 37.094213 
L 71.740526 46.25287 
L 71.724514 32.849036 
L 71.772556 44.855085 
L 71.804586 40.984766 
L 71.85263 49.114852 
L 71.884657 45.107911 
L 71.900672 46.561447 
L 72.060818 70.620108 
L 72.156905 56.228739 
L 72.204949 61.045988 
L 72.413137 73.911154 
L 72.541253 61.692506 
L 72.557268 63.287821 
L 72.829516 41.626681 
L 72.84553 48.035834 
L 72.925605 43.698601 
L 72.94162 41.282612 
L 72.989661 46.348431 
L 73.005676 46.295392 
L 73.069736 54.113773 
L 73.085748 45.156367 
L 73.101763 49.293901 
L 73.181837 43.268742 
L 73.229879 44.811245 
L 73.261909 41.668251 
L 73.277924 38.25501 
L 73.357995 41.211003 
L 73.534156 57.744318 
L 73.582201 56.799519 
L 73.646258 62.247945 
L 73.758359 51.38951 
L 73.774374 53.848223 
L 73.790389 53.420843 
L 73.822419 47.219894 
L 73.838433 55.846781 
L 73.90249 51.043908 
L 74.014591 44.235068 
L 73.96655 51.210542 
L 74.030606 45.673143 
L 74.126696 48.513397 
L 74.078651 42.669041 
L 74.158723 47.713303 
L 74.174737 43.007334 
L 74.254812 50.840275 
L 74.270827 51.760464 
L 74.302854 47.794054 
L 74.318869 49.390062 
L 74.334884 48.816004 
L 74.350898 50.293234 
L 74.43097 59.761987 
L 74.479015 54.938912 
L 74.559086 50.525216 
L 74.575101 52.498055 
L 74.703217 60.274734 
L 74.735247 59.356499 
L 74.767277 61.555954 
L 74.783292 60.044083 
L 74.799307 63.09833 
L 74.815319 55.223239 
L 74.863363 57.07935 
L 74.879378 53.26378 
L 74.943438 59.382823 
L 75.039524 70.864675 
L 75.071554 70.204096 
L 75.151626 60.227243 
L 75.183655 67.663295 
L 75.19967 69.896326 
L 75.247712 65.405062 
L 75.263727 66.636024 
L 75.279742 62.676568 
L 75.343802 74.144516 
L 75.359813 73.731733 
L 75.423873 82.96619 
L 75.471918 79.091073 
L 75.48793 75.932481 
L 75.519959 80.61005 
L 75.551989 80.557036 
L 75.664091 85.968243 
L 75.600034 79.877939 
L 75.680105 83.63721 
L 75.69612 81.855274 
L 75.712135 85.420149 
L 75.760177 81.919707 
L 75.840251 86.724352 
L 75.856266 83.87563 
L 75.920323 72.354774 
L 75.984383 77.096468 
L 76.032424 84.129017 
L 76.080469 78.517166 
L 76.144529 73.600338 
L 76.112499 78.583572 
L 76.176555 78.57955 
L 76.2246 79.941918 
L 76.240615 75.821357 
L 76.25663 74.879402 
L 76.288657 77.16882 
L 76.496848 92.446331 
L 76.512862 93.310555 
L 76.544892 90.578833 
L 76.608949 87.979116 
L 76.640979 88.038271 
L 76.75308 94.880296 
L 76.705035 86.981126 
L 76.769095 92.284608 
L 76.78511 92.994569 
L 76.81714 91.847953 
L 76.833152 91.875236 
L 76.977283 85.309007 
L 76.913226 92.023528 
L 77.009313 86.966775 
L 77.041342 87.877299 
L 77.073372 81.002323 
L 77.121414 88.543338 
L 77.137429 91.855784 
L 77.201488 84.155525 
L 77.217503 86.375466 
L 77.329605 76.448872 
L 77.361631 77.942685 
L 77.393661 82.698004 
L 77.441706 73.523534 
L 77.489748 73.569197 
L 77.633879 62.794696 
L 77.745983 67.489656 
L 77.697938 58.053002 
L 77.761995 66.320221 
L 77.77801 68.297158 
L 77.826055 63.611833 
L 77.938156 53.98801 
L 77.954171 59.630164 
L 78.066272 54.10581 
L 78.002216 62.060075 
L 78.098302 57.17449 
L 78.162359 64.236359 
L 78.194388 58.517747 
L 78.30649 43.981711 
L 78.322505 56.512877 
L 78.370549 42.26673 
L 78.418594 52.461737 
L 78.434606 51.738163 
L 78.450621 38.699364 
L 78.514681 55.277181 
L 78.530695 54.295792 
L 78.674827 64.452067 
L 78.850984 48.700921 
L 78.931059 52.160549 
L 78.963086 50.802204 
L 78.979101 51.383955 
L 79.027145 40.404932 
L 79.091205 50.408922 
L 79.123232 45.340479 
L 79.219321 47.706184 
L 79.459539 68.546492 
L 79.53961 58.077466 
L 79.491569 68.584046 
L 79.57164 67.941052 
L 79.635697 79.915114 
L 79.683741 71.507529 
L 79.715771 74.055581 
L 79.747801 71.729599 
L 79.859902 68.388181 
L 79.875917 68.52943 
L 79.907944 72.453135 
L 79.939974 65.271821 
L 80.004034 59.097739 
L 80.052075 63.893462 
L 80.084105 68.846494 
L 80.148165 61.785716 
L 80.180192 63.939118 
L 80.324323 75.53993 
L 80.420412 68.143343 
L 80.436424 70.56046 
L 80.468454 75.900437 
L 80.532513 70.672239 
L 80.548528 70.471784 
L 80.56454 67.756688 
L 80.612585 74.260419 
L 80.644615 70.795008 
L 80.932877 94.536674 
L 80.948892 94.505634 
L 81.060993 98.44712 
L 81.028963 93.970995 
L 81.077008 96.185539 
L 81.093023 96.313295 
L 81.237151 101.611715 
L 81.269181 101.606589 
L 81.301211 101.15052 
L 81.317226 99.001374 
L 81.397297 103.075622 
L 81.413312 100.729627 
L 81.493387 101.92702 
L 81.509399 100.075291 
L 81.685559 89.422311 
L 81.701574 90.50247 
L 81.717589 92.887248 
L 81.781646 88.253216 
L 81.797661 89.037591 
L 81.813676 90.05224 
L 81.845706 88.281091 
L 81.86172 88.702545 
L 82.005852 80.750133 
L 82.101938 86.223957 
L 82.037878 80.648115 
L 82.117953 81.779391 
L 82.133968 79.847163 
L 82.165998 86.392754 
L 82.18201 85.10765 
L 82.214039 90.121313 
L 82.294114 86.36725 
L 82.310126 88.276205 
L 82.326141 85.366927 
L 82.3902 87.021107 
L 82.438242 81.853212 
L 82.470272 86.321959 
L 82.582373 90.865348 
L 82.598388 90.320085 
L 82.710489 96.491702 
L 82.758534 92.955628 
L 82.854621 82.494541 
L 82.91868 83.8951 
L 82.95071 90.368762 
L 83.030782 87.533457 
L 83.046796 87.516256 
L 83.158898 94.986463 
L 83.174913 91.589597 
L 83.270999 77.239193 
L 83.351074 84.355829 
L 83.399115 90.594217 
L 83.44716 81.593198 
L 83.495205 76.88774 
L 83.543246 81.241196 
L 83.559261 82.22481 
L 83.575276 79.269006 
L 83.719407 63.617357 
L 83.735422 65.670726 
L 83.847524 76.038742 
L 83.863538 74.598498 
L 83.879553 72.041569 
L 83.927595 76.465984 
L 83.959625 76.284299 
L 83.97564 74.600648 
L 84.023685 79.894295 
L 84.0397 79.849837 
L 84.071726 77.706422 
L 84.103756 80.571147 
L 84.135786 79.004244 
L 84.167816 81.656956 
L 84.231872 77.29222 
L 84.247887 77.514415 
L 84.279917 81.184166 
L 84.359989 78.06616 
L 84.376003 77.608767 
L 84.408033 79.366233 
L 84.600206 90.880985 
L 84.632236 90.009881 
L 84.712307 84.896942 
L 84.744337 89.014117 
L 84.792382 86.974669 
L 84.824412 83.700862 
L 84.856439 88.480153 
L 84.872453 88.554826 
L 84.936513 84.44308 
L 84.968543 88.791638 
L 85.00057 87.301513 
L 85.048614 95.480748 
L 85.112671 92.606981 
L 85.144701 89.691468 
L 85.176731 93.02259 
L 85.20876 102.971485 
L 85.288832 101.791168 
L 85.352892 98.14737 
L 85.384918 103.132943 
L 85.400933 99.815535 
L 85.464993 98.358033 
L 85.52905 106.106307 
L 85.689196 88.851329 
L 85.913401 75.448278 
L 85.929413 75.8698 
L 85.945428 80.548549 
L 86.009488 72.626586 
L 86.073544 64.085109 
L 86.105574 75.331581 
L 86.169634 71.431337 
L 86.185646 75.455819 
L 86.345792 91.434104 
L 86.377821 89.208267 
L 86.393836 91.052197 
L 86.618039 58.369203 
L 86.650069 60.534433 
L 86.76217 65.625625 
L 86.73014 57.720787 
L 86.778185 65.346241 
L 87.082462 43.610517 
L 87.242608 62.559984 
L 87.35471 49.254071 
L 87.386736 52.155682 
L 87.466811 50.266134 
L 87.514856 56.573275 
L 87.530868 53.343976 
L 87.594927 59.684729 
L 87.707029 77.928548 
L 87.739058 75.361297 
L 87.755073 68.334946 
L 87.835145 81.436191 
L 87.85116 82.022224 
L 87.867175 81.420416 
L 87.915219 72.717728 
L 87.979276 77.518728 
L 87.995291 82.346198 
L 88.027321 75.287646 
L 88.091377 78.102793 
L 88.235508 86.360718 
L 88.283553 80.848337 
L 88.331595 86.918837 
L 88.427684 94.644355 
L 88.443699 90.582855 
L 88.603842 80.528461 
L 88.475726 91.961403 
L 88.619857 82.619788 
L 88.731958 88.558805 
L 88.667902 82.006669 
L 88.780003 86.980521 
L 88.796018 84.018039 
L 88.860075 91.66258 
L 88.87609 95.990216 
L 88.956164 91.073811 
L 89.08428 78.555142 
L 89.100295 80.218086 
L 89.11631 79.751853 
L 89.132322 74.137675 
L 89.212397 79.349038 
L 89.260438 83.06469 
L 89.292468 76.000829 
L 89.404569 59.83381 
L 89.436599 61.204867 
L 89.516674 59.287217 
L 89.596745 71.16119 
L 89.660802 57.859262 
L 89.724861 68.519266 
L 89.788921 63.668404 
L 89.868993 64.344607 
L 89.933049 63.848682 
L 89.997109 70.842852 
L 90.093195 64.677749 
L 90.10921 67.198777 
L 90.17327 72.720029 
L 90.253341 70.80253 
L 90.301386 69.954586 
L 90.381457 78.006273 
L 90.397472 80.126327 
L 90.461529 74.163482 
L 90.525589 63.396176 
L 90.60566 66.225756 
L 90.621675 66.060546 
L 90.653705 70.271826 
L 90.685735 64.937594 
L 90.797836 55.667707 
L 90.813851 57.332057 
L 90.829866 62.814148 
L 90.877908 53.709798 
L 90.909937 56.309231 
L 91.022039 50.865142 
L 90.957982 57.730881 
L 91.038054 52.289895 
L 91.13414 56.762494 
L 91.102113 47.943809 
L 91.150155 52.644828 
L 91.230229 46.467934 
L 91.310301 39.116284 
L 91.406387 55.196266 
L 91.422402 49.306108 
L 91.470447 51.233979 
L 91.502477 45.288896 
L 91.614578 57.920208 
L 91.742694 43.133319 
L 91.758709 45.029033 
L 91.774724 45.343071 
L 91.90284 54.679723 
L 91.934867 59.611091 
L 91.966897 51.537739 
L 92.111028 43.488404 
L 92.191103 52.978336 
L 92.255159 50.258505 
L 92.287189 48.141106 
L 92.303204 50.917753 
L 92.319219 52.75643 
L 92.367261 48.100115 
L 92.383275 46.045081 
L 92.43132 49.316329 
L 92.591466 61.985421 
L 92.639508 53.519891 
L 92.703568 58.652382 
L 92.719583 59.801622 
L 92.751609 58.083803 
L 92.767624 58.164157 
L 92.911755 51.768831 
L 92.92777 53.245463 
L 92.943785 45.713748 
L 93.007842 52.390457 
L 93.039872 47.294643 
L 93.119946 50.565827 
L 93.135958 52.909962 
L 93.184003 48.045159 
L 93.216033 48.895626 
L 93.376179 59.131983 
L 93.392194 57.889874 
L 93.552337 41.140505 
L 93.632411 49.905444 
L 93.696468 44.564553 
L 93.712483 44.736187 
L 93.728498 44.104676 
L 93.744512 44.580568 
L 93.808569 48.274026 
L 93.840599 44.506759 
L 93.872629 45.837009 
L 93.936688 41.559032 
L 94.01676 50.272339 
L 94.064805 47.406869 
L 94.080816 47.215134 
L 94.112846 49.957418 
L 94.128861 42.630207 
L 94.176906 46.333652 
L 94.240962 37.348263 
L 94.224948 47.501731 
L 94.289007 44.130741 
L 94.321037 37.808115 
L 94.385094 44.8233 
L 94.48118 53.740107 
L 94.497195 48.720051 
L 94.51321 44.397376 
L 94.561255 49.378795 
L 94.593284 46.948411 
L 94.737416 59.905639 
L 94.945603 37.540043 
L 95.073719 55.439338 
L 95.137779 52.435823 
L 95.153791 43.502685 
L 95.217851 60.174601 
L 95.249881 48.60645 
L 95.265895 43.980412 
L 95.281907 62.352688 
L 95.297922 61.959362 
L 95.361982 69.621027 
L 95.410023 63.105524 
L 95.474083 40.829928 
L 95.554155 57.240556 
L 95.570169 58.686355 
L 95.602199 53.973148 
L 95.650244 57.723233 
L 95.77836 46.33067 
L 95.842417 48.098779 
L 95.858432 46.012174 
L 95.874447 33.681382 
L 95.970533 43.004781 
L 96.082634 49.204594 
L 96.098649 46.924545 
L 96.130679 48.8877 
L 96.146694 43.9376 
L 96.178724 31.768253 
L 96.258795 39.060949 
L 96.33887 48.550623 
L 96.386912 43.146661 
L 96.418941 38.988105 
L 96.482998 44.506532 
L 96.643144 62.2656 
L 96.659159 56.941657 
L 96.819305 44.739031 
L 96.851335 46.073064 
L 96.883362 50.198296 
L 96.915392 46.841556 
L 96.931406 37.085594 
L 96.979451 49.888004 
L 97.011481 47.398811 
L 97.075537 55.088831 
L 97.107564 52.496926 
L 97.219666 33.859019 
L 97.251696 39.60567 
L 97.267713 34.914008 
L 97.331773 43.901994 
L 97.363797 43.737277 
L 97.379815 46.634133 
L 97.411844 50.556849 
L 97.459886 43.068987 
L 97.491916 42.977032 
L 97.507928 44.504704 
L 97.620029 31.241641 
L 97.636047 35.030818 
L 97.76416 43.301826 
L 97.86025 36.115284 
L 97.89228 39.955887 
L 97.908291 41.682154 
L 97.940321 34.372743 
L 97.956339 33.795519 
L 98.084452 54.14559 
L 98.116482 51.531409 
L 98.180542 44.347471 
L 98.228584 49.875677 
L 98.244602 49.246915 
L 98.260613 50.169702 
L 98.276631 55.606332 
L 98.372715 53.282702 
L 98.516846 34.929676 
L 98.548876 42.76976 
L 98.596917 41.290058 
L 98.676995 49.783293 
L 98.709019 49.146838 
L 98.773078 51.691139 
L 98.88518 42.203999 
L 98.901198 44.203447 
L 98.91721 47.439398 
L 98.981269 40.108794 
L 98.997281 43.182374 
L 99.029311 44.50007 
L 99.173442 60.1659 
L 99.18946 56.953675 
L 99.221484 62.910712 
L 99.253514 62.150788 
L 99.301561 70.750771 
L 99.365615 67.144937 
L 99.381633 64.318604 
L 99.429674 75.176378 
L 99.637865 59.125873 
L 99.701925 61.811372 
L 99.717937 64.365382 
L 99.749966 58.109604 
L 99.765978 58.272758 
L 99.846056 41.8365 
L 99.894098 48.089081 
L 99.942139 52.109855 
L 99.974169 44.93216 
L 100.006199 51.339282 
L 100.022217 47.86239 
L 100.070259 57.820037 
L 100.08627 55.563608 
L 100.102288 60.774372 
L 100.18236 55.111019 
L 100.198372 56.745578 
L 100.24642 53.986099 
L 100.262431 59.502641 
L 100.390551 67.445242 
L 100.454604 65.850948 
L 100.438592 67.989382 
L 100.486634 66.542404 
L 100.550694 64.370319 
L 100.646783 74.134006 
L 100.662795 74.207543 
L 100.694825 80.778847 
L 100.790914 79.896211 
L 100.951057 67.101292 
L 101.079177 76.729567 
L 101.095189 76.040836 
L 101.223308 66.230441 
L 101.127218 77.273871 
L 101.23932 66.66603 
L 101.335409 77.004437 
L 101.367433 73.220903 
L 101.463522 78.852288 
L 101.415481 69.780978 
L 101.543594 78.348861 
L 101.639683 74.154838 
L 101.655695 77.151254 
L 101.687725 78.639859 
L 101.719755 74.457255 
L 101.767796 75.60355 
L 101.751785 73.909256 
L 101.783814 74.144863 
L 101.815844 73.314189 
L 101.831856 75.16651 
L 101.879904 78.365746 
L 101.911928 74.921861 
L 101.943957 76.699699 
L 101.959975 74.957562 
L 102.024035 78.278715 
L 102.040047 77.242087 
L 102.072077 81.611981 
L 102.088089 77.037634 
L 102.152148 79.946016 
L 102.184178 75.574477 
L 102.248238 80.747271 
L 102.264249 77.494378 
L 102.328309 82.046158 
L 102.344321 76.890016 
L 102.360339 80.695543 
L 102.376351 75.773967 
L 102.424399 82.361362 
L 102.456422 81.509168 
L 102.568524 90.755883 
L 102.584542 83.200057 
L 102.600553 82.841442 
L 102.648601 76.907538 
L 102.696643 84.214453 
L 102.744685 85.702686 
L 102.728673 83.429914 
L 102.760703 84.331863 
L 102.792732 76.76057 
L 102.856786 87.465581 
L 102.872804 89.265342 
L 102.936864 84.939068 
L 102.952875 87.674555 
L 103.129036 73.276836 
L 103.145048 75.144316 
L 103.225126 81.939461 
L 103.273168 78.664632 
L 103.289179 78.671108 
L 103.449328 95.989352 
L 103.46534 91.473978 
L 103.49737 98.05358 
L 103.56143 95.41269 
L 103.657513 92.831542 
L 103.737591 86.410687 
L 103.785632 90.085197 
L 103.817662 88.801146 
L 103.833674 92.566388 
L 103.849692 91.993042 
L 103.993823 95.971401 
L 103.929763 90.554305 
L 104.009835 94.720011 
L 104.041865 89.013707 
L 104.121936 89.888071 
L 104.250056 96.306139 
L 104.266067 94.166899 
L 104.474258 80.704881 
L 104.538318 82.327718 
L 104.55433 82.963277 
L 104.570342 80.568367 
L 104.618389 82.501181 
L 104.682449 76.546968 
L 104.762521 73.126129 
L 104.82658 83.761285 
L 104.842592 80.711054 
L 104.890634 86.808842 
L 104.906652 86.101346 
L 104.986723 93.036972 
L 105.018753 89.632211 
L 105.066795 90.718726 
L 105.146866 84.932762 
L 105.210926 87.362774 
L 105.226944 90.197392 
L 105.290997 86.051875 
L 105.531218 61.104084 
L 105.675349 73.60351 
L 105.723391 75.848596 
L 105.85151 62.27055 
L 105.963611 73.525123 
L 106.027671 68.595799 
L 106.059695 65.746698 
L 106.139772 78.333987 
L 106.187814 74.21156 
L 106.203826 72.837873 
L 106.251874 77.720565 
L 106.331945 75.59565 
L 106.363975 82.891322 
L 106.460058 76.362849 
L 106.492088 77.77332 
L 106.508106 77.690192 
L 106.524118 74.286567 
L 106.556148 82.293707 
L 106.588178 81.625859 
L 106.60419 81.818351 
L 106.652237 77.996941 
L 106.684267 81.882607 
L 106.732309 78.937566 
L 106.748321 78.601448 
L 106.892452 87.392415 
L 106.956511 85.454469 
L 106.988541 87.938081 
L 107.004553 89.102825 
L 107.052601 84.905259 
L 107.244774 76.759832 
L 107.308833 68.16647 
L 107.372893 70.439356 
L 107.581078 60.085476 
L 107.597096 61.399421 
L 107.629125 66.432693 
L 107.677167 59.473687 
L 107.693179 55.805053 
L 107.741227 69.443466 
L 107.757239 73.695131 
L 107.789268 57.887667 
L 107.83731 68.535729 
L 107.853328 68.594027 
L 107.86934 70.896699 
L 107.90137 70.134089 
L 107.965429 56.946065 
L 107.9334 71.102236 
L 108.013471 61.32744 
L 108.029489 61.541276 
L 108.285722 82.747122 
L 108.365793 66.964816 
L 108.445864 70.899971 
L 108.557966 61.686214 
L 108.589996 67.606598 
L 108.718109 81.584162 
L 108.638037 65.436721 
L 108.734127 80.324165 
L 108.958329 56.75025 
L 108.974347 59.458713 
L 109.006371 54.304166 
L 109.038401 54.547408 
L 109.054419 52.967207 
L 109.070431 56.524435 
L 109.19855 76.589554 
L 109.246592 77.132988 
L 109.294633 73.447266 
L 109.310651 54.424715 
L 109.342681 74.444216 
L 109.406735 62.896109 
L 109.550866 76.65946 
L 109.582896 75.708633 
L 109.662967 65.675417 
L 109.694997 78.58699 
L 109.759057 63.305671 
L 109.775075 66.462176 
L 109.823116 77.261835 
L 109.887176 76.421444 
L 109.9192 73.379107 
L 109.967247 78.355267 
L 110.015289 80.949782 
L 110.079349 78.472777 
L 110.095361 77.263991 
L 110.127391 79.735763 
L 110.143408 82.281488 
L 110.175438 78.395267 
L 110.22348 79.822459 
L 110.239492 77.873844 
L 110.28754 84.658038 
L 110.303551 85.961799 
L 110.319569 83.064741 
L 110.383623 84.151798 
L 110.447683 74.679609 
L 110.495724 65.109196 
L 110.559784 67.976746 
L 110.575802 68.343609 
L 110.591814 63.919868 
L 110.623843 68.480174 
L 110.687903 65.542365 
L 110.800005 69.704079 
L 110.751957 65.220704 
L 110.816016 67.717463 
L 110.976166 57.501876 
L 110.992177 58.780801 
L 111.072249 58.071748 
L 111.120297 65.391468 
L 111.136308 64.856786 
L 111.15232 66.268423 
L 111.200368 73.097226 
L 111.28044 69.405445 
L 111.312469 70.758923 
L 111.328481 67.665691 
L 111.360511 73.530571 
L 111.408553 65.076901 
L 111.552684 53.093129 
L 111.600732 68.896369 
L 111.664785 64.641053 
L 111.760875 42.270248 
L 111.840946 50.714624 
L 111.856964 50.764404 
L 111.905006 49.609591 
L 111.937036 54.99117 
L 111.953048 47.731462 
L 112.033125 49.236114 
L 112.113197 59.329531 
L 112.145226 56.630633 
L 112.161238 47.211647 
L 112.257328 50.227792 
L 112.27334 54.161397 
L 112.353411 48.87236 
L 112.449501 51.139791 
L 112.48153 28.799807 
L 112.57762 55.469055 
L 112.609644 51.632015 
L 112.625661 48.557294 
L 112.673703 54.190552 
L 112.705733 51.24478 
L 112.721751 53.007927 
L 112.753775 45.457933 
L 112.769793 47.426031 
L 112.785805 46.890226 
L 112.801823 49.640001 
L 112.865876 47.816412 
L 112.881894 51.486635 
L 112.897906 45.569062 
L 112.977984 55.797815 
L 113.010007 59.526796 
L 113.074067 54.425598 
L 113.090085 56.300227 
L 113.122115 48.868255 
L 113.170156 60.894417 
L 113.186168 63.88454 
L 113.234216 56.88863 
L 113.250228 58.271364 
L 113.298269 49.325579 
L 113.314287 42.882107 
L 113.378347 59.375017 
L 113.426389 57.274112 
L 113.522478 62.234282 
L 113.53849 62.327505 
L 113.63458 52.285235 
L 113.650591 58.778102 
L 113.682621 57.55699 
L 113.714651 59.657579 
L 113.730663 54.492238 
L 113.778711 60.411879 
L 113.826752 55.041504 
L 113.906824 64.187046 
L 113.938854 61.07363 
L 113.970884 58.552653 
L 114.002913 65.205836 
L 114.018925 62.50924 
L 114.050955 65.752064 
L 114.082985 58.875537 
L 114.098997 59.579893 
L 114.115015 58.9555 
L 114.131027 61.05305 
L 114.147044 63.263489 
L 114.163056 58.882718 
L 114.243128 61.964854 
L 114.291176 53.728909 
L 114.387259 59.063041 
L 114.403277 59.393996 
L 114.547408 50.556237 
L 114.56342 50.962205 
L 114.59545 59.655019 
L 114.643492 51.73665 
L 114.739581 39.720916 
L 114.771611 43.941087 
L 114.883712 36.987157 
L 114.899724 39.78011 
L 114.947772 47.549121 
L 115.011825 43.989044 
L 115.171974 34.925761 
L 115.091903 44.509887 
L 115.220016 37.53694 
L 115.236034 40.976985 
L 115.284076 33.575284 
L 115.316105 30.043334 
L 115.348135 33.639793 
L 115.396177 31.916848 
L 115.55632 45.92247 
L 115.58835 38.842246 
L 115.604368 38.268068 
L 115.668427 42.689072 
L 115.700451 36.283923 
L 115.732481 42.51153 
L 115.812552 37.128514 
L 115.764511 43.017417 
L 115.8606 39.919379 
L 116.068791 55.785205 
L 116.148863 54.954265 
L 116.228934 46.521005 
L 116.260964 47.725888 
L 116.309006 44.428304 
L 116.357047 51.382788 
L 116.405095 45.39024 
L 116.453137 53.510427 
L 116.501178 47.611026 
L 116.485166 54.793249 
L 116.565238 52.213299 
L 116.629298 56.84706 
L 116.677339 52.399006 
L 116.709369 46.086179 
L 116.773429 56.906884 
L 116.869518 66.512429 
L 116.901542 65.198264 
L 116.91756 64.414172 
L 116.94959 66.764184 
L 116.997631 74.39832 
L 117.061691 71.827809 
L 117.093721 65.087424 
L 117.173792 70.28182 
L 117.189804 70.647996 
L 117.269882 76.868704 
L 117.285894 72.472076 
L 117.365965 62.383066 
L 117.430025 63.771513 
L 117.446037 64.376063 
L 117.462055 61.860578 
L 117.542126 51.103234 
L 117.590168 56.032836 
L 117.81437 68.338048 
L 117.862418 66.136707 
L 117.87843 66.98341 
L 117.894448 71.357503 
L 117.958502 64.259499 
L 117.990531 67.524353 
L 118.022561 67.234496 
L 118.102633 73.428616 
L 118.070609 65.996498 
L 118.150681 72.009532 
L 118.246764 73.204005 
L 118.294812 62.26908 
L 118.310824 64.635977 
L 118.342853 54.646508 
L 118.358865 57.955807 
L 118.438943 50.880603 
L 118.486985 56.565349 
L 118.502996 61.127105 
L 118.551044 55.025798 
L 118.583074 58.503655 
L 118.599086 53.068948 
L 118.679157 56.856896 
L 118.791259 64.04753 
L 118.807277 62.251502 
L 118.823289 62.42388 
L 118.90336 57.745692 
L 118.96742 68.123443 
L 118.983438 66.907117 
L 119.031479 71.609157 
L 119.063509 68.740794 
L 119.223652 76.293517 
L 119.303724 88.033391 
L 119.335753 76.731049 
L 119.383801 79.689243 
L 119.431843 79.308748 
L 119.543944 67.57342 
L 119.559956 70.389501 
L 119.575974 73.174963 
L 119.624016 65.709939 
L 119.672064 71.222098 
L 119.704087 62.272101 
L 119.768147 71.288228 
L 119.816188 76.013118 
L 119.848218 69.050399 
L 119.896266 65.397402 
L 119.928296 71.145484 
L 120.024379 77.431773 
L 120.072427 81.281442 
L 120.104451 73.697149 
L 120.16851 59.603222 
L 120.216552 69.321908 
L 120.32866 74.631733 
L 120.248582 68.825315 
L 120.360683 74.068885 
L 120.424743 62.143897 
L 120.488803 67.839803 
L 120.584892 76.010274 
L 120.600904 72.114293 
L 120.729023 66.29679 
L 120.696993 72.244723 
L 120.761047 67.844185 
L 120.889166 78.784299 
L 120.905178 74.94741 
L 120.921196 70.404797 
L 120.969238 82.865748 
L 120.985256 80.985198 
L 121.017285 82.364042 
L 121.049309 75.424003 
L 121.145399 77.843006 
L 121.241488 81.443871 
L 121.305542 66.590071 
L 121.369601 74.027807 
L 121.385619 73.842074 
L 121.401631 74.084655 
L 121.52975 60.272704 
L 121.689893 70.858426 
L 121.705905 69.737712 
L 121.721923 63.462236 
L 121.785983 74.981212 
L 121.801995 74.74215 
L 121.866054 79.519216 
L 121.834024 74.723215 
L 121.882066 76.603759 
L 121.898084 73.766632 
L 121.946126 82.660135 
L 121.962138 83.629909 
L 122.010186 81.44261 
L 122.026197 82.120995 
L 122.154317 73.309012 
L 122.170328 73.083525 
L 122.186346 70.157954 
L 122.218376 74.388257 
L 122.266418 74.054591 
L 122.602722 94.69095 
L 122.842942 81.795154 
L 122.858954 81.756175 
L 123.067145 66.156928 
L 123.115187 71.01989 
L 123.195258 78.683315 
L 123.227288 75.816565 
L 123.355407 68.056104 
L 123.259318 77.579454 
L 123.387437 70.069757 
L 123.403449 72.163694 
L 123.435479 64.289323 
L 123.451491 65.023843 
L 123.483521 60.281783 
L 123.51555 65.130785 
L 123.595622 72.699619 
L 123.61164 69.163161 
L 123.691711 60.406998 
L 123.723741 63.208608 
L 123.803813 72.922641 
L 123.771783 62.380803 
L 123.851854 68.934099 
L 123.883884 72.523647 
L 123.899902 66.431974 
L 123.995986 61.886587 
L 123.963956 69.245898 
L 124.012004 65.711855 
L 124.060045 69.94103 
L 124.092075 62.774021 
L 124.204176 58.61981 
L 124.220194 59.594123 
L 124.252218 58.97026 
L 124.300266 63.571764 
L 124.364319 60.407156 
L 124.380337 60.085357 
L 124.428379 70.579073 
L 124.524468 65.182753 
L 124.588528 64.378258 
L 124.620558 70.455649 
L 124.652582 79.575389 
L 124.732659 73.780812 
L 124.812731 71.268196 
L 124.844761 73.466504 
L 124.860772 73.42987 
L 124.972874 90.531279 
L 125.036933 88.889463 
L 125.084975 86.658936 
L 125.100993 87.872362 
L 125.117005 90.515686 
L 125.181064 83.079054 
L 125.213094 88.100365 
L 125.309178 91.914 
L 125.277154 84.667351 
L 125.341208 90.541487 
L 125.357225 89.954616 
L 125.389255 91.713828 
L 125.405267 93.842066 
L 125.421285 89.996016 
L 125.453309 90.708171 
L 125.56541 81.264671 
L 125.6615 91.849485 
L 125.709541 90.559904 
L 125.805631 76.686181 
L 125.853672 82.481451 
L 126.093893 95.535181 
L 126.189983 86.403826 
L 126.238024 92.539661 
L 126.286066 98.169961 
L 126.350125 94.791437 
L 126.382155 91.51464 
L 126.414185 97.273637 
L 126.430197 96.411802 
L 126.462227 101.174145 
L 126.526286 94.301559 
L 126.558316 88.943682 
L 126.638388 93.175245 
L 126.702447 87.820231 
L 126.718459 91.197608 
L 126.766507 98.906625 
L 126.798531 89.867446 
L 126.814549 85.024831 
L 126.89462 93.529536 
L 126.942662 95.136319 
L 126.92665 92.62171 
L 126.95868 93.780269 
L 127.086793 80.737138 
L 127.118823 83.315531 
L 127.166871 82.468488 
L 127.294984 73.77853 
L 127.439115 83.432039 
L 127.471145 79.91101 
L 127.487157 79.740176 
L 127.503175 80.064699 
L 127.535204 86.035961 
L 127.583246 76.038925 
L 127.599258 76.900577 
L 127.615276 70.44167 
L 127.695347 80.222008 
L 127.743389 79.528592 
L 127.839479 88.719304 
L 127.91955 84.997088 
L 127.88752 90.501436 
L 127.935568 89.01954 
L 127.967598 87.443122 
L 128.047669 76.492043 
L 128.095711 81.303189 
L 128.22383 97.547605 
L 128.239842 95.908021 
L 128.512086 81.476822 
L 128.528104 82.510468 
L 128.576146 84.017693 
L 128.592164 83.067692 
L 128.704266 70.68386 
L 128.752307 75.269909 
L 128.768325 78.839318 
L 128.832379 73.180095 
L 128.864408 77.682632 
L 128.880426 78.536523 
L 128.896438 61.624517 
L 128.992528 71.257836 
L 129.00854 70.361512 
L 129.024558 72.066001 
L 129.152671 77.053391 
L 129.168689 79.528914 
L 129.200712 70.090098 
L 129.21673 71.568148 
L 129.24876 67.847338 
L 129.28079 71.181871 
L 129.296802 83.058259 
L 129.312814 67.101986 
L 129.392891 82.114822 
L 129.488975 95.245034 
L 129.537022 85.340817 
L 129.617094 70.956466 
L 129.665136 77.516112 
L 129.729195 75.299891 
L 129.761225 78.331698 
L 129.841297 70.886655 
L 129.857309 74.980002 
L 129.921368 69.009024 
L 129.937386 72.857924 
L 130.033469 61.756138 
L 130.00144 75.946062 
L 130.049487 64.674931 
L 130.113541 78.242113 
L 130.097529 62.408035 
L 130.161589 65.962519 
L 130.177601 64.799276 
L 130.193619 70.614893 
L 130.20963 70.206895 
L 130.225648 70.336083 
L 130.27369 64.954107 
L 130.289702 65.733602 
L 130.321732 64.574823 
L 130.417821 87.763692 
L 130.465863 86.762732 
L 130.561952 65.82685 
L 130.593982 66.33483 
L 130.642024 90.42967 
L 130.690065 86.881957 
L 130.738113 64.289953 
L 130.802167 78.726676 
L 130.818185 78.829842 
L 130.850215 77.121399 
L 130.882244 81.442377 
L 130.898256 82.42956 
L 130.930286 59.657384 
L 130.994346 79.190462 
L 131.154489 95.617382 
L 131.170507 93.876228 
L 131.20253 94.14698 
L 131.346662 88.19744 
L 131.410721 94.823618 
L 131.442751 86.67473 
L 131.490793 87.223845 
L 131.57087 79.293281 
L 131.682972 89.696897 
L 131.618912 77.157647 
L 131.698984 86.11622 
L 131.715001 84.193753 
L 131.763043 89.338092 
L 131.795073 87.261721 
L 131.827103 86.820576 
L 131.923186 91.242223 
L 132.051305 84.856829 
L 131.971234 91.597838 
L 132.067317 85.724105 
L 132.083335 86.047809 
L 132.163407 81.516268 
L 132.211448 83.012609 
L 132.227466 84.85512 
L 132.25949 80.258408 
L 132.339568 58.758216 
L 132.371598 76.418821 
L 132.387609 79.498062 
L 132.403621 59.51126 
L 132.467681 81.669793 
L 132.499711 65.666357 
L 132.515729 67.443382 
L 132.62783 92.610954 
L 132.643842 89.222788 
L 132.659854 65.849107 
L 132.739931 97.103654 
L 132.868044 89.259497 
L 132.884063 94.01109 
L 132.932104 84.011217 
L 132.996164 66.349578 
L 133.012176 86.322817 
L 133.044205 69.610334 
L 133.060217 69.150771 
L 133.204348 86.002008 
L 133.220367 85.53986 
L 133.252396 85.148407 
L 133.380509 79.195386 
L 133.444569 81.303397 
L 133.460581 79.087725 
L 133.508629 74.382021 
L 133.5887 77.673269 
L 133.636742 86.424426 
L 133.668772 75.805947 
L 133.700802 78.423905 
L 133.844933 69.985387 
L 133.876963 74.240936 
L 133.908992 65.379009 
L 133.973052 60.490398 
L 134.021094 64.050431 
L 134.037106 66.761403 
L 134.069135 60.958219 
L 134.117183 64.960765 
L 134.149207 62.772949 
L 134.165225 64.281454 
L 134.261308 76.888049 
L 134.309356 74.606443 
L 134.357398 79.124188 
L 134.389427 73.298362 
L 134.517547 68.395217 
L 134.533558 70.208926 
L 134.661672 80.188956 
L 134.67769 77.869191 
L 134.693702 75.003892 
L 134.741749 78.421226 
L 134.773779 76.056618 
L 134.837833 85.768664 
L 134.885881 76.429653 
L 134.901892 77.569574 
L 134.91791 75.972235 
L 134.933922 76.101681 
L 134.981964 70.110438 
L 135.030012 72.965283 
L 135.046023 77.910654 
L 135.126095 70.836515 
L 135.142113 71.28795 
L 135.286244 50.956984 
L 135.318274 51.928145 
L 135.334286 50.294564 
L 135.350298 47.017207 
L 135.414357 52.34301 
L 135.446387 59.794194 
L 135.510447 52.11041 
L 135.526459 50.791062 
L 135.574506 55.19718 
L 135.590518 55.68765 
L 135.60653 53.396542 
L 135.63856 47.949433 
L 135.686608 53.598171 
L 135.70262 50.180736 
L 135.814721 56.731063 
L 135.894792 51.409648 
L 135.926822 53.093148 
L 136.006894 57.233765 
L 136.038924 56.349395 
L 136.086971 51.220952 
L 136.151025 55.846706 
L 136.295156 40.828062 
L 136.183055 55.976581 
L 136.311174 43.686242 
L 136.407257 58.733417 
L 136.455305 58.451448 
L 136.69552 42.908235 
L 136.535377 59.905381 
L 136.727549 45.864115 
L 136.743567 47.151975 
L 136.791609 43.747069 
L 136.807621 45.854247 
L 136.951752 30.462537 
L 136.96777 38.085822 
L 137.095883 48.963571 
L 137.015812 33.716023 
L 137.111901 48.461966 
L 137.288062 32.806911 
L 137.384145 50.153832 
L 137.416175 46.998562 
L 137.432193 45.847135 
L 137.448205 34.795797 
L 137.528277 46.751915 
L 137.576324 45.556679 
L 137.560306 48.60836 
L 137.592336 47.353679 
L 137.640378 48.591342 
L 137.672408 46.395557 
L 137.688426 46.938537 
L 137.912628 25.477607 
L 137.96067 31.418849 
L 138.104801 52.594853 
L 138.120819 50.384351 
L 138.168861 35.657185 
L 138.23292 37.189044 
L 138.248932 37.700252 
L 138.441105 66.200863 
L 138.521183 62.135561 
L 138.553207 64.025052 
L 138.697338 76.436129 
L 138.729367 71.512996 
L 138.777415 62.354169 
L 138.857487 67.884337 
L 138.889517 67.375588 
L 139.01763 73.302461 
L 139.033648 73.56438 
L 139.065678 69.669086 
L 139.129731 76.670235 
L 139.145749 77.807904 
L 139.161761 76.284532 
L 139.177779 76.598923 
L 139.193791 72.008498 
L 139.225821 76.841649 
L 139.273862 74.682976 
L 139.337922 78.528805 
L 139.369952 73.02459 
L 139.385963 69.668278 
L 139.482053 72.764991 
L 139.658214 61.871625 
L 139.674226 62.764967 
L 139.690244 59.34885 
L 139.706256 56.323544 
L 139.722274 63.373717 
L 139.786327 61.190787 
L 140.01053 79.853304 
L 140.04256 77.165838 
L 140.218721 84.021438 
L 140.266768 82.151556 
L 140.410893 71.045275 
L 140.442923 71.47019 
L 140.458941 76.117999 
L 140.539013 69.620661 
L 140.571042 66.972142 
L 140.619084 70.169695 
L 140.635102 69.343913 
L 140.811257 78.34526 
L 140.715174 68.210065 
L 140.827275 76.3208 
L 140.843287 75.88475 
L 140.859305 76.634201 
L 140.875317 79.859231 
L 140.955388 75.96866 
L 141.147567 63.298332 
L 141.003436 79.030095 
L 141.163579 65.353372 
L 141.30771 75.13779 
L 141.211627 62.58837 
L 141.33974 71.764492 
L 141.435829 67.952704 
L 141.451841 68.979238 
L 141.499883 74.731122 
L 141.531913 68.446094 
L 141.547931 69.646305 
L 141.563942 65.782701 
L 141.628002 72.767993 
L 141.708074 78.968607 
L 141.724092 84.99531 
L 141.788145 74.973274 
L 141.804163 79.081678 
L 141.948294 62.084773 
L 141.964306 64.81258 
L 141.980324 67.233311 
L 142.028366 59.275382 
L 142.092425 52.904634 
L 142.124455 57.909785 
L 142.172497 66.569642 
L 142.188509 56.125699 
L 142.284598 63.549872 
L 142.316628 63.870549 
L 142.348658 59.309582 
L 142.412717 66.058838 
L 142.460759 64.58754 
L 142.572861 59.930797 
L 142.524819 65.445592 
L 142.588872 60.246114 
L 142.66895 73.533194 
L 142.716992 69.512237 
L 142.797063 64.549816 
L 142.813081 68.644078 
L 142.845105 71.51292 
L 142.877135 68.88152 
L 142.893153 65.19392 
L 142.941194 72.748339 
L 142.989236 65.999291 
L 143.069314 75.217223 
L 143.117355 72.351798 
L 143.133367 72.227049 
L 143.261486 66.950244 
L 143.277498 66.567833 
L 143.405618 72.90503 
L 143.453659 66.319552 
L 143.533731 68.838789 
L 143.56576 68.211042 
L 143.709892 78.634752 
L 143.854023 69.973646 
L 143.886053 70.433946 
L 144.014172 79.469039 
L 144.062214 76.672354 
L 144.094243 73.771235 
L 144.110255 77.186752 
L 144.142285 76.843919 
L 144.158297 79.633233 
L 144.222357 75.624672 
L 144.238375 77.536692 
L 144.366488 65.471942 
L 144.398518 70.565196 
L 144.510619 74.886514 
L 144.446559 69.741722 
L 144.526637 74.797308 
L 144.542649 73.744627 
L 144.574679 78.726745 
L 144.606708 81.154676 
L 144.62272 77.278506 
L 144.65475 80.415944 
L 144.814899 63.902579 
L 144.830911 81.059928 
L 144.862941 62.963525 
L 144.927 68.598422 
L 144.959024 65.237356 
L 144.975042 66.099809 
L 145.119173 86.183579 
L 145.183233 89.717212 
L 145.151203 85.342463 
L 145.231275 87.751226 
L 145.295334 83.27374 
L 145.343376 84.454417 
L 145.359388 87.138712 
L 145.375406 81.130905 
L 145.439465 82.977433 
L 145.64765 47.893708 
L 145.743739 57.64508 
L 145.775769 59.97052 
L 145.791781 53.749326 
L 145.823811 54.429917 
L 145.887871 48.165545 
L 145.935912 50.732582 
L 145.98396 46.799507 
L 146.064032 43.997361 
L 146.144103 67.514284 
L 146.176133 61.282661 
L 146.240193 70.679049 
L 146.256204 71.488607 
L 146.320264 85.952568 
L 146.368306 74.85316 
L 146.512437 59.133534 
L 146.528455 62.575104 
L 146.576497 54.671817 
L 146.592508 55.422655 
L 146.608526 55.462831 
L 146.752658 71.782185 
L 146.896789 62.803435 
L 146.928818 65.571741 
L 147.00889 72.548313 
L 146.960848 64.681766 
L 147.04092 66.797072 
L 147.07295 65.043376 
L 147.104973 67.365657 
L 147.120991 68.318886 
L 147.137003 67.111702 
L 147.153021 62.15838 
L 147.217081 68.719917 
L 147.249105 63.5253 
L 147.409254 87.417119 
L 147.425265 83.861405 
L 147.441283 83.194389 
L 147.457295 83.372763 
L 147.553385 91.047884 
L 147.569397 85.144895 
L 147.633456 82.74373 
L 147.649468 87.059115 
L 147.697516 86.95535 
L 147.777587 94.172075 
L 147.841647 91.905198 
L 147.873677 94.472777 
L 147.889689 98.564523 
L 147.953748 94.356408 
L 147.985778 96.082802 
L 148.00179 95.635365 
L 148.017808 96.968603 
L 148.049832 99.810932 
L 148.113891 94.671392 
L 148.161939 90.962883 
L 148.225993 93.211179 
L 148.242011 93.292592 
L 148.338094 97.065565 
L 148.290052 91.998421 
L 148.354106 94.233803 
L 148.370124 94.673624 
L 148.386142 92.38169 
L 148.434184 93.201406 
L 148.482225 90.940985 
L 148.562303 98.297516 
L 148.610344 95.871798 
L 148.754469 78.495375 
L 148.866571 80.869447 
L 148.882589 81.324841 
L 148.898607 79.858758 
L 149.074768 72.682128 
L 149.138827 79.907384 
L 149.218893 78.490823 
L 149.250929 78.767105 
L 149.282952 75.226744 
L 149.36303 78.47557 
L 149.411072 84.931419 
L 149.459113 78.52163 
L 149.523173 75.172506 
L 149.507155 79.332607 
L 149.587233 75.431499 
L 149.683316 79.601941 
L 149.699334 76.980099 
L 149.731358 72.731486 
L 149.763394 77.849878 
L 149.795417 75.687662 
L 149.843459 81.306209 
L 149.923537 81.203617 
L 149.987596 76.09438 
L 150.01962 76.25131 
L 150.067662 65.488121 
L 150.099698 67.038013 
L 150.163757 90.324512 
L 150.195781 66.401797 
L 150.211799 84.808644 
L 150.227817 65.012317 
L 150.275859 90.825795 
L 150.307882 89.050511 
L 150.3239 93.534126 
L 150.38796 84.29854 
L 150.403978 84.047491 
L 150.468025 86.734737 
L 150.500061 82.697386 
L 150.516079 81.646073 
L 150.548103 86.583494 
L 150.580127 93.956777 
L 150.676222 87.940276 
L 150.932448 101.052732 
L 150.964484 100.094749 
L 151.092604 90.477634 
L 151.108609 93.096279 
L 151.188687 89.370715 
L 151.204705 92.103144 
L 151.300788 95.877851 
L 151.236729 88.93319 
L 151.332812 95.612616 
L 151.396872 90.107322 
L 151.428908 96.312444 
L 151.444913 95.940373 
L 151.508973 104.320146 
L 151.557015 98.61231 
L 151.573033 98.718005 
L 151.733176 106.790884 
L 151.765212 108.434559 
L 151.797235 107.775677 
L 151.845277 101.000657 
L 151.925355 101.785524 
L 151.941373 102.968717 
L 151.973396 98.517555 
L 151.989414 99.901134 
L 152.149557 90.513737 
L 152.165575 93.40258 
L 152.197599 82.490588 
L 152.229635 89.473679 
L 152.277677 80.923344 
L 152.325718 86.708022 
L 152.453837 101.523139 
L 152.485861 100.342128 
L 152.517897 101.75973 
L 152.533903 103.453734 
L 152.565939 99.247485 
L 152.613981 101.802265 
L 152.67804 98.181235 
L 152.7421 98.228272 
L 152.758106 101.318579 
L 152.790141 95.194044 
L 152.838183 96.136844 
L 152.902243 92.216392 
L 152.918261 96.187532 
L 152.934266 94.936476 
L 152.950284 96.9954 
L 152.998326 91.873092 
L 153.206523 78.266836 
L 153.030362 93.017388 
L 153.27057 79.076886 
L 153.286588 85.307847 
L 153.382672 81.517806 
L 153.446731 74.97265 
L 153.414708 82.849884 
L 153.526809 79.199031 
L 153.606887 86.268025 
L 153.558833 78.617532 
L 153.63891 82.014348 
L 153.654928 80.030859 
L 153.670934 89.61962 
L 153.718988 81.434004 
L 153.831089 90.918091 
L 153.863113 90.346775 
L 153.879131 91.288006 
L 153.895149 88.643396 
L 153.975214 92.467895 
L 154.023256 84.476006 
L 154.039274 88.138411 
L 154.103334 81.022248 
L 154.119352 82.0038 
L 154.151375 81.236732 
L 154.167393 82.789178 
L 154.183411 83.597292 
L 154.215435 80.817555 
L 154.231453 75.765468 
L 154.279495 81.870716 
L 154.295512 80.082505 
L 154.343554 93.36386 
L 154.42362 89.476176 
L 154.599781 106.466165 
L 154.615799 105.884136 
L 154.711882 110.709917 
L 154.7279 108.498576 
L 154.952102 94.693107 
L 155.016162 99.177611 
L 154.984138 94.00411 
L 155.128264 97.700998 
L 155.208341 85.076786 
L 155.272388 86.033351 
L 155.336448 83.649966 
L 155.320442 86.439356 
L 155.384502 85.443138 
L 155.464567 91.16895 
L 155.528627 89.53414 
L 155.560651 85.155286 
L 155.576669 89.494272 
L 155.672752 97.949714 
L 155.68877 94.888278 
L 155.800871 101.630321 
L 155.832907 97.710973 
L 155.928991 92.066063 
L 155.977032 95.024276 
L 155.99305 94.309314 
L 156.009068 84.095348 
L 156.105152 85.170532 
L 156.217253 97.108352 
L 156.233271 94.006916 
L 156.249277 86.94709 
L 156.329354 97.087608 
L 156.361378 96.384916 
L 156.441456 103.755665 
L 156.489497 99.216249 
L 156.537539 99.030333 
L 156.569575 91.534357 
L 156.617617 99.626637 
L 156.633635 96.188534 
L 156.729718 104.989048 
L 156.761742 103.307938 
L 156.889861 97.602561 
L 156.921897 100.707452 
L 156.95392 97.778426 
L 157.033998 87.790199 
L 157.08204 95.589677 
L 157.130082 98.220952 
L 157.162105 96.267658 
L 157.274207 86.888899 
L 157.290224 88.666744 
L 157.418344 94.350506 
L 157.434362 93.992572 
L 157.450367 89.886469 
L 157.482403 96.880929 
L 157.530445 93.920907 
L 157.770666 106.257178 
L 157.562469 91.630776 
L 157.786684 104.603459 
L 157.818707 111.109169 
L 157.882767 103.662808 
L 157.898785 107.446544 
L 157.930809 108.596282 
L 158.058928 99.486402 
L 158.171029 107.473991 
L 158.187047 103.879355 
L 158.235089 102.258674 
L 158.283131 109.281785 
L 158.299149 101.211567 
L 158.395232 104.76368 
L 158.41125 101.685435 
L 158.475297 108.729164 
L 158.491315 108.73465 
L 158.571393 104.832817 
L 158.603417 106.833349 
L 158.811613 114.372157 
L 158.843637 114.311211 
L 158.939721 105.406718 
L 158.971757 110.955663 
L 158.987774 111.229933 
L 159.00378 111.137089 
L 159.083858 111.92985 
L 159.1319 106.906893 
L 159.147917 108.156972 
L 159.163923 103.495033 
L 159.195959 105.196401 
L 159.292042 96.918073 
L 159.244001 108.65784 
L 159.340084 98.97551 
L 159.356102 98.41031 
L 159.388138 99.024659 
L 159.452185 98.71001 
L 159.532263 105.528724 
L 159.548281 103.177521 
L 159.596323 107.461885 
L 159.628346 107.193579 
L 159.676388 110.513358 
L 159.692406 106.594072 
L 159.852549 93.660873 
L 159.900603 102.00173 
L 159.948645 96.301341 
L 160.076752 87.993265 
L 160.09277 91.771433 
L 160.140811 80.069567 
L 160.172847 80.449696 
L 160.188865 78.142819 
L 160.204871 75.584937 
L 160.268931 79.529431 
L 160.284949 83.066695 
L 160.316972 73.457575 
L 160.365014 79.015574 
L 160.381032 79.491076 
L 160.39705 78.345033 
L 160.477115 64.709364 
L 160.509151 66.442971 
L 160.525169 78.598125 
L 160.605235 73.88563 
L 160.653276 59.538089 
L 160.717336 64.340439 
L 160.829437 81.855419 
L 160.861473 76.849612 
L 160.909515 67.243197 
L 160.957556 79.989403 
L 161.037634 80.718292 
L 161.133718 73.210089 
L 161.277843 82.086253 
L 161.373938 89.308394 
L 161.389956 86.628834 
L 161.502057 68.661241 
L 161.518063 70.396708 
L 161.566105 81.829391 
L 161.630164 74.238023 
L 161.646183 75.243364 
L 161.678206 70.856812 
L 161.774302 59.143294 
L 161.838361 65.346436 
L 161.854367 68.523516 
L 161.886403 62.430822 
L 161.918427 63.322947 
L 161.934445 62.312479 
L 161.950463 65.887412 
L 162.014522 64.885784 
L 162.062564 70.55611 
L 162.174665 65.004763 
L 162.190683 65.471482 
L 162.206689 65.041283 
L 162.398868 89.083702 
L 162.414886 88.601321 
L 162.430892 86.751219 
L 162.462928 94.998342 
L 162.478933 93.589322 
L 162.719154 81.165836 
L 162.526987 94.740963 
L 162.75119 82.667222 
L 162.879297 90.954157 
L 162.911333 88.022622 
L 162.943357 97.217861 
L 162.959375 93.069034 
L 162.975393 95.044125 
L 163.055458 92.728937 
L 163.215613 81.219027 
L 163.311697 87.789467 
L 163.34372 87.648098 
L 163.40778 84.453099 
L 163.423798 84.97089 
L 163.439816 90.46769 
L 163.519881 80.186478 
L 163.680024 63.479802 
L 163.71206 65.656124 
L 163.744084 71.357818 
L 163.792138 64.668878 
L 163.824162 66.868989 
L 163.840179 64.630769 
L 163.872203 69.066382 
L 163.904239 67.547317 
L 163.952281 72.769058 
L 164.01634 68.063065 
L 164.048364 65.644396 
L 164.096406 61.128038 
L 164.128442 69.850663 
L 164.144447 70.057096 
L 164.160465 65.101409 
L 164.192501 70.308252 
L 164.256549 69.667276 
L 164.320608 71.833307 
L 164.384668 66.925187 
L 164.400686 67.338601 
L 164.528805 52.161331 
L 164.656912 64.47824 
L 164.67293 66.553715 
L 164.720972 58.600415 
L 164.753008 64.512994 
L 164.769014 60.22776 
L 164.817068 65.650461 
L 164.833073 65.020677 
L 164.945175 73.948014 
L 164.961193 71.844184 
L 164.977211 74.481763 
L 165.04127 73.539247 
L 165.169377 64.529551 
L 165.201413 67.545936 
L 165.217431 64.506928 
L 165.233437 64.673291 
L 165.361556 54.637434 
L 165.377574 54.923187 
L 165.409598 52.134137 
L 165.505693 70.583374 
L 165.713878 51.35461 
L 165.729896 51.910264 
L 165.745902 45.076064 
L 165.82598 56.637613 
L 165.874021 58.569513 
L 165.890039 55.551552 
L 165.906057 55.959481 
L 165.922063 51.363961 
L 165.970105 63.168286 
L 166.162283 80.338718 
L 166.242361 82.259312 
L 166.290403 76.056006 
L 166.306421 76.565625 
L 166.322426 73.777036 
L 166.418522 57.947749 
L 166.466564 63.5567 
L 166.482582 64.730871 
L 166.498587 60.043969 
L 166.530623 61.6897 
L 166.626707 54.055387 
L 166.706784 76.256247 
L 166.770832 73.391081 
L 166.802868 57.005308 
L 166.850909 74.148823 
L 166.866927 76.461053 
L 166.898951 72.035875 
L 166.963011 55.571401 
L 166.946993 73.089155 
L 167.011052 60.340787 
L 167.059094 57.873247 
L 167.15519 91.423851 
L 167.187213 88.408835 
L 167.219249 93.273405 
L 167.251273 92.759896 
L 167.283309 94.293463 
L 167.363374 90.997045 
L 167.331351 96.088483 
L 167.39541 92.914165 
L 167.74772 71.724448 
L 167.443452 95.793979 
L 167.763738 74.330665 
L 167.795774 78.843688 
L 167.859821 74.208186 
L 167.955917 66.196418 
L 167.971923 79.336453 
L 168.035982 65.505801 
L 168.068018 68.014477 
L 168.132078 55.81255 
L 168.148083 68.6102 
L 168.228161 67.078511 
L 168.308239 76.234248 
L 168.468382 34.884077 
L 168.500405 68.549411 
L 168.596501 52.020315 
L 168.612507 53.964371 
L 168.628525 53.325596 
L 168.676566 39.139771 
L 168.692584 55.953485 
L 168.756644 39.238 
L 168.77265 39.894972 
L 168.852727 50.817816 
L 168.884763 46.492216 
L 168.948811 40.001372 
L 168.964829 40.345719 
L 168.980847 65.427604 
L 169.07693 61.779171 
L 169.092948 61.301463 
L 169.205049 79.934837 
L 169.157008 60.895609 
L 169.237073 73.894161 
L 169.301133 58.199643 
L 169.349174 60.163636 
L 169.365192 59.552105 
L 169.38121 60.417534 
L 169.413234 67.740723 
L 169.50933 64.253629 
L 169.621431 73.353817 
L 169.637437 71.204797 
L 169.829616 51.542153 
L 169.909693 72.196595 
L 170.005777 68.283848 
L 170.117878 63.409631 
L 170.149902 65.326972 
L 170.262003 69.63133 
L 170.229979 64.579615 
L 170.278021 68.506857 
L 170.326062 59.246952 
L 170.374104 67.066922 
L 170.438164 70.987765 
L 170.4702 65.977652 
L 170.534259 67.447846 
L 170.566283 60.84685 
L 170.598319 76.798427 
L 170.678384 72.497606 
L 170.742444 74.458768 
L 170.822522 53.04282 
L 170.854545 69.704395 
L 170.934623 55.949998 
L 171.014688 71.633627 
L 171.046724 68.700535 
L 171.06273 53.200299 
L 171.142808 70.317142 
L 171.206867 79.079497 
L 171.238891 70.132084 
L 171.254909 70.258541 
L 171.334987 72.284698 
L 171.350992 71.00634 
L 171.415052 66.803112 
L 171.447088 68.018386 
L 171.527153 79.775031 
L 171.559189 74.766015 
L 171.575195 66.023264 
L 171.591213 75.991365 
L 171.671291 73.00889 
L 171.687308 78.476724 
L 171.73535 65.43976 
L 171.79941 57.488761 
L 171.783392 68.908475 
L 171.847452 62.54076 
L 171.879475 71.484068 
L 171.959553 68.848171 
L 171.991577 70.816957 
L 172.071654 65.427906 
L 172.103678 80.559464 
L 172.183756 71.141801 
L 172.199773 72.7553 
L 172.247815 69.71169 
L 172.263821 64.322154 
L 172.295857 71.558803 
L 172.343899 67.64204 
L 172.439982 78.231804 
L 172.375922 59.219203 
L 172.456 78.115158 
L 172.472018 62.543414 
L 172.568101 66.283322 
L 172.616143 70.853779 
L 172.664184 63.97927 
L 172.69622 69.634754 
L 172.776286 66.261689 
L 172.808322 65.412553 
L 172.888399 79.939465 
L 172.936441 71.594459 
L 172.968465 66.473652 
L 173.032524 73.249144 
L 173.176649 66.205018 
L 173.064548 75.754951 
L 173.208685 67.450733 
L 173.240709 72.388034 
L 173.272745 64.387501 
L 173.288763 66.619964 
L 173.432888 54.469652 
L 173.448906 55.851182 
L 173.528971 47.095858 
L 173.577013 73.028209 
L 173.593031 74.946956 
L 173.625067 69.607944 
L 173.657091 71.052784 
L 173.769192 60.257451 
L 173.801228 66.662581 
L 173.881293 72.848977 
L 173.913329 70.42271 
L 173.961371 52.857856 
L 174.041436 62.394794 
L 174.105496 58.385596 
L 174.121514 59.973925 
L 174.217597 80.695543 
L 174.249633 75.175804 
L 174.265639 75.342747 
L 174.313693 75.699597 
L 174.425794 51.190826 
L 174.4418 66.601282 
L 174.537895 52.439354 
L 174.553901 52.277398 
L 174.569919 53.063539 
L 174.617961 41.717772 
L 174.633979 57.107062 
L 174.698038 44.983093 
L 174.762098 61.691605 
L 174.81014 53.383724 
L 174.906223 45.861763 
L 174.938259 46.60902 
L 174.970283 44.632757 
L 174.986301 47.370009 
L 175.002319 40.940844 
L 175.098402 43.215867 
L 175.210503 27.153306 
L 175.146444 47.873342 
L 175.290581 28.737776 
L 175.306587 44.821081 
L 175.322605 26.848979 
L 175.402682 43.2339 
L 175.46673 40.15829 
L 175.546807 49.995073 
L 175.690945 34.215421 
L 175.738986 28.410743 
L 175.754992 36.856305 
L 175.787028 33.401726 
L 175.851088 57.031576 
L 175.915147 51.157024 
L 175.979207 49.490529 
L 176.011231 53.919737 
L 176.027249 51.244508 
L 176.091308 55.092318 
L 176.107314 53.685119 
L 176.267457 70.715789 
L 176.13935 53.541821 
L 176.283475 66.482221 
L 176.443618 41.987642 
L 176.475654 51.480935 
L 176.539713 56.249596 
L 176.555719 55.273946 
L 176.603773 61.88049 
L 176.667821 57.17838 
L 176.763916 50.524478 
L 176.715874 58.436151 
L 176.779934 53.14637 
L 176.876017 60.218359 
L 176.892035 36.361515 
L 176.988119 44.777795 
L 177.084202 51.881373 
L 177.020142 41.152522 
L 177.148262 48.445232 
L 177.16428 47.606701 
L 177.180298 48.822416 
L 177.212321 61.591623 
L 177.276381 48.851073 
L 177.292399 49.121479 
L 177.420506 56.671189 
L 177.548625 50.599251 
L 177.580661 51.85102 
L 177.676745 55.4514 
L 177.644709 47.294794 
L 177.708768 55.147987 
L 177.82087 51.284332 
L 177.740804 57.490652 
L 177.836888 52.071873 
L 177.852906 51.961859 
L 177.900947 59.770064 
L 177.965007 54.992645 
L 177.997031 53.60097 
L 178.013049 60.57316 
L 178.093126 50.024682 
L 178.141168 55.589592 
L 178.157174 53.381107 
L 178.173192 58.441391 
L 178.221233 44.482976 
L 178.253269 49.414167 
L 178.269275 49.717246 
L 178.301311 44.89767 
L 178.333335 50.017223 
L 178.381388 44.98938 
L 178.445436 54.195716 
L 178.525514 51.724109 
L 178.541532 51.711429 
L 178.557537 51.48371 
L 178.669639 44.958976 
L 178.701675 44.680619 
L 178.733698 46.237516 
L 178.765734 40.78088 
L 178.781752 46.280833 
L 178.8458 42.415747 
L 178.989937 58.692131 
L 179.005955 58.608933 
L 179.037979 60.852367 
L 179.134062 56.005414 
L 179.182116 61.038851 
L 179.246163 58.194895 
L 179.262181 59.263308 
L 179.310223 55.464723 
L 179.358264 58.045083 
L 179.438342 51.905995 
L 179.486384 49.643916 
L 179.470366 55.261058 
L 179.51842 52.338117 
L 179.550443 59.568241 
L 179.630521 54.299197 
L 179.646527 52.806519 
L 179.758628 73.507166 
L 179.774646 72.169054 
L 179.790664 57.137459 
L 179.886747 61.928151 
L 180.030885 49.671634 
L 180.04689 55.82941 
L 180.191028 65.513001 
L 180.207046 67.48777 
L 180.255087 61.155781 
L 180.271093 61.118013 
L 180.303129 59.203597 
L 180.351171 64.142682 
L 180.463272 57.218191 
L 180.41523 65.271203 
L 180.47929 59.463959 
L 180.591391 78.401957 
L 180.511314 58.535837 
L 180.607409 78.173115 
L 180.639433 79.516688 
L 180.671457 74.558958 
L 180.735516 76.042362 
L 180.767552 81.812203 
L 180.831612 73.585174 
L 180.863636 74.39774 
L 181.007773 62.426383 
L 181.039797 68.65008 
L 181.119874 66.139658 
L 181.151898 63.209201 
L 181.167916 64.771401 
L 181.183934 67.988732 
L 181.215958 60.947923 
L 181.247981 61.911556 
L 181.280017 55.568696 
L 181.296035 57.34195 
L 181.360082 72.075434 
L 181.424142 71.475284 
L 181.456178 67.938915 
L 181.472184 56.125258 
L 181.536243 81.80284 
L 181.552261 81.509628 
L 181.568279 85.968527 
L 181.616321 78.866708 
L 181.648345 80.699982 
L 181.664363 79.923633 
L 181.712404 80.595252 
L 181.936607 107.349419 
L 181.984661 105.055108 
L 182.000667 103.03286 
L 182.048708 107.397792 
L 182.064726 105.249573 
L 182.128786 107.953017 
L 182.16081 106.823797 
L 182.208864 103.347547 
L 182.240887 108.108062 
L 182.256905 105.875959 
L 182.288929 113.803944 
L 182.369007 112.017606 
L 182.433066 103.367043 
L 182.497126 105.680699 
L 182.513132 105.93193 
L 182.545168 101.28489 
L 182.625233 103.795729 
L 182.817412 91.805336 
L 182.657269 108.223133 
L 182.83343 96.86335 
L 182.849436 97.004593 
L 182.865454 98.258859 
L 182.881472 94.026078 
L 182.929513 97.052576 
L 182.961537 94.404946 
L 183.009591 99.653434 
L 183.025597 97.99414 
L 183.041615 97.582057 
L 183.073638 89.247505 
L 183.153716 93.781341 
L 183.185752 95.625838 
L 183.217776 90.213981 
L 183.233793 90.234959 
L 183.281835 94.86017 
L 183.329877 88.453779 
L 183.345895 89.815195 
L 183.393936 89.395665 
L 183.409954 85.314373 
L 183.474002 90.452615 
L 183.49002 89.593989 
L 183.506038 92.365857 
L 183.55408 86.259412 
L 183.570097 88.521396 
L 183.650163 81.251467 
L 183.682199 84.25388 
L 183.698217 84.445848 
L 183.714222 89.886122 
L 183.7943 86.866907 
L 183.85836 80.310616 
L 183.890383 82.559964 
L 183.906401 87.391646 
L 183.986479 78.835989 
L 184.018503 77.367693 
L 184.034521 78.556908 
L 184.082562 86.410592 
L 184.146622 80.322684 
L 184.290747 88.595879 
L 184.338789 97.263183 
L 184.402848 91.330957 
L 184.418866 91.044782 
L 184.51495 86.324753 
L 184.530968 90.254915 
L 184.546986 89.895889 
L 184.562991 90.788405 
L 184.595027 94.746657 
L 184.659087 89.63223 
L 184.707129 88.826789 
L 184.691111 90.967492 
L 184.723147 89.601871 
L 184.931331 109.177446 
L 184.995391 101.094908 
L 185.059451 105.372645 
L 185.075468 109.30251 
L 185.155534 104.759071 
L 185.267635 87.737178 
L 185.331695 95.835177 
L 185.395755 104.596435 
L 185.459814 98.642998 
L 185.523874 91.629679 
L 185.587933 96.093893 
L 185.651981 102.430441 
L 185.71604 101.665524 
L 185.748076 97.618022 
L 185.796118 102.215692 
L 185.812136 100.310293 
L 185.828142 102.313315 
L 185.860178 96.770001 
L 185.876196 97.199614 
L 185.908219 91.502269 
L 185.988297 94.665345 
L 186.004303 94.739173 
L 186.14844 83.356527 
L 186.068362 95.742383 
L 186.196482 86.775015 
L 186.244523 88.309887 
L 186.260541 86.434476 
L 186.356625 78.570584 
L 186.404666 78.707602 
L 186.484744 76.376122 
L 186.452708 80.865777 
L 186.516768 77.612241 
L 186.532786 78.169881 
L 186.628869 63.761847 
L 186.676923 65.751389 
L 186.853072 78.724778 
L 186.981191 65.935646 
L 186.997209 74.076042 
L 187.029233 60.186316 
L 187.093292 69.854345 
L 187.141334 75.653241 
L 187.157352 81.536293 
L 187.253435 78.918859 
L 187.317495 83.25548 
L 187.285471 76.975906 
L 187.333513 79.879591 
L 187.349531 76.933352 
L 187.397573 83.324724 
L 187.41359 82.465361 
L 187.573733 91.905255 
L 187.47765 80.8727 
L 187.605757 89.122132 
L 187.621775 87.456911 
L 187.669817 93.110094 
L 187.813954 105.957435 
L 187.845978 105.085574 
L 187.958079 97.162129 
L 188.006121 102.588317 
L 188.038157 105.25975 
L 188.070181 104.271955 
L 188.1983 98.141203 
L 188.310401 92.094178 
L 188.358443 95.241503 
L 188.390479 100.690359 
L 188.470544 95.43187 
L 188.486562 91.424015 
L 188.550622 100.953318 
L 188.582645 108.615014 
L 188.662723 103.212502 
L 188.758806 98.45188 
L 188.774824 97.073774 
L 188.85489 99.740446 
L 188.870908 100.082435 
L 188.886926 97.670103 
L 188.918949 101.11929 
L 188.966991 99.726764 
L 189.031051 102.101107 
L 188.999027 95.881079 
L 189.063087 99.237826 
L 189.079104 97.496009 
L 189.143152 99.685383 
L 189.175188 98.350871 
L 189.191206 98.75675 
L 189.22323 97.220093 
L 189.239248 97.460353 
L 189.415408 77.027382 
L 189.46345 77.574038 
L 189.479468 79.138532 
L 189.495474 77.501572 
L 189.52751 58.755441 
L 189.607575 64.860638 
L 189.623593 66.039229 
L 189.655617 60.657416 
L 189.879832 43.133111 
L 189.911856 47.52675 
L 189.959897 52.526864 
L 189.975915 44.904959 
L 190.007939 44.982393 
L 190.1841 58.235866 
L 190.216136 54.337703 
L 190.280195 58.604671 
L 190.296201 57.742861 
L 190.312219 57.639317 
L 190.392297 37.677704 
L 190.472362 40.571913 
L 190.648523 60.910829 
L 190.664541 60.36575 
L 190.79266 46.729342 
L 190.808666 51.96947 
L 190.904762 55.712745 
L 190.920767 54.281681 
L 190.936785 51.215908 
L 190.984827 55.659523 
L 191.016863 55.070445 
L 191.112946 63.130367 
L 191.14497 60.066466 
L 191.160988 56.933574 
L 191.225048 60.789416 
L 191.337149 75.849138 
L 191.369173 74.863462 
L 191.385191 74.971187 
L 191.44925 79.708057 
L 191.497292 75.482408 
L 191.529328 70.878634 
L 191.545334 76.001346 
L 191.593387 73.065858 
L 191.705489 78.683195 
L 191.721495 77.955352 
L 191.81759 66.135642 
L 191.833596 76.23032 
L 191.961715 87.010842 
L 192.041793 92.385063 
L 192.089834 89.954837 
L 192.105852 89.76737 
L 192.137876 83.456244 
L 192.217954 88.278897 
L 192.314037 81.314948 
L 192.265995 88.976652 
L 192.362079 84.816595 
L 192.458162 93.008454 
L 192.506216 89.615975 
L 192.570263 82.183763 
L 192.618317 83.997087 
L 192.650341 88.886096 
L 192.682377 82.758969 
L 192.826502 53.894945 
L 192.890562 54.928653 
L 192.938603 48.668001 
L 192.954621 58.025108 
L 193.034687 45.720684 
L 193.066723 54.020689 
L 193.082741 52.536466 
L 193.130782 55.501678 
L 193.146788 54.275124 
L 193.258889 67.86242 
L 193.274907 65.174916 
L 193.322949 58.621695 
L 193.387009 59.973874 
L 193.43505 68.925436 
L 193.419045 58.28731 
L 193.531146 64.605126 
L 193.547152 61.119469 
L 193.611211 69.317784 
L 193.675271 66.329754 
L 193.707307 70.585032 
L 193.739331 69.94289 
L 193.755349 72.645142 
L 193.835414 69.966698 
L 193.899474 63.713505 
L 193.931509 71.349697 
L 193.947515 71.161159 
L 193.963533 68.369732 
L 194.011575 76.381828 
L 194.043611 77.414806 
L 194.059617 73.534335 
L 194.075635 74.221749 
L 194.10767 72.418009 
L 194.155712 76.21892 
L 194.171718 81.770204 
L 194.203754 75.938786 
L 194.251796 75.943811 
L 194.315855 73.413155 
L 194.331873 76.192186 
L 194.363897 75.00958 
L 194.379915 74.001684 
L 194.411938 76.474673 
L 194.52404 82.949885 
L 194.572081 78.750591 
L 194.620135 81.218302 
L 194.636141 83.56552 
L 194.684195 79.628845 
L 194.732237 82.822583 
L 194.860344 78.837181 
L 194.76426 83.718075 
L 194.876362 79.165657 
L 194.908398 77.450209 
L 195.004481 83.242535 
L 195.036505 82.582133 
L 195.052523 82.554775 
L 195.084559 86.082916 
L 195.1326 81.381399 
L 195.180642 83.87819 
L 195.324767 78.086122 
L 195.420863 73.979849 
L 195.436868 77.492694 
L 195.500928 81.665525 
L 195.54897 84.347626 
L 195.532964 81.204897 
L 195.581006 83.00684 
L 195.613029 88.536364 
L 195.693107 86.686489 
L 195.725131 86.765941 
L 196.061435 68.206735 
L 196.22159 81.02436 
L 196.093471 68.125739 
L 196.253614 79.932448 
L 196.349697 72.671472 
L 196.381733 73.233053 
L 196.397751 82.427945 
L 196.413756 67.953001 
L 196.493834 75.437773 
L 196.541876 78.077768 
L 196.557894 75.249562 
L 196.573912 77.30838 
L 196.621953 67.279282 
L 196.702019 72.516673 
L 196.734055 67.641208 
L 196.766079 73.712899 
L 196.87818 82.262805 
L 196.81412 70.912619 
L 196.894198 79.537577 
L 196.910216 78.875044 
L 196.926221 80.064201 
L 196.974275 90.011584 
L 197.070359 86.739094 
L 197.134418 77.73199 
L 197.198478 79.961975 
L 197.230502 81.029322 
L 197.342603 69.704969 
L 197.358621 72.15575 
L 197.374639 73.415154 
L 197.390645 69.094636 
L 197.422681 69.62539 
L 197.550788 55.497088 
L 197.582824 55.658621 
L 197.726949 76.399514 
L 197.742967 74.853443 
L 197.791008 77.733597 
L 197.983187 93.596415 
L 198.047247 95.005499 
L 198.175366 82.240977 
L 198.255432 92.106662 
L 198.303473 91.055526 
L 198.479634 65.830879 
L 199.072177 99.714115 
L 199.120218 98.029368 
L 199.216302 90.483208 
L 199.23232 93.112849 
L 199.248338 92.816283 
L 199.392463 81.634491 
L 199.440504 85.947165 
L 199.47254 82.067155 
L 199.60066 69.322948 
L 199.648701 70.69007 
L 199.632683 68.69928 
L 199.680725 68.824287 
L 199.696743 68.960795 
L 199.840868 77.364667 
L 199.952969 60.437358 
L 200.033047 63.366415 
L 200.081089 67.48516 
L 200.097107 63.292096 
L 200.113125 65.085627 
L 200.12913 61.882274 
L 200.177184 72.41579 
L 200.225226 78.307479 
L 200.289285 73.565098 
L 200.305291 64.626469 
L 200.385369 73.094029 
L 200.577548 93.279597 
L 200.673631 106.136408 
L 200.705655 104.368589 
L 200.80175 105.668208 
L 200.737691 103.522624 
L 200.817756 105.536467 
L 200.977911 92.298473 
L 201.025953 83.778246 
L 201.106018 85.644092 
L 201.122036 81.129134 
L 201.186096 90.525364 
L 201.202114 87.383746 
L 201.266161 89.995953 
L 201.28218 86.78149 
L 201.330221 83.57716 
L 201.314215 87.779902 
L 201.378275 86.057084 
L 201.45834 91.366619 
L 201.410299 85.761892 
L 201.474358 89.404599 
L 201.538418 83.842231 
L 201.602478 85.493195 
L 201.618483 86.700733 
L 201.634501 82.570071 
L 201.682543 84.588661 
L 201.794644 70.540284 
L 201.82668 72.420102 
L 201.922764 81.188384 
L 201.970805 78.513723 
L 202.002841 75.36648 
L 202.050883 76.14269 
L 202.066889 79.561953 
L 202.114943 71.896486 
L 202.130948 72.626554 
L 202.146966 72.549315 
L 202.179002 76.133743 
L 202.195008 70.83045 
L 202.227044 66.535853 
L 202.275086 71.111555 
L 202.307109 69.107801 
L 202.387187 80.162102 
L 202.451247 76.74132 
L 202.467252 74.9827 
L 202.48327 77.727507 
L 202.499288 77.642645 
L 202.563348 85.605416 
L 202.61139 83.750957 
L 202.755515 75.993521 
L 202.771533 78.972554 
L 202.803568 68.863531 
L 202.85161 63.659898 
L 202.883634 69.811558 
L 202.931675 74.906924 
L 202.91567 69.559381 
L 202.995735 70.443656 
L 203.043777 65.548683 
L 203.075813 70.894561 
L 203.107836 70.135482 
L 203.251974 63.573491 
L 203.267979 64.556506 
L 203.380093 72.359856 
L 203.332039 61.909198 
L 203.396099 71.307982 
L 203.604296 38.069693 
L 203.668343 51.499334 
L 203.716397 44.701666 
L 204.020665 79.697156 
L 204.052701 76.120515 
L 204.116761 72.835673 
L 204.100743 76.150534 
L 204.18082 74.260091 
L 204.228862 75.694414 
L 204.244868 76.444817 
L 204.276904 72.868738 
L 204.324945 61.551181 
L 204.405023 64.501329 
L 204.437047 65.056302 
L 204.549148 52.611713 
L 204.693285 67.383703 
L 204.725309 70.878924 
L 204.805386 69.649174 
L 204.853428 67.902231 
L 204.869434 70.165426 
L 205.045595 87.313045 
L 205.061613 86.035917 
L 205.077631 87.22585 
L 205.125673 83.129495 
L 205.20575 75.604231 
L 205.237774 77.017564 
L 205.317851 83.069438 
L 205.365893 80.50416 
L 205.381911 81.317098 
L 205.397917 77.7374 
L 205.429953 78.221962 
L 205.445958 78.222744 
L 205.477994 80.328642 
L 205.574078 79.872516 
L 205.590096 78.071601 
L 205.638137 79.661594 
L 205.654155 84.379316 
L 205.734221 77.336451 
L 205.750239 78.836361 
L 205.766257 77.1116 
L 205.782275 78.534656 
L 205.894376 64.462571 
L 205.9264 64.685719 
L 205.974441 62.045258 
L 205.958423 64.748986 
L 206.006477 62.688264 
" clip-path="url(#p96c0ee43b2)" style="fill: none; stroke: #d55e00; stroke-width: 1.25; stroke-linecap: square"/>
   </g>
   <g id="patch_4">
    <path d="M 37.85375 131.718516 
L 37.85375 20.418516 
" style="fill: none; stroke: #000000; stroke-width: 0.8; stroke-linejoin: miter; stroke-linecap: square"/>
   </g>
   <g id="patch_5">
    <path d="M 37.85375 131.718516 
L 214.01375 131.718516 
" style="fill: none; stroke: #000000; stroke-width: 0.8; stroke-linejoin: miter; stroke-linecap: square"/>
   </g>
   <g id="text_13">
    <!-- drugs3003 rep2 -->
    <g transform="translate(88.060664 14.418516) scale(0.095 -0.095)">
     <defs>
      <path id="DejaVuSans-72" d="M 2631 2963 
Q 2534 3019 2420 3045 
Q 2306 3072 2169 3072 
Q 1681 3072 1420 2755 
Q 1159 2438 1159 1844 
L 1159 0 
L 581 0 
L 581 3500 
L 1159 3500 
L 1159 2956 
Q 1341 3275 1631 3429 
Q 1922 3584 2338 3584 
Q 2397 3584 2469 3576 
Q 2541 3569 2628 3553 
L 2631 2963 
z
" transform="scale(0.015625)"/>
      <path id="DejaVuSans-75" d="M 544 1381 
L 544 3500 
L 1119 3500 
L 1119 1403 
Q 1119 906 1312 657 
Q 1506 409 1894 409 
Q 2359 409 2629 706 
Q 2900 1003 2900 1516 
L 2900 3500 
L 3475 3500 
L 3475 0 
L 2900 0 
L 2900 538 
Q 2691 219 2414 64 
Q 2138 -91 1772 -91 
Q 1169 -91 856 284 
Q 544 659 544 1381 
z
M 1991 3584 
L 1991 3584 
z
" transform="scale(0.015625)"/>
      <path id="DejaVuSans-33" d="M 2597 2516 
Q 3050 2419 3304 2112 
Q 3559 1806 3559 1356 
Q 3559 666 3084 287 
Q 2609 -91 1734 -91 
Q 1441 -91 1130 -33 
Q 819 25 488 141 
L 488 750 
Q 750 597 1062 519 
Q 1375 441 1716 441 
Q 2309 441 2620 675 
Q 2931 909 2931 1356 
Q 2931 1769 2642 2001 
Q 2353 2234 1838 2234 
L 1294 2234 
L 1294 2753 
L 1863 2753 
Q 2328 2753 2575 2939 
Q 2822 3125 2822 3475 
Q 2822 3834 2567 4026 
Q 2313 4219 1838 4219 
Q 1578 4219 1281 4162 
Q 984 4106 628 3988 
L 628 4550 
Q 988 4650 1302 4700 
Q 1616 4750 1894 4750 
Q 2613 4750 3031 4423 
Q 3450 4097 3450 3541 
Q 3450 3153 3228 2886 
Q 3006 2619 2597 2516 
z
" transform="scale(0.015625)"/>
      <path id="DejaVuSans-70" d="M 1159 525 
L 1159 -1331 
L 581 -1331 
L 581 3500 
L 1159 3500 
L 1159 2969 
Q 1341 3281 1617 3432 
Q 1894 3584 2278 3584 
Q 2916 3584 3314 3078 
Q 3713 2572 3713 1747 
Q 3713 922 3314 415 
Q 2916 -91 2278 -91 
Q 1894 -91 1617 61 
Q 1341 213 1159 525 
z
M 3116 1747 
Q 3116 2381 2855 2742 
Q 2594 3103 2138 3103 
Q 1681 3103 1420 2742 
Q 1159 2381 1159 1747 
Q 1159 1113 1420 752 
Q 1681 391 2138 391 
Q 2594 391 2855 752 
Q 3116 1113 3116 1747 
z
" transform="scale(0.015625)"/>
     </defs>
     <use xlink:href="#DejaVuSans-64"/>
     <use xlink:href="#DejaVuSans-72" transform="translate(63.476562 0)"/>
     <use xlink:href="#DejaVuSans-75" transform="translate(104.589844 0)"/>
     <use xlink:href="#DejaVuSans-67" transform="translate(167.96875 0)"/>
     <use xlink:href="#DejaVuSans-73" transform="translate(231.445312 0)"/>
     <use xlink:href="#DejaVuSans-33" transform="translate(283.544922 0)"/>
     <use xlink:href="#DejaVuSans-30" transform="translate(347.167969 0)"/>
     <use xlink:href="#DejaVuSans-30" transform="translate(410.791016 0)"/>
     <use xlink:href="#DejaVuSans-33" transform="translate(474.414062 0)"/>
     <use xlink:href="#DejaVuSans-20" transform="translate(538.037109 0)"/>
     <use xlink:href="#DejaVuSans-72" transform="translate(569.824219 0)"/>
     <use xlink:href="#DejaVuSans-65" transform="translate(608.6875 0)"/>
     <use xlink:href="#DejaVuSans-70" transform="translate(670.210938 0)"/>
     <use xlink:href="#DejaVuSans-32" transform="translate(733.6875 0)"/>
    </g>
   </g>
  </g>
 </g>
 <defs>
  <clipPath id="p96c0ee43b2">
   <rect x="37.85375" y="20.418516" width="176.16" height="111.3"/>
  </clipPath>
 </defs>
</svg>
