<?xml version="1.0" encoding="utf-8" standalone="no"?>
<!DOCTYPE svg PUBLIC "-//W3C//DTD SVG 1.1//EN"
  "http://www.w3.org/Graphics/SVG/1.1/DTD/svg11.dtd">
<svg xmlns:xlink="http://www.w3.org/1999/xlink" width="226.01375pt" height="164.903516pt" viewBox="0 0 226.01375 164.903516" xmlns="http://www.w3.org/2000/svg" version="1.1">
 <metadata>
  <rdf:RDF xmlns:dc="http://purl.org/dc/elements/1.1/" xmlns:cc="http://creativecommons.org/ns#" xmlns:rdf="http://www.w3.org/1999/02/22-rdf-syntax-ns#">
   <cc:Work>
    <dc:type rdf:resource="http://purl.org/dc/dcmitype/StillImage"/>
    <dc:date>2026-05-24T13:54:10.790694</dc:date>
    <dc:format>image/svg+xml</dc:format>
    <dc:creator>
     <cc:Agent>
      <dc:title>Matplotlib v3.10.9, https://matplotlib.org/</dc:title>
     </cc:Agent>
    </dc:creator>
   </cc:Work>
  </rdf:RDF>
 </metadata>
 <defs>
  <style type="text/css">*{stroke-linejoin: round; stroke-linecap: butt}</style>
 </defs>
 <g id="figure_1">
  <g id="patch_1">
   <path d="M 0 164.903516 
L 226.01375 164.903516 
L 226.01375 0 
L 0 0 
z
" style="fill: #ffffff"/>
  </g>
  <g id="axes_1">
   <g id="patch_2">
    <path d="M 37.85375 131.718516 
L 218.81375 131.718516 
L 218.81375 20.418516 
L 37.85375 20.418516 
z
" style="fill: #ffffff"/>
   </g>
   <g id="patch_3">
    <path d="M 128.33375 131.718516 
L 210.588295 131.718516 
L 210.588295 20.418516 
L 128.33375 20.418516 
z
" clip-path="url(#p1887e91176)" style="fill: #bdbdbd; opacity: 0.18"/>
   </g>
   <g id="matplotlib.axis_1">
    <g id="xtick_1">
     <g id="line2d_1">
      <defs>
       <path id="md0d3d13fd0" d="M 0 0 
L 0 3 
" style="stroke: #000000; stroke-width: 0.7"/>
      </defs>
      <g>
       <use xlink:href="#md0d3d13fd0" x="46.079205" y="131.718516" style="stroke: #000000; stroke-width: 0.7"/>
      </g>
     </g>
     <g id="text_1">
      <!-- 0 -->
      <g transform="translate(43.693267 143.917344) scale(0.075 -0.075)">
       <defs>
        <path id="DejaVuSans-30" d="M 2034 4250 
Q 1547 4250 1301 3770 
Q 1056 3291 1056 2328 
Q 1056 1369 1301 889 
Q 1547 409 2034 409 
Q 2525 409 2770 889 
Q 3016 1369 3016 2328 
Q 3016 3291 2770 3770 
Q 2525 4250 2034 4250 
z
M 2034 4750 
Q 2819 4750 3233 4129 
Q 3647 3509 3647 2328 
Q 3647 1150 3233 529 
Q 2819 -91 2034 -91 
Q 1250 -91 836 529 
Q 422 1150 422 2328 
Q 422 3509 836 4129 
Q 1250 4750 2034 4750 
z
" transform="scale(0.015625)"/>
       </defs>
       <use xlink:href="#DejaVuSans-30"/>
      </g>
     </g>
    </g>
    <g id="xtick_2">
     <g id="line2d_2">
      <g>
       <use xlink:href="#md0d3d13fd0" x="78.981023" y="131.718516" style="stroke: #000000; stroke-width: 0.7"/>
      </g>
     </g>
     <g id="text_2">
      <!-- 20 -->
      <g transform="translate(74.209148 143.917344) scale(0.075 -0.075)">
       <defs>
        <path id="DejaVuSans-32" d="M 1228 531 
L 3431 531 
L 3431 0 
L 469 0 
L 469 531 
Q 828 903 1448 1529 
Q 2069 2156 2228 2338 
Q 2531 2678 2651 2914 
Q 2772 3150 2772 3378 
Q 2772 3750 2511 3984 
Q 2250 4219 1831 4219 
Q 1534 4219 1204 4116 
Q 875 4013 500 3803 
L 500 4441 
Q 881 4594 1212 4672 
Q 1544 4750 1819 4750 
Q 2544 4750 2975 4387 
Q 3406 4025 3406 3419 
Q 3406 3131 3298 2873 
Q 3191 2616 2906 2266 
Q 2828 2175 2409 1742 
Q 1991 1309 1228 531 
z
" transform="scale(0.015625)"/>
       </defs>
       <use xlink:href="#DejaVuSans-32"/>
       <use xlink:href="#DejaVuSans-30" transform="translate(63.623047 0)"/>
      </g>
     </g>
    </g>
    <g id="xtick_3">
     <g id="line2d_3">
      <g>
       <use xlink:href="#md0d3d13fd0" x="111.882841" y="131.718516" style="stroke: #000000; stroke-width: 0.7"/>
      </g>
     </g>
     <g id="text_3">
      <!-- 40 -->
      <g transform="translate(107.110966 143.917344) scale(0.075 -0.075)">
       <defs>
        <path id="DejaVuSans-34" d="M 2419 4116 
L 825 1625 
L 2419 1625 
L 2419 4116 
z
M 2253 4666 
L 3047 4666 
L 3047 1625 
L 3713 1625 
L 3713 1100 
L 3047 1100 
L 3047 0 
L 2419 0 
L 2419 1100 
L 313 1100 
L 313 1709 
L 2253 4666 
z
" transform="scale(0.015625)"/>
       </defs>
       <use xlink:href="#DejaVuSans-34"/>
       <use xlink:href="#DejaVuSans-30" transform="translate(63.623047 0)"/>
      </g>
     </g>
    </g>
    <g id="xtick_4">
     <g id="line2d_4">
      <g>
       <use xlink:href="#md0d3d13fd0" x="144.784659" y="131.718516" style="stroke: #000000; stroke-width: 0.7"/>
      </g>
     </g>
     <g id="text_4">
      <!-- 60 -->
      <g transform="translate(140.012784 143.917344) scale(0.075 -0.075)">
       <defs>
        <path id="DejaVuSans-36" d="M 2113 2584 
Q 1688 2584 1439 2293 
Q 1191 2003 1191 1497 
Q 1191 994 1439 701 
Q 1688 409 2113 409 
Q 2538 409 2786 701 
Q 3034 994 3034 1497 
Q 3034 2003 2786 2293 
Q 2538 2584 2113 2584 
z
M 3366 4563 
L 3366 3988 
Q 3128 4100 2886 4159 
Q 2644 4219 2406 4219 
Q 1781 4219 1451 3797 
Q 1122 3375 1075 2522 
Q 1259 2794 1537 2939 
Q 1816 3084 2150 3084 
Q 2853 3084 3261 2657 
Q 3669 2231 3669 1497 
Q 3669 778 3244 343 
Q 2819 -91 2113 -91 
Q 1303 -91 875 529 
Q 447 1150 447 2328 
Q 447 3434 972 4092 
Q 1497 4750 2381 4750 
Q 2619 4750 2861 4703 
Q 3103 4656 3366 4563 
z
" transform="scale(0.015625)"/>
       </defs>
       <use xlink:href="#DejaVuSans-36"/>
       <use xlink:href="#DejaVuSans-30" transform="translate(63.623047 0)"/>
      </g>
     </g>
    </g>
    <g id="xtick_5">
     <g id="line2d_5">
      <g>
       <use xlink:href="#md0d3d13fd0" x="177.686477" y="131.718516" style="stroke: #000000; stroke-width: 0.7"/>
      </g>
     </g>
     <g id="text_5">
      <!-- 80 -->
      <g transform="translate(172.914602 143.917344) scale(0.075 -0.075)">
       <defs>
        <path id="DejaVuSans-38" d="M 2034 2216 
Q 1584 2216 1326 1975 
Q 1069 1734 1069 1313 
Q 1069 891 1326 650 
Q 1584 409 2034 409 
Q 2484 409 2743 651 
Q 3003 894 3003 1313 
Q 3003 1734 2745 1975 
Q 2488 2216 2034 2216 
z
M 1403 2484 
Q 997 2584 770 2862 
Q 544 3141 544 3541 
Q 544 4100 942 4425 
Q 1341 4750 2034 4750 
Q 2731 4750 3128 4425 
Q 3525 4100 3525 3541 
Q 3525 3141 3298 2862 
Q 3072 2584 2669 2484 
Q 3125 2378 3379 2068 
Q 3634 1759 3634 1313 
Q 3634 634 3220 271 
Q 2806 -91 2034 -91 
Q 1263 -91 848 271 
Q 434 634 434 1313 
Q 434 1759 690 2068 
Q 947 2378 1403 2484 
z
M 1172 3481 
Q 1172 3119 1398 2916 
Q 1625 2713 2034 2713 
Q 2441 2713 2670 2916 
Q 2900 3119 2900 3481 
Q 2900 3844 2670 4047 
Q 2441 4250 2034 4250 
Q 1625 4250 1398 4047 
Q 1172 3844 1172 3481 
z
" transform="scale(0.015625)"/>
       </defs>
       <use xlink:href="#DejaVuSans-38"/>
       <use xlink:href="#DejaVuSans-30" transform="translate(63.623047 0)"/>
      </g>
     </g>
    </g>
    <g id="xtick_6">
     <g id="line2d_6">
      <g>
       <use xlink:href="#md0d3d13fd0" x="210.588295" y="131.718516" style="stroke: #000000; stroke-width: 0.7"/>
      </g>
     </g>
     <g id="text_6">
      <!-- 100 -->
      <g transform="translate(203.430483 143.917344) scale(0.075 -0.075)">
       <defs>
        <path id="DejaVuSans-31" d="M 794 531 
L 1825 531 
L 1825 4091 
L 703 3866 
L 703 4441 
L 1819 4666 
L 2450 4666 
L 2450 531 
L 3481 531 
L 3481 0 
L 794 0 
L 794 531 
z
" transform="scale(0.015625)"/>
       </defs>
       <use xlink:href="#DejaVuSans-31"/>
       <use xlink:href="#DejaVuSans-30" transform="translate(63.623047 0)"/>
       <use xlink:href="#DejaVuSans-30" transform="translate(127.246094 0)"/>
      </g>
     </g>
    </g>
    <g id="text_7">
     <!-- Time (ns) -->
     <g transform="translate(108.360742 155.935781) scale(0.085 -0.085)">
      <defs>
       <path id="DejaVuSans-54" d="M -19 4666 
L 3928 4666 
L 3928 4134 
L 2272 4134 
L 2272 0 
L 1638 0 
L 1638 4134 
L -19 4134 
L -19 4666 
z
" transform="scale(0.015625)"/>
       <path id="DejaVuSans-69" d="M 603 3500 
L 1178 3500 
L 1178 0 
L 603 0 
L 603 3500 
z
M 603 4863 
L 1178 4863 
L 1178 4134 
L 603 4134 
L 603 4863 
z
" transform="scale(0.015625)"/>
       <path id="DejaVuSans-6d" d="M 3328 2828 
Q 3544 3216 3844 3400 
Q 4144 3584 4550 3584 
Q 5097 3584 5394 3201 
Q 5691 2819 5691 2113 
L 5691 0 
L 5113 0 
L 5113 2094 
Q 5113 2597 4934 2840 
Q 4756 3084 4391 3084 
Q 3944 3084 3684 2787 
Q 3425 2491 3425 1978 
L 3425 0 
L 2847 0 
L 2847 2094 
Q 2847 2600 2669 2842 
Q 2491 3084 2119 3084 
Q 1678 3084 1418 2786 
Q 1159 2488 1159 1978 
L 1159 0 
L 581 0 
L 581 3500 
L 1159 3500 
L 1159 2956 
Q 1356 3278 1631 3431 
Q 1906 3584 2284 3584 
Q 2666 3584 2933 3390 
Q 3200 3197 3328 2828 
z
" transform="scale(0.015625)"/>
       <path id="DejaVuSans-65" d="M 3597 1894 
L 3597 1613 
L 953 1613 
Q 991 1019 1311 708 
Q 1631 397 2203 397 
Q 2534 397 2845 478 
Q 3156 559 3463 722 
L 3463 178 
Q 3153 47 2828 -22 
Q 2503 -91 2169 -91 
Q 1331 -91 842 396 
Q 353 884 353 1716 
Q 353 2575 817 3079 
Q 1281 3584 2069 3584 
Q 2775 3584 3186 3129 
Q 3597 2675 3597 1894 
z
M 3022 2063 
Q 3016 2534 2758 2815 
Q 2500 3097 2075 3097 
Q 1594 3097 1305 2825 
Q 1016 2553 972 2059 
L 3022 2063 
z
" transform="scale(0.015625)"/>
       <path id="DejaVuSans-20" transform="scale(0.015625)"/>
       <path id="DejaVuSans-28" d="M 1984 4856 
Q 1566 4138 1362 3434 
Q 1159 2731 1159 2009 
Q 1159 1288 1364 580 
Q 1569 -128 1984 -844 
L 1484 -844 
Q 1016 -109 783 600 
Q 550 1309 550 2009 
Q 550 2706 781 3412 
Q 1013 4119 1484 4856 
L 1984 4856 
z
" transform="scale(0.015625)"/>
       <path id="DejaVuSans-6e" d="M 3513 2113 
L 3513 0 
L 2938 0 
L 2938 2094 
Q 2938 2591 2744 2837 
Q 2550 3084 2163 3084 
Q 1697 3084 1428 2787 
Q 1159 2491 1159 1978 
L 1159 0 
L 581 0 
L 581 3500 
L 1159 3500 
L 1159 2956 
Q 1366 3272 1645 3428 
Q 1925 3584 2291 3584 
Q 2894 3584 3203 3211 
Q 3513 2838 3513 2113 
z
" transform="scale(0.015625)"/>
       <path id="DejaVuSans-73" d="M 2834 3397 
L 2834 2853 
Q 2591 2978 2328 3040 
Q 2066 3103 1784 3103 
Q 1356 3103 1142 2972 
Q 928 2841 928 2578 
Q 928 2378 1081 2264 
Q 1234 2150 1697 2047 
L 1894 2003 
Q 2506 1872 2764 1633 
Q 3022 1394 3022 966 
Q 3022 478 2636 193 
Q 2250 -91 1575 -91 
Q 1294 -91 989 -36 
Q 684 19 347 128 
L 347 722 
Q 666 556 975 473 
Q 1284 391 1588 391 
Q 1994 391 2212 530 
Q 2431 669 2431 922 
Q 2431 1156 2273 1281 
Q 2116 1406 1581 1522 
L 1381 1569 
Q 847 1681 609 1914 
Q 372 2147 372 2553 
Q 372 3047 722 3315 
Q 1072 3584 1716 3584 
Q 2034 3584 2315 3537 
Q 2597 3491 2834 3397 
z
" transform="scale(0.015625)"/>
       <path id="DejaVuSans-29" d="M 513 4856 
L 1013 4856 
Q 1481 4119 1714 3412 
Q 1947 2706 1947 2009 
Q 1947 1309 1714 600 
Q 1481 -109 1013 -844 
L 513 -844 
Q 928 -128 1133 580 
Q 1338 1288 1338 2009 
Q 1338 2731 1133 3434 
Q 928 4138 513 4856 
z
" transform="scale(0.015625)"/>
      </defs>
      <use xlink:href="#DejaVuSans-54"/>
      <use xlink:href="#DejaVuSans-69" transform="translate(57.958984 0)"/>
      <use xlink:href="#DejaVuSans-6d" transform="translate(85.742188 0)"/>
      <use xlink:href="#DejaVuSans-65" transform="translate(183.154297 0)"/>
      <use xlink:href="#DejaVuSans-20" transform="translate(244.677734 0)"/>
      <use xlink:href="#DejaVuSans-28" transform="translate(276.464844 0)"/>
      <use xlink:href="#DejaVuSans-6e" transform="translate(315.478516 0)"/>
      <use xlink:href="#DejaVuSans-73" transform="translate(378.857422 0)"/>
      <use xlink:href="#DejaVuSans-29" transform="translate(430.957031 0)"/>
     </g>
    </g>
   </g>
   <g id="matplotlib.axis_2">
    <g id="ytick_1">
     <g id="line2d_7">
      <defs>
       <path id="ma96e0adf93" d="M 0 0 
L -3 0 
" style="stroke: #000000; stroke-width: 0.7"/>
      </defs>
      <g>
       <use xlink:href="#ma96e0adf93" x="37.85375" y="129.027954" style="stroke: #000000; stroke-width: 0.7"/>
      </g>
     </g>
     <g id="text_8">
      <!-- 3.4 -->
      <g transform="translate(19.426406 131.877368) scale(0.075 -0.075)">
       <defs>
        <path id="DejaVuSans-33" d="M 2597 2516 
Q 3050 2419 3304 2112 
Q 3559 1806 3559 1356 
Q 3559 666 3084 287 
Q 2609 -91 1734 -91 
Q 1441 -91 1130 -33 
Q 819 25 488 141 
L 488 750 
Q 750 597 1062 519 
Q 1375 441 1716 441 
Q 2309 441 2620 675 
Q 2931 909 2931 1356 
Q 2931 1769 2642 2001 
Q 2353 2234 1838 2234 
L 1294 2234 
L 1294 2753 
L 1863 2753 
Q 2328 2753 2575 2939 
Q 2822 3125 2822 3475 
Q 2822 3834 2567 4026 
Q 2313 4219 1838 4219 
Q 1578 4219 1281 4162 
Q 984 4106 628 3988 
L 628 4550 
Q 988 4650 1302 4700 
Q 1616 4750 1894 4750 
Q 2613 4750 3031 4423 
Q 3450 4097 3450 3541 
Q 3450 3153 3228 2886 
Q 3006 2619 2597 2516 
z
" transform="scale(0.015625)"/>
        <path id="DejaVuSans-2e" d="M 684 794 
L 1344 794 
L 1344 0 
L 684 0 
L 684 794 
z
" transform="scale(0.015625)"/>
       </defs>
       <use xlink:href="#DejaVuSans-33"/>
       <use xlink:href="#DejaVuSans-2e" transform="translate(63.623047 0)"/>
       <use xlink:href="#DejaVuSans-34" transform="translate(95.410156 0)"/>
      </g>
     </g>
    </g>
    <g id="ytick_2">
     <g id="line2d_8">
      <g>
       <use xlink:href="#ma96e0adf93" x="37.85375" y="111.319321" style="stroke: #000000; stroke-width: 0.7"/>
      </g>
     </g>
     <g id="text_9">
      <!-- 3.6 -->
      <g transform="translate(19.426406 114.168735) scale(0.075 -0.075)">
       <use xlink:href="#DejaVuSans-33"/>
       <use xlink:href="#DejaVuSans-2e" transform="translate(63.623047 0)"/>
       <use xlink:href="#DejaVuSans-36" transform="translate(95.410156 0)"/>
      </g>
     </g>
    </g>
    <g id="ytick_3">
     <g id="line2d_9">
      <g>
       <use xlink:href="#ma96e0adf93" x="37.85375" y="93.610688" style="stroke: #000000; stroke-width: 0.7"/>
      </g>
     </g>
     <g id="text_10">
      <!-- 3.8 -->
      <g transform="translate(19.426406 96.460102) scale(0.075 -0.075)">
       <use xlink:href="#DejaVuSans-33"/>
       <use xlink:href="#DejaVuSans-2e" transform="translate(63.623047 0)"/>
       <use xlink:href="#DejaVuSans-38" transform="translate(95.410156 0)"/>
      </g>
     </g>
    </g>
    <g id="ytick_4">
     <g id="line2d_10">
      <g>
       <use xlink:href="#ma96e0adf93" x="37.85375" y="75.902054" style="stroke: #000000; stroke-width: 0.7"/>
      </g>
     </g>
     <g id="text_11">
      <!-- 4.0 -->
      <g transform="translate(19.426406 78.751469) scale(0.075 -0.075)">
       <use xlink:href="#DejaVuSans-34"/>
       <use xlink:href="#DejaVuSans-2e" transform="translate(63.623047 0)"/>
       <use xlink:href="#DejaVuSans-30" transform="translate(95.410156 0)"/>
      </g>
     </g>
    </g>
    <g id="ytick_5">
     <g id="line2d_11">
      <g>
       <use xlink:href="#ma96e0adf93" x="37.85375" y="58.193421" style="stroke: #000000; stroke-width: 0.7"/>
      </g>
     </g>
     <g id="text_12">
      <!-- 4.2 -->
      <g transform="translate(19.426406 61.042835) scale(0.075 -0.075)">
       <use xlink:href="#DejaVuSans-34"/>
       <use xlink:href="#DejaVuSans-2e" transform="translate(63.623047 0)"/>
       <use xlink:href="#DejaVuSans-32" transform="translate(95.410156 0)"/>
      </g>
     </g>
    </g>
    <g id="ytick_6">
     <g id="line2d_12">
      <g>
       <use xlink:href="#ma96e0adf93" x="37.85375" y="40.484788" style="stroke: #000000; stroke-width: 0.7"/>
      </g>
     </g>
     <g id="text_13">
      <!-- 4.4 -->
      <g transform="translate(19.426406 43.334202) scale(0.075 -0.075)">
       <use xlink:href="#DejaVuSans-34"/>
       <use xlink:href="#DejaVuSans-2e" transform="translate(63.623047 0)"/>
       <use xlink:href="#DejaVuSans-34" transform="translate(95.410156 0)"/>
      </g>
     </g>
    </g>
    <g id="ytick_7">
     <g id="line2d_13">
      <g>
       <use xlink:href="#ma96e0adf93" x="37.85375" y="22.776155" style="stroke: #000000; stroke-width: 0.7"/>
      </g>
     </g>
     <g id="text_14">
      <!-- 4.6 -->
      <g transform="translate(19.426406 25.625569) scale(0.075 -0.075)">
       <use xlink:href="#DejaVuSans-34"/>
       <use xlink:href="#DejaVuSans-2e" transform="translate(63.623047 0)"/>
       <use xlink:href="#DejaVuSans-36" transform="translate(95.410156 0)"/>
      </g>
     </g>
    </g>
    <g id="text_15">
     <!-- Rg (nm) -->
     <g transform="translate(13.658672 93.219922) rotate(-90) scale(0.085 -0.085)">
      <defs>
       <path id="DejaVuSans-52" d="M 2841 2188 
Q 3044 2119 3236 1894 
Q 3428 1669 3622 1275 
L 4263 0 
L 3584 0 
L 2988 1197 
Q 2756 1666 2539 1819 
Q 2322 1972 1947 1972 
L 1259 1972 
L 1259 0 
L 628 0 
L 628 4666 
L 2053 4666 
Q 2853 4666 3247 4331 
Q 3641 3997 3641 3322 
Q 3641 2881 3436 2590 
Q 3231 2300 2841 2188 
z
M 1259 4147 
L 1259 2491 
L 2053 2491 
Q 2509 2491 2742 2702 
Q 2975 2913 2975 3322 
Q 2975 3731 2742 3939 
Q 2509 4147 2053 4147 
L 1259 4147 
z
" transform="scale(0.015625)"/>
       <path id="DejaVuSans-67" d="M 2906 1791 
Q 2906 2416 2648 2759 
Q 2391 3103 1925 3103 
Q 1463 3103 1205 2759 
Q 947 2416 947 1791 
Q 947 1169 1205 825 
Q 1463 481 1925 481 
Q 2391 481 2648 825 
Q 2906 1169 2906 1791 
z
M 3481 434 
Q 3481 -459 3084 -895 
Q 2688 -1331 1869 -1331 
Q 1566 -1331 1297 -1286 
Q 1028 -1241 775 -1147 
L 775 -588 
Q 1028 -725 1275 -790 
Q 1522 -856 1778 -856 
Q 2344 -856 2625 -561 
Q 2906 -266 2906 331 
L 2906 616 
Q 2728 306 2450 153 
Q 2172 0 1784 0 
Q 1141 0 747 490 
Q 353 981 353 1791 
Q 353 2603 747 3093 
Q 1141 3584 1784 3584 
Q 2172 3584 2450 3431 
Q 2728 3278 2906 2969 
L 2906 3500 
L 3481 3500 
L 3481 434 
z
" transform="scale(0.015625)"/>
      </defs>
      <use xlink:href="#DejaVuSans-52"/>
      <use xlink:href="#DejaVuSans-67" transform="translate(69.482422 0)"/>
      <use xlink:href="#DejaVuSans-20" transform="translate(132.958984 0)"/>
      <use xlink:href="#DejaVuSans-28" transform="translate(164.746094 0)"/>
      <use xlink:href="#DejaVuSans-6e" transform="translate(203.759766 0)"/>
      <use xlink:href="#DejaVuSans-6d" transform="translate(267.138672 0)"/>
      <use xlink:href="#DejaVuSans-29" transform="translate(364.550781 0)"/>
     </g>
    </g>
   </g>
   <g id="line2d_14">
    <path d="M 46.079205 102.996263 
L 46.194361 109.058814 
L 46.210812 107.423422 
L 46.441125 91.785813 
L 46.523379 94.102102 
L 46.671437 108.616098 
L 46.786594 99.611258 
L 46.803045 102.354325 
L 46.819495 103.65591 
L 46.868848 98.961351 
L 47.132063 81.959292 
L 47.26367 93.221098 
L 47.164965 80.904743 
L 47.329474 87.41975 
L 47.345925 87.25683 
L 47.411728 91.914201 
L 47.378826 86.156239 
L 47.44463 89.005558 
L 48.152019 25.477607 
L 48.201372 30.490921 
L 48.250725 41.418918 
L 48.365881 36.470241 
L 48.464586 30.013673 
L 48.612645 51.234814 
L 48.760703 64.653531 
L 48.810055 62.116769 
L 48.974565 87.770381 
L 49.204877 67.613529 
L 49.303583 70.886084 
L 49.336485 73.318365 
L 49.385837 69.487987 
L 49.418739 72.192096 
L 49.566797 64.629624 
L 49.451641 73.063361 
L 49.583248 67.042425 
L 49.632601 78.04657 
L 49.714855 74.319788 
L 49.879365 63.917737 
L 49.780659 76.914988 
L 49.895815 65.594744 
L 49.994521 74.736826 
L 49.945168 64.832388 
L 50.043874 72.976588 
L 50.191932 60.506169 
L 50.076775 73.398054 
L 50.241285 61.635094 
L 50.323539 60.956853 
L 50.438695 74.120566 
L 50.471597 80.613436 
L 50.586754 66.968049 
L 50.685459 74.558855 
L 50.718361 71.783912 
L 50.734812 70.956919 
L 50.751263 71.644014 
L 50.88287 83.586716 
L 51.096732 108.274322 
L 50.932223 83.17499 
L 51.146085 100.656953 
L 51.162535 97.69784 
L 51.228339 103.298196 
L 51.310594 111.306925 
L 51.359946 106.009387 
L 51.590259 94.77503 
L 51.639612 97.840395 
L 51.656063 102.85548 
L 51.738317 100.030067 
L 51.771219 92.357802 
L 51.853474 95.898643 
L 51.886375 93.326464 
L 51.952179 104.113678 
L 51.96863 109.734398 
L 52.017983 101.559208 
L 52.050885 102.758082 
L 52.067335 102.220625 
L 52.215394 116.467221 
L 52.231845 116.265342 
L 52.248295 112.899817 
L 52.297648 122.753786 
L 52.33055 126.659425 
L 52.412805 125.283464 
L 52.560863 119.803527 
L 52.643117 123.378015 
L 52.676019 122.021534 
L 52.807626 116.18831 
L 52.889881 114.506875 
L 52.922783 120.135564 
L 52.955685 120.944849 
L 53.103743 102.280835 
L 53.120194 101.073106 
L 53.136645 106.741639 
L 53.169546 104.996454 
L 53.202448 111.023587 
L 53.268252 103.164495 
L 53.284703 106.034179 
L 53.317605 100.839352 
L 53.350506 109.507728 
L 53.366957 114.712295 
L 53.432761 102.326877 
L 53.482114 90.47626 
L 53.580819 94.048091 
L 53.59727 95.698536 
L 53.630172 90.764025 
L 53.646623 87.36928 
L 53.695975 98.893173 
L 53.728877 99.718395 
L 53.761779 102.252501 
L 53.77823 101.108523 
L 53.827583 92.29228 
L 53.893386 93.127242 
L 53.926288 96.398027 
L 53.95919 95.508168 
L 53.975641 89.590828 
L 54.057895 93.777149 
L 54.123699 102.676623 
L 54.238855 102.639434 
L 54.403365 73.913375 
L 54.485619 81.057038 
L 54.551423 80.410673 
L 54.68303 72.095584 
L 54.765285 73.396283 
L 54.732383 71.149057 
L 54.798186 72.710959 
L 54.831088 68.346666 
L 54.896892 69.4933 
L 54.913343 73.807123 
L 54.995597 68.722975 
L 55.22591 80.906514 
L 55.258812 76.824674 
L 55.275263 84.125058 
L 55.291714 84.060422 
L 55.308165 82.53925 
L 55.324615 84.791788 
L 55.341066 84.777621 
L 55.373968 91.800865 
L 55.423321 79.702327 
L 55.439772 81.731737 
L 55.472674 79.279976 
L 55.489125 79.630607 
L 55.604281 66.543927 
L 55.620732 67.980983 
L 55.670085 73.349355 
L 55.702986 67.504621 
L 55.719437 68.296196 
L 55.735888 68.244841 
L 55.916848 85.688731 
L 55.966201 85.042366 
L 56.032005 91.500704 
L 56.081357 97.442836 
L 56.114259 89.248166 
L 56.278768 76.77509 
L 56.344572 77.179732 
L 56.377474 73.890354 
L 56.393925 77.97485 
L 56.459728 73.224509 
L 56.476179 68.977093 
L 56.541983 78.439702 
L 56.558434 73.437013 
L 56.657139 79.10289 
L 56.690041 78.18027 
L 56.788746 71.614794 
L 56.722943 81.369595 
L 56.821648 75.931274 
L 56.903903 75.454911 
L 56.936805 79.080754 
L 57.03551 66.762629 
L 57.117765 67.530298 
L 57.183568 69.311787 
L 57.150666 65.439794 
L 57.232921 68.625577 
L 57.265823 69.24715 
L 57.298725 63.987686 
L 57.348077 58.984997 
L 57.413881 60.17059 
L 57.430332 60.260904 
L 57.463234 55.437072 
L 57.545488 58.947809 
L 57.561939 59.549017 
L 57.709997 41.141778 
L 57.726448 43.007383 
L 57.792252 47.078597 
L 57.808703 42.490291 
L 57.841605 39.204454 
L 57.874506 48.111011 
L 57.989663 64.959005 
L 58.022565 62.444379 
L 58.104819 55.705358 
L 58.055466 63.030534 
L 58.154172 57.65685 
L 58.170623 59.270991 
L 58.219975 53.948662 
L 58.30223 46.711143 
L 58.335132 48.40586 
L 58.384485 56.837825 
L 58.466739 54.84826 
L 58.581895 46.828906 
L 58.598346 48.271274 
L 58.614797 48.599769 
L 58.631248 47.806422 
L 58.713503 63.17486 
L 58.762855 57.295593 
L 58.779306 57.310646 
L 58.828659 60.126318 
L 58.910914 58.787546 
L 58.927365 54.268303 
L 58.976717 61.971558 
L 58.993168 60.945343 
L 59.042521 65.702767 
L 59.075423 59.480839 
L 59.108325 62.648913 
L 59.174128 64.294931 
L 59.355088 54.705706 
L 59.371539 56.839596 
L 59.437343 53.611312 
L 59.470245 57.147726 
L 59.552499 50.615897 
L 59.56895 52.014879 
L 59.618303 48.309347 
L 59.684106 44.008806 
L 59.733459 45.661907 
L 59.74991 48.100386 
L 59.766361 44.704755 
L 59.799263 44.846424 
L 59.815714 39.018513 
L 59.897968 47.734702 
L 59.93087 45.285598 
L 60.013125 50.090836 
L 60.144732 45.876181 
L 60.161183 45.116481 
L 60.177634 47.701941 
L 60.194085 46.247177 
L 60.29279 54.377211 
L 60.325692 53.430684 
L 60.375045 47.430114 
L 60.440848 52.554992 
L 60.506652 58.322694 
L 60.556005 53.887567 
L 60.605357 55.791245 
L 60.621808 55.290976 
L 60.753415 47.016617 
L 60.769866 47.208756 
L 60.868572 58.250974 
L 60.901474 55.509678 
L 60.917925 53.902619 
L 60.967277 57.249551 
L 60.983728 56.216252 
L 61.033081 53.927411 
L 61.098885 60.302519 
L 61.164688 54.460441 
L 61.230492 57.798519 
L 61.279845 57.096371 
L 61.345648 62.388596 
L 61.362099 59.2887 
L 61.444354 61.245504 
L 61.543059 68.025254 
L 61.55951 64.019562 
L 61.575961 63.24658 
L 61.625314 65.824957 
L 61.658215 64.169199 
L 61.674666 65.64787 
L 61.724019 63.498928 
L 61.756921 58.192536 
L 61.822725 64.493267 
L 61.872077 58.881402 
L 61.888528 59.600372 
L 62.003685 50.948819 
L 62.020135 52.316811 
L 62.036586 53.314693 
L 62.085939 50.165212 
L 62.10239 49.121288 
L 62.118841 51.366743 
L 62.250448 59.608341 
L 62.266899 56.419016 
L 62.349154 61.995465 
L 62.365605 58.822078 
L 62.46431 59.156771 
L 62.563015 51.067467 
L 62.612368 64.186908 
L 62.678172 53.536051 
L 62.694623 53.157086 
L 62.711074 53.973454 
L 62.82623 66.79539 
L 62.859132 63.960238 
L 62.875583 64.536654 
L 62.892034 63.269601 
L 62.908485 64.235607 
L 63.023641 51.016998 
L 63.072994 55.416707 
L 63.138797 48.686541 
L 63.253954 50.144847 
L 63.270405 50.121826 
L 63.286855 50.305996 
L 63.319757 46.515463 
L 63.402012 47.870173 
L 63.582972 60.764715 
L 63.599423 58.392643 
L 63.665226 54.627788 
L 63.681677 58.971716 
L 63.698128 59.084165 
L 63.747481 64.755355 
L 63.796834 62.069841 
L 63.829735 56.162241 
L 63.91199 59.410004 
L 63.928441 60.825809 
L 63.977794 55.551293 
L 64.010695 53.772461 
L 64.027146 57.538202 
L 64.109401 63.681327 
L 64.142303 59.132864 
L 64.158754 57.041475 
L 64.191655 62.876469 
L 64.241008 59.440994 
L 64.257459 61.8414 
L 64.306812 58.756556 
L 64.323263 58.802598 
L 64.339714 55.920518 
L 64.421968 59.587976 
L 64.471321 64.281649 
L 64.537125 63.056212 
L 64.586477 61.861765 
L 64.570026 63.715858 
L 64.602928 63.481219 
L 64.63583 66.42705 
L 64.685183 61.43233 
L 64.718085 64.902337 
L 64.866143 51.581017 
L 65.014201 56.319848 
L 65.162259 50.364434 
L 65.310317 57.762216 
L 65.343219 55.464521 
L 65.392572 51.439348 
L 65.441925 55.390145 
L 65.573532 64.397641 
L 65.589983 63.091629 
L 65.622885 58.494468 
L 65.672237 65.56464 
L 65.688688 64.209929 
L 65.754492 68.013744 
L 65.787394 67.935826 
L 65.886099 61.284463 
L 65.90255 61.334047 
L 66.001255 68.199684 
L 66.017706 66.352674 
L 66.116412 60.499085 
L 66.132863 62.098175 
L 66.198666 66.319913 
L 66.248019 63.242153 
L 66.26447 64.997964 
L 66.297372 61.691762 
L 66.330274 62.934022 
L 66.478332 53.530738 
L 66.396077 64.069146 
L 66.494783 55.252017 
L 66.609939 59.672977 
L 66.62639 58.218213 
L 66.659292 54.488775 
L 66.708645 61.225139 
L 66.741546 59.631362 
L 66.790899 53.67772 
L 66.823801 60.223716 
L 66.840252 60.844404 
L 66.856703 57.570077 
L 66.873154 57.385907 
L 66.971859 66.033033 
L 67.004761 65.984334 
L 67.054114 66.02595 
L 67.103466 64.072687 
L 67.119917 67.765823 
L 67.185721 59.170938 
L 67.465386 75.013081 
L 67.564092 69.256004 
L 67.596994 70.837385 
L 67.646346 67.412536 
L 67.662797 70.250344 
L 67.728601 74.715576 
L 67.777954 72.685281 
L 67.876659 66.990185 
L 67.89311 69.273713 
L 67.909561 71.713077 
L 67.975365 66.075534 
L 67.991815 63.576846 
L 68.041168 67.97567 
L 68.090521 65.063485 
L 68.189226 70.546964 
L 68.205677 65.848863 
L 68.287932 67.035342 
L 68.25503 63.517522 
L 68.320834 66.728982 
L 68.370186 58.319152 
L 68.43599 63.288195 
L 68.452441 63.900914 
L 68.485343 61.040969 
L 68.518245 63.27757 
L 68.551146 59.69954 
L 68.584048 65.033381 
L 68.682754 63.715858 
L 68.699205 64.714625 
L 68.715655 61.168472 
L 68.765008 56.696156 
L 68.79791 63.560908 
L 68.814361 62.957929 
L 68.830812 63.195225 
L 68.929517 68.939905 
L 68.945968 68.715891 
L 68.995321 63.943414 
L 69.044674 67.530298 
L 69.077575 69.468508 
L 69.110477 67.034456 
L 69.15983 69.212618 
L 69.209183 65.756778 
L 69.192732 70.01659 
L 69.242085 69.402101 
L 69.373692 73.340501 
L 69.439495 65.033381 
L 69.488848 66.397831 
L 69.587554 71.798079 
L 69.604005 68.385625 
L 69.620455 66.777681 
L 69.686259 67.492225 
L 69.801415 76.155288 
L 69.719161 67.08227 
L 69.834317 74.992716 
L 69.867219 78.982471 
L 69.916572 72.78622 
L 69.933023 73.263468 
L 69.949474 72.265587 
L 70.048179 67.64806 
L 70.06463 68.713235 
L 70.081081 70.060862 
L 70.113983 65.427398 
L 70.229139 59.961628 
L 70.24559 60.833778 
L 70.262041 60.01741 
L 70.278492 62.313335 
L 70.42655 73.388314 
L 70.443001 70.015705 
L 70.525255 75.320326 
L 70.541706 71.807818 
L 70.574608 73.583109 
L 70.60751 71.415572 
L 70.623961 73.111174 
L 70.689765 74.019627 
L 70.739117 67.897752 
L 70.755568 71.945946 
L 70.821372 66.545698 
L 70.837823 63.025222 
L 70.903626 69.000115 
L 70.920077 66.892787 
L 70.936528 71.087963 
L 71.018783 64.985567 
L 71.199743 79.624409 
L 71.281997 70.515974 
L 71.33135 72.29215 
L 71.430055 67.362951 
L 71.446506 69.55528 
L 71.545212 77.080564 
L 71.479408 68.307707 
L 71.561663 76.740558 
L 71.611015 72.584342 
L 71.643917 78.966533 
L 71.709721 83.295409 
L 71.841328 92.574733 
L 71.972935 82.518 
L 71.989386 84.249904 
L 72.071641 88.355651 
L 72.022288 82.555188 
L 72.120994 86.607809 
L 72.384208 73.336959 
L 72.433561 75.01131 
L 72.450012 76.707797 
L 72.499365 71.837923 
L 72.565168 64.18071 
L 72.680325 64.899681 
L 72.861285 76.045494 
L 72.976441 65.446877 
L 73.009343 66.890131 
L 73.025794 68.738912 
L 73.091597 63.832735 
L 73.108048 63.971748 
L 73.190303 59.213438 
L 73.223205 60.952426 
L 73.354812 67.351441 
L 73.371263 67.365608 
L 73.387714 69.827108 
L 73.437066 64.655301 
L 73.469968 67.522329 
L 73.486419 67.908377 
L 73.50287 66.522677 
L 73.519321 66.66346 
L 73.601575 61.434986 
L 73.634477 63.575075 
L 73.68383 70.033413 
L 73.766085 67.384202 
L 73.848339 59.153229 
L 73.914143 61.440299 
L 73.947045 64.904993 
L 74.012848 61.036542 
L 74.128005 65.861259 
L 74.22671 57.525806 
L 74.259612 57.599297 
L 74.276063 58.195192 
L 74.341866 53.544019 
L 74.325415 58.789317 
L 74.358317 57.218561 
L 74.457023 64.172741 
L 74.473474 64.123157 
L 74.489925 60.352104 
L 74.555728 64.66327 
L 74.572179 63.361686 
L 74.736688 76.522742 
L 74.753139 77.62599 
L 74.786041 74.739483 
L 74.95055 60.870967 
L 74.983452 62.368231 
L 75.098608 67.330191 
L 75.13151 63.91331 
L 75.197314 66.84763 
L 75.279568 72.700334 
L 75.296019 69.742992 
L 75.427626 59.508287 
L 75.444077 60.316686 
L 75.575685 66.755545 
L 75.67439 62.583391 
L 75.707292 62.9597 
L 75.789546 69.125846 
L 75.838899 65.879853 
L 75.888252 66.774139 
L 76.003408 59.012445 
L 76.184368 66.506739 
L 76.200819 66.098555 
L 76.283074 60.823153 
L 76.315975 64.253315 
L 76.414681 60.030692 
L 76.381779 64.393214 
L 76.431132 61.962704 
L 76.447583 61.774992 
L 76.464034 62.965898 
L 76.513386 60.081161 
L 76.546288 61.351756 
L 76.595641 61.736033 
L 76.644994 59.599487 
L 76.661445 63.237725 
L 76.727248 55.610617 
L 76.743699 55.764682 
L 76.76015 55.353842 
L 76.776601 55.417593 
L 76.825954 60.20158 
L 76.875306 56.691729 
L 76.891757 56.248128 
L 76.908208 58.001282 
L 76.990463 61.443841 
L 76.957561 55.284778 
L 77.023365 59.526881 
L 77.072717 61.450924 
L 77.138521 53.807878 
L 77.154972 58.449311 
L 77.220775 53.511259 
L 77.253677 57.161008 
L 77.270128 55.525616 
L 77.30303 59.141718 
L 77.319481 58.810567 
L 77.335932 62.843708 
L 77.385285 58.625512 
L 77.418186 58.905308 
L 77.434637 58.212901 
L 77.48399 60.310488 
L 77.566245 66.923777 
L 77.582695 63.415697 
L 77.599146 61.178211 
L 77.681401 62.22125 
L 77.747205 69.188712 
L 77.796557 67.085811 
L 77.813008 62.56037 
L 77.878812 67.62681 
L 77.895263 65.778029 
L 77.911714 70.315866 
L 77.977517 64.920931 
L 77.993968 66.014439 
L 78.142026 60.711589 
L 78.02687 67.713582 
L 78.174928 61.05248 
L 78.20783 60.445074 
L 78.224281 61.42082 
L 78.257183 60.492887 
L 78.273634 62.538234 
L 78.306535 57.870239 
L 78.372339 61.690876 
L 78.38879 61.352641 
L 78.405241 62.430212 
L 78.421692 61.699731 
L 78.438143 63.870809 
L 78.471045 60.0484 
L 78.520397 61.798013 
L 78.536848 62.200885 
L 78.586201 60.880706 
L 78.619103 58.228838 
L 78.668455 62.949075 
L 78.684906 61.243733 
L 78.701357 62.719748 
L 78.783612 60.673515 
L 78.832965 61.705043 
L 78.849415 62.516984 
L 78.882317 59.024841 
L 78.898768 60.008556 
L 78.915219 58.881402 
L 78.964572 61.859994 
L 79.096179 65.337969 
L 79.046826 61.332276 
L 79.11263 64.540195 
L 79.178434 57.722372 
L 79.244237 58.87786 
L 79.359394 64.619884 
L 79.392295 64.532226 
L 79.47455 59.137291 
L 79.507452 61.364152 
L 79.540354 66.541271 
L 79.639059 63.195225 
L 79.704863 60.891331 
L 79.737765 63.577731 
L 79.770666 63.01194 
L 79.803568 67.952649 
L 79.885823 64.251545 
L 79.902274 64.361338 
L 79.984528 58.140295 
L 80.000979 64.044354 
L 80.01743 67.154875 
L 80.116135 66.576688 
L 80.247743 61.417278 
L 80.264194 63.207621 
L 80.280645 66.708617 
L 80.362899 65.200727 
L 80.37935 62.763134 
L 80.445154 64.566758 
L 80.461605 69.655334 
L 80.543859 65.878968 
L 80.593212 62.206197 
L 80.675466 63.972634 
L 80.691917 58.706086 
L 80.790623 66.391633 
L 80.823525 65.368074 
L 80.839975 63.639711 
L 80.872877 69.564135 
L 80.889328 67.530298 
L 80.938681 75.170688 
L 80.988034 68.677818 
L 81.004485 68.263435 
L 81.020935 69.25689 
L 81.053837 71.457188 
L 81.070288 68.572451 
L 81.119641 68.891207 
L 81.136092 69.320641 
L 81.152543 67.342587 
L 81.185445 65.216665 
L 81.218346 67.750771 
L 81.267699 66.160535 
L 81.366405 69.582729 
L 81.333503 65.35922 
L 81.399306 68.823028 
L 81.415757 64.964317 
L 81.448659 72.583457 
L 81.498012 71.590888 
L 81.563815 76.212841 
L 81.64607 74.439321 
L 81.777677 63.513095 
L 81.794128 64.39587 
L 81.82703 60.660234 
L 81.859932 63.088087 
L 81.892834 63.977946 
L 82.00799 58.073002 
L 82.057343 63.402416 
L 82.123146 59.003591 
L 82.172499 58.607803 
L 82.221852 60.707162 
L 82.353459 66.489916 
L 82.386361 65.242343 
L 82.402812 63.906226 
L 82.452165 67.725978 
L 82.468615 67.286804 
L 82.534419 74.049731 
L 82.583772 70.376961 
L 82.600223 67.797698 
L 82.649575 70.737332 
L 82.698928 69.735023 
L 82.863437 64.452538 
L 82.73183 71.01093 
L 82.896339 66.470436 
L 82.91279 67.591393 
L 82.978594 65.891364 
L 82.995045 66.311944 
L 83.011495 65.755008 
L 83.027946 68.254581 
L 83.060848 66.174702 
L 83.09375 68.423699 
L 83.126652 65.979907 
L 83.192455 57.456742 
L 83.241808 62.794124 
L 83.389866 73.143935 
L 83.406317 70.500921 
L 83.439219 71.172964 
L 83.472121 69.249806 
L 83.488572 70.143207 
L 83.505023 69.209962 
L 83.521474 72.571946 
L 83.554375 70.750613 
L 83.570826 71.925581 
L 83.587277 67.455036 
L 83.653081 70.64259 
L 83.669532 70.299928 
L 83.850492 80.172491 
L 83.916295 76.299613 
L 83.965648 78.828406 
L 83.99855 80.709063 
L 84.015001 78.244021 
L 84.146608 72.79596 
L 84.163059 71.29781 
L 84.195961 76.469616 
L 84.212412 75.617831 
L 84.228863 76.106589 
L 84.376921 68.187288 
L 84.459175 62.48865 
L 84.409823 69.406528 
L 84.492077 65.541619 
L 84.557881 69.521634 
L 84.574332 65.517712 
L 84.640135 59.950118 
L 84.705939 60.826695 
L 84.788194 65.485836 
L 84.804645 63.447573 
L 84.870448 55.859423 
L 84.919801 58.991195 
L 84.936252 62.146874 
L 85.002055 57.108767 
L 85.034957 60.995812 
L 85.051408 60.005014 
L 85.067859 64.464048 
L 85.117212 61.396913 
L 85.183015 63.441375 
L 85.150114 60.429136 
L 85.199466 60.499971 
L 85.232368 56.411933 
L 85.26527 62.224792 
L 85.281721 62.007861 
L 85.298172 63.02168 
L 85.314623 57.48419 
L 85.347525 61.164044 
L 85.363975 57.093715 
L 85.429779 59.262137 
L 85.44623 57.12382 
L 85.462681 60.793049 
L 85.512034 59.296669 
L 85.594288 63.188141 
L 85.62719 59.958086 
L 85.676543 65.676204 
L 85.791699 63.315643 
L 85.890405 54.015955 
L 85.824601 64.035499 
L 85.939757 57.99597 
L 85.956208 60.269758 
L 85.98911 53.398809 
L 86.087815 48.1907 
L 86.120717 48.369557 
L 86.17007 46.588954 
L 86.252325 53.20667 
L 86.268775 53.437768 
L 86.334579 57.315958 
L 86.367481 52.482387 
L 86.383932 55.600877 
L 86.400383 55.43176 
L 86.416834 59.155 
L 86.449735 52.596608 
L 86.466186 52.949009 
L 86.482637 47.733817 
L 86.581343 49.386918 
L 86.597794 49.363897 
L 86.630695 53.415632 
L 86.663597 46.42692 
L 86.696499 48.738782 
L 86.729401 49.612703 
L 86.745852 47.197245 
L 86.762303 45.713262 
L 86.811655 48.551956 
L 86.844557 46.243635 
L 86.959714 54.265646 
L 86.89391 45.468883 
L 87.091321 52.994166 
L 87.140674 46.936043 
L 87.190026 51.568621 
L 87.206477 56.024999 
L 87.272281 50.945278 
L 87.288732 52.801142 
L 87.305183 51.523464 
L 87.354535 55.160818 
L 87.370986 57.021995 
L 87.403888 51.235699 
L 87.453241 55.558377 
L 87.469692 52.310613 
L 87.502594 56.35615 
L 87.551946 54.733154 
L 87.568397 57.039704 
L 87.650652 53.647615 
L 87.749357 49.157591 
L 87.683554 54.173561 
L 87.79871 51.488933 
L 87.831612 56.248128 
L 87.897415 49.909322 
L 87.913866 49.686194 
L 88.061925 56.047135 
L 87.963219 48.316431 
L 88.078375 55.477802 
L 88.094826 53.166826 
L 88.177081 56.857305 
L 88.34159 62.23099 
L 88.555452 46.792603 
L 88.687059 53.781315 
L 88.785765 51.467682 
L 88.802215 54.731383 
L 88.835117 47.191933 
L 88.900921 52.45848 
L 88.917372 54.10981 
L 88.966725 47.971998 
L 88.983175 48.226117 
L 88.999626 48.18096 
L 89.016077 45.834566 
L 89.098332 48.487319 
L 89.180586 53.064116 
L 89.131234 46.903282 
L 89.197037 49.14431 
L 89.213488 43.399629 
L 89.262841 53.730846 
L 89.295743 50.168754 
L 89.328645 51.998941 
L 89.361546 48.119865 
L 89.394448 43.706874 
L 89.476703 47.112244 
L 89.493154 45.707949 
L 89.526055 49.25853 
L 89.558957 48.868055 
L 89.60831 47.628451 
L 89.641212 49.584369 
L 89.739917 42.392893 
L 89.78927 43.175615 
L 89.822172 49.693277 
L 89.920877 46.430461 
L 89.953779 43.141083 
L 89.986681 46.628798 
L 90.036034 43.696248 
L 90.200543 57.321271 
L 90.299248 53.989392 
L 90.315699 50.21214 
L 90.397954 51.279085 
L 90.447306 56.531466 
L 90.496659 49.685308 
L 90.529561 51.776698 
L 90.562463 47.195474 
L 90.726972 52.680724 
L 90.611815 46.808541 
L 90.776325 50.105003 
L 90.891481 44.994291 
L 91.006637 54.052257 
L 91.023088 52.388531 
L 91.039539 52.393844 
L 91.121794 46.495098 
L 91.138245 51.523464 
L 91.171146 52.264571 
L 91.204048 49.825206 
L 91.269852 56.63152 
L 91.302754 53.088022 
L 91.385008 55.802756 
L 91.41791 49.446242 
L 91.450812 50.613241 
L 91.467263 50.37506 
L 91.533066 52.814424 
L 91.500165 49.929687 
L 91.565968 50.657512 
L 91.582419 49.077017 
L 91.631772 53.562614 
L 91.664674 50.218338 
L 91.763379 55.301601 
L 91.697575 49.402856 
L 91.77983 51.812115 
L 91.878535 48.052572 
L 91.829183 52.874633 
L 91.894986 50.471572 
L 92.043045 45.229816 
L 92.059495 47.1149 
L 92.092397 46.505723 
L 92.14175 47.28933 
L 92.289808 55.143109 
L 92.174652 47.013076 
L 92.306259 55.003211 
L 92.355612 51.494245 
L 92.404965 55.285664 
L 92.437866 58.009251 
L 92.50367 54.648153 
L 92.536572 53.281932 
L 92.553023 56.88918 
L 92.569474 59.442765 
L 92.602375 49.456867 
L 92.635277 48.573206 
L 92.668179 50.566313 
L 92.68463 49.578171 
L 92.816237 53.77069 
L 92.832688 50.656627 
L 92.931394 52.830362 
L 93.030099 47.423916 
L 92.997197 53.543134 
L 93.04655 49.118632 
L 93.063001 52.072432 
L 93.095903 46.662445 
L 93.145255 48.384609 
L 93.211059 51.355232 
L 93.22751 49.341761 
L 93.276863 43.13577 
L 93.342666 47.828558 
L 93.40847 41.791685 
L 93.490725 41.979396 
L 93.572979 41.153289 
L 93.605881 47.292872 
L 93.622332 46.247177 
L 93.655234 50.529125 
L 93.688135 47.149432 
L 93.786841 49.848228 
L 93.721037 45.548572 
L 93.803292 48.352734 
L 93.836194 48.482007 
L 93.918448 41.413606 
L 93.967801 44.915488 
L 94.000703 44.774704 
L 94.017154 38.825489 
L 94.115859 39.934935 
L 94.148761 37.072334 
L 94.198114 39.411645 
L 94.247466 38.734289 
L 94.329721 42.874568 
L 94.362623 39.50373 
L 94.411975 44.88981 
L 94.461328 39.838423 
L 94.477779 39.710035 
L 94.527132 38.898094 
L 94.560034 41.2985 
L 94.625837 34.925162 
L 94.691641 37.196295 
L 94.773895 33.494305 
L 94.790346 36.832382 
L 94.839699 35.995649 
L 94.889052 39.715348 
L 94.971306 32.428245 
L 95.004208 37.293692 
L 95.053561 34.297391 
L 95.086463 37.080303 
L 95.152266 44.332874 
L 95.201619 41.040839 
L 95.234521 34.986257 
L 95.300325 42.290183 
L 95.316775 42.433623 
L 95.431932 32.492882 
L 95.448383 34.481561 
L 95.530637 39.652482 
L 95.547088 35.763666 
L 95.563539 33.323417 
L 95.596441 40.091656 
L 95.711597 46.820937 
L 95.744499 46.629684 
L 95.793852 41.604859 
L 95.859655 45.581333 
L 96.007714 35.535225 
L 96.040615 39.50373 
L 96.12287 42.678002 
L 96.139321 39.253152 
L 96.172223 37.116606 
L 96.188674 39.225704 
L 96.221575 43.784792 
L 96.287379 40.137699 
L 96.30383 39.339039 
L 96.320281 43.134885 
L 96.386085 49.616245 
L 96.435437 44.264696 
L 96.468339 40.063322 
L 96.534143 44.635691 
L 96.550594 43.247335 
L 96.583495 42.741753 
L 96.66575 38.77679 
L 96.715103 40.915108 
L 96.731554 40.943441 
L 96.84671 48.351848 
L 96.863161 45.529092 
L 96.912514 48.246482 
L 96.928965 47.686004 
L 97.02767 40.157178 
L 97.060572 40.425464 
L 97.126375 46.184311 
L 97.225081 43.997295 
L 97.241532 42.214036 
L 97.290885 48.578519 
L 97.307335 46.28348 
L 97.356688 51.238355 
L 97.438943 49.288635 
L 97.471845 47.469958 
L 97.685706 55.196235 
L 97.735059 46.865208 
L 97.800863 48.15971 
L 97.817314 49.39046 
L 97.850215 44.833143 
L 97.883117 46.292334 
L 97.916019 47.388499 
L 97.93247 46.098425 
L 97.965372 43.844116 
L 98.014725 47.285788 
L 98.031175 44.750798 
L 98.146332 51.491589 
L 98.064077 43.631612 
L 98.162783 49.394887 
L 98.228586 45.794722 
L 98.29439 45.984204 
L 98.310841 46.752759 
L 98.327292 46.315355 
L 98.343743 42.720503 
L 98.425997 48.767116 
L 98.442448 44.637462 
L 98.458899 44.552461 
L 98.47535 43.669686 
L 98.491801 45.943474 
L 98.574055 44.439126 
L 98.606957 51.098457 
L 98.65631 47.793141 
L 98.722114 48.057885 
L 98.919525 56.931681 
L 98.787917 46.864323 
L 98.952426 56.013488 
L 99.067583 46.549109 
L 98.985328 56.952046 
L 99.166288 48.294295 
L 99.363699 54.795134 
L 99.38015 54.058455 
L 99.413052 56.324275 
L 99.495306 60.216633 
L 99.445954 54.671174 
L 99.544659 59.20547 
L 99.56111 59.448963 
L 99.577561 58.412123 
L 99.610463 56.28443 
L 99.626914 58.767181 
L 99.659815 58.186338 
L 99.692717 58.906194 
L 99.725619 56.812148 
L 99.758521 57.179602 
L 99.807874 55.781505 
L 99.840775 50.336101 
L 99.906579 53.692772 
L 99.939481 58.219099 
L 100.038186 57.77107 
L 100.120441 60.50794 
L 100.169794 55.662857 
L 100.268499 60.111266 
L 100.301401 59.274533 
L 100.482361 52.036129 
L 100.564615 40.252805 
L 100.613968 45.413986 
L 100.64687 47.581523 
L 100.696223 44.083182 
L 100.745575 46.835989 
L 100.762026 47.054691 
L 100.778477 46.757186 
L 100.82783 57.26726 
L 100.910085 55.85234 
L 100.942986 57.695809 
L 101.025241 60.718672 
L 100.975888 56.384484 
L 101.058143 59.497662 
L 101.107495 59.896992 
L 101.123946 58.518375 
L 101.239103 65.852405 
L 101.255554 62.981836 
L 101.272005 64.163887 
L 101.321357 59.788084 
L 101.337808 57.151268 
L 101.387161 61.106491 
L 101.403612 60.250279 
L 101.485866 64.634937 
L 101.518768 62.341669 
L 101.601023 57.766643 
L 101.55167 62.517869 
L 101.633925 61.847598 
L 101.699728 65.265364 
L 101.716179 62.810947 
L 101.831335 57.885291 
L 101.781983 64.000967 
L 101.847786 58.464363 
L 101.962943 66.489916 
L 101.91359 57.713517 
L 101.995845 64.774835 
L 102.09455 56.179064 
L 102.143903 59.437453 
L 102.27551 63.01194 
L 102.407117 53.893765 
L 102.423568 57.150383 
L 102.45647 58.972601 
L 102.571626 64.440142 
L 102.588077 64.389672 
L 102.604528 64.573842 
L 102.620979 62.886209 
L 102.670332 67.312482 
L 102.686783 65.213123 
L 102.703234 67.365608 
L 102.769037 62.096404 
L 102.867743 57.552369 
L 102.801939 62.547089 
L 102.884194 59.582663 
L 102.966448 65.16531 
L 103.015801 63.73888 
L 103.081605 53.783086 
L 103.130957 55.978957 
L 103.262565 67.549778 
L 103.328368 64.680094 
L 103.344819 65.529223 
L 103.459975 73.956761 
L 103.492877 73.522014 
L 103.509328 72.942942 
L 103.54223 75.155636 
L 103.575132 74.274631 
L 103.640935 76.423574 
L 103.608034 73.976241 
L 103.657386 74.336611 
L 103.690288 72.945598 
L 103.854797 54.595912 
L 103.887699 54.93946 
L 104.035757 61.306599 
L 104.216717 50.266151 
L 104.249619 50.387456 
L 104.298972 53.898192 
L 104.331874 47.992363 
L 104.397677 45.746023 
L 104.44703 46.661559 
L 104.512834 51.097572 
L 104.562186 48.702479 
L 104.578637 48.380182 
L 104.595088 52.354885 
L 104.660892 47.739129 
L 104.693794 49.994324 
L 104.710245 52.862237 
L 104.776048 48.218148 
L 104.792499 49.116861 
L 104.80895 49.190352 
L 104.907655 41.390584 
L 104.940557 43.342961 
L 104.957008 43.70953 
L 104.973459 42.582375 
L 105.072165 35.044696 
L 105.105066 37.346818 
L 105.236674 44.246102 
L 105.269575 39.062785 
L 105.286026 45.631802 
L 105.335379 42.107784 
L 105.368281 47.644388 
L 105.450535 45.705293 
L 105.53279 51.553569 
L 105.565692 46.680153 
L 105.664397 40.960265 
L 105.598594 48.170335 
L 105.680848 41.734132 
L 105.812455 48.307577 
L 105.828906 47.740015 
L 105.845357 50.612355 
L 105.861808 51.714718 
L 105.89471 48.574977 
L 105.911161 48.708677 
L 105.993415 44.815434 
L 106.009866 48.464298 
L 106.026317 49.409054 
L 106.07567 47.647045 
L 106.190826 43.93443 
L 106.207277 44.078755 
L 106.305983 38.155217 
L 106.338885 42.259193 
L 106.355335 44.809236 
L 106.421139 38.282719 
L 106.454041 35.544965 
L 106.486943 42.48852 
L 106.684354 50.067815 
L 106.717255 49.91375 
L 106.848863 42.736441 
L 106.865314 43.456297 
L 106.898215 39.284142 
L 106.914666 44.576368 
L 106.98047 40.59104 
L 107.079175 47.086566 
L 107.128528 46.599579 
L 107.144979 46.835989 
L 107.16143 45.471539 
L 107.210783 49.592338 
L 107.276586 52.87906 
L 107.309488 49.11509 
L 107.375292 45.313047 
L 107.391743 48.390807 
L 107.52335 53.464331 
L 107.589154 51.803261 
L 107.622055 53.693657 
L 107.720761 57.674558 
L 107.737212 55.731921 
L 107.819466 50.598188 
L 107.835917 52.686036 
L 107.852368 56.3349 
L 107.918172 48.495288 
L 108.000426 50.46803 
L 107.983975 47.855121 
L 108.016877 49.077017 
L 108.049779 47.295528 
L 108.132034 47.992363 
L 108.164935 49.764997 
L 108.214288 46.024048 
L 108.230739 47.91533 
L 108.24719 46.092227 
L 108.296543 52.124673 
L 108.312994 52.443428 
L 108.362346 56.813919 
L 108.411699 52.916248 
L 108.444601 51.042675 
L 108.477503 54.702164 
L 108.510405 53.286359 
L 108.526855 54.360387 
L 108.543306 50.073127 
L 108.559757 52.969374 
L 108.625561 47.260996 
L 108.658463 51.936961 
L 108.724266 54.296636 
L 108.740717 49.71984 
L 108.757168 52.681609 
L 108.855874 50.062502 
L 108.97103 57.686954 
L 108.987481 57.518722 
L 109.053285 59.775688 
L 109.135539 53.203128 
L 109.15199 54.477264 
L 109.184892 52.461137 
L 109.201343 52.936613 
L 109.267146 49.355928 
L 109.234245 53.420944 
L 109.316499 50.711524 
L 109.33295 50.232505 
L 109.382303 55.562804 
L 109.431655 50.197088 
L 109.448106 52.354885 
L 109.546812 47.256569 
L 109.563263 51.451744 
L 109.612615 55.753171 
L 109.645517 50.278547 
L 109.661968 47.775432 
L 109.727772 51.356118 
L 109.87583 56.196773 
L 109.958085 47.268965 
L 109.990986 51.893575 
L 110.007437 53.850379 
L 110.023888 50.338757 
L 110.073241 51.100228 
L 110.122594 49.930573 
L 110.139045 51.117937 
L 110.221299 56.359692 
L 110.254201 54.143457 
L 110.287103 54.328512 
L 110.303554 53.782201 
L 110.320005 51.776698 
L 110.369357 55.229881 
L 110.385808 53.699855 
L 110.550317 62.659538 
L 110.649023 56.197658 
L 110.698375 57.764872 
L 110.764179 66.024179 
L 110.813532 60.346791 
L 110.96159 45.809774 
L 111.010943 44.726891 
L 111.109648 52.142381 
L 111.126099 51.998056 
L 111.224805 41.427773 
L 111.257706 44.855279 
L 111.32351 49.131028 
L 111.405765 45.910713 
L 111.455117 53.01099 
L 111.520921 49.280666 
L 111.619626 43.454526 
L 111.636077 45.707064 
L 111.652528 48.773314 
L 111.68543 42.114868 
L 111.718332 43.466036 
L 111.784135 38.611214 
L 111.833488 39.580762 
L 111.965095 48.465183 
L 112.014448 41.978511 
L 112.080252 44.634806 
L 112.211859 50.927569 
L 112.113154 41.646474 
L 112.244761 50.245787 
L 112.392819 39.84285 
L 112.40927 41.747413 
L 112.442172 39.711806 
L 112.491525 40.694635 
L 112.524426 37.397288 
L 112.573779 42.605397 
L 112.59023 41.873145 
L 112.623132 43.836147 
L 112.705386 49.092954 
L 112.754739 47.274278 
L 112.77119 46.360512 
L 112.820543 49.385147 
L 112.869895 46.625256 
L 112.902797 48.394349 
L 112.935699 45.386538 
L 113.067306 40.592811 
L 113.116659 46.029361 
L 113.149561 38.969814 
L 113.182463 41.183393 
L 113.297619 37.800159 
L 113.577285 59.17625 
L 113.610186 54.623361 
L 113.774695 45.735398 
L 113.807597 48.277472 
L 113.873401 45.198826 
L 113.939205 36.527794 
L 113.988557 37.592083 
L 114.120165 47.665639 
L 114.153066 45.8629 
L 114.350477 65.446877 
L 114.383379 65.320261 
L 114.39983 66.079961 
L 114.416281 64.883743 
L 114.432732 65.11307 
L 114.564339 54.868625 
L 114.58079 57.212363 
L 114.663045 65.684173 
L 114.728848 61.266754 
L 114.745299 61.048053 
L 114.76175 56.728917 
L 114.827554 63.593669 
L 114.844005 63.053556 
L 114.893357 63.371426 
L 114.94271 57.312417 
L 114.975612 54.310803 
L 115.024965 59.209897 
L 115.041415 56.634176 
L 115.057866 59.285158 
L 115.12367 54.77654 
L 115.140121 56.234846 
L 115.255277 47.654128 
L 115.271728 50.893923 
L 115.30463 46.698747 
L 115.337532 51.553569 
L 115.48559 68.912457 
L 115.518492 66.330538 
L 115.551394 65.802821 
L 115.650099 68.70261 
L 115.699452 63.962894 
L 115.748805 67.122114 
L 115.814608 64.805825 
L 115.863961 69.342777 
L 115.962666 63.892945 
L 115.979117 67.867648 
L 116.044921 69.660647 
L 116.061372 67.803896 
L 116.094274 68.800007 
L 116.110725 68.761934 
L 116.127175 69.807628 
L 116.176528 66.516479 
L 116.192979 67.647175 
L 116.225881 63.314758 
L 116.275234 66.2721 
L 116.373939 70.323835 
L 116.308135 64.323265 
L 116.39039 68.532607 
L 116.439743 65.333542 
L 116.505546 66.952997 
L 116.538448 69.178972 
L 116.57135 64.608374 
L 116.604252 66.362414 
L 116.620703 65.798394 
L 116.653605 70.635507 
L 116.75231 70.052893 
L 116.768761 70.558474 
L 116.785212 69.551739 
L 116.818114 65.803706 
L 116.900368 68.70438 
L 116.93327 67.969472 
L 116.949721 68.111141 
L 117.031975 72.09824 
L 116.999074 67.62681 
L 117.064877 69.240952 
L 117.097779 63.727369 
L 117.163583 67.786188 
L 117.180034 70.018361 
L 117.229386 63.640597 
L 117.245837 64.66327 
L 117.262288 64.680094 
L 117.311641 60.617733 
L 117.360994 64.504778 
L 117.377445 66.544813 
L 117.443248 63.108452 
L 117.47615 65.009474 
L 117.492601 65.905531 
L 117.541954 63.018138 
L 117.574855 63.334237 
L 117.607757 62.885324 
L 117.706463 57.647995 
L 117.722914 58.474103 
L 117.755815 57.641797 
L 117.870972 66.491687 
L 118.002579 60.88779 
L 118.068383 63.037618 
L 118.084834 63.569762 
L 118.101285 60.679713 
L 118.331597 51.486276 
L 118.38095 59.194844 
L 118.463205 58.812338 
L 118.545459 53.124325 
L 118.627714 53.223493 
L 118.677066 52.244206 
L 118.74287 56.187033 
L 118.907379 43.096811 
L 118.92383 45.448518 
L 118.956732 38.373033 
L 118.989634 41.634964 
L 119.006085 41.314437 
L 119.022535 41.794341 
L 119.071888 46.723539 
L 119.137692 42.933892 
L 119.269299 35.391785 
L 119.28575 40.30416 
L 119.302201 40.188168 
L 119.565415 54.022153 
L 119.581866 50.658398 
L 119.631219 56.596988 
L 119.64767 54.167363 
L 119.762826 59.722562 
L 119.894434 50.6947 
L 120.00959 55.943539 
L 120.124746 46.812083 
L 120.174099 47.305268 
L 120.256354 50.785014 
L 120.289255 47.910903 
L 120.338608 47.627565 
L 120.355059 49.203633 
L 120.453765 36.077994 
L 120.486666 43.092384 
L 120.618274 58.280193 
L 120.651175 56.832513 
L 120.73343 57.027308 
L 120.766332 54.647267 
L 120.832135 64.066489 
L 120.881488 59.173594 
L 120.996645 52.913592 
L 121.111801 61.683793 
L 121.128252 61.283578 
L 121.292761 54.001788 
L 121.309212 48.876024 
L 121.375015 55.192693 
L 121.391466 53.714908 
L 121.490172 63.961123 
L 121.539525 60.313145 
L 121.736935 48.423568 
L 121.753386 49.176185 
L 121.786288 41.766007 
L 121.835641 50.738972 
L 121.934346 61.221597 
L 122.00015 58.306756 
L 122.098855 51.932534 
L 122.115306 53.107502 
L 122.148208 57.502784 
L 122.214012 50.895693 
L 122.230463 51.333982 
L 122.329168 60.73461 
L 122.36207 57.825082 
L 122.394972 60.572576 
L 122.444325 54.733154 
L 122.460775 54.795134 
L 122.477226 58.715826 
L 122.559481 55.539782 
L 122.592383 54.434764 
L 122.608834 55.86208 
L 122.625285 59.348909 
L 122.674637 51.855501 
L 122.707539 53.956631 
L 122.72399 50.936423 
L 122.789794 56.629749 
L 122.806245 59.028383 
L 122.888499 56.188804 
L 122.90495 57.748934 
L 122.921401 58.256287 
L 122.970754 56.798866 
L 122.987205 57.007828 
L 123.003655 57.22653 
L 123.036557 52.49921 
L 123.118812 54.228458 
L 123.151714 52.357541 
L 123.168165 54.720758 
L 123.184615 58.312069 
L 123.26687 55.643378 
L 123.299772 46.726196 
L 123.398477 51.478307 
L 123.595888 43.852084 
L 123.727495 55.080243 
L 123.760397 53.788399 
L 123.793299 50.58048 
L 123.826201 51.401275 
L 123.908455 45.445861 
L 123.941357 48.218148 
L 124.007161 48.937119 
L 124.056514 44.814549 
L 124.089415 48.406745 
L 124.138768 46.513692 
L 124.188121 48.074708 
L 124.253925 40.731823 
L 124.35263 44.437355 
L 124.369081 43.91495 
L 124.467786 33.821029 
L 124.53359 36.497689 
L 124.550041 36.62342 
L 124.648746 45.976235 
L 124.698099 44.355895 
L 124.846157 31.297549 
L 124.879059 29.51606 
L 124.89551 32.064333 
L 125.060019 42.470811 
L 125.092921 40.790262 
L 125.142274 36.849205 
L 125.175175 41.714652 
L 125.240979 44.511731 
L 125.306783 44.494908 
L 125.405488 36.849205 
L 125.43839 37.77094 
L 125.569997 45.43258 
L 125.833212 53.98585 
L 125.866114 50.459176 
L 125.882565 50.075784 
L 125.899015 52.666557 
L 125.948368 49.287749 
L 125.98127 51.425182 
L 126.014172 49.069048 
L 126.063525 51.273773 
L 126.16223 57.045016 
L 126.112877 51.135645 
L 126.178681 54.05757 
L 126.228034 52.273425 
L 126.244485 55.616815 
L 126.293837 58.212901 
L 126.326739 55.827548 
L 126.458346 51.346378 
L 126.491248 47.98705 
L 126.507699 48.290753 
L 126.655757 38.727206 
L 126.721561 40.28468 
L 126.738012 37.256504 
L 126.787365 34.909225 
L 126.869619 39.552428 
L 126.88607 34.310673 
L 126.902521 35.981482 
L 126.951874 36.54993 
L 126.935423 34.698492 
L 126.968325 35.453765 
L 127.017677 28.707661 
L 127.083481 34.679012 
L 127.099932 34.944642 
L 127.116383 33.630661 
L 127.149285 34.116763 
L 127.165735 33.157841 
L 127.198637 37.179471 
L 127.330245 42.507999 
L 127.42895 31.132859 
L 127.478303 32.618613 
L 127.626361 40.395359 
L 127.675714 39.497532 
L 127.807321 46.364054 
L 127.955379 39.965039 
L 127.97183 40.412182 
L 127.988281 38.952991 
L 128.004732 37.56552 
L 128.054085 42.20164 
L 128.086986 46.418065 
L 128.15279 41.487096 
L 128.169241 43.244678 
L 128.185692 43.363326 
L 128.300848 36.146173 
L 128.383103 41.858978 
L 128.432455 39.785297 
L 128.531161 36.146173 
L 128.547612 38.350012 
L 128.564063 38.307511 
L 128.613415 34.447915 
L 128.646317 38.788301 
L 128.662768 38.108289 
L 128.712121 43.058738 
L 128.745023 39.555085 
L 128.777925 36.311748 
L 128.827277 40.717656 
L 128.843728 43.165875 
L 128.893081 35.467047 
L 128.909532 33.962698 
L 128.942434 35.985024 
L 129.008237 34.872922 
L 129.041139 32.165272 
L 129.05759 32.351213 
L 129.189197 41.789914 
L 129.205648 41.651787 
L 129.255001 39.200026 
L 129.23855 42.770972 
L 129.287903 42.014814 
L 129.353706 43.502339 
L 129.370157 41.88377 
L 129.386608 42.789566 
L 129.468863 35.787573 
L 129.501765 39.536491 
L 129.567568 37.007698 
L 129.584019 40.880576 
L 129.715626 32.774449 
L 129.830783 44.834914 
L 129.847234 42.537218 
L 129.913037 35.42366 
L 129.945939 39.728629 
L 130.093997 49.086756 
L 130.110448 51.902429 
L 130.14335 47.373446 
L 130.209154 50.545062 
L 130.274957 54.979304 
L 130.32431 52.251289 
L 130.439466 45.824826 
L 130.373663 52.93927 
L 130.455917 46.475618 
L 130.554623 53.029584 
L 130.50527 46.268427 
L 130.571074 50.086409 
L 130.636877 50.49902 
L 130.719132 45.000489 
L 130.752034 46.294105 
L 130.784935 37.2689 
L 130.850739 43.085301 
L 130.900092 46.709372 
L 130.932994 41.194019 
L 130.949445 42.730243 
L 131.097503 35.877887 
L 131.113954 38.219854 
L 131.245561 51.403931 
L 131.262012 50.049221 
L 131.294914 47.984394 
L 131.311365 51.193198 
L 131.344266 49.540983 
L 131.426521 53.281932 
L 131.459423 50.718607 
L 131.558128 52.720568 
L 131.492325 50.115628 
L 131.574579 51.478307 
L 131.656834 49.176185 
L 131.673285 51.882064 
L 131.788441 55.057222 
L 131.739088 50.11917 
L 131.804892 53.393496 
L 131.821343 49.934115 
L 131.903597 55.757599 
L 131.985852 48.460756 
L 132.051655 50.774389 
L 132.150361 56.841367 
L 132.084557 48.802533 
L 132.183263 56.466829 
L 132.216165 52.806455 
L 132.265517 59.863345 
L 132.281968 60.907269 
L 132.31487 57.631172 
L 132.364223 53.598031 
L 132.462928 53.918557 
L 132.479379 55.489313 
L 132.512281 51.788208 
L 132.578085 54.979304 
L 132.693241 51.302106 
L 132.643888 56.533237 
L 132.709692 51.95467 
L 132.726143 51.977691 
L 132.759045 48.030436 
L 132.824848 52.871091 
L 132.874201 56.305681 
L 132.923554 53.164169 
L 132.972906 45.661907 
L 133.03871 52.501866 
L 133.055161 53.429799 
L 133.071612 51.139187 
L 133.088063 51.333097 
L 133.236121 43.589111 
L 133.285474 47.724963 
L 133.367728 47.627565 
L 133.384179 47.662982 
L 133.40063 47.585064 
L 133.417081 46.422493 
L 133.466434 48.872482 
L 133.482885 47.613398 
L 133.499335 48.512111 
L 133.532237 45.658365 
L 133.548688 45.896546 
L 133.565139 44.957989 
L 133.598041 48.113667 
L 133.680295 52.194622 
L 133.713197 49.451554 
L 133.861255 43.989326 
L 133.894157 46.800572 
L 133.927059 42.122836 
L 133.94351 42.422998 
L 133.959961 42.720503 
L 133.976412 45.702637 
L 134.025765 40.11025 
L 134.042215 40.363484 
L 134.091568 39.318674 
L 134.108019 36.649098 
L 134.140921 43.582028 
L 134.190274 37.597395 
L 134.288979 42.24237 
L 134.30543 40.199679 
L 134.321881 36.85806 
L 134.387685 45.013771 
L 134.552194 39.962383 
L 134.568645 41.137351 
L 134.585095 41.17631 
L 134.617997 35.82299 
L 134.683801 42.311433 
L 134.700252 41.798768 
L 134.716703 43.908752 
L 134.733154 41.837727 
L 134.766055 46.440201 
L 134.84831 44.801267 
L 134.881212 38.473087 
L 134.979917 41.656214 
L 134.996368 41.705798 
L 135.02927 43.512964 
L 135.062172 42.553156 
L 135.160877 36.240914 
L 135.193779 39.244298 
L 135.374739 53.636104 
L 135.555699 44.811892 
L 135.57215 46.032903 
L 135.588601 48.544872 
L 135.637954 41.900593 
L 135.670855 37.527446 
L 135.736659 44.389541 
L 135.75311 44.542721 
L 135.786012 44.026515 
L 135.818914 39.946445 
L 135.851815 43.577601 
L 135.884717 49.250561 
L 135.966972 45.697324 
L 135.999874 41.603088 
L 136.032775 44.393083 
L 136.082128 48.730813 
L 136.131481 46.186968 
L 136.263088 39.169036 
L 136.279539 40.365255 
L 136.312441 37.875421 
L 136.345343 42.252995 
L 136.592106 53.820274 
L 136.394695 39.386853 
L 136.625008 53.652928 
L 136.641459 53.243858 
L 136.674361 55.106806 
L 136.773066 60.505283 
L 136.789517 55.605304 
L 136.822419 51.029394 
L 136.855321 56.782929 
L 136.921125 52.916248 
L 137.052732 44.141621 
L 137.085634 45.821284 
L 137.233692 55.68942 
L 137.266594 51.684613 
L 137.299495 56.790012 
L 137.348848 64.083313 
L 137.398201 60.83732 
L 137.480455 49.39223 
L 137.529808 51.194084 
L 137.661415 57.766643 
L 137.677866 57.736538 
L 137.694317 56.704125 
L 137.793023 65.64787 
L 137.809474 62.587819 
L 137.825925 62.740998 
L 137.842375 64.546393 
L 137.891728 60.063453 
L 137.908179 59.219636 
L 137.957532 61.795357 
L 137.990434 60.256477 
L 138.10559 66.116264 
L 138.122041 65.147601 
L 138.237197 61.005552 
L 138.253648 62.555058 
L 138.319452 58.429831 
L 138.352354 62.224792 
L 138.401706 58.853953 
L 138.418157 56.812148 
L 138.46751 59.958086 
L 138.500412 59.154115 
L 138.516863 60.965708 
L 138.549765 58.518375 
L 138.599117 59.148802 
L 138.632019 51.645654 
L 138.714274 57.966751 
L 138.845881 50.534437 
L 138.878783 54.019496 
L 138.961037 52.556763 
L 138.993939 58.022533 
L 139.01039 54.63133 
L 139.059743 61.373892 
L 139.109095 55.907237 
L 139.174899 61.260556 
L 139.207801 58.67244 
L 139.37231 49.316969 
L 139.388761 49.62687 
L 139.405212 52.602806 
L 139.503917 50.363549 
L 139.520368 51.475651 
L 139.55327 49.116861 
L 139.651975 45.768159 
L 139.668426 47.132609 
L 139.800034 41.384386 
L 139.750681 48.484663 
L 139.816485 43.707759 
L 139.948092 50.12891 
L 140.013895 42.797535 
L 140.063248 47.970227 
L 140.194855 54.494973 
L 140.310012 43.087072 
L 140.326463 44.928769 
L 140.408717 48.791908 
L 140.441619 45.301536 
L 140.490972 42.558469 
L 140.556775 46.992711 
L 140.622579 39.165495 
L 140.671932 43.598851 
L 140.688383 44.635691 
L 140.704834 42.590344 
L 140.81999 33.488107 
L 140.836441 35.575955 
L 140.902245 34.275256 
L 140.869343 35.963774 
L 140.968048 34.348746 
L 141.050303 46.322439 
L 141.116106 44.370062 
L 141.149008 47.917101 
L 141.214812 43.881304 
L 141.297066 46.375565 
L 141.329968 40.585727 
L 141.346419 42.4168 
L 141.395772 37.746148 
L 141.428674 40.730052 
L 141.445125 40.175772 
L 141.593183 49.995209 
L 141.626085 45.639771 
L 141.691888 50.626522 
L 141.823495 57.494816 
L 141.839946 53.737929 
L 141.922201 49.179727 
L 141.938652 53.338599 
L 141.955103 53.492664 
L 142.070259 56.762564 
L 142.168965 50.627408 
L 142.201866 51.480964 
L 142.26767 55.85234 
L 142.300572 50.64246 
L 142.317023 51.963524 
L 142.399277 45.742481 
L 142.415728 49.764112 
L 142.514434 52.84807 
L 142.465081 48.351848 
L 142.547335 52.141496 
L 142.613139 45.961183 
L 142.646041 51.030279 
L 142.695394 54.596798 
L 142.728295 49.211602 
L 142.761197 52.302644 
L 142.794099 52.840101 
L 142.909255 62.828656 
L 142.925706 58.992966 
L 143.123117 45.043875 
L 143.139568 45.869983 
L 143.17247 42.863943 
L 143.238274 41.497722 
L 143.205372 45.203253 
L 143.271175 42.460186 
L 143.517939 55.056337 
L 143.53439 55.582283 
L 143.567292 51.49336 
L 143.583743 55.763797 
L 143.649546 53.591833 
L 143.764703 49.164674 
L 143.71535 54.184187 
L 143.781154 49.525931 
L 143.830506 52.788746 
L 143.846957 48.903472 
L 143.929212 43.712186 
L 143.945663 44.702099 
L 144.011466 50.239589 
L 144.060819 49.245249 
L 144.126623 42.531906 
L 144.192426 42.740868 
L 144.25823 39.896861 
L 144.356935 50.214796 
L 144.455641 50.436154 
L 144.472092 48.272159 
L 144.488543 48.352734 
L 144.570797 45.282057 
L 144.685954 61.663428 
L 144.735306 60.298092 
L 144.751757 59.550788 
L 144.784659 61.78119 
L 144.80111 61.388059 
L 144.850463 62.988034 
L 144.866914 60.941801 
L 144.899815 58.830047 
L 144.949168 60.051057 
L 144.998521 64.810252 
L 145.064325 61.725408 
L 145.080775 60.171475 
L 145.113677 63.860184 
L 145.130128 63.118192 
L 145.16303 64.943067 
L 145.228834 62.820687 
L 145.261735 63.226215 
L 145.409794 57.209707 
L 145.492048 60.576118 
L 145.508499 56.888295 
L 145.52495 56.689073 
L 145.623655 64.466705 
L 145.70591 63.019024 
L 145.88687 54.324085 
L 145.952674 52.041442 
L 145.985575 52.79583 
L 146.100732 58.255401 
L 146.117183 54.547214 
L 146.182986 59.297554 
L 146.199437 59.271877 
L 146.24879 61.3916 
L 146.232339 58.362539 
L 146.281692 59.493235 
L 146.396848 55.750515 
L 146.314594 61.712127 
L 146.413299 55.940883 
L 146.446201 53.757409 
L 146.462652 57.551483 
L 146.479103 55.885101 
L 146.495554 58.239464 
L 146.561357 55.416707 
L 146.643612 48.251794 
L 146.676514 53.678605 
L 146.692965 54.956283 
L 146.758768 51.767844 
L 146.775219 52.758642 
L 146.808121 47.891424 
L 146.841023 54.290438 
L 146.890375 51.23747 
L 146.923277 50.250214 
L 146.956179 55.298945 
L 146.97263 57.444346 
L 147.038434 54.553412 
L 147.054885 55.733692 
L 147.120688 52.41775 
L 147.15359 56.23219 
L 147.268746 63.799974 
L 147.186492 55.782391 
L 147.33455 62.375315 
L 147.367452 60.029806 
L 147.416805 63.091629 
L 147.499059 66.78565 
L 147.531961 64.988224 
L 147.647117 59.12401 
L 147.663568 59.29844 
L 147.712921 62.695841 
L 147.745823 58.095138 
L 147.762274 58.535198 
L 147.778725 57.261062 
L 147.795175 55.548637 
L 147.844528 58.65296 
L 147.860979 62.497504 
L 147.910332 55.909007 
L 147.959685 60.379552 
L 147.976135 60.029806 
L 147.992586 60.62216 
L 148.041939 63.945185 
L 148.074841 61.309255 
L 148.107743 58.464363 
L 148.124194 61.589937 
L 148.173546 58.945153 
L 148.23935 64.189564 
L 148.305154 63.629086 
L 148.370957 56.05776 
L 148.42031 60.951541 
L 148.453212 64.051437 
L 148.502565 59.516256 
L 148.551917 53.776003 
L 148.617721 57.21679 
L 148.667074 55.108577 
L 148.716426 56.053333 
L 148.732877 57.293823 
L 148.78223 53.773346 
L 148.798681 56.638603 
L 148.930288 47.276049 
L 148.946739 48.649353 
L 148.96319 53.306724 
L 149.061895 50.86913 
L 149.111248 47.459333 
L 149.14415 45.572478 
L 149.177052 49.703902 
L 149.209954 46.990054 
L 149.226405 47.523084 
L 149.259306 45.28914 
L 149.292208 44.33553 
L 149.308659 46.644736 
L 149.32511 45.699095 
L 149.390914 53.779544 
L 149.456717 51.820969 
L 149.555423 39.84285 
L 149.604775 40.993026 
L 149.68703 48.992015 
L 149.736383 45.325443 
L 149.752834 44.9208 
L 149.785735 39.965925 
L 149.851539 44.941165 
L 149.86799 43.078217 
L 149.999597 47.425687 
L 150.04895 45.010229 
L 150.098303 46.703174 
L 150.131205 47.972883 
L 150.147655 45.55654 
L 150.180557 46.206447 
L 150.246361 47.38053 
L 150.312165 42.060856 
L 150.41087 49.396658 
L 150.443772 47.977311 
L 150.460223 46.193166 
L 150.526026 50.220109 
L 150.542477 49.480774 
L 150.558928 51.409244 
L 150.59183 50.004064 
L 150.805692 64.410922 
L 150.838594 65.138747 
L 150.855045 64.932442 
L 150.887946 68.825685 
L 150.986652 68.650369 
L 151.036005 67.230137 
L 151.068906 69.866952 
L 151.101808 72.158449 
L 151.13471 69.013396 
L 151.151161 70.73379 
L 151.216965 63.466167 
L 151.299219 63.92482 
L 151.365023 69.912109 
L 151.430826 69.304703 
L 151.562434 62.920741 
L 151.595335 63.906226 
L 151.611786 66.574917 
L 151.644688 61.98484 
L 151.694041 64.356026 
L 151.875001 57.900343 
L 151.907903 55.086441 
L 151.924354 53.642302 
L 151.957255 58.972601 
L 152.006608 55.910778 
L 152.023059 55.339675 
L 152.03951 50.436154 
L 152.105314 56.566883 
L 152.121765 55.406082 
L 152.154666 57.754247 
L 152.187568 54.666747 
L 152.22047 57.004286 
L 152.269823 50.456519 
L 152.335626 53.250942 
L 152.417881 59.406463 
L 152.467234 57.192883 
L 152.483685 57.024651 
L 152.631743 51.87321 
L 152.730448 55.85234 
L 152.76335 53.937151 
L 152.812703 45.555655 
L 152.894957 45.87441 
L 152.911408 45.436122 
L 152.927859 41.724392 
L 152.977212 51.161323 
L 152.993663 49.164674 
L 153.141721 55.351186 
L 153.174623 57.477992 
L 153.223975 56.640374 
L 153.289779 51.820084 
L 153.273328 56.849336 
L 153.339132 52.012223 
L 153.355583 55.685879 
L 153.437837 50.095263 
L 153.454288 50.400737 
L 153.48719 49.359469 
L 153.520092 48.020697 
L 153.536543 46.752759 
L 153.585895 49.847342 
L 153.618797 52.871091 
L 153.66815 47.386728 
L 153.701052 45.205024 
L 153.750405 48.895503 
L 153.783306 48.276586 
L 153.799757 48.559039 
L 153.865561 54.775655 
L 153.914914 49.951823 
L 153.931365 49.637495 
L 153.947815 46.915678 
L 154.03007 48.939775 
L 154.062972 52.74536 
L 154.079423 51.294138 
L 154.178128 41.456106 
L 154.21103 43.253533 
L 154.309735 48.82644 
L 154.326186 45.607895 
L 154.359088 41.408293 
L 154.424892 46.849271 
L 154.507146 50.246672 
L 154.556499 49.828748 
L 154.57295 50.47954 
L 154.638754 43.364212 
L 154.704557 43.627185 
L 154.819714 37.274213 
L 154.737459 43.754687 
L 154.836165 38.573141 
L 154.951321 43.326138 
L 154.967772 42.651439 
L 154.984223 41.858092 
L 155.000674 43.744947 
L 155.017125 45.776127 
L 155.066477 40.603436 
L 155.082928 40.824794 
L 155.099379 40.247492 
L 155.11583 43.102124 
L 155.132281 44.204486 
L 155.165183 41.047922 
L 155.214535 42.588573 
L 155.230986 41.055891 
L 155.329692 41.966115 
L 155.461299 36.720818 
L 155.47775 39.249611 
L 155.510652 43.929117 
L 155.592906 41.60663 
L 155.609357 41.12584 
L 155.642259 43.385462 
L 155.65871 41.851009 
L 155.740965 45.345808 
L 155.708063 39.153099 
L 155.757415 42.299037 
L 155.806768 35.42366 
L 155.856121 43.157021 
L 155.872572 42.598313 
L 155.889023 43.142854 
L 156.02063 51.591643 
L 156.037081 49.906666 
L 156.053532 47.243288 
L 156.086434 52.133527 
L 156.152237 49.229311 
L 156.168688 48.095958 
L 156.218041 51.34018 
L 156.250943 48.825554 
L 156.283845 51.767844 
L 156.333197 47.013961 
L 156.366099 50.170525 
L 156.399001 49.826977 
L 156.448354 54.680028 
L 156.514157 52.913592 
L 156.645765 45.468883 
L 156.728019 48.923837 
L 156.859626 57.344292 
L 156.892528 56.409276 
L 157.007685 51.211792 
L 157.024135 53.714908 
L 157.089939 58.861037 
L 157.122841 55.214829 
L 157.155743 52.54968 
L 157.172194 55.936456 
L 157.205095 55.723067 
L 157.28735 59.471984 
L 157.320252 59.217866 
L 157.353154 58.576813 
L 157.402506 47.746213 
L 157.46831 50.03771 
L 157.599917 55.582283 
L 157.682172 48.309347 
L 157.731525 51.110853 
L 157.863132 57.49393 
L 157.896034 58.187223 
L 158.027641 48.309347 
L 158.076994 50.208598 
L 158.109895 46.737706 
L 158.159248 42.445134 
L 158.175699 42.756805 
L 158.307306 56.15073 
L 158.389561 51.329555 
L 158.340208 57.946386 
L 158.455365 51.432265 
L 158.488266 57.119393 
L 158.55407 50.896579 
L 158.570521 54.189499 
L 158.603423 50.863818 
L 158.652775 56.179064 
L 158.669226 59.064686 
L 158.73503 53.715793 
L 158.751481 55.744317 
L 158.767932 56.184377 
L 158.817285 52.781663 
L 158.850186 56.876784 
L 158.866637 56.627093 
L 158.883088 57.46294 
L 158.899539 53.416517 
L 158.948892 47.382301 
L 159.031146 51.152469 
L 159.080499 45.154554 
L 159.129852 48.010072 
L 159.212106 55.59645 
L 159.261459 52.811767 
L 159.294361 49.917291 
L 159.360165 54.015955 
L 159.508223 64.112532 
L 159.557575 64.109876 
L 159.672732 58.452853 
L 159.63983 64.51983 
L 159.689183 59.557871 
L 159.705634 60.691224 
L 159.738535 56.377401 
L 159.754986 56.498705 
L 159.771437 55.26884 
L 159.804339 60.130746 
L 159.837241 58.039356 
L 159.853692 58.186338 
L 159.870143 56.782929 
L 159.919495 62.004319 
L 159.935946 61.937026 
L 159.952397 60.013869 
L 160.018201 64.804054 
L 160.248514 52.107849 
L 160.264965 53.544905 
L 160.297866 56.407505 
L 160.314317 54.679143 
L 160.445925 41.995334 
L 160.462375 42.696596 
L 160.676237 53.764492 
L 160.709139 53.217295 
L 160.774943 53.40235 
L 160.807845 50.831057 
L 160.873648 55.814266 
L 160.90655 52.558534 
L 160.923001 51.334867 
L 160.955903 55.298945 
L 160.988805 57.098142 
L 161.021706 53.105731 
L 161.054608 55.201548 
L 161.08751 50.702669 
L 161.169765 52.128214 
L 161.26847 55.736348 
L 161.416528 46.751873 
L 161.482332 50.884183 
L 161.531685 48.989359 
L 161.63039 45.056272 
L 161.597488 49.551608 
L 161.646841 45.964724 
L 161.729095 52.524888 
L 161.794899 51.162208 
L 161.877154 45.974464 
L 161.910055 48.630759 
L 161.926506 48.228773 
L 162.008761 51.728885 
L 162.041663 50.326361 
L 162.107466 48.454558 
L 162.074565 50.962101 
L 162.156819 49.94474 
L 162.17327 49.491399 
L 162.189721 51.08429 
L 162.206172 52.306186 
L 162.239074 49.027433 
L 162.271975 46.062122 
L 162.321328 51.074551 
L 162.35423 48.329712 
L 162.370681 47.89408 
L 162.387132 49.757914 
L 162.518739 54.526849 
L 162.71615 46.394159 
L 162.568092 55.605304 
L 162.749052 47.968456 
L 162.781954 50.522927 
L 162.831306 45.624719 
L 162.847757 46.445514 
L 162.913561 44.760537 
L 163.143874 55.79036 
L 163.226128 53.778659 
L 163.193226 56.92017 
L 163.242579 54.978419 
L 163.341285 59.46313 
L 163.275481 53.869858 
L 163.374186 57.660391 
L 163.390637 54.432107 
L 163.472892 54.880136 
L 163.489343 58.449311 
L 163.538695 54.811958 
L 163.588048 57.404502 
L 163.604499 57.724142 
L 163.62095 57.016682 
L 163.752557 50.201515 
L 163.867714 55.066077 
L 163.884165 52.247748 
L 163.98287 46.979429 
L 163.999321 48.927379 
L 164.081575 55.314883 
L 164.114477 52.83656 
L 164.246085 50.173181 
L 164.278986 53.72996 
L 164.377692 53.009219 
L 164.394143 51.888262 
L 164.427045 54.626017 
L 164.459946 52.860466 
L 164.492848 56.37563 
L 164.52575 50.851422 
L 164.575103 51.95467 
L 164.608005 49.346188 
L 164.772514 56.880326 
L 164.788965 58.109305 
L 164.854768 55.508792 
L 164.871219 57.062725 
L 165.06863 48.925608 
L 165.085081 51.061269 
L 165.117983 54.630444 
L 165.150885 50.902777 
L 165.216688 54.433878 
L 165.24959 51.53586 
L 165.331845 52.821507 
L 165.447001 55.359154 
L 165.595059 52.259258 
L 165.627961 55.162589 
L 165.677314 51.529662 
L 165.726666 54.237312 
L 165.743117 55.203318 
L 165.79247 51.704092 
L 165.808921 52.921561 
L 165.825372 51.020539 
L 165.874725 55.684108 
L 165.891175 54.850917 
L 165.940528 53.201357 
L 165.989881 47.648815 
L 166.055685 49.620672 
L 166.137939 56.409276 
L 166.187292 55.762026 
L 166.285997 52.108735 
L 166.302448 52.627598 
L 166.318899 52.925103 
L 166.33535 50.707096 
L 166.384703 53.910588 
L 166.401154 53.310266 
L 166.417605 56.537664 
L 166.499859 51.526121 
L 166.565663 54.985502 
L 166.582114 53.279275 
L 166.647917 44.750798 
L 166.713721 47.290216 
L 166.730172 46.897969 
L 166.746623 47.345998 
L 166.763074 50.066044 
L 166.828877 46.414524 
L 166.845328 45.081064 
L 166.861779 45.519352 
L 166.894681 54.134602 
L 166.976935 48.474038 
L 166.993386 47.578866 
L 167.009837 49.407283 
L 167.075641 55.454781 
L 167.124994 51.79175 
L 167.141445 50.901891 
L 167.174346 53.926526 
L 167.305954 61.234879 
L 167.322405 59.982879 
L 167.371757 53.458133 
L 167.42111 58.22087 
L 167.454012 57.303562 
L 167.519815 61.798899 
L 167.618521 55.430874 
L 167.651423 57.013141 
L 167.733677 60.066109 
L 167.766579 59.035467 
L 167.815932 55.437072 
L 167.881735 56.166668 
L 168.062695 63.855757 
L 168.079146 63.87258 
L 168.177852 70.711654 
L 168.210754 66.725441 
L 168.243655 65.283073 
L 168.32591 65.50266 
L 168.375263 61.682907 
L 168.391714 64.337431 
L 168.473968 60.275956 
L 168.556223 58.4378 
L 168.539772 60.940916 
L 168.589125 59.287815 
L 168.622026 63.766328 
L 168.654928 58.477645 
L 168.68783 58.85838 
L 168.704281 59.387868 
L 168.720732 58.378476 
L 168.753634 54.162051 
L 168.802986 58.822078 
L 168.835888 54.884563 
L 168.951045 58.438686 
L 168.885241 52.232695 
L 168.967495 57.126476 
L 169.033299 56.271149 
L 169.181357 63.816798 
L 169.197808 63.268715 
L 169.329415 53.768034 
L 169.461023 61.421705 
L 169.477474 59.008904 
L 169.625532 52.643535 
L 169.641983 52.989739 
L 169.658434 50.724805 
L 169.691335 55.222798 
L 169.724237 54.570235 
L 169.740688 55.54598 
L 169.790041 52.14061 
L 169.839394 48.100386 
L 169.905197 49.680881 
L 169.921648 52.434574 
L 170.003903 48.688312 
L 170.020354 51.682842 
L 170.151961 47.397353 
L 170.168412 48.565237 
L 170.234215 45.958526 
L 170.250666 46.56062 
L 170.267117 46.512807 
L 170.415175 55.050139 
L 170.464528 51.34992 
L 170.530332 49.450669 
L 170.546783 53.4723 
L 170.579685 50.778816 
L 170.645488 52.641765 
L 170.661939 50.313965 
L 170.67839 50.619439 
L 170.793546 45.187315 
L 170.744194 50.946163 
L 170.809997 45.299765 
L 170.85935 54.317001 
L 170.925154 51.444661 
L 171.106114 38.526213 
L 171.122565 39.215079 
L 171.171917 50.017345 
L 171.237721 46.013423 
L 171.254172 45.614093 
L 171.287074 46.651819 
L 171.303525 46.40744 
L 171.319975 47.365477 
L 171.336426 45.344922 
L 171.40223 45.982433 
L 171.550288 37.978131 
L 171.58319 37.700105 
L 171.698346 47.447822 
L 171.829954 40.496298 
L 171.862855 39.370029 
L 171.879306 36.555242 
L 171.94511 42.630189 
L 171.978012 39.952643 
L 172.010914 42.135232 
L 172.076717 51.297679 
L 172.158972 49.341761 
L 172.175423 49.281551 
L 172.208325 54.414399 
L 172.290579 50.445009 
L 172.372834 52.270769 
L 172.339932 49.445356 
L 172.389285 50.01646 
L 172.438637 48.511226 
L 172.504441 44.233706 
L 172.553794 45.611437 
L 172.701852 57.693152 
L 172.767655 53.731731 
L 172.833459 47.819704 
L 172.882812 49.507337 
L 172.932165 53.049063 
L 172.997968 50.653085 
L 173.014419 50.37506 
L 173.113125 56.221565 
L 173.146026 53.706939 
L 173.162477 53.64673 
L 173.178928 51.098457 
L 173.228281 55.294518 
L 173.261183 51.293252 
L 173.310535 49.540983 
L 173.425692 60.573461 
L 173.524397 51.695238 
L 173.672455 45.813316 
L 173.721808 43.861824 
L 173.738259 47.450479 
L 173.771161 44.276206 
L 173.787612 45.815972 
L 173.853415 42.588573 
L 173.869866 42.405289 
L 173.985023 47.238861 
L 174.001474 46.952866 
L 174.067277 54.869511 
L 174.133081 52.44697 
L 174.149532 52.250404 
L 174.231786 54.906699 
L 174.182434 52.027275 
L 174.264688 54.774769 
L 174.346943 48.081792 
L 174.429197 49.386032 
L 174.495001 48.291639 
L 174.560805 53.589176 
L 174.593706 51.911283 
L 174.643059 55.475146 
L 174.65951 54.177103 
L 174.692412 55.507021 
L 174.708863 54.014184 
L 174.774666 51.732426 
L 174.791117 53.312922 
L 174.906274 58.792858 
L 174.922725 56.630634 
L 174.988528 56.823658 
L 175.037881 53.165055 
L 175.087234 58.978799 
L 175.136586 52.801142 
L 175.284645 44.098234 
L 175.185939 53.376673 
L 175.301095 47.18662 
L 175.333997 49.00087 
L 175.366899 45.189086 
L 175.432703 41.610171 
L 175.498506 43.605934 
L 175.531408 41.40121 
L 175.597212 44.710068 
L 175.646565 39.321331 
L 175.679466 45.404246 
L 175.712368 47.941893 
L 175.827525 60.516794 
L 175.893328 56.712979 
L 175.909779 56.6023 
L 175.92623 57.218561 
L 175.942681 58.874318 
L 175.992034 52.869321 
L 176.024935 55.525616 
L 176.057837 52.155663 
L 176.090739 53.706939 
L 176.10719 51.697009 
L 176.156543 56.511101 
L 176.172994 54.682685 
L 176.271699 54.440962 
L 176.28815 59.151458 
L 176.386855 51.778469 
L 176.419757 53.902619 
L 176.436208 51.551798 
L 176.485561 56.301254 
L 176.518463 54.262105 
L 176.814579 38.279178 
L 176.551365 55.110348 
L 176.83103 40.402443 
L 176.863932 47.122869 
L 176.946186 42.043148 
L 176.962637 39.52498 
L 176.995539 44.123912 
L 177.01199 43.617445 
L 177.028441 48.313775 
L 177.110695 45.161638 
L 177.127146 43.954795 
L 177.160048 49.06285 
L 177.19295 46.978544 
L 177.225852 45.575134 
L 177.308106 39.942018 
L 177.341008 42.321173 
L 177.406812 47.636419 
L 177.489066 47.4735 
L 177.521968 47.579752 
L 177.571321 44.709182 
L 177.587772 49.154935 
L 177.653575 42.843578 
L 177.670026 44.221309 
L 177.686477 44.330218 
L 177.702928 42.663835 
L 177.73583 45.51404 
L 177.818085 51.08429 
L 177.867437 50.638033 
L 177.91679 52.848956 
L 177.933241 54.942116 
L 178.015495 53.636104 
L 178.130652 49.540097 
L 178.163554 51.388879 
L 178.180005 50.850536 
L 178.212906 52.316811 
L 178.229357 51.26846 
L 178.410317 62.695841 
L 178.27871 49.106236 
L 178.45967 60.506169 
L 178.492572 59.680061 
L 178.541925 69.240067 
L 178.64063 68.328957 
L 178.854492 56.903347 
L 178.986099 64.657958 
L 179.00255 63.553824 
L 179.084805 68.434324 
L 179.134157 66.34382 
L 179.216412 62.19026 
L 179.18351 67.076957 
L 179.282215 62.94022 
L 179.397372 65.462815 
L 179.578332 50.74517 
L 179.611234 54.292209 
L 179.677037 61.238421 
L 179.72639 57.837478 
L 179.775743 58.095138 
L 179.857997 50.9196 
L 179.874448 51.044446 
L 180.006055 41.70934 
L 180.055408 40.081916 
L 180.137663 46.501296 
L 180.170565 47.796683 
L 180.318623 54.700393 
L 180.335074 55.204204 
L 180.45023 49.20629 
L 180.466681 49.860624 
L 180.483132 48.053458 
L 180.548935 51.357889 
L 180.565386 53.18542 
L 180.614739 47.142349 
L 180.63119 47.811735 
L 180.647641 47.201672 
L 180.746346 41.88377 
L 180.762797 44.730433 
L 180.81215 44.656056 
L 180.943757 52.139725 
L 180.976659 50.533552 
L 181.009561 52.485929 
L 181.206972 60.283925 
L 181.338579 53.614854 
L 181.387932 55.192693 
L 181.420834 53.592718 
L 181.437285 52.340718 
L 181.503088 54.073508 
L 181.53599 52.80734 
L 181.71695 58.767181 
L 181.766303 57.454086 
L 181.881459 51.404817 
L 181.89791 52.754214 
L 181.930812 54.779197 
L 181.963714 51.092259 
L 182.144674 37.167075 
L 182.25983 40.041187 
L 182.325634 39.336383 
L 182.44079 46.201135 
L 182.539495 41.603973 
L 182.638201 45.576905 
L 182.605299 41.108132 
L 182.654652 45.350235 
L 182.720455 48.996442 
L 182.736906 46.449056 
L 182.835612 42.25388 
L 182.80271 47.6984 
L 182.868514 43.817553 
L 183.049474 53.189847 
L 183.065925 50.813348 
L 183.115277 54.498515 
L 183.246885 60.787736 
L 183.279786 59.411775 
L 183.362041 49.646349 
L 183.444295 51.94493 
L 183.460746 53.19693 
L 183.510099 51.257835 
L 183.641706 43.670571 
L 183.674608 43.615674 
L 183.70751 44.875643 
L 183.723961 50.104117 
L 183.822666 46.877604 
L 183.904921 44.678192 
L 183.954274 45.317474 
L 184.06943 53.165055 
L 184.102332 51.430494 
L 184.118783 53.716679 
L 184.201037 49.726924 
L 184.283292 52.23181 
L 184.25039 47.662982 
L 184.316194 51.383566 
L 184.398448 48.916754 
L 184.43135 49.36124 
L 184.447801 52.762183 
L 184.546506 50.874443 
L 184.562957 50.656627 
L 184.579408 51.266689 
L 184.595859 51.80149 
L 184.61231 50.542406 
L 184.661663 46.237437 
L 184.727466 46.599579 
L 184.79327 48.941546 
L 184.809721 46.140925 
L 184.842623 47.260996 
L 184.891975 42.08919 
L 184.957779 46.350773 
L 184.97423 47.503605 
L 184.990681 43.250876 
L 185.056485 46.051497 
L 185.122288 39.902174 
L 185.204543 41.772205 
L 185.220994 46.630569 
L 185.319699 44.995177 
L 185.500659 54.190385 
L 185.615815 46.982971 
L 185.665168 48.91941 
L 185.747423 55.321966 
L 185.69807 46.966148 
L 185.780325 51.932534 
L 185.829677 46.220614 
L 185.87903 48.235857 
L 185.944834 52.822393 
L 185.994186 51.763416 
L 186.109343 50.046564 
L 186.043539 51.866126 
L 186.125794 50.627408 
L 186.257401 58.485614 
L 186.290303 57.909198 
L 186.438361 52.151235 
L 186.454812 53.044636 
L 186.471263 53.624594 
L 186.487714 52.488585 
L 186.504165 49.00264 
L 186.569968 54.988159 
L 186.635772 55.685879 
L 186.734477 46.686351 
L 186.767379 48.437735 
L 186.816732 55.684993 
L 186.882535 51.112624 
L 187.063495 43.806042 
L 186.931888 51.180802 
L 187.079946 45.891234 
L 187.32671 57.985345 
L 187.408965 57.463825 
L 187.573474 47.631992 
L 187.441866 58.357226 
L 187.606375 48.708677 
L 187.820237 63.875236 
L 187.886041 58.365195 
L 187.968295 59.071769 
L 187.984746 60.647838 
L 188.05055 56.985692 
L 188.067001 58.898225 
L 188.099903 54.449816 
L 188.165706 56.614696 
L 188.280863 63.486532 
L 188.297314 61.354412 
L 188.396019 54.640184 
L 188.428921 59.595059 
L 188.560528 63.249236 
L 188.576979 63.211162 
L 188.626332 63.384707 
L 188.708586 56.915743 
L 188.856645 67.232793 
L 188.873095 65.445106 
L 188.889546 62.604642 
L 188.971801 66.810442 
L 189.037605 62.260209 
L 189.054055 61.072845 
L 189.070506 64.401183 
L 189.086957 64.307327 
L 189.185663 67.927857 
L 189.119859 63.691952 
L 189.202114 65.97548 
L 189.218565 66.321684 
L 189.235015 64.557019 
L 189.300819 61.344672 
L 189.333721 63.905341 
L 189.366623 66.829036 
L 189.448877 66.7644 
L 189.514681 61.706814 
L 189.596935 62.175207 
L 189.613386 62.143332 
L 189.662739 62.872042 
L 189.67919 62.299168 
L 189.794346 50.337871 
L 189.827248 54.329397 
L 189.843699 59.489693 
L 189.942405 56.034739 
L 190.123365 49.184154 
L 189.975306 57.310646 
L 190.139815 49.189467 
L 190.172717 54.247052 
L 190.254972 51.253408 
L 190.386579 58.546708 
L 190.419481 54.70305 
L 190.501735 49.588796 
L 190.534637 51.776698 
L 190.616892 53.284588 
L 190.58399 49.488742 
L 190.649794 52.42749 
L 190.797852 39.400134 
L 190.94591 48.717531 
L 190.962361 48.491746 
L 191.061066 41.47293 
L 191.011714 48.583831 
L 191.093968 44.493137 
L 191.110419 46.259573 
L 191.159772 42.604511 
L 191.192674 36.665036 
L 191.258477 38.040996 
L 191.340732 47.909132 
L 191.390085 46.942241 
L 191.422986 46.072747 
L 191.554594 40.422808 
L 191.571045 42.614251 
L 191.636848 38.510275 
L 191.686201 35.664498 
L 191.702652 39.733942 
L 191.801357 44.208913 
L 191.768455 39.641857 
L 191.834259 41.735903 
L 191.949415 48.698052 
L 191.982317 45.230702 
L 192.015219 41.297614 
L 192.097474 42.877224 
L 192.21263 48.080021 
L 192.245532 45.245754 
L 192.278434 43.12603 
L 192.327786 47.871059 
L 192.344237 46.627027 
L 192.426492 50.573396 
L 192.459394 48.972536 
L 192.475845 49.097382 
L 192.623903 40.513122 
L 192.75551 49.785362 
L 192.771961 46.155978 
L 192.854215 41.659756 
L 192.821314 46.421607 
L 192.920019 42.055544 
L 193.002274 49.425877 
L 193.035175 46.392388 
L 193.051626 43.450098 
L 193.100979 51.200282 
L 193.11743 50.894808 
L 193.265488 42.17065 
L 193.281939 46.339262 
L 193.347743 53.776003 
L 193.429997 51.570392 
L 193.446448 51.49336 
L 193.561605 44.329332 
L 193.47935 52.114933 
L 193.627408 46.89974 
L 193.66031 47.076827 
L 193.709663 46.315355 
L 193.726114 47.644388 
L 193.791917 46.308272 
L 193.808368 45.009344 
L 193.874172 47.050264 
L 194.055132 53.119012 
L 194.120935 48.982276 
L 194.153837 52.18134 
L 194.170288 55.365352 
L 194.236092 49.41171 
L 194.252543 48.313775 
L 194.318346 50.499905 
L 194.449954 60.233456 
L 194.466405 58.181025 
L 194.56511 51.872324 
L 194.598012 54.149655 
L 194.680266 56.627093 
L 194.762521 58.383789 
L 194.713168 55.344987 
L 194.795423 57.231842 
L 194.844775 58.164202 
L 194.877677 53.757409 
L 194.92703 60.801903 
L 194.943481 62.099946 
L 194.976383 58.900881 
L 195.009285 60.455699 
L 195.042186 59.101874 
L 195.075088 60.919665 
L 195.091539 60.079391 
L 195.124441 59.897877 
L 195.256048 66.541271 
L 195.338303 64.255086 
L 195.321852 67.897752 
L 195.354754 65.145831 
L 195.371205 68.135048 
L 195.420557 63.327154 
L 195.46991 67.397483 
L 195.585066 61.508477 
L 195.601517 62.736571 
L 195.634419 66.450071 
L 195.716674 65.306094 
L 195.733125 64.896139 
L 195.749575 64.905879 
L 195.848281 70.307012 
L 195.881183 69.783722 
L 195.914085 64.752699 
L 196.01279 66.09767 
L 196.029241 68.23156 
L 196.095045 62.59136 
L 196.111495 61.577541 
L 196.144397 64.621655 
L 196.177299 66.646637 
L 196.226652 62.020257 
L 196.276005 62.679018 
L 196.259554 61.383631 
L 196.308906 62.547974 
L 196.440514 55.520303 
L 196.456965 55.728379 
L 196.473415 56.387141 
L 196.489866 53.416517 
L 196.539219 55.568116 
L 196.588572 51.921023 
L 196.621474 57.06361 
L 196.670826 61.235764 
L 196.720179 57.997741 
L 196.802434 52.699318 
L 196.851786 54.741123 
L 196.868237 55.297174 
L 196.884688 54.35596 
L 197.016295 49.467492 
L 197.032746 49.746403 
L 197.230157 62.024684 
L 197.263059 61.15519 
L 197.312412 54.715446 
L 197.361765 62.060987 
L 197.378215 62.031767 
L 197.394666 64.980255 
L 197.427568 59.999702 
L 197.493372 63.14387 
L 197.575626 58.780462 
L 197.608528 61.946766 
L 197.64143 64.931556 
L 197.723685 62.782613 
L 197.773037 64.358682 
L 197.789488 61.883015 
L 197.871743 58.833588 
L 197.82239 64.212586 
L 197.888194 59.23646 
L 197.970448 63.222673 
L 198.00335 61.508477 
L 198.118506 50.862932 
L 198.18431 51.824511 
L 198.217212 52.815309 
L 198.233663 50.410477 
L 198.266565 47.024586 
L 198.315917 52.092797 
L 198.332368 50.579594 
L 198.381721 54.533047 
L 198.414623 47.08391 
L 198.431074 47.022815 
L 198.54623 51.274658 
L 198.562681 48.872482 
L 198.579132 47.223808 
L 198.628485 51.551798 
L 198.858797 58.552021 
L 198.924601 55.490198 
L 198.973954 57.458513 
L 199.006855 56.143647 
L 199.08911 56.518184 
L 199.122012 59.718134 
L 199.171365 56.411047 
L 199.220717 54.17002 
L 199.237168 57.439919 
L 199.368775 65.490264 
L 199.385226 62.196458 
L 199.401677 62.153072 
L 199.45103 63.191683 
L 199.566186 56.542977 
L 199.582637 57.95524 
L 199.714245 66.091472 
L 199.730695 64.506549 
L 199.780048 58.71317 
L 199.845852 59.471984 
L 199.911655 63.645909 
L 199.944557 59.973139 
L 199.99391 56.143647 
L 200.059714 57.899458 
L 200.076165 57.477107 
L 200.17487 51.99717 
L 200.191321 54.604767 
L 200.207772 56.588134 
L 200.257125 54.03809 
L 200.273575 55.642493 
L 200.421634 47.734702 
L 200.470986 46.102852 
L 200.569692 58.268683 
L 200.586143 56.527039 
L 200.635495 61.609417 
L 200.651946 61.202118 
L 200.668397 61.653688 
L 200.684848 59.399379 
L 200.701299 60.50971 
L 200.849357 55.484 
L 200.865808 56.475684 
L 200.931612 60.825809 
L 200.980965 58.397956 
L 201.030317 55.342331 
L 201.063219 58.818536 
L 201.07967 58.628168 
L 201.112572 62.570995 
L 201.161925 59.891679 
L 201.326434 49.441815 
L 201.342885 48.442162 
L 201.359335 52.188424 
L 201.375786 51.502214 
L 201.523845 62.123852 
L 201.606099 63.081889 
L 201.639001 59.560528 
L 201.671903 62.823343 
L 201.721255 60.289238 
L 201.754157 56.134793 
L 201.836412 57.692267 
L 201.869314 60.799247 
L 201.902215 57.212363 
L 202.066725 49.571088 
L 202.083175 50.779702 
L 202.099626 50.832828 
L 202.181881 57.801175 
L 202.214783 53.830014 
L 202.231234 53.70871 
L 202.280586 52.980885 
L 202.461546 64.863378 
L 202.494448 62.428441 
L 202.510899 66.729868 
L 202.576703 64.339202 
L 202.593154 65.204269 
L 202.609605 61.954735 
L 202.642506 62.224792 
L 202.691859 56.960015 
L 202.757663 61.126856 
L 202.774114 61.230452 
L 202.807015 63.345748 
L 202.823466 58.74416 
L 202.856368 59.605685 
L 202.872819 59.779229 
L 202.88927 59.465786 
L 202.955074 54.985502 
L 202.987975 59.072655 
L 203.020877 59.850064 
L 203.037328 58.536083 
L 203.053779 59.58532 
L 203.086681 60.321113 
L 203.185386 54.018611 
L 203.201837 58.009251 
L 203.300543 55.805412 
L 203.366346 50.23339 
L 203.399248 53.866317 
L 203.465052 60.890446 
L 203.497954 53.798138 
L 203.514405 53.512144 
L 203.563757 48.466954 
L 203.629561 51.73951 
L 203.646012 49.610932 
L 203.678914 53.051719 
L 203.711815 52.037015 
L 203.826972 60.787736 
L 203.859874 57.178716 
L 203.97503 60.743464 
L 204.007932 57.903 
L 204.106637 52.481501 
L 204.123088 53.411205 
L 204.205343 55.108577 
L 204.221794 52.813538 
L 204.238245 51.998941 
L 204.271146 55.306028 
L 204.304048 57.243353 
L 204.320499 54.73404 
L 204.452106 50.715065 
L 204.567263 54.666747 
L 204.51791 49.679996 
L 204.600165 54.378096 
L 204.731772 49.003526 
L 204.748223 51.748364 
L 204.830477 47.291986 
L 204.846928 50.285631 
L 204.896281 47.257455 
L 204.945634 51.536746 
L 205.143045 44.946478 
L 205.175946 47.292872 
L 205.225299 44.398396 
L 205.24175 42.389351 
L 205.307554 45.814201 
L 205.389808 50.700013 
L 205.340455 44.942051 
L 205.455612 48.791908 
L 205.472063 49.127486 
L 205.570768 42.438936 
L 205.60367 46.495098 
L 205.735277 52.333634 
L 205.685925 46.281709 
L 205.751728 50.475999 
L 205.768179 50.368862 
L 205.883335 46.495983 
L 205.899786 46.561505 
L 205.916237 47.129952 
L 205.932688 45.998371 
L 205.998492 46.826249 
L 206.031394 47.156515 
L 206.113648 42.739982 
L 206.130099 41.272822 
L 206.179452 46.397701 
L 206.228805 49.834061 
L 206.278157 45.444976 
L 206.294608 48.941546 
L 206.360412 51.117937 
L 206.459117 50.759337 
L 206.640077 40.65302 
L 206.656528 42.306121 
L 206.722332 41.789029 
L 206.788135 49.824321 
L 206.804586 48.056114 
L 206.87039 52.828591 
L 207.018448 46.086029 
L 207.05135 50.089065 
L 207.133605 54.188614 
L 207.084252 48.949515 
L 207.150055 53.414746 
L 207.166506 48.199554 
L 207.23231 55.917862 
L 207.281663 59.116041 
L 207.314565 53.058803 
L 207.331015 55.120973 
L 207.495525 37.684167 
L 207.528426 39.584304 
L 207.544877 39.635659 
L 207.577779 44.579909 
L 207.660034 40.829221 
L 207.676485 42.20164 
L 207.709386 38.890125 
L 207.758739 41.199331 
L 207.791641 40.637968 
L 207.808092 45.472424 
L 207.857445 38.872417 
L 207.890346 42.245911 
L 207.923248 38.067559 
L 208.005503 41.178081 
L 208.021954 42.977278 
L 208.038405 36.885508 
L 208.071306 40.377651 
L 208.087757 37.747033 
L 208.170012 40.835419 
L 208.186463 40.901826 
L 208.202914 40.18197 
L 208.235815 42.069711 
L 208.252266 42.013043 
L 208.268717 42.310548 
L 208.301619 43.783906 
L 208.400325 33.510243 
L 208.49903 42.831182 
L 208.548383 41.348969 
L 208.564834 40.492757 
L 208.597735 43.383691 
L 208.647088 41.109017 
L 208.67999 43.57583 
L 208.729343 41.903249 
L 208.745794 38.448295 
L 208.811597 46.620829 
L 208.992557 54.77654 
L 209.009008 51.570392 
L 209.074812 58.226182 
L 209.091263 58.372278 
L 209.354477 46.918334 
L 209.370928 47.664753 
L 209.40383 52.206132 
L 209.453183 46.256031 
L 209.486085 43.927346 
L 209.502535 47.691316 
L 209.518986 46.534057 
L 209.634143 50.313079 
L 209.650594 49.328479 
L 209.699946 44.463032 
L 209.76575 45.213878 
L 209.798652 49.214259 
L 209.864455 44.974812 
L 209.880906 47.235319 
L 210.045415 51.011685 
L 210.144121 46.564162 
L 210.094768 54.105383 
L 210.177023 47.552303 
L 210.259277 44.852622 
L 210.292179 49.467492 
L 210.30863 49.394001 
L 210.341532 45.769044 
L 210.374434 51.039133 
L 210.407335 49.053996 
L 210.522492 54.501171 
L 210.538943 53.944235 
L 210.555394 51.344607 
L 210.588295 52.030817 
" clip-path="url(#p1887e91176)" style="fill: none; stroke: #0072b2; stroke-width: 1.25; stroke-linecap: square"/>
   </g>
   <g id="patch_4">
    <path d="M 37.85375 131.718516 
L 37.85375 20.418516 
" style="fill: none; stroke: #000000; stroke-width: 0.8; stroke-linejoin: miter; stroke-linecap: square"/>
   </g>
   <g id="patch_5">
    <path d="M 37.85375 131.718516 
L 218.81375 131.718516 
" style="fill: none; stroke: #000000; stroke-width: 0.8; stroke-linejoin: miter; stroke-linecap: square"/>
   </g>
   <g id="text_16">
    <!-- drugs2263 rep3 -->
    <g transform="translate(90.460664 14.418516) scale(0.095 -0.095)">
     <defs>
      <path id="DejaVuSans-64" d="M 2906 2969 
L 2906 4863 
L 3481 4863 
L 3481 0 
L 2906 0 
L 2906 525 
Q 2725 213 2448 61 
Q 2172 -91 1784 -91 
Q 1150 -91 751 415 
Q 353 922 353 1747 
Q 353 2572 751 3078 
Q 1150 3584 1784 3584 
Q 2172 3584 2448 3432 
Q 2725 3281 2906 2969 
z
M 947 1747 
Q 947 1113 1208 752 
Q 1469 391 1925 391 
Q 2381 391 2643 752 
Q 2906 1113 2906 1747 
Q 2906 2381 2643 2742 
Q 2381 3103 1925 3103 
Q 1469 3103 1208 2742 
Q 947 2381 947 1747 
z
" transform="scale(0.015625)"/>
      <path id="DejaVuSans-72" d="M 2631 2963 
Q 2534 3019 2420 3045 
Q 2306 3072 2169 3072 
Q 1681 3072 1420 2755 
Q 1159 2438 1159 1844 
L 1159 0 
L 581 0 
L 581 3500 
L 1159 3500 
L 1159 2956 
Q 1341 3275 1631 3429 
Q 1922 3584 2338 3584 
Q 2397 3584 2469 3576 
Q 2541 3569 2628 3553 
L 2631 2963 
z
" transform="scale(0.015625)"/>
      <path id="DejaVuSans-75" d="M 544 1381 
L 544 3500 
L 1119 3500 
L 1119 1403 
Q 1119 906 1312 657 
Q 1506 409 1894 409 
Q 2359 409 2629 706 
Q 2900 1003 2900 1516 
L 2900 3500 
L 3475 3500 
L 3475 0 
L 2900 0 
L 2900 538 
Q 2691 219 2414 64 
Q 2138 -91 1772 -91 
Q 1169 -91 856 284 
Q 544 659 544 1381 
z
M 1991 3584 
L 1991 3584 
z
" transform="scale(0.015625)"/>
      <path id="DejaVuSans-70" d="M 1159 525 
L 1159 -1331 
L 581 -1331 
L 581 3500 
L 1159 3500 
L 1159 2969 
Q 1341 3281 1617 3432 
Q 1894 3584 2278 3584 
Q 2916 3584 3314 3078 
Q 3713 2572 3713 1747 
Q 3713 922 3314 415 
Q 2916 -91 2278 -91 
Q 1894 -91 1617 61 
Q 1341 213 1159 525 
z
M 3116 1747 
Q 3116 2381 2855 2742 
Q 2594 3103 2138 3103 
Q 1681 3103 1420 2742 
Q 1159 2381 1159 1747 
Q 1159 1113 1420 752 
Q 1681 391 2138 391 
Q 2594 391 2855 752 
Q 3116 1113 3116 1747 
z
" transform="scale(0.015625)"/>
     </defs>
     <use xlink:href="#DejaVuSans-64"/>
     <use xlink:href="#DejaVuSans-72" transform="translate(63.476562 0)"/>
     <use xlink:href="#DejaVuSans-75" transform="translate(104.589844 0)"/>
     <use xlink:href="#DejaVuSans-67" transform="translate(167.96875 0)"/>
     <use xlink:href="#DejaVuSans-73" transform="translate(231.445312 0)"/>
     <use xlink:href="#DejaVuSans-32" transform="translate(283.544922 0)"/>
     <use xlink:href="#DejaVuSans-32" transform="translate(347.167969 0)"/>
     <use xlink:href="#DejaVuSans-36" transform="translate(410.791016 0)"/>
     <use xlink:href="#DejaVuSans-33" transform="translate(474.414062 0)"/>
     <use xlink:href="#DejaVuSans-20" transform="translate(538.037109 0)"/>
     <use xlink:href="#DejaVuSans-72" transform="translate(569.824219 0)"/>
     <use xlink:href="#DejaVuSans-65" transform="translate(608.6875 0)"/>
     <use xlink:href="#DejaVuSans-70" transform="translate(670.210938 0)"/>
     <use xlink:href="#DejaVuSans-33" transform="translate(733.6875 0)"/>
    </g>
   </g>
  </g>
 </g>
 <defs>
  <clipPath id="p1887e91176">
   <rect x="37.85375" y="20.418516" width="180.96" height="111.3"/>
  </clipPath>
 </defs>
</svg>
