<?xml version="1.0" encoding="utf-8" standalone="no"?>
<!DOCTYPE svg PUBLIC "-//W3C//DTD SVG 1.1//EN"
  "http://www.w3.org/Graphics/SVG/1.1/DTD/svg11.dtd">
<svg xmlns:xlink="http://www.w3.org/1999/xlink" width="225.998281pt" height="164.903516pt" viewBox="0 0 225.998281 164.903516" xmlns="http://www.w3.org/2000/svg" version="1.1">
 <metadata>
  <rdf:RDF xmlns:dc="http://purl.org/dc/elements/1.1/" xmlns:cc="http://creativecommons.org/ns#" xmlns:rdf="http://www.w3.org/1999/02/22-rdf-syntax-ns#">
   <cc:Work>
    <dc:type rdf:resource="http://purl.org/dc/dcmitype/StillImage"/>
    <dc:date>2026-05-24T13:54:16.180238</dc:date>
    <dc:format>image/svg+xml</dc:format>
    <dc:creator>
     <cc:Agent>
      <dc:title>Matplotlib v3.10.9, https://matplotlib.org/</dc:title>
     </cc:Agent>
    </dc:creator>
   </cc:Work>
  </rdf:RDF>
 </metadata>
 <defs>
  <style type="text/css">*{stroke-linejoin: round; stroke-linecap: butt}</style>
 </defs>
 <g id="figure_1">
  <g id="patch_1">
   <path d="M 0 164.903516 
L 225.998281 164.903516 
L 225.998281 0 
L 0 0 
z
" style="fill: #ffffff"/>
  </g>
  <g id="axes_1">
   <g id="patch_2">
    <path d="M 30.698281 131.718516 
L 218.798281 131.718516 
L 218.798281 20.418516 
L 30.698281 20.418516 
z
" style="fill: #ffffff"/>
   </g>
   <g id="patch_3">
    <path d="M 124.748281 131.718516 
L 210.248281 131.718516 
L 210.248281 20.418516 
L 124.748281 20.418516 
z
" clip-path="url(#pd05d644474)" style="fill: #bdbdbd; opacity: 0.18"/>
   </g>
   <g id="matplotlib.axis_1">
    <g id="xtick_1">
     <g id="line2d_1">
      <defs>
       <path id="md2e8c21b22" d="M 0 0 
L 0 3 
" style="stroke: #000000; stroke-width: 0.7"/>
      </defs>
      <g>
       <use xlink:href="#md2e8c21b22" x="39.248281" y="131.718516" style="stroke: #000000; stroke-width: 0.7"/>
      </g>
     </g>
     <g id="text_1">
      <!-- 0 -->
      <g transform="translate(36.862344 143.917344) scale(0.075 -0.075)">
       <defs>
        <path id="DejaVuSans-30" d="M 2034 4250 
Q 1547 4250 1301 3770 
Q 1056 3291 1056 2328 
Q 1056 1369 1301 889 
Q 1547 409 2034 409 
Q 2525 409 2770 889 
Q 3016 1369 3016 2328 
Q 3016 3291 2770 3770 
Q 2525 4250 2034 4250 
z
M 2034 4750 
Q 2819 4750 3233 4129 
Q 3647 3509 3647 2328 
Q 3647 1150 3233 529 
Q 2819 -91 2034 -91 
Q 1250 -91 836 529 
Q 422 1150 422 2328 
Q 422 3509 836 4129 
Q 1250 4750 2034 4750 
z
" transform="scale(0.015625)"/>
       </defs>
       <use xlink:href="#DejaVuSans-30"/>
      </g>
     </g>
    </g>
    <g id="xtick_2">
     <g id="line2d_2">
      <g>
       <use xlink:href="#md2e8c21b22" x="73.448281" y="131.718516" style="stroke: #000000; stroke-width: 0.7"/>
      </g>
     </g>
     <g id="text_2">
      <!-- 20 -->
      <g transform="translate(68.676406 143.917344) scale(0.075 -0.075)">
       <defs>
        <path id="DejaVuSans-32" d="M 1228 531 
L 3431 531 
L 3431 0 
L 469 0 
L 469 531 
Q 828 903 1448 1529 
Q 2069 2156 2228 2338 
Q 2531 2678 2651 2914 
Q 2772 3150 2772 3378 
Q 2772 3750 2511 3984 
Q 2250 4219 1831 4219 
Q 1534 4219 1204 4116 
Q 875 4013 500 3803 
L 500 4441 
Q 881 4594 1212 4672 
Q 1544 4750 1819 4750 
Q 2544 4750 2975 4387 
Q 3406 4025 3406 3419 
Q 3406 3131 3298 2873 
Q 3191 2616 2906 2266 
Q 2828 2175 2409 1742 
Q 1991 1309 1228 531 
z
" transform="scale(0.015625)"/>
       </defs>
       <use xlink:href="#DejaVuSans-32"/>
       <use xlink:href="#DejaVuSans-30" transform="translate(63.623047 0)"/>
      </g>
     </g>
    </g>
    <g id="xtick_3">
     <g id="line2d_3">
      <g>
       <use xlink:href="#md2e8c21b22" x="107.648281" y="131.718516" style="stroke: #000000; stroke-width: 0.7"/>
      </g>
     </g>
     <g id="text_3">
      <!-- 40 -->
      <g transform="translate(102.876406 143.917344) scale(0.075 -0.075)">
       <defs>
        <path id="DejaVuSans-34" d="M 2419 4116 
L 825 1625 
L 2419 1625 
L 2419 4116 
z
M 2253 4666 
L 3047 4666 
L 3047 1625 
L 3713 1625 
L 3713 1100 
L 3047 1100 
L 3047 0 
L 2419 0 
L 2419 1100 
L 313 1100 
L 313 1709 
L 2253 4666 
z
" transform="scale(0.015625)"/>
       </defs>
       <use xlink:href="#DejaVuSans-34"/>
       <use xlink:href="#DejaVuSans-30" transform="translate(63.623047 0)"/>
      </g>
     </g>
    </g>
    <g id="xtick_4">
     <g id="line2d_4">
      <g>
       <use xlink:href="#md2e8c21b22" x="141.848281" y="131.718516" style="stroke: #000000; stroke-width: 0.7"/>
      </g>
     </g>
     <g id="text_4">
      <!-- 60 -->
      <g transform="translate(137.076406 143.917344) scale(0.075 -0.075)">
       <defs>
        <path id="DejaVuSans-36" d="M 2113 2584 
Q 1688 2584 1439 2293 
Q 1191 2003 1191 1497 
Q 1191 994 1439 701 
Q 1688 409 2113 409 
Q 2538 409 2786 701 
Q 3034 994 3034 1497 
Q 3034 2003 2786 2293 
Q 2538 2584 2113 2584 
z
M 3366 4563 
L 3366 3988 
Q 3128 4100 2886 4159 
Q 2644 4219 2406 4219 
Q 1781 4219 1451 3797 
Q 1122 3375 1075 2522 
Q 1259 2794 1537 2939 
Q 1816 3084 2150 3084 
Q 2853 3084 3261 2657 
Q 3669 2231 3669 1497 
Q 3669 778 3244 343 
Q 2819 -91 2113 -91 
Q 1303 -91 875 529 
Q 447 1150 447 2328 
Q 447 3434 972 4092 
Q 1497 4750 2381 4750 
Q 2619 4750 2861 4703 
Q 3103 4656 3366 4563 
z
" transform="scale(0.015625)"/>
       </defs>
       <use xlink:href="#DejaVuSans-36"/>
       <use xlink:href="#DejaVuSans-30" transform="translate(63.623047 0)"/>
      </g>
     </g>
    </g>
    <g id="xtick_5">
     <g id="line2d_5">
      <g>
       <use xlink:href="#md2e8c21b22" x="176.048281" y="131.718516" style="stroke: #000000; stroke-width: 0.7"/>
      </g>
     </g>
     <g id="text_5">
      <!-- 80 -->
      <g transform="translate(171.276406 143.917344) scale(0.075 -0.075)">
       <defs>
        <path id="DejaVuSans-38" d="M 2034 2216 
Q 1584 2216 1326 1975 
Q 1069 1734 1069 1313 
Q 1069 891 1326 650 
Q 1584 409 2034 409 
Q 2484 409 2743 651 
Q 3003 894 3003 1313 
Q 3003 1734 2745 1975 
Q 2488 2216 2034 2216 
z
M 1403 2484 
Q 997 2584 770 2862 
Q 544 3141 544 3541 
Q 544 4100 942 4425 
Q 1341 4750 2034 4750 
Q 2731 4750 3128 4425 
Q 3525 4100 3525 3541 
Q 3525 3141 3298 2862 
Q 3072 2584 2669 2484 
Q 3125 2378 3379 2068 
Q 3634 1759 3634 1313 
Q 3634 634 3220 271 
Q 2806 -91 2034 -91 
Q 1263 -91 848 271 
Q 434 634 434 1313 
Q 434 1759 690 2068 
Q 947 2378 1403 2484 
z
M 1172 3481 
Q 1172 3119 1398 2916 
Q 1625 2713 2034 2713 
Q 2441 2713 2670 2916 
Q 2900 3119 2900 3481 
Q 2900 3844 2670 4047 
Q 2441 4250 2034 4250 
Q 1625 4250 1398 4047 
Q 1172 3844 1172 3481 
z
" transform="scale(0.015625)"/>
       </defs>
       <use xlink:href="#DejaVuSans-38"/>
       <use xlink:href="#DejaVuSans-30" transform="translate(63.623047 0)"/>
      </g>
     </g>
    </g>
    <g id="xtick_6">
     <g id="line2d_6">
      <g>
       <use xlink:href="#md2e8c21b22" x="210.248281" y="131.718516" style="stroke: #000000; stroke-width: 0.7"/>
      </g>
     </g>
     <g id="text_6">
      <!-- 100 -->
      <g transform="translate(203.090469 143.917344) scale(0.075 -0.075)">
       <defs>
        <path id="DejaVuSans-31" d="M 794 531 
L 1825 531 
L 1825 4091 
L 703 3866 
L 703 4441 
L 1819 4666 
L 2450 4666 
L 2450 531 
L 3481 531 
L 3481 0 
L 794 0 
L 794 531 
z
" transform="scale(0.015625)"/>
       </defs>
       <use xlink:href="#DejaVuSans-31"/>
       <use xlink:href="#DejaVuSans-30" transform="translate(63.623047 0)"/>
       <use xlink:href="#DejaVuSans-30" transform="translate(127.246094 0)"/>
      </g>
     </g>
    </g>
    <g id="text_7">
     <!-- Time (ns) -->
     <g transform="translate(104.775273 155.935781) scale(0.085 -0.085)">
      <defs>
       <path id="DejaVuSans-54" d="M -19 4666 
L 3928 4666 
L 3928 4134 
L 2272 4134 
L 2272 0 
L 1638 0 
L 1638 4134 
L -19 4134 
L -19 4666 
z
" transform="scale(0.015625)"/>
       <path id="DejaVuSans-69" d="M 603 3500 
L 1178 3500 
L 1178 0 
L 603 0 
L 603 3500 
z
M 603 4863 
L 1178 4863 
L 1178 4134 
L 603 4134 
L 603 4863 
z
" transform="scale(0.015625)"/>
       <path id="DejaVuSans-6d" d="M 3328 2828 
Q 3544 3216 3844 3400 
Q 4144 3584 4550 3584 
Q 5097 3584 5394 3201 
Q 5691 2819 5691 2113 
L 5691 0 
L 5113 0 
L 5113 2094 
Q 5113 2597 4934 2840 
Q 4756 3084 4391 3084 
Q 3944 3084 3684 2787 
Q 3425 2491 3425 1978 
L 3425 0 
L 2847 0 
L 2847 2094 
Q 2847 2600 2669 2842 
Q 2491 3084 2119 3084 
Q 1678 3084 1418 2786 
Q 1159 2488 1159 1978 
L 1159 0 
L 581 0 
L 581 3500 
L 1159 3500 
L 1159 2956 
Q 1356 3278 1631 3431 
Q 1906 3584 2284 3584 
Q 2666 3584 2933 3390 
Q 3200 3197 3328 2828 
z
" transform="scale(0.015625)"/>
       <path id="DejaVuSans-65" d="M 3597 1894 
L 3597 1613 
L 953 1613 
Q 991 1019 1311 708 
Q 1631 397 2203 397 
Q 2534 397 2845 478 
Q 3156 559 3463 722 
L 3463 178 
Q 3153 47 2828 -22 
Q 2503 -91 2169 -91 
Q 1331 -91 842 396 
Q 353 884 353 1716 
Q 353 2575 817 3079 
Q 1281 3584 2069 3584 
Q 2775 3584 3186 3129 
Q 3597 2675 3597 1894 
z
M 3022 2063 
Q 3016 2534 2758 2815 
Q 2500 3097 2075 3097 
Q 1594 3097 1305 2825 
Q 1016 2553 972 2059 
L 3022 2063 
z
" transform="scale(0.015625)"/>
       <path id="DejaVuSans-20" transform="scale(0.015625)"/>
       <path id="DejaVuSans-28" d="M 1984 4856 
Q 1566 4138 1362 3434 
Q 1159 2731 1159 2009 
Q 1159 1288 1364 580 
Q 1569 -128 1984 -844 
L 1484 -844 
Q 1016 -109 783 600 
Q 550 1309 550 2009 
Q 550 2706 781 3412 
Q 1013 4119 1484 4856 
L 1984 4856 
z
" transform="scale(0.015625)"/>
       <path id="DejaVuSans-6e" d="M 3513 2113 
L 3513 0 
L 2938 0 
L 2938 2094 
Q 2938 2591 2744 2837 
Q 2550 3084 2163 3084 
Q 1697 3084 1428 2787 
Q 1159 2491 1159 1978 
L 1159 0 
L 581 0 
L 581 3500 
L 1159 3500 
L 1159 2956 
Q 1366 3272 1645 3428 
Q 1925 3584 2291 3584 
Q 2894 3584 3203 3211 
Q 3513 2838 3513 2113 
z
" transform="scale(0.015625)"/>
       <path id="DejaVuSans-73" d="M 2834 3397 
L 2834 2853 
Q 2591 2978 2328 3040 
Q 2066 3103 1784 3103 
Q 1356 3103 1142 2972 
Q 928 2841 928 2578 
Q 928 2378 1081 2264 
Q 1234 2150 1697 2047 
L 1894 2003 
Q 2506 1872 2764 1633 
Q 3022 1394 3022 966 
Q 3022 478 2636 193 
Q 2250 -91 1575 -91 
Q 1294 -91 989 -36 
Q 684 19 347 128 
L 347 722 
Q 666 556 975 473 
Q 1284 391 1588 391 
Q 1994 391 2212 530 
Q 2431 669 2431 922 
Q 2431 1156 2273 1281 
Q 2116 1406 1581 1522 
L 1381 1569 
Q 847 1681 609 1914 
Q 372 2147 372 2553 
Q 372 3047 722 3315 
Q 1072 3584 1716 3584 
Q 2034 3584 2315 3537 
Q 2597 3491 2834 3397 
z
" transform="scale(0.015625)"/>
       <path id="DejaVuSans-29" d="M 513 4856 
L 1013 4856 
Q 1481 4119 1714 3412 
Q 1947 2706 1947 2009 
Q 1947 1309 1714 600 
Q 1481 -109 1013 -844 
L 513 -844 
Q 928 -128 1133 580 
Q 1338 1288 1338 2009 
Q 1338 2731 1133 3434 
Q 928 4138 513 4856 
z
" transform="scale(0.015625)"/>
      </defs>
      <use xlink:href="#DejaVuSans-54"/>
      <use xlink:href="#DejaVuSans-69" transform="translate(57.958984 0)"/>
      <use xlink:href="#DejaVuSans-6d" transform="translate(85.742188 0)"/>
      <use xlink:href="#DejaVuSans-65" transform="translate(183.154297 0)"/>
      <use xlink:href="#DejaVuSans-20" transform="translate(244.677734 0)"/>
      <use xlink:href="#DejaVuSans-28" transform="translate(276.464844 0)"/>
      <use xlink:href="#DejaVuSans-6e" transform="translate(315.478516 0)"/>
      <use xlink:href="#DejaVuSans-73" transform="translate(378.857422 0)"/>
      <use xlink:href="#DejaVuSans-29" transform="translate(430.957031 0)"/>
     </g>
    </g>
   </g>
   <g id="matplotlib.axis_2">
    <g id="ytick_1">
     <g id="line2d_7">
      <defs>
       <path id="m9ae320c586" d="M 0 0 
L -3 0 
" style="stroke: #000000; stroke-width: 0.7"/>
      </defs>
      <g>
       <use xlink:href="#m9ae320c586" x="30.698281" y="126.659425" style="stroke: #000000; stroke-width: 0.7"/>
      </g>
     </g>
     <g id="text_8">
      <!-- 0 -->
      <g transform="translate(19.426406 129.508839) scale(0.075 -0.075)">
       <use xlink:href="#DejaVuSans-30"/>
      </g>
     </g>
    </g>
    <g id="ytick_2">
     <g id="line2d_8">
      <g>
       <use xlink:href="#m9ae320c586" x="30.698281" y="109.795788" style="stroke: #000000; stroke-width: 0.7"/>
      </g>
     </g>
     <g id="text_9">
      <!-- 1 -->
      <g transform="translate(19.426406 112.645202) scale(0.075 -0.075)">
       <use xlink:href="#DejaVuSans-31"/>
      </g>
     </g>
    </g>
    <g id="ytick_3">
     <g id="line2d_9">
      <g>
       <use xlink:href="#m9ae320c586" x="30.698281" y="92.932152" style="stroke: #000000; stroke-width: 0.7"/>
      </g>
     </g>
     <g id="text_10">
      <!-- 2 -->
      <g transform="translate(19.426406 95.781566) scale(0.075 -0.075)">
       <use xlink:href="#DejaVuSans-32"/>
      </g>
     </g>
    </g>
    <g id="ytick_4">
     <g id="line2d_10">
      <g>
       <use xlink:href="#m9ae320c586" x="30.698281" y="76.068516" style="stroke: #000000; stroke-width: 0.7"/>
      </g>
     </g>
     <g id="text_11">
      <!-- 3 -->
      <g transform="translate(19.426406 78.91793) scale(0.075 -0.075)">
       <defs>
        <path id="DejaVuSans-33" d="M 2597 2516 
Q 3050 2419 3304 2112 
Q 3559 1806 3559 1356 
Q 3559 666 3084 287 
Q 2609 -91 1734 -91 
Q 1441 -91 1130 -33 
Q 819 25 488 141 
L 488 750 
Q 750 597 1062 519 
Q 1375 441 1716 441 
Q 2309 441 2620 675 
Q 2931 909 2931 1356 
Q 2931 1769 2642 2001 
Q 2353 2234 1838 2234 
L 1294 2234 
L 1294 2753 
L 1863 2753 
Q 2328 2753 2575 2939 
Q 2822 3125 2822 3475 
Q 2822 3834 2567 4026 
Q 2313 4219 1838 4219 
Q 1578 4219 1281 4162 
Q 984 4106 628 3988 
L 628 4550 
Q 988 4650 1302 4700 
Q 1616 4750 1894 4750 
Q 2613 4750 3031 4423 
Q 3450 4097 3450 3541 
Q 3450 3153 3228 2886 
Q 3006 2619 2597 2516 
z
" transform="scale(0.015625)"/>
       </defs>
       <use xlink:href="#DejaVuSans-33"/>
      </g>
     </g>
    </g>
    <g id="ytick_5">
     <g id="line2d_11">
      <g>
       <use xlink:href="#m9ae320c586" x="30.698281" y="59.204879" style="stroke: #000000; stroke-width: 0.7"/>
      </g>
     </g>
     <g id="text_12">
      <!-- 4 -->
      <g transform="translate(19.426406 62.054293) scale(0.075 -0.075)">
       <use xlink:href="#DejaVuSans-34"/>
      </g>
     </g>
    </g>
    <g id="ytick_6">
     <g id="line2d_12">
      <g>
       <use xlink:href="#m9ae320c586" x="30.698281" y="42.341243" style="stroke: #000000; stroke-width: 0.7"/>
      </g>
     </g>
     <g id="text_13">
      <!-- 5 -->
      <g transform="translate(19.426406 45.190657) scale(0.075 -0.075)">
       <defs>
        <path id="DejaVuSans-35" d="M 691 4666 
L 3169 4666 
L 3169 4134 
L 1269 4134 
L 1269 2991 
Q 1406 3038 1543 3061 
Q 1681 3084 1819 3084 
Q 2600 3084 3056 2656 
Q 3513 2228 3513 1497 
Q 3513 744 3044 326 
Q 2575 -91 1722 -91 
Q 1428 -91 1123 -41 
Q 819 9 494 109 
L 494 744 
Q 775 591 1075 516 
Q 1375 441 1709 441 
Q 2250 441 2565 725 
Q 2881 1009 2881 1497 
Q 2881 1984 2565 2268 
Q 2250 2553 1709 2553 
Q 1456 2553 1204 2497 
Q 953 2441 691 2322 
L 691 4666 
z
" transform="scale(0.015625)"/>
       </defs>
       <use xlink:href="#DejaVuSans-35"/>
      </g>
     </g>
    </g>
    <g id="ytick_7">
     <g id="line2d_13">
      <g>
       <use xlink:href="#m9ae320c586" x="30.698281" y="25.477607" style="stroke: #000000; stroke-width: 0.7"/>
      </g>
     </g>
     <g id="text_14">
      <!-- 6 -->
      <g transform="translate(19.426406 28.327021) scale(0.075 -0.075)">
       <use xlink:href="#DejaVuSans-36"/>
      </g>
     </g>
    </g>
    <g id="text_15">
     <!-- Number of H-bonds -->
     <g transform="translate(13.658672 117.573086) rotate(-90) scale(0.085 -0.085)">
      <defs>
       <path id="DejaVuSans-4e" d="M 628 4666 
L 1478 4666 
L 3547 763 
L 3547 4666 
L 4159 4666 
L 4159 0 
L 3309 0 
L 1241 3903 
L 1241 0 
L 628 0 
L 628 4666 
z
" transform="scale(0.015625)"/>
       <path id="DejaVuSans-75" d="M 544 1381 
L 544 3500 
L 1119 3500 
L 1119 1403 
Q 1119 906 1312 657 
Q 1506 409 1894 409 
Q 2359 409 2629 706 
Q 2900 1003 2900 1516 
L 2900 3500 
L 3475 3500 
L 3475 0 
L 2900 0 
L 2900 538 
Q 2691 219 2414 64 
Q 2138 -91 1772 -91 
Q 1169 -91 856 284 
Q 544 659 544 1381 
z
M 1991 3584 
L 1991 3584 
z
" transform="scale(0.015625)"/>
       <path id="DejaVuSans-62" d="M 3116 1747 
Q 3116 2381 2855 2742 
Q 2594 3103 2138 3103 
Q 1681 3103 1420 2742 
Q 1159 2381 1159 1747 
Q 1159 1113 1420 752 
Q 1681 391 2138 391 
Q 2594 391 2855 752 
Q 3116 1113 3116 1747 
z
M 1159 2969 
Q 1341 3281 1617 3432 
Q 1894 3584 2278 3584 
Q 2916 3584 3314 3078 
Q 3713 2572 3713 1747 
Q 3713 922 3314 415 
Q 2916 -91 2278 -91 
Q 1894 -91 1617 61 
Q 1341 213 1159 525 
L 1159 0 
L 581 0 
L 581 4863 
L 1159 4863 
L 1159 2969 
z
" transform="scale(0.015625)"/>
       <path id="DejaVuSans-72" d="M 2631 2963 
Q 2534 3019 2420 3045 
Q 2306 3072 2169 3072 
Q 1681 3072 1420 2755 
Q 1159 2438 1159 1844 
L 1159 0 
L 581 0 
L 581 3500 
L 1159 3500 
L 1159 2956 
Q 1341 3275 1631 3429 
Q 1922 3584 2338 3584 
Q 2397 3584 2469 3576 
Q 2541 3569 2628 3553 
L 2631 2963 
z
" transform="scale(0.015625)"/>
       <path id="DejaVuSans-6f" d="M 1959 3097 
Q 1497 3097 1228 2736 
Q 959 2375 959 1747 
Q 959 1119 1226 758 
Q 1494 397 1959 397 
Q 2419 397 2687 759 
Q 2956 1122 2956 1747 
Q 2956 2369 2687 2733 
Q 2419 3097 1959 3097 
z
M 1959 3584 
Q 2709 3584 3137 3096 
Q 3566 2609 3566 1747 
Q 3566 888 3137 398 
Q 2709 -91 1959 -91 
Q 1206 -91 779 398 
Q 353 888 353 1747 
Q 353 2609 779 3096 
Q 1206 3584 1959 3584 
z
" transform="scale(0.015625)"/>
       <path id="DejaVuSans-66" d="M 2375 4863 
L 2375 4384 
L 1825 4384 
Q 1516 4384 1395 4259 
Q 1275 4134 1275 3809 
L 1275 3500 
L 2222 3500 
L 2222 3053 
L 1275 3053 
L 1275 0 
L 697 0 
L 697 3053 
L 147 3053 
L 147 3500 
L 697 3500 
L 697 3744 
Q 697 4328 969 4595 
Q 1241 4863 1831 4863 
L 2375 4863 
z
" transform="scale(0.015625)"/>
       <path id="DejaVuSans-48" d="M 628 4666 
L 1259 4666 
L 1259 2753 
L 3553 2753 
L 3553 4666 
L 4184 4666 
L 4184 0 
L 3553 0 
L 3553 2222 
L 1259 2222 
L 1259 0 
L 628 0 
L 628 4666 
z
" transform="scale(0.015625)"/>
       <path id="DejaVuSans-2d" d="M 313 2009 
L 1997 2009 
L 1997 1497 
L 313 1497 
L 313 2009 
z
" transform="scale(0.015625)"/>
       <path id="DejaVuSans-64" d="M 2906 2969 
L 2906 4863 
L 3481 4863 
L 3481 0 
L 2906 0 
L 2906 525 
Q 2725 213 2448 61 
Q 2172 -91 1784 -91 
Q 1150 -91 751 415 
Q 353 922 353 1747 
Q 353 2572 751 3078 
Q 1150 3584 1784 3584 
Q 2172 3584 2448 3432 
Q 2725 3281 2906 2969 
z
M 947 1747 
Q 947 1113 1208 752 
Q 1469 391 1925 391 
Q 2381 391 2643 752 
Q 2906 1113 2906 1747 
Q 2906 2381 2643 2742 
Q 2381 3103 1925 3103 
Q 1469 3103 1208 2742 
Q 947 2381 947 1747 
z
" transform="scale(0.015625)"/>
      </defs>
      <use xlink:href="#DejaVuSans-4e"/>
      <use xlink:href="#DejaVuSans-75" transform="translate(74.804688 0)"/>
      <use xlink:href="#DejaVuSans-6d" transform="translate(138.183594 0)"/>
      <use xlink:href="#DejaVuSans-62" transform="translate(235.595703 0)"/>
      <use xlink:href="#DejaVuSans-65" transform="translate(299.072266 0)"/>
      <use xlink:href="#DejaVuSans-72" transform="translate(360.595703 0)"/>
      <use xlink:href="#DejaVuSans-20" transform="translate(401.708984 0)"/>
      <use xlink:href="#DejaVuSans-6f" transform="translate(433.496094 0)"/>
      <use xlink:href="#DejaVuSans-66" transform="translate(494.677734 0)"/>
      <use xlink:href="#DejaVuSans-20" transform="translate(529.882812 0)"/>
      <use xlink:href="#DejaVuSans-48" transform="translate(561.669922 0)"/>
      <use xlink:href="#DejaVuSans-2d" transform="translate(636.865234 0)"/>
      <use xlink:href="#DejaVuSans-62" transform="translate(672.949219 0)"/>
      <use xlink:href="#DejaVuSans-6f" transform="translate(736.425781 0)"/>
      <use xlink:href="#DejaVuSans-6e" transform="translate(797.607422 0)"/>
      <use xlink:href="#DejaVuSans-64" transform="translate(860.986328 0)"/>
      <use xlink:href="#DejaVuSans-73" transform="translate(924.462891 0)"/>
     </g>
    </g>
   </g>
   <g id="line2d_14">
    <path d="M 39.248281 92.932152 
L 39.265381 92.932152 
L 39.350881 76.068516 
L 39.299581 109.795788 
L 39.367981 92.932152 
L 39.504781 126.659425 
L 39.538981 92.932152 
L 39.607381 126.659425 
L 39.624481 126.659425 
L 39.658681 92.932152 
L 39.727081 126.659425 
L 40.000681 126.659425 
L 40.103281 109.795788 
L 40.222981 126.659425 
L 40.308481 126.659425 
L 40.445281 92.932152 
L 40.479481 92.932152 
L 40.599181 126.659425 
L 40.633381 76.068516 
L 40.701781 92.932152 
L 40.718881 126.659425 
L 40.804381 92.932152 
L 40.838581 92.932152 
L 40.941181 126.659425 
L 40.958281 109.795788 
L 41.060881 92.932152 
L 41.129281 126.659425 
L 41.146381 76.068516 
L 41.163481 92.932152 
L 41.283181 92.932152 
L 41.402881 109.795788 
L 41.471281 109.795788 
L 41.556781 126.659425 
L 41.539681 92.932152 
L 41.573881 109.795788 
L 41.590981 109.795788 
L 41.710681 92.932152 
L 41.727781 109.795788 
L 41.813281 92.932152 
L 41.881681 92.932152 
L 42.001381 126.659425 
L 42.086881 92.932152 
L 42.103981 109.795788 
L 42.223681 126.659425 
L 42.326281 92.932152 
L 42.377581 126.659425 
L 42.428881 109.795788 
L 42.480181 109.795788 
L 42.497281 92.932152 
L 42.548581 126.659425 
L 42.582781 109.795788 
L 42.616981 109.795788 
L 42.634081 92.932152 
L 42.702481 109.795788 
L 42.822181 126.659425 
L 42.856381 126.659425 
L 42.941881 109.795788 
L 42.958981 126.659425 
L 43.044481 126.659425 
L 43.164181 109.795788 
L 43.181281 109.795788 
L 43.300981 126.659425 
L 43.318081 109.795788 
L 43.403581 126.659425 
L 43.454881 126.659425 
L 43.574581 109.795788 
L 43.591681 109.795788 
L 43.694281 126.659425 
L 43.779781 109.795788 
L 43.796881 126.659425 
L 43.848181 126.659425 
L 43.967881 109.795788 
L 44.036281 109.795788 
L 44.155981 126.659425 
L 44.173081 126.659425 
L 44.292781 109.795788 
L 44.412481 126.659425 
L 44.446681 126.659425 
L 44.532181 109.795788 
L 44.549281 126.659425 
L 44.583481 126.659425 
L 44.651881 109.795788 
L 44.686081 126.659425 
L 44.703181 126.659425 
L 44.720281 109.795788 
L 44.805781 126.659425 
L 44.874181 126.659425 
L 44.976781 109.795788 
L 45.045181 126.659425 
L 45.079381 109.795788 
L 45.113581 109.795788 
L 45.199081 126.659425 
L 45.216181 109.795788 
L 45.284581 109.795788 
L 45.335881 126.659425 
L 45.387181 109.795788 
L 45.575281 109.795788 
L 45.643681 126.659425 
L 45.677881 109.795788 
L 45.729181 109.795788 
L 45.797581 126.659425 
L 45.831781 109.795788 
L 46.002781 109.795788 
L 46.019881 126.659425 
L 46.105381 109.795788 
L 46.122481 109.795788 
L 46.242181 126.659425 
L 46.361881 109.795788 
L 46.413181 109.795788 
L 46.464481 92.932152 
L 46.515781 109.795788 
L 46.584181 109.795788 
L 46.635481 92.932152 
L 46.703881 126.659425 
L 46.720981 126.659425 
L 46.840681 109.795788 
L 46.874881 109.795788 
L 46.943281 126.659425 
L 46.960381 92.932152 
L 46.977481 109.795788 
L 47.028781 109.795788 
L 47.045881 92.932152 
L 47.131381 109.795788 
L 47.285281 109.795788 
L 47.302381 126.659425 
L 47.387881 109.795788 
L 47.678581 109.795788 
L 47.695681 126.659425 
L 47.781181 109.795788 
L 47.849581 109.795788 
L 47.866681 92.932152 
L 47.952181 109.795788 
L 48.003481 126.659425 
L 48.037681 109.795788 
L 48.054781 92.932152 
L 48.140281 109.795788 
L 48.174481 109.795788 
L 48.259981 126.659425 
L 48.277081 109.795788 
L 48.294181 109.795788 
L 48.311281 126.659425 
L 48.396781 109.795788 
L 48.465181 109.795788 
L 48.584881 126.659425 
L 49.149181 126.659425 
L 49.166281 109.795788 
L 49.251781 126.659425 
L 49.337281 126.659425 
L 49.456981 109.795788 
L 49.593781 109.795788 
L 49.610881 92.932152 
L 49.679281 109.795788 
L 49.798981 126.659425 
L 49.867381 126.659425 
L 49.987081 109.795788 
L 50.021281 109.795788 
L 50.106781 126.659425 
L 50.123881 109.795788 
L 50.294881 109.795788 
L 50.414581 126.659425 
L 50.534281 109.795788 
L 50.568481 109.795788 
L 50.688181 126.659425 
L 50.739481 126.659425 
L 50.842081 109.795788 
L 50.876281 126.659425 
L 50.944681 109.795788 
L 50.961781 109.795788 
L 50.978881 126.659425 
L 51.064381 109.795788 
L 51.184081 109.795788 
L 51.201181 92.932152 
L 51.286681 109.795788 
L 51.440581 109.795788 
L 51.474781 126.659425 
L 51.543181 109.795788 
L 51.611581 109.795788 
L 51.731281 126.659425 
L 52.192981 126.659425 
L 52.244281 109.795788 
L 52.295581 126.659425 
L 55.082881 126.659425 
L 55.099981 109.795788 
L 55.185481 126.659425 
L 55.681381 126.659425 
L 55.715581 109.795788 
L 55.783981 126.659425 
L 56.108881 126.659425 
L 56.125981 109.795788 
L 56.211481 126.659425 
L 56.433781 126.659425 
L 56.450881 109.795788 
L 56.536381 126.659425 
L 56.690281 126.659425 
L 56.707381 109.795788 
L 56.792881 126.659425 
L 61.786081 126.659425 
L 61.803181 109.795788 
L 61.888681 126.659425 
L 61.939981 126.659425 
L 61.957081 109.795788 
L 62.042581 126.659425 
L 62.059681 126.659425 
L 62.076781 109.795788 
L 62.162281 126.659425 
L 62.470081 126.659425 
L 62.589781 109.795788 
L 62.641081 126.659425 
L 62.692381 109.795788 
L 62.709481 109.795788 
L 62.743681 126.659425 
L 62.812081 109.795788 
L 63.000181 109.795788 
L 63.017281 126.659425 
L 63.102781 109.795788 
L 63.136981 109.795788 
L 63.154081 92.932152 
L 63.239581 109.795788 
L 63.256681 126.659425 
L 63.325081 109.795788 
L 63.342181 76.068516 
L 63.427681 109.795788 
L 63.649981 109.795788 
L 63.667081 92.932152 
L 63.752581 109.795788 
L 63.940681 109.795788 
L 63.957781 92.932152 
L 64.026181 109.795788 
L 64.043281 126.659425 
L 64.128781 109.795788 
L 64.316881 109.795788 
L 64.333981 126.659425 
L 64.419481 109.795788 
L 64.453681 109.795788 
L 64.539181 126.659425 
L 64.556281 109.795788 
L 64.573381 109.795788 
L 64.693081 126.659425 
L 64.812781 109.795788 
L 64.846981 109.795788 
L 64.949581 126.659425 
L 65.069281 109.795788 
L 65.120581 109.795788 
L 65.240281 126.659425 
L 65.257381 126.659425 
L 65.274481 92.932152 
L 65.359981 126.659425 
L 65.479681 109.795788 
L 65.548081 109.795788 
L 65.565181 126.659425 
L 65.650681 109.795788 
L 65.701981 109.795788 
L 65.719081 126.659425 
L 65.804581 109.795788 
L 66.454381 109.795788 
L 66.556981 126.659425 
L 66.676681 109.795788 
L 66.933181 109.795788 
L 66.950281 126.659425 
L 67.035781 109.795788 
L 67.155481 109.795788 
L 67.189681 126.659425 
L 67.258081 109.795788 
L 67.565881 109.795788 
L 67.582981 92.932152 
L 67.651381 126.659425 
L 67.668481 109.795788 
L 67.805281 109.795788 
L 67.856581 126.659425 
L 67.907881 109.795788 
L 67.993381 109.795788 
L 68.113081 126.659425 
L 68.232781 109.795788 
L 68.403781 109.795788 
L 68.489281 126.659425 
L 68.506381 109.795788 
L 68.523481 109.795788 
L 68.643181 126.659425 
L 69.361381 126.659425 
L 69.446881 92.932152 
L 69.481081 109.795788 
L 69.532381 109.795788 
L 69.652081 126.659425 
L 69.754681 126.659425 
L 69.874381 109.795788 
L 69.891481 109.795788 
L 69.959881 126.659425 
L 69.994081 109.795788 
L 70.062481 109.795788 
L 70.113781 126.659425 
L 70.165081 109.795788 
L 70.199281 109.795788 
L 70.318981 126.659425 
L 70.438681 109.795788 
L 70.472881 109.795788 
L 70.575481 126.659425 
L 70.695181 109.795788 
L 70.712281 109.795788 
L 70.729381 126.659425 
L 70.797781 109.795788 
L 70.831981 92.932152 
L 70.900381 109.795788 
L 70.985881 109.795788 
L 71.002981 126.659425 
L 71.088481 109.795788 
L 71.310781 109.795788 
L 71.362081 126.659425 
L 71.396281 92.932152 
L 71.413381 109.795788 
L 71.533081 109.795788 
L 71.550181 92.932152 
L 71.635681 109.795788 
L 71.686981 109.795788 
L 71.704081 126.659425 
L 71.789581 109.795788 
L 71.806681 109.795788 
L 71.909281 126.659425 
L 72.028981 109.795788 
L 72.114481 109.795788 
L 72.234181 126.659425 
L 72.439381 126.659425 
L 72.559081 109.795788 
L 72.644581 109.795788 
L 72.695881 126.659425 
L 72.747181 109.795788 
L 72.832681 109.795788 
L 72.952381 126.659425 
L 73.072081 109.795788 
L 73.191781 109.795788 
L 73.260181 126.659425 
L 73.294381 109.795788 
L 73.396981 109.795788 
L 73.516681 126.659425 
L 73.687681 126.659425 
L 73.704781 109.795788 
L 73.790281 126.659425 
L 74.217781 126.659425 
L 74.234881 109.795788 
L 74.320381 126.659425 
L 74.764981 126.659425 
L 74.850481 109.795788 
L 74.867581 126.659425 
L 74.901781 126.659425 
L 74.918881 109.795788 
L 75.004381 126.659425 
L 75.055681 126.659425 
L 75.072781 92.932152 
L 75.158281 109.795788 
L 75.277981 126.659425 
L 75.414781 92.932152 
L 75.534481 126.659425 
L 75.654181 109.795788 
L 75.739681 126.659425 
L 75.756781 109.795788 
L 75.808081 109.795788 
L 75.927781 126.659425 
L 75.961981 126.659425 
L 76.030381 109.795788 
L 76.064581 126.659425 
L 76.115881 126.659425 
L 76.252681 92.932152 
L 76.372381 109.795788 
L 76.406581 109.795788 
L 76.474981 126.659425 
L 76.492081 109.795788 
L 76.509181 92.932152 
L 76.594681 109.795788 
L 76.782781 109.795788 
L 76.902481 126.659425 
L 76.919581 126.659425 
L 77.039281 109.795788 
L 77.056381 109.795788 
L 77.176081 126.659425 
L 77.261581 126.659425 
L 77.381281 109.795788 
L 77.483881 109.795788 
L 77.518081 126.659425 
L 77.586481 109.795788 
L 77.689081 109.795788 
L 77.757481 126.659425 
L 77.791681 109.795788 
L 77.808781 109.795788 
L 77.928481 126.659425 
L 77.945581 126.659425 
L 77.962681 92.932152 
L 78.048181 109.795788 
L 78.099481 109.795788 
L 78.116581 92.932152 
L 78.202081 109.795788 
L 78.304681 126.659425 
L 78.424381 109.795788 
L 78.544081 126.659425 
L 78.732181 126.659425 
L 78.851881 109.795788 
L 78.868981 109.795788 
L 78.920281 92.932152 
L 78.988681 126.659425 
L 79.074181 109.795788 
L 79.091281 126.659425 
L 79.176781 126.659425 
L 79.296481 109.795788 
L 79.313581 126.659425 
L 79.399081 109.795788 
L 79.484581 109.795788 
L 79.501681 92.932152 
L 79.587181 109.795788 
L 79.638481 109.795788 
L 79.655581 126.659425 
L 79.741081 109.795788 
L 79.758181 109.795788 
L 79.843681 126.659425 
L 79.860781 109.795788 
L 79.877881 109.795788 
L 79.980481 126.659425 
L 80.100181 109.795788 
L 80.151481 109.795788 
L 80.168581 126.659425 
L 80.236981 109.795788 
L 80.254081 92.932152 
L 80.271181 126.659425 
L 80.339581 109.795788 
L 80.630281 109.795788 
L 80.647381 92.932152 
L 80.715781 109.795788 
L 80.732881 126.659425 
L 80.818381 109.795788 
L 80.989381 109.795788 
L 81.074881 92.932152 
L 81.109081 126.659425 
L 81.126181 126.659425 
L 81.194581 92.932152 
L 81.228781 126.659425 
L 81.245881 126.659425 
L 81.348481 92.932152 
L 81.365581 109.795788 
L 81.468181 109.795788 
L 81.570781 92.932152 
L 81.604981 126.659425 
L 81.690481 109.795788 
L 81.724681 109.795788 
L 81.844381 126.659425 
L 81.964081 109.795788 
L 81.981181 126.659425 
L 82.066681 109.795788 
L 82.083781 109.795788 
L 82.169281 126.659425 
L 82.186381 109.795788 
L 82.203481 109.795788 
L 82.288981 126.659425 
L 82.306081 109.795788 
L 82.494181 109.795788 
L 82.562581 126.659425 
L 82.596781 109.795788 
L 82.682281 109.795788 
L 82.716481 126.659425 
L 82.784881 109.795788 
L 82.819081 109.795788 
L 82.836181 126.659425 
L 82.921681 109.795788 
L 83.024281 109.795788 
L 83.126881 126.659425 
L 83.212381 109.795788 
L 83.229481 126.659425 
L 83.246581 126.659425 
L 83.349181 109.795788 
L 83.468881 126.659425 
L 83.605681 126.659425 
L 83.639881 92.932152 
L 83.708281 126.659425 
L 83.725381 126.659425 
L 83.810881 92.932152 
L 83.827981 126.659425 
L 83.947681 126.659425 
L 84.067381 92.932152 
L 84.187081 126.659425 
L 84.289681 92.932152 
L 84.306781 109.795788 
L 84.323881 109.795788 
L 84.426481 126.659425 
L 84.529081 109.795788 
L 84.563281 92.932152 
L 84.648781 126.659425 
L 84.734281 126.659425 
L 84.751381 92.932152 
L 84.836881 126.659425 
L 84.956581 109.795788 
L 84.973681 109.795788 
L 84.990781 126.659425 
L 85.076281 109.795788 
L 85.161781 109.795788 
L 85.213081 126.659425 
L 85.247281 92.932152 
L 85.264381 109.795788 
L 85.332781 109.795788 
L 85.349881 126.659425 
L 85.418281 92.932152 
L 85.435381 109.795788 
L 85.486681 109.795788 
L 85.589281 126.659425 
L 85.708981 109.795788 
L 85.726081 109.795788 
L 85.743181 126.659425 
L 85.777381 92.932152 
L 85.828681 109.795788 
L 85.879981 109.795788 
L 85.931281 92.932152 
L 85.999681 126.659425 
L 86.016781 126.659425 
L 86.068081 109.795788 
L 86.119381 126.659425 
L 86.136481 126.659425 
L 86.239081 92.932152 
L 86.256181 109.795788 
L 86.444281 109.795788 
L 86.461381 92.932152 
L 86.512681 126.659425 
L 86.529781 109.795788 
L 86.598181 126.659425 
L 86.632381 109.795788 
L 86.649481 109.795788 
L 86.666581 126.659425 
L 86.734981 92.932152 
L 86.752081 109.795788 
L 86.786281 109.795788 
L 86.803381 126.659425 
L 86.888881 109.795788 
L 86.905981 109.795788 
L 86.991481 126.659425 
L 86.957281 92.932152 
L 87.008581 109.795788 
L 87.025681 109.795788 
L 87.042781 126.659425 
L 87.128281 109.795788 
L 87.179581 109.795788 
L 87.196681 92.932152 
L 87.282181 109.795788 
L 87.333481 109.795788 
L 87.453181 126.659425 
L 87.555781 92.932152 
L 87.572881 109.795788 
L 87.589981 109.795788 
L 87.624181 126.659425 
L 87.675481 92.932152 
L 87.778081 126.659425 
L 87.897781 109.795788 
L 87.914881 109.795788 
L 87.931981 126.659425 
L 88.017481 109.795788 
L 88.034581 109.795788 
L 88.154281 126.659425 
L 88.239781 109.795788 
L 88.256881 126.659425 
L 88.273981 126.659425 
L 88.393681 109.795788 
L 88.496281 126.659425 
L 88.615981 109.795788 
L 88.633081 109.795788 
L 88.667281 92.932152 
L 88.735681 126.659425 
L 88.855381 109.795788 
L 88.940881 109.795788 
L 89.060581 126.659425 
L 89.077681 126.659425 
L 89.197381 109.795788 
L 89.231581 109.795788 
L 89.265781 126.659425 
L 89.334181 109.795788 
L 89.368381 109.795788 
L 89.419681 126.659425 
L 89.470981 109.795788 
L 89.522281 109.795788 
L 89.607781 126.659425 
L 89.624881 109.795788 
L 89.693281 109.795788 
L 89.744581 126.659425 
L 89.795881 109.795788 
L 89.830081 109.795788 
L 89.932681 126.659425 
L 89.949781 76.068516 
L 90.035281 92.932152 
L 90.172081 126.659425 
L 90.257581 92.932152 
L 90.291781 109.795788 
L 90.394381 109.795788 
L 90.462781 92.932152 
L 90.479881 126.659425 
L 90.496981 109.795788 
L 90.531181 109.795788 
L 90.582481 92.932152 
L 90.599581 126.659425 
L 90.633781 109.795788 
L 90.753481 126.659425 
L 90.804781 92.932152 
L 90.856081 109.795788 
L 90.958681 126.659425 
L 91.061281 109.795788 
L 91.129681 76.068516 
L 91.180981 126.659425 
L 91.300681 92.932152 
L 91.334881 126.659425 
L 91.420381 109.795788 
L 91.505881 109.795788 
L 91.625581 126.659425 
L 91.642681 126.659425 
L 91.693981 92.932152 
L 91.745281 126.659425 
L 91.762381 126.659425 
L 91.882081 109.795788 
L 91.933381 109.795788 
L 92.018881 126.659425 
L 92.035981 109.795788 
L 92.241181 109.795788 
L 92.360881 126.659425 
L 92.480581 109.795788 
L 92.925181 109.795788 
L 93.044881 126.659425 
L 93.164581 109.795788 
L 93.198781 109.795788 
L 93.284281 126.659425 
L 93.301381 109.795788 
L 93.472381 109.795788 
L 93.540781 126.659425 
L 93.574981 109.795788 
L 93.609181 109.795788 
L 93.677581 126.659425 
L 93.711781 109.795788 
L 94.105081 109.795788 
L 94.224781 126.659425 
L 94.344481 109.795788 
L 94.412881 109.795788 
L 94.429981 126.659425 
L 94.515481 109.795788 
L 94.549681 109.795788 
L 94.566781 92.932152 
L 94.652281 109.795788 
L 94.737781 109.795788 
L 94.771981 126.659425 
L 94.840381 109.795788 
L 94.925881 109.795788 
L 95.011381 92.932152 
L 95.028481 109.795788 
L 95.079781 109.795788 
L 95.199481 126.659425 
L 95.319181 109.795788 
L 95.353381 109.795788 
L 95.473081 126.659425 
L 95.558581 109.795788 
L 95.575681 126.659425 
L 95.626981 126.659425 
L 95.746681 109.795788 
L 95.763781 126.659425 
L 95.849281 109.795788 
L 95.866381 109.795788 
L 95.951881 126.659425 
L 95.968981 109.795788 
L 96.191281 109.795788 
L 96.259681 126.659425 
L 96.293881 109.795788 
L 96.328081 109.795788 
L 96.396481 126.659425 
L 96.430681 109.795788 
L 96.550381 109.795788 
L 96.652981 126.659425 
L 96.772681 109.795788 
L 96.943681 109.795788 
L 96.977881 126.659425 
L 97.046281 109.795788 
L 97.063381 109.795788 
L 97.148881 126.659425 
L 97.165981 109.795788 
L 97.456681 109.795788 
L 97.473781 126.659425 
L 97.559281 109.795788 
L 97.576381 109.795788 
L 97.644781 126.659425 
L 97.678981 109.795788 
L 97.815781 109.795788 
L 97.832881 126.659425 
L 97.918381 109.795788 
L 97.935481 109.795788 
L 97.952581 92.932152 
L 98.020981 109.795788 
L 98.089381 126.659425 
L 98.123581 109.795788 
L 98.328781 109.795788 
L 98.431381 126.659425 
L 98.533981 109.795788 
L 98.653681 126.659425 
L 98.687881 126.659425 
L 98.722081 109.795788 
L 98.790481 126.659425 
L 98.893081 126.659425 
L 98.927281 109.795788 
L 98.995681 126.659425 
L 99.046981 126.659425 
L 99.166681 109.795788 
L 99.252181 126.659425 
L 99.269281 109.795788 
L 99.337681 109.795788 
L 99.457381 126.659425 
L 99.542881 126.659425 
L 99.628381 109.795788 
L 99.645481 126.659425 
L 99.662581 126.659425 
L 99.782281 109.795788 
L 99.901981 126.659425 
L 99.953281 126.659425 
L 100.021681 109.795788 
L 100.055881 126.659425 
L 100.141381 126.659425 
L 100.226881 109.795788 
L 100.243981 126.659425 
L 100.312381 126.659425 
L 100.380781 92.932152 
L 100.414981 109.795788 
L 100.517581 126.659425 
L 100.637281 109.795788 
L 100.654381 109.795788 
L 100.688581 92.932152 
L 100.756981 109.795788 
L 100.791181 109.795788 
L 100.910881 126.659425 
L 101.064781 126.659425 
L 101.098981 92.932152 
L 101.167381 126.659425 
L 101.235781 126.659425 
L 101.321281 92.932152 
L 101.355481 109.795788 
L 101.372581 109.795788 
L 101.440981 126.659425 
L 101.475181 109.795788 
L 101.526481 109.795788 
L 101.543581 76.068516 
L 101.577781 126.659425 
L 101.629081 109.795788 
L 101.731681 109.795788 
L 101.748781 126.659425 
L 101.765881 76.068516 
L 101.817181 92.932152 
L 101.851381 92.932152 
L 101.902681 126.659425 
L 101.971081 109.795788 
L 102.022381 109.795788 
L 102.039481 126.659425 
L 102.107881 109.795788 
L 102.227581 92.932152 
L 102.261781 92.932152 
L 102.347281 126.659425 
L 102.364381 109.795788 
L 102.449881 109.795788 
L 102.518281 126.659425 
L 102.552481 109.795788 
L 102.603781 109.795788 
L 102.672181 126.659425 
L 102.706381 109.795788 
L 102.791881 109.795788 
L 102.826081 126.659425 
L 102.894481 109.795788 
L 102.911581 109.795788 
L 102.945781 126.659425 
L 102.997081 109.795788 
L 103.014181 92.932152 
L 103.031281 126.659425 
L 103.082581 109.795788 
L 103.099681 126.659425 
L 103.168081 109.795788 
L 103.185181 92.932152 
L 103.202281 126.659425 
L 103.270681 109.795788 
L 103.339081 109.795788 
L 103.458781 126.659425 
L 103.475881 109.795788 
L 103.561381 126.659425 
L 103.646881 126.659425 
L 103.663981 92.932152 
L 103.749481 126.659425 
L 103.852081 126.659425 
L 103.886281 109.795788 
L 103.954681 126.659425 
L 104.057281 126.659425 
L 104.074381 109.795788 
L 104.159881 126.659425 
L 104.330881 126.659425 
L 104.347981 109.795788 
L 104.433481 126.659425 
L 104.536081 126.659425 
L 104.655781 109.795788 
L 104.724181 92.932152 
L 104.758381 126.659425 
L 104.792581 92.932152 
L 104.878081 109.795788 
L 104.946481 126.659425 
L 104.980681 109.795788 
L 105.237181 109.795788 
L 105.339781 126.659425 
L 105.459481 109.795788 
L 105.510781 126.659425 
L 105.562081 109.795788 
L 105.579181 92.932152 
L 105.596281 126.659425 
L 105.647581 126.659425 
L 105.733081 126.659425 
L 105.835681 109.795788 
L 105.904081 76.068516 
L 105.938281 126.659425 
L 105.955381 92.932152 
L 106.040881 109.795788 
L 106.143481 109.795788 
L 106.160581 92.932152 
L 106.211881 126.659425 
L 106.246081 109.795788 
L 106.297381 109.795788 
L 106.331581 126.659425 
L 106.399981 109.795788 
L 106.502581 109.795788 
L 106.519681 126.659425 
L 106.605181 109.795788 
L 106.639381 109.795788 
L 106.707781 76.068516 
L 106.741981 109.795788 
L 106.776181 109.795788 
L 106.827481 92.932152 
L 106.895881 126.659425 
L 107.066881 126.659425 
L 107.083981 109.795788 
L 107.169481 126.659425 
L 107.186581 126.659425 
L 107.289181 109.795788 
L 107.323381 126.659425 
L 107.391781 109.795788 
L 107.511481 109.795788 
L 107.614081 126.659425 
L 107.682481 109.795788 
L 107.716681 126.659425 
L 107.767981 126.659425 
L 107.870581 109.795788 
L 107.921881 126.659425 
L 107.973181 109.795788 
L 107.990281 109.795788 
L 108.041581 126.659425 
L 108.092881 109.795788 
L 108.246781 109.795788 
L 108.349381 126.659425 
L 108.469081 92.932152 
L 108.605881 126.659425 
L 108.725581 109.795788 
L 108.845281 109.795788 
L 108.930781 126.659425 
L 108.947881 109.795788 
L 108.964981 92.932152 
L 109.050481 109.795788 
L 109.118881 109.795788 
L 109.221481 92.932152 
L 109.341181 109.795788 
L 109.392481 126.659425 
L 109.460881 92.932152 
L 109.546381 126.659425 
L 109.563481 109.795788 
L 109.580581 92.932152 
L 109.666081 109.795788 
L 109.734481 109.795788 
L 109.751581 126.659425 
L 109.837081 109.795788 
L 109.990981 109.795788 
L 110.008081 92.932152 
L 110.093581 109.795788 
L 110.127781 109.795788 
L 110.144881 126.659425 
L 110.230381 109.795788 
L 110.350081 109.795788 
L 110.384281 92.932152 
L 110.469781 126.659425 
L 110.503981 126.659425 
L 110.623681 92.932152 
L 110.760481 126.659425 
L 110.777581 92.932152 
L 110.863081 109.795788 
L 111.051181 109.795788 
L 111.085381 92.932152 
L 111.153781 109.795788 
L 111.461581 109.795788 
L 111.478681 92.932152 
L 111.529981 126.659425 
L 111.547081 109.795788 
L 111.632581 126.659425 
L 111.649681 109.795788 
L 111.666781 109.795788 
L 111.786481 126.659425 
L 111.889081 126.659425 
L 112.008781 109.795788 
L 112.162681 109.795788 
L 112.265281 126.659425 
L 112.384981 109.795788 
L 112.419181 109.795788 
L 112.436281 92.932152 
L 112.521781 109.795788 
L 112.675681 109.795788 
L 112.692781 126.659425 
L 112.778281 109.795788 
L 112.795381 109.795788 
L 112.915081 126.659425 
L 113.034781 109.795788 
L 113.051881 109.795788 
L 113.154481 126.659425 
L 113.188681 92.932152 
L 113.274181 109.795788 
L 113.308381 109.795788 
L 113.428081 126.659425 
L 113.445181 126.659425 
L 113.564881 109.795788 
L 113.599081 109.795788 
L 113.718781 126.659425 
L 113.923981 126.659425 
L 113.975281 109.795788 
L 114.026581 126.659425 
L 114.248881 126.659425 
L 114.385681 92.932152 
L 114.436981 92.932152 
L 114.556681 109.795788 
L 114.607981 109.795788 
L 114.659281 92.932152 
L 114.676381 126.659425 
L 114.710581 109.795788 
L 114.727681 109.795788 
L 114.778981 126.659425 
L 114.847381 92.932152 
L 114.967081 109.795788 
L 115.035481 92.932152 
L 115.069681 109.795788 
L 115.103881 109.795788 
L 115.223581 126.659425 
L 115.291981 126.659425 
L 115.343281 76.068516 
L 115.411681 109.795788 
L 115.462981 126.659425 
L 115.514281 109.795788 
L 115.565581 109.795788 
L 115.599781 92.932152 
L 115.668181 126.659425 
L 115.736581 109.795788 
L 115.770781 126.659425 
L 115.804981 126.659425 
L 115.822081 109.795788 
L 115.907581 126.659425 
L 115.924681 126.659425 
L 116.010181 109.795788 
L 116.027281 126.659425 
L 116.044381 126.659425 
L 116.164081 109.795788 
L 116.198281 109.795788 
L 116.215381 92.932152 
L 116.249581 126.659425 
L 116.283781 126.659425 
L 116.506081 126.659425 
L 116.591581 109.795788 
L 116.608681 126.659425 
L 116.659981 126.659425 
L 116.728381 109.795788 
L 116.762581 126.659425 
L 116.950681 126.659425 
L 116.967781 109.795788 
L 117.053281 126.659425 
L 117.446581 126.659425 
L 117.463681 92.932152 
L 117.549181 126.659425 
L 117.566281 126.659425 
L 117.583381 109.795788 
L 117.668881 126.659425 
L 117.703081 126.659425 
L 117.805681 109.795788 
L 117.874081 92.932152 
L 117.925381 126.659425 
L 117.976681 92.932152 
L 118.027981 126.659425 
L 118.045081 126.659425 
L 118.062181 109.795788 
L 118.147681 126.659425 
L 118.352881 126.659425 
L 118.438381 92.932152 
L 118.472581 109.795788 
L 118.489681 126.659425 
L 118.575181 109.795788 
L 118.660681 109.795788 
L 118.780381 126.659425 
L 118.831681 126.659425 
L 118.968481 92.932152 
L 119.088181 126.659425 
L 119.173681 109.795788 
L 119.190781 126.659425 
L 119.224981 126.659425 
L 119.242081 109.795788 
L 119.327581 126.659425 
L 119.652481 126.659425 
L 119.772181 109.795788 
L 119.806381 109.795788 
L 119.891881 126.659425 
L 119.908981 109.795788 
L 119.926081 109.795788 
L 119.943181 126.659425 
L 120.011581 92.932152 
L 120.028681 109.795788 
L 120.045781 76.068516 
L 120.114181 126.659425 
L 120.131281 109.795788 
L 120.319381 109.795788 
L 120.439081 126.659425 
L 120.524581 92.932152 
L 120.558781 109.795788 
L 120.592981 109.795788 
L 120.695581 126.659425 
L 120.815281 109.795788 
L 120.952081 109.795788 
L 121.054681 92.932152 
L 121.157281 109.795788 
L 121.174381 92.932152 
L 121.259881 109.795788 
L 121.311181 109.795788 
L 121.345381 76.068516 
L 121.413781 92.932152 
L 121.465081 92.932152 
L 121.584781 109.795788 
L 121.601881 109.795788 
L 121.687381 126.659425 
L 121.704481 109.795788 
L 121.807081 109.795788 
L 121.824181 126.659425 
L 121.875481 92.932152 
L 121.892581 109.795788 
L 121.909681 92.932152 
L 121.995181 109.795788 
L 122.029381 109.795788 
L 122.097781 92.932152 
L 122.063581 126.659425 
L 122.131981 109.795788 
L 122.251681 109.795788 
L 122.371381 126.659425 
L 122.388481 126.659425 
L 122.508181 109.795788 
L 122.815981 109.795788 
L 122.833081 92.932152 
L 122.850181 126.659425 
L 122.918581 109.795788 
L 123.004081 109.795788 
L 123.021181 126.659425 
L 123.106681 109.795788 
L 123.380281 109.795788 
L 123.397381 92.932152 
L 123.482881 109.795788 
L 123.499981 109.795788 
L 123.602581 92.932152 
L 123.722281 109.795788 
L 123.756481 109.795788 
L 123.824881 126.659425 
L 123.859081 109.795788 
L 123.893281 109.795788 
L 123.961681 126.659425 
L 123.995881 109.795788 
L 124.030081 109.795788 
L 124.149781 126.659425 
L 124.269481 109.795788 
L 124.611481 109.795788 
L 124.714081 126.659425 
L 124.833781 109.795788 
L 124.919281 109.795788 
L 124.936381 92.932152 
L 124.987681 126.659425 
L 125.021881 109.795788 
L 125.124481 109.795788 
L 125.141581 92.932152 
L 125.175781 126.659425 
L 125.227081 109.795788 
L 125.449381 109.795788 
L 125.466481 126.659425 
L 125.551981 109.795788 
L 125.569081 109.795788 
L 125.671681 126.659425 
L 125.722981 76.068516 
L 125.791381 109.795788 
L 126.116281 109.795788 
L 126.218881 126.659425 
L 126.253081 92.932152 
L 126.338581 109.795788 
L 126.389881 109.795788 
L 126.458281 126.659425 
L 126.492481 109.795788 
L 126.646381 109.795788 
L 126.731881 126.659425 
L 126.748981 109.795788 
L 126.868681 109.795788 
L 126.902881 126.659425 
L 126.971281 109.795788 
L 127.005481 109.795788 
L 127.022581 126.659425 
L 127.039681 92.932152 
L 127.108081 109.795788 
L 127.210681 109.795788 
L 127.261981 92.932152 
L 127.330381 126.659425 
L 127.432981 109.795788 
L 127.467181 92.932152 
L 127.535581 126.659425 
L 127.655281 109.795788 
L 127.860481 109.795788 
L 127.877581 126.659425 
L 127.945981 92.932152 
L 127.963081 109.795788 
L 128.014381 109.795788 
L 128.082781 126.659425 
L 128.116981 109.795788 
L 128.151181 109.795788 
L 128.253781 126.659425 
L 128.390581 92.932152 
L 128.407681 126.659425 
L 128.493181 109.795788 
L 128.766781 109.795788 
L 128.869381 126.659425 
L 128.989081 109.795788 
L 129.006181 109.795788 
L 129.074581 126.659425 
L 129.108781 109.795788 
L 129.177181 109.795788 
L 129.296881 126.659425 
L 129.313981 126.659425 
L 129.416581 109.795788 
L 129.502081 126.659425 
L 129.519181 109.795788 
L 129.536281 109.795788 
L 129.553381 92.932152 
L 129.587581 126.659425 
L 129.621781 126.659425 
L 129.638881 126.659425 
L 129.758581 109.795788 
L 129.861181 126.659425 
L 129.963781 109.795788 
L 129.980881 126.659425 
L 130.066381 109.795788 
L 130.288681 109.795788 
L 130.408381 126.659425 
L 130.442581 109.795788 
L 130.510981 126.659425 
L 130.528081 126.659425 
L 130.647781 109.795788 
L 130.733281 126.659425 
L 130.750381 109.795788 
L 130.818781 109.795788 
L 130.904281 126.659425 
L 130.921381 109.795788 
L 130.989781 109.795788 
L 131.006881 92.932152 
L 131.058181 126.659425 
L 131.075281 126.659425 
L 131.092381 126.659425 
L 131.177881 92.932152 
L 131.194981 109.795788 
L 131.280481 126.659425 
L 131.297581 109.795788 
L 131.314681 109.795788 
L 131.434381 126.659425 
L 131.451481 126.659425 
L 131.468581 109.795788 
L 131.554081 126.659425 
L 131.690881 126.659425 
L 131.810581 109.795788 
L 131.981581 109.795788 
L 131.998681 92.932152 
L 132.049981 126.659425 
L 132.067081 109.795788 
L 132.118381 126.659425 
L 132.169681 109.795788 
L 132.186781 109.795788 
L 132.306481 126.659425 
L 132.323581 126.659425 
L 132.426181 109.795788 
L 132.545881 126.659425 
L 132.562981 126.659425 
L 132.597181 109.795788 
L 132.665581 126.659425 
L 132.699781 126.659425 
L 132.819481 109.795788 
L 132.836581 109.795788 
L 132.956281 126.659425 
L 133.127281 126.659425 
L 133.246981 109.795788 
L 133.452181 109.795788 
L 133.503481 126.659425 
L 133.554781 109.795788 
L 133.725781 109.795788 
L 133.828381 92.932152 
L 133.845481 126.659425 
L 133.930981 92.932152 
L 134.050681 109.795788 
L 134.101981 109.795788 
L 134.136181 126.659425 
L 134.204581 109.795788 
L 134.512381 109.795788 
L 134.632081 92.932152 
L 134.751781 109.795788 
L 134.871481 109.795788 
L 134.888581 126.659425 
L 134.922781 92.932152 
L 134.974081 109.795788 
L 135.059581 92.932152 
L 135.076681 109.795788 
L 135.110881 109.795788 
L 135.145081 92.932152 
L 135.196381 109.795788 
L 135.213481 126.659425 
L 135.298981 109.795788 
L 135.384481 109.795788 
L 135.401581 92.932152 
L 135.452881 126.659425 
L 135.487081 109.795788 
L 135.794881 109.795788 
L 135.829081 126.659425 
L 135.880381 92.932152 
L 135.897481 126.659425 
L 135.982981 109.795788 
L 136.000081 92.932152 
L 136.034281 126.659425 
L 136.068481 109.795788 
L 136.119781 126.659425 
L 136.171081 109.795788 
L 136.188181 109.795788 
L 136.239481 92.932152 
L 136.290781 109.795788 
L 136.342081 109.795788 
L 136.444681 126.659425 
L 136.564381 109.795788 
L 136.666981 126.659425 
L 136.718281 92.932152 
L 136.786681 109.795788 
L 136.889281 109.795788 
L 136.906381 92.932152 
L 136.991881 109.795788 
L 137.111581 109.795788 
L 137.145781 126.659425 
L 137.214181 92.932152 
L 137.350981 126.659425 
L 137.470681 92.932152 
L 137.539081 126.659425 
L 137.590381 109.795788 
L 137.607481 109.795788 
L 137.658781 92.932152 
L 137.710081 109.795788 
L 137.812681 109.795788 
L 137.915281 126.659425 
L 138.000781 92.932152 
L 138.034981 109.795788 
L 138.052081 109.795788 
L 138.069181 92.932152 
L 138.154681 109.795788 
L 138.171781 126.659425 
L 138.257281 109.795788 
L 138.274381 109.795788 
L 138.342781 92.932152 
L 138.376981 126.659425 
L 138.479581 92.932152 
L 138.496681 109.795788 
L 138.582181 109.795788 
L 138.599281 126.659425 
L 138.667681 92.932152 
L 138.684781 109.795788 
L 138.770281 109.795788 
L 138.872881 126.659425 
L 138.992581 109.795788 
L 139.112281 109.795788 
L 139.129381 126.659425 
L 139.214881 109.795788 
L 139.368781 109.795788 
L 139.471381 126.659425 
L 139.591081 109.795788 
L 139.608181 109.795788 
L 139.727881 126.659425 
L 139.830481 126.659425 
L 139.933081 92.932152 
L 139.950181 109.795788 
L 140.018581 109.795788 
L 140.104081 126.659425 
L 140.121181 109.795788 
L 140.172481 109.795788 
L 140.240881 126.659425 
L 140.275081 109.795788 
L 140.292181 109.795788 
L 140.309281 92.932152 
L 140.394781 109.795788 
L 140.480281 109.795788 
L 140.497381 126.659425 
L 140.582881 109.795788 
L 140.685481 109.795788 
L 140.788081 126.659425 
L 140.907781 109.795788 
L 140.976181 109.795788 
L 141.078781 126.659425 
L 141.215581 92.932152 
L 141.318181 126.659425 
L 141.437881 109.795788 
L 141.454981 109.795788 
L 141.472081 76.068516 
L 141.557581 109.795788 
L 141.608881 109.795788 
L 141.677281 92.932152 
L 141.660181 126.659425 
L 141.711481 109.795788 
L 141.796981 109.795788 
L 141.865381 126.659425 
L 141.899581 109.795788 
L 141.985081 76.068516 
L 142.019281 92.932152 
L 142.156081 126.659425 
L 142.190281 92.932152 
L 142.275781 109.795788 
L 142.498081 109.795788 
L 142.566481 59.204879 
L 142.532281 126.659425 
L 142.600681 109.795788 
L 142.634881 109.795788 
L 142.703281 92.932152 
L 142.720381 109.795788 
L 142.737481 126.659425 
L 142.822981 109.795788 
L 142.840081 109.795788 
L 142.874281 92.932152 
L 142.942681 109.795788 
L 142.959781 109.795788 
L 143.045281 92.932152 
L 142.993981 126.659425 
L 143.062381 109.795788 
L 143.079481 109.795788 
L 143.096581 126.659425 
L 143.164981 92.932152 
L 143.182081 92.932152 
L 143.301781 126.659425 
L 143.387281 92.932152 
L 143.421481 109.795788 
L 143.506981 109.795788 
L 143.558281 92.932152 
L 143.626681 126.659425 
L 143.643781 126.659425 
L 143.763481 109.795788 
L 143.900281 109.795788 
L 144.002881 92.932152 
L 144.088381 109.795788 
L 144.105481 92.932152 
L 144.173881 76.068516 
L 144.139681 109.795788 
L 144.190981 109.795788 
L 144.310681 126.659425 
L 144.413281 92.932152 
L 144.430381 109.795788 
L 144.464581 109.795788 
L 144.532981 126.659425 
L 144.567181 109.795788 
L 144.635581 109.795788 
L 144.755281 126.659425 
L 144.772381 126.659425 
L 144.874981 109.795788 
L 144.909181 126.659425 
L 144.926281 92.932152 
L 144.977581 109.795788 
L 145.011781 109.795788 
L 145.028881 126.659425 
L 145.045981 42.341243 
L 145.080181 92.932152 
L 145.114381 76.068516 
L 145.148581 109.795788 
L 145.216981 126.659425 
L 145.251181 109.795788 
L 145.370881 92.932152 
L 145.405081 92.932152 
L 145.456381 109.795788 
L 145.507681 92.932152 
L 145.558981 92.932152 
L 145.593181 76.068516 
L 145.695781 126.659425 
L 145.729981 126.659425 
L 145.849681 109.795788 
L 145.900981 92.932152 
L 145.969381 126.659425 
L 145.986481 126.659425 
L 146.003581 92.932152 
L 146.089081 109.795788 
L 146.106181 126.659425 
L 146.157481 92.932152 
L 146.191681 109.795788 
L 146.242981 109.795788 
L 146.345581 126.659425 
L 146.431081 76.068516 
L 146.465281 109.795788 
L 146.602081 109.795788 
L 146.636281 76.068516 
L 146.704681 126.659425 
L 146.824381 109.795788 
L 146.858581 109.795788 
L 146.961181 126.659425 
L 147.080881 109.795788 
L 147.200581 126.659425 
L 147.217681 126.659425 
L 147.320281 109.795788 
L 147.337381 126.659425 
L 147.422881 109.795788 
L 147.457081 109.795788 
L 147.576781 126.659425 
L 147.696481 109.795788 
L 147.730681 109.795788 
L 147.833281 126.659425 
L 147.952981 109.795788 
L 148.072681 126.659425 
L 148.089781 126.659425 
L 148.209481 109.795788 
L 148.260781 109.795788 
L 148.329181 126.659425 
L 148.363381 109.795788 
L 148.380481 109.795788 
L 148.500181 126.659425 
L 148.602781 126.659425 
L 148.654081 109.795788 
L 148.705381 126.659425 
L 148.739581 126.659425 
L 148.756681 109.795788 
L 148.842181 126.659425 
L 148.944781 126.659425 
L 149.047381 92.932152 
L 149.064481 109.795788 
L 149.184181 126.659425 
L 149.355181 126.659425 
L 149.372281 109.795788 
L 149.457781 126.659425 
L 149.474881 126.659425 
L 149.560381 109.795788 
L 149.577481 126.659425 
L 149.868181 126.659425 
L 149.885281 109.795788 
L 149.970781 126.659425 
L 150.210181 126.659425 
L 150.227281 109.795788 
L 150.312781 126.659425 
L 150.329881 126.659425 
L 150.449581 109.795788 
L 150.620581 109.795788 
L 150.740281 126.659425 
L 150.962581 126.659425 
L 151.082281 109.795788 
L 151.201981 126.659425 
L 152.125381 126.659425 
L 152.227981 109.795788 
L 152.330581 126.659425 
L 152.398981 92.932152 
L 152.433181 109.795788 
L 152.501581 109.795788 
L 152.621281 126.659425 
L 152.706781 109.795788 
L 152.723881 126.659425 
L 152.758081 126.659425 
L 152.860681 109.795788 
L 152.980381 126.659425 
L 152.997481 126.659425 
L 153.117181 109.795788 
L 153.202681 109.795788 
L 153.288181 126.659425 
L 153.305281 109.795788 
L 153.322381 109.795788 
L 153.442081 126.659425 
L 153.527581 126.659425 
L 153.647281 109.795788 
L 153.681481 109.795788 
L 153.801181 126.659425 
L 153.869581 126.659425 
L 153.989281 109.795788 
L 154.040581 109.795788 
L 154.057681 126.659425 
L 154.143181 109.795788 
L 154.433881 109.795788 
L 154.468081 126.659425 
L 154.536481 109.795788 
L 154.570681 109.795788 
L 154.656181 126.659425 
L 154.673281 92.932152 
L 154.758781 109.795788 
L 154.878481 126.659425 
L 154.963981 92.932152 
L 154.981081 109.795788 
L 154.998181 109.795788 
L 155.117881 126.659425 
L 155.254681 92.932152 
L 155.391481 126.659425 
L 155.476981 92.932152 
L 155.511181 109.795788 
L 155.613781 126.659425 
L 155.630881 92.932152 
L 155.716381 126.659425 
L 155.801881 109.795788 
L 155.818981 126.659425 
L 155.836081 126.659425 
L 155.938681 109.795788 
L 156.041281 126.659425 
L 156.160981 109.795788 
L 156.280681 109.795788 
L 156.331981 126.659425 
L 156.383281 109.795788 
L 156.622681 109.795788 
L 156.691081 92.932152 
L 156.742381 126.659425 
L 156.793681 126.659425 
L 156.896281 92.932152 
L 156.998881 126.659425 
L 157.101481 109.795788 
L 157.204081 126.659425 
L 157.323781 109.795788 
L 157.443481 126.659425 
L 157.546081 92.932152 
L 157.563181 109.795788 
L 157.717081 109.795788 
L 157.734181 92.932152 
L 157.751281 126.659425 
L 157.819681 109.795788 
L 157.853881 109.795788 
L 157.922281 126.659425 
L 157.956481 109.795788 
L 157.973581 109.795788 
L 157.990681 126.659425 
L 158.076181 109.795788 
L 158.230081 109.795788 
L 158.281381 126.659425 
L 158.332681 109.795788 
L 158.418181 109.795788 
L 158.435281 92.932152 
L 158.486581 126.659425 
L 158.520781 109.795788 
L 158.777281 109.795788 
L 158.828581 126.659425 
L 158.862781 109.795788 
L 158.879881 92.932152 
L 158.914081 126.659425 
L 158.965381 109.795788 
L 158.999581 109.795788 
L 159.085081 126.659425 
L 159.102181 109.795788 
L 159.136381 109.795788 
L 159.204781 126.659425 
L 159.238981 109.795788 
L 159.273181 109.795788 
L 159.392881 126.659425 
L 159.495481 109.795788 
L 159.580981 126.659425 
L 159.598081 109.795788 
L 159.700681 109.795788 
L 159.751981 76.068516 
L 159.769081 126.659425 
L 159.803281 92.932152 
L 159.837481 126.659425 
L 159.905881 109.795788 
L 159.940081 126.659425 
L 160.025581 92.932152 
L 160.042681 126.659425 
L 160.128181 92.932152 
L 160.179481 76.068516 
L 160.247881 109.795788 
L 160.282081 109.795788 
L 160.316281 126.659425 
L 160.367581 92.932152 
L 160.384681 109.795788 
L 160.435981 109.795788 
L 160.470181 92.932152 
L 160.555681 126.659425 
L 160.572781 126.659425 
L 160.692481 109.795788 
L 160.726681 109.795788 
L 160.777981 126.659425 
L 160.829281 109.795788 
L 160.880581 109.795788 
L 161.000281 126.659425 
L 161.119981 76.068516 
L 161.137081 92.932152 
L 161.154181 92.932152 
L 161.290981 126.659425 
L 161.410681 109.795788 
L 161.479081 109.795788 
L 161.496181 92.932152 
L 161.581681 109.795788 
L 161.769781 109.795788 
L 161.786881 76.068516 
L 161.803981 126.659425 
L 161.855281 126.659425 
L 161.906581 126.659425 
L 162.026281 109.795788 
L 162.060481 126.659425 
L 162.128881 109.795788 
L 162.145981 109.795788 
L 162.265681 92.932152 
L 162.351181 126.659425 
L 162.385381 109.795788 
L 162.402481 92.932152 
L 162.487981 109.795788 
L 162.505081 126.659425 
L 162.590581 109.795788 
L 162.829981 109.795788 
L 162.898381 126.659425 
L 162.932581 109.795788 
L 163.052281 109.795788 
L 163.171981 126.659425 
L 163.189081 126.659425 
L 163.308781 92.932152 
L 163.428481 109.795788 
L 163.445581 92.932152 
L 163.496881 126.659425 
L 163.513981 126.659425 
L 163.548181 126.659425 
L 163.650781 92.932152 
L 163.770481 109.795788 
L 163.873081 109.795788 
L 163.941481 126.659425 
L 163.958581 109.795788 
L 164.009881 92.932152 
L 163.992781 126.659425 
L 164.044081 109.795788 
L 164.061181 126.659425 
L 164.129581 92.932152 
L 164.146681 109.795788 
L 164.163781 109.795788 
L 164.180881 126.659425 
L 164.266381 109.795788 
L 164.368981 109.795788 
L 164.488681 126.659425 
L 164.591281 109.795788 
L 164.693881 126.659425 
L 164.813581 109.795788 
L 164.830681 109.795788 
L 164.881981 126.659425 
L 164.933281 109.795788 
L 165.377881 109.795788 
L 165.497581 126.659425 
L 165.548881 92.932152 
L 165.617281 109.795788 
L 165.685681 109.795788 
L 165.805381 126.659425 
L 165.925081 109.795788 
L 166.044781 109.795788 
L 166.061881 92.932152 
L 166.147381 109.795788 
L 166.198681 109.795788 
L 166.318381 126.659425 
L 166.352581 126.659425 
L 166.472281 109.795788 
L 166.489381 126.659425 
L 166.574881 109.795788 
L 166.780081 109.795788 
L 166.814281 126.659425 
L 166.882681 109.795788 
L 166.968181 109.795788 
L 167.053681 126.659425 
L 167.070781 109.795788 
L 167.122081 92.932152 
L 167.139181 126.659425 
L 167.173381 109.795788 
L 167.190481 109.795788 
L 167.258881 92.932152 
L 167.275981 109.795788 
L 167.293081 126.659425 
L 167.378581 109.795788 
L 167.532481 109.795788 
L 167.652181 126.659425 
L 167.669281 126.659425 
L 167.720581 92.932152 
L 167.771881 109.795788 
L 167.891581 126.659425 
L 168.011281 109.795788 
L 168.130981 109.795788 
L 168.148081 92.932152 
L 168.233581 109.795788 
L 168.301981 109.795788 
L 168.319081 126.659425 
L 168.404581 109.795788 
L 168.455881 109.795788 
L 168.524281 126.659425 
L 168.558481 109.795788 
L 170.148781 109.795788 
L 170.165881 126.659425 
L 170.234281 92.932152 
L 170.251381 109.795788 
L 170.268481 92.932152 
L 170.353981 109.795788 
L 170.371081 109.795788 
L 170.456581 92.932152 
L 170.576281 126.659425 
L 170.678881 92.932152 
L 170.695981 109.795788 
L 170.935381 109.795788 
L 170.952481 126.659425 
L 171.037981 109.795788 
L 171.431281 109.795788 
L 171.448381 92.932152 
L 171.533881 109.795788 
L 171.585181 109.795788 
L 171.602281 126.659425 
L 171.687781 109.795788 
L 171.892981 109.795788 
L 171.910081 126.659425 
L 171.995581 109.795788 
L 172.081081 109.795788 
L 172.098181 92.932152 
L 172.183681 109.795788 
L 173.141281 109.795788 
L 173.158381 92.932152 
L 173.243881 109.795788 
L 175.398481 109.795788 
L 175.415581 126.659425 
L 175.501081 109.795788 
L 176.373181 109.795788 
L 176.424481 126.659425 
L 176.475781 109.795788 
L 176.492881 109.795788 
L 176.578381 126.659425 
L 176.595481 109.795788 
L 176.715181 109.795788 
L 176.749381 126.659425 
L 176.817781 109.795788 
L 176.886181 109.795788 
L 176.937481 76.068516 
L 176.988781 109.795788 
L 177.022981 109.795788 
L 177.040081 92.932152 
L 177.125581 109.795788 
L 177.228181 109.795788 
L 177.245281 92.932152 
L 177.330781 109.795788 
L 177.467581 109.795788 
L 177.484681 126.659425 
L 177.553081 92.932152 
L 177.570181 109.795788 
L 177.895081 109.795788 
L 177.912181 126.659425 
L 177.997681 109.795788 
L 178.014781 92.932152 
L 178.100281 109.795788 
L 178.117381 109.795788 
L 178.185781 92.932152 
L 178.237081 126.659425 
L 178.373881 92.932152 
L 178.476481 126.659425 
L 178.493581 109.795788 
L 179.194681 109.795788 
L 179.211781 92.932152 
L 179.297281 109.795788 
L 179.314381 109.795788 
L 179.331481 126.659425 
L 179.416981 109.795788 
L 179.434081 92.932152 
L 179.519581 109.795788 
L 179.536681 109.795788 
L 179.639281 76.068516 
L 179.758981 109.795788 
L 179.776081 109.795788 
L 179.895781 92.932152 
L 179.929981 92.932152 
L 180.032581 109.795788 
L 180.066781 92.932152 
L 180.135181 109.795788 
L 180.169381 109.795788 
L 180.289081 92.932152 
L 180.323281 109.795788 
L 180.374581 92.932152 
L 180.408781 109.795788 
L 180.477181 76.068516 
L 180.562681 109.795788 
L 180.579781 92.932152 
L 180.648181 76.068516 
L 180.682381 92.932152 
L 180.767881 109.795788 
L 180.784981 92.932152 
L 180.836281 92.932152 
L 180.938881 109.795788 
L 180.990181 92.932152 
L 181.041481 109.795788 
L 181.058581 109.795788 
L 181.109881 92.932152 
L 181.161181 109.795788 
L 181.212481 109.795788 
L 181.229581 126.659425 
L 181.246681 92.932152 
L 181.315081 109.795788 
L 181.417681 92.932152 
L 181.520281 109.795788 
L 181.605781 92.932152 
L 181.622881 109.795788 
L 181.657081 109.795788 
L 181.759681 92.932152 
L 181.879381 109.795788 
L 181.981981 92.932152 
L 182.101681 109.795788 
L 182.152981 109.795788 
L 182.289781 76.068516 
L 182.409481 109.795788 
L 182.443681 109.795788 
L 182.563381 92.932152 
L 182.683081 109.795788 
L 182.768581 109.795788 
L 182.888281 76.068516 
L 183.025081 109.795788 
L 183.076381 109.795788 
L 183.178981 92.932152 
L 183.298681 109.795788 
L 183.349981 109.795788 
L 183.384181 92.932152 
L 183.452581 109.795788 
L 183.486781 109.795788 
L 183.503881 92.932152 
L 183.589381 109.795788 
L 183.606481 109.795788 
L 183.709081 92.932152 
L 183.811681 109.795788 
L 183.845881 92.932152 
L 183.914281 109.795788 
L 183.931381 109.795788 
L 183.999781 92.932152 
L 184.033981 109.795788 
L 184.170781 109.795788 
L 184.290481 92.932152 
L 184.410181 109.795788 
L 184.666681 109.795788 
L 184.683781 92.932152 
L 184.769281 109.795788 
L 184.940281 109.795788 
L 185.042881 92.932152 
L 185.162581 109.795788 
L 185.179681 109.795788 
L 185.230981 76.068516 
L 185.299381 92.932152 
L 185.316481 92.932152 
L 185.384881 109.795788 
L 185.436181 76.068516 
L 185.521681 92.932152 
L 185.538781 76.068516 
L 185.555881 76.068516 
L 185.658481 109.795788 
L 185.675581 92.932152 
L 185.726881 76.068516 
L 185.761081 92.932152 
L 185.880781 109.795788 
L 186.000481 109.795788 
L 186.068881 92.932152 
L 186.103081 109.795788 
L 186.239881 109.795788 
L 186.359581 92.932152 
L 186.445081 126.659425 
L 186.479281 109.795788 
L 186.496381 92.932152 
L 186.581881 109.795788 
L 186.633181 109.795788 
L 186.752881 92.932152 
L 186.872581 109.795788 
L 186.906781 109.795788 
L 186.992281 92.932152 
L 186.940981 126.659425 
L 187.009381 109.795788 
L 187.060681 109.795788 
L 187.077781 92.932152 
L 187.163281 109.795788 
L 187.197481 109.795788 
L 187.214581 92.932152 
L 187.300081 109.795788 
L 187.368481 109.795788 
L 187.419781 92.932152 
L 187.471081 109.795788 
L 187.590781 109.795788 
L 187.607881 126.659425 
L 187.693381 109.795788 
L 187.744681 109.795788 
L 187.830181 92.932152 
L 187.847281 126.659425 
L 187.932781 109.795788 
L 188.069581 109.795788 
L 188.086681 126.659425 
L 188.172181 109.795788 
L 188.223481 109.795788 
L 188.240581 92.932152 
L 188.257681 126.659425 
L 188.326081 109.795788 
L 188.445781 109.795788 
L 188.531281 92.932152 
L 188.548381 109.795788 
L 188.821981 109.795788 
L 188.839081 126.659425 
L 188.907481 92.932152 
L 188.924581 109.795788 
L 189.010081 109.795788 
L 189.044281 92.932152 
L 189.112681 126.659425 
L 189.232381 109.795788 
L 189.317881 109.795788 
L 189.334981 126.659425 
L 189.420481 109.795788 
L 189.557281 109.795788 
L 189.574381 126.659425 
L 189.659881 109.795788 
L 189.728281 109.795788 
L 189.813781 92.932152 
L 189.830881 109.795788 
L 189.916381 109.795788 
L 189.933481 126.659425 
L 189.950581 92.932152 
L 190.001881 109.795788 
L 190.018981 92.932152 
L 190.036081 126.659425 
L 190.104481 109.795788 
L 190.207081 109.795788 
L 190.224181 126.659425 
L 190.309681 109.795788 
L 190.497781 109.795788 
L 190.514881 126.659425 
L 190.549081 92.932152 
L 190.583281 109.795788 
L 190.634581 92.932152 
L 190.668781 109.795788 
L 190.685881 126.659425 
L 190.771381 109.795788 
L 190.805581 109.795788 
L 190.822681 126.659425 
L 190.873981 92.932152 
L 190.891081 109.795788 
L 190.908181 92.932152 
L 190.993681 109.795788 
L 191.079181 109.795788 
L 191.096281 126.659425 
L 191.164681 92.932152 
L 191.181781 109.795788 
L 191.677681 109.795788 
L 191.763181 92.932152 
L 191.780281 109.795788 
L 191.848681 109.795788 
L 191.865781 126.659425 
L 191.917081 92.932152 
L 191.951281 109.795788 
L 192.070981 109.795788 
L 192.088081 126.659425 
L 192.105181 92.932152 
L 192.156481 109.795788 
L 192.173581 92.932152 
L 192.259081 109.795788 
L 192.361681 109.795788 
L 192.481381 92.932152 
L 192.583981 109.795788 
L 192.703681 92.932152 
L 192.806281 126.659425 
L 192.823381 92.932152 
L 192.908881 109.795788 
L 192.960181 109.795788 
L 193.028581 92.932152 
L 193.062781 109.795788 
L 193.114081 109.795788 
L 193.148281 92.932152 
L 193.216681 109.795788 
L 193.319281 109.795788 
L 193.336381 92.932152 
L 193.353481 126.659425 
L 193.404781 126.659425 
L 193.421881 126.659425 
L 193.507381 109.795788 
L 193.524481 126.659425 
L 193.541581 126.659425 
L 193.644181 109.795788 
L 193.729681 126.659425 
L 193.746781 109.795788 
L 193.798081 109.795788 
L 193.866481 126.659425 
L 193.917781 92.932152 
L 193.934881 126.659425 
L 194.020381 109.795788 
L 194.088781 109.795788 
L 194.105881 76.068516 
L 194.191381 92.932152 
L 194.328181 92.932152 
L 194.430781 76.068516 
L 194.464981 92.932152 
L 194.533381 76.068516 
L 194.550481 76.068516 
L 194.670181 109.795788 
L 194.704381 76.068516 
L 194.789881 92.932152 
L 194.858281 92.932152 
L 194.977981 76.068516 
L 194.995081 76.068516 
L 195.114781 92.932152 
L 195.148981 109.795788 
L 195.234481 76.068516 
L 195.268681 76.068516 
L 195.405481 109.795788 
L 195.542281 76.068516 
L 195.627781 109.795788 
L 195.661981 92.932152 
L 195.747481 92.932152 
L 195.867181 76.068516 
L 195.969781 92.932152 
L 196.055281 109.795788 
L 196.089481 76.068516 
L 196.140781 76.068516 
L 196.260481 109.795788 
L 196.345981 76.068516 
L 196.380181 92.932152 
L 196.448581 92.932152 
L 196.516981 76.068516 
L 196.551181 92.932152 
L 196.602481 92.932152 
L 196.670881 76.068516 
L 196.705081 92.932152 
L 196.739281 92.932152 
L 196.790581 109.795788 
L 196.841881 76.068516 
L 196.961581 109.795788 
L 197.047081 59.204879 
L 197.081281 76.068516 
L 197.149681 109.795788 
L 197.183881 76.068516 
L 197.252281 42.341243 
L 197.303581 92.932152 
L 197.389081 109.795788 
L 197.440381 59.204879 
L 197.577181 109.795788 
L 197.662681 92.932152 
L 197.748181 126.659425 
L 197.765281 109.795788 
L 197.816581 92.932152 
L 197.867881 109.795788 
L 197.884981 126.659425 
L 197.919181 76.068516 
L 197.953381 92.932152 
L 197.970481 92.932152 
L 198.021781 76.068516 
L 198.055981 109.795788 
L 198.073081 109.795788 
L 198.209881 59.204879 
L 198.346681 92.932152 
L 198.397981 92.932152 
L 198.415081 59.204879 
L 198.483481 92.932152 
L 198.517681 76.068516 
L 198.586081 109.795788 
L 198.637381 126.659425 
L 198.722881 76.068516 
L 198.739981 76.068516 
L 198.859681 92.932152 
L 198.962281 92.932152 
L 199.013581 76.068516 
L 199.030681 109.795788 
L 199.047781 109.795788 
L 199.081981 109.795788 
L 199.099081 92.932152 
L 199.116181 126.659425 
L 199.184581 109.795788 
L 199.252981 109.795788 
L 199.355581 92.932152 
L 199.389781 126.659425 
L 199.441081 92.932152 
L 199.458181 76.068516 
L 199.475281 109.795788 
L 199.509481 109.795788 
L 199.526581 126.659425 
L 199.577881 92.932152 
L 199.594981 92.932152 
L 199.612081 92.932152 
L 199.697581 126.659425 
L 199.731781 109.795788 
L 199.885681 109.795788 
L 199.902781 92.932152 
L 199.988281 109.795788 
L 200.107981 126.659425 
L 200.176381 92.932152 
L 200.210581 109.795788 
L 200.296081 126.659425 
L 200.313181 92.932152 
L 200.398681 126.659425 
L 200.415781 126.659425 
L 200.484181 92.932152 
L 200.518381 109.795788 
L 200.535481 126.659425 
L 200.552581 92.932152 
L 200.603881 109.795788 
L 200.672281 92.932152 
L 200.638081 126.659425 
L 200.689381 109.795788 
L 200.706481 126.659425 
L 200.723581 92.932152 
L 200.791981 109.795788 
L 200.826181 109.795788 
L 200.843281 92.932152 
L 200.911681 126.659425 
L 200.997181 126.659425 
L 201.116881 109.795788 
L 201.236581 126.659425 
L 201.612781 126.659425 
L 201.732481 109.795788 
L 201.852181 126.659425 
L 202.194181 126.659425 
L 202.313881 109.795788 
L 202.433581 126.659425 
L 202.519081 126.659425 
L 202.553281 109.795788 
L 202.621681 126.659425 
L 202.724281 126.659425 
L 202.843981 109.795788 
L 202.861081 109.795788 
L 202.878181 59.204879 
L 202.980781 76.068516 
L 202.997881 59.204879 
L 203.032081 92.932152 
L 203.083381 76.068516 
L 203.100481 92.932152 
L 203.134681 25.477607 
L 203.185981 76.068516 
L 203.220181 42.341243 
L 203.305681 59.204879 
L 203.391181 92.932152 
L 203.408281 76.068516 
L 203.459581 76.068516 
L 203.545081 42.341243 
L 203.562181 76.068516 
L 203.596381 76.068516 
L 203.716081 109.795788 
L 203.750281 59.204879 
L 203.835781 76.068516 
L 203.921281 92.932152 
L 203.938381 76.068516 
L 203.955481 76.068516 
L 204.023881 109.795788 
L 204.058081 92.932152 
L 204.160681 76.068516 
L 204.229081 109.795788 
L 204.263281 92.932152 
L 204.348781 59.204879 
L 204.365881 92.932152 
L 204.400081 92.932152 
L 204.519781 76.068516 
L 204.605281 92.932152 
L 204.622381 59.204879 
L 204.707881 76.068516 
L 204.759181 92.932152 
L 204.810481 76.068516 
L 204.930181 76.068516 
L 204.947281 109.795788 
L 205.015681 59.204879 
L 205.032781 76.068516 
L 205.118281 59.204879 
L 205.135381 92.932152 
L 205.203781 109.795788 
L 205.255081 76.068516 
L 205.289281 76.068516 
L 205.306381 92.932152 
L 205.357681 76.068516 
L 205.374781 42.341243 
L 205.460281 76.068516 
L 205.545781 92.932152 
L 205.631281 42.341243 
L 205.648381 76.068516 
L 205.665481 76.068516 
L 205.682581 59.204879 
L 205.733881 109.795788 
L 205.750981 92.932152 
L 205.887781 126.659425 
L 206.075881 126.659425 
L 206.092981 109.795788 
L 206.178481 126.659425 
L 206.246881 126.659425 
L 206.366581 109.795788 
L 206.469181 109.795788 
L 206.503381 92.932152 
L 206.554681 126.659425 
L 207.700381 126.659425 
L 207.768781 92.932152 
L 207.820081 109.795788 
L 207.837181 126.659425 
L 207.854281 92.932152 
L 207.922681 109.795788 
L 207.956881 109.795788 
L 208.076581 126.659425 
L 208.281781 126.659425 
L 208.367281 109.795788 
L 208.384381 126.659425 
L 208.469881 126.659425 
L 208.504081 109.795788 
L 208.572481 126.659425 
L 208.606681 126.659425 
L 208.657981 109.795788 
L 208.709281 126.659425 
L 209.256481 126.659425 
L 209.273581 109.795788 
L 209.359081 126.659425 
L 210.248281 126.659425 
L 210.248281 126.659425 
" clip-path="url(#pd05d644474)" style="fill: none; stroke: #0072b2; stroke-width: 1.25; stroke-linecap: square"/>
   </g>
   <g id="patch_4">
    <path d="M 30.698281 131.718516 
L 30.698281 20.418516 
" style="fill: none; stroke: #000000; stroke-width: 0.8; stroke-linejoin: miter; stroke-linecap: square"/>
   </g>
   <g id="patch_5">
    <path d="M 30.698281 131.718516 
L 218.798281 131.718516 
" style="fill: none; stroke: #000000; stroke-width: 0.8; stroke-linejoin: miter; stroke-linecap: square"/>
   </g>
   <g id="text_16">
    <!-- drugs2263 rep3 -->
    <g transform="translate(86.875195 14.418516) scale(0.095 -0.095)">
     <defs>
      <path id="DejaVuSans-67" d="M 2906 1791 
Q 2906 2416 2648 2759 
Q 2391 3103 1925 3103 
Q 1463 3103 1205 2759 
Q 947 2416 947 1791 
Q 947 1169 1205 825 
Q 1463 481 1925 481 
Q 2391 481 2648 825 
Q 2906 1169 2906 1791 
z
M 3481 434 
Q 3481 -459 3084 -895 
Q 2688 -1331 1869 -1331 
Q 1566 -1331 1297 -1286 
Q 1028 -1241 775 -1147 
L 775 -588 
Q 1028 -725 1275 -790 
Q 1522 -856 1778 -856 
Q 2344 -856 2625 -561 
Q 2906 -266 2906 331 
L 2906 616 
Q 2728 306 2450 153 
Q 2172 0 1784 0 
Q 1141 0 747 490 
Q 353 981 353 1791 
Q 353 2603 747 3093 
Q 1141 3584 1784 3584 
Q 2172 3584 2450 3431 
Q 2728 3278 2906 2969 
L 2906 3500 
L 3481 3500 
L 3481 434 
z
" transform="scale(0.015625)"/>
      <path id="DejaVuSans-70" d="M 1159 525 
L 1159 -1331 
L 581 -1331 
L 581 3500 
L 1159 3500 
L 1159 2969 
Q 1341 3281 1617 3432 
Q 1894 3584 2278 3584 
Q 2916 3584 3314 3078 
Q 3713 2572 3713 1747 
Q 3713 922 3314 415 
Q 2916 -91 2278 -91 
Q 1894 -91 1617 61 
Q 1341 213 1159 525 
z
M 3116 1747 
Q 3116 2381 2855 2742 
Q 2594 3103 2138 3103 
Q 1681 3103 1420 2742 
Q 1159 2381 1159 1747 
Q 1159 1113 1420 752 
Q 1681 391 2138 391 
Q 2594 391 2855 752 
Q 3116 1113 3116 1747 
z
" transform="scale(0.015625)"/>
     </defs>
     <use xlink:href="#DejaVuSans-64"/>
     <use xlink:href="#DejaVuSans-72" transform="translate(63.476562 0)"/>
     <use xlink:href="#DejaVuSans-75" transform="translate(104.589844 0)"/>
     <use xlink:href="#DejaVuSans-67" transform="translate(167.96875 0)"/>
     <use xlink:href="#DejaVuSans-73" transform="translate(231.445312 0)"/>
     <use xlink:href="#DejaVuSans-32" transform="translate(283.544922 0)"/>
     <use xlink:href="#DejaVuSans-32" transform="translate(347.167969 0)"/>
     <use xlink:href="#DejaVuSans-36" transform="translate(410.791016 0)"/>
     <use xlink:href="#DejaVuSans-33" transform="translate(474.414062 0)"/>
     <use xlink:href="#DejaVuSans-20" transform="translate(538.037109 0)"/>
     <use xlink:href="#DejaVuSans-72" transform="translate(569.824219 0)"/>
     <use xlink:href="#DejaVuSans-65" transform="translate(608.6875 0)"/>
     <use xlink:href="#DejaVuSans-70" transform="translate(670.210938 0)"/>
     <use xlink:href="#DejaVuSans-33" transform="translate(733.6875 0)"/>
    </g>
   </g>
  </g>
 </g>
 <defs>
  <clipPath id="pd05d644474">
   <rect x="30.698281" y="20.418516" width="188.1" height="111.3"/>
  </clipPath>
 </defs>
</svg>
