<?xml version="1.0" encoding="utf-8" standalone="no"?>
<!DOCTYPE svg PUBLIC "-//W3C//DTD SVG 1.1//EN"
  "http://www.w3.org/Graphics/SVG/1.1/DTD/svg11.dtd">
<svg xmlns:xlink="http://www.w3.org/1999/xlink" width="225.998281pt" height="164.903516pt" viewBox="0 0 225.998281 164.903516" xmlns="http://www.w3.org/2000/svg" version="1.1">
 <metadata>
  <rdf:RDF xmlns:dc="http://purl.org/dc/elements/1.1/" xmlns:cc="http://creativecommons.org/ns#" xmlns:rdf="http://www.w3.org/1999/02/22-rdf-syntax-ns#">
   <cc:Work>
    <dc:type rdf:resource="http://purl.org/dc/dcmitype/StillImage"/>
    <dc:date>2026-05-24T13:54:20.156185</dc:date>
    <dc:format>image/svg+xml</dc:format>
    <dc:creator>
     <cc:Agent>
      <dc:title>Matplotlib v3.10.9, https://matplotlib.org/</dc:title>
     </cc:Agent>
    </dc:creator>
   </cc:Work>
  </rdf:RDF>
 </metadata>
 <defs>
  <style type="text/css">*{stroke-linejoin: round; stroke-linecap: butt}</style>
 </defs>
 <g id="figure_1">
  <g id="patch_1">
   <path d="M 0 164.903516 
L 225.998281 164.903516 
L 225.998281 0 
L 0 0 
z
" style="fill: #ffffff"/>
  </g>
  <g id="axes_1">
   <g id="patch_2">
    <path d="M 30.698281 131.718516 
L 218.798281 131.718516 
L 218.798281 20.418516 
L 30.698281 20.418516 
z
" style="fill: #ffffff"/>
   </g>
   <g id="patch_3">
    <path d="M 124.748281 131.718516 
L 210.248281 131.718516 
L 210.248281 20.418516 
L 124.748281 20.418516 
z
" clip-path="url(#p4b5004f39c)" style="fill: #bdbdbd; opacity: 0.18"/>
   </g>
   <g id="matplotlib.axis_1">
    <g id="xtick_1">
     <g id="line2d_1">
      <defs>
       <path id="md75829facf" d="M 0 0 
L 0 3 
" style="stroke: #000000; stroke-width: 0.7"/>
      </defs>
      <g>
       <use xlink:href="#md75829facf" x="39.248281" y="131.718516" style="stroke: #000000; stroke-width: 0.7"/>
      </g>
     </g>
     <g id="text_1">
      <!-- 0 -->
      <g transform="translate(36.862344 143.917344) scale(0.075 -0.075)">
       <defs>
        <path id="DejaVuSans-30" d="M 2034 4250 
Q 1547 4250 1301 3770 
Q 1056 3291 1056 2328 
Q 1056 1369 1301 889 
Q 1547 409 2034 409 
Q 2525 409 2770 889 
Q 3016 1369 3016 2328 
Q 3016 3291 2770 3770 
Q 2525 4250 2034 4250 
z
M 2034 4750 
Q 2819 4750 3233 4129 
Q 3647 3509 3647 2328 
Q 3647 1150 3233 529 
Q 2819 -91 2034 -91 
Q 1250 -91 836 529 
Q 422 1150 422 2328 
Q 422 3509 836 4129 
Q 1250 4750 2034 4750 
z
" transform="scale(0.015625)"/>
       </defs>
       <use xlink:href="#DejaVuSans-30"/>
      </g>
     </g>
    </g>
    <g id="xtick_2">
     <g id="line2d_2">
      <g>
       <use xlink:href="#md75829facf" x="73.448281" y="131.718516" style="stroke: #000000; stroke-width: 0.7"/>
      </g>
     </g>
     <g id="text_2">
      <!-- 20 -->
      <g transform="translate(68.676406 143.917344) scale(0.075 -0.075)">
       <defs>
        <path id="DejaVuSans-32" d="M 1228 531 
L 3431 531 
L 3431 0 
L 469 0 
L 469 531 
Q 828 903 1448 1529 
Q 2069 2156 2228 2338 
Q 2531 2678 2651 2914 
Q 2772 3150 2772 3378 
Q 2772 3750 2511 3984 
Q 2250 4219 1831 4219 
Q 1534 4219 1204 4116 
Q 875 4013 500 3803 
L 500 4441 
Q 881 4594 1212 4672 
Q 1544 4750 1819 4750 
Q 2544 4750 2975 4387 
Q 3406 4025 3406 3419 
Q 3406 3131 3298 2873 
Q 3191 2616 2906 2266 
Q 2828 2175 2409 1742 
Q 1991 1309 1228 531 
z
" transform="scale(0.015625)"/>
       </defs>
       <use xlink:href="#DejaVuSans-32"/>
       <use xlink:href="#DejaVuSans-30" transform="translate(63.623047 0)"/>
      </g>
     </g>
    </g>
    <g id="xtick_3">
     <g id="line2d_3">
      <g>
       <use xlink:href="#md75829facf" x="107.648281" y="131.718516" style="stroke: #000000; stroke-width: 0.7"/>
      </g>
     </g>
     <g id="text_3">
      <!-- 40 -->
      <g transform="translate(102.876406 143.917344) scale(0.075 -0.075)">
       <defs>
        <path id="DejaVuSans-34" d="M 2419 4116 
L 825 1625 
L 2419 1625 
L 2419 4116 
z
M 2253 4666 
L 3047 4666 
L 3047 1625 
L 3713 1625 
L 3713 1100 
L 3047 1100 
L 3047 0 
L 2419 0 
L 2419 1100 
L 313 1100 
L 313 1709 
L 2253 4666 
z
" transform="scale(0.015625)"/>
       </defs>
       <use xlink:href="#DejaVuSans-34"/>
       <use xlink:href="#DejaVuSans-30" transform="translate(63.623047 0)"/>
      </g>
     </g>
    </g>
    <g id="xtick_4">
     <g id="line2d_4">
      <g>
       <use xlink:href="#md75829facf" x="141.848281" y="131.718516" style="stroke: #000000; stroke-width: 0.7"/>
      </g>
     </g>
     <g id="text_4">
      <!-- 60 -->
      <g transform="translate(137.076406 143.917344) scale(0.075 -0.075)">
       <defs>
        <path id="DejaVuSans-36" d="M 2113 2584 
Q 1688 2584 1439 2293 
Q 1191 2003 1191 1497 
Q 1191 994 1439 701 
Q 1688 409 2113 409 
Q 2538 409 2786 701 
Q 3034 994 3034 1497 
Q 3034 2003 2786 2293 
Q 2538 2584 2113 2584 
z
M 3366 4563 
L 3366 3988 
Q 3128 4100 2886 4159 
Q 2644 4219 2406 4219 
Q 1781 4219 1451 3797 
Q 1122 3375 1075 2522 
Q 1259 2794 1537 2939 
Q 1816 3084 2150 3084 
Q 2853 3084 3261 2657 
Q 3669 2231 3669 1497 
Q 3669 778 3244 343 
Q 2819 -91 2113 -91 
Q 1303 -91 875 529 
Q 447 1150 447 2328 
Q 447 3434 972 4092 
Q 1497 4750 2381 4750 
Q 2619 4750 2861 4703 
Q 3103 4656 3366 4563 
z
" transform="scale(0.015625)"/>
       </defs>
       <use xlink:href="#DejaVuSans-36"/>
       <use xlink:href="#DejaVuSans-30" transform="translate(63.623047 0)"/>
      </g>
     </g>
    </g>
    <g id="xtick_5">
     <g id="line2d_5">
      <g>
       <use xlink:href="#md75829facf" x="176.048281" y="131.718516" style="stroke: #000000; stroke-width: 0.7"/>
      </g>
     </g>
     <g id="text_5">
      <!-- 80 -->
      <g transform="translate(171.276406 143.917344) scale(0.075 -0.075)">
       <defs>
        <path id="DejaVuSans-38" d="M 2034 2216 
Q 1584 2216 1326 1975 
Q 1069 1734 1069 1313 
Q 1069 891 1326 650 
Q 1584 409 2034 409 
Q 2484 409 2743 651 
Q 3003 894 3003 1313 
Q 3003 1734 2745 1975 
Q 2488 2216 2034 2216 
z
M 1403 2484 
Q 997 2584 770 2862 
Q 544 3141 544 3541 
Q 544 4100 942 4425 
Q 1341 4750 2034 4750 
Q 2731 4750 3128 4425 
Q 3525 4100 3525 3541 
Q 3525 3141 3298 2862 
Q 3072 2584 2669 2484 
Q 3125 2378 3379 2068 
Q 3634 1759 3634 1313 
Q 3634 634 3220 271 
Q 2806 -91 2034 -91 
Q 1263 -91 848 271 
Q 434 634 434 1313 
Q 434 1759 690 2068 
Q 947 2378 1403 2484 
z
M 1172 3481 
Q 1172 3119 1398 2916 
Q 1625 2713 2034 2713 
Q 2441 2713 2670 2916 
Q 2900 3119 2900 3481 
Q 2900 3844 2670 4047 
Q 2441 4250 2034 4250 
Q 1625 4250 1398 4047 
Q 1172 3844 1172 3481 
z
" transform="scale(0.015625)"/>
       </defs>
       <use xlink:href="#DejaVuSans-38"/>
       <use xlink:href="#DejaVuSans-30" transform="translate(63.623047 0)"/>
      </g>
     </g>
    </g>
    <g id="xtick_6">
     <g id="line2d_6">
      <g>
       <use xlink:href="#md75829facf" x="210.248281" y="131.718516" style="stroke: #000000; stroke-width: 0.7"/>
      </g>
     </g>
     <g id="text_6">
      <!-- 100 -->
      <g transform="translate(203.090469 143.917344) scale(0.075 -0.075)">
       <defs>
        <path id="DejaVuSans-31" d="M 794 531 
L 1825 531 
L 1825 4091 
L 703 3866 
L 703 4441 
L 1819 4666 
L 2450 4666 
L 2450 531 
L 3481 531 
L 3481 0 
L 794 0 
L 794 531 
z
" transform="scale(0.015625)"/>
       </defs>
       <use xlink:href="#DejaVuSans-31"/>
       <use xlink:href="#DejaVuSans-30" transform="translate(63.623047 0)"/>
       <use xlink:href="#DejaVuSans-30" transform="translate(127.246094 0)"/>
      </g>
     </g>
    </g>
    <g id="text_7">
     <!-- Time (ns) -->
     <g transform="translate(104.775273 155.935781) scale(0.085 -0.085)">
      <defs>
       <path id="DejaVuSans-54" d="M -19 4666 
L 3928 4666 
L 3928 4134 
L 2272 4134 
L 2272 0 
L 1638 0 
L 1638 4134 
L -19 4134 
L -19 4666 
z
" transform="scale(0.015625)"/>
       <path id="DejaVuSans-69" d="M 603 3500 
L 1178 3500 
L 1178 0 
L 603 0 
L 603 3500 
z
M 603 4863 
L 1178 4863 
L 1178 4134 
L 603 4134 
L 603 4863 
z
" transform="scale(0.015625)"/>
       <path id="DejaVuSans-6d" d="M 3328 2828 
Q 3544 3216 3844 3400 
Q 4144 3584 4550 3584 
Q 5097 3584 5394 3201 
Q 5691 2819 5691 2113 
L 5691 0 
L 5113 0 
L 5113 2094 
Q 5113 2597 4934 2840 
Q 4756 3084 4391 3084 
Q 3944 3084 3684 2787 
Q 3425 2491 3425 1978 
L 3425 0 
L 2847 0 
L 2847 2094 
Q 2847 2600 2669 2842 
Q 2491 3084 2119 3084 
Q 1678 3084 1418 2786 
Q 1159 2488 1159 1978 
L 1159 0 
L 581 0 
L 581 3500 
L 1159 3500 
L 1159 2956 
Q 1356 3278 1631 3431 
Q 1906 3584 2284 3584 
Q 2666 3584 2933 3390 
Q 3200 3197 3328 2828 
z
" transform="scale(0.015625)"/>
       <path id="DejaVuSans-65" d="M 3597 1894 
L 3597 1613 
L 953 1613 
Q 991 1019 1311 708 
Q 1631 397 2203 397 
Q 2534 397 2845 478 
Q 3156 559 3463 722 
L 3463 178 
Q 3153 47 2828 -22 
Q 2503 -91 2169 -91 
Q 1331 -91 842 396 
Q 353 884 353 1716 
Q 353 2575 817 3079 
Q 1281 3584 2069 3584 
Q 2775 3584 3186 3129 
Q 3597 2675 3597 1894 
z
M 3022 2063 
Q 3016 2534 2758 2815 
Q 2500 3097 2075 3097 
Q 1594 3097 1305 2825 
Q 1016 2553 972 2059 
L 3022 2063 
z
" transform="scale(0.015625)"/>
       <path id="DejaVuSans-20" transform="scale(0.015625)"/>
       <path id="DejaVuSans-28" d="M 1984 4856 
Q 1566 4138 1362 3434 
Q 1159 2731 1159 2009 
Q 1159 1288 1364 580 
Q 1569 -128 1984 -844 
L 1484 -844 
Q 1016 -109 783 600 
Q 550 1309 550 2009 
Q 550 2706 781 3412 
Q 1013 4119 1484 4856 
L 1984 4856 
z
" transform="scale(0.015625)"/>
       <path id="DejaVuSans-6e" d="M 3513 2113 
L 3513 0 
L 2938 0 
L 2938 2094 
Q 2938 2591 2744 2837 
Q 2550 3084 2163 3084 
Q 1697 3084 1428 2787 
Q 1159 2491 1159 1978 
L 1159 0 
L 581 0 
L 581 3500 
L 1159 3500 
L 1159 2956 
Q 1366 3272 1645 3428 
Q 1925 3584 2291 3584 
Q 2894 3584 3203 3211 
Q 3513 2838 3513 2113 
z
" transform="scale(0.015625)"/>
       <path id="DejaVuSans-73" d="M 2834 3397 
L 2834 2853 
Q 2591 2978 2328 3040 
Q 2066 3103 1784 3103 
Q 1356 3103 1142 2972 
Q 928 2841 928 2578 
Q 928 2378 1081 2264 
Q 1234 2150 1697 2047 
L 1894 2003 
Q 2506 1872 2764 1633 
Q 3022 1394 3022 966 
Q 3022 478 2636 193 
Q 2250 -91 1575 -91 
Q 1294 -91 989 -36 
Q 684 19 347 128 
L 347 722 
Q 666 556 975 473 
Q 1284 391 1588 391 
Q 1994 391 2212 530 
Q 2431 669 2431 922 
Q 2431 1156 2273 1281 
Q 2116 1406 1581 1522 
L 1381 1569 
Q 847 1681 609 1914 
Q 372 2147 372 2553 
Q 372 3047 722 3315 
Q 1072 3584 1716 3584 
Q 2034 3584 2315 3537 
Q 2597 3491 2834 3397 
z
" transform="scale(0.015625)"/>
       <path id="DejaVuSans-29" d="M 513 4856 
L 1013 4856 
Q 1481 4119 1714 3412 
Q 1947 2706 1947 2009 
Q 1947 1309 1714 600 
Q 1481 -109 1013 -844 
L 513 -844 
Q 928 -128 1133 580 
Q 1338 1288 1338 2009 
Q 1338 2731 1133 3434 
Q 928 4138 513 4856 
z
" transform="scale(0.015625)"/>
      </defs>
      <use xlink:href="#DejaVuSans-54"/>
      <use xlink:href="#DejaVuSans-69" transform="translate(57.958984 0)"/>
      <use xlink:href="#DejaVuSans-6d" transform="translate(85.742188 0)"/>
      <use xlink:href="#DejaVuSans-65" transform="translate(183.154297 0)"/>
      <use xlink:href="#DejaVuSans-20" transform="translate(244.677734 0)"/>
      <use xlink:href="#DejaVuSans-28" transform="translate(276.464844 0)"/>
      <use xlink:href="#DejaVuSans-6e" transform="translate(315.478516 0)"/>
      <use xlink:href="#DejaVuSans-73" transform="translate(378.857422 0)"/>
      <use xlink:href="#DejaVuSans-29" transform="translate(430.957031 0)"/>
     </g>
    </g>
   </g>
   <g id="matplotlib.axis_2">
    <g id="ytick_1">
     <g id="line2d_7">
      <defs>
       <path id="m800c3c0fdc" d="M 0 0 
L -3 0 
" style="stroke: #000000; stroke-width: 0.7"/>
      </defs>
      <g>
       <use xlink:href="#m800c3c0fdc" x="30.698281" y="126.659425" style="stroke: #000000; stroke-width: 0.7"/>
      </g>
     </g>
     <g id="text_8">
      <!-- 0 -->
      <g transform="translate(19.426406 129.508839) scale(0.075 -0.075)">
       <use xlink:href="#DejaVuSans-30"/>
      </g>
     </g>
    </g>
    <g id="ytick_2">
     <g id="line2d_8">
      <g>
       <use xlink:href="#m800c3c0fdc" x="30.698281" y="101.36397" style="stroke: #000000; stroke-width: 0.7"/>
      </g>
     </g>
     <g id="text_9">
      <!-- 1 -->
      <g transform="translate(19.426406 104.213384) scale(0.075 -0.075)">
       <use xlink:href="#DejaVuSans-31"/>
      </g>
     </g>
    </g>
    <g id="ytick_3">
     <g id="line2d_9">
      <g>
       <use xlink:href="#m800c3c0fdc" x="30.698281" y="76.068516" style="stroke: #000000; stroke-width: 0.7"/>
      </g>
     </g>
     <g id="text_10">
      <!-- 2 -->
      <g transform="translate(19.426406 78.91793) scale(0.075 -0.075)">
       <use xlink:href="#DejaVuSans-32"/>
      </g>
     </g>
    </g>
    <g id="ytick_4">
     <g id="line2d_10">
      <g>
       <use xlink:href="#m800c3c0fdc" x="30.698281" y="50.773061" style="stroke: #000000; stroke-width: 0.7"/>
      </g>
     </g>
     <g id="text_11">
      <!-- 3 -->
      <g transform="translate(19.426406 53.622475) scale(0.075 -0.075)">
       <defs>
        <path id="DejaVuSans-33" d="M 2597 2516 
Q 3050 2419 3304 2112 
Q 3559 1806 3559 1356 
Q 3559 666 3084 287 
Q 2609 -91 1734 -91 
Q 1441 -91 1130 -33 
Q 819 25 488 141 
L 488 750 
Q 750 597 1062 519 
Q 1375 441 1716 441 
Q 2309 441 2620 675 
Q 2931 909 2931 1356 
Q 2931 1769 2642 2001 
Q 2353 2234 1838 2234 
L 1294 2234 
L 1294 2753 
L 1863 2753 
Q 2328 2753 2575 2939 
Q 2822 3125 2822 3475 
Q 2822 3834 2567 4026 
Q 2313 4219 1838 4219 
Q 1578 4219 1281 4162 
Q 984 4106 628 3988 
L 628 4550 
Q 988 4650 1302 4700 
Q 1616 4750 1894 4750 
Q 2613 4750 3031 4423 
Q 3450 4097 3450 3541 
Q 3450 3153 3228 2886 
Q 3006 2619 2597 2516 
z
" transform="scale(0.015625)"/>
       </defs>
       <use xlink:href="#DejaVuSans-33"/>
      </g>
     </g>
    </g>
    <g id="ytick_5">
     <g id="line2d_11">
      <g>
       <use xlink:href="#m800c3c0fdc" x="30.698281" y="25.477607" style="stroke: #000000; stroke-width: 0.7"/>
      </g>
     </g>
     <g id="text_12">
      <!-- 4 -->
      <g transform="translate(19.426406 28.327021) scale(0.075 -0.075)">
       <use xlink:href="#DejaVuSans-34"/>
      </g>
     </g>
    </g>
    <g id="text_13">
     <!-- Number of H-bonds -->
     <g transform="translate(13.658672 117.573086) rotate(-90) scale(0.085 -0.085)">
      <defs>
       <path id="DejaVuSans-4e" d="M 628 4666 
L 1478 4666 
L 3547 763 
L 3547 4666 
L 4159 4666 
L 4159 0 
L 3309 0 
L 1241 3903 
L 1241 0 
L 628 0 
L 628 4666 
z
" transform="scale(0.015625)"/>
       <path id="DejaVuSans-75" d="M 544 1381 
L 544 3500 
L 1119 3500 
L 1119 1403 
Q 1119 906 1312 657 
Q 1506 409 1894 409 
Q 2359 409 2629 706 
Q 2900 1003 2900 1516 
L 2900 3500 
L 3475 3500 
L 3475 0 
L 2900 0 
L 2900 538 
Q 2691 219 2414 64 
Q 2138 -91 1772 -91 
Q 1169 -91 856 284 
Q 544 659 544 1381 
z
M 1991 3584 
L 1991 3584 
z
" transform="scale(0.015625)"/>
       <path id="DejaVuSans-62" d="M 3116 1747 
Q 3116 2381 2855 2742 
Q 2594 3103 2138 3103 
Q 1681 3103 1420 2742 
Q 1159 2381 1159 1747 
Q 1159 1113 1420 752 
Q 1681 391 2138 391 
Q 2594 391 2855 752 
Q 3116 1113 3116 1747 
z
M 1159 2969 
Q 1341 3281 1617 3432 
Q 1894 3584 2278 3584 
Q 2916 3584 3314 3078 
Q 3713 2572 3713 1747 
Q 3713 922 3314 415 
Q 2916 -91 2278 -91 
Q 1894 -91 1617 61 
Q 1341 213 1159 525 
L 1159 0 
L 581 0 
L 581 4863 
L 1159 4863 
L 1159 2969 
z
" transform="scale(0.015625)"/>
       <path id="DejaVuSans-72" d="M 2631 2963 
Q 2534 3019 2420 3045 
Q 2306 3072 2169 3072 
Q 1681 3072 1420 2755 
Q 1159 2438 1159 1844 
L 1159 0 
L 581 0 
L 581 3500 
L 1159 3500 
L 1159 2956 
Q 1341 3275 1631 3429 
Q 1922 3584 2338 3584 
Q 2397 3584 2469 3576 
Q 2541 3569 2628 3553 
L 2631 2963 
z
" transform="scale(0.015625)"/>
       <path id="DejaVuSans-6f" d="M 1959 3097 
Q 1497 3097 1228 2736 
Q 959 2375 959 1747 
Q 959 1119 1226 758 
Q 1494 397 1959 397 
Q 2419 397 2687 759 
Q 2956 1122 2956 1747 
Q 2956 2369 2687 2733 
Q 2419 3097 1959 3097 
z
M 1959 3584 
Q 2709 3584 3137 3096 
Q 3566 2609 3566 1747 
Q 3566 888 3137 398 
Q 2709 -91 1959 -91 
Q 1206 -91 779 398 
Q 353 888 353 1747 
Q 353 2609 779 3096 
Q 1206 3584 1959 3584 
z
" transform="scale(0.015625)"/>
       <path id="DejaVuSans-66" d="M 2375 4863 
L 2375 4384 
L 1825 4384 
Q 1516 4384 1395 4259 
Q 1275 4134 1275 3809 
L 1275 3500 
L 2222 3500 
L 2222 3053 
L 1275 3053 
L 1275 0 
L 697 0 
L 697 3053 
L 147 3053 
L 147 3500 
L 697 3500 
L 697 3744 
Q 697 4328 969 4595 
Q 1241 4863 1831 4863 
L 2375 4863 
z
" transform="scale(0.015625)"/>
       <path id="DejaVuSans-48" d="M 628 4666 
L 1259 4666 
L 1259 2753 
L 3553 2753 
L 3553 4666 
L 4184 4666 
L 4184 0 
L 3553 0 
L 3553 2222 
L 1259 2222 
L 1259 0 
L 628 0 
L 628 4666 
z
" transform="scale(0.015625)"/>
       <path id="DejaVuSans-2d" d="M 313 2009 
L 1997 2009 
L 1997 1497 
L 313 1497 
L 313 2009 
z
" transform="scale(0.015625)"/>
       <path id="DejaVuSans-64" d="M 2906 2969 
L 2906 4863 
L 3481 4863 
L 3481 0 
L 2906 0 
L 2906 525 
Q 2725 213 2448 61 
Q 2172 -91 1784 -91 
Q 1150 -91 751 415 
Q 353 922 353 1747 
Q 353 2572 751 3078 
Q 1150 3584 1784 3584 
Q 2172 3584 2448 3432 
Q 2725 3281 2906 2969 
z
M 947 1747 
Q 947 1113 1208 752 
Q 1469 391 1925 391 
Q 2381 391 2643 752 
Q 2906 1113 2906 1747 
Q 2906 2381 2643 2742 
Q 2381 3103 1925 3103 
Q 1469 3103 1208 2742 
Q 947 2381 947 1747 
z
" transform="scale(0.015625)"/>
      </defs>
      <use xlink:href="#DejaVuSans-4e"/>
      <use xlink:href="#DejaVuSans-75" transform="translate(74.804688 0)"/>
      <use xlink:href="#DejaVuSans-6d" transform="translate(138.183594 0)"/>
      <use xlink:href="#DejaVuSans-62" transform="translate(235.595703 0)"/>
      <use xlink:href="#DejaVuSans-65" transform="translate(299.072266 0)"/>
      <use xlink:href="#DejaVuSans-72" transform="translate(360.595703 0)"/>
      <use xlink:href="#DejaVuSans-20" transform="translate(401.708984 0)"/>
      <use xlink:href="#DejaVuSans-6f" transform="translate(433.496094 0)"/>
      <use xlink:href="#DejaVuSans-66" transform="translate(494.677734 0)"/>
      <use xlink:href="#DejaVuSans-20" transform="translate(529.882812 0)"/>
      <use xlink:href="#DejaVuSans-48" transform="translate(561.669922 0)"/>
      <use xlink:href="#DejaVuSans-2d" transform="translate(636.865234 0)"/>
      <use xlink:href="#DejaVuSans-62" transform="translate(672.949219 0)"/>
      <use xlink:href="#DejaVuSans-6f" transform="translate(736.425781 0)"/>
      <use xlink:href="#DejaVuSans-6e" transform="translate(797.607422 0)"/>
      <use xlink:href="#DejaVuSans-64" transform="translate(860.986328 0)"/>
      <use xlink:href="#DejaVuSans-73" transform="translate(924.462891 0)"/>
     </g>
    </g>
   </g>
   <g id="line2d_12">
    <path d="M 39.248281 76.068516 
L 39.265381 76.068516 
L 39.402181 126.659425 
L 39.453481 101.36397 
L 39.504781 126.659425 
L 39.538981 126.659425 
L 39.658681 101.36397 
L 39.692881 76.068516 
L 39.744181 126.659425 
L 39.761281 76.068516 
L 39.846781 126.659425 
L 39.983581 76.068516 
L 40.069081 126.659425 
L 40.086181 101.36397 
L 40.137481 101.36397 
L 40.257181 126.659425 
L 40.359781 76.068516 
L 40.376881 101.36397 
L 40.411081 101.36397 
L 40.428181 126.659425 
L 40.513681 101.36397 
L 40.547881 101.36397 
L 40.599181 126.659425 
L 40.650481 101.36397 
L 40.684681 101.36397 
L 40.804381 126.659425 
L 40.838581 126.659425 
L 40.924081 101.36397 
L 40.941181 126.659425 
L 40.975381 126.659425 
L 41.095081 101.36397 
L 41.146381 101.36397 
L 41.163481 126.659425 
L 41.248981 101.36397 
L 41.266081 101.36397 
L 41.385781 126.659425 
L 41.505481 101.36397 
L 41.556781 101.36397 
L 41.590981 126.659425 
L 41.659381 101.36397 
L 41.727781 101.36397 
L 41.813281 126.659425 
L 41.830381 76.068516 
L 41.950081 126.659425 
L 42.052681 101.36397 
L 42.138181 126.659425 
L 42.103981 76.068516 
L 42.155281 101.36397 
L 42.189481 101.36397 
L 42.292081 126.659425 
L 42.309181 101.36397 
L 42.394681 126.659425 
L 42.445981 126.659425 
L 42.565681 101.36397 
L 42.582781 101.36397 
L 42.702481 126.659425 
L 42.719581 126.659425 
L 42.856381 50.773061 
L 42.976081 126.659425 
L 42.993181 101.36397 
L 43.027381 101.36397 
L 43.129981 50.773061 
L 43.147081 76.068516 
L 43.164181 76.068516 
L 43.232581 50.773061 
L 43.198381 101.36397 
L 43.249681 101.36397 
L 43.266781 101.36397 
L 43.300981 50.773061 
L 43.352281 126.659425 
L 43.369381 101.36397 
L 43.437781 25.477607 
L 43.454881 126.659425 
L 43.489081 76.068516 
L 43.625881 126.659425 
L 43.660081 76.068516 
L 43.728481 101.36397 
L 43.796881 76.068516 
L 43.831081 126.659425 
L 43.933681 76.068516 
L 44.053381 126.659425 
L 44.070481 50.773061 
L 44.173081 76.068516 
L 44.207281 76.068516 
L 44.326981 126.659425 
L 44.446681 101.36397 
L 44.463781 101.36397 
L 44.497981 76.068516 
L 44.566381 126.659425 
L 44.686081 101.36397 
L 44.703181 126.659425 
L 44.788681 101.36397 
L 44.805781 76.068516 
L 44.822881 126.659425 
L 44.874181 101.36397 
L 44.959681 76.068516 
L 44.976781 126.659425 
L 45.045181 101.36397 
L 45.079381 126.659425 
L 45.233281 126.659425 
L 45.318781 101.36397 
L 45.335881 126.659425 
L 45.352981 126.659425 
L 45.370081 101.36397 
L 45.455581 126.659425 
L 45.592381 126.659425 
L 45.609481 101.36397 
L 45.694981 126.659425 
L 45.729181 126.659425 
L 45.746281 101.36397 
L 45.831781 126.659425 
L 45.968581 126.659425 
L 46.036981 101.36397 
L 46.071181 126.659425 
L 46.122481 126.659425 
L 46.242181 101.36397 
L 46.327681 126.659425 
L 46.344781 101.36397 
L 46.361881 101.36397 
L 46.481581 126.659425 
L 46.532881 126.659425 
L 46.584181 101.36397 
L 46.635481 126.659425 
L 46.909081 126.659425 
L 47.028781 101.36397 
L 47.045881 101.36397 
L 47.165581 126.659425 
L 47.216881 126.659425 
L 47.319481 101.36397 
L 47.439181 126.659425 
L 47.610181 126.659425 
L 47.627281 101.36397 
L 47.712781 126.659425 
L 47.900881 126.659425 
L 47.969281 101.36397 
L 48.003481 126.659425 
L 48.191581 126.659425 
L 48.208681 101.36397 
L 48.294181 126.659425 
L 48.567781 126.659425 
L 48.653281 101.36397 
L 48.670381 126.659425 
L 48.790081 126.659425 
L 48.892681 101.36397 
L 49.012381 126.659425 
L 49.183381 126.659425 
L 49.200481 101.36397 
L 49.285981 126.659425 
L 49.491181 126.659425 
L 49.508281 101.36397 
L 49.593781 126.659425 
L 49.816081 126.659425 
L 49.901581 101.36397 
L 49.918681 126.659425 
L 50.038381 126.659425 
L 50.158081 101.36397 
L 50.311981 101.36397 
L 50.329081 126.659425 
L 50.414581 101.36397 
L 50.619781 101.36397 
L 50.636881 126.659425 
L 50.722381 101.36397 
L 50.756581 101.36397 
L 50.773681 76.068516 
L 50.790781 126.659425 
L 50.842081 101.36397 
L 50.927581 126.659425 
L 50.944681 101.36397 
L 50.978881 101.36397 
L 50.995981 76.068516 
L 51.030181 126.659425 
L 51.081481 101.36397 
L 51.098581 101.36397 
L 51.184081 76.068516 
L 51.218281 126.659425 
L 51.252481 126.659425 
L 51.303781 76.068516 
L 51.355081 126.659425 
L 51.440581 126.659425 
L 51.526081 101.36397 
L 51.543181 126.659425 
L 51.799681 126.659425 
L 51.816781 101.36397 
L 51.902281 126.659425 
L 51.987781 126.659425 
L 52.004881 101.36397 
L 52.090381 126.659425 
L 52.175881 126.659425 
L 52.192981 101.36397 
L 52.278481 126.659425 
L 52.637581 126.659425 
L 52.757281 76.068516 
L 52.859881 126.659425 
L 52.996681 76.068516 
L 53.030881 76.068516 
L 53.150581 101.36397 
L 53.218981 101.36397 
L 53.236081 76.068516 
L 53.321581 101.36397 
L 53.372881 101.36397 
L 53.492581 126.659425 
L 53.509681 126.659425 
L 53.646481 76.068516 
L 53.663581 76.068516 
L 53.783281 126.659425 
L 53.851681 76.068516 
L 53.885881 101.36397 
L 53.902981 101.36397 
L 54.005581 76.068516 
L 54.108181 101.36397 
L 54.159481 50.773061 
L 54.210781 101.36397 
L 54.262081 101.36397 
L 54.381781 126.659425 
L 54.415981 126.659425 
L 54.535681 101.36397 
L 54.552781 101.36397 
L 54.672481 126.659425 
L 54.928981 126.659425 
L 55.048681 101.36397 
L 55.134181 101.36397 
L 55.253881 126.659425 
L 55.270981 101.36397 
L 55.356481 126.659425 
L 55.578781 126.659425 
L 55.698481 101.36397 
L 55.715581 101.36397 
L 55.749781 126.659425 
L 55.835281 76.068516 
L 55.869481 76.068516 
L 55.937881 126.659425 
L 55.972081 76.068516 
L 56.023381 76.068516 
L 56.143081 126.659425 
L 56.279881 76.068516 
L 56.399581 126.659425 
L 56.416681 101.36397 
L 56.502181 126.659425 
L 56.587681 126.659425 
L 56.707381 101.36397 
L 56.741581 101.36397 
L 56.861281 126.659425 
L 57.100681 126.659425 
L 57.117781 101.36397 
L 57.203281 126.659425 
L 57.374281 126.659425 
L 57.442681 101.36397 
L 57.476881 126.659425 
L 57.493981 126.659425 
L 57.511081 101.36397 
L 57.596581 126.659425 
L 57.613681 126.659425 
L 57.630781 101.36397 
L 57.716281 126.659425 
L 57.801781 126.659425 
L 57.818881 101.36397 
L 57.904381 126.659425 
L 58.126681 126.659425 
L 58.177981 101.36397 
L 58.229281 126.659425 
L 58.434481 126.659425 
L 58.451581 101.36397 
L 58.537081 126.659425 
L 58.879081 126.659425 
L 59.015881 76.068516 
L 59.118481 126.659425 
L 59.238181 76.068516 
L 59.374981 126.659425 
L 59.460481 76.068516 
L 59.477581 126.659425 
L 59.528881 126.659425 
L 59.631481 76.068516 
L 59.699881 126.659425 
L 59.734081 101.36397 
L 59.751181 101.36397 
L 59.870881 126.659425 
L 59.905081 126.659425 
L 59.922181 101.36397 
L 60.007681 126.659425 
L 60.093181 126.659425 
L 60.212881 101.36397 
L 60.332581 126.659425 
L 60.366781 126.659425 
L 60.435181 101.36397 
L 60.469381 126.659425 
L 60.623281 126.659425 
L 60.725881 101.36397 
L 60.811381 126.659425 
L 60.828481 101.36397 
L 60.845581 101.36397 
L 60.896881 76.068516 
L 60.913981 126.659425 
L 60.948181 101.36397 
L 61.050781 126.659425 
L 61.136281 101.36397 
L 61.153381 126.659425 
L 61.187581 126.659425 
L 61.290181 101.36397 
L 61.409881 126.659425 
L 61.529581 101.36397 
L 61.615081 101.36397 
L 61.734781 126.659425 
L 61.854481 101.36397 
L 61.922881 126.659425 
L 61.939981 101.36397 
L 61.974181 76.068516 
L 61.991281 126.659425 
L 62.025481 126.659425 
L 62.042581 126.659425 
L 62.093881 76.068516 
L 62.145181 101.36397 
L 62.264881 126.659425 
L 62.367481 101.36397 
L 62.487181 126.659425 
L 62.504281 101.36397 
L 62.589781 126.659425 
L 62.606881 126.659425 
L 62.641081 101.36397 
L 62.709481 126.659425 
L 62.863381 126.659425 
L 62.983081 101.36397 
L 63.102781 126.659425 
L 63.205381 126.659425 
L 63.290881 76.068516 
L 63.325081 101.36397 
L 63.342181 101.36397 
L 63.359281 126.659425 
L 63.376381 76.068516 
L 63.427681 76.068516 
L 63.444781 76.068516 
L 63.564481 101.36397 
L 63.632881 101.36397 
L 63.701281 25.477607 
L 63.769681 50.773061 
L 63.855181 76.068516 
L 63.872281 50.773061 
L 63.906481 50.773061 
L 64.043281 101.36397 
L 64.162981 76.068516 
L 64.180081 76.068516 
L 64.214281 126.659425 
L 64.248481 50.773061 
L 64.282681 76.068516 
L 64.299781 76.068516 
L 64.385281 126.659425 
L 64.402381 101.36397 
L 64.522081 76.068516 
L 64.590481 101.36397 
L 64.624681 76.068516 
L 64.641781 50.773061 
L 64.658881 101.36397 
L 64.710181 76.068516 
L 64.761481 50.773061 
L 64.812781 101.36397 
L 64.898281 76.068516 
L 64.915381 126.659425 
L 65.000881 76.068516 
L 65.069281 76.068516 
L 65.154781 126.659425 
L 65.137681 50.773061 
L 65.188981 101.36397 
L 65.257381 126.659425 
L 65.308681 76.068516 
L 65.325781 76.068516 
L 65.359981 50.773061 
L 65.445481 101.36397 
L 65.530981 76.068516 
L 65.548081 101.36397 
L 65.565181 101.36397 
L 65.667781 76.068516 
L 65.736181 126.659425 
L 65.770381 101.36397 
L 65.872981 76.068516 
L 65.992681 126.659425 
L 66.129481 76.068516 
L 66.163681 126.659425 
L 66.232081 76.068516 
L 66.283381 76.068516 
L 66.385981 101.36397 
L 66.505681 76.068516 
L 66.608281 126.659425 
L 66.693781 76.068516 
L 66.710881 101.36397 
L 66.727981 101.36397 
L 66.796381 126.659425 
L 66.847681 76.068516 
L 66.864781 76.068516 
L 66.916081 126.659425 
L 66.967381 76.068516 
L 67.001581 76.068516 
L 67.018681 126.659425 
L 67.035781 50.773061 
L 67.104181 76.068516 
L 67.223881 76.068516 
L 67.240981 126.659425 
L 67.326481 76.068516 
L 67.343581 76.068516 
L 67.360681 126.659425 
L 67.446181 101.36397 
L 67.565881 76.068516 
L 67.634281 76.068516 
L 67.702681 126.659425 
L 67.736881 101.36397 
L 67.839481 76.068516 
L 67.959181 101.36397 
L 68.078881 76.068516 
L 68.198581 126.659425 
L 68.335381 76.068516 
L 68.352481 76.068516 
L 68.472181 101.36397 
L 68.489281 101.36397 
L 68.591881 76.068516 
L 68.711581 126.659425 
L 68.831281 76.068516 
L 68.848381 76.068516 
L 68.882581 101.36397 
L 68.950981 76.068516 
L 69.036481 76.068516 
L 69.053581 50.773061 
L 69.087781 101.36397 
L 69.139081 76.068516 
L 69.156181 76.068516 
L 69.258781 101.36397 
L 69.310081 50.773061 
L 69.361381 101.36397 
L 69.429781 76.068516 
L 69.481081 126.659425 
L 69.600781 76.068516 
L 69.617881 50.773061 
L 69.634981 126.659425 
L 69.669181 101.36397 
L 69.686281 126.659425 
L 69.737581 76.068516 
L 69.754681 76.068516 
L 69.771781 76.068516 
L 69.857281 101.36397 
L 69.874381 76.068516 
L 69.925681 76.068516 
L 69.994081 126.659425 
L 70.028281 101.36397 
L 70.130881 50.773061 
L 70.250581 126.659425 
L 70.353181 126.659425 
L 70.370281 101.36397 
L 70.455781 126.659425 
L 70.797781 126.659425 
L 70.883281 101.36397 
L 70.900381 126.659425 
L 71.139781 126.659425 
L 71.191081 76.068516 
L 71.242381 126.659425 
L 71.618581 126.659425 
L 71.635681 101.36397 
L 71.721181 126.659425 
L 71.823781 126.659425 
L 71.909281 101.36397 
L 71.926381 126.659425 
L 71.960581 126.659425 
L 72.028981 101.36397 
L 72.063181 126.659425 
L 72.097381 126.659425 
L 72.182881 76.068516 
L 72.199981 101.36397 
L 72.319681 126.659425 
L 72.473581 126.659425 
L 72.490681 101.36397 
L 72.576181 126.659425 
L 72.935281 126.659425 
L 73.054981 101.36397 
L 73.089181 101.36397 
L 73.106281 126.659425 
L 73.191781 101.36397 
L 73.208881 101.36397 
L 73.311481 126.659425 
L 73.396981 76.068516 
L 73.414081 126.659425 
L 73.431181 126.659425 
L 73.482481 76.068516 
L 73.533781 126.659425 
L 73.790281 126.659425 
L 73.858681 76.068516 
L 73.909981 101.36397 
L 73.927081 101.36397 
L 74.029681 126.659425 
L 74.149381 101.36397 
L 74.200681 101.36397 
L 74.269081 76.068516 
L 74.320381 126.659425 
L 74.354581 126.659425 
L 74.474281 101.36397 
L 74.508481 101.36397 
L 74.628181 126.659425 
L 74.747881 126.659425 
L 74.799181 101.36397 
L 74.850481 126.659425 
L 75.124081 126.659425 
L 75.192481 101.36397 
L 75.226681 126.659425 
L 75.329281 126.659425 
L 75.397681 101.36397 
L 75.431881 126.659425 
L 75.466081 126.659425 
L 75.483181 101.36397 
L 75.568681 126.659425 
L 75.585781 126.659425 
L 75.602881 76.068516 
L 75.688381 126.659425 
L 75.790981 126.659425 
L 75.808081 101.36397 
L 75.893581 126.659425 
L 76.047481 126.659425 
L 76.132981 101.36397 
L 76.150081 126.659425 
L 76.286881 126.659425 
L 76.389481 76.068516 
L 76.406581 101.36397 
L 76.457881 126.659425 
L 76.440781 76.068516 
L 76.492081 76.068516 
L 76.509181 76.068516 
L 76.611781 126.659425 
L 76.680181 76.068516 
L 76.731481 101.36397 
L 76.748581 126.659425 
L 76.765681 76.068516 
L 76.816981 76.068516 
L 76.834081 76.068516 
L 76.936681 126.659425 
L 77.039281 76.068516 
L 77.107681 126.659425 
L 77.158981 101.36397 
L 77.176081 101.36397 
L 77.261581 76.068516 
L 77.278681 101.36397 
L 77.312881 101.36397 
L 77.415481 76.068516 
L 77.518081 101.36397 
L 77.620681 50.773061 
L 77.637781 76.068516 
L 77.740381 101.36397 
L 77.791681 76.068516 
L 77.825881 126.659425 
L 77.842981 101.36397 
L 77.928481 101.36397 
L 78.048181 76.068516 
L 78.065281 76.068516 
L 78.184981 101.36397 
L 78.270481 76.068516 
L 78.287581 126.659425 
L 78.373081 101.36397 
L 78.390181 101.36397 
L 78.407281 126.659425 
L 78.441481 76.068516 
L 78.492781 101.36397 
L 78.509881 101.36397 
L 78.629581 76.068516 
L 78.749281 101.36397 
L 78.766381 101.36397 
L 78.783481 76.068516 
L 78.851881 101.36397 
L 78.937381 126.659425 
L 79.057081 76.068516 
L 79.159681 126.659425 
L 79.176781 76.068516 
L 79.262281 101.36397 
L 79.313581 101.36397 
L 79.433281 76.068516 
L 79.552981 101.36397 
L 79.570081 101.36397 
L 79.672681 76.068516 
L 79.792381 126.659425 
L 79.894981 76.068516 
L 79.912081 101.36397 
L 79.929181 101.36397 
L 79.997581 126.659425 
L 79.963381 76.068516 
L 80.031781 101.36397 
L 80.134381 76.068516 
L 80.236981 126.659425 
L 80.305381 76.068516 
L 80.339581 101.36397 
L 80.356681 101.36397 
L 80.390881 126.659425 
L 80.459281 76.068516 
L 80.561881 101.36397 
L 80.681581 76.068516 
L 80.818381 126.659425 
L 80.938081 76.068516 
L 81.057781 101.36397 
L 81.109081 76.068516 
L 81.091981 126.659425 
L 81.143281 101.36397 
L 81.177481 126.659425 
L 81.228781 76.068516 
L 81.245881 101.36397 
L 81.314281 101.36397 
L 81.399781 76.068516 
L 81.519481 126.659425 
L 81.639181 76.068516 
L 81.724681 126.659425 
L 81.741781 101.36397 
L 81.775981 101.36397 
L 81.895681 76.068516 
L 81.912781 126.659425 
L 81.998281 76.068516 
L 82.049581 76.068516 
L 82.169281 101.36397 
L 82.186381 101.36397 
L 82.237681 76.068516 
L 82.271881 126.659425 
L 82.288981 101.36397 
L 82.306081 101.36397 
L 82.340281 126.659425 
L 82.391581 76.068516 
L 82.442881 76.068516 
L 82.477081 101.36397 
L 82.545481 76.068516 
L 82.579681 76.068516 
L 82.665181 101.36397 
L 82.630981 50.773061 
L 82.682281 76.068516 
L 82.699381 76.068516 
L 82.836181 126.659425 
L 82.904581 126.659425 
L 82.972981 50.773061 
L 83.007181 101.36397 
L 83.075581 101.36397 
L 83.143981 126.659425 
L 83.195281 76.068516 
L 83.212381 76.068516 
L 83.349181 126.659425 
L 83.451781 126.659425 
L 83.571481 76.068516 
L 83.605681 126.659425 
L 83.691181 101.36397 
L 83.759581 126.659425 
L 83.810881 76.068516 
L 83.862181 126.659425 
L 83.896381 76.068516 
L 83.930581 126.659425 
L 83.998981 50.773061 
L 84.135781 101.36397 
L 84.169981 101.36397 
L 84.187081 76.068516 
L 84.204181 126.659425 
L 84.255481 126.659425 
L 84.306781 126.659425 
L 84.443581 76.068516 
L 84.477781 76.068516 
L 84.597481 126.659425 
L 84.682981 101.36397 
L 84.700081 126.659425 
L 84.734281 126.659425 
L 84.768481 101.36397 
L 84.836881 126.659425 
L 84.853981 126.659425 
L 84.922381 101.36397 
L 84.956581 126.659425 
L 85.093381 126.659425 
L 85.110481 76.068516 
L 85.195981 101.36397 
L 85.315681 126.659425 
L 85.332781 126.659425 
L 85.349881 76.068516 
L 85.435381 126.659425 
L 85.452481 126.659425 
L 85.555081 76.068516 
L 85.657681 101.36397 
L 85.777381 76.068516 
L 85.794481 76.068516 
L 85.931281 126.659425 
L 85.999681 76.068516 
L 86.033881 101.36397 
L 86.050981 101.36397 
L 86.102281 76.068516 
L 86.136481 126.659425 
L 86.153581 126.659425 
L 86.307481 50.773061 
L 86.324581 50.773061 
L 86.444281 101.36397 
L 86.563981 76.068516 
L 86.649481 101.36397 
L 86.666581 76.068516 
L 86.683681 50.773061 
L 86.769181 76.068516 
L 86.837581 76.068516 
L 86.940181 126.659425 
L 87.059881 76.068516 
L 87.094081 76.068516 
L 87.179581 126.659425 
L 87.213781 101.36397 
L 87.333481 76.068516 
L 87.401881 50.773061 
L 87.453181 101.36397 
L 87.538681 76.068516 
L 87.555781 101.36397 
L 87.572881 101.36397 
L 87.675481 76.068516 
L 87.692581 126.659425 
L 87.778081 101.36397 
L 87.863581 101.36397 
L 87.914881 126.659425 
L 87.966181 76.068516 
L 88.085881 126.659425 
L 88.188481 50.773061 
L 88.222681 76.068516 
L 88.256881 126.659425 
L 88.325281 101.36397 
L 88.376581 76.068516 
L 88.359481 126.659425 
L 88.427881 101.36397 
L 88.444981 101.36397 
L 88.547581 76.068516 
L 88.633081 126.659425 
L 88.667281 101.36397 
L 88.684381 101.36397 
L 88.752781 76.068516 
L 88.786981 101.36397 
L 88.872481 101.36397 
L 88.957981 126.659425 
L 88.975081 76.068516 
L 89.094781 101.36397 
L 89.111881 101.36397 
L 89.128981 76.068516 
L 89.214481 101.36397 
L 89.351281 101.36397 
L 89.385481 76.068516 
L 89.402581 126.659425 
L 89.453881 101.36397 
L 89.470981 101.36397 
L 89.539381 126.659425 
L 89.522281 76.068516 
L 89.573581 101.36397 
L 89.710381 101.36397 
L 89.778781 76.068516 
L 89.795881 126.659425 
L 89.812981 101.36397 
L 89.915581 101.36397 
L 89.932681 126.659425 
L 90.018181 101.36397 
L 90.120781 76.068516 
L 90.206281 101.36397 
L 90.223381 76.068516 
L 90.240481 76.068516 
L 90.360181 101.36397 
L 90.428581 126.659425 
L 90.479881 76.068516 
L 90.599581 101.36397 
L 90.616681 101.36397 
L 90.719281 76.068516 
L 90.753481 101.36397 
L 90.821881 76.068516 
L 90.838981 76.068516 
L 90.907381 101.36397 
L 90.941581 76.068516 
L 90.958681 76.068516 
L 91.061281 101.36397 
L 91.180981 76.068516 
L 91.198081 76.068516 
L 91.266481 126.659425 
L 91.317781 101.36397 
L 91.386181 126.659425 
L 91.437481 76.068516 
L 91.454581 76.068516 
L 91.522981 126.659425 
L 91.557181 101.36397 
L 91.574281 101.36397 
L 91.625581 50.773061 
L 91.608481 126.659425 
L 91.659781 76.068516 
L 91.745281 126.659425 
L 91.728181 50.773061 
L 91.762381 76.068516 
L 91.813681 25.477607 
L 91.882081 126.659425 
L 92.018881 76.068516 
L 92.035981 76.068516 
L 92.155681 101.36397 
L 92.172781 101.36397 
L 92.258281 76.068516 
L 92.275381 101.36397 
L 92.292481 101.36397 
L 92.377981 76.068516 
L 92.395081 101.36397 
L 92.412181 126.659425 
L 92.463481 76.068516 
L 92.497681 101.36397 
L 92.514781 101.36397 
L 92.531881 76.068516 
L 92.583181 126.659425 
L 92.617381 101.36397 
L 92.685781 76.068516 
L 92.719981 126.659425 
L 92.839681 101.36397 
L 92.925181 101.36397 
L 93.044881 76.068516 
L 93.147481 101.36397 
L 93.232981 76.068516 
L 93.198781 126.659425 
L 93.250081 101.36397 
L 93.301381 101.36397 
L 93.318481 126.659425 
L 93.352681 76.068516 
L 93.386881 76.068516 
L 93.455281 76.068516 
L 93.489481 101.36397 
L 93.540781 76.068516 
L 93.557881 50.773061 
L 93.574981 101.36397 
L 93.609181 76.068516 
L 93.643381 50.773061 
L 93.711781 126.659425 
L 93.814381 50.773061 
L 93.831481 126.659425 
L 93.934081 101.36397 
L 94.019581 50.773061 
L 94.036681 76.068516 
L 94.070881 126.659425 
L 94.156381 101.36397 
L 94.258981 50.773061 
L 94.190581 126.659425 
L 94.276081 76.068516 
L 94.293181 76.068516 
L 94.412881 126.659425 
L 94.549681 76.068516 
L 94.583881 126.659425 
L 94.635181 76.068516 
L 94.720681 50.773061 
L 94.669381 101.36397 
L 94.737781 76.068516 
L 94.857481 101.36397 
L 94.960081 50.773061 
L 95.096881 101.36397 
L 95.131081 50.773061 
L 95.216581 76.068516 
L 95.233681 76.068516 
L 95.284981 126.659425 
L 95.336281 76.068516 
L 95.353381 76.068516 
L 95.404681 50.773061 
L 95.421781 126.659425 
L 95.438881 101.36397 
L 95.455981 101.36397 
L 95.575681 126.659425 
L 95.644081 76.068516 
L 95.678281 126.659425 
L 95.712481 126.659425 
L 95.746681 76.068516 
L 95.832181 101.36397 
L 95.866381 126.659425 
L 95.900581 76.068516 
L 95.934781 101.36397 
L 95.986081 126.659425 
L 96.037381 76.068516 
L 96.157081 126.659425 
L 96.242581 76.068516 
L 96.276781 101.36397 
L 96.396481 126.659425 
L 96.413581 126.659425 
L 96.481981 76.068516 
L 96.533281 101.36397 
L 96.550381 126.659425 
L 96.601681 76.068516 
L 96.635881 101.36397 
L 96.704281 101.36397 
L 96.772681 76.068516 
L 96.806881 101.36397 
L 96.858181 101.36397 
L 96.875281 126.659425 
L 96.926581 76.068516 
L 96.943681 76.068516 
L 96.960781 76.068516 
L 96.994981 126.659425 
L 97.080481 101.36397 
L 97.097581 76.068516 
L 97.131781 126.659425 
L 97.165981 101.36397 
L 97.268581 126.659425 
L 97.388281 101.36397 
L 97.422481 101.36397 
L 97.439581 126.659425 
L 97.456681 76.068516 
L 97.507981 101.36397 
L 97.559281 126.659425 
L 97.610581 76.068516 
L 97.696081 101.36397 
L 97.713181 76.068516 
L 97.730281 76.068516 
L 97.849981 126.659425 
L 97.952581 50.773061 
L 97.969681 76.068516 
L 98.106481 126.659425 
L 98.123581 126.659425 
L 98.243281 101.36397 
L 98.362981 126.659425 
L 98.397181 50.773061 
L 98.482681 101.36397 
L 98.499781 126.659425 
L 98.551081 76.068516 
L 98.568181 76.068516 
L 98.585281 76.068516 
L 98.602381 126.659425 
L 98.670781 50.773061 
L 98.687881 76.068516 
L 98.756281 101.36397 
L 98.807581 50.773061 
L 98.824681 50.773061 
L 98.961481 126.659425 
L 99.046981 50.773061 
L 99.098281 76.068516 
L 99.217981 101.36397 
L 99.337681 50.773061 
L 99.423181 76.068516 
L 99.440281 50.773061 
L 99.457381 50.773061 
L 99.474481 126.659425 
L 99.559981 76.068516 
L 99.662581 50.773061 
L 99.679681 101.36397 
L 99.765181 50.773061 
L 99.799381 50.773061 
L 99.867781 101.36397 
L 99.919081 76.068516 
L 99.953281 76.068516 
L 100.055881 126.659425 
L 100.072981 101.36397 
L 100.090081 101.36397 
L 100.158481 76.068516 
L 100.175581 101.36397 
L 100.243981 126.659425 
L 100.209781 76.068516 
L 100.261081 76.068516 
L 100.278181 76.068516 
L 100.397881 101.36397 
L 100.466281 101.36397 
L 100.551781 76.068516 
L 100.568881 101.36397 
L 100.585981 101.36397 
L 100.603081 76.068516 
L 100.637281 126.659425 
L 100.688581 101.36397 
L 100.722781 101.36397 
L 100.825381 76.068516 
L 100.945081 126.659425 
L 101.030581 50.773061 
L 101.064781 101.36397 
L 101.081881 101.36397 
L 101.167381 126.659425 
L 101.184481 101.36397 
L 101.201581 101.36397 
L 101.321281 126.659425 
L 101.492281 126.659425 
L 101.611981 76.068516 
L 101.748781 126.659425 
L 101.765881 126.659425 
L 101.851381 101.36397 
L 101.868481 126.659425 
L 101.902681 126.659425 
L 102.039481 76.068516 
L 102.107881 126.659425 
L 102.159181 101.36397 
L 102.176281 76.068516 
L 102.261781 101.36397 
L 102.278881 101.36397 
L 102.295981 76.068516 
L 102.381481 101.36397 
L 102.432781 101.36397 
L 102.484081 76.068516 
L 102.552481 126.659425 
L 102.637981 101.36397 
L 102.655081 126.659425 
L 102.672181 126.659425 
L 102.774781 101.36397 
L 102.894481 126.659425 
L 102.911581 126.659425 
L 103.048381 76.068516 
L 103.168081 126.659425 
L 103.287781 101.36397 
L 103.321981 101.36397 
L 103.441681 126.659425 
L 103.561381 101.36397 
L 103.629781 126.659425 
L 103.663981 101.36397 
L 103.681081 101.36397 
L 103.766581 76.068516 
L 103.783681 126.659425 
L 103.817881 76.068516 
L 103.886281 101.36397 
L 103.971781 126.659425 
L 103.988881 101.36397 
L 104.005981 101.36397 
L 104.074381 126.659425 
L 104.108581 101.36397 
L 104.125681 101.36397 
L 104.159881 126.659425 
L 104.228281 101.36397 
L 104.245381 101.36397 
L 104.296681 126.659425 
L 104.347981 101.36397 
L 104.399281 101.36397 
L 104.501881 126.659425 
L 104.587381 76.068516 
L 104.604481 101.36397 
L 104.638681 126.659425 
L 104.655781 76.068516 
L 104.689981 101.36397 
L 104.707081 76.068516 
L 104.775481 101.36397 
L 104.895181 126.659425 
L 104.980681 101.36397 
L 104.997781 126.659425 
L 105.066181 126.659425 
L 105.151681 76.068516 
L 105.185881 101.36397 
L 105.288481 126.659425 
L 105.408181 101.36397 
L 105.510781 126.659425 
L 105.562081 76.068516 
L 105.613381 101.36397 
L 105.733081 126.659425 
L 105.801481 76.068516 
L 105.835681 101.36397 
L 105.886981 126.659425 
L 105.921181 101.36397 
L 105.972481 76.068516 
L 105.989581 126.659425 
L 106.006681 126.659425 
L 106.023781 126.659425 
L 106.126381 101.36397 
L 106.246081 126.659425 
L 106.331581 126.659425 
L 106.365781 76.068516 
L 106.434181 126.659425 
L 106.468381 76.068516 
L 106.536781 126.659425 
L 106.690681 126.659425 
L 106.707781 101.36397 
L 106.793281 126.659425 
L 106.861681 126.659425 
L 106.964281 76.068516 
L 107.032681 50.773061 
L 107.066881 126.659425 
L 107.169481 101.36397 
L 107.186581 126.659425 
L 107.220781 76.068516 
L 107.272081 101.36397 
L 107.340481 101.36397 
L 107.374681 126.659425 
L 107.460181 50.773061 
L 107.596981 126.659425 
L 107.716681 101.36397 
L 107.733781 101.36397 
L 107.802181 126.659425 
L 107.785081 76.068516 
L 107.836381 101.36397 
L 107.853481 101.36397 
L 107.938981 126.659425 
L 107.956081 101.36397 
L 107.990281 101.36397 
L 108.007381 126.659425 
L 108.092881 101.36397 
L 108.127081 101.36397 
L 108.212581 76.068516 
L 108.332281 126.659425 
L 108.434881 76.068516 
L 108.451981 101.36397 
L 108.503281 126.659425 
L 108.520381 76.068516 
L 108.537481 101.36397 
L 108.554581 76.068516 
L 108.640081 101.36397 
L 108.691381 101.36397 
L 108.742681 126.659425 
L 108.793981 101.36397 
L 108.845281 101.36397 
L 108.947881 126.659425 
L 109.067581 101.36397 
L 109.084681 126.659425 
L 109.101781 76.068516 
L 109.153081 101.36397 
L 109.170181 50.773061 
L 109.255681 76.068516 
L 109.358281 126.659425 
L 109.375381 101.36397 
L 109.426681 101.36397 
L 109.477981 126.659425 
L 109.529281 76.068516 
L 109.648981 126.659425 
L 109.768681 101.36397 
L 109.888381 126.659425 
L 110.008081 101.36397 
L 110.127781 126.659425 
L 110.196181 126.659425 
L 110.315881 76.068516 
L 110.384281 126.659425 
L 110.435581 101.36397 
L 110.469781 101.36397 
L 110.486881 76.068516 
L 110.503981 126.659425 
L 110.572381 101.36397 
L 110.589481 101.36397 
L 110.674981 76.068516 
L 110.692081 126.659425 
L 110.828881 76.068516 
L 110.845981 126.659425 
L 110.931481 101.36397 
L 111.051181 50.773061 
L 111.119581 126.659425 
L 111.102481 25.477607 
L 111.170881 101.36397 
L 111.205081 76.068516 
L 111.273481 101.36397 
L 111.307681 101.36397 
L 111.427381 126.659425 
L 111.529981 76.068516 
L 111.615481 126.659425 
L 111.632581 101.36397 
L 111.718081 76.068516 
L 111.700981 126.659425 
L 111.735181 101.36397 
L 111.854881 126.659425 
L 111.906181 76.068516 
L 111.974581 101.36397 
L 111.991681 101.36397 
L 112.008781 126.659425 
L 112.060081 76.068516 
L 112.077181 76.068516 
L 112.094281 76.068516 
L 112.213981 126.659425 
L 112.333681 76.068516 
L 112.436281 126.659425 
L 112.402081 50.773061 
L 112.453381 101.36397 
L 112.504681 101.36397 
L 112.590181 126.659425 
L 112.555981 76.068516 
L 112.607281 101.36397 
L 112.692781 76.068516 
L 112.709881 101.36397 
L 112.726981 101.36397 
L 112.744081 76.068516 
L 112.795381 126.659425 
L 112.829581 101.36397 
L 112.915081 101.36397 
L 113.000581 50.773061 
L 113.017681 126.659425 
L 113.120281 101.36397 
L 113.171581 50.773061 
L 113.222881 76.068516 
L 113.359681 126.659425 
L 113.376781 76.068516 
L 113.462281 101.36397 
L 113.479381 126.659425 
L 113.530681 76.068516 
L 113.547781 76.068516 
L 113.599081 76.068516 
L 113.718781 126.659425 
L 113.821381 76.068516 
L 113.855581 126.659425 
L 113.923981 101.36397 
L 113.958181 101.36397 
L 114.009481 126.659425 
L 114.026581 76.068516 
L 114.060781 101.36397 
L 114.077881 101.36397 
L 114.094981 126.659425 
L 114.112081 76.068516 
L 114.180481 101.36397 
L 114.214681 101.36397 
L 114.334381 126.659425 
L 114.436981 76.068516 
L 114.471181 126.659425 
L 114.556681 101.36397 
L 114.573781 101.36397 
L 114.590881 50.773061 
L 114.676381 101.36397 
L 114.693481 126.659425 
L 114.744781 76.068516 
L 114.778981 101.36397 
L 114.796081 50.773061 
L 114.864481 76.068516 
L 114.881581 126.659425 
L 114.898681 50.773061 
L 114.967081 76.068516 
L 115.052581 76.068516 
L 115.172281 101.36397 
L 115.291981 101.36397 
L 115.326181 76.068516 
L 115.377481 126.659425 
L 115.394581 126.659425 
L 115.411681 76.068516 
L 115.497181 126.659425 
L 115.582681 101.36397 
L 115.599781 126.659425 
L 115.633981 126.659425 
L 115.753681 101.36397 
L 115.770781 101.36397 
L 115.873381 126.659425 
L 115.890481 76.068516 
L 115.975981 101.36397 
L 116.010181 101.36397 
L 116.061481 126.659425 
L 116.078581 76.068516 
L 116.095681 76.068516 
L 116.112781 76.068516 
L 116.249581 126.659425 
L 116.352181 101.36397 
L 116.471881 126.659425 
L 116.591581 101.36397 
L 116.677081 76.068516 
L 116.694181 126.659425 
L 116.796781 76.068516 
L 116.916481 126.659425 
L 117.053281 76.068516 
L 117.172981 126.659425 
L 117.241381 50.773061 
L 117.309781 76.068516 
L 117.378181 126.659425 
L 117.429481 101.36397 
L 117.480781 101.36397 
L 117.497881 76.068516 
L 117.532081 126.659425 
L 117.566281 126.659425 
L 117.600481 126.659425 
L 117.685981 101.36397 
L 117.703081 126.659425 
L 117.771481 126.659425 
L 117.856981 76.068516 
L 117.874081 101.36397 
L 117.925381 126.659425 
L 117.959581 76.068516 
L 117.976681 101.36397 
L 118.045081 101.36397 
L 118.096381 126.659425 
L 118.147681 76.068516 
L 118.198981 50.773061 
L 118.250281 101.36397 
L 118.352881 50.773061 
L 118.421281 101.36397 
L 118.455481 76.068516 
L 118.489681 76.068516 
L 118.609381 101.36397 
L 118.643581 101.36397 
L 118.677781 126.659425 
L 118.729081 76.068516 
L 118.763281 76.068516 
L 118.780381 50.773061 
L 118.814581 101.36397 
L 118.865881 76.068516 
L 118.985581 101.36397 
L 119.036881 101.36397 
L 119.122381 126.659425 
L 119.139481 101.36397 
L 119.207881 101.36397 
L 119.327581 126.659425 
L 119.447281 101.36397 
L 119.464381 101.36397 
L 119.498581 76.068516 
L 119.584081 126.659425 
L 119.618281 126.659425 
L 119.720881 101.36397 
L 119.840581 126.659425 
L 119.857681 126.659425 
L 119.977381 101.36397 
L 120.011581 101.36397 
L 120.114181 126.659425 
L 120.182581 76.068516 
L 120.216781 126.659425 
L 120.250981 126.659425 
L 120.268081 76.068516 
L 120.353581 126.659425 
L 120.387781 126.659425 
L 120.490381 101.36397 
L 120.610081 126.659425 
L 120.627181 126.659425 
L 120.729781 76.068516 
L 120.849481 126.659425 
L 120.969181 101.36397 
L 121.003381 101.36397 
L 121.123081 126.659425 
L 121.225681 76.068516 
L 121.242781 101.36397 
L 121.276981 101.36397 
L 121.345381 126.659425 
L 121.379581 101.36397 
L 121.465081 101.36397 
L 121.550581 126.659425 
L 121.567681 101.36397 
L 121.584781 101.36397 
L 121.618981 76.068516 
L 121.704481 126.659425 
L 121.721581 126.659425 
L 121.841281 76.068516 
L 121.909681 126.659425 
L 121.943881 101.36397 
L 121.995181 76.068516 
L 121.978081 126.659425 
L 122.046481 101.36397 
L 122.080681 101.36397 
L 122.200381 126.659425 
L 122.217481 126.659425 
L 122.337181 101.36397 
L 122.456881 126.659425 
L 122.491081 126.659425 
L 122.559481 76.068516 
L 122.610781 101.36397 
L 122.713381 126.659425 
L 122.798881 76.068516 
L 122.833081 101.36397 
L 122.850181 101.36397 
L 122.935681 126.659425 
L 122.952781 101.36397 
L 122.986981 101.36397 
L 123.106681 126.659425 
L 123.123781 126.659425 
L 123.175081 101.36397 
L 123.226381 126.659425 
L 123.260581 126.659425 
L 123.346081 76.068516 
L 123.363181 101.36397 
L 123.482881 126.659425 
L 123.499981 126.659425 
L 123.619681 101.36397 
L 123.653881 101.36397 
L 123.670981 126.659425 
L 123.705181 76.068516 
L 123.756481 101.36397 
L 123.790681 101.36397 
L 123.824881 76.068516 
L 123.893281 101.36397 
L 123.927481 101.36397 
L 123.944581 126.659425 
L 123.995881 76.068516 
L 124.012981 76.068516 
L 124.030081 76.068516 
L 124.132681 126.659425 
L 124.252381 76.068516 
L 124.372081 126.659425 
L 124.491781 101.36397 
L 124.543081 101.36397 
L 124.611481 76.068516 
L 124.577281 126.659425 
L 124.645681 101.36397 
L 124.662781 101.36397 
L 124.765381 126.659425 
L 124.885081 101.36397 
L 124.987681 126.659425 
L 125.090281 76.068516 
L 125.209981 126.659425 
L 125.329681 101.36397 
L 125.363881 76.068516 
L 125.449381 126.659425 
L 125.466481 126.659425 
L 125.534881 76.068516 
L 125.569081 101.36397 
L 125.688781 126.659425 
L 125.740081 76.068516 
L 125.808481 101.36397 
L 125.893981 101.36397 
L 125.911081 76.068516 
L 125.962381 126.659425 
L 125.996581 101.36397 
L 126.047881 126.659425 
L 126.099181 101.36397 
L 126.116281 50.773061 
L 126.133381 126.659425 
L 126.201781 101.36397 
L 126.218881 101.36397 
L 126.235981 50.773061 
L 126.321481 101.36397 
L 126.389881 101.36397 
L 126.441181 126.659425 
L 126.509581 76.068516 
L 126.526681 76.068516 
L 126.543781 126.659425 
L 126.629281 101.36397 
L 126.800281 101.36397 
L 126.817381 126.659425 
L 126.902881 101.36397 
L 127.039681 101.36397 
L 127.108081 126.659425 
L 127.142281 101.36397 
L 127.176481 101.36397 
L 127.193581 126.659425 
L 127.261981 101.36397 
L 127.279081 76.068516 
L 127.296181 126.659425 
L 127.364581 101.36397 
L 127.415881 101.36397 
L 127.432981 126.659425 
L 127.450081 76.068516 
L 127.518481 101.36397 
L 127.586881 101.36397 
L 127.603981 76.068516 
L 127.689481 101.36397 
L 127.740781 101.36397 
L 127.757881 126.659425 
L 127.792081 50.773061 
L 127.809181 50.773061 
L 127.826281 50.773061 
L 127.963081 101.36397 
L 128.082781 76.068516 
L 128.099881 76.068516 
L 128.236681 126.659425 
L 128.253781 126.659425 
L 128.390581 50.773061 
L 128.476081 126.659425 
L 128.493181 101.36397 
L 128.612881 76.068516 
L 128.647081 76.068516 
L 128.664181 101.36397 
L 128.732581 76.068516 
L 128.749681 50.773061 
L 128.818081 76.068516 
L 128.937781 126.659425 
L 129.040381 76.068516 
L 129.057481 101.36397 
L 129.108781 101.36397 
L 129.211381 50.773061 
L 129.279781 101.36397 
L 129.313981 76.068516 
L 129.331081 76.068516 
L 129.348181 126.659425 
L 129.416581 50.773061 
L 129.433681 50.773061 
L 129.570481 101.36397 
L 129.604681 101.36397 
L 129.638881 50.773061 
L 129.655981 126.659425 
L 129.724381 76.068516 
L 129.775681 126.659425 
L 129.826981 101.36397 
L 129.912481 50.773061 
L 129.946681 76.068516 
L 129.997981 76.068516 
L 130.100581 101.36397 
L 130.134781 50.773061 
L 130.151881 126.659425 
L 130.186081 101.36397 
L 130.254481 126.659425 
L 130.271581 76.068516 
L 130.305781 76.068516 
L 130.339981 126.659425 
L 130.425481 101.36397 
L 130.442581 101.36397 
L 130.493881 126.659425 
L 130.476781 76.068516 
L 130.545181 101.36397 
L 130.664881 76.068516 
L 130.784581 101.36397 
L 130.818781 101.36397 
L 130.835881 126.659425 
L 130.852981 76.068516 
L 130.904281 76.068516 
L 130.921381 76.068516 
L 130.989781 126.659425 
L 131.041081 101.36397 
L 131.058181 50.773061 
L 131.075281 126.659425 
L 131.143681 101.36397 
L 131.160781 126.659425 
L 131.229181 76.068516 
L 131.263381 76.068516 
L 131.383081 101.36397 
L 131.451481 101.36397 
L 131.468581 126.659425 
L 131.536981 101.36397 
L 131.656681 76.068516 
L 131.673781 76.068516 
L 131.690881 50.773061 
L 131.742181 101.36397 
L 131.759281 101.36397 
L 131.776381 101.36397 
L 131.844781 76.068516 
L 131.896081 126.659425 
L 132.015781 101.36397 
L 132.118381 101.36397 
L 132.135481 50.773061 
L 132.220981 101.36397 
L 132.238081 126.659425 
L 132.323581 101.36397 
L 132.374881 101.36397 
L 132.391981 76.068516 
L 132.443281 126.659425 
L 132.460381 101.36397 
L 132.477481 126.659425 
L 132.494581 50.773061 
L 132.562981 101.36397 
L 132.665581 101.36397 
L 132.682681 76.068516 
L 132.716881 126.659425 
L 132.768181 101.36397 
L 132.802381 101.36397 
L 132.836581 126.659425 
L 132.904981 101.36397 
L 132.922081 101.36397 
L 133.024681 126.659425 
L 133.110181 76.068516 
L 133.127281 101.36397 
L 133.144381 101.36397 
L 133.161481 76.068516 
L 133.229881 126.659425 
L 133.264081 126.659425 
L 133.332481 76.068516 
L 133.383781 101.36397 
L 133.400881 101.36397 
L 133.486381 126.659425 
L 133.435081 76.068516 
L 133.503481 101.36397 
L 133.623181 101.36397 
L 133.691581 126.659425 
L 133.708681 101.36397 
L 133.759981 126.659425 
L 133.828381 76.068516 
L 133.930981 101.36397 
L 134.033581 76.068516 
L 134.153281 101.36397 
L 134.170381 101.36397 
L 134.221681 76.068516 
L 134.272981 126.659425 
L 134.392681 101.36397 
L 134.580781 101.36397 
L 134.597881 126.659425 
L 134.614981 76.068516 
L 134.683381 101.36397 
L 134.717581 101.36397 
L 134.785981 76.068516 
L 134.820181 101.36397 
L 134.871481 101.36397 
L 134.922781 76.068516 
L 134.974081 101.36397 
L 135.196381 101.36397 
L 135.213481 126.659425 
L 135.230581 76.068516 
L 135.298981 101.36397 
L 135.384481 101.36397 
L 135.452881 126.659425 
L 135.435781 76.068516 
L 135.469981 101.36397 
L 135.538381 76.068516 
L 135.572581 101.36397 
L 135.658081 101.36397 
L 135.675181 126.659425 
L 135.726481 76.068516 
L 135.760681 101.36397 
L 135.811981 76.068516 
L 135.794881 126.659425 
L 135.863281 101.36397 
L 135.931681 76.068516 
L 135.948781 126.659425 
L 136.068481 76.068516 
L 136.119781 126.659425 
L 136.171081 101.36397 
L 136.205281 76.068516 
L 136.222381 126.659425 
L 136.273681 101.36397 
L 136.307881 101.36397 
L 136.324981 126.659425 
L 136.376281 76.068516 
L 136.393381 50.773061 
L 136.444681 101.36397 
L 136.461781 101.36397 
L 136.581481 101.36397 
L 136.615681 50.773061 
L 136.684081 76.068516 
L 136.735381 50.773061 
L 136.820881 126.659425 
L 136.889281 76.068516 
L 136.940581 101.36397 
L 136.974781 101.36397 
L 136.991881 50.773061 
L 137.077381 101.36397 
L 137.162881 76.068516 
L 137.179981 101.36397 
L 137.214181 126.659425 
L 137.265481 76.068516 
L 137.282581 76.068516 
L 137.350981 126.659425 
L 137.385181 101.36397 
L 137.419381 101.36397 
L 137.470681 76.068516 
L 137.539081 126.659425 
L 137.556181 126.659425 
L 137.675881 101.36397 
L 137.710081 101.36397 
L 137.727181 126.659425 
L 137.812681 101.36397 
L 137.829781 101.36397 
L 137.915281 126.659425 
L 137.932381 101.36397 
L 138.000781 101.36397 
L 138.120481 126.659425 
L 138.223081 101.36397 
L 138.342781 126.659425 
L 138.359881 76.068516 
L 138.445381 126.659425 
L 138.547981 101.36397 
L 138.565081 126.659425 
L 138.599281 76.068516 
L 138.650581 101.36397 
L 138.770281 101.36397 
L 138.872881 126.659425 
L 138.924181 76.068516 
L 138.975481 126.659425 
L 139.009681 126.659425 
L 139.146481 76.068516 
L 139.214881 126.659425 
L 139.249081 101.36397 
L 139.334581 76.068516 
L 139.454281 126.659425 
L 139.471381 76.068516 
L 139.556881 101.36397 
L 139.659481 101.36397 
L 139.779181 126.659425 
L 139.898881 101.36397 
L 139.915981 101.36397 
L 139.933081 126.659425 
L 139.967281 76.068516 
L 140.018581 101.36397 
L 140.086981 101.36397 
L 140.155381 76.068516 
L 140.189581 101.36397 
L 140.206681 101.36397 
L 140.275081 126.659425 
L 140.292181 76.068516 
L 140.309281 126.659425 
L 140.394781 76.068516 
L 140.446081 126.659425 
L 140.514481 101.36397 
L 140.582881 101.36397 
L 140.685481 76.068516 
L 140.753881 126.659425 
L 140.805181 101.36397 
L 140.839381 101.36397 
L 140.959081 76.068516 
L 140.976181 76.068516 
L 141.061681 126.659425 
L 141.095881 101.36397 
L 141.164281 101.36397 
L 141.215581 126.659425 
L 141.266881 76.068516 
L 141.369481 126.659425 
L 141.386581 101.36397 
L 141.437881 101.36397 
L 141.454981 126.659425 
L 141.489181 76.068516 
L 141.540481 101.36397 
L 141.608881 101.36397 
L 141.625981 76.068516 
L 141.711481 101.36397 
L 141.848281 101.36397 
L 141.865381 76.068516 
L 141.933781 126.659425 
L 141.950881 101.36397 
L 141.985081 101.36397 
L 142.053481 126.659425 
L 142.019281 76.068516 
L 142.070581 101.36397 
L 142.190281 76.068516 
L 142.327081 126.659425 
L 142.463881 76.068516 
L 142.480981 76.068516 
L 142.583581 126.659425 
L 142.617781 76.068516 
L 142.686181 101.36397 
L 142.720381 101.36397 
L 142.737481 126.659425 
L 142.822981 101.36397 
L 142.840081 101.36397 
L 142.857181 126.659425 
L 142.942681 101.36397 
L 142.959781 101.36397 
L 143.028181 126.659425 
L 142.993981 76.068516 
L 143.062381 101.36397 
L 143.267581 101.36397 
L 143.284681 76.068516 
L 143.335981 126.659425 
L 143.353081 126.659425 
L 143.370181 126.659425 
L 143.489881 101.36397 
L 143.506981 101.36397 
L 143.558281 76.068516 
L 143.609581 101.36397 
L 143.729281 101.36397 
L 143.814781 126.659425 
L 143.831881 101.36397 
L 143.848981 101.36397 
L 143.917381 76.068516 
L 143.951581 101.36397 
L 143.985781 101.36397 
L 144.002881 126.659425 
L 144.037081 76.068516 
L 144.088381 101.36397 
L 144.139681 76.068516 
L 144.173881 101.36397 
L 144.190981 126.659425 
L 144.225181 76.068516 
L 144.276481 101.36397 
L 144.310681 101.36397 
L 144.379081 76.068516 
L 144.413281 101.36397 
L 144.447481 101.36397 
L 144.464581 126.659425 
L 144.550081 101.36397 
L 144.635581 101.36397 
L 144.703981 76.068516 
L 144.755281 126.659425 
L 144.823681 76.068516 
L 144.874981 101.36397 
L 144.926281 101.36397 
L 144.943381 126.659425 
L 144.994681 76.068516 
L 145.028881 101.36397 
L 145.080181 126.659425 
L 145.148581 76.068516 
L 145.165681 76.068516 
L 145.285381 101.36397 
L 145.302481 101.36397 
L 145.319581 126.659425 
L 145.405081 101.36397 
L 145.439281 101.36397 
L 145.558981 76.068516 
L 145.661581 101.36397 
L 145.747081 76.068516 
L 145.764181 101.36397 
L 145.918081 101.36397 
L 145.986481 76.068516 
L 146.020681 126.659425 
L 146.140381 101.36397 
L 146.157481 126.659425 
L 146.225881 76.068516 
L 146.242981 101.36397 
L 146.294281 101.36397 
L 146.311381 126.659425 
L 146.379781 101.36397 
L 146.396881 76.068516 
L 146.482381 101.36397 
L 146.499481 101.36397 
L 146.567881 76.068516 
L 146.584981 101.36397 
L 146.602081 126.659425 
L 146.653381 76.068516 
L 146.670481 76.068516 
L 146.687581 76.068516 
L 146.807281 101.36397 
L 146.824381 101.36397 
L 146.909881 76.068516 
L 146.926981 101.36397 
L 146.944081 101.36397 
L 147.029581 76.068516 
L 147.046681 126.659425 
L 147.132181 101.36397 
L 147.183481 101.36397 
L 147.200581 126.659425 
L 147.217681 76.068516 
L 147.286081 101.36397 
L 147.303181 101.36397 
L 147.388681 76.068516 
L 147.405781 101.36397 
L 147.439981 101.36397 
L 147.559681 76.068516 
L 147.679381 101.36397 
L 147.713581 101.36397 
L 147.799081 76.068516 
L 147.816181 101.36397 
L 147.867481 101.36397 
L 147.970081 76.068516 
L 147.987181 126.659425 
L 148.072681 101.36397 
L 148.106881 101.36397 
L 148.175281 126.659425 
L 148.209481 101.36397 
L 148.243681 101.36397 
L 148.277881 76.068516 
L 148.346281 101.36397 
L 148.483081 101.36397 
L 148.500181 76.068516 
L 148.585681 101.36397 
L 148.602781 101.36397 
L 148.619881 76.068516 
L 148.654081 126.659425 
L 148.705381 101.36397 
L 148.722481 101.36397 
L 148.825081 76.068516 
L 148.910581 101.36397 
L 148.927681 50.773061 
L 149.013181 101.36397 
L 149.047381 101.36397 
L 149.081581 76.068516 
L 149.115781 126.659425 
L 149.149981 101.36397 
L 149.201281 126.659425 
L 149.252581 101.36397 
L 149.338081 101.36397 
L 149.440681 76.068516 
L 149.560381 101.36397 
L 149.645881 101.36397 
L 149.662981 76.068516 
L 149.748481 101.36397 
L 149.782681 101.36397 
L 149.799781 126.659425 
L 149.816881 76.068516 
L 149.885281 101.36397 
L 149.902381 101.36397 
L 149.936581 50.773061 
L 150.004981 76.068516 
L 150.124681 101.36397 
L 150.141781 101.36397 
L 150.158881 50.773061 
L 150.244381 76.068516 
L 150.295681 126.659425 
L 150.364081 101.36397 
L 150.398281 101.36397 
L 150.449581 76.068516 
L 150.483781 126.659425 
L 150.500881 101.36397 
L 150.517981 101.36397 
L 150.535081 76.068516 
L 150.620581 101.36397 
L 150.688981 101.36397 
L 150.723181 76.068516 
L 150.791581 101.36397 
L 150.808681 101.36397 
L 150.825781 126.659425 
L 150.894181 76.068516 
L 150.911281 101.36397 
L 151.030981 76.068516 
L 151.150681 101.36397 
L 151.167781 101.36397 
L 151.287481 76.068516 
L 151.355881 76.068516 
L 151.475581 101.36397 
L 151.509781 101.36397 
L 151.561081 126.659425 
L 151.629481 76.068516 
L 151.732081 76.068516 
L 151.834681 101.36397 
L 151.937281 76.068516 
L 152.056981 101.36397 
L 152.108281 101.36397 
L 152.210881 76.068516 
L 152.330581 101.36397 
L 152.364781 101.36397 
L 152.416081 76.068516 
L 152.433181 126.659425 
L 152.450281 101.36397 
L 152.569981 126.659425 
L 152.604181 76.068516 
L 152.689681 101.36397 
L 152.706781 101.36397 
L 152.723881 76.068516 
L 152.792281 126.659425 
L 152.809381 101.36397 
L 152.826481 101.36397 
L 152.946181 76.068516 
L 153.031681 126.659425 
L 153.048781 76.068516 
L 153.065881 101.36397 
L 153.151381 76.068516 
L 153.168481 76.068516 
L 153.202681 126.659425 
L 153.253981 50.773061 
L 153.271081 101.36397 
L 153.339481 76.068516 
L 153.322381 126.659425 
L 153.356581 101.36397 
L 153.373681 126.659425 
L 153.424981 76.068516 
L 153.442081 76.068516 
L 153.476281 76.068516 
L 153.613081 126.659425 
L 153.732781 101.36397 
L 153.801181 101.36397 
L 153.835381 126.659425 
L 153.852481 76.068516 
L 153.886681 101.36397 
L 153.903781 76.068516 
L 153.937981 126.659425 
L 153.989281 101.36397 
L 154.023481 101.36397 
L 154.108981 126.659425 
L 154.126081 101.36397 
L 154.160281 50.773061 
L 154.228681 101.36397 
L 154.245781 101.36397 
L 154.365481 126.659425 
L 154.844281 126.659425 
L 154.861381 101.36397 
L 154.946881 126.659425 
L 155.716381 126.659425 
L 155.733481 101.36397 
L 155.818981 126.659425 
L 156.964681 126.659425 
L 157.084381 101.36397 
L 157.204081 126.659425 
L 157.836781 126.659425 
L 157.853881 101.36397 
L 157.939381 126.659425 
L 157.990681 126.659425 
L 158.007781 101.36397 
L 158.093281 126.659425 
L 158.452381 126.659425 
L 158.469481 101.36397 
L 158.554981 126.659425 
L 158.623381 126.659425 
L 158.674681 101.36397 
L 158.725981 126.659425 
L 159.358681 126.659425 
L 159.409981 76.068516 
L 159.461281 126.659425 
L 159.478381 126.659425 
L 159.598081 101.36397 
L 159.700681 126.659425 
L 159.769081 101.36397 
L 159.803281 126.659425 
L 159.820381 126.659425 
L 159.854581 76.068516 
L 159.922981 126.659425 
L 159.957181 126.659425 
L 160.059781 101.36397 
L 160.128181 126.659425 
L 160.162381 101.36397 
L 160.179481 101.36397 
L 160.299181 126.659425 
L 160.384681 126.659425 
L 160.487281 101.36397 
L 160.555681 76.068516 
L 160.606981 126.659425 
L 160.658281 101.36397 
L 160.709581 126.659425 
L 160.743781 126.659425 
L 160.863481 101.36397 
L 160.914781 101.36397 
L 161.034481 126.659425 
L 161.188381 126.659425 
L 161.290981 101.36397 
L 161.410681 126.659425 
L 161.547481 126.659425 
L 161.650081 101.36397 
L 161.769781 126.659425 
L 161.803981 126.659425 
L 161.872381 101.36397 
L 161.906581 126.659425 
L 161.974981 126.659425 
L 162.094681 101.36397 
L 162.128881 101.36397 
L 162.163081 76.068516 
L 162.248581 126.659425 
L 162.436681 126.659425 
L 162.453781 76.068516 
L 162.539281 126.659425 
L 162.658981 76.068516 
L 162.778681 126.659425 
L 162.795781 101.36397 
L 162.881281 126.659425 
L 162.932581 126.659425 
L 162.949681 101.36397 
L 163.035181 126.659425 
L 163.103581 126.659425 
L 163.154881 76.068516 
L 163.223281 101.36397 
L 163.240381 101.36397 
L 163.325881 126.659425 
L 163.342981 101.36397 
L 163.394281 126.659425 
L 163.462681 76.068516 
L 163.599481 126.659425 
L 163.616581 126.659425 
L 163.650781 76.068516 
L 163.736281 101.36397 
L 163.821781 76.068516 
L 163.838881 126.659425 
L 163.855981 76.068516 
L 163.941481 101.36397 
L 164.026981 101.36397 
L 164.095381 126.659425 
L 164.061181 76.068516 
L 164.129581 101.36397 
L 164.146681 101.36397 
L 164.266381 126.659425 
L 164.317681 126.659425 
L 164.437381 101.36397 
L 164.505781 126.659425 
L 164.522881 101.36397 
L 164.608381 76.068516 
L 164.574181 126.659425 
L 164.625481 101.36397 
L 164.745181 126.659425 
L 164.762281 126.659425 
L 164.864881 101.36397 
L 164.950381 76.068516 
L 164.984581 126.659425 
L 165.087181 101.36397 
L 165.206881 126.659425 
L 165.309481 101.36397 
L 165.360781 126.659425 
L 165.412081 101.36397 
L 165.429181 101.36397 
L 165.480481 126.659425 
L 165.548881 76.068516 
L 165.565981 76.068516 
L 165.583081 126.659425 
L 165.617281 50.773061 
L 165.668581 76.068516 
L 165.719881 50.773061 
L 165.736981 101.36397 
L 165.771181 76.068516 
L 165.805381 76.068516 
L 165.839581 25.477607 
L 165.907981 50.773061 
L 166.010581 126.659425 
L 166.027681 101.36397 
L 166.078981 25.477607 
L 166.130281 101.36397 
L 166.198681 101.36397 
L 166.335481 50.773061 
L 166.352581 101.36397 
L 166.438081 50.773061 
L 166.540681 126.659425 
L 166.574881 25.477607 
L 166.643281 76.068516 
L 166.762981 101.36397 
L 166.814281 101.36397 
L 166.933981 126.659425 
L 166.951081 126.659425 
L 167.053681 101.36397 
L 167.070781 126.659425 
L 167.156281 101.36397 
L 167.293081 50.773061 
L 167.395681 101.36397 
L 167.412781 76.068516 
L 167.515381 25.477607 
L 167.583781 126.659425 
L 167.635081 76.068516 
L 167.703481 76.068516 
L 167.806081 25.477607 
L 167.823181 50.773061 
L 167.959981 50.773061 
L 168.062581 101.36397 
L 168.130981 50.773061 
L 168.165181 76.068516 
L 168.199381 126.659425 
L 168.267781 101.36397 
L 168.284881 50.773061 
L 168.336181 126.659425 
L 168.370381 101.36397 
L 168.387481 101.36397 
L 168.455881 126.659425 
L 168.472981 101.36397 
L 168.575581 76.068516 
L 168.712381 126.659425 
L 168.832081 76.068516 
L 168.951781 101.36397 
L 168.985981 101.36397 
L 169.105681 126.659425 
L 169.191181 101.36397 
L 169.208281 126.659425 
L 169.259581 126.659425 
L 169.327981 76.068516 
L 169.379281 101.36397 
L 169.498981 126.659425 
L 169.533181 101.36397 
L 169.601581 126.659425 
L 169.721281 126.659425 
L 169.738381 101.36397 
L 169.823881 126.659425 
L 169.875181 126.659425 
L 169.994881 101.36397 
L 170.114581 126.659425 
L 170.661781 126.659425 
L 170.695981 101.36397 
L 170.764381 126.659425 
L 171.687781 126.659425 
L 171.756181 101.36397 
L 171.790381 126.659425 
L 172.867681 126.659425 
L 172.901881 101.36397 
L 172.970281 126.659425 
L 174.936781 126.659425 
L 175.056481 101.36397 
L 175.107781 101.36397 
L 175.227481 126.659425 
L 175.569481 126.659425 
L 175.689181 76.068516 
L 175.740481 126.659425 
L 175.791781 76.068516 
L 175.808881 76.068516 
L 175.825981 50.773061 
L 175.911481 76.068516 
L 175.928581 101.36397 
L 176.014081 76.068516 
L 176.048281 76.068516 
L 176.065381 126.659425 
L 176.150881 101.36397 
L 176.287681 50.773061 
L 176.356081 101.36397 
L 176.390281 76.068516 
L 176.441581 101.36397 
L 176.509981 50.773061 
L 176.629681 101.36397 
L 176.646781 76.068516 
L 176.680981 126.659425 
L 176.732281 101.36397 
L 176.749381 101.36397 
L 176.886181 50.773061 
L 176.903281 50.773061 
L 177.005881 101.36397 
L 177.091381 76.068516 
L 177.108481 126.659425 
L 177.159781 50.773061 
L 177.176881 50.773061 
L 177.193981 50.773061 
L 177.296581 76.068516 
L 177.416281 50.773061 
L 177.433381 76.068516 
L 177.518881 50.773061 
L 177.553081 50.773061 
L 177.655681 101.36397 
L 177.672781 50.773061 
L 177.724081 126.659425 
L 177.758281 76.068516 
L 177.843781 101.36397 
L 177.912181 25.477607 
L 177.946381 126.659425 
L 178.202881 126.659425 
L 178.219981 101.36397 
L 178.305481 126.659425 
L 179.416981 126.659425 
L 179.434081 101.36397 
L 179.519581 126.659425 
L 184.837681 126.659425 
L 184.854781 101.36397 
L 184.940281 126.659425 
L 184.974481 126.659425 
L 184.991581 101.36397 
L 185.077081 126.659425 
L 185.213881 126.659425 
L 185.230981 101.36397 
L 185.316481 126.659425 
L 185.555881 126.659425 
L 185.675581 101.36397 
L 185.709781 101.36397 
L 185.726881 126.659425 
L 185.795281 76.068516 
L 185.812381 76.068516 
L 185.949181 126.659425 
L 186.051781 126.659425 
L 186.154381 76.068516 
L 186.239881 50.773061 
L 186.274081 101.36397 
L 186.359581 101.36397 
L 186.376681 126.659425 
L 186.445081 76.068516 
L 186.462181 101.36397 
L 186.547681 126.659425 
L 186.564781 50.773061 
L 186.684481 101.36397 
L 186.804181 50.773061 
L 186.855481 50.773061 
L 186.906781 76.068516 
L 186.958081 50.773061 
L 186.975181 50.773061 
L 187.077781 101.36397 
L 187.094881 76.068516 
L 187.163281 76.068516 
L 187.248781 101.36397 
L 187.265881 50.773061 
L 187.300081 101.36397 
L 187.368481 76.068516 
L 187.471081 50.773061 
L 187.590781 101.36397 
L 187.710481 50.773061 
L 187.727581 101.36397 
L 187.813081 76.068516 
L 187.847281 76.068516 
L 187.966981 50.773061 
L 188.035381 50.773061 
L 188.120881 101.36397 
L 188.137981 76.068516 
L 188.172181 76.068516 
L 188.206381 126.659425 
L 188.257681 76.068516 
L 188.326081 101.36397 
L 188.394481 25.477607 
L 188.497081 101.36397 
L 188.514181 76.068516 
L 188.548381 50.773061 
L 188.616781 76.068516 
L 188.633881 76.068516 
L 188.719381 50.773061 
L 188.753581 101.36397 
L 188.770681 101.36397 
L 188.873281 76.068516 
L 188.958781 126.659425 
L 188.975881 76.068516 
L 189.010081 126.659425 
L 189.078481 76.068516 
L 189.095581 76.068516 
L 189.112681 126.659425 
L 189.198181 101.36397 
L 189.215281 101.36397 
L 189.317881 76.068516 
L 189.420481 101.36397 
L 189.437581 76.068516 
L 189.454681 126.659425 
L 189.505981 101.36397 
L 189.574381 126.659425 
L 189.608581 101.36397 
L 189.642781 101.36397 
L 189.676981 126.659425 
L 189.694081 76.068516 
L 189.728281 76.068516 
L 189.745381 76.068516 
L 189.865081 101.36397 
L 189.984781 76.068516 
L 190.018981 76.068516 
L 190.138681 101.36397 
L 190.189981 101.36397 
L 190.309681 50.773061 
L 190.378081 101.36397 
L 190.412281 50.773061 
L 190.429381 50.773061 
L 190.549081 76.068516 
L 190.668781 50.773061 
L 190.771381 126.659425 
L 190.788481 76.068516 
L 190.805581 76.068516 
L 190.891081 101.36397 
L 190.925281 50.773061 
L 190.959481 101.36397 
L 191.027881 50.773061 
L 191.044981 50.773061 
L 191.079181 101.36397 
L 191.147581 50.773061 
L 191.198881 50.773061 
L 191.301481 126.659425 
L 191.335681 101.36397 
L 191.352781 101.36397 
L 191.472481 50.773061 
L 191.523781 50.773061 
L 191.626381 126.659425 
L 191.746081 50.773061 
L 191.763181 50.773061 
L 191.831581 101.36397 
L 191.865781 50.773061 
L 191.899981 50.773061 
L 192.019681 101.36397 
L 192.139381 76.068516 
L 192.173581 76.068516 
L 192.207781 126.659425 
L 192.276181 76.068516 
L 192.361681 76.068516 
L 192.378781 101.36397 
L 192.395881 50.773061 
L 192.447181 76.068516 
L 192.515581 101.36397 
L 192.532681 50.773061 
L 192.618181 126.659425 
L 192.635281 76.068516 
L 192.669481 76.068516 
L 192.703681 126.659425 
L 192.789181 101.36397 
L 192.874681 101.36397 
L 192.994381 76.068516 
L 193.011481 76.068516 
L 193.028581 126.659425 
L 193.079881 50.773061 
L 193.096981 50.773061 
L 193.114081 50.773061 
L 193.148281 101.36397 
L 193.216681 50.773061 
L 193.250881 50.773061 
L 193.285081 101.36397 
L 193.353481 76.068516 
L 193.456081 76.068516 
L 193.473181 25.477607 
L 193.524481 101.36397 
L 193.558681 76.068516 
L 193.627081 101.36397 
L 193.678381 50.773061 
L 193.695481 101.36397 
L 193.780981 50.773061 
L 193.815181 50.773061 
L 193.900681 76.068516 
L 193.917781 50.773061 
L 193.934881 50.773061 
L 194.071681 101.36397 
L 194.088781 101.36397 
L 194.105881 50.773061 
L 194.191381 76.068516 
L 194.208481 76.068516 
L 194.259781 126.659425 
L 194.328181 101.36397 
L 194.362381 101.36397 
L 194.482081 50.773061 
L 194.601781 101.36397 
L 194.721481 76.068516 
L 194.789881 126.659425 
L 194.824081 101.36397 
L 194.926681 101.36397 
L 194.943781 76.068516 
L 195.012181 101.36397 
L 195.029281 126.659425 
L 195.063481 76.068516 
L 195.114781 101.36397 
L 195.148981 101.36397 
L 195.200281 126.659425 
L 195.251581 101.36397 
L 195.285781 101.36397 
L 195.302881 126.659425 
L 195.388381 101.36397 
L 195.405481 101.36397 
L 195.439681 126.659425 
L 195.508081 76.068516 
L 195.644881 126.659425 
L 195.679081 76.068516 
L 195.747481 101.36397 
L 195.764581 101.36397 
L 195.867181 76.068516 
L 195.918481 126.659425 
L 195.969781 101.36397 
L 195.986881 101.36397 
L 196.106581 76.068516 
L 196.209181 126.659425 
L 196.294681 101.36397 
L 196.311781 126.659425 
L 196.345981 126.659425 
L 196.465681 76.068516 
L 196.585381 126.659425 
L 196.705081 76.068516 
L 196.824781 101.36397 
L 196.876081 101.36397 
L 196.927381 76.068516 
L 196.978681 126.659425 
L 197.029981 76.068516 
L 197.098381 101.36397 
L 197.149681 126.659425 
L 197.200981 101.36397 
L 197.235181 101.36397 
L 197.337781 126.659425 
L 197.457481 76.068516 
L 197.474581 76.068516 
L 197.491681 126.659425 
L 197.577181 101.36397 
L 197.594281 101.36397 
L 197.628481 126.659425 
L 197.662681 76.068516 
L 197.679781 76.068516 
L 197.696881 76.068516 
L 197.782381 101.36397 
L 197.799481 76.068516 
L 197.816581 76.068516 
L 197.953381 126.659425 
L 198.038881 101.36397 
L 198.055981 126.659425 
L 198.107281 126.659425 
L 198.158581 101.36397 
L 198.209881 126.659425 
L 198.244081 126.659425 
L 198.380881 76.068516 
L 198.500581 101.36397 
L 198.568981 101.36397 
L 198.637381 126.659425 
L 198.688681 50.773061 
L 198.722881 101.36397 
L 198.739981 25.477607 
L 198.791281 76.068516 
L 198.893881 50.773061 
L 199.013581 76.068516 
L 199.030681 76.068516 
L 199.047781 50.773061 
L 199.064881 126.659425 
L 199.133281 76.068516 
L 199.201681 76.068516 
L 199.252981 50.773061 
L 199.287181 76.068516 
L 199.338481 101.36397 
L 199.372681 50.773061 
L 199.389781 76.068516 
L 199.406881 50.773061 
L 199.441081 101.36397 
L 199.492381 76.068516 
L 199.612081 101.36397 
L 199.629181 101.36397 
L 199.714681 50.773061 
L 199.731781 76.068516 
L 199.783081 101.36397 
L 199.834381 76.068516 
L 199.851481 76.068516 
L 199.868581 50.773061 
L 199.885681 101.36397 
L 199.936981 76.068516 
L 200.005381 101.36397 
L 200.039581 76.068516 
L 200.056681 76.068516 
L 200.107981 126.659425 
L 200.176381 101.36397 
L 200.296081 76.068516 
L 200.330281 76.068516 
L 200.364481 101.36397 
L 200.432881 76.068516 
L 200.467081 76.068516 
L 200.569681 126.659425 
L 200.672281 50.773061 
L 200.689381 76.068516 
L 200.706481 50.773061 
L 200.740681 101.36397 
L 200.774881 76.068516 
L 200.860381 126.659425 
L 200.826181 50.773061 
L 200.877481 76.068516 
L 200.894581 76.068516 
L 200.945881 101.36397 
L 200.997181 76.068516 
L 201.014281 76.068516 
L 201.031381 50.773061 
L 201.099781 101.36397 
L 201.151081 101.36397 
L 201.270781 76.068516 
L 201.287881 76.068516 
L 201.390481 126.659425 
L 201.407581 101.36397 
L 201.424681 101.36397 
L 201.441781 76.068516 
L 201.458881 126.659425 
L 201.527281 101.36397 
L 201.544381 126.659425 
L 201.612781 101.36397 
L 201.629881 76.068516 
L 201.715381 101.36397 
L 201.732481 126.659425 
L 201.817981 101.36397 
L 201.852181 101.36397 
L 201.954781 126.659425 
L 202.074481 101.36397 
L 202.142881 101.36397 
L 202.159981 126.659425 
L 202.177081 76.068516 
L 202.228381 101.36397 
L 202.245481 50.773061 
L 202.330981 101.36397 
L 202.450681 76.068516 
L 202.553281 101.36397 
L 202.604581 126.659425 
L 202.672981 76.068516 
L 202.758481 76.068516 
L 202.775581 126.659425 
L 202.826881 50.773061 
L 202.861081 76.068516 
L 202.878181 50.773061 
L 202.929481 101.36397 
L 202.946581 101.36397 
L 202.980781 101.36397 
L 203.100481 50.773061 
L 203.134681 101.36397 
L 203.220181 76.068516 
L 203.305681 76.068516 
L 203.322781 101.36397 
L 203.408281 76.068516 
L 203.425381 76.068516 
L 203.459581 50.773061 
L 203.545081 126.659425 
L 203.596381 76.068516 
L 203.647681 101.36397 
L 203.698981 101.36397 
L 203.716081 50.773061 
L 203.801581 101.36397 
L 203.818681 126.659425 
L 203.904181 101.36397 
L 203.921281 101.36397 
L 204.040981 76.068516 
L 204.177781 126.659425 
L 204.246181 50.773061 
L 204.314581 76.068516 
L 204.331681 76.068516 
L 204.400081 126.659425 
L 204.434281 101.36397 
L 204.588181 101.36397 
L 204.690781 126.659425 
L 204.742081 101.36397 
L 204.793381 126.659425 
L 205.340581 126.659425 
L 205.357681 101.36397 
L 205.443181 126.659425 
L 205.545781 126.659425 
L 205.562881 101.36397 
L 205.648381 126.659425 
L 205.870681 126.659425 
L 205.887781 101.36397 
L 205.973281 126.659425 
L 206.110081 126.659425 
L 206.246881 76.068516 
L 206.263981 76.068516 
L 206.400781 126.659425 
L 206.417881 126.659425 
L 206.452081 101.36397 
L 206.520481 126.659425 
L 206.554681 126.659425 
L 206.571781 101.36397 
L 206.657281 126.659425 
L 207.016381 126.659425 
L 207.033481 76.068516 
L 207.118981 126.659425 
L 207.221581 126.659425 
L 207.272881 101.36397 
L 207.324181 126.659425 
L 207.341281 126.659425 
L 207.375481 101.36397 
L 207.443881 126.659425 
L 207.529381 126.659425 
L 207.614881 101.36397 
L 207.631981 126.659425 
L 207.751681 126.659425 
L 207.837181 76.068516 
L 207.854281 101.36397 
L 207.956881 126.659425 
L 208.042381 76.068516 
L 208.059481 101.36397 
L 208.093681 101.36397 
L 208.213381 76.068516 
L 208.315981 126.659425 
L 208.333081 101.36397 
L 208.367281 76.068516 
L 208.384381 126.659425 
L 208.418581 101.36397 
L 208.452781 126.659425 
L 208.469881 76.068516 
L 208.504081 76.068516 
L 208.589581 76.068516 
L 208.623781 126.659425 
L 208.692181 101.36397 
L 208.726381 101.36397 
L 208.743481 76.068516 
L 208.760581 126.659425 
L 208.828981 101.36397 
L 208.863181 101.36397 
L 208.914481 76.068516 
L 208.948681 101.36397 
L 209.017081 126.659425 
L 209.051281 101.36397 
L 209.068381 76.068516 
L 209.085481 126.659425 
L 209.153881 101.36397 
L 209.170981 101.36397 
L 209.290681 126.659425 
L 209.307781 126.659425 
L 209.410381 76.068516 
L 209.427481 101.36397 
L 209.444581 101.36397 
L 209.461681 126.659425 
L 209.495881 76.068516 
L 209.547181 101.36397 
L 209.632681 76.068516 
L 209.701081 126.659425 
L 209.735281 101.36397 
L 209.786581 101.36397 
L 209.837881 126.659425 
L 209.906281 76.068516 
L 210.025981 101.36397 
L 210.094381 101.36397 
L 210.128581 76.068516 
L 210.196981 101.36397 
L 210.214081 101.36397 
L 210.231181 50.773061 
L 210.248281 76.068516 
" clip-path="url(#p4b5004f39c)" style="fill: none; stroke: #009e73; stroke-width: 1.25; stroke-linecap: square"/>
   </g>
   <g id="patch_4">
    <path d="M 30.698281 131.718516 
L 30.698281 20.418516 
" style="fill: none; stroke: #000000; stroke-width: 0.8; stroke-linejoin: miter; stroke-linecap: square"/>
   </g>
   <g id="patch_5">
    <path d="M 30.698281 131.718516 
L 218.798281 131.718516 
" style="fill: none; stroke: #000000; stroke-width: 0.8; stroke-linejoin: miter; stroke-linecap: square"/>
   </g>
   <g id="text_14">
    <!-- drugs3523 rep3 -->
    <g transform="translate(86.875195 14.418516) scale(0.095 -0.095)">
     <defs>
      <path id="DejaVuSans-67" d="M 2906 1791 
Q 2906 2416 2648 2759 
Q 2391 3103 1925 3103 
Q 1463 3103 1205 2759 
Q 947 2416 947 1791 
Q 947 1169 1205 825 
Q 1463 481 1925 481 
Q 2391 481 2648 825 
Q 2906 1169 2906 1791 
z
M 3481 434 
Q 3481 -459 3084 -895 
Q 2688 -1331 1869 -1331 
Q 1566 -1331 1297 -1286 
Q 1028 -1241 775 -1147 
L 775 -588 
Q 1028 -725 1275 -790 
Q 1522 -856 1778 -856 
Q 2344 -856 2625 -561 
Q 2906 -266 2906 331 
L 2906 616 
Q 2728 306 2450 153 
Q 2172 0 1784 0 
Q 1141 0 747 490 
Q 353 981 353 1791 
Q 353 2603 747 3093 
Q 1141 3584 1784 3584 
Q 2172 3584 2450 3431 
Q 2728 3278 2906 2969 
L 2906 3500 
L 3481 3500 
L 3481 434 
z
" transform="scale(0.015625)"/>
      <path id="DejaVuSans-35" d="M 691 4666 
L 3169 4666 
L 3169 4134 
L 1269 4134 
L 1269 2991 
Q 1406 3038 1543 3061 
Q 1681 3084 1819 3084 
Q 2600 3084 3056 2656 
Q 3513 2228 3513 1497 
Q 3513 744 3044 326 
Q 2575 -91 1722 -91 
Q 1428 -91 1123 -41 
Q 819 9 494 109 
L 494 744 
Q 775 591 1075 516 
Q 1375 441 1709 441 
Q 2250 441 2565 725 
Q 2881 1009 2881 1497 
Q 2881 1984 2565 2268 
Q 2250 2553 1709 2553 
Q 1456 2553 1204 2497 
Q 953 2441 691 2322 
L 691 4666 
z
" transform="scale(0.015625)"/>
      <path id="DejaVuSans-70" d="M 1159 525 
L 1159 -1331 
L 581 -1331 
L 581 3500 
L 1159 3500 
L 1159 2969 
Q 1341 3281 1617 3432 
Q 1894 3584 2278 3584 
Q 2916 3584 3314 3078 
Q 3713 2572 3713 1747 
Q 3713 922 3314 415 
Q 2916 -91 2278 -91 
Q 1894 -91 1617 61 
Q 1341 213 1159 525 
z
M 3116 1747 
Q 3116 2381 2855 2742 
Q 2594 3103 2138 3103 
Q 1681 3103 1420 2742 
Q 1159 2381 1159 1747 
Q 1159 1113 1420 752 
Q 1681 391 2138 391 
Q 2594 391 2855 752 
Q 3116 1113 3116 1747 
z
" transform="scale(0.015625)"/>
     </defs>
     <use xlink:href="#DejaVuSans-64"/>
     <use xlink:href="#DejaVuSans-72" transform="translate(63.476562 0)"/>
     <use xlink:href="#DejaVuSans-75" transform="translate(104.589844 0)"/>
     <use xlink:href="#DejaVuSans-67" transform="translate(167.96875 0)"/>
     <use xlink:href="#DejaVuSans-73" transform="translate(231.445312 0)"/>
     <use xlink:href="#DejaVuSans-33" transform="translate(283.544922 0)"/>
     <use xlink:href="#DejaVuSans-35" transform="translate(347.167969 0)"/>
     <use xlink:href="#DejaVuSans-32" transform="translate(410.791016 0)"/>
     <use xlink:href="#DejaVuSans-33" transform="translate(474.414062 0)"/>
     <use xlink:href="#DejaVuSans-20" transform="translate(538.037109 0)"/>
     <use xlink:href="#DejaVuSans-72" transform="translate(569.824219 0)"/>
     <use xlink:href="#DejaVuSans-65" transform="translate(608.6875 0)"/>
     <use xlink:href="#DejaVuSans-70" transform="translate(670.210938 0)"/>
     <use xlink:href="#DejaVuSans-33" transform="translate(733.6875 0)"/>
    </g>
   </g>
  </g>
 </g>
 <defs>
  <clipPath id="p4b5004f39c">
   <rect x="30.698281" y="20.418516" width="188.1" height="111.3"/>
  </clipPath>
 </defs>
</svg>
