<?xml version="1.0" encoding="utf-8" standalone="no"?>
<!DOCTYPE svg PUBLIC "-//W3C//DTD SVG 1.1//EN"
  "http://www.w3.org/Graphics/SVG/1.1/DTD/svg11.dtd">
<svg xmlns:xlink="http://www.w3.org/1999/xlink" width="226.01375pt" height="164.903516pt" viewBox="0 0 226.01375 164.903516" xmlns="http://www.w3.org/2000/svg" version="1.1">
 <metadata>
  <rdf:RDF xmlns:dc="http://purl.org/dc/elements/1.1/" xmlns:cc="http://creativecommons.org/ns#" xmlns:rdf="http://www.w3.org/1999/02/22-rdf-syntax-ns#">
   <cc:Work>
    <dc:type rdf:resource="http://purl.org/dc/dcmitype/StillImage"/>
    <dc:date>2026-05-24T13:53:58.997415</dc:date>
    <dc:format>image/svg+xml</dc:format>
    <dc:creator>
     <cc:Agent>
      <dc:title>Matplotlib v3.10.9, https://matplotlib.org/</dc:title>
     </cc:Agent>
    </dc:creator>
   </cc:Work>
  </rdf:RDF>
 </metadata>
 <defs>
  <style type="text/css">*{stroke-linejoin: round; stroke-linecap: butt}</style>
 </defs>
 <g id="figure_1">
  <g id="patch_1">
   <path d="M 0 164.903516 
L 226.01375 164.903516 
L 226.01375 0 
L 0 0 
z
" style="fill: #ffffff"/>
  </g>
  <g id="axes_1">
   <g id="patch_2">
    <path d="M 37.85375 131.718516 
L 218.81375 131.718516 
L 218.81375 20.418516 
L 37.85375 20.418516 
z
" style="fill: #ffffff"/>
   </g>
   <g id="patch_3">
    <path d="M 128.333744 131.718516 
L 210.588283 131.718516 
L 210.588283 20.418516 
L 128.333744 20.418516 
z
" clip-path="url(#p4002bce701)" style="fill: #bdbdbd; opacity: 0.18"/>
   </g>
   <g id="matplotlib.axis_1">
    <g id="xtick_1">
     <g id="line2d_1">
      <defs>
       <path id="m932b369c99" d="M 0 0 
L 0 3 
" style="stroke: #000000; stroke-width: 0.7"/>
      </defs>
      <g>
       <use xlink:href="#m932b369c99" x="46.079205" y="131.718516" style="stroke: #000000; stroke-width: 0.7"/>
      </g>
     </g>
     <g id="text_1">
      <!-- 0 -->
      <g transform="translate(43.693267 143.917344) scale(0.075 -0.075)">
       <defs>
        <path id="DejaVuSans-30" d="M 2034 4250 
Q 1547 4250 1301 3770 
Q 1056 3291 1056 2328 
Q 1056 1369 1301 889 
Q 1547 409 2034 409 
Q 2525 409 2770 889 
Q 3016 1369 3016 2328 
Q 3016 3291 2770 3770 
Q 2525 4250 2034 4250 
z
M 2034 4750 
Q 2819 4750 3233 4129 
Q 3647 3509 3647 2328 
Q 3647 1150 3233 529 
Q 2819 -91 2034 -91 
Q 1250 -91 836 529 
Q 422 1150 422 2328 
Q 422 3509 836 4129 
Q 1250 4750 2034 4750 
z
" transform="scale(0.015625)"/>
       </defs>
       <use xlink:href="#DejaVuSans-30"/>
      </g>
     </g>
    </g>
    <g id="xtick_2">
     <g id="line2d_2">
      <g>
       <use xlink:href="#m932b369c99" x="78.98102" y="131.718516" style="stroke: #000000; stroke-width: 0.7"/>
      </g>
     </g>
     <g id="text_2">
      <!-- 20 -->
      <g transform="translate(74.209145 143.917344) scale(0.075 -0.075)">
       <defs>
        <path id="DejaVuSans-32" d="M 1228 531 
L 3431 531 
L 3431 0 
L 469 0 
L 469 531 
Q 828 903 1448 1529 
Q 2069 2156 2228 2338 
Q 2531 2678 2651 2914 
Q 2772 3150 2772 3378 
Q 2772 3750 2511 3984 
Q 2250 4219 1831 4219 
Q 1534 4219 1204 4116 
Q 875 4013 500 3803 
L 500 4441 
Q 881 4594 1212 4672 
Q 1544 4750 1819 4750 
Q 2544 4750 2975 4387 
Q 3406 4025 3406 3419 
Q 3406 3131 3298 2873 
Q 3191 2616 2906 2266 
Q 2828 2175 2409 1742 
Q 1991 1309 1228 531 
z
" transform="scale(0.015625)"/>
       </defs>
       <use xlink:href="#DejaVuSans-32"/>
       <use xlink:href="#DejaVuSans-30" transform="translate(63.623047 0)"/>
      </g>
     </g>
    </g>
    <g id="xtick_3">
     <g id="line2d_3">
      <g>
       <use xlink:href="#m932b369c99" x="111.882836" y="131.718516" style="stroke: #000000; stroke-width: 0.7"/>
      </g>
     </g>
     <g id="text_3">
      <!-- 40 -->
      <g transform="translate(107.110961 143.917344) scale(0.075 -0.075)">
       <defs>
        <path id="DejaVuSans-34" d="M 2419 4116 
L 825 1625 
L 2419 1625 
L 2419 4116 
z
M 2253 4666 
L 3047 4666 
L 3047 1625 
L 3713 1625 
L 3713 1100 
L 3047 1100 
L 3047 0 
L 2419 0 
L 2419 1100 
L 313 1100 
L 313 1709 
L 2253 4666 
z
" transform="scale(0.015625)"/>
       </defs>
       <use xlink:href="#DejaVuSans-34"/>
       <use xlink:href="#DejaVuSans-30" transform="translate(63.623047 0)"/>
      </g>
     </g>
    </g>
    <g id="xtick_4">
     <g id="line2d_4">
      <g>
       <use xlink:href="#m932b369c99" x="144.784652" y="131.718516" style="stroke: #000000; stroke-width: 0.7"/>
      </g>
     </g>
     <g id="text_4">
      <!-- 60 -->
      <g transform="translate(140.012777 143.917344) scale(0.075 -0.075)">
       <defs>
        <path id="DejaVuSans-36" d="M 2113 2584 
Q 1688 2584 1439 2293 
Q 1191 2003 1191 1497 
Q 1191 994 1439 701 
Q 1688 409 2113 409 
Q 2538 409 2786 701 
Q 3034 994 3034 1497 
Q 3034 2003 2786 2293 
Q 2538 2584 2113 2584 
z
M 3366 4563 
L 3366 3988 
Q 3128 4100 2886 4159 
Q 2644 4219 2406 4219 
Q 1781 4219 1451 3797 
Q 1122 3375 1075 2522 
Q 1259 2794 1537 2939 
Q 1816 3084 2150 3084 
Q 2853 3084 3261 2657 
Q 3669 2231 3669 1497 
Q 3669 778 3244 343 
Q 2819 -91 2113 -91 
Q 1303 -91 875 529 
Q 447 1150 447 2328 
Q 447 3434 972 4092 
Q 1497 4750 2381 4750 
Q 2619 4750 2861 4703 
Q 3103 4656 3366 4563 
z
" transform="scale(0.015625)"/>
       </defs>
       <use xlink:href="#DejaVuSans-36"/>
       <use xlink:href="#DejaVuSans-30" transform="translate(63.623047 0)"/>
      </g>
     </g>
    </g>
    <g id="xtick_5">
     <g id="line2d_5">
      <g>
       <use xlink:href="#m932b369c99" x="177.686467" y="131.718516" style="stroke: #000000; stroke-width: 0.7"/>
      </g>
     </g>
     <g id="text_5">
      <!-- 80 -->
      <g transform="translate(172.914592 143.917344) scale(0.075 -0.075)">
       <defs>
        <path id="DejaVuSans-38" d="M 2034 2216 
Q 1584 2216 1326 1975 
Q 1069 1734 1069 1313 
Q 1069 891 1326 650 
Q 1584 409 2034 409 
Q 2484 409 2743 651 
Q 3003 894 3003 1313 
Q 3003 1734 2745 1975 
Q 2488 2216 2034 2216 
z
M 1403 2484 
Q 997 2584 770 2862 
Q 544 3141 544 3541 
Q 544 4100 942 4425 
Q 1341 4750 2034 4750 
Q 2731 4750 3128 4425 
Q 3525 4100 3525 3541 
Q 3525 3141 3298 2862 
Q 3072 2584 2669 2484 
Q 3125 2378 3379 2068 
Q 3634 1759 3634 1313 
Q 3634 634 3220 271 
Q 2806 -91 2034 -91 
Q 1263 -91 848 271 
Q 434 634 434 1313 
Q 434 1759 690 2068 
Q 947 2378 1403 2484 
z
M 1172 3481 
Q 1172 3119 1398 2916 
Q 1625 2713 2034 2713 
Q 2441 2713 2670 2916 
Q 2900 3119 2900 3481 
Q 2900 3844 2670 4047 
Q 2441 4250 2034 4250 
Q 1625 4250 1398 4047 
Q 1172 3844 1172 3481 
z
" transform="scale(0.015625)"/>
       </defs>
       <use xlink:href="#DejaVuSans-38"/>
       <use xlink:href="#DejaVuSans-30" transform="translate(63.623047 0)"/>
      </g>
     </g>
    </g>
    <g id="xtick_6">
     <g id="line2d_6">
      <g>
       <use xlink:href="#m932b369c99" x="210.588283" y="131.718516" style="stroke: #000000; stroke-width: 0.7"/>
      </g>
     </g>
     <g id="text_6">
      <!-- 100 -->
      <g transform="translate(203.43047 143.917344) scale(0.075 -0.075)">
       <defs>
        <path id="DejaVuSans-31" d="M 794 531 
L 1825 531 
L 1825 4091 
L 703 3866 
L 703 4441 
L 1819 4666 
L 2450 4666 
L 2450 531 
L 3481 531 
L 3481 0 
L 794 0 
L 794 531 
z
" transform="scale(0.015625)"/>
       </defs>
       <use xlink:href="#DejaVuSans-31"/>
       <use xlink:href="#DejaVuSans-30" transform="translate(63.623047 0)"/>
       <use xlink:href="#DejaVuSans-30" transform="translate(127.246094 0)"/>
      </g>
     </g>
    </g>
    <g id="text_7">
     <!-- Time (ns) -->
     <g transform="translate(108.360742 155.935781) scale(0.085 -0.085)">
      <defs>
       <path id="DejaVuSans-54" d="M -19 4666 
L 3928 4666 
L 3928 4134 
L 2272 4134 
L 2272 0 
L 1638 0 
L 1638 4134 
L -19 4134 
L -19 4666 
z
" transform="scale(0.015625)"/>
       <path id="DejaVuSans-69" d="M 603 3500 
L 1178 3500 
L 1178 0 
L 603 0 
L 603 3500 
z
M 603 4863 
L 1178 4863 
L 1178 4134 
L 603 4134 
L 603 4863 
z
" transform="scale(0.015625)"/>
       <path id="DejaVuSans-6d" d="M 3328 2828 
Q 3544 3216 3844 3400 
Q 4144 3584 4550 3584 
Q 5097 3584 5394 3201 
Q 5691 2819 5691 2113 
L 5691 0 
L 5113 0 
L 5113 2094 
Q 5113 2597 4934 2840 
Q 4756 3084 4391 3084 
Q 3944 3084 3684 2787 
Q 3425 2491 3425 1978 
L 3425 0 
L 2847 0 
L 2847 2094 
Q 2847 2600 2669 2842 
Q 2491 3084 2119 3084 
Q 1678 3084 1418 2786 
Q 1159 2488 1159 1978 
L 1159 0 
L 581 0 
L 581 3500 
L 1159 3500 
L 1159 2956 
Q 1356 3278 1631 3431 
Q 1906 3584 2284 3584 
Q 2666 3584 2933 3390 
Q 3200 3197 3328 2828 
z
" transform="scale(0.015625)"/>
       <path id="DejaVuSans-65" d="M 3597 1894 
L 3597 1613 
L 953 1613 
Q 991 1019 1311 708 
Q 1631 397 2203 397 
Q 2534 397 2845 478 
Q 3156 559 3463 722 
L 3463 178 
Q 3153 47 2828 -22 
Q 2503 -91 2169 -91 
Q 1331 -91 842 396 
Q 353 884 353 1716 
Q 353 2575 817 3079 
Q 1281 3584 2069 3584 
Q 2775 3584 3186 3129 
Q 3597 2675 3597 1894 
z
M 3022 2063 
Q 3016 2534 2758 2815 
Q 2500 3097 2075 3097 
Q 1594 3097 1305 2825 
Q 1016 2553 972 2059 
L 3022 2063 
z
" transform="scale(0.015625)"/>
       <path id="DejaVuSans-20" transform="scale(0.015625)"/>
       <path id="DejaVuSans-28" d="M 1984 4856 
Q 1566 4138 1362 3434 
Q 1159 2731 1159 2009 
Q 1159 1288 1364 580 
Q 1569 -128 1984 -844 
L 1484 -844 
Q 1016 -109 783 600 
Q 550 1309 550 2009 
Q 550 2706 781 3412 
Q 1013 4119 1484 4856 
L 1984 4856 
z
" transform="scale(0.015625)"/>
       <path id="DejaVuSans-6e" d="M 3513 2113 
L 3513 0 
L 2938 0 
L 2938 2094 
Q 2938 2591 2744 2837 
Q 2550 3084 2163 3084 
Q 1697 3084 1428 2787 
Q 1159 2491 1159 1978 
L 1159 0 
L 581 0 
L 581 3500 
L 1159 3500 
L 1159 2956 
Q 1366 3272 1645 3428 
Q 1925 3584 2291 3584 
Q 2894 3584 3203 3211 
Q 3513 2838 3513 2113 
z
" transform="scale(0.015625)"/>
       <path id="DejaVuSans-73" d="M 2834 3397 
L 2834 2853 
Q 2591 2978 2328 3040 
Q 2066 3103 1784 3103 
Q 1356 3103 1142 2972 
Q 928 2841 928 2578 
Q 928 2378 1081 2264 
Q 1234 2150 1697 2047 
L 1894 2003 
Q 2506 1872 2764 1633 
Q 3022 1394 3022 966 
Q 3022 478 2636 193 
Q 2250 -91 1575 -91 
Q 1294 -91 989 -36 
Q 684 19 347 128 
L 347 722 
Q 666 556 975 473 
Q 1284 391 1588 391 
Q 1994 391 2212 530 
Q 2431 669 2431 922 
Q 2431 1156 2273 1281 
Q 2116 1406 1581 1522 
L 1381 1569 
Q 847 1681 609 1914 
Q 372 2147 372 2553 
Q 372 3047 722 3315 
Q 1072 3584 1716 3584 
Q 2034 3584 2315 3537 
Q 2597 3491 2834 3397 
z
" transform="scale(0.015625)"/>
       <path id="DejaVuSans-29" d="M 513 4856 
L 1013 4856 
Q 1481 4119 1714 3412 
Q 1947 2706 1947 2009 
Q 1947 1309 1714 600 
Q 1481 -109 1013 -844 
L 513 -844 
Q 928 -128 1133 580 
Q 1338 1288 1338 2009 
Q 1338 2731 1133 3434 
Q 928 4138 513 4856 
z
" transform="scale(0.015625)"/>
      </defs>
      <use xlink:href="#DejaVuSans-54"/>
      <use xlink:href="#DejaVuSans-69" transform="translate(57.958984 0)"/>
      <use xlink:href="#DejaVuSans-6d" transform="translate(85.742188 0)"/>
      <use xlink:href="#DejaVuSans-65" transform="translate(183.154297 0)"/>
      <use xlink:href="#DejaVuSans-20" transform="translate(244.677734 0)"/>
      <use xlink:href="#DejaVuSans-28" transform="translate(276.464844 0)"/>
      <use xlink:href="#DejaVuSans-6e" transform="translate(315.478516 0)"/>
      <use xlink:href="#DejaVuSans-73" transform="translate(378.857422 0)"/>
      <use xlink:href="#DejaVuSans-29" transform="translate(430.957031 0)"/>
     </g>
    </g>
   </g>
   <g id="matplotlib.axis_2">
    <g id="ytick_1">
     <g id="line2d_7">
      <defs>
       <path id="me41a571586" d="M 0 0 
L -3 0 
" style="stroke: #000000; stroke-width: 0.7"/>
      </defs>
      <g>
       <use xlink:href="#me41a571586" x="37.85375" y="126.683845" style="stroke: #000000; stroke-width: 0.7"/>
      </g>
     </g>
     <g id="text_8">
      <!-- 0.0 -->
      <g transform="translate(19.426406 129.533259) scale(0.075 -0.075)">
       <defs>
        <path id="DejaVuSans-2e" d="M 684 794 
L 1344 794 
L 1344 0 
L 684 0 
L 684 794 
z
" transform="scale(0.015625)"/>
       </defs>
       <use xlink:href="#DejaVuSans-30"/>
       <use xlink:href="#DejaVuSans-2e" transform="translate(63.623047 0)"/>
       <use xlink:href="#DejaVuSans-30" transform="translate(95.410156 0)"/>
      </g>
     </g>
    </g>
    <g id="ytick_2">
     <g id="line2d_8">
      <g>
       <use xlink:href="#me41a571586" x="37.85375" y="102.021917" style="stroke: #000000; stroke-width: 0.7"/>
      </g>
     </g>
     <g id="text_9">
      <!-- 0.5 -->
      <g transform="translate(19.426406 104.871331) scale(0.075 -0.075)">
       <defs>
        <path id="DejaVuSans-35" d="M 691 4666 
L 3169 4666 
L 3169 4134 
L 1269 4134 
L 1269 2991 
Q 1406 3038 1543 3061 
Q 1681 3084 1819 3084 
Q 2600 3084 3056 2656 
Q 3513 2228 3513 1497 
Q 3513 744 3044 326 
Q 2575 -91 1722 -91 
Q 1428 -91 1123 -41 
Q 819 9 494 109 
L 494 744 
Q 775 591 1075 516 
Q 1375 441 1709 441 
Q 2250 441 2565 725 
Q 2881 1009 2881 1497 
Q 2881 1984 2565 2268 
Q 2250 2553 1709 2553 
Q 1456 2553 1204 2497 
Q 953 2441 691 2322 
L 691 4666 
z
" transform="scale(0.015625)"/>
       </defs>
       <use xlink:href="#DejaVuSans-30"/>
       <use xlink:href="#DejaVuSans-2e" transform="translate(63.623047 0)"/>
       <use xlink:href="#DejaVuSans-35" transform="translate(95.410156 0)"/>
      </g>
     </g>
    </g>
    <g id="ytick_3">
     <g id="line2d_9">
      <g>
       <use xlink:href="#me41a571586" x="37.85375" y="77.359989" style="stroke: #000000; stroke-width: 0.7"/>
      </g>
     </g>
     <g id="text_10">
      <!-- 1.0 -->
      <g transform="translate(19.426406 80.209403) scale(0.075 -0.075)">
       <use xlink:href="#DejaVuSans-31"/>
       <use xlink:href="#DejaVuSans-2e" transform="translate(63.623047 0)"/>
       <use xlink:href="#DejaVuSans-30" transform="translate(95.410156 0)"/>
      </g>
     </g>
    </g>
    <g id="ytick_4">
     <g id="line2d_10">
      <g>
       <use xlink:href="#me41a571586" x="37.85375" y="52.698061" style="stroke: #000000; stroke-width: 0.7"/>
      </g>
     </g>
     <g id="text_11">
      <!-- 1.5 -->
      <g transform="translate(19.426406 55.547475) scale(0.075 -0.075)">
       <use xlink:href="#DejaVuSans-31"/>
       <use xlink:href="#DejaVuSans-2e" transform="translate(63.623047 0)"/>
       <use xlink:href="#DejaVuSans-35" transform="translate(95.410156 0)"/>
      </g>
     </g>
    </g>
    <g id="ytick_5">
     <g id="line2d_11">
      <g>
       <use xlink:href="#me41a571586" x="37.85375" y="28.036134" style="stroke: #000000; stroke-width: 0.7"/>
      </g>
     </g>
     <g id="text_12">
      <!-- 2.0 -->
      <g transform="translate(19.426406 30.885548) scale(0.075 -0.075)">
       <use xlink:href="#DejaVuSans-32"/>
       <use xlink:href="#DejaVuSans-2e" transform="translate(63.623047 0)"/>
       <use xlink:href="#DejaVuSans-30" transform="translate(95.410156 0)"/>
      </g>
     </g>
    </g>
    <g id="text_13">
     <!-- Backbone RMSD (nm) -->
     <g transform="translate(13.658672 122.435352) rotate(-90) scale(0.085 -0.085)">
      <defs>
       <path id="DejaVuSans-42" d="M 1259 2228 
L 1259 519 
L 2272 519 
Q 2781 519 3026 730 
Q 3272 941 3272 1375 
Q 3272 1813 3026 2020 
Q 2781 2228 2272 2228 
L 1259 2228 
z
M 1259 4147 
L 1259 2741 
L 2194 2741 
Q 2656 2741 2882 2914 
Q 3109 3088 3109 3444 
Q 3109 3797 2882 3972 
Q 2656 4147 2194 4147 
L 1259 4147 
z
M 628 4666 
L 2241 4666 
Q 2963 4666 3353 4366 
Q 3744 4066 3744 3513 
Q 3744 3084 3544 2831 
Q 3344 2578 2956 2516 
Q 3422 2416 3680 2098 
Q 3938 1781 3938 1306 
Q 3938 681 3513 340 
Q 3088 0 2303 0 
L 628 0 
L 628 4666 
z
" transform="scale(0.015625)"/>
       <path id="DejaVuSans-61" d="M 2194 1759 
Q 1497 1759 1228 1600 
Q 959 1441 959 1056 
Q 959 750 1161 570 
Q 1363 391 1709 391 
Q 2188 391 2477 730 
Q 2766 1069 2766 1631 
L 2766 1759 
L 2194 1759 
z
M 3341 1997 
L 3341 0 
L 2766 0 
L 2766 531 
Q 2569 213 2275 61 
Q 1981 -91 1556 -91 
Q 1019 -91 701 211 
Q 384 513 384 1019 
Q 384 1609 779 1909 
Q 1175 2209 1959 2209 
L 2766 2209 
L 2766 2266 
Q 2766 2663 2505 2880 
Q 2244 3097 1772 3097 
Q 1472 3097 1187 3025 
Q 903 2953 641 2809 
L 641 3341 
Q 956 3463 1253 3523 
Q 1550 3584 1831 3584 
Q 2591 3584 2966 3190 
Q 3341 2797 3341 1997 
z
" transform="scale(0.015625)"/>
       <path id="DejaVuSans-63" d="M 3122 3366 
L 3122 2828 
Q 2878 2963 2633 3030 
Q 2388 3097 2138 3097 
Q 1578 3097 1268 2742 
Q 959 2388 959 1747 
Q 959 1106 1268 751 
Q 1578 397 2138 397 
Q 2388 397 2633 464 
Q 2878 531 3122 666 
L 3122 134 
Q 2881 22 2623 -34 
Q 2366 -91 2075 -91 
Q 1284 -91 818 406 
Q 353 903 353 1747 
Q 353 2603 823 3093 
Q 1294 3584 2113 3584 
Q 2378 3584 2631 3529 
Q 2884 3475 3122 3366 
z
" transform="scale(0.015625)"/>
       <path id="DejaVuSans-6b" d="M 581 4863 
L 1159 4863 
L 1159 1991 
L 2875 3500 
L 3609 3500 
L 1753 1863 
L 3688 0 
L 2938 0 
L 1159 1709 
L 1159 0 
L 581 0 
L 581 4863 
z
" transform="scale(0.015625)"/>
       <path id="DejaVuSans-62" d="M 3116 1747 
Q 3116 2381 2855 2742 
Q 2594 3103 2138 3103 
Q 1681 3103 1420 2742 
Q 1159 2381 1159 1747 
Q 1159 1113 1420 752 
Q 1681 391 2138 391 
Q 2594 391 2855 752 
Q 3116 1113 3116 1747 
z
M 1159 2969 
Q 1341 3281 1617 3432 
Q 1894 3584 2278 3584 
Q 2916 3584 3314 3078 
Q 3713 2572 3713 1747 
Q 3713 922 3314 415 
Q 2916 -91 2278 -91 
Q 1894 -91 1617 61 
Q 1341 213 1159 525 
L 1159 0 
L 581 0 
L 581 4863 
L 1159 4863 
L 1159 2969 
z
" transform="scale(0.015625)"/>
       <path id="DejaVuSans-6f" d="M 1959 3097 
Q 1497 3097 1228 2736 
Q 959 2375 959 1747 
Q 959 1119 1226 758 
Q 1494 397 1959 397 
Q 2419 397 2687 759 
Q 2956 1122 2956 1747 
Q 2956 2369 2687 2733 
Q 2419 3097 1959 3097 
z
M 1959 3584 
Q 2709 3584 3137 3096 
Q 3566 2609 3566 1747 
Q 3566 888 3137 398 
Q 2709 -91 1959 -91 
Q 1206 -91 779 398 
Q 353 888 353 1747 
Q 353 2609 779 3096 
Q 1206 3584 1959 3584 
z
" transform="scale(0.015625)"/>
       <path id="DejaVuSans-52" d="M 2841 2188 
Q 3044 2119 3236 1894 
Q 3428 1669 3622 1275 
L 4263 0 
L 3584 0 
L 2988 1197 
Q 2756 1666 2539 1819 
Q 2322 1972 1947 1972 
L 1259 1972 
L 1259 0 
L 628 0 
L 628 4666 
L 2053 4666 
Q 2853 4666 3247 4331 
Q 3641 3997 3641 3322 
Q 3641 2881 3436 2590 
Q 3231 2300 2841 2188 
z
M 1259 4147 
L 1259 2491 
L 2053 2491 
Q 2509 2491 2742 2702 
Q 2975 2913 2975 3322 
Q 2975 3731 2742 3939 
Q 2509 4147 2053 4147 
L 1259 4147 
z
" transform="scale(0.015625)"/>
       <path id="DejaVuSans-4d" d="M 628 4666 
L 1569 4666 
L 2759 1491 
L 3956 4666 
L 4897 4666 
L 4897 0 
L 4281 0 
L 4281 4097 
L 3078 897 
L 2444 897 
L 1241 4097 
L 1241 0 
L 628 0 
L 628 4666 
z
" transform="scale(0.015625)"/>
       <path id="DejaVuSans-53" d="M 3425 4513 
L 3425 3897 
Q 3066 4069 2747 4153 
Q 2428 4238 2131 4238 
Q 1616 4238 1336 4038 
Q 1056 3838 1056 3469 
Q 1056 3159 1242 3001 
Q 1428 2844 1947 2747 
L 2328 2669 
Q 3034 2534 3370 2195 
Q 3706 1856 3706 1288 
Q 3706 609 3251 259 
Q 2797 -91 1919 -91 
Q 1588 -91 1214 -16 
Q 841 59 441 206 
L 441 856 
Q 825 641 1194 531 
Q 1563 422 1919 422 
Q 2459 422 2753 634 
Q 3047 847 3047 1241 
Q 3047 1584 2836 1778 
Q 2625 1972 2144 2069 
L 1759 2144 
Q 1053 2284 737 2584 
Q 422 2884 422 3419 
Q 422 4038 858 4394 
Q 1294 4750 2059 4750 
Q 2388 4750 2728 4690 
Q 3069 4631 3425 4513 
z
" transform="scale(0.015625)"/>
       <path id="DejaVuSans-44" d="M 1259 4147 
L 1259 519 
L 2022 519 
Q 2988 519 3436 956 
Q 3884 1394 3884 2338 
Q 3884 3275 3436 3711 
Q 2988 4147 2022 4147 
L 1259 4147 
z
M 628 4666 
L 1925 4666 
Q 3281 4666 3915 4102 
Q 4550 3538 4550 2338 
Q 4550 1131 3912 565 
Q 3275 0 1925 0 
L 628 0 
L 628 4666 
z
" transform="scale(0.015625)"/>
      </defs>
      <use xlink:href="#DejaVuSans-42"/>
      <use xlink:href="#DejaVuSans-61" transform="translate(68.603516 0)"/>
      <use xlink:href="#DejaVuSans-63" transform="translate(129.882812 0)"/>
      <use xlink:href="#DejaVuSans-6b" transform="translate(184.863281 0)"/>
      <use xlink:href="#DejaVuSans-62" transform="translate(242.773438 0)"/>
      <use xlink:href="#DejaVuSans-6f" transform="translate(306.25 0)"/>
      <use xlink:href="#DejaVuSans-6e" transform="translate(367.431641 0)"/>
      <use xlink:href="#DejaVuSans-65" transform="translate(430.810547 0)"/>
      <use xlink:href="#DejaVuSans-20" transform="translate(492.333984 0)"/>
      <use xlink:href="#DejaVuSans-52" transform="translate(524.121094 0)"/>
      <use xlink:href="#DejaVuSans-4d" transform="translate(593.603516 0)"/>
      <use xlink:href="#DejaVuSans-53" transform="translate(679.882812 0)"/>
      <use xlink:href="#DejaVuSans-44" transform="translate(743.359375 0)"/>
      <use xlink:href="#DejaVuSans-20" transform="translate(820.361328 0)"/>
      <use xlink:href="#DejaVuSans-28" transform="translate(852.148438 0)"/>
      <use xlink:href="#DejaVuSans-6e" transform="translate(891.162109 0)"/>
      <use xlink:href="#DejaVuSans-6d" transform="translate(954.541016 0)"/>
      <use xlink:href="#DejaVuSans-29" transform="translate(1051.953125 0)"/>
     </g>
    </g>
   </g>
   <g id="line2d_12">
    <path d="M 46.079205 126.659425 
L 46.227263 107.149901 
L 46.243714 107.417365 
L 46.260165 107.064763 
L 46.35887 111.087321 
L 46.325968 106.638186 
L 46.375321 110.474596 
L 46.391772 110.280358 
L 46.424674 113.523209 
L 46.490477 110.217934 
L 46.506928 110.221914 
L 46.523379 111.881465 
L 46.589183 107.325006 
L 46.605634 108.524473 
L 46.687888 107.783304 
L 46.885299 102.001019 
L 46.90175 102.733522 
L 46.934652 100.701799 
L 47.000455 98.336626 
L 47.049808 99.625444 
L 47.066259 99.578132 
L 47.08271 99.838138 
L 47.099161 99.774027 
L 47.280121 94.306798 
L 47.148514 100.361651 
L 47.296572 95.112888 
L 47.313023 95.632002 
L 47.329474 93.808622 
L 47.378826 92.031617 
L 47.411728 93.072094 
L 47.428179 94.64255 
L 47.493983 91.946982 
L 47.543335 91.342291 
L 47.576237 92.039479 
L 47.609139 91.729123 
L 47.80655 98.304072 
L 47.938157 95.761797 
L 47.971059 97.435662 
L 48.036863 94.702119 
L 48.16847 88.394051 
L 48.201372 89.892471 
L 48.217823 90.587414 
L 48.250725 88.475914 
L 48.382332 80.715299 
L 48.398783 81.225648 
L 48.415234 80.413565 
L 48.448135 82.970124 
L 48.661997 91.17205 
L 48.678448 90.986592 
L 48.71135 88.006095 
L 48.793605 88.526022 
L 48.859408 88.694365 
L 48.908761 86.955363 
L 48.958114 90.863228 
L 49.007466 85.883403 
L 49.106172 83.406902 
L 49.122623 84.823749 
L 49.287132 90.617452 
L 49.303582 90.189149 
L 49.320034 90.61948 
L 49.336484 92.266551 
L 49.402288 89.535943 
L 49.418739 89.741066 
L 49.451641 88.624507 
L 49.533895 89.172776 
L 49.583248 86.366511 
L 49.599699 85.56301 
L 49.649052 88.076889 
L 49.665503 87.635944 
L 49.747757 89.717031 
L 49.780659 88.624463 
L 49.79711 88.556588 
L 49.945168 93.4083 
L 49.879365 88.169223 
L 49.97807 92.925705 
L 50.15903 88.492734 
L 50.175481 89.805029 
L 50.191932 90.002063 
L 50.208383 91.901594 
L 50.290637 89.222796 
L 50.307088 89.523277 
L 50.356441 88.949024 
L 50.471597 87.489644 
L 50.488048 87.985152 
L 50.52095 91.232708 
L 50.570302 88.677003 
L 50.586754 86.51391 
L 50.652557 90.380382 
L 50.669008 89.835581 
L 50.685459 90.035253 
L 50.70191 88.995704 
L 50.734812 89.792156 
L 50.833517 85.860433 
L 50.866419 86.318301 
L 50.88287 86.313024 
L 50.899321 85.236797 
L 50.965124 87.428187 
L 50.998026 86.008991 
L 51.195437 90.282736 
L 51.211888 90.213367 
L 51.343495 85.463711 
L 51.376397 86.08604 
L 51.458652 88.265257 
L 51.491554 87.607183 
L 51.508004 85.683193 
L 51.60671 87.000983 
L 51.754768 90.825481 
L 51.688964 86.397466 
L 51.771219 90.579641 
L 51.952179 84.944869 
L 52.050884 85.05529 
L 52.067335 86.40122 
L 52.116688 82.532286 
L 52.133139 82.512931 
L 52.314099 87.06432 
L 52.198943 82.425465 
L 52.33055 86.837805 
L 52.347001 85.297233 
L 52.379903 87.376949 
L 52.429255 85.490499 
L 52.544412 93.037473 
L 52.577314 90.912399 
L 52.741823 85.992113 
L 52.758274 85.970608 
L 52.840528 90.250636 
L 52.906331 87.750094 
L 52.955685 89.150674 
L 52.988586 88.365291 
L 53.07084 85.65933 
L 53.103742 85.851934 
L 53.136645 88.116289 
L 53.202448 86.972735 
L 53.268252 84.665834 
L 53.350506 84.742764 
L 53.366957 84.909612 
L 53.383408 84.284866 
L 53.399859 84.481733 
L 53.482113 79.60895 
L 53.515015 82.88035 
L 53.547917 83.572354 
L 53.646623 86.238076 
L 53.663073 84.989842 
L 53.695975 85.55132 
L 53.712426 84.625221 
L 53.728877 82.044616 
L 53.827582 82.616225 
L 53.844034 82.52506 
L 53.860484 82.61333 
L 53.876935 83.172934 
L 53.942739 81.959148 
L 53.95919 82.78917 
L 53.992092 82.176025 
L 54.024994 83.671223 
L 54.041444 82.624975 
L 54.074346 85.237404 
L 54.173051 84.149127 
L 54.205953 85.267945 
L 54.271757 84.573544 
L 54.304658 81.197178 
L 54.386913 83.166556 
L 54.534972 89.748401 
L 54.567873 89.125613 
L 54.650128 90.059062 
L 54.617226 88.681905 
L 54.666579 90.033478 
L 54.798186 85.41311 
L 54.814637 85.532982 
L 55.04495 97.449137 
L 55.275262 89.913029 
L 55.308164 90.719262 
L 55.357517 89.801404 
L 55.456223 92.748416 
L 55.505576 90.674826 
L 55.538477 92.000276 
L 55.670084 96.476397 
L 55.58783 91.631803 
L 55.686535 96.101935 
L 55.818142 93.081085 
L 55.851044 93.306535 
L 55.883946 95.596888 
L 55.933299 92.776047 
L 55.94975 92.670203 
L 55.9662 93.148945 
L 56.015554 92.596982 
L 56.097808 95.239892 
L 56.361023 88.935292 
L 56.393925 89.399928 
L 56.49263 93.175822 
L 56.50908 92.197537 
L 56.657139 83.913808 
L 56.690041 85.074926 
L 56.788746 86.063031 
L 56.722942 84.052788 
L 56.805197 85.60168 
L 56.838099 83.76884 
L 56.903903 85.871546 
L 56.920353 84.681035 
L 56.936804 84.936563 
L 57.002608 80.751941 
L 57.03551 86.509717 
L 57.051961 86.423632 
L 57.134215 82.846114 
L 57.167117 85.506539 
L 57.249372 88.477892 
L 57.298724 87.178549 
L 57.364527 84.75367 
L 57.413881 85.874747 
L 57.561939 91.698035 
L 57.611291 90.17888 
L 57.693546 84.885438 
L 57.808702 87.412679 
L 57.841605 90.104376 
L 57.907408 87.787264 
L 57.923859 85.585073 
L 58.022564 86.56313 
L 58.055466 83.325394 
L 58.203524 79.478819 
L 58.137721 83.426592 
L 58.219975 79.725201 
L 58.384484 84.200355 
L 58.631248 78.31593 
L 58.66415 79.651063 
L 58.762855 79.292912 
L 58.795757 81.066406 
L 58.812208 80.940068 
L 58.910913 86.269698 
L 58.943815 84.09821 
L 58.976717 82.847505 
L 59.009619 86.031094 
L 59.02607 86.212955 
L 59.042521 85.786516 
L 59.058971 85.82382 
L 59.091873 83.094154 
L 59.124775 86.586115 
L 59.157677 85.250908 
L 59.174128 85.537421 
L 59.190579 84.265023 
L 59.338637 76.175275 
L 59.453793 76.178288 
L 59.470244 76.556583 
L 59.503147 75.51907 
L 59.519596 74.893328 
L 59.56895 76.110636 
L 59.5854 77.171873 
L 59.618303 74.930464 
L 59.700557 70.768892 
L 59.733458 73.555384 
L 59.782811 75.767342 
L 59.815713 74.775937 
L 59.832164 72.840543 
L 59.881517 74.805388 
L 59.914419 73.167417 
L 60.013124 79.520202 
L 60.046026 77.181836 
L 60.506652 61.131607 
L 60.556004 63.815703 
L 60.917924 74.7885 
L 60.934375 74.485089 
L 61.01663 71.952255 
L 61.082434 72.724666 
L 61.098884 73.306994 
L 61.131786 70.573648 
L 61.148237 71.345616 
L 61.214041 72.147898 
L 61.296294 69.252632 
L 61.329197 70.786638 
L 61.362099 72.027819 
L 61.493707 75.682258 
L 61.658215 70.940238 
L 61.674666 71.589522 
L 61.724018 73.943567 
L 61.74047 73.433569 
L 61.839176 78.562707 
L 61.888528 77.583727 
L 61.921429 76.398643 
L 61.954332 78.178346 
L 61.970783 78.994671 
L 62.036586 76.87158 
L 62.266898 61.264683 
L 62.316252 63.66816 
L 62.612367 70.559014 
L 62.628818 70.379529 
L 62.826229 79.884251 
L 62.84268 79.058866 
L 62.941387 73.622287 
L 63.00719 73.755417 
L 63.105895 76.542599 
L 63.056542 73.180212 
L 63.122346 75.585495 
L 63.204601 72.661922 
L 63.155247 76.150489 
L 63.253953 73.321357 
L 63.303306 74.329019 
L 63.38556 71.915045 
L 63.484267 74.160602 
L 63.500716 73.799118 
L 63.517168 73.58922 
L 63.533619 74.419735 
L 63.582971 75.508643 
L 63.632323 74.81219 
L 63.648775 73.60197 
L 63.698127 75.555846 
L 63.731029 75.432181 
L 63.763932 73.946305 
L 63.796833 74.5937 
L 63.862637 79.63627 
L 63.92844 78.546001 
L 63.961343 78.761847 
L 64.09295 72.817267 
L 64.224557 79.391673 
L 64.323262 76.397789 
L 64.405516 70.989527 
L 64.47132 73.390455 
L 64.487771 74.382343 
L 64.520674 70.642277 
L 64.668731 65.32703 
L 64.570026 71.558221 
L 64.701633 67.693278 
L 64.718085 69.415435 
L 64.816789 69.321972 
L 64.915495 68.051034 
L 64.849692 70.690718 
L 64.931947 68.482672 
L 64.948396 68.768459 
L 65.030651 75.203343 
L 65.080003 74.414013 
L 65.096455 73.800878 
L 65.129357 75.6836 
L 65.162258 75.467497 
L 65.17871 76.266741 
L 65.211611 75.997635 
L 65.310317 70.851953 
L 65.343219 71.333482 
L 65.359669 69.796571 
L 65.425472 72.00261 
L 65.441924 70.092203 
L 65.474826 72.078963 
L 65.507727 69.564097 
L 65.55708 71.191834 
L 65.573531 71.062768 
L 65.589982 71.532578 
L 65.606433 71.498441 
L 65.655786 73.576297 
L 65.721589 72.926524 
L 65.738041 71.727175 
L 65.787393 74.849834 
L 65.803844 74.655838 
L 65.820296 73.989804 
L 65.853197 75.269477 
L 65.919 78.759208 
L 65.968352 77.584023 
L 66.099961 74.31181 
L 66.198666 78.03943 
L 66.248018 76.246691 
L 66.264469 76.10013 
L 66.297372 75.264751 
L 66.396076 79.208105 
L 66.544135 70.523427 
L 66.560586 70.573737 
L 66.609938 69.496913 
L 66.675742 62.353951 
L 66.757997 63.857949 
L 67.037662 78.572947 
L 67.054114 80.149041 
L 67.119917 76.444553 
L 67.136367 76.231351 
L 67.152818 76.4273 
L 67.169269 77.276084 
L 67.235073 76.250913 
L 67.300877 74.154728 
L 67.333779 74.182167 
L 67.481836 79.62685 
L 67.514739 77.836413 
L 67.54764 80.063154 
L 67.580542 78.900048 
L 67.679248 80.053358 
L 67.695698 79.346784 
L 67.712149 77.606273 
L 67.745052 80.334992 
L 67.810855 78.834511 
L 67.860208 79.385848 
L 67.926011 76.583464 
L 67.958912 78.909829 
L 67.991815 75.392688 
L 68.024717 72.647578 
L 68.090521 74.972922 
L 68.222128 76.965349 
L 68.238578 76.868664 
L 68.45244 70.807369 
L 68.534695 76.201382 
L 68.584047 75.425848 
L 68.666302 71.628518 
L 68.699204 72.751385 
L 68.732105 73.281183 
L 68.748557 71.69181 
L 68.847263 66.968967 
L 68.863713 68.179833 
L 68.880164 68.497898 
L 68.929516 64.493339 
L 68.99532 65.7257 
L 69.159829 68.083055 
L 69.176281 67.93859 
L 69.291436 65.243229 
L 69.340789 66.428023 
L 69.373691 68.235209 
L 69.423044 65.539754 
L 69.439495 62.885455 
L 69.488847 65.947584 
L 69.538199 64.847227 
L 69.71916 69.038946 
L 69.587553 64.738848 
L 69.801415 68.142199 
L 69.817865 68.028818 
L 69.883669 70.350912 
L 69.850768 67.831779 
L 69.933023 69.090583 
L 69.998826 67.931098 
L 69.965924 69.534809 
L 70.015277 69.459013 
L 70.26204 77.820689 
L 70.377196 73.416172 
L 70.393647 74.35374 
L 70.42655 73.58449 
L 70.574607 66.583462 
L 70.656862 68.889174 
L 70.706214 68.833098 
L 70.722665 68.655103 
L 70.788469 71.072904 
L 70.854272 70.423383 
L 70.952979 67.771609 
L 70.903626 71.158471 
L 70.96943 70.188478 
L 70.98588 70.560188 
L 71.002331 70.439813 
L 71.018782 68.162629 
L 71.051683 71.067883 
L 71.101037 70.144353 
L 71.166841 73.889109 
L 71.281996 76.726488 
L 71.232644 73.843963 
L 71.298448 76.701905 
L 71.314899 76.263855 
L 71.3478 77.784791 
L 71.446506 80.496316 
L 71.479407 79.739663 
L 71.495858 78.824355 
L 71.545211 81.863455 
L 71.561662 81.102723 
L 71.627466 83.928837 
L 71.660368 82.626514 
L 71.775524 78.389862 
L 71.791975 79.623969 
L 71.874229 84.226758 
L 71.824876 79.230079 
L 71.972935 82.467405 
L 72.104542 76.830266 
L 72.137444 77.842811 
L 72.236149 80.173101 
L 72.269051 78.819255 
L 72.285501 78.978029 
L 72.43356 87.120899 
L 72.450011 86.830263 
L 72.565167 83.508119 
L 72.581618 83.821917 
L 72.614521 82.987673 
L 72.696774 85.166683 
L 72.828381 81.992249 
L 72.844832 82.067754 
L 72.877735 83.713089 
L 72.910638 80.886043 
L 73.091595 75.98707 
L 73.1574 78.087304 
L 73.223202 76.95216 
L 73.32191 74.006593 
L 73.387712 72.321217 
L 73.371261 75.033048 
L 73.437066 73.151333 
L 73.716732 65.436036 
L 73.749634 65.710143 
L 73.766082 65.573137 
L 73.782534 64.25692 
L 73.848339 66.076482 
L 73.947043 68.353463 
L 73.979946 66.918913 
L 74.111553 63.892372 
L 74.128004 64.08215 
L 74.144456 64.710867 
L 74.193806 62.431809 
L 74.226709 64.573638 
L 74.276063 61.280028 
L 74.341865 61.836327 
L 74.374767 64.490118 
L 74.440572 62.342518 
L 74.539277 60.324368 
L 74.555728 60.3811 
L 74.654433 65.459415 
L 74.687335 63.854866 
L 74.78604 57.909719 
L 74.835394 60.102001 
L 74.95055 61.568449 
L 74.983452 58.954265 
L 75.049254 61.429785 
L 75.082157 62.738051 
L 75.115059 60.051434 
L 75.131511 60.352547 
L 75.147959 60.20054 
L 75.16441 57.620656 
L 75.263118 57.954505 
L 75.32892 54.057052 
L 75.411173 55.129338 
L 75.509881 59.202522 
L 75.575683 57.937128 
L 75.690839 54.692738 
L 75.740193 55.185498 
L 75.838897 59.916603 
L 75.921154 57.853277 
L 75.954056 55.492135 
L 76.003407 57.991414 
L 76.019858 57.403557 
L 76.069212 57.927076 
L 76.118563 55.997028 
L 76.184368 57.116152 
L 76.381777 50.730553 
L 76.398228 49.336216 
L 76.464033 52.104587 
L 76.496936 51.485306 
L 76.513384 52.021417 
L 76.562738 54.218874 
L 76.628543 54.02911 
L 76.644994 53.131954 
L 76.710796 55.368963 
L 76.743699 54.667543 
L 76.858855 51.091603 
L 76.891757 51.710869 
L 76.908209 50.782362 
L 76.974011 53.00636 
L 76.990462 51.793038 
L 77.023364 54.226677 
L 77.089166 53.251105 
L 77.187874 48.25085 
L 77.204322 50.497813 
L 77.368832 56.379772 
L 77.385283 55.169902 
L 77.434637 58.232144 
L 77.46754 56.142997 
L 77.615595 61.021304 
L 77.632046 59.178402 
L 77.648498 57.446518 
L 77.730754 60.05868 
L 77.747202 58.589692 
L 77.796556 57.368419 
L 77.829458 59.835519 
L 77.862361 60.562617 
L 77.878812 58.899081 
L 77.911712 59.379407 
L 77.961066 56.779428 
L 77.993968 60.023532 
L 78.043319 57.986984 
L 78.158475 59.319893 
L 78.207829 59.001981 
L 78.339436 52.527085 
L 78.421692 56.032107 
L 78.454592 57.77396 
L 78.471043 55.762562 
L 78.536848 56.912371 
L 78.569748 56.124491 
L 78.60265 56.207853 
L 78.684907 51.792278 
L 78.734257 52.957322 
L 78.783611 54.195864 
L 78.832965 53.444021 
L 78.898767 50.832416 
L 78.948121 52.970354 
L 79.046825 49.712587 
L 79.079728 51.853884 
L 79.096179 51.62876 
L 79.11263 51.65137 
L 79.129079 53.56848 
L 79.211335 51.445946 
L 79.227786 52.048259 
L 79.244238 49.760939 
L 79.260686 50.684908 
L 79.31004 48.581621 
L 79.359393 50.370622 
L 79.375845 50.555256 
L 79.408744 50.134607 
L 79.425196 49.647287 
L 79.441647 51.581305 
L 79.458098 52.487966 
L 79.507452 49.356262 
L 79.523903 49.975868 
L 79.589705 48.714465 
L 79.68841 46.784225 
L 79.721312 47.880339 
L 79.737764 47.557283 
L 79.770666 48.817877 
L 79.951624 54.284835 
L 79.968075 54.16041 
L 79.984527 54.598983 
L 80.000978 55.096616 
L 80.017429 53.860437 
L 80.050332 53.982538 
L 80.181939 50.220465 
L 80.214841 52.430963 
L 80.280643 55.753536 
L 80.346449 53.730109 
L 80.395799 52.190701 
L 80.412251 53.882312 
L 80.494504 58.564315 
L 80.543858 58.101835 
L 80.57676 58.910934 
L 80.593211 57.436925 
L 80.609663 57.823949 
L 80.659014 58.154819 
L 80.708367 56.144955 
L 80.790621 59.543142 
L 80.823523 58.406923 
L 80.971582 51.625667 
L 81.004484 51.694158 
L 81.020936 52.59967 
L 81.070286 49.422321 
L 81.086738 48.962598 
L 81.11964 50.448736 
L 81.168994 52.966191 
L 81.234796 52.434544 
L 81.349952 48.61848 
L 81.366403 48.627166 
L 81.465108 45.454789 
L 81.399306 48.876163 
L 81.563815 46.267992 
L 81.580267 47.54613 
L 81.66252 45.514629 
L 81.761224 43.793571 
L 81.744773 45.873761 
L 81.82703 44.544517 
L 81.87638 45.623674 
L 81.909283 43.876988 
L 81.925734 44.09237 
L 81.942185 43.737249 
L 81.958637 44.406351 
L 81.975088 45.883773 
L 82.04089 43.296999 
L 82.057341 44.308064 
L 82.073793 44.381339 
L 82.172497 47.593605 
L 82.238302 47.364259 
L 82.304104 46.064279 
L 82.320556 47.89157 
L 82.337007 48.187799 
L 82.386361 47.598961 
L 82.402812 47.251332 
L 82.41926 48.34862 
L 82.485065 47.424325 
L 82.567319 51.401697 
L 82.715377 55.506276 
L 82.731828 54.49199 
L 82.945692 46.455353 
L 83.09375 50.786328 
L 83.110198 49.749841 
L 83.159552 50.978824 
L 83.225357 47.883279 
L 83.324062 50.445653 
L 83.340513 49.993812 
L 83.373416 50.866455 
L 83.505023 45.854598 
L 83.587276 51.1104 
L 83.620179 49.29946 
L 83.63663 49.035336 
L 83.653078 51.017425 
L 83.718883 47.821219 
L 83.735335 48.137104 
L 83.768237 48.992395 
L 83.801137 48.117163 
L 83.817588 48.225261 
L 83.916296 47.134404 
L 83.866942 48.503955 
L 83.932744 47.424483 
L 83.949195 48.647651 
L 83.998549 46.945563 
L 84.031452 45.065639 
L 84.080802 47.591548 
L 84.097254 47.039722 
L 84.113705 47.069938 
L 84.195961 45.2997 
L 84.245312 46.644959 
L 84.376919 49.262369 
L 84.426273 47.428345 
L 84.459175 50.759654 
L 84.492075 48.262924 
L 84.508526 48.450459 
L 84.524977 47.412468 
L 84.541429 47.309041 
L 84.55788 47.77122 
L 84.673036 51.829355 
L 84.689487 51.438305 
L 84.771741 48.058117 
L 84.821094 48.464255 
L 84.853997 51.051079 
L 84.919799 49.384613 
L 84.93625 48.030594 
L 85.018507 50.108589 
L 85.067857 48.798739 
L 85.084309 49.73136 
L 85.117211 51.755177 
L 85.150114 49.562667 
L 85.199465 50.610409 
L 85.215916 50.508393 
L 85.232367 50.907566 
L 85.26527 53.072681 
L 85.31462 50.72925 
L 85.331072 51.618027 
L 85.363974 48.970658 
L 85.446228 50.624136 
L 85.512033 51.761821 
L 85.544935 50.508931 
L 85.561386 50.548597 
L 85.610737 54.157426 
L 85.692994 52.118827 
L 85.758796 54.422685 
L 85.824601 50.434165 
L 85.890403 49.594106 
L 85.956208 53.564869 
L 86.02201 54.169644 
L 86.087815 51.829468 
L 86.153617 55.373397 
L 86.202971 54.078912 
L 86.268773 50.88832 
L 86.367481 51.577162 
L 86.383932 52.8707 
L 86.482637 52.367379 
L 86.597792 54.375714 
L 86.630695 53.632014 
L 86.663597 51.665654 
L 86.729399 52.684512 
L 86.844555 54.04516 
L 86.877458 52.718299 
L 86.91036 56.459721 
L 86.976162 62.59915 
L 87.07487 62.392877 
L 87.10777 60.071021 
L 87.190026 61.826773 
L 87.206477 63.604005 
L 87.272279 60.868257 
L 87.28873 61.459404 
L 87.420338 66.208462 
L 87.45324 64.010596 
L 87.535494 60.968444 
L 87.551945 60.476789 
L 87.584847 62.258662 
L 87.601299 62.232022 
L 87.667101 65.502436 
L 87.634201 61.62997 
L 87.716455 62.63053 
L 87.749357 60.53431 
L 87.765808 58.521404 
L 87.848062 60.425354 
L 87.880964 59.65895 
L 87.946766 61.535905 
L 88.012571 56.091612 
L 88.061922 58.633453 
L 88.094825 60.486831 
L 88.16063 58.013846 
L 88.209981 56.170377 
L 88.242883 59.764567 
L 88.308688 57.075006 
L 88.358039 53.735825 
L 88.423844 55.988337 
L 88.489646 61.669474 
L 88.555451 60.167548 
L 88.654156 56.890328 
L 88.670607 57.529422 
L 88.75286 61.02415 
L 88.802214 59.736955 
L 88.950273 54.434108 
L 88.983175 56.194896 
L 89.048977 54.760874 
L 89.180584 50.826108 
L 89.197036 50.863002 
L 89.213487 49.817672 
L 89.29574 51.497642 
L 89.312192 50.467282 
L 89.361545 53.299383 
L 89.410899 49.813597 
L 89.427347 50.518702 
L 89.493152 48.878368 
L 89.558954 47.456978 
L 89.575406 48.161312 
L 89.707013 55.408358 
L 89.739915 54.201847 
L 89.83862 54.707826 
L 89.871523 52.767411 
L 89.904425 52.231053 
L 89.920876 53.18765 
L 89.937328 52.446145 
L 90.118286 57.511182 
L 90.151188 56.084973 
L 90.184091 57.676792 
L 90.315698 61.728416 
L 90.332149 60.802074 
L 90.447305 58.316118 
L 90.463756 59.142711 
L 90.529558 60.803046 
L 90.562461 59.100071 
L 90.578912 58.811512 
L 90.694068 62.619047 
L 90.710519 62.143447 
L 90.726971 62.031102 
L 90.776324 63.621101 
L 90.825675 61.201608 
L 90.907932 63.475768 
L 90.924383 62.346838 
L 90.957282 60.587535 
L 90.990185 62.718878 
L 91.039539 61.865625 
L 91.072438 59.819977 
L 91.154694 60.460112 
L 91.171146 60.677241 
L 91.187597 59.476708 
L 91.204048 59.493853 
L 91.220496 59.464293 
L 91.236948 61.915768 
L 91.319204 60.842175 
L 91.335655 59.960289 
L 91.385006 62.659404 
L 91.417909 62.837991 
L 91.483711 60.167069 
L 91.500162 59.302052 
L 91.533065 61.943266 
L 91.648221 64.961417 
L 91.59887 61.765251 
L 91.664672 64.103636 
L 91.714026 64.006941 
L 91.730477 64.416245 
L 91.746928 66.252637 
L 91.81273 63.262314 
L 91.960789 60.211101 
L 91.97724 60.304426 
L 92.14175 63.584177 
L 92.174649 62.996621 
L 92.1911 63.37748 
L 92.207552 62.294476 
L 92.322707 59.185105 
L 92.35561 60.006259 
L 92.585922 54.402151 
L 92.668178 56.297623 
L 92.684629 54.982659 
L 92.717532 53.406643 
L 92.73398 54.873169 
L 92.816237 57.704152 
L 92.849139 55.868204 
L 92.865587 55.803235 
L 92.914941 56.335568 
L 92.931392 55.365767 
L 92.980746 56.493858 
L 93.063 54.227303 
L 93.095902 54.210814 
L 93.112354 54.279034 
L 93.145253 56.603672 
L 93.227509 54.942021 
L 93.243961 55.098037 
L 93.260412 54.355595 
L 93.293311 54.994999 
L 93.474272 48.940279 
L 93.507175 50.476984 
L 93.671685 54.30197 
L 93.704584 55.076971 
L 93.81974 58.612016 
L 93.852642 58.240568 
L 94.082957 54.6437 
L 94.214564 59.709886 
L 94.247464 56.564381 
L 94.313269 57.457365 
L 94.32972 58.019435 
L 94.346172 56.785722 
L 94.395522 53.794669 
L 94.461327 55.874932 
L 94.576483 59.562043 
L 94.510678 55.186884 
L 94.609386 59.436889 
L 94.642285 57.995582 
L 94.691639 58.425962 
L 94.773896 60.270906 
L 94.790344 60.0886 
L 94.905503 58.13616 
L 94.954853 59.330581 
L 94.971305 56.428163 
L 94.987756 57.182813 
L 95.070009 56.356422 
L 95.08646 54.666922 
L 95.135814 56.579247 
L 95.168717 56.418649 
L 95.283873 55.154389 
L 95.267421 56.603855 
L 95.300324 55.551427 
L 95.349675 58.595853 
L 95.41548 56.931237 
L 95.645792 52.574727 
L 95.662243 53.444341 
L 95.678694 51.164509 
L 95.744496 51.947431 
L 95.760948 51.959447 
L 95.892555 54.492522 
L 95.909006 53.300759 
L 95.925457 52.251133 
L 95.991262 54.990368 
L 96.024162 55.108099 
L 96.040613 55.145536 
L 96.057064 55.86378 
L 96.089967 53.59801 
L 96.122869 54.288711 
L 96.139321 53.410081 
L 96.188671 55.691995 
L 96.221574 56.859629 
L 96.254477 55.91595 
L 96.303827 52.216108 
L 96.369632 53.835114 
L 96.386084 54.093068 
L 96.402535 53.502499 
L 96.435434 50.970804 
L 96.468337 54.582188 
L 96.50124 53.229107 
L 96.534142 56.127095 
L 96.632847 55.512234 
L 96.698652 52.600568 
L 96.780905 53.335498 
L 96.830259 52.209943 
L 96.863158 53.239948 
L 96.994766 57.78744 
L 97.109925 54.917512 
L 97.126373 55.076611 
L 97.25798 57.904569 
L 97.307334 59.361463 
L 97.340236 58.762227 
L 97.356688 57.28847 
L 97.389587 61.129481 
L 97.406038 59.837537 
L 97.471843 63.669714 
L 97.521197 60.606076 
L 97.586999 62.632266 
L 97.603451 59.322176 
L 97.702155 60.564753 
L 97.784412 56.451025 
L 97.833762 58.657167 
L 97.850213 58.631879 
L 97.883116 57.403932 
L 97.916019 58.853585 
L 97.93247 58.724416 
L 97.948918 59.704412 
L 98.031174 59.003243 
L 98.080525 56.396448 
L 98.129879 59.764799 
L 98.14633 58.488342 
L 98.179233 57.801512 
L 98.212135 55.748367 
L 98.277937 58.382434 
L 98.31084 59.313436 
L 98.343743 57.181531 
L 98.442447 53.313426 
L 98.47535 54.180559 
L 98.639856 57.50108 
L 98.68921 57.53831 
L 98.738564 56.179679 
L 98.755012 58.359311 
L 98.85372 57.554843 
L 98.886622 59.01117 
L 98.935973 57.202178 
L 99.067583 53.729773 
L 99.166285 59.033582 
L 99.215642 58.57236 
L 99.23209 58.724307 
L 99.264993 61.488732 
L 99.314343 58.132041 
L 99.347246 59.424612 
L 99.3637 59.870746 
L 99.380148 58.150508 
L 99.413051 58.416862 
L 99.561109 54.602406 
L 99.577558 56.580382 
L 99.626915 57.522867 
L 99.659811 55.988668 
L 99.692714 58.387849 
L 99.74207 55.595946 
L 99.758519 54.748429 
L 99.791421 58.39618 
L 99.807869 58.512846 
L 99.824324 57.177442 
L 99.890129 58.58077 
L 99.923032 58.167801 
L 100.021733 60.211254 
L 99.972382 57.699209 
L 100.038187 59.927247 
L 100.169791 53.12345 
L 100.186246 53.467479 
L 100.202694 52.54462 
L 100.252045 55.415633 
L 100.3672 57.540327 
L 100.301402 54.537748 
L 100.383655 56.258928 
L 100.416557 55.411076 
L 100.465908 56.705639 
L 100.482356 55.632288 
L 100.515259 57.588744 
L 100.597518 57.174645 
L 100.663317 51.121104 
L 100.712674 56.352421 
L 100.794927 54.175153 
L 100.811376 55.018926 
L 100.910083 57.92313 
L 100.926532 57.153466 
L 101.025239 53.419507 
L 101.041687 53.946981 
L 101.07459 56.264896 
L 101.15685 55.664704 
L 101.189746 56.19675 
L 101.2062 55.795072 
L 101.321356 53.81756 
L 101.337804 54.931293 
L 101.403609 53.592032 
L 101.420064 52.235187 
L 101.485863 55.84156 
L 101.518765 55.53918 
L 101.53522 55.888254 
L 101.650376 60.152938 
L 101.683278 59.167349 
L 101.814882 55.084044 
L 101.831336 54.397826 
L 101.880687 56.610035 
L 101.897135 55.574131 
L 101.91359 56.85988 
L 101.96294 54.413782 
L 101.995843 55.278232 
L 102.143901 51.425116 
L 102.16035 51.856241 
L 102.209707 54.482633 
L 102.259057 51.467446 
L 102.324862 54.502432 
L 102.390668 54.111678 
L 102.407116 51.889224 
L 102.472921 55.563851 
L 102.489369 55.799728 
L 102.588077 51.245582 
L 102.620979 51.963683 
L 102.80194 58.585002 
L 102.834837 57.74112 
L 102.851291 57.685315 
L 102.933544 55.275933 
L 102.966447 57.121938 
L 103.0487 58.186588 
L 103.015798 56.908183 
L 103.065155 58.120253 
L 103.18031 52.537636 
L 103.196759 53.187078 
L 103.246109 53.149301 
L 103.311914 55.065547 
L 103.394168 50.49405 
L 103.443525 51.401954 
L 103.542226 55.57783 
L 103.575129 53.815755 
L 103.657382 50.507979 
L 103.690285 51.831742 
L 103.723187 51.789486 
L 103.788992 52.983528 
L 103.80544 51.442039 
L 103.871246 53.792898 
L 103.904148 52.370669 
L 103.953499 53.875876 
L 104.002856 53.507737 
L 104.13446 47.03403 
L 104.150914 47.629808 
L 104.167362 47.552222 
L 104.348323 36.121063 
L 104.430577 37.380597 
L 104.627986 46.770592 
L 104.64444 46.548097 
L 104.808947 52.890706 
L 104.940557 51.986121 
L 105.121518 43.69447 
L 105.203771 42.11768 
L 105.154414 44.201327 
L 105.236674 43.091594 
L 105.269577 44.142735 
L 105.318927 43.188452 
L 105.368278 41.051219 
L 105.417635 43.845584 
L 105.549239 36.857947 
L 105.59859 39.821457 
L 105.615044 40.343314 
L 105.631492 38.732041 
L 105.680849 36.497212 
L 105.713745 40.108552 
L 105.7302 40.076397 
L 105.894706 32.629117 
L 106.10857 39.381863 
L 106.125018 39.068055 
L 106.141473 38.701051 
L 106.157921 40.943555 
L 106.223726 37.992923 
L 106.256628 39.830735 
L 106.273077 39.561787 
L 106.322433 40.340625 
L 106.338882 40.401279 
L 106.536291 33.983121 
L 106.404687 41.509236 
L 106.552745 34.396627 
L 106.569193 34.253134 
L 106.585648 34.874817 
L 106.931115 45.632947 
L 106.964018 43.85495 
L 107.046271 40.121282 
L 107.095622 40.741638 
L 107.112076 40.588734 
L 107.128525 41.43233 
L 107.144979 41.512723 
L 107.19433 42.774694 
L 107.227232 41.078456 
L 107.260135 41.777296 
L 107.473998 35.560024 
L 107.539797 30.058017 
L 107.622057 32.392905 
L 107.638505 32.450895 
L 107.671407 31.413885 
L 107.737213 31.612093 
L 107.803012 32.989797 
L 107.835914 31.354317 
L 107.852369 32.267854 
L 107.868817 32.10801 
L 107.885271 32.164225 
L 107.901719 33.078679 
L 107.934622 31.794232 
L 107.983973 32.896935 
L 108.016875 32.12151 
L 108.049778 32.677701 
L 108.08268 34.557186 
L 108.148485 31.662764 
L 108.214284 27.98386 
L 108.296544 29.581198 
L 108.395245 32.545676 
L 108.428148 31.296238 
L 108.510401 27.334724 
L 108.543304 29.095768 
L 108.576206 31.361987 
L 108.674914 30.508275 
L 108.724265 28.959106 
L 108.773615 30.446729 
L 108.79007 30.345674 
L 108.905226 33.867294 
L 108.921674 32.646696 
L 109.069732 28.259778 
L 109.151986 29.558569 
L 109.119089 28.096975 
L 109.201342 29.327659 
L 109.217791 27.508403 
L 109.316498 28.757835 
L 109.398752 30.849201 
L 109.431654 29.438144 
L 109.464557 28.94861 
L 109.497459 30.500319 
L 109.513907 29.988041 
L 109.54681 30.770471 
L 109.563258 29.626113 
L 109.612615 27.754736 
L 109.661966 29.818944 
L 109.727771 28.824058 
L 109.810024 32.269901 
L 109.859375 31.258594 
L 109.875829 31.091115 
L 110.007433 34.570864 
L 110.106141 35.871475 
L 110.171946 38.647456 
L 110.204849 36.264438 
L 110.418706 29.315456 
L 110.43516 30.406322 
L 110.484511 34.35118 
L 110.583219 33.442319 
L 110.616122 32.494093 
L 110.76418 29.267351 
L 110.780628 30.556676 
L 110.846433 28.220363 
L 110.862881 28.396829 
L 110.994492 34.346085 
L 111.076745 32.34435 
L 111.093193 31.589163 
L 111.14255 33.390721 
L 111.208349 35.796098 
L 111.274154 35.425202 
L 111.323511 34.70024 
L 111.38931 36.159684 
L 111.438667 36.503826 
L 111.537368 33.442383 
L 111.553823 32.911466 
L 111.603173 33.908726 
L 111.636076 33.699351 
L 111.751232 35.073346 
L 111.701881 33.115928 
L 111.76768 34.480039 
L 111.84994 30.698823 
L 111.89929 32.115266 
L 111.932193 30.939622 
L 112.030894 31.213201 
L 112.080251 31.870284 
L 112.0967 31.129351 
L 112.178953 27.930132 
L 112.211855 29.765162 
L 112.22831 30.822251 
L 112.294115 28.910927 
L 112.310563 28.983092 
L 112.343466 27.041286 
L 112.376368 30.018666 
L 112.425719 28.384819 
L 112.540875 30.689496 
L 112.573777 28.565788 
L 112.639582 31.116359 
L 112.672485 30.316134 
L 112.705388 26.829642 
L 112.804089 27.500654 
L 112.820543 27.282416 
L 112.952147 29.195382 
L 113.017952 30.185189 
L 112.98505 29.181641 
L 113.034401 29.393319 
L 113.100206 25.503102 
L 113.133108 28.475649 
L 113.215362 31.876371 
L 113.166011 28.059079 
L 113.264712 30.876857 
L 113.346972 28.34095 
L 113.314069 31.291454 
L 113.379875 29.409837 
L 113.412771 32.2973 
L 113.511479 31.927495 
L 113.626634 29.224947 
L 113.675985 29.496273 
L 113.758245 29.195797 
L 113.807595 32.159835 
L 113.824044 31.567889 
L 113.856946 32.938718 
L 113.889849 32.316537 
L 113.955654 31.18048 
L 114.021459 33.52618 
L 114.054362 32.295318 
L 114.103712 33.182471 
L 114.12016 34.836665 
L 114.218868 34.004892 
L 114.235316 34.268415 
L 114.350478 29.191338 
L 114.383375 29.591522 
L 114.399829 29.912951 
L 114.44918 28.792574 
L 114.482082 29.495005 
L 114.58079 27.673145 
L 114.531433 30.611278 
L 114.613693 28.400168 
L 114.745297 31.380473 
L 114.761751 31.152997 
L 114.811102 28.700531 
L 114.909803 29.630976 
L 114.926258 30.177701 
L 114.975608 28.44782 
L 115.057862 27.638056 
L 115.008511 29.013249 
L 115.074316 28.164958 
L 115.156569 31.763666 
L 115.20592 30.047121 
L 115.255277 29.066474 
L 115.271725 29.949983 
L 115.403335 31.758743 
L 115.419784 31.067568 
L 115.469134 33.489946 
L 115.485589 33.313737 
L 115.502037 35.248796 
L 115.584296 32.722625 
L 115.748803 26.968588 
L 115.765251 28.541935 
L 115.896861 33.340549 
L 115.995569 32.28965 
L 116.012017 32.023351 
L 116.061368 32.568508 
L 116.143621 32.537961 
L 116.160076 33.660888 
L 116.192978 31.46317 
L 116.275232 31.552066 
L 116.42329 35.823113 
L 116.456193 36.084687 
L 116.620699 31.048041 
L 116.670056 33.650949 
L 116.719407 32.201079 
L 116.80166 30.860733 
L 116.834563 31.845612 
L 116.949718 34.217513 
L 116.966167 33.42405 
L 116.999069 35.185276 
L 117.048426 33.987959 
L 117.081329 33.624783 
L 117.278738 41.950798 
L 117.459699 37.579313 
L 117.476147 37.598525 
L 117.50905 36.211859 
L 117.574855 37.239832 
L 117.607757 38.052043 
L 117.624206 35.766627 
L 117.64066 35.466329 
L 117.657108 36.956141 
L 117.673556 37.477992 
L 117.690011 35.31048 
L 117.755816 32.768368 
L 117.805167 33.850218 
L 117.969673 39.410876 
L 117.986127 38.255331 
L 118.068381 39.388113 
L 118.101283 41.941071 
L 118.183537 40.189586 
L 118.380946 35.15617 
L 118.3974 37.009198 
L 118.496102 36.433264 
L 118.512556 36.152206 
L 118.64416 44.531733 
L 118.660614 42.965572 
L 118.677063 43.578145 
L 118.709965 42.058363 
L 118.759316 42.914561 
L 118.890926 37.567461 
L 118.940277 38.673282 
L 118.989634 37.772875 
L 119.006082 37.312797 
L 119.038985 38.806964 
L 119.285751 43.744854 
L 119.335101 43.560482 
L 119.400907 40.723526 
L 119.433809 41.27002 
L 119.499608 40.356113 
L 119.565413 44.245462 
L 119.664121 41.032392 
L 119.697023 41.201055 
L 119.779277 44.190466 
L 119.812179 42.600097 
L 119.927335 39.513252 
L 119.943783 40.091693 
L 120.108296 43.904738 
L 120.223452 41.982178 
L 120.141192 43.984435 
L 120.2399 43.034773 
L 120.404407 46.726121 
L 120.420861 46.492903 
L 120.470212 44.110872 
L 120.519569 45.096678 
L 120.536017 46.866009 
L 120.61827 44.667146 
L 120.651173 44.229989 
L 120.74988 46.883913 
L 120.832134 45.246332 
L 120.881484 45.286028 
L 120.897939 45.15598 
L 120.914387 44.090975 
L 120.963738 45.458405 
L 120.99664 45.360778 
L 121.177601 49.644579 
L 121.309212 44.443734 
L 121.32566 45.110592 
L 121.440816 49.138916 
L 121.523069 48.112127 
L 121.654679 40.954737 
L 121.671127 40.972834 
L 121.769835 43.948088 
L 121.819186 42.635758 
L 121.868543 41.768265 
L 121.852088 43.153363 
L 121.884991 42.59552 
L 121.950796 39.245443 
L 122.000147 41.543141 
L 122.016601 41.960998 
L 122.049497 40.705597 
L 122.065952 41.161281 
L 122.181108 37.64413 
L 122.21401 38.383065 
L 122.246913 40.561162 
L 122.329166 39.158629 
L 122.411419 35.143193 
L 122.46077 36.312262 
L 122.691088 41.743598 
L 122.493673 35.885729 
L 122.740439 40.043109 
L 122.773341 39.389962 
L 122.806244 41.00482 
L 122.872049 43.800289 
L 122.904945 40.82758 
L 122.9214 41.977995 
L 122.954302 42.114745 
L 122.987205 41.467079 
L 123.003653 43.363226 
L 123.069458 40.480616 
L 123.085906 40.828202 
L 123.135263 39.018139 
L 123.16816 40.752889 
L 123.201062 42.74432 
L 123.233965 40.599216 
L 123.283322 41.939009 
L 123.480731 48.044622 
L 123.513634 47.734469 
L 123.579432 45.495866 
L 123.612335 47.471854 
L 123.694594 49.628549 
L 123.645237 47.09571 
L 123.711043 49.134151 
L 123.727491 46.928892 
L 123.80975 49.166069 
L 123.826198 48.519014 
L 123.908452 43.644135 
L 123.957809 43.984381 
L 124.138764 48.499235 
L 124.155218 48.626269 
L 124.171666 48.347786 
L 124.188121 47.907837 
L 124.204569 50.089855 
L 124.221023 50.187586 
L 124.352627 47.766751 
L 124.369082 48.642388 
L 124.451335 52.599389 
L 124.500686 50.780804 
L 124.51714 50.076982 
L 124.550036 51.788406 
L 124.599393 50.087734 
L 124.615841 50.975421 
L 124.648744 47.768241 
L 124.665192 47.193711 
L 124.681646 49.498522 
L 124.714549 48.72139 
L 124.7639 50.966893 
L 124.862607 50.509034 
L 124.977763 45.302684 
L 125.076465 47.140279 
L 125.14227 47.688306 
L 125.175172 47.241319 
L 125.356133 42.563257 
L 125.372582 41.960228 
L 125.405484 44.316311 
L 125.421939 43.219383 
L 125.471289 44.829594 
L 125.52064 43.105933 
L 125.553543 43.121608 
L 125.569997 42.374815 
L 125.586445 43.882438 
L 125.668698 41.46005 
L 125.701601 42.736813 
L 125.816757 46.324014 
L 125.833211 45.085082 
L 125.948367 47.49729 
L 125.964815 46.029841 
L 125.98127 46.048678 
L 126.014172 46.994966 
L 126.079971 46.112099 
L 126.129328 44.705466 
L 126.178679 46.179218 
L 126.22803 44.988605 
L 126.277387 45.487047 
L 126.310283 49.602304 
L 126.35964 46.33925 
L 126.507698 42.187217 
L 126.540601 44.4451 
L 126.589951 41.798426 
L 126.622854 40.942889 
L 126.655757 42.204643 
L 126.672205 42.157262 
L 126.73801 44.705565 
L 126.803815 44.44767 
L 126.836718 44.390292 
L 127.067029 48.896243 
L 127.083478 49.606043 
L 127.132828 47.904621 
L 127.149283 47.445238 
L 127.182185 49.13424 
L 127.198633 49.950353 
L 127.231536 47.660083 
L 127.24799 48.971254 
L 127.363146 46.021555 
L 127.396049 48.375294 
L 127.461848 45.340747 
L 127.527653 43.407104 
L 127.560555 45.731772 
L 127.593458 48.618826 
L 127.692159 47.365556 
L 127.757964 45.911873 
L 127.774419 46.495379 
L 127.82377 50.80549 
L 127.889575 47.447897 
L 128.021179 52.537078 
L 128.037633 51.240448 
L 128.054081 50.557845 
L 128.103432 52.727454 
L 128.119886 52.701588 
L 128.152789 51.321339 
L 128.169237 53.402332 
L 128.218594 52.50703 
L 128.235042 52.600962 
L 128.267945 56.370198 
L 128.33375 52.306371 
L 128.350198 51.156622 
L 128.416003 53.816554 
L 128.432451 53.811059 
L 128.465354 54.051123 
L 128.481808 53.053519 
L 128.514705 52.291297 
L 128.531159 53.56587 
L 128.547607 54.664283 
L 128.613412 52.806692 
L 128.761471 45.198833 
L 128.777925 45.753835 
L 128.794373 48.57217 
L 128.893081 47.101274 
L 128.942432 45.951219 
L 128.975334 47.791877 
L 128.991783 47.501364 
L 129.04114 46.040865 
L 129.09049 47.478202 
L 129.106938 47.855603 
L 129.139841 47.006024 
L 129.156295 47.206225 
L 129.205646 47.325865 
L 129.287899 44.877927 
L 129.485309 50.399047 
L 129.567568 49.227275 
L 129.600471 46.959561 
L 129.66627 48.795864 
L 129.79788 53.968442 
L 129.863685 53.539467 
L 129.929484 50.144255 
L 130.04464 51.005336 
L 130.110445 54.378412 
L 130.159796 51.905698 
L 130.192698 53.092672 
L 130.340756 47.499075 
L 130.390113 49.496568 
L 130.439464 47.283767 
L 130.455912 47.028985 
L 130.472367 48.427775 
L 130.488815 49.232696 
L 130.538172 47.118848 
L 130.603971 45.281233 
L 130.68623 46.152174 
L 130.784932 47.15114 
L 130.735581 45.607619 
L 130.801386 46.671298 
L 130.834289 44.626355 
L 130.916542 46.129983 
L 130.998795 41.628708 
L 131.048146 38.592233 
L 131.097503 42.346183 
L 131.113951 41.811063 
L 131.130399 43.014215 
L 131.146854 42.783143 
L 131.179756 43.951689 
L 131.229107 42.207375 
L 131.377165 37.889743 
L 131.26201 43.514675 
L 131.459419 39.396177 
L 131.623932 46.242614 
L 131.525224 38.513206 
L 131.673282 44.569865 
L 131.68973 44.583833 
L 131.854243 40.526685 
L 131.936497 42.384512 
L 131.969399 41.333164 
L 131.985847 41.358635 
L 132.084555 40.297719 
L 132.035204 42.07498 
L 132.101003 40.969066 
L 132.265516 45.49852 
L 132.183263 40.58792 
L 132.281964 45.40983 
L 132.39712 41.344923 
L 132.430023 42.81068 
L 132.462925 44.807473 
L 132.512276 41.370991 
L 132.578081 39.116925 
L 132.545178 42.508039 
L 132.627432 40.686978 
L 132.693237 44.39622 
L 132.759042 42.781836 
L 132.874198 36.638061 
L 132.9071 38.73942 
L 132.923549 38.166124 
L 132.956451 38.814915 
L 132.989354 42.374771 
L 133.088061 41.622429 
L 133.269022 37.168342 
L 133.417081 40.364044 
L 133.301925 36.92851 
L 133.433529 38.939167 
L 133.466431 36.611505 
L 133.499334 39.185382 
L 133.548685 38.201134 
L 133.581587 37.555228 
L 133.61449 39.469897 
L 133.647393 41.21456 
L 133.696743 38.88786 
L 133.713198 40.314602 
L 133.762548 38.359212 
L 133.828354 38.65772 
L 133.910607 44.2007 
L 133.99286 43.80793 
L 134.173821 37.821577 
L 134.305425 40.042551 
L 134.321879 38.970961 
L 134.354782 40.746595 
L 134.404133 40.647479 
L 134.585094 45.346637 
L 134.453483 40.351314 
L 134.601542 44.955863 
L 134.617996 44.979583 
L 134.650899 45.802507 
L 134.733152 41.134947 
L 134.7496 40.008878 
L 134.815405 42.493114 
L 134.947016 45.206394 
L 134.897659 42.162658 
L 134.963464 44.240875 
L 134.979912 43.799776 
L 135.029269 45.300529 
L 135.062172 46.056377 
L 135.144425 45.924924 
L 135.177327 43.482318 
L 135.193776 42.487969 
L 135.243126 44.396067 
L 135.259581 43.902503 
L 135.308931 46.673261 
L 135.341834 42.606479 
L 135.358288 43.004893 
L 135.374737 41.828445 
L 135.45699 40.740218 
L 135.473444 41.859914 
L 135.489892 41.904231 
L 135.506347 41.887999 
L 135.522795 44.340593 
L 135.605048 41.983894 
L 135.621503 42.177268 
L 135.637951 41.951592 
L 135.654399 42.0002 
L 135.670853 41.343567 
L 135.703756 42.962716 
L 135.720204 42.876394 
L 135.769561 44.748851 
L 135.851814 43.57706 
L 135.884717 44.408043 
L 136.016321 41.247119 
L 136.032775 41.960145 
L 136.065672 41.157621 
L 136.147931 34.874432 
L 136.197282 37.843457 
L 136.21373 37.944793 
L 136.230185 37.443313 
L 136.378243 44.981211 
L 136.54275 39.204026 
L 136.575652 39.960541 
L 136.592107 38.148649 
L 136.608555 37.155059 
L 136.657905 39.443804 
L 136.773061 42.611377 
L 136.805964 41.901143 
L 136.822418 40.335234 
L 136.871769 42.002558 
L 136.904672 41.715572 
L 136.92112 41.752753 
L 137.036275 43.139547 
L 136.986925 41.560685 
L 137.05273 42.871995 
L 137.085632 42.612295 
L 137.118535 41.85069 
L 137.151438 43.924709 
L 137.167886 43.909872 
L 137.332392 47.89341 
L 137.381749 47.393478 
L 137.464003 42.350439 
L 137.529808 44.368273 
L 137.579158 47.276087 
L 137.628509 44.501019 
L 137.727217 42.079789 
L 137.710763 44.596865 
L 137.76012 42.53934 
L 137.776568 43.522739 
L 137.858821 42.80341 
L 137.875275 42.515581 
L 137.957529 46.33664 
L 137.990431 44.682752 
L 138.105587 39.229398 
L 138.13849 40.129943 
L 138.18784 43.936004 
L 138.253645 41.998183 
L 138.319451 41.172882 
L 138.352353 41.266252 
L 138.401704 44.041818 
L 138.467509 42.334804 
L 138.599113 45.833305 
L 138.615567 45.638698 
L 138.664918 43.679451 
L 138.730723 44.606749 
L 138.878782 46.901793 
L 138.961035 42.838381 
L 139.010386 44.204341 
L 139.043288 44.807897 
L 139.059743 43.063884 
L 139.125542 45.978086 
L 139.141996 45.078557 
L 139.174899 43.534873 
L 139.240697 44.223222 
L 139.2736 46.284125 
L 139.339405 44.386296 
L 139.388756 41.534657 
L 139.471015 42.858352 
L 139.569717 46.425512 
L 139.602619 45.617543 
L 139.684873 40.626945 
L 139.767132 40.648061 
L 139.898736 42.744754 
L 139.931639 43.385165 
L 139.964541 42.710257 
L 139.997444 44.803117 
L 140.079697 43.452083 
L 140.1126 43.95091 
L 140.178405 40.637358 
L 140.227756 41.095078 
L 140.293561 40.534971 
L 140.277106 42.040182 
L 140.310009 41.613575 
L 140.408717 44.765054 
L 140.458067 44.703483 
L 140.556775 41.948119 
L 140.573223 43.072294 
L 140.639028 42.177248 
L 140.704834 44.405528 
L 140.819989 47.198087 
L 140.86934 45.958435 
L 140.935145 46.846689 
L 141.00095 44.19925 
L 141.017398 44.054805 
L 141.066749 40.263029 
L 141.165457 40.356562 
L 141.313515 45.589675 
L 141.329963 43.872401 
L 141.346418 43.781739 
L 141.412223 40.228724 
L 141.445119 42.718765 
L 141.461574 43.720636 
L 141.510924 41.574896 
L 141.593178 39.82816 
L 141.609632 41.829362 
L 141.757691 39.222089 
L 141.774139 39.390436 
L 141.807041 42.39054 
L 141.872846 40.36582 
L 141.922197 39.797239 
L 141.938652 41.366414 
L 141.9551 41.704627 
L 141.988002 40.326968 
L 142.053807 39.145543 
L 142.070256 39.326571 
L 142.152509 41.592855 
L 142.201866 40.940473 
L 142.267665 38.611479 
L 142.317022 39.679705 
L 142.399275 44.095922 
L 142.366372 39.481049 
L 142.481528 42.933408 
L 142.497983 42.017434 
L 142.547333 44.417538 
L 142.563781 44.189006 
L 142.596684 43.009603 
L 142.646041 41.278272 
L 142.678937 43.660959 
L 142.695392 43.176653 
L 142.71184 44.561135 
L 142.744742 41.518913 
L 142.777645 41.540196 
L 142.925703 37.984341 
L 142.942152 38.377891 
L 142.991509 36.79933 
L 143.09021 37.435263 
L 143.106665 39.051675 
L 143.156015 35.794105 
L 143.205366 38.546534 
L 143.238269 38.284062 
L 143.336976 40.530359 
L 143.386327 38.694891 
L 143.435684 40.864016 
L 143.501483 38.147973 
L 143.534385 38.319452 
L 143.633093 35.511327 
L 143.748249 40.157703 
L 143.764697 39.569205 
L 143.781151 39.920233 
L 143.7976 37.950347 
L 143.814054 38.035154 
L 143.830502 38.000692 
L 143.863405 39.845365 
L 143.945658 39.298348 
L 143.962112 38.24301 
L 143.995015 40.652628 
L 144.027918 43.929079 
L 144.110171 42.69106 
L 144.208872 38.38743 
L 144.274677 41.007908 
L 144.291132 40.811081 
L 144.324028 41.718191 
L 144.373385 43.217227 
L 144.422736 40.822801 
L 144.554346 38.423752 
L 144.603697 40.184205 
L 144.653048 37.955048 
L 144.669502 39.425022 
L 144.68595 38.671269 
L 144.751755 40.353159 
L 144.883359 43.491162 
L 144.982067 38.87368 
L 145.031418 39.643043 
L 145.080775 42.72788 
L 145.163028 41.676192 
L 145.278184 44.279836 
L 145.311086 42.662506 
L 145.44269 37.998374 
L 145.459145 38.575902 
L 145.475593 39.784662 
L 145.508495 37.244715 
L 145.557846 39.191636 
L 145.607203 37.955773 
L 145.656554 39.541263 
L 145.722359 43.007912 
L 145.689457 38.701485 
L 145.804612 42.158599 
L 145.837515 40.32605 
L 145.886866 42.693477 
L 145.919768 42.25374 
L 145.952671 42.696269 
L 146.034924 41.347666 
L 146.100729 46.466831 
L 146.199437 43.983019 
L 146.232333 44.766504 
L 146.396846 41.161197 
L 146.462651 41.424616 
L 146.544904 43.353272 
L 146.561353 41.347143 
L 146.742314 36.077757 
L 146.61071 41.527071 
L 146.775216 38.694634 
L 146.808119 37.874334 
L 146.841021 38.373708 
L 146.890372 40.184165 
L 146.923275 39.02505 
L 146.939723 36.567597 
L 147.021982 39.250193 
L 147.087781 41.880975 
L 147.120684 39.356831 
L 147.186489 36.013685 
L 147.219392 38.02888 
L 147.252294 39.525672 
L 147.285197 36.79755 
L 147.301645 35.967084 
L 147.334547 37.934016 
L 147.350996 37.68932 
L 147.416801 40.838323 
L 147.449703 37.31255 
L 147.531956 35.49502 
L 147.564859 35.975716 
L 147.74582 42.794379 
L 147.828073 39.726198 
L 147.877424 40.434923 
L 147.926781 43.73021 
L 148.025482 42.903513 
L 148.058385 42.049815 
L 148.107742 43.621402 
L 148.12419 45.638047 
L 148.222898 44.545588 
L 148.239346 44.539176 
L 148.338054 42.330083 
L 148.370956 43.359911 
L 148.486112 46.73098 
L 148.519015 45.881352 
L 148.535463 44.996353 
L 148.601268 46.736978 
L 148.732872 49.858517 
L 148.765775 46.782148 
L 148.815132 49.953066 
L 148.848028 49.018275 
L 148.96319 44.201583 
L 148.996086 46.074415 
L 149.111242 51.181634 
L 149.160599 50.110586 
L 149.177047 49.490936 
L 149.226404 51.493607 
L 149.242852 52.910031 
L 149.308657 49.587339 
L 149.374463 51.617785 
L 149.407359 51.13557 
L 149.522521 46.725549 
L 149.538969 47.811138 
L 149.555417 47.815306 
L 149.621222 43.20355 
L 149.752833 45.352585 
L 149.818632 45.059197 
L 149.851534 46.442549 
L 149.884437 43.322844 
L 149.96669 45.085827 
L 150.016047 43.299894 
L 150.032495 45.397884 
L 150.065398 44.734079 
L 150.164106 47.926383 
L 150.180554 47.371001 
L 150.295709 41.450299 
L 150.361515 44.650647 
L 150.377963 45.526151 
L 150.443768 43.8345 
L 150.47667 44.903797 
L 150.542476 42.992966 
L 150.67408 41.801509 
L 150.591826 43.757427 
L 150.690534 42.104437 
L 150.723437 44.147204 
L 150.772787 42.857202 
L 150.789235 40.960681 
L 150.887943 41.34403 
L 150.904391 40.593977 
L 150.937294 43.323382 
L 150.970196 46.616889 
L 151.019553 44.714112 
L 151.118255 41.050904 
L 151.134709 42.443494 
L 151.233411 39.038229 
L 151.266313 40.31513 
L 151.282768 41.475587 
L 151.348567 38.746686 
L 151.463729 41.822383 
L 151.480171 39.589773 
L 151.496625 39.506697 
L 151.611781 42.747358 
L 151.529534 38.681652 
L 151.628235 41.911501 
L 151.64469 41.10332 
L 151.677586 43.138136 
L 151.759846 45.984271 
L 151.809196 45.40695 
L 151.825651 45.393282 
L 151.842093 45.42953 
L 151.858547 44.646327 
L 151.891443 46.355665 
L 151.907898 45.760646 
L 151.957248 48.202912 
L 152.006599 46.027715 
L 152.072404 42.673372 
L 152.105313 45.746801 
L 152.138209 45.488768 
L 152.171118 45.99383 
L 152.26982 46.248681 
L 152.31917 41.969847 
L 152.335625 42.993696 
L 152.368521 40.759671 
L 152.417872 41.662899 
L 152.434326 41.466324 
L 152.450781 39.453334 
L 152.516586 43.65582 
L 152.53304 42.807967 
L 152.549482 42.785515 
L 152.598833 40.076758 
L 152.631742 40.348142 
L 152.648196 37.855428 
L 152.730443 41.558949 
L 152.746898 43.256815 
L 152.796248 40.840626 
L 152.845599 42.781915 
L 152.878508 44.226556 
L 152.89495 43.6478 
L 153.043014 36.524409 
L 153.15817 40.763341 
L 153.174625 40.325157 
L 153.306222 38.190796 
L 153.355586 37.202158 
L 153.421378 41.351306 
L 153.454287 38.403451 
L 153.520092 42.020552 
L 153.536534 42.098922 
L 153.569443 39.172844 
L 153.65169 40.647351 
L 153.766858 44.002458 
L 153.7833 43.917123 
L 153.914911 38.152594 
L 153.931365 39.525633 
L 153.980716 42.603851 
L 154.062963 42.145474 
L 154.095872 41.655382 
L 154.145222 41.864086 
L 154.178131 42.775182 
L 154.227482 40.749604 
L 154.276832 38.09201 
L 154.309729 40.846387 
L 154.375534 43.749806 
L 154.424885 42.07175 
L 154.474235 42.428272 
L 154.49069 41.834813 
L 154.523599 39.234883 
L 154.605846 41.009925 
L 154.6223 41.238389 
L 154.638754 40.772456 
L 154.655196 40.83928 
L 154.671651 40.026945 
L 154.770352 40.630778 
L 154.803261 43.014003 
L 154.885508 40.950249 
L 155.033573 36.284902 
L 155.050027 37.179173 
L 155.082923 35.285068 
L 155.099378 35.611025 
L 155.115832 34.316979 
L 155.181625 36.96018 
L 155.230988 40.595141 
L 155.37904 40.389407 
L 155.510651 36.709946 
L 155.411949 40.507597 
L 155.527105 37.866639 
L 155.658703 42.685422 
L 155.740962 37.298621 
L 155.823222 37.613766 
L 155.839664 37.199135 
L 155.872573 38.908532 
L 156.053533 44.846374 
L 155.954819 38.795358 
L 156.069975 44.479888 
L 156.13578 42.003377 
L 156.250936 39.554595 
L 156.267391 39.540208 
L 156.316741 39.127313 
L 156.300287 40.290478 
L 156.333196 39.420765 
L 156.431897 41.328567 
L 156.448352 40.469173 
L 156.530599 44.508624 
L 156.481248 39.949921 
L 156.563508 42.127599 
L 156.71156 37.710283 
L 156.84317 41.197662 
L 156.876079 40.661309 
L 156.991235 37.475718 
L 157.007677 37.663568 
L 157.024131 36.67678 
L 157.073482 39.377858 
L 157.089936 39.279418 
L 157.172196 38.464938 
L 157.188638 39.367668 
L 157.205092 39.611964 
L 157.221546 38.355981 
L 157.237988 38.307683 
L 157.270897 40.113159 
L 157.320248 38.020116 
L 157.336702 38.845294 
L 157.369599 37.999266 
L 157.402507 39.769021 
L 157.451858 38.522084 
L 157.468313 38.45784 
L 157.583468 35.425414 
L 157.55056 38.588312 
L 157.59991 35.737472 
L 157.649261 35.457559 
L 157.731521 37.721346 
L 157.764429 36.183058 
L 157.81378 37.490668 
L 157.896027 41.218383 
L 157.945378 40.683939 
L 157.978287 41.77741 
L 158.076988 39.286481 
L 158.093443 40.498935 
L 158.142793 37.4231 
L 158.192144 39.832555 
L 158.225053 41.201938 
L 158.257949 38.599316 
L 158.373105 33.87921 
L 158.406014 34.645185 
L 158.619871 42.215331 
L 158.652767 41.351893 
L 158.718573 39.180193 
L 158.751481 40.74262 
L 158.800832 42.367032 
L 158.833728 40.476133 
L 158.866637 41.171525 
L 158.899533 42.806769 
L 158.915988 40.527449 
L 158.965339 37.120202 
L 159.031144 39.827613 
L 159.06404 41.039712 
L 159.080494 39.061628 
L 159.113403 41.743978 
L 159.212105 36.473798 
L 159.228559 37.798528 
L 159.27791 34.92055 
L 159.294352 35.426065 
L 159.376611 32.371873 
L 159.425962 34.395651 
L 159.557572 39.648696 
L 159.574027 38.856007 
L 159.656274 37.562094 
L 159.672728 37.748524 
L 159.787884 44.332573 
L 159.853689 43.855424 
L 159.90304 44.37073 
L 159.985299 39.164138 
L 160.084001 35.565386 
L 160.116897 37.17322 
L 160.149806 37.873949 
L 160.182702 36.897445 
L 160.232066 34.816171 
L 160.314313 34.934928 
L 160.396572 34.833553 
L 160.462377 37.827748 
L 160.478819 38.217722 
L 160.495274 36.854894 
L 160.52817 37.655454 
L 160.561079 36.914112 
L 160.577533 38.371568 
L 160.593975 37.877718 
L 160.610429 39.492704 
L 160.643338 37.450164 
L 160.709131 39.411892 
L 160.725585 39.226395 
L 160.791391 41.497206 
L 160.824287 38.996072 
L 161.005248 35.420546 
L 161.021702 36.489458 
L 161.054611 34.009913 
L 161.103962 34.664535 
L 161.120404 34.635848 
L 161.252014 41.090363 
L 161.317819 39.81435 
L 161.334273 39.956906 
L 161.350715 39.277159 
L 161.383624 39.929896 
L 161.564585 35.540817 
L 161.712637 38.062761 
L 161.597481 34.221444 
L 161.761988 37.534261 
L 161.877156 32.558741 
L 161.926507 33.211962 
L 162.041663 39.202916 
L 162.091014 38.602828 
L 162.271975 34.360285 
L 162.288429 34.705621 
L 162.304871 34.592773 
L 162.321325 35.245846 
L 162.403585 31.662221 
L 162.452936 32.62234 
L 162.535183 34.340186 
L 162.502286 32.117352 
L 162.551637 34.194454 
L 162.568092 31.480897 
L 162.650338 33.53963 
L 162.666793 33.663063 
L 162.765494 34.820349 
L 162.781949 34.706238 
L 162.946455 31.216891 
L 162.96291 29.271686 
L 163.01226 32.705238 
L 163.045169 32.519929 
L 163.143871 35.646607 
L 163.176767 34.92202 
L 163.259027 30.826512 
L 163.324832 32.826876 
L 163.390637 35.879697 
L 163.439988 34.189107 
L 163.538689 35.025358 
L 163.555144 34.468556 
L 163.703196 29.997965 
L 163.752559 30.78508 
L 163.80191 31.360527 
L 163.818351 30.633488 
L 163.85126 31.047271 
L 163.884157 31.874417 
L 163.982871 28.640755 
L 164.098026 31.682927 
L 164.130923 31.209773 
L 164.213182 29.393995 
L 164.163832 32.327339 
L 164.246079 29.705273 
L 164.328338 29.096725 
L 164.377689 32.275006 
L 164.47639 30.79788 
L 164.459948 32.607991 
L 164.492845 31.986348 
L 164.542195 33.868043 
L 164.591546 32.027065 
L 164.608001 30.54035 
L 164.69026 32.475764 
L 164.772507 30.539951 
L 164.838312 33.999038 
L 164.871221 30.743944 
L 164.920572 28.650225 
L 164.969923 30.223637 
L 164.986377 31.174823 
L 165.002819 29.429562 
L 165.068624 29.612524 
L 165.134429 32.346501 
L 165.233131 31.801675 
L 165.266039 31.528494 
L 165.282494 30.382198 
L 165.348286 32.06314 
L 165.414092 34.637915 
L 165.430546 33.582507 
L 165.447 30.319345 
L 165.545702 32.663224 
L 165.660858 34.324146 
L 165.677312 33.451775 
L 165.759559 33.904124 
L 165.841819 35.604667 
L 165.858273 33.778072 
L 165.874715 34.486051 
L 166.02278 30.324825 
L 166.039234 30.457506 
L 166.137936 30.435399 
L 166.170832 33.467657 
L 166.253091 29.842704 
L 166.269546 31.276242 
L 166.285988 33.44302 
L 166.368247 31.185388 
L 166.450507 29.107477 
L 166.499858 30.626948 
L 166.598559 31.588482 
L 166.549208 29.731981 
L 166.615013 31.094375 
L 166.631468 30.383831 
L 166.64791 32.112854 
L 166.713715 30.739979 
L 166.763065 32.134907 
L 166.795974 29.909799 
L 166.812429 30.104214 
L 166.828871 29.668112 
L 166.845325 32.136223 
L 166.878221 31.888159 
L 166.91113 32.403278 
L 166.960481 33.052651 
L 167.04274 29.670055 
L 167.075637 28.723442 
L 167.124987 30.603707 
L 167.157896 28.726894 
L 167.289494 31.431479 
L 167.355299 29.487172 
L 167.388208 30.391925 
L 167.421104 32.804478 
L 167.470455 30.084524 
L 167.503364 31.573019 
L 167.569169 29.030823 
L 167.602065 31.435504 
L 167.61852 32.899791 
L 167.684325 30.334097 
L 167.700767 31.218237 
L 167.832377 28.311474 
L 167.848831 29.344686 
L 167.881728 32.447008 
L 167.947533 29.304837 
L 167.963987 30.66402 
L 168.260104 38.524723 
L 168.276559 37.949686 
L 168.408156 32.841663 
L 168.424611 34.649609 
L 168.50687 34.130782 
L 168.523312 33.168172 
L 168.572675 35.884481 
L 168.605572 34.49128 
L 168.737182 33.361167 
L 168.802987 37.147345 
L 168.885234 35.895441 
L 168.967494 37.545719 
L 169.00039 36.930734 
L 169.016844 36.201999 
L 169.049741 38.688513 
L 169.099104 36.607165 
L 169.197805 39.379446 
L 169.230702 37.804062 
L 169.263611 35.566328 
L 169.312961 38.107286 
L 169.345857 36.003954 
L 169.362312 36.09027 
L 169.477468 39.47875 
L 169.493922 38.927877 
L 169.559727 38.660877 
L 169.526818 39.985938 
L 169.592624 38.938314 
L 169.625532 39.88032 
L 169.641974 38.780443 
L 169.724234 35.209973 
L 169.75713 35.713012 
L 169.790039 35.485895 
L 169.806493 34.312264 
L 169.855844 37.860943 
L 169.872286 37.504173 
L 169.921649 34.813986 
L 170.053247 35.030814 
L 170.168403 38.591138 
L 170.300013 37.932891 
L 170.316468 37.599383 
L 170.332922 38.812903 
L 170.349364 40.551707 
L 170.398727 35.8182 
L 170.415169 35.833466 
L 170.448078 37.478845 
L 170.513883 39.155817 
L 170.480974 37.044199 
L 170.579676 38.785908 
L 170.59613 38.776847 
L 170.661935 40.298996 
L 170.629039 38.70039 
L 170.67839 39.702838 
L 170.81 34.318079 
L 170.826442 35.811837 
L 170.859351 35.389285 
L 170.941598 39.814118 
L 170.974506 38.577159 
L 171.122558 34.643932 
L 171.303519 38.461012 
L 171.319974 38.056852 
L 171.336428 39.8041 
L 171.35287 40.239724 
L 171.369325 39.024083 
L 171.468026 37.934475 
L 171.43513 39.140492 
L 171.484481 38.369807 
L 171.500935 38.408886 
L 171.517377 38.370754 
L 171.632545 41.654386 
L 171.56674 37.85161 
L 171.665442 40.311297 
L 171.698338 37.484666 
L 171.797052 38.772965 
L 171.813494 38.027805 
L 171.846403 39.236822 
L 171.912208 38.48374 
L 171.961558 40.339264 
L 172.010909 38.410169 
L 172.027364 39.044015 
L 172.06026 36.969912 
L 172.10961 38.83242 
L 172.158974 43.227279 
L 172.208325 40.445024 
L 172.339922 35.935847 
L 172.537338 41.653074 
L 172.586688 40.452862 
L 172.685402 36.590128 
L 172.734753 37.200402 
L 172.767649 36.783675 
L 172.833455 39.37629 
L 172.849909 40.643612 
L 172.882805 39.304188 
L 172.932156 40.128745 
L 172.997961 36.362651 
L 173.047312 37.854807 
L 173.129571 41.691497 
L 173.178922 40.588187 
L 173.277636 38.407693 
L 173.310532 38.798525 
L 173.409234 40.754122 
L 173.359883 38.240485 
L 173.458584 40.552743 
L 173.475039 39.703761 
L 173.52439 41.83645 
L 173.557298 40.105508 
L 173.606649 41.380831 
L 173.656 40.239941 
L 173.672454 39.607633 
L 173.721805 40.263754 
L 173.820506 42.809388 
L 173.853415 42.12172 
L 173.968571 39.554965 
L 174.001467 40.011956 
L 174.034376 41.472672 
L 174.083727 39.429525 
L 174.100181 40.026763 
L 174.116623 39.184864 
L 174.165974 41.20835 
L 174.215337 39.743013 
L 174.248234 39.722346 
L 174.297584 41.024234 
L 174.314039 41.654958 
L 174.396286 40.575126 
L 174.429195 38.715454 
L 174.462091 40.009781 
L 174.478545 42.299167 
L 174.560805 40.281521 
L 174.577247 40.264918 
L 174.774662 36.372132 
L 174.791117 36.597877 
L 174.889818 39.802068 
L 174.922727 37.208422 
L 174.939169 35.79379 
L 175.004974 39.499067 
L 175.021428 37.793793 
L 175.087233 39.886935 
L 175.153038 39.129148 
L 175.16948 37.824492 
L 175.218831 41.087117 
L 175.25174 38.811586 
L 175.268194 39.681378 
L 175.317545 37.142092 
L 175.350441 36.906812 
L 175.366896 37.977929 
L 175.465597 41.805712 
L 175.514948 40.224034 
L 175.761714 31.399083 
L 175.843974 33.551966 
L 175.87687 33.196908 
L 176.041376 26.690431 
L 176.057831 28.16225 
L 176.107182 27.784113 
L 176.123636 28.17503 
L 176.238792 31.940156 
L 176.255246 30.529972 
L 176.403298 33.979974 
L 176.419753 32.816025 
L 176.436207 31.906818 
L 176.502012 33.896039 
L 176.600714 36.053825 
L 176.650065 35.034158 
L 176.732324 32.066963 
L 176.699415 35.128766 
L 176.798129 32.640693 
L 176.814571 32.604933 
L 176.880376 30.908597 
L 176.84748 32.61281 
L 176.896831 31.64116 
L 176.97909 35.339837 
L 177.028441 34.598579 
L 177.077792 31.632691 
L 177.127142 34.045969 
L 177.143597 34.52739 
L 177.176493 32.684433 
L 177.275195 31.467293 
L 177.291649 31.608675 
L 177.341 33.710143 
L 177.406805 36.657352 
L 177.456156 35.961624 
L 177.587766 34.224719 
L 177.637117 31.082543 
L 177.702922 33.340969 
L 177.768727 34.824028 
L 177.785181 32.817361 
L 177.818077 30.186308 
L 177.900337 32.409123 
L 178.130649 40.781951 
L 178.147103 40.136232 
L 178.31161 32.899278 
L 178.328064 34.314256 
L 178.344506 35.29371 
L 178.393857 32.534252 
L 178.410311 33.313702 
L 178.541922 31.0955 
L 178.591272 31.592763 
L 178.657077 30.512892 
L 178.673532 31.97965 
L 178.739337 29.666904 
L 178.755779 30.257655 
L 178.903843 32.207704 
L 178.805129 29.068112 
L 178.920298 32.115493 
L 179.117701 27.026548 
L 178.969649 32.377787 
L 179.15061 28.05175 
L 179.298662 31.580383 
L 179.315116 31.252153 
L 179.331571 31.201438 
L 179.413818 29.043277 
L 179.430272 30.418925 
L 179.528973 34.259976 
L 179.578324 32.340917 
L 179.77574 27.875905 
L 179.874441 30.022908 
L 179.90735 28.50767 
L 179.940246 28.14949 
L 180.022506 31.603324 
L 180.071856 30.522026 
L 180.137662 29.771623 
L 180.104753 30.615357 
L 180.154116 30.348722 
L 180.269272 33.342646 
L 180.285714 32.688601 
L 180.318623 31.441398 
L 180.367973 33.699864 
L 180.466675 36.204953 
L 180.483129 34.869885 
L 180.548934 31.256957 
L 180.598285 31.997451 
L 180.696986 37.435781 
L 180.729895 36.761386 
L 180.812142 33.303216 
L 180.877947 33.687991 
L 180.894402 33.659832 
L 180.943753 30.22884 
L 181.009558 32.74885 
L 181.124714 29.807634 
L 181.141168 30.079049 
L 181.174064 32.62853 
L 181.256324 31.69038 
L 181.437285 28.469163 
L 181.535986 35.584173 
L 181.585337 32.612529 
L 181.651142 31.672633 
L 181.618246 32.713939 
L 181.667597 32.167884 
L 181.766298 34.729213 
L 181.799207 33.417707 
L 181.848557 34.326267 
L 181.864999 33.182308 
L 181.897908 30.933599 
L 181.963713 32.813544 
L 182.062415 34.048544 
L 182.029518 32.274069 
L 182.078869 33.859979 
L 182.210479 29.409862 
L 182.243376 30.996763 
L 182.276272 33.177258 
L 182.325635 30.788923 
L 182.374986 28.60099 
L 182.407882 31.857327 
L 182.424337 32.559294 
L 182.440791 30.446901 
L 182.473688 30.447153 
L 182.555947 28.47738 
L 182.588843 29.289773 
L 182.671103 31.140937 
L 182.687545 28.32199 
L 182.769804 28.393953 
L 182.835609 31.917817 
L 182.88496 30.691232 
L 182.917856 33.252334 
L 183.01657 32.518099 
L 183.115272 34.733055 
L 183.065921 32.162311 
L 183.131726 32.706856 
L 183.181077 30.997711 
L 183.197531 32.125648 
L 183.213973 33.639393 
L 183.296233 32.729688 
L 183.329129 30.265236 
L 183.411389 31.543232 
L 183.51009 34.663484 
L 183.444298 31.32346 
L 183.542999 34.040558 
L 183.559453 32.991839 
L 183.625246 35.629507 
L 183.674609 37.635449 
L 183.707506 35.360618 
L 183.72396 35.948908 
L 183.822661 33.901736 
L 183.773311 36.061332 
L 183.839116 34.680659 
L 183.904921 37.197211 
L 183.937817 35.626611 
L 183.987168 31.460985 
L 184.085882 33.436997 
L 184.151675 35.430002 
L 184.201038 33.773746 
L 184.316194 32.01466 
L 184.299739 33.999171 
L 184.332636 32.529177 
L 184.464246 31.082789 
L 184.4807 31.100516 
L 184.661661 35.666776 
L 184.678116 35.239005 
L 184.743908 30.53742 
L 184.809713 32.370088 
L 184.826168 33.023476 
L 184.859064 32.031948 
L 184.924869 32.972963 
L 185.007129 28.508937 
L 185.10583 30.531733 
L 185.138739 30.359923 
L 185.155181 30.989863 
L 185.204544 33.167689 
L 185.253895 32.02265 
L 185.303246 30.149557 
L 185.352596 32.648832 
L 185.385493 32.456207 
L 185.401947 32.705371 
L 185.467752 32.483626 
L 185.500661 33.69724 
L 185.533557 31.175104 
L 185.615817 32.116119 
L 185.829674 29.070307 
L 185.665168 33.105817 
L 185.846129 29.439609 
L 185.895479 31.02112 
L 185.94483 29.157807 
L 185.977726 30.38897 
L 186.010635 28.752987 
L 186.043531 28.9399 
L 186.092882 27.490696 
L 186.125791 30.172399 
L 186.142245 29.674524 
L 186.175142 30.723736 
L 186.191596 31.713217 
L 186.240947 29.283129 
L 186.290298 28.614066 
L 186.273843 29.496983 
L 186.339648 29.134773 
L 186.487713 30.922669 
L 186.635765 27.296281 
L 186.56996 31.35669 
L 186.668674 28.00249 
L 186.718025 25.477607 
L 186.767375 27.714162 
L 186.915428 30.372161 
L 186.931882 29.622704 
L 186.964791 30.737877 
L 186.981233 30.05088 
L 187.096389 34.839713 
L 187.112843 34.361908 
L 187.129297 34.246451 
L 187.145752 36.13987 
L 187.178648 34.189191 
L 187.244453 35.281522 
L 187.359609 39.655009 
L 187.40896 37.626718 
L 187.507661 33.311552 
L 187.573466 33.768976 
L 187.655726 37.992657 
L 187.721531 36.886101 
L 187.836687 35.633467 
L 187.886038 39.551241 
L 187.968297 38.801568 
L 188.017648 39.288799 
L 188.149246 33.604609 
L 188.182155 35.409152 
L 188.198609 33.550398 
L 188.264402 34.821774 
L 188.280856 34.282581 
L 188.313765 35.527313 
L 188.346661 35.149038 
L 188.363116 35.506843 
L 188.37957 34.888258 
L 188.511168 29.540625 
L 188.527622 30.41742 
L 188.544076 30.690403 
L 188.576973 26.983839 
L 188.642778 29.494704 
L 188.774388 32.804823 
L 188.692129 29.099852 
L 188.807284 32.360154 
L 188.955349 26.193069 
L 188.988245 27.419477 
L 189.054051 27.081668 
L 189.103401 28.705197 
L 189.185661 25.981756 
L 189.202115 26.519164 
L 189.317271 31.69221 
L 189.333713 31.447584 
L 189.448869 28.845395 
L 189.465323 29.565656 
L 189.613388 26.760002 
L 189.498232 30.533346 
L 189.62983 27.518998 
L 189.76144 31.426774 
L 189.777895 31.33073 
L 189.909505 34.660978 
L 189.975297 29.262556 
L 190.057557 32.377501 
L 190.106908 35.455995 
L 190.189167 33.036744 
L 190.238518 30.006853 
L 190.337219 31.266407 
L 190.370128 32.889285 
L 190.419479 31.205379 
L 190.435933 30.525819 
L 190.46883 31.976981 
L 190.501726 31.95487 
L 190.51818 33.124565 
L 190.60044 31.075618 
L 190.633336 31.707545 
L 190.649791 30.443424 
L 190.682687 30.714014 
L 190.699141 30.441451 
L 190.715596 31.373415 
L 190.748492 33.926418 
L 190.781401 30.669219 
L 190.797843 30.725142 
L 190.863648 30.337013 
L 190.830752 31.311218 
L 190.880102 30.464954 
L 190.929453 32.531169 
L 190.995258 31.036691 
L 191.242024 39.475771 
L 191.258479 38.657217 
L 191.340726 33.505893 
L 191.390076 33.979505 
L 191.406531 33.694315 
L 191.422985 34.863833 
L 191.455882 34.708364 
L 191.587492 36.105778 
L 191.603946 36.025084 
L 191.620388 36.065446 
L 191.653297 37.192861 
L 191.686193 36.512507 
L 191.735544 34.881057 
L 191.751999 36.79316 
L 191.784907 35.762671 
L 191.817804 41.191496 
L 191.883609 37.740878 
L 191.900063 35.921923 
L 191.98231 39.103692 
L 191.998765 39.206803 
L 192.048115 40.580251 
L 192.097466 39.275674 
L 192.146817 36.402717 
L 192.19618 39.869306 
L 192.212622 40.571727 
L 192.245531 39.135851 
L 192.278427 39.520779 
L 192.327778 36.7414 
L 192.393583 37.358589 
L 192.442934 40.194928 
L 192.492297 36.573758 
L 192.508739 36.020827 
L 192.541648 38.334831 
L 192.590998 36.555281 
L 192.623895 38.805943 
L 192.6897 36.410787 
L 192.706154 36.63157 
L 192.722609 36.070541 
L 192.82131 32.341751 
L 192.837764 33.9146 
L 192.95292 40.388031 
L 192.985817 40.095629 
L 193.002271 39.904455 
L 193.035167 43.210248 
L 193.117427 40.783055 
L 193.281933 36.21175 
L 193.298388 38.309785 
L 193.364193 35.007696 
L 193.495791 30.299161 
L 193.561596 34.22576 
L 193.627401 32.994893 
L 193.676752 32.259341 
L 193.742557 35.010329 
L 193.824816 30.312908 
L 193.890622 31.857573 
L 194.005777 26.672043 
L 194.120933 27.410436 
L 194.137388 27.278726 
L 194.186738 29.776772 
L 194.252543 28.864947 
L 194.268985 28.90374 
L 194.318336 29.149541 
L 194.433504 26.817977 
L 194.466401 27.698487 
L 194.515752 29.749876 
L 194.565102 28.219411 
L 194.598011 26.610492 
L 194.647362 29.048338 
L 194.680258 31.522092 
L 194.746063 29.153467 
L 194.762518 28.202592 
L 194.795414 29.604706 
L 194.811868 29.463097 
L 194.91057 35.21531 
L 194.959933 33.485571 
L 194.976375 32.74374 
L 195.009284 35.657513 
L 195.04218 36.889593 
L 195.075089 35.42065 
L 195.17379 32.156713 
L 195.206687 33.636655 
L 195.239595 34.141189 
L 195.371206 37.375122 
L 195.305401 33.901431 
L 195.387648 37.094494 
L 195.404102 37.193916 
L 195.420556 38.162415 
L 195.453453 35.179249 
L 195.486362 35.843508 
L 195.502803 36.215691 
L 195.535712 34.94613 
L 195.552154 35.296871 
L 195.568609 35.039554 
L 195.617959 37.330139 
L 195.667323 35.514015 
L 195.700219 34.79618 
L 195.733115 37.602471 
L 195.766024 33.833112 
L 195.79892 34.386279 
L 195.864726 32.47791 
L 195.897634 33.156917 
L 195.946985 34.687145 
L 195.996336 32.933874 
L 196.111492 31.644524 
L 196.029232 33.3795 
L 196.127946 31.713686 
L 196.144388 31.825922 
L 196.177297 35.373871 
L 196.275998 34.172549 
L 196.3747 36.542294 
L 196.424063 36.349699 
L 196.489868 37.676249 
L 196.539219 35.495198 
L 196.588569 36.422856 
L 196.76953 41.582141 
L 196.785972 40.57993 
L 196.934037 35.764205 
L 196.950491 35.989087 
L 197.065647 45.046876 
L 197.098544 44.659215 
L 197.114998 44.651915 
L 197.197245 43.18563 
L 197.147894 44.76169 
L 197.230154 44.030933 
L 197.328855 46.19297 
L 197.26305 43.493145 
L 197.34531 46.117578 
L 197.493362 40.65138 
L 197.509816 40.719033 
L 197.526271 40.641348 
L 197.624972 37.874763 
L 197.657881 39.554364 
L 197.789479 41.630819 
L 197.871738 39.86976 
L 197.888193 40.70139 
L 197.904634 41.452844 
L 197.937543 39.791414 
L 197.986894 40.583259 
L 198.01979 41.104243 
L 198.036245 40.585627 
L 198.069154 39.248679 
L 198.151401 39.643152 
L 198.167855 40.498792 
L 198.217206 37.456443 
L 198.250115 37.603028 
L 198.283011 36.478227 
L 198.36527 35.569041 
L 198.332362 36.813713 
L 198.381712 36.473053 
L 198.398167 36.802245 
L 198.431063 35.760802 
L 198.447517 35.313844 
L 198.480426 36.930645 
L 198.677829 41.712559 
L 198.710738 40.780639 
L 198.743634 39.340851 
L 198.776543 41.234324 
L 198.792985 41.549879 
L 198.891699 35.768615 
L 198.924595 36.986075 
L 199.023297 39.415453 
L 199.056206 38.352869 
L 199.122011 40.213503 
L 199.138453 38.964574 
L 199.270063 36.156419 
L 199.286517 37.146067 
L 199.335868 35.4002 
L 199.368777 36.194151 
L 199.500375 34.113977 
L 199.549725 35.323472 
L 199.599089 34.48616 
L 199.61553 33.704249 
L 199.648439 35.539076 
L 199.69779 34.442563 
L 199.812946 36.814497 
L 199.763595 34.088077 
L 199.8294 36.342966 
L 199.960998 33.697023 
L 199.977452 34.850545 
L 200.059712 33.098936 
L 200.076166 34.459619 
L 200.174868 31.047498 
L 200.207764 32.655253 
L 200.32292 34.9308 
L 200.355829 32.355991 
L 200.421634 35.669913 
L 200.520335 33.079981 
L 200.53679 32.614507 
L 200.586141 33.836427 
L 200.602595 33.795453 
L 200.619037 33.707282 
L 200.734193 37.002446 
L 200.750647 36.234582 
L 200.783543 34.780352 
L 200.816452 37.688521 
L 200.832907 37.487512 
L 200.882257 39.959771 
L 200.931608 37.701834 
L 200.980959 37.848247 
L 200.997413 37.076358 
L 201.030309 39.057159 
L 201.129023 38.737181 
L 201.260621 32.218525 
L 201.277076 32.766143 
L 201.342881 35.80686 
L 201.408686 34.790606 
L 201.556738 30.635451 
L 201.606089 32.90902 
L 201.655452 35.477599 
L 201.721257 33.124047 
L 201.754154 33.147407 
L 201.770608 32.928991 
L 201.968011 39.037538 
L 202.033816 40.32605 
L 202.00092 38.160674 
L 202.083167 39.530565 
L 202.198322 36.282214 
L 202.148972 39.710587 
L 202.231231 36.857814 
L 202.247686 36.893815 
L 202.264128 35.869226 
L 202.329933 37.780875 
L 202.395738 39.625701 
L 202.412192 39.561945 
L 202.461543 36.223193 
L 202.494439 40.035804 
L 202.510894 39.976448 
L 202.527348 39.998002 
L 202.691855 33.703958 
L 202.708309 33.808174 
L 202.741206 36.23548 
L 202.839907 35.768363 
L 202.856361 35.757098 
L 202.88927 35.85798 
L 203.119582 29.3334 
L 203.136024 27.437303 
L 203.201829 30.615663 
L 203.218283 29.546839 
L 203.267634 31.122554 
L 203.316985 29.390626 
L 203.333439 29.027144 
L 203.349894 30.387555 
L 203.399244 31.900574 
L 203.432141 30.273898 
L 203.465049 30.728476 
L 203.497946 29.672763 
L 203.59666 33.199157 
L 203.629556 32.894716 
L 203.64601 33.723796 
L 203.695361 31.395606 
L 203.711815 32.360637 
L 203.810517 31.235106 
L 203.843413 33.493507 
L 203.909218 31.499896 
L 203.925673 31.225577 
L 203.958569 32.327516 
L 204.057283 35.04273 
L 204.073725 34.829528 
L 204.13953 29.297009 
L 204.22179 31.326784 
L 204.27114 29.56978 
L 204.336946 30.214541 
L 204.468556 38.541824 
L 204.484998 38.010729 
L 204.600166 35.695522 
L 204.633062 36.621868 
L 204.665959 35.383242 
L 204.797569 33.605897 
L 204.830478 37.366831 
L 204.929179 35.23462 
L 204.945634 35.274789 
L 205.077231 33.823425 
L 205.011439 36.361423 
L 205.093686 33.893692 
L 205.159491 37.025929 
L 205.192387 35.864712 
L 205.274647 36.098433 
L 205.323998 32.687265 
L 205.406257 31.069526 
L 205.422711 31.4194 
L 205.439153 33.29199 
L 205.521413 31.762289 
L 205.554309 31.824758 
L 205.620114 29.035075 
L 205.685919 29.996525 
L 205.784621 37.739487 
L 205.86688 37.539598 
L 205.965582 36.732931 
L 205.932686 38.144949 
L 205.982036 37.333547 
L 206.097192 41.186332 
L 206.113647 39.521627 
L 206.146543 38.674352 
L 206.228802 33.187339 
L 206.179452 38.985576 
L 206.278153 35.788177 
L 206.294608 36.965951 
L 206.343958 35.17846 
L 206.360413 35.313725 
L 206.475568 31.267986 
L 206.508465 32.692202 
L 206.557816 33.65123 
L 206.590724 32.471941 
L 206.689426 30.545159 
L 206.70588 30.9748 
L 206.837478 34.493997 
L 206.886841 34.348172 
L 207.100699 28.36687 
L 207.117153 28.319006 
L 207.133595 28.53973 
L 207.298114 36.305209 
L 207.314556 35.882898 
L 207.429712 31.229922 
L 207.46262 32.982532 
L 207.495517 34.756326 
L 207.561322 33.042046 
L 207.577776 32.918125 
L 207.610673 31.698366 
L 207.676478 33.122138 
L 207.709387 33.795799 
L 207.725828 33.002479 
L 207.857439 28.50002 
L 207.873893 29.696449 
L 208.021945 33.999437 
L 208.120659 30.640936 
L 208.17001 32.221233 
L 208.202906 33.823277 
L 208.268712 32.001796 
L 208.449672 28.356472 
L 208.482569 28.266111 
L 208.614179 30.901677 
L 208.679984 29.245106 
L 208.729335 30.054471 
L 208.745789 30.06654 
L 208.762244 29.821351 
L 208.811594 30.412315 
L 208.992555 35.952415 
L 209.008997 35.509078 
L 209.041906 33.970149 
L 209.107711 35.430712 
L 209.124166 35.73321 
L 209.173516 34.853998 
L 209.189958 34.802765 
L 209.255763 32.881117 
L 209.288672 35.327502 
L 209.403828 38.319487 
L 209.436725 37.432456 
L 209.486075 36.997524 
L 209.50253 37.797152 
L 209.699945 41.734227 
L 209.535438 37.102539 
L 209.716387 41.471468 
L 209.749296 39.251629 
L 209.815101 40.536456 
L 209.831543 41.751791 
L 209.880906 39.02429 
L 209.897348 39.955993 
L 209.913802 39.225669 
L 209.930257 40.746827 
L 209.963153 40.713598 
L 209.996062 42.203523 
L 210.028958 40.138407 
L 210.061867 41.104262 
L 210.094763 40.414976 
L 210.12766 42.742031 
L 210.177023 45.652977 
L 210.226374 42.451667 
L 210.341529 40.657423 
L 210.357984 41.158504 
L 210.374426 41.195511 
L 210.423776 40.733801 
L 210.506036 42.76585 
L 210.52249 42.864039 
L 210.538932 46.316294 
L 210.588295 44.668029 
" clip-path="url(#p4002bce701)" style="fill: none; stroke: #009e73; stroke-width: 1.25; stroke-linecap: square"/>
   </g>
   <g id="patch_4">
    <path d="M 37.85375 131.718516 
L 37.85375 20.418516 
" style="fill: none; stroke: #000000; stroke-width: 0.8; stroke-linejoin: miter; stroke-linecap: square"/>
   </g>
   <g id="patch_5">
    <path d="M 37.85375 131.718516 
L 218.81375 131.718516 
" style="fill: none; stroke: #000000; stroke-width: 0.8; stroke-linejoin: miter; stroke-linecap: square"/>
   </g>
   <g id="text_14">
    <!-- drugs3523 rep3 -->
    <g transform="translate(90.460664 14.418516) scale(0.095 -0.095)">
     <defs>
      <path id="DejaVuSans-64" d="M 2906 2969 
L 2906 4863 
L 3481 4863 
L 3481 0 
L 2906 0 
L 2906 525 
Q 2725 213 2448 61 
Q 2172 -91 1784 -91 
Q 1150 -91 751 415 
Q 353 922 353 1747 
Q 353 2572 751 3078 
Q 1150 3584 1784 3584 
Q 2172 3584 2448 3432 
Q 2725 3281 2906 2969 
z
M 947 1747 
Q 947 1113 1208 752 
Q 1469 391 1925 391 
Q 2381 391 2643 752 
Q 2906 1113 2906 1747 
Q 2906 2381 2643 2742 
Q 2381 3103 1925 3103 
Q 1469 3103 1208 2742 
Q 947 2381 947 1747 
z
" transform="scale(0.015625)"/>
      <path id="DejaVuSans-72" d="M 2631 2963 
Q 2534 3019 2420 3045 
Q 2306 3072 2169 3072 
Q 1681 3072 1420 2755 
Q 1159 2438 1159 1844 
L 1159 0 
L 581 0 
L 581 3500 
L 1159 3500 
L 1159 2956 
Q 1341 3275 1631 3429 
Q 1922 3584 2338 3584 
Q 2397 3584 2469 3576 
Q 2541 3569 2628 3553 
L 2631 2963 
z
" transform="scale(0.015625)"/>
      <path id="DejaVuSans-75" d="M 544 1381 
L 544 3500 
L 1119 3500 
L 1119 1403 
Q 1119 906 1312 657 
Q 1506 409 1894 409 
Q 2359 409 2629 706 
Q 2900 1003 2900 1516 
L 2900 3500 
L 3475 3500 
L 3475 0 
L 2900 0 
L 2900 538 
Q 2691 219 2414 64 
Q 2138 -91 1772 -91 
Q 1169 -91 856 284 
Q 544 659 544 1381 
z
M 1991 3584 
L 1991 3584 
z
" transform="scale(0.015625)"/>
      <path id="DejaVuSans-67" d="M 2906 1791 
Q 2906 2416 2648 2759 
Q 2391 3103 1925 3103 
Q 1463 3103 1205 2759 
Q 947 2416 947 1791 
Q 947 1169 1205 825 
Q 1463 481 1925 481 
Q 2391 481 2648 825 
Q 2906 1169 2906 1791 
z
M 3481 434 
Q 3481 -459 3084 -895 
Q 2688 -1331 1869 -1331 
Q 1566 -1331 1297 -1286 
Q 1028 -1241 775 -1147 
L 775 -588 
Q 1028 -725 1275 -790 
Q 1522 -856 1778 -856 
Q 2344 -856 2625 -561 
Q 2906 -266 2906 331 
L 2906 616 
Q 2728 306 2450 153 
Q 2172 0 1784 0 
Q 1141 0 747 490 
Q 353 981 353 1791 
Q 353 2603 747 3093 
Q 1141 3584 1784 3584 
Q 2172 3584 2450 3431 
Q 2728 3278 2906 2969 
L 2906 3500 
L 3481 3500 
L 3481 434 
z
" transform="scale(0.015625)"/>
      <path id="DejaVuSans-33" d="M 2597 2516 
Q 3050 2419 3304 2112 
Q 3559 1806 3559 1356 
Q 3559 666 3084 287 
Q 2609 -91 1734 -91 
Q 1441 -91 1130 -33 
Q 819 25 488 141 
L 488 750 
Q 750 597 1062 519 
Q 1375 441 1716 441 
Q 2309 441 2620 675 
Q 2931 909 2931 1356 
Q 2931 1769 2642 2001 
Q 2353 2234 1838 2234 
L 1294 2234 
L 1294 2753 
L 1863 2753 
Q 2328 2753 2575 2939 
Q 2822 3125 2822 3475 
Q 2822 3834 2567 4026 
Q 2313 4219 1838 4219 
Q 1578 4219 1281 4162 
Q 984 4106 628 3988 
L 628 4550 
Q 988 4650 1302 4700 
Q 1616 4750 1894 4750 
Q 2613 4750 3031 4423 
Q 3450 4097 3450 3541 
Q 3450 3153 3228 2886 
Q 3006 2619 2597 2516 
z
" transform="scale(0.015625)"/>
      <path id="DejaVuSans-70" d="M 1159 525 
L 1159 -1331 
L 581 -1331 
L 581 3500 
L 1159 3500 
L 1159 2969 
Q 1341 3281 1617 3432 
Q 1894 3584 2278 3584 
Q 2916 3584 3314 3078 
Q 3713 2572 3713 1747 
Q 3713 922 3314 415 
Q 2916 -91 2278 -91 
Q 1894 -91 1617 61 
Q 1341 213 1159 525 
z
M 3116 1747 
Q 3116 2381 2855 2742 
Q 2594 3103 2138 3103 
Q 1681 3103 1420 2742 
Q 1159 2381 1159 1747 
Q 1159 1113 1420 752 
Q 1681 391 2138 391 
Q 2594 391 2855 752 
Q 3116 1113 3116 1747 
z
" transform="scale(0.015625)"/>
     </defs>
     <use xlink:href="#DejaVuSans-64"/>
     <use xlink:href="#DejaVuSans-72" transform="translate(63.476562 0)"/>
     <use xlink:href="#DejaVuSans-75" transform="translate(104.589844 0)"/>
     <use xlink:href="#DejaVuSans-67" transform="translate(167.96875 0)"/>
     <use xlink:href="#DejaVuSans-73" transform="translate(231.445312 0)"/>
     <use xlink:href="#DejaVuSans-33" transform="translate(283.544922 0)"/>
     <use xlink:href="#DejaVuSans-35" transform="translate(347.167969 0)"/>
     <use xlink:href="#DejaVuSans-32" transform="translate(410.791016 0)"/>
     <use xlink:href="#DejaVuSans-33" transform="translate(474.414062 0)"/>
     <use xlink:href="#DejaVuSans-20" transform="translate(538.037109 0)"/>
     <use xlink:href="#DejaVuSans-72" transform="translate(569.824219 0)"/>
     <use xlink:href="#DejaVuSans-65" transform="translate(608.6875 0)"/>
     <use xlink:href="#DejaVuSans-70" transform="translate(670.210938 0)"/>
     <use xlink:href="#DejaVuSans-33" transform="translate(733.6875 0)"/>
    </g>
   </g>
  </g>
 </g>
 <defs>
  <clipPath id="p4002bce701">
   <rect x="37.85375" y="20.418516" width="180.96" height="111.3"/>
  </clipPath>
 </defs>
</svg>
