<?xml version="1.0" encoding="utf-8" standalone="no"?>
<!DOCTYPE svg PUBLIC "-//W3C//DTD SVG 1.1//EN"
  "http://www.w3.org/Graphics/SVG/1.1/DTD/svg11.dtd">
<svg xmlns:xlink="http://www.w3.org/1999/xlink" width="514.01375pt" height="173.345pt" viewBox="0 0 514.01375 173.345" xmlns="http://www.w3.org/2000/svg" version="1.1">
 <metadata>
  <rdf:RDF xmlns:dc="http://purl.org/dc/elements/1.1/" xmlns:cc="http://creativecommons.org/ns#" xmlns:rdf="http://www.w3.org/1999/02/22-rdf-syntax-ns#">
   <cc:Work>
    <dc:type rdf:resource="http://purl.org/dc/dcmitype/StillImage"/>
    <dc:date>2026-05-24T13:54:08.073322</dc:date>
    <dc:format>image/svg+xml</dc:format>
    <dc:creator>
     <cc:Agent>
      <dc:title>Matplotlib v3.10.9, https://matplotlib.org/</dc:title>
     </cc:Agent>
    </dc:creator>
   </cc:Work>
  </rdf:RDF>
 </metadata>
 <defs>
  <style type="text/css">*{stroke-linejoin: round; stroke-linecap: butt}</style>
 </defs>
 <g id="figure_1">
  <g id="patch_1">
   <path d="M 0 173.345 
L 514.01375 173.345 
L 514.01375 -0 
L 0 -0 
z
" style="fill: #ffffff"/>
  </g>
  <g id="axes_1">
   <g id="patch_2">
    <path d="M 37.85375 140.16 
L 175.760417 140.16 
L 175.760417 54.6 
L 37.85375 54.6 
z
" style="fill: #ffffff"/>
   </g>
   <g id="matplotlib.axis_1">
    <g id="xtick_1">
     <g id="line2d_1">
      <defs>
       <path id="m8ac948ba8c" d="M 0 0 
L 0 3 
" style="stroke: #000000; stroke-width: 0.7"/>
      </defs>
      <g>
       <use xlink:href="#m8ac948ba8c" x="43.425737" y="140.16" style="stroke: #000000; stroke-width: 0.7"/>
      </g>
     </g>
     <g id="text_1">
      <!-- 0 -->
      <g transform="translate(41.039799 152.358828) scale(0.075 -0.075)">
       <defs>
        <path id="DejaVuSans-30" d="M 2034 4250 
Q 1547 4250 1301 3770 
Q 1056 3291 1056 2328 
Q 1056 1369 1301 889 
Q 1547 409 2034 409 
Q 2525 409 2770 889 
Q 3016 1369 3016 2328 
Q 3016 3291 2770 3770 
Q 2525 4250 2034 4250 
z
M 2034 4750 
Q 2819 4750 3233 4129 
Q 3647 3509 3647 2328 
Q 3647 1150 3233 529 
Q 2819 -91 2034 -91 
Q 1250 -91 836 529 
Q 422 1150 422 2328 
Q 422 3509 836 4129 
Q 1250 4750 2034 4750 
z
" transform="scale(0.015625)"/>
       </defs>
       <use xlink:href="#DejaVuSans-30"/>
      </g>
     </g>
    </g>
    <g id="xtick_2">
     <g id="line2d_2">
      <g>
       <use xlink:href="#m8ac948ba8c" x="78.250652" y="140.16" style="stroke: #000000; stroke-width: 0.7"/>
      </g>
     </g>
     <g id="text_2">
      <!-- 50 -->
      <g transform="translate(73.478777 152.358828) scale(0.075 -0.075)">
       <defs>
        <path id="DejaVuSans-35" d="M 691 4666 
L 3169 4666 
L 3169 4134 
L 1269 4134 
L 1269 2991 
Q 1406 3038 1543 3061 
Q 1681 3084 1819 3084 
Q 2600 3084 3056 2656 
Q 3513 2228 3513 1497 
Q 3513 744 3044 326 
Q 2575 -91 1722 -91 
Q 1428 -91 1123 -41 
Q 819 9 494 109 
L 494 744 
Q 775 591 1075 516 
Q 1375 441 1709 441 
Q 2250 441 2565 725 
Q 2881 1009 2881 1497 
Q 2881 1984 2565 2268 
Q 2250 2553 1709 2553 
Q 1456 2553 1204 2497 
Q 953 2441 691 2322 
L 691 4666 
z
" transform="scale(0.015625)"/>
       </defs>
       <use xlink:href="#DejaVuSans-35"/>
       <use xlink:href="#DejaVuSans-30" transform="translate(63.623047 0)"/>
      </g>
     </g>
    </g>
    <g id="xtick_3">
     <g id="line2d_3">
      <g>
       <use xlink:href="#m8ac948ba8c" x="113.075568" y="140.16" style="stroke: #000000; stroke-width: 0.7"/>
      </g>
     </g>
     <g id="text_3">
      <!-- 100 -->
      <g transform="translate(105.917756 152.358828) scale(0.075 -0.075)">
       <defs>
        <path id="DejaVuSans-31" d="M 794 531 
L 1825 531 
L 1825 4091 
L 703 3866 
L 703 4441 
L 1819 4666 
L 2450 4666 
L 2450 531 
L 3481 531 
L 3481 0 
L 794 0 
L 794 531 
z
" transform="scale(0.015625)"/>
       </defs>
       <use xlink:href="#DejaVuSans-31"/>
       <use xlink:href="#DejaVuSans-30" transform="translate(63.623047 0)"/>
       <use xlink:href="#DejaVuSans-30" transform="translate(127.246094 0)"/>
      </g>
     </g>
    </g>
    <g id="xtick_4">
     <g id="line2d_4">
      <g>
       <use xlink:href="#m8ac948ba8c" x="147.900484" y="140.16" style="stroke: #000000; stroke-width: 0.7"/>
      </g>
     </g>
     <g id="text_4">
      <!-- 150 -->
      <g transform="translate(140.742672 152.358828) scale(0.075 -0.075)">
       <use xlink:href="#DejaVuSans-31"/>
       <use xlink:href="#DejaVuSans-35" transform="translate(63.623047 0)"/>
       <use xlink:href="#DejaVuSans-30" transform="translate(127.246094 0)"/>
      </g>
     </g>
    </g>
    <g id="text_5">
     <!-- Residue index -->
     <g transform="translate(77.049779 164.377266) scale(0.085 -0.085)">
      <defs>
       <path id="DejaVuSans-52" d="M 2841 2188 
Q 3044 2119 3236 1894 
Q 3428 1669 3622 1275 
L 4263 0 
L 3584 0 
L 2988 1197 
Q 2756 1666 2539 1819 
Q 2322 1972 1947 1972 
L 1259 1972 
L 1259 0 
L 628 0 
L 628 4666 
L 2053 4666 
Q 2853 4666 3247 4331 
Q 3641 3997 3641 3322 
Q 3641 2881 3436 2590 
Q 3231 2300 2841 2188 
z
M 1259 4147 
L 1259 2491 
L 2053 2491 
Q 2509 2491 2742 2702 
Q 2975 2913 2975 3322 
Q 2975 3731 2742 3939 
Q 2509 4147 2053 4147 
L 1259 4147 
z
" transform="scale(0.015625)"/>
       <path id="DejaVuSans-65" d="M 3597 1894 
L 3597 1613 
L 953 1613 
Q 991 1019 1311 708 
Q 1631 397 2203 397 
Q 2534 397 2845 478 
Q 3156 559 3463 722 
L 3463 178 
Q 3153 47 2828 -22 
Q 2503 -91 2169 -91 
Q 1331 -91 842 396 
Q 353 884 353 1716 
Q 353 2575 817 3079 
Q 1281 3584 2069 3584 
Q 2775 3584 3186 3129 
Q 3597 2675 3597 1894 
z
M 3022 2063 
Q 3016 2534 2758 2815 
Q 2500 3097 2075 3097 
Q 1594 3097 1305 2825 
Q 1016 2553 972 2059 
L 3022 2063 
z
" transform="scale(0.015625)"/>
       <path id="DejaVuSans-73" d="M 2834 3397 
L 2834 2853 
Q 2591 2978 2328 3040 
Q 2066 3103 1784 3103 
Q 1356 3103 1142 2972 
Q 928 2841 928 2578 
Q 928 2378 1081 2264 
Q 1234 2150 1697 2047 
L 1894 2003 
Q 2506 1872 2764 1633 
Q 3022 1394 3022 966 
Q 3022 478 2636 193 
Q 2250 -91 1575 -91 
Q 1294 -91 989 -36 
Q 684 19 347 128 
L 347 722 
Q 666 556 975 473 
Q 1284 391 1588 391 
Q 1994 391 2212 530 
Q 2431 669 2431 922 
Q 2431 1156 2273 1281 
Q 2116 1406 1581 1522 
L 1381 1569 
Q 847 1681 609 1914 
Q 372 2147 372 2553 
Q 372 3047 722 3315 
Q 1072 3584 1716 3584 
Q 2034 3584 2315 3537 
Q 2597 3491 2834 3397 
z
" transform="scale(0.015625)"/>
       <path id="DejaVuSans-69" d="M 603 3500 
L 1178 3500 
L 1178 0 
L 603 0 
L 603 3500 
z
M 603 4863 
L 1178 4863 
L 1178 4134 
L 603 4134 
L 603 4863 
z
" transform="scale(0.015625)"/>
       <path id="DejaVuSans-64" d="M 2906 2969 
L 2906 4863 
L 3481 4863 
L 3481 0 
L 2906 0 
L 2906 525 
Q 2725 213 2448 61 
Q 2172 -91 1784 -91 
Q 1150 -91 751 415 
Q 353 922 353 1747 
Q 353 2572 751 3078 
Q 1150 3584 1784 3584 
Q 2172 3584 2448 3432 
Q 2725 3281 2906 2969 
z
M 947 1747 
Q 947 1113 1208 752 
Q 1469 391 1925 391 
Q 2381 391 2643 752 
Q 2906 1113 2906 1747 
Q 2906 2381 2643 2742 
Q 2381 3103 1925 3103 
Q 1469 3103 1208 2742 
Q 947 2381 947 1747 
z
" transform="scale(0.015625)"/>
       <path id="DejaVuSans-75" d="M 544 1381 
L 544 3500 
L 1119 3500 
L 1119 1403 
Q 1119 906 1312 657 
Q 1506 409 1894 409 
Q 2359 409 2629 706 
Q 2900 1003 2900 1516 
L 2900 3500 
L 3475 3500 
L 3475 0 
L 2900 0 
L 2900 538 
Q 2691 219 2414 64 
Q 2138 -91 1772 -91 
Q 1169 -91 856 284 
Q 544 659 544 1381 
z
M 1991 3584 
L 1991 3584 
z
" transform="scale(0.015625)"/>
       <path id="DejaVuSans-20" transform="scale(0.015625)"/>
       <path id="DejaVuSans-6e" d="M 3513 2113 
L 3513 0 
L 2938 0 
L 2938 2094 
Q 2938 2591 2744 2837 
Q 2550 3084 2163 3084 
Q 1697 3084 1428 2787 
Q 1159 2491 1159 1978 
L 1159 0 
L 581 0 
L 581 3500 
L 1159 3500 
L 1159 2956 
Q 1366 3272 1645 3428 
Q 1925 3584 2291 3584 
Q 2894 3584 3203 3211 
Q 3513 2838 3513 2113 
z
" transform="scale(0.015625)"/>
       <path id="DejaVuSans-78" d="M 3513 3500 
L 2247 1797 
L 3578 0 
L 2900 0 
L 1881 1375 
L 863 0 
L 184 0 
L 1544 1831 
L 300 3500 
L 978 3500 
L 1906 2253 
L 2834 3500 
L 3513 3500 
z
" transform="scale(0.015625)"/>
      </defs>
      <use xlink:href="#DejaVuSans-52"/>
      <use xlink:href="#DejaVuSans-65" transform="translate(64.982422 0)"/>
      <use xlink:href="#DejaVuSans-73" transform="translate(126.505859 0)"/>
      <use xlink:href="#DejaVuSans-69" transform="translate(178.605469 0)"/>
      <use xlink:href="#DejaVuSans-64" transform="translate(206.388672 0)"/>
      <use xlink:href="#DejaVuSans-75" transform="translate(269.865234 0)"/>
      <use xlink:href="#DejaVuSans-65" transform="translate(333.244141 0)"/>
      <use xlink:href="#DejaVuSans-20" transform="translate(394.767578 0)"/>
      <use xlink:href="#DejaVuSans-69" transform="translate(426.554688 0)"/>
      <use xlink:href="#DejaVuSans-6e" transform="translate(454.337891 0)"/>
      <use xlink:href="#DejaVuSans-64" transform="translate(517.716797 0)"/>
      <use xlink:href="#DejaVuSans-65" transform="translate(581.193359 0)"/>
      <use xlink:href="#DejaVuSans-78" transform="translate(640.966797 0)"/>
     </g>
    </g>
   </g>
   <g id="matplotlib.axis_2">
    <g id="ytick_1">
     <g id="line2d_5">
      <defs>
       <path id="mf3ad012fc2" d="M 0 0 
L -3 0 
" style="stroke: #000000; stroke-width: 0.7"/>
      </defs>
      <g>
       <use xlink:href="#mf3ad012fc2" x="37.85375" y="126.692799" style="stroke: #000000; stroke-width: 0.7"/>
      </g>
     </g>
     <g id="text_6">
      <!-- 0.5 -->
      <g transform="translate(19.426406 129.542213) scale(0.075 -0.075)">
       <defs>
        <path id="DejaVuSans-2e" d="M 684 794 
L 1344 794 
L 1344 0 
L 684 0 
L 684 794 
z
" transform="scale(0.015625)"/>
       </defs>
       <use xlink:href="#DejaVuSans-30"/>
       <use xlink:href="#DejaVuSans-2e" transform="translate(63.623047 0)"/>
       <use xlink:href="#DejaVuSans-35" transform="translate(95.410156 0)"/>
      </g>
     </g>
    </g>
    <g id="ytick_2">
     <g id="line2d_6">
      <g>
       <use xlink:href="#mf3ad012fc2" x="37.85375" y="98.881794" style="stroke: #000000; stroke-width: 0.7"/>
      </g>
     </g>
     <g id="text_7">
      <!-- 1.0 -->
      <g transform="translate(19.426406 101.731208) scale(0.075 -0.075)">
       <use xlink:href="#DejaVuSans-31"/>
       <use xlink:href="#DejaVuSans-2e" transform="translate(63.623047 0)"/>
       <use xlink:href="#DejaVuSans-30" transform="translate(95.410156 0)"/>
      </g>
     </g>
    </g>
    <g id="ytick_3">
     <g id="line2d_7">
      <g>
       <use xlink:href="#mf3ad012fc2" x="37.85375" y="71.070789" style="stroke: #000000; stroke-width: 0.7"/>
      </g>
     </g>
     <g id="text_8">
      <!-- 1.5 -->
      <g transform="translate(19.426406 73.920204) scale(0.075 -0.075)">
       <use xlink:href="#DejaVuSans-31"/>
       <use xlink:href="#DejaVuSans-2e" transform="translate(63.623047 0)"/>
       <use xlink:href="#DejaVuSans-35" transform="translate(95.410156 0)"/>
      </g>
     </g>
    </g>
    <g id="text_9">
     <!-- Backbone RMSF (nm) -->
     <g transform="translate(13.658672 142.91875) rotate(-90) scale(0.085 -0.085)">
      <defs>
       <path id="DejaVuSans-42" d="M 1259 2228 
L 1259 519 
L 2272 519 
Q 2781 519 3026 730 
Q 3272 941 3272 1375 
Q 3272 1813 3026 2020 
Q 2781 2228 2272 2228 
L 1259 2228 
z
M 1259 4147 
L 1259 2741 
L 2194 2741 
Q 2656 2741 2882 2914 
Q 3109 3088 3109 3444 
Q 3109 3797 2882 3972 
Q 2656 4147 2194 4147 
L 1259 4147 
z
M 628 4666 
L 2241 4666 
Q 2963 4666 3353 4366 
Q 3744 4066 3744 3513 
Q 3744 3084 3544 2831 
Q 3344 2578 2956 2516 
Q 3422 2416 3680 2098 
Q 3938 1781 3938 1306 
Q 3938 681 3513 340 
Q 3088 0 2303 0 
L 628 0 
L 628 4666 
z
" transform="scale(0.015625)"/>
       <path id="DejaVuSans-61" d="M 2194 1759 
Q 1497 1759 1228 1600 
Q 959 1441 959 1056 
Q 959 750 1161 570 
Q 1363 391 1709 391 
Q 2188 391 2477 730 
Q 2766 1069 2766 1631 
L 2766 1759 
L 2194 1759 
z
M 3341 1997 
L 3341 0 
L 2766 0 
L 2766 531 
Q 2569 213 2275 61 
Q 1981 -91 1556 -91 
Q 1019 -91 701 211 
Q 384 513 384 1019 
Q 384 1609 779 1909 
Q 1175 2209 1959 2209 
L 2766 2209 
L 2766 2266 
Q 2766 2663 2505 2880 
Q 2244 3097 1772 3097 
Q 1472 3097 1187 3025 
Q 903 2953 641 2809 
L 641 3341 
Q 956 3463 1253 3523 
Q 1550 3584 1831 3584 
Q 2591 3584 2966 3190 
Q 3341 2797 3341 1997 
z
" transform="scale(0.015625)"/>
       <path id="DejaVuSans-63" d="M 3122 3366 
L 3122 2828 
Q 2878 2963 2633 3030 
Q 2388 3097 2138 3097 
Q 1578 3097 1268 2742 
Q 959 2388 959 1747 
Q 959 1106 1268 751 
Q 1578 397 2138 397 
Q 2388 397 2633 464 
Q 2878 531 3122 666 
L 3122 134 
Q 2881 22 2623 -34 
Q 2366 -91 2075 -91 
Q 1284 -91 818 406 
Q 353 903 353 1747 
Q 353 2603 823 3093 
Q 1294 3584 2113 3584 
Q 2378 3584 2631 3529 
Q 2884 3475 3122 3366 
z
" transform="scale(0.015625)"/>
       <path id="DejaVuSans-6b" d="M 581 4863 
L 1159 4863 
L 1159 1991 
L 2875 3500 
L 3609 3500 
L 1753 1863 
L 3688 0 
L 2938 0 
L 1159 1709 
L 1159 0 
L 581 0 
L 581 4863 
z
" transform="scale(0.015625)"/>
       <path id="DejaVuSans-62" d="M 3116 1747 
Q 3116 2381 2855 2742 
Q 2594 3103 2138 3103 
Q 1681 3103 1420 2742 
Q 1159 2381 1159 1747 
Q 1159 1113 1420 752 
Q 1681 391 2138 391 
Q 2594 391 2855 752 
Q 3116 1113 3116 1747 
z
M 1159 2969 
Q 1341 3281 1617 3432 
Q 1894 3584 2278 3584 
Q 2916 3584 3314 3078 
Q 3713 2572 3713 1747 
Q 3713 922 3314 415 
Q 2916 -91 2278 -91 
Q 1894 -91 1617 61 
Q 1341 213 1159 525 
L 1159 0 
L 581 0 
L 581 4863 
L 1159 4863 
L 1159 2969 
z
" transform="scale(0.015625)"/>
       <path id="DejaVuSans-6f" d="M 1959 3097 
Q 1497 3097 1228 2736 
Q 959 2375 959 1747 
Q 959 1119 1226 758 
Q 1494 397 1959 397 
Q 2419 397 2687 759 
Q 2956 1122 2956 1747 
Q 2956 2369 2687 2733 
Q 2419 3097 1959 3097 
z
M 1959 3584 
Q 2709 3584 3137 3096 
Q 3566 2609 3566 1747 
Q 3566 888 3137 398 
Q 2709 -91 1959 -91 
Q 1206 -91 779 398 
Q 353 888 353 1747 
Q 353 2609 779 3096 
Q 1206 3584 1959 3584 
z
" transform="scale(0.015625)"/>
       <path id="DejaVuSans-4d" d="M 628 4666 
L 1569 4666 
L 2759 1491 
L 3956 4666 
L 4897 4666 
L 4897 0 
L 4281 0 
L 4281 4097 
L 3078 897 
L 2444 897 
L 1241 4097 
L 1241 0 
L 628 0 
L 628 4666 
z
" transform="scale(0.015625)"/>
       <path id="DejaVuSans-53" d="M 3425 4513 
L 3425 3897 
Q 3066 4069 2747 4153 
Q 2428 4238 2131 4238 
Q 1616 4238 1336 4038 
Q 1056 3838 1056 3469 
Q 1056 3159 1242 3001 
Q 1428 2844 1947 2747 
L 2328 2669 
Q 3034 2534 3370 2195 
Q 3706 1856 3706 1288 
Q 3706 609 3251 259 
Q 2797 -91 1919 -91 
Q 1588 -91 1214 -16 
Q 841 59 441 206 
L 441 856 
Q 825 641 1194 531 
Q 1563 422 1919 422 
Q 2459 422 2753 634 
Q 3047 847 3047 1241 
Q 3047 1584 2836 1778 
Q 2625 1972 2144 2069 
L 1759 2144 
Q 1053 2284 737 2584 
Q 422 2884 422 3419 
Q 422 4038 858 4394 
Q 1294 4750 2059 4750 
Q 2388 4750 2728 4690 
Q 3069 4631 3425 4513 
z
" transform="scale(0.015625)"/>
       <path id="DejaVuSans-46" d="M 628 4666 
L 3309 4666 
L 3309 4134 
L 1259 4134 
L 1259 2759 
L 3109 2759 
L 3109 2228 
L 1259 2228 
L 1259 0 
L 628 0 
L 628 4666 
z
" transform="scale(0.015625)"/>
       <path id="DejaVuSans-28" d="M 1984 4856 
Q 1566 4138 1362 3434 
Q 1159 2731 1159 2009 
Q 1159 1288 1364 580 
Q 1569 -128 1984 -844 
L 1484 -844 
Q 1016 -109 783 600 
Q 550 1309 550 2009 
Q 550 2706 781 3412 
Q 1013 4119 1484 4856 
L 1984 4856 
z
" transform="scale(0.015625)"/>
       <path id="DejaVuSans-6d" d="M 3328 2828 
Q 3544 3216 3844 3400 
Q 4144 3584 4550 3584 
Q 5097 3584 5394 3201 
Q 5691 2819 5691 2113 
L 5691 0 
L 5113 0 
L 5113 2094 
Q 5113 2597 4934 2840 
Q 4756 3084 4391 3084 
Q 3944 3084 3684 2787 
Q 3425 2491 3425 1978 
L 3425 0 
L 2847 0 
L 2847 2094 
Q 2847 2600 2669 2842 
Q 2491 3084 2119 3084 
Q 1678 3084 1418 2786 
Q 1159 2488 1159 1978 
L 1159 0 
L 581 0 
L 581 3500 
L 1159 3500 
L 1159 2956 
Q 1356 3278 1631 3431 
Q 1906 3584 2284 3584 
Q 2666 3584 2933 3390 
Q 3200 3197 3328 2828 
z
" transform="scale(0.015625)"/>
       <path id="DejaVuSans-29" d="M 513 4856 
L 1013 4856 
Q 1481 4119 1714 3412 
Q 1947 2706 1947 2009 
Q 1947 1309 1714 600 
Q 1481 -109 1013 -844 
L 513 -844 
Q 928 -128 1133 580 
Q 1338 1288 1338 2009 
Q 1338 2731 1133 3434 
Q 928 4138 513 4856 
z
" transform="scale(0.015625)"/>
      </defs>
      <use xlink:href="#DejaVuSans-42"/>
      <use xlink:href="#DejaVuSans-61" transform="translate(68.603516 0)"/>
      <use xlink:href="#DejaVuSans-63" transform="translate(129.882812 0)"/>
      <use xlink:href="#DejaVuSans-6b" transform="translate(184.863281 0)"/>
      <use xlink:href="#DejaVuSans-62" transform="translate(242.773438 0)"/>
      <use xlink:href="#DejaVuSans-6f" transform="translate(306.25 0)"/>
      <use xlink:href="#DejaVuSans-6e" transform="translate(367.431641 0)"/>
      <use xlink:href="#DejaVuSans-65" transform="translate(430.810547 0)"/>
      <use xlink:href="#DejaVuSans-20" transform="translate(492.333984 0)"/>
      <use xlink:href="#DejaVuSans-52" transform="translate(524.121094 0)"/>
      <use xlink:href="#DejaVuSans-4d" transform="translate(593.603516 0)"/>
      <use xlink:href="#DejaVuSans-53" transform="translate(679.882812 0)"/>
      <use xlink:href="#DejaVuSans-46" transform="translate(743.359375 0)"/>
      <use xlink:href="#DejaVuSans-20" transform="translate(800.878906 0)"/>
      <use xlink:href="#DejaVuSans-28" transform="translate(832.666016 0)"/>
      <use xlink:href="#DejaVuSans-6e" transform="translate(871.679688 0)"/>
      <use xlink:href="#DejaVuSans-6d" transform="translate(935.058594 0)"/>
      <use xlink:href="#DejaVuSans-29" transform="translate(1032.470703 0)"/>
     </g>
    </g>
   </g>
   <g id="line2d_8">
    <path d="M 44.122235 58.489091 
L 44.818733 59.106495 
L 45.515231 70.191962 
L 46.21173 77.43951 
L 46.908228 89.175754 
L 47.604726 86.227787 
L 48.301225 88.68628 
L 48.997723 96.640227 
L 49.694221 91.256017 
L 50.39072 93.453086 
L 51.087218 89.893278 
L 51.783716 87.390287 
L 52.480215 88.352548 
L 53.176713 86.222225 
L 54.56971 84.242081 
L 55.266208 86.928624 
L 56.659205 94.254043 
L 57.355703 95.227428 
L 58.052201 100.745132 
L 58.748699 99.47695 
L 59.445198 96.868278 
L 60.141696 100.48927 
L 60.838194 105.41738 
L 61.534693 104.722105 
L 62.231191 104.349438 
L 62.927689 104.766603 
L 63.624188 108.587835 
L 64.320686 111.647045 
L 65.017184 112.425754 
L 65.713683 113.972045 
L 66.410181 116.491722 
L 67.106679 117.003445 
L 67.803178 116.96451 
L 68.499676 119.28951 
L 69.196174 120.162775 
L 69.892673 118.471866 
L 70.589171 118.266065 
L 71.285669 119.751172 
L 71.982168 119.250574 
L 72.678666 118.143696 
L 73.375164 118.416244 
L 74.071662 118.377309 
L 74.768161 117.47067 
L 75.464659 117.303804 
L 76.161157 116.502847 
L 76.857656 115.268038 
L 77.554154 115.662955 
L 78.250652 115.112297 
L 78.947151 112.803983 
L 79.643649 112.798421 
L 80.340147 114.756316 
L 81.036646 113.721746 
L 81.733144 114.044354 
L 82.429642 118.360622 
L 83.126141 119.790108 
L 83.822639 116.714211 
L 84.519137 118.672105 
L 85.215636 124.011818 
L 86.608632 120.424199 
L 87.30513 125.730538 
L 88.001629 130.052368 
L 88.698127 126.575993 
L 89.394625 127.065467 
L 90.091124 133.178325 
L 90.787622 133.92366 
L 91.48412 129.696388 
L 92.180619 131.136998 
L 92.877117 135.864868 
L 93.573615 133.272883 
L 94.270114 129.612955 
L 94.966612 131.531914 
L 95.66311 130.975694 
L 97.056107 122.993935 
L 97.752605 115.518337 
L 98.449104 110.779342 
L 99.145602 107.219533 
L 100.538598 96.501172 
L 101.235097 105.41738 
L 101.931595 107.620012 
L 102.628093 113.026471 
L 103.324592 113.109904 
L 104.02109 113.721746 
L 104.717588 114.077727 
L 105.414087 119.133768 
L 106.110585 118.688792 
L 106.807083 122.637955 
L 107.503582 120.134964 
L 108.20008 116.897763 
L 108.896578 115.134545 
L 109.593077 108.821447 
L 110.289575 110.556854 
L 110.986073 105.506376 
L 111.682572 110.106316 
L 112.37907 112.303385 
L 113.075568 116.552907 
L 113.772066 114.405897 
L 115.165063 126.559306 
L 115.861561 130.035682 
L 116.55806 134.257392 
L 117.254558 133.306256 
L 117.951056 129.974498 
L 118.647555 132.182691 
L 119.344053 128.884306 
L 120.040551 127.999916 
L 120.73705 124.267679 
L 121.433548 118.733289 
L 122.130046 117.086878 
L 122.826545 110.868337 
L 123.523043 113.171089 
L 124.219541 113.260084 
L 124.91604 118.922404 
L 125.612538 121.909306 
L 126.309036 126.042022 
L 127.702033 120.896986 
L 128.398531 124.517978 
L 129.095029 125.013014 
L 129.791528 119.13933 
L 130.488026 118.210443 
L 131.184524 121.102787 
L 131.881023 116.903325 
L 132.577521 111.274378 
L 133.970518 116.575156 
L 135.363514 130.024557 
L 136.060013 134.157273 
L 136.756511 136.270909 
L 137.453009 134.863672 
L 138.149508 130.925634 
L 138.846006 128.895431 
L 139.542504 132.371806 
L 140.239003 131.125873 
L 140.935501 125.018577 
L 141.631999 124.729342 
L 142.328497 126.097644 
L 143.024996 124.367799 
L 143.721494 127.232333 
L 144.417992 124.284366 
L 145.114491 119.584306 
L 145.810989 122.548959 
L 146.507487 126.592679 
L 147.203986 123.238672 
L 147.900484 122.29866 
L 148.596982 127.315766 
L 149.293481 131.198182 
L 149.989979 133.178325 
L 150.686477 132.232751 
L 151.382976 128.478266 
L 152.079474 127.693995 
L 152.775972 127.538254 
L 153.472471 125.619294 
L 154.168969 125.941902 
L 154.865467 121.024916 
L 155.561965 114.483768 
L 156.258464 111.474617 
L 156.954962 110.807153 
L 157.65146 105.968038 
L 158.347959 108.159545 
L 159.044457 112.548122 
L 159.740955 107.497644 
L 160.437454 104.544115 
L 161.133952 109.155179 
L 161.83045 112.336758 
L 162.526949 118.060263 
L 163.223447 118.193756 
L 163.919945 114.567201 
L 164.616444 117.348301 
L 165.312942 117.020132 
L 166.00944 120.363014 
L 166.705939 122.782572 
L 167.402437 125.647105 
L 168.098935 129.935562 
L 169.491932 128.522763 
L 169.491932 128.522763 
" clip-path="url(#pfdfb5d9be4)" style="fill: none; stroke: #0072b2; stroke-width: 1.15; stroke-linecap: square"/>
   </g>
   <g id="patch_3">
    <path d="M 37.85375 140.16 
L 37.85375 54.6 
" style="fill: none; stroke: #000000; stroke-width: 0.8; stroke-linejoin: miter; stroke-linecap: square"/>
   </g>
   <g id="patch_4">
    <path d="M 37.85375 140.16 
L 175.760417 140.16 
" style="fill: none; stroke: #000000; stroke-width: 0.8; stroke-linejoin: miter; stroke-linecap: square"/>
   </g>
   <g id="text_10">
    <!-- rep1 -->
    <g transform="translate(96.000833 48.6) scale(0.095 -0.095)">
     <defs>
      <path id="DejaVuSans-72" d="M 2631 2963 
Q 2534 3019 2420 3045 
Q 2306 3072 2169 3072 
Q 1681 3072 1420 2755 
Q 1159 2438 1159 1844 
L 1159 0 
L 581 0 
L 581 3500 
L 1159 3500 
L 1159 2956 
Q 1341 3275 1631 3429 
Q 1922 3584 2338 3584 
Q 2397 3584 2469 3576 
Q 2541 3569 2628 3553 
L 2631 2963 
z
" transform="scale(0.015625)"/>
      <path id="DejaVuSans-70" d="M 1159 525 
L 1159 -1331 
L 581 -1331 
L 581 3500 
L 1159 3500 
L 1159 2969 
Q 1341 3281 1617 3432 
Q 1894 3584 2278 3584 
Q 2916 3584 3314 3078 
Q 3713 2572 3713 1747 
Q 3713 922 3314 415 
Q 2916 -91 2278 -91 
Q 1894 -91 1617 61 
Q 1341 213 1159 525 
z
M 3116 1747 
Q 3116 2381 2855 2742 
Q 2594 3103 2138 3103 
Q 1681 3103 1420 2742 
Q 1159 2381 1159 1747 
Q 1159 1113 1420 752 
Q 1681 391 2138 391 
Q 2594 391 2855 752 
Q 3116 1113 3116 1747 
z
" transform="scale(0.015625)"/>
     </defs>
     <use xlink:href="#DejaVuSans-72"/>
     <use xlink:href="#DejaVuSans-65" transform="translate(38.863281 0)"/>
     <use xlink:href="#DejaVuSans-70" transform="translate(100.386719 0)"/>
     <use xlink:href="#DejaVuSans-31" transform="translate(163.863281 0)"/>
    </g>
   </g>
  </g>
  <g id="axes_2">
   <g id="patch_5">
    <path d="M 203.380417 140.16 
L 341.287083 140.16 
L 341.287083 54.6 
L 203.380417 54.6 
z
" style="fill: #ffffff"/>
   </g>
   <g id="matplotlib.axis_3">
    <g id="xtick_5">
     <g id="line2d_9">
      <g>
       <use xlink:href="#m8ac948ba8c" x="208.952403" y="140.16" style="stroke: #000000; stroke-width: 0.7"/>
      </g>
     </g>
     <g id="text_11">
      <!-- 0 -->
      <g transform="translate(206.566466 152.358828) scale(0.075 -0.075)">
       <use xlink:href="#DejaVuSans-30"/>
      </g>
     </g>
    </g>
    <g id="xtick_6">
     <g id="line2d_10">
      <g>
       <use xlink:href="#m8ac948ba8c" x="243.777319" y="140.16" style="stroke: #000000; stroke-width: 0.7"/>
      </g>
     </g>
     <g id="text_12">
      <!-- 50 -->
      <g transform="translate(239.005444 152.358828) scale(0.075 -0.075)">
       <use xlink:href="#DejaVuSans-35"/>
       <use xlink:href="#DejaVuSans-30" transform="translate(63.623047 0)"/>
      </g>
     </g>
    </g>
    <g id="xtick_7">
     <g id="line2d_11">
      <g>
       <use xlink:href="#m8ac948ba8c" x="278.602235" y="140.16" style="stroke: #000000; stroke-width: 0.7"/>
      </g>
     </g>
     <g id="text_13">
      <!-- 100 -->
      <g transform="translate(271.444422 152.358828) scale(0.075 -0.075)">
       <use xlink:href="#DejaVuSans-31"/>
       <use xlink:href="#DejaVuSans-30" transform="translate(63.623047 0)"/>
       <use xlink:href="#DejaVuSans-30" transform="translate(127.246094 0)"/>
      </g>
     </g>
    </g>
    <g id="xtick_8">
     <g id="line2d_12">
      <g>
       <use xlink:href="#m8ac948ba8c" x="313.427151" y="140.16" style="stroke: #000000; stroke-width: 0.7"/>
      </g>
     </g>
     <g id="text_14">
      <!-- 150 -->
      <g transform="translate(306.269338 152.358828) scale(0.075 -0.075)">
       <use xlink:href="#DejaVuSans-31"/>
       <use xlink:href="#DejaVuSans-35" transform="translate(63.623047 0)"/>
       <use xlink:href="#DejaVuSans-30" transform="translate(127.246094 0)"/>
      </g>
     </g>
    </g>
    <g id="text_15">
     <!-- Residue index -->
     <g transform="translate(242.576445 164.377266) scale(0.085 -0.085)">
      <use xlink:href="#DejaVuSans-52"/>
      <use xlink:href="#DejaVuSans-65" transform="translate(64.982422 0)"/>
      <use xlink:href="#DejaVuSans-73" transform="translate(126.505859 0)"/>
      <use xlink:href="#DejaVuSans-69" transform="translate(178.605469 0)"/>
      <use xlink:href="#DejaVuSans-64" transform="translate(206.388672 0)"/>
      <use xlink:href="#DejaVuSans-75" transform="translate(269.865234 0)"/>
      <use xlink:href="#DejaVuSans-65" transform="translate(333.244141 0)"/>
      <use xlink:href="#DejaVuSans-20" transform="translate(394.767578 0)"/>
      <use xlink:href="#DejaVuSans-69" transform="translate(426.554688 0)"/>
      <use xlink:href="#DejaVuSans-6e" transform="translate(454.337891 0)"/>
      <use xlink:href="#DejaVuSans-64" transform="translate(517.716797 0)"/>
      <use xlink:href="#DejaVuSans-65" transform="translate(581.193359 0)"/>
      <use xlink:href="#DejaVuSans-78" transform="translate(640.966797 0)"/>
     </g>
    </g>
   </g>
   <g id="matplotlib.axis_4">
    <g id="ytick_4">
     <g id="line2d_13">
      <g>
       <use xlink:href="#mf3ad012fc2" x="203.380417" y="137.572959" style="stroke: #000000; stroke-width: 0.7"/>
      </g>
     </g>
     <g id="text_16">
      <!-- 0.25 -->
      <g transform="translate(180.181198 140.422373) scale(0.075 -0.075)">
       <defs>
        <path id="DejaVuSans-32" d="M 1228 531 
L 3431 531 
L 3431 0 
L 469 0 
L 469 531 
Q 828 903 1448 1529 
Q 2069 2156 2228 2338 
Q 2531 2678 2651 2914 
Q 2772 3150 2772 3378 
Q 2772 3750 2511 3984 
Q 2250 4219 1831 4219 
Q 1534 4219 1204 4116 
Q 875 4013 500 3803 
L 500 4441 
Q 881 4594 1212 4672 
Q 1544 4750 1819 4750 
Q 2544 4750 2975 4387 
Q 3406 4025 3406 3419 
Q 3406 3131 3298 2873 
Q 3191 2616 2906 2266 
Q 2828 2175 2409 1742 
Q 1991 1309 1228 531 
z
" transform="scale(0.015625)"/>
       </defs>
       <use xlink:href="#DejaVuSans-30"/>
       <use xlink:href="#DejaVuSans-2e" transform="translate(63.623047 0)"/>
       <use xlink:href="#DejaVuSans-32" transform="translate(95.410156 0)"/>
       <use xlink:href="#DejaVuSans-35" transform="translate(159.033203 0)"/>
      </g>
     </g>
    </g>
    <g id="ytick_5">
     <g id="line2d_14">
      <g>
       <use xlink:href="#mf3ad012fc2" x="203.380417" y="120.165874" style="stroke: #000000; stroke-width: 0.7"/>
      </g>
     </g>
     <g id="text_17">
      <!-- 0.50 -->
      <g transform="translate(180.181198 123.015288) scale(0.075 -0.075)">
       <use xlink:href="#DejaVuSans-30"/>
       <use xlink:href="#DejaVuSans-2e" transform="translate(63.623047 0)"/>
       <use xlink:href="#DejaVuSans-35" transform="translate(95.410156 0)"/>
       <use xlink:href="#DejaVuSans-30" transform="translate(159.033203 0)"/>
      </g>
     </g>
    </g>
    <g id="ytick_6">
     <g id="line2d_15">
      <g>
       <use xlink:href="#mf3ad012fc2" x="203.380417" y="102.758789" style="stroke: #000000; stroke-width: 0.7"/>
      </g>
     </g>
     <g id="text_18">
      <!-- 0.75 -->
      <g transform="translate(180.181198 105.608203) scale(0.075 -0.075)">
       <defs>
        <path id="DejaVuSans-37" d="M 525 4666 
L 3525 4666 
L 3525 4397 
L 1831 0 
L 1172 0 
L 2766 4134 
L 525 4134 
L 525 4666 
z
" transform="scale(0.015625)"/>
       </defs>
       <use xlink:href="#DejaVuSans-30"/>
       <use xlink:href="#DejaVuSans-2e" transform="translate(63.623047 0)"/>
       <use xlink:href="#DejaVuSans-37" transform="translate(95.410156 0)"/>
       <use xlink:href="#DejaVuSans-35" transform="translate(159.033203 0)"/>
      </g>
     </g>
    </g>
    <g id="ytick_7">
     <g id="line2d_16">
      <g>
       <use xlink:href="#mf3ad012fc2" x="203.380417" y="85.351704" style="stroke: #000000; stroke-width: 0.7"/>
      </g>
     </g>
     <g id="text_19">
      <!-- 1.00 -->
      <g transform="translate(180.181198 88.201118) scale(0.075 -0.075)">
       <use xlink:href="#DejaVuSans-31"/>
       <use xlink:href="#DejaVuSans-2e" transform="translate(63.623047 0)"/>
       <use xlink:href="#DejaVuSans-30" transform="translate(95.410156 0)"/>
       <use xlink:href="#DejaVuSans-30" transform="translate(159.033203 0)"/>
      </g>
     </g>
    </g>
    <g id="ytick_8">
     <g id="line2d_17">
      <g>
       <use xlink:href="#mf3ad012fc2" x="203.380417" y="67.944619" style="stroke: #000000; stroke-width: 0.7"/>
      </g>
     </g>
     <g id="text_20">
      <!-- 1.25 -->
      <g transform="translate(180.181198 70.794033) scale(0.075 -0.075)">
       <use xlink:href="#DejaVuSans-31"/>
       <use xlink:href="#DejaVuSans-2e" transform="translate(63.623047 0)"/>
       <use xlink:href="#DejaVuSans-32" transform="translate(95.410156 0)"/>
       <use xlink:href="#DejaVuSans-35" transform="translate(159.033203 0)"/>
      </g>
     </g>
    </g>
   </g>
   <g id="line2d_18">
    <path d="M 209.648902 58.489091 
L 210.3454 69.093487 
L 211.041898 74.273835 
L 211.738396 77.191263 
L 212.434895 80.94423 
L 213.131393 83.235003 
L 213.827891 81.069561 
L 214.52439 73.751623 
L 215.220888 70.520868 
L 216.613885 74.796048 
L 217.310383 82.141838 
L 218.006881 93.324149 
L 218.70338 98.427907 
L 220.096376 88.394463 
L 220.792875 89.042006 
L 221.489373 84.2098 
L 222.185871 81.731031 
L 222.88237 90.594718 
L 223.578868 88.589422 
L 224.275366 91.291002 
L 224.971864 101.254817 
L 225.668363 101.045932 
L 226.364861 96.812529 
L 227.061359 104.478609 
L 227.757858 109.498813 
L 228.454356 100.990229 
L 229.150854 102.918934 
L 229.847353 112.583348 
L 230.543851 111.685142 
L 231.240349 108.322094 
L 231.936848 114.832343 
L 232.633346 122.547163 
L 233.329844 118.856861 
L 234.026343 116.398981 
L 234.722841 122.902268 
L 235.419339 125.729178 
L 236.115838 120.64631 
L 236.812336 117.756734 
L 237.508834 121.398296 
L 238.205332 122.303464 
L 238.901831 115.814103 
L 239.598329 112.304835 
L 240.294827 114.992489 
L 240.991326 114.463313 
L 241.687824 106.351612 
L 242.384322 103.91462 
L 243.080821 107.932175 
L 243.777319 104.269724 
L 244.473817 95.552256 
L 245.170316 95.914323 
L 245.866814 99.019747 
L 246.563312 91.416333 
L 247.259811 85.755549 
L 247.956309 91.472035 
L 248.652807 91.666995 
L 249.349306 81.201855 
L 250.045804 80.213133 
L 250.742302 86.577163 
L 252.135299 72.721124 
L 252.831797 77.212151 
L 253.528295 78.876269 
L 254.224794 73.097117 
L 254.921292 71.460851 
L 255.61779 78.63257 
L 256.314289 81.703179 
L 257.010787 82.462128 
L 257.707285 94.452128 
L 258.403784 103.615218 
L 259.100282 108.628458 
L 259.79678 116.22491 
L 261.189777 126.474202 
L 261.886275 129.036525 
L 262.582774 128.73016 
L 263.279272 128.883342 
L 263.97577 128.430758 
L 264.672269 126.787529 
L 265.368767 122.540201 
L 266.065265 119.065746 
L 266.761763 116.872454 
L 267.458262 110.933156 
L 268.15476 116.120468 
L 268.851258 114.156948 
L 269.547757 110.807825 
L 270.244255 101.101635 
L 270.940753 95.085746 
L 271.637252 84.439573 
L 272.33375 86.486646 
L 273.726747 89.264817 
L 274.423245 90.093394 
L 275.119743 88.255206 
L 275.816242 92.857639 
L 276.51274 101.665624 
L 277.209238 103.364556 
L 277.905737 105.885102 
L 279.298733 122.519312 
L 279.995231 127.448998 
L 280.69173 127.824991 
L 281.388228 118.641014 
L 282.084726 111.761734 
L 282.781225 102.006803 
L 283.477723 101.818807 
L 284.174221 111.94973 
L 284.87072 120.332982 
L 285.567218 130.832936 
L 286.263716 132.678087 
L 286.960215 134.961896 
L 287.656713 133.109782 
L 288.353211 125.457628 
L 289.04971 121.259039 
L 289.746208 113.606885 
L 290.442706 113.474591 
L 291.139205 110.738197 
L 291.835703 113.648662 
L 292.532201 107.813807 
L 293.228699 109.71466 
L 293.925198 117.84725 
L 294.621696 114.331019 
L 295.318194 107.396037 
L 296.014693 111.880102 
L 296.711191 113.363185 
L 297.407689 103.921583 
L 298.104188 100.078098 
L 298.800686 103.629143 
L 299.497184 101.853621 
L 300.890181 120.896972 
L 301.586679 127.504701 
L 302.283178 132.093209 
L 302.979676 128.890305 
L 303.676174 126.947674 
L 304.372673 120.50009 
L 305.069171 120.256391 
L 305.765669 123.285224 
L 307.158666 110.863528 
L 307.855164 115.619144 
L 308.551662 118.341612 
L 309.248161 127.490775 
L 309.944659 125.1443 
L 310.641157 124.246095 
L 311.337656 132.455276 
L 312.034154 135.317001 
L 312.730652 128.58394 
L 313.427151 124.448017 
L 314.123649 130.589237 
L 314.820147 131.84951 
L 315.516646 129.496072 
L 316.909642 119.755067 
L 317.606141 118.174504 
L 318.302639 121.746437 
L 318.999137 123.069376 
L 319.695636 127.017303 
L 320.392134 118.425166 
L 321.088632 108.085357 
L 321.78513 103.650032 
L 322.481629 102.807529 
L 323.178127 96.624533 
L 323.874625 102.285317 
L 324.571124 105.759771 
L 325.267622 96.930897 
L 325.96412 94.152726 
L 326.660619 100.196466 
L 327.357117 99.841362 
L 328.053615 103.789289 
L 328.750114 93.484294 
L 329.446612 92.788011 
L 330.14311 101.874509 
L 330.839609 108.04358 
L 331.536107 119.420851 
L 332.232605 128.68142 
L 332.929104 135.915805 
L 333.625602 136.270909 
L 334.3221 129.09919 
L 335.018598 119.156263 
L 335.018598 119.156263 
" clip-path="url(#p1a3fb9b968)" style="fill: none; stroke-dasharray: 4.255,1.84; stroke-dashoffset: 0; stroke: #cc79a7; stroke-width: 1.15"/>
   </g>
   <g id="patch_6">
    <path d="M 203.380417 140.16 
L 203.380417 54.6 
" style="fill: none; stroke: #000000; stroke-width: 0.8; stroke-linejoin: miter; stroke-linecap: square"/>
   </g>
   <g id="patch_7">
    <path d="M 203.380417 140.16 
L 341.287083 140.16 
" style="fill: none; stroke: #000000; stroke-width: 0.8; stroke-linejoin: miter; stroke-linecap: square"/>
   </g>
   <g id="text_21">
    <!-- rep2 -->
    <g transform="translate(261.5275 48.6) scale(0.095 -0.095)">
     <use xlink:href="#DejaVuSans-72"/>
     <use xlink:href="#DejaVuSans-65" transform="translate(38.863281 0)"/>
     <use xlink:href="#DejaVuSans-70" transform="translate(100.386719 0)"/>
     <use xlink:href="#DejaVuSans-32" transform="translate(163.863281 0)"/>
    </g>
   </g>
  </g>
  <g id="axes_3">
   <g id="patch_8">
    <path d="M 368.907083 140.16 
L 506.81375 140.16 
L 506.81375 54.6 
L 368.907083 54.6 
z
" style="fill: #ffffff"/>
   </g>
   <g id="matplotlib.axis_5">
    <g id="xtick_9">
     <g id="line2d_19">
      <g>
       <use xlink:href="#m8ac948ba8c" x="374.47907" y="140.16" style="stroke: #000000; stroke-width: 0.7"/>
      </g>
     </g>
     <g id="text_22">
      <!-- 0 -->
      <g transform="translate(372.093132 152.358828) scale(0.075 -0.075)">
       <use xlink:href="#DejaVuSans-30"/>
      </g>
     </g>
    </g>
    <g id="xtick_10">
     <g id="line2d_20">
      <g>
       <use xlink:href="#m8ac948ba8c" x="409.303986" y="140.16" style="stroke: #000000; stroke-width: 0.7"/>
      </g>
     </g>
     <g id="text_23">
      <!-- 50 -->
      <g transform="translate(404.532111 152.358828) scale(0.075 -0.075)">
       <use xlink:href="#DejaVuSans-35"/>
       <use xlink:href="#DejaVuSans-30" transform="translate(63.623047 0)"/>
      </g>
     </g>
    </g>
    <g id="xtick_11">
     <g id="line2d_21">
      <g>
       <use xlink:href="#m8ac948ba8c" x="444.128902" y="140.16" style="stroke: #000000; stroke-width: 0.7"/>
      </g>
     </g>
     <g id="text_24">
      <!-- 100 -->
      <g transform="translate(436.971089 152.358828) scale(0.075 -0.075)">
       <use xlink:href="#DejaVuSans-31"/>
       <use xlink:href="#DejaVuSans-30" transform="translate(63.623047 0)"/>
       <use xlink:href="#DejaVuSans-30" transform="translate(127.246094 0)"/>
      </g>
     </g>
    </g>
    <g id="xtick_12">
     <g id="line2d_22">
      <g>
       <use xlink:href="#m8ac948ba8c" x="478.953817" y="140.16" style="stroke: #000000; stroke-width: 0.7"/>
      </g>
     </g>
     <g id="text_25">
      <!-- 150 -->
      <g transform="translate(471.796005 152.358828) scale(0.075 -0.075)">
       <use xlink:href="#DejaVuSans-31"/>
       <use xlink:href="#DejaVuSans-35" transform="translate(63.623047 0)"/>
       <use xlink:href="#DejaVuSans-30" transform="translate(127.246094 0)"/>
      </g>
     </g>
    </g>
    <g id="text_26">
     <!-- Residue index -->
     <g transform="translate(408.103112 164.377266) scale(0.085 -0.085)">
      <use xlink:href="#DejaVuSans-52"/>
      <use xlink:href="#DejaVuSans-65" transform="translate(64.982422 0)"/>
      <use xlink:href="#DejaVuSans-73" transform="translate(126.505859 0)"/>
      <use xlink:href="#DejaVuSans-69" transform="translate(178.605469 0)"/>
      <use xlink:href="#DejaVuSans-64" transform="translate(206.388672 0)"/>
      <use xlink:href="#DejaVuSans-75" transform="translate(269.865234 0)"/>
      <use xlink:href="#DejaVuSans-65" transform="translate(333.244141 0)"/>
      <use xlink:href="#DejaVuSans-20" transform="translate(394.767578 0)"/>
      <use xlink:href="#DejaVuSans-69" transform="translate(426.554688 0)"/>
      <use xlink:href="#DejaVuSans-6e" transform="translate(454.337891 0)"/>
      <use xlink:href="#DejaVuSans-64" transform="translate(517.716797 0)"/>
      <use xlink:href="#DejaVuSans-65" transform="translate(581.193359 0)"/>
      <use xlink:href="#DejaVuSans-78" transform="translate(640.966797 0)"/>
     </g>
    </g>
   </g>
   <g id="matplotlib.axis_6">
    <g id="ytick_9">
     <g id="line2d_23">
      <g>
       <use xlink:href="#mf3ad012fc2" x="368.907083" y="121.531765" style="stroke: #000000; stroke-width: 0.7"/>
      </g>
     </g>
     <g id="text_27">
      <!-- 0.5 -->
      <g transform="translate(350.47974 124.381179) scale(0.075 -0.075)">
       <use xlink:href="#DejaVuSans-30"/>
       <use xlink:href="#DejaVuSans-2e" transform="translate(63.623047 0)"/>
       <use xlink:href="#DejaVuSans-35" transform="translate(95.410156 0)"/>
      </g>
     </g>
    </g>
    <g id="ytick_10">
     <g id="line2d_24">
      <g>
       <use xlink:href="#mf3ad012fc2" x="368.907083" y="91.129241" style="stroke: #000000; stroke-width: 0.7"/>
      </g>
     </g>
     <g id="text_28">
      <!-- 1.0 -->
      <g transform="translate(350.47974 93.978655) scale(0.075 -0.075)">
       <use xlink:href="#DejaVuSans-31"/>
       <use xlink:href="#DejaVuSans-2e" transform="translate(63.623047 0)"/>
       <use xlink:href="#DejaVuSans-30" transform="translate(95.410156 0)"/>
      </g>
     </g>
    </g>
    <g id="ytick_11">
     <g id="line2d_25">
      <g>
       <use xlink:href="#mf3ad012fc2" x="368.907083" y="60.726717" style="stroke: #000000; stroke-width: 0.7"/>
      </g>
     </g>
     <g id="text_29">
      <!-- 1.5 -->
      <g transform="translate(350.47974 63.576131) scale(0.075 -0.075)">
       <use xlink:href="#DejaVuSans-31"/>
       <use xlink:href="#DejaVuSans-2e" transform="translate(63.623047 0)"/>
       <use xlink:href="#DejaVuSans-35" transform="translate(95.410156 0)"/>
      </g>
     </g>
    </g>
   </g>
   <g id="line2d_26">
    <path d="M 375.175568 58.489091 
L 375.872066 66.150527 
L 376.568565 80.415391 
L 377.265063 88.502463 
L 377.961561 95.294387 
L 378.65806 107.151371 
L 379.354558 112.92177 
L 380.051056 116.588315 
L 380.747555 119.239415 
L 381.444053 119.391428 
L 382.140551 119.938673 
L 382.83705 117.153802 
L 383.533548 116.320773 
L 384.230046 113.207554 
L 384.926545 112.544779 
L 385.623043 109.90584 
L 386.319541 111.638784 
L 387.01604 112.769758 
L 387.712538 118.740814 
L 388.409036 122.492485 
L 389.802033 125.630026 
L 391.195029 129.922862 
L 392.588026 132.288178 
L 393.284524 133.467796 
L 393.981023 134.130571 
L 394.677521 134.367711 
L 395.374019 135.364914 
L 396.070518 135.960803 
L 397.463514 132.963114 
L 398.160013 133.376589 
L 398.856511 131.449069 
L 399.553009 128.627714 
L 400.249508 127.460258 
L 400.946006 127.326486 
L 401.642504 125.757716 
L 402.339003 124.857801 
L 403.035501 126.086063 
L 403.731999 125.915809 
L 404.428497 124.207187 
L 405.124996 124.00045 
L 405.821494 124.882123 
L 406.517992 123.769391 
L 407.214491 122.43168 
L 407.910989 122.930281 
L 408.607487 122.966764 
L 409.303986 121.173016 
L 410.000484 120.394711 
L 410.696982 121.160855 
L 411.393481 120.589287 
L 412.089979 119.41575 
L 412.786477 120.540643 
L 413.482976 122.121574 
L 414.179474 120.941956 
L 414.875972 120.206215 
L 415.572471 122.443841 
L 416.268969 122.820832 
L 416.965467 120.595368 
L 417.661965 121.075727 
L 418.358464 123.453205 
L 419.054962 121.987803 
L 419.75146 119.762338 
L 420.447959 121.665536 
L 421.144457 122.832993 
L 421.840955 119.646809 
L 422.537454 118.771216 
L 423.233952 121.264223 
L 423.93045 119.847465 
L 424.626949 116.308612 
L 425.323447 117.713208 
L 426.019945 119.774499 
L 426.716444 117.761852 
L 427.412942 121.82971 
L 428.10944 126.76708 
L 428.805939 122.711383 
L 429.502437 122.79043 
L 430.198935 124.012611 
L 430.895434 119.458313 
L 431.591932 116.582234 
L 432.984928 111.47461 
L 435.074423 85.687189 
L 435.770922 75.605712 
L 436.46742 70.704825 
L 437.163918 63.134597 
L 437.860417 66.442391 
L 438.556915 65.0986 
L 439.253413 66.30254 
L 440.64641 85.906087 
L 441.342908 93.689134 
L 442.039407 95.446399 
L 442.735905 100.724278 
L 443.432403 103.296331 
L 444.128902 113.566304 
L 444.8254 116.64912 
L 445.521898 127.083266 
L 446.218396 129.217523 
L 447.611393 109.863276 
L 448.307891 97.112458 
L 449.00439 95.865954 
L 449.700888 107.625651 
L 450.397386 115.962023 
L 451.093885 127.995342 
L 451.790383 128.645956 
L 452.486881 127.210957 
L 453.18338 120.206215 
L 453.879878 109.693022 
L 454.576376 106.373067 
L 455.272875 101.076947 
L 455.969373 104.913746 
L 456.665871 105.777177 
L 457.36237 113.171071 
L 458.058868 109.218743 
L 458.755366 107.765502 
L 459.451864 117.086916 
L 460.148363 118.917148 
L 460.844861 110.106497 
L 461.541359 110.98817 
L 462.237858 116.940984 
L 462.934356 110.75103 
L 463.630854 102.457222 
L 464.327353 106.902071 
L 465.023851 110.568615 
L 466.416848 130.153921 
L 467.113346 135.07305 
L 467.809844 134.635253 
L 469.899339 109.954484 
L 471.292336 117.062594 
L 471.988834 106.044719 
L 472.685332 102.262645 
L 473.381831 108.890396 
L 474.078329 113.475096 
L 474.774827 123.781552 
L 475.471326 121.446638 
L 476.167824 121.957401 
L 476.864322 131.880785 
L 477.560821 131.601081 
L 478.257319 123.064053 
L 478.953817 117.664564 
L 479.650316 124.705789 
L 480.346814 128.402736 
L 481.739811 126.505618 
L 482.436309 117.688886 
L 483.132807 114.630392 
L 483.829306 114.48446 
L 484.525804 113.171071 
L 485.222302 116.606556 
L 487.311797 87.322845 
L 488.008295 88.642315 
L 488.704794 80.348506 
L 489.401292 79.491155 
L 490.09779 87.900493 
L 491.490787 72.054697 
L 492.187285 77.819016 
L 492.883784 81.218018 
L 493.580282 92.612884 
L 494.27678 90.806974 
L 494.973279 85.900007 
L 495.669777 94.394472 
L 496.366275 99.79396 
L 497.759272 120.564965 
L 498.45577 129.424261 
L 499.152269 136.270909 
L 500.545265 125.80636 
L 500.545265 125.80636 
" clip-path="url(#p080dd20b0f)" style="fill: none; stroke-dasharray: 7.36,1.84,1.15,1.84; stroke-dashoffset: 0; stroke: #f0e442; stroke-width: 1.15"/>
   </g>
   <g id="patch_9">
    <path d="M 368.907083 140.16 
L 368.907083 54.6 
" style="fill: none; stroke: #000000; stroke-width: 0.8; stroke-linejoin: miter; stroke-linecap: square"/>
   </g>
   <g id="patch_10">
    <path d="M 368.907083 140.16 
L 506.81375 140.16 
" style="fill: none; stroke: #000000; stroke-width: 0.8; stroke-linejoin: miter; stroke-linecap: square"/>
   </g>
   <g id="text_30">
    <!-- rep3 -->
    <g transform="translate(427.054167 48.6) scale(0.095 -0.095)">
     <defs>
      <path id="DejaVuSans-33" d="M 2597 2516 
Q 3050 2419 3304 2112 
Q 3559 1806 3559 1356 
Q 3559 666 3084 287 
Q 2609 -91 1734 -91 
Q 1441 -91 1130 -33 
Q 819 25 488 141 
L 488 750 
Q 750 597 1062 519 
Q 1375 441 1716 441 
Q 2309 441 2620 675 
Q 2931 909 2931 1356 
Q 2931 1769 2642 2001 
Q 2353 2234 1838 2234 
L 1294 2234 
L 1294 2753 
L 1863 2753 
Q 2328 2753 2575 2939 
Q 2822 3125 2822 3475 
Q 2822 3834 2567 4026 
Q 2313 4219 1838 4219 
Q 1578 4219 1281 4162 
Q 984 4106 628 3988 
L 628 4550 
Q 988 4650 1302 4700 
Q 1616 4750 1894 4750 
Q 2613 4750 3031 4423 
Q 3450 4097 3450 3541 
Q 3450 3153 3228 2886 
Q 3006 2619 2597 2516 
z
" transform="scale(0.015625)"/>
     </defs>
     <use xlink:href="#DejaVuSans-72"/>
     <use xlink:href="#DejaVuSans-65" transform="translate(38.863281 0)"/>
     <use xlink:href="#DejaVuSans-70" transform="translate(100.386719 0)"/>
     <use xlink:href="#DejaVuSans-33" transform="translate(163.863281 0)"/>
    </g>
   </g>
  </g>
  <g id="text_31">
   <!-- drugs3523 | Protein backbone RMSF -->
   <g transform="translate(170.659922 14.460078) scale(0.095 -0.095)">
    <defs>
     <path id="DejaVuSans-67" d="M 2906 1791 
Q 2906 2416 2648 2759 
Q 2391 3103 1925 3103 
Q 1463 3103 1205 2759 
Q 947 2416 947 1791 
Q 947 1169 1205 825 
Q 1463 481 1925 481 
Q 2391 481 2648 825 
Q 2906 1169 2906 1791 
z
M 3481 434 
Q 3481 -459 3084 -895 
Q 2688 -1331 1869 -1331 
Q 1566 -1331 1297 -1286 
Q 1028 -1241 775 -1147 
L 775 -588 
Q 1028 -725 1275 -790 
Q 1522 -856 1778 -856 
Q 2344 -856 2625 -561 
Q 2906 -266 2906 331 
L 2906 616 
Q 2728 306 2450 153 
Q 2172 0 1784 0 
Q 1141 0 747 490 
Q 353 981 353 1791 
Q 353 2603 747 3093 
Q 1141 3584 1784 3584 
Q 2172 3584 2450 3431 
Q 2728 3278 2906 2969 
L 2906 3500 
L 3481 3500 
L 3481 434 
z
" transform="scale(0.015625)"/>
     <path id="DejaVuSans-7c" d="M 1344 4891 
L 1344 -1509 
L 813 -1509 
L 813 4891 
L 1344 4891 
z
" transform="scale(0.015625)"/>
     <path id="DejaVuSans-50" d="M 1259 4147 
L 1259 2394 
L 2053 2394 
Q 2494 2394 2734 2622 
Q 2975 2850 2975 3272 
Q 2975 3691 2734 3919 
Q 2494 4147 2053 4147 
L 1259 4147 
z
M 628 4666 
L 2053 4666 
Q 2838 4666 3239 4311 
Q 3641 3956 3641 3272 
Q 3641 2581 3239 2228 
Q 2838 1875 2053 1875 
L 1259 1875 
L 1259 0 
L 628 0 
L 628 4666 
z
" transform="scale(0.015625)"/>
     <path id="DejaVuSans-74" d="M 1172 4494 
L 1172 3500 
L 2356 3500 
L 2356 3053 
L 1172 3053 
L 1172 1153 
Q 1172 725 1289 603 
Q 1406 481 1766 481 
L 2356 481 
L 2356 0 
L 1766 0 
Q 1100 0 847 248 
Q 594 497 594 1153 
L 594 3053 
L 172 3053 
L 172 3500 
L 594 3500 
L 594 4494 
L 1172 4494 
z
" transform="scale(0.015625)"/>
    </defs>
    <use xlink:href="#DejaVuSans-64"/>
    <use xlink:href="#DejaVuSans-72" transform="translate(63.476562 0)"/>
    <use xlink:href="#DejaVuSans-75" transform="translate(104.589844 0)"/>
    <use xlink:href="#DejaVuSans-67" transform="translate(167.96875 0)"/>
    <use xlink:href="#DejaVuSans-73" transform="translate(231.445312 0)"/>
    <use xlink:href="#DejaVuSans-33" transform="translate(283.544922 0)"/>
    <use xlink:href="#DejaVuSans-35" transform="translate(347.167969 0)"/>
    <use xlink:href="#DejaVuSans-32" transform="translate(410.791016 0)"/>
    <use xlink:href="#DejaVuSans-33" transform="translate(474.414062 0)"/>
    <use xlink:href="#DejaVuSans-20" transform="translate(538.037109 0)"/>
    <use xlink:href="#DejaVuSans-7c" transform="translate(569.824219 0)"/>
    <use xlink:href="#DejaVuSans-20" transform="translate(603.515625 0)"/>
    <use xlink:href="#DejaVuSans-50" transform="translate(635.302734 0)"/>
    <use xlink:href="#DejaVuSans-72" transform="translate(693.855469 0)"/>
    <use xlink:href="#DejaVuSans-6f" transform="translate(732.71875 0)"/>
    <use xlink:href="#DejaVuSans-74" transform="translate(793.900391 0)"/>
    <use xlink:href="#DejaVuSans-65" transform="translate(833.109375 0)"/>
    <use xlink:href="#DejaVuSans-69" transform="translate(894.632812 0)"/>
    <use xlink:href="#DejaVuSans-6e" transform="translate(922.416016 0)"/>
    <use xlink:href="#DejaVuSans-20" transform="translate(985.794922 0)"/>
    <use xlink:href="#DejaVuSans-62" transform="translate(1017.582031 0)"/>
    <use xlink:href="#DejaVuSans-61" transform="translate(1081.058594 0)"/>
    <use xlink:href="#DejaVuSans-63" transform="translate(1142.337891 0)"/>
    <use xlink:href="#DejaVuSans-6b" transform="translate(1197.318359 0)"/>
    <use xlink:href="#DejaVuSans-62" transform="translate(1255.228516 0)"/>
    <use xlink:href="#DejaVuSans-6f" transform="translate(1318.705078 0)"/>
    <use xlink:href="#DejaVuSans-6e" transform="translate(1379.886719 0)"/>
    <use xlink:href="#DejaVuSans-65" transform="translate(1443.265625 0)"/>
    <use xlink:href="#DejaVuSans-20" transform="translate(1504.789062 0)"/>
    <use xlink:href="#DejaVuSans-52" transform="translate(1536.576172 0)"/>
    <use xlink:href="#DejaVuSans-4d" transform="translate(1606.058594 0)"/>
    <use xlink:href="#DejaVuSans-53" transform="translate(1692.337891 0)"/>
    <use xlink:href="#DejaVuSans-46" transform="translate(1755.814453 0)"/>
   </g>
  </g>
 </g>
 <defs>
  <clipPath id="pfdfb5d9be4">
   <rect x="37.85375" y="54.6" width="137.906667" height="85.56"/>
  </clipPath>
  <clipPath id="p1a3fb9b968">
   <rect x="203.380417" y="54.6" width="137.906667" height="85.56"/>
  </clipPath>
  <clipPath id="p080dd20b0f">
   <rect x="368.907083" y="54.6" width="137.906667" height="85.56"/>
  </clipPath>
 </defs>
</svg>
