<?xml version="1.0" encoding="utf-8" standalone="no"?>
<!DOCTYPE svg PUBLIC "-//W3C//DTD SVG 1.1//EN"
  "http://www.w3.org/Graphics/SVG/1.1/DTD/svg11.dtd">
<svg xmlns:xlink="http://www.w3.org/1999/xlink" width="509.21375pt" height="173.345pt" viewBox="0 0 509.21375 173.345" xmlns="http://www.w3.org/2000/svg" version="1.1">
 <metadata>
  <rdf:RDF xmlns:dc="http://purl.org/dc/elements/1.1/" xmlns:cc="http://creativecommons.org/ns#" xmlns:rdf="http://www.w3.org/1999/02/22-rdf-syntax-ns#">
   <cc:Work>
    <dc:type rdf:resource="http://purl.org/dc/dcmitype/StillImage"/>
    <dc:date>2026-05-24T13:54:04.979003</dc:date>
    <dc:format>image/svg+xml</dc:format>
    <dc:creator>
     <cc:Agent>
      <dc:title>Matplotlib v3.10.9, https://matplotlib.org/</dc:title>
     </cc:Agent>
    </dc:creator>
   </cc:Work>
  </rdf:RDF>
 </metadata>
 <defs>
  <style type="text/css">*{stroke-linejoin: round; stroke-linecap: butt}</style>
 </defs>
 <g id="figure_1">
  <g id="patch_1">
   <path d="M 0 173.345 
L 509.21375 173.345 
L 509.21375 -0 
L 0 -0 
z
" style="fill: #ffffff"/>
  </g>
  <g id="axes_1">
   <g id="patch_2">
    <path d="M 37.85375 140.16 
L 174.160417 140.16 
L 174.160417 54.6 
L 37.85375 54.6 
z
" style="fill: #ffffff"/>
   </g>
   <g id="matplotlib.axis_1">
    <g id="xtick_1">
     <g id="line2d_1">
      <defs>
       <path id="mb7e90c5f0b" d="M 0 0 
L 0 3 
" style="stroke: #000000; stroke-width: 0.7"/>
      </defs>
      <g>
       <use xlink:href="#mb7e90c5f0b" x="43.36109" y="140.16" style="stroke: #000000; stroke-width: 0.7"/>
      </g>
     </g>
     <g id="text_1">
      <!-- 0 -->
      <g transform="translate(40.975153 152.358828) scale(0.075 -0.075)">
       <defs>
        <path id="DejaVuSans-30" d="M 2034 4250 
Q 1547 4250 1301 3770 
Q 1056 3291 1056 2328 
Q 1056 1369 1301 889 
Q 1547 409 2034 409 
Q 2525 409 2770 889 
Q 3016 1369 3016 2328 
Q 3016 3291 2770 3770 
Q 2525 4250 2034 4250 
z
M 2034 4750 
Q 2819 4750 3233 4129 
Q 3647 3509 3647 2328 
Q 3647 1150 3233 529 
Q 2819 -91 2034 -91 
Q 1250 -91 836 529 
Q 422 1150 422 2328 
Q 422 3509 836 4129 
Q 1250 4750 2034 4750 
z
" transform="scale(0.015625)"/>
       </defs>
       <use xlink:href="#DejaVuSans-30"/>
      </g>
     </g>
    </g>
    <g id="xtick_2">
     <g id="line2d_2">
      <g>
       <use xlink:href="#mb7e90c5f0b" x="77.781965" y="140.16" style="stroke: #000000; stroke-width: 0.7"/>
      </g>
     </g>
     <g id="text_2">
      <!-- 50 -->
      <g transform="translate(73.01009 152.358828) scale(0.075 -0.075)">
       <defs>
        <path id="DejaVuSans-35" d="M 691 4666 
L 3169 4666 
L 3169 4134 
L 1269 4134 
L 1269 2991 
Q 1406 3038 1543 3061 
Q 1681 3084 1819 3084 
Q 2600 3084 3056 2656 
Q 3513 2228 3513 1497 
Q 3513 744 3044 326 
Q 2575 -91 1722 -91 
Q 1428 -91 1123 -41 
Q 819 9 494 109 
L 494 744 
Q 775 591 1075 516 
Q 1375 441 1709 441 
Q 2250 441 2565 725 
Q 2881 1009 2881 1497 
Q 2881 1984 2565 2268 
Q 2250 2553 1709 2553 
Q 1456 2553 1204 2497 
Q 953 2441 691 2322 
L 691 4666 
z
" transform="scale(0.015625)"/>
       </defs>
       <use xlink:href="#DejaVuSans-35"/>
       <use xlink:href="#DejaVuSans-30" transform="translate(63.623047 0)"/>
      </g>
     </g>
    </g>
    <g id="xtick_3">
     <g id="line2d_3">
      <g>
       <use xlink:href="#mb7e90c5f0b" x="112.202841" y="140.16" style="stroke: #000000; stroke-width: 0.7"/>
      </g>
     </g>
     <g id="text_3">
      <!-- 100 -->
      <g transform="translate(105.045028 152.358828) scale(0.075 -0.075)">
       <defs>
        <path id="DejaVuSans-31" d="M 794 531 
L 1825 531 
L 1825 4091 
L 703 3866 
L 703 4441 
L 1819 4666 
L 2450 4666 
L 2450 531 
L 3481 531 
L 3481 0 
L 794 0 
L 794 531 
z
" transform="scale(0.015625)"/>
       </defs>
       <use xlink:href="#DejaVuSans-31"/>
       <use xlink:href="#DejaVuSans-30" transform="translate(63.623047 0)"/>
       <use xlink:href="#DejaVuSans-30" transform="translate(127.246094 0)"/>
      </g>
     </g>
    </g>
    <g id="xtick_4">
     <g id="line2d_4">
      <g>
       <use xlink:href="#mb7e90c5f0b" x="146.623716" y="140.16" style="stroke: #000000; stroke-width: 0.7"/>
      </g>
     </g>
     <g id="text_4">
      <!-- 150 -->
      <g transform="translate(139.465904 152.358828) scale(0.075 -0.075)">
       <use xlink:href="#DejaVuSans-31"/>
       <use xlink:href="#DejaVuSans-35" transform="translate(63.623047 0)"/>
       <use xlink:href="#DejaVuSans-30" transform="translate(127.246094 0)"/>
      </g>
     </g>
    </g>
    <g id="text_5">
     <!-- Residue index -->
     <g transform="translate(76.249779 164.377266) scale(0.085 -0.085)">
      <defs>
       <path id="DejaVuSans-52" d="M 2841 2188 
Q 3044 2119 3236 1894 
Q 3428 1669 3622 1275 
L 4263 0 
L 3584 0 
L 2988 1197 
Q 2756 1666 2539 1819 
Q 2322 1972 1947 1972 
L 1259 1972 
L 1259 0 
L 628 0 
L 628 4666 
L 2053 4666 
Q 2853 4666 3247 4331 
Q 3641 3997 3641 3322 
Q 3641 2881 3436 2590 
Q 3231 2300 2841 2188 
z
M 1259 4147 
L 1259 2491 
L 2053 2491 
Q 2509 2491 2742 2702 
Q 2975 2913 2975 3322 
Q 2975 3731 2742 3939 
Q 2509 4147 2053 4147 
L 1259 4147 
z
" transform="scale(0.015625)"/>
       <path id="DejaVuSans-65" d="M 3597 1894 
L 3597 1613 
L 953 1613 
Q 991 1019 1311 708 
Q 1631 397 2203 397 
Q 2534 397 2845 478 
Q 3156 559 3463 722 
L 3463 178 
Q 3153 47 2828 -22 
Q 2503 -91 2169 -91 
Q 1331 -91 842 396 
Q 353 884 353 1716 
Q 353 2575 817 3079 
Q 1281 3584 2069 3584 
Q 2775 3584 3186 3129 
Q 3597 2675 3597 1894 
z
M 3022 2063 
Q 3016 2534 2758 2815 
Q 2500 3097 2075 3097 
Q 1594 3097 1305 2825 
Q 1016 2553 972 2059 
L 3022 2063 
z
" transform="scale(0.015625)"/>
       <path id="DejaVuSans-73" d="M 2834 3397 
L 2834 2853 
Q 2591 2978 2328 3040 
Q 2066 3103 1784 3103 
Q 1356 3103 1142 2972 
Q 928 2841 928 2578 
Q 928 2378 1081 2264 
Q 1234 2150 1697 2047 
L 1894 2003 
Q 2506 1872 2764 1633 
Q 3022 1394 3022 966 
Q 3022 478 2636 193 
Q 2250 -91 1575 -91 
Q 1294 -91 989 -36 
Q 684 19 347 128 
L 347 722 
Q 666 556 975 473 
Q 1284 391 1588 391 
Q 1994 391 2212 530 
Q 2431 669 2431 922 
Q 2431 1156 2273 1281 
Q 2116 1406 1581 1522 
L 1381 1569 
Q 847 1681 609 1914 
Q 372 2147 372 2553 
Q 372 3047 722 3315 
Q 1072 3584 1716 3584 
Q 2034 3584 2315 3537 
Q 2597 3491 2834 3397 
z
" transform="scale(0.015625)"/>
       <path id="DejaVuSans-69" d="M 603 3500 
L 1178 3500 
L 1178 0 
L 603 0 
L 603 3500 
z
M 603 4863 
L 1178 4863 
L 1178 4134 
L 603 4134 
L 603 4863 
z
" transform="scale(0.015625)"/>
       <path id="DejaVuSans-64" d="M 2906 2969 
L 2906 4863 
L 3481 4863 
L 3481 0 
L 2906 0 
L 2906 525 
Q 2725 213 2448 61 
Q 2172 -91 1784 -91 
Q 1150 -91 751 415 
Q 353 922 353 1747 
Q 353 2572 751 3078 
Q 1150 3584 1784 3584 
Q 2172 3584 2448 3432 
Q 2725 3281 2906 2969 
z
M 947 1747 
Q 947 1113 1208 752 
Q 1469 391 1925 391 
Q 2381 391 2643 752 
Q 2906 1113 2906 1747 
Q 2906 2381 2643 2742 
Q 2381 3103 1925 3103 
Q 1469 3103 1208 2742 
Q 947 2381 947 1747 
z
" transform="scale(0.015625)"/>
       <path id="DejaVuSans-75" d="M 544 1381 
L 544 3500 
L 1119 3500 
L 1119 1403 
Q 1119 906 1312 657 
Q 1506 409 1894 409 
Q 2359 409 2629 706 
Q 2900 1003 2900 1516 
L 2900 3500 
L 3475 3500 
L 3475 0 
L 2900 0 
L 2900 538 
Q 2691 219 2414 64 
Q 2138 -91 1772 -91 
Q 1169 -91 856 284 
Q 544 659 544 1381 
z
M 1991 3584 
L 1991 3584 
z
" transform="scale(0.015625)"/>
       <path id="DejaVuSans-20" transform="scale(0.015625)"/>
       <path id="DejaVuSans-6e" d="M 3513 2113 
L 3513 0 
L 2938 0 
L 2938 2094 
Q 2938 2591 2744 2837 
Q 2550 3084 2163 3084 
Q 1697 3084 1428 2787 
Q 1159 2491 1159 1978 
L 1159 0 
L 581 0 
L 581 3500 
L 1159 3500 
L 1159 2956 
Q 1366 3272 1645 3428 
Q 1925 3584 2291 3584 
Q 2894 3584 3203 3211 
Q 3513 2838 3513 2113 
z
" transform="scale(0.015625)"/>
       <path id="DejaVuSans-78" d="M 3513 3500 
L 2247 1797 
L 3578 0 
L 2900 0 
L 1881 1375 
L 863 0 
L 184 0 
L 1544 1831 
L 300 3500 
L 978 3500 
L 1906 2253 
L 2834 3500 
L 3513 3500 
z
" transform="scale(0.015625)"/>
      </defs>
      <use xlink:href="#DejaVuSans-52"/>
      <use xlink:href="#DejaVuSans-65" transform="translate(64.982422 0)"/>
      <use xlink:href="#DejaVuSans-73" transform="translate(126.505859 0)"/>
      <use xlink:href="#DejaVuSans-69" transform="translate(178.605469 0)"/>
      <use xlink:href="#DejaVuSans-64" transform="translate(206.388672 0)"/>
      <use xlink:href="#DejaVuSans-75" transform="translate(269.865234 0)"/>
      <use xlink:href="#DejaVuSans-65" transform="translate(333.244141 0)"/>
      <use xlink:href="#DejaVuSans-20" transform="translate(394.767578 0)"/>
      <use xlink:href="#DejaVuSans-69" transform="translate(426.554688 0)"/>
      <use xlink:href="#DejaVuSans-6e" transform="translate(454.337891 0)"/>
      <use xlink:href="#DejaVuSans-64" transform="translate(517.716797 0)"/>
      <use xlink:href="#DejaVuSans-65" transform="translate(581.193359 0)"/>
      <use xlink:href="#DejaVuSans-78" transform="translate(640.966797 0)"/>
     </g>
    </g>
   </g>
   <g id="matplotlib.axis_2">
    <g id="ytick_1">
     <g id="line2d_5">
      <defs>
       <path id="m1cb6b7010c" d="M 0 0 
L -3 0 
" style="stroke: #000000; stroke-width: 0.7"/>
      </defs>
      <g>
       <use xlink:href="#m1cb6b7010c" x="37.85375" y="126.65925" style="stroke: #000000; stroke-width: 0.7"/>
      </g>
     </g>
     <g id="text_6">
      <!-- 0.5 -->
      <g transform="translate(19.426406 129.508664) scale(0.075 -0.075)">
       <defs>
        <path id="DejaVuSans-2e" d="M 684 794 
L 1344 794 
L 1344 0 
L 684 0 
L 684 794 
z
" transform="scale(0.015625)"/>
       </defs>
       <use xlink:href="#DejaVuSans-30"/>
       <use xlink:href="#DejaVuSans-2e" transform="translate(63.623047 0)"/>
       <use xlink:href="#DejaVuSans-35" transform="translate(95.410156 0)"/>
      </g>
     </g>
    </g>
    <g id="ytick_2">
     <g id="line2d_6">
      <g>
       <use xlink:href="#m1cb6b7010c" x="37.85375" y="104.107259" style="stroke: #000000; stroke-width: 0.7"/>
      </g>
     </g>
     <g id="text_7">
      <!-- 1.0 -->
      <g transform="translate(19.426406 106.956673) scale(0.075 -0.075)">
       <use xlink:href="#DejaVuSans-31"/>
       <use xlink:href="#DejaVuSans-2e" transform="translate(63.623047 0)"/>
       <use xlink:href="#DejaVuSans-30" transform="translate(95.410156 0)"/>
      </g>
     </g>
    </g>
    <g id="ytick_3">
     <g id="line2d_7">
      <g>
       <use xlink:href="#m1cb6b7010c" x="37.85375" y="81.555268" style="stroke: #000000; stroke-width: 0.7"/>
      </g>
     </g>
     <g id="text_8">
      <!-- 1.5 -->
      <g transform="translate(19.426406 84.404682) scale(0.075 -0.075)">
       <use xlink:href="#DejaVuSans-31"/>
       <use xlink:href="#DejaVuSans-2e" transform="translate(63.623047 0)"/>
       <use xlink:href="#DejaVuSans-35" transform="translate(95.410156 0)"/>
      </g>
     </g>
    </g>
    <g id="ytick_4">
     <g id="line2d_8">
      <g>
       <use xlink:href="#m1cb6b7010c" x="37.85375" y="59.003276" style="stroke: #000000; stroke-width: 0.7"/>
      </g>
     </g>
     <g id="text_9">
      <!-- 2.0 -->
      <g transform="translate(19.426406 61.85269) scale(0.075 -0.075)">
       <defs>
        <path id="DejaVuSans-32" d="M 1228 531 
L 3431 531 
L 3431 0 
L 469 0 
L 469 531 
Q 828 903 1448 1529 
Q 2069 2156 2228 2338 
Q 2531 2678 2651 2914 
Q 2772 3150 2772 3378 
Q 2772 3750 2511 3984 
Q 2250 4219 1831 4219 
Q 1534 4219 1204 4116 
Q 875 4013 500 3803 
L 500 4441 
Q 881 4594 1212 4672 
Q 1544 4750 1819 4750 
Q 2544 4750 2975 4387 
Q 3406 4025 3406 3419 
Q 3406 3131 3298 2873 
Q 3191 2616 2906 2266 
Q 2828 2175 2409 1742 
Q 1991 1309 1228 531 
z
" transform="scale(0.015625)"/>
       </defs>
       <use xlink:href="#DejaVuSans-32"/>
       <use xlink:href="#DejaVuSans-2e" transform="translate(63.623047 0)"/>
       <use xlink:href="#DejaVuSans-30" transform="translate(95.410156 0)"/>
      </g>
     </g>
    </g>
    <g id="text_10">
     <!-- Backbone RMSF (nm) -->
     <g transform="translate(13.658672 142.91875) rotate(-90) scale(0.085 -0.085)">
      <defs>
       <path id="DejaVuSans-42" d="M 1259 2228 
L 1259 519 
L 2272 519 
Q 2781 519 3026 730 
Q 3272 941 3272 1375 
Q 3272 1813 3026 2020 
Q 2781 2228 2272 2228 
L 1259 2228 
z
M 1259 4147 
L 1259 2741 
L 2194 2741 
Q 2656 2741 2882 2914 
Q 3109 3088 3109 3444 
Q 3109 3797 2882 3972 
Q 2656 4147 2194 4147 
L 1259 4147 
z
M 628 4666 
L 2241 4666 
Q 2963 4666 3353 4366 
Q 3744 4066 3744 3513 
Q 3744 3084 3544 2831 
Q 3344 2578 2956 2516 
Q 3422 2416 3680 2098 
Q 3938 1781 3938 1306 
Q 3938 681 3513 340 
Q 3088 0 2303 0 
L 628 0 
L 628 4666 
z
" transform="scale(0.015625)"/>
       <path id="DejaVuSans-61" d="M 2194 1759 
Q 1497 1759 1228 1600 
Q 959 1441 959 1056 
Q 959 750 1161 570 
Q 1363 391 1709 391 
Q 2188 391 2477 730 
Q 2766 1069 2766 1631 
L 2766 1759 
L 2194 1759 
z
M 3341 1997 
L 3341 0 
L 2766 0 
L 2766 531 
Q 2569 213 2275 61 
Q 1981 -91 1556 -91 
Q 1019 -91 701 211 
Q 384 513 384 1019 
Q 384 1609 779 1909 
Q 1175 2209 1959 2209 
L 2766 2209 
L 2766 2266 
Q 2766 2663 2505 2880 
Q 2244 3097 1772 3097 
Q 1472 3097 1187 3025 
Q 903 2953 641 2809 
L 641 3341 
Q 956 3463 1253 3523 
Q 1550 3584 1831 3584 
Q 2591 3584 2966 3190 
Q 3341 2797 3341 1997 
z
" transform="scale(0.015625)"/>
       <path id="DejaVuSans-63" d="M 3122 3366 
L 3122 2828 
Q 2878 2963 2633 3030 
Q 2388 3097 2138 3097 
Q 1578 3097 1268 2742 
Q 959 2388 959 1747 
Q 959 1106 1268 751 
Q 1578 397 2138 397 
Q 2388 397 2633 464 
Q 2878 531 3122 666 
L 3122 134 
Q 2881 22 2623 -34 
Q 2366 -91 2075 -91 
Q 1284 -91 818 406 
Q 353 903 353 1747 
Q 353 2603 823 3093 
Q 1294 3584 2113 3584 
Q 2378 3584 2631 3529 
Q 2884 3475 3122 3366 
z
" transform="scale(0.015625)"/>
       <path id="DejaVuSans-6b" d="M 581 4863 
L 1159 4863 
L 1159 1991 
L 2875 3500 
L 3609 3500 
L 1753 1863 
L 3688 0 
L 2938 0 
L 1159 1709 
L 1159 0 
L 581 0 
L 581 4863 
z
" transform="scale(0.015625)"/>
       <path id="DejaVuSans-62" d="M 3116 1747 
Q 3116 2381 2855 2742 
Q 2594 3103 2138 3103 
Q 1681 3103 1420 2742 
Q 1159 2381 1159 1747 
Q 1159 1113 1420 752 
Q 1681 391 2138 391 
Q 2594 391 2855 752 
Q 3116 1113 3116 1747 
z
M 1159 2969 
Q 1341 3281 1617 3432 
Q 1894 3584 2278 3584 
Q 2916 3584 3314 3078 
Q 3713 2572 3713 1747 
Q 3713 922 3314 415 
Q 2916 -91 2278 -91 
Q 1894 -91 1617 61 
Q 1341 213 1159 525 
L 1159 0 
L 581 0 
L 581 4863 
L 1159 4863 
L 1159 2969 
z
" transform="scale(0.015625)"/>
       <path id="DejaVuSans-6f" d="M 1959 3097 
Q 1497 3097 1228 2736 
Q 959 2375 959 1747 
Q 959 1119 1226 758 
Q 1494 397 1959 397 
Q 2419 397 2687 759 
Q 2956 1122 2956 1747 
Q 2956 2369 2687 2733 
Q 2419 3097 1959 3097 
z
M 1959 3584 
Q 2709 3584 3137 3096 
Q 3566 2609 3566 1747 
Q 3566 888 3137 398 
Q 2709 -91 1959 -91 
Q 1206 -91 779 398 
Q 353 888 353 1747 
Q 353 2609 779 3096 
Q 1206 3584 1959 3584 
z
" transform="scale(0.015625)"/>
       <path id="DejaVuSans-4d" d="M 628 4666 
L 1569 4666 
L 2759 1491 
L 3956 4666 
L 4897 4666 
L 4897 0 
L 4281 0 
L 4281 4097 
L 3078 897 
L 2444 897 
L 1241 4097 
L 1241 0 
L 628 0 
L 628 4666 
z
" transform="scale(0.015625)"/>
       <path id="DejaVuSans-53" d="M 3425 4513 
L 3425 3897 
Q 3066 4069 2747 4153 
Q 2428 4238 2131 4238 
Q 1616 4238 1336 4038 
Q 1056 3838 1056 3469 
Q 1056 3159 1242 3001 
Q 1428 2844 1947 2747 
L 2328 2669 
Q 3034 2534 3370 2195 
Q 3706 1856 3706 1288 
Q 3706 609 3251 259 
Q 2797 -91 1919 -91 
Q 1588 -91 1214 -16 
Q 841 59 441 206 
L 441 856 
Q 825 641 1194 531 
Q 1563 422 1919 422 
Q 2459 422 2753 634 
Q 3047 847 3047 1241 
Q 3047 1584 2836 1778 
Q 2625 1972 2144 2069 
L 1759 2144 
Q 1053 2284 737 2584 
Q 422 2884 422 3419 
Q 422 4038 858 4394 
Q 1294 4750 2059 4750 
Q 2388 4750 2728 4690 
Q 3069 4631 3425 4513 
z
" transform="scale(0.015625)"/>
       <path id="DejaVuSans-46" d="M 628 4666 
L 3309 4666 
L 3309 4134 
L 1259 4134 
L 1259 2759 
L 3109 2759 
L 3109 2228 
L 1259 2228 
L 1259 0 
L 628 0 
L 628 4666 
z
" transform="scale(0.015625)"/>
       <path id="DejaVuSans-28" d="M 1984 4856 
Q 1566 4138 1362 3434 
Q 1159 2731 1159 2009 
Q 1159 1288 1364 580 
Q 1569 -128 1984 -844 
L 1484 -844 
Q 1016 -109 783 600 
Q 550 1309 550 2009 
Q 550 2706 781 3412 
Q 1013 4119 1484 4856 
L 1984 4856 
z
" transform="scale(0.015625)"/>
       <path id="DejaVuSans-6d" d="M 3328 2828 
Q 3544 3216 3844 3400 
Q 4144 3584 4550 3584 
Q 5097 3584 5394 3201 
Q 5691 2819 5691 2113 
L 5691 0 
L 5113 0 
L 5113 2094 
Q 5113 2597 4934 2840 
Q 4756 3084 4391 3084 
Q 3944 3084 3684 2787 
Q 3425 2491 3425 1978 
L 3425 0 
L 2847 0 
L 2847 2094 
Q 2847 2600 2669 2842 
Q 2491 3084 2119 3084 
Q 1678 3084 1418 2786 
Q 1159 2488 1159 1978 
L 1159 0 
L 581 0 
L 581 3500 
L 1159 3500 
L 1159 2956 
Q 1356 3278 1631 3431 
Q 1906 3584 2284 3584 
Q 2666 3584 2933 3390 
Q 3200 3197 3328 2828 
z
" transform="scale(0.015625)"/>
       <path id="DejaVuSans-29" d="M 513 4856 
L 1013 4856 
Q 1481 4119 1714 3412 
Q 1947 2706 1947 2009 
Q 1947 1309 1714 600 
Q 1481 -109 1013 -844 
L 513 -844 
Q 928 -128 1133 580 
Q 1338 1288 1338 2009 
Q 1338 2731 1133 3434 
Q 928 4138 513 4856 
z
" transform="scale(0.015625)"/>
      </defs>
      <use xlink:href="#DejaVuSans-42"/>
      <use xlink:href="#DejaVuSans-61" transform="translate(68.603516 0)"/>
      <use xlink:href="#DejaVuSans-63" transform="translate(129.882812 0)"/>
      <use xlink:href="#DejaVuSans-6b" transform="translate(184.863281 0)"/>
      <use xlink:href="#DejaVuSans-62" transform="translate(242.773438 0)"/>
      <use xlink:href="#DejaVuSans-6f" transform="translate(306.25 0)"/>
      <use xlink:href="#DejaVuSans-6e" transform="translate(367.431641 0)"/>
      <use xlink:href="#DejaVuSans-65" transform="translate(430.810547 0)"/>
      <use xlink:href="#DejaVuSans-20" transform="translate(492.333984 0)"/>
      <use xlink:href="#DejaVuSans-52" transform="translate(524.121094 0)"/>
      <use xlink:href="#DejaVuSans-4d" transform="translate(593.603516 0)"/>
      <use xlink:href="#DejaVuSans-53" transform="translate(679.882812 0)"/>
      <use xlink:href="#DejaVuSans-46" transform="translate(743.359375 0)"/>
      <use xlink:href="#DejaVuSans-20" transform="translate(800.878906 0)"/>
      <use xlink:href="#DejaVuSans-28" transform="translate(832.666016 0)"/>
      <use xlink:href="#DejaVuSans-6e" transform="translate(871.679688 0)"/>
      <use xlink:href="#DejaVuSans-6d" transform="translate(935.058594 0)"/>
      <use xlink:href="#DejaVuSans-29" transform="translate(1032.470703 0)"/>
     </g>
    </g>
   </g>
   <g id="line2d_9">
    <path d="M 44.049508 60.599957 
L 44.737925 67.234753 
L 45.426343 75.006169 
L 46.803178 82.024349 
L 47.491595 83.39551 
L 48.86843 82.362629 
L 49.556848 81.550757 
L 50.245265 81.686069 
L 50.933683 76.165342 
L 51.6221 72.561534 
L 52.998935 67.487335 
L 53.687353 68.948704 
L 54.37577 71.316664 
L 55.064188 68.67357 
L 55.752605 68.181937 
L 56.441023 69.674879 
L 57.12944 66.779203 
L 57.817858 61.294559 
L 58.506275 58.489091 
L 59.194693 69.440338 
L 60.571528 84.739609 
L 61.259945 88.14496 
L 61.948363 90.359565 
L 63.325198 101.337874 
L 64.013615 101.450634 
L 64.702033 107.535162 
L 65.39045 111.197605 
L 66.078868 108.933385 
L 66.767285 109.181457 
L 67.455703 114.115833 
L 68.14412 115.225391 
L 68.832538 113.037848 
L 69.520955 112.600339 
L 70.209373 115.094589 
L 70.89779 115.793701 
L 71.586208 112.446985 
L 72.274625 110.521045 
L 72.963043 112.771734 
L 73.65146 113.159628 
L 74.339878 107.458485 
L 75.028295 105.234859 
L 75.716713 108.919854 
L 76.40513 106.375989 
L 77.093548 99.204456 
L 77.781965 99.840422 
L 78.470383 103.502866 
L 79.847218 90.801584 
L 80.535636 96.187 
L 81.224053 102.690994 
L 81.912471 102.87141 
L 82.600888 101.640071 
L 83.977723 112.537193 
L 84.666141 110.291015 
L 85.354558 111.490781 
L 86.042976 118.61721 
L 86.731393 120.610806 
L 87.419811 118.355607 
L 88.108228 122.207487 
L 88.796646 129.004657 
L 90.173481 126.713375 
L 90.861898 131.900333 
L 91.550316 135.986754 
L 92.238733 132.590424 
L 92.927151 131.377127 
L 93.615568 135.242538 
L 94.303986 136.270909 
L 94.992403 132.518258 
L 95.680821 129.667686 
L 96.369238 130.411902 
L 97.057656 129.965372 
L 97.746073 124.61604 
L 98.434491 120.723566 
L 99.122908 120.940065 
L 99.811326 118.72997 
L 100.499743 111.400573 
L 101.188161 101.793425 
L 101.876578 99.064634 
L 102.564996 97.012403 
L 103.253413 98.478282 
L 103.941831 97.32362 
L 104.630248 98.288845 
L 105.318666 93.453698 
L 106.007083 99.240539 
L 107.383918 115.10361 
L 108.072336 119.009615 
L 108.760753 118.824689 
L 109.449171 119.668133 
L 110.137588 113.29043 
L 110.826006 114.399988 
L 111.514423 112.523662 
L 112.202841 118.355607 
L 113.579676 126.853198 
L 114.268093 127.263644 
L 115.644928 119.600477 
L 116.333346 113.28592 
L 117.021763 110.696951 
L 117.710181 116.632635 
L 118.398598 119.717747 
L 119.087016 125.730108 
L 119.775434 125.52263 
L 120.463851 128.513024 
L 121.840686 124.471707 
L 122.529104 119.988371 
L 123.217521 114.729247 
L 124.594356 106.529343 
L 125.282774 105.442337 
L 125.971191 102.023455 
L 127.348026 110.521045 
L 128.036444 107.020976 
L 128.724861 104.860496 
L 129.413279 109.66858 
L 130.101696 109.754278 
L 130.790114 103.940374 
L 131.478531 104.102749 
L 132.166949 106.759373 
L 132.855366 104.400435 
L 134.232201 112.198914 
L 134.920619 114.228593 
L 135.609036 117.079164 
L 136.297454 116.181595 
L 136.985871 116.506344 
L 137.674289 114.724737 
L 138.362706 117.642964 
L 139.051124 121.864697 
L 139.739541 120.443922 
L 140.427959 120.182318 
L 141.804794 126.09094 
L 142.493211 128.246911 
L 143.181629 126.194679 
L 143.870046 127.831954 
L 144.558464 130.601338 
L 145.935299 124.422093 
L 146.623716 119.045698 
L 147.312134 119.722258 
L 148.000551 117.228008 
L 150.065804 103.606605 
L 150.754221 104.247081 
L 152.131056 111.436656 
L 152.819474 116.758926 
L 154.884726 103.651709 
L 156.261561 91.261645 
L 156.949979 92.628295 
L 157.638396 93.214647 
L 158.326814 85.76798 
L 159.015231 82.515982 
L 159.703649 87.211307 
L 160.392066 89.953629 
L 161.080484 96.538811 
L 161.768902 94.960171 
L 162.457319 94.955661 
L 165.210989 120.114662 
L 165.899407 123.48393 
L 166.587824 122.550278 
L 167.276242 120.511578 
L 167.964659 114.65257 
L 167.964659 114.65257 
" clip-path="url(#p35a2aaa305)" style="fill: none; stroke: #0072b2; stroke-width: 1.15; stroke-linecap: square"/>
   </g>
   <g id="patch_3">
    <path d="M 37.85375 140.16 
L 37.85375 54.6 
" style="fill: none; stroke: #000000; stroke-width: 0.8; stroke-linejoin: miter; stroke-linecap: square"/>
   </g>
   <g id="patch_4">
    <path d="M 37.85375 140.16 
L 174.160417 140.16 
" style="fill: none; stroke: #000000; stroke-width: 0.8; stroke-linejoin: miter; stroke-linecap: square"/>
   </g>
   <g id="text_11">
    <!-- rep1 -->
    <g transform="translate(95.200833 48.6) scale(0.095 -0.095)">
     <defs>
      <path id="DejaVuSans-72" d="M 2631 2963 
Q 2534 3019 2420 3045 
Q 2306 3072 2169 3072 
Q 1681 3072 1420 2755 
Q 1159 2438 1159 1844 
L 1159 0 
L 581 0 
L 581 3500 
L 1159 3500 
L 1159 2956 
Q 1341 3275 1631 3429 
Q 1922 3584 2338 3584 
Q 2397 3584 2469 3576 
Q 2541 3569 2628 3553 
L 2631 2963 
z
" transform="scale(0.015625)"/>
      <path id="DejaVuSans-70" d="M 1159 525 
L 1159 -1331 
L 581 -1331 
L 581 3500 
L 1159 3500 
L 1159 2969 
Q 1341 3281 1617 3432 
Q 1894 3584 2278 3584 
Q 2916 3584 3314 3078 
Q 3713 2572 3713 1747 
Q 3713 922 3314 415 
Q 2916 -91 2278 -91 
Q 1894 -91 1617 61 
Q 1341 213 1159 525 
z
M 3116 1747 
Q 3116 2381 2855 2742 
Q 2594 3103 2138 3103 
Q 1681 3103 1420 2742 
Q 1159 2381 1159 1747 
Q 1159 1113 1420 752 
Q 1681 391 2138 391 
Q 2594 391 2855 752 
Q 3116 1113 3116 1747 
z
" transform="scale(0.015625)"/>
     </defs>
     <use xlink:href="#DejaVuSans-72"/>
     <use xlink:href="#DejaVuSans-65" transform="translate(38.863281 0)"/>
     <use xlink:href="#DejaVuSans-70" transform="translate(100.386719 0)"/>
     <use xlink:href="#DejaVuSans-31" transform="translate(163.863281 0)"/>
    </g>
   </g>
  </g>
  <g id="axes_2">
   <g id="patch_5">
    <path d="M 201.780417 140.16 
L 338.087083 140.16 
L 338.087083 54.6 
L 201.780417 54.6 
z
" style="fill: #ffffff"/>
   </g>
   <g id="matplotlib.axis_3">
    <g id="xtick_5">
     <g id="line2d_10">
      <g>
       <use xlink:href="#mb7e90c5f0b" x="207.287757" y="140.16" style="stroke: #000000; stroke-width: 0.7"/>
      </g>
     </g>
     <g id="text_12">
      <!-- 0 -->
      <g transform="translate(204.901819 152.358828) scale(0.075 -0.075)">
       <use xlink:href="#DejaVuSans-30"/>
      </g>
     </g>
    </g>
    <g id="xtick_6">
     <g id="line2d_11">
      <g>
       <use xlink:href="#mb7e90c5f0b" x="241.708632" y="140.16" style="stroke: #000000; stroke-width: 0.7"/>
      </g>
     </g>
     <g id="text_13">
      <!-- 50 -->
      <g transform="translate(236.936757 152.358828) scale(0.075 -0.075)">
       <use xlink:href="#DejaVuSans-35"/>
       <use xlink:href="#DejaVuSans-30" transform="translate(63.623047 0)"/>
      </g>
     </g>
    </g>
    <g id="xtick_7">
     <g id="line2d_12">
      <g>
       <use xlink:href="#mb7e90c5f0b" x="276.129508" y="140.16" style="stroke: #000000; stroke-width: 0.7"/>
      </g>
     </g>
     <g id="text_14">
      <!-- 100 -->
      <g transform="translate(268.971695 152.358828) scale(0.075 -0.075)">
       <use xlink:href="#DejaVuSans-31"/>
       <use xlink:href="#DejaVuSans-30" transform="translate(63.623047 0)"/>
       <use xlink:href="#DejaVuSans-30" transform="translate(127.246094 0)"/>
      </g>
     </g>
    </g>
    <g id="xtick_8">
     <g id="line2d_13">
      <g>
       <use xlink:href="#mb7e90c5f0b" x="310.550383" y="140.16" style="stroke: #000000; stroke-width: 0.7"/>
      </g>
     </g>
     <g id="text_15">
      <!-- 150 -->
      <g transform="translate(303.39257 152.358828) scale(0.075 -0.075)">
       <use xlink:href="#DejaVuSans-31"/>
       <use xlink:href="#DejaVuSans-35" transform="translate(63.623047 0)"/>
       <use xlink:href="#DejaVuSans-30" transform="translate(127.246094 0)"/>
      </g>
     </g>
    </g>
    <g id="text_16">
     <!-- Residue index -->
     <g transform="translate(240.176445 164.377266) scale(0.085 -0.085)">
      <use xlink:href="#DejaVuSans-52"/>
      <use xlink:href="#DejaVuSans-65" transform="translate(64.982422 0)"/>
      <use xlink:href="#DejaVuSans-73" transform="translate(126.505859 0)"/>
      <use xlink:href="#DejaVuSans-69" transform="translate(178.605469 0)"/>
      <use xlink:href="#DejaVuSans-64" transform="translate(206.388672 0)"/>
      <use xlink:href="#DejaVuSans-75" transform="translate(269.865234 0)"/>
      <use xlink:href="#DejaVuSans-65" transform="translate(333.244141 0)"/>
      <use xlink:href="#DejaVuSans-20" transform="translate(394.767578 0)"/>
      <use xlink:href="#DejaVuSans-69" transform="translate(426.554688 0)"/>
      <use xlink:href="#DejaVuSans-6e" transform="translate(454.337891 0)"/>
      <use xlink:href="#DejaVuSans-64" transform="translate(517.716797 0)"/>
      <use xlink:href="#DejaVuSans-65" transform="translate(581.193359 0)"/>
      <use xlink:href="#DejaVuSans-78" transform="translate(640.966797 0)"/>
     </g>
    </g>
   </g>
   <g id="matplotlib.axis_4">
    <g id="ytick_5">
     <g id="line2d_14">
      <g>
       <use xlink:href="#m1cb6b7010c" x="201.780417" y="133.140442" style="stroke: #000000; stroke-width: 0.7"/>
      </g>
     </g>
     <g id="text_17">
      <!-- 0.5 -->
      <g transform="translate(183.353073 135.989856) scale(0.075 -0.075)">
       <use xlink:href="#DejaVuSans-30"/>
       <use xlink:href="#DejaVuSans-2e" transform="translate(63.623047 0)"/>
       <use xlink:href="#DejaVuSans-35" transform="translate(95.410156 0)"/>
      </g>
     </g>
    </g>
    <g id="ytick_6">
     <g id="line2d_15">
      <g>
       <use xlink:href="#m1cb6b7010c" x="201.780417" y="104.577789" style="stroke: #000000; stroke-width: 0.7"/>
      </g>
     </g>
     <g id="text_18">
      <!-- 1.0 -->
      <g transform="translate(183.353073 107.427203) scale(0.075 -0.075)">
       <use xlink:href="#DejaVuSans-31"/>
       <use xlink:href="#DejaVuSans-2e" transform="translate(63.623047 0)"/>
       <use xlink:href="#DejaVuSans-30" transform="translate(95.410156 0)"/>
      </g>
     </g>
    </g>
    <g id="ytick_7">
     <g id="line2d_16">
      <g>
       <use xlink:href="#m1cb6b7010c" x="201.780417" y="76.015135" style="stroke: #000000; stroke-width: 0.7"/>
      </g>
     </g>
     <g id="text_19">
      <!-- 1.5 -->
      <g transform="translate(183.353073 78.864549) scale(0.075 -0.075)">
       <use xlink:href="#DejaVuSans-31"/>
       <use xlink:href="#DejaVuSans-2e" transform="translate(63.623047 0)"/>
       <use xlink:href="#DejaVuSans-35" transform="translate(95.410156 0)"/>
      </g>
     </g>
    </g>
   </g>
   <g id="line2d_17">
    <path d="M 207.976174 58.489091 
L 210.041427 81.813354 
L 210.729844 93.329816 
L 211.418262 99.944926 
L 212.106679 110.227482 
L 212.795097 109.781904 
L 213.483514 114.043452 
L 214.171932 112.998059 
L 214.860349 117.213907 
L 215.548767 110.821585 
L 216.237184 107.565442 
L 216.925602 101.378771 
L 217.614019 101.48731 
L 218.302437 100.11059 
L 218.990854 102.938292 
L 219.679272 100.579017 
L 220.367689 103.258194 
L 221.056107 111.181474 
L 221.744524 110.547383 
L 222.432942 108.228096 
L 223.809777 119.430369 
L 224.498194 115.191671 
L 225.186612 115.288784 
L 225.875029 122.475147 
L 226.563447 122.8636 
L 227.251864 118.076499 
L 227.940282 120.841364 
L 228.628699 125.834115 
L 229.317117 122.258071 
L 230.005535 119.870233 
L 230.693952 123.514828 
L 231.38237 125.034361 
L 232.070787 121.292654 
L 232.759205 120.504324 
L 233.447622 122.800762 
L 234.13604 122.509423 
L 234.824457 119.744558 
L 235.512875 119.367531 
L 236.201292 120.532887 
L 236.88971 119.807396 
L 237.578127 117.299595 
L 238.266545 116.842592 
L 238.954962 117.819435 
L 239.64338 116.716916 
L 240.331797 114.117715 
L 241.020215 113.980614 
L 241.708632 115.145971 
L 242.39705 113.129447 
L 243.085467 110.467408 
L 243.773885 111.358563 
L 244.462302 111.581351 
L 245.15072 110.844435 
L 246.527555 113.58645 
L 247.215972 113.192285 
L 247.90439 113.540749 
L 248.592807 115.014582 
L 249.281225 115.088845 
L 249.969642 114.53473 
L 251.346477 116.876867 
L 252.034895 116.151376 
L 252.723312 116.111388 
L 253.41173 117.248182 
L 254.100147 117.819435 
L 254.788565 116.97398 
L 255.476982 116.991118 
L 256.1654 117.973673 
L 256.853817 118.099349 
L 258.230652 117.002543 
L 258.91907 118.384975 
L 259.607487 120.24726 
L 260.984322 117.979386 
L 261.67274 120.24726 
L 262.361157 120.892776 
L 263.049575 117.665197 
L 263.737992 117.882273 
L 264.42641 120.430061 
L 265.114827 120.327236 
L 265.803245 120.829939 
L 266.491662 119.361818 
L 267.868497 111.609914 
L 268.556915 101.955737 
L 269.245332 88.611265 
L 269.93375 86.783256 
L 270.622168 86.006351 
L 271.310585 92.147322 
L 271.999003 101.453034 
L 273.375838 109.38774 
L 274.064255 104.235037 
L 274.752673 109.981843 
L 275.44109 110.250332 
L 276.129508 115.020295 
L 276.817925 108.045295 
L 277.506343 115.117408 
L 278.19476 123.966118 
L 278.883178 124.068943 
L 279.571595 126.336818 
L 280.260013 117.910835 
L 280.94843 122.120971 
L 281.636848 133.780246 
L 282.325265 136.270909 
L 283.013683 131.009668 
L 283.7021 120.949902 
L 284.390518 105.737432 
L 285.078935 95.312064 
L 285.767353 77.163354 
L 286.45577 77.191916 
L 287.144188 72.027789 
L 287.832605 81.899042 
L 288.521023 85.480799 
L 289.20944 95.46059 
L 289.897858 85.977789 
L 290.586275 83.94984 
L 291.274693 97.797015 
L 291.96311 98.019803 
L 292.651528 84.275455 
L 293.339945 89.131106 
L 294.028363 99.853526 
L 294.71678 86.960344 
L 295.405198 78.071646 
L 296.093615 91.239029 
L 296.782033 95.089275 
L 298.158868 122.920725 
L 298.847285 128.867469 
L 299.535703 131.466671 
L 300.22412 121.863907 
L 300.912538 109.142101 
L 301.600955 99.093759 
L 302.289373 104.937678 
L 302.97779 103.480983 
L 303.666208 87.365934 
L 304.354625 82.510283 
L 305.043043 88.457027 
L 305.73146 89.113968 
L 306.419878 100.784668 
L 307.108295 89.125393 
L 307.796713 82.127543 
L 308.48513 95.866179 
L 309.173548 102.915442 
L 309.861965 95.289214 
L 310.550383 93.741118 
L 311.238801 106.394373 
L 311.927218 116.197076 
L 312.615636 119.653157 
L 313.304053 116.117101 
L 313.992471 107.045602 
L 314.680888 104.89769 
L 315.369306 106.451499 
L 316.057723 102.00715 
L 316.746141 100.533317 
L 317.434558 86.777543 
L 318.122976 70.508256 
L 318.811393 69.817039 
L 319.499811 71.416548 
L 320.188228 65.424103 
L 320.876646 71.010958 
L 321.565063 77.540381 
L 322.941898 67.60629 
L 323.630316 72.576192 
L 324.318733 73.324533 
L 325.007151 81.402052 
L 325.695568 72.484791 
L 326.383986 66.498059 
L 327.072403 75.786634 
L 327.760821 77.231904 
L 328.449238 88.228526 
L 329.137656 97.082948 
L 330.514491 124.086081 
L 331.202908 129.198796 
L 331.891326 132.906229 
L 331.891326 132.906229 
" clip-path="url(#p04c6172807)" style="fill: none; stroke-dasharray: 4.255,1.84; stroke-dashoffset: 0; stroke: #cc79a7; stroke-width: 1.15"/>
   </g>
   <g id="patch_6">
    <path d="M 201.780417 140.16 
L 201.780417 54.6 
" style="fill: none; stroke: #000000; stroke-width: 0.8; stroke-linejoin: miter; stroke-linecap: square"/>
   </g>
   <g id="patch_7">
    <path d="M 201.780417 140.16 
L 338.087083 140.16 
" style="fill: none; stroke: #000000; stroke-width: 0.8; stroke-linejoin: miter; stroke-linecap: square"/>
   </g>
   <g id="text_20">
    <!-- rep2 -->
    <g transform="translate(259.1275 48.6) scale(0.095 -0.095)">
     <use xlink:href="#DejaVuSans-72"/>
     <use xlink:href="#DejaVuSans-65" transform="translate(38.863281 0)"/>
     <use xlink:href="#DejaVuSans-70" transform="translate(100.386719 0)"/>
     <use xlink:href="#DejaVuSans-32" transform="translate(163.863281 0)"/>
    </g>
   </g>
  </g>
  <g id="axes_3">
   <g id="patch_8">
    <path d="M 365.707083 140.16 
L 502.01375 140.16 
L 502.01375 54.6 
L 365.707083 54.6 
z
" style="fill: #ffffff"/>
   </g>
   <g id="matplotlib.axis_5">
    <g id="xtick_9">
     <g id="line2d_18">
      <g>
       <use xlink:href="#mb7e90c5f0b" x="371.214423" y="140.16" style="stroke: #000000; stroke-width: 0.7"/>
      </g>
     </g>
     <g id="text_21">
      <!-- 0 -->
      <g transform="translate(368.828486 152.358828) scale(0.075 -0.075)">
       <use xlink:href="#DejaVuSans-30"/>
      </g>
     </g>
    </g>
    <g id="xtick_10">
     <g id="line2d_19">
      <g>
       <use xlink:href="#mb7e90c5f0b" x="405.635299" y="140.16" style="stroke: #000000; stroke-width: 0.7"/>
      </g>
     </g>
     <g id="text_22">
      <!-- 50 -->
      <g transform="translate(400.863424 152.358828) scale(0.075 -0.075)">
       <use xlink:href="#DejaVuSans-35"/>
       <use xlink:href="#DejaVuSans-30" transform="translate(63.623047 0)"/>
      </g>
     </g>
    </g>
    <g id="xtick_11">
     <g id="line2d_20">
      <g>
       <use xlink:href="#mb7e90c5f0b" x="440.056174" y="140.16" style="stroke: #000000; stroke-width: 0.7"/>
      </g>
     </g>
     <g id="text_23">
      <!-- 100 -->
      <g transform="translate(432.898362 152.358828) scale(0.075 -0.075)">
       <use xlink:href="#DejaVuSans-31"/>
       <use xlink:href="#DejaVuSans-30" transform="translate(63.623047 0)"/>
       <use xlink:href="#DejaVuSans-30" transform="translate(127.246094 0)"/>
      </g>
     </g>
    </g>
    <g id="xtick_12">
     <g id="line2d_21">
      <g>
       <use xlink:href="#mb7e90c5f0b" x="474.47705" y="140.16" style="stroke: #000000; stroke-width: 0.7"/>
      </g>
     </g>
     <g id="text_24">
      <!-- 150 -->
      <g transform="translate(467.319237 152.358828) scale(0.075 -0.075)">
       <use xlink:href="#DejaVuSans-31"/>
       <use xlink:href="#DejaVuSans-35" transform="translate(63.623047 0)"/>
       <use xlink:href="#DejaVuSans-30" transform="translate(127.246094 0)"/>
      </g>
     </g>
    </g>
    <g id="text_25">
     <!-- Residue index -->
     <g transform="translate(404.103112 164.377266) scale(0.085 -0.085)">
      <use xlink:href="#DejaVuSans-52"/>
      <use xlink:href="#DejaVuSans-65" transform="translate(64.982422 0)"/>
      <use xlink:href="#DejaVuSans-73" transform="translate(126.505859 0)"/>
      <use xlink:href="#DejaVuSans-69" transform="translate(178.605469 0)"/>
      <use xlink:href="#DejaVuSans-64" transform="translate(206.388672 0)"/>
      <use xlink:href="#DejaVuSans-75" transform="translate(269.865234 0)"/>
      <use xlink:href="#DejaVuSans-65" transform="translate(333.244141 0)"/>
      <use xlink:href="#DejaVuSans-20" transform="translate(394.767578 0)"/>
      <use xlink:href="#DejaVuSans-69" transform="translate(426.554688 0)"/>
      <use xlink:href="#DejaVuSans-6e" transform="translate(454.337891 0)"/>
      <use xlink:href="#DejaVuSans-64" transform="translate(517.716797 0)"/>
      <use xlink:href="#DejaVuSans-65" transform="translate(581.193359 0)"/>
      <use xlink:href="#DejaVuSans-78" transform="translate(640.966797 0)"/>
     </g>
    </g>
   </g>
   <g id="matplotlib.axis_6">
    <g id="ytick_8">
     <g id="line2d_22">
      <g>
       <use xlink:href="#m1cb6b7010c" x="365.707083" y="119.917567" style="stroke: #000000; stroke-width: 0.7"/>
      </g>
     </g>
     <g id="text_26">
      <!-- 0.5 -->
      <g transform="translate(347.27974 122.766981) scale(0.075 -0.075)">
       <use xlink:href="#DejaVuSans-30"/>
       <use xlink:href="#DejaVuSans-2e" transform="translate(63.623047 0)"/>
       <use xlink:href="#DejaVuSans-35" transform="translate(95.410156 0)"/>
      </g>
     </g>
    </g>
    <g id="ytick_9">
     <g id="line2d_23">
      <g>
       <use xlink:href="#m1cb6b7010c" x="365.707083" y="88.089341" style="stroke: #000000; stroke-width: 0.7"/>
      </g>
     </g>
     <g id="text_27">
      <!-- 1.0 -->
      <g transform="translate(347.27974 90.938755) scale(0.075 -0.075)">
       <use xlink:href="#DejaVuSans-31"/>
       <use xlink:href="#DejaVuSans-2e" transform="translate(63.623047 0)"/>
       <use xlink:href="#DejaVuSans-30" transform="translate(95.410156 0)"/>
      </g>
     </g>
    </g>
    <g id="ytick_10">
     <g id="line2d_24">
      <g>
       <use xlink:href="#m1cb6b7010c" x="365.707083" y="56.261115" style="stroke: #000000; stroke-width: 0.7"/>
      </g>
     </g>
     <g id="text_28">
      <!-- 1.5 -->
      <g transform="translate(347.27974 59.110529) scale(0.075 -0.075)">
       <use xlink:href="#DejaVuSans-31"/>
       <use xlink:href="#DejaVuSans-2e" transform="translate(63.623047 0)"/>
       <use xlink:href="#DejaVuSans-35" transform="translate(95.410156 0)"/>
      </g>
     </g>
    </g>
   </g>
   <g id="line2d_25">
    <path d="M 371.902841 58.489091 
L 372.591258 67.598329 
L 373.279676 78.470851 
L 373.968093 83.964403 
L 374.656511 90.565577 
L 375.344928 101.221667 
L 376.033346 108.281167 
L 376.721763 113.965688 
L 377.410181 121.451687 
L 378.098598 123.826073 
L 378.787016 121.884551 
L 379.475434 118.71446 
L 380.163851 113.609212 
L 382.229104 102.787616 
L 382.917521 104.245348 
L 383.605939 106.556077 
L 384.294356 112.985379 
L 384.982774 116.295515 
L 385.671191 114.564059 
L 386.359609 117.224899 
L 387.048026 124.755457 
L 387.736444 126.073146 
L 388.424861 122.196468 
L 389.113279 123.794245 
L 389.801696 128.708523 
L 390.490114 126.480547 
L 391.178531 124.895501 
L 391.866949 127.231693 
L 392.555366 127.238059 
L 393.243784 124.698166 
L 393.932201 124.959158 
L 394.620619 126.741538 
L 395.997454 124.4881 
L 396.685871 124.971889 
L 397.374289 124.360787 
L 398.062706 123.15768 
L 398.751124 122.839398 
L 399.439541 122.005498 
L 400.127959 120.745101 
L 400.816376 120.261312 
L 401.504794 119.306465 
L 402.193211 117.899657 
L 403.570046 117.345846 
L 404.258464 116.333708 
L 404.946881 115.977232 
L 405.635299 116.009061 
L 406.323716 114.844147 
L 407.012134 113.106326 
L 407.700551 113.112692 
L 408.388969 113.672869 
L 409.077386 112.055995 
L 409.765804 111.884122 
L 410.454221 113.946592 
L 411.142639 113.169983 
L 411.831056 110.757403 
L 413.207891 112.832604 
L 413.896309 109.547931 
L 414.584726 107.841938 
L 415.273144 109.713437 
L 415.961561 108.16022 
L 416.649979 104.016185 
L 417.338396 104.048013 
L 418.026814 105.359336 
L 418.715231 101.208936 
L 419.403649 97.892434 
L 420.092066 99.52204 
L 420.780484 98.611752 
L 421.468902 93.404655 
L 422.157319 91.97875 
L 422.845737 93.277342 
L 424.222572 86.045969 
L 424.910989 87.707402 
L 425.599407 91.023903 
L 426.287824 98.465342 
L 426.976242 97.968822 
L 427.664659 96.135516 
L 428.353077 105.874953 
L 429.041494 111.674056 
L 429.729912 115.391593 
L 430.418329 110.642822 
L 431.106747 101.909157 
L 431.795164 96.682962 
L 432.483582 95.339811 
L 433.171999 88.694077 
L 433.860417 93.716571 
L 434.548834 94.709612 
L 435.237252 97.389548 
L 435.925669 101.667262 
L 436.614087 98.98096 
L 437.302504 105.359336 
L 437.990922 106.059557 
L 438.679339 114.417649 
L 440.056174 127.021627 
L 440.744592 128.18654 
L 442.121427 134.157515 
L 442.809844 131.057446 
L 443.498262 126.639688 
L 444.186679 120.204021 
L 444.875097 121.763604 
L 446.251932 132.935311 
L 446.940349 136.270909 
L 447.628767 135.074168 
L 448.317184 130.815551 
L 449.005602 128.001936 
L 449.694019 119.771157 
L 450.382437 119.25554 
L 451.070854 116.34644 
L 451.759272 119.045473 
L 452.447689 118.663535 
L 453.136107 119.949395 
L 453.824524 116.562872 
L 454.512942 118.784482 
L 455.201359 124.303496 
L 455.889777 121.960939 
L 456.578194 117.918754 
L 457.266612 121.22889 
L 457.955029 123.495059 
L 458.643447 116.88752 
L 459.331864 114.118464 
L 460.020282 117.982411 
L 460.708699 117.218533 
L 462.085535 127.027992 
L 462.773952 127.89372 
L 463.46237 127.238059 
L 464.150787 120.821488 
L 464.839205 116.250955 
L 465.527622 110.910179 
L 466.21604 115.996329 
L 466.904457 119.802985 
L 467.592875 112.412471 
L 468.281292 109.999892 
L 468.96971 115.582562 
L 469.658127 118.91816 
L 470.346545 124.532659 
L 471.034962 121.349837 
L 471.72338 119.10913 
L 472.411797 124.819113 
L 473.100215 127.721848 
L 473.788632 123.316821 
L 474.47705 122.559309 
L 475.165467 126.270481 
L 475.853885 127.99557 
L 476.542302 123.545984 
L 477.919137 112.730753 
L 478.607555 113.965688 
L 479.295972 116.002695 
L 479.98439 117.307652 
L 480.672807 119.815716 
L 482.049642 110.770135 
L 482.73806 108.236608 
L 483.426477 110.292711 
L 484.114895 107.211739 
L 484.803312 109.013217 
L 485.49173 105.862222 
L 486.180147 99.381995 
L 486.868565 96.8612 
L 487.556982 101.800941 
L 488.2454 104.188057 
L 488.933817 108.242973 
L 489.622235 106.747047 
L 490.310652 105.588499 
L 490.99907 111.043857 
L 491.687487 115.251549 
L 492.375905 121.591731 
L 493.064322 126.385062 
L 493.75274 132.120508 
L 494.441157 135.226943 
L 495.129575 134.755886 
L 495.817992 129.459669 
L 495.817992 129.459669 
" clip-path="url(#p17db6864dc)" style="fill: none; stroke-dasharray: 7.36,1.84,1.15,1.84; stroke-dashoffset: 0; stroke: #f0e442; stroke-width: 1.15"/>
   </g>
   <g id="patch_9">
    <path d="M 365.707083 140.16 
L 365.707083 54.6 
" style="fill: none; stroke: #000000; stroke-width: 0.8; stroke-linejoin: miter; stroke-linecap: square"/>
   </g>
   <g id="patch_10">
    <path d="M 365.707083 140.16 
L 502.01375 140.16 
" style="fill: none; stroke: #000000; stroke-width: 0.8; stroke-linejoin: miter; stroke-linecap: square"/>
   </g>
   <g id="text_29">
    <!-- rep3 -->
    <g transform="translate(423.054167 48.6) scale(0.095 -0.095)">
     <defs>
      <path id="DejaVuSans-33" d="M 2597 2516 
Q 3050 2419 3304 2112 
Q 3559 1806 3559 1356 
Q 3559 666 3084 287 
Q 2609 -91 1734 -91 
Q 1441 -91 1130 -33 
Q 819 25 488 141 
L 488 750 
Q 750 597 1062 519 
Q 1375 441 1716 441 
Q 2309 441 2620 675 
Q 2931 909 2931 1356 
Q 2931 1769 2642 2001 
Q 2353 2234 1838 2234 
L 1294 2234 
L 1294 2753 
L 1863 2753 
Q 2328 2753 2575 2939 
Q 2822 3125 2822 3475 
Q 2822 3834 2567 4026 
Q 2313 4219 1838 4219 
Q 1578 4219 1281 4162 
Q 984 4106 628 3988 
L 628 4550 
Q 988 4650 1302 4700 
Q 1616 4750 1894 4750 
Q 2613 4750 3031 4423 
Q 3450 4097 3450 3541 
Q 3450 3153 3228 2886 
Q 3006 2619 2597 2516 
z
" transform="scale(0.015625)"/>
     </defs>
     <use xlink:href="#DejaVuSans-72"/>
     <use xlink:href="#DejaVuSans-65" transform="translate(38.863281 0)"/>
     <use xlink:href="#DejaVuSans-70" transform="translate(100.386719 0)"/>
     <use xlink:href="#DejaVuSans-33" transform="translate(163.863281 0)"/>
    </g>
   </g>
  </g>
  <g id="text_30">
   <!-- drugs2263 | Protein backbone RMSF -->
   <g transform="translate(165.859922 14.460078) scale(0.095 -0.095)">
    <defs>
     <path id="DejaVuSans-67" d="M 2906 1791 
Q 2906 2416 2648 2759 
Q 2391 3103 1925 3103 
Q 1463 3103 1205 2759 
Q 947 2416 947 1791 
Q 947 1169 1205 825 
Q 1463 481 1925 481 
Q 2391 481 2648 825 
Q 2906 1169 2906 1791 
z
M 3481 434 
Q 3481 -459 3084 -895 
Q 2688 -1331 1869 -1331 
Q 1566 -1331 1297 -1286 
Q 1028 -1241 775 -1147 
L 775 -588 
Q 1028 -725 1275 -790 
Q 1522 -856 1778 -856 
Q 2344 -856 2625 -561 
Q 2906 -266 2906 331 
L 2906 616 
Q 2728 306 2450 153 
Q 2172 0 1784 0 
Q 1141 0 747 490 
Q 353 981 353 1791 
Q 353 2603 747 3093 
Q 1141 3584 1784 3584 
Q 2172 3584 2450 3431 
Q 2728 3278 2906 2969 
L 2906 3500 
L 3481 3500 
L 3481 434 
z
" transform="scale(0.015625)"/>
     <path id="DejaVuSans-36" d="M 2113 2584 
Q 1688 2584 1439 2293 
Q 1191 2003 1191 1497 
Q 1191 994 1439 701 
Q 1688 409 2113 409 
Q 2538 409 2786 701 
Q 3034 994 3034 1497 
Q 3034 2003 2786 2293 
Q 2538 2584 2113 2584 
z
M 3366 4563 
L 3366 3988 
Q 3128 4100 2886 4159 
Q 2644 4219 2406 4219 
Q 1781 4219 1451 3797 
Q 1122 3375 1075 2522 
Q 1259 2794 1537 2939 
Q 1816 3084 2150 3084 
Q 2853 3084 3261 2657 
Q 3669 2231 3669 1497 
Q 3669 778 3244 343 
Q 2819 -91 2113 -91 
Q 1303 -91 875 529 
Q 447 1150 447 2328 
Q 447 3434 972 4092 
Q 1497 4750 2381 4750 
Q 2619 4750 2861 4703 
Q 3103 4656 3366 4563 
z
" transform="scale(0.015625)"/>
     <path id="DejaVuSans-7c" d="M 1344 4891 
L 1344 -1509 
L 813 -1509 
L 813 4891 
L 1344 4891 
z
" transform="scale(0.015625)"/>
     <path id="DejaVuSans-50" d="M 1259 4147 
L 1259 2394 
L 2053 2394 
Q 2494 2394 2734 2622 
Q 2975 2850 2975 3272 
Q 2975 3691 2734 3919 
Q 2494 4147 2053 4147 
L 1259 4147 
z
M 628 4666 
L 2053 4666 
Q 2838 4666 3239 4311 
Q 3641 3956 3641 3272 
Q 3641 2581 3239 2228 
Q 2838 1875 2053 1875 
L 1259 1875 
L 1259 0 
L 628 0 
L 628 4666 
z
" transform="scale(0.015625)"/>
     <path id="DejaVuSans-74" d="M 1172 4494 
L 1172 3500 
L 2356 3500 
L 2356 3053 
L 1172 3053 
L 1172 1153 
Q 1172 725 1289 603 
Q 1406 481 1766 481 
L 2356 481 
L 2356 0 
L 1766 0 
Q 1100 0 847 248 
Q 594 497 594 1153 
L 594 3053 
L 172 3053 
L 172 3500 
L 594 3500 
L 594 4494 
L 1172 4494 
z
" transform="scale(0.015625)"/>
    </defs>
    <use xlink:href="#DejaVuSans-64"/>
    <use xlink:href="#DejaVuSans-72" transform="translate(63.476562 0)"/>
    <use xlink:href="#DejaVuSans-75" transform="translate(104.589844 0)"/>
    <use xlink:href="#DejaVuSans-67" transform="translate(167.96875 0)"/>
    <use xlink:href="#DejaVuSans-73" transform="translate(231.445312 0)"/>
    <use xlink:href="#DejaVuSans-32" transform="translate(283.544922 0)"/>
    <use xlink:href="#DejaVuSans-32" transform="translate(347.167969 0)"/>
    <use xlink:href="#DejaVuSans-36" transform="translate(410.791016 0)"/>
    <use xlink:href="#DejaVuSans-33" transform="translate(474.414062 0)"/>
    <use xlink:href="#DejaVuSans-20" transform="translate(538.037109 0)"/>
    <use xlink:href="#DejaVuSans-7c" transform="translate(569.824219 0)"/>
    <use xlink:href="#DejaVuSans-20" transform="translate(603.515625 0)"/>
    <use xlink:href="#DejaVuSans-50" transform="translate(635.302734 0)"/>
    <use xlink:href="#DejaVuSans-72" transform="translate(693.855469 0)"/>
    <use xlink:href="#DejaVuSans-6f" transform="translate(732.71875 0)"/>
    <use xlink:href="#DejaVuSans-74" transform="translate(793.900391 0)"/>
    <use xlink:href="#DejaVuSans-65" transform="translate(833.109375 0)"/>
    <use xlink:href="#DejaVuSans-69" transform="translate(894.632812 0)"/>
    <use xlink:href="#DejaVuSans-6e" transform="translate(922.416016 0)"/>
    <use xlink:href="#DejaVuSans-20" transform="translate(985.794922 0)"/>
    <use xlink:href="#DejaVuSans-62" transform="translate(1017.582031 0)"/>
    <use xlink:href="#DejaVuSans-61" transform="translate(1081.058594 0)"/>
    <use xlink:href="#DejaVuSans-63" transform="translate(1142.337891 0)"/>
    <use xlink:href="#DejaVuSans-6b" transform="translate(1197.318359 0)"/>
    <use xlink:href="#DejaVuSans-62" transform="translate(1255.228516 0)"/>
    <use xlink:href="#DejaVuSans-6f" transform="translate(1318.705078 0)"/>
    <use xlink:href="#DejaVuSans-6e" transform="translate(1379.886719 0)"/>
    <use xlink:href="#DejaVuSans-65" transform="translate(1443.265625 0)"/>
    <use xlink:href="#DejaVuSans-20" transform="translate(1504.789062 0)"/>
    <use xlink:href="#DejaVuSans-52" transform="translate(1536.576172 0)"/>
    <use xlink:href="#DejaVuSans-4d" transform="translate(1606.058594 0)"/>
    <use xlink:href="#DejaVuSans-53" transform="translate(1692.337891 0)"/>
    <use xlink:href="#DejaVuSans-46" transform="translate(1755.814453 0)"/>
   </g>
  </g>
 </g>
 <defs>
  <clipPath id="p35a2aaa305">
   <rect x="37.85375" y="54.6" width="136.306667" height="85.56"/>
  </clipPath>
  <clipPath id="p04c6172807">
   <rect x="201.780417" y="54.6" width="136.306667" height="85.56"/>
  </clipPath>
  <clipPath id="p17db6864dc">
   <rect x="365.707083" y="54.6" width="136.306667" height="85.56"/>
  </clipPath>
 </defs>
</svg>
