<?xml version="1.0" encoding="utf-8" standalone="no"?>
<!DOCTYPE svg PUBLIC "-//W3C//DTD SVG 1.1//EN"
  "http://www.w3.org/Graphics/SVG/1.1/DTD/svg11.dtd">
<svg xmlns:xlink="http://www.w3.org/1999/xlink" width="226.01375pt" height="164.903516pt" viewBox="0 0 226.01375 164.903516" xmlns="http://www.w3.org/2000/svg" version="1.1">
 <metadata>
  <rdf:RDF xmlns:dc="http://purl.org/dc/elements/1.1/" xmlns:cc="http://creativecommons.org/ns#" xmlns:rdf="http://www.w3.org/1999/02/22-rdf-syntax-ns#">
   <cc:Work>
    <dc:type rdf:resource="http://purl.org/dc/dcmitype/StillImage"/>
    <dc:date>2026-05-24T13:54:10.416669</dc:date>
    <dc:format>image/svg+xml</dc:format>
    <dc:creator>
     <cc:Agent>
      <dc:title>Matplotlib v3.10.9, https://matplotlib.org/</dc:title>
     </cc:Agent>
    </dc:creator>
   </cc:Work>
  </rdf:RDF>
 </metadata>
 <defs>
  <style type="text/css">*{stroke-linejoin: round; stroke-linecap: butt}</style>
 </defs>
 <g id="figure_1">
  <g id="patch_1">
   <path d="M 0 164.903516 
L 226.01375 164.903516 
L 226.01375 0 
L 0 0 
z
" style="fill: #ffffff"/>
  </g>
  <g id="axes_1">
   <g id="patch_2">
    <path d="M 37.85375 131.718516 
L 218.81375 131.718516 
L 218.81375 20.418516 
L 37.85375 20.418516 
z
" style="fill: #ffffff"/>
   </g>
   <g id="patch_3">
    <path d="M 128.33375 131.718516 
L 210.588295 131.718516 
L 210.588295 20.418516 
L 128.33375 20.418516 
z
" clip-path="url(#p941d2e42f7)" style="fill: #bdbdbd; opacity: 0.18"/>
   </g>
   <g id="matplotlib.axis_1">
    <g id="xtick_1">
     <g id="line2d_1">
      <defs>
       <path id="m4d9a262b9a" d="M 0 0 
L 0 3 
" style="stroke: #000000; stroke-width: 0.7"/>
      </defs>
      <g>
       <use xlink:href="#m4d9a262b9a" x="46.079205" y="131.718516" style="stroke: #000000; stroke-width: 0.7"/>
      </g>
     </g>
     <g id="text_1">
      <!-- 0 -->
      <g transform="translate(43.693267 143.917344) scale(0.075 -0.075)">
       <defs>
        <path id="DejaVuSans-30" d="M 2034 4250 
Q 1547 4250 1301 3770 
Q 1056 3291 1056 2328 
Q 1056 1369 1301 889 
Q 1547 409 2034 409 
Q 2525 409 2770 889 
Q 3016 1369 3016 2328 
Q 3016 3291 2770 3770 
Q 2525 4250 2034 4250 
z
M 2034 4750 
Q 2819 4750 3233 4129 
Q 3647 3509 3647 2328 
Q 3647 1150 3233 529 
Q 2819 -91 2034 -91 
Q 1250 -91 836 529 
Q 422 1150 422 2328 
Q 422 3509 836 4129 
Q 1250 4750 2034 4750 
z
" transform="scale(0.015625)"/>
       </defs>
       <use xlink:href="#DejaVuSans-30"/>
      </g>
     </g>
    </g>
    <g id="xtick_2">
     <g id="line2d_2">
      <g>
       <use xlink:href="#m4d9a262b9a" x="78.981023" y="131.718516" style="stroke: #000000; stroke-width: 0.7"/>
      </g>
     </g>
     <g id="text_2">
      <!-- 20 -->
      <g transform="translate(74.209148 143.917344) scale(0.075 -0.075)">
       <defs>
        <path id="DejaVuSans-32" d="M 1228 531 
L 3431 531 
L 3431 0 
L 469 0 
L 469 531 
Q 828 903 1448 1529 
Q 2069 2156 2228 2338 
Q 2531 2678 2651 2914 
Q 2772 3150 2772 3378 
Q 2772 3750 2511 3984 
Q 2250 4219 1831 4219 
Q 1534 4219 1204 4116 
Q 875 4013 500 3803 
L 500 4441 
Q 881 4594 1212 4672 
Q 1544 4750 1819 4750 
Q 2544 4750 2975 4387 
Q 3406 4025 3406 3419 
Q 3406 3131 3298 2873 
Q 3191 2616 2906 2266 
Q 2828 2175 2409 1742 
Q 1991 1309 1228 531 
z
" transform="scale(0.015625)"/>
       </defs>
       <use xlink:href="#DejaVuSans-32"/>
       <use xlink:href="#DejaVuSans-30" transform="translate(63.623047 0)"/>
      </g>
     </g>
    </g>
    <g id="xtick_3">
     <g id="line2d_3">
      <g>
       <use xlink:href="#m4d9a262b9a" x="111.882841" y="131.718516" style="stroke: #000000; stroke-width: 0.7"/>
      </g>
     </g>
     <g id="text_3">
      <!-- 40 -->
      <g transform="translate(107.110966 143.917344) scale(0.075 -0.075)">
       <defs>
        <path id="DejaVuSans-34" d="M 2419 4116 
L 825 1625 
L 2419 1625 
L 2419 4116 
z
M 2253 4666 
L 3047 4666 
L 3047 1625 
L 3713 1625 
L 3713 1100 
L 3047 1100 
L 3047 0 
L 2419 0 
L 2419 1100 
L 313 1100 
L 313 1709 
L 2253 4666 
z
" transform="scale(0.015625)"/>
       </defs>
       <use xlink:href="#DejaVuSans-34"/>
       <use xlink:href="#DejaVuSans-30" transform="translate(63.623047 0)"/>
      </g>
     </g>
    </g>
    <g id="xtick_4">
     <g id="line2d_4">
      <g>
       <use xlink:href="#m4d9a262b9a" x="144.784659" y="131.718516" style="stroke: #000000; stroke-width: 0.7"/>
      </g>
     </g>
     <g id="text_4">
      <!-- 60 -->
      <g transform="translate(140.012784 143.917344) scale(0.075 -0.075)">
       <defs>
        <path id="DejaVuSans-36" d="M 2113 2584 
Q 1688 2584 1439 2293 
Q 1191 2003 1191 1497 
Q 1191 994 1439 701 
Q 1688 409 2113 409 
Q 2538 409 2786 701 
Q 3034 994 3034 1497 
Q 3034 2003 2786 2293 
Q 2538 2584 2113 2584 
z
M 3366 4563 
L 3366 3988 
Q 3128 4100 2886 4159 
Q 2644 4219 2406 4219 
Q 1781 4219 1451 3797 
Q 1122 3375 1075 2522 
Q 1259 2794 1537 2939 
Q 1816 3084 2150 3084 
Q 2853 3084 3261 2657 
Q 3669 2231 3669 1497 
Q 3669 778 3244 343 
Q 2819 -91 2113 -91 
Q 1303 -91 875 529 
Q 447 1150 447 2328 
Q 447 3434 972 4092 
Q 1497 4750 2381 4750 
Q 2619 4750 2861 4703 
Q 3103 4656 3366 4563 
z
" transform="scale(0.015625)"/>
       </defs>
       <use xlink:href="#DejaVuSans-36"/>
       <use xlink:href="#DejaVuSans-30" transform="translate(63.623047 0)"/>
      </g>
     </g>
    </g>
    <g id="xtick_5">
     <g id="line2d_5">
      <g>
       <use xlink:href="#m4d9a262b9a" x="177.686477" y="131.718516" style="stroke: #000000; stroke-width: 0.7"/>
      </g>
     </g>
     <g id="text_5">
      <!-- 80 -->
      <g transform="translate(172.914602 143.917344) scale(0.075 -0.075)">
       <defs>
        <path id="DejaVuSans-38" d="M 2034 2216 
Q 1584 2216 1326 1975 
Q 1069 1734 1069 1313 
Q 1069 891 1326 650 
Q 1584 409 2034 409 
Q 2484 409 2743 651 
Q 3003 894 3003 1313 
Q 3003 1734 2745 1975 
Q 2488 2216 2034 2216 
z
M 1403 2484 
Q 997 2584 770 2862 
Q 544 3141 544 3541 
Q 544 4100 942 4425 
Q 1341 4750 2034 4750 
Q 2731 4750 3128 4425 
Q 3525 4100 3525 3541 
Q 3525 3141 3298 2862 
Q 3072 2584 2669 2484 
Q 3125 2378 3379 2068 
Q 3634 1759 3634 1313 
Q 3634 634 3220 271 
Q 2806 -91 2034 -91 
Q 1263 -91 848 271 
Q 434 634 434 1313 
Q 434 1759 690 2068 
Q 947 2378 1403 2484 
z
M 1172 3481 
Q 1172 3119 1398 2916 
Q 1625 2713 2034 2713 
Q 2441 2713 2670 2916 
Q 2900 3119 2900 3481 
Q 2900 3844 2670 4047 
Q 2441 4250 2034 4250 
Q 1625 4250 1398 4047 
Q 1172 3844 1172 3481 
z
" transform="scale(0.015625)"/>
       </defs>
       <use xlink:href="#DejaVuSans-38"/>
       <use xlink:href="#DejaVuSans-30" transform="translate(63.623047 0)"/>
      </g>
     </g>
    </g>
    <g id="xtick_6">
     <g id="line2d_6">
      <g>
       <use xlink:href="#m4d9a262b9a" x="210.588295" y="131.718516" style="stroke: #000000; stroke-width: 0.7"/>
      </g>
     </g>
     <g id="text_6">
      <!-- 100 -->
      <g transform="translate(203.430483 143.917344) scale(0.075 -0.075)">
       <defs>
        <path id="DejaVuSans-31" d="M 794 531 
L 1825 531 
L 1825 4091 
L 703 3866 
L 703 4441 
L 1819 4666 
L 2450 4666 
L 2450 531 
L 3481 531 
L 3481 0 
L 794 0 
L 794 531 
z
" transform="scale(0.015625)"/>
       </defs>
       <use xlink:href="#DejaVuSans-31"/>
       <use xlink:href="#DejaVuSans-30" transform="translate(63.623047 0)"/>
       <use xlink:href="#DejaVuSans-30" transform="translate(127.246094 0)"/>
      </g>
     </g>
    </g>
    <g id="text_7">
     <!-- Time (ns) -->
     <g transform="translate(108.360742 155.935781) scale(0.085 -0.085)">
      <defs>
       <path id="DejaVuSans-54" d="M -19 4666 
L 3928 4666 
L 3928 4134 
L 2272 4134 
L 2272 0 
L 1638 0 
L 1638 4134 
L -19 4134 
L -19 4666 
z
" transform="scale(0.015625)"/>
       <path id="DejaVuSans-69" d="M 603 3500 
L 1178 3500 
L 1178 0 
L 603 0 
L 603 3500 
z
M 603 4863 
L 1178 4863 
L 1178 4134 
L 603 4134 
L 603 4863 
z
" transform="scale(0.015625)"/>
       <path id="DejaVuSans-6d" d="M 3328 2828 
Q 3544 3216 3844 3400 
Q 4144 3584 4550 3584 
Q 5097 3584 5394 3201 
Q 5691 2819 5691 2113 
L 5691 0 
L 5113 0 
L 5113 2094 
Q 5113 2597 4934 2840 
Q 4756 3084 4391 3084 
Q 3944 3084 3684 2787 
Q 3425 2491 3425 1978 
L 3425 0 
L 2847 0 
L 2847 2094 
Q 2847 2600 2669 2842 
Q 2491 3084 2119 3084 
Q 1678 3084 1418 2786 
Q 1159 2488 1159 1978 
L 1159 0 
L 581 0 
L 581 3500 
L 1159 3500 
L 1159 2956 
Q 1356 3278 1631 3431 
Q 1906 3584 2284 3584 
Q 2666 3584 2933 3390 
Q 3200 3197 3328 2828 
z
" transform="scale(0.015625)"/>
       <path id="DejaVuSans-65" d="M 3597 1894 
L 3597 1613 
L 953 1613 
Q 991 1019 1311 708 
Q 1631 397 2203 397 
Q 2534 397 2845 478 
Q 3156 559 3463 722 
L 3463 178 
Q 3153 47 2828 -22 
Q 2503 -91 2169 -91 
Q 1331 -91 842 396 
Q 353 884 353 1716 
Q 353 2575 817 3079 
Q 1281 3584 2069 3584 
Q 2775 3584 3186 3129 
Q 3597 2675 3597 1894 
z
M 3022 2063 
Q 3016 2534 2758 2815 
Q 2500 3097 2075 3097 
Q 1594 3097 1305 2825 
Q 1016 2553 972 2059 
L 3022 2063 
z
" transform="scale(0.015625)"/>
       <path id="DejaVuSans-20" transform="scale(0.015625)"/>
       <path id="DejaVuSans-28" d="M 1984 4856 
Q 1566 4138 1362 3434 
Q 1159 2731 1159 2009 
Q 1159 1288 1364 580 
Q 1569 -128 1984 -844 
L 1484 -844 
Q 1016 -109 783 600 
Q 550 1309 550 2009 
Q 550 2706 781 3412 
Q 1013 4119 1484 4856 
L 1984 4856 
z
" transform="scale(0.015625)"/>
       <path id="DejaVuSans-6e" d="M 3513 2113 
L 3513 0 
L 2938 0 
L 2938 2094 
Q 2938 2591 2744 2837 
Q 2550 3084 2163 3084 
Q 1697 3084 1428 2787 
Q 1159 2491 1159 1978 
L 1159 0 
L 581 0 
L 581 3500 
L 1159 3500 
L 1159 2956 
Q 1366 3272 1645 3428 
Q 1925 3584 2291 3584 
Q 2894 3584 3203 3211 
Q 3513 2838 3513 2113 
z
" transform="scale(0.015625)"/>
       <path id="DejaVuSans-73" d="M 2834 3397 
L 2834 2853 
Q 2591 2978 2328 3040 
Q 2066 3103 1784 3103 
Q 1356 3103 1142 2972 
Q 928 2841 928 2578 
Q 928 2378 1081 2264 
Q 1234 2150 1697 2047 
L 1894 2003 
Q 2506 1872 2764 1633 
Q 3022 1394 3022 966 
Q 3022 478 2636 193 
Q 2250 -91 1575 -91 
Q 1294 -91 989 -36 
Q 684 19 347 128 
L 347 722 
Q 666 556 975 473 
Q 1284 391 1588 391 
Q 1994 391 2212 530 
Q 2431 669 2431 922 
Q 2431 1156 2273 1281 
Q 2116 1406 1581 1522 
L 1381 1569 
Q 847 1681 609 1914 
Q 372 2147 372 2553 
Q 372 3047 722 3315 
Q 1072 3584 1716 3584 
Q 2034 3584 2315 3537 
Q 2597 3491 2834 3397 
z
" transform="scale(0.015625)"/>
       <path id="DejaVuSans-29" d="M 513 4856 
L 1013 4856 
Q 1481 4119 1714 3412 
Q 1947 2706 1947 2009 
Q 1947 1309 1714 600 
Q 1481 -109 1013 -844 
L 513 -844 
Q 928 -128 1133 580 
Q 1338 1288 1338 2009 
Q 1338 2731 1133 3434 
Q 928 4138 513 4856 
z
" transform="scale(0.015625)"/>
      </defs>
      <use xlink:href="#DejaVuSans-54"/>
      <use xlink:href="#DejaVuSans-69" transform="translate(57.958984 0)"/>
      <use xlink:href="#DejaVuSans-6d" transform="translate(85.742188 0)"/>
      <use xlink:href="#DejaVuSans-65" transform="translate(183.154297 0)"/>
      <use xlink:href="#DejaVuSans-20" transform="translate(244.677734 0)"/>
      <use xlink:href="#DejaVuSans-28" transform="translate(276.464844 0)"/>
      <use xlink:href="#DejaVuSans-6e" transform="translate(315.478516 0)"/>
      <use xlink:href="#DejaVuSans-73" transform="translate(378.857422 0)"/>
      <use xlink:href="#DejaVuSans-29" transform="translate(430.957031 0)"/>
     </g>
    </g>
   </g>
   <g id="matplotlib.axis_2">
    <g id="ytick_1">
     <g id="line2d_7">
      <defs>
       <path id="m0776f06f96" d="M 0 0 
L -3 0 
" style="stroke: #000000; stroke-width: 0.7"/>
      </defs>
      <g>
       <use xlink:href="#m0776f06f96" x="37.85375" y="116.385717" style="stroke: #000000; stroke-width: 0.7"/>
      </g>
     </g>
     <g id="text_8">
      <!-- 3.5 -->
      <g transform="translate(19.426406 119.235131) scale(0.075 -0.075)">
       <defs>
        <path id="DejaVuSans-33" d="M 2597 2516 
Q 3050 2419 3304 2112 
Q 3559 1806 3559 1356 
Q 3559 666 3084 287 
Q 2609 -91 1734 -91 
Q 1441 -91 1130 -33 
Q 819 25 488 141 
L 488 750 
Q 750 597 1062 519 
Q 1375 441 1716 441 
Q 2309 441 2620 675 
Q 2931 909 2931 1356 
Q 2931 1769 2642 2001 
Q 2353 2234 1838 2234 
L 1294 2234 
L 1294 2753 
L 1863 2753 
Q 2328 2753 2575 2939 
Q 2822 3125 2822 3475 
Q 2822 3834 2567 4026 
Q 2313 4219 1838 4219 
Q 1578 4219 1281 4162 
Q 984 4106 628 3988 
L 628 4550 
Q 988 4650 1302 4700 
Q 1616 4750 1894 4750 
Q 2613 4750 3031 4423 
Q 3450 4097 3450 3541 
Q 3450 3153 3228 2886 
Q 3006 2619 2597 2516 
z
" transform="scale(0.015625)"/>
        <path id="DejaVuSans-2e" d="M 684 794 
L 1344 794 
L 1344 0 
L 684 0 
L 684 794 
z
" transform="scale(0.015625)"/>
        <path id="DejaVuSans-35" d="M 691 4666 
L 3169 4666 
L 3169 4134 
L 1269 4134 
L 1269 2991 
Q 1406 3038 1543 3061 
Q 1681 3084 1819 3084 
Q 2600 3084 3056 2656 
Q 3513 2228 3513 1497 
Q 3513 744 3044 326 
Q 2575 -91 1722 -91 
Q 1428 -91 1123 -41 
Q 819 9 494 109 
L 494 744 
Q 775 591 1075 516 
Q 1375 441 1709 441 
Q 2250 441 2565 725 
Q 2881 1009 2881 1497 
Q 2881 1984 2565 2268 
Q 2250 2553 1709 2553 
Q 1456 2553 1204 2497 
Q 953 2441 691 2322 
L 691 4666 
z
" transform="scale(0.015625)"/>
       </defs>
       <use xlink:href="#DejaVuSans-33"/>
       <use xlink:href="#DejaVuSans-2e" transform="translate(63.623047 0)"/>
       <use xlink:href="#DejaVuSans-35" transform="translate(95.410156 0)"/>
      </g>
     </g>
    </g>
    <g id="ytick_2">
     <g id="line2d_8">
      <g>
       <use xlink:href="#m0776f06f96" x="37.85375" y="89.281169" style="stroke: #000000; stroke-width: 0.7"/>
      </g>
     </g>
     <g id="text_9">
      <!-- 4.0 -->
      <g transform="translate(19.426406 92.130583) scale(0.075 -0.075)">
       <use xlink:href="#DejaVuSans-34"/>
       <use xlink:href="#DejaVuSans-2e" transform="translate(63.623047 0)"/>
       <use xlink:href="#DejaVuSans-30" transform="translate(95.410156 0)"/>
      </g>
     </g>
    </g>
    <g id="ytick_3">
     <g id="line2d_9">
      <g>
       <use xlink:href="#m0776f06f96" x="37.85375" y="62.176622" style="stroke: #000000; stroke-width: 0.7"/>
      </g>
     </g>
     <g id="text_10">
      <!-- 4.5 -->
      <g transform="translate(19.426406 65.026036) scale(0.075 -0.075)">
       <use xlink:href="#DejaVuSans-34"/>
       <use xlink:href="#DejaVuSans-2e" transform="translate(63.623047 0)"/>
       <use xlink:href="#DejaVuSans-35" transform="translate(95.410156 0)"/>
      </g>
     </g>
    </g>
    <g id="ytick_4">
     <g id="line2d_10">
      <g>
       <use xlink:href="#m0776f06f96" x="37.85375" y="35.072074" style="stroke: #000000; stroke-width: 0.7"/>
      </g>
     </g>
     <g id="text_11">
      <!-- 5.0 -->
      <g transform="translate(19.426406 37.921488) scale(0.075 -0.075)">
       <use xlink:href="#DejaVuSans-35"/>
       <use xlink:href="#DejaVuSans-2e" transform="translate(63.623047 0)"/>
       <use xlink:href="#DejaVuSans-30" transform="translate(95.410156 0)"/>
      </g>
     </g>
    </g>
    <g id="text_12">
     <!-- Rg (nm) -->
     <g transform="translate(13.658672 93.219922) rotate(-90) scale(0.085 -0.085)">
      <defs>
       <path id="DejaVuSans-52" d="M 2841 2188 
Q 3044 2119 3236 1894 
Q 3428 1669 3622 1275 
L 4263 0 
L 3584 0 
L 2988 1197 
Q 2756 1666 2539 1819 
Q 2322 1972 1947 1972 
L 1259 1972 
L 1259 0 
L 628 0 
L 628 4666 
L 2053 4666 
Q 2853 4666 3247 4331 
Q 3641 3997 3641 3322 
Q 3641 2881 3436 2590 
Q 3231 2300 2841 2188 
z
M 1259 4147 
L 1259 2491 
L 2053 2491 
Q 2509 2491 2742 2702 
Q 2975 2913 2975 3322 
Q 2975 3731 2742 3939 
Q 2509 4147 2053 4147 
L 1259 4147 
z
" transform="scale(0.015625)"/>
       <path id="DejaVuSans-67" d="M 2906 1791 
Q 2906 2416 2648 2759 
Q 2391 3103 1925 3103 
Q 1463 3103 1205 2759 
Q 947 2416 947 1791 
Q 947 1169 1205 825 
Q 1463 481 1925 481 
Q 2391 481 2648 825 
Q 2906 1169 2906 1791 
z
M 3481 434 
Q 3481 -459 3084 -895 
Q 2688 -1331 1869 -1331 
Q 1566 -1331 1297 -1286 
Q 1028 -1241 775 -1147 
L 775 -588 
Q 1028 -725 1275 -790 
Q 1522 -856 1778 -856 
Q 2344 -856 2625 -561 
Q 2906 -266 2906 331 
L 2906 616 
Q 2728 306 2450 153 
Q 2172 0 1784 0 
Q 1141 0 747 490 
Q 353 981 353 1791 
Q 353 2603 747 3093 
Q 1141 3584 1784 3584 
Q 2172 3584 2450 3431 
Q 2728 3278 2906 2969 
L 2906 3500 
L 3481 3500 
L 3481 434 
z
" transform="scale(0.015625)"/>
      </defs>
      <use xlink:href="#DejaVuSans-52"/>
      <use xlink:href="#DejaVuSans-67" transform="translate(69.482422 0)"/>
      <use xlink:href="#DejaVuSans-20" transform="translate(132.958984 0)"/>
      <use xlink:href="#DejaVuSans-28" transform="translate(164.746094 0)"/>
      <use xlink:href="#DejaVuSans-6e" transform="translate(203.759766 0)"/>
      <use xlink:href="#DejaVuSans-6d" transform="translate(267.138672 0)"/>
      <use xlink:href="#DejaVuSans-29" transform="translate(364.550781 0)"/>
     </g>
    </g>
   </g>
   <g id="line2d_11">
    <path d="M 46.079205 111.243984 
L 46.210812 117.069836 
L 46.243714 115.550897 
L 46.35887 110.916561 
L 46.375321 111.722651 
L 46.391772 112.0311 
L 46.408223 111.794207 
L 46.441125 110.089873 
L 46.490477 113.940345 
L 46.523379 114.283488 
L 46.934652 101.009307 
L 47.08271 107.63908 
L 47.099161 105.315136 
L 47.132063 104.22228 
L 47.164965 105.443611 
L 47.559786 114.518756 
L 47.691394 107.898199 
L 47.724295 109.686015 
L 47.757197 106.309872 
L 47.773648 107.170171 
L 47.855903 104.320399 
L 47.888805 106.115262 
L 48.086215 115.70973 
L 48.102666 113.372775 
L 48.16847 111.458652 
L 48.201372 113.478483 
L 48.217823 112.981928 
L 48.448135 122.20669 
L 48.250725 110.752308 
L 48.464586 121.709592 
L 48.546841 125.176264 
L 48.579743 124.389148 
L 48.612645 121.054204 
L 48.694899 122.348175 
L 48.71135 122.232168 
L 48.744252 122.697824 
L 48.842957 117.20319 
L 48.875859 119.693556 
L 49.122623 111.593633 
L 48.925212 120.522413 
L 49.139074 111.720482 
L 49.188426 112.467484 
L 49.171975 111.072141 
L 49.204877 111.20658 
L 49.237779 107.87001 
L 49.270681 111.364871 
L 49.303583 110.486141 
L 49.369386 112.804122 
L 49.336485 109.867073 
L 49.402288 110.833621 
L 49.43519 111.895036 
L 49.517445 109.675715 
L 49.533895 111.864678 
L 49.583248 109.628011 
L 49.61615 110.318093 
L 49.632601 109.57597 
L 49.665503 111.74325 
L 49.681954 111.236937 
L 49.731306 113.080046 
L 49.747757 110.485599 
L 49.764208 110.828743 
L 49.79711 107.306236 
L 49.862914 109.727756 
L 49.912266 112.407312 
L 49.961619 110.601607 
L 49.97807 109.140129 
L 50.010972 112.443632 
L 50.060325 111.034737 
L 50.109677 107.969755 
L 50.175481 112.572649 
L 50.208383 108.809454 
L 50.224834 106.80968 
L 50.307088 107.070426 
L 50.372892 113.172744 
L 50.422245 108.091725 
L 50.537401 103.321325 
L 50.553852 103.940393 
L 50.652557 109.352629 
L 50.685459 107.848869 
L 50.718361 105.763987 
L 50.734812 108.393128 
L 50.751263 109.548324 
L 50.800615 107.474826 
L 50.833517 108.256521 
L 50.849968 107.82068 
L 50.866419 108.590449 
L 50.88287 110.614075 
L 50.915772 104.808281 
L 50.948674 108.503715 
L 51.06383 102.220338 
L 51.080281 103.769634 
L 51.178986 108.154608 
L 51.195437 104.717751 
L 51.228339 99.836764 
L 51.310594 103.100152 
L 51.376397 104.565424 
L 51.409299 103.270911 
L 51.42575 102.118967 
L 51.491554 104.559461 
L 51.508005 105.557992 
L 51.573808 103.151651 
L 51.590259 103.905699 
L 51.639612 102.69521 
L 51.656063 103.442211 
L 51.78767 108.995391 
L 51.804121 108.909199 
L 51.902826 104.361598 
L 51.919277 108.195807 
L 52.001532 115.335687 
L 52.083786 112.562892 
L 52.281197 106.099541 
L 52.314099 105.958598 
L 52.347001 107.788155 
L 52.429255 110.436269 
L 52.396354 106.568992 
L 52.462157 110.152213 
L 52.527961 107.83369 
L 52.495059 110.270931 
L 52.577314 108.529193 
L 52.610215 113.371691 
L 52.676019 109.810696 
L 52.791175 105.777539 
L 52.840528 106.370587 
L 52.922783 104.313894 
L 52.889881 106.774987 
L 52.939234 105.130283 
L 53.087292 110.135408 
L 53.136645 107.11542 
L 53.185997 111.014138 
L 53.202448 110.271473 
L 53.23535 111.569239 
L 53.268252 111.155624 
L 53.432761 118.128539 
L 53.449212 115.421879 
L 53.531466 115.76177 
L 53.59727 120.325634 
L 53.630172 115.517829 
L 53.646623 113.735976 
L 53.712426 116.854626 
L 53.728877 114.922071 
L 53.745328 116.209537 
L 53.794681 112.490251 
L 53.811132 113.110403 
L 53.827583 112.992228 
L 53.860485 117.03731 
L 53.942739 115.50753 
L 54.074346 110.007475 
L 54.107248 110.915477 
L 54.14015 115.15246 
L 54.222405 113.971244 
L 54.288208 111.366497 
L 54.337561 112.949402 
L 54.469168 117.075799 
L 54.485619 115.503735 
L 54.534972 114.542066 
L 54.567874 115.972644 
L 54.584325 114.841842 
L 54.617226 115.940118 
L 54.650128 114.037379 
L 54.666579 114.500867 
L 54.68303 113.394459 
L 54.732383 115.814353 
L 54.765285 114.18808 
L 54.781735 115.166012 
L 54.798186 113.617259 
L 54.86399 114.41088 
L 54.880441 114.288909 
L 55.012048 109.852437 
L 55.061401 112.201859 
L 55.127205 111.905877 
L 55.176557 110.330561 
L 55.160106 112.879473 
L 55.193008 112.118919 
L 55.209459 112.906035 
L 55.258812 110.972939 
L 55.275263 111.33885 
L 55.423321 108.472273 
L 55.489125 110.320803 
L 55.522026 109.796059 
L 55.604281 104.440201 
L 55.653634 107.591918 
L 55.883946 113.851442 
L 55.900397 116.104372 
L 55.966201 112.794364 
L 55.999103 114.487857 
L 56.081357 107.007001 
L 56.114259 110.185281 
L 56.180063 112.038148 
L 56.196514 110.155466 
L 56.344572 103.977255 
L 56.426826 108.262484 
L 56.476179 108.14214 
L 56.509081 111.552434 
L 56.525532 111.42179 
L 56.541983 113.954439 
L 56.624237 110.387481 
L 56.640688 107.821222 
L 56.706492 114.704693 
L 56.722943 114.548029 
L 56.739394 115.23269 
L 56.755845 116.109793 
L 56.788746 112.046821 
L 56.805197 112.104825 
L 56.887452 114.288909 
L 56.903903 111.583875 
L 56.920354 112.777018 
L 57.051961 110.987575 
L 57.068412 111.951413 
L 57.084863 111.765476 
L 57.232921 118.542155 
L 57.298725 113.85361 
L 57.331626 118.330739 
L 57.364528 118.629974 
L 57.496135 114.255842 
L 57.660645 123.277861 
L 57.677095 120.714313 
L 57.693546 117.507845 
L 57.775801 122.134592 
L 57.858055 125.051583 
L 57.808703 122.078214 
L 57.923859 123.927828 
L 58.006114 123.132039 
L 58.022565 123.98529 
L 58.039015 124.246578 
L 58.170623 118.638105 
L 58.236426 115.893498 
L 58.203525 119.840463 
L 58.252877 116.379754 
L 58.335132 110.340319 
L 58.368034 111.114425 
L 58.384485 112.457726 
L 58.417386 108.97967 
L 58.433837 111.780112 
L 58.516092 107.524698 
L 58.548994 110.213469 
L 58.581895 108.750908 
L 58.631248 109.480562 
L 58.680601 108.937929 
L 58.795757 117.461768 
L 58.812208 116.905582 
L 58.84511 118.453252 
L 58.861561 120.395564 
L 58.927365 117.861831 
L 58.943815 119.359628 
L 59.009619 116.893656 
L 59.02607 119.047384 
L 59.042521 120.941991 
L 59.108325 118.277072 
L 59.124775 120.154875 
L 59.190579 117.185843 
L 59.223481 120.65631 
L 59.256383 122.057073 
L 59.322186 118.098182 
L 59.38799 122.028342 
L 59.420892 119.768365 
L 59.585401 113.193885 
L 59.601852 113.380365 
L 59.651205 115.388812 
L 59.634754 113.263815 
L 59.717008 113.973412 
L 59.766361 115.247868 
L 59.865066 117.037852 
L 59.881517 115.695093 
L 59.897968 114.098635 
L 59.93087 117.828221 
L 60.029575 122.476109 
L 60.046026 122.27933 
L 60.095379 118.89614 
L 60.177634 120.133192 
L 60.194085 123.002479 
L 60.276339 118.628347 
L 60.358594 116.428 
L 60.407946 120.95446 
L 60.424397 121.319829 
L 60.440848 120.0367 
L 60.457299 118.869578 
L 60.506652 121.368617 
L 60.523103 121.360486 
L 60.539554 121.126302 
L 60.638259 125.660893 
L 60.687612 124.493229 
L 60.720514 123.523971 
L 60.736965 124.614658 
L 60.753415 125.59259 
L 60.786317 122.356307 
L 60.868572 117.374491 
L 60.950826 119.272893 
L 61.049532 121.964917 
L 61.082434 121.804458 
L 61.131786 117.160907 
L 61.214041 119.780833 
L 61.246943 117.73986 
L 61.329197 119.353665 
L 61.345648 119.761317 
L 61.460805 112.49513 
L 61.493706 112.93585 
L 61.625314 116.292477 
L 61.789823 107.349061 
L 61.822725 106.701262 
L 61.888528 108.120456 
L 61.92143 105.525467 
L 62.003685 107.477536 
L 62.020135 109.670294 
L 62.036586 106.914846 
L 62.10239 108.497209 
L 62.233997 104.532898 
L 62.398506 111.57737 
L 62.447859 108.096062 
L 62.513663 108.541119 
L 62.628819 107.034648 
L 62.64527 107.758882 
L 62.776877 114.134413 
L 62.793328 112.957534 
L 62.809779 112.861042 
L 62.990739 105.138414 
L 63.072994 110.509451 
L 63.105895 107.417906 
L 63.122346 107.121925 
L 63.253954 100.656948 
L 63.352659 105.973776 
L 63.303306 100.607618 
L 63.385561 104.361598 
L 63.517168 109.207891 
L 63.533619 109.065321 
L 63.632325 105.489147 
L 63.648775 106.806428 
L 63.665226 107.815801 
L 63.714579 105.807354 
L 63.813285 104.596865 
L 63.829735 105.520588 
L 64.010695 111.479252 
L 64.060048 109.56296 
L 64.109401 106.978813 
L 64.125852 109.590065 
L 64.142303 109.230659 
L 64.224557 111.697172 
L 64.257459 109.60687 
L 64.306812 110.948545 
L 64.356165 110.495357 
L 64.45487 106.929482 
L 64.389066 111.152371 
L 64.471321 108.078173 
L 64.520674 106.480089 
L 64.570026 110.267679 
L 64.619379 105.816028 
L 64.685183 108.382286 
L 64.701634 107.441758 
L 64.734535 109.645358 
L 64.750986 108.717298 
L 64.767437 110.094209 
L 64.800339 106.51153 
L 64.866143 109.174823 
L 65.047103 103.162492 
L 65.063554 105.125404 
L 65.129357 102.54234 
L 65.145808 103.919251 
L 65.162259 103.358729 
L 65.17871 105.791634 
L 65.293866 107.479705 
L 65.244514 105.238701 
L 65.310317 107.18806 
L 65.326768 107.616312 
L 65.343219 106.410159 
L 65.392572 106.993449 
L 65.409023 106.839495 
L 65.425474 107.479705 
L 65.491277 111.609354 
L 65.54063 109.876289 
L 65.557081 109.033337 
L 65.622885 111.277052 
L 65.655786 111.619653 
L 65.72159 108.956903 
L 65.820295 103.616765 
L 65.853197 105.624127 
L 65.935452 110.121314 
L 65.968354 108.013664 
L 66.034157 110.256295 
L 66.067059 108.086847 
L 66.08351 106.858469 
L 66.116412 110.725745 
L 66.231568 113.973954 
L 66.330274 114.29433 
L 66.346725 111.965507 
L 66.363175 115.4273 
L 66.396077 111.783907 
L 66.461881 113.92354 
L 66.511234 109.642106 
L 66.577037 113.196596 
L 66.708645 105.941793 
L 66.725095 106.928398 
L 66.741546 107.481873 
L 66.757997 107.349603 
L 66.80735 103.28121 
L 66.856703 105.35525 
L 66.971859 109.533687 
L 66.98831 108.356266 
L 67.004761 108.135093 
L 67.021212 109.465926 
L 67.054114 103.766924 
L 67.119917 107.274794 
L 67.087015 103.255732 
L 67.136368 104.177829 
L 67.218623 101.501526 
L 67.185721 106.537009 
L 67.251525 103.495336 
L 67.35023 103.242722 
L 67.383132 107.359903 
L 67.432485 108.186591 
L 67.53119 101.351909 
L 67.629895 108.041311 
L 67.646346 106.887741 
L 67.662797 102.842117 
L 67.761503 103.895941 
L 67.810855 105.639306 
L 67.860208 102.175345 
L 67.909561 104.940009 
L 67.975365 103.875884 
L 68.008266 101.322094 
L 68.057619 105.523299 
L 68.07407 105.201296 
L 68.172775 105.295078 
L 68.205677 102.678947 
L 68.271481 107.202154 
L 68.320834 106.990197 
L 68.337285 104.386534 
L 68.386637 107.248232 
L 68.403088 106.699094 
L 68.468892 110.953966 
L 68.518245 108.580691 
L 68.551146 109.492488 
L 68.584048 109.243127 
L 68.715655 115.718945 
L 68.863714 107.423327 
L 68.913066 109.663247 
L 68.945968 111.425043 
L 69.061125 105.573171 
L 69.110477 107.741535 
L 69.209183 104.193007 
L 69.225634 104.453753 
L 69.258535 105.535225 
L 69.274986 103.708378 
L 69.324339 101.620786 
L 69.307888 103.938767 
L 69.373692 103.253022 
L 69.390143 106.271926 
L 69.439495 103.165203 
L 69.488848 105.963476 
L 69.505299 106.837327 
L 69.538201 103.521899 
L 69.587554 100.965398 
L 69.620455 104.444538 
L 69.636906 104.998012 
L 69.653357 102.997697 
L 69.768514 100.826623 
L 69.719161 103.276874 
L 69.801415 100.930704 
L 69.850768 106.139114 
L 69.900121 102.789534 
L 69.916572 98.016965 
L 69.965925 103.087684 
L 70.015277 101.0955 
L 70.097532 103.904073 
L 70.113983 101.255959 
L 70.146885 98.454975 
L 70.212688 100.962687 
L 70.24559 102.388387 
L 70.278492 100.602739 
L 70.377197 97.351277 
L 70.410099 98.602965 
L 70.42655 100.804939 
L 70.459452 97.562151 
L 70.525255 100.228696 
L 70.541706 100.21677 
L 70.60751 103.120751 
L 70.623961 104.412012 
L 70.640412 101.255416 
L 70.689765 101.454906 
L 70.772019 102.784655 
L 70.804921 99.263774 
L 70.903626 106.199828 
L 70.920077 102.538004 
L 71.068135 105.125946 
L 71.084586 103.585865 
L 71.232645 95.863238 
L 71.281997 97.55944 
L 71.528761 109.458337 
L 71.33135 96.362504 
L 71.578114 106.781492 
L 71.611015 105.632259 
L 71.643917 106.329388 
L 71.676819 109.240958 
L 71.775525 107.79466 
L 71.791975 108.623517 
L 71.841328 106.787455 
L 71.857779 107.832606 
L 71.87423 104.245048 
L 71.956485 108.598038 
L 72.071641 111.780654 
L 72.005837 107.936687 
L 72.088092 111.460279 
L 72.153895 105.227859 
L 72.219699 108.457095 
L 72.252601 104.397918 
L 72.334855 105.34224 
L 72.466463 114.232532 
L 72.482914 113.575518 
L 72.515815 111.4657 
L 72.532266 114.32794 
L 72.581619 113.460052 
L 72.59807 113.895893 
L 72.663874 113.377654 
L 72.828383 105.851264 
L 72.844834 109.235537 
L 72.877735 105.724414 
L 72.943539 108.038058 
L 73.058695 115.694551 
L 73.108048 115.177938 
L 73.239655 103.424864 
L 73.256106 104.840264 
L 73.305459 107.861879 
L 73.354812 104.691189 
L 73.371263 103.093105 
L 73.387714 107.027059 
L 73.453517 104.208186 
L 73.50287 108.737898 
L 73.585125 107.81038 
L 73.650928 108.931424 
L 73.68383 106.182481 
L 73.733183 112.571565 
L 73.782535 107.249858 
L 73.848339 103.811375 
L 73.930594 104.442911 
L 73.979946 104.031464 
L 73.996397 105.254963 
L 74.144455 97.625575 
L 74.210259 94.791524 
L 74.259612 94.978003 
L 74.292514 98.181761 
L 74.341866 94.229376 
L 74.358317 94.942225 
L 74.374768 95.065822 
L 74.440572 91.152467 
L 74.473474 93.446596 
L 74.539277 95.002939 
L 74.506375 92.895832 
L 74.555728 94.778514 
L 74.621532 96.488811 
L 74.670885 90.612003 
L 74.76959 93.137604 
L 74.753139 89.590703 
L 74.786041 92.570035 
L 74.802492 92.596598 
L 74.835394 90.511174 
L 74.851845 89.900779 
L 74.884746 92.000298 
L 74.901197 92.875775 
L 74.917648 91.497237 
L 74.934099 88.267459 
L 74.999903 95.529852 
L 75.016354 98.826307 
L 75.082157 93.228134 
L 75.098608 91.116147 
L 75.147961 94.742736 
L 75.164412 93.929057 
L 75.213765 96.998376 
L 75.279568 96.280106 
L 75.328921 96.577172 
L 75.361823 94.440791 
L 75.378274 97.657017 
L 75.460528 95.39704 
L 75.542783 96.252459 
L 75.592135 90.694401 
L 75.641488 94.608297 
L 75.707292 92.38464 
L 75.756645 89.495295 
L 75.805997 92.115763 
L 75.822448 93.041112 
L 75.871801 91.472301 
L 75.904703 92.726157 
L 75.970506 89.863917 
L 75.937605 94.712379 
L 76.03631 91.446823 
L 76.069212 90.97683 
L 76.085663 92.21876 
L 76.102114 93.224881 
L 76.135015 89.397719 
L 76.167917 91.398577 
L 76.250172 88.978141 
L 76.266623 92.384098 
L 76.365328 89.331584 
L 76.381779 90.069912 
L 76.431132 92.957088 
L 76.480485 91.180656 
L 76.546288 87.380599 
L 76.595641 88.86647 
L 76.628543 85.469186 
L 76.677895 89.918668 
L 76.727248 87.322053 
L 76.809503 87.117142 
L 76.842405 90.179956 
L 76.924659 84.773683 
L 76.974012 86.640644 
L 77.089168 90.265607 
L 77.12207 89.289301 
L 77.138521 89.310442 
L 77.154972 90.089427 
L 77.171423 87.58063 
L 77.187874 85.928879 
L 77.220775 88.240897 
L 77.270128 87.878238 
L 77.286579 88.80955 
L 77.335932 85.445876 
L 77.352383 86.389656 
L 77.385285 84.07276 
L 77.451088 85.193262 
L 77.467539 88.880564 
L 77.549794 82.554363 
L 77.566245 82.534305 
L 77.66495 77.679339 
L 77.697852 78.678413 
L 77.796557 83.146326 
L 77.780106 78.410077 
L 77.829459 81.850187 
L 77.84591 76.849398 
L 77.928165 82.860102 
L 77.977517 88.746126 
L 78.043321 85.711501 
L 78.059772 86.476933 
L 78.092674 85.422566 
L 78.109125 82.202546 
L 78.174928 90.780593 
L 78.191379 90.830465 
L 78.20783 90.707411 
L 78.257183 87.872275 
L 78.306535 88.85617 
L 78.38879 93.873222 
L 78.405241 89.937099 
L 78.421692 88.3195 
L 78.471045 93.684574 
L 78.487495 95.850228 
L 78.536848 89.989682 
L 78.635554 86.849349 
L 78.652005 87.950336 
L 78.75071 91.495069 
L 78.717808 87.357831 
L 78.767161 89.602087 
L 78.832965 87.7129 
L 78.865866 89.367904 
L 78.882317 89.88018 
L 78.915219 88.508148 
L 78.93167 88.631202 
L 78.964572 88.877854 
L 78.981023 86.881333 
L 78.997474 83.520911 
L 79.063277 89.379288 
L 79.079728 89.444881 
L 79.096179 86.429771 
L 79.178434 89.775556 
L 79.244237 86.013987 
L 79.260688 81.844766 
L 79.342943 86.094759 
L 79.359394 87.834871 
L 79.425197 84.265744 
L 79.441648 85.249097 
L 79.458099 85.066412 
L 79.47455 83.556147 
L 79.507452 86.422182 
L 79.556805 85.683312 
L 79.787117 74.869139 
L 79.803568 76.351758 
L 79.902274 80.253187 
L 79.918725 78.551021 
L 79.984528 77.095507 
L 80.01743 79.596715 
L 80.050332 74.996531 
L 80.132586 76.308391 
L 80.19839 78.215467 
L 80.181939 74.907086 
L 80.247743 76.871081 
L 80.264194 76.9486 
L 80.280645 76.86566 
L 80.313546 82.291449 
L 80.395801 81.86916 
L 80.461605 77.817572 
L 80.510957 80.714506 
L 80.527408 80.614761 
L 80.543859 80.860871 
L 80.576761 82.358126 
L 80.609663 79.361989 
L 80.626114 79.531664 
L 80.642565 78.936448 
L 80.659015 79.285554 
L 80.724819 88.69029 
L 80.807074 87.696638 
L 80.938681 78.525001 
L 80.955132 79.127806 
L 80.971583 78.948374 
L 81.086739 83.893327 
L 81.119641 82.971773 
L 81.152543 80.758415 
L 81.185445 84.431624 
L 81.28415 92.542389 
L 81.366405 89.16733 
L 81.399306 87.470586 
L 81.432208 88.587293 
L 81.498012 91.315095 
L 81.530914 87.949252 
L 81.64607 80.222288 
L 81.678972 83.524706 
L 81.711874 82.095212 
L 81.859932 90.063949 
L 81.942186 94.022839 
L 81.958637 90.912863 
L 82.057343 88.686496 
L 82.040892 90.986045 
L 82.073794 90.036844 
L 82.106695 91.974819 
L 82.139597 95.16394 
L 82.205401 92.535884 
L 82.271205 87.291696 
L 82.337008 89.502885 
L 82.386361 95.0913 
L 82.485066 92.893121 
L 82.534419 89.959867 
L 82.55087 92.963051 
L 82.567321 90.72801 
L 82.583772 93.703005 
L 82.616674 89.365194 
L 82.666026 89.790193 
L 82.715379 88.138442 
L 82.781183 88.301611 
L 82.945692 93.167962 
L 82.962143 92.009513 
L 83.044397 89.376035 
L 83.027946 92.044207 
L 83.077299 90.809324 
L 83.143103 94.393087 
L 83.110201 89.479575 
L 83.159554 91.802977 
L 83.225357 87.620745 
L 83.27471 88.794914 
L 83.291161 89.68828 
L 83.307612 87.197372 
L 83.356965 85.109237 
L 83.389866 88.364494 
L 83.422768 85.502795 
L 83.488572 92.22906 
L 83.620179 91.832249 
L 83.653081 90.665128 
L 83.718885 86.360383 
L 83.768237 88.133563 
L 83.801139 88.575909 
L 83.81759 86.720332 
L 83.850492 89.957157 
L 83.883394 89.816213 
L 83.899845 90.112737 
L 83.916295 86.881333 
L 83.99855 91.426223 
L 84.097255 94.026092 
L 84.146608 89.378204 
L 84.212412 91.497237 
L 84.245314 93.631991 
L 84.294666 90.197303 
L 84.393372 88.393767 
L 84.327568 90.814745 
L 84.409823 89.92951 
L 84.590783 98.826307 
L 84.607234 99.27299 
L 84.689488 104.317146 
L 84.72239 101.043459 
L 84.755292 97.737246 
L 84.837546 99.666006 
L 84.870448 98.840943 
L 84.886899 100.862401 
L 84.919801 100.422223 
L 85.034957 105.418133 
L 85.067859 104.145845 
L 85.08431 104.516094 
L 85.100761 103.287715 
L 85.215917 97.922099 
L 85.183015 103.966413 
L 85.248819 100.235743 
L 85.298172 105.02078 
L 85.380426 103.707836 
L 85.462681 106.905088 
L 85.512034 105.744472 
L 85.528485 105.661532 
L 85.544935 105.757482 
L 85.62719 113.462763 
L 85.725895 111.002212 
L 85.824601 104.535609 
L 85.857503 106.125019 
L 85.923306 103.526235 
L 85.972659 105.859937 
L 86.038463 108.806201 
L 86.022012 105.195333 
L 86.054914 106.072979 
L 86.104266 103.105031 
L 86.17007 103.403181 
L 86.235874 105.30321 
L 86.285226 105.044632 
L 86.334579 102.493552 
L 86.367481 106.954961 
L 86.383932 108.183881 
L 86.416834 102.866511 
L 86.515539 99.284916 
L 86.548441 101.222891 
L 86.581343 103.962619 
L 86.597794 100.889505 
L 86.614245 101.471169 
L 86.630695 99.239922 
L 86.696499 101.701015 
L 86.71295 100.183161 
L 86.778754 102.368329 
L 86.828106 101.414791 
L 86.861008 102.832901 
L 86.926812 101.058095 
L 87.025517 96.393403 
L 87.041968 99.012786 
L 87.222928 93.399434 
L 87.239379 94.645159 
L 87.272281 94.251059 
L 87.354535 97.378382 
L 87.403888 93.047617 
L 87.453241 95.427939 
L 87.469692 98.018591 
L 87.519045 91.549278 
L 87.535495 90.883048 
L 87.551946 93.396724 
L 87.61775 92.404697 
L 87.667103 96.223186 
L 87.732906 91.779125 
L 87.79871 92.547267 
L 87.815161 91.927115 
L 87.848063 94.581193 
L 87.946768 98.138393 
L 87.963219 97.394103 
L 88.094826 92.658938 
L 88.111277 94.285211 
L 88.177081 91.320516 
L 88.242885 84.427829 
L 88.292237 88.342268 
L 88.440295 94.576314 
L 88.489648 93.557725 
L 88.52255 94.36002 
L 88.621255 91.518921 
L 88.736412 96.494232 
L 88.851568 90.497622 
L 88.88447 90.571888 
L 88.966725 100.496489 
L 89.016077 94.925963 
L 89.098332 94.351346 
L 89.197037 98.588329 
L 89.312194 94.620765 
L 89.328645 95.556414 
L 89.345095 98.343304 
L 89.394448 91.709195 
L 89.410899 94.555714 
L 89.476703 91.44357 
L 89.542506 91.820866 
L 89.60831 86.45796 
L 89.690565 88.613855 
L 89.78927 92.585214 
L 89.723466 88.226803 
L 89.805721 91.840923 
L 89.838623 90.604956 
L 89.855074 93.569651 
L 89.871525 93.385882 
L 89.953779 98.77264 
L 89.986681 97.120347 
L 90.052485 91.882122 
L 90.101837 94.426155 
L 90.134739 91.274438 
L 90.216994 95.622007 
L 90.249895 90.955146 
L 90.348601 92.509863 
L 90.430855 94.995892 
L 90.463757 88.751004 
L 90.546012 91.617039 
L 90.562463 91.374183 
L 90.578914 92.689295 
L 90.628266 96.251375 
L 90.661168 92.571119 
L 90.69407 94.699911 
L 90.809226 91.149215 
L 90.87503 96.071401 
L 90.842128 90.600619 
L 90.907932 92.745131 
L 90.940834 90.639649 
L 90.990186 92.132568 
L 91.121794 97.98444 
L 91.138245 97.478669 
L 91.154695 97.680869 
L 91.204048 93.21946 
L 91.269852 93.879185 
L 91.352106 98.041901 
L 91.302754 93.364741 
L 91.401459 98.037022 
L 91.467263 100.84939 
L 91.565968 93.262827 
L 91.664674 98.237054 
L 91.615321 92.078901 
L 91.697575 96.551693 
L 91.730477 92.079443 
L 91.812732 93.783235 
L 91.829183 93.058459 
L 91.845634 94.820255 
L 91.862085 96.620539 
L 91.911437 94.254312 
L 91.944339 95.487569 
L 92.010143 94.675516 
L 92.026594 96.466043 
L 92.043045 96.399908 
L 92.158201 88.071765 
L 92.224005 88.079354 
L 92.273357 89.81025 
L 92.306259 87.973104 
L 92.339161 88.238186 
L 92.355612 87.660317 
L 92.372063 89.724058 
L 92.388514 90.742105 
L 92.454317 88.538505 
L 92.470768 85.574894 
L 92.536572 92.852465 
L 92.553023 91.400203 
L 92.569474 93.854791 
L 92.651728 92.051796 
L 92.733983 96.846049 
L 92.783335 96.576629 
L 92.799786 95.126536 
L 92.849139 98.920631 
L 92.898492 102.321709 
L 92.964295 101.075984 
L 93.063001 96.493147 
L 93.161706 98.724936 
L 93.211059 101.998081 
L 93.276863 99.301721 
L 93.309765 97.979561 
L 93.359117 102.634496 
L 93.375568 104.137714 
L 93.424921 102.024644 
L 93.457823 103.545751 
L 93.605881 97.949204 
L 93.704586 94.795861 
L 93.655234 99.669258 
L 93.721037 96.868816 
L 93.819743 99.782013 
L 93.836194 98.960203 
L 94.017154 91.798098 
L 94.050055 94.453801 
L 94.115859 95.818786 
L 94.082957 92.07348 
L 94.165212 95.773793 
L 94.263917 90.982793 
L 94.280368 92.690922 
L 94.362623 97.011386 
L 94.411975 94.387666 
L 94.477779 93.495927 
L 94.49423 94.203897 
L 94.609386 98.870758 
L 94.708092 95.335241 
L 94.757445 100.466132 
L 94.839699 99.961445 
L 95.070012 95.094553 
L 94.872601 100.994129 
L 95.086463 96.42647 
L 95.135815 94.976377 
L 95.21807 100.34904 
L 95.234521 98.887563 
L 95.300325 102.186187 
L 95.316775 102.426333 
L 95.415481 106.60477 
L 95.431932 105.032706 
L 95.514186 102.208412 
L 95.57999 103.779934 
L 95.596441 103.953403 
L 95.612892 108.332414 
L 95.695146 101.392023 
L 95.777401 97.701468 
L 95.744499 101.474421 
L 95.810303 98.941772 
L 95.892557 102.006755 
L 95.876106 98.814923 
L 95.925459 100.54853 
L 96.057066 94.530778 
L 96.089968 96.99675 
L 96.221575 100.632012 
L 96.12287 94.97204 
L 96.238026 99.795023 
L 96.287379 96.766361 
L 96.353183 98.589413 
L 96.517692 93.776188 
L 96.386085 99.932715 
L 96.534143 94.487411 
L 96.567045 90.490032 
L 96.616397 94.879885 
L 96.632848 93.243312 
L 96.780906 98.440338 
L 96.797357 98.511352 
L 96.928965 94.787729 
L 96.945415 95.032754 
L 96.961866 94.22016 
L 97.011219 90.239586 
L 97.077023 92.966846 
L 97.290885 84.242434 
L 97.307335 84.877765 
L 97.438943 90.819081 
L 97.455394 90.491116 
L 97.57055 85.204645 
L 97.603452 86.531142 
L 97.652805 90.929126 
L 97.718608 87.731331 
L 97.850215 80.737274 
L 97.866666 82.069734 
L 97.981823 91.711363 
L 98.014725 89.029097 
L 98.080528 83.224929 
L 98.129881 86.764241 
L 98.245037 93.741494 
L 98.162783 85.886054 
L 98.360194 93.486169 
L 98.458899 86.879707 
L 98.508252 90.46347 
L 98.524703 91.676669 
L 98.574055 88.439844 
L 98.590506 88.848581 
L 98.623408 85.431239 
L 98.705663 86.861275 
L 98.755015 89.527279 
L 98.83727 89.147273 
L 98.853721 89.112579 
L 98.870172 90.590861 
L 98.919525 86.08717 
L 98.952426 90.255307 
L 99.051132 84.316158 
L 99.084034 85.209524 
L 99.100485 84.626234 
L 99.116935 86.17553 
L 99.232092 92.148288 
L 99.248543 91.893506 
L 99.314346 87.822403 
L 99.347248 89.38254 
L 99.38015 92.57383 
L 99.413052 88.883817 
L 99.429503 89.562515 
L 99.511757 84.031019 
L 99.544659 87.396319 
L 99.56111 87.904801 
L 99.577561 87.005472 
L 99.676266 77.059729 
L 99.74207 80.296554 
L 99.758521 80.949232 
L 99.857226 72.063819 
L 99.890128 74.567737 
L 99.906579 75.63403 
L 99.939481 72.286076 
L 99.955932 72.305591 
L 99.972383 72.506165 
L 100.005285 71.60792 
L 100.038186 71.191594 
L 100.10399 72.673671 
L 100.136892 71.114075 
L 100.169794 71.630146 
L 100.268499 73.887413 
L 100.219146 70.136143 
L 100.28495 72.88346 
L 100.367205 76.309475 
L 100.334303 71.15419 
L 100.400106 75.512059 
L 100.433008 72.360885 
L 100.515263 73.742132 
L 100.531714 74.217004 
L 100.663321 80.407683 
L 100.762026 78.171015 
L 100.893634 72.58531 
L 100.910085 74.624114 
L 100.992339 77.630551 
L 101.00879 74.276092 
L 101.025241 75.986931 
L 101.058143 75.106575 
L 101.091045 77.400704 
L 101.107495 76.643403 
L 101.123946 77.317764 
L 101.140397 75.977173 
L 101.18975 76.3523 
L 101.222652 75.087602 
L 101.255554 77.941169 
L 101.272005 77.07816 
L 101.337808 77.074365 
L 101.37071 78.9397 
L 101.518768 66.869503 
L 101.55167 69.926896 
L 101.617474 65.325628 
L 101.73263 72.577721 
L 101.666826 64.635004 
L 101.749081 70.704797 
L 101.880688 64.386185 
L 101.91359 67.271193 
L 101.962943 66.226583 
L 102.028746 60.905961 
L 102.061648 61.870883 
L 102.127452 66.587616 
L 102.160354 59.981154 
L 102.176805 59.278604 
L 102.209706 61.875219 
L 102.341314 66.952443 
L 102.357765 64.679456 
L 102.440019 67.499955 
L 102.571626 72.95339 
L 102.588077 71.898481 
L 102.604528 68.392237 
L 102.670332 75.835688 
L 102.686783 76.039514 
L 102.752586 74.176889 
L 102.769037 75.956574 
L 102.917095 80.975252 
L 102.81839 73.756769 
L 102.933546 80.602835 
L 103.032252 75.79232 
L 103.065154 77.193625 
L 103.081605 79.3544 
L 103.098055 74.494555 
L 103.163859 76.836387 
L 103.196761 73.346406 
L 103.229663 77.911354 
L 103.262565 76.491076 
L 103.279015 77.196878 
L 103.295466 75.052908 
L 103.476426 66.902029 
L 103.54223 64.585132 
L 103.624485 71.323865 
L 103.772543 64.387269 
L 103.854797 60.311829 
L 103.887699 63.590395 
L 104.035757 73.367547 
L 104.183815 66.944312 
L 104.216717 71.282666 
L 104.282521 65.9821 
L 104.315423 61.171585 
L 104.381226 66.187553 
L 104.397677 64.486471 
L 104.512834 56.233679 
L 104.529285 59.623916 
L 104.62799 56.918882 
L 104.595088 61.49955 
L 104.644441 57.634984 
L 104.693794 59.128444 
L 104.710245 57.748281 
L 104.80895 54.49953 
L 104.825401 55.027526 
L 104.841852 54.997711 
L 104.858303 55.179312 
L 104.891205 51.581996 
L 104.957008 54.734797 
L 104.98991 57.62631 
L 105.055714 55.749592 
L 105.072165 55.148955 
L 105.088615 57.051694 
L 105.121517 56.833231 
L 105.236674 63.297666 
L 105.253125 61.29735 
L 105.318928 51.036111 
L 105.384732 56.008711 
L 105.417634 53.594238 
L 105.434085 56.050452 
L 105.466986 55.42 
L 105.499888 58.486609 
L 105.53279 54.075073 
L 105.582143 57.233294 
L 105.71375 52.780559 
L 105.878259 59.579464 
L 105.89471 59.664572 
L 106.026317 55.582085 
L 106.042768 56.146944 
L 106.059219 53.323192 
L 106.092121 54.309256 
L 106.141474 51.990733 
L 106.157925 54.387859 
L 106.322434 66.520397 
L 106.338885 64.463704 
L 106.355335 64.440394 
L 106.371786 68.072403 
L 106.43759 61.994479 
L 106.486943 59.184822 
L 106.536295 61.760296 
L 106.552746 62.62981 
L 106.569197 61.163454 
L 106.700805 56.108456 
L 106.717255 56.329087 
L 106.733706 58.340244 
L 106.783059 54.290283 
L 106.815961 55.318629 
L 106.865314 53.403964 
L 106.848863 56.359444 
L 106.914666 54.861104 
L 106.98047 57.301056 
L 107.029823 55.33435 
L 107.046274 54.779249 
L 107.128528 63.445657 
L 107.16143 61.051241 
L 107.177881 58.732718 
L 107.210783 63.05752 
L 107.260135 61.636699 
L 107.622055 75.577652 
L 107.737212 69.022688 
L 107.654957 75.619393 
L 107.819466 70.123133 
L 108.115583 92.001382 
L 108.164935 93.301858 
L 108.263641 88.323837 
L 108.411699 95.256096 
L 108.444601 96.595061 
L 108.477503 99.563551 
L 108.543306 95.237123 
L 108.559757 96.3148 
L 108.576208 94.266238 
L 108.625561 86.870491 
L 108.691365 90.545868 
L 108.773619 82.554363 
L 108.822972 84.052702 
L 108.954579 89.510474 
L 108.97103 89.373325 
L 109.102637 81.669128 
L 109.003932 89.668222 
L 109.119088 82.719158 
L 109.184892 89.700206 
L 109.234245 86.524637 
L 109.250695 86.470428 
L 109.365852 94.716173 
L 109.398754 93.013466 
L 109.563263 84.713511 
L 109.596165 85.759747 
L 109.612615 89.152152 
L 109.678419 84.454934 
L 109.711321 86.720874 
L 109.842928 83.342021 
L 109.760674 86.959394 
L 109.859379 84.420782 
L 109.974535 88.069596 
L 109.892281 83.828277 
L 109.990986 87.804514 
L 110.122594 82.067565 
L 110.270652 71.678392 
L 110.320005 73.13228 
L 110.451612 80.458639 
L 110.484514 79.08986 
L 110.517415 74.701091 
L 110.550317 79.180389 
L 110.59967 76.461261 
L 110.616121 76.370189 
L 110.813532 66.344217 
L 110.862885 64.424131 
L 110.846434 67.311849 
L 110.895786 64.772153 
L 110.945139 64.409494 
L 111.060295 73.331227 
L 111.109648 70.173548 
L 111.224805 66.598458 
L 111.339961 71.841561 
L 111.356412 71.027341 
L 111.488019 66.950817 
L 111.50447 65.208537 
L 111.537372 69.115928 
L 111.553823 68.060477 
L 111.586725 71.320612 
L 111.636077 65.77448 
L 111.652528 66.046609 
L 111.668979 64.736917 
L 111.68543 63.162685 
L 111.718332 65.450309 
L 111.767685 64.533633 
L 111.882841 69.560985 
L 111.833488 64.490266 
L 111.899292 68.200879 
L 111.981546 64.163927 
L 111.932194 68.355917 
L 112.030899 66.416857 
L 112.063801 70.241851 
L 112.113154 65.007963 
L 112.277663 57.615469 
L 112.491525 70.612641 
L 112.524426 66.185927 
L 112.540877 64.517913 
L 112.606681 66.235799 
L 112.623132 65.44272 
L 112.656034 69.273677 
L 112.688935 65.049704 
L 112.721837 65.103371 
L 112.77119 63.090587 
L 112.836994 66.662424 
L 112.853445 65.447599 
L 112.902797 69.917139 
L 112.95215 74.982436 
L 113.017954 71.059324 
L 113.050855 64.74017 
L 113.100208 69.42763 
L 113.116659 74.637667 
L 113.198914 68.982574 
L 113.248266 64.394316 
L 113.264717 63.632136 
L 113.297619 65.222631 
L 113.31407 64.541765 
L 113.363423 68.012231 
L 113.396325 62.764791 
L 113.445677 59.613074 
L 113.478579 65.776648 
L 113.49503 67.635478 
L 113.527932 63.831083 
L 113.544383 64.278308 
L 113.774695 47.058789 
L 113.791146 49.327982 
L 113.840499 46.266252 
L 113.85695 46.615359 
L 114.021459 39.705326 
L 114.03791 39.958482 
L 114.153066 46.735161 
L 114.169517 45.37885 
L 114.202419 42.046616 
L 114.235321 48.27741 
L 114.366928 53.886967 
L 114.383379 53.438116 
L 114.449183 48.418354 
L 114.514986 50.330308 
L 114.547888 51.72565 
L 114.58079 50.279894 
L 114.597241 50.394817 
L 114.613692 48.183086 
L 114.679495 51.379796 
L 114.695946 50.566118 
L 114.712397 52.692741 
L 114.76175 47.671894 
L 114.794652 49.324187 
L 114.811103 49.51934 
L 114.909808 54.309256 
L 114.94271 53.746023 
L 115.008514 48.708372 
L 115.173023 40.549361 
L 115.057866 52.127882 
L 115.205925 42.778439 
L 115.255277 45.730124 
L 115.288179 41.918141 
L 115.30463 43.617054 
L 115.370434 39.588234 
L 115.419786 40.635012 
L 115.436237 41.672032 
L 115.452688 38.17934 
L 115.518492 33.915794 
L 115.551394 38.8949 
L 115.567845 38.445506 
L 115.617197 44.634559 
L 115.683001 40.272895 
L 115.748805 44.033922 
L 115.798157 43.053279 
L 115.896863 37.905042 
L 115.929765 38.765882 
L 115.946215 39.462469 
L 115.979117 36.581255 
L 115.995568 37.183519 
L 116.012019 37.418244 
L 116.044921 34.289295 
L 116.077823 40.034917 
L 116.094274 39.273279 
L 116.110725 39.989381 
L 116.160077 37.484921 
L 116.176528 37.501184 
L 116.242332 40.328188 
L 116.308135 39.954687 
L 116.423292 34.928962 
L 116.456194 37.485463 
L 116.489095 33.787861 
L 116.521997 34.40476 
L 116.587801 28.569693 
L 116.620703 34.703452 
L 116.637154 34.037223 
L 116.653605 35.318184 
L 116.686506 31.447654 
L 116.702957 31.536015 
L 116.719408 30.367809 
L 116.735859 32.721026 
L 116.75231 31.823865 
L 116.768761 34.840059 
L 116.834565 29.514016 
L 116.916819 25.477607 
L 116.93327 27.058886 
L 117.048426 37.659474 
L 117.064877 34.850901 
L 117.212935 27.314753 
L 117.229386 30.052312 
L 117.311641 32.858175 
L 117.29519 29.111242 
L 117.328092 30.5158 
L 117.393895 27.582004 
L 117.410346 28.697627 
L 117.426797 31.409166 
L 117.47615 26.252255 
L 117.492601 26.978114 
L 117.509052 26.120526 
L 117.574855 27.720779 
L 117.690012 37.236101 
L 117.739365 36.153004 
L 117.805168 31.237323 
L 117.83807 35.775708 
L 117.870972 35.228739 
L 117.903874 35.757277 
L 117.936775 32.370835 
L 117.953226 35.9031 
L 118.002579 35.62067 
L 118.035481 36.403992 
L 118.051932 34.70291 
L 118.068383 33.63987 
L 118.101285 36.991618 
L 118.117735 40.49461 
L 118.183539 34.051317 
L 118.216441 32.895579 
L 118.265794 37.345604 
L 118.331597 35.526347 
L 118.348048 35.053101 
L 118.38095 37.144488 
L 118.413852 36.102047 
L 118.430303 36.66528 
L 118.56191 47.856205 
L 118.693517 41.354366 
L 118.726419 44.257263 
L 118.74287 46.370876 
L 118.808674 42.950282 
L 118.890928 38.890021 
L 118.841575 45.144666 
L 118.940281 41.798881 
L 118.973183 43.120499 
L 118.989634 40.273979 
L 119.022535 39.012533 
L 119.038986 41.507236 
L 119.170594 45.750724 
L 119.121241 41.275221 
L 119.187045 45.508409 
L 119.236397 46.274384 
L 119.269299 40.345535 
L 119.28575 37.580871 
L 119.335103 42.613102 
L 119.384455 38.334378 
L 119.400906 38.538204 
L 119.532514 45.651521 
L 119.631219 42.412528 
L 119.64767 43.568266 
L 119.697023 49.479768 
L 119.795728 46.650053 
L 119.812179 44.233953 
L 119.894434 48.391249 
L 119.910885 45.694889 
L 119.960237 49.21089 
L 119.976688 45.017817 
L 120.075394 39.749777 
L 120.108295 41.689379 
L 120.141197 40.651274 
L 120.19055 43.278247 
L 120.207001 40.141167 
L 120.239903 45.916062 
L 120.289255 41.132651 
L 120.404412 45.600023 
L 120.420863 44.631306 
L 120.536019 39.798023 
L 120.519568 44.900725 
L 120.55247 40.172608 
L 120.618274 37.462153 
L 120.634725 40.635554 
L 120.684077 37.631828 
L 120.716979 37.096784 
L 120.832135 47.361818 
L 120.881488 50.158465 
L 120.930841 45.997375 
L 121.111801 36.422423 
L 120.963743 46.625659 
L 121.144703 39.070537 
L 121.27631 45.859684 
L 121.292761 44.733761 
L 121.309212 44.143966 
L 121.325663 44.254553 
L 121.473721 53.400169 
L 121.490172 53.519429 
L 121.572426 49.677631 
L 121.523074 54.475678 
L 121.588877 52.188054 
L 121.884994 68.218768 
L 122.065954 56.744871 
L 122.082405 57.095061 
L 122.18111 61.113582 
L 122.197561 58.628094 
L 122.345619 49.581139 
L 122.394972 51.560313 
L 122.493677 56.883104 
L 122.510128 54.471883 
L 122.608834 58.560875 
L 122.625285 56.798538 
L 122.641735 54.412795 
L 122.691088 57.301056 
L 122.72399 64.157964 
L 122.806245 63.174069 
L 122.839146 60.636541 
L 122.888499 65.426457 
L 123.069459 78.394899 
L 123.08591 78.10217 
L 123.102361 74.565026 
L 123.168165 78.152042 
L 123.184615 77.786131 
L 123.233968 81.246297 
L 123.26687 76.627682 
L 123.44783 65.352191 
L 123.513634 68.075114 
L 123.62879 73.860308 
L 123.661692 73.221725 
L 123.760397 73.268887 
L 123.776848 71.634483 
L 123.842652 74.961295 
L 123.875554 74.787826 
L 123.924906 68.49686 
L 123.99071 72.9561 
L 124.040063 79.050829 
L 124.122317 76.848856 
L 124.138768 75.917543 
L 124.17167 79.888902 
L 124.188121 79.015051 
L 124.467786 89.988056 
L 124.484237 88.597593 
L 124.632295 78.657813 
L 124.665197 80.542663 
L 124.71455 82.420466 
L 124.747452 79.372831 
L 124.763903 79.671523 
L 124.796805 77.047261 
L 124.862608 79.05896 
L 124.911961 81.607872 
L 124.928412 78.083197 
L 124.944863 77.316138 
L 124.977765 80.559468 
L 125.010666 78.697386 
L 125.060019 80.761668 
L 125.109372 78.422546 
L 125.125823 77.022325 
L 125.158725 79.431377 
L 125.191626 79.359821 
L 125.339685 85.245302 
L 125.372586 85.889306 
L 125.487743 78.00622 
L 125.504194 81.774836 
L 125.586448 78.034408 
L 125.602899 77.968815 
L 125.61935 77.057561 
L 125.668703 79.525701 
L 125.701605 78.064223 
L 125.833212 82.580383 
L 125.866114 81.604619 
L 125.882565 83.049292 
L 125.899015 82.974483 
L 125.997721 89.086017 
L 126.047074 87.670617 
L 126.079975 86.589146 
L 126.129328 88.767267 
L 126.244485 94.075964 
L 126.195132 88.244692 
L 126.260935 92.856801 
L 126.441895 84.964499 
L 126.507699 87.741089 
L 126.557052 85.120079 
L 126.573503 82.909432 
L 126.606405 85.149894 
L 126.639306 84.577988 
L 126.672208 87.71019 
L 126.738012 84.517274 
L 126.770914 82.891543 
L 126.820266 86.828208 
L 126.869619 81.318938 
L 127.001226 76.516012 
L 126.902521 81.740142 
L 127.017677 77.534601 
L 127.099932 73.331769 
L 127.132834 75.749495 
L 127.280892 87.910764 
L 127.297343 90.193509 
L 127.363146 86.525721 
L 127.379597 83.367499 
L 127.461852 88.620361 
L 127.659263 80.515017 
L 127.675714 81.889759 
L 127.708615 86.171736 
L 127.757968 80.059118 
L 127.774419 80.924837 
L 127.79087 78.442061 
L 127.856674 84.404519 
L 127.873125 83.981146 
L 127.889575 85.388956 
L 127.906026 86.99463 
L 127.955379 84.335132 
L 127.988281 84.493964 
L 128.037634 83.127353 
L 128.054085 83.614693 
L 128.185692 91.961809 
L 128.202143 91.946631 
L 128.33375 79.7691 
L 128.366652 80.734563 
L 128.448906 84.183346 
L 128.465357 80.587115 
L 128.481808 81.219735 
L 128.596965 75.544585 
L 128.613415 76.276408 
L 128.629866 76.234667 
L 128.69567 73.944332 
L 128.728572 74.434382 
L 128.777925 78.309791 
L 128.827277 75.669266 
L 128.909532 67.448456 
L 128.991786 67.947722 
L 129.074041 71.80741 
L 129.090492 70.596921 
L 129.106943 65.940359 
L 129.189197 71.085345 
L 129.23855 72.717038 
L 129.255001 69.896539 
L 129.304354 72.159227 
L 129.567568 60.033736 
L 129.616921 62.802737 
L 129.633372 62.113197 
L 129.649823 64.058762 
L 129.682725 62.576685 
L 129.699175 64.793837 
L 129.732077 59.529592 
L 129.78143 61.684403 
L 129.913037 54.352623 
L 129.96239 54.543981 
L 129.978841 55.33435 
L 130.011743 52.129508 
L 130.028194 54.262094 
L 130.044645 51.591754 
L 130.110448 56.280841 
L 130.126899 55.782659 
L 130.176252 56.500388 
L 130.209154 53.498288 
L 130.274957 55.361997 
L 130.307859 54.523924 
L 130.406565 60.557396 
L 130.472368 58.621589 
L 130.455917 61.443173 
L 130.50527 59.117603 
L 130.636877 65.635704 
L 130.653328 63.429936 
L 130.752034 59.252041 
L 130.768485 63.831626 
L 130.817837 55.940408 
L 130.850739 57.044647 
L 130.982346 50.049505 
L 131.097503 54.728834 
L 131.22911 44.03609 
L 131.344266 46.684747 
L 131.492325 51.282762 
L 131.59103 44.965776 
L 131.623932 47.589496 
L 131.656834 50.233816 
L 131.689735 47.994438 
L 131.706186 45.848842 
L 131.77199 50.885952 
L 131.821343 53.23971 
L 131.854245 49.543734 
L 132.035205 61.405769 
L 132.117459 57.968912 
L 132.150361 61.111413 
L 132.199714 59.208674 
L 132.216165 58.013905 
L 132.281968 59.419547 
L 132.446477 64.053883 
L 132.479379 59.839668 
L 132.528732 67.821415 
L 132.627437 74.544427 
L 132.67679 74.187731 
L 132.808397 68.213347 
L 132.824848 69.563695 
L 132.841299 72.24054 
L 132.907103 66.059619 
L 133.252572 83.289438 
L 132.940005 64.708729 
L 133.334826 81.058192 
L 133.367728 81.61004 
L 133.466434 74.068471 
L 133.482885 76.131127 
L 133.548688 72.685055 
L 133.713197 63.819157 
L 133.729648 64.794921 
L 133.844805 72.094718 
L 133.894157 71.604126 
L 133.910608 71.42632 
L 134.009314 74.716812 
L 133.959961 71.318444 
L 134.025765 72.072492 
L 134.108019 74.313496 
L 134.058666 71.56889 
L 134.12447 72.481229 
L 134.173823 67.344375 
L 134.272528 70.073803 
L 134.321881 72.241625 
L 134.354783 68.089208 
L 134.371234 66.944312 
L 134.404135 69.768064 
L 134.420586 68.431809 
L 134.502841 74.572616 
L 134.535743 71.018125 
L 134.585095 69.692171 
L 134.617997 71.364521 
L 134.634448 70.573611 
L 134.650899 71.188342 
L 134.66735 68.848677 
L 134.831859 57.69624 
L 134.864761 61.384627 
L 134.897663 62.40159 
L 134.930565 59.4228 
L 134.979917 55.932818 
L 135.02927 58.919197 
L 135.045721 60.624073 
L 135.095074 56.022263 
L 135.259583 45.883536 
L 135.325386 49.783881 
L 135.341837 51.142361 
L 135.374739 46.296067 
L 135.39119 47.605217 
L 135.424092 45.617912 
L 135.456994 46.754676 
L 135.57215 52.739903 
L 135.588601 49.485189 
L 135.621503 48.772881 
L 135.654405 49.908019 
L 135.670855 49.232032 
L 135.786012 55.938781 
L 135.802463 55.891619 
L 135.818914 54.96627 
L 135.851815 58.031252 
L 135.868266 56.139897 
L 135.884717 59.272641 
L 135.917619 54.744555 
L 135.983423 58.386322 
L 136.098579 61.670851 
L 136.11503 59.276977 
L 136.180834 56.355649 
L 136.213735 59.583259 
L 136.230186 59.570791 
L 136.29599 66.076966 
L 136.378245 61.997732 
L 136.444048 62.666672 
L 136.460499 61.760838 
L 136.47695 61.728313 
L 136.509852 57.493498 
L 136.592106 59.928029 
L 136.608557 59.888998 
L 136.65791 61.236636 
L 136.740165 56.035273 
L 136.921125 64.067977 
L 136.773066 53.994301 
L 136.937575 62.266609 
L 136.954026 62.549038 
L 136.970477 62.251972 
L 137.036281 68.17269 
L 137.102085 67.600242 
L 137.118535 66.683566 
L 137.151437 69.53388 
L 137.20079 71.588405 
L 137.233692 67.259809 
L 137.348848 74.664229 
L 137.414652 71.966242 
L 137.480455 69.933943 
L 137.529808 71.295134 
L 137.546259 71.199184 
L 137.56271 69.376132 
L 137.628514 73.73129 
L 137.644965 71.206773 
L 137.825925 79.410777 
L 137.677866 71.199184 
L 137.842375 79.227009 
L 137.858826 78.847545 
L 137.908179 75.73269 
L 137.957532 80.381662 
L 137.973983 80.433703 
L 138.006885 82.918106 
L 138.039786 79.266039 
L 138.204295 67.915739 
L 138.270099 70.054288 
L 138.368805 73.352369 
L 138.418157 72.433525 
L 138.451059 72.155974 
L 138.46751 73.200583 
L 138.483961 71.315191 
L 138.632019 63.289535 
L 138.64847 63.260262 
L 138.763626 59.16097 
L 138.730725 64.326012 
L 138.780077 61.828599 
L 138.796528 61.850825 
L 138.961037 54.758649 
L 139.01039 58.507208 
L 139.043292 54.667036 
L 139.076194 56.733487 
L 139.240703 49.217396 
L 139.273605 53.972075 
L 139.355859 52.775138 
L 139.438114 48.884552 
L 139.388761 53.278199 
L 139.454565 52.449342 
L 139.471015 52.506261 
L 139.487466 52.311109 
L 139.536819 49.842426 
L 139.55327 51.482794 
L 139.602623 53.504251 
L 139.635525 48.931172 
L 139.832935 44.588481 
L 139.980994 49.910188 
L 139.997445 47.677857 
L 140.046797 45.132198 
L 140.063248 48.876962 
L 140.112601 45.282899 
L 140.194855 53.784512 
L 140.260659 52.763212 
L 140.27711 52.333876 
L 140.392266 60.291772 
L 140.408717 56.402811 
L 140.441619 54.545608 
L 140.490972 58.223153 
L 140.507423 58.33645 
L 140.540325 56.318787 
L 140.573226 58.412884 
L 140.589677 60.785616 
L 140.688383 59.32956 
L 140.869343 67.083087 
L 140.885794 65.795079 
L 141.017401 55.737666 
L 141.050303 57.45772 
L 141.083205 55.2178 
L 141.149008 58.094677 
L 141.18191 56.115503 
L 141.214812 59.385396 
L 141.379321 68.671956 
L 141.412223 63.626173 
L 141.461575 68.553238 
L 141.478026 72.035088 
L 141.54383 66.125212 
L 141.560281 68.331523 
L 141.576732 66.231462 
L 141.658986 69.001547 
L 141.691888 69.643383 
L 141.757692 70.789363 
L 141.72479 67.939049 
L 141.774143 70.452724 
L 141.938652 59.478635 
L 142.037357 63.34537 
L 142.168965 58.036673 
L 142.201866 60.200158 
L 142.234768 58.028 
L 142.284121 60.022895 
L 142.300572 60.036989 
L 142.317023 60.4132 
L 142.333474 58.496908 
L 142.382826 59.621747 
L 142.44863 60.527581 
L 142.497983 56.683614 
L 142.514434 57.173122 
L 142.563786 55.631958 
L 142.580237 55.807053 
L 142.678943 51.636205 
L 142.613139 56.290598 
L 142.695394 53.94226 
L 142.728295 52.931803 
L 142.777648 55.313208 
L 142.81055 55.809764 
L 142.843452 52.088309 
L 142.909255 57.022421 
L 143.007961 59.782206 
L 142.99151 55.919266 
L 143.040863 59.37618 
L 143.156019 55.236231 
L 143.271175 60.230515 
L 143.35343 55.425963 
L 143.386332 57.897898 
L 143.402783 57.774843 
L 143.419234 57.902777 
L 143.435685 57.781348 
L 143.567292 48.136466 
L 143.485037 58.713745 
L 143.583743 48.922498 
L 143.731801 56.557849 
L 143.814055 49.578428 
L 143.846957 52.237384 
L 143.912761 57.927713 
L 143.879859 51.609643 
L 143.962114 54.496277 
L 144.159525 60.68804 
L 144.192426 57.903861 
L 144.225328 53.841973 
L 144.25823 59.424426 
L 144.274681 58.949554 
L 144.291132 63.476014 
L 144.340485 58.293082 
L 144.373386 60.803505 
L 144.62015 51.100077 
L 144.636601 51.326129 
L 144.768208 55.570159 
L 144.784659 53.620258 
L 144.850463 55.989196 
L 144.883365 54.305461 
L 144.916266 55.200453 
L 144.932717 54.510914 
L 144.998521 55.129982 
L 145.064325 50.467457 
L 145.080775 49.535061 
L 145.113677 53.0451 
L 145.146579 52.870546 
L 145.228834 56.183806 
L 145.245285 53.901603 
L 145.294637 58.094135 
L 145.34399 55.122392 
L 145.376892 54.563497 
L 145.475597 59.821779 
L 145.574303 56.448347 
L 145.590754 58.011195 
L 145.607205 59.709024 
L 145.689459 58.460588 
L 145.804615 54.61879 
L 145.853968 57.531444 
L 145.88687 54.101635 
L 145.903321 51.156455 
L 145.969125 56.120924 
L 145.985575 55.669904 
L 146.002026 56.646752 
L 146.018477 54.609574 
L 146.084281 55.018311 
L 146.100732 53.055942 
L 146.150085 58.074078 
L 146.166535 57.794901 
L 146.298143 52.004285 
L 146.331045 54.706066 
L 146.347495 55.646594 
L 146.413299 53.795354 
L 146.462652 51.244816 
L 146.495554 52.506261 
L 146.512005 54.77437 
L 146.561357 49.53994 
L 146.594259 50.852342 
L 146.660063 52.459099 
L 146.643612 49.298709 
L 146.692965 51.788533 
L 146.79167 47.693036 
L 146.841023 48.321319 
L 146.97263 51.689872 
L 147.038434 47.040358 
L 147.087786 49.106267 
L 147.33455 55.143534 
L 147.400354 51.015511 
L 147.433255 55.56257 
L 147.466157 52.346887 
L 147.69647 60.424042 
L 147.795175 57.561802 
L 147.811626 55.022105 
L 147.893881 58.202553 
L 147.959685 65.07464 
L 148.009037 59.907971 
L 148.025488 59.74426 
L 148.222899 48.766918 
L 148.272252 51.729445 
L 148.321605 50.423548 
L 148.403859 46.827317 
L 148.436761 49.460794 
L 148.469663 45.365297 
L 148.502565 49.904767 
L 148.60127 59.61199 
L 148.650623 55.704598 
L 148.765779 62.081756 
L 148.798681 58.976659 
L 148.979641 53.792101 
L 148.996092 53.711872 
L 149.127699 59.242284 
L 149.14415 59.451531 
L 149.259306 71.227372 
L 149.308659 68.992331 
L 149.341561 65.125055 
L 149.390914 59.530676 
L 149.456717 61.237178 
L 149.555423 65.833025 
L 149.489619 61.192185 
L 149.588325 64.240904 
L 149.604775 64.263672 
L 149.670579 65.399895 
L 149.785735 61.014379 
L 149.802186 62.784848 
L 149.851539 60.362786 
L 149.86799 60.551975 
L 149.983146 55.01289 
L 150.016048 55.034031 
L 150.147655 61.454557 
L 150.22991 55.211837 
L 150.262812 56.167544 
L 150.279263 56.028768 
L 150.295714 54.430684 
L 150.361517 58.558165 
L 150.394419 57.480488 
L 150.526026 64.045751 
L 150.542477 62.021584 
L 150.575379 65.063256 
L 150.641183 62.402132 
L 150.657634 64.727702 
L 150.690535 60.196906 
L 150.756339 63.725376 
L 150.805692 60.194195 
L 150.855045 64.378053 
L 150.887946 67.099892 
L 150.937299 63.004395 
L 150.95375 63.149675 
L 150.970201 63.033126 
L 151.085357 70.426704 
L 151.101808 68.021989 
L 151.118259 63.783922 
L 151.200514 67.561211 
L 151.31567 70.790989 
L 151.381474 67.941759 
L 151.414375 70.001163 
L 151.447277 71.364521 
L 151.463728 68.715323 
L 151.480179 70.334549 
L 151.49663 68.403079 
L 151.562434 73.070482 
L 151.578885 71.52498 
L 151.611786 74.38451 
L 151.628237 70.350269 
L 151.67759 72.027499 
L 151.726943 69.611399 
L 151.776295 69.724154 
L 151.792746 71.792231 
L 151.85855 67.256014 
L 151.907903 64.060388 
L 151.957255 66.115455 
L 151.973706 68.99721 
L 152.023059 65.067593 
L 152.055961 66.957864 
L 152.072412 66.323076 
L 152.105314 68.082161 
L 152.121765 68.029578 
L 152.171117 70.598547 
L 152.204019 66.034141 
L 152.22047 66.647788 
L 152.500135 83.545305 
L 152.516586 83.474291 
L 152.598841 89.172209 
L 152.681095 88.917968 
L 152.697546 89.080054 
L 152.845605 80.46406 
L 152.878506 78.039829 
L 152.927859 80.837561 
L 152.960761 79.216167 
L 152.993663 79.28176 
L 153.026565 76.711164 
L 153.075917 81.603535 
L 153.092368 80.849487 
L 153.108819 80.703664 
L 153.289779 90.45046 
L 153.30623 89.622145 
L 153.355583 85.200851 
L 153.421386 87.799093 
L 153.454288 88.221924 
L 153.470739 85.387872 
L 153.48719 83.228182 
L 153.569445 86.022119 
L 153.585895 84.793198 
L 153.717503 75.687697 
L 153.750405 77.867987 
L 153.766855 77.717285 
L 153.832659 70.16379 
L 153.882012 75.545669 
L 153.997168 79.272544 
L 154.03007 75.062666 
L 154.112325 77.829498 
L 154.178128 83.822314 
L 154.260383 82.993456 
L 154.326186 79.311575 
L 154.293285 83.288896 
L 154.375539 80.824551 
L 154.408441 82.919732 
L 154.457794 79.273086 
L 154.474245 76.984378 
L 154.523597 79.966963 
L 154.556499 79.324585 
L 154.57295 78.837245 
L 154.605852 80.531279 
L 154.655205 84.862044 
L 154.688106 79.534374 
L 154.704557 79.913296 
L 154.737459 80.056408 
L 154.75391 78.953795 
L 154.786812 81.153058 
L 154.803263 80.745405 
L 154.901968 82.617245 
L 155.017125 79.285554 
L 155.066477 80.755705 
L 155.230986 91.573672 
L 155.362594 85.329326 
L 155.379045 85.70879 
L 155.395495 87.04396 
L 155.444848 85.480028 
L 155.47775 86.228655 
L 155.494201 85.594951 
L 155.510652 86.733884 
L 155.527103 86.178783 
L 155.560005 90.259102 
L 155.625808 86.849892 
L 155.675161 85.375946 
L 155.691612 88.149826 
L 155.708063 88.105374 
L 155.724514 87.908053 
L 155.790317 84.702127 
L 155.823219 86.376646 
L 155.987728 94.926505 
L 156.004179 94.535657 
L 156.037081 90.454254 
L 156.119335 93.490506 
L 156.135786 95.394871 
L 156.218041 92.411203 
L 156.283845 89.878554 
L 156.250943 93.171756 
L 156.316746 92.551604 
L 156.333197 93.06117 
L 156.366099 91.956388 
L 156.38255 92.650807 
L 156.464805 88.395935 
L 156.514157 90.005403 
L 156.629314 92.989072 
L 156.596412 89.687738 
L 156.645765 90.842933 
L 156.908979 83.022729 
L 156.695117 91.865859 
L 156.92543 84.829519 
L 156.958332 88.276133 
L 157.007685 84.462523 
L 157.040586 80.765463 
L 157.10639 83.713895 
L 157.122841 86.3284 
L 157.188645 82.003598 
L 157.221546 84.566604 
L 157.237997 85.504422 
L 157.270899 83.176141 
L 157.28735 83.847792 
L 157.418957 80.190846 
L 157.550565 83.64776 
L 157.567015 83.540426 
L 157.698623 75.579279 
L 157.715074 76.568595 
L 157.747975 79.461734 
L 157.83023 77.66416 
L 157.846681 77.662534 
L 157.912485 80.610425 
L 157.978288 80.139348 
L 158.01119 78.188904 
L 158.060543 81.743937 
L 158.257954 85.49629 
L 158.093445 79.791867 
L 158.274405 85.302222 
L 158.340208 83.098622 
L 158.356659 85.313064 
L 158.37311 84.716222 
L 158.455365 88.060923 
L 158.521168 88.059839 
L 158.603423 88.402982 
L 158.652775 85.451839 
L 158.73503 88.985188 
L 158.751481 86.244918 
L 158.767932 85.168325 
L 158.784383 87.547563 
L 158.833735 86.180951 
L 158.965343 94.516142 
L 158.883088 84.747663 
L 158.981794 93.697584 
L 159.014695 92.201413 
L 159.064048 95.380777 
L 159.080499 94.487411 
L 159.162754 97.522036 
L 159.27791 107.239558 
L 159.327263 104.346419 
L 159.360165 106.854674 
L 159.393066 102.784655 
L 159.442419 103.0763 
L 159.524674 97.347483 
L 159.541125 99.959277 
L 159.63983 99.152104 
L 159.722085 92.432344 
L 159.771437 96.590182 
L 159.853692 99.761956 
L 159.82079 95.944009 
L 159.886594 98.913041 
L 159.903045 94.065664 
L 159.968848 103.187971 
L 160.330768 116.349939 
L 160.347219 114.700898 
L 160.36367 113.728387 
L 160.413023 116.051789 
L 160.511728 121.450473 
L 160.577532 118.355676 
L 160.692688 110.174981 
L 160.709139 111.962255 
L 160.72559 111.560565 
L 160.758492 115.478799 
L 160.840746 113.097935 
L 160.857197 110.36146 
L 160.923001 116.108166 
L 161.005255 120.663357 
L 161.038157 119.115145 
L 161.153314 113.906735 
L 161.301372 126.401389 
L 161.317823 125.866888 
L 161.334274 125.607226 
L 161.44943 118.315561 
L 161.482332 119.283193 
L 161.564586 124.196163 
L 161.597488 126.38079 
L 161.679743 125.438094 
L 161.761997 124.376138 
L 161.712645 126.659425 
L 161.794899 124.717113 
L 161.827801 125.546512 
L 161.877154 123.274067 
L 161.959408 117.09423 
L 161.99231 121.507934 
L 162.008761 121.062878 
L 162.025212 121.417947 
L 162.041663 123.367306 
L 162.123917 120.926271 
L 162.304877 112.903325 
L 162.321328 113.559797 
L 162.436485 115.948792 
L 162.35423 112.691909 
L 162.452935 113.999433 
L 162.502288 109.498994 
L 162.551641 113.15106 
L 162.584543 112.965123 
L 162.71615 118.620758 
L 162.798405 112.75696 
L 162.831306 115.35466 
L 162.89711 118.473309 
L 162.930012 116.743497 
L 163.061619 110.650395 
L 163.07807 111.970928 
L 163.094521 112.17367 
L 163.291932 104.055316 
L 163.489343 111.108462 
L 163.505794 110.6569 
L 163.571597 111.391975 
L 163.637401 114.577844 
L 163.670303 113.038305 
L 163.736106 109.673005 
L 163.769008 113.173828 
L 163.80191 112.328166 
L 163.834812 115.620285 
L 163.933517 123.626426 
L 163.966419 122.239757 
L 164.048674 119.045215 
L 164.114477 113.915951 
L 164.16383 117.095856 
L 164.180281 118.156728 
L 164.246085 115.373633 
L 164.262535 114.08942 
L 164.311888 117.682399 
L 164.34479 116.245858 
L 164.377692 113.560339 
L 164.410594 116.817763 
L 164.492848 114.182117 
L 164.558652 110.549024 
L 164.52575 114.484062 
L 164.575103 110.827116 
L 164.788965 98.544962 
L 164.805415 98.865337 
L 164.821866 99.160777 
L 164.871219 94.824049 
L 164.904121 101.106341 
L 164.920572 101.472795 
L 164.937023 99.307684 
L 164.986375 104.205475 
L 165.019277 101.980734 
L 165.035728 101.768777 
L 165.052179 102.431212 
L 165.06863 104.23258 
L 165.085081 101.162177 
L 165.150885 101.469 
L 165.167335 101.540014 
L 165.298943 105.501073 
L 165.348295 104.393039 
L 165.364746 106.680121 
L 165.381197 105.866442 
L 165.414099 105.828496 
L 165.447001 108.744945 
L 165.562157 113.920287 
L 165.595059 113.537571 
L 165.677314 115.446273 
L 165.693765 113.328324 
L 165.808921 109.700109 
L 165.825372 110.88241 
L 165.97343 115.213716 
L 166.121488 106.79667 
L 166.039234 116.089193 
L 166.137939 107.110541 
L 166.269546 113.87421 
L 166.33535 119.196459 
L 166.401154 118.373565 
L 166.434055 114.17236 
L 166.499859 118.059152 
L 166.532761 124.116476 
L 166.615015 122.389916 
L 166.631466 122.668551 
L 166.647917 122.612174 
L 166.730172 120.153249 
L 166.680819 124.993579 
L 166.746623 120.549518 
L 166.763074 122.68644 
L 166.828877 120.498561 
L 166.944034 117.367986 
L 166.976935 118.597448 
L 166.993386 115.340566 
L 167.009837 115.404532 
L 167.042739 110.784291 
L 167.108543 115.965597 
L 167.174346 119.837752 
L 167.207248 116.642668 
L 167.289503 113.359223 
L 167.256601 117.346844 
L 167.322405 114.516587 
L 167.371757 117.788106 
L 167.437561 115.894583 
L 167.454012 115.896751 
L 167.470463 116.66652 
L 167.503365 114.345287 
L 167.60207 108.788854 
L 167.667874 109.391117 
L 167.684325 109.654574 
L 167.700775 108.217491 
L 167.733677 105.561245 
L 167.865285 97.84187 
L 167.881735 98.464732 
L 167.914637 94.739483 
L 167.980441 96.54302 
L 168.128499 110.635758 
L 168.14495 108.388791 
L 168.358812 93.184766 
L 168.375263 94.073253 
L 168.391714 96.458996 
L 168.441066 91.724915 
L 168.457517 91.839297 
L 168.473968 90.427692 
L 168.539772 94.291716 
L 168.572674 91.08579 
L 168.589125 91.260886 
L 168.605575 89.438376 
L 168.638477 95.718499 
L 168.671379 94.333457 
L 168.720732 93.202655 
L 168.786535 96.762025 
L 168.918143 88.793288 
L 168.934594 90.612003 
L 169.016848 90.429318 
L 169.04975 92.408492 
L 169.082652 90.120326 
L 169.132005 91.402371 
L 169.148455 94.068375 
L 169.214259 89.38254 
L 169.329415 83.321422 
L 169.280063 90.840765 
L 169.345866 84.016924 
L 169.362317 85.321737 
L 169.395219 83.130605 
L 169.41167 83.368583 
L 169.444572 79.186894 
L 169.526826 82.187367 
L 169.559728 78.30708 
L 169.625532 82.844381 
L 169.658434 80.118748 
L 169.674885 79.452518 
L 169.691335 81.174741 
L 169.707786 82.642724 
L 169.77359 79.746874 
L 169.872295 72.356006 
L 169.905197 73.743216 
L 170.003903 77.807272 
L 169.938099 73.501444 
L 170.020354 77.322101 
L 170.151961 71.266403 
L 170.168412 72.39341 
L 170.332921 83.471581 
L 170.349372 82.818361 
L 170.448077 88.99874 
L 170.464528 85.192177 
L 170.629037 73.123064 
L 170.645488 74.689707 
L 170.67839 76.983836 
L 170.727743 73.829409 
L 170.744194 74.70868 
L 170.925154 70.60722 
L 170.777095 76.366937 
L 170.941605 71.582984 
L 171.023859 80.359437 
L 171.073212 74.167674 
L 171.237721 65.206368 
L 171.270623 65.914881 
L 171.40223 71.08155 
L 171.418681 70.377374 
L 171.435132 69.317044 
L 171.484485 72.822746 
L 171.500935 71.385121 
L 171.533837 72.60591 
L 171.550288 69.255246 
L 171.698346 62.220531 
L 171.813503 73.20492 
L 171.846405 72.051893 
L 171.879306 67.005568 
L 171.94511 74.038656 
L 171.961561 73.758395 
L 171.978012 69.250909 
L 172.027365 74.426793 
L 172.076717 70.785568 
L 172.142521 68.335859 
L 172.109619 70.813215 
L 172.158972 70.141564 
L 172.191874 74.177431 
L 172.224775 69.473708 
L 172.241226 69.652056 
L 172.372834 59.533386 
L 172.405735 61.352102 
L 172.553794 64.205126 
L 172.570245 64.211631 
L 172.636048 61.540749 
L 172.66895 64.999832 
L 172.718303 63.921613 
L 172.84991 71.311396 
L 172.899263 70.673355 
L 172.965066 76.69436 
L 173.03087 74.264166 
L 173.096674 70.355148 
L 173.129575 73.687923 
L 173.146026 76.933422 
L 173.195379 72.132664 
L 173.228281 72.628135 
L 173.244732 72.431898 
L 173.326986 64.373716 
L 173.376339 65.94307 
L 173.39279 67.367685 
L 173.458594 66.750243 
L 173.57375 62.896519 
L 173.507946 66.839688 
L 173.590201 63.100345 
L 173.606652 63.280861 
L 173.623103 64.760769 
L 173.672455 59.40979 
L 173.771161 55.709477 
L 173.787612 57.875672 
L 173.804063 58.107687 
L 173.869866 54.493025 
L 173.902768 58.190085 
L 173.919219 55.487762 
L 174.001474 57.606253 
L 174.050826 53.866368 
L 174.100179 56.587664 
L 174.149532 58.795059 
L 174.165983 60.242983 
L 174.215335 56.62019 
L 174.248237 59.181569 
L 174.264688 59.0081 
L 174.281139 60.814889 
L 174.379845 60.425126 
L 174.544354 50.646889 
L 174.560805 51.955497 
L 174.593706 46.639753 
L 174.610157 47.529866 
L 174.643059 43.968329 
L 174.708863 47.656174 
L 174.741765 44.52614 
L 174.84047 53.350839 
L 174.889823 48.587486 
L 174.906274 48.826548 
L 175.054332 41.590718 
L 175.185939 48.76475 
L 175.235292 45.514372 
L 175.317546 46.036406 
L 175.333997 49.583307 
L 175.399801 44.924577 
L 175.432703 47.202444 
L 175.597212 52.311109 
L 175.630114 50.661526 
L 175.679466 49.438569 
L 175.761721 39.845727 
L 175.794623 41.047001 
L 175.811074 44.024164 
L 175.876877 39.303636 
L 175.909779 42.275379 
L 176.024935 50.778618 
L 176.041386 47.012712 
L 176.057837 44.642148 
L 176.140092 47.370492 
L 176.156543 46.206622 
L 176.189445 44.396039 
L 176.222346 45.286694 
L 176.238797 47.055537 
L 176.271699 43.98947 
L 176.321052 46.02448 
L 176.386855 42.551845 
L 176.419757 45.314341 
L 176.502012 50.243574 
L 176.551365 48.20477 
L 176.567815 49.014654 
L 176.600717 47.104867 
L 176.617168 47.968418 
L 176.65007 44.753277 
L 176.682972 48.146766 
L 176.699423 47.697915 
L 176.715874 50.97106 
L 176.798128 46.022312 
L 176.847481 49.058563 
L 176.863932 45.337651 
L 176.913285 48.023169 
L 176.929735 46.355155 
L 176.962637 49.670584 
L 177.01199 48.969118 
L 177.028441 48.862326 
L 177.077794 46.86201 
L 177.110695 49.959518 
L 177.225852 52.175044 
L 177.341008 44.823748 
L 177.357459 50.020232 
L 177.390361 43.348177 
L 177.439714 45.357708 
L 177.521968 40.082621 
L 177.571321 40.983034 
L 177.702928 46.532419 
L 177.752281 44.744061 
L 177.818085 45.962681 
L 178.031946 55.6119 
L 178.130652 47.760797 
L 178.147103 49.691183 
L 178.196455 52.573481 
L 178.245808 49.68251 
L 178.262259 49.90043 
L 178.360965 43.460932 
L 178.377415 44.40688 
L 178.410317 51.816722 
L 178.509023 49.819659 
L 178.525474 47.427953 
L 178.591277 51.975012 
L 178.607728 56.254278 
L 178.689983 53.466304 
L 178.755786 47.796033 
L 178.805139 50.224058 
L 178.920295 55.859094 
L 178.986099 47.58787 
L 179.068354 50.293988 
L 179.084805 49.839174 
L 179.117706 54.158555 
L 179.199961 51.960376 
L 179.232863 51.4378 
L 179.249314 52.562097 
L 179.331568 55.223221 
L 179.298666 52.091562 
L 179.380921 54.032789 
L 179.397372 52.814711 
L 179.413823 54.979822 
L 179.463175 54.56946 
L 179.528979 58.336992 
L 179.611234 61.539123 
L 179.627685 59.823947 
L 179.693488 60.033736 
L 179.742841 56.013048 
L 179.759292 57.059283 
L 179.825095 54.811774 
L 179.890899 51.419911 
L 179.90735 55.561486 
L 179.923801 53.270068 
L 180.006055 58.548407 
L 180.038957 55.276888 
L 180.055408 55.189612 
L 180.170565 58.583101 
L 180.187015 56.891777 
L 180.219917 62.407011 
L 180.252819 64.378595 
L 180.285721 59.566996 
L 180.302172 60.653888 
L 180.384426 54.036584 
L 180.417328 56.383838 
L 180.548935 63.510166 
L 180.581837 63.567627 
L 180.696994 57.50434 
L 180.713445 57.176375 
L 180.779248 63.888003 
L 180.845052 60.779111 
L 180.861503 60.662562 
L 180.894405 58.90185 
L 180.910855 61.622605 
L 180.960208 59.683546 
L 180.976659 60.679367 
L 180.99311 58.040468 
L 181.042463 58.095219 
L 181.058914 58.513171 
L 181.157619 53.447873 
L 181.17407 55.281225 
L 181.190521 55.283935 
L 181.223423 56.435879 
L 181.305677 63.717786 
L 181.404383 60.872351 
L 181.420834 56.305235 
L 181.519539 57.427363 
L 181.552441 54.244205 
L 181.634695 55.96426 
L 181.651146 56.676567 
L 181.667597 52.840731 
L 181.684048 53.297172 
L 181.700499 53.223448 
L 181.71695 55.83741 
L 181.749852 51.913756 
L 181.815655 54.96356 
L 181.832106 52.185344 
L 181.89791 58.390117 
L 181.914361 59.135492 
L 181.930812 56.940565 
L 181.947263 57.389417 
L 181.996615 51.312035 
L 182.062419 55.056799 
L 182.128223 59.314924 
L 182.194026 57.026758 
L 182.226928 55.717066 
L 182.243379 58.431315 
L 182.276281 55.949081 
L 182.342085 61.218205 
L 182.407888 59.391359 
L 182.62175 49.415801 
L 182.638201 51.164044 
L 182.835612 60.511861 
L 182.967219 55.491556 
L 183.131728 60.849041 
L 183.148179 60.043494 
L 183.16463 61.615558 
L 183.213983 60.535713 
L 183.394943 72.159227 
L 183.427845 70.182221 
L 183.460746 67.651198 
L 183.493648 70.704255 
L 183.52655 70.333464 
L 183.543001 72.372268 
L 183.608805 68.262677 
L 183.740412 64.237652 
L 183.756863 63.893966 
L 183.789765 69.870519 
L 183.88847 68.034999 
L 183.921372 68.559201 
L 184.036528 64.251746 
L 184.118783 68.966853 
L 184.201037 68.784711 
L 184.349095 56.606637 
L 184.365546 57.044105 
L 184.497154 62.298592 
L 184.513605 62.165238 
L 184.546506 66.024383 
L 184.645212 65.439467 
L 184.661663 65.177095 
L 184.711015 62.486156 
L 184.743917 65.856877 
L 184.776819 62.729013 
L 184.859074 65.829773 
L 184.908426 63.199005 
L 184.924877 60.181185 
L 184.990681 63.261346 
L 185.023583 60.457651 
L 185.056485 64.736917 
L 185.15519 63.5866 
L 185.220994 61.105992 
L 185.188092 63.989374 
L 185.253895 61.231757 
L 185.270346 57.289672 
L 185.352601 58.235621 
L 185.51711 66.87655 
L 185.550012 67.997052 
L 185.615815 74.07335 
L 185.69807 69.69976 
L 185.714521 69.635793 
L 185.747423 73.004347 
L 185.813226 68.91427 
L 185.829677 69.181521 
L 185.87903 67.385574 
L 185.928383 69.90196 
L 185.961285 67.336786 
L 186.010637 69.037325 
L 186.027088 72.217773 
L 186.092892 68.186784 
L 186.125794 71.981963 
L 186.142245 72.12887 
L 186.158695 71.370484 
L 186.273852 68.063187 
L 186.208048 71.594368 
L 186.290303 70.239683 
L 186.389008 71.581358 
L 186.438361 65.69425 
L 186.487714 72.086587 
L 186.520615 68.174858 
L 186.537066 68.213347 
L 186.569968 66.650498 
L 186.60287 69.939906 
L 186.635772 69.273677 
L 186.685125 71.812831 
L 186.718026 67.378527 
L 186.78383 71.229541 
L 186.800281 73.293281 
L 186.866085 69.165258 
L 187.030594 59.81961 
L 187.343161 74.666397 
L 187.392514 68.741343 
L 187.474768 69.216757 
L 187.50767 70.042362 
L 187.524121 68.326102 
L 187.672179 61.759754 
L 187.606375 69.218383 
L 187.721532 62.923623 
L 187.836688 69.243862 
L 187.853139 66.058535 
L 188.001197 59.0287 
L 188.017648 58.642731 
L 188.05055 60.13836 
L 188.067001 60.127518 
L 188.099903 61.992311 
L 188.149255 59.6044 
L 188.165706 59.639094 
L 188.247961 54.360212 
L 188.280863 56.213079 
L 188.297314 58.537565 
L 188.363117 58.241584 
L 188.428921 53.441368 
L 188.461823 58.199843 
L 188.544077 64.647472 
L 188.675685 70.665766 
L 188.725037 68.404705 
L 188.757939 69.309997 
L 188.889546 65.005252 
L 189.021154 71.017583 
L 189.037605 69.892202 
L 189.070506 71.53528 
L 189.119859 71.351511 
L 189.13631 68.851388 
L 189.202114 71.818794 
L 189.218565 70.181679 
L 189.31727 74.283681 
L 189.366623 73.767068 
L 189.383074 73.974147 
L 189.547583 66.544249 
L 189.596935 68.098966 
L 189.646288 66.870587 
L 189.744994 63.37898 
L 189.777895 65.327797 
L 189.843699 64.322218 
L 189.86015 65.414531 
L 189.893052 69.960506 
L 189.958855 66.564848 
L 189.991757 64.459909 
L 190.024659 66.866251 
L 190.074012 65.680698 
L 190.205619 58.881251 
L 190.238521 60.556854 
L 190.353677 65.900787 
L 190.287874 60.113966 
L 190.370128 63.845178 
L 190.435932 66.491124 
L 190.485285 62.042725 
L 190.501735 64.019731 
L 190.567539 59.500861 
L 190.616892 61.083224 
L 190.633343 58.8162 
L 190.666245 59.756728 
L 190.699146 57.501629 
L 190.748499 59.811479 
L 190.76495 58.544612 
L 190.896557 66.87655 
L 190.929459 66.726933 
L 190.962361 64.64693 
L 190.995263 67.826294 
L 191.011714 67.16169 
L 191.028165 68.29466 
L 191.093968 65.699671 
L 191.12687 66.235257 
L 191.143321 65.314786 
L 191.159772 64.691382 
L 191.192674 66.236883 
L 191.209125 65.941986 
L 191.324281 70.679861 
L 191.357183 69.211336 
L 191.48879 61.217663 
L 191.505241 63.10685 
L 191.620397 56.986101 
L 191.66975 57.19589 
L 191.686201 56.509603 
L 191.702652 59.017316 
L 191.867161 65.730028 
L 191.949415 59.028158 
L 192.015219 59.917729 
L 192.146826 67.581269 
L 192.163277 67.734138 
L 192.179728 66.917207 
L 192.21263 64.865393 
L 192.261983 67.119949 
L 192.278434 66.382163 
L 192.294885 66.655377 
L 192.311335 65.547343 
L 192.360688 61.001911 
L 192.410041 64.452862 
L 192.508746 68.564622 
L 192.475845 62.508382 
L 192.525197 67.835509 
L 192.640354 60.197448 
L 192.722608 63.042883 
L 192.739059 64.972727 
L 192.821314 64.555859 
L 192.870666 59.856473 
L 192.93647 63.197379 
L 192.952921 62.604874 
L 193.002274 64.74017 
L 193.018725 64.724449 
L 193.035175 62.820084 
L 193.084528 67.780216 
L 193.100979 67.614878 
L 193.150332 66.020589 
L 193.166783 67.809489 
L 193.232586 75.295765 
L 193.29839 70.87664 
L 193.528703 61.835105 
L 193.545154 63.024994 
L 193.561605 65.51536 
L 193.643859 61.515813 
L 193.693212 59.504656 
L 193.726114 60.943365 
L 193.775466 66.475403 
L 193.84127 63.572506 
L 194.005779 52.46181 
L 194.055132 57.625768 
L 194.104485 51.840574 
L 194.153837 50.566118 
L 194.137386 52.298641 
L 194.20319 51.095741 
L 194.417052 61.922923 
L 194.466405 59.996332 
L 194.532208 56.191396 
L 194.581561 56.853831 
L 194.614463 55.266046 
L 194.680266 57.156318 
L 194.696717 57.549876 
L 194.713168 55.405906 
L 194.74607 57.327076 
L 194.762521 55.153291 
L 194.811874 62.492661 
L 194.861226 64.099418 
L 194.894128 60.634915 
L 194.92703 61.45022 
L 194.976383 59.828826 
L 194.992834 64.311918 
L 195.091539 62.769127 
L 195.173794 60.835489 
L 195.206695 59.729081 
L 195.256048 60.550349 
L 195.338303 63.116065 
L 195.371205 62.000984 
L 195.404106 59.94917 
L 195.486361 61.156407 
L 195.585066 64.433346 
L 195.601517 61.409563 
L 195.683772 63.024452 
L 195.634419 60.327008 
L 195.716674 62.144096 
L 195.766026 57.519518 
L 195.83183 60.165464 
L 195.848281 60.126434 
L 195.881183 61.349933 
L 195.897634 60.909755 
L 195.963437 55.385306 
L 195.996339 60.375796 
L 196.078594 66.001616 
L 196.095045 62.386411 
L 196.111495 59.480804 
L 196.177299 63.005479 
L 196.243103 68.920233 
L 196.292455 64.997121 
L 196.37471 62.941512 
L 196.358259 66.574064 
L 196.407612 64.479424 
L 196.473415 67.985668 
L 196.522768 66.324702 
L 196.539219 63.855478 
L 196.605023 67.916281 
L 196.637925 65.052414 
L 196.901139 80.280291 
L 197.049197 69.162548 
L 196.950492 80.538327 
L 197.164354 69.904128 
L 197.180805 69.713312 
L 197.213706 70.510728 
L 197.230157 71.381326 
L 197.27951 68.124986 
L 197.427568 58.933834 
L 197.509823 61.123339 
L 197.657881 64.569411 
L 197.542725 59.569164 
L 197.674332 63.919986 
L 197.773037 59.694387 
L 197.789488 60.730323 
L 197.855292 67.38449 
L 197.888194 63.723207 
L 198.019801 54.577049 
L 198.036252 55.229184 
L 198.134957 58.571175 
L 198.167859 58.153223 
L 198.18431 55.739292 
L 198.250114 60.924934 
L 198.579132 69.483466 
L 198.283015 60.593716 
L 198.595583 68.60311 
L 198.644935 64.28915 
L 198.710739 65.571737 
L 198.72719 67.05273 
L 198.776543 64.611694 
L 198.792994 65.750085 
L 198.809445 62.747444 
L 198.875248 69.450398 
L 198.891699 70.520486 
L 198.924601 66.08835 
L 198.941052 67.45713 
L 198.957503 67.355759 
L 198.973954 67.825752 
L 199.105561 60.463614 
L 199.122012 60.718939 
L 199.237168 57.595953 
L 199.154914 62.275825 
L 199.253619 57.675641 
L 199.385226 63.88475 
L 199.401677 63.101971 
L 199.500383 74.052208 
L 199.582637 69.993031 
L 199.730695 66.96708 
L 199.763597 67.730344 
L 199.99391 80.456471 
L 200.010361 79.635203 
L 200.059714 81.364473 
L 200.092615 79.085523 
L 200.109066 78.510906 
L 200.141968 79.889444 
L 200.191321 78.942953 
L 200.207772 79.003667 
L 200.35583 70.974216 
L 200.405183 74.479376 
L 200.586143 79.426498 
L 200.602594 77.458708 
L 200.668397 80.90207 
L 200.701299 78.912054 
L 200.948063 70.681487 
L 200.964514 71.362895 
L 201.07967 76.294297 
L 201.096121 74.928769 
L 201.244179 79.786989 
L 201.145474 73.999626 
L 201.277081 76.711164 
L 201.326434 76.089928 
L 201.342885 78.149332 
L 201.375786 78.922896 
L 201.392237 80.850571 
L 201.44159 75.763047 
L 201.458041 75.142353 
L 201.507394 76.094265 
L 201.523845 75.831351 
L 201.606099 78.188362 
L 201.573197 74.657724 
L 201.639001 76.925832 
L 201.737706 68.117939 
L 201.754157 66.043357 
L 201.80351 70.721602 
L 201.836412 73.243409 
L 201.869314 70.626736 
L 201.902215 70.929764 
L 201.935117 69.976769 
L 201.98447 73.759479 
L 202.033823 69.33927 
L 202.214783 64.580253 
L 202.247685 66.356685 
L 202.280586 63.52697 
L 202.297037 63.767659 
L 202.313488 61.495214 
L 202.395743 65.072472 
L 202.412194 64.043041 
L 202.445095 66.483534 
L 202.52735 75.726185 
L 202.576703 71.323322 
L 202.609605 71.72447 
L 202.691859 69.298071 
L 202.724761 70.642456 
L 202.757663 73.356164 
L 202.807015 69.047625 
L 202.938623 64.409494 
L 202.955074 64.914723 
L 202.987975 65.430794 
L 203.053779 69.182605 
L 203.103132 68.266472 
L 203.119583 68.328812 
L 203.267641 61.455099 
L 203.284092 63.453788 
L 203.300543 65.69154 
L 203.349895 58.509377 
L 203.399248 56.475451 
L 203.43215 59.948628 
L 203.465052 64.281561 
L 203.530855 61.075093 
L 203.580208 57.548791 
L 203.61311 60.62841 
L 203.646012 62.897061 
L 203.695365 60.414826 
L 203.711815 61.4242 
L 203.925677 52.079636 
L 203.79407 62.019958 
L 203.991481 53.623511 
L 204.057285 55.300198 
L 204.024383 53.612669 
L 204.073735 54.769491 
L 204.221794 49.629927 
L 204.238245 52.027053 
L 204.271146 46.99157 
L 204.320499 49.330693 
L 204.386303 49.613122 
L 204.419205 48.245426 
L 204.51791 54.757023 
L 204.567263 53.828421 
L 204.583714 53.846852 
L 204.715321 46.283599 
L 204.731772 47.93535 
L 204.863379 53.132376 
L 204.896281 51.552181 
L 204.929183 56.111708 
L 204.978535 59.333897 
L 204.994986 58.525639 
L 205.027888 51.73595 
L 205.110143 53.675552 
L 205.143045 53.129124 
L 205.208848 47.97926 
L 205.258201 50.272847 
L 205.307554 53.269525 
L 205.373357 51.112003 
L 205.406259 51.873099 
L 205.42271 53.523224 
L 205.472063 49.406585 
L 205.488514 48.086594 
L 205.521415 53.819206 
L 205.96559 75.32558 
L 206.031394 70.449472 
L 206.097197 65.794537 
L 206.14655 66.745906 
L 206.163001 68.030662 
L 206.195903 63.872282 
L 206.360412 49.554034 
L 206.393314 51.041532 
L 206.557823 60.310745 
L 206.459117 50.866436 
L 206.607175 56.710177 
L 206.771685 47.887646 
L 206.969095 55.913845 
L 206.985546 55.746339 
L 207.001997 56.436963 
L 207.034899 58.429689 
L 207.084252 57.712503 
L 207.23231 47.281047 
L 207.133605 58.996174 
L 207.248761 49.124698 
L 207.331015 45.595686 
L 207.363917 46.778528 
L 207.429721 51.653552 
L 207.462623 48.084968 
L 207.643583 42.67761 
L 207.791641 49.311177 
L 207.857445 45.990328 
L 207.890346 48.145682 
L 208.087757 56.380585 
L 208.13711 55.564196 
L 208.235815 51.06972 
L 208.301619 51.203617 
L 208.564834 58.641105 
L 208.581285 55.798922 
L 208.663539 58.036673 
L 208.828048 62.99789 
L 208.696441 57.042478 
L 208.844499 59.867314 
L 208.926754 54.115187 
L 209.025459 55.182022 
L 209.04191 56.0266 
L 209.091263 53.541113 
L 209.22287 50.573165 
L 209.255772 51.874725 
L 209.338026 52.92855 
L 209.305125 51.64271 
L 209.370928 52.71063 
L 209.502535 49.113314 
L 209.568339 52.757792 
L 209.617692 49.644563 
L 209.634143 48.824922 
L 209.683495 51.122845 
L 209.749299 54.693056 
L 209.782201 50.868063 
L 209.880906 43.904904 
L 209.913808 44.500662 
L 210.111219 51.688246 
L 210.12767 51.52074 
L 210.275728 42.784944 
L 210.30863 43.687526 
L 210.390885 46.65981 
L 210.407335 45.851011 
L 210.555394 39.468432 
L 210.571845 38.892731 
L 210.588295 42.621233 
L 210.588295 42.621233 
" clip-path="url(#p941d2e42f7)" style="fill: none; stroke: #0072b2; stroke-width: 1.25; stroke-linecap: square"/>
   </g>
   <g id="patch_4">
    <path d="M 37.85375 131.718516 
L 37.85375 20.418516 
" style="fill: none; stroke: #000000; stroke-width: 0.8; stroke-linejoin: miter; stroke-linecap: square"/>
   </g>
   <g id="patch_5">
    <path d="M 37.85375 131.718516 
L 218.81375 131.718516 
" style="fill: none; stroke: #000000; stroke-width: 0.8; stroke-linejoin: miter; stroke-linecap: square"/>
   </g>
   <g id="text_13">
    <!-- drugs2263 rep2 -->
    <g transform="translate(90.460664 14.418516) scale(0.095 -0.095)">
     <defs>
      <path id="DejaVuSans-64" d="M 2906 2969 
L 2906 4863 
L 3481 4863 
L 3481 0 
L 2906 0 
L 2906 525 
Q 2725 213 2448 61 
Q 2172 -91 1784 -91 
Q 1150 -91 751 415 
Q 353 922 353 1747 
Q 353 2572 751 3078 
Q 1150 3584 1784 3584 
Q 2172 3584 2448 3432 
Q 2725 3281 2906 2969 
z
M 947 1747 
Q 947 1113 1208 752 
Q 1469 391 1925 391 
Q 2381 391 2643 752 
Q 2906 1113 2906 1747 
Q 2906 2381 2643 2742 
Q 2381 3103 1925 3103 
Q 1469 3103 1208 2742 
Q 947 2381 947 1747 
z
" transform="scale(0.015625)"/>
      <path id="DejaVuSans-72" d="M 2631 2963 
Q 2534 3019 2420 3045 
Q 2306 3072 2169 3072 
Q 1681 3072 1420 2755 
Q 1159 2438 1159 1844 
L 1159 0 
L 581 0 
L 581 3500 
L 1159 3500 
L 1159 2956 
Q 1341 3275 1631 3429 
Q 1922 3584 2338 3584 
Q 2397 3584 2469 3576 
Q 2541 3569 2628 3553 
L 2631 2963 
z
" transform="scale(0.015625)"/>
      <path id="DejaVuSans-75" d="M 544 1381 
L 544 3500 
L 1119 3500 
L 1119 1403 
Q 1119 906 1312 657 
Q 1506 409 1894 409 
Q 2359 409 2629 706 
Q 2900 1003 2900 1516 
L 2900 3500 
L 3475 3500 
L 3475 0 
L 2900 0 
L 2900 538 
Q 2691 219 2414 64 
Q 2138 -91 1772 -91 
Q 1169 -91 856 284 
Q 544 659 544 1381 
z
M 1991 3584 
L 1991 3584 
z
" transform="scale(0.015625)"/>
      <path id="DejaVuSans-70" d="M 1159 525 
L 1159 -1331 
L 581 -1331 
L 581 3500 
L 1159 3500 
L 1159 2969 
Q 1341 3281 1617 3432 
Q 1894 3584 2278 3584 
Q 2916 3584 3314 3078 
Q 3713 2572 3713 1747 
Q 3713 922 3314 415 
Q 2916 -91 2278 -91 
Q 1894 -91 1617 61 
Q 1341 213 1159 525 
z
M 3116 1747 
Q 3116 2381 2855 2742 
Q 2594 3103 2138 3103 
Q 1681 3103 1420 2742 
Q 1159 2381 1159 1747 
Q 1159 1113 1420 752 
Q 1681 391 2138 391 
Q 2594 391 2855 752 
Q 3116 1113 3116 1747 
z
" transform="scale(0.015625)"/>
     </defs>
     <use xlink:href="#DejaVuSans-64"/>
     <use xlink:href="#DejaVuSans-72" transform="translate(63.476562 0)"/>
     <use xlink:href="#DejaVuSans-75" transform="translate(104.589844 0)"/>
     <use xlink:href="#DejaVuSans-67" transform="translate(167.96875 0)"/>
     <use xlink:href="#DejaVuSans-73" transform="translate(231.445312 0)"/>
     <use xlink:href="#DejaVuSans-32" transform="translate(283.544922 0)"/>
     <use xlink:href="#DejaVuSans-32" transform="translate(347.167969 0)"/>
     <use xlink:href="#DejaVuSans-36" transform="translate(410.791016 0)"/>
     <use xlink:href="#DejaVuSans-33" transform="translate(474.414062 0)"/>
     <use xlink:href="#DejaVuSans-20" transform="translate(538.037109 0)"/>
     <use xlink:href="#DejaVuSans-72" transform="translate(569.824219 0)"/>
     <use xlink:href="#DejaVuSans-65" transform="translate(608.6875 0)"/>
     <use xlink:href="#DejaVuSans-70" transform="translate(670.210938 0)"/>
     <use xlink:href="#DejaVuSans-32" transform="translate(733.6875 0)"/>
    </g>
   </g>
  </g>
 </g>
 <defs>
  <clipPath id="p941d2e42f7">
   <rect x="37.85375" y="20.418516" width="180.96" height="111.3"/>
  </clipPath>
 </defs>
</svg>
