<?xml version="1.0" encoding="utf-8" standalone="no"?>
<!DOCTYPE svg PUBLIC "-//W3C//DTD SVG 1.1//EN"
  "http://www.w3.org/Graphics/SVG/1.1/DTD/svg11.dtd">
<svg xmlns:xlink="http://www.w3.org/1999/xlink" width="225.998281pt" height="164.903516pt" viewBox="0 0 225.998281 164.903516" xmlns="http://www.w3.org/2000/svg" version="1.1">
 <metadata>
  <rdf:RDF xmlns:dc="http://purl.org/dc/elements/1.1/" xmlns:cc="http://creativecommons.org/ns#" xmlns:rdf="http://www.w3.org/1999/02/22-rdf-syntax-ns#">
   <cc:Work>
    <dc:type rdf:resource="http://purl.org/dc/dcmitype/StillImage"/>
    <dc:date>2026-05-24T13:54:15.829957</dc:date>
    <dc:format>image/svg+xml</dc:format>
    <dc:creator>
     <cc:Agent>
      <dc:title>Matplotlib v3.10.9, https://matplotlib.org/</dc:title>
     </cc:Agent>
    </dc:creator>
   </cc:Work>
  </rdf:RDF>
 </metadata>
 <defs>
  <style type="text/css">*{stroke-linejoin: round; stroke-linecap: butt}</style>
 </defs>
 <g id="figure_1">
  <g id="patch_1">
   <path d="M 0 164.903516 
L 225.998281 164.903516 
L 225.998281 0 
L 0 0 
z
" style="fill: #ffffff"/>
  </g>
  <g id="axes_1">
   <g id="patch_2">
    <path d="M 30.698281 131.718516 
L 218.798281 131.718516 
L 218.798281 20.418516 
L 30.698281 20.418516 
z
" style="fill: #ffffff"/>
   </g>
   <g id="patch_3">
    <path d="M 124.748281 131.718516 
L 210.248281 131.718516 
L 210.248281 20.418516 
L 124.748281 20.418516 
z
" clip-path="url(#p648d86b7b3)" style="fill: #bdbdbd; opacity: 0.18"/>
   </g>
   <g id="matplotlib.axis_1">
    <g id="xtick_1">
     <g id="line2d_1">
      <defs>
       <path id="m99a030761e" d="M 0 0 
L 0 3 
" style="stroke: #000000; stroke-width: 0.7"/>
      </defs>
      <g>
       <use xlink:href="#m99a030761e" x="39.248281" y="131.718516" style="stroke: #000000; stroke-width: 0.7"/>
      </g>
     </g>
     <g id="text_1">
      <!-- 0 -->
      <g transform="translate(36.862344 143.917344) scale(0.075 -0.075)">
       <defs>
        <path id="DejaVuSans-30" d="M 2034 4250 
Q 1547 4250 1301 3770 
Q 1056 3291 1056 2328 
Q 1056 1369 1301 889 
Q 1547 409 2034 409 
Q 2525 409 2770 889 
Q 3016 1369 3016 2328 
Q 3016 3291 2770 3770 
Q 2525 4250 2034 4250 
z
M 2034 4750 
Q 2819 4750 3233 4129 
Q 3647 3509 3647 2328 
Q 3647 1150 3233 529 
Q 2819 -91 2034 -91 
Q 1250 -91 836 529 
Q 422 1150 422 2328 
Q 422 3509 836 4129 
Q 1250 4750 2034 4750 
z
" transform="scale(0.015625)"/>
       </defs>
       <use xlink:href="#DejaVuSans-30"/>
      </g>
     </g>
    </g>
    <g id="xtick_2">
     <g id="line2d_2">
      <g>
       <use xlink:href="#m99a030761e" x="73.448281" y="131.718516" style="stroke: #000000; stroke-width: 0.7"/>
      </g>
     </g>
     <g id="text_2">
      <!-- 20 -->
      <g transform="translate(68.676406 143.917344) scale(0.075 -0.075)">
       <defs>
        <path id="DejaVuSans-32" d="M 1228 531 
L 3431 531 
L 3431 0 
L 469 0 
L 469 531 
Q 828 903 1448 1529 
Q 2069 2156 2228 2338 
Q 2531 2678 2651 2914 
Q 2772 3150 2772 3378 
Q 2772 3750 2511 3984 
Q 2250 4219 1831 4219 
Q 1534 4219 1204 4116 
Q 875 4013 500 3803 
L 500 4441 
Q 881 4594 1212 4672 
Q 1544 4750 1819 4750 
Q 2544 4750 2975 4387 
Q 3406 4025 3406 3419 
Q 3406 3131 3298 2873 
Q 3191 2616 2906 2266 
Q 2828 2175 2409 1742 
Q 1991 1309 1228 531 
z
" transform="scale(0.015625)"/>
       </defs>
       <use xlink:href="#DejaVuSans-32"/>
       <use xlink:href="#DejaVuSans-30" transform="translate(63.623047 0)"/>
      </g>
     </g>
    </g>
    <g id="xtick_3">
     <g id="line2d_3">
      <g>
       <use xlink:href="#m99a030761e" x="107.648281" y="131.718516" style="stroke: #000000; stroke-width: 0.7"/>
      </g>
     </g>
     <g id="text_3">
      <!-- 40 -->
      <g transform="translate(102.876406 143.917344) scale(0.075 -0.075)">
       <defs>
        <path id="DejaVuSans-34" d="M 2419 4116 
L 825 1625 
L 2419 1625 
L 2419 4116 
z
M 2253 4666 
L 3047 4666 
L 3047 1625 
L 3713 1625 
L 3713 1100 
L 3047 1100 
L 3047 0 
L 2419 0 
L 2419 1100 
L 313 1100 
L 313 1709 
L 2253 4666 
z
" transform="scale(0.015625)"/>
       </defs>
       <use xlink:href="#DejaVuSans-34"/>
       <use xlink:href="#DejaVuSans-30" transform="translate(63.623047 0)"/>
      </g>
     </g>
    </g>
    <g id="xtick_4">
     <g id="line2d_4">
      <g>
       <use xlink:href="#m99a030761e" x="141.848281" y="131.718516" style="stroke: #000000; stroke-width: 0.7"/>
      </g>
     </g>
     <g id="text_4">
      <!-- 60 -->
      <g transform="translate(137.076406 143.917344) scale(0.075 -0.075)">
       <defs>
        <path id="DejaVuSans-36" d="M 2113 2584 
Q 1688 2584 1439 2293 
Q 1191 2003 1191 1497 
Q 1191 994 1439 701 
Q 1688 409 2113 409 
Q 2538 409 2786 701 
Q 3034 994 3034 1497 
Q 3034 2003 2786 2293 
Q 2538 2584 2113 2584 
z
M 3366 4563 
L 3366 3988 
Q 3128 4100 2886 4159 
Q 2644 4219 2406 4219 
Q 1781 4219 1451 3797 
Q 1122 3375 1075 2522 
Q 1259 2794 1537 2939 
Q 1816 3084 2150 3084 
Q 2853 3084 3261 2657 
Q 3669 2231 3669 1497 
Q 3669 778 3244 343 
Q 2819 -91 2113 -91 
Q 1303 -91 875 529 
Q 447 1150 447 2328 
Q 447 3434 972 4092 
Q 1497 4750 2381 4750 
Q 2619 4750 2861 4703 
Q 3103 4656 3366 4563 
z
" transform="scale(0.015625)"/>
       </defs>
       <use xlink:href="#DejaVuSans-36"/>
       <use xlink:href="#DejaVuSans-30" transform="translate(63.623047 0)"/>
      </g>
     </g>
    </g>
    <g id="xtick_5">
     <g id="line2d_5">
      <g>
       <use xlink:href="#m99a030761e" x="176.048281" y="131.718516" style="stroke: #000000; stroke-width: 0.7"/>
      </g>
     </g>
     <g id="text_5">
      <!-- 80 -->
      <g transform="translate(171.276406 143.917344) scale(0.075 -0.075)">
       <defs>
        <path id="DejaVuSans-38" d="M 2034 2216 
Q 1584 2216 1326 1975 
Q 1069 1734 1069 1313 
Q 1069 891 1326 650 
Q 1584 409 2034 409 
Q 2484 409 2743 651 
Q 3003 894 3003 1313 
Q 3003 1734 2745 1975 
Q 2488 2216 2034 2216 
z
M 1403 2484 
Q 997 2584 770 2862 
Q 544 3141 544 3541 
Q 544 4100 942 4425 
Q 1341 4750 2034 4750 
Q 2731 4750 3128 4425 
Q 3525 4100 3525 3541 
Q 3525 3141 3298 2862 
Q 3072 2584 2669 2484 
Q 3125 2378 3379 2068 
Q 3634 1759 3634 1313 
Q 3634 634 3220 271 
Q 2806 -91 2034 -91 
Q 1263 -91 848 271 
Q 434 634 434 1313 
Q 434 1759 690 2068 
Q 947 2378 1403 2484 
z
M 1172 3481 
Q 1172 3119 1398 2916 
Q 1625 2713 2034 2713 
Q 2441 2713 2670 2916 
Q 2900 3119 2900 3481 
Q 2900 3844 2670 4047 
Q 2441 4250 2034 4250 
Q 1625 4250 1398 4047 
Q 1172 3844 1172 3481 
z
" transform="scale(0.015625)"/>
       </defs>
       <use xlink:href="#DejaVuSans-38"/>
       <use xlink:href="#DejaVuSans-30" transform="translate(63.623047 0)"/>
      </g>
     </g>
    </g>
    <g id="xtick_6">
     <g id="line2d_6">
      <g>
       <use xlink:href="#m99a030761e" x="210.248281" y="131.718516" style="stroke: #000000; stroke-width: 0.7"/>
      </g>
     </g>
     <g id="text_6">
      <!-- 100 -->
      <g transform="translate(203.090469 143.917344) scale(0.075 -0.075)">
       <defs>
        <path id="DejaVuSans-31" d="M 794 531 
L 1825 531 
L 1825 4091 
L 703 3866 
L 703 4441 
L 1819 4666 
L 2450 4666 
L 2450 531 
L 3481 531 
L 3481 0 
L 794 0 
L 794 531 
z
" transform="scale(0.015625)"/>
       </defs>
       <use xlink:href="#DejaVuSans-31"/>
       <use xlink:href="#DejaVuSans-30" transform="translate(63.623047 0)"/>
       <use xlink:href="#DejaVuSans-30" transform="translate(127.246094 0)"/>
      </g>
     </g>
    </g>
    <g id="text_7">
     <!-- Time (ns) -->
     <g transform="translate(104.775273 155.935781) scale(0.085 -0.085)">
      <defs>
       <path id="DejaVuSans-54" d="M -19 4666 
L 3928 4666 
L 3928 4134 
L 2272 4134 
L 2272 0 
L 1638 0 
L 1638 4134 
L -19 4134 
L -19 4666 
z
" transform="scale(0.015625)"/>
       <path id="DejaVuSans-69" d="M 603 3500 
L 1178 3500 
L 1178 0 
L 603 0 
L 603 3500 
z
M 603 4863 
L 1178 4863 
L 1178 4134 
L 603 4134 
L 603 4863 
z
" transform="scale(0.015625)"/>
       <path id="DejaVuSans-6d" d="M 3328 2828 
Q 3544 3216 3844 3400 
Q 4144 3584 4550 3584 
Q 5097 3584 5394 3201 
Q 5691 2819 5691 2113 
L 5691 0 
L 5113 0 
L 5113 2094 
Q 5113 2597 4934 2840 
Q 4756 3084 4391 3084 
Q 3944 3084 3684 2787 
Q 3425 2491 3425 1978 
L 3425 0 
L 2847 0 
L 2847 2094 
Q 2847 2600 2669 2842 
Q 2491 3084 2119 3084 
Q 1678 3084 1418 2786 
Q 1159 2488 1159 1978 
L 1159 0 
L 581 0 
L 581 3500 
L 1159 3500 
L 1159 2956 
Q 1356 3278 1631 3431 
Q 1906 3584 2284 3584 
Q 2666 3584 2933 3390 
Q 3200 3197 3328 2828 
z
" transform="scale(0.015625)"/>
       <path id="DejaVuSans-65" d="M 3597 1894 
L 3597 1613 
L 953 1613 
Q 991 1019 1311 708 
Q 1631 397 2203 397 
Q 2534 397 2845 478 
Q 3156 559 3463 722 
L 3463 178 
Q 3153 47 2828 -22 
Q 2503 -91 2169 -91 
Q 1331 -91 842 396 
Q 353 884 353 1716 
Q 353 2575 817 3079 
Q 1281 3584 2069 3584 
Q 2775 3584 3186 3129 
Q 3597 2675 3597 1894 
z
M 3022 2063 
Q 3016 2534 2758 2815 
Q 2500 3097 2075 3097 
Q 1594 3097 1305 2825 
Q 1016 2553 972 2059 
L 3022 2063 
z
" transform="scale(0.015625)"/>
       <path id="DejaVuSans-20" transform="scale(0.015625)"/>
       <path id="DejaVuSans-28" d="M 1984 4856 
Q 1566 4138 1362 3434 
Q 1159 2731 1159 2009 
Q 1159 1288 1364 580 
Q 1569 -128 1984 -844 
L 1484 -844 
Q 1016 -109 783 600 
Q 550 1309 550 2009 
Q 550 2706 781 3412 
Q 1013 4119 1484 4856 
L 1984 4856 
z
" transform="scale(0.015625)"/>
       <path id="DejaVuSans-6e" d="M 3513 2113 
L 3513 0 
L 2938 0 
L 2938 2094 
Q 2938 2591 2744 2837 
Q 2550 3084 2163 3084 
Q 1697 3084 1428 2787 
Q 1159 2491 1159 1978 
L 1159 0 
L 581 0 
L 581 3500 
L 1159 3500 
L 1159 2956 
Q 1366 3272 1645 3428 
Q 1925 3584 2291 3584 
Q 2894 3584 3203 3211 
Q 3513 2838 3513 2113 
z
" transform="scale(0.015625)"/>
       <path id="DejaVuSans-73" d="M 2834 3397 
L 2834 2853 
Q 2591 2978 2328 3040 
Q 2066 3103 1784 3103 
Q 1356 3103 1142 2972 
Q 928 2841 928 2578 
Q 928 2378 1081 2264 
Q 1234 2150 1697 2047 
L 1894 2003 
Q 2506 1872 2764 1633 
Q 3022 1394 3022 966 
Q 3022 478 2636 193 
Q 2250 -91 1575 -91 
Q 1294 -91 989 -36 
Q 684 19 347 128 
L 347 722 
Q 666 556 975 473 
Q 1284 391 1588 391 
Q 1994 391 2212 530 
Q 2431 669 2431 922 
Q 2431 1156 2273 1281 
Q 2116 1406 1581 1522 
L 1381 1569 
Q 847 1681 609 1914 
Q 372 2147 372 2553 
Q 372 3047 722 3315 
Q 1072 3584 1716 3584 
Q 2034 3584 2315 3537 
Q 2597 3491 2834 3397 
z
" transform="scale(0.015625)"/>
       <path id="DejaVuSans-29" d="M 513 4856 
L 1013 4856 
Q 1481 4119 1714 3412 
Q 1947 2706 1947 2009 
Q 1947 1309 1714 600 
Q 1481 -109 1013 -844 
L 513 -844 
Q 928 -128 1133 580 
Q 1338 1288 1338 2009 
Q 1338 2731 1133 3434 
Q 928 4138 513 4856 
z
" transform="scale(0.015625)"/>
      </defs>
      <use xlink:href="#DejaVuSans-54"/>
      <use xlink:href="#DejaVuSans-69" transform="translate(57.958984 0)"/>
      <use xlink:href="#DejaVuSans-6d" transform="translate(85.742188 0)"/>
      <use xlink:href="#DejaVuSans-65" transform="translate(183.154297 0)"/>
      <use xlink:href="#DejaVuSans-20" transform="translate(244.677734 0)"/>
      <use xlink:href="#DejaVuSans-28" transform="translate(276.464844 0)"/>
      <use xlink:href="#DejaVuSans-6e" transform="translate(315.478516 0)"/>
      <use xlink:href="#DejaVuSans-73" transform="translate(378.857422 0)"/>
      <use xlink:href="#DejaVuSans-29" transform="translate(430.957031 0)"/>
     </g>
    </g>
   </g>
   <g id="matplotlib.axis_2">
    <g id="ytick_1">
     <g id="line2d_7">
      <defs>
       <path id="mb786f07822" d="M 0 0 
L -3 0 
" style="stroke: #000000; stroke-width: 0.7"/>
      </defs>
      <g>
       <use xlink:href="#mb786f07822" x="30.698281" y="126.659425" style="stroke: #000000; stroke-width: 0.7"/>
      </g>
     </g>
     <g id="text_8">
      <!-- 0 -->
      <g transform="translate(19.426406 129.508839) scale(0.075 -0.075)">
       <use xlink:href="#DejaVuSans-30"/>
      </g>
     </g>
    </g>
    <g id="ytick_2">
     <g id="line2d_8">
      <g>
       <use xlink:href="#mb786f07822" x="30.698281" y="97.750334" style="stroke: #000000; stroke-width: 0.7"/>
      </g>
     </g>
     <g id="text_9">
      <!-- 2 -->
      <g transform="translate(19.426406 100.599748) scale(0.075 -0.075)">
       <use xlink:href="#DejaVuSans-32"/>
      </g>
     </g>
    </g>
    <g id="ytick_3">
     <g id="line2d_9">
      <g>
       <use xlink:href="#mb786f07822" x="30.698281" y="68.841243" style="stroke: #000000; stroke-width: 0.7"/>
      </g>
     </g>
     <g id="text_10">
      <!-- 4 -->
      <g transform="translate(19.426406 71.690657) scale(0.075 -0.075)">
       <use xlink:href="#DejaVuSans-34"/>
      </g>
     </g>
    </g>
    <g id="ytick_4">
     <g id="line2d_10">
      <g>
       <use xlink:href="#mb786f07822" x="30.698281" y="39.932152" style="stroke: #000000; stroke-width: 0.7"/>
      </g>
     </g>
     <g id="text_11">
      <!-- 6 -->
      <g transform="translate(19.426406 42.781566) scale(0.075 -0.075)">
       <use xlink:href="#DejaVuSans-36"/>
      </g>
     </g>
    </g>
    <g id="text_12">
     <!-- Number of H-bonds -->
     <g transform="translate(13.658672 117.573086) rotate(-90) scale(0.085 -0.085)">
      <defs>
       <path id="DejaVuSans-4e" d="M 628 4666 
L 1478 4666 
L 3547 763 
L 3547 4666 
L 4159 4666 
L 4159 0 
L 3309 0 
L 1241 3903 
L 1241 0 
L 628 0 
L 628 4666 
z
" transform="scale(0.015625)"/>
       <path id="DejaVuSans-75" d="M 544 1381 
L 544 3500 
L 1119 3500 
L 1119 1403 
Q 1119 906 1312 657 
Q 1506 409 1894 409 
Q 2359 409 2629 706 
Q 2900 1003 2900 1516 
L 2900 3500 
L 3475 3500 
L 3475 0 
L 2900 0 
L 2900 538 
Q 2691 219 2414 64 
Q 2138 -91 1772 -91 
Q 1169 -91 856 284 
Q 544 659 544 1381 
z
M 1991 3584 
L 1991 3584 
z
" transform="scale(0.015625)"/>
       <path id="DejaVuSans-62" d="M 3116 1747 
Q 3116 2381 2855 2742 
Q 2594 3103 2138 3103 
Q 1681 3103 1420 2742 
Q 1159 2381 1159 1747 
Q 1159 1113 1420 752 
Q 1681 391 2138 391 
Q 2594 391 2855 752 
Q 3116 1113 3116 1747 
z
M 1159 2969 
Q 1341 3281 1617 3432 
Q 1894 3584 2278 3584 
Q 2916 3584 3314 3078 
Q 3713 2572 3713 1747 
Q 3713 922 3314 415 
Q 2916 -91 2278 -91 
Q 1894 -91 1617 61 
Q 1341 213 1159 525 
L 1159 0 
L 581 0 
L 581 4863 
L 1159 4863 
L 1159 2969 
z
" transform="scale(0.015625)"/>
       <path id="DejaVuSans-72" d="M 2631 2963 
Q 2534 3019 2420 3045 
Q 2306 3072 2169 3072 
Q 1681 3072 1420 2755 
Q 1159 2438 1159 1844 
L 1159 0 
L 581 0 
L 581 3500 
L 1159 3500 
L 1159 2956 
Q 1341 3275 1631 3429 
Q 1922 3584 2338 3584 
Q 2397 3584 2469 3576 
Q 2541 3569 2628 3553 
L 2631 2963 
z
" transform="scale(0.015625)"/>
       <path id="DejaVuSans-6f" d="M 1959 3097 
Q 1497 3097 1228 2736 
Q 959 2375 959 1747 
Q 959 1119 1226 758 
Q 1494 397 1959 397 
Q 2419 397 2687 759 
Q 2956 1122 2956 1747 
Q 2956 2369 2687 2733 
Q 2419 3097 1959 3097 
z
M 1959 3584 
Q 2709 3584 3137 3096 
Q 3566 2609 3566 1747 
Q 3566 888 3137 398 
Q 2709 -91 1959 -91 
Q 1206 -91 779 398 
Q 353 888 353 1747 
Q 353 2609 779 3096 
Q 1206 3584 1959 3584 
z
" transform="scale(0.015625)"/>
       <path id="DejaVuSans-66" d="M 2375 4863 
L 2375 4384 
L 1825 4384 
Q 1516 4384 1395 4259 
Q 1275 4134 1275 3809 
L 1275 3500 
L 2222 3500 
L 2222 3053 
L 1275 3053 
L 1275 0 
L 697 0 
L 697 3053 
L 147 3053 
L 147 3500 
L 697 3500 
L 697 3744 
Q 697 4328 969 4595 
Q 1241 4863 1831 4863 
L 2375 4863 
z
" transform="scale(0.015625)"/>
       <path id="DejaVuSans-48" d="M 628 4666 
L 1259 4666 
L 1259 2753 
L 3553 2753 
L 3553 4666 
L 4184 4666 
L 4184 0 
L 3553 0 
L 3553 2222 
L 1259 2222 
L 1259 0 
L 628 0 
L 628 4666 
z
" transform="scale(0.015625)"/>
       <path id="DejaVuSans-2d" d="M 313 2009 
L 1997 2009 
L 1997 1497 
L 313 1497 
L 313 2009 
z
" transform="scale(0.015625)"/>
       <path id="DejaVuSans-64" d="M 2906 2969 
L 2906 4863 
L 3481 4863 
L 3481 0 
L 2906 0 
L 2906 525 
Q 2725 213 2448 61 
Q 2172 -91 1784 -91 
Q 1150 -91 751 415 
Q 353 922 353 1747 
Q 353 2572 751 3078 
Q 1150 3584 1784 3584 
Q 2172 3584 2448 3432 
Q 2725 3281 2906 2969 
z
M 947 1747 
Q 947 1113 1208 752 
Q 1469 391 1925 391 
Q 2381 391 2643 752 
Q 2906 1113 2906 1747 
Q 2906 2381 2643 2742 
Q 2381 3103 1925 3103 
Q 1469 3103 1208 2742 
Q 947 2381 947 1747 
z
" transform="scale(0.015625)"/>
      </defs>
      <use xlink:href="#DejaVuSans-4e"/>
      <use xlink:href="#DejaVuSans-75" transform="translate(74.804688 0)"/>
      <use xlink:href="#DejaVuSans-6d" transform="translate(138.183594 0)"/>
      <use xlink:href="#DejaVuSans-62" transform="translate(235.595703 0)"/>
      <use xlink:href="#DejaVuSans-65" transform="translate(299.072266 0)"/>
      <use xlink:href="#DejaVuSans-72" transform="translate(360.595703 0)"/>
      <use xlink:href="#DejaVuSans-20" transform="translate(401.708984 0)"/>
      <use xlink:href="#DejaVuSans-6f" transform="translate(433.496094 0)"/>
      <use xlink:href="#DejaVuSans-66" transform="translate(494.677734 0)"/>
      <use xlink:href="#DejaVuSans-20" transform="translate(529.882812 0)"/>
      <use xlink:href="#DejaVuSans-48" transform="translate(561.669922 0)"/>
      <use xlink:href="#DejaVuSans-2d" transform="translate(636.865234 0)"/>
      <use xlink:href="#DejaVuSans-62" transform="translate(672.949219 0)"/>
      <use xlink:href="#DejaVuSans-6f" transform="translate(736.425781 0)"/>
      <use xlink:href="#DejaVuSans-6e" transform="translate(797.607422 0)"/>
      <use xlink:href="#DejaVuSans-64" transform="translate(860.986328 0)"/>
      <use xlink:href="#DejaVuSans-73" transform="translate(924.462891 0)"/>
     </g>
    </g>
   </g>
   <g id="line2d_11">
    <path d="M 39.248281 97.750334 
L 39.282481 68.841243 
L 39.385081 126.659425 
L 39.521881 97.750334 
L 39.538981 97.750334 
L 39.590281 83.295788 
L 39.675781 126.659425 
L 39.692881 126.659425 
L 39.812581 112.204879 
L 39.829681 112.204879 
L 39.949381 126.659425 
L 39.983581 126.659425 
L 40.086181 112.204879 
L 40.205881 126.659425 
L 40.325581 112.204879 
L 40.359781 126.659425 
L 40.393981 97.750334 
L 40.411081 97.750334 
L 40.445281 97.750334 
L 40.496581 83.295788 
L 40.530781 112.204879 
L 40.547881 97.750334 
L 40.582081 97.750334 
L 40.616281 112.204879 
L 40.684681 97.750334 
L 40.701781 97.750334 
L 40.718881 126.659425 
L 40.770181 83.295788 
L 40.804381 97.750334 
L 40.821481 97.750334 
L 40.838581 112.204879 
L 40.889881 83.295788 
L 40.941181 68.841243 
L 40.924081 112.204879 
L 40.992481 83.295788 
L 41.009581 83.295788 
L 41.077981 112.204879 
L 41.129281 97.750334 
L 41.146381 97.750334 
L 41.248981 83.295788 
L 41.351581 112.204879 
L 41.283181 68.841243 
L 41.368681 97.750334 
L 41.419981 97.750334 
L 41.505481 126.659425 
L 41.522581 97.750334 
L 41.556781 97.750334 
L 41.625181 126.659425 
L 41.676481 112.204879 
L 41.727781 112.204879 
L 41.761981 126.659425 
L 41.847481 97.750334 
L 41.864581 126.659425 
L 41.950081 97.750334 
L 41.984281 97.750334 
L 42.052681 83.295788 
L 42.035581 112.204879 
L 42.086881 97.750334 
L 42.155281 83.295788 
L 42.206581 126.659425 
L 42.292081 83.295788 
L 42.343381 97.750334 
L 42.411781 126.659425 
L 42.445981 112.204879 
L 42.480181 126.659425 
L 42.565681 97.750334 
L 42.582781 97.750334 
L 42.668281 112.204879 
L 42.787981 83.295788 
L 42.839281 83.295788 
L 42.856381 54.386697 
L 42.873481 97.750334 
L 42.941881 83.295788 
L 43.061581 97.750334 
L 43.129981 54.386697 
L 43.164181 83.295788 
L 43.181281 97.750334 
L 43.215481 39.932152 
L 43.249681 68.841243 
L 43.266781 68.841243 
L 43.386481 112.204879 
L 43.454881 68.841243 
L 43.437781 126.659425 
L 43.506181 83.295788 
L 43.625881 97.750334 
L 43.677181 112.204879 
L 43.745581 54.386697 
L 43.779781 112.204879 
L 43.848181 68.841243 
L 43.950781 97.750334 
L 44.053381 68.841243 
L 44.087581 97.750334 
L 44.121781 83.295788 
L 44.138881 25.477607 
L 44.155981 112.204879 
L 44.207281 83.295788 
L 44.224381 126.659425 
L 44.241481 68.841243 
L 44.309881 68.841243 
L 44.395381 54.386697 
L 44.412481 83.295788 
L 44.429581 54.386697 
L 44.515081 68.841243 
L 44.651881 97.750334 
L 44.668981 97.750334 
L 44.686081 112.204879 
L 44.720281 83.295788 
L 44.754481 97.750334 
L 44.874181 54.386697 
L 44.993881 83.295788 
L 45.062281 83.295788 
L 45.113581 112.204879 
L 45.096481 68.841243 
L 45.164881 97.750334 
L 45.301681 68.841243 
L 45.318781 68.841243 
L 45.455581 112.204879 
L 45.609481 68.841243 
L 45.677881 112.204879 
L 45.729181 97.750334 
L 45.797581 97.750334 
L 45.865981 112.204879 
L 45.831781 68.841243 
L 45.900181 97.750334 
L 45.934381 97.750334 
L 45.951481 68.841243 
L 45.985681 112.204879 
L 46.019881 97.750334 
L 46.088281 112.204879 
L 46.122481 97.750334 
L 46.225081 83.295788 
L 46.327681 97.750334 
L 46.447381 68.841243 
L 46.549981 112.204879 
L 46.567081 97.750334 
L 46.618381 97.750334 
L 46.635481 68.841243 
L 46.720981 97.750334 
L 46.738081 97.750334 
L 46.806481 83.295788 
L 46.840681 97.750334 
L 46.960381 97.750334 
L 47.028781 83.295788 
L 47.062981 97.750334 
L 47.080081 97.750334 
L 47.114281 83.295788 
L 47.165581 112.204879 
L 47.182681 97.750334 
L 47.199781 97.750334 
L 47.251081 112.204879 
L 47.319481 83.295788 
L 47.422081 97.750334 
L 47.456281 112.204879 
L 47.524681 83.295788 
L 47.593081 112.204879 
L 47.644381 97.750334 
L 47.695681 97.750334 
L 47.764081 83.295788 
L 47.798281 97.750334 
L 47.883781 97.750334 
L 48.003481 68.841243 
L 48.054781 112.204879 
L 48.106081 83.295788 
L 48.174481 97.750334 
L 48.208681 68.841243 
L 48.277081 97.750334 
L 48.294181 68.841243 
L 48.311281 54.386697 
L 48.328381 97.750334 
L 48.379681 83.295788 
L 48.396781 112.204879 
L 48.413881 68.841243 
L 48.482281 83.295788 
L 48.516481 68.841243 
L 48.567781 97.750334 
L 48.584881 97.750334 
L 48.670381 83.295788 
L 48.619081 112.204879 
L 48.687481 97.750334 
L 48.755881 112.204879 
L 48.738781 68.841243 
L 48.772981 83.295788 
L 48.790081 83.295788 
L 48.909781 112.204879 
L 49.046581 83.295788 
L 49.149181 112.204879 
L 49.268881 83.295788 
L 49.320181 97.750334 
L 49.371481 83.295788 
L 49.388581 68.841243 
L 49.405681 97.750334 
L 49.456981 97.750334 
L 49.508281 97.750334 
L 49.627981 83.295788 
L 49.645081 83.295788 
L 49.730581 97.750334 
L 49.747681 83.295788 
L 49.781881 83.295788 
L 49.901581 97.750334 
L 49.969981 83.295788 
L 49.952881 112.204879 
L 50.004181 97.750334 
L 50.021281 97.750334 
L 50.072581 83.295788 
L 50.089681 112.204879 
L 50.123881 97.750334 
L 50.158081 97.750334 
L 50.175181 112.204879 
L 50.226481 83.295788 
L 50.243581 83.295788 
L 50.260681 83.295788 
L 50.363281 112.204879 
L 50.380381 97.750334 
L 50.414581 97.750334 
L 50.534281 83.295788 
L 50.551381 126.659425 
L 50.619781 68.841243 
L 50.636881 83.295788 
L 50.756581 112.204879 
L 50.876281 97.750334 
L 50.944681 97.750334 
L 50.961781 83.295788 
L 51.047281 97.750334 
L 51.064381 97.750334 
L 51.149881 83.295788 
L 51.115681 112.204879 
L 51.166981 97.750334 
L 51.218281 97.750334 
L 51.320881 83.295788 
L 51.423481 112.204879 
L 51.440581 83.295788 
L 51.526081 112.204879 
L 51.560281 68.841243 
L 51.645781 97.750334 
L 51.662881 97.750334 
L 51.748381 68.841243 
L 51.765481 83.295788 
L 51.782581 112.204879 
L 51.868081 97.750334 
L 51.885181 97.750334 
L 51.902281 68.841243 
L 51.970681 97.750334 
L 51.987781 112.204879 
L 52.021981 83.295788 
L 52.073281 97.750334 
L 52.210081 68.841243 
L 52.346881 97.750334 
L 52.363981 97.750334 
L 52.500781 126.659425 
L 52.552081 97.750334 
L 52.620481 112.204879 
L 52.637581 112.204879 
L 52.688881 68.841243 
L 52.671781 126.659425 
L 52.723081 97.750334 
L 52.791481 126.659425 
L 52.825681 97.750334 
L 52.911181 126.659425 
L 52.928281 112.204879 
L 52.962481 97.750334 
L 53.013781 126.659425 
L 53.047981 126.659425 
L 53.184781 83.295788 
L 53.287381 126.659425 
L 53.304481 112.204879 
L 53.355781 112.204879 
L 53.441281 126.659425 
L 53.389981 97.750334 
L 53.458381 112.204879 
L 53.560981 112.204879 
L 53.663581 126.659425 
L 53.783281 97.750334 
L 53.817481 97.750334 
L 53.954281 126.659425 
L 54.056881 97.750334 
L 54.142381 126.659425 
L 54.159481 112.204879 
L 54.193681 83.295788 
L 54.227881 126.659425 
L 54.262081 97.750334 
L 54.347581 126.659425 
L 54.364681 83.295788 
L 54.450181 112.204879 
L 54.484381 112.204879 
L 54.604081 126.659425 
L 54.621181 126.659425 
L 54.740881 112.204879 
L 54.792181 126.659425 
L 54.826381 112.204879 
L 54.894781 97.750334 
L 54.928981 112.204879 
L 55.048681 126.659425 
L 55.082881 126.659425 
L 55.202581 112.204879 
L 55.219681 112.204879 
L 55.339381 126.659425 
L 55.407781 126.659425 
L 55.424881 112.204879 
L 55.510381 126.659425 
L 55.561681 126.659425 
L 55.681381 112.204879 
L 55.715581 112.204879 
L 55.835281 126.659425 
L 55.869481 126.659425 
L 55.920781 112.204879 
L 55.972081 126.659425 
L 56.057581 126.659425 
L 56.177281 112.204879 
L 56.228581 126.659425 
L 56.262781 112.204879 
L 56.279881 97.750334 
L 56.314081 126.659425 
L 56.348281 126.659425 
L 56.416681 126.659425 
L 56.450881 112.204879 
L 56.519281 126.659425 
L 56.998081 126.659425 
L 57.015181 97.750334 
L 57.100681 126.659425 
L 57.117781 126.659425 
L 57.169081 112.204879 
L 57.220381 126.659425 
L 57.237481 126.659425 
L 57.357181 112.204879 
L 57.374281 112.204879 
L 57.493981 126.659425 
L 57.613681 112.204879 
L 57.733381 126.659425 
L 58.451581 126.659425 
L 58.554181 112.204879 
L 58.673881 126.659425 
L 58.793581 112.204879 
L 58.827781 112.204879 
L 58.930381 126.659425 
L 59.032981 112.204879 
L 59.152681 126.659425 
L 59.357881 126.659425 
L 59.494681 97.750334 
L 59.597281 112.204879 
L 59.614381 97.750334 
L 59.699881 112.204879 
L 59.819581 126.659425 
L 59.922181 126.659425 
L 59.956381 112.204879 
L 60.024781 126.659425 
L 60.058981 126.659425 
L 60.161581 112.204879 
L 60.264181 126.659425 
L 60.281281 112.204879 
L 60.366781 126.659425 
L 60.400981 126.659425 
L 60.452281 112.204879 
L 60.503581 126.659425 
L 61.016581 126.659425 
L 61.033681 112.204879 
L 61.119181 126.659425 
L 61.803181 126.659425 
L 61.820281 112.204879 
L 61.905781 126.659425 
L 61.957081 126.659425 
L 62.110981 83.295788 
L 62.230681 97.750334 
L 62.247781 97.750334 
L 62.316181 83.295788 
L 62.333281 112.204879 
L 62.350381 97.750334 
L 62.418781 97.750334 
L 62.487181 83.295788 
L 62.521381 97.750334 
L 62.538481 97.750334 
L 62.623981 112.204879 
L 62.658181 83.295788 
L 62.777881 97.750334 
L 62.794981 97.750334 
L 62.914681 83.295788 
L 62.931781 83.295788 
L 63.017281 97.750334 
L 63.034381 83.295788 
L 63.068581 68.841243 
L 63.102781 112.204879 
L 63.136981 83.295788 
L 63.222481 97.750334 
L 63.239581 83.295788 
L 63.256681 68.841243 
L 63.273781 97.750334 
L 63.307981 83.295788 
L 63.410581 112.204879 
L 63.461881 83.295788 
L 63.530281 97.750334 
L 63.547381 97.750334 
L 63.564481 112.204879 
L 63.598681 83.295788 
L 63.649981 97.750334 
L 63.667081 97.750334 
L 63.786781 83.295788 
L 63.838081 83.295788 
L 63.889381 126.659425 
L 63.940681 83.295788 
L 63.957781 83.295788 
L 64.077481 97.750334 
L 64.111681 97.750334 
L 64.128781 83.295788 
L 64.162981 126.659425 
L 64.197181 97.750334 
L 64.214281 126.659425 
L 64.265581 68.841243 
L 64.282681 97.750334 
L 64.402381 83.295788 
L 64.419481 83.295788 
L 64.522081 97.750334 
L 64.590481 126.659425 
L 64.641781 83.295788 
L 64.675981 83.295788 
L 64.778581 112.204879 
L 64.795681 97.750334 
L 64.812781 97.750334 
L 64.846981 83.295788 
L 64.898281 97.750334 
L 64.915381 112.204879 
L 64.966681 83.295788 
L 65.000881 97.750334 
L 65.052181 68.841243 
L 65.086381 112.204879 
L 65.103481 97.750334 
L 65.120581 83.295788 
L 65.206081 97.750334 
L 65.240281 97.750334 
L 65.291581 54.386697 
L 65.274481 112.204879 
L 65.342881 97.750334 
L 65.359981 83.295788 
L 65.394181 112.204879 
L 65.445481 97.750334 
L 65.462581 97.750334 
L 65.548081 83.295788 
L 65.496781 112.204879 
L 65.565181 97.750334 
L 65.582281 97.750334 
L 65.616481 83.295788 
L 65.684881 112.204879 
L 65.821681 83.295788 
L 65.924281 83.295788 
L 65.975581 68.841243 
L 66.026881 97.750334 
L 66.043981 83.295788 
L 66.078181 126.659425 
L 66.095281 97.750334 
L 66.180781 126.659425 
L 66.249181 83.295788 
L 66.300481 97.750334 
L 66.334681 97.750334 
L 66.351781 83.295788 
L 66.385981 126.659425 
L 66.403081 97.750334 
L 66.420181 126.659425 
L 66.488581 97.750334 
L 66.608281 83.295788 
L 66.676681 83.295788 
L 66.693781 68.841243 
L 66.710881 97.750334 
L 66.762181 97.750334 
L 66.779281 112.204879 
L 66.830581 83.295788 
L 66.847681 83.295788 
L 66.864781 83.295788 
L 66.950281 112.204879 
L 66.916081 68.841243 
L 66.967381 97.750334 
L 67.052881 68.841243 
L 67.104181 112.204879 
L 67.172581 97.750334 
L 67.189681 97.750334 
L 67.275181 83.295788 
L 67.258081 112.204879 
L 67.292281 97.750334 
L 67.394881 97.750334 
L 67.429081 83.295788 
L 67.480381 112.204879 
L 67.497481 112.204879 
L 67.548781 83.295788 
L 67.600081 112.204879 
L 67.651381 83.295788 
L 67.719781 97.750334 
L 67.753981 112.204879 
L 67.822381 97.750334 
L 67.856581 83.295788 
L 67.924981 97.750334 
L 67.942081 97.750334 
L 68.010481 112.204879 
L 68.044681 97.750334 
L 68.061781 97.750334 
L 68.113081 83.295788 
L 68.181481 112.204879 
L 68.301181 83.295788 
L 68.369581 83.295788 
L 68.506381 112.204879 
L 68.626081 97.750334 
L 68.677381 97.750334 
L 68.814181 126.659425 
L 68.933881 83.295788 
L 69.053581 112.204879 
L 69.070681 112.204879 
L 69.190381 68.841243 
L 69.207481 83.295788 
L 69.310081 97.750334 
L 69.412681 83.295788 
L 69.463981 97.750334 
L 69.446881 68.841243 
L 69.498181 83.295788 
L 69.617881 68.841243 
L 69.652081 54.386697 
L 69.720481 83.295788 
L 69.840181 68.841243 
L 69.874381 68.841243 
L 69.891481 83.295788 
L 69.976981 68.841243 
L 69.994081 68.841243 
L 70.011181 97.750334 
L 70.096681 83.295788 
L 70.182181 68.841243 
L 70.284781 97.750334 
L 70.404481 68.841243 
L 70.421581 97.750334 
L 70.507081 83.295788 
L 70.541281 83.295788 
L 70.626781 54.386697 
L 70.660981 68.841243 
L 70.797781 97.750334 
L 70.866181 68.841243 
L 70.900381 83.295788 
L 70.951681 83.295788 
L 71.020081 97.750334 
L 71.071381 68.841243 
L 71.088481 68.841243 
L 71.208181 97.750334 
L 71.327881 68.841243 
L 71.464681 97.750334 
L 71.498881 97.750334 
L 71.515981 68.841243 
L 71.601481 97.750334 
L 71.635681 97.750334 
L 71.738281 68.841243 
L 71.840881 97.750334 
L 71.892181 83.295788 
L 71.943481 97.750334 
L 71.994781 97.750334 
L 72.011881 112.204879 
L 72.028981 83.295788 
L 72.080281 83.295788 
L 72.097381 83.295788 
L 72.114481 112.204879 
L 72.199981 83.295788 
L 72.285481 112.204879 
L 72.319681 97.750334 
L 72.370981 112.204879 
L 72.439381 83.295788 
L 72.507781 68.841243 
L 72.559081 97.750334 
L 72.576181 97.750334 
L 72.593281 83.295788 
L 72.610381 126.659425 
L 72.644581 126.659425 
L 72.747181 126.659425 
L 72.781381 97.750334 
L 72.849781 126.659425 
L 73.020781 126.659425 
L 73.140481 112.204879 
L 73.157581 112.204879 
L 73.174681 97.750334 
L 73.260181 112.204879 
L 73.277281 112.204879 
L 73.294381 126.659425 
L 73.328581 97.750334 
L 73.362781 112.204879 
L 73.414081 97.750334 
L 73.465381 112.204879 
L 73.482481 112.204879 
L 73.499581 126.659425 
L 73.550881 97.750334 
L 73.567981 97.750334 
L 73.585081 97.750334 
L 73.602181 126.659425 
L 73.687681 97.750334 
L 73.773181 126.659425 
L 73.807381 112.204879 
L 73.875781 112.204879 
L 73.961281 97.750334 
L 73.978381 112.204879 
L 74.080981 112.204879 
L 74.098081 126.659425 
L 74.132281 97.750334 
L 74.183581 112.204879 
L 74.217781 97.750334 
L 74.234881 126.659425 
L 74.269081 112.204879 
L 74.354581 126.659425 
L 74.337481 97.750334 
L 74.371681 112.204879 
L 74.440081 112.204879 
L 74.542681 126.659425 
L 74.662381 112.204879 
L 74.679481 112.204879 
L 74.730781 97.750334 
L 74.799181 126.659425 
L 74.953081 126.659425 
L 75.072781 112.204879 
L 75.089881 112.204879 
L 75.106981 126.659425 
L 75.192481 112.204879 
L 75.312181 97.750334 
L 75.346381 97.750334 
L 75.466081 112.204879 
L 75.483181 112.204879 
L 75.585781 83.295788 
L 75.654181 126.659425 
L 75.705481 112.204879 
L 75.825181 126.659425 
L 75.927781 97.750334 
L 75.944881 112.204879 
L 76.030381 126.659425 
L 76.047481 112.204879 
L 76.064581 112.204879 
L 76.081681 126.659425 
L 76.167181 112.204879 
L 76.201381 112.204879 
L 76.321081 126.659425 
L 76.423681 112.204879 
L 76.526281 126.659425 
L 76.645981 112.204879 
L 76.714381 126.659425 
L 76.731481 112.204879 
L 76.748581 97.750334 
L 76.765681 126.659425 
L 76.816981 126.659425 
L 76.851181 126.659425 
L 76.936681 83.295788 
L 76.970881 97.750334 
L 77.005081 83.295788 
L 77.022181 126.659425 
L 77.039281 126.659425 
L 77.176081 126.659425 
L 77.295781 112.204879 
L 77.312881 112.204879 
L 77.347081 97.750334 
L 77.381281 126.659425 
L 77.398381 112.204879 
L 77.518081 126.659425 
L 77.569381 126.659425 
L 77.689081 112.204879 
L 77.791681 126.659425 
L 77.911381 97.750334 
L 77.996881 83.295788 
L 78.031081 126.659425 
L 78.133681 112.204879 
L 78.253381 126.659425 
L 78.373081 97.750334 
L 78.492781 126.659425 
L 78.561181 112.204879 
L 78.595381 126.659425 
L 78.646681 126.659425 
L 78.663781 112.204879 
L 78.749281 126.659425 
L 78.766381 126.659425 
L 78.886081 97.750334 
L 79.005781 112.204879 
L 79.074181 112.204879 
L 79.125481 97.750334 
L 79.159681 112.204879 
L 79.176781 126.659425 
L 79.262281 112.204879 
L 79.279381 97.750334 
L 79.330681 126.659425 
L 79.364881 112.204879 
L 79.381981 112.204879 
L 79.399081 126.659425 
L 79.433281 97.750334 
L 79.484581 112.204879 
L 79.587181 112.204879 
L 79.604281 126.659425 
L 79.689781 112.204879 
L 79.706881 97.750334 
L 79.792381 112.204879 
L 79.809481 112.204879 
L 79.826581 126.659425 
L 79.894981 112.204879 
L 79.912081 97.750334 
L 79.997581 112.204879 
L 80.031781 112.204879 
L 80.048881 126.659425 
L 80.117281 97.750334 
L 80.134381 112.204879 
L 80.288281 112.204879 
L 80.373781 97.750334 
L 80.390881 112.204879 
L 80.425081 112.204879 
L 80.493481 126.659425 
L 80.527681 112.204879 
L 81.040681 112.204879 
L 81.160381 126.659425 
L 81.194581 126.659425 
L 81.314281 112.204879 
L 81.348481 112.204879 
L 81.416881 97.750334 
L 81.382681 126.659425 
L 81.451081 112.204879 
L 81.519481 97.750334 
L 81.570781 126.659425 
L 81.587881 126.659425 
L 81.673381 97.750334 
L 81.690481 126.659425 
L 81.707581 126.659425 
L 81.827281 97.750334 
L 81.844381 126.659425 
L 81.929881 112.204879 
L 81.946981 97.750334 
L 81.964081 126.659425 
L 82.015381 126.659425 
L 82.032481 126.659425 
L 82.066681 112.204879 
L 82.135081 126.659425 
L 82.152181 126.659425 
L 82.220581 97.750334 
L 82.254781 112.204879 
L 82.340281 97.750334 
L 82.374481 126.659425 
L 82.408681 126.659425 
L 82.528381 97.750334 
L 82.648081 112.204879 
L 82.716481 97.750334 
L 82.750681 112.204879 
L 82.784881 112.204879 
L 82.887481 97.750334 
L 83.024281 126.659425 
L 83.058481 126.659425 
L 83.178181 112.204879 
L 83.280781 126.659425 
L 83.400481 112.204879 
L 83.417581 112.204879 
L 83.451781 126.659425 
L 83.520181 112.204879 
L 83.605681 112.204879 
L 83.622781 97.750334 
L 83.656981 126.659425 
L 83.708281 112.204879 
L 84.067381 112.204879 
L 84.152881 126.659425 
L 84.187081 97.750334 
L 84.204181 97.750334 
L 84.323881 126.659425 
L 84.426481 97.750334 
L 84.546181 126.659425 
L 84.665881 112.204879 
L 84.717181 126.659425 
L 84.768481 112.204879 
L 84.785581 97.750334 
L 84.802681 126.659425 
L 84.871081 112.204879 
L 84.888181 126.659425 
L 84.939481 97.750334 
L 84.973681 112.204879 
L 85.059181 97.750334 
L 85.076281 112.204879 
L 85.093381 112.204879 
L 85.161781 126.659425 
L 85.195981 112.204879 
L 85.315681 97.750334 
L 85.384081 126.659425 
L 85.435381 112.204879 
L 85.520881 112.204879 
L 85.572181 97.750334 
L 85.623481 126.659425 
L 85.743181 97.750334 
L 85.862881 126.659425 
L 85.999681 97.750334 
L 86.016781 97.750334 
L 86.136481 126.659425 
L 86.204881 112.204879 
L 86.239081 126.659425 
L 86.273281 126.659425 
L 86.290381 112.204879 
L 86.375881 126.659425 
L 86.392981 126.659425 
L 86.512681 97.750334 
L 86.632381 112.204879 
L 86.649481 112.204879 
L 86.734981 126.659425 
L 86.752081 112.204879 
L 86.803381 112.204879 
L 86.923081 126.659425 
L 87.025681 112.204879 
L 87.059881 126.659425 
L 87.111181 97.750334 
L 87.128281 112.204879 
L 87.179581 112.204879 
L 87.196681 126.659425 
L 87.282181 112.204879 
L 87.299281 112.204879 
L 87.316381 126.659425 
L 87.367681 97.750334 
L 87.401881 112.204879 
L 87.436081 112.204879 
L 87.453181 97.750334 
L 87.504481 126.659425 
L 87.538681 112.204879 
L 87.572881 112.204879 
L 87.589981 97.750334 
L 87.675481 112.204879 
L 87.709681 112.204879 
L 87.829381 126.659425 
L 87.949081 112.204879 
L 87.966181 126.659425 
L 88.017481 97.750334 
L 88.034581 112.204879 
L 88.051681 97.750334 
L 88.137181 112.204879 
L 88.171381 112.204879 
L 88.222681 97.750334 
L 88.273981 112.204879 
L 88.291081 112.204879 
L 88.308181 126.659425 
L 88.359481 97.750334 
L 88.393681 112.204879 
L 88.496281 97.750334 
L 88.581781 126.659425 
L 88.598881 112.204879 
L 88.633081 112.204879 
L 88.667281 97.750334 
L 88.735681 112.204879 
L 88.769881 112.204879 
L 88.906681 83.295788 
L 88.975081 126.659425 
L 89.043481 112.204879 
L 89.146081 112.204879 
L 89.163181 126.659425 
L 89.248681 112.204879 
L 89.317081 112.204879 
L 89.368381 97.750334 
L 89.385481 126.659425 
L 89.419681 112.204879 
L 89.470981 112.204879 
L 89.488081 97.750334 
L 89.573581 112.204879 
L 89.659081 112.204879 
L 89.676181 97.750334 
L 89.710381 126.659425 
L 89.761681 112.204879 
L 89.795881 112.204879 
L 89.812981 126.659425 
L 89.864281 97.750334 
L 89.881381 112.204879 
L 89.949781 97.750334 
L 89.983981 112.204879 
L 90.052381 112.204879 
L 90.103681 126.659425 
L 90.154981 112.204879 
L 90.172081 97.750334 
L 90.240481 126.659425 
L 90.257581 112.204879 
L 90.274681 112.204879 
L 90.325981 126.659425 
L 90.377281 97.750334 
L 90.496981 126.659425 
L 90.599581 97.750334 
L 90.702181 126.659425 
L 90.736381 97.750334 
L 90.804781 112.204879 
L 90.924481 126.659425 
L 91.112581 126.659425 
L 91.232281 112.204879 
L 91.351981 126.659425 
L 91.369081 126.659425 
L 91.488781 112.204879 
L 91.505881 112.204879 
L 91.540081 126.659425 
L 91.625581 97.750334 
L 91.659781 126.659425 
L 91.745281 112.204879 
L 91.762381 97.750334 
L 91.813681 126.659425 
L 91.847881 112.204879 
L 91.864981 112.204879 
L 91.882081 97.750334 
L 91.933381 126.659425 
L 91.950481 112.204879 
L 92.070181 126.659425 
L 92.206981 97.750334 
L 92.224081 97.750334 
L 92.343781 126.659425 
L 92.446381 97.750334 
L 92.463481 112.204879 
L 92.531881 97.750334 
L 92.583181 126.659425 
L 92.685781 126.659425 
L 92.805481 112.204879 
L 92.839681 97.750334 
L 92.925181 126.659425 
L 92.976481 126.659425 
L 93.044881 97.750334 
L 93.079081 112.204879 
L 93.198781 126.659425 
L 93.506581 126.659425 
L 93.523681 112.204879 
L 93.609181 126.659425 
L 93.694681 126.659425 
L 93.711781 112.204879 
L 93.797281 126.659425 
L 93.865681 126.659425 
L 93.934081 97.750334 
L 93.968281 112.204879 
L 94.053781 126.659425 
L 94.070881 112.204879 
L 94.087981 97.750334 
L 94.122181 126.659425 
L 94.156381 126.659425 
L 94.669381 126.659425 
L 94.686481 112.204879 
L 94.771981 126.659425 
L 94.925881 126.659425 
L 94.942981 112.204879 
L 95.028481 126.659425 
L 95.199481 126.659425 
L 95.216581 112.204879 
L 95.302081 126.659425 
L 95.644081 126.659425 
L 95.661181 112.204879 
L 95.746681 126.659425 
L 96.003181 126.659425 
L 96.088681 112.204879 
L 96.105781 126.659425 
L 96.208381 126.659425 
L 96.310981 112.204879 
L 96.430681 126.659425 
L 96.447781 126.659425 
L 96.567481 112.204879 
L 96.618781 112.204879 
L 96.738481 126.659425 
L 96.755581 126.659425 
L 96.875281 112.204879 
L 96.994981 126.659425 
L 97.029181 126.659425 
L 97.148881 112.204879 
L 97.200181 112.204879 
L 97.285681 126.659425 
L 97.302781 112.204879 
L 97.354081 112.204879 
L 97.473781 126.659425 
L 97.507981 126.659425 
L 97.627681 112.204879 
L 97.678981 112.204879 
L 97.730281 126.659425 
L 97.798681 97.750334 
L 97.935481 126.659425 
L 98.038081 126.659425 
L 98.072281 112.204879 
L 98.140681 126.659425 
L 98.174881 126.659425 
L 98.243281 97.750334 
L 98.277481 126.659425 
L 98.362981 126.659425 
L 98.397181 112.204879 
L 98.465581 126.659425 
L 98.482681 126.659425 
L 98.499781 112.204879 
L 98.585281 126.659425 
L 98.602381 126.659425 
L 98.687881 112.204879 
L 98.704981 126.659425 
L 98.722081 126.659425 
L 98.739181 112.204879 
L 98.824681 126.659425 
L 98.978581 126.659425 
L 99.115381 83.295788 
L 99.200881 97.750334 
L 99.217981 83.295788 
L 99.235081 83.295788 
L 99.303481 112.204879 
L 99.337681 97.750334 
L 99.406081 68.841243 
L 99.440281 97.750334 
L 99.457381 126.659425 
L 99.491581 83.295788 
L 99.525781 97.750334 
L 99.559981 112.204879 
L 99.628381 83.295788 
L 99.713881 112.204879 
L 99.730981 97.750334 
L 99.833581 68.841243 
L 99.953281 97.750334 
L 99.970381 97.750334 
L 99.987481 83.295788 
L 100.072981 97.750334 
L 100.107181 97.750334 
L 100.175581 83.295788 
L 100.209781 112.204879 
L 100.261081 83.295788 
L 100.312381 97.750334 
L 100.380781 83.295788 
L 100.432081 112.204879 
L 100.551781 83.295788 
L 100.654381 97.750334 
L 100.688581 83.295788 
L 100.756981 97.750334 
L 100.774081 97.750334 
L 100.876681 112.204879 
L 100.996381 83.295788 
L 101.064781 97.750334 
L 101.081881 68.841243 
L 101.201581 97.750334 
L 101.218681 97.750334 
L 101.252881 83.295788 
L 101.304181 97.750334 
L 101.355481 83.295788 
L 101.406781 112.204879 
L 101.458081 97.750334 
L 101.475181 126.659425 
L 101.492281 112.204879 
L 101.611981 126.659425 
L 101.765881 83.295788 
L 101.834281 83.295788 
L 101.885581 97.750334 
L 101.868481 68.841243 
L 101.936881 83.295788 
L 101.988181 83.295788 
L 102.090781 97.750334 
L 102.142081 68.841243 
L 102.124981 112.204879 
L 102.193381 83.295788 
L 102.313081 112.204879 
L 102.432781 83.295788 
L 102.484081 68.841243 
L 102.535381 112.204879 
L 102.620881 83.295788 
L 102.637981 97.750334 
L 102.655081 112.204879 
L 102.706381 83.295788 
L 102.723481 97.750334 
L 102.740581 68.841243 
L 102.826081 97.750334 
L 102.911581 112.204879 
L 102.945781 83.295788 
L 102.962881 83.295788 
L 103.082581 112.204879 
L 103.150981 68.841243 
L 103.168081 97.750334 
L 103.185181 126.659425 
L 103.219381 83.295788 
L 103.270681 112.204879 
L 103.287781 112.204879 
L 103.321981 83.295788 
L 103.407481 97.750334 
L 103.441681 97.750334 
L 103.458781 83.295788 
L 103.510081 126.659425 
L 103.544281 97.750334 
L 103.561381 97.750334 
L 103.681081 112.204879 
L 103.715281 112.204879 
L 103.834981 97.750334 
L 103.937581 126.659425 
L 104.057281 97.750334 
L 104.091481 97.750334 
L 104.108581 112.204879 
L 104.159881 83.295788 
L 104.176981 97.750334 
L 104.262481 83.295788 
L 104.211181 112.204879 
L 104.279581 97.750334 
L 104.365081 97.750334 
L 104.433481 83.295788 
L 104.450581 97.750334 
L 104.536081 112.204879 
L 104.501881 83.295788 
L 104.553181 97.750334 
L 104.655781 97.750334 
L 104.707081 112.204879 
L 104.689981 83.295788 
L 104.758381 97.750334 
L 104.843881 97.750334 
L 104.912281 83.295788 
L 104.946481 97.750334 
L 104.997781 97.750334 
L 105.066181 83.295788 
L 105.083281 112.204879 
L 105.134581 68.841243 
L 105.185881 97.750334 
L 105.202981 97.750334 
L 105.271381 112.204879 
L 105.322681 68.841243 
L 105.373981 112.204879 
L 105.442381 97.750334 
L 105.527881 83.295788 
L 105.510781 112.204879 
L 105.544981 97.750334 
L 105.562081 112.204879 
L 105.647581 97.750334 
L 105.733081 68.841243 
L 105.715981 112.204879 
L 105.767281 83.295788 
L 105.852781 97.750334 
L 105.869881 83.295788 
L 105.886981 83.295788 
L 106.006681 112.204879 
L 106.023781 112.204879 
L 106.057981 68.841243 
L 106.143481 97.750334 
L 106.194781 97.750334 
L 106.246081 112.204879 
L 106.331581 68.841243 
L 106.451281 97.750334 
L 106.519681 68.841243 
L 106.553881 83.295788 
L 106.588081 83.295788 
L 106.673581 112.204879 
L 106.690681 97.750334 
L 106.793281 68.841243 
L 106.827481 126.659425 
L 106.912981 112.204879 
L 107.032681 68.841243 
L 107.152381 112.204879 
L 107.169481 112.204879 
L 107.272081 83.295788 
L 107.289181 97.750334 
L 107.357581 112.204879 
L 107.340481 68.841243 
L 107.391781 97.750334 
L 107.425981 68.841243 
L 107.460181 126.659425 
L 107.494381 97.750334 
L 107.579881 126.659425 
L 107.596981 97.750334 
L 107.699581 126.659425 
L 107.819281 97.750334 
L 107.938981 126.659425 
L 107.990281 126.659425 
L 108.092881 83.295788 
L 108.212581 126.659425 
L 108.280981 126.659425 
L 108.366481 83.295788 
L 108.400681 97.750334 
L 108.417781 97.750334 
L 108.486181 83.295788 
L 108.554581 126.659425 
L 108.657181 83.295788 
L 108.776881 126.659425 
L 108.793981 112.204879 
L 108.879481 126.659425 
L 108.913681 126.659425 
L 109.050481 83.295788 
L 109.170181 97.750334 
L 109.187281 97.750334 
L 109.272781 68.841243 
L 109.221481 112.204879 
L 109.289881 83.295788 
L 109.358281 112.204879 
L 109.409581 97.750334 
L 109.426681 97.750334 
L 109.512181 83.295788 
L 109.631881 112.204879 
L 109.734481 83.295788 
L 109.854181 112.204879 
L 109.973881 97.750334 
L 110.025181 97.750334 
L 110.076481 68.841243 
L 110.127781 112.204879 
L 110.264581 83.295788 
L 110.298781 83.295788 
L 110.350081 112.204879 
L 110.401381 83.295788 
L 110.503981 97.750334 
L 110.623681 83.295788 
L 110.640781 83.295788 
L 110.760481 97.750334 
L 110.794681 83.295788 
L 110.811781 112.204879 
L 110.863081 97.750334 
L 110.897281 97.750334 
L 111.016981 83.295788 
L 111.119581 112.204879 
L 111.222181 83.295788 
L 111.358981 112.204879 
L 111.495781 83.295788 
L 111.547081 112.204879 
L 111.598381 83.295788 
L 111.615481 83.295788 
L 111.700981 112.204879 
L 111.718081 97.750334 
L 111.752281 97.750334 
L 111.769381 83.295788 
L 111.820681 112.204879 
L 111.854881 126.659425 
L 111.889081 97.750334 
L 111.923281 112.204879 
L 111.991681 83.295788 
L 112.025881 112.204879 
L 112.060081 112.204879 
L 112.094281 83.295788 
L 112.179781 97.750334 
L 112.231081 97.750334 
L 112.282381 83.295788 
L 112.316581 112.204879 
L 112.436281 83.295788 
L 112.538881 112.204879 
L 112.641481 83.295788 
L 112.744081 126.659425 
L 112.846681 97.750334 
L 112.915081 112.204879 
L 112.932181 97.750334 
L 113.000581 126.659425 
L 113.051881 83.295788 
L 113.103181 126.659425 
L 113.154481 97.750334 
L 113.205781 97.750334 
L 113.257081 83.295788 
L 113.291281 112.204879 
L 113.325481 112.204879 
L 113.410981 126.659425 
L 113.445181 68.841243 
L 113.530681 83.295788 
L 113.633281 112.204879 
L 113.701681 54.386697 
L 113.752981 68.841243 
L 113.855581 112.204879 
L 113.872681 97.750334 
L 113.923981 83.295788 
L 113.975281 112.204879 
L 114.043681 68.841243 
L 114.112081 83.295788 
L 114.129181 83.295788 
L 114.180481 112.204879 
L 114.197581 68.841243 
L 114.231781 97.750334 
L 114.248881 68.841243 
L 114.317281 112.204879 
L 114.351481 126.659425 
L 114.368581 83.295788 
L 114.402781 97.750334 
L 114.454081 97.750334 
L 114.522481 112.204879 
L 114.573781 83.295788 
L 114.590881 83.295788 
L 114.710581 112.204879 
L 114.761881 83.295788 
L 114.813181 97.750334 
L 114.830281 97.750334 
L 114.847381 68.841243 
L 114.864481 112.204879 
L 114.932881 97.750334 
L 114.949981 112.204879 
L 115.018381 83.295788 
L 115.035481 97.750334 
L 115.052581 97.750334 
L 115.086781 83.295788 
L 115.120981 126.659425 
L 115.138081 97.750334 
L 115.223581 126.659425 
L 115.257781 112.204879 
L 115.274881 112.204879 
L 115.309081 126.659425 
L 115.377481 97.750334 
L 115.480081 112.204879 
L 115.514281 83.295788 
L 115.582681 97.750334 
L 115.599781 112.204879 
L 115.685281 97.750334 
L 115.702381 97.750334 
L 115.736581 126.659425 
L 115.770781 83.295788 
L 115.787881 97.750334 
L 115.822081 112.204879 
L 115.873381 83.295788 
L 115.975981 112.204879 
L 116.044381 126.659425 
L 116.095681 97.750334 
L 116.181181 112.204879 
L 116.198281 97.750334 
L 116.215381 97.750334 
L 116.249581 83.295788 
L 116.283781 112.204879 
L 116.317981 97.750334 
L 116.335081 126.659425 
L 116.420581 97.750334 
L 116.437681 97.750334 
L 116.454781 83.295788 
L 116.488981 112.204879 
L 116.523181 112.204879 
L 116.557381 112.204879 
L 116.625781 83.295788 
L 116.659981 97.750334 
L 116.677081 97.750334 
L 116.711281 68.841243 
L 116.779681 126.659425 
L 116.882281 83.295788 
L 116.899381 97.750334 
L 116.916481 97.750334 
L 117.019081 126.659425 
L 117.036181 97.750334 
L 117.121681 112.204879 
L 117.138781 112.204879 
L 117.155881 68.841243 
L 117.241381 97.750334 
L 117.292681 97.750334 
L 117.378181 112.204879 
L 117.395281 97.750334 
L 117.463681 83.295788 
L 117.429481 112.204879 
L 117.497881 97.750334 
L 117.532081 97.750334 
L 117.651781 126.659425 
L 117.788581 83.295788 
L 117.908281 97.750334 
L 117.925381 83.295788 
L 117.942481 126.659425 
L 117.993781 97.750334 
L 118.096381 112.204879 
L 118.181881 83.295788 
L 118.267381 126.659425 
L 118.301581 112.204879 
L 118.369981 97.750334 
L 118.387081 126.659425 
L 118.404181 126.659425 
L 118.438381 83.295788 
L 118.506781 126.659425 
L 118.540981 126.659425 
L 118.643581 112.204879 
L 118.660681 126.659425 
L 118.677781 97.750334 
L 118.694881 112.204879 
L 118.711981 68.841243 
L 118.797481 112.204879 
L 118.917181 97.750334 
L 118.934281 97.750334 
L 118.985581 83.295788 
L 119.036881 97.750334 
L 119.105281 97.750334 
L 119.173681 112.204879 
L 119.207881 97.750334 
L 119.276281 112.204879 
L 119.327581 83.295788 
L 119.464381 112.204879 
L 119.566981 68.841243 
L 119.584081 97.750334 
L 119.669581 126.659425 
L 119.789281 68.841243 
L 119.943181 112.204879 
L 119.960281 112.204879 
L 119.977381 54.386697 
L 120.062881 126.659425 
L 120.182581 97.750334 
L 120.268081 83.295788 
L 120.285181 97.750334 
L 120.319381 97.750334 
L 120.370681 112.204879 
L 120.439081 83.295788 
L 120.456181 83.295788 
L 120.541681 112.204879 
L 120.558781 83.295788 
L 120.575881 83.295788 
L 120.644281 126.659425 
L 120.695581 97.750334 
L 120.712681 97.750334 
L 120.798181 68.841243 
L 120.746881 112.204879 
L 120.832381 83.295788 
L 120.986281 126.659425 
L 121.105981 112.204879 
L 121.123081 112.204879 
L 121.276981 68.841243 
L 121.362481 112.204879 
L 121.379581 83.295788 
L 121.430881 68.841243 
L 121.447981 97.750334 
L 121.465081 112.204879 
L 121.482181 83.295788 
L 121.533481 83.295788 
L 121.567681 97.750334 
L 121.636081 68.841243 
L 121.653181 97.750334 
L 121.738681 83.295788 
L 121.772881 83.295788 
L 121.875481 112.204879 
L 121.892581 97.750334 
L 122.012281 83.295788 
L 122.029381 83.295788 
L 122.046481 68.841243 
L 122.131981 83.295788 
L 122.149081 97.750334 
L 122.183281 68.841243 
L 122.217481 83.295788 
L 122.285881 68.841243 
L 122.302981 83.295788 
L 122.354281 54.386697 
L 122.422681 97.750334 
L 122.491081 68.841243 
L 122.525281 83.295788 
L 122.593681 112.204879 
L 122.576581 68.841243 
L 122.644981 97.750334 
L 122.747581 68.841243 
L 122.730481 112.204879 
L 122.764681 83.295788 
L 122.781781 112.204879 
L 122.850181 68.841243 
L 122.867281 68.841243 
L 122.969881 112.204879 
L 122.986981 83.295788 
L 123.004081 83.295788 
L 123.123781 97.750334 
L 123.157981 97.750334 
L 123.192181 112.204879 
L 123.294781 54.386697 
L 123.414481 112.204879 
L 123.482881 68.841243 
L 123.534181 83.295788 
L 123.602581 97.750334 
L 123.619681 68.841243 
L 123.636781 83.295788 
L 123.688081 83.295788 
L 123.756481 112.204879 
L 123.773581 97.750334 
L 123.824881 68.841243 
L 123.876181 83.295788 
L 123.893281 83.295788 
L 123.944581 97.750334 
L 123.961681 68.841243 
L 123.995881 83.295788 
L 124.012981 83.295788 
L 124.030081 68.841243 
L 124.047181 97.750334 
L 124.115581 83.295788 
L 124.132681 83.295788 
L 124.149781 97.750334 
L 124.201081 68.841243 
L 124.235281 83.295788 
L 124.286581 83.295788 
L 124.320781 97.750334 
L 124.372081 68.841243 
L 124.440481 97.750334 
L 124.474681 83.295788 
L 124.491781 68.841243 
L 124.577281 83.295788 
L 124.611481 83.295788 
L 124.662781 97.750334 
L 124.696981 68.841243 
L 124.714081 83.295788 
L 124.799581 97.750334 
L 124.816681 68.841243 
L 124.919281 97.750334 
L 125.021881 68.841243 
L 125.056081 97.750334 
L 125.141581 83.295788 
L 125.175781 83.295788 
L 125.227081 68.841243 
L 125.261281 97.750334 
L 125.312581 68.841243 
L 125.363881 83.295788 
L 125.380981 97.750334 
L 125.466481 83.295788 
L 125.500681 83.295788 
L 125.517781 68.841243 
L 125.569081 112.204879 
L 125.586181 83.295788 
L 125.705881 97.750334 
L 125.740081 68.841243 
L 125.791381 112.204879 
L 125.825581 83.295788 
L 125.911081 97.750334 
L 125.928181 83.295788 
L 125.945281 68.841243 
L 125.979481 112.204879 
L 126.013681 83.295788 
L 126.064981 112.204879 
L 126.133381 97.750334 
L 126.253081 83.295788 
L 126.304381 83.295788 
L 126.406981 112.204879 
L 126.526681 83.295788 
L 126.629281 126.659425 
L 126.646381 97.750334 
L 126.663481 83.295788 
L 126.680581 112.204879 
L 126.748981 97.750334 
L 126.783181 97.750334 
L 126.868681 83.295788 
L 126.885781 97.750334 
L 126.919981 97.750334 
L 126.937081 112.204879 
L 127.022581 97.750334 
L 127.056781 97.750334 
L 127.125181 83.295788 
L 127.159381 97.750334 
L 127.176481 112.204879 
L 127.193581 83.295788 
L 127.261981 97.750334 
L 127.330381 83.295788 
L 127.347481 97.750334 
L 127.364581 112.204879 
L 127.381681 83.295788 
L 127.450081 97.750334 
L 127.535581 83.295788 
L 127.552681 97.750334 
L 127.603981 112.204879 
L 127.621081 83.295788 
L 127.655281 97.750334 
L 127.672381 68.841243 
L 127.689481 112.204879 
L 127.757881 83.295788 
L 127.792081 83.295788 
L 127.809181 112.204879 
L 127.826281 68.841243 
L 127.894681 97.750334 
L 127.911781 97.750334 
L 127.928881 83.295788 
L 128.014381 97.750334 
L 128.031481 97.750334 
L 128.048581 54.386697 
L 128.134081 83.295788 
L 128.151181 83.295788 
L 128.287981 112.204879 
L 128.390581 83.295788 
L 128.510281 126.659425 
L 128.903581 126.659425 
L 128.920681 112.204879 
L 129.006181 126.659425 
L 129.296881 126.659425 
L 129.331081 112.204879 
L 129.399481 126.659425 
L 129.416581 126.659425 
L 129.433681 112.204879 
L 129.519181 126.659425 
L 129.673081 126.659425 
L 129.690181 112.204879 
L 129.775681 126.659425 
L 129.861181 126.659425 
L 129.980881 112.204879 
L 130.100581 126.659425 
L 130.220281 97.750334 
L 130.339981 126.659425 
L 130.493881 126.659425 
L 130.630681 97.750334 
L 130.767481 126.659425 
L 131.092381 126.659425 
L 131.109481 112.204879 
L 131.194981 126.659425 
L 131.331781 126.659425 
L 131.348881 112.204879 
L 131.434381 126.659425 
L 131.605381 126.659425 
L 131.759281 68.841243 
L 131.776381 112.204879 
L 131.861881 97.750334 
L 131.998681 68.841243 
L 132.015781 112.204879 
L 132.101281 83.295788 
L 132.118381 68.841243 
L 132.169681 97.750334 
L 132.186781 97.750334 
L 132.203881 126.659425 
L 132.220981 83.295788 
L 132.272281 83.295788 
L 132.289381 83.295788 
L 132.306481 68.841243 
L 132.323581 112.204879 
L 132.374881 97.750334 
L 132.391981 112.204879 
L 132.426181 68.841243 
L 132.443281 97.750334 
L 132.511681 68.841243 
L 132.545881 83.295788 
L 132.562981 83.295788 
L 132.597181 68.841243 
L 132.665581 83.295788 
L 132.768181 97.750334 
L 132.853681 112.204879 
L 132.887881 68.841243 
L 133.041781 126.659425 
L 133.127281 97.750334 
L 133.144381 112.204879 
L 133.178581 126.659425 
L 133.246981 112.204879 
L 133.349581 97.750334 
L 133.383781 126.659425 
L 133.469281 112.204879 
L 133.503481 112.204879 
L 133.537681 83.295788 
L 133.606081 97.750334 
L 133.691581 112.204879 
L 133.708681 97.750334 
L 133.742881 97.750334 
L 133.759981 68.841243 
L 133.828381 97.750334 
L 133.930981 126.659425 
L 133.948081 112.204879 
L 134.033581 126.659425 
L 134.050681 126.659425 
L 134.119081 112.204879 
L 134.153281 126.659425 
L 134.238781 126.659425 
L 134.358481 112.204879 
L 134.392681 97.750334 
L 134.478181 126.659425 
L 134.512381 126.659425 
L 134.632081 112.204879 
L 134.666281 112.204879 
L 134.785981 126.659425 
L 134.820181 97.750334 
L 134.905681 112.204879 
L 134.922781 112.204879 
L 135.025381 126.659425 
L 135.042481 97.750334 
L 135.127981 126.659425 
L 135.230581 97.750334 
L 135.316081 126.659425 
L 135.333181 97.750334 
L 135.401581 126.659425 
L 135.452881 112.204879 
L 135.469981 97.750334 
L 135.538381 112.204879 
L 135.555481 126.659425 
L 135.640981 112.204879 
L 135.658081 112.204879 
L 135.760681 126.659425 
L 135.829081 97.750334 
L 135.880381 112.204879 
L 136.000081 126.659425 
L 136.102681 112.204879 
L 136.153981 126.659425 
L 136.205281 112.204879 
L 136.376281 112.204879 
L 136.461781 126.659425 
L 136.478881 112.204879 
L 136.547281 112.204879 
L 136.649881 126.659425 
L 136.701181 97.750334 
L 136.752481 112.204879 
L 136.855081 126.659425 
L 136.974781 112.204879 
L 137.316781 112.204879 
L 137.333881 126.659425 
L 137.419381 112.204879 
L 137.607481 112.204879 
L 137.727181 126.659425 
L 137.846881 97.750334 
L 137.863981 126.659425 
L 137.949481 112.204879 
L 137.966581 112.204879 
L 138.052081 126.659425 
L 138.017881 97.750334 
L 138.069181 112.204879 
L 138.171781 112.204879 
L 138.188881 126.659425 
L 138.274381 112.204879 
L 138.376981 112.204879 
L 138.479581 126.659425 
L 138.496681 112.204879 
L 138.582181 126.659425 
L 138.633481 126.659425 
L 138.753181 97.750334 
L 138.787381 126.659425 
L 138.872881 112.204879 
L 138.924181 112.204879 
L 138.958381 126.659425 
L 139.009681 97.750334 
L 139.026781 126.659425 
L 139.078081 54.386697 
L 139.095181 54.386697 
L 139.112281 112.204879 
L 139.197781 68.841243 
L 139.214881 68.841243 
L 139.334581 97.750334 
L 139.368781 54.386697 
L 139.437181 97.750334 
L 139.454281 97.750334 
L 139.522681 126.659425 
L 139.556881 112.204879 
L 139.573981 97.750334 
L 139.591081 126.659425 
L 139.659481 112.204879 
L 139.676581 112.204879 
L 139.796281 68.841243 
L 139.950181 126.659425 
L 140.069881 112.204879 
L 140.086981 112.204879 
L 140.189581 126.659425 
L 140.309281 112.204879 
L 140.343481 112.204879 
L 140.463181 126.659425 
L 140.514481 126.659425 
L 140.565781 112.204879 
L 140.617081 126.659425 
L 140.685481 126.659425 
L 140.788081 112.204879 
L 140.907781 126.659425 
L 140.976181 126.659425 
L 141.027481 112.204879 
L 141.078781 126.659425 
L 141.130081 126.659425 
L 141.215581 68.841243 
L 141.249781 83.295788 
L 141.352381 97.750334 
L 141.369481 68.841243 
L 141.454981 83.295788 
L 141.472081 83.295788 
L 141.591781 97.750334 
L 141.608881 97.750334 
L 141.625981 68.841243 
L 141.711481 83.295788 
L 141.762781 126.659425 
L 141.831181 112.204879 
L 141.882481 68.841243 
L 141.916681 126.659425 
L 141.985081 126.659425 
L 142.002181 97.750334 
L 142.087681 126.659425 
L 142.138981 126.659425 
L 142.258681 112.204879 
L 142.292881 97.750334 
L 142.361281 126.659425 
L 142.480981 112.204879 
L 142.600681 126.659425 
L 142.634881 126.659425 
L 142.737481 112.204879 
L 142.857181 126.659425 
L 142.925581 126.659425 
L 143.045281 112.204879 
L 143.130781 126.659425 
L 143.233381 97.750334 
L 143.353081 126.659425 
L 143.421481 126.659425 
L 143.472781 97.750334 
L 143.524081 112.204879 
L 143.626681 126.659425 
L 143.660881 112.204879 
L 143.729281 126.659425 
L 143.814781 126.659425 
L 143.934481 112.204879 
L 144.002881 97.750334 
L 144.054181 126.659425 
L 144.173881 112.204879 
L 144.190981 112.204879 
L 144.310681 126.659425 
L 144.344881 126.659425 
L 144.413281 97.750334 
L 144.464581 112.204879 
L 144.584281 126.659425 
L 144.703981 112.204879 
L 144.789481 112.204879 
L 144.909181 126.659425 
L 144.926281 112.204879 
L 145.011781 126.659425 
L 145.097281 126.659425 
L 145.131481 112.204879 
L 145.199881 126.659425 
L 145.251181 126.659425 
L 145.268281 112.204879 
L 145.353781 126.659425 
L 145.370881 126.659425 
L 145.456381 112.204879 
L 145.473481 126.659425 
L 145.507681 126.659425 
L 145.593181 112.204879 
L 145.610281 126.659425 
L 145.661581 126.659425 
L 145.678681 112.204879 
L 145.764181 126.659425 
L 145.781281 126.659425 
L 145.883881 112.204879 
L 146.003581 126.659425 
L 146.089081 126.659425 
L 146.208781 112.204879 
L 146.328481 126.659425 
L 146.773081 126.659425 
L 146.790181 97.750334 
L 146.875681 126.659425 
L 146.909881 126.659425 
L 147.029581 97.750334 
L 147.132181 126.659425 
L 147.217681 112.204879 
L 147.234781 126.659425 
L 148.038481 126.659425 
L 148.089781 112.204879 
L 148.141081 126.659425 
L 148.534381 126.659425 
L 148.551481 112.204879 
L 148.636981 126.659425 
L 148.654081 126.659425 
L 148.671181 112.204879 
L 148.756681 126.659425 
L 148.825081 126.659425 
L 148.876381 112.204879 
L 148.927681 126.659425 
L 148.944781 126.659425 
L 148.978981 112.204879 
L 149.047381 126.659425 
L 149.149981 126.659425 
L 149.184181 112.204879 
L 149.252581 126.659425 
L 149.372281 126.659425 
L 149.406481 112.204879 
L 149.474881 126.659425 
L 149.560381 126.659425 
L 149.662981 112.204879 
L 149.765581 126.659425 
L 149.782681 112.204879 
L 149.868181 126.659425 
L 150.227281 126.659425 
L 150.312781 112.204879 
L 150.329881 126.659425 
L 150.346981 126.659425 
L 150.364081 112.204879 
L 150.449581 126.659425 
L 150.466681 126.659425 
L 150.569281 97.750334 
L 150.586381 112.204879 
L 150.706081 126.659425 
L 150.723181 126.659425 
L 150.825781 112.204879 
L 150.877081 97.750334 
L 150.928381 126.659425 
L 151.048081 112.204879 
L 151.150681 126.659425 
L 151.167781 112.204879 
L 151.253281 126.659425 
L 151.595281 126.659425 
L 151.697881 112.204879 
L 151.800481 126.659425 
L 151.885981 112.204879 
L 151.903081 126.659425 
L 151.937281 126.659425 
L 151.988581 112.204879 
L 152.039881 126.659425 
L 152.347681 126.659425 
L 152.364781 112.204879 
L 152.450281 126.659425 
L 152.501581 126.659425 
L 152.518681 112.204879 
L 152.604181 126.659425 
L 152.621281 126.659425 
L 152.672581 112.204879 
L 152.723881 126.659425 
L 152.877781 126.659425 
L 152.894881 112.204879 
L 152.980381 126.659425 
L 153.014581 126.659425 
L 153.117181 112.204879 
L 153.236881 126.659425 
L 153.339481 112.204879 
L 153.459181 126.659425 
L 154.074781 126.659425 
L 154.091881 112.204879 
L 154.177381 126.659425 
L 154.211581 126.659425 
L 154.331281 112.204879 
L 154.450981 126.659425 
L 154.570681 112.204879 
L 154.587781 112.204879 
L 154.673281 126.659425 
L 154.690381 112.204879 
L 154.724581 112.204879 
L 154.844281 126.659425 
L 155.288881 126.659425 
L 155.408581 112.204879 
L 155.425681 112.204879 
L 155.545381 126.659425 
L 155.647981 126.659425 
L 155.682181 112.204879 
L 155.750581 126.659425 
L 155.801881 126.659425 
L 155.853181 112.204879 
L 155.904481 126.659425 
L 156.417481 126.659425 
L 156.537181 112.204879 
L 156.588481 112.204879 
L 156.673981 126.659425 
L 156.691081 112.204879 
L 156.708181 112.204879 
L 156.827881 126.659425 
L 157.084381 126.659425 
L 157.152781 97.750334 
L 157.186981 126.659425 
L 157.340881 126.659425 
L 157.443481 112.204879 
L 157.563181 126.659425 
L 157.802581 126.659425 
L 157.870981 112.204879 
L 157.905181 126.659425 
L 157.956481 126.659425 
L 157.973581 112.204879 
L 158.059081 126.659425 
L 158.144581 126.659425 
L 158.230081 112.204879 
L 158.247181 126.659425 
L 158.264281 126.659425 
L 158.281381 97.750334 
L 158.366881 126.659425 
L 158.401081 126.659425 
L 158.503681 97.750334 
L 158.623381 126.659425 
L 158.708881 112.204879 
L 158.725981 126.659425 
L 158.743081 126.659425 
L 158.760181 112.204879 
L 158.845681 126.659425 
L 159.033781 126.659425 
L 159.136381 112.204879 
L 159.256081 126.659425 
L 159.358681 112.204879 
L 159.478381 126.659425 
L 159.512581 126.659425 
L 159.598081 112.204879 
L 159.615181 126.659425 
L 160.367581 126.659425 
L 160.384681 112.204879 
L 160.470181 126.659425 
L 160.572781 126.659425 
L 160.692481 112.204879 
L 160.743781 97.750334 
L 160.812181 126.659425 
L 160.914781 112.204879 
L 161.034481 126.659425 
L 161.068681 126.659425 
L 161.188381 112.204879 
L 161.308081 126.659425 
L 161.615881 126.659425 
L 161.650081 112.204879 
L 161.718481 126.659425 
L 163.103581 126.659425 
L 163.120681 112.204879 
L 163.206181 126.659425 
L 163.291681 126.659425 
L 163.308781 112.204879 
L 163.394281 126.659425 
L 163.428481 126.659425 
L 163.531081 112.204879 
L 163.650781 126.659425 
L 164.557081 126.659425 
L 164.574181 112.204879 
L 164.659681 126.659425 
L 164.813581 126.659425 
L 164.830681 112.204879 
L 164.916181 126.659425 
L 166.420981 126.659425 
L 166.506481 112.204879 
L 166.523581 126.659425 
L 166.557781 126.659425 
L 166.609081 112.204879 
L 166.660381 126.659425 
L 166.694581 126.659425 
L 166.728781 112.204879 
L 166.797181 126.659425 
L 167.002381 126.659425 
L 167.019481 112.204879 
L 167.104981 126.659425 
L 167.686381 126.659425 
L 167.703481 112.204879 
L 167.788981 126.659425 
L 167.959981 126.659425 
L 167.994181 112.204879 
L 168.062581 126.659425 
L 168.182281 126.659425 
L 168.199381 112.204879 
L 168.284881 126.659425 
L 168.301981 126.659425 
L 168.319081 112.204879 
L 168.404581 126.659425 
L 168.695281 126.659425 
L 168.712381 112.204879 
L 168.797881 126.659425 
L 168.832081 126.659425 
L 168.934681 112.204879 
L 169.054381 126.659425 
L 169.122781 126.659425 
L 169.208281 112.204879 
L 169.225381 126.659425 
L 169.533181 126.659425 
L 169.550281 112.204879 
L 169.635781 126.659425 
L 169.652881 126.659425 
L 169.704181 112.204879 
L 169.755481 126.659425 
L 170.063281 126.659425 
L 170.080381 112.204879 
L 170.165881 126.659425 
L 170.234281 126.659425 
L 170.353981 112.204879 
L 170.473681 126.659425 
L 170.490781 112.204879 
L 170.576281 126.659425 
L 171.106381 126.659425 
L 171.123481 112.204879 
L 171.208981 126.659425 
L 171.892981 126.659425 
L 171.978481 112.204879 
L 171.995581 126.659425 
L 172.081081 126.659425 
L 172.098181 112.204879 
L 172.183681 126.659425 
L 172.234981 126.659425 
L 172.252081 112.204879 
L 172.337581 126.659425 
L 172.679581 126.659425 
L 172.696681 112.204879 
L 172.782181 126.659425 
L 172.816381 126.659425 
L 172.833481 112.204879 
L 172.918981 126.659425 
L 172.970281 126.659425 
L 173.072881 112.204879 
L 173.192581 126.659425 
L 173.209681 126.659425 
L 173.295181 112.204879 
L 173.312281 126.659425 
L 173.466181 126.659425 
L 173.568781 112.204879 
L 173.688481 126.659425 
L 173.808181 112.204879 
L 173.825281 112.204879 
L 173.944981 126.659425 
L 173.962081 126.659425 
L 174.013381 112.204879 
L 174.064681 126.659425 
L 174.098881 126.659425 
L 174.167281 112.204879 
L 174.201481 126.659425 
L 174.372481 126.659425 
L 174.492181 112.204879 
L 174.594781 126.659425 
L 174.611881 112.204879 
L 174.697381 126.659425 
L 174.765781 126.659425 
L 174.868381 112.204879 
L 174.953881 126.659425 
L 174.970981 112.204879 
L 174.988081 112.204879 
L 175.073581 126.659425 
L 175.090681 112.204879 
L 175.124881 112.204879 
L 175.227481 126.659425 
L 175.347181 112.204879 
L 175.364281 112.204879 
L 175.483981 126.659425 
L 175.518181 126.659425 
L 175.637881 112.204879 
L 175.740481 126.659425 
L 175.860181 112.204879 
L 175.979881 126.659425 
L 176.014081 126.659425 
L 176.031181 112.204879 
L 176.116681 126.659425 
L 176.202181 126.659425 
L 176.236381 112.204879 
L 176.304781 126.659425 
L 176.356081 126.659425 
L 176.424481 112.204879 
L 176.458681 126.659425 
L 176.492881 126.659425 
L 176.578381 112.204879 
L 176.595481 126.659425 
L 176.612581 126.659425 
L 176.732281 112.204879 
L 176.851981 126.659425 
L 176.937481 126.659425 
L 177.022981 112.204879 
L 177.040081 126.659425 
L 177.091381 126.659425 
L 177.193981 112.204879 
L 177.313681 126.659425 
L 177.467581 126.659425 
L 177.518881 112.204879 
L 177.570181 126.659425 
L 177.689881 126.659425 
L 177.706981 112.204879 
L 177.792481 126.659425 
L 177.826681 126.659425 
L 177.946381 112.204879 
L 177.963481 112.204879 
L 177.980581 97.750334 
L 177.997681 126.659425 
L 178.048981 126.659425 
L 178.066081 126.659425 
L 178.151581 112.204879 
L 178.168681 126.659425 
L 178.544881 126.659425 
L 178.561981 112.204879 
L 178.647481 126.659425 
L 178.869781 126.659425 
L 178.903981 112.204879 
L 178.972381 126.659425 
L 179.040781 126.659425 
L 179.160481 112.204879 
L 179.280181 126.659425 
L 179.331481 112.204879 
L 179.382781 126.659425 
L 179.416981 126.659425 
L 179.434081 112.204879 
L 179.519581 126.659425 
L 179.553781 126.659425 
L 179.673481 112.204879 
L 179.690581 112.204879 
L 179.810281 126.659425 
L 179.981281 126.659425 
L 180.049681 112.204879 
L 180.083881 126.659425 
L 180.186481 126.659425 
L 180.220681 112.204879 
L 180.289081 126.659425 
L 180.767881 126.659425 
L 180.784981 112.204879 
L 180.870481 126.659425 
L 180.887581 126.659425 
L 180.973081 112.204879 
L 180.990181 126.659425 
L 181.092781 126.659425 
L 181.109881 112.204879 
L 181.195381 126.659425 
L 181.383481 126.659425 
L 181.417681 112.204879 
L 181.486081 126.659425 
L 181.828081 126.659425 
L 181.896481 112.204879 
L 181.930681 126.659425 
L 181.947781 126.659425 
L 182.050381 112.204879 
L 182.170081 126.659425 
L 182.187181 126.659425 
L 182.306881 112.204879 
L 182.426581 126.659425 
L 182.614681 126.659425 
L 182.631781 112.204879 
L 182.717281 126.659425 
L 182.734381 126.659425 
L 182.836981 112.204879 
L 182.956681 126.659425 
L 183.042181 126.659425 
L 183.161881 112.204879 
L 183.264481 126.659425 
L 183.367081 112.204879 
L 183.469681 126.659425 
L 183.572281 112.204879 
L 183.691981 126.659425 
L 183.709081 126.659425 
L 183.760381 112.204879 
L 183.811681 126.659425 
L 184.051081 126.659425 
L 184.102381 112.204879 
L 184.153681 126.659425 
L 184.290481 126.659425 
L 184.324681 112.204879 
L 184.393081 126.659425 
L 184.410181 126.659425 
L 184.529881 97.750334 
L 184.666681 126.659425 
L 184.700881 126.659425 
L 184.803481 112.204879 
L 184.837681 97.750334 
L 184.923181 126.659425 
L 184.957381 112.204879 
L 185.025781 126.659425 
L 185.743981 126.659425 
L 185.829481 112.204879 
L 185.846581 126.659425 
L 185.863681 126.659425 
L 185.983381 112.204879 
L 186.103081 126.659425 
L 186.496381 126.659425 
L 186.616081 112.204879 
L 186.735781 126.659425 
L 187.060681 126.659425 
L 187.180381 97.750334 
L 187.300081 126.659425 
L 187.351381 112.204879 
L 187.402681 126.659425 
L 187.573681 126.659425 
L 187.624981 112.204879 
L 187.676281 126.659425 
L 187.949881 126.659425 
L 188.035381 97.750334 
L 188.052481 112.204879 
L 188.172181 126.659425 
L 188.257681 126.659425 
L 188.274781 112.204879 
L 188.360281 126.659425 
L 188.428681 126.659425 
L 188.565481 97.750334 
L 188.668081 126.659425 
L 188.770681 112.204879 
L 188.890381 126.659425 
L 188.907481 112.204879 
L 188.992981 126.659425 
L 189.078481 126.659425 
L 189.181081 112.204879 
L 189.266581 97.750334 
L 189.300781 126.659425 
L 189.317881 126.659425 
L 189.352081 97.750334 
L 189.420481 126.659425 
L 189.591481 126.659425 
L 189.676981 112.204879 
L 189.694081 126.659425 
L 189.745381 126.659425 
L 189.762481 112.204879 
L 189.847981 126.659425 
L 189.933481 126.659425 
L 189.984781 112.204879 
L 190.036081 126.659425 
L 190.053181 126.659425 
L 190.070281 112.204879 
L 190.155781 126.659425 
L 190.207081 126.659425 
L 190.224181 97.750334 
L 190.309681 126.659425 
L 190.343881 126.659425 
L 190.360981 112.204879 
L 190.446481 126.659425 
L 190.497781 126.659425 
L 190.514881 112.204879 
L 190.600381 126.659425 
L 191.010781 126.659425 
L 191.027881 112.204879 
L 191.113381 126.659425 
L 191.267281 126.659425 
L 191.301481 112.204879 
L 191.369881 126.659425 
L 191.899981 126.659425 
L 192.002581 112.204879 
L 192.122281 126.659425 
L 192.139381 112.204879 
L 192.224881 126.659425 
L 192.241981 126.659425 
L 192.259081 112.204879 
L 192.344581 126.659425 
L 192.823381 126.659425 
L 192.840481 112.204879 
L 192.925981 126.659425 
L 193.250881 126.659425 
L 193.267981 97.750334 
L 193.353481 126.659425 
L 193.507381 126.659425 
L 193.627081 112.204879 
L 193.746781 126.659425 
L 193.763881 126.659425 
L 193.815181 112.204879 
L 193.866481 126.659425 
L 194.054581 126.659425 
L 194.071681 112.204879 
L 194.157181 126.659425 
L 194.191381 126.659425 
L 194.259781 97.750334 
L 194.311081 112.204879 
L 194.430781 126.659425 
L 194.464981 126.659425 
L 194.567581 112.204879 
L 194.670181 126.659425 
L 194.772781 112.204879 
L 194.875381 126.659425 
L 194.926681 112.204879 
L 194.977981 126.659425 
L 195.029281 126.659425 
L 195.080581 112.204879 
L 195.131881 126.659425 
L 195.183181 126.659425 
L 195.200281 97.750334 
L 195.285781 126.659425 
L 195.319981 126.659425 
L 195.337081 97.750334 
L 195.422581 126.659425 
L 195.490981 112.204879 
L 195.525181 126.659425 
L 195.610681 126.659425 
L 195.627781 112.204879 
L 195.713281 126.659425 
L 196.209181 126.659425 
L 196.328881 112.204879 
L 196.448581 126.659425 
L 196.465681 112.204879 
L 196.551181 126.659425 
L 197.919181 126.659425 
L 197.936281 112.204879 
L 198.021781 126.659425 
L 198.449281 126.659425 
L 198.466381 112.204879 
L 198.551881 126.659425 
L 198.586081 126.659425 
L 198.603181 112.204879 
L 198.688681 126.659425 
L 198.774181 126.659425 
L 198.791281 112.204879 
L 198.876781 126.659425 
L 198.893881 126.659425 
L 198.910981 112.204879 
L 198.996481 126.659425 
L 199.423981 126.659425 
L 199.475281 112.204879 
L 199.526581 126.659425 
L 199.612081 126.659425 
L 199.629181 112.204879 
L 199.714681 126.659425 
L 199.783081 126.659425 
L 199.800181 112.204879 
L 199.885681 126.659425 
L 200.073781 126.659425 
L 200.090881 112.204879 
L 200.176381 126.659425 
L 200.210581 126.659425 
L 200.313181 112.204879 
L 200.432881 126.659425 
L 200.501281 126.659425 
L 200.603881 112.204879 
L 200.723581 126.659425 
L 200.809081 112.204879 
L 200.826181 126.659425 
L 200.843281 126.659425 
L 200.860381 112.204879 
L 200.945881 126.659425 
L 201.031381 126.659425 
L 201.065581 112.204879 
L 201.133981 126.659425 
L 201.168181 126.659425 
L 201.287881 112.204879 
L 201.304981 112.204879 
L 201.424681 126.659425 
L 201.527281 126.659425 
L 201.664081 97.750334 
L 201.783781 126.659425 
L 202.006081 126.659425 
L 202.108681 112.204879 
L 202.211281 126.659425 
L 202.296781 112.204879 
L 202.313881 126.659425 
L 202.365181 126.659425 
L 202.382281 112.204879 
L 202.467781 126.659425 
L 202.672981 126.659425 
L 202.758481 112.204879 
L 202.775581 126.659425 
L 202.809781 126.659425 
L 202.895281 112.204879 
L 202.912381 126.659425 
L 202.929481 126.659425 
L 203.032081 112.204879 
L 203.151781 126.659425 
L 203.168881 126.659425 
L 203.271481 112.204879 
L 203.391181 126.659425 
L 203.408281 126.659425 
L 203.510881 112.204879 
L 203.630581 126.659425 
L 203.647681 126.659425 
L 203.664781 112.204879 
L 203.750281 126.659425 
L 203.989681 126.659425 
L 204.058081 112.204879 
L 204.092281 126.659425 
L 204.263281 126.659425 
L 204.348781 97.750334 
L 204.382981 112.204879 
L 204.417181 97.750334 
L 204.502681 126.659425 
L 204.656581 126.659425 
L 204.724981 97.750334 
L 204.759181 126.659425 
L 204.827581 126.659425 
L 204.913081 112.204879 
L 204.930181 126.659425 
L 205.135381 126.659425 
L 205.152481 112.204879 
L 205.237981 126.659425 
L 205.289281 126.659425 
L 205.408981 112.204879 
L 205.528681 126.659425 
L 205.802281 126.659425 
L 205.819381 112.204879 
L 205.904881 126.659425 
L 206.075881 126.659425 
L 206.161381 112.204879 
L 206.178481 126.659425 
L 206.229781 126.659425 
L 206.332381 112.204879 
L 206.452081 126.659425 
L 206.520481 126.659425 
L 206.640181 112.204879 
L 206.759881 126.659425 
L 206.982181 126.659425 
L 207.101881 112.204879 
L 207.136081 112.204879 
L 207.255781 126.659425 
L 207.426781 126.659425 
L 207.529381 112.204879 
L 207.649081 126.659425 
L 207.666181 126.659425 
L 207.683281 112.204879 
L 207.768781 126.659425 
L 208.623781 126.659425 
L 208.640881 112.204879 
L 208.726381 126.659425 
L 209.119681 126.659425 
L 209.136781 112.204879 
L 209.222281 126.659425 
L 209.256481 126.659425 
L 209.307781 112.204879 
L 209.359081 126.659425 
L 209.393281 126.659425 
L 209.410381 112.204879 
L 209.495881 126.659425 
L 210.077281 126.659425 
L 210.128581 112.204879 
L 210.179881 126.659425 
L 210.196981 126.659425 
L 210.214081 112.204879 
L 210.248281 126.659425 
" clip-path="url(#p648d86b7b3)" style="fill: none; stroke: #0072b2; stroke-width: 1.25; stroke-linecap: square"/>
   </g>
   <g id="patch_4">
    <path d="M 30.698281 131.718516 
L 30.698281 20.418516 
" style="fill: none; stroke: #000000; stroke-width: 0.8; stroke-linejoin: miter; stroke-linecap: square"/>
   </g>
   <g id="patch_5">
    <path d="M 30.698281 131.718516 
L 218.798281 131.718516 
" style="fill: none; stroke: #000000; stroke-width: 0.8; stroke-linejoin: miter; stroke-linecap: square"/>
   </g>
   <g id="text_13">
    <!-- drugs2263 rep2 -->
    <g transform="translate(86.875195 14.418516) scale(0.095 -0.095)">
     <defs>
      <path id="DejaVuSans-67" d="M 2906 1791 
Q 2906 2416 2648 2759 
Q 2391 3103 1925 3103 
Q 1463 3103 1205 2759 
Q 947 2416 947 1791 
Q 947 1169 1205 825 
Q 1463 481 1925 481 
Q 2391 481 2648 825 
Q 2906 1169 2906 1791 
z
M 3481 434 
Q 3481 -459 3084 -895 
Q 2688 -1331 1869 -1331 
Q 1566 -1331 1297 -1286 
Q 1028 -1241 775 -1147 
L 775 -588 
Q 1028 -725 1275 -790 
Q 1522 -856 1778 -856 
Q 2344 -856 2625 -561 
Q 2906 -266 2906 331 
L 2906 616 
Q 2728 306 2450 153 
Q 2172 0 1784 0 
Q 1141 0 747 490 
Q 353 981 353 1791 
Q 353 2603 747 3093 
Q 1141 3584 1784 3584 
Q 2172 3584 2450 3431 
Q 2728 3278 2906 2969 
L 2906 3500 
L 3481 3500 
L 3481 434 
z
" transform="scale(0.015625)"/>
      <path id="DejaVuSans-33" d="M 2597 2516 
Q 3050 2419 3304 2112 
Q 3559 1806 3559 1356 
Q 3559 666 3084 287 
Q 2609 -91 1734 -91 
Q 1441 -91 1130 -33 
Q 819 25 488 141 
L 488 750 
Q 750 597 1062 519 
Q 1375 441 1716 441 
Q 2309 441 2620 675 
Q 2931 909 2931 1356 
Q 2931 1769 2642 2001 
Q 2353 2234 1838 2234 
L 1294 2234 
L 1294 2753 
L 1863 2753 
Q 2328 2753 2575 2939 
Q 2822 3125 2822 3475 
Q 2822 3834 2567 4026 
Q 2313 4219 1838 4219 
Q 1578 4219 1281 4162 
Q 984 4106 628 3988 
L 628 4550 
Q 988 4650 1302 4700 
Q 1616 4750 1894 4750 
Q 2613 4750 3031 4423 
Q 3450 4097 3450 3541 
Q 3450 3153 3228 2886 
Q 3006 2619 2597 2516 
z
" transform="scale(0.015625)"/>
      <path id="DejaVuSans-70" d="M 1159 525 
L 1159 -1331 
L 581 -1331 
L 581 3500 
L 1159 3500 
L 1159 2969 
Q 1341 3281 1617 3432 
Q 1894 3584 2278 3584 
Q 2916 3584 3314 3078 
Q 3713 2572 3713 1747 
Q 3713 922 3314 415 
Q 2916 -91 2278 -91 
Q 1894 -91 1617 61 
Q 1341 213 1159 525 
z
M 3116 1747 
Q 3116 2381 2855 2742 
Q 2594 3103 2138 3103 
Q 1681 3103 1420 2742 
Q 1159 2381 1159 1747 
Q 1159 1113 1420 752 
Q 1681 391 2138 391 
Q 2594 391 2855 752 
Q 3116 1113 3116 1747 
z
" transform="scale(0.015625)"/>
     </defs>
     <use xlink:href="#DejaVuSans-64"/>
     <use xlink:href="#DejaVuSans-72" transform="translate(63.476562 0)"/>
     <use xlink:href="#DejaVuSans-75" transform="translate(104.589844 0)"/>
     <use xlink:href="#DejaVuSans-67" transform="translate(167.96875 0)"/>
     <use xlink:href="#DejaVuSans-73" transform="translate(231.445312 0)"/>
     <use xlink:href="#DejaVuSans-32" transform="translate(283.544922 0)"/>
     <use xlink:href="#DejaVuSans-32" transform="translate(347.167969 0)"/>
     <use xlink:href="#DejaVuSans-36" transform="translate(410.791016 0)"/>
     <use xlink:href="#DejaVuSans-33" transform="translate(474.414062 0)"/>
     <use xlink:href="#DejaVuSans-20" transform="translate(538.037109 0)"/>
     <use xlink:href="#DejaVuSans-72" transform="translate(569.824219 0)"/>
     <use xlink:href="#DejaVuSans-65" transform="translate(608.6875 0)"/>
     <use xlink:href="#DejaVuSans-70" transform="translate(670.210938 0)"/>
     <use xlink:href="#DejaVuSans-32" transform="translate(733.6875 0)"/>
    </g>
   </g>
  </g>
 </g>
 <defs>
  <clipPath id="p648d86b7b3">
   <rect x="30.698281" y="20.418516" width="188.1" height="111.3"/>
  </clipPath>
 </defs>
</svg>
