<?xml version="1.0" encoding="utf-8" standalone="no"?>
<!DOCTYPE svg PUBLIC "-//W3C//DTD SVG 1.1//EN"
  "http://www.w3.org/Graphics/SVG/1.1/DTD/svg11.dtd">
<svg xmlns:xlink="http://www.w3.org/1999/xlink" width="218.858281pt" height="164.903516pt" viewBox="0 0 218.858281 164.903516" xmlns="http://www.w3.org/2000/svg" version="1.1">
 <metadata>
  <rdf:RDF xmlns:dc="http://purl.org/dc/elements/1.1/" xmlns:cc="http://creativecommons.org/ns#" xmlns:rdf="http://www.w3.org/1999/02/22-rdf-syntax-ns#">
   <cc:Work>
    <dc:type rdf:resource="http://purl.org/dc/dcmitype/StillImage"/>
    <dc:date>2026-05-24T13:54:00.458229</dc:date>
    <dc:format>image/svg+xml</dc:format>
    <dc:creator>
     <cc:Agent>
      <dc:title>Matplotlib v3.10.9, https://matplotlib.org/</dc:title>
     </cc:Agent>
    </dc:creator>
   </cc:Work>
  </rdf:RDF>
 </metadata>
 <defs>
  <style type="text/css">*{stroke-linejoin: round; stroke-linecap: butt}</style>
 </defs>
 <g id="figure_1">
  <g id="patch_1">
   <path d="M 0 164.903516 
L 218.858281 164.903516 
L 218.858281 0 
L 0 0 
z
" style="fill: #ffffff"/>
  </g>
  <g id="axes_1">
   <g id="patch_2">
    <path d="M 30.698281 131.718516 
L 211.658281 131.718516 
L 211.658281 20.418516 
L 30.698281 20.418516 
z
" style="fill: #ffffff"/>
   </g>
   <g id="patch_3">
    <path d="M 121.178275 131.718516 
L 203.432814 131.718516 
L 203.432814 20.418516 
L 121.178275 20.418516 
z
" clip-path="url(#p32a663abec)" style="fill: #bdbdbd; opacity: 0.18"/>
   </g>
   <g id="matplotlib.axis_1">
    <g id="xtick_1">
     <g id="line2d_1">
      <defs>
       <path id="m50289f14dd" d="M 0 0 
L 0 3 
" style="stroke: #000000; stroke-width: 0.7"/>
      </defs>
      <g>
       <use xlink:href="#m50289f14dd" x="38.923736" y="131.718516" style="stroke: #000000; stroke-width: 0.7"/>
      </g>
     </g>
     <g id="text_1">
      <!-- 0 -->
      <g transform="translate(36.537798 143.917344) scale(0.075 -0.075)">
       <defs>
        <path id="DejaVuSans-30" d="M 2034 4250 
Q 1547 4250 1301 3770 
Q 1056 3291 1056 2328 
Q 1056 1369 1301 889 
Q 1547 409 2034 409 
Q 2525 409 2770 889 
Q 3016 1369 3016 2328 
Q 3016 3291 2770 3770 
Q 2525 4250 2034 4250 
z
M 2034 4750 
Q 2819 4750 3233 4129 
Q 3647 3509 3647 2328 
Q 3647 1150 3233 529 
Q 2819 -91 2034 -91 
Q 1250 -91 836 529 
Q 422 1150 422 2328 
Q 422 3509 836 4129 
Q 1250 4750 2034 4750 
z
" transform="scale(0.015625)"/>
       </defs>
       <use xlink:href="#DejaVuSans-30"/>
      </g>
     </g>
    </g>
    <g id="xtick_2">
     <g id="line2d_2">
      <g>
       <use xlink:href="#m50289f14dd" x="71.825551" y="131.718516" style="stroke: #000000; stroke-width: 0.7"/>
      </g>
     </g>
     <g id="text_2">
      <!-- 20 -->
      <g transform="translate(67.053676 143.917344) scale(0.075 -0.075)">
       <defs>
        <path id="DejaVuSans-32" d="M 1228 531 
L 3431 531 
L 3431 0 
L 469 0 
L 469 531 
Q 828 903 1448 1529 
Q 2069 2156 2228 2338 
Q 2531 2678 2651 2914 
Q 2772 3150 2772 3378 
Q 2772 3750 2511 3984 
Q 2250 4219 1831 4219 
Q 1534 4219 1204 4116 
Q 875 4013 500 3803 
L 500 4441 
Q 881 4594 1212 4672 
Q 1544 4750 1819 4750 
Q 2544 4750 2975 4387 
Q 3406 4025 3406 3419 
Q 3406 3131 3298 2873 
Q 3191 2616 2906 2266 
Q 2828 2175 2409 1742 
Q 1991 1309 1228 531 
z
" transform="scale(0.015625)"/>
       </defs>
       <use xlink:href="#DejaVuSans-32"/>
       <use xlink:href="#DejaVuSans-30" transform="translate(63.623047 0)"/>
      </g>
     </g>
    </g>
    <g id="xtick_3">
     <g id="line2d_3">
      <g>
       <use xlink:href="#m50289f14dd" x="104.727367" y="131.718516" style="stroke: #000000; stroke-width: 0.7"/>
      </g>
     </g>
     <g id="text_3">
      <!-- 40 -->
      <g transform="translate(99.955492 143.917344) scale(0.075 -0.075)">
       <defs>
        <path id="DejaVuSans-34" d="M 2419 4116 
L 825 1625 
L 2419 1625 
L 2419 4116 
z
M 2253 4666 
L 3047 4666 
L 3047 1625 
L 3713 1625 
L 3713 1100 
L 3047 1100 
L 3047 0 
L 2419 0 
L 2419 1100 
L 313 1100 
L 313 1709 
L 2253 4666 
z
" transform="scale(0.015625)"/>
       </defs>
       <use xlink:href="#DejaVuSans-34"/>
       <use xlink:href="#DejaVuSans-30" transform="translate(63.623047 0)"/>
      </g>
     </g>
    </g>
    <g id="xtick_4">
     <g id="line2d_4">
      <g>
       <use xlink:href="#m50289f14dd" x="137.629183" y="131.718516" style="stroke: #000000; stroke-width: 0.7"/>
      </g>
     </g>
     <g id="text_4">
      <!-- 60 -->
      <g transform="translate(132.857308 143.917344) scale(0.075 -0.075)">
       <defs>
        <path id="DejaVuSans-36" d="M 2113 2584 
Q 1688 2584 1439 2293 
Q 1191 2003 1191 1497 
Q 1191 994 1439 701 
Q 1688 409 2113 409 
Q 2538 409 2786 701 
Q 3034 994 3034 1497 
Q 3034 2003 2786 2293 
Q 2538 2584 2113 2584 
z
M 3366 4563 
L 3366 3988 
Q 3128 4100 2886 4159 
Q 2644 4219 2406 4219 
Q 1781 4219 1451 3797 
Q 1122 3375 1075 2522 
Q 1259 2794 1537 2939 
Q 1816 3084 2150 3084 
Q 2853 3084 3261 2657 
Q 3669 2231 3669 1497 
Q 3669 778 3244 343 
Q 2819 -91 2113 -91 
Q 1303 -91 875 529 
Q 447 1150 447 2328 
Q 447 3434 972 4092 
Q 1497 4750 2381 4750 
Q 2619 4750 2861 4703 
Q 3103 4656 3366 4563 
z
" transform="scale(0.015625)"/>
       </defs>
       <use xlink:href="#DejaVuSans-36"/>
       <use xlink:href="#DejaVuSans-30" transform="translate(63.623047 0)"/>
      </g>
     </g>
    </g>
    <g id="xtick_5">
     <g id="line2d_5">
      <g>
       <use xlink:href="#m50289f14dd" x="170.530999" y="131.718516" style="stroke: #000000; stroke-width: 0.7"/>
      </g>
     </g>
     <g id="text_5">
      <!-- 80 -->
      <g transform="translate(165.759124 143.917344) scale(0.075 -0.075)">
       <defs>
        <path id="DejaVuSans-38" d="M 2034 2216 
Q 1584 2216 1326 1975 
Q 1069 1734 1069 1313 
Q 1069 891 1326 650 
Q 1584 409 2034 409 
Q 2484 409 2743 651 
Q 3003 894 3003 1313 
Q 3003 1734 2745 1975 
Q 2488 2216 2034 2216 
z
M 1403 2484 
Q 997 2584 770 2862 
Q 544 3141 544 3541 
Q 544 4100 942 4425 
Q 1341 4750 2034 4750 
Q 2731 4750 3128 4425 
Q 3525 4100 3525 3541 
Q 3525 3141 3298 2862 
Q 3072 2584 2669 2484 
Q 3125 2378 3379 2068 
Q 3634 1759 3634 1313 
Q 3634 634 3220 271 
Q 2806 -91 2034 -91 
Q 1263 -91 848 271 
Q 434 634 434 1313 
Q 434 1759 690 2068 
Q 947 2378 1403 2484 
z
M 1172 3481 
Q 1172 3119 1398 2916 
Q 1625 2713 2034 2713 
Q 2441 2713 2670 2916 
Q 2900 3119 2900 3481 
Q 2900 3844 2670 4047 
Q 2441 4250 2034 4250 
Q 1625 4250 1398 4047 
Q 1172 3844 1172 3481 
z
" transform="scale(0.015625)"/>
       </defs>
       <use xlink:href="#DejaVuSans-38"/>
       <use xlink:href="#DejaVuSans-30" transform="translate(63.623047 0)"/>
      </g>
     </g>
    </g>
    <g id="xtick_6">
     <g id="line2d_6">
      <g>
       <use xlink:href="#m50289f14dd" x="203.432814" y="131.718516" style="stroke: #000000; stroke-width: 0.7"/>
      </g>
     </g>
     <g id="text_6">
      <!-- 100 -->
      <g transform="translate(196.275002 143.917344) scale(0.075 -0.075)">
       <defs>
        <path id="DejaVuSans-31" d="M 794 531 
L 1825 531 
L 1825 4091 
L 703 3866 
L 703 4441 
L 1819 4666 
L 2450 4666 
L 2450 531 
L 3481 531 
L 3481 0 
L 794 0 
L 794 531 
z
" transform="scale(0.015625)"/>
       </defs>
       <use xlink:href="#DejaVuSans-31"/>
       <use xlink:href="#DejaVuSans-30" transform="translate(63.623047 0)"/>
       <use xlink:href="#DejaVuSans-30" transform="translate(127.246094 0)"/>
      </g>
     </g>
    </g>
    <g id="text_7">
     <!-- Time (ns) -->
     <g transform="translate(101.205273 155.935781) scale(0.085 -0.085)">
      <defs>
       <path id="DejaVuSans-54" d="M -19 4666 
L 3928 4666 
L 3928 4134 
L 2272 4134 
L 2272 0 
L 1638 0 
L 1638 4134 
L -19 4134 
L -19 4666 
z
" transform="scale(0.015625)"/>
       <path id="DejaVuSans-69" d="M 603 3500 
L 1178 3500 
L 1178 0 
L 603 0 
L 603 3500 
z
M 603 4863 
L 1178 4863 
L 1178 4134 
L 603 4134 
L 603 4863 
z
" transform="scale(0.015625)"/>
       <path id="DejaVuSans-6d" d="M 3328 2828 
Q 3544 3216 3844 3400 
Q 4144 3584 4550 3584 
Q 5097 3584 5394 3201 
Q 5691 2819 5691 2113 
L 5691 0 
L 5113 0 
L 5113 2094 
Q 5113 2597 4934 2840 
Q 4756 3084 4391 3084 
Q 3944 3084 3684 2787 
Q 3425 2491 3425 1978 
L 3425 0 
L 2847 0 
L 2847 2094 
Q 2847 2600 2669 2842 
Q 2491 3084 2119 3084 
Q 1678 3084 1418 2786 
Q 1159 2488 1159 1978 
L 1159 0 
L 581 0 
L 581 3500 
L 1159 3500 
L 1159 2956 
Q 1356 3278 1631 3431 
Q 1906 3584 2284 3584 
Q 2666 3584 2933 3390 
Q 3200 3197 3328 2828 
z
" transform="scale(0.015625)"/>
       <path id="DejaVuSans-65" d="M 3597 1894 
L 3597 1613 
L 953 1613 
Q 991 1019 1311 708 
Q 1631 397 2203 397 
Q 2534 397 2845 478 
Q 3156 559 3463 722 
L 3463 178 
Q 3153 47 2828 -22 
Q 2503 -91 2169 -91 
Q 1331 -91 842 396 
Q 353 884 353 1716 
Q 353 2575 817 3079 
Q 1281 3584 2069 3584 
Q 2775 3584 3186 3129 
Q 3597 2675 3597 1894 
z
M 3022 2063 
Q 3016 2534 2758 2815 
Q 2500 3097 2075 3097 
Q 1594 3097 1305 2825 
Q 1016 2553 972 2059 
L 3022 2063 
z
" transform="scale(0.015625)"/>
       <path id="DejaVuSans-20" transform="scale(0.015625)"/>
       <path id="DejaVuSans-28" d="M 1984 4856 
Q 1566 4138 1362 3434 
Q 1159 2731 1159 2009 
Q 1159 1288 1364 580 
Q 1569 -128 1984 -844 
L 1484 -844 
Q 1016 -109 783 600 
Q 550 1309 550 2009 
Q 550 2706 781 3412 
Q 1013 4119 1484 4856 
L 1984 4856 
z
" transform="scale(0.015625)"/>
       <path id="DejaVuSans-6e" d="M 3513 2113 
L 3513 0 
L 2938 0 
L 2938 2094 
Q 2938 2591 2744 2837 
Q 2550 3084 2163 3084 
Q 1697 3084 1428 2787 
Q 1159 2491 1159 1978 
L 1159 0 
L 581 0 
L 581 3500 
L 1159 3500 
L 1159 2956 
Q 1366 3272 1645 3428 
Q 1925 3584 2291 3584 
Q 2894 3584 3203 3211 
Q 3513 2838 3513 2113 
z
" transform="scale(0.015625)"/>
       <path id="DejaVuSans-73" d="M 2834 3397 
L 2834 2853 
Q 2591 2978 2328 3040 
Q 2066 3103 1784 3103 
Q 1356 3103 1142 2972 
Q 928 2841 928 2578 
Q 928 2378 1081 2264 
Q 1234 2150 1697 2047 
L 1894 2003 
Q 2506 1872 2764 1633 
Q 3022 1394 3022 966 
Q 3022 478 2636 193 
Q 2250 -91 1575 -91 
Q 1294 -91 989 -36 
Q 684 19 347 128 
L 347 722 
Q 666 556 975 473 
Q 1284 391 1588 391 
Q 1994 391 2212 530 
Q 2431 669 2431 922 
Q 2431 1156 2273 1281 
Q 2116 1406 1581 1522 
L 1381 1569 
Q 847 1681 609 1914 
Q 372 2147 372 2553 
Q 372 3047 722 3315 
Q 1072 3584 1716 3584 
Q 2034 3584 2315 3537 
Q 2597 3491 2834 3397 
z
" transform="scale(0.015625)"/>
       <path id="DejaVuSans-29" d="M 513 4856 
L 1013 4856 
Q 1481 4119 1714 3412 
Q 1947 2706 1947 2009 
Q 1947 1309 1714 600 
Q 1481 -109 1013 -844 
L 513 -844 
Q 928 -128 1133 580 
Q 1338 1288 1338 2009 
Q 1338 2731 1133 3434 
Q 928 4138 513 4856 
z
" transform="scale(0.015625)"/>
      </defs>
      <use xlink:href="#DejaVuSans-54"/>
      <use xlink:href="#DejaVuSans-69" transform="translate(57.958984 0)"/>
      <use xlink:href="#DejaVuSans-6d" transform="translate(85.742188 0)"/>
      <use xlink:href="#DejaVuSans-65" transform="translate(183.154297 0)"/>
      <use xlink:href="#DejaVuSans-20" transform="translate(244.677734 0)"/>
      <use xlink:href="#DejaVuSans-28" transform="translate(276.464844 0)"/>
      <use xlink:href="#DejaVuSans-6e" transform="translate(315.478516 0)"/>
      <use xlink:href="#DejaVuSans-73" transform="translate(378.857422 0)"/>
      <use xlink:href="#DejaVuSans-29" transform="translate(430.957031 0)"/>
     </g>
    </g>
   </g>
   <g id="matplotlib.axis_2">
    <g id="ytick_1">
     <g id="line2d_7">
      <defs>
       <path id="m8031f593f7" d="M 0 0 
L -3 0 
" style="stroke: #000000; stroke-width: 0.7"/>
      </defs>
      <g>
       <use xlink:href="#m8031f593f7" x="30.698281" y="126.672317" style="stroke: #000000; stroke-width: 0.7"/>
      </g>
     </g>
     <g id="text_8">
      <!-- 0 -->
      <g transform="translate(19.426406 129.521731) scale(0.075 -0.075)">
       <use xlink:href="#DejaVuSans-30"/>
      </g>
     </g>
    </g>
    <g id="ytick_2">
     <g id="line2d_8">
      <g>
       <use xlink:href="#m8031f593f7" x="30.698281" y="98.492175" style="stroke: #000000; stroke-width: 0.7"/>
      </g>
     </g>
     <g id="text_9">
      <!-- 1 -->
      <g transform="translate(19.426406 101.341589) scale(0.075 -0.075)">
       <use xlink:href="#DejaVuSans-31"/>
      </g>
     </g>
    </g>
    <g id="ytick_3">
     <g id="line2d_9">
      <g>
       <use xlink:href="#m8031f593f7" x="30.698281" y="70.312033" style="stroke: #000000; stroke-width: 0.7"/>
      </g>
     </g>
     <g id="text_10">
      <!-- 2 -->
      <g transform="translate(19.426406 73.161447) scale(0.075 -0.075)">
       <use xlink:href="#DejaVuSans-32"/>
      </g>
     </g>
    </g>
    <g id="ytick_4">
     <g id="line2d_10">
      <g>
       <use xlink:href="#m8031f593f7" x="30.698281" y="42.13189" style="stroke: #000000; stroke-width: 0.7"/>
      </g>
     </g>
     <g id="text_11">
      <!-- 3 -->
      <g transform="translate(19.426406 44.981304) scale(0.075 -0.075)">
       <defs>
        <path id="DejaVuSans-33" d="M 2597 2516 
Q 3050 2419 3304 2112 
Q 3559 1806 3559 1356 
Q 3559 666 3084 287 
Q 2609 -91 1734 -91 
Q 1441 -91 1130 -33 
Q 819 25 488 141 
L 488 750 
Q 750 597 1062 519 
Q 1375 441 1716 441 
Q 2309 441 2620 675 
Q 2931 909 2931 1356 
Q 2931 1769 2642 2001 
Q 2353 2234 1838 2234 
L 1294 2234 
L 1294 2753 
L 1863 2753 
Q 2328 2753 2575 2939 
Q 2822 3125 2822 3475 
Q 2822 3834 2567 4026 
Q 2313 4219 1838 4219 
Q 1578 4219 1281 4162 
Q 984 4106 628 3988 
L 628 4550 
Q 988 4650 1302 4700 
Q 1616 4750 1894 4750 
Q 2613 4750 3031 4423 
Q 3450 4097 3450 3541 
Q 3450 3153 3228 2886 
Q 3006 2619 2597 2516 
z
" transform="scale(0.015625)"/>
       </defs>
       <use xlink:href="#DejaVuSans-33"/>
      </g>
     </g>
    </g>
    <g id="text_12">
     <!-- Ligand RMSD (nm) -->
     <g transform="translate(13.658672 115.752891) rotate(-90) scale(0.085 -0.085)">
      <defs>
       <path id="DejaVuSans-4c" d="M 628 4666 
L 1259 4666 
L 1259 531 
L 3531 531 
L 3531 0 
L 628 0 
L 628 4666 
z
" transform="scale(0.015625)"/>
       <path id="DejaVuSans-67" d="M 2906 1791 
Q 2906 2416 2648 2759 
Q 2391 3103 1925 3103 
Q 1463 3103 1205 2759 
Q 947 2416 947 1791 
Q 947 1169 1205 825 
Q 1463 481 1925 481 
Q 2391 481 2648 825 
Q 2906 1169 2906 1791 
z
M 3481 434 
Q 3481 -459 3084 -895 
Q 2688 -1331 1869 -1331 
Q 1566 -1331 1297 -1286 
Q 1028 -1241 775 -1147 
L 775 -588 
Q 1028 -725 1275 -790 
Q 1522 -856 1778 -856 
Q 2344 -856 2625 -561 
Q 2906 -266 2906 331 
L 2906 616 
Q 2728 306 2450 153 
Q 2172 0 1784 0 
Q 1141 0 747 490 
Q 353 981 353 1791 
Q 353 2603 747 3093 
Q 1141 3584 1784 3584 
Q 2172 3584 2450 3431 
Q 2728 3278 2906 2969 
L 2906 3500 
L 3481 3500 
L 3481 434 
z
" transform="scale(0.015625)"/>
       <path id="DejaVuSans-61" d="M 2194 1759 
Q 1497 1759 1228 1600 
Q 959 1441 959 1056 
Q 959 750 1161 570 
Q 1363 391 1709 391 
Q 2188 391 2477 730 
Q 2766 1069 2766 1631 
L 2766 1759 
L 2194 1759 
z
M 3341 1997 
L 3341 0 
L 2766 0 
L 2766 531 
Q 2569 213 2275 61 
Q 1981 -91 1556 -91 
Q 1019 -91 701 211 
Q 384 513 384 1019 
Q 384 1609 779 1909 
Q 1175 2209 1959 2209 
L 2766 2209 
L 2766 2266 
Q 2766 2663 2505 2880 
Q 2244 3097 1772 3097 
Q 1472 3097 1187 3025 
Q 903 2953 641 2809 
L 641 3341 
Q 956 3463 1253 3523 
Q 1550 3584 1831 3584 
Q 2591 3584 2966 3190 
Q 3341 2797 3341 1997 
z
" transform="scale(0.015625)"/>
       <path id="DejaVuSans-64" d="M 2906 2969 
L 2906 4863 
L 3481 4863 
L 3481 0 
L 2906 0 
L 2906 525 
Q 2725 213 2448 61 
Q 2172 -91 1784 -91 
Q 1150 -91 751 415 
Q 353 922 353 1747 
Q 353 2572 751 3078 
Q 1150 3584 1784 3584 
Q 2172 3584 2448 3432 
Q 2725 3281 2906 2969 
z
M 947 1747 
Q 947 1113 1208 752 
Q 1469 391 1925 391 
Q 2381 391 2643 752 
Q 2906 1113 2906 1747 
Q 2906 2381 2643 2742 
Q 2381 3103 1925 3103 
Q 1469 3103 1208 2742 
Q 947 2381 947 1747 
z
" transform="scale(0.015625)"/>
       <path id="DejaVuSans-52" d="M 2841 2188 
Q 3044 2119 3236 1894 
Q 3428 1669 3622 1275 
L 4263 0 
L 3584 0 
L 2988 1197 
Q 2756 1666 2539 1819 
Q 2322 1972 1947 1972 
L 1259 1972 
L 1259 0 
L 628 0 
L 628 4666 
L 2053 4666 
Q 2853 4666 3247 4331 
Q 3641 3997 3641 3322 
Q 3641 2881 3436 2590 
Q 3231 2300 2841 2188 
z
M 1259 4147 
L 1259 2491 
L 2053 2491 
Q 2509 2491 2742 2702 
Q 2975 2913 2975 3322 
Q 2975 3731 2742 3939 
Q 2509 4147 2053 4147 
L 1259 4147 
z
" transform="scale(0.015625)"/>
       <path id="DejaVuSans-4d" d="M 628 4666 
L 1569 4666 
L 2759 1491 
L 3956 4666 
L 4897 4666 
L 4897 0 
L 4281 0 
L 4281 4097 
L 3078 897 
L 2444 897 
L 1241 4097 
L 1241 0 
L 628 0 
L 628 4666 
z
" transform="scale(0.015625)"/>
       <path id="DejaVuSans-53" d="M 3425 4513 
L 3425 3897 
Q 3066 4069 2747 4153 
Q 2428 4238 2131 4238 
Q 1616 4238 1336 4038 
Q 1056 3838 1056 3469 
Q 1056 3159 1242 3001 
Q 1428 2844 1947 2747 
L 2328 2669 
Q 3034 2534 3370 2195 
Q 3706 1856 3706 1288 
Q 3706 609 3251 259 
Q 2797 -91 1919 -91 
Q 1588 -91 1214 -16 
Q 841 59 441 206 
L 441 856 
Q 825 641 1194 531 
Q 1563 422 1919 422 
Q 2459 422 2753 634 
Q 3047 847 3047 1241 
Q 3047 1584 2836 1778 
Q 2625 1972 2144 2069 
L 1759 2144 
Q 1053 2284 737 2584 
Q 422 2884 422 3419 
Q 422 4038 858 4394 
Q 1294 4750 2059 4750 
Q 2388 4750 2728 4690 
Q 3069 4631 3425 4513 
z
" transform="scale(0.015625)"/>
       <path id="DejaVuSans-44" d="M 1259 4147 
L 1259 519 
L 2022 519 
Q 2988 519 3436 956 
Q 3884 1394 3884 2338 
Q 3884 3275 3436 3711 
Q 2988 4147 2022 4147 
L 1259 4147 
z
M 628 4666 
L 1925 4666 
Q 3281 4666 3915 4102 
Q 4550 3538 4550 2338 
Q 4550 1131 3912 565 
Q 3275 0 1925 0 
L 628 0 
L 628 4666 
z
" transform="scale(0.015625)"/>
      </defs>
      <use xlink:href="#DejaVuSans-4c"/>
      <use xlink:href="#DejaVuSans-69" transform="translate(55.712891 0)"/>
      <use xlink:href="#DejaVuSans-67" transform="translate(83.496094 0)"/>
      <use xlink:href="#DejaVuSans-61" transform="translate(146.972656 0)"/>
      <use xlink:href="#DejaVuSans-6e" transform="translate(208.251953 0)"/>
      <use xlink:href="#DejaVuSans-64" transform="translate(271.630859 0)"/>
      <use xlink:href="#DejaVuSans-20" transform="translate(335.107422 0)"/>
      <use xlink:href="#DejaVuSans-52" transform="translate(366.894531 0)"/>
      <use xlink:href="#DejaVuSans-4d" transform="translate(436.376953 0)"/>
      <use xlink:href="#DejaVuSans-53" transform="translate(522.65625 0)"/>
      <use xlink:href="#DejaVuSans-44" transform="translate(586.132812 0)"/>
      <use xlink:href="#DejaVuSans-20" transform="translate(663.134766 0)"/>
      <use xlink:href="#DejaVuSans-28" transform="translate(694.921875 0)"/>
      <use xlink:href="#DejaVuSans-6e" transform="translate(733.935547 0)"/>
      <use xlink:href="#DejaVuSans-6d" transform="translate(797.314453 0)"/>
      <use xlink:href="#DejaVuSans-29" transform="translate(894.726562 0)"/>
     </g>
    </g>
   </g>
   <g id="line2d_11">
    <path d="M 38.923736 126.659425 
L 38.989539 118.868044 
L 39.055343 121.77285 
L 39.071794 121.82411 
L 39.203401 111.892134 
L 39.219852 112.509654 
L 39.285656 111.18426 
L 39.252754 113.533982 
L 39.302107 113.161176 
L 39.335008 111.985582 
L 39.351459 112.615453 
L 39.433714 115.041812 
L 39.466616 113.236409 
L 39.483067 113.081781 
L 39.499518 113.990284 
L 39.532419 112.219745 
L 39.598223 113.912287 
L 39.614674 113.886412 
L 39.746281 110.693585 
L 39.779183 111.130453 
L 39.828536 109.176267 
L 39.943692 114.48294 
L 39.960143 114.459706 
L 39.993045 112.815738 
L 40.025947 114.544855 
L 40.075299 113.439683 
L 40.108201 115.399962 
L 40.174005 113.200656 
L 40.190456 114.694672 
L 40.322063 111.943295 
L 40.223358 115.736179 
L 40.354965 113.71185 
L 40.437219 115.550973 
L 40.470121 114.588537 
L 40.519474 113.778552 
L 40.535925 114.781238 
L 40.552376 114.353433 
L 40.601729 115.101818 
L 40.618179 114.023522 
L 40.667532 115.08178 
L 40.881394 111.813917 
L 40.897845 112.285391 
L 40.930747 110.4624 
L 40.947197 111.24305 
L 40.963648 110.611099 
L 41.013001 111.863114 
L 41.045903 111.195129 
L 41.062354 111.786115 
L 41.095256 109.04067 
L 41.161059 106.582905 
L 41.210412 106.938265 
L 41.226863 106.926297 
L 41.243314 107.595519 
L 41.276216 105.86299 
L 41.292667 104.930388 
L 41.309117 106.369612 
L 41.374921 106.012942 
L 41.407823 106.593684 
L 41.424274 106.53669 
L 41.490078 95.436151 
L 41.53943 98.143553 
L 41.588783 97.382193 
L 41.654587 99.677852 
L 41.753292 96.9004 
L 41.769743 95.824648 
L 41.786194 96.578506 
L 41.851998 104.863127 
L 41.90135 99.461952 
L 41.950703 87.144251 
L 41.983605 101.799791 
L 42.000056 102.996579 
L 42.032958 97.395142 
L 42.049408 98.647487 
L 42.08231 99.36882 
L 42.115212 97.774345 
L 42.131663 98.357564 
L 42.181016 97.41265 
L 42.230368 95.223425 
L 42.296172 108.280635 
L 42.460681 94.357773 
L 42.658092 90.768074 
L 42.493583 95.141581 
L 42.707445 92.076131 
L 42.740347 91.616477 
L 42.80615 92.648715 
L 42.839052 90.417733 
L 42.888405 92.561247 
L 42.921307 96.041224 
L 43.003561 94.247473 
L 43.052914 92.178048 
L 43.102267 94.743779 
L 43.118718 92.835781 
L 43.135169 92.51422 
L 43.200972 100.345101 
L 43.266776 95.819122 
L 43.283227 95.743639 
L 43.299677 94.104341 
L 43.332579 96.692532 
L 43.381932 95.412671 
L 43.398383 97.722057 
L 43.431285 93.259289 
L 43.497089 96.336453 
L 43.513539 96.276038 
L 43.645147 93.630407 
L 43.661597 93.751283 
L 43.678048 95.524944 
L 43.776754 94.5328 
L 43.826107 96.018012 
L 43.859008 95.565044 
L 43.89191 92.272448 
L 43.941263 96.10222 
L 44.07287 99.457829 
L 44.303183 84.533792 
L 44.319634 83.809918 
L 44.336085 77.345872 
L 44.418339 86.40853 
L 44.43479 78.91813 
L 44.517045 76.220989 
L 44.599299 84.838828 
L 44.61575 84.33386 
L 44.632201 74.251498 
L 44.665103 85.225096 
L 44.730907 77.208094 
L 44.763808 87.736449 
L 44.813161 75.221135 
L 44.829612 76.746035 
L 44.878965 74.284531 
L 44.928317 75.935431 
L 44.961219 77.412594 
L 44.994121 73.948942 
L 45.027023 75.538406 
L 45.175081 78.378387 
L 45.207983 78.166413 
L 45.273786 77.370828 
L 45.290237 78.71552 
L 45.454747 85.970602 
L 45.487648 82.965686 
L 45.652157 63.076341 
L 45.685059 70.725199 
L 45.734412 69.780975 
L 45.783765 73.17591 
L 45.849568 58.123138 
L 45.88247 73.336861 
L 45.915372 69.184666 
L 45.948273 71.455715 
L 45.964725 59.710663 
L 46.030528 72.442302 
L 46.04698 70.771115 
L 46.06343 72.666351 
L 46.112783 69.767632 
L 46.162135 71.37944 
L 46.227939 61.432134 
L 46.277292 68.919581 
L 46.293743 71.566708 
L 46.375997 68.976877 
L 46.655663 74.490981 
L 46.672113 73.355136 
L 46.754368 75.089285 
L 46.820172 71.110632 
L 47.050484 54.8292 
L 47.066936 54.837446 
L 47.083386 60.165423 
L 47.099837 54.201961 
L 47.182092 56.813485 
L 47.214994 58.452755 
L 47.264346 56.787706 
L 47.280798 55.223305 
L 47.313699 60.925526 
L 47.379503 67.264054 
L 47.412405 60.420216 
L 47.428855 63.501949 
L 47.478208 57.986661 
L 47.544012 59.897275 
L 47.560463 60.704698 
L 47.609815 59.347441 
L 47.642717 58.001301 
L 47.69207 59.258121 
L 47.741423 69.299252 
L 47.807226 67.414257 
L 47.823677 67.258128 
L 48.004638 74.570297 
L 48.05399 74.071985 
L 48.070441 73.723583 
L 48.086892 75.717001 
L 48.103343 75.174578 
L 48.465263 83.735533 
L 48.481714 82.308657 
L 48.514616 84.724028 
L 48.547518 84.289631 
L 48.563968 86.598656 
L 48.662673 86.004117 
L 48.679125 86.123567 
L 48.695575 87.131032 
L 48.728478 85.822665 
L 48.76138 86.499374 
L 48.942339 76.351964 
L 48.95879 76.506901 
L 48.975241 76.288632 
L 48.991692 77.517853 
L 49.057496 81.114811 
L 49.024594 76.654532 
L 49.090397 78.123058 
L 49.106848 77.193708 
L 49.172652 79.513821 
L 49.222004 82.22288 
L 49.271357 80.998523 
L 49.386513 67.511932 
L 49.518121 71.708381 
L 49.600375 79.702676 
L 49.764884 77.765311 
L 49.945845 68.619251 
L 49.995198 69.759933 
L 50.011648 70.459017 
L 50.028099 76.613958 
L 50.093903 67.024439 
L 50.126805 75.902792 
L 50.159707 65.06367 
L 50.241961 69.29099 
L 50.40647 46.712243 
L 50.472274 50.769921 
L 50.488724 51.925783 
L 50.538077 48.726184 
L 50.554528 50.87343 
L 50.58743 46.094703 
L 50.669684 49.377881 
L 50.702586 51.125656 
L 50.76839 50.039483 
L 50.784841 44.000978 
L 50.883547 44.632929 
L 50.916448 42.54416 
L 50.94935 43.936417 
L 50.965801 52.367152 
L 51.048056 48.720633 
L 51.179663 40.587478 
L 51.196114 40.873861 
L 51.229016 41.540857 
L 51.261917 38.543403 
L 51.327721 45.445734 
L 51.294819 37.794586 
L 51.393525 42.970717 
L 51.49223 49.535549 
L 51.525132 46.080633 
L 51.558034 48.904167 
L 51.623837 45.282518 
L 51.689641 43.945226 
L 51.738994 50.623153 
L 51.788346 48.025595 
L 51.821248 56.988943 
L 51.85415 47.678314 
L 51.887052 48.479307 
L 51.952856 46.917814 
L 52.051561 67.855756 
L 52.133816 62.371176 
L 52.199619 63.135982 
L 52.216069 60.716993 
L 52.248972 70.465316 
L 52.265423 61.531162 
L 52.281874 68.452608 
L 52.314775 56.381684 
L 52.380579 67.172621 
L 52.446383 59.361052 
L 52.512186 60.980674 
L 52.610892 65.449349 
L 52.57799 57.299852 
L 52.627342 63.574248 
L 52.758951 53.244851 
L 52.791852 54.11662 
L 52.808303 54.713002 
L 52.824754 51.977536 
L 52.841204 50.685448 
L 52.907007 63.886876 
L 52.956361 59.980091 
L 53.022165 62.142747 
L 53.038616 60.250214 
L 53.10442 58.105581 
L 53.071517 60.649879 
L 53.120869 60.132469 
L 53.170223 64.81516 
L 53.236027 62.891452 
L 53.252477 63.669223 
L 53.30183 60.832607 
L 53.31828 57.931439 
L 53.384084 61.347453 
L 53.400535 60.098706 
L 53.433437 65.518269 
L 53.48279 65.291977 
L 53.614397 49.369892 
L 53.630848 49.193372 
L 53.663749 59.042084 
L 53.729553 57.520142 
L 53.746004 49.536375 
L 53.84471 49.624739 
L 53.894063 53.848731 
L 53.910514 53.595815 
L 53.959866 62.390809 
L 54.009218 57.436441 
L 54.091473 49.291763 
L 54.157277 49.305126 
L 54.272434 60.212354 
L 54.321787 51.565782 
L 54.38759 56.146968 
L 54.469845 57.207401 
L 54.486295 53.122974 
L 54.552098 56.706916 
L 54.585001 54.86221 
L 54.634353 45.555899 
L 54.617903 55.377614 
L 54.700157 51.20323 
L 54.716608 44.70084 
L 54.798863 53.241359 
L 54.946921 62.567563 
L 55.029176 59.991154 
L 55.078528 60.607014 
L 55.111429 59.41777 
L 55.177233 57.093607 
L 55.226587 69.138947 
L 55.29239 67.597563 
L 55.391095 60.870279 
L 55.456899 63.970669 
L 55.47335 65.078324 
L 55.489801 63.457647 
L 55.604957 39.702029 
L 55.621408 41.085336 
L 55.687212 51.506001 
L 55.703663 40.041101 
L 55.736564 43.247914 
L 55.785918 40.939991 
L 55.884622 60.446841 
L 55.901074 48.049715 
L 55.983329 55.669188 
L 55.999778 45.538382 
L 56.01623 50.090281 
L 56.032681 50.460655 
L 56.049132 61.570567 
L 56.114936 42.9419 
L 56.131385 47.950875 
L 56.147837 47.945245 
L 56.164288 49.873297 
L 56.230092 47.634663 
L 56.361699 39.301294 
L 56.295895 48.617012 
L 56.37815 39.830156 
L 56.394601 52.83025 
L 56.493306 46.284336 
L 56.559109 50.501015 
L 56.592012 48.390102 
L 56.690717 43.072665 
L 56.723619 45.069972 
L 56.75652 43.806552 
L 56.789423 44.644671 
L 56.970382 52.011606 
L 57.101989 53.771346 
L 57.052637 51.753763 
L 57.134892 53.002442 
L 57.184244 50.967788 
L 57.167793 53.390142 
L 57.217147 52.01113 
L 57.233596 53.31955 
L 57.266499 51.315345 
L 57.315851 51.572762 
L 57.332302 51.388391 
L 57.46391 45.645452 
L 57.480361 46.918538 
L 57.513262 44.937548 
L 57.529713 61.716858 
L 57.628419 59.9084 
L 57.66132 52.360701 
L 57.710673 61.015054 
L 57.743575 55.521964 
L 57.776478 56.827702 
L 57.792928 56.132926 
L 58.023241 42.653045 
L 58.039692 49.328081 
L 58.105496 39.738035 
L 58.121947 41.088233 
L 58.138397 39.788754 
L 58.171299 45.3235 
L 58.2042 44.995548 
L 58.220652 43.165242 
L 58.270004 48.164058 
L 58.286455 44.755183 
L 58.418062 48.21715 
L 58.434513 48.993479 
L 58.450965 46.525913 
L 58.467414 47.040733 
L 58.53322 49.037488 
L 58.599023 40.030345 
L 58.714179 49.078411 
L 58.74708 46.355152 
L 58.812884 50.58823 
L 58.829335 49.104472 
L 58.862237 55.597225 
L 58.878687 55.830539 
L 58.895138 55.204424 
L 58.928041 53.850104 
L 58.977393 55.847146 
L 59.010296 55.588855 
L 59.026746 56.589949 
L 59.059648 52.563861 
L 59.109001 47.912742 
L 59.158353 51.795419 
L 59.207707 51.294207 
L 59.224156 52.361623 
L 59.306411 49.060598 
L 59.355765 49.842586 
L 59.388666 52.574603 
L 59.470921 51.429858 
L 59.569625 46.537805 
L 59.586077 48.27391 
L 59.65188 45.270242 
L 59.750586 55.883569 
L 59.799939 58.964698 
L 59.882194 51.148124 
L 59.931546 41.623656 
L 60.013801 47.830949 
L 60.19476 56.227617 
L 60.096056 47.608433 
L 60.227663 54.934027 
L 60.244114 55.001764 
L 60.277015 53.099821 
L 60.326367 55.518484 
L 60.375721 53.363216 
L 60.408622 52.905553 
L 60.441525 53.919768 
L 60.457974 52.928348 
L 60.490877 52.892134 
L 60.52378 62.023881 
L 60.638935 44.501671 
L 60.655387 44.974399 
L 60.704739 46.968397 
L 60.72119 46.725975 
L 60.803444 52.850861 
L 60.836346 51.992533 
L 60.951502 50.2823 
L 60.967953 51.447794 
L 61.033757 48.433035 
L 61.050208 50.3597 
L 61.066659 50.448172 
L 61.09956 52.299891 
L 61.148913 49.225635 
L 61.165364 49.022814 
L 61.231167 56.409695 
L 61.280521 55.216116 
L 61.329874 46.538752 
L 61.395677 47.105339 
L 61.461481 64.486228 
L 61.527284 54.530772 
L 61.576637 54.926092 
L 61.658891 43.769371 
L 61.724695 44.355737 
L 61.774047 37.829524 
L 61.80695 45.631948 
L 61.823401 47.335063 
L 61.889205 44.358223 
L 61.905655 44.098081 
L 62.037262 48.388798 
L 62.070164 37.645612 
L 62.135968 51.551706 
L 62.152419 44.767416 
L 62.18532 51.547749 
L 62.201771 47.93031 
L 62.218223 36.590412 
L 62.316927 39.270603 
L 62.432085 52.717437 
L 62.448536 48.885912 
L 62.481437 60.974137 
L 62.54724 49.493859 
L 62.678848 62.692336 
L 62.613044 48.718054 
L 62.695299 62.225326 
L 62.859809 44.151508 
L 62.925612 64.247956 
L 62.974964 51.291984 
L 62.991416 53.996866 
L 63.040768 46.152887 
L 63.073669 49.588815 
L 63.09012 49.103483 
L 63.106572 50.108316 
L 63.123023 52.325389 
L 63.155924 48.286481 
L 63.221727 51.126986 
L 63.271081 56.225349 
L 63.336885 53.998633 
L 63.501393 48.150729 
L 63.665903 57.095611 
L 63.945568 66.970347 
L 64.011372 66.082275 
L 64.077175 63.368919 
L 64.126528 65.69632 
L 64.192331 64.730733 
L 64.15943 65.741301 
L 64.225234 64.916524 
L 64.291037 68.367019 
L 64.323938 64.331947 
L 64.34039 65.064859 
L 64.356841 61.950883 
L 64.373291 63.305023 
L 64.389742 62.024808 
L 64.455546 73.356176 
L 64.504899 64.710959 
L 64.554252 61.819487 
L 64.570703 70.511461 
L 64.603604 61.233383 
L 64.652956 62.933958 
L 64.685859 59.241836 
L 64.71876 53.309082 
L 64.784565 60.447393 
L 64.866818 63.565636 
L 64.899721 62.763412 
L 64.949073 53.628247 
L 64.998425 57.450754 
L 65.08068 67.419082 
L 65.130032 66.783118 
L 65.146484 61.900781 
L 65.179386 74.34573 
L 65.228739 69.383384 
L 65.294542 65.782737 
L 65.360347 74.461246 
L 65.409698 68.657951 
L 65.459052 72.755009 
L 65.491954 75.063444 
L 65.508403 70.28436 
L 65.574208 74.784432 
L 66.265146 37.873879 
L 66.330948 39.992645 
L 66.347399 39.189503 
L 66.363851 34.59971 
L 66.413204 43.661765 
L 66.429656 43.531457 
L 66.495458 53.581578 
L 66.462558 37.902677 
L 66.511909 45.582599 
L 66.577714 30.857768 
L 66.643516 34.218647 
L 66.939633 47.348333 
L 66.956084 47.302867 
L 67.104143 50.634132 
L 67.169945 49.781049 
L 67.202847 50.832856 
L 67.23575 53.372084 
L 67.285104 52.071604 
L 67.350906 46.829295 
L 67.416711 47.29746 
L 67.433159 48.315002 
L 67.466062 45.2037 
L 67.498964 47.236286 
L 67.531867 44.397554 
L 67.581217 49.136828 
L 67.630571 51.150133 
L 67.663474 49.931821 
L 67.762178 59.387073 
L 67.795081 56.763547 
L 67.811532 58.237529 
L 67.827984 51.481906 
L 67.910237 38.587423 
L 67.926688 41.664802 
L 67.943139 52.526914 
L 67.959591 39.653641 
L 68.025393 44.616139 
L 68.074746 38.136963 
L 68.107649 46.05695 
L 68.124097 45.090236 
L 68.173451 52.985909 
L 68.222805 44.034213 
L 68.305058 33.148377 
L 68.321509 42.502129 
L 68.420214 51.353264 
L 68.436665 44.70301 
L 68.453117 44.259277 
L 68.469568 44.978753 
L 68.486019 50.355214 
L 68.53537 32.696888 
L 68.551821 49.784092 
L 68.617626 34.365302 
L 68.666977 36.100568 
L 68.847938 56.694923 
L 68.979545 55.893263 
L 68.995996 56.051711 
L 69.028899 50.163118 
L 69.094701 57.843216 
L 69.144055 60.222493 
L 69.176957 56.985694 
L 69.193409 53.810598 
L 69.242759 63.540654 
L 69.275662 56.854 
L 69.292113 58.944011 
L 69.308565 45.673125 
L 69.390818 58.024823 
L 69.456623 60.552748 
L 69.440172 57.125039 
L 69.522425 59.27807 
L 69.538876 59.009786 
L 69.555328 60.255374 
L 69.58823 62.095813 
L 69.621133 58.728523 
L 69.637581 55.842054 
L 69.670483 63.011299 
L 69.686935 61.446332 
L 69.703386 66.172437 
L 69.736288 60.372445 
L 69.785639 65.988173 
L 69.802091 60.681035 
L 69.834993 68.583096 
L 69.884347 67.849398 
L 69.900798 66.188328 
L 69.950149 71.380421 
L 69.9666 70.105743 
L 70.015954 66.132965 
L 70.147561 78.519637 
L 70.29562 59.020374 
L 70.328519 59.988226 
L 70.377873 70.446753 
L 70.443678 66.492172 
L 70.50948 61.745064 
L 70.575285 64.289767 
L 70.591733 69.382558 
L 70.67399 66.419746 
L 70.739792 67.156308 
L 70.789146 56.950179 
L 70.805597 66.706426 
L 70.88785 62.575732 
L 71.003006 55.68571 
L 70.970107 66.724571 
L 71.019457 55.781627 
L 71.05236 66.388249 
L 71.101714 54.249749 
L 71.134616 59.501828 
L 71.233321 67.264519 
L 71.282672 61.545599 
L 71.299123 61.549798 
L 71.332026 61.302511 
L 71.348477 61.780249 
L 71.364928 61.579556 
L 71.43073 64.073076 
L 71.414279 59.319463 
L 71.463633 61.468464 
L 71.529438 59.343729 
L 71.545889 60.773074 
L 71.562337 70.057704 
L 71.644594 61.107947 
L 71.677496 58.914501 
L 71.759749 66.027403 
L 71.792652 64.191971 
L 71.924259 56.949539 
L 71.97361 57.828153 
L 72.006512 59.312382 
L 72.022964 54.844843 
L 72.088769 60.361872 
L 72.105217 59.772409 
L 72.154571 60.087468 
L 72.171022 58.719849 
L 72.220376 61.434634 
L 72.236827 59.257092 
L 72.286178 62.327164 
L 72.351983 51.920556 
L 72.467139 54.839184 
L 72.51649 52.024391 
L 72.532941 55.437779 
L 72.565844 56.344537 
L 72.582295 54.81686 
L 72.6481 56.322412 
L 72.746805 49.919298 
L 72.763256 53.565656 
L 72.779707 54.426148 
L 72.878412 45.151066 
L 72.894863 46.715985 
L 72.993568 51.408055 
L 73.010019 48.133813 
L 73.02647 47.917383 
L 73.042921 49.807411 
L 73.125175 49.111514 
L 73.207428 45.593288 
L 73.158077 51.30292 
L 73.223879 47.324279 
L 73.355486 53.516206 
L 73.371938 53.410925 
L 73.388389 66.124387 
L 73.40484 52.326899 
L 73.487093 64.928989 
L 73.503545 65.166727 
L 73.519996 64.5903 
L 73.552899 49.964555 
L 73.635152 51.739205 
L 73.717408 49.689461 
L 73.832564 56.831444 
L 73.849015 56.082845 
L 73.881918 57.849914 
L 73.931269 61.642612 
L 73.997074 61.206643 
L 74.062876 56.875769 
L 74.161581 57.842875 
L 74.178032 57.766946 
L 74.194483 55.685933 
L 74.27674 57.9213 
L 74.391895 69.850783 
L 74.408347 68.577796 
L 74.474149 52.583378 
L 74.523503 58.860423 
L 74.539954 59.470856 
L 74.556405 57.920824 
L 74.572853 58.52805 
L 74.770265 47.124231 
L 74.86897 50.586657 
L 74.836071 45.344968 
L 74.901873 49.633486 
L 74.918324 51.4982 
L 74.967678 46.350334 
L 75.000577 49.8774 
L 75.017028 49.636792 
L 75.03348 46.590217 
L 75.082834 53.054344 
L 75.115736 49.357645 
L 75.132184 48.96383 
L 75.148636 49.568537 
L 75.165087 54.587592 
L 75.263792 50.902751 
L 75.280243 49.361587 
L 75.313145 53.348291 
L 75.346048 53.151374 
L 75.41185 49.488235 
L 75.378951 53.689057 
L 75.428301 49.526472 
L 75.57636 64.372118 
L 75.592811 64.525607 
L 75.625713 63.814247 
L 75.675064 61.727395 
L 75.691515 65.019402 
L 75.724418 63.00267 
L 75.740869 63.554973 
L 75.757321 60.649262 
L 75.773772 63.268181 
L 75.872476 57.534144 
L 75.856025 68.444411 
L 75.888928 58.792827 
L 75.95473 61.774881 
L 75.987632 61.347284 
L 76.004084 66.549986 
L 76.053437 51.545565 
L 76.069889 52.800298 
L 76.086337 51.452856 
L 76.119239 54.05687 
L 76.152142 53.730456 
L 76.316652 60.524861 
L 76.366002 57.731298 
L 76.398905 57.30008 
L 76.448259 66.632016 
L 76.514061 58.355449 
L 76.546963 57.809247 
L 76.563415 58.668443 
L 76.777275 68.438169 
L 76.62922 58.032395 
L 76.793726 67.824594 
L 76.941785 62.160016 
L 76.958236 61.788701 
L 77.00759 68.018279 
L 76.991139 61.705961 
L 77.073392 64.577675 
L 77.139197 64.827193 
L 77.188548 62.610383 
L 77.204999 63.697468 
L 77.270804 61.628232 
L 77.287256 63.153989 
L 77.517567 52.759434 
L 77.534018 56.901528 
L 77.632723 53.928081 
L 77.649174 54.488826 
L 77.682077 52.809039 
L 77.698528 52.304096 
L 77.714979 54.975824 
L 77.731431 54.941833 
L 77.912389 59.694445 
L 77.797233 54.934047 
L 77.92884 59.357262 
L 78.027545 50.317334 
L 78.060447 56.154521 
L 78.208506 50.641214 
L 78.224957 51.733372 
L 78.241408 53.933804 
L 78.30721 49.212131 
L 78.323661 50.823041 
L 78.356564 44.805416 
L 78.47172 47.457861 
L 78.537525 44.827622 
L 78.570424 47.596702 
L 78.636229 51.217782 
L 78.734934 50.202948 
L 78.751385 50.250288 
L 78.800739 47.337569 
L 78.833639 47.416526 
L 78.915895 61.445331 
L 78.948798 59.370047 
L 78.965249 58.771729 
L 78.981697 50.544559 
L 79.080405 56.412995 
L 79.096856 53.045535 
L 79.179109 55.066325 
L 79.19556 55.865094 
L 79.212012 50.73123 
L 79.310716 53.256441 
L 79.343619 52.473817 
L 79.39297 53.786222 
L 79.458775 49.998828 
L 79.475226 51.292454 
L 79.491677 49.986499 
L 79.557479 50.86231 
L 79.573931 49.115451 
L 79.623285 54.645964 
L 79.639736 53.883697 
L 79.656184 53.525801 
L 79.689087 54.553663 
L 79.705538 54.131992 
L 79.73844 57.249629 
L 79.787794 52.110095 
L 79.90295 49.211742 
L 79.919401 49.513698 
L 80.001655 49.38638 
L 80.034557 53.720991 
L 80.051009 53.495121 
L 80.231966 42.725485 
L 80.248418 47.526835 
L 80.347122 47.300712 
L 80.363573 47.663444 
L 80.396476 44.222155 
L 80.462281 48.393583 
L 80.478732 48.428467 
L 80.577437 43.332207 
L 80.593888 44.122538 
L 80.61034 46.392125 
L 80.626788 43.962317 
L 80.709044 45.918586 
L 80.774846 38.186606 
L 80.857103 40.098324 
L 80.873554 38.832506 
L 80.906453 44.276509 
L 81.070963 49.010671 
L 80.939356 41.870669 
L 81.087414 48.655382 
L 81.136768 49.656377 
L 81.15322 48.516871 
L 81.169668 49.122772 
L 81.301278 44.012996 
L 81.317726 43.734165 
L 81.350629 52.731076 
L 81.432885 49.793767 
L 81.449333 49.804289 
L 81.465784 51.092829 
L 81.515138 48.504393 
L 81.53159 45.152134 
L 81.597392 49.719157 
L 81.630294 46.906976 
L 81.646745 47.281112 
L 81.663197 52.164731 
L 81.728999 42.107999 
L 81.74545 42.79108 
L 81.811255 48.898357 
L 81.860606 47.665439 
L 81.975765 51.834468 
L 82.008664 48.685529 
L 82.041567 48.94161 
L 82.156723 53.964898 
L 82.173174 52.026488 
L 82.387038 57.751952 
L 82.419937 55.107073 
L 82.45284 60.352511 
L 82.551544 56.131529 
L 82.617349 50.419464 
L 82.683151 51.027302 
L 82.732505 56.276704 
L 82.79831 52.594002 
L 82.814762 50.975473 
L 82.847661 53.0847 
L 82.913466 52.008537 
L 82.929917 53.293087 
L 82.979268 51.279266 
L 83.045073 45.331286 
L 83.077976 50.918735 
L 83.209583 53.733965 
L 83.110875 49.364873 
L 83.226034 53.489666 
L 83.308287 42.893647 
L 83.390541 44.50753 
L 83.423443 45.35808 
L 83.456346 43.827179 
L 83.505697 39.699772 
L 83.555051 45.750646 
L 83.670206 42.486334 
L 83.703109 46.41468 
L 83.752463 43.307704 
L 83.768914 39.170132 
L 83.867619 42.092263 
L 83.982775 32.532342 
L 83.933421 44.42625 
L 84.015677 37.247962 
L 84.147284 48.71651 
L 84.26244 25.477607 
L 84.278891 27.682573 
L 84.361145 47.25333 
L 84.410498 44.711255 
L 84.492752 38.420008 
L 84.525654 42.637651 
L 84.542106 45.408224 
L 84.591459 41.418273 
L 84.624359 41.896938 
L 84.64081 42.281341 
L 84.657261 40.140383 
L 84.788869 49.87419 
L 84.854674 45.579576 
L 84.936927 36.712437 
L 84.96983 40.913513 
L 84.986281 42.101267 
L 85.002732 42.071551 
L 85.117888 34.358167 
L 85.167239 35.717864 
L 85.18369 34.871246 
L 85.216593 32.86356 
L 85.249495 39.093648 
L 85.282398 51.495881 
L 85.315297 38.751043 
L 85.364651 41.91831 
L 85.479807 48.313455 
L 85.430453 38.661308 
L 85.529161 47.93457 
L 85.545612 48.834703 
L 85.562063 41.689964 
L 85.627865 54.34371 
L 85.660768 60.053579 
L 85.710119 48.228909 
L 85.743021 57.699962 
L 85.825278 48.850225 
L 85.874628 51.441051 
L 85.907531 57.18898 
L 85.989784 53.645877 
L 86.022687 54.123561 
L 86.055589 53.048773 
L 86.072041 56.187024 
L 86.121391 52.929216 
L 86.137843 53.819156 
L 86.154294 44.213952 
L 86.220099 60.002322 
L 86.23655 59.966511 
L 86.302352 48.158583 
L 86.401057 49.264932 
L 86.450411 52.767811 
L 86.499765 48.218843 
L 86.631372 41.613243 
L 86.549115 50.304754 
L 86.647823 42.17329 
L 86.713625 49.775458 
L 86.762979 44.592482 
L 86.828781 42.437112 
L 86.911037 39.651471 
L 86.960388 40.366292 
L 87.026193 47.023498 
L 87.059096 43.145812 
L 87.075544 39.873959 
L 87.1578 44.103472 
L 87.174251 43.133139 
L 87.190703 46.020079 
L 87.207154 45.97835 
L 87.355209 55.285062 
L 87.371661 53.693887 
L 87.453917 42.78197 
L 87.486817 43.501141 
L 87.766482 55.037902 
L 87.799385 52.087602 
L 87.815836 52.072633 
L 87.832287 49.933543 
L 87.898092 55.653903 
L 88.062599 45.644035 
L 88.194206 54.275497 
L 88.210657 57.633465 
L 88.292914 52.790542 
L 88.325813 50.306065 
L 88.375167 53.194501 
L 88.40807 51.431813 
L 88.440972 53.86897 
L 88.490323 50.359438 
L 88.589027 47.048795 
L 88.523225 50.584352 
L 88.605479 47.714002 
L 88.638381 54.134396 
L 88.720638 52.277322 
L 88.78644 49.961343 
L 88.802891 50.606645 
L 88.819342 54.955639 
L 88.901596 48.59462 
L 88.934498 52.446231 
L 88.95095 48.524375 
L 89.033203 50.479581 
L 89.049654 50.849693 
L 89.082557 49.524813 
L 89.115459 47.550982 
L 89.148359 52.56687 
L 89.16481 52.456751 
L 89.247066 46.177417 
L 89.296417 46.744808 
L 89.395125 40.582478 
L 89.444475 43.186929 
L 89.526732 48.389029 
L 89.559631 44.651223 
L 89.608985 39.884127 
L 89.691238 41.987647 
L 89.773495 46.576203 
L 89.822845 38.38722 
L 89.905102 38.692273 
L 89.970904 45.196202 
L 90.020258 43.405568 
L 90.05316 39.286172 
L 90.102511 45.140625 
L 90.151865 41.391037 
L 90.184768 46.059644 
L 90.21767 44.484828 
L 90.25057 41.022182 
L 90.283472 47.860738 
L 90.316375 41.703811 
L 90.382177 51.14995 
L 90.447982 50.885181 
L 90.59604 46.331219 
L 90.661842 48.253587 
L 90.678294 46.926764 
L 90.694745 44.421499 
L 90.727647 49.724987 
L 90.777001 48.218488 
L 90.809901 46.935148 
L 90.957959 52.148029 
L 91.007313 46.183538 
L 91.089566 47.945118 
L 91.188274 66.237173 
L 91.221173 64.773476 
L 91.286978 63.991821 
L 91.369232 68.795744 
L 91.583095 49.620129 
L 91.632446 50.721843 
L 91.764056 69.059893 
L 91.879212 65.240458 
L 91.961465 52.802473 
L 91.994368 56.519349 
L 92.076621 59.622341 
L 92.093069 53.870213 
L 92.109524 58.117687 
L 92.125972 52.504905 
L 92.191777 54.015039 
L 92.257582 51.934161 
L 92.27403 54.834597 
L 92.405641 67.603743 
L 92.323387 53.978013 
L 92.438543 65.366682 
L 92.487894 58.117837 
L 92.553699 59.059504 
L 92.6524 64.58217 
L 92.619504 58.304412 
L 92.685303 63.848793 
L 92.701757 54.494631 
L 92.800459 60.377594 
L 92.816913 56.230125 
L 92.882719 64.646218 
L 92.899167 64.457256 
L 92.964972 55.03148 
L 93.014323 55.42 
L 93.145933 65.891834 
L 93.178835 59.337913 
L 93.261089 61.174106 
L 93.277537 61.119603 
L 93.310439 62.055023 
L 93.326888 50.565082 
L 93.425595 52.542289 
L 93.44205 52.588687 
L 93.540751 51.405442 
L 93.507849 53.714185 
L 93.557206 52.308323 
L 93.655907 59.569365 
L 93.721712 56.922531 
L 93.73816 56.851393 
L 93.754615 57.134854 
L 93.787517 59.366877 
L 93.836868 56.185372 
L 93.853322 57.01078 
L 93.984926 49.704086 
L 94.017829 51.077657 
L 94.034277 54.723108 
L 94.100082 47.9711 
L 94.149433 44.296866 
L 94.165887 52.284747 
L 94.248141 46.903186 
L 94.264595 39.339571 
L 94.281043 47.508715 
L 94.346848 46.295168 
L 94.363297 48.244219 
L 94.396199 44.974404 
L 94.429102 46.065968 
L 94.44555 43.273237 
L 94.494907 52.901064 
L 94.560712 56.120166 
L 94.527809 49.666395 
L 94.610063 54.760663 
L 94.725218 48.85871 
L 94.741667 50.954848 
L 94.840374 57.248609 
L 94.906179 57.223822 
L 94.95553 50.111185 
L 95.037783 50.823872 
L 95.070686 54.244093 
L 95.08714 51.06672 
L 95.103589 55.920671 
L 95.185842 55.0512 
L 95.202296 49.317164 
L 95.268095 59.70242 
L 95.28455 58.99139 
L 95.317452 57.185412 
L 95.383257 56.983259 
L 95.416154 67.779613 
L 95.531309 45.722576 
L 95.547764 61.967343 
L 95.630017 42.252383 
L 95.646472 49.996061 
L 95.66292 42.266493 
L 95.728725 55.213569 
L 95.745173 49.817632 
L 95.810978 48.253102 
L 95.827426 47.464283 
L 95.876783 49.505489 
L 95.942582 53.666006 
L 95.991939 51.801151 
L 96.156446 42.529836 
L 96.1729 44.091349 
L 96.189348 45.666796 
L 96.255153 42.096603 
L 96.271602 41.480757 
L 96.304504 43.657896 
L 96.337407 46.2787 
L 96.403212 43.757701 
L 96.485465 41.593999 
L 96.452562 45.356938 
L 96.501913 42.392165 
L 96.518368 44.118796 
L 96.567718 39.196599 
L 96.600621 42.918184 
L 96.633523 37.211539 
L 96.715777 41.454857 
L 96.732231 42.778267 
L 96.748679 40.333214 
L 96.79803 41.339845 
L 96.88029 38.368979 
L 96.863835 41.525403 
L 96.913186 40.2132 
L 96.92964 40.260923 
L 97.061244 51.306919 
L 97.077699 51.274999 
L 97.094147 44.925458 
L 97.192855 46.96049 
L 97.225757 46.032749 
L 97.242205 47.505012 
L 97.275108 47.114038 
L 97.308011 44.56513 
L 97.357361 50.725746 
L 97.373816 45.429736 
L 97.456069 51.662665 
L 97.488971 48.708036 
L 97.571225 49.185518 
L 97.587673 51.868761 
L 97.63703 44.200093 
L 97.653478 44.055216 
L 97.686381 42.432981 
L 97.702835 45.416782 
L 97.768634 43.257106 
L 97.88379 47.247096 
L 97.916692 46.993238 
L 97.933147 46.812485 
L 97.949595 47.825558 
L 98.081205 52.864247 
L 98.212809 56.964683 
L 98.130556 52.310386 
L 98.245712 54.874748 
L 98.262166 45.903146 
L 98.278614 54.958226 
L 98.360868 51.043888 
L 98.410218 56.091465 
L 98.443121 51.939166 
L 98.459575 44.924478 
L 98.541829 52.232141 
L 98.607634 45.794337 
L 98.574731 52.30223 
L 98.673439 47.601202 
L 98.706335 55.09661 
L 98.788595 53.760719 
L 98.887296 41.242452 
L 98.953101 43.485374 
L 99.018906 46.283423 
L 98.986004 42.261401 
L 99.068257 44.183853 
L 99.216315 38.174835 
L 99.15051 44.373251 
L 99.232764 39.098484 
L 99.249218 39.434439 
L 99.265666 47.992833 
L 99.364374 44.60117 
L 99.495984 40.65123 
L 99.61114 43.832514 
L 99.528881 38.393622 
L 99.627588 42.866764 
L 99.726296 39.528902 
L 99.709842 43.037586 
L 99.775647 41.556779 
L 99.923705 48.19252 
L 99.940153 47.80355 
L 99.973056 49.443293 
L 100.038861 47.862359 
L 100.055315 47.76997 
L 100.071764 48.146034 
L 100.23627 53.200253 
L 100.252725 51.272283 
L 100.351426 51.978463 
L 100.36788 51.7801 
L 100.400783 62.219651 
L 100.466588 57.242353 
L 100.532387 48.675869 
L 100.581744 51.289814 
L 100.598192 49.957071 
L 100.631095 53.355742 
L 100.680445 52.182555 
L 100.6969 55.107065 
L 100.74625 49.530925 
L 100.779153 50.777507 
L 100.960114 58.817651 
L 100.993017 60.385938 
L 101.025913 56.356947 
L 101.108173 59.876058 
L 101.058816 56.259573 
L 101.157523 57.642939 
L 101.190426 53.211401 
L 101.239777 56.208176 
L 101.256231 61.294181 
L 101.272679 55.299958 
L 101.338484 55.893237 
L 101.354932 55.769183 
L 101.552348 61.864232 
L 101.585244 60.916001 
L 101.618147 61.057595 
L 101.651049 59.026824 
L 101.667504 63.077269 
L 101.733302 53.333006 
L 101.782659 54.506921 
L 101.799108 53.112009 
L 101.947166 49.730409 
L 102.111679 59.554824 
L 102.161029 59.907541 
L 102.358439 52.348863 
L 102.424244 59.899298 
L 102.473595 53.597421 
L 102.522952 53.800028 
L 102.5394 53.000884 
L 102.58875 58.55129 
L 102.638107 53.871078 
L 102.687458 39.456676 
L 102.769711 46.600686 
L 102.786166 46.385446 
L 102.802614 49.880344 
L 102.884867 46.036218 
L 103.000023 50.73602 
L 102.934224 44.391749 
L 103.016478 50.549623 
L 103.082276 43.914079 
L 103.131633 46.836342 
L 103.279692 54.758352 
L 103.345497 51.407632 
L 103.378393 54.400234 
L 103.444198 57.516521 
L 103.460653 57.291319 
L 103.477101 53.723476 
L 103.575809 55.02718 
L 103.707413 50.082805 
L 103.723867 51.059785 
L 103.740315 57.964503 
L 103.839023 54.698551 
L 103.855471 53.508202 
L 103.871926 59.828067 
L 103.888374 59.54136 
L 103.970627 52.743275 
L 103.987081 57.482062 
L 104.036432 64.315231 
L 104.102237 59.72785 
L 104.118685 59.647664 
L 104.151588 57.860747 
L 104.168042 61.631639 
L 104.18449 55.893184 
L 104.283198 57.807233 
L 104.348997 59.692901 
L 104.431257 62.167633 
L 104.464153 60.48886 
L 104.480607 60.580477 
L 104.497055 62.003785 
L 104.579315 59.694854 
L 104.678016 54.429245 
L 104.710919 56.663262 
L 104.727367 59.222868 
L 104.793172 53.181628 
L 104.809627 53.619909 
L 104.826075 58.882071 
L 104.908328 57.07352 
L 105.007036 47.340544 
L 105.023484 52.713742 
L 105.072841 54.199244 
L 105.056387 52.428635 
L 105.105744 53.363052 
L 105.155094 49.645666 
L 105.171542 49.944756 
L 105.204445 58.068237 
L 105.27025 53.223541 
L 105.368958 47.69161 
L 105.40186 47.760986 
L 105.434757 55.833924 
L 105.517016 54.190624 
L 105.549919 55.943505 
L 105.632172 50.063978 
L 105.64862 54.414794 
L 105.730874 51.433673 
L 105.763776 49.750795 
L 105.780231 51.361501 
L 105.862484 57.278607 
L 105.895386 56.565057 
L 105.961191 52.636591 
L 105.994088 58.40827 
L 106.109244 63.827004 
L 106.191503 59.719185 
L 106.158601 64.605086 
L 106.224406 61.681162 
L 106.273756 63.746857 
L 106.290205 61.624774 
L 106.306659 62.056916 
L 106.323107 60.091425 
L 106.372464 63.979681 
L 106.405361 63.44064 
L 106.421815 63.519519 
L 106.586322 52.036914 
L 106.668575 54.670881 
L 106.717932 52.886444 
L 106.767283 49.680229 
L 106.816633 52.000252 
L 106.981146 56.446022 
L 106.997594 56.606175 
L 107.096302 61.056507 
L 107.11275 59.430783 
L 107.178555 53.460353 
L 107.227906 57.034967 
L 107.326614 66.496763 
L 107.359516 66.081097 
L 107.474672 58.5748 
L 107.49112 58.849802 
L 107.507575 58.797711 
L 107.524023 60.159874 
L 107.57338 55.845286 
L 107.589828 56.287091 
L 107.639179 62.612772 
L 107.688536 59.798196 
L 107.82014 50.821789 
L 107.853042 59.698281 
L 107.918847 57.378184 
L 107.935296 51.977508 
L 108.001101 60.488968 
L 108.017555 60.110714 
L 108.034003 59.8516 
L 108.066906 60.962512 
L 108.132711 62.534184 
L 108.116256 60.465305 
L 108.165607 61.294979 
L 108.313666 55.138877 
L 108.395925 58.833951 
L 108.412373 57.674431 
L 108.428828 53.953209 
L 108.445276 61.238052 
L 108.494627 60.403069 
L 108.511081 61.242118 
L 108.527529 59.799464 
L 108.609782 60.041154 
L 108.642685 51.661422 
L 108.724938 64.414453 
L 108.757841 54.316829 
L 108.807198 58.690688 
L 108.856548 53.906399 
L 108.872997 54.474429 
L 108.889451 53.753065 
L 109.004607 45.124655 
L 109.037509 45.853146 
L 109.070412 43.481167 
L 109.08686 47.285306 
L 109.202016 53.834878 
L 109.169114 44.865395 
L 109.218471 51.543283 
L 109.234919 50.609455 
L 109.284269 53.563822 
L 109.317172 52.136035 
L 109.333626 48.948357 
L 109.399425 56.22463 
L 109.41588 50.023029 
L 109.531036 56.509937 
L 109.547484 55.644063 
L 109.563938 55.800057 
L 109.580386 60.88699 
L 109.662646 57.490358 
L 109.744899 55.233653 
L 109.761347 57.266317 
L 109.810698 58.499683 
L 109.827152 57.177792 
L 109.958756 47.998847 
L 109.991659 48.815826 
L 110.008113 48.744231 
L 110.090367 51.870091 
L 110.106815 49.755087 
L 110.238425 44.687068 
L 110.337133 52.356765 
L 110.370029 50.795528 
L 110.419386 48.551042 
L 110.402932 52.583742 
L 110.485191 49.954779 
L 110.534542 49.385439 
L 110.583893 52.403284 
L 110.600347 53.537431 
L 110.63325 48.264315 
L 110.649698 47.125803 
L 110.6826 49.383317 
L 110.731951 49.096697 
L 110.748406 50.098385 
L 110.781302 47.238684 
L 110.814204 48.174877 
L 110.863561 45.379891 
L 110.912912 49.06832 
L 111.044522 59.787989 
L 111.06097 57.805928 
L 111.110321 60.222048 
L 111.225477 41.855922 
L 111.324185 44.44023 
L 111.340633 43.61644 
L 111.422892 37.392058 
L 111.455795 39.263938 
L 111.488691 40.006313 
L 111.554496 38.051642 
L 111.620301 46.673859 
L 111.653204 45.502748 
L 111.686107 47.58096 
L 111.735457 46.323292 
L 111.751906 46.065041 
L 111.850613 55.412383 
L 111.883516 54.83877 
L 111.982224 50.452545 
L 112.01512 52.523354 
L 112.031574 54.02863 
L 112.064477 51.045926 
L 112.113828 51.860281 
L 112.327691 44.395624 
L 112.344139 44.751908 
L 112.377042 51.31805 
L 112.459295 48.210251 
L 112.508652 43.563182 
L 112.5251 47.473428 
L 112.558003 53.139987 
L 112.623808 48.687183 
L 112.640256 45.926406 
L 112.706061 49.234915 
L 112.85412 59.221504 
L 112.887022 59.636811 
L 112.90347 59.081851 
L 112.919925 59.502829 
L 112.936373 61.483366 
L 113.018626 59.190734 
L 113.199587 46.894317 
L 113.216042 47.707593 
L 113.248938 45.840152 
L 113.3641 41.542125 
L 113.380548 42.630248 
L 113.495704 36.736148 
L 113.413451 48.032319 
L 113.512159 37.033609 
L 113.627314 56.616421 
L 113.643762 54.071752 
L 113.660211 54.12978 
L 113.775373 55.411024 
L 113.726016 53.635388 
L 113.791821 55.259176 
L 113.906977 34.393017 
L 113.956327 39.342051 
L 113.972782 43.636927 
L 113.98923 38.516017 
L 114.071483 43.077368 
L 114.12084 43.885315 
L 114.203094 41.192742 
L 114.318249 52.755807 
L 114.334704 51.916363 
L 114.351152 51.479367 
L 114.3676 52.652493 
L 114.400503 52.545391 
L 114.416957 53.646542 
L 114.466308 50.454549 
L 114.647269 45.336736 
L 114.680172 44.084799 
L 114.69662 46.294698 
L 114.811775 49.797723 
L 114.745977 45.278465 
L 114.82823 48.194312 
L 114.959834 54.139948 
L 114.861132 46.851701 
L 114.992736 52.867358 
L 115.025639 49.703985 
L 115.058542 58.416293 
L 115.07499 60.941572 
L 115.124347 58.395048 
L 115.272405 36.728683 
L 115.288853 37.522123 
L 115.338204 53.528179 
L 115.404009 49.251645 
L 115.420464 50.703568 
L 115.469814 46.080841 
L 115.486262 46.024794 
L 115.519165 31.295033 
L 115.601418 37.536326 
L 115.617873 43.969661 
L 115.667223 33.537079 
L 115.700126 43.436467 
L 115.782379 36.441674 
L 115.815282 38.825365 
L 115.979795 57.349342 
L 115.996243 56.914891 
L 116.012691 56.933597 
L 116.111399 39.126582 
L 116.160749 42.483511 
L 116.34171 38.105647 
L 116.374613 58.314633 
L 116.456866 40.749471 
L 116.522671 50.17348 
L 116.555574 39.458807 
L 116.572022 41.783494 
L 116.604925 41.188957 
L 116.621379 42.051072 
L 116.637827 41.986599 
L 116.654282 40.666937 
L 116.703632 56.731726 
L 116.769437 53.694614 
L 116.785886 57.743176 
L 116.818788 38.686657 
L 116.851691 52.150421 
L 116.933944 40.887889 
L 116.983295 44.345209 
L 117.016197 48.716172 
L 117.065554 47.81268 
L 117.114905 39.877609 
L 117.197158 40.361191 
L 117.361671 46.549973 
L 117.42747 45.697219 
L 117.476827 44.154545 
L 117.542626 45.119662 
L 117.55908 44.934952 
L 117.591983 41.25063 
L 117.624885 48.837969 
L 117.641334 50.860382 
L 117.657782 42.257698 
L 117.690684 44.054424 
L 117.707139 42.648649 
L 117.838743 56.859334 
L 117.986801 39.749693 
L 117.8881 58.696172 
L 118.036158 45.20241 
L 118.217113 58.376646 
L 118.250015 57.990113 
L 118.299372 54.024553 
L 118.365171 55.759494 
L 118.51323 63.272667 
L 118.579035 58.181127 
L 118.628386 62.906767 
L 118.64484 62.786827 
L 118.661288 63.752617 
L 118.710645 60.998062 
L 118.973859 47.822013 
L 119.02321 49.501679 
L 119.039658 59.971262 
L 119.056113 49.136425 
L 119.121918 52.308644 
L 119.171269 50.669439 
L 119.187717 53.893216 
L 119.220619 55.804033 
L 119.368678 59.225469 
L 119.418035 53.169939 
L 119.450931 60.100662 
L 119.467385 58.816645 
L 119.516736 57.731766 
L 119.681249 49.241875 
L 119.714145 49.319495 
L 119.747048 48.649766 
L 119.763502 49.069018 
L 119.812853 56.945165 
L 119.796405 35.779965 
L 119.862204 49.275475 
L 119.911561 35.537464 
L 119.960911 53.482553 
L 120.010262 50.286502 
L 120.092522 62.276719 
L 120.076067 38.004356 
L 120.10897 62.014488 
L 120.207678 46.50422 
L 120.224126 51.060343 
L 120.24058 56.791992 
L 120.289931 39.659334 
L 120.306379 42.832223 
L 120.322833 36.423822 
L 120.388632 45.858728 
L 120.437989 55.816455 
L 120.48734 48.161466 
L 120.520242 46.585294 
L 120.536691 50.319718 
L 120.586048 39.465319 
L 120.602496 31.343655 
L 120.61895 40.006747 
L 120.684749 36.306999 
L 120.915067 53.679622 
L 120.947963 49.910886 
L 121.046671 32.127537 
L 121.128924 40.12186 
L 121.194729 39.592468 
L 121.24408 48.497683 
L 121.32634 41.543542 
L 121.342788 41.67181 
L 121.474398 56.516441 
L 121.523749 50.255433 
L 121.5731 50.881137 
L 121.589554 58.224919 
L 121.638905 45.161244 
L 121.671807 53.719708 
L 121.754061 46.210794 
L 121.70471 59.517959 
L 121.786963 50.504118 
L 121.885671 61.843894 
L 121.852768 48.535704 
L 121.935022 54.803193 
L 121.95147 53.581068 
L 122.000827 56.126994 
L 122.033729 55.065389 
L 122.231138 59.573395 
L 122.264041 57.930949 
L 122.280489 57.847685 
L 122.32984 60.477391 
L 122.362742 55.680711 
L 122.395645 55.751223 
L 122.477898 51.585353 
L 122.560158 46.977702 
L 122.593054 47.401946 
L 122.642411 50.298851 
L 122.675314 47.485058 
L 122.691762 46.100615 
L 122.741113 48.797494 
L 122.757567 48.440539 
L 122.856275 53.689736 
L 122.79047 48.348015 
L 122.872723 49.488108 
L 122.889171 49.794775 
L 122.922074 54.566186 
L 122.987879 47.936721 
L 123.004327 50.527028 
L 123.086586 47.091632 
L 123.103035 46.704031 
L 123.119489 47.938178 
L 123.152385 46.843551 
L 123.201742 50.215956 
L 123.267547 47.995623 
L 123.349801 40.43845 
L 123.382703 42.136633 
L 123.399151 50.652097 
L 123.448502 36.136317 
L 123.497859 49.867142 
L 123.629463 35.032845 
L 123.695268 41.844673 
L 123.711716 41.319598 
L 123.728171 32.592791 
L 123.777521 41.471869 
L 123.810424 35.295717 
L 123.958482 50.917458 
L 124.007833 39.515767 
L 124.073638 46.116317 
L 124.090093 46.182718 
L 124.106541 52.779684 
L 124.122989 43.727642 
L 124.205249 48.855531 
L 124.287502 37.767798 
L 124.320404 39.10075 
L 124.336853 54.750022 
L 124.369755 34.868275 
L 124.43556 51.493934 
L 124.468463 52.090068 
L 124.517814 53.743109 
L 124.534262 52.561919 
L 124.550716 45.903907 
L 124.600067 54.893843 
L 124.632969 54.821521 
L 124.781028 42.126401 
L 124.797476 48.605314 
L 124.846833 41.789642 
L 124.896184 46.312434 
L 124.945534 46.136821 
L 125.077145 55.74614 
L 125.1923 50.913521 
L 125.126495 57.123312 
L 125.208749 51.047498 
L 125.241651 52.674141 
L 125.258106 48.245569 
L 125.340359 50.810368 
L 125.307456 47.731631 
L 125.356807 48.236656 
L 125.422612 49.68733 
L 125.488417 46.742342 
L 125.620021 54.850425 
L 125.636476 53.708862 
L 125.685827 51.4114 
L 125.784534 51.508142 
L 125.932593 60.054492 
L 126.014846 58.383029 
L 126.031294 58.73598 
L 126.047748 55.133027 
L 126.130002 58.869815 
L 126.179352 63.172895 
L 126.245158 60.263845 
L 126.261612 59.493363 
L 126.294515 61.970443 
L 126.310963 61.61982 
L 126.376768 63.534629 
L 126.426119 62.382828 
L 126.508372 61.691099 
L 126.491924 63.143193 
L 126.524826 62.291217 
L 126.541274 62.719493 
L 126.557729 61.619668 
L 126.623528 62.376457 
L 126.886742 51.061008 
L 126.903197 61.53624 
L 126.919645 45.976124 
L 127.001898 54.555813 
L 127.0348 55.192668 
L 127.067703 53.756123 
L 127.215761 46.508069 
L 127.36382 61.561698 
L 127.396722 60.983078 
L 127.413171 62.383471 
L 127.478976 60.912958 
L 127.49543 61.305913 
L 127.511878 60.81739 
L 127.676385 45.702903 
L 127.791547 49.457476 
L 127.8738 39.569712 
L 127.923151 40.924047 
L 128.054761 54.306543 
L 128.087658 53.644808 
L 128.268619 38.056157 
L 128.317976 39.904242 
L 128.433131 43.541965 
L 128.44958 43.428904 
L 128.482482 44.053954 
L 128.49893 42.774155 
L 128.515385 41.204761 
L 128.531833 45.168298 
L 128.58119 43.961968 
L 128.614092 45.095246 
L 128.630541 56.658218 
L 128.729248 50.109288 
L 128.844404 57.477654 
L 128.877307 57.106711 
L 129.025365 49.172034 
L 129.041813 50.500195 
L 129.156969 53.156125 
L 129.107618 49.711745 
L 129.189872 51.848122 
L 129.305027 42.657605 
L 129.321476 45.089951 
L 129.387281 42.726131 
L 129.535339 52.2598 
L 129.782105 46.170138 
L 129.568242 53.159772 
L 129.798554 47.022295 
L 129.847911 51.95001 
L 129.897261 48.588417 
L 129.913709 47.706531 
L 129.979514 50.105546 
L 129.995969 50.124903 
L 130.078222 43.940951 
L 130.127573 46.875507 
L 130.407242 53.968384 
L 130.176924 46.482363 
L 130.42369 53.733824 
L 130.571748 48.620458 
L 130.588196 47.823465 
L 130.637553 48.861322 
L 130.670456 48.536932 
L 130.769157 54.961021 
L 130.785612 50.625819 
L 130.818514 49.345409 
L 130.867865 52.057218 
L 130.900768 49.123164 
L 130.950118 44.156803 
L 131.015923 47.266343 
L 131.098177 49.380643 
L 131.081729 46.824231 
L 131.114625 48.867463 
L 131.147527 46.219783 
L 131.196884 48.633903 
L 131.213333 51.902577 
L 131.262683 45.052759 
L 131.295586 46.265103 
L 131.394294 52.141048 
L 131.460099 51.312623 
L 131.542352 51.915187 
L 131.591703 49.075165 
L 131.706858 56.788836 
L 131.723313 56.114389 
L 131.739761 55.266863 
L 131.789118 58.153296 
L 131.805566 55.895509 
L 131.838469 58.868767 
L 131.93717 58.207543 
L 131.986527 51.27649 
L 132.052332 55.433061 
L 132.282644 68.256934 
L 132.315547 66.642288 
L 132.348443 65.253364 
L 132.414248 67.033834 
L 132.430703 66.917439 
L 132.463605 72.869657 
L 132.545858 68.002422 
L 132.77617 59.416065 
L 132.611664 68.109833 
L 132.874878 60.92554 
L 132.891326 61.66761 
L 132.907774 54.336628 
L 132.990034 60.638069 
L 133.055832 63.067445 
L 133.072287 59.602843 
L 133.105189 53.915349 
L 133.187443 56.627944 
L 133.203891 55.199394 
L 133.220345 62.051241 
L 133.236793 61.804518 
L 133.253248 61.91406 
L 133.335501 68.789192 
L 133.368404 63.342193 
L 133.434209 66.970784 
L 133.48356 65.68635 
L 133.565813 58.878726 
L 133.631618 59.447635 
L 133.648066 59.703119 
L 133.680969 63.139451 
L 133.730319 58.528453 
L 133.746774 59.262368 
L 133.763222 59.196116 
L 133.779676 58.588087 
L 133.796125 49.916128 
L 133.894832 52.214108 
L 133.91128 52.725243 
L 133.927735 52.706156 
L 133.944183 60.243206 
L 133.993534 50.846292 
L 134.026436 51.130802 
L 134.042891 51.230607 
L 134.223852 45.670654 
L 134.2403 45.822536 
L 134.355456 48.087197 
L 134.404806 46.238306 
L 134.437709 49.510776 
L 134.470611 50.085242 
L 134.487066 49.624133 
L 134.552865 44.23691 
L 134.569319 55.36081 
L 134.651572 51.882876 
L 134.733826 52.374462 
L 134.783183 43.721374 
L 134.881884 50.508305 
L 134.947689 47.906049 
L 134.964138 48.107132 
L 134.99704 47.540877 
L 135.112196 38.33173 
L 135.194456 40.904544 
L 135.227352 39.715198 
L 135.260254 41.301974 
L 135.358962 51.853636 
L 135.293157 41.130069 
L 135.391865 47.11707 
L 135.424767 46.489949 
L 135.589274 37.960739 
L 135.622176 41.160755 
L 135.671527 46.573622 
L 135.737332 43.018601 
L 135.868942 48.328346 
L 135.885391 48.042982 
L 136.000546 44.350065 
L 135.934741 52.58116 
L 136.017001 45.017604 
L 136.230858 53.095651 
L 136.263761 52.64159 
L 136.329566 47.243757 
L 136.395371 48.718035 
L 136.411819 52.851977 
L 136.444722 47.906035 
L 136.494073 48.833742 
L 136.59278 54.294792 
L 136.526975 47.245887 
L 136.609228 51.997028 
L 136.740839 39.494773 
L 136.806644 42.747945 
L 136.823092 35.411822 
L 136.839546 35.740775 
L 136.888897 41.214322 
L 136.954702 37.573268 
L 136.97115 37.626015 
L 136.987605 36.784111 
L 137.004053 40.751754 
L 137.036955 38.534797 
L 137.201462 45.978181 
L 137.069858 38.094051 
L 137.217916 45.64503 
L 137.234365 41.592939 
L 137.30017 50.853456 
L 137.316618 50.929773 
L 137.34952 44.86524 
L 137.431774 46.742026 
L 137.497579 48.215338 
L 137.481131 46.525014 
L 137.514033 48.184424 
L 137.530481 44.488438 
L 137.612735 47.635193 
L 137.662092 52.734286 
L 137.711442 46.827809 
L 137.777248 42.411037 
L 137.81015 48.863904 
L 137.958209 43.16848 
L 137.991105 41.467997 
L 138.007559 46.131306 
L 138.05691 41.601639 
L 138.172066 47.103222 
L 138.18852 43.750949 
L 138.287222 44.741064 
L 138.303676 43.674423 
L 138.336579 52.866121 
L 138.418832 51.875701 
L 138.43528 51.619121 
L 138.56689 58.44496 
L 138.599793 57.997288 
L 138.698494 60.924748 
L 138.649144 57.467219 
L 138.764299 60.536784 
L 138.81365 65.135667 
L 138.830105 51.612135 
L 138.846553 66.177358 
L 138.863007 51.091349 
L 138.945261 59.399349 
L 139.043968 46.763567 
L 139.060416 47.903491 
L 139.093319 49.496621 
L 139.109767 44.964352 
L 139.14267 58.645916 
L 139.159124 58.365197 
L 139.175572 57.541528 
L 139.224923 42.57389 
L 139.307183 45.637706 
L 139.323631 46.885906 
L 139.356533 45.045328 
L 139.372981 46.083287 
L 139.438786 39.985908 
L 139.488137 41.587334 
L 139.784254 58.22653 
L 139.800708 55.798389 
L 139.817157 54.987071 
L 139.833611 56.262132 
L 139.866514 64.999667 
L 139.932312 59.091061 
L 139.948767 56.687244 
L 139.998118 63.350221 
L 140.014572 63.262508 
L 140.113273 57.227181 
L 140.16263 57.896476 
L 140.228429 59.624578 
L 140.195527 57.266909 
L 140.244884 58.9841 
L 140.261332 56.792584 
L 140.310683 60.416877 
L 140.327137 60.012379 
L 140.508098 67.086077 
L 140.524546 65.505751 
L 140.541001 64.070678 
L 140.590351 67.09344 
L 140.606799 66.407243 
L 140.721955 70.100704 
L 140.754858 69.526734 
L 140.771312 69.631981 
L 140.837117 74.608724 
L 140.919371 73.655418 
L 140.968721 75.474471 
L 140.985176 73.251379 
L 141.001624 73.826668 
L 141.100332 78.402988 
L 141.034527 72.58471 
L 141.11678 77.846033 
L 141.133228 76.083568 
L 141.215487 78.439532 
L 141.231936 77.208243 
L 141.264838 76.758305 
L 141.281286 77.661185 
L 141.297741 77.337215 
L 141.314189 79.020843 
L 141.379994 75.463447 
L 141.429345 75.580378 
L 141.462247 72.76461 
L 141.478702 70.419616 
L 141.544501 72.814488 
L 141.560955 72.409559 
L 141.676111 74.429219 
L 141.610306 72.125738 
L 141.692559 73.211349 
L 141.824169 67.513606 
L 141.857072 68.28313 
L 142.00513 71.337184 
L 142.054481 64.917883 
L 142.136734 67.064249 
L 142.153189 67.813809 
L 142.169637 67.597166 
L 142.301247 58.203626 
L 142.33415 55.046207 
L 142.3835 58.794056 
L 142.399949 68.359774 
L 142.482208 64.842721 
L 142.498656 60.648168 
L 142.515104 68.379971 
L 142.58091 65.3138 
L 142.613812 65.119382 
L 142.630267 65.761371 
L 142.646715 55.939019 
L 142.679617 66.262261 
L 142.745422 62.531095 
L 142.778325 66.603985 
L 142.811221 61.4844 
L 142.942832 53.159208 
L 142.975734 55.804585 
L 142.992182 53.441641 
L 143.025085 49.920016 
L 143.041539 52.206085 
L 143.057988 66.722401 
L 143.156695 61.556705 
L 143.222494 49.571493 
L 143.271851 56.330373 
L 143.33765 65.932038 
L 143.370552 57.327034 
L 143.403455 55.990126 
L 143.436358 57.674081 
L 143.452812 57.383054 
L 143.46926 68.005144 
L 143.535065 55.290658 
L 143.551513 60.551733 
L 143.567968 56.949742 
L 143.650221 58.077119 
L 143.666669 61.066815 
L 143.732474 53.48587 
L 143.781825 52.239806 
L 143.896981 59.261407 
L 143.913435 56.869454 
L 143.962786 60.150206 
L 143.979241 58.065456 
L 144.094396 61.480725 
L 144.110844 60.492073 
L 144.143747 65.124843 
L 144.160195 65.192493 
L 144.226 63.403172 
L 144.242455 65.253553 
L 144.275351 64.372171 
L 144.30826 63.827582 
L 144.324702 64.626909 
L 144.406961 66.670023 
L 144.374065 64.264047 
L 144.439858 66.362504 
L 144.571468 62.96324 
L 144.472767 66.99215 
L 144.604377 63.51605 
L 144.620819 62.832273 
L 144.637273 65.408538 
L 144.670182 67.190236 
L 144.719533 66.013738 
L 144.884039 57.437354 
L 144.999195 63.357396 
L 145.032091 61.558252 
L 145.048546 61.719944 
L 145.065 61.124655 
L 145.163702 56.162831 
L 145.130805 64.795843 
L 145.19661 58.11709 
L 145.213052 56.420538 
L 145.245961 61.421096 
L 145.262403 60.798343 
L 145.278857 62.061434 
L 145.328208 57.939623 
L 145.344663 58.759259 
L 145.394013 56.285158 
L 145.476273 57.410287 
L 145.525624 60.358567 
L 145.574974 57.500241 
L 145.591429 57.311789 
L 145.607883 57.551041 
L 145.706585 65.753765 
L 145.657234 53.465022 
L 145.723039 63.471137 
L 145.788844 59.334754 
L 145.805286 68.028255 
L 145.871091 53.533889 
L 145.887546 53.811302 
L 145.904 54.353897 
L 145.920442 58.718902 
L 145.986247 50.525337 
L 146.002702 51.745822 
L 146.019156 52.154082 
L 146.035598 52.122331 
L 146.117857 58.925412 
L 146.150754 54.323017 
L 146.249468 58.864563 
L 146.183662 53.07329 
L 146.265909 56.964993 
L 146.282364 54.249301 
L 146.298818 57.953476 
L 146.315273 54.525909 
L 146.331715 66.992062 
L 146.413974 56.841612 
L 146.430429 57.09629 
L 146.463325 57.00345 
L 146.479779 65.164611 
L 146.545584 53.506106 
L 146.578481 64.210392 
L 146.677182 62.086923 
L 146.61139 64.330234 
L 146.693637 63.952885 
L 146.710091 63.337631 
L 146.742987 65.361757 
L 146.759442 65.030595 
L 146.808792 66.728663 
L 146.825247 63.857016 
L 146.891052 58.652273 
L 146.907494 60.168125 
L 146.973299 54.810489 
L 146.956857 60.995692 
L 147.022662 55.560207 
L 147.104909 60.407572 
L 147.170714 59.318987 
L 147.466831 43.653294 
L 147.581987 54.013548 
L 147.614883 41.359323 
L 147.680689 49.622696 
L 147.713597 53.363993 
L 147.746494 46.58462 
L 147.762948 43.687631 
L 147.779403 54.60778 
L 147.795844 48.642994 
L 147.812299 58.607016 
L 147.911 56.89352 
L 148.009714 52.088563 
L 148.04261 52.327545 
L 148.141312 56.359559 
L 148.174221 55.050871 
L 148.207117 54.370906 
L 148.223571 55.066719 
L 148.240026 52.716402 
L 148.322273 54.88048 
L 148.338727 54.885335 
L 148.420987 50.18425 
L 148.371636 56.458103 
L 148.486792 50.431988 
L 148.75 62.640581 
L 148.766455 60.617187 
L 148.83226 55.447298 
L 148.865156 59.32393 
L 148.898065 60.992741 
L 148.930961 58.826038 
L 148.963857 59.033314 
L 148.980312 57.906869 
L 149.013221 60.961968 
L 149.029662 60.526182 
L 149.144818 66.506214 
L 149.161273 64.162362 
L 149.227078 62.269907 
L 149.243532 63.567812 
L 149.276429 66.980373 
L 149.358688 65.109491 
L 149.37513 65.217891 
L 149.440935 59.697416 
L 149.45739 66.616993 
L 149.473844 65.498422 
L 149.490298 66.050891 
L 149.523195 60.120005 
L 149.589 64.087724 
L 149.753506 70.315065 
L 149.769961 68.807943 
L 149.786403 67.925515 
L 149.819312 71.812217 
L 149.918013 77.489983 
L 149.950922 76.938869 
L 149.983818 65.927019 
L 150.066078 68.52318 
L 150.148325 77.343956 
L 150.131883 67.529508 
L 150.230584 75.769128 
L 150.34574 64.21013 
L 150.362195 64.033807 
L 150.460896 68.632882 
L 150.428 63.753274 
L 150.47735 64.546587 
L 150.608961 57.463714 
L 150.510247 64.823592 
L 150.625403 58.557298 
L 150.691208 57.262006 
L 150.707662 60.477467 
L 150.724117 59.372338 
L 150.773467 62.689589 
L 150.822818 59.263839 
L 150.888623 57.32223 
L 150.872169 59.743048 
L 150.905065 59.124522 
L 150.987324 51.676364 
L 151.05313 51.949545 
L 151.151831 53.925412 
L 151.168286 52.291164 
L 151.266987 45.300697 
L 151.283441 48.123794 
L 151.299896 49.609071 
L 151.332792 44.383241 
L 151.398597 49.067252 
L 151.464402 46.293514 
L 151.480857 50.279736 
L 151.497299 49.754867 
L 151.694714 58.749216 
L 151.859221 50.984462 
L 151.875675 52.417724 
L 151.908571 48.174085 
L 151.990831 43.288818 
L 151.957935 49.543578 
L 152.040182 45.210379 
L 152.122441 40.801607 
L 152.089532 45.502317 
L 152.138883 41.428077 
L 152.270493 48.554133 
L 152.484363 41.941235 
L 152.51726 42.098271 
L 152.550156 40.166027 
L 152.681766 51.072336 
L 152.698221 50.893398 
L 152.714675 48.231541 
L 152.78048 53.743834 
L 152.813376 50.052443 
L 152.895636 42.401586 
L 152.879181 50.200212 
L 152.912078 49.952119 
L 152.994337 47.982319 
L 153.060142 54.366682 
L 153.142389 55.380051 
L 153.158844 53.173727 
L 153.224649 58.694318 
L 153.241103 59.912695 
L 153.290454 56.499327 
L 153.389156 51.752957 
L 153.422064 54.983481 
L 153.454961 56.709193 
L 153.471415 52.248048 
L 153.48787 52.211862 
L 153.53722 54.193327 
L 153.553662 52.854578 
L 153.570116 58.983562 
L 153.603025 50.996154 
L 153.652376 52.803671 
L 153.701727 52.673952 
L 153.866233 67.457781 
L 153.882688 58.962714 
L 153.981389 62.626626 
L 154.080091 54.318959 
L 154.145896 58.36611 
L 154.409116 68.469558 
L 154.474922 66.174534 
L 154.557168 67.393818 
L 154.606519 63.74872 
L 154.622974 63.383868 
L 154.655882 55.268684 
L 154.721688 66.331148 
L 154.754584 64.729301 
L 154.771038 66.428924 
L 154.78748 66.210627 
L 154.803935 74.026863 
L 154.86974 65.045463 
L 154.886194 65.66139 
L 154.935545 68.628309 
L 155.00135 66.874903 
L 155.083597 62.19033 
L 155.13296 63.717189 
L 155.182311 63.200528 
L 155.198753 64.743634 
L 155.248116 60.039308 
L 155.297467 64.694378 
L 155.313909 65.32459 
L 155.330363 62.823673 
L 155.412623 57.429675 
L 155.461974 61.952193 
L 155.478428 61.856882 
L 155.511324 49.482492 
L 155.577129 54.741039 
L 155.610026 60.200845 
L 155.692285 59.581618 
L 155.70874 59.673248 
L 155.725181 59.168066 
L 155.741636 71.537469 
L 155.774545 43.92583 
L 155.823895 60.755907 
L 155.856792 60.805989 
L 155.939051 45.239464 
L 155.955506 45.109807 
L 156.004856 57.897093 
L 156.021298 42.106018 
L 156.054207 57.082166 
L 156.087103 40.471567 
L 156.152909 54.729079 
L 156.169363 56.719245 
L 156.185817 42.288893 
L 156.268064 59.293219 
L 156.300973 51.524723 
L 156.333869 54.508519 
L 156.350324 38.982365 
L 156.449025 48.178546 
L 156.498376 56.152289 
L 156.564181 50.541527 
L 156.580636 50.159968 
L 156.629986 55.603926 
L 156.695792 39.977563 
L 156.745142 61.484561 
L 156.794493 40.17204 
L 156.810947 39.973579 
L 156.827402 40.860146 
L 156.876753 39.98803 
L 156.926103 51.650835 
L 156.959 40.73258 
L 157.041259 43.502854 
L 157.107064 39.681948 
L 157.205766 50.507412 
L 157.172869 35.751458 
L 157.22222 50.249589 
L 157.238675 50.515412 
L 157.255116 49.779792 
L 157.419636 40.421457 
L 157.436077 41.731295 
L 157.501882 38.729259 
L 157.518337 38.763833 
L 157.765103 53.416513 
L 157.92961 39.098061 
L 158.06122 51.789648 
L 158.110571 47.893425 
L 158.127025 53.437611 
L 158.159921 52.602171 
L 158.176376 53.577433 
L 158.209272 51.561656 
L 158.291532 49.132985 
L 158.307974 49.8774 
L 158.324428 56.197357 
L 158.340882 48.090934 
L 158.423142 51.571452 
L 158.521843 51.342488 
L 158.55474 54.745023 
L 158.68635 46.89937 
L 158.702804 48.058797 
L 158.768609 53.949478 
L 158.801506 51.173001 
L 158.850856 45.379722 
L 158.94957 45.601889 
L 159.097623 52.425603 
L 158.982467 45.281931 
L 159.146973 49.146147 
L 159.179882 51.437779 
L 159.245687 47.940905 
L 159.295038 52.415196 
L 159.278584 43.306582 
L 159.327934 45.132247 
L 159.344389 45.073021 
L 159.459545 50.171147 
L 159.508895 48.475142 
L 159.541792 48.074682 
L 159.558246 49.944091 
L 159.5747 51.249711 
L 159.640506 48.205917 
L 159.65696 47.073385 
L 159.706311 49.670915 
L 159.739207 47.887338 
L 159.805012 53.274366 
L 159.837908 47.763418 
L 159.854363 49.410212 
L 160.002428 40.81393 
L 160.018869 42.128458 
L 160.051778 47.5569 
L 160.134025 47.349198 
L 160.15048 46.230286 
L 160.166934 48.367575 
L 160.19983 47.730946 
L 160.314986 53.355731 
L 160.331441 51.667309 
L 160.347895 51.658641 
L 160.4137 51.529294 
L 160.446596 55.38243 
L 160.463051 51.23996 
L 160.528856 58.381437 
L 160.545298 57.246129 
L 160.578207 56.402641 
L 160.611103 58.187301 
L 160.644012 58.102611 
L 160.742713 50.691763 
L 160.775622 53.246665 
L 160.792064 51.771052 
L 160.824973 52.164745 
L 160.841415 58.711156 
L 160.857869 51.143629 
L 160.923674 51.489498 
L 161.088181 44.634045 
L 161.104635 44.822074 
L 161.12109 55.029753 
L 161.219791 49.941577 
L 161.302051 53.996415 
L 161.252687 49.620687 
L 161.351401 51.545506 
L 161.400752 46.11692 
L 161.417207 57.487047 
L 161.450103 48.4475 
L 161.466557 57.602715 
L 161.532362 46.016235 
L 161.548804 47.495203 
L 161.581713 44.762873 
L 161.614609 50.586925 
L 161.66396 45.983628 
L 161.74622 50.849806 
L 161.79557 49.851761 
L 161.828479 50.762363 
L 161.87783 46.845783 
L 161.992986 62.075738 
L 162.141038 56.544269 
L 162.025882 62.740045 
L 162.173947 59.293752 
L 162.289103 72.593528 
L 162.305545 71.869944 
L 162.486506 79.659056 
L 162.50296 81.096353 
L 162.568765 78.305778 
L 162.58522 77.532599 
L 162.683921 60.654072 
L 162.651025 79.118361 
L 162.700375 71.820163 
L 163.012934 45.531362 
L 163.029388 50.344705 
L 163.226804 67.222567 
L 163.243258 67.110182 
L 163.276155 64.674 
L 163.325505 66.497225 
L 163.374856 70.587857 
L 163.440661 69.396494 
L 163.506466 60.817537 
L 163.572272 65.939168 
L 163.654531 62.190707 
L 163.753233 62.756942 
L 163.769687 63.965901 
L 163.786129 63.593492 
L 163.83548 57.594799 
L 163.884843 59.308873 
L 163.983544 57.18032 
L 164.01644 66.938374 
L 164.0987 70.005723 
L 164.131596 68.975784 
L 164.263207 59.099185 
L 164.279661 57.729314 
L 164.361908 69.227472 
L 164.394817 60.992285 
L 164.444168 62.602385 
L 164.460622 69.956278 
L 164.542869 57.904694 
L 164.625129 67.676192 
L 164.674479 64.283734 
L 164.72383 59.027619 
L 164.756739 63.922915 
L 164.85544 63.420021 
L 164.921246 71.030082 
L 165.036401 64.330225 
L 165.069298 65.319726 
L 165.085752 65.916074 
L 165.102207 63.487013 
L 165.151557 64.604288 
L 165.184453 64.883139 
L 165.200908 63.381811 
L 165.332518 54.864005 
L 165.348973 53.644741 
L 165.48057 65.279051 
L 165.513479 58.610389 
L 165.579284 68.868888 
L 165.628635 70.29965 
L 165.809596 73.25841 
L 165.69444 69.847759 
L 165.858947 71.757612 
L 165.908297 71.946244 
L 165.924752 71.349952 
L 165.990557 63.004251 
L 166.006999 73.665224 
L 166.023453 72.36322 
L 166.056362 73.365157 
L 166.122167 77.032021 
L 166.171518 76.286017 
L 166.18796 65.203767 
L 166.286674 68.767873 
L 166.303116 68.260783 
L 166.385375 79.788406 
L 166.368921 66.118534 
L 166.40183 78.705587 
L 166.45118 65.883106 
L 166.516986 71.348901 
L 166.549882 67.085601 
L 166.615687 68.905452 
L 166.665038 72.929103 
L 166.648596 67.797006 
L 166.714388 69.481014 
L 166.747297 69.848323 
L 166.763752 68.784362 
L 166.796648 75.016225 
L 166.878908 71.393333 
L 166.977609 64.264867 
L 167.02696 69.472628 
L 167.043414 69.700197 
L 167.059868 68.018017 
L 167.109219 72.626183 
L 167.125661 72.430734 
L 167.142115 73.285866 
L 167.191466 70.840872 
L 167.240817 70.977526 
L 167.29018 69.480383 
L 167.388882 78.783057 
L 167.339531 67.622489 
L 167.405336 78.756395 
L 167.586297 71.863287 
L 167.701453 65.179673 
L 167.717895 66.493942 
L 167.800154 75.659071 
L 167.833051 73.045768 
L 167.931765 59.733568 
L 167.964661 60.01035 
L 167.981115 58.77515 
L 167.99757 68.099226 
L 168.079817 63.822664 
L 168.112726 57.758475 
L 168.162076 64.703443 
L 168.194973 61.197225 
L 168.326583 73.280512 
L 168.343037 65.354838 
L 168.523998 55.108034 
L 168.54044 57.15192 
L 168.556895 57.31603 
L 168.589803 56.974546 
L 168.688505 63.121537 
L 168.704959 62.372641 
L 168.721401 62.471004 
L 168.75431 66.971268 
L 168.803661 62.6299 
L 168.951713 53.774068 
L 168.984622 54.291788 
L 169.033972 55.28163 
L 169.182025 59.982621 
L 169.198479 56.860174 
L 169.231388 61.006459 
L 169.29718 57.285742 
L 169.330089 58.732003 
L 169.346544 59.294141 
L 169.37944 57.140214 
L 169.395894 56.632614 
L 169.428791 64.295302 
L 169.51105 62.624552 
L 169.527505 62.166754 
L 169.543947 56.732002 
L 169.593297 65.977194 
L 169.626206 64.912554 
L 169.741362 68.298925 
L 169.659102 63.326088 
L 169.807167 67.701452 
L 169.938777 53.118217 
L 169.955219 54.372259 
L 170.021024 54.983362 
L 169.988128 52.307624 
L 170.037479 54.63135 
L 170.08683 48.954438 
L 170.152635 52.013984 
L 170.169089 52.084147 
L 170.185531 51.611806 
L 170.201985 51.739546 
L 170.251336 58.593954 
L 170.300687 51.237092 
L 170.317141 56.983642 
L 170.415843 48.457436 
L 170.465206 66.51575 
L 170.530999 59.576297 
L 170.580362 57.862034 
L 170.596804 67.790752 
L 170.613258 57.630256 
L 170.711959 61.752306 
L 170.84357 66.970651 
L 170.909375 69.207281 
L 170.89292 66.116787 
L 170.942271 67.08449 
L 170.958726 67.153619 
L 171.024531 64.8866 
L 171.008076 68.500094 
L 171.05744 67.00157 
L 171.139687 80.850521 
L 171.172595 78.98016 
L 171.189037 79.155618 
L 171.205492 78.207395 
L 171.221946 78.437737 
L 171.419349 57.868882 
L 171.534505 58.829315 
L 171.60031 60.805295 
L 171.616765 57.741133 
L 171.633219 54.368556 
L 171.699024 58.674989 
L 171.715466 56.277544 
L 171.896427 64.243763 
L 171.929336 63.257531 
L 171.945778 61.491676 
L 172.028037 64.3164 
L 172.126739 68.034082 
L 172.176102 67.175859 
L 172.291258 62.599536 
L 172.225453 68.398528 
L 172.324154 63.739998 
L 172.340608 64.399081 
L 172.35705 60.709387 
L 172.373505 62.095402 
L 172.603816 50.348138 
L 172.653167 51.373179 
L 172.784777 59.691348 
L 172.801232 57.515058 
L 172.883479 59.970752 
L 172.899933 58.937358 
L 172.949284 57.516791 
L 173.047998 56.087835 
L 173.06444 61.757494 
L 173.146699 62.566689 
L 173.163154 59.122614 
L 173.294752 71.047692 
L 173.19605 54.599839 
L 173.344115 70.841873 
L 173.360557 70.432246 
L 173.393466 71.500203 
L 173.40992 72.515813 
L 173.459271 70.54442 
L 173.541518 66.427662 
L 173.590868 67.515038 
L 173.623777 69.022921 
L 173.640232 67.676096 
L 173.673128 68.171182 
L 173.788284 56.229883 
L 173.804738 57.120449 
L 173.854089 55.751057 
L 173.870543 54.201107 
L 173.936348 54.67672 
L 174.084401 66.073471 
L 174.183102 70.465473 
L 174.265362 68.436309 
L 174.364063 57.180554 
L 174.396972 54.085222 
L 174.413414 60.055782 
L 174.446323 64.540131 
L 174.462777 55.263045 
L 174.512128 64.448013 
L 174.643738 48.556771 
L 174.66018 48.800848 
L 174.725985 42.914636 
L 174.758894 48.318105 
L 174.808245 49.402096 
L 174.824686 47.215523 
L 174.841141 48.195093 
L 174.9234 45.869876 
L 174.939842 47.916825 
L 174.956297 49.520391 
L 174.972751 46.125138 
L 175.038556 47.43282 
L 175.120803 48.884636 
L 175.153712 48.575424 
L 175.186608 49.547024 
L 175.268868 46.548556 
L 175.334673 49.354675 
L 175.301764 45.788661 
L 175.351115 49.087527 
L 175.367569 43.30014 
L 175.41692 50.883549 
L 175.449829 46.423092 
L 175.515634 53.660725 
L 175.482725 45.409948 
L 175.548531 52.139699 
L 175.647232 44.801319 
L 175.729491 51.469135 
L 175.696595 43.432564 
L 175.762388 47.055499 
L 175.811751 47.587422 
L 175.910452 42.255105 
L 175.926907 43.057335 
L 175.976258 40.508196 
L 175.992712 40.353439 
L 176.009154 37.043444 
L 176.058505 44.387192 
L 176.074959 38.113501 
L 176.206569 55.738976 
L 176.223024 54.721997 
L 176.239466 49.664721 
L 176.288829 56.467534 
L 176.305271 55.135882 
L 176.38753 67.530833 
L 176.436881 65.072524 
L 176.584933 60.571425 
L 176.601387 63.939973 
L 176.683647 60.313495 
L 176.88105 67.666785 
L 176.716543 59.707862 
L 176.913959 65.300276 
L 177.01266 59.615084 
L 177.078465 60.245021 
L 177.160725 55.003275 
L 177.193621 58.599934 
L 177.22653 59.549887 
L 177.259426 58.383035 
L 177.275881 58.777514 
L 177.292323 57.365929 
L 177.325232 60.026044 
L 177.391037 58.33388 
L 177.7694 71.665508 
L 177.785855 71.52995 
L 177.818751 70.325886 
L 177.868114 71.144919 
L 177.884556 72.562141 
L 177.950361 70.425506 
L 177.966816 69.474448 
L 178.081972 51.498944 
L 178.164231 70.243763 
L 178.197128 58.581558 
L 178.345192 68.18202 
L 178.394543 66.236401 
L 178.410985 65.525799 
L 178.460348 66.948634 
L 178.47679 70.143738 
L 178.542595 64.373614 
L 178.575504 63.448153 
L 178.591946 68.714038 
L 178.624855 61.638117 
L 178.674205 62.967969 
L 178.772907 65.455518 
L 178.789361 64.11277 
L 178.805816 64.139195 
L 178.920972 58.346169 
L 178.953868 60.375771 
L 178.970322 61.57093 
L 179.019673 57.77079 
L 179.052569 60.701809 
L 179.101933 52.121847 
L 179.151283 58.87759 
L 179.249985 62.727251 
L 179.217088 56.549981 
L 179.266439 62.044703 
L 179.31579 54.292118 
L 179.398049 60.794561 
L 179.463842 43.289423 
L 179.496751 59.398965 
L 179.513205 59.515614 
L 179.529647 43.48042 
L 179.611907 44.960686 
L 179.628361 57.194723 
L 179.677712 43.507208 
L 179.710608 44.361359 
L 179.759959 41.553129 
L 179.809322 43.410218 
L 179.990283 49.898653 
L 180.023179 51.190766 
L 180.039634 49.003074 
L 180.056076 49.0426 
L 180.088985 47.545713 
L 180.121881 50.940242 
L 180.138335 50.757023 
L 180.319296 55.501108 
L 180.187686 49.886445 
L 180.335751 54.69229 
L 180.467348 61.399831 
L 180.483803 60.450899 
L 180.500257 60.522601 
L 180.582504 59.108684 
L 180.598959 59.978169 
L 180.664764 64.126968 
L 180.714114 61.547817 
L 180.862179 55.697509 
L 180.91153 56.328527 
L 180.927984 58.679416 
L 180.944426 55.734597 
L 181.010231 56.702092 
L 181.076037 57.520962 
L 181.141842 54.052288 
L 181.158296 54.067077 
L 181.240543 58.158912 
L 181.273452 55.42324 
L 181.306348 54.891095 
L 181.322803 57.80832 
L 181.388608 52.989476 
L 181.40505 50.50055 
L 181.454413 57.69873 
L 181.470855 55.465364 
L 181.487309 55.307462 
L 181.569569 65.153083 
L 181.602465 58.885853 
L 181.635374 57.472407 
L 181.66827 60.439754 
L 181.701166 58.988448 
L 181.717621 58.695118 
L 181.734075 62.460608 
L 181.816322 60.307242 
L 181.849231 56.954189 
L 181.915036 60.619746 
L 181.931491 58.634669 
L 181.997283 65.342287 
L 182.046647 60.17749 
L 182.112439 58.342655 
L 182.145348 59.678408 
L 182.194699 61.169326 
L 182.227595 59.531995 
L 182.309855 55.955814 
L 182.260504 59.880975 
L 182.37566 57.912077 
L 182.392114 58.156004 
L 182.42501 54.652629 
L 182.50727 56.211205 
L 182.540166 58.002583 
L 182.573075 57.097518 
L 182.589517 55.166491 
L 182.655322 58.435796 
L 182.671777 60.542724 
L 182.704673 57.749277 
L 182.754036 59.83877 
L 182.869192 54.060767 
L 182.885634 55.841025 
L 182.902088 56.965954 
L 182.951439 54.428293 
L 183.00079 51.117982 
L 183.033699 55.234901 
L 183.05014 56.584629 
L 183.115945 53.311012 
L 183.247556 49.712055 
L 183.379166 56.12682 
L 183.510776 45.706578 
L 183.560127 47.818127 
L 183.576581 46.101058 
L 183.691737 52.159008 
L 183.642374 46.070925 
L 183.708179 51.132087 
L 183.823335 53.620782 
L 183.83979 52.73727 
L 183.856244 52.782615 
L 183.872686 53.416964 
L 183.938491 45.906843 
L 183.987854 46.998398 
L 184.185257 57.772193 
L 184.020751 46.324453 
L 184.218166 57.634347 
L 184.251062 53.090142 
L 184.333322 55.456995 
L 184.349764 57.257906 
L 184.415569 54.089114 
L 184.514283 52.303625 
L 184.497828 55.142648 
L 184.547179 52.630994 
L 184.678789 55.212543 
L 184.711686 53.224905 
L 184.744594 55.234774 
L 184.761036 57.380146 
L 184.777491 46.395416 
L 184.8104 53.904102 
L 184.941997 47.721267 
L 184.958452 54.778684 
L 185.057153 51.572446 
L 185.155867 38.823933 
L 185.172309 40.978483 
L 185.188763 41.06647 
L 185.238114 36.878266 
L 185.271023 44.439376 
L 185.336828 38.450679 
L 185.402621 42.798483 
L 185.468426 46.158565 
L 185.48488 43.562624 
L 185.501335 41.334573 
L 185.534231 50.00224 
L 185.583582 43.918855 
L 185.600036 45.141155 
L 185.632945 39.679784 
L 185.665841 46.114173 
L 185.682296 38.504951 
L 185.748101 43.874243 
L 185.797452 39.087936 
L 185.863257 42.974586 
L 185.896153 39.069408 
L 185.929049 45.375878 
L 185.945504 40.310574 
L 186.077114 50.033791 
L 186.11001 47.848274 
L 186.142919 50.228271 
L 186.159373 52.368118 
L 186.19227 44.160055 
L 186.241621 41.869406 
L 186.290971 57.143709 
L 186.373231 55.38159 
L 186.406127 42.826131 
L 186.537737 46.236049 
L 186.685802 59.054894 
L 186.603543 42.387335 
L 186.735153 56.615111 
L 186.800958 55.654819 
L 186.768049 56.795616 
L 186.850309 55.819216 
L 186.866763 57.200024 
L 186.899659 55.188784 
L 186.932556 55.95793 
L 186.998361 49.795004 
L 187.014815 60.825748 
L 187.03127 58.341446 
L 187.047711 59.842732 
L 187.097075 42.342723 
L 187.162867 45.194012 
L 187.278036 60.308155 
L 187.376737 49.887761 
L 187.393192 55.370304 
L 187.409633 55.019191 
L 187.426088 48.107884 
L 187.458984 55.714057 
L 187.524789 52.385441 
L 187.541244 47.477452 
L 187.607049 58.963864 
L 187.689308 63.650687 
L 187.952517 77.339912 
L 188.018322 68.567403 
L 188.084127 72.175715 
L 188.100581 71.775205 
L 188.117023 76.18773 
L 188.133477 66.791952 
L 188.199283 72.95597 
L 188.215737 72.013014 
L 188.248633 73.934604 
L 188.265088 77.890752 
L 188.347335 73.601413 
L 188.363789 74.759724 
L 188.380244 68.416757 
L 188.429594 72.057415 
L 188.446049 70.093225 
L 188.54475 70.193011 
L 188.742166 82.895683 
L 188.594101 69.643639 
L 188.758607 81.399507 
L 188.988919 67.910222 
L 189.071179 70.540895 
L 189.087633 68.447736 
L 189.120529 60.458494 
L 189.235685 64.51024 
L 189.268594 63.926381 
L 189.367296 67.222345 
L 189.38375 66.241338 
L 189.433101 63.90087 
L 189.482451 65.693927 
L 189.531802 69.107267 
L 189.597607 69.098621 
L 189.614062 69.219469 
L 189.646958 68.826299 
L 189.663412 70.679254 
L 189.729218 67.181174 
L 189.762114 69.768688 
L 189.795023 65.579617 
L 189.893724 65.732768 
L 189.910178 65.693082 
L 190.00888 74.20218 
L 189.975984 64.622704 
L 190.025334 74.160037 
L 190.041776 61.521663 
L 190.14049 68.314633 
L 190.156945 64.752843 
L 190.255646 65.387181 
L 190.453049 54.607766 
L 190.469503 55.053201 
L 190.502412 58.007092 
L 190.535309 54.695998 
L 190.568217 55.592665 
L 190.584659 55.061278 
L 190.601114 56.909484 
L 190.617568 56.46484 
L 190.650464 58.340325 
L 190.699815 57.636075 
L 190.732724 54.310736 
L 190.814971 55.023471 
L 190.89723 60.361393 
L 190.930127 56.566173 
L 191.094646 49.832258 
L 191.226244 56.18351 
L 191.242698 51.420674 
L 191.275594 64.677083 
L 191.341399 54.344186 
L 191.357854 53.496062 
L 191.374308 54.833816 
L 191.390763 53.915025 
L 191.407205 67.047425 
L 191.505919 59.376458 
L 191.555269 58.45375 
L 191.703321 67.94631 
L 191.769127 64.906098 
L 191.834932 60.798315 
L 191.802035 68.642754 
L 191.884282 63.392683 
L 191.917191 63.177505 
L 191.982984 67.262958 
L 192.065243 53.527861 
L 192.114594 54.464177 
L 192.131049 54.202725 
L 192.147503 62.999756 
L 192.163945 49.808231 
L 192.22975 55.113118 
L 192.246204 50.633098 
L 192.344906 51.767194 
L 192.377815 52.311454 
L 192.44362 50.610999 
L 192.492971 59.904464 
L 192.509425 60.005802 
L 192.624581 54.31367 
L 192.558776 60.74794 
L 192.641023 54.916243 
L 192.756178 64.313173 
L 192.772633 57.006891 
L 192.871334 61.374799 
L 192.920698 64.32358 
L 192.937139 55.742457 
L 192.970048 64.726869 
L 193.035853 56.433921 
L 193.06875 60.582433 
L 193.151009 58.263968 
L 193.249711 55.014938 
L 193.216802 58.699808 
L 193.266165 56.460918 
L 193.381321 59.295451 
L 193.414217 58.894755 
L 193.430672 55.387663 
L 193.529373 57.444134 
L 193.562282 56.011862 
L 193.578724 58.489102 
L 193.595178 59.81717 
L 193.660983 56.480576 
L 193.69388 57.405671 
L 193.710334 58.121827 
L 193.726789 55.334721 
L 193.874841 46.987923 
L 193.891295 47.808453 
L 193.90775 47.992196 
L 193.989997 51.29895 
L 194.022905 49.457524 
L 194.072256 50.579964 
L 194.187412 42.111795 
L 194.236763 47.952113 
L 194.335464 45.735696 
L 194.417724 45.762727 
L 194.434178 41.225662 
L 194.516425 46.090141 
L 194.53288 45.457496 
L 194.648036 36.89937 
L 194.66449 36.989682 
L 194.713841 34.352832 
L 194.746737 37.054792 
L 194.763191 35.576665 
L 194.894802 46.082569 
L 194.993503 43.379346 
L 195.009957 44.092969 
L 195.026412 50.206259 
L 195.108659 43.001366 
L 195.174464 39.75795 
L 195.141568 44.392628 
L 195.207373 43.256131 
L 195.322529 46.063494 
L 195.240269 41.814244 
L 195.371879 45.17403 
L 195.42123 44.311475 
L 195.404776 46.291527 
L 195.487035 44.366505 
L 195.618645 49.324099 
L 195.783152 40.524557 
L 195.799606 40.566991 
L 195.865399 41.903 
L 195.881854 35.856446 
L 195.964113 44.337589 
L 195.997009 42.891596 
L 196.029918 39.058186 
L 196.161516 52.959087 
L 196.243776 38.284275 
L 196.276672 46.210983 
L 196.342477 50.997538 
L 196.441191 48.227182 
L 196.474087 45.012357 
L 196.539892 47.15945 
L 196.605697 55.798927 
L 196.622152 46.318549 
L 196.655048 48.784675 
L 196.704399 49.287265 
L 196.770204 43.017815 
L 196.88536 48.279312 
L 196.951165 44.642073 
L 196.984061 45.530649 
L 197.082775 56.676955 
L 197.049866 42.483748 
L 197.099217 56.511132 
L 197.115672 47.614957 
L 197.165022 59.907549 
L 197.197931 58.981916 
L 197.230828 64.332745 
L 197.296633 57.918572 
L 197.313087 57.490761 
L 197.362438 48.104161 
L 197.395334 59.835557 
L 197.444697 49.065645 
L 197.526944 48.592165 
L 197.609204 58.669835 
L 197.691451 49.905484 
L 197.707905 58.149379 
L 197.823061 67.306288 
L 197.872412 63.663768 
L 197.954671 59.011412 
L 197.987568 59.114456 
L 198.004022 66.838554 
L 198.086282 56.341366 
L 198.102724 56.158565 
L 198.152074 57.833522 
L 198.168529 54.334585 
L 198.201438 55.384935 
L 198.217879 54.622065 
L 198.34949 62.178237 
L 198.365944 61.04712 
L 198.39884 49.680302 
L 198.4811 54.233556 
L 198.546905 52.508706 
L 198.530451 54.325148 
L 198.596256 53.457706 
L 198.629152 56.250299 
L 198.645607 52.615112 
L 198.760762 47.679805 
L 198.810113 49.311432 
L 198.826568 49.752071 
L 198.908827 58.376026 
L 198.941723 56.354332 
L 199.056879 46.047558 
L 199.089788 47.667665 
L 199.18849 57.123244 
L 199.221386 55.647588 
L 199.36945 61.414305 
L 199.385892 61.250967 
L 199.484606 61.249583 
L 199.517503 64.16093 
L 199.599762 61.504684 
L 199.632658 63.645499 
L 199.649113 62.961203 
L 199.665567 65.001879 
L 199.682009 66.83316 
L 199.731372 64.596294 
L 199.780723 55.355805 
L 199.846528 61.786376 
L 199.879425 62.614568 
L 199.912333 54.190041 
L 199.94523 63.451647 
L 199.978126 54.39017 
L 199.994581 62.520863 
L 200.043931 53.262931 
L 200.07684 55.601781 
L 200.093282 53.528889 
L 200.159087 56.349147 
L 200.175542 56.272097 
L 200.191996 62.884449 
L 200.208438 54.974534 
L 200.274243 57.062152 
L 200.307152 57.49724 
L 200.405853 64.750439 
L 200.422308 62.589279 
L 200.438762 62.708083 
L 200.471658 59.983509 
L 200.521009 62.645022 
L 200.537463 64.710812 
L 200.586814 60.546331 
L 200.603269 61.727662 
L 200.652619 59.636019 
L 200.78423 70.472363 
L 200.882931 77.343618 
L 200.915827 77.195176 
L 200.932282 75.908265 
L 200.998087 76.520529 
L 201.030983 79.371537 
L 201.080346 78.881476 
L 201.096788 68.075871 
L 201.129697 81.399859 
L 201.179048 79.257861 
L 201.195502 79.79409 
L 201.228399 78.084612 
L 201.277749 66.721696 
L 201.310658 79.902208 
L 201.343554 71.649003 
L 201.360009 77.842048 
L 201.40936 70.684873 
L 201.45871 76.708888 
L 201.491619 77.105659 
L 201.67258 67.347177 
L 201.804178 78.880549 
L 201.886437 68.201275 
L 201.919334 78.37336 
L 202.001593 68.780552 
L 202.133204 57.031831 
L 202.1661 57.869508 
L 202.182554 56.440648 
L 202.21545 54.16115 
L 202.330606 64.218925 
L 202.363515 64.407546 
L 202.37997 64.29119 
L 202.593827 79.650577 
L 202.42932 62.9995 
L 202.659632 78.73962 
L 202.889944 58.449376 
L 202.906398 41.234161 
L 202.972191 61.243274 
L 202.988645 57.110648 
L 203.087359 66.126315 
L 203.13671 65.232537 
L 203.169606 45.744982 
L 203.251866 48.384069 
L 203.268308 47.382059 
L 203.301216 51.302754 
L 203.317671 55.346511 
L 203.416372 54.304029 
L 203.432827 54.022484 
L 203.432827 54.022484 
" clip-path="url(#p32a663abec)" style="fill: none; stroke: #0072b2; stroke-width: 1.25; stroke-linecap: square"/>
   </g>
   <g id="patch_4">
    <path d="M 30.698281 131.718516 
L 30.698281 20.418516 
" style="fill: none; stroke: #000000; stroke-width: 0.8; stroke-linejoin: miter; stroke-linecap: square"/>
   </g>
   <g id="patch_5">
    <path d="M 30.698281 131.718516 
L 211.658281 131.718516 
" style="fill: none; stroke: #000000; stroke-width: 0.8; stroke-linejoin: miter; stroke-linecap: square"/>
   </g>
   <g id="text_13">
    <!-- drugs2263 rep2 -->
    <g transform="translate(83.305195 14.418516) scale(0.095 -0.095)">
     <defs>
      <path id="DejaVuSans-72" d="M 2631 2963 
Q 2534 3019 2420 3045 
Q 2306 3072 2169 3072 
Q 1681 3072 1420 2755 
Q 1159 2438 1159 1844 
L 1159 0 
L 581 0 
L 581 3500 
L 1159 3500 
L 1159 2956 
Q 1341 3275 1631 3429 
Q 1922 3584 2338 3584 
Q 2397 3584 2469 3576 
Q 2541 3569 2628 3553 
L 2631 2963 
z
" transform="scale(0.015625)"/>
      <path id="DejaVuSans-75" d="M 544 1381 
L 544 3500 
L 1119 3500 
L 1119 1403 
Q 1119 906 1312 657 
Q 1506 409 1894 409 
Q 2359 409 2629 706 
Q 2900 1003 2900 1516 
L 2900 3500 
L 3475 3500 
L 3475 0 
L 2900 0 
L 2900 538 
Q 2691 219 2414 64 
Q 2138 -91 1772 -91 
Q 1169 -91 856 284 
Q 544 659 544 1381 
z
M 1991 3584 
L 1991 3584 
z
" transform="scale(0.015625)"/>
      <path id="DejaVuSans-70" d="M 1159 525 
L 1159 -1331 
L 581 -1331 
L 581 3500 
L 1159 3500 
L 1159 2969 
Q 1341 3281 1617 3432 
Q 1894 3584 2278 3584 
Q 2916 3584 3314 3078 
Q 3713 2572 3713 1747 
Q 3713 922 3314 415 
Q 2916 -91 2278 -91 
Q 1894 -91 1617 61 
Q 1341 213 1159 525 
z
M 3116 1747 
Q 3116 2381 2855 2742 
Q 2594 3103 2138 3103 
Q 1681 3103 1420 2742 
Q 1159 2381 1159 1747 
Q 1159 1113 1420 752 
Q 1681 391 2138 391 
Q 2594 391 2855 752 
Q 3116 1113 3116 1747 
z
" transform="scale(0.015625)"/>
     </defs>
     <use xlink:href="#DejaVuSans-64"/>
     <use xlink:href="#DejaVuSans-72" transform="translate(63.476562 0)"/>
     <use xlink:href="#DejaVuSans-75" transform="translate(104.589844 0)"/>
     <use xlink:href="#DejaVuSans-67" transform="translate(167.96875 0)"/>
     <use xlink:href="#DejaVuSans-73" transform="translate(231.445312 0)"/>
     <use xlink:href="#DejaVuSans-32" transform="translate(283.544922 0)"/>
     <use xlink:href="#DejaVuSans-32" transform="translate(347.167969 0)"/>
     <use xlink:href="#DejaVuSans-36" transform="translate(410.791016 0)"/>
     <use xlink:href="#DejaVuSans-33" transform="translate(474.414062 0)"/>
     <use xlink:href="#DejaVuSans-20" transform="translate(538.037109 0)"/>
     <use xlink:href="#DejaVuSans-72" transform="translate(569.824219 0)"/>
     <use xlink:href="#DejaVuSans-65" transform="translate(608.6875 0)"/>
     <use xlink:href="#DejaVuSans-70" transform="translate(670.210938 0)"/>
     <use xlink:href="#DejaVuSans-32" transform="translate(733.6875 0)"/>
    </g>
   </g>
  </g>
 </g>
 <defs>
  <clipPath id="p32a663abec">
   <rect x="30.698281" y="20.418516" width="180.96" height="111.3"/>
  </clipPath>
 </defs>
</svg>
