<?xml version="1.0" encoding="utf-8" standalone="no"?>
<!DOCTYPE svg PUBLIC "-//W3C//DTD SVG 1.1//EN"
  "http://www.w3.org/Graphics/SVG/1.1/DTD/svg11.dtd">
<svg xmlns:xlink="http://www.w3.org/1999/xlink" width="226.01375pt" height="164.903516pt" viewBox="0 0 226.01375 164.903516" xmlns="http://www.w3.org/2000/svg" version="1.1">
 <metadata>
  <rdf:RDF xmlns:dc="http://purl.org/dc/elements/1.1/" xmlns:cc="http://creativecommons.org/ns#" xmlns:rdf="http://www.w3.org/1999/02/22-rdf-syntax-ns#">
   <cc:Work>
    <dc:type rdf:resource="http://purl.org/dc/dcmitype/StillImage"/>
    <dc:date>2026-05-24T13:53:55.264166</dc:date>
    <dc:format>image/svg+xml</dc:format>
    <dc:creator>
     <cc:Agent>
      <dc:title>Matplotlib v3.10.9, https://matplotlib.org/</dc:title>
     </cc:Agent>
    </dc:creator>
   </cc:Work>
  </rdf:RDF>
 </metadata>
 <defs>
  <style type="text/css">*{stroke-linejoin: round; stroke-linecap: butt}</style>
 </defs>
 <g id="figure_1">
  <g id="patch_1">
   <path d="M 0 164.903516 
L 226.01375 164.903516 
L 226.01375 0 
L 0 0 
z
" style="fill: #ffffff"/>
  </g>
  <g id="axes_1">
   <g id="patch_2">
    <path d="M 37.85375 131.718516 
L 218.81375 131.718516 
L 218.81375 20.418516 
L 37.85375 20.418516 
z
" style="fill: #ffffff"/>
   </g>
   <g id="patch_3">
    <path d="M 128.333744 131.718516 
L 210.588283 131.718516 
L 210.588283 20.418516 
L 128.333744 20.418516 
z
" clip-path="url(#p4f36ce49ee)" style="fill: #bdbdbd; opacity: 0.18"/>
   </g>
   <g id="matplotlib.axis_1">
    <g id="xtick_1">
     <g id="line2d_1">
      <defs>
       <path id="m102d76bcf0" d="M 0 0 
L 0 3 
" style="stroke: #000000; stroke-width: 0.7"/>
      </defs>
      <g>
       <use xlink:href="#m102d76bcf0" x="46.079205" y="131.718516" style="stroke: #000000; stroke-width: 0.7"/>
      </g>
     </g>
     <g id="text_1">
      <!-- 0 -->
      <g transform="translate(43.693267 143.917344) scale(0.075 -0.075)">
       <defs>
        <path id="DejaVuSans-30" d="M 2034 4250 
Q 1547 4250 1301 3770 
Q 1056 3291 1056 2328 
Q 1056 1369 1301 889 
Q 1547 409 2034 409 
Q 2525 409 2770 889 
Q 3016 1369 3016 2328 
Q 3016 3291 2770 3770 
Q 2525 4250 2034 4250 
z
M 2034 4750 
Q 2819 4750 3233 4129 
Q 3647 3509 3647 2328 
Q 3647 1150 3233 529 
Q 2819 -91 2034 -91 
Q 1250 -91 836 529 
Q 422 1150 422 2328 
Q 422 3509 836 4129 
Q 1250 4750 2034 4750 
z
" transform="scale(0.015625)"/>
       </defs>
       <use xlink:href="#DejaVuSans-30"/>
      </g>
     </g>
    </g>
    <g id="xtick_2">
     <g id="line2d_2">
      <g>
       <use xlink:href="#m102d76bcf0" x="78.98102" y="131.718516" style="stroke: #000000; stroke-width: 0.7"/>
      </g>
     </g>
     <g id="text_2">
      <!-- 20 -->
      <g transform="translate(74.209145 143.917344) scale(0.075 -0.075)">
       <defs>
        <path id="DejaVuSans-32" d="M 1228 531 
L 3431 531 
L 3431 0 
L 469 0 
L 469 531 
Q 828 903 1448 1529 
Q 2069 2156 2228 2338 
Q 2531 2678 2651 2914 
Q 2772 3150 2772 3378 
Q 2772 3750 2511 3984 
Q 2250 4219 1831 4219 
Q 1534 4219 1204 4116 
Q 875 4013 500 3803 
L 500 4441 
Q 881 4594 1212 4672 
Q 1544 4750 1819 4750 
Q 2544 4750 2975 4387 
Q 3406 4025 3406 3419 
Q 3406 3131 3298 2873 
Q 3191 2616 2906 2266 
Q 2828 2175 2409 1742 
Q 1991 1309 1228 531 
z
" transform="scale(0.015625)"/>
       </defs>
       <use xlink:href="#DejaVuSans-32"/>
       <use xlink:href="#DejaVuSans-30" transform="translate(63.623047 0)"/>
      </g>
     </g>
    </g>
    <g id="xtick_3">
     <g id="line2d_3">
      <g>
       <use xlink:href="#m102d76bcf0" x="111.882836" y="131.718516" style="stroke: #000000; stroke-width: 0.7"/>
      </g>
     </g>
     <g id="text_3">
      <!-- 40 -->
      <g transform="translate(107.110961 143.917344) scale(0.075 -0.075)">
       <defs>
        <path id="DejaVuSans-34" d="M 2419 4116 
L 825 1625 
L 2419 1625 
L 2419 4116 
z
M 2253 4666 
L 3047 4666 
L 3047 1625 
L 3713 1625 
L 3713 1100 
L 3047 1100 
L 3047 0 
L 2419 0 
L 2419 1100 
L 313 1100 
L 313 1709 
L 2253 4666 
z
" transform="scale(0.015625)"/>
       </defs>
       <use xlink:href="#DejaVuSans-34"/>
       <use xlink:href="#DejaVuSans-30" transform="translate(63.623047 0)"/>
      </g>
     </g>
    </g>
    <g id="xtick_4">
     <g id="line2d_4">
      <g>
       <use xlink:href="#m102d76bcf0" x="144.784652" y="131.718516" style="stroke: #000000; stroke-width: 0.7"/>
      </g>
     </g>
     <g id="text_4">
      <!-- 60 -->
      <g transform="translate(140.012777 143.917344) scale(0.075 -0.075)">
       <defs>
        <path id="DejaVuSans-36" d="M 2113 2584 
Q 1688 2584 1439 2293 
Q 1191 2003 1191 1497 
Q 1191 994 1439 701 
Q 1688 409 2113 409 
Q 2538 409 2786 701 
Q 3034 994 3034 1497 
Q 3034 2003 2786 2293 
Q 2538 2584 2113 2584 
z
M 3366 4563 
L 3366 3988 
Q 3128 4100 2886 4159 
Q 2644 4219 2406 4219 
Q 1781 4219 1451 3797 
Q 1122 3375 1075 2522 
Q 1259 2794 1537 2939 
Q 1816 3084 2150 3084 
Q 2853 3084 3261 2657 
Q 3669 2231 3669 1497 
Q 3669 778 3244 343 
Q 2819 -91 2113 -91 
Q 1303 -91 875 529 
Q 447 1150 447 2328 
Q 447 3434 972 4092 
Q 1497 4750 2381 4750 
Q 2619 4750 2861 4703 
Q 3103 4656 3366 4563 
z
" transform="scale(0.015625)"/>
       </defs>
       <use xlink:href="#DejaVuSans-36"/>
       <use xlink:href="#DejaVuSans-30" transform="translate(63.623047 0)"/>
      </g>
     </g>
    </g>
    <g id="xtick_5">
     <g id="line2d_5">
      <g>
       <use xlink:href="#m102d76bcf0" x="177.686467" y="131.718516" style="stroke: #000000; stroke-width: 0.7"/>
      </g>
     </g>
     <g id="text_5">
      <!-- 80 -->
      <g transform="translate(172.914592 143.917344) scale(0.075 -0.075)">
       <defs>
        <path id="DejaVuSans-38" d="M 2034 2216 
Q 1584 2216 1326 1975 
Q 1069 1734 1069 1313 
Q 1069 891 1326 650 
Q 1584 409 2034 409 
Q 2484 409 2743 651 
Q 3003 894 3003 1313 
Q 3003 1734 2745 1975 
Q 2488 2216 2034 2216 
z
M 1403 2484 
Q 997 2584 770 2862 
Q 544 3141 544 3541 
Q 544 4100 942 4425 
Q 1341 4750 2034 4750 
Q 2731 4750 3128 4425 
Q 3525 4100 3525 3541 
Q 3525 3141 3298 2862 
Q 3072 2584 2669 2484 
Q 3125 2378 3379 2068 
Q 3634 1759 3634 1313 
Q 3634 634 3220 271 
Q 2806 -91 2034 -91 
Q 1263 -91 848 271 
Q 434 634 434 1313 
Q 434 1759 690 2068 
Q 947 2378 1403 2484 
z
M 1172 3481 
Q 1172 3119 1398 2916 
Q 1625 2713 2034 2713 
Q 2441 2713 2670 2916 
Q 2900 3119 2900 3481 
Q 2900 3844 2670 4047 
Q 2441 4250 2034 4250 
Q 1625 4250 1398 4047 
Q 1172 3844 1172 3481 
z
" transform="scale(0.015625)"/>
       </defs>
       <use xlink:href="#DejaVuSans-38"/>
       <use xlink:href="#DejaVuSans-30" transform="translate(63.623047 0)"/>
      </g>
     </g>
    </g>
    <g id="xtick_6">
     <g id="line2d_6">
      <g>
       <use xlink:href="#m102d76bcf0" x="210.588283" y="131.718516" style="stroke: #000000; stroke-width: 0.7"/>
      </g>
     </g>
     <g id="text_6">
      <!-- 100 -->
      <g transform="translate(203.43047 143.917344) scale(0.075 -0.075)">
       <defs>
        <path id="DejaVuSans-31" d="M 794 531 
L 1825 531 
L 1825 4091 
L 703 3866 
L 703 4441 
L 1819 4666 
L 2450 4666 
L 2450 531 
L 3481 531 
L 3481 0 
L 794 0 
L 794 531 
z
" transform="scale(0.015625)"/>
       </defs>
       <use xlink:href="#DejaVuSans-31"/>
       <use xlink:href="#DejaVuSans-30" transform="translate(63.623047 0)"/>
       <use xlink:href="#DejaVuSans-30" transform="translate(127.246094 0)"/>
      </g>
     </g>
    </g>
    <g id="text_7">
     <!-- Time (ns) -->
     <g transform="translate(108.360742 155.935781) scale(0.085 -0.085)">
      <defs>
       <path id="DejaVuSans-54" d="M -19 4666 
L 3928 4666 
L 3928 4134 
L 2272 4134 
L 2272 0 
L 1638 0 
L 1638 4134 
L -19 4134 
L -19 4666 
z
" transform="scale(0.015625)"/>
       <path id="DejaVuSans-69" d="M 603 3500 
L 1178 3500 
L 1178 0 
L 603 0 
L 603 3500 
z
M 603 4863 
L 1178 4863 
L 1178 4134 
L 603 4134 
L 603 4863 
z
" transform="scale(0.015625)"/>
       <path id="DejaVuSans-6d" d="M 3328 2828 
Q 3544 3216 3844 3400 
Q 4144 3584 4550 3584 
Q 5097 3584 5394 3201 
Q 5691 2819 5691 2113 
L 5691 0 
L 5113 0 
L 5113 2094 
Q 5113 2597 4934 2840 
Q 4756 3084 4391 3084 
Q 3944 3084 3684 2787 
Q 3425 2491 3425 1978 
L 3425 0 
L 2847 0 
L 2847 2094 
Q 2847 2600 2669 2842 
Q 2491 3084 2119 3084 
Q 1678 3084 1418 2786 
Q 1159 2488 1159 1978 
L 1159 0 
L 581 0 
L 581 3500 
L 1159 3500 
L 1159 2956 
Q 1356 3278 1631 3431 
Q 1906 3584 2284 3584 
Q 2666 3584 2933 3390 
Q 3200 3197 3328 2828 
z
" transform="scale(0.015625)"/>
       <path id="DejaVuSans-65" d="M 3597 1894 
L 3597 1613 
L 953 1613 
Q 991 1019 1311 708 
Q 1631 397 2203 397 
Q 2534 397 2845 478 
Q 3156 559 3463 722 
L 3463 178 
Q 3153 47 2828 -22 
Q 2503 -91 2169 -91 
Q 1331 -91 842 396 
Q 353 884 353 1716 
Q 353 2575 817 3079 
Q 1281 3584 2069 3584 
Q 2775 3584 3186 3129 
Q 3597 2675 3597 1894 
z
M 3022 2063 
Q 3016 2534 2758 2815 
Q 2500 3097 2075 3097 
Q 1594 3097 1305 2825 
Q 1016 2553 972 2059 
L 3022 2063 
z
" transform="scale(0.015625)"/>
       <path id="DejaVuSans-20" transform="scale(0.015625)"/>
       <path id="DejaVuSans-28" d="M 1984 4856 
Q 1566 4138 1362 3434 
Q 1159 2731 1159 2009 
Q 1159 1288 1364 580 
Q 1569 -128 1984 -844 
L 1484 -844 
Q 1016 -109 783 600 
Q 550 1309 550 2009 
Q 550 2706 781 3412 
Q 1013 4119 1484 4856 
L 1984 4856 
z
" transform="scale(0.015625)"/>
       <path id="DejaVuSans-6e" d="M 3513 2113 
L 3513 0 
L 2938 0 
L 2938 2094 
Q 2938 2591 2744 2837 
Q 2550 3084 2163 3084 
Q 1697 3084 1428 2787 
Q 1159 2491 1159 1978 
L 1159 0 
L 581 0 
L 581 3500 
L 1159 3500 
L 1159 2956 
Q 1366 3272 1645 3428 
Q 1925 3584 2291 3584 
Q 2894 3584 3203 3211 
Q 3513 2838 3513 2113 
z
" transform="scale(0.015625)"/>
       <path id="DejaVuSans-73" d="M 2834 3397 
L 2834 2853 
Q 2591 2978 2328 3040 
Q 2066 3103 1784 3103 
Q 1356 3103 1142 2972 
Q 928 2841 928 2578 
Q 928 2378 1081 2264 
Q 1234 2150 1697 2047 
L 1894 2003 
Q 2506 1872 2764 1633 
Q 3022 1394 3022 966 
Q 3022 478 2636 193 
Q 2250 -91 1575 -91 
Q 1294 -91 989 -36 
Q 684 19 347 128 
L 347 722 
Q 666 556 975 473 
Q 1284 391 1588 391 
Q 1994 391 2212 530 
Q 2431 669 2431 922 
Q 2431 1156 2273 1281 
Q 2116 1406 1581 1522 
L 1381 1569 
Q 847 1681 609 1914 
Q 372 2147 372 2553 
Q 372 3047 722 3315 
Q 1072 3584 1716 3584 
Q 2034 3584 2315 3537 
Q 2597 3491 2834 3397 
z
" transform="scale(0.015625)"/>
       <path id="DejaVuSans-29" d="M 513 4856 
L 1013 4856 
Q 1481 4119 1714 3412 
Q 1947 2706 1947 2009 
Q 1947 1309 1714 600 
Q 1481 -109 1013 -844 
L 513 -844 
Q 928 -128 1133 580 
Q 1338 1288 1338 2009 
Q 1338 2731 1133 3434 
Q 928 4138 513 4856 
z
" transform="scale(0.015625)"/>
      </defs>
      <use xlink:href="#DejaVuSans-54"/>
      <use xlink:href="#DejaVuSans-69" transform="translate(57.958984 0)"/>
      <use xlink:href="#DejaVuSans-6d" transform="translate(85.742188 0)"/>
      <use xlink:href="#DejaVuSans-65" transform="translate(183.154297 0)"/>
      <use xlink:href="#DejaVuSans-20" transform="translate(244.677734 0)"/>
      <use xlink:href="#DejaVuSans-28" transform="translate(276.464844 0)"/>
      <use xlink:href="#DejaVuSans-6e" transform="translate(315.478516 0)"/>
      <use xlink:href="#DejaVuSans-73" transform="translate(378.857422 0)"/>
      <use xlink:href="#DejaVuSans-29" transform="translate(430.957031 0)"/>
     </g>
    </g>
   </g>
   <g id="matplotlib.axis_2">
    <g id="ytick_1">
     <g id="line2d_7">
      <defs>
       <path id="mdb58515cc4" d="M 0 0 
L -3 0 
" style="stroke: #000000; stroke-width: 0.7"/>
      </defs>
      <g>
       <use xlink:href="#mdb58515cc4" x="37.85375" y="126.6778" style="stroke: #000000; stroke-width: 0.7"/>
      </g>
     </g>
     <g id="text_8">
      <!-- 0.0 -->
      <g transform="translate(19.426406 129.527214) scale(0.075 -0.075)">
       <defs>
        <path id="DejaVuSans-2e" d="M 684 794 
L 1344 794 
L 1344 0 
L 684 0 
L 684 794 
z
" transform="scale(0.015625)"/>
       </defs>
       <use xlink:href="#DejaVuSans-30"/>
       <use xlink:href="#DejaVuSans-2e" transform="translate(63.623047 0)"/>
       <use xlink:href="#DejaVuSans-30" transform="translate(95.410156 0)"/>
      </g>
     </g>
    </g>
    <g id="ytick_2">
     <g id="line2d_8">
      <g>
       <use xlink:href="#mdb58515cc4" x="37.85375" y="108.324108" style="stroke: #000000; stroke-width: 0.7"/>
      </g>
     </g>
     <g id="text_9">
      <!-- 0.5 -->
      <g transform="translate(19.426406 111.173522) scale(0.075 -0.075)">
       <defs>
        <path id="DejaVuSans-35" d="M 691 4666 
L 3169 4666 
L 3169 4134 
L 1269 4134 
L 1269 2991 
Q 1406 3038 1543 3061 
Q 1681 3084 1819 3084 
Q 2600 3084 3056 2656 
Q 3513 2228 3513 1497 
Q 3513 744 3044 326 
Q 2575 -91 1722 -91 
Q 1428 -91 1123 -41 
Q 819 9 494 109 
L 494 744 
Q 775 591 1075 516 
Q 1375 441 1709 441 
Q 2250 441 2565 725 
Q 2881 1009 2881 1497 
Q 2881 1984 2565 2268 
Q 2250 2553 1709 2553 
Q 1456 2553 1204 2497 
Q 953 2441 691 2322 
L 691 4666 
z
" transform="scale(0.015625)"/>
       </defs>
       <use xlink:href="#DejaVuSans-30"/>
       <use xlink:href="#DejaVuSans-2e" transform="translate(63.623047 0)"/>
       <use xlink:href="#DejaVuSans-35" transform="translate(95.410156 0)"/>
      </g>
     </g>
    </g>
    <g id="ytick_3">
     <g id="line2d_9">
      <g>
       <use xlink:href="#mdb58515cc4" x="37.85375" y="89.970415" style="stroke: #000000; stroke-width: 0.7"/>
      </g>
     </g>
     <g id="text_10">
      <!-- 1.0 -->
      <g transform="translate(19.426406 92.819829) scale(0.075 -0.075)">
       <use xlink:href="#DejaVuSans-31"/>
       <use xlink:href="#DejaVuSans-2e" transform="translate(63.623047 0)"/>
       <use xlink:href="#DejaVuSans-30" transform="translate(95.410156 0)"/>
      </g>
     </g>
    </g>
    <g id="ytick_4">
     <g id="line2d_10">
      <g>
       <use xlink:href="#mdb58515cc4" x="37.85375" y="71.616723" style="stroke: #000000; stroke-width: 0.7"/>
      </g>
     </g>
     <g id="text_11">
      <!-- 1.5 -->
      <g transform="translate(19.426406 74.466137) scale(0.075 -0.075)">
       <use xlink:href="#DejaVuSans-31"/>
       <use xlink:href="#DejaVuSans-2e" transform="translate(63.623047 0)"/>
       <use xlink:href="#DejaVuSans-35" transform="translate(95.410156 0)"/>
      </g>
     </g>
    </g>
    <g id="ytick_5">
     <g id="line2d_11">
      <g>
       <use xlink:href="#mdb58515cc4" x="37.85375" y="53.26303" style="stroke: #000000; stroke-width: 0.7"/>
      </g>
     </g>
     <g id="text_12">
      <!-- 2.0 -->
      <g transform="translate(19.426406 56.112444) scale(0.075 -0.075)">
       <use xlink:href="#DejaVuSans-32"/>
       <use xlink:href="#DejaVuSans-2e" transform="translate(63.623047 0)"/>
       <use xlink:href="#DejaVuSans-30" transform="translate(95.410156 0)"/>
      </g>
     </g>
    </g>
    <g id="ytick_6">
     <g id="line2d_12">
      <g>
       <use xlink:href="#mdb58515cc4" x="37.85375" y="34.909338" style="stroke: #000000; stroke-width: 0.7"/>
      </g>
     </g>
     <g id="text_13">
      <!-- 2.5 -->
      <g transform="translate(19.426406 37.758752) scale(0.075 -0.075)">
       <use xlink:href="#DejaVuSans-32"/>
       <use xlink:href="#DejaVuSans-2e" transform="translate(63.623047 0)"/>
       <use xlink:href="#DejaVuSans-35" transform="translate(95.410156 0)"/>
      </g>
     </g>
    </g>
    <g id="text_14">
     <!-- Backbone RMSD (nm) -->
     <g transform="translate(13.658672 122.435352) rotate(-90) scale(0.085 -0.085)">
      <defs>
       <path id="DejaVuSans-42" d="M 1259 2228 
L 1259 519 
L 2272 519 
Q 2781 519 3026 730 
Q 3272 941 3272 1375 
Q 3272 1813 3026 2020 
Q 2781 2228 2272 2228 
L 1259 2228 
z
M 1259 4147 
L 1259 2741 
L 2194 2741 
Q 2656 2741 2882 2914 
Q 3109 3088 3109 3444 
Q 3109 3797 2882 3972 
Q 2656 4147 2194 4147 
L 1259 4147 
z
M 628 4666 
L 2241 4666 
Q 2963 4666 3353 4366 
Q 3744 4066 3744 3513 
Q 3744 3084 3544 2831 
Q 3344 2578 2956 2516 
Q 3422 2416 3680 2098 
Q 3938 1781 3938 1306 
Q 3938 681 3513 340 
Q 3088 0 2303 0 
L 628 0 
L 628 4666 
z
" transform="scale(0.015625)"/>
       <path id="DejaVuSans-61" d="M 2194 1759 
Q 1497 1759 1228 1600 
Q 959 1441 959 1056 
Q 959 750 1161 570 
Q 1363 391 1709 391 
Q 2188 391 2477 730 
Q 2766 1069 2766 1631 
L 2766 1759 
L 2194 1759 
z
M 3341 1997 
L 3341 0 
L 2766 0 
L 2766 531 
Q 2569 213 2275 61 
Q 1981 -91 1556 -91 
Q 1019 -91 701 211 
Q 384 513 384 1019 
Q 384 1609 779 1909 
Q 1175 2209 1959 2209 
L 2766 2209 
L 2766 2266 
Q 2766 2663 2505 2880 
Q 2244 3097 1772 3097 
Q 1472 3097 1187 3025 
Q 903 2953 641 2809 
L 641 3341 
Q 956 3463 1253 3523 
Q 1550 3584 1831 3584 
Q 2591 3584 2966 3190 
Q 3341 2797 3341 1997 
z
" transform="scale(0.015625)"/>
       <path id="DejaVuSans-63" d="M 3122 3366 
L 3122 2828 
Q 2878 2963 2633 3030 
Q 2388 3097 2138 3097 
Q 1578 3097 1268 2742 
Q 959 2388 959 1747 
Q 959 1106 1268 751 
Q 1578 397 2138 397 
Q 2388 397 2633 464 
Q 2878 531 3122 666 
L 3122 134 
Q 2881 22 2623 -34 
Q 2366 -91 2075 -91 
Q 1284 -91 818 406 
Q 353 903 353 1747 
Q 353 2603 823 3093 
Q 1294 3584 2113 3584 
Q 2378 3584 2631 3529 
Q 2884 3475 3122 3366 
z
" transform="scale(0.015625)"/>
       <path id="DejaVuSans-6b" d="M 581 4863 
L 1159 4863 
L 1159 1991 
L 2875 3500 
L 3609 3500 
L 1753 1863 
L 3688 0 
L 2938 0 
L 1159 1709 
L 1159 0 
L 581 0 
L 581 4863 
z
" transform="scale(0.015625)"/>
       <path id="DejaVuSans-62" d="M 3116 1747 
Q 3116 2381 2855 2742 
Q 2594 3103 2138 3103 
Q 1681 3103 1420 2742 
Q 1159 2381 1159 1747 
Q 1159 1113 1420 752 
Q 1681 391 2138 391 
Q 2594 391 2855 752 
Q 3116 1113 3116 1747 
z
M 1159 2969 
Q 1341 3281 1617 3432 
Q 1894 3584 2278 3584 
Q 2916 3584 3314 3078 
Q 3713 2572 3713 1747 
Q 3713 922 3314 415 
Q 2916 -91 2278 -91 
Q 1894 -91 1617 61 
Q 1341 213 1159 525 
L 1159 0 
L 581 0 
L 581 4863 
L 1159 4863 
L 1159 2969 
z
" transform="scale(0.015625)"/>
       <path id="DejaVuSans-6f" d="M 1959 3097 
Q 1497 3097 1228 2736 
Q 959 2375 959 1747 
Q 959 1119 1226 758 
Q 1494 397 1959 397 
Q 2419 397 2687 759 
Q 2956 1122 2956 1747 
Q 2956 2369 2687 2733 
Q 2419 3097 1959 3097 
z
M 1959 3584 
Q 2709 3584 3137 3096 
Q 3566 2609 3566 1747 
Q 3566 888 3137 398 
Q 2709 -91 1959 -91 
Q 1206 -91 779 398 
Q 353 888 353 1747 
Q 353 2609 779 3096 
Q 1206 3584 1959 3584 
z
" transform="scale(0.015625)"/>
       <path id="DejaVuSans-52" d="M 2841 2188 
Q 3044 2119 3236 1894 
Q 3428 1669 3622 1275 
L 4263 0 
L 3584 0 
L 2988 1197 
Q 2756 1666 2539 1819 
Q 2322 1972 1947 1972 
L 1259 1972 
L 1259 0 
L 628 0 
L 628 4666 
L 2053 4666 
Q 2853 4666 3247 4331 
Q 3641 3997 3641 3322 
Q 3641 2881 3436 2590 
Q 3231 2300 2841 2188 
z
M 1259 4147 
L 1259 2491 
L 2053 2491 
Q 2509 2491 2742 2702 
Q 2975 2913 2975 3322 
Q 2975 3731 2742 3939 
Q 2509 4147 2053 4147 
L 1259 4147 
z
" transform="scale(0.015625)"/>
       <path id="DejaVuSans-4d" d="M 628 4666 
L 1569 4666 
L 2759 1491 
L 3956 4666 
L 4897 4666 
L 4897 0 
L 4281 0 
L 4281 4097 
L 3078 897 
L 2444 897 
L 1241 4097 
L 1241 0 
L 628 0 
L 628 4666 
z
" transform="scale(0.015625)"/>
       <path id="DejaVuSans-53" d="M 3425 4513 
L 3425 3897 
Q 3066 4069 2747 4153 
Q 2428 4238 2131 4238 
Q 1616 4238 1336 4038 
Q 1056 3838 1056 3469 
Q 1056 3159 1242 3001 
Q 1428 2844 1947 2747 
L 2328 2669 
Q 3034 2534 3370 2195 
Q 3706 1856 3706 1288 
Q 3706 609 3251 259 
Q 2797 -91 1919 -91 
Q 1588 -91 1214 -16 
Q 841 59 441 206 
L 441 856 
Q 825 641 1194 531 
Q 1563 422 1919 422 
Q 2459 422 2753 634 
Q 3047 847 3047 1241 
Q 3047 1584 2836 1778 
Q 2625 1972 2144 2069 
L 1759 2144 
Q 1053 2284 737 2584 
Q 422 2884 422 3419 
Q 422 4038 858 4394 
Q 1294 4750 2059 4750 
Q 2388 4750 2728 4690 
Q 3069 4631 3425 4513 
z
" transform="scale(0.015625)"/>
       <path id="DejaVuSans-44" d="M 1259 4147 
L 1259 519 
L 2022 519 
Q 2988 519 3436 956 
Q 3884 1394 3884 2338 
Q 3884 3275 3436 3711 
Q 2988 4147 2022 4147 
L 1259 4147 
z
M 628 4666 
L 1925 4666 
Q 3281 4666 3915 4102 
Q 4550 3538 4550 2338 
Q 4550 1131 3912 565 
Q 3275 0 1925 0 
L 628 0 
L 628 4666 
z
" transform="scale(0.015625)"/>
      </defs>
      <use xlink:href="#DejaVuSans-42"/>
      <use xlink:href="#DejaVuSans-61" transform="translate(68.603516 0)"/>
      <use xlink:href="#DejaVuSans-63" transform="translate(129.882812 0)"/>
      <use xlink:href="#DejaVuSans-6b" transform="translate(184.863281 0)"/>
      <use xlink:href="#DejaVuSans-62" transform="translate(242.773438 0)"/>
      <use xlink:href="#DejaVuSans-6f" transform="translate(306.25 0)"/>
      <use xlink:href="#DejaVuSans-6e" transform="translate(367.431641 0)"/>
      <use xlink:href="#DejaVuSans-65" transform="translate(430.810547 0)"/>
      <use xlink:href="#DejaVuSans-20" transform="translate(492.333984 0)"/>
      <use xlink:href="#DejaVuSans-52" transform="translate(524.121094 0)"/>
      <use xlink:href="#DejaVuSans-4d" transform="translate(593.603516 0)"/>
      <use xlink:href="#DejaVuSans-53" transform="translate(679.882812 0)"/>
      <use xlink:href="#DejaVuSans-44" transform="translate(743.359375 0)"/>
      <use xlink:href="#DejaVuSans-20" transform="translate(820.361328 0)"/>
      <use xlink:href="#DejaVuSans-28" transform="translate(852.148438 0)"/>
      <use xlink:href="#DejaVuSans-6e" transform="translate(891.162109 0)"/>
      <use xlink:href="#DejaVuSans-6d" transform="translate(954.541016 0)"/>
      <use xlink:href="#DejaVuSans-29" transform="translate(1051.953125 0)"/>
     </g>
    </g>
   </g>
   <g id="line2d_13">
    <path d="M 46.079205 126.659425 
L 46.145008 116.783527 
L 46.210812 117.475769 
L 46.227263 118.204161 
L 46.243714 116.498905 
L 46.276615 116.507601 
L 46.424674 110.715132 
L 46.523379 110.803387 
L 46.53983 112.718103 
L 46.605634 109.266262 
L 46.671437 106.960304 
L 46.704339 109.614813 
L 46.72079 110.8329 
L 46.786594 108.050605 
L 46.918201 104.026169 
L 47.033357 104.366942 
L 47.066259 105.025902 
L 47.099161 103.725682 
L 47.164964 102.450923 
L 47.181415 104.007969 
L 47.197866 103.618882 
L 47.214317 105.053351 
L 47.280121 102.624809 
L 47.313023 102.873638 
L 47.428179 100.771688 
L 47.44463 101.350927 
L 47.493983 99.196747 
L 47.510434 99.342802 
L 47.543335 98.958791 
L 47.576237 97.733282 
L 47.658492 98.294846 
L 47.691394 100.995842 
L 47.773648 100.328975 
L 47.855903 99.623015 
L 47.823001 101.301299 
L 47.888804 100.209111 
L 47.905255 99.939939 
L 47.921706 101.374658 
L 47.938157 100.711965 
L 47.954608 101.048146 
L 47.98751 99.973226 
L 48.003961 100.604967 
L 48.036863 98.126763 
L 48.102666 100.616691 
L 48.135568 101.656854 
L 48.234274 101.553625 
L 48.250725 101.058266 
L 48.300077 102.186325 
L 48.34943 104.284673 
L 48.415234 102.552033 
L 48.481037 100.082166 
L 48.546841 100.534603 
L 48.596194 101.671878 
L 48.645546 101.093755 
L 48.661997 100.073294 
L 48.744252 101.583215 
L 48.760703 101.239696 
L 48.793605 102.654612 
L 48.810055 102.397447 
L 48.842957 103.522532 
L 48.875859 102.105088 
L 48.908761 102.494425 
L 48.958114 100.976358 
L 49.023917 101.605023 
L 49.106172 99.805803 
L 49.056819 102.112488 
L 49.122623 101.604781 
L 49.25423 104.414496 
L 49.287132 102.794588 
L 49.336484 102.857185 
L 49.385837 101.759282 
L 49.451641 103.040873 
L 49.484543 102.721258 
L 49.665503 96.876297 
L 49.698404 97.424826 
L 49.714855 95.967437 
L 49.747757 96.054606 
L 49.764208 96.077452 
L 49.830012 92.234582 
L 49.895815 93.052423 
L 49.912266 93.543846 
L 49.961619 91.773805 
L 50.093226 93.386996 
L 49.994521 91.025577 
L 50.126128 92.64065 
L 50.191932 91.022845 
L 50.208383 91.594552 
L 50.33999 97.305784 
L 50.356441 97.140451 
L 50.553851 93.415117 
L 50.751263 98.470388 
L 50.767713 98.413643 
L 50.866419 100.590056 
L 50.817066 98.029412 
L 50.899321 99.009337 
L 50.932222 95.269993 
L 51.014477 97.377382 
L 51.277692 91.369495 
L 51.294142 91.397191 
L 51.359946 93.680383 
L 51.409299 91.947695 
L 51.442201 93.344687 
L 51.491554 96.238425 
L 51.590259 95.814275 
L 51.623161 94.261718 
L 51.639612 96.02027 
L 51.672513 95.751461 
L 51.705415 98.056972 
L 51.78767 96.818369 
L 51.820572 95.425063 
L 51.902826 95.655083 
L 52.001532 99.764885 
L 52.034433 99.394677 
L 52.100237 98.311622 
L 52.116688 99.517019 
L 52.133139 99.398564 
L 52.166041 99.915643 
L 52.198943 99.022324 
L 52.231844 98.663495 
L 52.379903 102.896877 
L 52.445706 102.908884 
L 52.495059 101.655606 
L 52.544412 100.351062 
L 52.577314 101.500686 
L 52.610215 102.63428 
L 52.659568 101.063479 
L 52.676019 101.260799 
L 52.824077 97.596687 
L 52.840528 98.331723 
L 52.906331 96.799321 
L 52.922783 96.621518 
L 52.939233 96.838532 
L 53.07084 98.767179 
L 53.103742 98.161657 
L 53.136645 99.508796 
L 53.153095 99.490043 
L 53.185997 99.953143 
L 53.202448 98.322656 
L 53.284702 99.093445 
L 53.301154 100.006651 
L 53.350506 98.27432 
L 53.465662 96.029729 
L 53.482113 96.75318 
L 53.498564 97.264342 
L 53.547917 96.295307 
L 53.564368 96.459547 
L 53.59727 94.358776 
L 53.630172 97.039498 
L 53.695975 95.614514 
L 53.728877 94.968188 
L 53.745328 95.341697 
L 53.844034 95.292575 
L 53.893386 99.132168 
L 53.909837 99.250292 
L 53.926288 99.100236 
L 53.942739 99.172461 
L 54.123699 94.255397 
L 54.173051 95.25183 
L 54.189503 96.093196 
L 54.222404 93.977753 
L 54.271757 95.479122 
L 54.386913 93.767893 
L 54.403365 94.461006 
L 54.436266 92.252128 
L 54.452717 91.67714 
L 54.50207 93.314165 
L 54.51852 93.217995 
L 54.534972 93.264602 
L 54.732382 99.655439 
L 54.781735 100.385637 
L 54.847539 98.027767 
L 54.962695 102.238141 
L 54.995597 101.747025 
L 55.04495 101.874055 
L 55.0614 101.80782 
L 55.077852 102.474092 
L 55.143655 101.43912 
L 55.209459 100.290987 
L 55.22591 100.812283 
L 55.275262 102.969154 
L 55.341066 101.645776 
L 55.357517 100.81896 
L 55.390419 102.476526 
L 55.439771 102.102144 
L 55.489124 103.327609 
L 55.522026 101.770783 
L 55.604281 98.812861 
L 55.571379 101.820627 
L 55.637183 100.515085 
L 55.702986 103.181135 
L 55.76879 102.241896 
L 55.867495 100.61762 
L 55.818142 102.429203 
L 55.900397 101.214343 
L 55.94975 99.334811 
L 55.999102 101.937217 
L 56.015554 102.224012 
L 56.032004 100.618145 
L 56.081357 102.314632 
L 56.097808 102.265961 
L 56.114259 103.296477 
L 56.163611 100.888076 
L 56.180062 100.147674 
L 56.212964 101.300682 
L 56.262317 100.645147 
L 56.328121 100.391815 
L 56.426826 103.09216 
L 56.574884 99.396299 
L 56.591335 99.714343 
L 56.624237 99.137846 
L 56.640688 99.237822 
L 56.755844 97.869155 
L 56.772295 98.338569 
L 56.838099 101.275912 
L 56.871001 98.57416 
L 56.903903 95.856059 
L 56.986157 97.27379 
L 57.134215 101.001675 
L 57.200019 100.811072 
L 57.282273 102.211741 
L 57.298724 102.211638 
L 57.331626 101.691891 
L 57.430331 99.600943 
L 57.446782 100.184062 
L 57.496135 101.730577 
L 57.529037 99.559188 
L 57.545488 99.692282 
L 57.578389 98.514415 
L 57.594841 99.870702 
L 57.644193 99.534018 
L 57.677095 99.378746 
L 57.742899 100.14495 
L 57.75935 98.969928 
L 57.7758 100.739202 
L 57.841605 100.165756 
L 57.874506 99.891842 
L 57.989662 101.978697 
L 58.022564 101.232355 
L 58.071917 102.459887 
L 58.104819 102.356871 
L 58.121269 103.256092 
L 58.137721 105.625465 
L 58.236426 104.28975 
L 58.252877 105.608481 
L 58.318681 104.115122 
L 58.351583 105.028772 
L 58.49964 102.598953 
L 58.6806 97.981064 
L 58.697052 98.65981 
L 58.713502 100.209834 
L 58.812208 99.681013 
L 58.828659 99.206423 
L 58.845109 100.53399 
L 58.910913 99.918965 
L 58.927364 99.78615 
L 58.993168 101.675813 
L 59.042521 100.906735 
L 59.058971 100.727694 
L 59.108325 100.820869 
L 59.124775 101.709099 
L 59.190579 100.176739 
L 59.256382 99.16327 
L 59.272833 100.224381 
L 59.289285 99.477353 
L 59.305734 100.477556 
L 59.355088 97.940591 
L 59.371538 98.094116 
L 59.486695 99.920815 
L 59.56895 102.870899 
L 59.618303 101.204832 
L 59.634754 101.202996 
L 59.667655 100.97297 
L 59.684106 101.673174 
L 59.700557 99.853758 
L 59.766361 101.936693 
L 59.799262 100.267288 
L 59.848616 98.649983 
L 59.914419 99.398072 
L 59.930869 99.543815 
L 59.980223 96.762882 
L 60.046026 98.383638 
L 60.062476 98.325292 
L 60.078927 98.457218 
L 60.095379 98.422592 
L 60.11183 98.959566 
L 60.144731 97.380355 
L 60.194085 98.092196 
L 60.226986 98.313942 
L 60.243437 97.643507 
L 60.292789 99.474012 
L 60.358593 102.896326 
L 60.440848 101.986203 
L 60.65471 95.483288 
L 60.704062 95.44969 
L 60.769866 97.665553 
L 60.786317 97.276048 
L 60.802768 98.296983 
L 60.901473 101.332004 
L 60.917924 99.602969 
L 61.049531 95.386032 
L 61.082434 96.540799 
L 61.131786 99.085068 
L 61.19759 96.986492 
L 61.279845 95.879445 
L 61.246942 97.319091 
L 61.296294 96.620913 
L 61.411452 98.481445 
L 61.427903 98.4786 
L 61.543059 99.818005 
L 61.55951 99.805873 
L 61.57596 99.304946 
L 61.608862 100.397868 
L 61.625314 100.396814 
L 61.724018 104.7494 
L 61.789822 103.016404 
L 61.921429 101.386324 
L 61.93788 101.568925 
L 62.053036 103.712614 
L 62.11884 101.206975 
L 62.184645 102.053976 
L 62.233997 100.832766 
L 62.316252 101.812519 
L 62.332702 101.790704 
L 62.414957 104.511991 
L 62.464309 104.344223 
L 62.595917 102.188384 
L 62.612367 103.242973 
L 62.64527 101.656876 
L 62.711073 103.136257 
L 62.727525 102.945048 
L 62.826229 98.46112 
L 62.859132 99.090644 
L 63.00719 103.614044 
L 63.089444 102.957958 
L 63.105895 103.139884 
L 63.122346 102.626318 
L 63.253953 97.869334 
L 63.270405 99.039669 
L 63.286854 99.020768 
L 63.38556 96.031157 
L 63.402012 96.984881 
L 63.467815 100.611655 
L 63.517168 99.500082 
L 63.55007 98.227466 
L 63.582971 99.986136 
L 63.632323 98.530831 
L 63.665226 99.293966 
L 63.698127 97.366447 
L 63.714578 97.758067 
L 63.731029 96.77494 
L 63.796833 98.278948 
L 63.829736 99.978904 
L 63.862637 97.179951 
L 63.895539 98.019475 
L 63.92844 98.148894 
L 63.977792 97.354873 
L 64.076499 98.807436 
L 64.09295 98.789449 
L 64.109401 98.332064 
L 64.142302 99.931702 
L 64.175205 99.47591 
L 64.224557 98.698022 
L 64.257458 99.678975 
L 64.323262 100.111176 
L 64.405516 101.063626 
L 64.454869 97.735286 
L 64.47132 97.718005 
L 64.520674 98.421043 
L 64.537124 97.713853 
L 64.586478 98.061927 
L 64.685182 97.303912 
L 64.668731 98.373764 
L 64.701633 97.78929 
L 64.783888 95.014873 
L 64.816789 93.144668 
L 64.882593 95.145265 
L 64.899044 94.364455 
L 64.931947 93.241609 
L 64.99775 94.264515 
L 65.0142 94.340852 
L 65.030651 94.336707 
L 65.063554 95.928285 
L 65.096455 92.983875 
L 65.162258 91.187603 
L 65.310317 96.632156 
L 65.343219 95.327766 
L 65.392572 96.980575 
L 65.425472 96.066565 
L 65.589982 98.983194 
L 65.655786 98.179438 
L 65.688688 98.196838 
L 65.820296 95.523347 
L 65.919 100.142902 
L 65.951903 97.731014 
L 66.050607 99.841299 
L 66.067059 99.20363 
L 66.08351 98.374861 
L 66.149313 99.406298 
L 66.248018 102.801996 
L 66.280921 101.568896 
L 66.313822 101.274803 
L 66.62639 95.044859 
L 66.396076 101.37174 
L 66.675742 96.583816 
L 66.692193 97.107429 
L 66.774448 96.292348 
L 67.152818 89.363194 
L 67.169269 89.844619 
L 67.185721 90.110773 
L 67.218622 89.085422 
L 67.300877 87.267287 
L 67.284425 89.146922 
L 67.317328 88.1171 
L 67.432484 92.607922 
L 67.448935 92.456063 
L 67.54764 90.939802 
L 67.580542 91.007744 
L 67.613443 93.870777 
L 67.695698 93.0013 
L 67.745052 92.417388 
L 67.810855 95.863059 
L 67.876659 94.385723 
L 67.975364 97.030439 
L 67.90956 94.098594 
L 68.008266 95.392485 
L 68.057618 97.303655 
L 68.106971 95.08204 
L 68.123422 95.531452 
L 68.27148 96.635735 
L 68.287932 96.393782 
L 68.304381 97.515508 
L 68.337284 97.217786 
L 68.353735 97.286777 
L 68.386636 98.552228 
L 68.45244 98.017206 
L 68.649851 92.497161 
L 68.699204 93.178098 
L 68.715654 93.047199 
L 68.880164 88.736761 
L 69.110477 94.984035 
L 69.19273 92.144818 
L 69.225633 93.280181 
L 69.307888 94.640461 
L 69.291436 92.931751 
L 69.324339 93.871291 
L 69.423044 92.485033 
L 69.390143 94.149206 
L 69.439495 93.273096 
L 69.505298 94.763218 
L 69.52175 93.097749 
L 69.604005 91.903683 
L 69.554651 93.410085 
L 69.636906 92.788493 
L 69.653357 92.750016 
L 69.669808 92.8347 
L 69.686258 91.916997 
L 69.735612 94.666685 
L 69.768513 93.293201 
L 69.801415 93.580844 
L 69.933023 90.148296 
L 69.949472 90.581413 
L 70.081081 93.789444 
L 70.097531 93.363132 
L 70.146885 92.733501 
L 70.130433 93.50969 
L 70.196237 93.212981 
L 70.26204 93.700668 
L 70.245589 92.056357 
L 70.294941 93.610059 
L 70.393647 87.526056 
L 70.459451 90.26247 
L 70.607509 94.973896 
L 70.623961 94.853742 
L 70.706214 93.313298 
L 70.739117 93.43778 
L 70.755568 93.419269 
L 70.772019 93.647603 
L 70.788469 93.186441 
L 70.80492 92.383438 
L 70.821371 93.706357 
L 70.837823 93.516085 
L 70.887175 97.103901 
L 70.936527 92.786925 
L 71.002331 90.15233 
L 71.051683 91.278065 
L 71.166841 93.979662 
L 71.232644 89.8797 
L 71.281996 91.137956 
L 71.364251 92.861375 
L 71.314899 90.384489 
L 71.380703 92.851479 
L 71.479407 90.815284 
L 71.495858 90.851253 
L 71.611014 88.50285 
L 71.528759 91.345742 
L 71.643917 89.335859 
L 71.791975 97.45192 
L 71.841328 96.070706 
L 71.89068 94.381156 
L 71.940034 96.659914 
L 71.956483 95.780971 
L 71.972935 96.348584 
L 72.038738 94.835535 
L 72.05519 95.81799 
L 72.071641 94.495951 
L 72.153894 96.133339 
L 72.186797 96.052745 
L 72.236149 98.207685 
L 72.301952 96.913537 
L 72.351306 97.26222 
L 72.400657 95.334271 
L 72.450011 94.672852 
L 72.499365 95.810806 
L 72.515816 97.420557 
L 72.598069 96.069946 
L 72.663871 96.322889 
L 72.729677 94.314808 
L 72.746128 93.952433 
L 72.762579 95.0333 
L 72.844832 97.799073 
L 72.877735 97.016879 
L 72.894186 96.260626 
L 72.959988 97.086322 
L 72.97644 96.887951 
L 73.009342 98.633854 
L 73.075144 96.447008 
L 73.108047 96.506187 
L 73.371261 91.37219 
L 73.502868 96.052011 
L 73.519319 95.924489 
L 73.535771 95.265522 
L 73.601576 96.303401 
L 73.618027 97.537294 
L 73.70028 95.550195 
L 73.716732 95.673645 
L 73.733183 95.472731 
L 73.86479 92.678705 
L 73.881241 92.746041 
L 73.996397 96.379642 
L 74.0293 96.102424 
L 74.193806 90.871358 
L 74.292514 92.998756 
L 74.308965 91.983845 
L 74.440572 85.252764 
L 74.457021 86.773661 
L 74.555728 88.736045 
L 74.506374 86.145851 
L 74.588628 88.110871 
L 74.753137 84.866004 
L 74.802491 84.831694 
L 74.884745 87.368827 
L 74.934098 86.293547 
L 74.967001 87.705816 
L 74.983452 87.882246 
L 75.065705 90.340573 
L 75.082157 88.979378 
L 75.098608 87.617545 
L 75.16441 90.047427 
L 75.296017 92.871841 
L 75.476978 88.481957 
L 75.592134 86.868069 
L 75.542783 89.296218 
L 75.608585 87.743 
L 75.70729 90.216241 
L 75.740193 89.722806 
L 75.756644 88.163014 
L 75.822446 92.432042 
L 75.8718 91.048944 
L 75.921154 91.428657 
L 75.937605 92.784172 
L 75.986955 89.499394 
L 76.118563 83.801416 
L 76.135014 85.011387 
L 76.167916 86.208712 
L 76.184368 84.672758 
L 76.200819 84.782843 
L 76.25017 82.276177 
L 76.283072 84.84301 
L 76.315975 83.426814 
L 76.365329 82.145186 
L 76.398228 83.514875 
L 76.447582 84.873566 
L 76.464033 84.852011 
L 76.562738 79.997357 
L 76.59564 80.912193 
L 76.628543 80.17241 
L 76.661443 80.993441 
L 76.727248 79.70111 
L 76.79305 84.48127 
L 76.875306 80.577726 
L 76.924657 81.644692 
L 76.957559 83.257281 
L 77.006913 80.065115 
L 77.023364 80.773615 
L 77.056267 78.626141 
L 77.237225 70.668894 
L 77.30303 73.308298 
L 77.335929 70.545201 
L 77.352381 71.687932 
L 77.385283 69.070049 
L 77.451088 71.938885 
L 77.46754 73.345424 
L 77.51689 71.126815 
L 77.549793 71.947122 
L 77.566244 72.124269 
L 77.582696 71.221766 
L 77.615595 71.948903 
L 77.714303 68.876102 
L 77.813007 73.389587 
L 77.829458 72.966703 
L 77.878812 70.760622 
L 77.928163 73.961392 
L 77.977517 77.055785 
L 78.043319 74.860033 
L 78.076222 73.63103 
L 78.109124 74.47161 
L 78.339436 85.041575 
L 78.372338 86.976095 
L 78.405241 85.08645 
L 78.421692 83.641295 
L 78.487494 85.511958 
L 78.503946 85.454265 
L 78.60265 87.105856 
L 78.569748 84.767246 
L 78.619101 86.303076 
L 78.734257 82.32484 
L 78.76716 82.44357 
L 78.964572 87.485421 
L 78.997471 84.067064 
L 79.063277 87.045567 
L 79.079728 87.44037 
L 79.096179 86.154261 
L 79.11263 86.296337 
L 79.178432 86.356584 
L 79.244238 81.017594 
L 79.326491 75.895985 
L 79.359393 78.670135 
L 79.375845 77.724905 
L 79.408744 79.830272 
L 79.425196 77.947154 
L 79.507452 82.383693 
L 79.540351 81.879821 
L 79.803569 72.547986 
L 79.869371 76.774797 
L 79.935176 75.658705 
L 80.050332 72.341529 
L 80.066783 72.510173 
L 80.116134 74.945459 
L 80.165488 71.741073 
L 80.181939 71.249605 
L 80.19839 72.652374 
L 80.23129 71.746517 
L 80.379348 77.978671 
L 80.412251 76.408303 
L 80.428702 75.797551 
L 80.461604 77.414548 
L 80.494504 77.087962 
L 80.543858 78.72248 
L 80.57676 78.084491 
L 80.642562 75.726632 
L 80.691916 76.855392 
L 80.724819 80.336037 
L 80.77417 75.796516 
L 80.971582 68.425008 
L 81.251247 80.598414 
L 81.49801 89.541585 
L 81.317049 80.281189 
L 81.563815 87.507365 
L 81.66252 84.711058 
L 81.695422 85.579662 
L 81.711874 84.807672 
L 81.761224 87.609055 
L 81.942185 94.06918 
L 82.057341 90.098377 
L 82.073793 90.481823 
L 82.139598 93.50864 
L 82.2054 90.865408 
L 82.221851 90.945877 
L 82.287653 88.559251 
L 82.320556 91.73799 
L 82.337007 91.194038 
L 82.36991 93.338993 
L 82.402812 93.803922 
L 82.435712 92.670556 
L 82.616673 89.739669 
L 82.649575 92.290876 
L 82.682478 87.821315 
L 82.698926 87.912963 
L 82.781182 86.866065 
L 82.764731 88.083924 
L 82.797633 87.648214 
L 82.863435 91.353267 
L 82.912789 90.589702 
L 83.044396 88.207859 
L 83.143101 91.162385 
L 83.159552 88.99405 
L 83.324062 85.203381 
L 83.340513 84.986529 
L 83.356965 83.007399 
L 83.439218 85.270417 
L 83.537923 88.243689 
L 83.554374 88.100005 
L 83.685981 82.655368 
L 83.784689 86.700283 
L 83.801137 86.628057 
L 83.817588 84.212429 
L 83.916296 84.572249 
L 83.982098 87.015111 
L 84.047903 86.322568 
L 84.064351 86.442586 
L 84.080802 87.886258 
L 84.130156 84.304465 
L 84.212409 84.674494 
L 84.261763 83.509398 
L 84.278215 83.037598 
L 84.327568 84.30618 
L 84.344017 84.050659 
L 84.607234 95.038714 
L 84.673036 94.365156 
L 84.72239 94.761195 
L 84.788192 93.332434 
L 84.837546 93.01711 
L 84.93625 95.791241 
L 85.084309 98.550932 
L 85.10076 98.345998 
L 85.215916 93.765695 
L 85.232367 94.478871 
L 85.396877 100.631925 
L 85.429779 101.83008 
L 85.512033 101.322622 
L 85.528484 100.611424 
L 85.577835 101.860884 
L 85.594286 101.804307 
L 85.610737 103.570333 
L 85.676542 100.734478 
L 85.692994 101.065072 
L 85.725893 102.74021 
L 85.824601 99.87054 
L 85.956208 95.974899 
L 85.972659 96.866089 
L 86.005559 99.281541 
L 86.087815 98.344398 
L 86.137166 96.38593 
L 86.202971 97.592891 
L 86.219422 97.332992 
L 86.235874 98.785602 
L 86.252325 98.526962 
L 86.285224 98.349283 
L 86.301676 98.82195 
L 86.318127 97.201018 
L 86.367481 99.387192 
L 86.40038 99.260423 
L 86.53199 97.401436 
L 86.548438 97.822342 
L 86.630695 97.007309 
L 86.696497 100.208208 
L 86.745851 98.80371 
L 86.795205 99.873381 
L 86.811653 100.777371 
L 86.844555 99.013735 
L 86.877458 99.728842 
L 87.009065 95.684775 
L 87.041968 96.991775 
L 87.058419 96.88253 
L 87.140672 92.047462 
L 87.173575 92.999079 
L 87.190026 93.659992 
L 87.222929 91.250938 
L 87.239377 91.958091 
L 87.28873 91.114842 
L 87.370984 95.346083 
L 87.420338 94.408614 
L 87.535494 91.093584 
L 87.469692 94.723475 
L 87.568396 92.401355 
L 87.584847 92.099275 
L 87.634201 92.996781 
L 87.667101 94.023564 
L 87.683552 92.913357 
L 87.716455 93.874987 
L 87.798708 91.931247 
L 87.815159 92.33672 
L 87.880964 97.420418 
L 87.946766 95.91043 
L 88.242883 83.804536 
L 88.390941 89.700333 
L 88.407393 89.73087 
L 88.423844 89.582514 
L 88.440295 90.39534 
L 88.506097 88.586026 
L 88.522549 89.162133 
L 88.539 89.344665 
L 88.555451 88.405638 
L 88.604802 87.545933 
L 88.637704 88.830093 
L 88.654156 89.976017 
L 88.687058 85.910821 
L 88.851568 83.285678 
L 88.868019 83.878924 
L 89.147682 96.435658 
L 89.180584 96.000609 
L 89.197036 96.786731 
L 89.312192 94.402256 
L 89.328643 94.813448 
L 89.345094 96.036762 
L 89.394448 91.835642 
L 89.410899 92.980149 
L 89.674113 78.552084 
L 89.723464 79.471578 
L 89.789269 81.901325 
L 89.83862 79.785452 
L 89.953779 83.503848 
L 89.986678 82.42718 
L 90.00313 82.631754 
L 90.019581 81.916455 
L 90.134737 78.33634 
L 90.184091 79.383132 
L 90.200542 79.950008 
L 90.249893 78.528613 
L 90.299247 76.282569 
L 90.365052 77.808638 
L 90.463756 72.955683 
L 90.414402 77.889942 
L 90.496659 75.250424 
L 90.54601 74.4167 
L 90.644717 79.672434 
L 90.792776 72.136353 
L 90.825675 74.172019 
L 90.858578 76.283024 
L 90.924383 73.083836 
L 90.940831 74.709074 
L 91.105341 82.397168 
L 91.121792 84.195382 
L 91.187597 80.505244 
L 91.302753 82.472987 
L 91.319204 81.988174 
L 91.335655 80.870482 
L 91.385006 82.245677 
L 91.417909 81.684887 
L 91.43436 82.850578 
L 91.467263 81.551419 
L 91.483711 82.013506 
L 91.59887 75.622556 
L 91.615321 76.091034 
L 91.664672 77.181115 
L 91.681123 74.438878 
L 91.763376 69.144036 
L 91.796279 73.712696 
L 91.829182 72.275345 
L 91.862084 75.746718 
L 91.894984 73.862617 
L 91.927886 75.304446 
L 91.960789 72.842621 
L 91.97724 73.283326 
L 92.075945 70.622283 
L 92.092396 72.007737 
L 92.273357 77.051031 
L 92.306256 76.196303 
L 92.372061 75.107283 
L 92.437866 79.925436 
L 92.470766 78.028721 
L 92.52012 79.647884 
L 92.701081 84.479292 
L 92.717532 84.494973 
L 92.783334 83.316064 
L 92.750431 84.817451 
L 92.816237 84.504891 
L 92.89849 81.027024 
L 92.931392 82.017357 
L 93.178156 89.9074 
L 93.194607 89.120067 
L 93.309763 87.179002 
L 93.243961 89.458759 
L 93.326214 88.17585 
L 93.342665 88.14162 
L 93.359116 88.876381 
L 93.408467 87.519996 
L 93.44137 88.091137 
L 93.457821 88.16613 
L 93.490724 85.195317 
L 93.540077 88.961469 
L 93.655233 93.040184 
L 93.671685 91.301601 
L 93.704584 90.481283 
L 93.753938 91.533592 
L 93.78684 90.767505 
L 93.803292 91.288064 
L 93.81974 91.032235 
L 93.967798 84.376639 
L 94.017152 80.421775 
L 94.099405 83.012593 
L 94.263915 86.242178 
L 94.296818 84.952765 
L 94.32972 87.115377 
L 94.346172 87.146828 
L 94.411974 85.085654 
L 94.444876 86.867408 
L 94.543581 88.728135 
L 94.477779 86.563625 
L 94.592935 87.837327 
L 94.609386 87.777593 
L 94.658737 85.513449 
L 94.70809 86.201888 
L 94.839698 89.664371 
L 94.856149 88.564706 
L 94.905503 91.796435 
L 94.921951 91.838418 
L 94.954853 91.961321 
L 95.070009 89.013369 
L 95.08646 88.992487 
L 95.218068 92.074784 
L 95.135814 88.945828 
L 95.25097 91.032569 
L 95.283873 90.582372 
L 95.366126 94.123118 
L 95.41548 97.619364 
L 95.481282 94.828267 
L 95.497733 94.401823 
L 95.530636 95.634681 
L 95.662243 98.64291 
L 95.563538 95.19268 
L 95.678694 97.157318 
L 95.760948 90.133323 
L 95.810301 92.798932 
L 95.843204 94.678464 
L 95.909006 94.223777 
L 96.122869 83.692869 
L 96.139321 85.47422 
L 96.205123 85.012632 
L 96.188671 86.000134 
L 96.221574 85.684865 
L 96.270928 86.469955 
L 96.287379 85.59644 
L 96.320279 85.83984 
L 96.33673 85.536527 
L 96.418986 91.13339 
L 96.468337 89.792065 
L 96.665749 82.138788 
L 96.698652 83.923329 
L 96.780905 83.112063 
L 96.87961 86.21909 
L 96.896061 85.494937 
L 96.978314 83.464828 
L 96.945415 85.568811 
L 97.011217 83.521992 
L 97.027668 84.238851 
L 97.077022 82.091388 
L 97.159275 80.863735 
L 97.109925 82.200387 
L 97.175727 82.136619 
L 97.192178 84.913496 
L 97.274431 80.694382 
L 97.290882 80.759886 
L 97.373139 86.666931 
L 97.455392 85.980826 
L 97.586999 82.612927 
L 97.652804 84.426855 
L 97.702155 83.545129 
L 97.718606 83.867112 
L 97.751509 82.413198 
L 97.76796 82.769065 
L 97.866665 78.880667 
L 97.899567 80.40105 
L 97.998272 82.505235 
L 98.014723 81.342513 
L 98.047626 80.885198 
L 98.064077 81.038697 
L 98.080525 78.940423 
L 98.179233 80.468301 
L 98.195684 80.785435 
L 98.212135 79.118604 
L 98.245035 79.718502 
L 98.458899 72.693578 
L 98.47535 74.036173 
L 98.508249 75.878682 
L 98.541152 79.769848 
L 98.623408 77.946665 
L 98.639856 77.947565 
L 98.771467 74.13301 
L 98.804369 74.1701 
L 98.870168 76.011929 
L 98.903071 75.576815 
L 98.919525 74.137951 
L 98.952428 77.754998 
L 98.985324 77.558268 
L 99.051129 77.376185 
L 99.23209 85.314678 
L 99.248538 86.60923 
L 99.314343 83.962848 
L 99.330798 83.568486 
L 99.3637 85.290044 
L 99.413051 84.276983 
L 99.429499 84.90382 
L 99.594012 78.246044 
L 99.61046 78.334505 
L 99.774973 73.90933 
L 99.791421 74.741083 
L 99.807869 75.307166 
L 99.824324 73.520691 
L 99.840772 73.767504 
L 99.857226 73.130403 
L 99.890129 74.329626 
L 99.906577 75.554735 
L 99.93948 72.782557 
L 99.955928 72.890932 
L 100.054635 70.227664 
L 100.087538 70.801019 
L 100.186246 73.929824 
L 100.202694 73.77729 
L 100.334304 67.926823 
L 100.433006 72.719721 
L 100.465908 72.69741 
L 100.482356 72.696015 
L 100.663317 77.15292 
L 100.778473 78.044069 
L 100.69622 77.141797 
L 100.794927 78.007831 
L 100.82783 74.229088 
L 100.910083 76.450351 
L 100.992337 78.746266 
L 100.959434 75.197528 
L 101.025239 76.931068 
L 101.041687 76.899393 
L 101.07459 75.786355 
L 101.15685 76.129767 
L 101.173298 76.042176 
L 101.2062 74.57235 
L 101.239103 76.159926 
L 101.288454 74.969594 
L 101.304902 76.19141 
L 101.387161 74.243202 
L 101.403609 75.049557 
L 101.45296 72.951719 
L 101.518765 66.681701 
L 101.58457 66.804601 
L 101.601019 66.650305 
L 101.666824 64.736302 
L 101.699726 66.456483 
L 101.732629 68.636839 
L 101.749077 67.225235 
L 101.880687 62.306346 
L 101.96294 65.584011 
L 101.995843 63.898052 
L 102.028746 62.545788 
L 102.061648 62.986027 
L 102.078096 65.581963 
L 102.16035 61.238411 
L 102.785486 78.158184 
L 102.80194 76.027306 
L 102.884194 78.420789 
L 102.917096 82.259123 
L 102.982895 79.226971 
L 103.0487 79.649811 
L 103.098051 77.228552 
L 103.114505 79.443016 
L 103.196759 77.850683 
L 103.213213 77.723565 
L 103.229661 79.171727 
L 103.295466 75.844272 
L 103.542226 67.547805 
L 103.608031 69.555691 
L 103.624486 70.855786 
L 103.673836 66.843397 
L 103.690285 67.821884 
L 103.854797 64.506161 
L 103.723187 67.867284 
L 103.871246 64.653292 
L 103.937051 67.684753 
L 103.986401 66.165394 
L 104.002856 65.991191 
L 104.035758 68.349784 
L 104.118012 67.294788 
L 104.13446 66.457995 
L 104.167362 68.961002 
L 104.200265 68.085193 
L 104.216713 69.433129 
L 104.26607 66.391529 
L 104.315421 61.843818 
L 104.414129 63.835943 
L 104.430577 64.624175 
L 104.479927 61.773219 
L 104.51283 60.427148 
L 104.562187 63.547214 
L 104.595089 66.341295 
L 104.660888 63.208287 
L 104.677343 63.313879 
L 104.792499 58.885882 
L 104.808947 59.295874 
L 104.989908 63.630014 
L 105.072161 60.526251 
L 105.105064 61.109623 
L 105.187317 66.186401 
L 105.236674 65.070963 
L 105.286025 60.368115 
L 105.417635 57.126765 
L 105.434083 59.134857 
L 105.516336 58.805486 
L 105.664395 55.081867 
L 105.680849 55.025121 
L 105.697297 54.444292 
L 105.746648 55.448283 
L 105.796005 54.511302 
L 105.894706 58.566657 
L 105.944063 57.34915 
L 105.97696 57.892937 
L 106.092122 54.004321 
L 106.141473 50.597395 
L 106.174375 55.507129 
L 106.371784 63.714709 
L 106.388232 63.124712 
L 106.404687 63.624497 
L 106.421135 62.664882 
L 106.470492 58.082655 
L 106.536291 61.580072 
L 106.569193 62.26363 
L 106.585648 60.245553 
L 106.602096 61.126622 
L 106.634999 59.287197 
L 106.651453 62.599069 
L 106.700804 60.822689 
L 106.81596 62.621141 
L 106.848862 61.935624 
L 106.914667 58.656215 
L 106.964018 59.805263 
L 106.980466 59.624049 
L 107.046271 56.912313 
L 107.079174 60.680451 
L 107.177882 58.175426 
L 107.144979 61.304341 
L 107.19433 59.373705 
L 107.309486 63.708491 
L 107.342388 62.6835 
L 107.5727 65.459929 
L 107.70431 67.398975 
L 107.720758 67.011936 
L 107.737213 66.889957 
L 108.099128 82.51432 
L 107.803012 66.173627 
L 108.148485 81.171813 
L 108.197836 77.813425 
L 108.296544 78.927579 
L 108.4117 82.216516 
L 108.428148 80.997556 
L 108.477498 80.576812 
L 108.526855 82.302617 
L 108.625557 77.165459 
L 108.642011 78.371601 
L 108.674914 80.806207 
L 108.757167 79.190246 
L 108.79007 78.922285 
L 108.806518 80.015262 
L 108.822972 80.238553 
L 108.83942 79.660067 
L 108.987479 74.389066 
L 109.003927 74.535786 
L 109.151986 81.199116 
L 109.250693 79.445685 
L 109.184888 81.522317 
L 109.267148 80.362246 
L 109.382304 82.140965 
L 109.563258 73.950366 
L 109.612615 76.682302 
L 109.661966 73.954961 
L 109.744219 72.972925 
L 109.711317 75.182243 
L 109.777122 73.50991 
L 109.826472 75.175174 
L 109.875829 74.744159 
L 109.908732 73.029117 
L 109.941635 74.985415 
L 109.974531 74.859765 
L 110.270648 67.708847 
L 110.287102 69.514975 
L 110.352907 71.392804 
L 110.385804 69.888767 
L 110.402258 68.180548 
L 110.468063 72.696922 
L 110.484511 72.637375 
L 110.76418 57.33327 
L 110.780628 59.267544 
L 110.862881 55.875062 
L 110.994492 59.094281 
L 111.060291 64.20621 
L 111.109648 62.831001 
L 111.14255 59.853416 
L 111.224803 61.179551 
L 111.339959 66.252474 
L 111.356407 64.854907 
L 111.52092 59.180738 
L 111.586725 61.147226 
L 111.619622 60.066142 
L 111.718329 54.126748 
L 111.76768 57.643102 
L 111.882836 62.274884 
L 111.89929 60.621929 
L 111.915739 58.620025 
L 111.997998 60.775296 
L 112.014446 60.085135 
L 112.063797 62.865675 
L 112.129602 60.867674 
L 112.146057 60.943115 
L 112.27766 55.844202 
L 112.491524 63.446709 
L 112.688933 55.645806 
L 112.738284 58.202648 
L 112.820543 58.127633 
L 113.001498 64.020875 
L 112.869894 57.650987 
L 113.017952 63.757327 
L 113.050855 62.210599 
L 113.083758 63.968189 
L 113.133108 68.348943 
L 113.182459 65.410976 
L 113.412771 54.645148 
L 113.610186 59.837951 
L 113.445673 54.315049 
L 113.643089 57.900208 
L 113.708888 51.149471 
L 113.774693 52.771728 
L 113.807595 53.432714 
L 113.824044 51.649634 
L 113.939206 46.675075 
L 113.972102 48.348073 
L 114.005005 46.300142 
L 114.021459 43.38874 
L 114.103712 46.613689 
L 114.12016 45.025394 
L 114.268219 51.281929 
L 114.284673 50.240665 
L 114.301121 52.130853 
L 114.350478 51.235685 
L 114.383375 53.367991 
L 114.416277 50.052496 
L 114.44918 50.977764 
L 114.465634 50.947429 
L 114.514985 51.990004 
L 114.564336 50.849568 
L 114.613693 49.368278 
L 114.630141 50.656182 
L 114.712394 52.921487 
L 114.745297 52.310132 
L 114.761751 51.942989 
L 114.778199 53.641854 
L 114.811102 52.313337 
L 114.876907 55.551427 
L 114.942706 54.96836 
L 115.173024 43.073504 
L 115.20592 43.480758 
L 115.238823 43.833968 
L 115.255277 43.63211 
L 115.403335 39.665374 
L 115.436238 41.078601 
L 115.452686 39.07233 
L 115.518491 33.513323 
L 115.567842 35.357128 
L 115.617193 39.956299 
L 115.699452 38.181405 
L 115.732349 37.049092 
L 115.748803 37.746228 
L 115.880407 33.724625 
L 115.896861 33.890297 
L 115.946212 36.10975 
L 115.979115 33.670952 
L 116.012017 34.562813 
L 116.04492 32.739873 
L 116.077823 36.84156 
L 116.110725 37.1596 
L 116.127173 36.807447 
L 116.160076 34.884825 
L 116.225881 36.611459 
L 116.242329 38.253939 
L 116.324582 35.837477 
L 116.341037 35.56948 
L 116.357485 35.780815 
L 116.42329 35.138921 
L 116.472641 38.413843 
L 116.587797 33.394938 
L 116.604251 35.528382 
L 116.653602 36.975619 
L 116.670056 35.357601 
L 116.752309 32.517624 
L 116.80166 33.168846 
L 116.916816 29.340512 
L 116.949718 30.871056 
L 117.048426 35.762087 
L 117.081329 33.862003 
L 117.097777 33.881887 
L 117.196485 29.463272 
L 117.229387 31.774402 
L 117.262284 32.3191 
L 117.295186 30.591947 
L 117.311641 33.402448 
L 117.393894 28.814708 
L 117.426796 29.943207 
L 117.525498 25.477607 
L 117.5584 26.794146 
L 117.574855 26.668504 
L 117.739361 33.725187 
L 117.772264 31.804532 
L 117.903874 33.954795 
L 117.805167 31.603621 
L 117.920322 33.353807 
L 117.93677 32.183326 
L 117.953225 34.139826 
L 118.002576 33.502909 
L 118.035478 34.263853 
L 118.068381 31.889197 
L 118.117731 34.211879 
L 118.216439 29.435066 
L 118.298692 30.683448 
L 118.446751 35.946487 
L 118.479653 34.718173 
L 118.496102 34.747073 
L 118.512556 33.749535 
L 118.561907 37.061037 
L 118.64416 34.335293 
L 118.660614 35.555164 
L 118.693517 32.608666 
L 118.77577 34.720912 
L 118.841576 35.180745 
L 118.890926 33.46212 
L 118.973179 36.892557 
L 119.006082 34.14785 
L 119.022536 33.535703 
L 119.055433 35.581828 
L 119.10479 34.454721 
L 119.236394 37.947674 
L 119.285751 34.741567 
L 119.368004 35.763155 
L 119.433809 40.9827 
L 119.532511 40.741022 
L 119.631218 35.933044 
L 119.664121 36.936279 
L 119.762822 39.110498 
L 119.795725 38.510215 
L 119.86153 36.229457 
L 119.910881 37.143415 
L 119.943783 39.552642 
L 119.993134 34.952293 
L 120.141192 31.252361 
L 120.157647 32.251415 
L 120.2399 33.433694 
L 120.206998 31.00129 
L 120.256355 33.09621 
L 120.289251 31.938661 
L 120.338608 33.964993 
L 120.355056 34.060674 
L 120.404407 35.690361 
L 120.437309 33.758862 
L 120.453764 33.81454 
L 120.470212 33.645466 
L 120.486666 34.008069 
L 120.503114 33.946859 
L 120.519569 34.871889 
L 120.56892 33.581411 
L 120.585368 34.221944 
L 120.61827 31.050815 
L 120.716978 31.963981 
L 120.848582 40.046067 
L 120.881484 39.670326 
L 120.897939 39.875172 
L 121.062445 32.341234 
L 121.0789 32.766155 
L 121.111796 30.722941 
L 121.161153 33.799883 
L 121.194056 33.577091 
L 121.259855 34.522732 
L 121.391465 35.960751 
L 121.440816 38.740315 
L 121.555972 41.043832 
L 121.572426 40.593528 
L 121.588874 40.028473 
L 121.605329 41.416166 
L 121.638225 43.193629 
L 121.720484 42.119234 
L 121.736933 41.12551 
L 121.769835 43.22707 
L 121.802738 42.111411 
L 121.884991 47.492861 
L 121.934342 45.971035 
L 122.033049 41.846505 
L 122.065952 40.142956 
L 122.131757 42.223923 
L 122.16466 42.436756 
L 122.181108 42.061324 
L 122.345614 37.560936 
L 122.394971 38.149128 
L 122.526575 42.964476 
L 122.888497 49.126615 
L 122.954302 54.099761 
L 123.020101 52.246001 
L 123.102361 49.041788 
L 123.151712 49.769981 
L 123.217517 51.550712 
L 123.250419 50.648095 
L 123.398478 45.129283 
L 123.447828 45.47517 
L 123.694594 53.937011 
L 123.743945 50.950685 
L 123.892004 48.546333 
L 123.908452 49.178365 
L 124.007159 50.841202 
L 124.089413 53.415436 
L 124.122315 53.21178 
L 124.155218 51.799103 
L 124.188121 54.308082 
L 124.204569 53.800573 
L 124.319725 55.941645 
L 124.336179 55.607549 
L 124.665192 50.285544 
L 124.714549 50.677263 
L 124.747452 49.675654 
L 124.780354 48.976034 
L 124.829705 50.122255 
L 124.846153 49.765782 
L 125.060017 53.91339 
L 125.208075 51.751626 
L 125.240978 51.137148 
L 125.257426 51.847465 
L 125.405484 54.237039 
L 125.619348 50.044681 
L 125.635796 50.229132 
L 125.65225 51.436119 
L 125.701601 49.349924 
L 125.734504 49.904345 
L 125.750958 49.24794 
L 125.767406 51.450086 
L 125.783854 52.384725 
L 125.849659 50.931623 
L 125.866114 50.36887 
L 125.89901 51.592573 
L 125.931913 53.124849 
L 125.997718 51.302661 
L 126.014172 50.850896 
L 126.047069 52.351234 
L 126.079971 51.775805 
L 126.096426 51.895959 
L 126.211581 49.264271 
L 126.244484 50.990531 
L 126.310283 49.688476 
L 126.326737 49.385071 
L 126.343185 50.114326 
L 126.392542 49.731604 
L 126.491244 53.237834 
L 126.540601 52.734294 
L 126.557049 53.240485 
L 126.622854 52.31275 
L 126.639302 52.391997 
L 126.705107 51.301366 
L 126.672205 52.552541 
L 126.721556 52.37495 
L 126.754458 52.78466 
L 126.770913 51.818918 
L 126.787361 52.517463 
L 127.001224 47.594261 
L 127.034127 48.657637 
L 127.083478 47.152972 
L 127.099932 46.086872 
L 127.165731 48.286908 
L 127.182185 46.798808 
L 127.330244 50.573528 
L 127.445399 47.219897 
L 127.461848 49.424334 
L 127.560555 47.876152 
L 127.593458 48.228341 
L 127.642809 47.177776 
L 127.692159 51.050192 
L 127.774419 56.511616 
L 127.82377 54.883368 
L 127.906023 56.848949 
L 127.922477 56.569745 
L 127.938925 55.122171 
L 128.021179 57.352934 
L 128.185692 62.185704 
L 128.20214 61.019077 
L 128.218594 60.04958 
L 128.267945 61.664697 
L 128.284393 61.592252 
L 128.300848 61.781372 
L 128.383101 57.144642 
L 128.416003 58.663894 
L 128.481808 60.410377 
L 128.514705 58.535892 
L 128.629867 57.115162 
L 128.646315 58.160236 
L 128.745023 60.786356 
L 128.761471 59.904149 
L 128.893081 52.786359 
L 128.975334 55.6696 
L 129.024685 57.987139 
L 129.074036 55.859689 
L 129.106938 53.920122 
L 129.156295 56.202411 
L 129.304354 61.166497 
L 129.33725 60.181132 
L 129.435958 52.96526 
L 129.485309 54.09573 
L 129.567568 52.136334 
L 129.551114 54.119505 
L 129.600471 52.744851 
L 129.633367 52.722015 
L 129.699172 55.284341 
L 129.732075 52.912934 
L 130.04464 44.739572 
L 130.110445 47.709922 
L 130.17625 48.877122 
L 130.159796 47.695166 
L 130.192698 47.733918 
L 130.209153 46.826295 
L 130.274958 49.051008 
L 130.291406 49.157555 
L 130.373659 47.917958 
L 130.324308 49.530297 
L 130.390113 48.172241 
L 130.505269 50.031852 
L 130.603971 52.383621 
L 130.719127 52.146153 
L 130.768484 52.492274 
L 130.801386 49.109421 
L 130.93299 46.091134 
L 130.965893 44.827427 
L 130.998795 47.060422 
L 131.015244 47.400042 
L 131.048146 46.70918 
L 131.229107 39.995051 
L 131.31136 40.607627 
L 131.442971 43.343704 
L 131.459419 44.645289 
L 131.541672 42.743924 
L 131.591029 40.923513 
L 131.623932 42.93696 
L 131.64038 42.616211 
L 131.706185 40.642881 
L 131.788438 45.779231 
L 131.821341 46.92778 
L 131.837789 46.448334 
L 131.854243 44.995995 
L 131.887146 47.072833 
L 131.920048 46.62813 
L 132.035204 52.333089 
L 132.051652 51.547815 
L 132.15036 52.533416 
L 132.117458 50.800119 
L 132.166808 52.190437 
L 132.216159 48.449609 
L 132.298419 49.930139 
L 132.364217 49.361461 
L 132.430023 51.848368 
L 132.462925 49.198293 
L 132.512276 52.817461 
L 132.627432 55.79377 
L 132.643886 54.4933 
L 132.660334 53.304176 
L 132.709691 55.13916 
L 132.742594 55.139211 
L 132.759042 55.427672 
L 132.9071 51.314724 
L 133.170315 57.473257 
L 133.186763 57.045187 
L 133.203217 57.051012 
L 133.318373 60.69494 
L 133.466431 55.599544 
L 133.598036 58.527739 
L 133.713198 54.660829 
L 133.746094 55.058264 
L 134.009308 62.183252 
L 134.173821 57.202067 
L 134.223172 58.770034 
L 134.288977 58.105267 
L 134.354782 56.333919 
L 134.387685 56.672552 
L 134.469938 60.484474 
L 134.519289 59.136847 
L 134.70025 56.037463 
L 134.716698 56.349108 
L 134.733152 55.473369 
L 134.979912 47.584012 
L 135.045717 50.423454 
L 135.095074 48.028844 
L 135.259581 40.432338 
L 135.276029 41.556902 
L 135.292483 42.054243 
L 135.341834 41.471737 
L 135.374737 39.664438 
L 135.45699 39.794592 
L 135.555698 43.390465 
L 135.5886 41.752784 
L 135.605048 41.566501 
L 135.637951 42.056537 
L 135.753107 46.162056 
L 135.802457 45.996363 
L 135.884717 48.130013 
L 135.901165 46.469279 
L 135.91762 46.062297 
L 135.96697 47.244051 
L 136.098574 51.480556 
L 136.115029 50.923819 
L 136.180834 48.426531 
L 136.230185 49.00635 
L 136.29599 51.804161 
L 136.34534 50.146008 
L 136.444048 49.168571 
L 136.460496 49.494636 
L 136.476944 49.795398 
L 136.509847 46.32764 
L 136.575652 50.100638 
L 136.592107 50.146412 
L 136.608555 50.06879 
L 136.641457 49.286027 
L 136.690808 52.515169 
L 136.740165 49.959887 
L 136.756613 49.774085 
L 136.773061 48.223639 
L 136.838866 51.076412 
L 136.888217 53.75731 
L 136.954022 52.08316 
L 136.970477 51.881886 
L 137.085632 56.247194 
L 137.102081 55.888735 
L 137.118535 54.840082 
L 137.167886 57.605143 
L 137.200788 58.53823 
L 137.217236 56.667813 
L 137.250139 54.799451 
L 137.29949 56.861874 
L 137.315944 56.675687 
L 137.348847 58.385891 
L 137.414652 56.738423 
L 137.56271 54.063314 
L 137.727217 58.25424 
L 137.743665 57.764251 
L 137.793022 58.784864 
L 137.80947 59.498264 
L 137.875275 57.988904 
L 137.924626 57.17461 
L 138.039782 59.919874 
L 138.056236 59.043853 
L 138.072684 58.939482 
L 138.105587 59.433861 
L 138.286548 52.657472 
L 138.467509 57.639068 
L 138.483957 55.668043 
L 138.697821 50.155512 
L 138.714269 52.752614 
L 138.763626 49.964277 
L 138.796528 51.208959 
L 138.961035 46.932306 
L 139.010386 47.80081 
L 138.993938 46.525893 
L 139.076191 47.214733 
L 139.240697 42.641503 
L 139.257152 43.430935 
L 139.2736 44.921028 
L 139.339405 42.227667 
L 139.35586 42.617925 
L 139.388756 42.904929 
L 139.438113 41.150709 
L 139.503912 45.018434 
L 139.569717 44.235462 
L 139.586171 44.25433 
L 139.602619 44.568692 
L 139.619074 43.389496 
L 139.767132 38.800475 
L 139.832931 38.563051 
L 139.898736 40.903342 
L 139.980989 41.367477 
L 140.046795 38.91944 
L 140.194853 45.489629 
L 140.211301 44.932737 
L 140.277106 44.345445 
L 140.293561 45.473052 
L 140.310009 45.604145 
L 140.35936 48.607124 
L 140.408717 46.020149 
L 140.425165 45.972907 
L 140.441619 45.236527 
L 140.49097 46.640479 
L 140.540321 45.555702 
L 140.704834 50.84466 
L 140.73773 50.924517 
L 140.86934 57.39332 
L 140.885788 56.521736 
L 141.083204 48.204 
L 141.24771 53.733153 
L 141.264165 53.287022 
L 141.280613 52.544854 
L 141.329963 54.882498 
L 141.478022 60.109611 
L 141.510924 59.168878 
L 141.543827 57.200242 
L 141.62608 58.577816 
L 141.642535 58.240027 
L 141.658983 59.113993 
L 141.675437 58.857629 
L 141.757691 60.151678 
L 141.724788 58.385025 
L 141.774139 59.727649 
L 141.938652 53.15576 
L 141.988002 52.577788 
L 142.037353 55.045379 
L 142.168963 49.399923 
L 142.185411 50.239197 
L 142.251217 48.856687 
L 142.284119 49.679006 
L 142.366372 50.451626 
L 142.33347 49.603488 
L 142.382821 50.168044 
L 142.580236 44.238542 
L 142.678937 40.815428 
L 142.71184 42.429954 
L 142.810548 45.420079 
L 142.909255 44.747071 
L 143.09021 49.138211 
L 143.123113 47.729465 
L 143.156015 46.50755 
L 143.238269 47.018407 
L 143.320528 48.527719 
L 143.287626 46.888668 
L 143.336976 47.326991 
L 143.353424 46.922208 
L 143.402781 47.879925 
L 143.41923 48.202609 
L 143.435684 48.019435 
L 143.567288 41.631947 
L 143.485035 48.679787 
L 143.583742 42.313471 
L 143.731801 47.165321 
L 143.814054 43.023645 
L 143.846957 44.35783 
L 143.995015 49.286736 
L 144.044366 47.024357 
L 144.093716 49.158348 
L 144.143073 50.427007 
L 144.17597 49.042169 
L 144.241775 46.620701 
L 144.274677 48.220908 
L 144.30758 50.703957 
L 144.389833 48.81251 
L 144.570794 40.913132 
L 144.6366 42.937151 
L 144.768203 45.107002 
L 144.784658 44.383341 
L 144.850463 45.939345 
L 145.080775 42.456185 
L 145.228833 47.517745 
L 145.245281 46.346841 
L 145.294632 49.405587 
L 145.311086 48.570259 
L 145.327535 48.411206 
L 145.360437 49.12947 
L 145.376892 49.088538 
L 145.409788 49.177359 
L 145.459145 48.27747 
L 145.590749 51.730229 
L 145.607203 51.727627 
L 145.640106 52.036519 
L 145.689457 50.34265 
L 145.77171 46.563393 
L 145.837515 47.785011 
L 145.853963 48.066002 
L 145.870418 46.894699 
L 145.936223 43.343968 
L 145.985573 45.269979 
L 146.15008 49.907304 
L 146.199437 48.716879 
L 146.298138 45.640973 
L 146.314593 46.001194 
L 146.363944 48.046698 
L 146.429749 46.982199 
L 146.462651 45.572217 
L 146.52845 47.801867 
L 146.725865 42.623989 
L 146.758768 43.798435 
L 146.791664 42.177951 
L 146.841021 42.967137 
L 146.923275 42.112905 
L 146.873924 43.267261 
L 146.939723 42.857933 
L 146.972625 43.375114 
L 146.98908 43.263014 
L 147.005528 44.300287 
L 147.03843 42.109624 
L 147.087781 42.586129 
L 147.104236 42.549914 
L 147.23584 44.830683 
L 147.334547 46.848228 
L 147.350996 45.824275 
L 147.400353 43.852942 
L 147.433255 46.344566 
L 147.449703 45.838235 
L 147.466151 45.741915 
L 147.482606 45.933377 
L 147.647112 51.599521 
L 147.696469 51.122377 
L 147.811625 48.377949 
L 147.762268 51.761438 
L 147.844528 49.180938 
L 147.943229 54.660558 
L 148.009034 53.212998 
L 148.321599 42.625689 
L 148.338054 42.522031 
L 148.354502 43.818389 
L 148.403859 41.460747 
L 148.45321 43.047835 
L 148.469658 41.175964 
L 148.519015 45.403256 
L 148.601268 50.154855 
L 148.650619 48.202741 
L 148.765775 51.463502 
L 148.798677 49.293861 
L 148.848028 45.042151 
L 148.930287 45.948427 
L 148.979638 44.907306 
L 148.996086 45.260002 
L 149.144145 50.481734 
L 149.2593 58.95701 
L 149.34156 56.585203 
L 149.440261 50.363778 
L 149.489618 50.979897 
L 149.555417 54.153974 
L 149.604774 52.800554 
L 149.654125 51.582596 
L 149.670573 53.394535 
L 149.71993 50.83658 
L 149.769281 52.587057 
L 149.802184 53.627524 
L 149.851534 52.02054 
L 150.016047 47.39066 
L 150.065398 49.225982 
L 150.147651 51.180786 
L 150.164106 48.681758 
L 150.197008 50.42418 
L 150.246359 47.874401 
L 150.279261 46.900029 
L 150.345067 45.297036 
L 150.377963 46.855764 
L 150.460222 49.460556 
L 150.575378 54.186489 
L 150.608281 52.290905 
L 150.756339 49.291027 
L 150.80569 48.876869 
L 150.789235 49.650205 
L 150.838592 49.304932 
L 150.920846 52.537259 
L 150.970196 52.426954 
L 151.003099 53.603066 
L 151.068904 55.62119 
L 151.101807 54.230608 
L 151.118255 53.292668 
L 151.167612 55.16306 
L 151.200508 54.600071 
L 151.315664 57.660171 
L 151.381469 55.247938 
L 151.43082 57.201289 
L 151.447274 58.768962 
L 151.496625 55.593399 
L 151.529534 56.604247 
L 151.56243 57.191811 
L 151.611781 56.038531 
L 151.677586 56.698144 
L 151.743391 54.007849 
L 151.776287 53.579599 
L 151.792742 55.069386 
L 151.858547 52.356185 
L 151.924352 50.788865 
L 151.891443 52.61389 
L 151.957248 52.345438 
L 151.990157 53.562838 
L 152.055962 52.385225 
L 152.072404 52.295677 
L 152.171118 56.185217 
L 152.204014 54.696248 
L 152.220469 53.425798 
L 152.286274 56.84961 
L 152.631742 66.415558 
L 152.648196 66.4616 
L 152.664638 66.89253 
L 152.697547 66.514679 
L 152.845599 60.127722 
L 152.911404 58.001102 
L 152.960755 58.350534 
L 153.075911 60.030099 
L 153.10882 58.596584 
L 153.174625 60.126331 
L 153.191066 60.429186 
L 153.207521 60.386976 
L 153.322677 57.500601 
L 153.454287 60.175508 
L 153.766858 51.62301 
L 153.816209 51.079257 
L 153.832651 49.623199 
L 153.898456 52.998308 
L 153.99717 55.402564 
L 154.030066 53.640592 
L 154.046521 53.325591 
L 154.079417 54.542874 
L 154.112326 54.312293 
L 154.128768 55.155355 
L 154.243924 57.030805 
L 154.260378 56.980688 
L 154.293287 58.51719 
L 154.359079 57.448025 
L 154.391988 56.17437 
L 154.441339 58.531685 
L 154.474235 58.245427 
L 154.49069 58.524102 
L 154.655196 61.577771 
L 154.688105 59.409348 
L 154.770352 59.890362 
L 154.786807 59.838454 
L 154.803261 60.049378 
L 154.934871 61.382084 
L 154.951313 61.351176 
L 155.214534 68.918348 
L 155.477742 64.732697 
L 155.576456 67.307636 
L 155.527105 64.579293 
L 155.625806 66.446635 
L 155.675157 65.446806 
L 155.691612 66.61561 
L 155.724508 67.435054 
L 155.773859 65.989573 
L 155.790313 65.477527 
L 155.823222 66.869188 
L 155.856118 69.598738 
L 155.938378 67.840796 
L 156.08643 70.925413 
L 156.102884 70.572361 
L 156.21804 69.154964 
L 156.234494 69.281105 
L 156.34965 72.039328 
L 156.283845 69.161817 
L 156.382547 71.601023 
L 156.431897 69.475974 
L 156.497702 70.473622 
L 156.530599 70.187348 
L 156.563508 70.826883 
L 156.579962 70.862415 
L 156.612858 70.312576 
L 156.645767 70.794386 
L 156.695118 72.105941 
L 156.744469 70.603159 
L 156.777365 70.003448 
L 156.908975 67.125486 
L 156.958326 69.337451 
L 157.007677 67.785892 
L 157.073482 65.995255 
L 157.106391 67.175735 
L 157.139287 67.735229 
L 157.155741 67.100801 
L 157.172196 67.265077 
L 157.221546 67.788444 
L 157.353157 62.937801 
L 157.369599 64.216118 
L 157.418949 61.95477 
L 157.451858 62.774369 
L 157.55056 64.177369 
L 157.484754 62.288815 
L 157.583468 62.953024 
L 157.698624 59.415485 
L 157.715066 60.176786 
L 157.81378 61.831841 
L 157.846676 60.978409 
L 158.044092 63.891661 
L 158.175702 66.013873 
L 158.192144 65.72264 
L 158.257949 66.089534 
L 158.274404 66.595028 
L 158.3073 65.448495 
L 158.356651 66.532923 
L 158.373105 65.877186 
L 158.422456 67.619821 
L 158.43891 67.131668 
L 158.455365 67.059251 
L 158.471806 66.119245 
L 158.52117 68.265731 
L 158.554066 67.619707 
L 158.57052 67.424215 
L 158.603417 69.531967 
L 158.685676 68.855777 
L 158.702131 68.83224 
L 158.767923 66.894043 
L 158.833728 67.167098 
L 158.899533 66.261387 
L 158.965339 68.803865 
L 159.047598 67.125596 
L 159.080494 67.212674 
L 159.096949 67.238894 
L 159.245001 70.369336 
L 159.425962 67.577083 
L 159.557572 71.603273 
L 159.574027 71.179578 
L 159.689183 68.894973 
L 159.738533 69.461144 
L 159.853689 73.370191 
L 159.886585 72.645282 
L 159.90304 71.120366 
L 159.968845 74.299875 
L 160.067546 71.952915 
L 160.116897 72.782946 
L 160.248507 75.254788 
L 160.281416 74.586082 
L 160.413014 72.415589 
L 160.445923 72.930062 
L 160.478819 73.540535 
L 160.52817 72.368674 
L 160.725585 70.234782 
L 160.626884 72.481887 
L 160.74204 70.530342 
L 160.939443 73.964872 
L 160.774936 70.228681 
L 160.988806 73.512634 
L 161.071053 73.180619 
L 161.038157 73.528711 
L 161.087507 73.355952 
L 161.153312 75.225786 
L 161.202663 73.697162 
L 161.284923 70.808801 
L 161.350715 71.72247 
L 161.49878 75.446173 
L 161.531676 74.454769 
L 161.646832 71.065378 
L 161.679741 72.183514 
L 161.696195 72.276832 
L 161.729092 71.253812 
L 161.794897 71.845234 
L 161.811351 72.761296 
L 161.893598 71.952129 
L 161.910053 71.906935 
L 161.942949 73.255326 
L 162.008754 71.831211 
L 162.025209 71.854407 
L 162.140364 69.372676 
L 162.173261 70.422162 
L 162.239066 68.912868 
L 162.288429 69.97007 
L 162.485832 74.047324 
L 162.518741 73.620542 
L 162.633897 71.514218 
L 162.650338 72.428415 
L 162.699702 73.850569 
L 162.749052 72.324427 
L 162.913559 67.828535 
L 162.96291 68.498783 
L 163.078066 73.131413 
L 163.127416 72.386616 
L 163.143871 71.521453 
L 163.193221 72.674193 
L 163.242572 71.858173 
L 163.275481 71.794141 
L 163.439988 66.229888 
L 163.489338 67.059182 
L 163.505793 67.251437 
L 163.538689 66.546398 
L 163.58804 65.235651 
L 163.653845 66.22316 
L 163.71965 66.835678 
L 163.752559 66.703509 
L 163.818351 64.998216 
L 163.85126 67.449814 
L 163.999312 71.61959 
L 164.015767 70.853753 
L 164.065118 72.400708 
L 164.114468 71.197624 
L 164.147377 69.334768 
L 164.213182 66.361628 
L 164.262533 68.581896 
L 164.525741 72.411438 
L 164.542195 72.072922 
L 164.739611 67.284998 
L 164.756065 67.419957 
L 164.788962 67.082403 
L 164.953468 63.082502 
L 164.969923 64.059395 
L 165.068624 67.066116 
L 165.085078 66.537665 
L 165.101533 66.531968 
L 165.249585 69.639054 
L 165.266039 68.514857 
L 165.31539 70.706985 
L 165.331845 70.261791 
L 165.627961 76.558594 
L 165.677312 77.224929 
L 165.743117 76.087848 
L 165.759559 76.740626 
L 165.825364 75.163901 
L 165.841819 75.254315 
L 165.858273 74.822562 
L 165.874715 74.553472 
L 165.907624 75.635554 
L 165.94052 75.735923 
L 165.989883 76.141572 
L 166.02278 75.332351 
L 166.055676 76.963491 
L 166.137936 75.575926 
L 166.253091 76.872464 
L 166.170832 75.480979 
L 166.285988 76.781114 
L 166.302442 76.748261 
L 166.318897 77.574967 
L 166.368247 75.588491 
L 166.401156 76.582402 
L 166.417598 76.642412 
L 166.434052 76.028995 
L 166.483403 77.223857 
L 166.516312 77.025879 
L 166.598559 78.264823 
L 166.615013 77.278554 
L 166.69726 76.19931 
L 166.730169 76.76533 
L 166.77952 77.819078 
L 166.845325 77.293619 
L 166.993377 78.633002 
L 166.894676 77.246766 
L 167.009832 78.475101 
L 167.273052 74.327791 
L 167.338857 75.072569 
L 167.421104 77.224965 
L 167.470455 76.560462 
L 167.569169 75.576048 
L 167.585611 76.220985 
L 167.980442 69.948982 
L 167.634974 76.745963 
L 167.996884 70.735669 
L 168.062689 72.3191 
L 168.128494 71.886775 
L 168.276559 69.859988 
L 168.473961 63.519856 
L 168.490416 64.304281 
L 168.622026 66.438416 
L 168.654922 65.317912 
L 168.687831 67.593406 
L 168.720728 66.659339 
L 168.786533 68.12668 
L 168.802987 67.520065 
L 168.918143 65.244776 
L 168.951039 66.596786 
L 169.033299 65.637897 
L 169.132 63.658885 
L 169.148455 64.211944 
L 169.164909 64.845774 
L 169.21426 63.361045 
L 169.345857 59.595098 
L 169.362312 60.622465 
L 169.428117 59.207619 
L 169.395221 61.009346 
L 169.461013 60.468683 
L 169.493922 61.588588 
L 169.543273 59.829508 
L 169.559727 59.305708 
L 169.592624 61.661196 
L 169.625532 60.731787 
L 169.75713 59.424024 
L 169.691338 60.820864 
L 169.773585 59.547129 
L 169.872286 52.95315 
L 169.905195 54.255396 
L 169.938091 53.481968 
L 170.036805 56.25745 
L 170.135507 54.653624 
L 170.10261 56.3195 
L 170.184857 55.277825 
L 170.283559 56.885557 
L 170.300013 56.401332 
L 170.316468 53.572569 
L 170.398727 55.929337 
L 170.448078 58.510825 
L 170.497429 55.27204 
L 170.612584 57.721553 
L 170.546779 54.08318 
L 170.629039 56.717511 
L 170.777091 58.635406 
L 170.925156 54.431522 
L 170.941598 53.949547 
L 170.974506 55.670855 
L 171.073208 56.547068 
L 171.040312 54.896274 
L 171.089662 55.931081 
L 171.270623 52.104589 
L 171.122558 56.030103 
L 171.303519 52.466142 
L 171.451584 55.419725 
L 171.468026 54.572383 
L 171.484481 56.457799 
L 171.56674 54.892978 
L 171.583182 55.76001 
L 171.648987 54.052984 
L 171.698338 51.556647 
L 171.747701 53.306419 
L 171.813494 56.975656 
L 171.862857 55.31352 
L 171.879299 54.099239 
L 171.945104 56.959104 
L 171.961558 56.877353 
L 171.978013 55.209028 
L 172.027364 57.069836 
L 172.076714 56.171635 
L 172.10961 56.617997 
L 172.126065 55.969165 
L 172.372831 48.233818 
L 172.175416 56.799354 
L 172.389285 49.201171 
L 172.438636 51.336854 
L 172.487987 49.332301 
L 172.504441 49.297579 
L 172.586688 46.407761 
L 172.636039 47.509298 
L 172.685402 48.315943 
L 172.701844 46.2248 
L 172.718299 46.146628 
L 172.866363 50.405008 
L 172.751195 45.664209 
L 172.882805 50.324116 
L 173.014416 47.8337 
L 172.965065 51.092358 
L 173.03087 47.867122 
L 173.096675 46.476716 
L 173.146026 49.0367 
L 173.195377 47.336091 
L 173.228273 49.168659 
L 173.244727 49.930481 
L 173.261182 47.74703 
L 173.294078 48.067247 
L 173.326987 47.049579 
L 173.359883 48.598153 
L 173.376337 48.373864 
L 173.392792 49.496812 
L 173.458584 46.572871 
L 173.491493 44.492957 
L 173.57374 46.115236 
L 173.590195 45.935634 
L 173.606649 46.014827 
L 173.623104 46.857103 
L 173.672454 44.929911 
L 173.771156 43.74359 
L 173.78761 44.019828 
L 173.820506 43.392723 
L 173.853415 41.38941 
L 173.902766 43.638978 
L 173.91922 43.025036 
L 173.968571 44.11657 
L 174.001467 42.227318 
L 174.017922 41.254907 
L 174.083727 43.727659 
L 174.149532 45.547634 
L 174.198883 44.012057 
L 174.231779 42.295774 
L 174.297584 43.098921 
L 174.379844 47.78076 
L 174.462091 46.354491 
L 174.478545 46.341207 
L 174.495 47.794665 
L 174.560805 44.305074 
L 174.725311 37.685429 
L 174.741766 37.551473 
L 174.758208 37.742832 
L 174.840467 43.324532 
L 174.873364 40.889977 
L 175.054324 34.689776 
L 175.087233 34.389712 
L 175.185935 37.397724 
L 175.202389 36.320737 
L 175.268194 38.904885 
L 175.284636 39.109448 
L 175.301091 38.803716 
L 175.399792 35.462823 
L 175.416246 36.738878 
L 175.564311 39.564642 
L 175.613662 40.550665 
L 175.646558 39.66134 
L 175.761714 33.738295 
L 175.893324 34.657892 
L 176.024935 40.418599 
L 176.041376 38.175524 
L 176.189441 34.033841 
L 176.238792 35.447769 
L 176.321051 35.341024 
L 176.353948 34.126417 
L 176.419753 35.153302 
L 176.485558 36.930145 
L 176.534909 36.446203 
L 176.567818 36.967969 
L 176.650065 35.240512 
L 176.666519 35.495335 
L 176.71587 38.442303 
L 176.798129 38.246983 
L 176.84748 41.187798 
L 176.913285 39.874059 
L 176.946182 38.850151 
L 176.995532 40.665188 
L 177.077792 40.25216 
L 177.127142 43.109797 
L 177.160039 42.90842 
L 177.192948 43.013381 
L 177.341 37.760228 
L 177.357454 40.077921 
L 177.390363 36.551924 
L 177.439714 37.096771 
L 177.521961 34.139859 
L 177.571311 34.75306 
L 177.653571 34.708548 
L 177.702922 37.064395 
L 177.719376 36.00382 
L 177.785181 37.652686 
L 177.801636 37.489041 
L 177.818077 37.449463 
L 177.883883 36.281687 
L 177.900337 37.286332 
L 177.982584 41.012161 
L 178.031947 40.928563 
L 178.081298 35.978404 
L 178.147103 38.198778 
L 178.22935 39.977695 
L 178.262259 38.538582 
L 178.360961 34.682468 
L 178.377415 35.853892 
L 178.44322 40.845131 
L 178.509025 38.28115 
L 178.525467 36.965135 
L 178.591272 39.705694 
L 178.607727 42.047041 
L 178.689974 39.828138 
L 178.755779 36.522125 
L 178.805129 37.674751 
L 178.838038 39.442127 
L 178.920298 38.847141 
L 178.98609 35.432815 
L 179.051896 36.519261 
L 179.315116 42.828255 
L 179.348012 43.894986 
L 179.364467 42.428493 
L 179.380921 42.900099 
L 179.397363 42.123103 
L 179.446726 44.783345 
L 179.611233 48.225485 
L 179.69348 48.463551 
L 179.808636 43.861623 
L 179.82509 43.781311 
L 179.857999 41.17726 
L 179.90735 44.511072 
L 179.923792 43.894406 
L 180.071856 47.804161 
L 180.104753 45.699661 
L 180.187012 45.803466 
L 180.236363 49.964776 
L 180.302168 47.025396 
L 180.384428 43.55904 
L 180.433778 44.9286 
L 180.581831 51.051638 
L 180.696986 47.0258 
L 180.713441 47.143003 
L 180.779246 50.510483 
L 180.845051 49.04997 
L 180.894402 47.406352 
L 180.976661 50.077376 
L 181.124714 45.371838 
L 181.322129 50.090767 
L 181.15761 44.797691 
L 181.338571 49.847573 
L 181.667597 42.567996 
L 181.700493 43.35545 
L 181.766298 45.810701 
L 181.815649 44.600411 
L 181.832103 43.194767 
L 181.881454 45.877593 
L 181.930804 48.365872 
L 181.963713 45.650495 
L 181.99661 44.022269 
L 182.04596 46.09936 
L 182.062415 45.824591 
L 182.078869 45.651772 
L 182.177571 49.088589 
L 182.210479 48.380464 
L 182.342077 50.550032 
L 182.276272 47.881596 
L 182.374986 49.413376 
L 182.391428 49.498152 
L 182.407882 49.000932 
L 182.621752 41.814203 
L 182.687545 43.932189 
L 182.703999 44.204507 
L 182.835609 49.312372 
L 182.96722 46.164901 
L 183.01657 47.018579 
L 183.164623 52.05161 
L 183.181077 51.17177 
L 183.411389 59.286587 
L 183.427843 58.331043 
L 183.460739 56.391373 
L 183.526545 58.2356 
L 183.542999 59.37234 
L 183.59235 57.584308 
L 183.6417 53.327863 
L 183.72396 54.393603 
L 183.740402 53.828045 
L 183.773311 55.846485 
L 183.789765 57.445301 
L 183.839116 54.750586 
L 183.872012 55.157998 
L 183.954272 55.053022 
L 183.970726 56.637269 
L 184.036519 54.082633 
L 184.085882 55.170056 
L 184.118778 57.213916 
L 184.201038 56.013926 
L 184.34909 49.250315 
L 184.381999 50.536622 
L 184.546505 55.285527 
L 184.678116 53.243208 
L 184.743908 55.098568 
L 184.793271 54.29076 
L 184.826168 54.388207 
L 184.957778 51.57191 
L 185.05648 53.131886 
L 185.023583 51.332644 
L 185.072934 52.723278 
L 185.10583 51.078556 
L 185.204544 51.271464 
L 185.336142 47.573745 
L 185.237441 51.273494 
L 185.369051 49.537965 
L 185.517103 54.172966 
L 185.533557 53.687162 
L 185.566454 54.814277 
L 185.632259 58.693334 
L 185.681609 56.97244 
L 185.747415 57.898395 
L 185.796765 55.383976 
L 185.81322 55.74126 
L 185.829674 55.285255 
L 185.911934 53.096687 
L 185.961284 53.401905 
L 185.994181 53.064164 
L 186.010635 53.152156 
L 186.02709 54.698344 
L 186.092882 51.596229 
L 186.208038 53.815741 
L 186.240947 52.891265 
L 186.273843 50.582396 
L 186.339648 52.877867 
L 186.372557 53.809809 
L 186.405454 52.45346 
L 186.421908 52.636432 
L 186.438362 49.925411 
L 186.487713 54.583083 
L 186.537064 51.609436 
L 186.553518 51.29307 
L 186.586414 52.496334 
L 186.635765 52.159247 
L 186.685116 53.700579 
L 186.750921 51.87192 
L 186.78383 54.504309 
L 186.800272 55.312569 
L 186.849635 52.777748 
L 186.866077 52.621415 
L 186.882531 53.310779 
L 186.898986 52.846563 
L 187.030583 48.709325 
L 187.343155 58.233673 
L 187.474765 54.052386 
L 187.507661 55.140665 
L 187.557024 53.036204 
L 187.589921 54.288873 
L 187.606375 54.841308 
L 187.622817 53.595643 
L 187.639272 53.843646 
L 187.67218 51.092794 
L 187.770882 51.319598 
L 187.787336 51.248779 
L 187.836687 53.593856 
L 187.902492 51.680667 
L 188.03409 47.51911 
L 188.066999 48.490068 
L 188.083453 49.335887 
L 188.149246 47.494263 
L 188.1657 47.689216 
L 188.182155 46.575683 
L 188.264402 45.067901 
L 188.280856 45.891042 
L 188.313765 47.618282 
L 188.363116 47.010959 
L 188.428921 44.708308 
L 188.461817 48.019024 
L 188.675674 56.129521 
L 188.725037 54.878497 
L 188.889544 50.455951 
L 189.070505 55.342317 
L 189.13631 53.042445 
L 189.185661 54.608932 
L 189.300817 57.287265 
L 189.317271 57.149065 
L 189.531128 52.102886 
L 189.366622 57.316146 
L 189.547583 52.604349 
L 189.580479 54.548339 
L 189.646284 53.327848 
L 189.744986 51.057052 
L 189.76144 52.227867 
L 189.777895 52.497167 
L 189.794336 51.853926 
L 189.810791 51.888563 
L 189.8437 51.161837 
L 189.860142 52.037947 
L 189.909505 54.379339 
L 189.958856 52.895538 
L 189.991752 52.03015 
L 190.024661 53.981787 
L 190.074011 52.696008 
L 190.205609 49.16312 
L 190.238518 50.138098 
L 190.353674 52.208108 
L 190.287869 49.034182 
L 190.370128 51.410948 
L 190.403025 51.609245 
L 190.419479 51.084998 
L 190.435933 53.027101 
L 190.51818 51.074147 
L 190.567531 48.878697 
L 190.649791 49.022689 
L 190.666245 49.007874 
L 190.682687 49.745277 
L 190.715596 47.38827 
L 190.748492 48.389975 
L 190.764947 47.339673 
L 190.814297 49.964156 
L 190.929453 52.962705 
L 190.945908 52.377182 
L 190.962362 51.751703 
L 191.011713 54.08267 
L 191.044609 55.072091 
L 191.09396 53.273136 
L 191.22557 54.016703 
L 191.242024 53.205715 
L 191.307829 55.357598 
L 191.324271 55.803079 
L 191.35718 55.352228 
L 191.48879 49.751341 
L 191.521687 49.826936 
L 191.620388 47.211275 
L 191.686193 47.945599 
L 191.817804 50.666361 
L 191.834258 49.969031 
L 191.867154 52.71554 
L 191.900063 51.386619 
L 191.916505 51.632786 
L 191.949414 48.694114 
L 192.031661 50.954598 
L 192.097466 52.989696 
L 192.06457 50.729758 
L 192.19618 52.259234 
L 192.360687 49.755717 
L 192.261973 52.643512 
L 192.377141 50.218553 
L 192.508739 54.929491 
L 192.525193 54.623307 
L 192.640349 49.817048 
L 192.656803 50.316264 
L 192.788414 52.326184 
L 192.870661 48.880543 
L 192.95292 50.580873 
L 193.100972 53.886102 
L 193.035167 50.422896 
L 193.117427 53.209093 
L 193.150323 51.547107 
L 193.183232 54.530782 
L 193.265479 57.537539 
L 193.298388 55.063513 
L 193.314842 55.311449 
L 193.331284 54.456329 
L 193.364193 54.577474 
L 193.479349 50.881092 
L 193.5287 51.328988 
L 193.561596 54.217881 
L 193.610959 51.158479 
L 193.693206 48.515466 
L 193.726115 50.45573 
L 193.775466 53.213732 
L 193.824816 50.740433 
L 193.989323 44.980391 
L 194.022232 42.738986 
L 194.055128 45.893825 
L 194.104479 43.074407 
L 194.137388 43.531264 
L 194.153829 42.475761 
L 194.236089 44.254183 
L 194.41705 51.44564 
L 194.433504 50.060748 
L 194.663816 45.901203 
L 194.762518 46.08148 
L 194.861219 52.271872 
L 194.894128 49.379602 
L 194.91057 49.09175 
L 194.943479 50.205221 
L 194.976375 49.848098 
L 194.992829 52.24817 
L 195.075089 51.302338 
L 195.17379 49.887412 
L 195.140881 51.799654 
L 195.190245 50.461559 
L 195.239595 49.09273 
L 195.272492 49.559006 
L 195.288946 50.937687 
L 195.371206 49.237684 
L 195.387648 50.393533 
L 195.420556 48.965499 
L 195.486362 50.46157 
L 195.552154 51.608474 
L 195.568609 50.436452 
L 195.585063 51.30834 
L 195.700219 49.217128 
L 195.74957 50.337723 
L 195.79892 47.308307 
L 195.864726 48.555907 
L 195.88118 48.718506 
L 195.897634 47.885149 
L 195.946985 45.525686 
L 195.996336 48.412539 
L 196.078595 51.644293 
L 196.095037 49.328659 
L 196.111492 48.216481 
L 196.160842 51.63878 
L 196.177297 51.551589 
L 196.243102 55.952437 
L 196.308907 54.355416 
L 196.325349 54.25286 
L 196.341803 54.654497 
L 196.358258 54.60361 
L 196.391154 52.053015 
L 196.456959 54.849219 
L 196.50631 54.381798 
L 196.539219 52.536228 
L 196.588569 54.831559 
L 196.605024 54.570848 
L 196.654375 53.095733 
L 196.670816 53.499896 
L 196.785972 59.206683 
L 196.818881 58.988953 
L 196.884686 59.443846 
L 196.934037 58.12267 
L 196.950491 59.985863 
L 196.999842 56.194016 
L 197.016296 56.520954 
L 197.131452 55.008551 
L 197.082089 56.816973 
L 197.147894 55.560109 
L 197.164349 55.809033 
L 197.197245 54.921136 
L 197.230154 55.168591 
L 197.39466 49.870618 
L 197.493362 48.619157 
L 197.460466 50.087379 
L 197.509816 48.817384 
L 197.542725 48.323883 
L 197.756582 51.856323 
L 197.773037 48.998667 
L 197.855284 52.541642 
L 198.01979 45.342215 
L 198.052699 46.631368 
L 198.217206 49.617895 
L 198.23366 49.165682 
L 198.250115 50.337268 
L 198.283011 49.33755 
L 198.447517 53.360004 
L 198.463972 52.674398 
L 198.496868 55.175882 
L 198.529777 54.397832 
L 198.579128 55.515968 
L 198.595582 55.385176 
L 198.743634 51.886584 
L 198.875245 54.644428 
L 198.776543 51.56839 
L 198.908141 52.77422 
L 198.924595 51.971723 
L 198.973946 53.932239 
L 199.023297 52.34808 
L 199.039751 52.401398 
L 199.187816 48.409763 
L 199.204258 48.742303 
L 199.220712 47.53278 
L 199.319414 45.708038 
L 199.286517 48.466238 
L 199.335868 46.055007 
L 199.516829 55.72313 
L 199.549725 53.95415 
L 199.56618 53.982223 
L 199.582634 54.346005 
L 199.61553 53.518844 
L 199.648439 53.693388 
L 199.714244 52.393319 
L 199.763595 53.32159 
L 199.944556 60.676869 
L 199.977452 60.670269 
L 200.010361 60.012219 
L 200.043258 61.756958 
L 200.059712 61.806212 
L 200.240673 59.673546 
L 200.273569 59.575453 
L 200.355829 57.003561 
L 200.388725 58.733749 
L 200.40518 58.369483 
L 200.421634 58.520357 
L 200.45453 61.486931 
L 200.53679 59.794555 
L 200.684842 62.476503 
L 200.717751 61.401039 
L 200.832907 56.130075 
L 200.882257 57.192541 
L 200.898712 57.625174 
L 200.915154 56.660912 
L 200.931608 56.673202 
L 200.948062 55.415919 
L 200.997413 57.868445 
L 201.030309 57.064704 
L 201.046764 57.27924 
L 201.07966 56.836252 
L 201.145465 54.856168 
L 201.178374 56.728318 
L 201.244179 58.662055 
L 201.309984 58.627811 
L 201.326426 58.314187 
L 201.359335 58.814362 
L 201.392232 60.961883 
L 201.441582 57.646186 
L 201.458037 56.578038 
L 201.523842 58.204924 
L 201.606089 58.924498 
L 201.573193 56.991833 
L 201.638998 58.402409 
L 201.770608 52.347934 
L 201.803504 54.291256 
L 201.885764 55.882 
L 201.902206 54.153823 
L 201.968011 55.993641 
L 202.017361 55.345826 
L 202.13253 53.45755 
L 202.148972 53.669084 
L 202.181881 54.021298 
L 202.297036 50.380572 
L 202.313478 49.073492 
L 202.379283 50.360967 
L 202.560244 58.05442 
L 202.642504 53.533171 
L 202.691855 54.263751 
L 202.774114 56.034291 
L 202.790556 54.527266 
L 202.938621 51.412068 
L 203.053777 53.380421 
L 203.070231 52.388268 
L 203.267634 49.051324 
L 203.103127 53.002536 
L 203.284088 49.904488 
L 203.300543 50.929347 
L 203.349894 47.544559 
L 203.38279 46.888029 
L 203.415699 48.105096 
L 203.465049 50.729476 
L 203.530855 49.184833 
L 203.580205 46.768797 
L 203.629556 49.402217 
L 203.678907 49.34295 
L 203.794062 51.30885 
L 203.925673 44.408064 
L 203.942127 45.794564 
L 204.007932 45.689089 
L 204.057283 47.719804 
L 204.172439 43.034018 
L 204.22179 43.352143 
L 204.238244 44.456969 
L 204.287595 41.315206 
L 204.320491 42.644076 
L 204.3534 41.884328 
L 204.419205 42.397321 
L 204.517907 46.312516 
L 204.567257 46.161785 
L 204.583712 46.053564 
L 204.715322 40.392074 
L 204.748218 42.541225 
L 204.814023 41.808652 
L 204.863374 43.946278 
L 204.89627 43.001672 
L 204.929179 46.339628 
L 204.962075 47.275252 
L 204.97853 48.173184 
L 205.011439 45.295472 
L 205.027881 43.638306 
L 205.093686 45.872945 
L 205.11014 45.355342 
L 205.126595 45.609115 
L 205.143036 45.503691 
L 205.225296 41.659095 
L 205.258192 43.22141 
L 205.373348 45.252631 
L 205.422711 46.835714 
L 205.488504 43.69452 
L 205.620114 50.561837 
L 205.653023 48.787556 
L 205.685919 52.128178 
L 205.702374 51.860092 
L 205.718816 51.778591 
L 205.850426 54.383857 
L 205.86688 54.079432 
L 205.883335 55.337897 
L 205.965582 59.941073 
L 206.014933 56.356376 
L 206.311049 44.813156 
L 206.360413 42.51005 
L 206.426205 42.929292 
L 206.557816 47.972035 
L 206.459114 42.429543 
L 206.57427 47.062048 
L 206.689426 41.517284 
L 206.771685 41.526307 
L 206.788127 41.665729 
L 206.936192 45.198521 
L 207.034893 48.459025 
L 207.084244 48.064068 
L 207.232309 40.12763 
L 207.133595 49.442012 
L 207.265205 41.196883 
L 207.28166 41.724673 
L 207.314556 39.958846 
L 207.33101 39.34954 
L 207.380361 41.423218 
L 207.396815 41.486064 
L 207.429712 43.099053 
L 207.479075 40.018943 
L 207.544867 38.011174 
L 207.594231 38.413895 
L 207.643581 37.337627 
L 207.692932 38.908831 
L 207.742283 38.023926 
L 207.758737 39.348281 
L 207.791634 40.588602 
L 207.840984 39.278269 
L 207.857439 38.60724 
L 207.906789 40.084932 
L 207.923244 39.769223 
L 208.054854 44.093948 
L 208.153556 43.389067 
L 208.30162 41.215024 
L 208.350971 44.602569 
L 208.383867 47.344897 
L 208.482569 46.484112 
L 208.597725 44.399742 
L 208.548374 46.809424 
L 208.614179 44.714655 
L 208.778686 48.842 
L 208.92675 44.807605 
L 208.828049 49.549928 
L 208.976101 46.152179 
L 208.992555 46.702661 
L 209.058361 45.324823 
L 209.222867 39.532828 
L 209.272218 41.617891 
L 209.305114 41.951804 
L 209.436725 40.292538 
L 209.354477 42.407919 
L 209.453179 40.400491 
L 209.469633 40.486515 
L 209.518984 39.151287 
L 209.55188 40.215236 
L 209.601231 41.465996 
L 209.63414 40.15954 
L 209.667036 41.078664 
L 209.683491 40.754387 
L 209.716387 42.187006 
L 209.732841 41.323634 
L 209.749296 42.482494 
L 209.798646 38.447563 
L 209.815101 38.742418 
L 209.847997 37.892694 
L 209.880906 35.917737 
L 209.963153 37.47579 
L 209.996062 37.846083 
L 210.012504 37.166791 
L 210.12766 40.76269 
L 210.144114 40.018184 
L 210.275724 36.417942 
L 210.325075 37.25697 
L 210.39088 38.048135 
L 210.374426 36.368713 
L 210.407334 37.812965 
L 210.555387 33.127077 
L 210.571841 32.776367 
L 210.588295 34.835116 
L 210.588295 34.835116 
" clip-path="url(#p4f36ce49ee)" style="fill: none; stroke: #0072b2; stroke-width: 1.25; stroke-linecap: square"/>
   </g>
   <g id="patch_4">
    <path d="M 37.85375 131.718516 
L 37.85375 20.418516 
" style="fill: none; stroke: #000000; stroke-width: 0.8; stroke-linejoin: miter; stroke-linecap: square"/>
   </g>
   <g id="patch_5">
    <path d="M 37.85375 131.718516 
L 218.81375 131.718516 
" style="fill: none; stroke: #000000; stroke-width: 0.8; stroke-linejoin: miter; stroke-linecap: square"/>
   </g>
   <g id="text_15">
    <!-- drugs2263 rep2 -->
    <g transform="translate(90.460664 14.418516) scale(0.095 -0.095)">
     <defs>
      <path id="DejaVuSans-64" d="M 2906 2969 
L 2906 4863 
L 3481 4863 
L 3481 0 
L 2906 0 
L 2906 525 
Q 2725 213 2448 61 
Q 2172 -91 1784 -91 
Q 1150 -91 751 415 
Q 353 922 353 1747 
Q 353 2572 751 3078 
Q 1150 3584 1784 3584 
Q 2172 3584 2448 3432 
Q 2725 3281 2906 2969 
z
M 947 1747 
Q 947 1113 1208 752 
Q 1469 391 1925 391 
Q 2381 391 2643 752 
Q 2906 1113 2906 1747 
Q 2906 2381 2643 2742 
Q 2381 3103 1925 3103 
Q 1469 3103 1208 2742 
Q 947 2381 947 1747 
z
" transform="scale(0.015625)"/>
      <path id="DejaVuSans-72" d="M 2631 2963 
Q 2534 3019 2420 3045 
Q 2306 3072 2169 3072 
Q 1681 3072 1420 2755 
Q 1159 2438 1159 1844 
L 1159 0 
L 581 0 
L 581 3500 
L 1159 3500 
L 1159 2956 
Q 1341 3275 1631 3429 
Q 1922 3584 2338 3584 
Q 2397 3584 2469 3576 
Q 2541 3569 2628 3553 
L 2631 2963 
z
" transform="scale(0.015625)"/>
      <path id="DejaVuSans-75" d="M 544 1381 
L 544 3500 
L 1119 3500 
L 1119 1403 
Q 1119 906 1312 657 
Q 1506 409 1894 409 
Q 2359 409 2629 706 
Q 2900 1003 2900 1516 
L 2900 3500 
L 3475 3500 
L 3475 0 
L 2900 0 
L 2900 538 
Q 2691 219 2414 64 
Q 2138 -91 1772 -91 
Q 1169 -91 856 284 
Q 544 659 544 1381 
z
M 1991 3584 
L 1991 3584 
z
" transform="scale(0.015625)"/>
      <path id="DejaVuSans-67" d="M 2906 1791 
Q 2906 2416 2648 2759 
Q 2391 3103 1925 3103 
Q 1463 3103 1205 2759 
Q 947 2416 947 1791 
Q 947 1169 1205 825 
Q 1463 481 1925 481 
Q 2391 481 2648 825 
Q 2906 1169 2906 1791 
z
M 3481 434 
Q 3481 -459 3084 -895 
Q 2688 -1331 1869 -1331 
Q 1566 -1331 1297 -1286 
Q 1028 -1241 775 -1147 
L 775 -588 
Q 1028 -725 1275 -790 
Q 1522 -856 1778 -856 
Q 2344 -856 2625 -561 
Q 2906 -266 2906 331 
L 2906 616 
Q 2728 306 2450 153 
Q 2172 0 1784 0 
Q 1141 0 747 490 
Q 353 981 353 1791 
Q 353 2603 747 3093 
Q 1141 3584 1784 3584 
Q 2172 3584 2450 3431 
Q 2728 3278 2906 2969 
L 2906 3500 
L 3481 3500 
L 3481 434 
z
" transform="scale(0.015625)"/>
      <path id="DejaVuSans-33" d="M 2597 2516 
Q 3050 2419 3304 2112 
Q 3559 1806 3559 1356 
Q 3559 666 3084 287 
Q 2609 -91 1734 -91 
Q 1441 -91 1130 -33 
Q 819 25 488 141 
L 488 750 
Q 750 597 1062 519 
Q 1375 441 1716 441 
Q 2309 441 2620 675 
Q 2931 909 2931 1356 
Q 2931 1769 2642 2001 
Q 2353 2234 1838 2234 
L 1294 2234 
L 1294 2753 
L 1863 2753 
Q 2328 2753 2575 2939 
Q 2822 3125 2822 3475 
Q 2822 3834 2567 4026 
Q 2313 4219 1838 4219 
Q 1578 4219 1281 4162 
Q 984 4106 628 3988 
L 628 4550 
Q 988 4650 1302 4700 
Q 1616 4750 1894 4750 
Q 2613 4750 3031 4423 
Q 3450 4097 3450 3541 
Q 3450 3153 3228 2886 
Q 3006 2619 2597 2516 
z
" transform="scale(0.015625)"/>
      <path id="DejaVuSans-70" d="M 1159 525 
L 1159 -1331 
L 581 -1331 
L 581 3500 
L 1159 3500 
L 1159 2969 
Q 1341 3281 1617 3432 
Q 1894 3584 2278 3584 
Q 2916 3584 3314 3078 
Q 3713 2572 3713 1747 
Q 3713 922 3314 415 
Q 2916 -91 2278 -91 
Q 1894 -91 1617 61 
Q 1341 213 1159 525 
z
M 3116 1747 
Q 3116 2381 2855 2742 
Q 2594 3103 2138 3103 
Q 1681 3103 1420 2742 
Q 1159 2381 1159 1747 
Q 1159 1113 1420 752 
Q 1681 391 2138 391 
Q 2594 391 2855 752 
Q 3116 1113 3116 1747 
z
" transform="scale(0.015625)"/>
     </defs>
     <use xlink:href="#DejaVuSans-64"/>
     <use xlink:href="#DejaVuSans-72" transform="translate(63.476562 0)"/>
     <use xlink:href="#DejaVuSans-75" transform="translate(104.589844 0)"/>
     <use xlink:href="#DejaVuSans-67" transform="translate(167.96875 0)"/>
     <use xlink:href="#DejaVuSans-73" transform="translate(231.445312 0)"/>
     <use xlink:href="#DejaVuSans-32" transform="translate(283.544922 0)"/>
     <use xlink:href="#DejaVuSans-32" transform="translate(347.167969 0)"/>
     <use xlink:href="#DejaVuSans-36" transform="translate(410.791016 0)"/>
     <use xlink:href="#DejaVuSans-33" transform="translate(474.414062 0)"/>
     <use xlink:href="#DejaVuSans-20" transform="translate(538.037109 0)"/>
     <use xlink:href="#DejaVuSans-72" transform="translate(569.824219 0)"/>
     <use xlink:href="#DejaVuSans-65" transform="translate(608.6875 0)"/>
     <use xlink:href="#DejaVuSans-70" transform="translate(670.210938 0)"/>
     <use xlink:href="#DejaVuSans-32" transform="translate(733.6875 0)"/>
    </g>
   </g>
  </g>
 </g>
 <defs>
  <clipPath id="p4f36ce49ee">
   <rect x="37.85375" y="20.418516" width="180.96" height="111.3"/>
  </clipPath>
 </defs>
</svg>
